<?xml version="1.0" encoding="utf-8"?>
<!-- Generator: Adobe Illustrator 24.0.0, SVG Export Plug-In . SVG Version: 6.00 Build 0)  -->
<svg version="1.1" id="图层_29" xmlns="http://www.w3.org/2000/svg" xmlns:xlink="http://www.w3.org/1999/xlink" x="0px" y="0px"
	 viewBox="0 0 96 96" style="enable-background:new 0 0 96 96;" xml:space="preserve">
<style type="text/css">
	.st0{fill:#2491F0;}
	.st1{fill:#FECF18;}
	.st2{fill:url(#SVGID_1_);}
	.st3{fill:url(#SVGID_2_);}
	.st4{fill:url(#SVGID_3_);}
	.st5{fill:url(#SVGID_4_);}
	.st6{fill:#28A5E4;}
</style>
<g id="_96">
	<path class="st0" d="M25,6h46c10.5,0,19,8.5,19,19v46c0,10.5-8.5,19-19,19H25C14.5,90,6,81.5,6,71V25C6,14.5,14.5,6,25,6z"/>
	<g id="_96-3">
		<path class="st1" d="M89.8,51.4c-0.9-1.8-2.1-3.4-3.5-4.8c-0.5-0.5-1.1-1-1.7-1.5l0,0L63,28.8l-2.1-5.7c-3.1-0.5-5.7,1.5-8.3,5.7
			c1-2.6,1-4.1-1.5-3.6s-5.7,0.5-9.3,1c-2.4,0.6-4.5,1.8-6.2,3.6c-5.5,3.2-9.4,3.2-12,6c-0.5,0.6-0.7,1.5-0.4,2.3
			c0.5,1.4,1.2,2.8,2.1,4c-0.5,3.6,1,6.7,3.6,9.8l-0.6,2.3c-0.3,1.2-0.1,2.4,0.5,3.4c0.7,1.3,1.6,2.6,2.6,3.7c2.1,2.6,3.1-1,7.2-1.5
			s7.2,1,8.8,1.5s9.8,1.5,9.8-7.2c0.5,4.1-0.5,8.2-4.1,12.9c2.1,2.6,3.1,4.6,3.1,6.2c0.5,2.1,0,6.2,1.5,10.8l0,0
			c0.5,1.6,1.2,3.2,2.1,4.7c0.2,0.3,0.4,0.6,0.6,1l0.1,0.2c0.1,0.1,0.2,0.2,0.3,0.3c12.9-4.6,20.1-9.3,23.2-13.9
			c3.6-5.7,6.7-15.4,5.7-23.2L89.8,51.4z"/>

			<linearGradient id="SVGID_1_" gradientUnits="userSpaceOnUse" x1="39.4362" y1="64.3629" x2="45.5662" y2="64.3629" gradientTransform="matrix(1 0 0 -1 0 98)">
			<stop  offset="0" style="stop-color:#FF4800;stop-opacity:0.5"/>
			<stop  offset="1" style="stop-color:#FCA510;stop-opacity:0.2"/>
		</linearGradient>
		<path class="st2" d="M39.4,32.1c1-0.3,2.1-0.3,3.1,0c1.4,0.5,2.5,1.6,3,3.1c-1,0.3-2.1,0.3-3.1,0C41.1,34.6,40,33.5,39.4,32.1z"/>
		<g>
			<linearGradient id="SVGID_2_" gradientUnits="userSpaceOnUse" x1="88.9362" y1="89.4347" x2="55.7471" y2="62.6986">
				<stop  offset="0" style="stop-color:#FCA504"/>
				<stop  offset="1" style="stop-color:#FCA506;stop-opacity:0"/>
			</linearGradient>
			<path class="st3" d="M59.9,88.5c0.2,0.3,0.4,0.6,0.6,1l0.1,0.2c0.1,0.1,0.2,0.2,0.3,0.3c11-3.9,17.8-7.9,21.5-11.8
				c-1.7-2-3.3-4.1-4.6-6.3c-6.4-10.7-5.3-18.7-12.3-24.5c-5.7-4.7-13.2-5-18.4-4.6C36.4,44.3,32.4,51,31.8,55
				c-0.3,2.2-0.3,4.3,0,6.4c1.9,2.1,3-1.2,7-1.8c4.1-0.5,7.2,1,8.8,1.5s9.8,1.5,9.8-7.2c0.5,4.1-0.5,8.2-4.1,12.9
				c2.1,2.6,3.1,4.6,3.1,6.2c0.5,2.1,0,6.2,1.5,10.8C58.4,85.5,59.1,87,59.9,88.5z"/>
			<linearGradient id="SVGID_3_" gradientUnits="userSpaceOnUse" x1="67.5247" y1="92.915" x2="60.4379" y2="41.0261">
				<stop  offset="0" style="stop-color:#FF4800;stop-opacity:0.5"/>
				<stop  offset="0.65" style="stop-color:#FCA510;stop-opacity:0.2"/>
			</linearGradient>
			<path class="st4" d="M73.2,71.9c-2.6-6.4-2.2-7.6-5.2-13.6c-2-4.4-5.6-7.7-10.1-9.3c-2.9-1.2-6.1-1.7-9.2-1.5
				c5.9,2.5,8.3,4.7,8.7,7.2c0-0.2,0-0.4,0-0.6c0.5,4.1-0.5,8.2-4.1,12.9c2.1,2.6,3.1,4.6,3.1,6.2c0.5,2.1,0,6.2,1.5,10.8
				c0.5,1.6,1.2,3.2,2.1,4.7c0.2,0.3,0.4,0.6,0.6,1l0.1,0.2c0.1,0.1,0.2,0.2,0.3,0.3c8-2.9,13.7-5.7,17.7-8.6
				C76.4,78.5,74.6,75.3,73.2,71.9z"/>
			<linearGradient id="SVGID_4_" gradientUnits="userSpaceOnUse" x1="58.0917" y1="23.7585" x2="59.4118" y2="40.2366">
				<stop  offset="0" style="stop-color:#FF4800;stop-opacity:0.5"/>
				<stop  offset="0.65" style="stop-color:#FCA510;stop-opacity:0.2"/>
			</linearGradient>
			<path class="st5" d="M62.8,28.2l-1.9-5.1c-0.8-0.1-1.5-0.1-2.2,0.1c0.3,0.9,0.6,1.8,0.7,2.8c0.6,5.9-3.9,10.1-4.6,10.7
				c1.7-0.7,3.3-1.7,4.6-3.1C59.4,33.6,60.4,32.5,62.8,28.2z"/>
		</g>
		<g>
			<polygon class="st6" points="64,61.2 67,58.1 70.1,58.1 70.1,74.9 73.2,74.9 73.2,78 62.4,78 62.4,74.9 65.5,74.9 65.5,62.7
				64,64.2 			"/>
			<path class="st6" d="M84.1,76.1c1.3-2,2.5-4.5,3.5-7.3h-2.2l-3.1,3v3.1l1.5-1.5v3C84,76.3,84.1,76.2,84.1,76.1z"/>
			<path class="st6" d="M89.3,62.5L89.3,62.5c-0.5,0-1-0.1-1.4-0.3c-0.4-0.2-0.8-0.6-1-1c-0.3-0.6-0.5-1.3-0.5-2
				c-0.1-1.1-0.2-2.2-0.2-3.3c0-1.1,0-2.2,0.2-3.3c0.1-0.7,0.3-1.4,0.5-2c0.2-0.4,0.6-0.8,1-1c0.2-0.1,0.5-0.2,0.7-0.2
				c-0.7-1-1.4-1.9-2.2-2.7c-0.1-0.1-0.3-0.2-0.4-0.4c-0.8,0.3-1.4,0.8-1.9,1.4c-0.7,0.9-1.2,2-1.5,3.1c-0.4,1.6-0.5,3.3-0.5,5
				c0,1.7,0.1,3.4,0.5,5c0.3,1.1,0.8,2.2,1.5,3.1c0.6,0.7,1.4,1.3,2.3,1.6c0.7,0.2,1.5,0.4,2.2,0.4C88.8,64.8,89.1,63.7,89.3,62.5
				C89.3,62.5,89.3,62.5,89.3,62.5z"/>
			<path class="st6" d="M73.9,82.9c-1-0.3-2-0.5-3-0.5c-1,0-2,0.1-3,0.5c-0.9,0.3-1.7,0.8-2.3,1.6c-0.7,0.9-1.2,2-1.5,3.1
				c-0.1,0.4-0.2,0.9-0.3,1.3c1.7-0.7,3.4-1.3,4.9-2c0.2-0.2,0.4-0.4,0.7-0.6c0.4-0.1,0.7-0.2,1.1-0.2c1.7-0.8,3.3-1.6,4.7-2.4
				C74.8,83.3,74.4,83,73.9,82.9z"/>
		</g>
	</g>
</g>
</svg>
