<?xml version="1.0" encoding="utf-8"?>
<!-- Generator: Adobe Illustrator 24.0.0, SVG Export Plug-In . SVG Version: 6.00 Build 0)  -->
<svg version="1.1" id="图层_7" xmlns="http://www.w3.org/2000/svg" xmlns:xlink="http://www.w3.org/1999/xlink" x="0px" y="0px"
	 viewBox="0 0 96 96" style="enable-background:new 0 0 96 96;" xml:space="preserve">
<style type="text/css">
	.st0{fill:#E6E0D3;}
	.st1{fill:#9AD9EA;}
	.st2{fill:#81CFE3;}
	.st3{fill:#67C5DE;}
	.st4{fill:#4FBDD8;}
	.st5{fill:#B2E2EE;}
	.st6{fill:#CDE70C;}
	.st7{fill:#B2DB11;}
	.st8{fill:#99CF17;}
	.st9{fill:#80C31C;}
	.st10{fill:#67B722;}
	.st11{fill:#FFFEB3;}
	.st12{fill:#FFFF80;}
	.st13{fill:#FFFF4D;}
	.st14{fill:#E6E501;}
	.st15{fill:#FFB200;}
	.st16{fill:#FF7F00;}
	.st17{fill:#FF4E02;}
	.st18{fill:#FE0000;}
	.st19{fill:#EC9923;}
	.st20{fill:#010101;}
	.st21{fill:#C8A063;}
</style>
<g id="_96">
	<path id="_96-2" class="st0" d="M25,6h46c10.5,0,19,8.5,19,19v46c0,10.5-8.5,19-19,19H25C14.5,90,6,81.5,6,71V25
		C6,14.5,14.5,6,25,6z"/>
	<g>
		<rect x="54" y="74" class="st1" width="16" height="16"/>
		<rect x="38" y="74" class="st2" width="16" height="16"/>
		<rect x="22" y="74" class="st3" width="16" height="16"/>
		<path class="st4" d="M22,89.7V74H6.3C7.5,82.1,13.9,88.5,22,89.7z"/>
		<path class="st5" d="M89.7,74H70v16h1C80.5,90,88.3,83.1,89.7,74z"/>
	</g>
	<rect x="70" y="58" class="st6" width="20" height="16"/>
	<rect x="54" y="58" class="st7" width="16" height="16"/>
	<rect x="38" y="58" class="st8" width="16" height="16"/>
	<rect x="22" y="58" class="st9" width="16" height="16"/>
	<rect x="6" y="58" class="st10" width="16" height="16"/>
	<rect x="54" y="42" class="st11" width="16" height="16"/>
	<rect x="38" y="42" class="st12" width="16" height="16"/>
	<rect x="22" y="42" class="st13" width="16" height="16"/>
	<rect x="6" y="42" class="st14" width="16" height="16"/>
	<rect x="38" y="26" class="st15" width="16" height="16"/>
	<rect x="22" y="26" class="st16" width="16" height="16"/>
	<rect x="6" y="26" class="st17" width="16" height="16"/>
	<rect x="22" y="10" class="st18" width="16" height="16"/>
	<path class="st19" d="M53.6,64.5l-9-5.4L70,13.6c0.9-1.4,2.7-1.9,4.1-1l3.9,2.3c1.4,0.9,1.9,2.7,1,4.1L53.6,64.5z"/>
	<polygon class="st20" points="41.8,71 44.4,72.6 40.5,76.2 	"/>
	<polygon class="st21" points="44.7,59.1 53.6,64.5 44.4,72.6 41.8,71 	"/>
</g>
</svg>
