<svg id="文本编辑器" xmlns="http://www.w3.org/2000/svg" viewBox="0 0 96 96"><defs><style>.cls-1{fill:#f7f7f7;}.cls-2{fill:#ddd;}.cls-3{fill:#b8cbd2;}.cls-4{fill:#f4c444;}.cls-5{fill:#e86258;}</style></defs><title>96</title><g id="_96" data-name="96"><rect class="cls-1" x="7.69" y="7.69" width="80.62" height="80.62" rx="17.31"/><path class="cls-2" d="M71,9.38A15.64,15.64,0,0,1,86.62,25V71A15.64,15.64,0,0,1,71,86.62H25A15.64,15.64,0,0,1,9.38,71V25A15.64,15.64,0,0,1,25,9.38H71M71,6H25A19,19,0,0,0,6,25V71A19,19,0,0,0,25,90H71A19,19,0,0,0,90,71V25A19,19,0,0,0,71,6Z"/><rect class="cls-3" x="24" y="77" width="38.89" height="3"/><rect class="cls-3" x="24" y="68" width="50" height="3"/><rect class="cls-3" x="24" y="59" width="50" height="3"/><rect class="cls-3" x="48" y="49" width="26" height="3"/><rect class="cls-3" x="48" y="40" width="26" height="3"/><rect class="cls-3" x="48" y="31" width="26" height="3"/><rect class="cls-3" x="24" y="18" width="36" height="6"/><rect class="cls-4" x="46" y="58" width="18" height="5"/><rect class="cls-5" x="45.5" y="76" width="9" height="5"/><rect class="cls-4" x="24" y="31" width="20" height="21"/><polygon points="41 35 28 35 28 38 33 38 33 49 36 49 36 38 41 38 41 35"/></g></svg>