<svg id="归档管理器" xmlns="http://www.w3.org/2000/svg" viewBox="0 0 96 96"><defs><style>.cls-1{fill:#ddd;}.cls-2{fill:#d8b04c;}.cls-3{fill:#f9f9f9;opacity:0.6;}.cls-4{opacity:0.3;}.cls-5{fill:#db4b3d;}.cls-6{fill:#00a5d1;}</style></defs><title>96</title><g id="_96" data-name="96"><g id="_96-2" data-name="96"><rect class="cls-1" x="6" y="6" width="84" height="84" rx="19"/></g><path class="cls-2" d="M71,6H70a6,6,0,0,0-6,6V84a6,6,0,0,0,6,6h1A19,19,0,0,0,90,71V25A19,19,0,0,0,71,6Z"/><rect class="cls-3" x="71" y="67" width="12" height="2" rx="1"/><rect class="cls-3" x="71" y="62" width="12" height="2" rx="1"/><rect class="cls-3" x="71" y="57" width="12" height="2" rx="1"/><rect class="cls-3" x="71" y="14" width="12" height="40" rx="2"/><circle class="cls-4" cx="77" cy="79" r="6"/><rect class="cls-5" x="35" y="6" width="26" height="84" rx="6"/><rect class="cls-3" x="42" y="67" width="12" height="2" rx="1"/><rect class="cls-3" x="42" y="62" width="12" height="2" rx="1"/><rect class="cls-3" x="42" y="57" width="12" height="2" rx="1"/><rect class="cls-3" x="42" y="14" width="12" height="40" rx="2"/><circle class="cls-4" cx="48" cy="79" r="6"/><path class="cls-6" d="M32,84V12a6,6,0,0,0-6-6H25A19,19,0,0,0,6,25V71A19,19,0,0,0,25,90h1A6,6,0,0,0,32,84Z"/><rect class="cls-3" x="13" y="67" width="12" height="2" rx="1"/><rect class="cls-3" x="13" y="62" width="12" height="2" rx="1"/><rect class="cls-3" x="13" y="57" width="12" height="2" rx="1"/><rect class="cls-3" x="13" y="14" width="12" height="40" rx="2"/><circle class="cls-4" cx="19" cy="79" r="6"/></g></svg>