<svg id="PDF" xmlns="http://www.w3.org/2000/svg" viewBox="0 0 96 96"><defs><style>.cls-1{fill:#b8d1e6;}.cls-2{fill:#607d8b;}.cls-3{fill:#f9f9fa;}.cls-4{fill:#c6171e;}</style></defs><title>96</title><g id="_96" data-name="96"><rect class="cls-1" x="6" y="6" width="84" height="84" rx="19"/><g id="atril-粉蓝色"><g id="_512" data-name=" 512"><g id="layer1"><rect id="rect4626" class="cls-2" x="21" y="65" width="49" height="3"/><rect id="rect4628" class="cls-2" x="21" y="71" width="49" height="3"/><rect id="rect4630" class="cls-2" x="21" y="77" width="32" height="3"/><path id="path4004" class="cls-3" d="M45.28,18c-2.42,5.27-6,9.92-8.84,14.94-3.3,5.39-8.78,8.91-13.3,13.2-2,1.78-4.28,3.37-6.14,5.33,2.39,1.09,5.4-.27,7.67-1.25,1.24-.47,2.64-2.4.57-.59a40.21,40.21,0,0,0-7.56,9.56c-.47,2.91,3.61-.27,4.74-1,5.46-4,10-9.4,16.41-12.16,3-1.81,4.67.76,5.82,3.07,2,3.15,4.23,6.38,7.67,8.23,2.55,1.18,5.58.87,8.3.49,6.22-1.6,12.33-4.83,16.1-10,2.34-4.1,1.13-8.93.88-13.37l-.27-3.16c-1.87,3.2-3.44,6.65-6.28,9.16-4.19,3.77-8.54,8.23-14.51,9.07-2.63,1.12-6.39-.89-5.83-3.85,1.29-2.5,4.37-3.31,6.65-4.74,6.2-3.57,13-6.68,17.51-12.38,1.78-1.85,3.08-4.12,2.18-6.69-.89-2-3.15-4.6-4.85-1.82-5.28,4.74-11.27,8.65-16.92,13-1.93.93-5.28,4.6-7,2.47-1.26-5.58-.7-11.51-2.54-17C45.58,18.27,45.52,17.94,45.28,18ZM42.82,31.73c.13,2,.22,4.1-.83,6-.46,1.28-5,5-3.77,1.52a37.06,37.06,0,0,1,4.62-7.47Z"/><path id="path3185" class="cls-4" d="M45.4,18.34c-.1,0-1.76,4.43-4.19,8.77-5.91,10.41-9.64,15-15.67,18.9-2.61,1.7-6.72,3.84-7.62,5s-.33.43,3.15-.54c8.7-2.44,8.05-4.38,1.49,3.31-9,10.46-4.45,7.22,4.93-1.34a45.43,45.43,0,0,1,10.19-7.13,11.08,11.08,0,0,1,3.76-.91c1.93-.13,3,.06,3.76,2.13A24.28,24.28,0,0,0,49.38,54a9.31,9.31,0,0,0,2.46,2,7.32,7.32,0,0,0,2.52,1.12,16,16,0,0,0,4.88.15c3.09-.18,8.37-2.93,11.94-5.75,5.76-4.51,6.52-5.9,6.45-11.6v-6.5l-2.74,4C69,46,61.89,51.68,57.12,51.68c-10.57,0-12-8-2-12,8.63-3.49,19.41-10.42,22.14-14.77V24a7.33,7.33,0,0,0-.66-2.6,6.89,6.89,0,0,0-1.71-1.86c-.54-.37-.86-.58-1.26-.54a1.24,1.24,0,0,0-.87.91c-1.3,3.67-20.3,18.24-25.31,18.24-.48,0-.7-3.74-1.09-9.4C46,22.84,46.14,18,45.4,18.34Zm-2.13,12,.4,4.53A5.72,5.72,0,0,1,40,40.31c-1.86.76-3.68,2.09-3.49,0,.09-1.07,1.75-2.79,3.74-5.53Z"/></g></g></g></g></svg>