<svg id="生物识别" xmlns="http://www.w3.org/2000/svg" viewBox="0 0 96 96"><defs><style>.cls-1{fill:#009461;}.cls-2{fill:#fff;opacity:0.15;}.cls-3{fill:#00722d;}.cls-4{fill:#9ee9a9;}.cls-5{fill:#d4f7e3;}.cls-6{fill:#88dc88;}</style></defs><title>96</title><g id="_96" data-name="96"><rect class="cls-1" x="6" y="6" width="84" height="84" rx="19"/><path class="cls-2" d="M10,29V67a3.92,3.92,0,0,0,2,3.44L46.07,89.49a4,4,0,0,0,3.86,0L84,70.41A3.92,3.92,0,0,0,86,67V29a3.92,3.92,0,0,0-2-3.44L49.93,6.51a4,4,0,0,0-3.86,0L12,25.59A3.92,3.92,0,0,0,10,29Z"/><polygon class="cls-3" points="25 35.25 25 60.75 48 73.5 71 60.75 71 35.25 48 22.5 25 35.25"/><polygon class="cls-4" points="48 6.83 45 39.77 51 39.77 48 6.83"/><polygon class="cls-4" points="10.97 27.64 38.92 46.78 41.92 41.71 10.97 27.64"/><polygon class="cls-4" points="85.03 27.64 57.08 46.78 54.08 41.7 85.03 27.64"/><polygon class="cls-4" points="48 89.44 45 56.24 51 56.24 48 89.44"/><polygon class="cls-4" points="11.29 68.66 42.23 54.6 39.23 49.52 11.29 68.66"/><polygon class="cls-4" points="84.71 68.66 53.77 54.6 56.77 49.52 84.71 68.66"/><path class="cls-5" d="M44,86V86a3.89,3.89,0,0,0,2,3.38l.1.06a3.9,3.9,0,0,0,3.88,0l.1-.06A3.89,3.89,0,0,0,52,86V86a3.89,3.89,0,0,0-2-3.38l-.1-.06a3.9,3.9,0,0,0-3.88,0l-.1.06A3.89,3.89,0,0,0,44,86Z"/><path class="cls-5" d="M44,10V10a3.89,3.89,0,0,0,2,3.38l.1.06a3.9,3.9,0,0,0,3.88,0l.1-.06A3.89,3.89,0,0,0,52,10V10a3.89,3.89,0,0,0-2-3.38l-.1-.06a3.9,3.9,0,0,0-3.88,0l-.1.06A3.89,3.89,0,0,0,44,10Z"/><path class="cls-5" d="M10,67V67a3.89,3.89,0,0,0,2,3.38l.1.06a3.9,3.9,0,0,0,3.88,0l.1-.06A3.89,3.89,0,0,0,18,67V67a3.89,3.89,0,0,0-2-3.38l-.1-.06a3.9,3.9,0,0,0-3.88,0l-.1.06A3.89,3.89,0,0,0,10,67Z"/><path class="cls-5" d="M78,67.19v.07a3.91,3.91,0,0,0,2,3.38l.1.06a3.94,3.94,0,0,0,3.88,0l.1-.06a3.91,3.91,0,0,0,2-3.38v-.07a3.89,3.89,0,0,0-2-3.38l-.1-.06a3.9,3.9,0,0,0-3.88,0l-.1.06A3.89,3.89,0,0,0,78,67.19Z"/><path class="cls-5" d="M78,29V29a3.89,3.89,0,0,0,2,3.38l.1.06a3.9,3.9,0,0,0,3.88,0l.1-.06A3.89,3.89,0,0,0,86,29V29a3.89,3.89,0,0,0-2-3.38l-.1-.06a3.9,3.9,0,0,0-3.88,0l-.1.06A3.89,3.89,0,0,0,78,29Z"/><path class="cls-5" d="M10,29V29a3.89,3.89,0,0,0,2,3.38l.1.06a3.9,3.9,0,0,0,3.88,0l.1-.06A3.89,3.89,0,0,0,18,29V29a3.89,3.89,0,0,0-2-3.38l-.1-.06a3.9,3.9,0,0,0-3.88,0l-.1.06A3.89,3.89,0,0,0,10,29Z"/><circle class="cls-6" cx="48" cy="48" r="11"/></g></svg>