<?xml version="1.0" encoding="utf-8"?>
<!-- Generator: Adobe Illustrator 24.0.0, SVG Export Plug-In . SVG Version: 6.00 Build 0)  -->
<svg version="1.1" id="图层_1" xmlns="http://www.w3.org/2000/svg" xmlns:xlink="http://www.w3.org/1999/xlink" x="0px" y="0px"
	 viewBox="0 0 96 96" style="enable-background:new 0 0 96 96;" xml:space="preserve">
<style type="text/css">
	.st0{fill:#73CE53;}
	.st1{fill-rule:evenodd;clip-rule:evenodd;fill:#FFFFFF;}
	.st2{fill-rule:evenodd;clip-rule:evenodd;fill:url(#SVGID_1_);}
	.st3{fill-rule:evenodd;clip-rule:evenodd;fill:url(#SVGID_2_);}
</style>
<g id="图层_23">
	<g id="browser360-cn">
		<g id="_96-2">
			<path class="st0" d="M25,6h46c10.5,0,19,8.5,19,19v46c0,10.5-8.5,19-19,19H25C14.5,90,6,81.5,6,71V25C6,14.5,14.5,6,25,6z"/>
			<g id="_96-3">
				<path class="st1" d="M38.7,46.7c-2.1,2.1-3.2,4.9-3.2,7.8h40.4c0.4-2,0.7-4,0.7-6c0-1.7-0.1-3.3-0.4-5
					c-2.7-15.2-17.3-25.3-32.5-22.6S18.2,38.2,21,53.5S38.3,78.8,53.5,76c8.5-1.5,15.8-6.9,19.8-14.5H59.5c-7.2,6-17.9,5.1-24-2.1
					s-5.1-17.9,2.1-24s17.9-5.1,24,2.1c1.5,1.7,2.6,3.8,3.2,6H46.5C43.6,43.5,40.8,44.7,38.7,46.7z"/>
				
					<linearGradient id="SVGID_1_" gradientUnits="userSpaceOnUse" x1="37.5654" y1="71.8019" x2="48.4854" y2="28.1319" gradientTransform="matrix(1 0 0 -1 0 98)">
					<stop  offset="0" style="stop-color:#4CAF50;stop-opacity:0.5"/>
					<stop  offset="1" style="stop-color:#FFFFFF;stop-opacity:0"/>
				</linearGradient>
				<path class="st2" d="M65.5,48c0,2.2-0.3,4.4-1,6.5h-29c0-6.1,4.9-11,11-11h18.3c-2.8-9-12.3-14-21.2-11.3s-14,12.3-11.3,21.2
					s12.3,14,21.2,11.3c2.2-0.7,4.2-1.8,6-3.2H61c-7.5,9.9-21.6,11.9-31.5,4.5c-5.6-4.2-8.9-10.7-9-17.7c0-1.3,0.1-2.7,0.3-4
					c0-0.3,0.1-0.5,0.1-0.8c2.5-12.2,14.4-20,26.6-17.5C58,28.2,65.5,37.3,65.5,48z"/>
				
					<linearGradient id="SVGID_2_" gradientUnits="userSpaceOnUse" x1="29.7715" y1="57.6241" x2="56.7832" y2="31.8424" gradientTransform="matrix(1 0 0 -1 0 98)">
					<stop  offset="0" style="stop-color:#4CAF50;stop-opacity:0.4"/>
					<stop  offset="1" style="stop-color:#FFFFFF;stop-opacity:0"/>
				</linearGradient>
				<path class="st3" d="M61,61.5c-7.1,9.5-20.3,11.8-30.2,5.4c-3.9-2.5-6.2-6.7-6.3-11.3v-0.1c0-12.9,10.2-23.5,23.1-24
					c-9.4,0.5-16.6,8.5-16,17.9c0.5,9.4,8.5,16.6,17.9,16c3.7-0.2,7.2-1.6,10-3.9L61,61.5z"/>
			</g>
		</g>
	</g>
</g>
</svg>
