<svg id="刻录" xmlns="http://www.w3.org/2000/svg" viewBox="0 0 96 96"><defs><style>.cls-1{fill:#179ffc;}.cls-2{fill:#f6f5f5;}.cls-3{fill:#0690fe;}.cls-4{opacity:0.2;}.cls-5{fill:#fff;}.cls-6{fill:#130f30;stroke:#fff;}.cls-6,.cls-7{stroke-miterlimit:10;}.cls-7{fill:none;stroke:#02070c;stroke-width:4px;}.cls-8{fill:#ff5e33;}</style></defs><title>96</title><g id="_96" data-name=" 96"><path class="cls-1" d="M48,4A44,44,0,1,0,92,48,44,44,0,0,0,48,4Zm0,48.55A4.55,4.55,0,1,1,52.55,48h0a4.47,4.47,0,0,1-4.39,4.55Z"/><path class="cls-2" d="M48,11.82A36.18,36.18,0,1,0,84.18,48h0A36.19,36.19,0,0,0,48,11.82Zm0,42A5.79,5.79,0,1,1,53.79,48,5.79,5.79,0,0,1,48,53.82Z"/><circle class="cls-3" cx="48" cy="48" r="32.27"/><g class="cls-4"><path class="cls-5" d="M74,25a35,35,0,0,0-10.67-8.14L48,48Z"/><path class="cls-5" d="M22,71a35,35,0,0,0,10.67,8.14L48,48Z"/></g><g class="cls-4"><path class="cls-5" d="M81.77,39.39a35.15,35.15,0,0,0-5.62-12.24L48,47.79Z"/><path class="cls-5" d="M14.23,56.19a35.33,35.33,0,0,0,5.62,12.24L48,47.79Z"/></g><path class="cls-6" d="M48,37A11,11,0,1,0,59,48h0A10.79,10.79,0,0,0,48.58,37H48"/><circle class="cls-5" cx="48" cy="48" r="5.5"/><circle class="cls-5" cx="48" cy="48" r="14.67"/><circle class="cls-7" cx="48" cy="48" r="7.82"/><path class="cls-8" d="M69.21,82.24h0c1.06-.12,7.1-4.8,7.1-13.73S68.2,57.3,66.05,50.43c-2.38-7.57,2.09-13,5.4-15.85a1.68,1.68,0,0,1,.39-1.25s-12.1,6.6-8.51,18.07c2.15,6.87,10.31,9,10.31,18.08s-6,13.6-7.1,13.72a50.5,50.5,0,0,0,13.34-3.11,52,52,0,0,1-10.63,2.14Z"/><path class="cls-8" d="M91.72,68c2-10.84-7.35-15.86-14.13-21.69-4.09-3.51-6.19-9.17-6.14-11.76-3.31,2.83-7.78,8.28-5.4,15.85,2.15,6.87,10.3,9,10.3,18.07s-6,13.61-7.1,13.73a52,52,0,0,0,10.63-2.14C85.3,77.91,90.57,74.22,91.72,68Z"/><path class="cls-8" d="M66,74.47c5.31-4.83,1.06-11.71-.44-14.56-2.36,5.44-9.24,6-10.6,13.25S60.77,84.57,65.38,85.1C64.4,83.89,61.61,78.5,66,74.47Z"/></g></svg>