<?xml version="1.0" encoding="utf-8"?>
<!-- Generator: Adobe Illustrator 24.0.0, SVG Export Plug-In . SVG Version: 6.00 Build 0)  -->
<svg version="1.1" id="图片查看器" xmlns="http://www.w3.org/2000/svg" xmlns:xlink="http://www.w3.org/1999/xlink" x="0px"
	 y="0px" viewBox="0 0 96 96" style="enable-background:new 0 0 96 96;" xml:space="preserve">
<style type="text/css">
	.st0{fill:#A3E0F5;}
	.st1{fill:#3DB39E;}
	.st2{fill:#4BC2AD;}
	.st3{fill:#EFC75E;}
</style>
<g id="_96-2">
	<path class="st0" d="M25,6h46c10.5,0,19,8.5,19,19v46c0,10.5-8.5,19-19,19H25C14.5,90,6,81.5,6,71V25C6,14.5,14.5,6,25,6z"/>
	<g id="display.im6-红紫渐变">
		<path class="st1" d="M31.3,64.4C21.1,64.4,12,67.8,6.1,73c1,9.5,9.1,17,18.9,17h38.1c0.2-0.9,0.2-1.8,0.2-2.8
			C63.4,74.6,49,64.4,31.3,64.4z"/>
		<path class="st2" d="M90,64.7c-5.4-8.2-16.1-13.8-28.3-13.8c-17.7,0-32.1,11.7-32.1,26.2c0,4.7,1.5,9.1,4.2,12.9H71
			c10.5,0,19-8.5,19-19V64.7z"/>
		<path class="st3" d="M6,25v3.9c3.1,3.7,7.8,6.1,13,6.1c9.4,0,17-7.6,17-17c0-4.7-1.9-8.9-5-12h-6C14.5,6,6,14.5,6,25z"/>
	</g>
</g>
</svg>
