<?xml version="1.0" encoding="utf-8"?>
<!-- Generator: Adobe Illustrator 24.0.0, SVG Export Plug-In . SVG Version: 6.00 Build 0)  -->
<svg version="1.1" id="图层_22" xmlns="http://www.w3.org/2000/svg" xmlns:xlink="http://www.w3.org/1999/xlink" x="0px" y="0px"
	 viewBox="0 0 96 96" style="enable-background:new 0 0 96 96;" xml:space="preserve">
<style type="text/css">
	.st0{fill:#03A9F4;}
	.st1{fill:#EF3F3F;}
	.st2{fill:#F2F2F2;}
	.st3{fill:#C7B299;}
	.st4{fill:#CCCCCC;}
	.st5{fill:#9B8979;}
</style>
<g id="_96">
	<g>
		<path class="st0" d="M90,25c0-10.5-8.5-19-19-19H25C14.5,6,6,14.5,6,25v46c0,10.5,8.5,19,19,19h46c10.5,0,19-8.5,19-19V25z"/>
		<path class="st1" d="M90,71.1L75.7,89.4C83.9,87.3,90,79.9,90,71.1z"/>
		<polygon class="st1" points="67.6,90 90,61.2 90,51.4 59.9,90 		"/>
		<polygon class="st1" points="52.2,90 90,41.5 90,31.7 44.5,90 		"/>
		<path class="st1" d="M36.8,90l52.9-67.9c-0.4-2.4-1.2-4.7-2.4-6.8L29.2,90H36.8z"/>
		<path class="st1" d="M21.7,89.7l61.7-79.1c-1.5-1.3-3.3-2.4-5.2-3.2L15.7,87.6C17.5,88.6,19.6,89.3,21.7,89.7z"/>
		<path class="st1" d="M7.5,78.4c0.8,2,2,3.8,3.5,5.4L71.6,6c-0.2,0-0.4,0-0.6,0h-7L7.5,78.4z"/>
		<polygon class="st1" points="6,60.6 6,70.5 56.3,6 48.6,6 		"/>
		<polygon class="st1" points="6,40.9 6,50.8 40.9,6 33.2,6 		"/>
		<path class="st1" d="M25.6,6H25c-3.2,0-6.2,0.8-8.8,2.2L6.6,20.5C6.2,22,6,23.5,6,25v6.1L25.6,6z"/>
	</g>
	<path class="st2" d="M27.2,10h41.6C78.3,10,86,17.7,86,27.2v41.6C86,78.3,78.3,86,68.8,86H27.2C17.7,86,10,78.3,10,68.8V27.2
		C10,17.7,17.7,10,27.2,10z"/>
	<path class="st3" d="M22,31h20c4.4,0,8,3.6,8,8v18c0,4.4-3.6,8-8,8H22c-4.4,0-8-3.6-8-8V39C14,34.6,17.6,31,22,31z"/>
	<rect x="54" y="35" class="st4" width="28" height="2"/>
	<rect x="54" y="43" class="st4" width="28" height="2"/>
	<rect x="54" y="51" class="st4" width="28" height="2"/>
	<rect x="54" y="59" class="st4" width="28" height="2"/>
	<path class="st5" d="M32.6,51.8c-0.5,0.5-1,0.9-1.6,1.3c-0.5,0.3-1.2,0.5-1.8,0.5c-0.7,0-1.3-0.2-1.9-0.6c-0.7-0.4-1.2-1-1.5-1.7
		c-0.4-0.8-0.6-1.6-0.6-2.5c0-1.2,0.3-2.3,0.9-3.3c0.5-1,1.3-1.9,2.2-2.5c0.8-0.5,1.7-0.8,2.6-0.8c0.6,0,1.3,0.2,1.8,0.5
		c0.6,0.3,1.1,0.8,1.5,1.4l0.4-1.6h2l-1.6,7c-0.2,1-0.3,1.5-0.3,1.6c0,0.2,0.1,0.4,0.2,0.5c0.1,0.1,0.3,0.2,0.5,0.2
		c0.6-0.1,1.1-0.3,1.5-0.6c0.8-0.6,1.5-1.3,2-2.2c0.5-0.9,0.7-1.9,0.7-2.9c0-1.2-0.4-2.3-1-3.3c-0.7-1.1-1.7-1.9-2.8-2.4
		c-1.3-0.6-2.7-0.9-4.1-0.9c-1.7,0-3.3,0.4-4.7,1.1c-1.4,0.7-2.6,1.9-3.3,3.3c-0.8,1.4-1.2,3-1.2,4.6c0,1.5,0.4,3.1,1.2,4.4
		c0.8,1.3,2,2.2,3.4,2.7c1.6,0.6,3.3,0.9,5,0.9c1.7,0.1,3.3-0.3,4.9-0.9c1.2-0.5,2.2-1.2,3-2.2h2c-0.5,0.9-1.2,1.6-1.9,2.2
		c-1,0.8-2.1,1.4-3.3,1.8c-1.5,0.5-3,0.7-4.6,0.7c-1.5,0-3.1-0.2-4.5-0.6c-1.3-0.3-2.5-1-3.5-1.8c-0.9-0.7-1.7-1.7-2.2-2.7
		c-0.6-1.3-0.9-2.8-0.9-4.3c0-1.7,0.4-3.3,1.1-4.8c0.8-1.8,2.2-3.3,3.9-4.3c1.8-1,3.9-1.6,6-1.5c1.7,0,3.4,0.3,4.9,1.1
		c1.4,0.7,2.6,1.8,3.5,3.1c1.8,3,1.3,6.8-1.2,9.3c-1.1,1.3-2.7,2.1-4.4,2.1c-0.4,0-0.8-0.1-1.2-0.2c-0.3-0.1-0.5-0.3-0.7-0.6
		C32.7,52.4,32.7,52.1,32.6,51.8z M27.3,49c-0.1,0.8,0.2,1.6,0.7,2.2c0.4,0.5,1,0.8,1.6,0.8c0.5,0,0.9-0.1,1.4-0.4
		c0.5-0.3,0.9-0.6,1.3-1c0.4-0.5,0.8-1.1,1-1.7c0.3-0.7,0.4-1.4,0.4-2.1c0.1-0.8-0.2-1.6-0.7-2.2c-0.5-0.5-1.1-0.8-1.8-0.8
		c-0.5,0-0.9,0.1-1.3,0.3c-0.5,0.3-0.9,0.6-1.2,1.1c-0.4,0.5-0.8,1.1-1,1.8C27.4,47.6,27.3,48.3,27.3,49z"/>
</g>
</svg>
