<svg id="图层_16" data-name="图层 16" xmlns="http://www.w3.org/2000/svg" xmlns:xlink="http://www.w3.org/1999/xlink" viewBox="0 0 96 96"><defs><style>.cls-1{fill:#cecac2;}.cls-2{fill:#49453a;}.cls-3{fill:#2f2f2f;}.cls-4{fill:#f2f2f2;}.cls-5{fill:#333;}.cls-6,.cls-8{fill:#e6e6e6;}.cls-6{opacity:0.4;isolation:isolate;}.cls-7{fill:#fff;}.cls-9{fill:#1a1a1a;}.cls-10{fill:#ea6a42;}.cls-11{fill:#d9d9d9;}.cls-12{fill:url(#未命名的渐变_3);}</style><linearGradient id="未命名的渐变_3" x1="74.14" y1="52.01" x2="76.98" y2="52.01" gradientTransform="matrix(1, 0, 0, -1, 0, 122)" gradientUnits="userSpaceOnUse"><stop offset="0.09" stop-color="#1a1a1a"/><stop offset="0.49" stop-color="#2b2b2b"/><stop offset="1" stop-color="#1a1a1a"/></linearGradient></defs><title>96</title><g id="_96" data-name="96"><path class="cls-1" d="M25,6H71A19,19,0,0,1,90,25V71A19,19,0,0,1,71,90H25A19,19,0,0,1,6,71V25A19,19,0,0,1,25,6Z"/><path class="cls-2" d="M28.2,24.5s8.9,8.7,21.1,8.9c9.9.2,24.6-11.1,24.9-12.5,0,0,6,35.2-14.9,40.4C41,65.9,23.7,49.4,18.6,45.2A19.73,19.73,0,0,1,35,43C34.9,42.9,27.8,34.1,28.2,24.5Z"/><path class="cls-3" d="M16.8,35.7c3.5-1.9,8.4.5,11,5.3s1.9,10.2-1.5,12.1-8.4-.5-11-5.3S13.3,37.5,16.8,35.7Z"/><ellipse class="cls-4" cx="50.77" cy="38.42" rx="7.9" ry="8.4" transform="matrix(0.14, -0.99, 0.99, 0.14, 5.45, 83.14)"/><ellipse class="cls-5" cx="52.22" cy="41.05" rx="3.2" ry="3.5" transform="translate(4.1 86.83) rotate(-81.74)"/><ellipse cx="52.01" cy="40.76" rx="1.5" ry="1.6" transform="translate(4.2 86.38) rotate(-81.74)"/><ellipse class="cls-6" cx="50.4" cy="36.89" rx="3.4" ry="4" transform="translate(-11.37 27.62) rotate(-27.67)"/><ellipse class="cls-7" cx="50.88" cy="38.14" rx="1.6" ry="1.7" transform="translate(5.82 83.01) rotate(-81.74)"/><ellipse class="cls-4" cx="35" cy="40" rx="5.9" ry="6" transform="translate(-0.54 0.48) rotate(-0.78)"/><circle class="cls-5" cx="36.1" cy="41.6" r="2.4"/><circle cx="36.1" cy="41.6" r="1.3"/><ellipse class="cls-6" cx="34.72" cy="38.6" rx="2.4" ry="3" transform="translate(-14.65 22.53) rotate(-30)"/><circle class="cls-7" cx="35.2" cy="39.2" r="1.3"/><ellipse class="cls-8" cx="19" cy="39.7" rx="2.8" ry="3.2" transform="translate(-16.07 13.11) rotate(-27.26)"/><path class="cls-9" d="M50.9,53.2s8.7,1.4,11.1-1.3c0,0-.7-1.5-1.7-1.5,0,0,1.5-.9,2.5,1.3,1.2,2.4.3,3.4.3,3.4a6,6,0,0,0-.6-1.9C61.3,54.5,55.9,55.3,50.9,53.2Z"/><path class="cls-10" d="M62.3,52.9s8,5.3,8.5,6.5-1.7,2.2-2.8,1.1c-1-.9-6.8-6.5-7-6.9A.78.78,0,0,1,62.3,52.9Z"/><path class="cls-11" d="M68.4,60.5a2.09,2.09,0,0,0,.4.6c1.7,1.6,3.4,3.1,5.2,4.5.6.3,1.9-.6,1.6-1.6s-3.7-4.2-5.3-4.8C69.4,58.8,68.3,60,68.4,60.5Z"/><path class="cls-9" d="M79.3,64.6a3.93,3.93,0,0,0-4.4-.3,4.08,4.08,0,0,0-1.6,5.4c1.1,2,4.4,6.2,9,5.3C81.3,70.3,81.2,66.1,79.3,64.6Z"/><path class="cls-12" d="M74.1,67.9A4.63,4.63,0,0,0,76.5,72c.9.4.3-1-1-2A3.45,3.45,0,0,1,74.1,67.9Z"/></g></svg>