<svg id="分区编辑器" xmlns="http://www.w3.org/2000/svg" viewBox="0 0 96 96"><defs><style>.cls-1{fill:#eff2f9;}.cls-2{fill:#6363e5;}.cls-3{fill:#2196f3;}.cls-4{fill:#dc55e0;}.cls-5{fill:#ffde94;}</style></defs><title>96</title><g id="_96" data-name="96"><rect class="cls-1" x="8" y="8" width="80" height="80" rx="17"/><path class="cls-2" d="M71,10A15,15,0,0,1,86,25V71A15,15,0,0,1,71,86H25A15,15,0,0,1,10,71V25A15,15,0,0,1,25,10H71m0-4H25A19.06,19.06,0,0,0,6,25V71A19.06,19.06,0,0,0,25,90H71A19.06,19.06,0,0,0,90,71V25A19.06,19.06,0,0,0,71,6Z"/><path class="cls-3" d="M48,48h0V16A32,32,0,0,0,23.29,27.66h0a32,32,0,0,0,14.28,50.6h0A32.19,32.19,0,0,0,48,80,32,32,0,0,0,75.84,63.78Z"/><path class="cls-4" d="M75.84,63.78a32,32,0,0,0,.22-31.17L48,48Z"/><path class="cls-5" d="M48,48l0,0,28.05-15.4A32,32,0,0,0,48,16V48h0Z"/><circle class="cls-1" cx="48" cy="48" r="13"/></g></svg>