<svg id="日历" xmlns="http://www.w3.org/2000/svg" xmlns:xlink="http://www.w3.org/1999/xlink" viewBox="0 0 96 96"><defs><style>.cls-1{fill:none;}.cls-2{fill:#f5483d;}.cls-3{opacity:0.92;}.cls-4{fill:#f7f7f7;}.cls-5{clip-path:url(#clip-path);}.cls-6{fill:#dabf79;}.cls-7{font-size:34.94px;fill:#404040;font-family:MicrosoftYaHei, Microsoft YaHei;}.cls-8{font-size:5.38px;fill:#575757;font-family:STXihei;}</style><clipPath id="clip-path"><rect class="cls-1" x="6" y="6" width="84" height="22"/></clipPath></defs><title>96</title><g id="_96" data-name="96"><rect class="cls-2" x="6" y="6" width="84" height="84" rx="19"/><g class="cls-3"><path class="cls-4" d="M71,85H25A14,14,0,0,1,11,71V19H85V71A14,14,0,0,1,71,85Z"/></g><path class="cls-2" d="M90,28H6V25.22A19.21,19.21,0,0,1,25.22,6H70.78A19.21,19.21,0,0,1,90,25.22Z"/><g class="cls-5"><path class="cls-6" d="M98.29,32.85s-.72-4.37-5.88-4.19H89.92a15.74,15.74,0,0,0-2.19-8,16.31,16.31,0,0,0-9.34-7.12A15.4,15.4,0,0,0,73.24,13a15.61,15.61,0,0,0-8.16,3.07s-8.37-5.7-14.87,2.49a11.12,11.12,0,0,0-8.8,2.17,10.83,10.83,0,0,0-3.78,6.59A7.31,7.31,0,0,0,26.8,22.52a6.76,6.76,0,0,0-3.56,6L3.3,28.57s-5,.89-4.81,5.79c0,0,0,4.09,4.81,5.16l18.16.09L21.37,39,7.57,38.9s-4.9-1.51-3.38-6.5c0,0,1.24-3.74,6.58-3.2H88.31a5,5,0,0,1,4.37,5.55s-.36,3.79-4.1,4.15H47.72a4.52,4.52,0,0,0-3.38,4.45s-.07,3.47,4.11,3.83H61.87a4.81,4.81,0,0,1,2.85,6.32S63.65,55.81,61.61,56l-32.67-.35v.89H67a5,5,0,0,0,2.36-1.27,5.28,5.28,0,0,0-.7-7.92,5.07,5.07,0,0,0-3.09-.87H53a3.62,3.62,0,0,1-2.73-2.39A3.68,3.68,0,0,1,51.73,40a3.05,3.05,0,0,1,.72-.23,3.51,3.51,0,0,1,.73-.08L93,39.7c.22,0,3.76-.61,5-3.63A5.75,5.75,0,0,0,98.29,32.85Zm-95,1.45a5.21,5.21,0,0,0,2.67,4.57s-4.25.5-5.82-1.72A5.2,5.2,0,0,1-1,33.66,4.69,4.69,0,0,1-.43,31.8,4.93,4.93,0,0,1,.62,30.4c2-1.84,4.84-1.35,5.32-1.26A5.86,5.86,0,0,0,3.27,34.3Zm26.05-5.77a1,1,0,0,1,.16-.4,1.27,1.27,0,0,1,.9-.54,1.43,1.43,0,0,1,1.05.36,1.21,1.21,0,0,1,.32.58Zm3,0a1.79,1.79,0,0,0-.54-1.06,1.75,1.75,0,0,0-.94-.43,2,2,0,0,0-1.32.29,2,2,0,0,0-.85,1.2h-.8a2.81,2.81,0,0,1,1.47-2,2.68,2.68,0,0,1,1.79-.16,2.54,2.54,0,0,1,1.93,2.16Zm1.33,0a3.24,3.24,0,0,0-1.11-2.05,3.14,3.14,0,0,0-1.69-.73,3,3,0,0,0-1.67.18,3.59,3.59,0,0,0-1.91,2.6h-.8a4.22,4.22,0,0,1,3.44-3.62c3.83-.43,4.6,3.62,4.6,3.62Zm1.34,0c-.36-4.11-4.51-4.17-4.51-4.17a4.3,4.3,0,0,0-4.57,4.17h-.8a5.35,5.35,0,0,1,5-5c5.28-.18,5.7,5,5.7,5Zm1.39,0a6.23,6.23,0,0,0-1.2-3.23A6.31,6.31,0,0,0,31.75,23,6.23,6.23,0,0,0,27,24a6.3,6.3,0,0,0-2.47,4.5H23.8A6.88,6.88,0,0,1,30,22.13c6.71,0,7.18,6.4,7.18,6.4ZM55.06,15.31a11.11,11.11,0,0,1,5.5-.39,10.94,10.94,0,0,1,3.81,1.5L63.3,17.49A10.32,10.32,0,0,0,60,16.11a8.47,8.47,0,0,0-7.83,3.07l-1.38-.58A12.34,12.34,0,0,1,55.06,15.31ZM58.2,20a4.55,4.55,0,0,0-2.65,1.18l-1.11-.63s2.45-3.28,7.17-1.33l-.89,1.33A4.53,4.53,0,0,0,58.2,20Zm2.21,1-.49,1.16a2.77,2.77,0,0,0-1.74-.22,2.8,2.8,0,0,0-1.6.93l-.76-1S57.25,19.67,60.41,21Zm-6.5-1.07-1.16-.49a8,8,0,0,1,10.06-1.64l-.76,1.11S58.63,16.29,53.91,19.89Zm-7.79,8.59a2.16,2.16,0,0,1,1.76-1.54,2.19,2.19,0,0,1,2.29,1.59Zm4.63.05a2.67,2.67,0,0,0-3.56-2.09s-1.07.08-1.61,2.09H44.16a3.8,3.8,0,0,1,3.56-3.61,3.66,3.66,0,0,1,1.56.23,4.06,4.06,0,0,1,2,1.42,3.92,3.92,0,0,1,.71,2Zm2,0A4.78,4.78,0,0,0,48.1,24.3a4.63,4.63,0,0,0-4.52,4.23H42.24a6,6,0,0,1,5.35-5.48c5.87-.31,6.54,5.48,6.54,5.48Zm1.91,0c-.22-5.74-6.21-6.23-6.21-6.23a6.57,6.57,0,0,0-6.78,6.23H40.24l.18-1.07C42.2,20.69,48.1,21,48.1,21a8.11,8.11,0,0,1,8,7.52Zm2,0c-.8-7.7-8.22-8.19-8.22-8.19a8.76,8.76,0,0,0-8.83,8.19H38.28a11.3,11.3,0,0,1,1.38-4.59,10.15,10.15,0,0,1,11.09-4.58A10.26,10.26,0,0,1,58,28.53Zm.4-5.08a2,2,0,0,1,2.62-.67,12.73,12.73,0,0,0-1.11,4.15S57.51,23.76,57.07,23.45Zm14,5.08a3.61,3.61,0,0,1,1.65-2.45,3.22,3.22,0,0,1,2.34-.26,3.35,3.35,0,0,1,2.28,2.71Zm6.9,0a4,4,0,0,0-1-2.18,4.1,4.1,0,0,0-2.73-1.28,4.17,4.17,0,0,0-2,.65,4.47,4.47,0,0,0-1.88,2.76L68,28.53a6.12,6.12,0,0,1,6.21-5.74s5.36-.27,5.94,5.74Zm2.85,0a6.27,6.27,0,0,0-6-6.3,6.73,6.73,0,0,0-5.12,1.37,6.87,6.87,0,0,0-2.48,4.93H65c.85-8.73,9.06-8.82,9.06-8.82,9,.45,9.15,8.82,9.15,8.82Zm2.93,0a9.55,9.55,0,0,0-2.41-6.48,9.86,9.86,0,0,0-7.87-3,10.19,10.19,0,0,0-7.06,3.73,9.82,9.82,0,0,0-2,5.75H62.05A12.17,12.17,0,0,1,76.65,17c9.44,1.87,9.66,11.53,9.66,11.53Zm3,0a13,13,0,0,0-4.32-9.44A12.78,12.78,0,0,0,74.23,16a13.06,13.06,0,0,0-8.49,3.18,13.32,13.32,0,0,0-4.36,9.33H59.07a13,13,0,0,1,1.56-6.46,15.1,15.1,0,0,1,4.58-5.34A16.49,16.49,0,0,1,73,13.92a3.44,3.44,0,0,0,.68-.06l-.06,0c15,0,15.71,14.69,15.71,14.69ZM69.92,50a4.29,4.29,0,0,1,.1,2.72,4.15,4.15,0,0,1-1.21,1.92,4.35,4.35,0,0,1-3,1.41H63.09a5.46,5.46,0,0,0,2.61-3.74,5.37,5.37,0,0,0-2.43-5.22S68.55,46.23,69.92,50Zm-20.3-6.12a5.54,5.54,0,0,0,1.48,2.56c-2.88.52-5.35-.55-6-2.27a3.38,3.38,0,0,1,.17-2.7,3.82,3.82,0,0,1,3.46-1.92h2.4A4,4,0,0,0,49.62,43.85Zm44.81-5.16a20,20,0,0,1-2.49.24c-.57,0-1.1,0-1.61,0a5.92,5.92,0,0,0,2.86-4.63,5.84,5.84,0,0,0-.54-2.54,6,6,0,0,0-2.2-2.56s5.45-.72,6.65,2.61C97.1,31.81,99.24,36.85,94.43,38.69Z"/></g><text class="cls-7" transform="translate(27.49 63.62)">25</text><text class="cls-8" transform="translate(37.25 78.18)">三月初七</text></g></svg>