<svg id="邮件客户端" xmlns="http://www.w3.org/2000/svg" viewBox="0 0 96 96"><defs><style>.cls-1{fill:#2c97ec;}.cls-2{fill:#d1e0f5;}.cls-3{fill:#ebf2ff;}.cls-4{fill:#f0f6ff;}.cls-5{fill:#f67438;}.cls-6{fill:#fff;}</style></defs><title>96</title><g id="_96" data-name="96"><rect class="cls-1" x="6" y="6" width="84" height="84" rx="19"/><rect class="cls-2" x="19" y="26" width="58" height="44" rx="6"/><path class="cls-3" d="M77,63,47.81,48,19,63v1a6,6,0,0,0,6,6H71a6,6,0,0,0,6-6Z"/><path class="cls-4" d="M77,36,51.36,50.93a7,7,0,0,1-7.08,0L19,36V32a6,6,0,0,1,6-6H71a6,6,0,0,1,6,6Z"/><path class="cls-5" d="M72.5,20.45a9,9,0,1,0,9,9A9,9,0,0,0,72.5,20.45Z"/><path class="cls-6" d="M72.56,35.45a6,6,0,1,1,4.2-10.24,5.93,5.93,0,0,1,1.74,4.24v0a4,4,0,0,1-.69,2.36,2.09,2.09,0,0,1-1.69,1h0a1.65,1.65,0,0,1-1.5-1.12,2.59,2.59,0,0,1-2.1,1.12h0a2.55,2.55,0,0,1-1.9-.92,3.47,3.47,0,0,1-.77-2.16,2.91,2.91,0,0,1,2.75-3h0a2.68,2.68,0,0,1,1.7.72v-.28a.28.28,0,0,1,.32-.32h.2c.12,0,.41,0,.41.32v2.44c0,1.32.36,2.2.93,2.2s1.37-1,1.37-2.44a5,5,0,0,0-5-5,5,5,0,0,0-4.93,5,5.09,5.09,0,0,0,6.75,4.72.87.87,0,0,0,.24-.12.36.36,0,0,1,.2,0,.56.56,0,0,1,.45.24l0,.08a.56.56,0,0,1,0,.36.36.36,0,0,1-.25.24,2.8,2.8,0,0,1-.44.16A5.59,5.59,0,0,1,72.56,35.45Zm0-7.76a2,2,0,0,0-1.66,2.16A1.93,1.93,0,0,0,72.56,32a2,2,0,0,0,1.66-2.12A2,2,0,0,0,72.56,27.69Z"/></g></svg>