<svg id="麒麟助手" xmlns="http://www.w3.org/2000/svg" viewBox="0 0 96 96"><defs><style>.cls-1{fill:#2681ef;}.cls-2{fill:#fff;opacity:0.84;}.cls-3{fill:#ebf5ff;}.cls-4{fill:#f2f9ff;}.cls-5{fill:#313a4d;}.cls-6{fill:#8cfff5;}</style></defs><title>96</title><g id="_96" data-name="96"><path class="cls-1" d="M67.69,90H28.31A22.38,22.38,0,0,1,6,67.69V28.31A22.38,22.38,0,0,1,28.31,6H67.69A22.38,22.38,0,0,1,90,28.31V67.69A22.38,22.38,0,0,1,67.69,90Z"/><ellipse class="cls-2" cx="48" cy="20.5" rx="12" ry="5.5"/><ellipse class="cls-3" cx="78" cy="53" rx="8" ry="7" transform="translate(24.84 130.89) rotate(-89.89)"/><ellipse class="cls-3" cx="18.02" cy="53" rx="7" ry="8" transform="matrix(1, 0, 0, 1, -0.07, 0.03)"/><path class="cls-4" d="M79,53.23C79,70.21,65.17,80,47.84,80S17,70.21,17,53.23,28.41,18,48.16,18,79,36.25,79,53.23Z"/><path class="cls-5" d="M59.5,75.72a52.5,52.5,0,0,0-23,0c-6.12,1.37-12.21-2.43-14.12-8.94l-1.8-6.15c-2.15-7.36,1.85-15.21,8.71-17a74.35,74.35,0,0,1,37.42,0c6.86,1.78,10.86,9.63,8.71,17l-1.8,6.15C71.71,73.29,65.62,77.09,59.5,75.72Z"/><circle class="cls-6" cx="37" cy="52" r="4"/><circle class="cls-6" cx="59" cy="52" r="4"/><path class="cls-4" d="M48.27,81.35a35.35,35.35,0,0,1-25-10.21C17.89,65.74,15,59.05,15,52.29c0-2.52,0-5.13.69-7a7.64,7.64,0,0,1,1.3-2.7A4.26,4.26,0,0,1,20.51,41,4.41,4.41,0,0,1,25,45.15a12.82,12.82,0,0,1-.28,1.69,28.1,28.1,0,0,0-.64,4.29c0,10.81,10.85,19.61,24.19,19.61s23.59-8.62,23.59-19.61a20.75,20.75,0,0,0-.57-4.39,4,4,0,0,1-.35-1.59,3.85,3.85,0,0,1,2.44-3.59A5.06,5.06,0,0,1,75.7,41a4.77,4.77,0,0,1,3.87,2.15c1.79,2.4,1.93,5.45,1.93,9.18C81.5,68.05,66.28,81.35,48.27,81.35Z"/></g></svg>