<svg id="日志管理" xmlns="http://www.w3.org/2000/svg" viewBox="0 0 96 96"><defs><style>.cls-1{fill:#2b95f2;}.cls-2{fill:#f2f2f2;}.cls-3{fill:#f94a3d;}.cls-4{fill:#fff;}</style></defs><title>96</title><g id="_96" data-name="96"><rect class="cls-1" x="6" y="6" width="84" height="84" rx="19"/><rect class="cls-2" x="27" y="37" width="42" height="6" rx="3"/><rect class="cls-2" x="27" y="50" width="42" height="6" rx="3"/><rect class="cls-2" x="27" y="63" width="42" height="6" rx="3"/><rect class="cls-2" x="27" y="24" width="42" height="6" rx="3"/><path class="cls-3" d="M89.94,68.61c0-1.67-1.09-2.53-2.89-2.69a3.79,3.79,0,0,1-3.65-4.65c.68-3.16.52-3.61-2.39-5.25L79.15,55a3.92,3.92,0,0,0-5.55.48c-2.14,1.71-3.1,1.67-5.15,0a3.91,3.91,0,0,0-5.55-.54l-3.1,1.74a3,3,0,0,0-1.52,3.77c1,3.16-.43,5.19-3.78,5.53a2.35,2.35,0,0,0-2.38,2.19,58.65,58.65,0,0,0,0,7.5c0,1.61,1.05,2.43,2.79,2.59a3.85,3.85,0,0,1,3.83,3.87,3.12,3.12,0,0,1-.05.69c-.62,3.32-.62,3.67,2.48,5.38.65.38,1.3.79,2,1.14a3.72,3.72,0,0,0,5-.66c2.39-2.09,3.1-2.06,5.61,0,.49.32,1,.64,1.49.94a3,3,0,0,0,3.09,0c1.75-1.09,3.46-2.12,5-3.31a2.87,2.87,0,0,0,.29-2.5c-1.15-2.85.68-5.35,3.9-5.67a2.13,2.13,0,0,0,2.29-2A65.41,65.41,0,0,0,89.94,68.61ZM71.07,80H71a8,8,0,1,1,.07,0Z"/><path class="cls-4" d="M80,72a9,9,0,0,1-9,9h0a9,9,0,0,1,0-18h0A9,9,0,0,1,80,72Z"/><path class="cls-3" d="M75.65,70.05l-4.54,4.6-1,1a1.17,1.17,0,0,1-1.67,0l-2.11-2.14a1.2,1.2,0,0,1,0-1.7,1.17,1.17,0,0,1,1.67,0L69.3,73.1,74,68.35a1.17,1.17,0,0,1,1.67,0A1.2,1.2,0,0,1,75.65,70.05Z"/></g></svg>