<svg id="外部控制器" xmlns="http://www.w3.org/2000/svg" viewBox="0 0 96 96"><defs><style>.cls-1{fill:#83707c;}.cls-2{fill:#d2a7b4;}.cls-3{fill:#cab4c6;}.cls-4{fill:#8c7a8a;}.cls-5{fill:#ff7946;}</style></defs><title>96</title><g id="_96" data-name="96"><rect class="cls-1" x="6" y="6" width="84" height="84" rx="19"/><rect class="cls-2" x="59.91" y="24.59" width="5" height="18" transform="translate(42.03 -34.29) rotate(45)"/><path class="cls-3" d="M57.88,40.38l-1.13-1.13L44,26.52a6,6,0,0,0-8.49,0l-17,17a6,6,0,0,0,0,8.48L31.3,64.7l1.13,1.13L44,77.43a6,6,0,0,0,8.48,0l17-17a6,6,0,0,0,0-8.49Z"/><circle class="cls-4" cx="36.95" cy="42.08" r="6"/><circle class="cls-4" cx="53.92" cy="59.05" r="6"/><circle class="cls-5" cx="70.19" cy="25.81" r="9"/></g></svg>