<svg id="用户手册" xmlns="http://www.w3.org/2000/svg" viewBox="0 0 96 96"><defs><style>.cls-1{fill:#5081c2;}.cls-2{fill:#e2f4fb;}</style></defs><title>96</title><g id="_96" data-name="96"><rect class="cls-1" x="6" y="6" width="84" height="84" rx="19"/><path class="cls-2" d="M50.11,60c-.14-5.45,1.07-10.74,6.27-14.49,5.47-4.24,10.76-9.55,10.21-15.8C66.46,23.66,59.38,19,51.76,18.26c-8.59-1.19-19,1.74-21.85,8.4-1.46,3.23,0,9.05,4.79,9.05a4.07,4.07,0,0,0,4.39-3.51,8.19,8.19,0,0,0-.66-3.45c-.39-1.31,1.12-3.6,2.68-4.51a10.42,10.42,0,0,1,3-1.1A11.56,11.56,0,0,1,56,27.72c2.06,3.16-.21,7.94-3.46,12.64S46,50.34,46,56a24.1,24.1,0,0,0,0,3.73C46.15,60.57,48.32,60.32,50.11,60Zm-2.29,7.35c-4.72-.25-8,5.06-5.15,8.45s9.64,2.82,10.85-1.42a5.59,5.59,0,0,0-3.92-6.86,5.47,5.47,0,0,0-1.76-.19Z"/></g></svg>