<svg xmlns="http://www.w3.org/2000/svg" xmlns:xlink="http://www.w3.org/1999/xlink" viewBox="0 0 96 96"><defs><style>.cls-1{fill:none;}.cls-2{fill:#c9bcab;}.cls-3{fill:#2989cc;}.cls-4{opacity:0.85;}.cls-5{fill:#fff;}.cls-6{clip-path:url(#clip-path);}.cls-7{fill:#ff6563;}.cls-10,.cls-8,.cls-9{fill:#ffffd9;}.cls-8{opacity:0.13;}.cls-9{opacity:0.14;}.cls-11{fill:#f7c161;}.cls-12{fill:#fca402;}.cls-13{fill:url(#未命名的渐变_722);}.cls-14{fill:#ffef5f;}.cls-15{fill:#fea008;}.cls-16{fill:#ffd438;}.cls-17{opacity:0.92;}.cls-18{opacity:0.2;}.cls-19{fill:#957008;}.cls-20{opacity:0.8;}.cls-21{fill:#221606;}.cls-22{fill:#8015cc;}.cls-23{fill:#e7eced;}.cls-24{fill:#b0b7bc;}.cls-25{fill:#187afa;}.cls-26{fill:#50f59f;}.cls-27{fill:#5990ff;}</style><clipPath id="clip-path"><rect class="cls-1" x="19" y="37" width="60" height="42" rx="5.96"/></clipPath><linearGradient id="未命名的渐变_722" x1="80.99" y1="60.88" x2="76.65" y2="60.88" gradientUnits="userSpaceOnUse"><stop offset="0" stop-color="#ffa904"/><stop offset="0.62" stop-color="#fa9302"/><stop offset="1" stop-color="#f68400"/></linearGradient></defs><title>96</title><g id="看图软件"><g id="_96" data-name="96"><rect class="cls-2" x="6" y="6" width="84" height="84" rx="19"/><path class="cls-3" d="M77,60.62,31,73a8.09,8.09,0,0,1-9.91-5.75L13.28,38.11a8.13,8.13,0,0,1,5.73-10L65,15.78a8.09,8.09,0,0,1,9.91,5.75l7.78,29.12A8.13,8.13,0,0,1,77,60.62Z"/><g class="cls-4"><path class="cls-5" d="M67.13,18.5h0A5.11,5.11,0,0,1,72,22.3l7.78,29.13a5.13,5.13,0,0,1-3.6,6.29l-46,12.37a4.94,4.94,0,0,1-1.32.18A5.12,5.12,0,0,1,24,66.47L16.18,37.34a5.15,5.15,0,0,1,3.6-6.3l46-12.36a4.94,4.94,0,0,1,1.32-.18m0-3a8,8,0,0,0-2.1.28L19,28.15a8.13,8.13,0,0,0-5.73,10l7.78,29.13a8.11,8.11,0,0,0,7.81,6A8,8,0,0,0,31,73L77,60.62a8.13,8.13,0,0,0,5.73-10L74.94,21.53a8.1,8.1,0,0,0-7.81-6Z"/></g><g class="cls-6"><path class="cls-7" d="M23.65,37.2H74.47a4.92,4.92,0,0,1,4.92,4.92V73.26a0,0,0,0,1,0,0H18.73a0,0,0,0,1,0,0V42.11A4.92,4.92,0,0,1,23.65,37.2Z"/><ellipse class="cls-8" cx="47.75" cy="60.93" rx="20.78" ry="20.91"/><ellipse class="cls-9" cx="47.75" cy="60.93" rx="16.62" ry="16.73"/><ellipse class="cls-10" cx="47.75" cy="60.93" rx="12.47" ry="12.55"/><polygon class="cls-11" points="69.66 59.13 65.19 64.41 74.53 64.41 69.66 59.13"/><polygon class="cls-12" points="69.66 59.13 69.66 64.41 74.53 64.41 69.66 59.13"/><polygon class="cls-11" points="76.31 57.51 70.61 64.24 82.52 64.24 76.31 57.51"/><polygon class="cls-13" points="76.31 57.51 76.31 64.24 82.52 64.24 76.31 57.51"/><path class="cls-14" d="M19.31,64.82c1.88,1.06,6,.24,9.26-1.4s7.37.82,9,.82c1.16,0,19.09,1.8,19.09,1.8a12.51,12.51,0,0,1,2.1-.84c9.27-.79,9.4-3.76,20.23-1.6l.38,11.3s-.56,2.55-5.37,4.15c-3.36,1.12-8.56.77-17.58.77-3.68,0-30,.59-34.38-1.58C17.07,75.75,19.31,64.82,19.31,64.82Z"/><path class="cls-15" d="M18.73,68.34c-.42-1.62,4.64-.27,5.45.14s5.68,2.84,8.53-1.22,8.15-7.11,20.71-3.66S71.69,67.66,79,64.82c0,0,0,7.88-.44,10.9-.82,5.74-20.36,4.15-27.86,4.1-11.42-.08-24.59,1.64-29.51-1.64C17.17,75.5,18.16,72.29,18.73,68.34Z"/><path class="cls-16" d="M19.55,74.08c1.22,0,15.57.82,17.22-3.17,1-2.52-2.17-6.39,1.4-7.9C45,60.15,58.07,66.7,78.56,76.54L76.11,79,63,79.82s-11.58.47-15.64-.19A3,3,0,0,0,45,76.46c-4.76-1.58-14.81-.87-23,1.59l-2.41-2.33Z"/></g><g class="cls-17"><path class="cls-5" d="M72.66,38A5.34,5.34,0,0,1,78,43.34V72.66A5.34,5.34,0,0,1,72.66,78H25.34A5.34,5.34,0,0,1,20,72.66V43.34A5.34,5.34,0,0,1,25.34,38H72.66m0-3H25.34A8.33,8.33,0,0,0,17,43.34V72.66A8.33,8.33,0,0,0,25.34,81H72.66A8.33,8.33,0,0,0,81,72.66V43.34A8.33,8.33,0,0,0,72.66,35Z"/></g><path class="cls-18" d="M41.59,64.16v0a.75.75,0,0,0,.13-.32,1.15,1.15,0,0,0,0-.52s0-.07,0-.08h.13a.11.11,0,0,1,.09.15,2,2,0,0,0-.05.24c0,.14,0,.29,0,.43a.57.57,0,0,1-.19.42l-.05.07a.36.36,0,0,0,0,.29c0,.06,0,.11.07.17l.08,0a1.15,1.15,0,0,1,1.11.09s0,0,.05,0l.28-.53a.52.52,0,0,0,0-.44c0-.1-.09-.2-.13-.29a1.12,1.12,0,0,0-.26-.38s0,0,0,0l0,0,.25,0a.07.07,0,0,1,.05.11.06.06,0,0,0,0,.08,2.12,2.12,0,0,1,.11.21l.2.41a.24.24,0,0,1,0,.26,1.43,1.43,0,0,0-.08.22.88.88,0,0,0,0,.29l0,0,.24-.37a.66.66,0,0,0,.12-.41,1.53,1.53,0,0,0-.13-.56.43.43,0,0,0-.13-.17l0,0a.08.08,0,0,1,0,0l0,0,.17,0a.12.12,0,0,1,.1.11l.09.42c0,.1.06.2.08.3a.42.42,0,0,1,0,.36.55.55,0,0,0-.07.45,2.38,2.38,0,0,1,.05.26.41.41,0,0,0,0,.11,2.33,2.33,0,0,1,.07-.25l.1-.25a.78.78,0,0,1,.16-.2h0a3.06,3.06,0,0,0-.25.83,1.2,1.2,0,0,1-.17.48,1.05,1.05,0,0,1-.46.4,1,1,0,0,0-.44.39,1.67,1.67,0,0,1-.12.16c-.05.07-.11.07-.16,0l-.08-.12-.14-.24a.46.46,0,0,0-.38-.18.62.62,0,0,0-.46.27s-.06.11-.1.16-.11.06-.17,0a.26.26,0,0,1-.07-.1.83.83,0,0,1,0-.15A.42.42,0,0,0,41,66.3l-.12-.12-.11-.12a.18.18,0,0,0-.27,0,.2.2,0,0,0-.09.16c0,.1,0,.21,0,.31a.51.51,0,0,1-.18.42s0,0,0,.05a.1.1,0,0,1,0,.11.08.08,0,0,1-.11,0,.11.11,0,0,0-.08,0,.59.59,0,0,1-.23,0,1,1,0,0,0-.34-.09h-.13a.27.27,0,0,1-.22-.11c0-.08,0-.14.06-.15l0,0a.06.06,0,0,1,0,0h.14l.3-.08a1,1,0,0,1,.34,0s0,0,0,0,0-.23,0-.34a1.4,1.4,0,0,1,0-.5.75.75,0,0,1,.35-.43.57.57,0,0,1,.66.07c.06,0,.08,0,.13,0a.14.14,0,0,1,.07-.06l.08,0c.11,0,.15-.06.11-.21a.29.29,0,0,1,0-.18.76.76,0,0,0,.08-.21,1.27,1.27,0,0,0,0-.28c0-.13,0-.26,0-.4a1.54,1.54,0,0,0-.1-.56s0,0,0,0l.11,0c.12,0,.19.06.17.18a0,0,0,0,0,0,0,1.12,1.12,0,0,0-.06.51,2.56,2.56,0,0,0,0,.27Z"/><path class="cls-19" d="M41.69,62.33a2.5,2.5,0,0,0-.09.25,1.3,1.3,0,0,0,0,.52,0,0,0,0,1,0,0c0,.13-.07.19-.19.15l-.1-.05s0,0,0,0a1.5,1.5,0,0,0,.18-.54l0-.4V62a1.6,1.6,0,0,0,0-.21.23.23,0,0,1,0-.18c0-.14,0-.18-.08-.22l-.08-.05a.16.16,0,0,1-.06-.08c0-.06-.07-.07-.13,0a.56.56,0,0,1-.66,0,.78.78,0,0,1-.29-.48,1.4,1.4,0,0,1,0-.5l.06-.33s0,0,0,0a.73.73,0,0,1-.33-.08l-.3-.11-.1,0h0s0,0,0,0l0,0a.09.09,0,0,1,0-.15.25.25,0,0,1,.23-.08l.13,0a.84.84,0,0,0,.35,0,.48.48,0,0,1,.24,0s.05,0,.07,0a.09.09,0,0,1,.11,0,.08.08,0,0,1,0,.11s0,0,0,.06a.5.5,0,0,1,.13.44,1.55,1.55,0,0,0,0,.31.28.28,0,0,0,.07.17.18.18,0,0,0,.27,0l.12-.11a1.1,1.1,0,0,1,.14-.09.45.45,0,0,0,.2-.23.61.61,0,0,1,.07-.14.39.39,0,0,1,.08-.1.1.1,0,0,1,.17,0s0,.11.08.17a.56.56,0,0,0,.41.32.4.4,0,0,0,.4-.13,1.12,1.12,0,0,0,.17-.21l.09-.11a.1.1,0,0,1,.17,0,.91.91,0,0,1,.09.17,1,1,0,0,0,.39.44,1.13,1.13,0,0,1,.41.46,1.4,1.4,0,0,1,.11.49,2.72,2.72,0,0,0,.14.86h0A.46.46,0,0,1,44.2,62a2.41,2.41,0,0,1-.08-.25,2.51,2.51,0,0,0,0-.27.36.36,0,0,1,0,.11,2,2,0,0,1-.08.26.54.54,0,0,0,0,.45.48.48,0,0,1,0,.37l-.12.28-.14.41a.12.12,0,0,1-.11.09h-.18l0,0a.05.05,0,0,1,0,0l0,0a.34.34,0,0,0,.14-.15,1.32,1.32,0,0,0,.2-.53.71.71,0,0,0-.06-.43l-.2-.39,0-.05a.94.94,0,0,0,0,.29.86.86,0,0,0,.06.23.3.3,0,0,1,0,.26l-.25.38-.14.19a.08.08,0,0,0,0,.08c0,.06,0,.11-.06.11h-.25a0,0,0,0,1,0,0,.11.11,0,0,1,0,0,1,1,0,0,0,.31-.34,2.4,2.4,0,0,0,.16-.27.49.49,0,0,0,0-.44l-.21-.56s0,0,0,0a1.15,1.15,0,0,1-1.11,0l-.07,0a.83.83,0,0,0-.09.16.33.33,0,0,0,0,.29.43.43,0,0,0,0,.07.59.59,0,0,1,.13.44c0,.15,0,.29,0,.43a2.11,2.11,0,0,0,0,.25c0,.08,0,.13-.11.13h-.12c-.05,0-.06,0,0-.09a1,1,0,0,0,.1-.51,1,1,0,0,0-.09-.34h0S41.7,62.33,41.69,62.33Z"/><g class="cls-20"><path class="cls-21" d="M49.21,53.56a.77.77,0,0,0,.39-.28c-.53.33-.71.27-.82.42a3.12,3.12,0,0,1-.53.49l0,0a.12.12,0,0,0-.22.07l0,.49s0,0,0,0l.25.05a0,0,0,0,0,0,0l.13-.17a.06.06,0,0,0,0,0l-.19-.31,0,0a1.52,1.52,0,0,0,.32-.17,1.4,1.4,0,0,1,.68-.47l-.22,0a1.65,1.65,0,0,0,.27-.13l-.18.06a1.06,1.06,0,0,0,.26-.16A.88.88,0,0,1,49.21,53.56Z"/><path class="cls-21" d="M49.46,53.49Z"/><path class="cls-21" d="M49.46,53.49h0Z"/><path class="cls-21" d="M46.62,54.42Z"/><path class="cls-21" d="M46.62,54.42h0Z"/><path class="cls-21" d="M48,54.27a4.06,4.06,0,0,1-.71-.08c-.18-.06-.29.1-.91.14a.71.71,0,0,0,.47,0,.63.63,0,0,1-.24.09,1.07,1.07,0,0,0,.3,0l-.17.06a1.23,1.23,0,0,0,.29-.06l-.2.11a1.38,1.38,0,0,1,.82,0,1.72,1.72,0,0,0,.36,0Z"/></g></g></g><g id="安卓兼容"><g id="_96-2" data-name="96"><path class="cls-22" d="M90,70H6V25A19,19,0,0,1,25,6H71A19,19,0,0,1,90,25Z"/><path class="cls-23" d="M6,68H90a0,0,0,0,1,0,0v3A19,19,0,0,1,71,90H25A19,19,0,0,1,6,71V68a0,0,0,0,1,0,0Z"/><circle class="cls-24" cx="48" cy="78" r="5"/><path class="cls-25" d="M44.62,30.1,24.91,43.62a4.38,4.38,0,0,0,0,7.24L43.74,63.7a7.64,7.64,0,0,0,8.52,0L71.09,50.76a4.38,4.38,0,0,0,0-7.24L51.38,30A6,6,0,0,0,44.62,30.1Z"/><path class="cls-26" d="M44.62,22.08,24.91,35.57a4.36,4.36,0,0,0,0,7.22L43.74,55.7a7.64,7.64,0,0,0,8.52,0L71.09,42.79a4.36,4.36,0,0,0,0-7.22L51.38,22.08A5.83,5.83,0,0,0,44.62,22.08Z"/><path class="cls-27" d="M43.64,14.39l-18.73,13a4.44,4.44,0,0,0,0,7.3l18.83,13a7.57,7.57,0,0,0,8.52,0l18.83-13a4.44,4.44,0,0,0,0-7.3L52.26,14.39A7.39,7.39,0,0,0,43.64,14.39Z"/></g></g></svg>