<svg id="计算器" xmlns="http://www.w3.org/2000/svg" viewBox="0 0 96 96"><defs><style>.cls-1{fill:#3b5766;}.cls-2{fill:#d1f2d7;opacity:0.88;isolation:isolate;}.cls-3{fill:#e2e2e2;}.cls-4{fill:#e29576;}</style></defs><title>96</title><g id="_96" data-name="96"><rect id="_96-2" data-name="96" class="cls-1" x="6" y="6" width="84" height="84" rx="19"/><path class="cls-2" d="M81,30H15V23a9,9,0,0,1,9-9H72a9,9,0,0,1,9,9Z"/><rect class="cls-3" x="15" y="38" width="17" height="8" rx="4"/><rect class="cls-3" x="15" y="54" width="17" height="8" rx="4"/><rect class="cls-3" x="15" y="70" width="17" height="8" rx="4"/><rect class="cls-3" x="39" y="38" width="17" height="8" rx="4"/><rect class="cls-3" x="39" y="54" width="17" height="8" rx="4"/><rect class="cls-3" x="39" y="70" width="17" height="8" rx="4"/><rect class="cls-3" x="64" y="38" width="17" height="8" rx="4"/><rect class="cls-4" x="64" y="54" width="17" height="24" rx="4"/></g></svg>