<svg id="剪贴板" xmlns="http://www.w3.org/2000/svg" viewBox="0 0 96 96"><defs><style>.cls-1{fill:#12cf9e;}.cls-2{fill:#fed03d;}.cls-3{fill:#fff;}.cls-4{fill:#6b6b6b;}.cls-4,.cls-5{isolation:isolate;}.cls-5{fill:#7f7f7f;opacity:0.7;}.cls-6{fill:#3aa5fc;}.cls-7{fill:#60cc25;}.cls-8{fill:#ff9843;}</style></defs><title>96</title><g id="_96" data-name="96"><g id="图层_8" data-name="图层 8"><g id="_96-2" data-name=" 96"><rect class="cls-1" x="6" y="6" width="84" height="84" rx="19"/><rect class="cls-2" x="19" y="20" width="58" height="58" rx="12"/><rect class="cls-3" x="23" y="24" width="50" height="50" rx="9"/><path class="cls-4" d="M56,18h0a4,4,0,0,0-4-4H44a4,4,0,0,0-4,4h0a2,2,0,0,1-2,2H37a2,2,0,0,0-2,2v4a2,2,0,0,0,2,2H59a2,2,0,0,0,2-2V22a2,2,0,0,0-2-2H58A2,2,0,0,1,56,18Z"/><rect class="cls-5" x="42" y="38" width="21" height="2" rx="0.89"/><rect class="cls-5" x="42" y="49" width="21" height="2" rx="0.89"/><rect class="cls-5" x="42" y="60" width="21" height="2" rx="0.89"/><circle class="cls-6" cx="34.5" cy="38.5" r="2.5"/><circle class="cls-7" cx="34.5" cy="49.5" r="2.5"/><circle class="cls-8" cx="34.5" cy="60.5" r="2.5"/></g></g></g></svg>