<svg id="产品激活" xmlns="http://www.w3.org/2000/svg" viewBox="0 0 96 96"><defs><style>.cls-1{fill:#f7f7f7;}.cls-2{fill:#008df8;}.cls-3{fill:none;stroke:#006df9;stroke-miterlimit:10;stroke-width:5.86px;opacity:0.8;}</style></defs><title>96</title><g id="_96" data-name="96"><circle class="cls-1" cx="48" cy="48" r="44"/><polygon class="cls-2" points="69 42.05 63.88 43.63 60.75 48.23 57.7 49.88 55.41 51.09 47.92 48.08 42.5 44.09 46.09 39.12 44.79 33.92 47.16 27 47.16 27 41.59 32.65 40.82 32.49 42.27 28.96 41.13 31.07 42.27 28.96 37.16 34.15 36.77 34.38 32.27 37.16 30.05 41.75 27 47.02 29.9 54.25 30.82 59.82 31.96 62.68 30.05 65.01 27.99 67.5 33.57 67.5 34.33 62.38 36.55 58.91 40.29 59.59 44.49 57.94 47.62 56.28 50.44 58.61 47.08 62.6 43.34 66.06 49.07 66.22 49.07 63.88 49.07 63.88 49.15 63.88 49.15 63.81 53.04 60.65 55.18 62.3 50.52 68.92 56.4 69 56.17 65.69 60.45 61.77 58.23 57.33 58 51.99 62.36 49.43 64.8 49.96 64.8 49.88 68.08 48.75 68.08 48.75 69 42.05"/><path class="cls-3" d="M89,52.5A41.12,41.12,0,1,1,52.68,7.25,41.54,41.54,0,0,1,86.77,34.33H75.08"/></g></svg>