<?xml version="1.0" encoding="utf-8"?>
<!-- Generator: Adobe Illustrator 24.0.0, SVG Export Plug-In . SVG Version: 6.00 Build 0)  -->
<svg version="1.1" id="图层_1" xmlns="http://www.w3.org/2000/svg" xmlns:xlink="http://www.w3.org/1999/xlink" x="0px" y="0px"
	 viewBox="0 0 96 96" style="enable-background:new 0 0 96 96;" xml:space="preserve">
<style type="text/css">
	.st0{fill:#EE8319;}
	.st1{fill:#D96900;}
	.st2{opacity:5.000000e-02;}
	.st3{fill:#FCFCFC;}
	.st4{fill:#50C6F2;}
</style>
<g id="_96">
	<path class="st0" d="M25,6h46c10.5,0,19,8.5,19,19v46c0,10.5-8.5,19-19,19H25C14.5,90,6,81.5,6,71V25C6,14.5,14.5,6,25,6z"/>
	<path class="st1" d="M16.6,29.3l29.5,14.8c1.1,0.6,2.5,0.6,3.6,0l29.6-14.8c0.5-0.3,0.6-0.9,0.3-1.4c-0.1-0.1-0.2-0.3-0.3-0.3
		L49.8,11c-1.1-0.6-2.5-0.6-3.6,0L16.6,27.6c-0.5,0.3-0.6,0.9-0.3,1.4C16.4,29.1,16.5,29.2,16.6,29.3z"/>
	<g class="st2">
		<path d="M16.6,29.3l29.5,14.8c1.1,0.6,2.5,0.6,3.6,0l29.6-14.8c0.5-0.3,0.6-0.9,0.3-1.4c-0.1-0.1-0.2-0.3-0.3-0.3L49.8,11
			c-1.1-0.6-2.5-0.6-3.6,0L16.6,27.6c-0.5,0.3-0.6,0.9-0.3,1.4C16.4,29.1,16.5,29.2,16.6,29.3z"/>
	</g>
	<path class="st3" d="M62.5,28H54V12.8c0-1.5-1.2-2.8-2.8-2.8h-6.4c-1.5,0-2.8,1.2-2.8,2.8V28h-8.6c-1.1,0.1-1.9,0.9-2.3,1.9
		C30.8,31,31,32.1,31.7,33l5.8,6.8l8.4,4.2c1.3,0.7,2.8,0.7,4.1,0l8.6-4.3l5.7-6.7c0.7-0.9,0.9-2.1,0.5-3.2
		C64.5,28.8,63.6,28.1,62.5,28z"/>
	<path class="st3" d="M27.8,56h40.4c1.6,0,2.8,1.3,2.8,2.8v6.4c0,1.6-1.3,2.8-2.8,2.8H27.8c-1.6,0-2.8-1.3-2.8-2.8v-6.4
		C25,57.3,26.3,56,27.8,56z"/>
	<path class="st4" d="M28,66h22v-8H28c-0.6,0-1,0.4-1,1v6C27,65.6,27.4,66,28,66z"/>
</g>
</svg>
