<svg id="扫描" xmlns="http://www.w3.org/2000/svg" xmlns:xlink="http://www.w3.org/1999/xlink" viewBox="0 0 96 96"><defs><style>.cls-1{fill:#565480;}.cls-2{fill:#fffde6;}.cls-3{fill:#d3cfae;}.cls-4{fill:#a6888c;}.cls-5{fill:#7c6368;}.cls-6{opacity:0.3;}.cls-7{fill:none;stroke:#33fefe;stroke-miterlimit:10;stroke-width:2px;}.cls-8{fill:url(#未命名的渐变_16);}</style><linearGradient id="未命名的渐变_16" x1="48" y1="88.19" x2="48" y2="50.01" gradientUnits="userSpaceOnUse"><stop offset="0.2" stop-color="#00e9fe" stop-opacity="0"/><stop offset="1" stop-color="#00edfe" stop-opacity="0.77"/></linearGradient></defs><title>96</title><g id="_96" data-name="96"><rect class="cls-1" x="6" y="6" width="84" height="84" rx="19"/><path class="cls-2" d="M72,67H24V24a6,6,0,0,1,6-6H61L72,29Z"/><path class="cls-3" d="M61,26a3,3,0,0,0,3,3h8L61,18Z"/><path class="cls-4" d="M24,50H72a0,0,0,0,1,0,0V72a6,6,0,0,1-6,6H30a6,6,0,0,1-6-6V50a0,0,0,0,1,0,0Z"/><rect class="cls-5" x="53" y="69" width="10" height="2"/><rect class="cls-5" x="53" y="65" width="6" height="2"/><rect class="cls-5" x="53" y="60" width="10" height="2"/><rect class="cls-5" x="53" y="56" width="6" height="2"/><rect class="cls-5" x="34" y="69" width="10" height="2"/><rect class="cls-5" x="34" y="65" width="6" height="2"/><rect class="cls-5" x="34" y="60" width="10" height="2"/><rect class="cls-5" x="34" y="56" width="6" height="2"/><g class="cls-6"><rect x="53" y="43" width="10" height="2"/><rect x="53" y="39" width="6" height="2"/><rect x="53" y="34" width="10" height="2"/><rect x="53" y="30" width="6" height="2"/><rect x="34" y="43" width="10" height="2"/><rect x="34" y="39" width="6" height="2"/><rect x="34" y="34" width="10" height="2"/><rect x="34" y="30" width="6" height="2"/></g><line class="cls-7" x1="11" y1="49" x2="85" y2="49"/><rect class="cls-8" x="11" y="50.01" width="74" height="38.18"/></g></svg>