<svg id="打印机" xmlns="http://www.w3.org/2000/svg" viewBox="0 0 96 96"><defs><style>.cls-1{fill:#9fb4bb;}.cls-2{fill:#35464e;}.cls-3{fill:#849ea8;}.cls-4,.cls-9{fill:#fff;}.cls-4{opacity:0.15;}.cls-5{fill:#ffb171;}.cls-6{fill:#f88654;}.cls-7{fill:#f76363;}.cls-8{fill:#29ef9a;}.cls-10,.cls-9{opacity:0.3;}.cls-10{fill:#f2f2f2;}</style></defs><title>96</title><g id="_96" data-name="96"><rect class="cls-1" x="6.79" y="31.36" width="82.42" height="55.47" rx="6.17"/><path class="cls-2" d="M23.24,17.09H72.76a3,3,0,0,1,3,3V31.36a0,0,0,0,1,0,0H20.26a0,0,0,0,1,0,0V20.07a3,3,0,0,1,3-3Z"/><path class="cls-3" d="M20.54,31.36H75.46a4.24,4.24,0,0,1,4.24,4.24V56.72a0,0,0,0,1,0,0H16.3a0,0,0,0,1,0,0V35.59a4.24,4.24,0,0,1,4.24-4.24Z" transform="translate(96 88.08) rotate(180)"/><path class="cls-4" d="M13.13,31.36H82.87a6.34,6.34,0,0,1,6.34,6.34v1.58a0,0,0,0,1,0,0H6.79a0,0,0,0,1,0,0V37.7a6.34,6.34,0,0,1,6.34-6.34Z"/><path class="cls-5" d="M65.12,6H25.66a1.43,1.43,0,0,0-1.43,1.43V31.36H71.77V12.65Z"/><path class="cls-6" d="M65.12,11.22a1.43,1.43,0,0,0,1.43,1.43h5.22L65.12,6Z"/><circle class="cls-7" cx="84.06" cy="42.43" r="2.38"/><circle class="cls-8" cx="84.06" cy="50.99" r="2.38"/><rect class="cls-9" x="30.57" y="12.44" width="34.87" height="1.58"/><rect class="cls-9" x="30.57" y="16.8" width="34.87" height="1.58"/><rect class="cls-9" x="30.57" y="21.55" width="34.87" height="1.58"/><rect class="cls-9" x="30.57" y="25.91" width="34.87" height="1.58"/><path class="cls-2" d="M19.47,65.43H78.11a2.38,2.38,0,0,1,2.38,2.38V86a.79.79,0,0,1-.79.79H17.89a.79.79,0,0,1-.79-.79V67.81A2.38,2.38,0,0,1,19.47,65.43Z"/><path class="cls-5" d="M78.78,88.79,77.07,86l-1-1.59-1.23-2-1-1.58-1.48-2.38-1-1.59-1.23-2-1-1.58-1.36-2.19a.39.39,0,0,0-.34-.19h-39a.39.39,0,0,0-.34.19l-1.36,2.19-1,1.58-1.23,2-1,1.59-1.48,2.38-1,1.58-1.23,2-1,1.59-1.71,2.75A.79.79,0,0,0,17.88,90H78.12A.79.79,0,0,0,78.78,88.79Z"/><polygon class="cls-10" points="65.23 74.35 30.77 74.35 29.97 75.54 66.03 75.54 65.23 74.35"/><polygon class="cls-10" points="28.19 79.1 67.81 79.1 67.01 77.92 28.99 77.92 28.19 79.1"/><polygon class="cls-10" points="26.21 82.27 69.79 82.27 68.99 81.08 27.01 81.08 26.21 82.27"/><polygon class="cls-10" points="24.43 85.84 71.58 85.84 70.78 84.65 25.22 84.65 24.43 85.84"/></g></svg>