<?xml version="1.0" encoding="utf-8"?>
<!-- Generator: Adobe Illustrator 24.0.0, SVG Export Plug-In . SVG Version: 6.00 Build 0)  -->
<svg version="1.1" id="软件商杭电" xmlns="http://www.w3.org/2000/svg" xmlns:xlink="http://www.w3.org/1999/xlink" x="0px"
	 y="0px" viewBox="0 0 96 96" style="enable-background:new 0 0 96 96;" xml:space="preserve">
<style type="text/css">
	.st0{fill:url(#SVGID_1_);}
	.st1{fill:#FF7D64;}
	.st2{fill:#FFB20C;}
	.st3{fill:#00D4DF;}
	.st4{fill:#C056FF;}
	.st5{fill:#00AAFF;}
	.st6{fill:url(#SVGID_2_);}
	.st7{fill:url(#SVGID_3_);}
	.st8{fill:url(#SVGID_4_);}
	.st9{fill:url(#SVGID_5_);}
	.st10{fill:#FFFFFF;}
</style>
<g id="_96">
	
		<linearGradient id="SVGID_1_" gradientUnits="userSpaceOnUse" x1="6" y1="441.5" x2="90" y2="441.5" gradientTransform="matrix(1 0 0 1 0 -378)">
		<stop  offset="0" style="stop-color:#008EFF"/>
		<stop  offset="0.7" style="stop-color:#0475E9"/>
		<stop  offset="1" style="stop-color:#066AE0"/>
	</linearGradient>
	<path class="st0" d="M71,90H25C14.5,90,6,81.5,6,71l0,0V38l84-1v34C90,81.5,81.5,90,71,90L71,90z"/>
	<g>
		<path class="st1" d="M6,24l21,4V6h-2C14.8,6,6.6,14,6,24z"/>
		<rect x="27" y="6" class="st2" width="21" height="26"/>
		<rect x="48" y="6" class="st3" width="21" height="26"/>
		<path class="st4" d="M71,6h-2v26h21v-7C90,14.5,81.5,6,71,6z"/>
	</g>
	<path class="st5" d="M90,24l-42,5c0,0.6-42-5-42-5l0,0v51.9C6,83.7,12.3,90,20.1,90h31C72.6,90,90,72.6,90,51.2c0,0,0,0,0,0V24z"/>
	
		<linearGradient id="SVGID_2_" gradientUnits="userSpaceOnUse" x1="71.4645" y1="413.4645" x2="78.5445" y2="420.5445" gradientTransform="matrix(1 0 0 1 0 -378)">
		<stop  offset="0" style="stop-color:#E9E9E9"/>
		<stop  offset="1" style="stop-color:#E1E1E1"/>
	</linearGradient>
	<circle class="st6" cx="75" cy="39" r="5"/>
	
		<radialGradient id="SVGID_3_" cx="75" cy="418.03" r="3" gradientTransform="matrix(1 0 0 1 0 -378.98)" gradientUnits="userSpaceOnUse">
		<stop  offset="0" style="stop-color:#585858"/>
		<stop  offset="1" style="stop-color:#424242"/>
	</radialGradient>
	<circle class="st7" cx="75" cy="39" r="3"/>
	
		<linearGradient id="SVGID_4_" gradientUnits="userSpaceOnUse" x1="17.4645" y1="413.4645" x2="24.5445" y2="420.5445" gradientTransform="matrix(1 0 0 1 0 -378)">
		<stop  offset="0" style="stop-color:#E9E9E9"/>
		<stop  offset="1" style="stop-color:#E1E1E1"/>
	</linearGradient>
	<circle class="st8" cx="21" cy="39" r="5"/>
	
		<radialGradient id="SVGID_5_" cx="21" cy="418.03" r="3" gradientTransform="matrix(1 0 0 1 0 -378)" gradientUnits="userSpaceOnUse">
		<stop  offset="0" style="stop-color:#585858"/>
		<stop  offset="1" style="stop-color:#424242"/>
	</radialGradient>
	<circle class="st9" cx="21" cy="39" r="3"/>
	<path class="st10" d="M48,68c-15.6,0.1-28.4-12.2-29-27.8c0-1.2,0.9-2.2,2.1-2.2c1.2,0,2.2,0.9,2.2,2.1
		c0.4,13.6,11.9,24.3,25.5,23.9c13-0.4,23.4-10.8,23.9-23.8c0.1-1.2,1.1-2,2.2-2c1.2,0,2.1,1,2.1,2.2c0,0,0,0,0,0l0,0
		C76.3,55.8,63.5,68,48,68z"/>
</g>
</svg>
