<svg xmlns="http://www.w3.org/2000/svg" xmlns:xlink="http://www.w3.org/1999/xlink" viewBox="0 0 96 96"><defs><style>.cls-1{isolation:isolate;}.cls-2{fill:#ea9a1b;}.cls-3{fill:url(#未命名的渐变_136);}.cls-4{fill:#b7b789;}.cls-5{fill:url(#未命名的渐变_3);}.cls-6{fill:url(#未命名的渐变_668);}.cls-7{fill:#cccc98;}.cls-8{opacity:0.27;mix-blend-mode:overlay;}</style><linearGradient id="未命名的渐变_136" x1="37.02" y1="57.94" x2="71.07" y2="28.89" gradientUnits="userSpaceOnUse"><stop offset="0" stop-color="#f7f7d7"/><stop offset="0.46" stop-color="#f8f8de"/><stop offset="1" stop-color="#fafaed"/></linearGradient><linearGradient id="未命名的渐变_3" x1="41.14" y1="57.41" x2="41.52" y2="69.16" gradientUnits="userSpaceOnUse"><stop offset="0" stop-opacity="0.06"/><stop offset="1" stop-opacity="0.08"/></linearGradient><linearGradient id="未命名的渐变_668" x1="49.48" y1="42.37" x2="56.34" y2="54.59" gradientUnits="userSpaceOnUse"><stop offset="0" stop-color="#e5e5be"/><stop offset="0.36" stop-color="#dbdbae"/><stop offset="1" stop-color="#cbcb97"/></linearGradient></defs><title>96</title><g class="cls-1"><g id="图层_20" data-name="图层 20"><g id="_96" data-name="96"><circle class="cls-2" cx="48" cy="48" r="44"/><path class="cls-3" d="M66.76,26.63,22.43,42.23a3.1,3.1,0,0,0-.29,5.71l11.62,5.51h0l4.38,15.37a.9.9,0,0,0,1.51.39l9.12-9.38,10.49,4.55A4.09,4.09,0,0,0,65,61.18l4.51-32.32A2,2,0,0,0,66.76,26.63ZM42.84,57.41l0-.06h0Z"/><path class="cls-4" d="M48.79,59.84l-9.12,9.38a1,1,0,0,0,.22-.41l3-11.4,0-.06L46.8,59l1.75.74Z"/><path class="cls-5" d="M43,57.4l-.11,0,0,.06-3,11.4a1,1,0,0,1-.22.41l.37-.38Z"/><path class="cls-6" d="M67.14,27.86a.31.31,0,0,1,.42.45l-24.68,29h0l0,.06-3,11.4a1,1,0,0,1-.22.41.9.9,0,0,1-1.51-.39L33.78,53.46h0Z"/><path class="cls-7" d="M67.14,27.86a.31.31,0,0,1,.42.45l-24.68,29h0l0,.06-3,11.4a1,1,0,0,1-.22.41.9.9,0,0,1-1.51-.39L33.78,53.46h0Z"/><polygon class="cls-8" points="67.26 27.77 33.77 53.44 33.77 53.45 33.78 53.45 33.78 53.46 33.82 53.58 66.91 28.22 67.26 27.77"/></g></g></g></svg>