<svg id="闹钟" xmlns="http://www.w3.org/2000/svg" viewBox="0 0 96 96"><defs><style>.cls-1{fill:#f9f9f9;}.cls-2,.cls-3{fill:#1faaff;}.cls-2{fill-rule:evenodd;}.cls-4{fill:#ff1400;}.cls-5{fill:#313131;}</style></defs><title>96</title><g id="_96" data-name="96"><circle class="cls-1" cx="48" cy="51" r="39"/><path class="cls-2" d="M48,12A39,39,0,1,0,87,51,39,39,0,0,0,48,12Zm0,72A33,33,0,1,1,81,51,33.07,33.07,0,0,1,48,84Z"/><path class="cls-3" d="M89,22.05A17.25,17.25,0,0,0,59.9,10.72,42.13,42.13,0,0,1,86,33,17.21,17.21,0,0,0,89,22.05ZM7,22.05a17.21,17.21,0,0,0,3,11A42.13,42.13,0,0,1,36.1,10.72,17.25,17.25,0,0,0,7,22.05Z"/><path class="cls-2" d="M49,48.51l-2.73,4.71L31.9,44.91a2.72,2.72,0,0,1-1-3.71h0a2.73,2.73,0,0,1,3.72-1Z"/><path class="cls-2" d="M44.13,50.71,47.44,55,66.2,40.7a2.72,2.72,0,0,0,.51-3.81h0a2.73,2.73,0,0,0-3.82-.51Z"/><rect class="cls-4" x="47" y="50.75" width="2" height="27.25" rx="1"/><circle class="cls-5" cx="48" cy="51" r="4"/></g></svg>