<svg id="引导修复" xmlns="http://www.w3.org/2000/svg" viewBox="0 0 96 96"><defs><style>.cls-1{fill:#3d72b3;}.cls-2{fill:#a7d2d7;}.cls-3{fill:#e4ebef;}.cls-4{fill:#ff7361;}.cls-5{fill:#ff193d;}</style></defs><title>96</title><g id="_96" data-name="96"><rect class="cls-1" x="6" y="6" width="84" height="84" rx="19"/><polygon class="cls-2" points="68.51 29.75 68.51 29.75 67.35 28.59 67.35 28.59 66.19 27.43 50 43.61 52.33 45.94 68.51 29.75 68.51 29.75"/><polygon class="cls-2" points="47.51 50.75 47.51 50.75 46.34 49.59 46.34 49.59 45.18 48.43 37.36 56.25 39.68 58.58 47.51 50.75 47.51 50.75"/><path class="cls-3" d="M69.91,73.5,64,67.58l5.28-5.28,5.92,5.92a10.06,10.06,0,0,0-2.13-11.07,8.15,8.15,0,0,0-7.84-2.31c-.91.21-3,1-3.63.36L40.68,34.28c-.65-.65.15-2.68.35-3.58A8.18,8.18,0,0,0,38.69,23a10.07,10.07,0,0,0-11.07-2.13l5.92,5.92-5.29,5.28-5.91-5.92a10.06,10.06,0,0,0,2.13,11.07,8.15,8.15,0,0,0,7.84,2.31,2.74,2.74,0,0,1,2.53.74L55.75,61.18a2.74,2.74,0,0,1,.75,2.49,8.14,8.14,0,0,0,2.34,7.7A10.06,10.06,0,0,0,69.91,73.5Z"/><path class="cls-4" d="M21.82,74.12A6.25,6.25,0,0,1,22.15,65L36.53,53.23l6.18,6.18L30.94,73.79a6.25,6.25,0,0,1-9.12.33Z"/><path class="cls-5" d="M28.8,69.46l-5.66,5.66a6.06,6.06,0,0,1-2.32-2.32l5.66-5.66a1.64,1.64,0,1,1,2.32,2.32Z"/><path class="cls-5" d="M39.27,63.6,37,66.39,29.55,59l2.79-2.28Z"/><rect class="cls-2" x="67.19" y="21.21" width="6" height="9" rx="1.06" transform="translate(38.74 -42.1) rotate(45)"/></g></svg>