<svg id="图层_29" data-name="图层 29" xmlns="http://www.w3.org/2000/svg" viewBox="0 0 96 96"><defs><style>.cls-1{fill:#fbed97;}.cls-2{fill:#fae27d;}.cls-3{opacity:0.75;isolation:isolate;}.cls-4{fill:#f5b53d;}.cls-5{fill:none;stroke:#b8bdc1;stroke-linecap:round;stroke-miterlimit:10;stroke-width:2.36px;}.cls-6{fill:#e6422e;}</style></defs><title>96</title><g id="_3.0" data-name="3.0"><g id="_96" data-name="96"><g id="_96-2" data-name=" 96"><rect class="cls-1" x="6" y="6" width="84" height="84" rx="19"/><path class="cls-2" d="M71,90H35L6,61V25A19,19,0,0,1,25,6H71A19,19,0,0,1,90,25V71A19,19,0,0,1,71,90Z"/><g class="cls-3"><path d="M28.41,33.93a1,1,0,0,1-.2.26.4.4,0,0,1-.17.09.31.31,0,0,1-.13,0l-.12-.07L27.5,34l-.24-.17L27,33.65l-.33-.2a3.2,3.2,0,0,0-.49-.24,5.29,5.29,0,0,0-.6-.21,3.35,3.35,0,0,0-.56-.15,1.17,1.17,0,0,0-.38,0,.28.28,0,0,0-.12,0,.55.55,0,0,0-.14.09l-.13.12-.09.12-.92,1.25c-.31.4-.61.81-.91,1.22l-.87,1.21c-.28.4-.55.81-.8,1.22a2.61,2.61,0,0,0-.18.32l-.22.46-.19.41a1.06,1.06,0,0,1-.1.2,1.37,1.37,0,0,1-.18.24,1.74,1.74,0,0,1-.22.18.55.55,0,0,1-.23.09.21.21,0,0,1-.19,0,.19.19,0,0,1-.09-.12.53.53,0,0,1-.06-.19,1,1,0,0,1,0-.25,1.31,1.31,0,0,1,.06-.27,2.93,2.93,0,0,1,.16-.39c.07-.15.15-.3.23-.45s.16-.3.25-.44.16-.28.24-.4.14-.21.19-.3a1.5,1.5,0,0,0,.1-.16c.08-.12.21-.31.4-.57s.39-.55.63-.86l.73-1c.26-.33.49-.64.7-.92l.52-.68.21-.28a.32.32,0,0,0,.06-.16.23.23,0,0,0,0-.1.19.19,0,0,0-.07-.06h-.05a2.12,2.12,0,0,0-.48-.24l-.64-.27-.7-.3a6,6,0,0,1-.63-.33l-.13-.08-.12-.1a.35.35,0,0,1-.09-.16,1,1,0,0,1-.05-.22l.1-.17a.85.85,0,0,1,.14-.19.65.65,0,0,1,.18-.15.26.26,0,0,1,.21,0,3.51,3.51,0,0,1,.54.19l.58.27.56.29c.18.09.35.16.5.22l.4.16.48.19.49.18.39.13.7.2.74.2c.25.07.49.15.73.24a4.62,4.62,0,0,1,.63.31l.11.08a1.58,1.58,0,0,1,.18.13l.19.17a1.06,1.06,0,0,1,.17.2.2.2,0,0,1,0,.14.58.58,0,0,1,0,.18.84.84,0,0,1-.05.17A1,1,0,0,1,28.41,33.93Z"/><path d="M34.06,43.31a1.15,1.15,0,0,1-.39.33l-.29.17-.33.17-.33.16-.28.12a9.28,9.28,0,0,1-1,.35,6.33,6.33,0,0,1-1,.22,3.63,3.63,0,0,1-.93,0,2,2,0,0,1-.8-.26,1.12,1.12,0,0,1-.4-.44,1.06,1.06,0,0,1,0-.65,3.78,3.78,0,0,1,.25-.79,9.61,9.61,0,0,1,.41-.88,2.28,2.28,0,0,1,.11-.21l.17-.32q.09-.16.18-.36l.16-.34c0-.1.07-.19.09-.26s0-.12,0-.14a.8.8,0,0,0-.55,0,6.35,6.35,0,0,0-1,.34c-.37.16-.77.35-1.19.57s-.85.47-1.25.72-.69.45-1,.68l-.85.63a.81.81,0,0,1-.31.12.29.29,0,0,1-.15,0,.33.33,0,0,1-.12-.14.48.48,0,0,1-.07-.21.6.6,0,0,1,0-.23.49.49,0,0,1,.08-.21,2.11,2.11,0,0,1,.18-.26l.31-.38.35-.44L24.4,41,25,40.1c.24-.31.47-.62.7-.94l.68-.94c.22-.3.42-.58.59-.83l.22-.32.3-.44.34-.51.35-.52.32-.47.25-.38c.07-.11.14-.22.21-.31a3,3,0,0,1,.22-.28,2.83,2.83,0,0,1,.24-.25c.09-.09.19-.17.3-.26l.14-.09.17-.07.17,0a.29.29,0,0,1,.16,0,.33.33,0,0,1,.15.29.84.84,0,0,1-.14.47,1.72,1.72,0,0,1-.16.2c-.07.08-.14.17-.22.25l-.23.25-.16.18-.43.55-.47.64c-.16.21-.31.43-.46.64s-.29.41-.4.58l-.39.54-.36.49-.37.5-.39.54c-.21.3-.4.55-.58.77a5.9,5.9,0,0,0-.41.58.15.15,0,0,0,0,.1c0,.05,0,.07,0,.08v0l.24-.14.33-.21.38-.23.38-.22.4-.21.44-.22.45-.22.44-.19.57-.21a4.57,4.57,0,0,1,.61-.16,2.74,2.74,0,0,1,.56,0,.87.87,0,0,1,.44.11l.07.08.06.14,0,.17a.69.69,0,0,1,0,.2,6.09,6.09,0,0,1-.28.75l-.37.76-.35.69c-.12.24-.21.46-.29.66a2.28,2.28,0,0,0-.15.53q0,.22.09.3a2.28,2.28,0,0,0,1.3.34,6.79,6.79,0,0,0,.7-.06,3.84,3.84,0,0,0,.59-.11,5.71,5.71,0,0,0,.59-.19l.71-.25a2.39,2.39,0,0,1,.86-.23C34.2,43,34.17,43.14,34.06,43.31Z"/><path d="M40.3,47a1.29,1.29,0,0,1-.13.17,1.41,1.41,0,0,1-.17.18l-.18.17-.15.11-.17.09-.23.11-.27.12-.29.11-1,.34a6.11,6.11,0,0,1-.94.23,3.51,3.51,0,0,1-.85,0,1.83,1.83,0,0,1-.78-.28,1,1,0,0,1-.29-.3,1.57,1.57,0,0,1-.18-.44,2.38,2.38,0,0,1,0-.54,2.16,2.16,0,0,1,.15-.58l-.53.22-.56.21c-.19.08-.38.14-.57.2a4.59,4.59,0,0,1-.57.13l-.36,0h-.41l-.39,0a.93.93,0,0,1-.32-.13.46.46,0,0,1-.22-.36,1.59,1.59,0,0,1,0-.53,3.13,3.13,0,0,1,.18-.57,3.74,3.74,0,0,1,.24-.49,5.06,5.06,0,0,1,.61-.79,8.62,8.62,0,0,1,1.55-1.27c.27-.18.51-.32.74-.45a5.21,5.21,0,0,1,.79-.33,5.26,5.26,0,0,1,.82-.22,3.3,3.3,0,0,1,.74-.06,1,1,0,0,1,.54.13l.2.13.2.14.18.18a.94.94,0,0,1,.12.22.58.58,0,0,1,0,.2c0,.1,0,.2,0,.31s-.05.21-.09.31a1,1,0,0,1-.09.22,3.49,3.49,0,0,1-.41.51l-.62.69a5.19,5.19,0,0,0-.52.69,2.8,2.8,0,0,0-.22.46,2.37,2.37,0,0,0-.1.49,1,1,0,0,0,.05.44.53.53,0,0,0,.23.31,1.43,1.43,0,0,0,.67.2,3.82,3.82,0,0,0,.87-.07,5.92,5.92,0,0,0,1-.26c.35-.12.71-.26,1.07-.41l.16-.08.24-.1a1,1,0,0,1,.22-.09c.07,0,.11,0,.13,0S40.4,46.82,40.3,47Zm-3.78-3.07a2.76,2.76,0,0,0,.16-.27.69.69,0,0,0,.09-.29.16.16,0,0,0-.06-.17l-.15-.09a.93.93,0,0,0-.35-.13,1.89,1.89,0,0,0-.41,0,2.46,2.46,0,0,0-.45.11,3.66,3.66,0,0,0-.46.18,4.23,4.23,0,0,0-.45.21l-.52.32a6.25,6.25,0,0,0-.54.4,5.83,5.83,0,0,0-.53.43c-.16.15-.31.29-.45.44a2.91,2.91,0,0,0-.33.43.87.87,0,0,0-.09.17,1.09,1.09,0,0,0-.09.23.75.75,0,0,0,0,.2.16.16,0,0,0,.06.14,1.31,1.31,0,0,0,.64.15,3.44,3.44,0,0,0,1.21-.19A5.12,5.12,0,0,0,35,45.57,5.73,5.73,0,0,0,36.52,43.92Z"/><path d="M47.71,51.31a1.24,1.24,0,0,1-.18.22l-.22.2-.25.17-.24.16c-.21.13-.43.25-.67.37a6.88,6.88,0,0,1-.74.32,7.25,7.25,0,0,1-.74.26,4.86,4.86,0,0,1-.69.16l-.49.09-.44,0a1.84,1.84,0,0,1-.41,0,1.55,1.55,0,0,1-.4-.17,1,1,0,0,1-.46-.65,1.84,1.84,0,0,1,0-.47,4.09,4.09,0,0,1,.13-.56c.07-.2.14-.41.23-.62a6.65,6.65,0,0,1,.27-.61c.12-.25.22-.48.31-.68a3.58,3.58,0,0,0,.2-.52,1.08,1.08,0,0,0,.07-.36.24.24,0,0,0-.12-.22l-.18-.08a.81.81,0,0,0-.22,0,1.89,1.89,0,0,0-.32.1l-.46.21c-.19.09-.4.21-.65.36l-.89.51-.57.31-.63.3c-.21.09-.41.16-.58.22a1.23,1.23,0,0,1-.42.06c-.22-.25-.08-.79.44-1.62.14-.22.36-.54.68-1,.14-.19.3-.39.46-.59s.33-.41.51-.61.35-.39.53-.57a4.69,4.69,0,0,1,.53-.48.86.86,0,0,1,.21-.13.41.41,0,0,1,.17,0,.32.32,0,0,1,.14,0l.13.07s.06.1,0,.21a1.2,1.2,0,0,1-.18.42,1.85,1.85,0,0,1-.19.27,2.39,2.39,0,0,1-.22.23l-.25.26-.3.31-.29.34-.33.38c-.11.12-.21.25-.31.38a3.31,3.31,0,0,0-.25.35,1.45,1.45,0,0,0-.11.25c.09,0,.34,0,.75-.26l.68-.35.81-.43.63-.32a3.71,3.71,0,0,1,.58-.21,1.6,1.6,0,0,1,.52-.06.93.93,0,0,1,.48.15.69.69,0,0,1,.31.39,1.21,1.21,0,0,1,0,.54,3.13,3.13,0,0,1-.22.68c-.11.25-.23.52-.38.81s-.25.49-.38.72a4.09,4.09,0,0,0-.28.68,1.29,1.29,0,0,0-.06.57.55.55,0,0,0,.29.41,1,1,0,0,0,.49.14,3.39,3.39,0,0,0,.67-.07,5,5,0,0,0,.82-.21l.93-.32.45-.2.5-.25.43-.19a.44.44,0,0,1,.26,0,.17.17,0,0,1,.06.09A.15.15,0,0,1,47.71,51.31Z"/><path d="M54.05,55.53a1.21,1.21,0,0,1-.23.19l-.57.39-.82.49a10.82,10.82,0,0,1-1,.51c-.34.17-.68.33-1,.47a7.53,7.53,0,0,1-1,.33,3.32,3.32,0,0,1-.91.11,1.22,1.22,0,0,1-.7-.19,1,1,0,0,1-.32-.29,1.52,1.52,0,0,1-.2-.38,3.43,3.43,0,0,1-.11-.46,4.38,4.38,0,0,1,0-.51c0-.23,0-.46,0-.68v-.64c0-.2,0-.38,0-.55A1.19,1.19,0,0,0,47,53.9l-.1,0-.18.08-.21.08-.15.08a4,4,0,0,0-.42.22,1.82,1.82,0,0,0-.28.22,2.31,2.31,0,0,0-.18.23l-.19.29a4.37,4.37,0,0,1-.28.4,1.5,1.5,0,0,1-.24.22.4.4,0,0,1-.23.05.57.57,0,0,1-.25-.1c-.11-.07-.16-.15-.14-.24a1.13,1.13,0,0,1,.17-.38l.25-.36c.09-.13.19-.25.29-.38l.3-.37.28-.35c.25-.31.48-.61.71-.91l.68-.88.68-.91.7-.94c.39-.51.76-1,1.14-1.56l1-1.5.19-.24a1.88,1.88,0,0,1,.24-.18.67.67,0,0,1,.26-.09.37.37,0,0,1,.23,0,.44.44,0,0,1,.18.21.37.37,0,0,1,0,.23.79.79,0,0,1-.05.22.87.87,0,0,1-.09.17,2.09,2.09,0,0,1-.22.31l-.35.44-.41.49L50,49l-.32.38-.16.19c-.38.46-.68.84-.91,1.13l-.53.66c-.36.47-.66.88-.92,1.21l-.6.78.74-.35.79-.37.79-.38.76-.39.55-.31c.22-.12.44-.24.66-.34A4.19,4.19,0,0,1,51.5,51,1,1,0,0,1,52,51a.33.33,0,0,1,.18.14.59.59,0,0,1,.05.23,1,1,0,0,1,0,.24,1.29,1.29,0,0,1-.09.2.73.73,0,0,1-.31.24,3.46,3.46,0,0,1-.5.2c-.18.07-.38.13-.58.19l-.55.17-.68.26-.58.23-.52.24-.52.25A2.36,2.36,0,0,1,48,54c0,.16,0,.33,0,.5s0,.37,0,.56,0,.4,0,.61a3.23,3.23,0,0,0,.18.87,1,1,0,0,0,.32.39,1,1,0,0,0,.54.11,3.27,3.27,0,0,0,.76-.13,8.62,8.62,0,0,0,.9-.3c.31-.12.63-.25.93-.39l.89-.42.76-.39.53-.27c.14-.07.21-.1.22-.09a.11.11,0,0,1,.05.09.35.35,0,0,1,0,.13.35.35,0,0,1-.06.14A.35.35,0,0,1,54.05,55.53Z"/><path d="M62.45,58.94l-.16.25-.21.31-.25.35c-.08.12-.17.24-.27.37l-.24.33c-.07.1-.12.19-.17.25-.38.56-.78,1.12-1.23,1.67S59,63.55,58.6,64a10.48,10.48,0,0,1-2.14,1.87,1.7,1.7,0,0,1-1.9.16,2.72,2.72,0,0,1-.92-1,3.06,3.06,0,0,1-.42-1.37,1.43,1.43,0,0,1,.08-.64,1.19,1.19,0,0,1,.29-.31c.13-.1.22-.13.29-.09s0,.06,0,.12a3.71,3.71,0,0,0,0,.67,2.34,2.34,0,0,0,1.14,1.72.93.93,0,0,0,1-.08,4.05,4.05,0,0,0,.59-.36c.19-.14.38-.29.57-.46s.36-.34.54-.52.35-.37.53-.57.28-.33.37-.44l.18-.23.35-.48a4.84,4.84,0,0,1,.33-.46,6.92,6.92,0,0,0-.78.09l-.65.08-.51.06a7.78,7.78,0,0,1-1,0,1.74,1.74,0,0,1-.77-.18.86.86,0,0,1-.38-.88,2.82,2.82,0,0,1,.44-1.22,10.52,10.52,0,0,1,.67-.93l.39-.46.36-.38.41-.42.56-.57a4.09,4.09,0,0,1,.33-.3,1.23,1.23,0,0,1,.28-.17.5.5,0,0,1,.26,0,.6.6,0,0,1,.27.1q.14.07.09.33a1.46,1.46,0,0,1-.18.45.7.7,0,0,1-.18.2.77.77,0,0,0-.15.1l-.25.16-.25.17a.81.81,0,0,0-.13.11c-.09.08-.16.16-.22.22l-.17.15-.15.16-.21.2a4.94,4.94,0,0,0-.39.44,4.38,4.38,0,0,0-.32.45,4,4,0,0,0-.3.65c-.1.28-.1.44,0,.5a2.5,2.5,0,0,0,1.17.29,4.73,4.73,0,0,0,1.57-.19,2.54,2.54,0,0,0,1.21-.69,1.11,1.11,0,0,0,.16-.21l.23-.32.25-.37c.08-.14.17-.26.25-.38s.15-.23.22-.32a1.37,1.37,0,0,1,.16-.2c.32-.34.57-.45.74-.34s.24.23.21.37A2.11,2.11,0,0,1,62.45,58.94Z"/><path d="M70,64.12a.79.79,0,0,1-.17.2,1.7,1.7,0,0,1-.22.15,1.34,1.34,0,0,1-.24.12l-.23.06a1.63,1.63,0,0,1-.61,0,2.57,2.57,0,0,1-.8-.35,2.4,2.4,0,0,1-.63-.56,2.33,2.33,0,0,1-.43-.83,1.74,1.74,0,0,1-.13.5,4.07,4.07,0,0,1-.26.5,4.48,4.48,0,0,1-.84.93,5.7,5.7,0,0,1-1.11.75,4.9,4.9,0,0,1-1.1.42,2.88,2.88,0,0,1-.59.07,2.78,2.78,0,0,1-.58-.06,4.23,4.23,0,0,1-.57-.19,3.78,3.78,0,0,1-.53-.27.64.64,0,0,1-.26-.38,2,2,0,0,1-.07-.56,3.31,3.31,0,0,1,.09-.62,2,2,0,0,1,.2-.51,5.32,5.32,0,0,1,.71-.9,6.3,6.3,0,0,1,.82-.73,9.78,9.78,0,0,1,.92-.61c.32-.18.64-.36,1-.53a5.39,5.39,0,0,1,.6-.25,3.73,3.73,0,0,1,.61-.17,2.83,2.83,0,0,1,.57,0,.88.88,0,0,1,.45.13.6.6,0,0,1,.21.21.83.83,0,0,1,.11.29,2,2,0,0,1,0,.37c0,.15,0,.31,0,.49a1.06,1.06,0,0,0,.12.31,4.47,4.47,0,0,0,.32.49,4.71,4.71,0,0,0,.42.51,2.67,2.67,0,0,0,.46.4l.44.24a2.41,2.41,0,0,0,.42.16,3,3,0,0,0,.45.09,3.89,3.89,0,0,0,.51,0A.54.54,0,0,1,70,64.12Zm-4.37-.65a3.55,3.55,0,0,0,.23-.4A2.27,2.27,0,0,0,66,62.6a1.24,1.24,0,0,0,0-.41.28.28,0,0,0-.17-.25,1.79,1.79,0,0,1-.21-.45c0-.14-.08-.23-.13-.26a.33.33,0,0,0-.15,0,1,1,0,0,0-.21,0,1.72,1.72,0,0,0-.26.1l-.28.14-.53.28-.47.26-.46.29c-.15.1-.31.22-.49.36l-.24.22a2.37,2.37,0,0,0-.25.29,3.15,3.15,0,0,0-.24.3l-.2.29a.93.93,0,0,0-.08.22,1.5,1.5,0,0,0,0,.29.79.79,0,0,0,0,.28.24.24,0,0,0,.12.18,2.14,2.14,0,0,0,.42.22,1.61,1.61,0,0,0,.36.1A1.47,1.47,0,0,0,63,65c.15,0,.32-.06.53-.11a2.44,2.44,0,0,0,.32-.11l.34-.15.34-.18.33-.2a1.09,1.09,0,0,0,.22-.18,2.4,2.4,0,0,0,.22-.24l.19-.24A1.21,1.21,0,0,0,65.63,63.47Z"/><path d="M77,68.75a2.56,2.56,0,0,1-.42.49,3.29,3.29,0,0,1-.59.41,7.38,7.38,0,0,1-.85.4c-.3.12-.6.22-.9.32s-.59.16-.88.22a6.63,6.63,0,0,1-.81.12,3.74,3.74,0,0,1-.67,0,1.09,1.09,0,0,1-.46-.14.81.81,0,0,1-.31-.33.94.94,0,0,1-.11-.45,1.94,1.94,0,0,1,0-.52,5.12,5.12,0,0,1,.17-.57,4.66,4.66,0,0,1,.23-.58c.09-.2.17-.39.26-.57l-.59.37-.68.41-.69.39-.61.3a5.25,5.25,0,0,1-.63.22,3,3,0,0,1-.64.12,2.4,2.4,0,0,1-.6,0,1.53,1.53,0,0,1-.55-.21.74.74,0,0,1-.32-.76,2.57,2.57,0,0,1,.38-1.06c.1-.16.22-.33.35-.5l.41-.49.4-.48.36-.46.15-.23.2-.32.2-.31c0-.09.11-.18.17-.27l.17-.24.19-.24a1,1,0,0,1,.35-.29.39.39,0,0,1,.4,0c.28.18.26.53-.07,1.06a2.12,2.12,0,0,1-.2.28l-.27.32-.28.32a3.92,3.92,0,0,0-.27.33l-.4.42-.38.42-.34.41c-.1.13-.19.26-.27.38l-.11.22c0,.09-.06.17-.08.25a.66.66,0,0,0,0,.24.22.22,0,0,0,.11.15.9.9,0,0,0,.6.13,3,3,0,0,0,.76-.16,7.61,7.61,0,0,0,.79-.31c.26-.12.5-.24.7-.35a4,4,0,0,0,.67-.42c.24-.17.49-.35.73-.55l.72-.59.63-.54c.43-.37.7-.52.81-.44s.13.1.14.15a.6.6,0,0,1-.09.24l-.23.32-.33.42-.32.41c-.1.13-.18.24-.23.32l-.16.25-.18.32c-.07.11-.13.22-.19.33s-.1.21-.14.29-.08.22-.13.36a2.46,2.46,0,0,0-.11.45,1.15,1.15,0,0,0,0,.41.34.34,0,0,0,.15.28,1.36,1.36,0,0,0,.69.15,5.14,5.14,0,0,0,1-.11,8.54,8.54,0,0,0,1.09-.3c.38-.12.74-.25,1.09-.39l.41-.16.36-.12.23,0S77.07,68.7,77,68.75Z"/><path d="M74.61,72.49c0,.07-.18.24-.42.52a.69.69,0,0,1-.45.23.68.68,0,0,1-.46,0c-.22-.14-.21-.42,0-.82a1.5,1.5,0,0,1,.52-.46c.24-.15.42-.19.53-.12a.37.37,0,0,1,.11.11,1.24,1.24,0,0,1,.1.2.8.8,0,0,1,0,.21A.28.28,0,0,1,74.61,72.49Zm5.55-7.08a5.45,5.45,0,0,1-.41.51l-.35.4-.37.41-1.34,1.53c-.44.49-.85,1-1.25,1.52a3.16,3.16,0,0,0-.18.27l-.15.23-.16.2-.19.16a.5.5,0,0,1-.13-.1l-.16-.15a.74.74,0,0,1-.2-.29l.08-.14.11-.19a5.26,5.26,0,0,1,.46-.66c.17-.23.35-.46.54-.68l.6-.69.59-.69.55-.68a7.76,7.76,0,0,0,.45-.66,5,5,0,0,1,.32-.43,3.06,3.06,0,0,1,.35-.36l.17-.09.23-.07a.56.56,0,0,1,.35,0,.37.37,0,0,1,.15.28A.45.45,0,0,1,80.16,65.41Z"/></g><path class="cls-4" d="M35,90,6,61H26.65A8.35,8.35,0,0,1,35,69.35h0Z"/></g><line class="cls-5" x1="55.49" y1="14.49" x2="49" y2="20.98"/><circle class="cls-6" cx="58.6" cy="9.9" r="8.4"/></g></g></svg>