<svg id="音乐" xmlns="http://www.w3.org/2000/svg" xmlns:xlink="http://www.w3.org/1999/xlink" viewBox="0 0 96 96"><defs><style>.cls-1{fill:#ad8c63;}.cls-2{fill:#161a26;}.cls-3{fill:#333233;}.cls-4{fill:url(#未命名的渐变_21);}.cls-5{fill:#f7534f;}.cls-6{fill:none;}</style><linearGradient id="未命名的渐变_21" x1="13.55" y1="36.43" x2="76.77" y2="72.93" gradientUnits="userSpaceOnUse"><stop offset="0" stop-color="#6c7ba3" stop-opacity="0.3"/><stop offset="0.53" stop-color="#313030" stop-opacity="0"/><stop offset="0.88" stop-color="#5d6785" stop-opacity="0.22"/><stop offset="1" stop-color="#6c7ba3" stop-opacity="0.3"/></linearGradient></defs><title>96</title><g id="_96" data-name="96"><path class="cls-1" d="M44,92.12A38.12,38.12,0,1,1,82,54h0A38.06,38.06,0,0,1,44,92.12Z"/><path class="cls-2" d="M44,91.12A37.12,37.12,0,1,1,81,54h0A37.07,37.07,0,0,1,44,91.12Z"/><path class="cls-3" d="M44,33.33A20.67,20.67,0,1,0,64.63,54h0A20.64,20.64,0,0,0,44,33.33Zm0-16.45A37.12,37.12,0,1,1,7,54,37.06,37.06,0,0,1,44,16.88Z"/><path class="cls-4" d="M44.22,33.54A20.59,20.59,0,1,0,64.74,54.12h0A20.56,20.56,0,0,0,44.22,33.54Zm0-16.37A37,37,0,1,1,7.37,54.12,36.9,36.9,0,0,1,44.22,17.17Z"/><g id="音符"><path class="cls-5" d="M71.64,10.55A17.4,17.4,0,0,0,58.71,4,1.68,1.68,0,0,0,57,5.44l-5.5,39.31a11.34,11.34,0,0,1,4,8.66c0,.28,0,.55,0,.83L59.88,22s4.67-1.36,8.36,1.14a13.92,13.92,0,0,0,6.58,2.55c4.12.35,12.48-1.27,14.74-4.21C84.53,21.64,77.26,18.07,71.64,10.55Z"/><ellipse class="cls-5" cx="44" cy="53" rx="11.5" ry="11.54"/><rect class="cls-6" x="32.78" y="41.96" width="22.79" height="22.85"/></g></g></svg>