<svg id="U盘" xmlns="http://www.w3.org/2000/svg" viewBox="0 0 96 96"><defs><style>.cls-1,.cls-6{fill:#5b7aff;}.cls-1,.cls-2,.cls-3,.cls-4,.cls-5{fill-rule:evenodd;}.cls-2{fill:#5366ff;}.cls-3{fill:#4848ff;}.cls-4{fill:#fff;}.cls-5{fill:#d3e2f3;opacity:0.47;isolation:isolate;}</style></defs><title>96</title><g id="_96" data-name="96"><path id="Fill-1" class="cls-1" d="M62,6V23.38h3.53V46.94A15.1,15.1,0,0,1,50.41,62.05H45.59A15.1,15.1,0,0,1,30.48,46.94V23.38H34V6H15a9,9,0,0,0-9,9V47.31c0,23,18.25,42.3,41.28,42.68A42,42,0,0,0,90,48V15a9,9,0,0,0-9-9Z"/><path id="Fill-3" class="cls-2" d="M58.15,59.84a15.11,15.11,0,0,1-7.67,2.08H45.65c-8.36,0-11.59-38.59-11.59-38.59V6H15a9,9,0,0,0-9,9V47.9a42,42,0,0,0,1.19,9.91,42.27,42.27,0,0,0,51,2"/><path id="Fill-5" class="cls-3" d="M6,15H6v32.9a41.93,41.93,0,0,0,1.19,9.9,42.42,42.42,0,0,0,51,2.09s-.09,0-.11,0a25.7,25.7,0,0,1-14.69,4.84C23.09,64.73,6.55,47.59,6,15Z"/><polygon id="Fill-5-2" data-name="Fill-5" class="cls-4" points="34.01 23.37 61.99 23.37 61.99 6 34.01 6 34.01 23.37"/><polygon id="Fill-5备份" class="cls-5" points="34 23 61.99 23 61.99 21 34 21 34 23"/><polygon id="Fill-7" class="cls-1" points="39 17 44 17 44 12 39 12 39 17"/><polygon id="Fill-8" class="cls-1" points="52 17 57 17 57 12 52 12 52 17"/><path id="path-8" class="cls-4" d="M45.66,65C37.56,65,31,58.06,31,49.5V23H65V49.5C65,58.06,58.44,65,50.34,65Z"/><path class="cls-6" d="M56,38a2,2,0,0,0-4,0,2,2,0,0,0,1,1.69V40c0,.81-2.62,2.09-4,2.86V34h2l-3-6-3,6h2V44.93A7.71,7.71,0,0,1,42,38h1V34H39v4h1a9.71,9.71,0,0,0,6.68,9l.32.1v3.13a3,3,0,1,0,2,0V45.12l.45-.23C50.21,44.51,55,42.49,55,40v-.31A2,2,0,0,0,56,38Z"/></g></svg>