<svg xmlns="http://www.w3.org/2000/svg" xmlns:xlink="http://www.w3.org/1999/xlink" viewBox="0 0 96 96"><defs><style>.cls-1{fill:none;}.cls-2{isolation:isolate;}.cls-3{opacity:0.16;}.cls-4{fill:#f0ecd8;}.cls-5{fill:#d1caaa;}.cls-6{fill:url(#未命名的渐变_557);}.cls-7{fill:url(#未命名的渐变_555);}.cls-8{fill:url(#未命名的渐变_559);}.cls-9{fill:#475259;}.cls-10{opacity:0.8;}.cls-11{clip-path:url(#clip-path);}.cls-12{opacity:0.08;mix-blend-mode:overlay;}.cls-13{fill:#fff;}.cls-14{opacity:0.15;}.cls-15{fill:#1e71bb;}.cls-16{fill:#a9c076;}</style><linearGradient id="未命名的渐变_557" x1="21.61" y1="54.51" x2="21.61" y2="38.89" gradientUnits="userSpaceOnUse"><stop offset="0" stop-color="#2093bf" stop-opacity="0.7"/><stop offset="0.33" stop-color="#2093bf" stop-opacity="0.83"/><stop offset="0.75" stop-color="#2093bf" stop-opacity="0.95"/><stop offset="1" stop-color="#2093bf"/></linearGradient><linearGradient id="未命名的渐变_555" x1="32.07" y1="19.37" x2="32.07" y2="32.68" gradientUnits="userSpaceOnUse"><stop offset="0" stop-color="#e5d319"/><stop offset="0.22" stop-color="#e5d319" stop-opacity="0.96"/><stop offset="0.59" stop-color="#e5d319" stop-opacity="0.86"/><stop offset="1" stop-color="#e5d319" stop-opacity="0.7"/></linearGradient><linearGradient id="未命名的渐变_559" x1="55.56" y1="26.77" x2="55.56" y2="15.31" gradientUnits="userSpaceOnUse"><stop offset="0" stop-color="#e66438"/><stop offset="0.38" stop-color="#e45c38"/><stop offset="1" stop-color="#e25337"/></linearGradient><clipPath id="clip-path"><path id="SVGID" class="cls-1" d="M34.4,64c1,1.21,2.32,1.81,3.23,1.43,6.54-2.79,17.46-9.88,29.05-19.18s20.88-18.41,25-24.2c.57-.8.28-2.26-.69-3.47h0c-1-1.2-2.32-1.81-3.23-1.42C81.25,19.94,70.34,27,58.74,36.32s-20.88,18.42-25,24.2c-.57.8-.28,2.27.69,3.47Z"/></clipPath></defs><title>96</title><g class="cls-2"><g id="图片编辑"><g id="_96" data-name="96"><g class="cls-3"><path d="M84.88,31.59C75.63,10.11,49.57-.17,28.33,10.19,9.13,19.56.38,43.16,8.84,63.05,15.82,79.46,31.38,89.47,48,89.1a5.68,5.68,0,0,0,4.84-2.88l3-5.33a12.77,12.77,0,0,1,10.84-6.46l3.31-.07A16.25,16.25,0,0,0,84.57,64.9,41.07,41.07,0,0,0,84.88,31.59Z"/></g><path class="cls-4" d="M84.17,30.88A41.15,41.15,0,1,0,47.32,88.39a5.68,5.68,0,0,0,4.84-2.88l3-5.33A12.74,12.74,0,0,1,66,73.72l3.31-.07a16.27,16.27,0,0,0,14.53-9.46A41.11,41.11,0,0,0,84.17,30.88Z"/><path class="cls-5" d="M84.17,30.88A41.06,41.06,0,0,0,8,32.6,44.76,44.76,0,0,1,30,10.49C50.62.83,75.73,12.31,83.52,31.17a41,41,0,0,1-.47,33.1,15.44,15.44,0,0,1-13.68,8.91l-4.07.09a11.84,11.84,0,0,0-10.07,6l-3.35,5.89a5.69,5.69,0,0,1-4.14,2.75c-10.6.73-21.22-3.42-29.41-10.6a41.2,41.2,0,0,0,29,11.07,5.68,5.68,0,0,0,4.84-2.88l3-5.33A12.74,12.74,0,0,1,66,73.72l3.31-.07a16.27,16.27,0,0,0,14.53-9.46A41.11,41.11,0,0,0,84.17,30.88Z"/><ellipse class="cls-6" cx="21.61" cy="46.7" rx="7.8" ry="7.81"/><ellipse class="cls-7" cx="32.07" cy="25.84" rx="7.09" ry="7.1"/><ellipse class="cls-8" cx="55.56" cy="21.04" rx="5.73" ry="5.73"/><path class="cls-9" d="M34.4,64c1,1.21,2.32,1.81,3.23,1.43,6.54-2.79,17.46-9.88,29.05-19.18s20.88-18.41,25-24.2c.57-.8.28-2.26-.69-3.47h0c-1-1.2-2.32-1.81-3.23-1.42C81.25,19.94,70.34,27,58.74,36.32s-20.88,18.42-25,24.2c-.57.8-.28,2.27.69,3.47Z"/><g class="cls-10"><g class="cls-11"><g class="cls-12"><path class="cls-13" d="M32.66,57.48a7.59,7.59,0,1,1-7.57,7.59,7.59,7.59,0,0,1,7.57-7.59m0-1.35a8.94,8.94,0,1,0,8.93,8.94,8.93,8.93,0,0,0-8.93-8.94Z"/></g><g class="cls-14"><path class="cls-13" d="M32.66,57.48a7.59,7.59,0,1,1-7.57,7.59,7.59,7.59,0,0,1,7.57-7.59m0-1.35a8.94,8.94,0,1,0,8.93,8.94,8.93,8.93,0,0,0-8.93-8.94Z"/></g></g></g><path class="cls-15" d="M4,64.28c3.83,5.37,7.32,5.33,8.49,4.89,5.22-2,5-6,11.15-8.46C30.48,57.92,35.1,62,36.27,63.8c2,3,1,13.79-9.71,16.62C18.2,82.62,7.82,77.72,4,64.28Z"/><path class="cls-16" d="M11.4,76.64c13.36,2.76,7.79-11,15.28-14.9a7.44,7.44,0,0,1,9.55,2c2.71,3.48.26,13.52-8.62,16.4C20.2,82.59,13.89,78.85,11.4,76.64Z"/></g></g></g></svg>