<svg id="兼容环境" xmlns="http://www.w3.org/2000/svg" xmlns:xlink="http://www.w3.org/1999/xlink" viewBox="0 0 96 96"><defs><style>.cls-1{fill:none;}.cls-2{fill:#cba039;}.cls-3,.cls-5{fill:#fff;isolation:isolate;}.cls-3{opacity:0.65;}.cls-4{clip-path:url(#clip-path);}.cls-5{opacity:0.8;}</style><clipPath id="clip-path"><path id="SVGID" class="cls-1" d="M48,76,71.71,62.53A.57.57,0,0,0,72,62V36.1a.58.58,0,0,0-.56-.58.61.61,0,0,0-.3.08L49,48.16a2,2,0,0,0-1,1.74Z"/></clipPath></defs><title>96</title><g id="_96" data-name="96"><path class="cls-2" d="M9,30.94V65.06a8.78,8.78,0,0,0,4.44,7.62L43.67,89.86a8.79,8.79,0,0,0,8.66,0L82.56,72.68A8.78,8.78,0,0,0,87,65.06V30.94a8.78,8.78,0,0,0-4.44-7.62L52.33,6.14a8.79,8.79,0,0,0-8.66,0L13.44,23.32A8.78,8.78,0,0,0,9,30.94Z"/><path class="cls-3" d="M24,37.1V60.38a3.41,3.41,0,0,0,1.73,3L46.31,75a3.45,3.45,0,0,0,3.38,0L70.27,63.35a3.41,3.41,0,0,0,1.73-3V37.1a3.41,3.41,0,0,0-1.73-3L49.69,22.44a3.45,3.45,0,0,0-3.38,0L25.73,34.13A3.42,3.42,0,0,0,24,37.1Z"/><g class="cls-4"><path class="cls-5" d="M24,37.1V60.38a3.41,3.41,0,0,0,1.73,3L46.31,75a3.45,3.45,0,0,0,3.38,0L70.27,63.35a3.41,3.41,0,0,0,1.73-3V37.1a3.41,3.41,0,0,0-1.73-3L49.69,22.44a3.45,3.45,0,0,0-3.38,0L25.73,34.13A3.42,3.42,0,0,0,24,37.1Z"/></g></g></svg>