<svg id="影音" xmlns="http://www.w3.org/2000/svg" viewBox="0 0 96 96"><defs><style>.cls-1{fill:#0076e6;}.cls-2{opacity:0.72;}.cls-3{fill:#42fffc;opacity:0.94;}</style></defs><title>96</title><g id="_96" data-name="96"><path class="cls-1" d="M90,48a42,42,0,0,0-84-.47c0,.08,0,.16,0,.24V80.23A9.76,9.76,0,0,0,15.77,90h32.7A42,42,0,0,0,90,48Z"/><circle class="cls-2" cx="48" cy="48" r="30"/><path class="cls-3" d="M60.09,50.39l-16,10A4,4,0,0,1,38,57V37a4,4,0,0,1,6.12-3.39l16,10A4,4,0,0,1,60.09,50.39Z"/></g></svg>