<svg id="图层_27" data-name="图层 27" xmlns="http://www.w3.org/2000/svg" viewBox="0 0 96 96"><defs><style>.cls-1{fill:#475629;}.cls-2{fill:#a7c66b;}</style></defs><title>96</title><g id="mate-about"><g id="_96" data-name="96"><rect id="_96-2" data-name="96" class="cls-1" x="6" y="6" width="84" height="84" rx="19"/><g id="_96-3" data-name="96"><polygon class="cls-2" points="20.51 30.5 50.51 48.5 20.51 66.5 20.51 30.5"/><path class="cls-2" d="M48.51,20.5A27.93,27.93,0,0,0,26,31.81l4.32,2.59a23,23,0,1,1,0,28.19L26,65.19A28,28,0,1,0,48.51,20.5Z"/><path class="cls-2" d="M48.51,31.5a17,17,0,0,0-13,6l4.37,2.62a12,12,0,1,1,0,16.71l-4.37,2.63a17,17,0,1,0,13-28Z"/></g></g></g></svg>