<?xml version="1.0" encoding="utf-8"?>
<!-- Generator: Adobe Illustrator 24.0.0, SVG Export Plug-In . SVG Version: 6.00 Build 0)  -->
<svg version="1.1" id="茄子" xmlns="http://www.w3.org/2000/svg" xmlns:xlink="http://www.w3.org/1999/xlink" x="0px" y="0px"
	 viewBox="0 0 96 96" style="enable-background:new 0 0 96 96;" xml:space="preserve">
<style type="text/css">
	.st0{fill:#9E8DD4;}
	.st1{opacity:0.3;fill:#673AB7;}
	.st2{fill:url(#SVGID_1_);}
	.st3{opacity:0.1;fill:url(#SVGID_2_);enable-background:new    ;}
	.st4{opacity:0.3;fill:url(#SVGID_3_);enable-background:new    ;}
	.st5{fill:url(#SVGID_4_);}
	.st6{fill:url(#SVGID_5_);}
	.st7{fill:url(#SVGID_6_);}
	.st8{fill:url(#SVGID_7_);}
	.st9{fill:url(#SVGID_8_);}
	.st10{fill:url(#SVGID_9_);}
	.st11{opacity:0.2;fill:url(#SVGID_10_);}
	.st12{fill:#2D2D2D;}
</style>
<g id="_96">
	<path class="st0" d="M25,6h46c10.5,0,19,8.5,19,19v46c0,10.5-8.5,19-19,19H25C14.5,90,6,81.5,6,71V25C6,14.5,14.5,6,25,6z"/>
	<g>
		<path class="st1" d="M90,34.4C81.9,38,64.2,45.1,45.8,47C25.4,49,10.9,46.8,6,45.9v16.8c18.6,13.6,35.8,13.9,53.1,10.5
			c13.8-2.7,26.1-11.3,30.9-15V34.4z"/>
		<path class="st1" d="M90,40c-8.1,3.7-25.8,10.8-44.3,12.6c-20.4,2-34.9-0.2-39.8-1.1v16.8c18.6,13.6,35.8,13.9,53.1,10.5
			c13.8-2.7,26.1-11.3,30.9-15V40z"/>
		<radialGradient id="SVGID_1_" cx="49.1903" cy="68.4364" r="53.7263" gradientUnits="userSpaceOnUse">
			<stop  offset="0" style="stop-color:#E2F4FB"/>
			<stop  offset="0.2" style="stop-color:#F1F7FA"/>
			<stop  offset="0.38" style="stop-color:#F9F9F9"/>
			<stop  offset="0.41" style="stop-color:#F9F9F9"/>
			<stop  offset="0.59" style="stop-color:#F9F9F9"/>
			<stop  offset="0.76" style="stop-color:#F4F8F9"/>
			<stop  offset="0.94" style="stop-color:#E7F5FB"/>
			<stop  offset="0.99" style="stop-color:#E2F4FB"/>
		</radialGradient>
		<path class="st2" d="M90,36.5c-8.1,3.7-25.8,10.8-44.3,12.6C25.4,51.1,10.9,48.9,6,48v16.8c18.6,13.6,35.8,13.9,53.1,10.5
			C72.9,72.6,85.1,64,90,60.3V36.5z"/>
		<g>
			<linearGradient id="SVGID_2_" gradientUnits="userSpaceOnUse" x1="55.4008" y1="20.9373" x2="45.938" y2="63.3676">
				<stop  offset="0" style="stop-color:#FFFFFF"/>
				<stop  offset="1" style="stop-color:#CED7DB"/>
			</linearGradient>
			<path class="st3" d="M6,48v4.7l0.4-0.2c1-0.5,2.1-0.8,3.3-0.8h0.9c0.8,0,1.7,0.2,2.5,0.4v3.5c0,3.4,0.1,12.2,0,13.9
				c2,1.2,4.1,2.2,6.1,3l-0.4-1.7c-0.3-1.5-0.3-3,0-4.5c0.3-0.9,0.7-2.7,1.2-4.8c0.6-2.4,1.6-6.7,2.1-8.2c0.5-0.1,1-0.2,1.5-0.2
				c0.4,0,0.8,0,1.3,0.1c0.4,0.1,0.8,0.1,1.2,0.1c0.8,0,1.6-0.1,2.4-0.4c0.2-0.1,0.4-0.1,0.6-0.1c0.3,0.1,0.7,0.2,1,0.2
				c0.2,1.7,0.5,9.3,0.6,13.5c0.2,5.9,0.3,8.5,0.4,9.7c1.9,0.4,3.7,0.6,5.5,0.8c0.3-0.6,0.4-1.2,0.4-1.9c0-11.3,0.3-18.3,0.6-19.2
				c0.3-0.9,0.5-1.8,0.5-2.7c0.7,0,1.5-0.2,2.2-0.3l2.6-0.3c0.9-0.1,1.6-0.2,2.2-0.3c0.4-0.1,0.8-0.2,1.2-0.2c0.1,0,0.2,0,0.7,0.4
				c1.7,1.5,2.8,3.5,3.1,5.7c1,4.2,1.8,8.5,2.3,12.8c0.1,1.4,0.2,2.9,0.4,4.3c0.1,0.3,0.1,0.7,0.3,1.2c2-0.3,3.9-0.6,5.9-1
				c0.1-0.4,0.1-0.8,0.1-1.2c0-0.7-0.3-4.3-1.1-12c-0.2-2.3-0.4-4.3-0.5-5.5c-0.2-1.7-0.4-3.2-0.6-4.5c-0.1-0.7-0.2-1.5-0.3-2.3
				c1.3-0.4,2.6-0.6,4-0.7h0.7c0.8,0,1.6-0.2,2.4-0.5l0.5-0.2c0.4,0.4,0.7,1,1,1.5c0.4,0.6,2,5.8,3,8.8c0.9,2.8,1.8,5.6,2.7,7.8
				c0.3,0.9,0.6,1.8,1,2.7c0.2,0.4,0.4,1,0.8,1.5c2.2-1,4.3-2.1,6.3-3.2c0.1-0.6,0-1.3-0.4-1.9c-0.3-0.6-1.8-4.6-3.5-9.1
				c-1.2-3.1-2.2-6.2-3-9.4c0.2-0.8,0.8-1.4,1.6-1.5c1.5-0.2,3-0.5,4.4-1l1.3-0.4c0.2-0.1,0.4-0.1,0.7-0.1v0.2
				c0.3,0.8,6,15.7,6.7,16.9c0.2,0.4,0.5,0.6,0.9,0.9c0.9-0.7,1.7-1.3,2.4-1.8V52c-2.4-6.5-3.2-9.2-3.4-10.3c1-0.7,2.2-1.2,3.4-1.4
				v-3.8c-8.1,3.7-25.8,10.8-44.3,12.6C25.4,51.1,10.9,48.9,6,48z"/>
			<linearGradient id="SVGID_3_" gradientUnits="userSpaceOnUse" x1="55.7525" y1="19.3608" x2="45.8371" y2="63.8203">
				<stop  offset="0" style="stop-color:#FFFFFF"/>
				<stop  offset="1" style="stop-color:#CED7DB"/>
			</linearGradient>
			<path class="st4" d="M90,55.2c-3.8-10-4.6-13.1-4.6-14c1.4-1,2.9-1.7,4.6-2v-2.7c-8.1,3.7-25.8,10.8-44.3,12.6
				C25.4,51.1,10.9,48.9,6,48v3.5c1.1-0.6,2.4-0.9,3.7-0.9c0.3,0,0.7,0,1,0c3.3,0.3,3.3,0.6,3.3,1.8v3.1c0,4.3,0.1,13.2,0,14.2
				c0,0.1,0,0.1,0,0.2c1.2,0.7,2.5,1.3,3.7,1.8l-0.2-0.9c-0.4-1.7-0.4-3.4,0-5.1c0.3-0.9,0.7-2.7,1.2-4.7c0.6-3,1.4-5.9,2.4-8.7
				c0.7-0.3,1.5-0.4,2.3-0.4c0.5,0,0.9,0,1.4,0.1C25,52,25.4,52,25.8,52c0.7,0,1.5-0.1,2.1-0.3c0.3-0.1,0.6-0.1,0.9-0.2h0.3
				c0.3,0.1,0.6,0.2,0.9,0.2c0.6,0.1,0.6,0.1,0.8,0.5c0.3,1,0.5,8.8,0.7,13.9c0.2,6.8,0.3,9.1,0.4,10c1.1,0.2,2.2,0.3,3.3,0.5
				c0.4-0.5,0.6-1.1,0.5-1.8c0-10.5,0.3-18.5,0.6-19.5c0.3-0.8,0.5-1.6,0.5-2.5c0-0.3,0.1-0.6,0.1-0.9h0.5c0.8,0,1.6-0.1,2.5-0.3
				c0.7-0.1,1.8-0.2,2.6-0.3c0.9-0.1,1.5-0.2,2.1-0.3c0.5-0.1,0.9-0.2,1.4-0.2c0.6,0,1.1,0.3,1.5,0.8c1.8,1.6,3,3.8,3.4,6.2
				c1,4.3,1.8,8.6,2.3,12.9c0.1,1.4,0.2,2.8,0.4,4.2c0.1,0.3,0.1,0.8,0.3,1.2c1.3-0.2,2.6-0.4,3.8-0.6c0.1-0.4,0.3-0.8,0.3-1.2
				c0-0.7-0.4-5.4-1.1-11.9c-0.2-2.3-0.4-4.3-0.5-5.5c-0.2-1.7-0.4-3.3-0.6-4.5c-0.2-1-0.3-2.1-0.4-3.1c1.6-0.6,3.4-1,5.1-1h0.7
				c0.7-0.1,1.4-0.2,2-0.5c0.3-0.1,0.7-0.2,1-0.3c0.5,0.2,0.8,0.5,1.8,2c0.3,0.6,1.8,5.3,3,9c0.9,2.8,1.8,5.6,2.5,7.8
				c0.4,1.2,0.7,1.9,1,2.7c0.2,0.5,0.4,1.1,0.8,1.4c1.3-0.6,2.6-1.3,3.8-1.9c0.2-0.2,0.3-0.5,0.4-0.7c0.1-0.5,0-0.9-0.2-1.3
				c-0.7-1.3-6.6-17.3-6.6-19.1c0.1-1.4,1.2-2.4,2.6-2.6c1.4-0.1,2.8-0.5,4.1-1l1.4-0.4c0.3-0.1,0.7-0.2,1-0.2c0.4,0,0.7,0.1,1,0.9
				c0.4,1.3,6,15.6,6.6,16.7c0.2,0.3,0.5,0.6,0.9,0.8c0.6-0.4,1.1-0.8,1.6-1.2V55.2z"/>
			<linearGradient id="SVGID_4_" gradientUnits="userSpaceOnUse" x1="56.1612" y1="17.5292" x2="45.7137" y2="64.3744">
				<stop  offset="0" style="stop-color:#FFFFFF"/>
				<stop  offset="1" style="stop-color:#CED7DB"/>
			</linearGradient>
			<path class="st5" d="M90,58.1c-1.6-4.3-6.4-16.8-5.5-17.4c1.6-1.3,3.5-2.1,5.5-2.4v-1.8c-8.1,3.7-25.8,10.8-44.3,12.6
				C25.4,51.1,10.8,48.9,6,48v2.2c1.5-0.7,3.1-0.9,4.8-0.7c3.4,0.4,4.3,0.7,4.3,2.8s0.2,16.1,0,17.5c0,0.3,0,0.5,0.1,0.6
				c0.5,0.2,0.9,0.5,1.4,0.7c0,0,0,0,0,0c-0.4-1.9-0.4-3.8,0-5.7c0.8-2.5,3.1-13.7,3.9-14c1.4-0.6,3-0.8,4.5-0.5
				c2.5,0.4,3.2-0.7,4.6-0.4c1.4,0.4,1.8,0,2.4,1.4c0.6,1.3,0.9,23.8,1.3,24.4c0,0,0,0,0,0c0.3,0,0.6,0.1,0.8,0.1
				c0.4-0.2,0.8-0.8,0.8-1.6c0-1.4,0-18.2,0.7-20c0.7-1.8,0.2-4.2,1.4-4.1c1.9,0,3.8-0.2,5.7-0.5c3.2-0.4,4.1-1.2,5.8,0.5
				c1.9,1.8,3.2,4.1,3.7,6.7c0.7,3.4,2.1,10.2,2.3,13.1c0.1,2,0.3,4.2,0.7,5.3c0.5-0.1,0.9-0.2,1.4-0.2c0.2-0.5,0.3-1.1,0.3-1.6
				c0-1.1-1.2-13.5-1.6-17.3s-1.2-7.1-0.9-8.1s5.5-1.8,6.5-1.6c1.1,0.2,3-1.1,3.7-0.7c0.7,0.4,1.2,0.7,2.3,2.5s6.5,21,7.3,20.7
				c0.7-0.3,3-1.8,2.3-2.7s-6.9-18.2-6.7-19.7c0.2-1.9,1.7-3.4,3.5-3.5c1.8-0.3,3.6-0.7,5.3-1.4c1.8-0.5,2.8-0.2,3.4,1.4
				c0.5,1.6,6,15.5,6.5,16.5c0.2,0.3,0.6,0.5,0.9,0.6c0.2-0.2,0.4-0.3,0.6-0.4V58.1z"/>
			<radialGradient id="SVGID_5_" cx="51.8623" cy="82.0356" r="44.7744" gradientUnits="userSpaceOnUse">
				<stop  offset="0" style="stop-color:#E57373"/>
				<stop  offset="1" style="stop-color:#FFCDD2"/>
			</radialGradient>
			<path class="st6" d="M74.9,69.3c-0.9-3.2-4.7-15.5-6.1-24.9c-0.9,0.3-1.7,0.5-2.6,0.7C68.8,50,74.9,69.3,74.9,69.3z"/>
			<radialGradient id="SVGID_6_" cx="51.2965" cy="117.9604" r="44.8619" gradientUnits="userSpaceOnUse">
				<stop  offset="0" style="stop-color:#E57373"/>
				<stop  offset="1" style="stop-color:#FFCDD2"/>
			</radialGradient>
			<path class="st7" d="M89.3,59.5c-0.4-2.2-5.7-17-6.8-19.8c-0.6,0.2-1.2,0.5-1.9,0.7C82.5,42.5,89.3,59.5,89.3,59.5z"/>
			<radialGradient id="SVGID_7_" cx="50.7707" cy="140.6276" r="43.9427" gradientUnits="userSpaceOnUse">
				<stop  offset="0" style="stop-color:#E57373"/>
				<stop  offset="1" style="stop-color:#FFCDD2"/>
			</radialGradient>
			<path class="st8" d="M56.1,75.8C56.1,75.8,56.1,75.8,56.1,75.8c-0.5-5.1-2-23.6-2.3-27.9c-1.1,0.2-2.2,0.4-3.4,0.5
				C52.9,53.4,55.7,72.8,56.1,75.8z"/>
			<radialGradient id="SVGID_8_" cx="48.6817" cy="143.8084" r="44.2619" gradientUnits="userSpaceOnUse">
				<stop  offset="0" style="stop-color:#E57373"/>
				<stop  offset="1" style="stop-color:#FFCDD2"/>
			</radialGradient>
			<path class="st9" d="M33.9,76.5c0.5-3.8,1.3-22.8,1.4-26.7c-0.8,0-1.5,0.1-2.3,0.1C33.8,54.2,33.9,74,33.9,76.5
				C33.9,76.5,33.9,76.5,33.9,76.5z"/>
			<radialGradient id="SVGID_9_" cx="49.0171" cy="139.0347" r="44.9855" gradientUnits="userSpaceOnUse">
				<stop  offset="0" style="stop-color:#E57373"/>
				<stop  offset="1" style="stop-color:#FFCDD2"/>
			</radialGradient>
			<path class="st10" d="M15.6,70.7C15.6,70.7,15.6,70.7,15.6,70.7c0.5-6.6,3.6-18.4,4.4-21c-1.2-0.1-2.4-0.2-3.4-0.3
				C15.6,52.6,15.6,68.9,15.6,70.7z"/>
		</g>
		<radialGradient id="SVGID_10_" cx="54.847" cy="89.3157" r="53.0432" gradientUnits="userSpaceOnUse">
			<stop  offset="0" style="stop-color:#211D1E"/>
			<stop  offset="1" style="stop-color:#58595B;stop-opacity:0"/>
		</radialGradient>
		<path class="st11" d="M90,36.5c-8.1,3.7-25.8,10.8-44.3,12.6C25.4,51.1,10.9,48.9,6,48v16.8c18.6,13.6,35.8,13.9,53.1,10.5
			C72.9,72.6,85.1,64,90,60.3V36.5z"/>
		<path class="st12" d="M5.3,27.5c0,0,14.4-6.5,30.2-1.9C35.5,25.6,20.2,10.7,5.3,27.5z"/>
		<path class="st12" d="M60.2,24.5c0,0,14.4-6.5,30.2-1.9C90.4,22.6,75,7.7,60.2,24.5z"/>
	</g>
</g>
</svg>
