<?xml version="1.0" encoding="utf-8"?>
<!-- Generator: Adobe Illustrator 24.0.0, SVG Export Plug-In . SVG Version: 6.00 Build 0)  -->
<svg version="1.1" id="图层_4" xmlns="http://www.w3.org/2000/svg" xmlns:xlink="http://www.w3.org/1999/xlink" x="0px" y="0px"
	 viewBox="0 0 96 96" style="enable-background:new 0 0 96 96;" xml:space="preserve">
<style type="text/css">
	.st0{fill:#805C88;}
	.st1{fill:#6B94C8;}
	.st2{fill:#88D900;}
	.st3{fill:#D51007;}
	.st4{fill:#FFFFFF;}
</style>
<g id="_96">
	<g>
		<path class="st0" d="M6,71c0,10.5,8.5,19,19,19h46c10.5,0,19-8.5,19-19V48H6V71z"/>
		<path class="st1" d="M71,6H25C14.5,6,6,14.5,6,25v23h84V25C90,14.5,81.5,6,71,6z"/>
		<path class="st2" d="M84.4,84.4C87.9,81,90,76.2,90,71V25c0-5.2-2.1-10-5.6-13.4L48,48L84.4,84.4z"/>
		<path class="st3" d="M11.6,11.6C8.1,15,6,19.8,6,25v46c0,5.2,2.1,10,5.6,13.4L48,48L11.6,11.6z"/>
	</g>
	<path class="st4" d="M42.1,60.7h11.6V63c-3,4.1-5.1,9.8-6.2,16.9h-3.2c0.8-5.7,2.7-11.2,5.5-16.2h-7.7V60.7z"/>
	<path class="st4" d="M54.1,18.6L51,19.8C50.5,18,49.7,17,48.5,17c-1.8,0.1-2.9,1.9-3.2,5.3c0.8-1.1,2.1-1.8,3.4-1.7
		c3.3,0.3,5.2,2.4,5.5,6.5c-0.1,4.3-2.2,6.6-6.2,6.8c-4-0.1-6-3-6.1-8.7c0.2-7,2.4-10.7,6.6-11C51.3,14.2,53.2,15.7,54.1,18.6z
		 M48,31.1c1.9-0.1,2.9-1.4,3-3.8s-1-3.7-2.8-3.7s-2.7,1.3-2.8,3.7S46.4,31,48,31.1z"/>
	<path class="st4" d="M28.8,53.9v2.9h-12v-2.2c1.3-2.6,3.3-4.9,5.6-6.7c2.3-1.7,3.4-3.3,3.3-4.9c0.1-1.4-0.9-2.6-2.3-2.7
		c-0.1,0-0.3,0-0.4,0c-1.4-0.1-2.5,1-3.3,3.2l-2.8-1.4c1.1-3.1,3.2-4.7,6.2-4.7c3.8,0.1,5.8,2,5.9,5.6c0.1,2.4-1.3,4.7-4.3,6.9
		c-1.6,1.1-2.9,2.4-4,4L28.8,53.9z"/>
	<path class="st4" d="M68.8,37.7h9.5v3h-6.8l-0.4,3.9c0.8-0.6,1.7-0.9,2.7-0.8c3.5,0.2,5.3,2.3,5.4,6.4c-0.1,4.4-2.2,6.8-6.2,7
		c-3.3,0.1-5.3-1.7-6-5.5l3.2-1c0.3,2.4,1.2,3.5,2.8,3.5c1.9-0.1,2.9-1.5,2.9-4c-0.1-2.2-1-3.4-2.8-3.4c-1.3-0.1-2.5,0.8-2.8,2.1
		l-2.7-0.6L68.8,37.7z"/>
</g>
</svg>
