<svg id="图层_24" data-name="图层 24" xmlns="http://www.w3.org/2000/svg" viewBox="0 0 96 96"><defs><style>.cls-1{fill:#dae0e5;}.cls-2{isolation:isolate;}.cls-3{fill:#333;}</style></defs><title>96</title><g id="fonts"><g id="_96" data-name="96"><rect class="cls-1" x="6" y="6" width="84" height="84" rx="19"/><g id="_96-2" data-name="96"><g class="cls-2"><path class="cls-3" d="M13.51,65l15-39h8l17,39h-7l-5-12h-17l-4,12Zm12-16h15l-8-19Z"/><path class="cls-3" d="M76.1,61.18a19.24,19.24,0,0,1-5.51,3.35,16.3,16.3,0,0,1-5.68,1q-5,0-7.7-2.39a7.77,7.77,0,0,1-2.7-6.1,7.94,7.94,0,0,1,1-4,8.41,8.41,0,0,1,2.66-2.89A12.61,12.61,0,0,1,61.9,48.5a37.56,37.56,0,0,1,4.58-.75A48.58,48.58,0,0,0,75.67,46q0-1,0-1.32c0-2-.49-3.49-1.46-4.33-1.32-1.13-3.27-1.7-5.87-1.7A9.38,9.38,0,0,0,63,39.91a7.58,7.58,0,0,0-2.56,4.4l-5-.67a12,12,0,0,1,2.26-5.09,9.9,9.9,0,0,1,4.56-3,20.68,20.68,0,0,1,6.9-1.05,18.81,18.81,0,0,1,6.32.89A8.36,8.36,0,0,1,79,37.65a7.88,7.88,0,0,1,1.61,3.42,28.11,28.11,0,0,1,.25,4.64v6.7a69.26,69.26,0,0,0,.33,8.87,11.24,11.24,0,0,0,1.3,3.56H77.13A10.46,10.46,0,0,1,76.1,61.18ZM75.67,50a38.13,38.13,0,0,1-8.41,1.9,20.14,20.14,0,0,0-4.5,1,4.42,4.42,0,0,0-2,1.63,4.36,4.36,0,0,0,.84,5.74,6.79,6.79,0,0,0,4.57,1.34,10.85,10.85,0,0,0,5.3-1.27,7.87,7.87,0,0,0,3.4-3.48,11.74,11.74,0,0,0,.83-5Z"/></g><rect class="cls-3" x="20.51" y="69.44" width="56" height="3.07" rx="1.54"/></g></g></g></svg>