<svg id="图层_12" data-name="图层 12" xmlns="http://www.w3.org/2000/svg" viewBox="0 0 96 96"><defs><style>.cls-1{fill:#f8f8f8;}.cls-2{fill:#e2e2e2;}.cls-3{fill:#049604;}.cls-4{fill:#ee333a;}.cls-5{fill:#1b5eb5;}</style></defs><title>96</title><g id="_96" data-name="96"><rect class="cls-1" x="7.5" y="7.5" width="81" height="81" rx="17.5"/><path class="cls-2" d="M71,9A16,16,0,0,1,87,25V71A16,16,0,0,1,71,87H25A16,16,0,0,1,9,71V25A16,16,0,0,1,25,9H71m0-3H25A19,19,0,0,0,6,25V71A19,19,0,0,0,25,90H71A19,19,0,0,0,90,71V25A19,19,0,0,0,71,6Z"/><path class="cls-2" d="M48,48H90a0,0,0,0,1,0,0V71A19,19,0,0,1,71,90H48a0,0,0,0,1,0,0V48A0,0,0,0,1,48,48Z"/><rect class="cls-2" x="46" y="6" width="4" height="84"/><rect class="cls-2" x="6" y="46" width="84" height="4"/><polygon class="cls-3" points="21 13 21 43 25 43 25 28 41 28 21 13"/><path class="cls-4" d="M79,72l5-3-5-3h0a10.28,10.28,0,0,0-.82-2h0L79.5,58.5,74,59.76h0a10.28,10.28,0,0,0-2-.82h0L69,54l-3,4.94h0a10.28,10.28,0,0,0-2,.82h0L58.5,58.5,59.76,64h0a10.28,10.28,0,0,0-.82,2h0L54,69l5,3h0a10.28,10.28,0,0,0,.82,2h0l-1.32,5.48L64,78.24h0a10.28,10.28,0,0,0,2,.82v0L69,84l3-4.91v0a10.28,10.28,0,0,0,2-.82h0L79.5,79.5,78.24,74h0a10.28,10.28,0,0,0,.82-2Z"/><polygon class="cls-5" points="30 79 30 56 21 56 21 60 26 60 26 79 21 79 21 83 35 83 35 79 30 79"/></g></svg>