<?xml version="1.0" encoding="utf-8"?>
<!-- Generator: Adobe Illustrator 24.0.0, SVG Export Plug-In . SVG Version: 6.00 Build 0)  -->
<svg version="1.1" id="图层_33" xmlns="http://www.w3.org/2000/svg" xmlns:xlink="http://www.w3.org/1999/xlink" x="0px" y="0px"
	 viewBox="0 0 96 96" style="enable-background:new 0 0 96 96;" xml:space="preserve">
<style type="text/css">
	.st0{fill:#1C64F1;}
	.st1{fill:url(#SVGID_1_);}
	.st2{fill:url(#SVGID_2_);}
	.st3{fill:url(#SVGID_3_);}
	.st4{fill:url(#SVGID_4_);}
	.st5{fill:url(#SVGID_5_);}
	.st6{fill:url(#SVGID_6_);}
</style>
<g id="_96-2">
	<path class="st0" d="M25,6h46c10.5,0,19,8.5,19,19v46c0,10.5-8.5,19-19,19H25C14.5,90,6,81.5,6,71V25C6,14.5,14.5,6,25,6z"/>
	<g>
		<linearGradient id="SVGID_1_" gradientUnits="userSpaceOnUse" x1="55.4396" y1="22.0191" x2="42.7156" y2="100.6267">
			<stop  offset="0" style="stop-color:#F3F124"/>
			<stop  offset="0.39" style="stop-color:#F3EF24"/>
			<stop  offset="0.58" style="stop-color:#F4E726"/>
			<stop  offset="0.72" style="stop-color:#F6DA28"/>
			<stop  offset="0.84" style="stop-color:#F8C82C"/>
			<stop  offset="0.95" style="stop-color:#FBB030"/>
			<stop  offset="1" style="stop-color:#FDA233"/>
		</linearGradient>
		<path class="st1" d="M73,89.9c0.5-0.1,1-0.1,1.5-0.2c0.2,0,0.4-0.1,0.6-0.1c0.4-0.1,0.8-0.2,1.2-0.3c0.3-0.1,0.5-0.2,0.8-0.3
			c0,0,0.1,0,0.1,0c0.6-0.2,1.2-0.4,1.7-0.7c1.3-1.1,2.5-2.2,3.7-3.4c-8-0.8-15.8-3.6-22.4-8.2c-3.5-2.4-9.8-6.9-13.9-15.4
			c-1.2-2.5-2.1-5.2-2.7-7.9c2.1,6.9,4.9,9.5,7.5,10.3c2.4,0.7,5.1-0.3,7.5,0c5.2,0.8,8.9,3.9,12.2,1.4c1.3-1,1.3-3.8,0.3-5.8
			c2-1.8,8.7-8,7.1-12.7c-0.4-1.3-1.3-2-5.4-5.1c-2.5-1.9-5.2-4-8.2-6.2c0.1-1.4-0.3-2.9-1-4.1C62.5,29.6,61,28.4,56,27
			c-3.4-1-7-1.6-10.5-2c-0.6-1.5-1.6-2.9-2.8-4.1c-1-1-2.1-1.8-3.4-2.4c-0.8,0.9-1.5,2-2,3.1c-0.5,1.3-0.8,2.7-0.7,4.1
			c-7.8,2.9-14.4,8.3-18.7,15.4c-4.1,6.8-5.1,13.3-5.8,18.5c-1,7.2-0.8,14.4,0.7,21.5c1.8,2.9,3.9,5.6,6.4,8c0,0,0,0,0,0
			c0.3,0.1,0.5,0.2,0.8,0.2c0.3,0.1,0.5,0.1,0.8,0.2c0.3,0.1,0.5,0.1,0.8,0.2c0.3,0.1,0.7,0.1,1,0.2c0.2,0,0.4,0.1,0.6,0.1
			C23.8,90,24.4,90,25,90h46c0.6,0,1.2,0,1.8-0.1C72.9,89.9,72.9,89.9,73,89.9z"/>
		<g>
			
				<linearGradient id="SVGID_2_" gradientUnits="userSpaceOnUse" x1="58.7315" y1="59.6149" x2="59.8015" y2="61.4649" gradientTransform="matrix(1 0 0 -1 0 98)">
				<stop  offset="0" style="stop-color:#F39D23;stop-opacity:0.9"/>
				<stop  offset="0.1" style="stop-color:#F39D23;stop-opacity:0.87"/>
				<stop  offset="0.24" style="stop-color:#F49E25;stop-opacity:0.8"/>
				<stop  offset="0.4" style="stop-color:#F69E27;stop-opacity:0.67"/>
				<stop  offset="0.59" style="stop-color:#F79F2A;stop-opacity:0.5"/>
				<stop  offset="0.79" style="stop-color:#FAA02E;stop-opacity:0.27"/>
				<stop  offset="1" style="stop-color:#FDA233;stop-opacity:0"/>
				<stop  offset="1" style="stop-color:#FDA233;stop-opacity:0"/>
			</linearGradient>
			<path class="st2" d="M57,34.9c0,1.3,0.6,2.6,1.7,3.4c1,0.7,2.2,0.9,3.4,0.7c-0.4-0.8-1-1.5-1.7-2c-0.5-0.4-1.1-0.7-1.7-1L57,34.9
				z"/>
			<linearGradient id="SVGID_3_" gradientUnits="userSpaceOnUse" x1="36.828" y1="19.9326" x2="42.4675" y2="29.6923">
				<stop  offset="0" style="stop-color:#F39D23;stop-opacity:0.9"/>
				<stop  offset="0.1" style="stop-color:#F39D23;stop-opacity:0.87"/>
				<stop  offset="0.24" style="stop-color:#F49E25;stop-opacity:0.8"/>
				<stop  offset="0.4" style="stop-color:#F69E27;stop-opacity:0.67"/>
				<stop  offset="0.59" style="stop-color:#F79F2A;stop-opacity:0.5"/>
				<stop  offset="0.79" style="stop-color:#FAA02E;stop-opacity:0.27"/>
				<stop  offset="1" style="stop-color:#FDA233;stop-opacity:0"/>
				<stop  offset="1" style="stop-color:#FDA233;stop-opacity:0"/>
			</linearGradient>
			<path class="st3" d="M41.7,30.1c-1.1-1.3-1.9-2.8-2.4-4.4c-0.7-2.3-0.6-4.8,0-7.1c0,0-0.1,0-0.1,0c-0.8,0.9-1.5,2-2,3.1
				c-0.5,1.1-0.7,2.3-0.7,3.4c0.3,0.7,0.6,1.4,1,2C38.6,28.5,40.1,29.5,41.7,30.1z"/>
			<linearGradient id="SVGID_4_" gradientUnits="userSpaceOnUse" x1="41.5458" y1="98.7479" x2="66.123" y2="56.1792">
				<stop  offset="0" style="stop-color:#F39D23;stop-opacity:0.3"/>
				<stop  offset="0.2" style="stop-color:#F49D24;stop-opacity:0.27"/>
				<stop  offset="0.49" style="stop-color:#F69F29;stop-opacity:0.2"/>
				<stop  offset="0.83" style="stop-color:#FBA12F;stop-opacity:7.000000e-02"/>
				<stop  offset="1" style="stop-color:#FDA233;stop-opacity:0"/>
			</linearGradient>
			<path class="st4" d="M46.2,61.3c-1.2-2.5-2.1-5.2-2.7-7.9c2.1,6.9,4.9,9.5,7.5,10.3c2.4,0.7,5.1-0.3,7.5,0
				c5.2,0.8,8.9,3.9,12.2,1.4c1.3-1,1.3-3.8,0.3-5.8c0,0,0.1-0.1,0.1-0.1c-0.7,0.1-1.5,0.1-2.2,0.1c-3.3-0.1-5.7-1.2-8.8-2.7
				c-7.2-3.4-8-6.3-12.2-6.8s-7.8,1.7-9.5,2.7c-8.5,5.3-11.2,15.8-11.9,19.5c-1.3,6.8-1.4,12.8,0,18.2H71c0.6,0,1.2,0,1.8-0.1
				c0.1,0,0.2,0,0.3,0c0.5-0.1,1-0.1,1.5-0.2c0.2,0,0.4-0.1,0.6-0.1c0.4-0.1,0.8-0.2,1.2-0.3c0.3-0.1,0.5-0.2,0.8-0.3
				c0,0,0.1,0,0.1,0c0.6-0.2,1.2-0.4,1.7-0.7c1.3-1.1,2.5-2.2,3.7-3.4c-8-0.8-15.8-3.6-22.4-8.2C56.7,74.3,50.3,69.7,46.2,61.3z"/>
			<linearGradient id="SVGID_5_" gradientUnits="userSpaceOnUse" x1="67.0965" y1="51.0534" x2="52.9466" y2="59.8904">
				<stop  offset="0" style="stop-color:#F39D23;stop-opacity:0.5"/>
				<stop  offset="2.000000e-02" style="stop-color:#F39D24;stop-opacity:0.48"/>
				<stop  offset="0.15" style="stop-color:#F69F28;stop-opacity:0.33"/>
				<stop  offset="0.28" style="stop-color:#F9A02C;stop-opacity:0.21"/>
				<stop  offset="0.43" style="stop-color:#FBA12F;stop-opacity:0.12"/>
				<stop  offset="0.59" style="stop-color:#FCA131;stop-opacity:5.000000e-02"/>
				<stop  offset="0.76" style="stop-color:#FDA233;stop-opacity:1.000000e-02"/>
				<stop  offset="1" style="stop-color:#FDA233;stop-opacity:0"/>
			</linearGradient>
			<path class="st5" d="M42.7,50.3c0.2,1.6,0.5,3.2,1.1,4.7c-0.2-0.6-0.3-1.1-0.4-1.6c0.1,0.4,0.2,0.8,0.4,1.1
				c-0.1-0.4-0.2-0.8-0.3-1.1c2.1,6.9,4.9,9.5,7.5,10.3c0.6,0.2,1.2,0.3,1.8,0.3c1.6,0,3.2-0.4,4.7-0.3c0.3,0,0.6,0,1,0.1
				c3.9,0.6,6.9,2.4,9.6,2.3c0.9,0,1.7-0.3,2.6-0.9c1.3-1,1.3-3.8,0.3-5.8c0,0,0.1-0.1,0.1-0.1c-0.7,0.1-1.4,0.1-2.1,0.1
				c-3.3-0.1-5.7-1.2-8.8-2.7c-7.2-3.4-8-6.3-12.2-6.8c-1.8-0.2-3.5,0-5.2,0.6L42.7,50.3z"/>
			<linearGradient id="SVGID_6_" gradientUnits="userSpaceOnUse" x1="52.4101" y1="94.501" x2="65.1568" y2="56.7947">
				<stop  offset="0" style="stop-color:#F39D23;stop-opacity:0.5"/>
				<stop  offset="0.15" style="stop-color:#F69E28;stop-opacity:0.36"/>
				<stop  offset="0.45" style="stop-color:#FBA130;stop-opacity:0.1"/>
				<stop  offset="0.6" style="stop-color:#FDA233;stop-opacity:0"/>
			</linearGradient>
			<path class="st6" d="M46.2,61.3c-0.9-1.9-1.6-3.8-2.2-5.9c0-0.1-0.1-0.3-0.2-0.4c-0.5-1.5-0.9-3.1-1-4.7c-2.5,3-4.5,6.5-5.8,10.3
				c-2.3,7.7-2.2,15.9,0.3,23.6c0.7,2.2,1.7,4.1,2.7,5.8h31c0.6,0,1.2,0,1.8-0.1c0.1,0,0.2,0,0.3,0c0.5-0.1,1-0.1,1.5-0.2
				c0.2,0,0.4-0.1,0.6-0.1c0.4-0.1,0.8-0.2,1.2-0.3c0.3-0.1,0.5-0.2,0.8-0.3c0,0,0.1,0,0.1,0c0.6-0.2,1.2-0.4,1.7-0.7
				c1.3-1.1,2.5-2.2,3.7-3.4c-8-0.8-15.8-3.6-22.4-8.2C56.7,74.3,50.3,69.7,46.2,61.3z"/>
		</g>
	</g>
</g>
</svg>
