<svg id="图层_36" data-name="图层 36" xmlns="http://www.w3.org/2000/svg" viewBox="0 0 96 96"><defs><style>.cls-1{fill:#f85f22;}.cls-2{opacity:0.2;}.cls-3{fill:#fff;}</style></defs><title>96</title><g id="_96" data-name="96"><g id="_96-2" data-name="96"><rect class="cls-1" x="6" y="6" width="84" height="84" rx="19"/></g><path class="cls-2" d="M70,31.47s-2.78-8.36-3.34-8.36c-9.49,0-28.68,1.59-39.55,7.8-7.8,4.46-13.16,15.47-5,21.73,7.25,5.57,24,2.23,30.09,1.67,4.44-.4,7.8,1.67,6.13,4.46-2.07,3.44-8.36,5-17.83,6.13C36,65.42,26,64.9,26,64.9l3.35,8.91s24.51,1.11,36.21-5,15-16.16,10.58-21.18c-5-5.6-13.86-6.2-23.95-5-9.47,1.11-12.82,0-13.93-1.67-.69-1-1.67-5,5.57-6.69S65.52,31.47,70,31.47Z"/><path class="cls-3" d="M70,30.47s-2.78-8.36-3.34-8.36c-9.49,0-28.68,1.59-39.55,7.8-7.8,4.46-13.16,15.47-5,21.73,7.25,5.57,24,2.23,30.09,1.67,4.44-.4,7.8,1.67,6.13,4.46-2.07,3.44-8.36,5-17.83,6.13C36,64.42,26,63.9,26,63.9l3.35,8.91s24.51,1.11,36.21-5,15-16.16,10.58-21.18c-5-5.6-13.86-6.2-23.95-5-9.47,1.11-12.82,0-13.93-1.67-.69-1-1.67-5,5.57-6.69S65.52,30.47,70,30.47Z"/></g></svg>