<?xml version="1.0" encoding="utf-8"?>
<!-- Generator: Adobe Illustrator 24.0.0, SVG Export Plug-In . SVG Version: 6.00 Build 0)  -->
<svg version="1.1" id="图层_51" xmlns="http://www.w3.org/2000/svg" xmlns:xlink="http://www.w3.org/1999/xlink" x="0px" y="0px"
	 viewBox="0 0 96 96" style="enable-background:new 0 0 96 96;" xml:space="preserve">
<style type="text/css">
	.st0{fill:#FFAF39;}
	.st1{opacity:0.6;fill:#FFFFFF;enable-background:new    ;}
	.st2{fill:#FFFCF5;}
	.st3{fill:#FFCA4A;}
	.st4{fill:#FFF3D9;}
	.st5{fill:#FF9C33;}
	.st6{fill:#0B8AC3;}
</style>
<g id="_96">
	<path class="st0" d="M26,7h44c10.5,0,19,8.5,19,19v44c0,10.5-8.5,19-19,19H26C15.5,89,7,80.5,7,70V26C7,15.5,15.5,7,26,7z"/>
	<path class="st1" d="M25,16h47c4.4,0,8,3.6,8,8v34c0,4.4-3.6,8-8,8H25c-4.4,0-8-3.6-8-8V24C17,19.6,20.6,16,25,16z"/>
	<path class="st2" d="M22.5,22h52c5,0,9,4,9,9v32c0,5-4,9-9,9h-52c-5,0-9-4-9-9V31C13.5,26,17.5,22,22.5,22z"/>
	<path class="st3" d="M7,30v40c0,10.5,8.5,19,19,19l0,0h44c10.5,0,19-8.5,19-19l0,0V30l-21.6,2.1c-12.9,1.3-25.9,1.3-38.8,0L7,30z"
		/>
	<circle class="st4" cx="48" cy="47" r="7"/>
	<circle class="st5" cx="48" cy="47" r="3"/>
	<path class="st6" d="M68,63H28c-3.3,0-6,2.7-6,6v19.6c1.3,0.3,2.6,0.4,4,0.4h7V73.1h30V89h7c1.4,0,2.7-0.2,4-0.4V69
		C74,65.7,71.3,63,68,63z"/>
</g>
</svg>
