<svg id="图层_9" data-name="图层 9" xmlns="http://www.w3.org/2000/svg" xmlns:xlink="http://www.w3.org/1999/xlink" viewBox="0 0 96 96"><defs><style>.cls-1{fill:none;}.cls-2{fill:#e7eced;}.cls-3{fill:#e90101;}.cls-4{fill:#a3a5a0;}.cls-5{fill:#f0f2ef;}.cls-6{clip-path:url(#clip-path);}.cls-7{fill:#797b76;}.cls-8{fill:#555958;}</style><clipPath id="clip-path"><path class="cls-1" d="M70.7,81H25.3c-4.8,0-8.73,0-8.73-4.71l5-36.28c.64-4.54,3.93-8.51,8.73-8.51H66c4.8,0,7.89,3.87,8.46,8.36l5,36.43C79.43,81,75.5,81,70.7,81Z"/></clipPath></defs><title>96</title><g id="_96" data-name="96"><rect id="_96-2" data-name="96" class="cls-2" x="6" y="6" width="84" height="84" rx="19"/><rect class="cls-3" x="21.29" y="15" width="53.43" height="9" rx="4.5"/><path class="cls-4" d="M70.7,81H25.3c-4.8,0-8.73,0-8.73-4.76l5-36.65C22.17,35,25.46,31,30.26,31H66c4.8,0,7.89,3.91,8.46,8.44l5,36.8C79.43,81,75.5,81,70.7,81Z"/><path class="cls-5" d="M65.9,68,30.1,68a5.6,5.6,0,0,1-5.67-5.5l3.37-22A5.8,5.8,0,0,1,33.46,35H62.54c3.11,0,5.27,2.47,5.66,5.42L71.57,62.5A5.61,5.61,0,0,1,65.9,68Z"/><g class="cls-6"><rect class="cls-7" x="16.57" y="74" width="62.86" height="7" rx="3.5"/></g><polygon class="cls-8" points="41.02 53.89 35.2 53.89 48 64.5 60.8 53.89 54.98 53.89 52.66 43.29 43.34 43.29 41.02 53.89"/><rect class="cls-4" x="44" y="15" width="8" height="30.64"/></g></svg>