<svg id="设置" xmlns="http://www.w3.org/2000/svg" xmlns:xlink="http://www.w3.org/1999/xlink" viewBox="0 0 96 96"><defs><style>.cls-1{fill:#ccc;}.cls-2{fill:url(#未命名的渐变_164);}.cls-3{fill:url(#未命名的渐变_164-2);}</style><linearGradient id="未命名的渐变_164" x1="31" y1="48" x2="65" y2="48" gradientUnits="userSpaceOnUse"><stop offset="0" stop-color="#242424"/><stop offset="1" stop-color="#383838"/></linearGradient><linearGradient id="未命名的渐变_164-2" x1="48" y1="81" x2="48" y2="15" xlink:href="#未命名的渐变_164"/></defs><title>96</title><g id="_96" data-name="96"><circle class="cls-1" cx="48" cy="48" r="44"/><path class="cls-2" d="M48,31A17,17,0,1,0,65,48,17,17,0,0,0,48,31Zm0,25.5A8.5,8.5,0,1,1,56.5,48,8.51,8.51,0,0,1,48,56.5Z"/><path class="cls-3" d="M79.49,54.6A6.86,6.86,0,0,1,75.35,48a6.86,6.86,0,0,1,4.14-6.6,2.2,2.2,0,0,0,1.43-2.66,33.42,33.42,0,0,0-3.07-7.45,2.2,2.2,0,0,0-2.9-.88,6.86,6.86,0,0,1-7.61-1.74,6.87,6.87,0,0,1-1.73-7.61,2.2,2.2,0,0,0-.88-2.9,33.45,33.45,0,0,0-7.45-3.08,2.19,2.19,0,0,0-2.67,1.44A6.87,6.87,0,0,1,48,20.66a6.87,6.87,0,0,1-6.6-4.14,2.19,2.19,0,0,0-2.67-1.44,33.61,33.61,0,0,0-7.45,3.07,2.21,2.21,0,0,0-.88,2.91,6.84,6.84,0,0,1-1.74,7.6,6.86,6.86,0,0,1-7.6,1.74,2.2,2.2,0,0,0-2.9.88,33.45,33.45,0,0,0-3.08,7.45,2.19,2.19,0,0,0,1.44,2.67A6.87,6.87,0,0,1,20.66,48a6.86,6.86,0,0,1-4.14,6.6,2.2,2.2,0,0,0-1.43,2.66,33.46,33.46,0,0,0,3.06,7.46,2.19,2.19,0,0,0,2.9.88,6.86,6.86,0,0,1,7.6,1.74,6.84,6.84,0,0,1,1.75,7.6,2.2,2.2,0,0,0,.88,2.9,33.61,33.61,0,0,0,7.45,3.07,2.2,2.2,0,0,0,2.67-1.43A6.87,6.87,0,0,1,48,75.35a6.86,6.86,0,0,1,6.6,4.13A2.19,2.19,0,0,0,56.71,81a2.24,2.24,0,0,0,.57-.08,33.61,33.61,0,0,0,7.45-3.07,2.2,2.2,0,0,0,.88-2.9,7.34,7.34,0,0,1,4.5-9.35,7.43,7.43,0,0,1,4.84,0,2.2,2.2,0,0,0,2.9-.88,33.42,33.42,0,0,0,3.07-7.45A2.2,2.2,0,0,0,79.49,54.6ZM48,67.8A19.8,19.8,0,1,1,67.81,48,19.8,19.8,0,0,1,48,67.8Z"/></g></svg>