<svg id="系统监视" xmlns="http://www.w3.org/2000/svg" xmlns:xlink="http://www.w3.org/1999/xlink" viewBox="0 0 96 96"><defs><style>.cls-1,.cls-5,.cls-6{fill:none;}.cls-2{fill:#28d488;}.cls-3{clip-path:url(#clip-path);}.cls-4{opacity:0.15;}.cls-5,.cls-6{stroke:#fff;stroke-miterlimit:10;}.cls-5{stroke-width:3.18px;}.cls-6{stroke-linecap:round;stroke-width:5.24px;}</style><clipPath id="clip-path"><rect class="cls-1" x="6" y="6" width="84" height="84" rx="19"/></clipPath></defs><title>96</title><g id="_96" data-name="96"><rect class="cls-2" x="6" y="6" width="84" height="84" rx="19"/><g class="cls-3"><g class="cls-4"><line class="cls-5" x1="4" y1="87.19" x2="92" y2="87.19"/><line class="cls-5" x1="4" y1="74.81" x2="92" y2="74.81"/><line class="cls-5" x1="4" y1="62.43" x2="92" y2="62.43"/><line class="cls-5" x1="4" y1="50.04" x2="92" y2="50.04"/><line class="cls-5" x1="4" y1="37.67" x2="92" y2="37.67"/><line class="cls-5" x1="4" y1="25.29" x2="92" y2="25.29"/><line class="cls-5" x1="4" y1="12.9" x2="92" y2="12.9"/></g></g><path class="cls-6" d="M86.12,50l-3.28,4.6a4.52,4.52,0,0,1-6.24,1A4.84,4.84,0,0,1,75.27,54l-4.5-8.59a4.51,4.51,0,0,0-6-1.84,5,5,0,0,0-1.84,1.74l-3.28,5.93a4.44,4.44,0,0,1-8.18-1L47.85,36.65a4.47,4.47,0,0,0-5.43-3.17,4.29,4.29,0,0,0-3.17,3.37l-3.78,17.4a4.48,4.48,0,0,1-5.33,3.37,4.27,4.27,0,0,1-3-2.35L25.54,52a4.45,4.45,0,0,0-5.94-2h-.1a.77.77,0,0,1-.41.21L9.88,56.4"/></g></svg>