<svg id="图层_30" data-name="图层 30" xmlns="http://www.w3.org/2000/svg" viewBox="0 0 96 96"><defs><style>.cls-1{fill:#e8ebed;}.cls-2{fill:#428fec;}.cls-3{fill:none;stroke:#fff;stroke-linecap:round;stroke-miterlimit:10;stroke-width:3px;}.cls-4{fill:#4793fd;}</style></defs><title>96</title><g id="wps-office-officeassistant"><g id="_96" data-name="96"><g id="_96-2" data-name="96"><rect class="cls-1" x="6" y="6" width="84" height="84" rx="19"/></g><g id="_96-3" data-name="96"><circle class="cls-2" cx="47.01" cy="47.01" r="16.5"/><path class="cls-3" d="M37.85,44.51a9.52,9.52,0,0,1,7.66-6.88"/><path class="cls-4" d="M47,25.51A21.52,21.52,0,0,1,68.51,47,21.25,21.25,0,0,1,66,57.08l-1.73,3.26L66.89,63l3.59,3.59a2.78,2.78,0,1,1-3.93,3.92L63,66.89l-2.61-2.62L57.08,66A21.22,21.22,0,0,1,47,68.51a21.5,21.5,0,0,1,0-43m0-5A26.5,26.5,0,1,0,59.43,70.42L63,74A7.78,7.78,0,1,0,74,63l-3.58-3.59A26.51,26.51,0,0,0,47,20.51Z"/></g></g></g></svg>