<svg id="图层_13" data-name="图层 13" xmlns="http://www.w3.org/2000/svg" viewBox="0 0 96 96"><defs><style>.cls-1{fill:#dc4d3c;}.cls-2{fill:#fff;}</style></defs><title>96</title><g id="_96" data-name="96"><rect class="cls-1" x="6" y="6" width="84" height="84" rx="19"/><rect class="cls-2" x="39" y="61" width="6" height="15" rx="3"/><rect class="cls-2" x="39" y="21" width="6" height="28" rx="3"/><path class="cls-2" d="M55,21H42v6H54.5a12.5,12.5,0,0,1,0,25H42v6H55A18.05,18.05,0,0,0,73,40V39A18.05,18.05,0,0,0,55,21Z"/><path class="cls-2" d="M42,70H34a6,6,0,0,1,0-12h8V52H34a12,12,0,0,0,0,24h8Z"/></g></svg>