<svg id="备份还原" xmlns="http://www.w3.org/2000/svg" viewBox="0 0 96 96"><defs><style>.cls-1{fill:#578cfa;}.cls-2{fill:#edf5ff;fill-rule:evenodd;}.cls-3{fill:#429cff;}.cls-4{fill:#41d9b1;}.cls-5{fill:#22f28a;}</style></defs><title>96</title><g id="_96" data-name="96"><rect class="cls-1" x="6" y="6" width="84" height="84" rx="19"/><path id="path-1" class="cls-2" d="M14.37,41.75l-.94-13.82a3.4,3.4,0,0,1,2.9-3.75l53.15-4.77a3.28,3.28,0,0,1,3.41,3.19L74.7,46h0L15.26,55.18Z"/><path id="path-6" class="cls-2" d="M21,35.83l1-14.08a3.28,3.28,0,0,1,3.42-3.2h0l54.26,5.08a3.42,3.42,0,0,1,2.89,3.76L81,50.69h0l-61-1.21Z"/><path class="cls-3" d="M71,90H25A19,19,0,0,1,6,71V33H44.38a8.15,8.15,0,0,1,6,2.68l5.84,6.42a5.81,5.81,0,0,0,4.3,1.9L90,44.19V71A19,19,0,0,1,71,90Z"/><path id="路径" class="cls-4" d="M52.85,56.77v-.9a1.64,1.64,0,0,0-2.71-1.23L37.33,65.88a1.62,1.62,0,0,0,0,2.43L50.12,80a1.63,1.63,0,0,0,2.73-1.21Z"/><path id="路径-2" data-name="路径" class="cls-5" d="M65.43,59V55.41a1.63,1.63,0,0,0-2.61-1.3L47.37,65.8a1.63,1.63,0,0,0,0,2.58L62.79,80.59a1.63,1.63,0,0,0,2.64-1.28V74.47a1,1,0,0,1,1-1c8.39.1,13.7,1.62,20.21,13.15,0,0-1-25.7-20.24-26.56A1,1,0,0,1,65.43,59Z"/></g></svg>