<?xml version="1.0" encoding="utf-8"?>
<!-- Generator: Adobe Illustrator 24.0.0, SVG Export Plug-In . SVG Version: 6.00 Build 0)  -->
<svg version="1.1" id="云" xmlns="http://www.w3.org/2000/svg" xmlns:xlink="http://www.w3.org/1999/xlink" x="0px" y="0px"
	 viewBox="0 0 16 16" enable-background="new 0 0 16 16" xml:space="preserve">
<g id="_16" opacity="0.75">
	<path fill="#1F2022" d="M4,14c-1.2,0-2.4-0.4-3.7-1.1c-0.2-0.1-0.3-0.4-0.2-0.7c0.1-0.2,0.4-0.3,0.7-0.2C1.9,12.7,3,13,4,13
		c1.6,0,2.9-0.5,3.8-0.9c1.3-0.6,2.7-0.9,4.2-1.1c0,0,0,0,0,0c1.1,0,1.6,0.2,2.3,0.5c0.4,0.1,0.8,0.3,1.3,0.5
		c0.3,0.1,0.4,0.4,0.3,0.6c-0.1,0.3-0.4,0.4-0.6,0.3c-0.6-0.2-1-0.4-1.4-0.5C13.2,12.1,12.8,12,12,12c-1.4,0.1-2.6,0.4-3.8,1
		C7.3,13.4,5.7,14,4,14z"/>
	<path fill="#1F2022" d="M4,11c-1.2,0-2.4-0.4-3.7-1.1C0,9.8-0.1,9.5,0.1,9.3C0.2,9,0.5,8.9,0.7,9.1C1.9,9.7,3,10,4,10
		c1.6,0,2.9-0.5,3.8-0.9C9.1,8.5,10.4,8.1,12,8c0,0,0,0,0,0c1.1,0,1.6,0.2,2.3,0.5c0.4,0.1,0.8,0.3,1.3,0.5c0.3,0.1,0.4,0.4,0.3,0.6
		c-0.1,0.3-0.4,0.4-0.6,0.3c-0.6-0.2-1-0.4-1.4-0.5C13.2,9.1,12.8,9,12,9c-1.4,0.1-2.6,0.4-3.8,1C7.3,10.4,5.7,11,4,11z"/>
	<path fill="#1F2022" d="M4,8C2.8,8,1.6,7.6,0.3,6.9C0,6.8-0.1,6.5,0.1,6.3C0.2,6,0.5,5.9,0.7,6.1C1.9,6.7,3,7,4,7
		c1.6,0,2.9-0.5,3.8-0.9C9.2,5.4,10.6,5,12,5c1,0,1.5,0.2,2.3,0.5c0.4,0.1,0.8,0.3,1.3,0.5c0.3,0.1,0.4,0.4,0.3,0.6
		c-0.1,0.3-0.4,0.4-0.6,0.3c-0.6-0.2-1-0.4-1.4-0.5C13.2,6.1,12.8,6,12,6c-1.6,0-2.9,0.5-3.8,0.9C6.8,7.6,5.4,8,4,8z"/>
	<path fill="#1F2022" d="M4,5C2.8,5,1.6,4.6,0.3,3.9C0,3.8-0.1,3.5,0.1,3.3C0.2,3,0.5,2.9,0.7,3.1C1.9,3.7,3,4,4,4
		c1.6,0,2.9-0.5,3.8-0.9C9.2,2.4,10.6,2,12,2c1.1,0.1,1.6,0.3,2.4,0.6c0.3,0.1,0.7,0.3,1.3,0.5c0.3,0.1,0.4,0.4,0.3,0.6
		c-0.1,0.3-0.4,0.4-0.6,0.3c-0.6-0.2-1-0.4-1.3-0.5c-0.7-0.3-1.1-0.4-2-0.5c-1.5,0-2.9,0.5-3.7,0.9C6.8,4.6,5.4,5,4,5z"/>
</g>
</svg>
