<?xml version="1.0" encoding="utf-8"?>
<!-- Generator: Adobe Illustrator 24.0.0, SVG Export Plug-In . SVG Version: 6.00 Build 0)  -->
<svg version="1.1" id="图层_5" xmlns="http://www.w3.org/2000/svg" xmlns:xlink="http://www.w3.org/1999/xlink" x="0px" y="0px"
	 viewBox="0 0 16 16" enable-background="new 0 0 16 16" xml:space="preserve">
<g opacity="0.75">
	<path fill="#1F2022" d="M10,8.5V2c0-1.1-0.9-2-2-2S6,0.9,6,2v6.5c-1.2,0.7-2,2-2,3.5c0,2.2,1.8,4,4,4s4-1.8,4-4
		C12,10.6,11.2,9.3,10,8.5z M8,15c-1.6,0-3-1.4-3-3c0-1.2,0.7-2.2,1.7-2.8C6.8,9.2,6.9,9.1,7,9l0,0V7h2v2l0,0c0,0.1,0.1,0.2,0.2,0.2
		C10.3,9.8,11,10.8,11,12C11,13.6,9.6,15,8,15z"/>
	<path fill="#1F2022" d="M4.5,5H3C2.7,5,2.5,4.8,2.5,4.5S2.7,4,3,4h1.5C4.8,4,5,4.2,5,4.5S4.8,5,4.5,5z"/>
	<path fill="#1F2022" d="M4.5,7h-1C3.2,7,3,6.8,3,6.5S3.2,6,3.5,6h1C4.8,6,5,6.2,5,6.5S4.8,7,4.5,7z"/>
	<path fill="#1F2022" d="M4.5,3h-2C2.2,3,2,2.8,2,2.5S2.2,2,2.5,2h2C4.8,2,5,2.2,5,2.5S4.8,3,4.5,3z"/>
</g>
</svg>
