<?xml version="1.0" encoding="utf-8"?>
<!-- Generator: Adobe Illustrator 24.0.0, SVG Export Plug-In . SVG Version: 6.00 Build 0)  -->
<svg version="1.1" id="图层_1" xmlns="http://www.w3.org/2000/svg" xmlns:xlink="http://www.w3.org/1999/xlink" x="0px" y="0px"
	 viewBox="0 0 16 16" enable-background="new 0 0 16 16" xml:space="preserve">
<g id="图层_2_1_" opacity="0.3">
	<path fill="#1F2022" d="M14.2,12.9c-1.3-1.2-2.1-2.7-2.2-4.5c-0.1-1.7,0.5-3.4,1.6-4.7c0.1-0.1,0.1-0.1,0.2-0.2
		c0.1-0.1,0.3-0.3,0.5-0.4l0.4,0.9c0,0-0.1,0.1-0.2,0.2c-0.1,0.1-0.1,0.2-0.2,0.2c-2,2.3-1.8,5.8,0.5,7.8L14.2,12.9z"/>
	<path fill="#1F2022" d="M15.2,11c-1.6-1.8-1.6-4.5,0.1-6.3l0.7,0.7C14.7,6.9,14.7,9,16,10.4L15.2,11z"/>
</g>
<g opacity="0.75">
	<path fill="#1F2022" d="M5.5,12C7.4,12,9,10.2,9,8V4c0-2.2-1.6-4-3.5-4S2,1.8,2,4v4C2,10.2,3.6,12,5.5,12z M3,4c0-1.7,1.1-3,2.5-3
		S8,2.3,8,4v4c0,1.7-1.1,3-2.5,3S3,9.7,3,8V4z"/>
	<path fill="#1F2022" d="M10,6v2.4c0,2.5-2,4.6-4.4,4.6H5.5c-1.1,0-2.1-0.4-3-1.1C1.6,11,1,9.8,1,8.5V6H0l0,2.5
		c0.1,1.6,0.7,3.1,1.8,4.1c0.9,0.8,2,1.3,3.2,1.4v1H3v1h5v-1H6v-1c2.8-0.2,5-2.6,5-5.6V6H10z"/>
	<rect x="4" y="5" fill="#1F2022" width="3" height="1"/>
	<rect x="4" y="7" fill="#1F2022" width="3" height="1"/>
</g>
</svg>
