<?xml version="1.0" encoding="utf-8"?>
<!-- Generator: Adobe Illustrator 24.0.0, SVG Export Plug-In . SVG Version: 6.00 Build 0)  -->
<svg version="1.1" id="图层_3" xmlns="http://www.w3.org/2000/svg" xmlns:xlink="http://www.w3.org/1999/xlink" x="0px" y="0px"
	 viewBox="0 0 16 16" enable-background="new 0 0 16 16" xml:space="preserve">
<g opacity="0.75">
	<g>
		<path fill="#1F2022" d="M11.5,10c1.4,0,2.5,1.1,2.5,2.5v1.2c0,0.7-0.6,1.3-1.3,1.3H3.3C2.6,15,2,14.4,2,13.7v-1.2
			C2,11.1,3.1,10,4.5,10H11.5 M11.5,9h-7C2.6,9,1,10.6,1,12.5v1.2C1,15,2,16,3.3,16h9.4c1.3,0,2.3-1,2.3-2.3v-1.2
			C15,10.6,13.4,9,11.5,9L11.5,9z"/>
	</g>
	<path fill="#1F2022" d="M8,8C5.8,8,4,6.2,4,4s1.8-4,4-4c2.2,0,4,1.8,4,4S10.2,8,8,8z M8,1C6.3,1,5,2.3,5,4s1.3,3,3,3s3-1.3,3-3
		S9.7,1,8,1z"/>
</g>
</svg>
