<?xml version="1.0" encoding="utf-8"?>
<!-- Generator: Adobe Illustrator 24.0.0, SVG Export Plug-In . SVG Version: 6.00 Build 0)  -->
<svg version="1.1" id="图层_2_1_" xmlns="http://www.w3.org/2000/svg" xmlns:xlink="http://www.w3.org/1999/xlink" x="0px"
	 y="0px" viewBox="0 0 16 16" enable-background="new 0 0 16 16" xml:space="preserve">
<g opacity="0.75">
	<path fill="#1F2022" d="M2,12c-0.6,0-1-0.4-1-1V5c0-0.6,0.4-1,1-1h4.3l0.8-1H2C0.9,3,0,3.9,0,5v6c0,1.1,0.9,2,2,2h2.8l0.4-1H2z"/>
	<polygon fill="#1F2022" points="7.5,7 10,1 3.5,9 7.5,9 5,15 11.5,7 	"/>
	<path fill="#1F2022" d="M15.5,5H15c0-1.1-0.9-2-2-2h-2.8L9.8,4H13c0.6,0,1,0.4,1,1v6c0,0.6-0.4,1-1,1H8.7l-0.8,1H13
		c1.1,0,2-0.9,2-2h0.5c0.3,0,0.5-0.2,0.5-0.5v-5C16,5.2,15.8,5,15.5,5z"/>
</g>
<g>
	<polygon fill="#EA9600" points="5.5,5 2,5 2,9.3 	"/>
	<polygon fill="#EA9600" points="6,10 2,10 2,11 5.6,11 	"/>
</g>
</svg>
