<?xml version="1.0" encoding="utf-8"?>
<!-- Generator: Adobe Illustrator 24.0.0, SVG Export Plug-In . SVG Version: 6.00 Build 0)  -->
<svg version="1.1" id="图层_2_1_" xmlns="http://www.w3.org/2000/svg" xmlns:xlink="http://www.w3.org/1999/xlink" x="0px"
	 y="0px" viewBox="0 0 16 16" enable-background="new 0 0 16 16" xml:space="preserve">
<path opacity="0.75" fill="#1F2022" d="M15.5,5H15c0-1.1-0.9-2-2-2H2C0.9,3,0,3.9,0,5v6c0,1.1,0.9,2,2,2h11c1.1,0,2-0.9,2-2h0.5
	c0.3,0,0.5-0.2,0.5-0.5v-5C16,5.2,15.8,5,15.5,5z M14,11c0,0.6-0.4,1-1,1H2c-0.6,0-1-0.4-1-1V5c0-0.6,0.4-1,1-1h11c0.6,0,1,0.4,1,1
	V11z"/>
<rect x="2" y="5" fill="#EA9600" width="3" height="6"/>
</svg>
