<?xml version="1.0" encoding="utf-8"?>
<!-- Generator: Adobe Illustrator 24.0.0, SVG Export Plug-In . SVG Version: 6.00 Build 0)  -->
<svg version="1.1" id="图层_2_1_" xmlns="http://www.w3.org/2000/svg" xmlns:xlink="http://www.w3.org/1999/xlink" x="0px"
	 y="0px" viewBox="0 0 16 16" style="enable-background:new 0 0 16 16;" xml:space="preserve">
<style type="text/css">
	.st0{opacity:0.35;}
	.st1{fill:#1F2022;enable-background:new    ;}
	.st2{display:none;opacity:0.75;fill:#1F2022;enable-background:new    ;}
	.st3{opacity:0.75;fill:none;stroke:#1F2022;stroke-linecap:round;stroke-miterlimit:10;}
</style>
<g class="st0">
	<path class="st1" d="M8,5.9V1.8l3.7,2.3L8.6,6.5l0.7,0.7l3-2.3c0.5-0.4,0.5-1.3-0.1-1.6L8.5,1C8.4,0.9,8.2,0.8,8,0.8
		c-0.5,0-1,0.4-1,1v3.1L8,5.9z"/>
	<path class="st1" d="M6.2,8.4l-3.9,3.1C2.1,11.7,2,12,2.2,12.2c0.1,0.1,0.2,0.2,0.4,0.2c0.1,0,0.2,0,0.3-0.1L7,9.1L6.2,8.4z"/>
	<path class="st1" d="M10.5,12.6L8,14.2v-4.1l-1-1v5.1c0,0.6,0.5,1,1,1c0.2,0,0.4,0,0.5-0.2l2.7-1.7L10.5,12.6z"/>
</g>
<rect x="7.5" y="-1.2" transform="matrix(0.7071 -0.7071 0.7071 0.7071 -3.3126 8.0026)" class="st2" width="1" height="18.4"/>
<line class="st3" x1="2" y1="2" x2="14" y2="14"/>
</svg>
