<?xml version="1.0" encoding="utf-8"?>
<!-- Generator: Adobe Illustrator 24.0.0, SVG Export Plug-In . SVG Version: 6.00 Build 0)  -->
<svg version="1.1" id="图层_1" xmlns="http://www.w3.org/2000/svg" xmlns:xlink="http://www.w3.org/1999/xlink" x="0px" y="0px"
	 viewBox="0 0 16 16" style="enable-background:new 0 0 16 16;" xml:space="preserve">
<style type="text/css">
	.st0{fill:#DA1636;}
	.st1{fill:#FFFFFF;}
</style>
<g id="ukui-dialog-error">
	<circle class="st0" cx="8" cy="8" r="8"/>
	<path class="st1" d="M8.7,8l3.6-3.6c0.2-0.2,0.2-0.5,0-0.7s-0.5-0.2-0.7,0L8,7.3L4.4,3.6c-0.2-0.2-0.5-0.2-0.7,0s-0.2,0.5,0,0.7
		L7.3,8l-3.6,3.6c-0.2,0.2-0.2,0.5,0,0.7c0.1,0.1,0.2,0.1,0.4,0.1s0.3,0,0.4-0.1L8,8.7l3.6,3.6c0.1,0.1,0.2,0.1,0.4,0.1
		s0.3,0,0.4-0.1c0.2-0.2,0.2-0.5,0-0.7L8.7,8z"/>
</g>
</svg>
