<?xml version="1.0" encoding="utf-8"?>
<!-- Generator: Adobe Illustrator 24.0.0, SVG Export Plug-In . SVG Version: 6.00 Build 0)  -->
<svg version="1.1" id="图层_1" xmlns="http://www.w3.org/2000/svg" xmlns:xlink="http://www.w3.org/1999/xlink" x="0px" y="0px"
	 viewBox="0 0 16 16" style="enable-background:new 0 0 16 16;" xml:space="preserve">
<style type="text/css">
	.st0{fill:#3D6BE5;}
	.st1{fill:#FFFFFF;}
</style>
<g id="ukui-dialog-help">
	<circle class="st0" cx="8" cy="8" r="8"/>
	<circle class="st1" cx="7.5" cy="11.8" r="0.8"/>
	<path class="st1" d="M7.5,10C7.2,10,7,9.8,7,9.5C7,8.3,7.7,7.6,8.2,7C8.6,6.6,9,6.2,9,5.5C9,4.7,8.3,4,7.5,4S6,4.7,6,5.5
		C6,5.8,5.8,6,5.5,6S5,5.8,5,5.5C5,4.1,6.1,3,7.5,3C8.9,3,10,4.1,10,5.5c0,1.1-0.6,1.7-1.1,2.2C8.4,8.2,8,8.7,8,9.5
		C8,9.8,7.8,10,7.5,10z"/>
</g>
</svg>
