<?xml version="1.0" encoding="utf-8"?>
<!-- Generator: Adobe Illustrator 25.0.0, SVG Export Plug-In . SVG Version: 6.00 Build 0)  -->
<svg version="1.1"
	 id="svg7384" xmlns:cc="http://creativecommons.org/ns#" xmlns:dc="http://purl.org/dc/elements/1.1/" xmlns:inkscape="http://www.inkscape.org/namespaces/inkscape" xmlns:rdf="http://www.w3.org/1999/02/22-rdf-syntax-ns#" xmlns:sodipodi="http://sodipodi.sourceforge.net/DTD/sodipodi-0.dtd" xmlns:svg="http://www.w3.org/2000/svg"
	 xmlns="http://www.w3.org/2000/svg" xmlns:xlink="http://www.w3.org/1999/xlink" x="0px" y="0px" viewBox="0 0 16 16"
	 style="enable-background:new 0 0 16 16;" xml:space="preserve">
<style type="text/css">
	.st0{opacity:0.75;}
	.st1{fill:#1F2022;}
</style>
<sodipodi:namedview  bordercolor="#666666" borderopacity="1" gridtolerance="10" guidetolerance="10" id="namedview88" inkscape:bbox-nodes="false" inkscape:bbox-paths="true" inkscape:current-layer="layer9" inkscape:cx="464.57357" inkscape:cy="-192.42645" inkscape:guide-bbox="true" inkscape:object-nodes="false" inkscape:object-paths="false" inkscape:pageopacity="1" inkscape:pageshadow="2" inkscape:snap-bbox="true" inkscape:snap-bbox-midpoints="false" inkscape:snap-global="true" inkscape:snap-grids="true" inkscape:snap-nodes="true" inkscape:snap-others="false" inkscape:snap-to-guides="true" inkscape:window-height="702" inkscape:window-maximized="1" inkscape:window-width="1366" inkscape:window-x="0" inkscape:window-y="27" inkscape:zoom="1" objecttolerance="10" pagecolor="#3a3b39" showborder="false" showgrid="false" showguides="true">
	
		<inkscape:grid  empspacing="2" enabled="true" id="grid4866" originx="100.00025px" originy="60.000001px" snapvisiblegridlinesonly="true" spacingx="1px" spacingy="1px" type="xygrid" visible="true">
		</inkscape:grid>
	
		<inkscape:grid  color="#000000" empcolor="#000000" empopacity="0" empspacing="4" enabled="true" id="grid5968" opacity="0.1254902" originx="100.00025px" originy="60.000001px" snapvisiblegridlinesonly="true" spacingx="0.5px" spacingy="0.5px" type="xygrid" visible="true">
		</inkscape:grid>
</sodipodi:namedview>
<g id="layer10" transform="translate(-140.99995,-277)" inkscape:groupmode="layer" inkscape:label="devices">
</g>
<g id="layer11" transform="translate(-140.99995,-277)" inkscape:groupmode="layer" inkscape:label="apps">
</g>
<g id="layer13" transform="translate(-140.99995,-277)" inkscape:groupmode="layer" inkscape:label="places">
</g>
<g id="layer14" transform="translate(-140.99995,-277)" inkscape:groupmode="layer" inkscape:label="mimetypes">
</g>
<g id="layer15" transform="translate(-140.99995,-277)" inkscape:groupmode="layer" inkscape:label="emblems">
</g>
<g id="g71291" transform="translate(-140.99995,-277)" inkscape:groupmode="layer" inkscape:label="emotes">
</g>
<g id="g4953" transform="translate(-140.99995,-277)" inkscape:groupmode="layer" inkscape:label="categories">
</g>
<g class="st0">
	<g id="layer9" transform="translate(-140.99995,-277)" inkscape:groupmode="layer" inkscape:label="status">
		<path id="path10497" inkscape:connector-curvature="0" class="st1" d="M146.8,286c-0.5,0.1-0.9,0.6-0.8,1.2c0,0.2,0.1,0.4,0.3,0.6
			l1.3,1.3l-1.3,1.3c-0.4,0.4-0.4,1,0,1.4s1,0.4,1.4,0l2-2l0.7-0.7l-0.7-0.7l-2-2C147.5,286,147.1,285.9,146.8,286z"/>
		<path id="path10499" inkscape:connector-curvature="0" sodipodi:nodetypes="cssccsscccssssccsssscc" class="st1" d="M156,286v1
			c0,1.6-1.4,3-3,3h-1v-2h1c0.6,0,1-0.4,1-1v-1H156z M148,282h-3c-0.6,0-1,0.4-1,1v4c0,0.6,0.4,1,1,1h4v2h-4c-1.6,0-3-1.4-3-3v-4
			c0-1.6,1.4-3,3-3h3V282z"/>
		<rect id="rect10501" x="146" y="286" class="st1" width="1" height="1"/>
		<rect id="rect10503" x="146" y="291" class="st1" width="1" height="1"/>
		<path id="path10505" inkscape:connector-curvature="0" sodipodi:nodetypes="ssssscccccccc" class="st1" d="M153,277
			c-2.2,0-4,1.8-4,4s1.8,4,4,4s4-1.8,4-4S155.2,277,153,277z M152,279h2v4h-2v-2h-1v-1L152,279z"/>
	</g>
	<g id="layer12" transform="translate(-140.99995,-277)" inkscape:groupmode="layer" inkscape:label="actions">
	</g>
</g>
</svg>
