<?xml version="1.0" encoding="utf-8"?>
<!-- Generator: Adobe Illustrator 23.0.1, SVG Export Plug-In . SVG Version: 6.00 Build 0)  -->
<svg version="1.1" id="图层_2_1_" xmlns="http://www.w3.org/2000/svg" xmlns:xlink="http://www.w3.org/1999/xlink" x="0px"
	 y="0px" viewBox="0 0 16 16" style="enable-background:new 0 0 16 16;" xml:space="preserve">
<style type="text/css">
	.st0{fill:none;stroke:#E9572A;stroke-linecap:round;stroke-miterlimit:10;}
	.st1{fill:#E9572A;}
	.st2{opacity:0.75;}
	.st3{fill:#1F2022;}
</style>
<g id="图层_2_2_">
	<line class="st0" x1="10.5" y1="10.5" x2="13.5" y2="13.5"/>
	<line class="st0" x1="13.5" y1="10.5" x2="10.5" y2="13.5"/>
	<path class="st1" d="M12,16c-2.2,0-4-1.8-4-4s1.8-4,4-4s4,1.8,4,4S14.2,16,12,16z M12,8.9c-1.7,0-3.1,1.4-3.1,3.1s1.4,3.1,3.1,3.1
		s3.1-1.4,3.1-3.1S13.7,8.9,12,8.9z"/>
</g>
<g id="有线网络" class="st2">
	<path class="st3" d="M1,6c0-0.6,0.4-1,1-1h8V4H2C0.9,4,0,4.9,0,6v5c0,1.1,0.9,2,2,2h5v2H4v1h4v-1l0,0v-2l0,0v-1H2c-0.6,0-1-0.4-1-1
		V6z"/>
	<rect x="13" y="4" class="st3" width="1" height="1"/>
	<path class="st3" d="M14,7c1.1,0,2-0.9,2-2V4V3V2V1h-5v1v1v1v1c0,1.1,0.9,2,2,2 M15,5c0,0.6-0.4,1-1,1h-1c-0.6,0-1-0.4-1-1V4h3V5z
		 M15,3h-3V2h3V3z"/>
</g>
</svg>
