<?xml version="1.0" encoding="utf-8"?>
<!-- Generator: Adobe Illustrator 23.0.1, SVG Export Plug-In . SVG Version: 6.00 Build 0)  -->
<svg version="1.1" id="有线网络" xmlns="http://www.w3.org/2000/svg" xmlns:xlink="http://www.w3.org/1999/xlink" x="0px"
	 y="0px" viewBox="0 0 16 16" style="enable-background:new 0 0 16 16;" xml:space="preserve">
<style type="text/css">
	.st0{opacity:0.75;}
	.st1{fill:#1F2022;}
</style>
<g class="st0">
	<path class="st1" d="M1,6c0-0.6,0.4-1,1-1h8V4H2C0.9,4,0,4.9,0,6v5c0,1.1,0.9,2,2,2h5v2H4v1h7v-1H8v-2h4v-1H2c-0.6,0-1-0.4-1-1V6z"
		/>
	<rect x="13" y="4" class="st1" width="1" height="1"/>
	<path class="st1" d="M11,1v1v1v1v1c0,1.1,0.9,2,2,2v9h1V7c1.1,0,2-0.9,2-2V4V3V2V1H11z M15,5c0,0.6-0.4,1-1,1h-1c-0.6,0-1-0.4-1-1
		V4h3V5z M15,3h-3V2h3V3z"/>
</g>
</svg>
