<?xml version="1.0" encoding="utf-8"?>
<!-- Generator: Adobe Illustrator 24.0.0, SVG Export Plug-In . SVG Version: 6.00 Build 0)  -->
<svg version="1.1" id="图层_1" xmlns="http://www.w3.org/2000/svg" xmlns:xlink="http://www.w3.org/1999/xlink" x="0px" y="0px"
	 viewBox="0 0 16 16" style="enable-background:new 0 0 16 16;" xml:space="preserve">
<style type="text/css">
	.st0{opacity:0.75;}
	.st1{fill:#1F2022;}
</style>
<g id="图层_3" class="st0">
	<path class="st1" d="M6,15.7c0,0-0.1,0-0.1,0C2.5,14.8,0,11.6,0,8c0-0.3,0.2-0.5,0.5-0.5S1,7.7,1,8c0,3.1,2.2,6,5.1,6.7
		c0.3,0.1,0.4,0.3,0.4,0.6C6.4,15.5,6.2,15.7,6,15.7z"/>
	<path class="st1" d="M10,15.7c-0.2,0-0.4-0.1-0.5-0.4c-0.1-0.3,0.1-0.5,0.3-0.6c3-0.9,5.1-3.6,5.1-6.7c0-0.3,0.2-0.5,0.5-0.5
		S16,7.7,16,8c0,3.6-2.4,6.7-5.9,7.7C10.1,15.7,10,15.7,10,15.7z"/>
	<path class="st1" d="M14.9,5.5c-0.2,0-0.4-0.1-0.5-0.3C13.3,2.6,10.8,1,8,1S2.7,2.6,1.6,5.2C1.4,5.5,1.2,5.6,0.9,5.5
		C0.6,5.3,0.5,5,0.6,4.8C2,1.8,4.8,0,8,0c3.2,0,6,1.8,7.4,4.8c0.1,0.3,0,0.5-0.3,0.7C15,5.5,15,5.5,14.9,5.5z"/>
</g>
</svg>
