<?xml version="1.0" encoding="utf-8"?>
<!-- Generator: Adobe Illustrator 24.0.0, SVG Export Plug-In . SVG Version: 6.00 Build 0)  -->
<svg version="1.1" id="图层_1" xmlns="http://www.w3.org/2000/svg" xmlns:xlink="http://www.w3.org/1999/xlink" x="0px" y="0px"
	 viewBox="0 0 16 16" style="enable-background:new 0 0 16 16;" xml:space="preserve">
<style type="text/css">
	.st0{opacity:0.75;}
	.st1{fill:#1F2022;}
</style>
<g class="st0">
	<g id="图层_3">
		<path class="st1" d="M8,16c-4.4,0-8-3.6-8-8s3.6-8,8-8s8,3.6,8,8S12.4,16,8,16z M8,1C4.1,1,1,4.1,1,8c0,3.9,3.1,7,7,7
			c3.9,0,7-3.1,7-7C15,4.1,11.9,1,8,1z"/>
	</g>
	<g id="图层_4">
		<path class="st1" d="M8,12c-0.1,0-0.2,0-0.3-0.1l-3.5-3C4,8.7,3.9,8.4,4.1,8.2C4.3,8,4.6,7.9,4.8,8.1l3,2.6l3.7-6.5
			C11.7,4,12,3.9,12.2,4.1c0.2,0.1,0.3,0.4,0.2,0.7l-4,7C8.4,11.9,8.2,12,8,12C8.1,12,8,12,8,12z"/>
	</g>
</g>
</svg>
