<?xml version="1.0" encoding="utf-8"?>
<!-- Generator: Adobe Illustrator 24.0.0, SVG Export Plug-In . SVG Version: 6.00 Build 0)  -->
<svg version="1.1" id="图层_174" xmlns="http://www.w3.org/2000/svg" xmlns:xlink="http://www.w3.org/1999/xlink" x="0px" y="0px"
	 viewBox="0 0 16 16" style="enable-background:new 0 0 16 16;" xml:space="preserve">
<style type="text/css">
	.st0{opacity:0.75;fill:#1F2022;enable-background:new    ;}
</style>
<title>software-update-urgent</title>
<path class="st0" d="M7,15.5c0,0-0.1,0-0.1,0c-0.2,0-0.3-0.2-0.4-0.4l-0.7-2.4l-3.7,0.9c-0.2,0-0.5-0.1-0.6-0.3s-0.1-0.5,0.1-0.6
	l2.8-2.4L1.8,8.7C1.6,8.6,1.5,8.5,1.5,8.3c0-0.2,0.1-0.4,0.3-0.4l2-0.8L2.4,4.7c-0.1-0.2-0.1-0.4,0-0.6s0.3-0.2,0.5-0.2l2.9,0.8
	l0.7-3.4C6.6,1.2,6.7,1,6.9,1c0.2,0,0.4,0.1,0.5,0.2l1.5,2.5L13.5,2c0.2-0.1,0.4,0,0.5,0.1c0.1,0.1,0.2,0.4,0.1,0.5l-1.5,3.4L14,6.9
	c0.2,0.1,0.2,0.3,0.2,0.4S14.1,7.6,14,7.7l-1.1,0.6l1.9,1.4C15,9.9,15,10.2,15,10.4c-0.1,0.2-0.3,0.3-0.5,0.3h-2.7l0.7,4.2
	c0,0.2,0,0.4-0.2,0.5c-0.2,0.1-0.4,0.1-0.5,0l-2.9-1.7l-1.4,1.6C7.3,15.4,7.1,15.5,7,15.5z M8.7,12.6c0.1,0,0.2,0,0.3,0.1l2.4,1.4
	l-0.6-3.8c0-0.1,0-0.3,0.1-0.4c0.1-0.1,0.2-0.2,0.4-0.2H13l-1.3-1c-0.1-0.1-0.2-0.3-0.2-0.4c0-0.2,0.1-0.3,0.2-0.4l1-0.6l-1-0.6
	c-0.2-0.1-0.3-0.4-0.2-0.6l1.2-2.7L8.9,4.9C8.7,5,8.4,4.9,8.3,4.7l-1-1.8L6.7,5.5c0,0.1-0.1,0.3-0.2,0.3C6.3,5.9,6.2,5.9,6.1,5.9
	L3.9,5.2L4.9,7C5,7.2,5,7.3,5,7.5c0,0.1-0.2,0.2-0.3,0.3L3.1,8.4l2.4,1.4c0.1,0.1,0.2,0.2,0.2,0.4c0,0.2,0,0.3-0.2,0.4l-1.8,1.6
	l2.2-0.5c0.3-0.1,0.5,0.1,0.6,0.4l0.6,2l1.1-1.2C8.4,12.7,8.6,12.6,8.7,12.6z"/>
</svg>
