<?xml version="1.0" encoding="utf-8"?>
<!-- Generator: Adobe Illustrator 24.0.0, SVG Export Plug-In . SVG Version: 6.00 Build 0)  -->
<svg version="1.1" id="五角星" xmlns="http://www.w3.org/2000/svg" xmlns:xlink="http://www.w3.org/1999/xlink" x="0px" y="0px"
	 viewBox="0 0 16 16" style="enable-background:new 0 0 16 16;" xml:space="preserve">
<style type="text/css">
	.st0{opacity:0.75;fill:#1F2022;enable-background:new    ;}
</style>
<path class="st0" d="M4.1,15.3c-0.1,0-0.2,0-0.2,0c-0.2-0.1-0.4-0.3-0.4-0.6l0-0.1l1-4.7l-3.9-3V6.7C0.7,6,1.2,6,1.3,6h4.6l1.5-4.8
	c0.1-0.3,0.3-0.5,0.7-0.5h0.4l1.8,5.2h4.3c0.3,0,0.5,0.2,0.6,0.4c0.1,0.2,0,0.5-0.1,0.7l-3.5,2.9l1.1,4.9c0,0.3-0.2,0.5-0.4,0.6
	c-0.2,0.1-0.5,0-0.7-0.1L8,12.6l-3.5,2.6C4.4,15.3,4.3,15.3,4.1,15.3z M3.9,14.4C3.9,14.4,3.9,14.4,3.9,14.4L3.9,14.4z M12.2,14.4
	L12.2,14.4C12.2,14.4,12.2,14.4,12.2,14.4z M7.7,11.5h0.4l3.2,2.3l-0.9-4.2V9.4l3-2.5H10c-0.3,0-0.5-0.2-0.6-0.5L8,2.5L6.7,6.7
	L6.4,7h-4l3.2,2.5l0,0.5l-0.9,3.9L7.7,11.5z"/>
</svg>
