<svg id="headset" xmlns="http://www.w3.org/2000/svg" width="48" height="48" viewBox="0 0 48 48">
  <defs>
    <style>
      .cls-1, .cls-2 {
        fill: #fff;
      }

      .cls-1 {
        opacity: 0;
      }
    </style>
  </defs>
  <rect id="background" class="cls-1" width="48" height="48"/>
  <g id="icon-headset">
    <path id="路径_11" data-name="路径 11" class="cls-2" d="M24.947,30.662H22.319c-.158,0-.313.012-.468.024a14.07,14.07,0,0,1,27.588-3.178,1.06,1.06,0,0,0,1.3.734,1.05,1.05,0,0,0,.74-1.293,16.191,16.191,0,0,0-31.766,4.267v.005A6.26,6.26,0,0,0,16,36.928v5.128a6.293,6.293,0,0,0,6.319,6.266h2.627a1.689,1.689,0,0,0,1.7-1.682v-14.3A1.689,1.689,0,0,0,24.947,30.662Zm-.424,15.557h-2.2a4.186,4.186,0,0,1-4.2-4.163V36.928a4.186,4.186,0,0,1,4.2-4.163h2.2Z" transform="translate(-12 -11.181)"/>
    <path id="路径_12" data-name="路径 12" class="cls-2" d="M72.558,52H69.965a1.678,1.678,0,0,0-1.674,1.682v14.3a1.674,1.674,0,0,0,.333,1v1.534c0,1.593-2.067,1.673-2.481,1.673H62.618a3.365,3.365,0,1,0-.222,2.1h3.746c2.735,0,4.573-1.517,4.573-3.775v-.85h1.842A6.251,6.251,0,0,0,78.8,63.394V58.266A6.251,6.251,0,0,0,72.558,52ZM59.348,74.161A1.261,1.261,0,1,1,60.6,72.9,1.26,1.26,0,0,1,59.348,74.161ZM76.7,63.394a4.158,4.158,0,0,1-4.144,4.163H70.383V54.1h2.175A4.158,4.158,0,0,1,76.7,58.266Z" transform="translate(-34.795 -32.176)"/>
  </g>
</svg>
