<?xml version="1.0" encoding="utf-8"?>
<!-- Generator: Adobe Illustrator 24.0.0, SVG Export Plug-In . SVG Version: 6.00 Build 0)  -->
<svg version="1.1" id="图层_2_1_" xmlns="http://www.w3.org/2000/svg" xmlns:xlink="http://www.w3.org/1999/xlink" x="0px"
	 y="0px" viewBox="0 0 16 16" style="enable-background:new 0 0 16 16;" xml:space="preserve">
<style type="text/css">
	.st0{opacity:0.75;}
	.st1{fill:#1F2022;}
	.st2{opacity:0.75;fill:#1F2022;enable-background:new    ;}
</style>
<g class="st0">
	<path class="st1" d="M8,8C5.8,8,4,6.2,4,4s1.8-4,4-4c2.2,0,4,1.8,4,4S10.2,8,8,8z M8,1C6.3,1,5,2.3,5,4s1.3,3,3,3s3-1.3,3-3
		S9.7,1,8,1z"/>
	<path class="st1" d="M9.5,16H3.3C2,16,1,15,1,13.7v-1.2C1,10.5,2.5,9,4.5,9h6C10.8,9,11,9.2,11,9.5S10.8,10,10.5,10h-6
		C3.1,10,2,11.1,2,12.5v1.2C2,14.4,2.6,15,3.3,15h6.2c0.3,0,0.5,0.2,0.5,0.5S9.8,16,9.5,16z"/>
</g>
<path class="st2" d="M13,10c-1.7,0-3,1.3-3,3s1.3,3,3,3s3-1.3,3-3S14.7,10,13,10z M15,13c0,0.4-0.1,0.8-0.4,1.1l-2.8-2.7
	c0.3-0.2,0.7-0.4,1.2-0.4C14.1,11,15,11.9,15,13z M11,13c0-0.3,0.1-0.6,0.2-0.8l2.7,2.6C13.6,14.9,13.3,15,13,15
	C11.9,15,11,14.1,11,13z"/>
</svg>
