<?xml version="1.0" encoding="utf-8"?>
<!-- Generator: Adobe Illustrator 24.0.0, SVG Export Plug-In . SVG Version: 6.00 Build 0)  -->
<svg version="1.1" id="图层_2_1_" xmlns="http://www.w3.org/2000/svg" xmlns:xlink="http://www.w3.org/1999/xlink" x="0px"
	 y="0px" viewBox="0 0 16 16" style="enable-background:new 0 0 16 16;" xml:space="preserve">
<style type="text/css">
	.st0{opacity:0.75;}
	.st1{fill:#1F2022;}
</style>
<g class="st0">
	<path class="st1" d="M8,8c2.2,0,4-1.8,4-4s-1.8-4-4-4C5.8,0,4,1.8,4,4S5.8,8,8,8z M8,1c1.7,0,3,1.3,3,3S9.7,7,8,7S5,5.7,5,4
		S6.3,1,8,1z"/>
	<path class="st1" d="M10.5,15H3.3C2.6,15,2,14.4,2,13.7v-1.2C2,11.1,3.1,10,4.5,10h7c0.3,0,0.5-0.2,0.5-0.5S11.8,9,11.5,9h-7
		C2.5,9,1,10.5,1,12.5v1.2C1,15,2,16,3.3,16h7.2c0.3,0,0.5-0.2,0.5-0.5S10.8,15,10.5,15z"/>
	<path class="st1" d="M14.2,13.5l1.6-1.6c0.2-0.2,0.2-0.5,0-0.7s-0.5-0.2-0.7,0l-1.6,1.6l-1.6-1.6c-0.2-0.2-0.5-0.2-0.7,0
		s-0.2,0.5,0,0.7l1.6,1.6l-1.6,1.6C11,15.2,11,15.4,11,15.5s0,0.3,0.1,0.4s0.2,0.1,0.4,0.1s0.3,0,0.4-0.1l1.6-1.6l1.6,1.6
		c0.1,0.1,0.2,0.1,0.4,0.1s0.3,0,0.4-0.1c0.2-0.2,0.2-0.5,0-0.7L14.2,13.5z"/>
</g>
</svg>
