<?xml version="1.0" encoding="utf-8"?>
<!-- Generator: Adobe Illustrator 24.0.0, SVG Export Plug-In . SVG Version: 6.00 Build 0)  -->
<svg version="1.1" id="图层_2_1_" xmlns="http://www.w3.org/2000/svg" xmlns:xlink="http://www.w3.org/1999/xlink" x="0px"
	 y="0px" viewBox="0 0 16 16" style="enable-background:new 0 0 16 16;" xml:space="preserve">
<style type="text/css">
	.st0{opacity:0.75;}
	.st1{fill:#1F2022;}
</style>
<g class="st0">
	<path class="st1" d="M8,8C5.8,8,4,6.2,4,4s1.8-4,4-4c2.2,0,4,1.8,4,4S10.2,8,8,8z M8,1C6.3,1,5,2.3,5,4s1.3,3,3,3s3-1.3,3-3
		S9.7,1,8,1z"/>
	<path class="st1" d="M10.5,16H3.3C2,16,1,15,1,13.7v-1.2C1,10.5,2.5,9,4.5,9h7C11.8,9,12,9.2,12,9.5S11.8,10,11.5,10h-7
		C3.1,10,2,11.1,2,12.5v1.2C2,14.4,2.6,15,3.3,15h7.2c0.3,0,0.5,0.2,0.5,0.5S10.8,16,10.5,16z"/>
</g>
<g id="图层_1_1_" class="st0">
	<g id="用户">
		<rect x="11" y="14" class="st1" width="5" height="1"/>
		<rect x="11" y="12" class="st1" width="5" height="1"/>
	</g>
</g>
</svg>
