<?xml version="1.0" encoding="utf-8"?>
<!-- Generator: Adobe Illustrator 24.0.0, SVG Export Plug-In . SVG Version: 6.00 Build 0)  -->
<svg version="1.1" id="图层_2_1_" xmlns="http://www.w3.org/2000/svg" xmlns:xlink="http://www.w3.org/1999/xlink" x="0px"
	 y="0px" viewBox="0 0 16 16" style="enable-background:new 0 0 16 16;" xml:space="preserve">
<style type="text/css">
	.st0{opacity:0.75;fill:#1F2022;enable-background:new    ;}
</style>
<path class="st0" d="M8,16c-2.2,0-4.1-0.8-5.7-2.3c-0.1-0.1-0.2-0.3-0.1-0.5c0-0.2,0.2-0.3,0.4-0.4C5.8,12,8,9.2,8,6
	c0-1.9-0.7-3.6-2.1-4.9C5.8,0.9,5.8,0.7,5.8,0.5C5.9,0.4,6,0.2,6.2,0.2l0.2,0C7,0.1,7.4,0,8,0c4.4,0,8,3.6,8,8S12.4,16,8,16z
	 M3.7,13.5C4.9,14.5,6.4,15,8,15c3.8,0,7-3.2,7-7c0-3.8-3.2-7-7-7C7.8,1,7.5,1,7.3,1C8.4,2.5,9,4.2,9,6C9,9.4,6.9,12.4,3.7,13.5z"/>
</svg>
