<?xml version="1.0" encoding="utf-8"?>
<!-- Generator: Adobe Illustrator 24.0.0, SVG Export Plug-In . SVG Version: 6.00 Build 0)  -->
<svg version="1.1" id="图层_2_1_" xmlns="http://www.w3.org/2000/svg" xmlns:xlink="http://www.w3.org/1999/xlink" x="0px"
	 y="0px" viewBox="0 0 16 16" style="enable-background:new 0 0 16 16;" xml:space="preserve">
<style type="text/css">
	.st0{opacity:0.75;}
	.st1{fill:#1F2022;}
</style>
<g class="st0">
	<path class="st1" d="M8,5c1.7,0,3,1.3,3,3s-1.3,3-3,3S5,9.7,5,8S6.3,5,8,5 M8,4C5.8,4,4,5.8,4,8s1.8,4,4,4s4-1.8,4-4S10.2,4,8,4
		L8,4z"/>
	<path class="st1" d="M3.2,4.1c-0.1,0-0.3,0-0.4-0.1L1.5,2.7c-0.2-0.2-0.2-0.5,0-0.7s0.5-0.2,0.7,0l1.3,1.3c0.2,0.2,0.2,0.5,0,0.7
		C3.5,4.1,3.3,4.1,3.2,4.1z"/>
	<path class="st1" d="M12.8,4c-0.1,0-0.3-0.1-0.4-0.2c-0.2-0.2-0.2-0.5,0-0.7l1.3-1.2c0.2-0.2,0.5-0.2,0.7,0c0.2,0.2,0.2,0.5,0,0.7
		l-1.3,1.2C13,4,12.9,4,12.8,4z"/>
	<path class="st1" d="M1.9,13.5c-0.1,0-0.3,0-0.4-0.1c-0.2-0.2-0.2-0.5,0-0.7l1.3-1.3c0.2-0.2,0.5-0.2,0.7,0s0.2,0.5,0,0.7l-1.3,1.3
		C2.2,13.5,2,13.5,1.9,13.5z"/>
	<path class="st1" d="M14.1,13.5c-0.1,0-0.2,0-0.3-0.1l-1.3-1.2c-0.2-0.2-0.2-0.5,0-0.7c0.2-0.2,0.5-0.2,0.7,0l1.3,1.2
		c0.2,0.2,0.2,0.5,0,0.7C14.4,13.4,14.2,13.5,14.1,13.5z"/>
	<path class="st1" d="M7.5,2.6C7.2,2.6,7,2.4,7,2.1V0.5C7,0.2,7.2,0,7.5,0S8,0.2,8,0.5v1.6C8,2.4,7.8,2.6,7.5,2.6z"/>
	<path class="st1" d="M7.5,16C7.2,16,7,15.8,7,15.5v-1.6c0-0.3,0.2-0.5,0.5-0.5S8,13.6,8,13.9v1.6C8,15.8,7.8,16,7.5,16z"/>
	<path class="st1" d="M2.1,9H0.5C0.2,9,0,8.8,0,8.5S0.2,8,0.5,8h1.6c0.3,0,0.5,0.2,0.5,0.5S2.4,9,2.1,9z"/>
	<path class="st1" d="M15.5,9h-1.6c-0.3,0-0.5-0.2-0.5-0.5S13.6,8,13.9,8h1.6C15.8,8,16,8.2,16,8.5S15.8,9,15.5,9z"/>
</g>
</svg>
