<?xml version="1.0" encoding="utf-8"?>
<!-- Generator: Adobe Illustrator 24.0.0, SVG Export Plug-In . SVG Version: 6.00 Build 0)  -->
<svg version="1.1" id="云" xmlns="http://www.w3.org/2000/svg" xmlns:xlink="http://www.w3.org/1999/xlink" x="0px" y="0px"
	 viewBox="0 0 16 16" style="enable-background:new 0 0 16 16;" xml:space="preserve">
<style type="text/css">
	.st0{opacity:0.75;}
	.st1{fill:#1F2022;}
</style>
<g id="_16" class="st0">
	<path class="st1" d="M4,13c-1.2,0-2.4-0.4-3.7-1.1c-0.2-0.1-0.3-0.4-0.2-0.7c0.1-0.2,0.4-0.3,0.7-0.2C1.9,11.7,3,12,4,12
		c1.6,0,2.9-0.5,3.8-0.9c1.3-0.6,2.7-0.9,4.2-1.1c0,0,0,0,0,0c1.1,0,1.6,0.2,2.3,0.5c0.4,0.1,0.8,0.3,1.3,0.5
		c0.3,0.1,0.4,0.4,0.3,0.6c-0.1,0.3-0.4,0.4-0.6,0.3c-0.6-0.2-1-0.4-1.4-0.5C13.2,11.1,12.8,11,12,11c-1.4,0.1-2.6,0.4-3.8,1
		C7.3,12.4,5.7,13,4,13z"/>
	<path class="st1" d="M4,9C2.8,9,1.6,8.6,0.3,7.9C0,7.8-0.1,7.5,0.1,7.3C0.2,7,0.5,6.9,0.7,7.1C1.9,7.7,3,8,4,8
		c1.6,0,2.9-0.5,3.8-0.9C9.2,6.4,10.6,6,12,6c1,0,1.5,0.2,2.3,0.5c0.4,0.1,0.8,0.3,1.3,0.5c0.3,0.1,0.4,0.4,0.3,0.6
		c-0.1,0.3-0.4,0.4-0.6,0.3c-0.6-0.2-1-0.4-1.4-0.5C13.2,7.1,12.8,7,12,7c-1.6,0-2.9,0.5-3.8,0.9C7.3,8.4,5.7,9,4,9z"/>
	<path class="st1" d="M4,5C2.8,5,1.6,4.6,0.3,3.9C0,3.8-0.1,3.5,0.1,3.3C0.2,3,0.5,2.9,0.7,3.1C1.9,3.7,3,4,4,4
		c1.6,0,2.9-0.5,3.8-0.9C9.2,2.4,10.6,2,12,2c1.1,0.1,1.6,0.3,2.4,0.6c0.3,0.1,0.7,0.3,1.3,0.5c0.3,0.1,0.4,0.4,0.3,0.6
		c-0.1,0.3-0.4,0.4-0.6,0.3c-0.6-0.2-1-0.4-1.3-0.5c-0.7-0.3-1.1-0.4-2-0.5c-1.5,0-2.9,0.5-3.7,0.9C6.8,4.6,5.4,5,4,5z"/>
</g>
</svg>
