<?xml version="1.0" encoding="utf-8"?>
<!-- Generator: Adobe Illustrator 24.0.0, SVG Export Plug-In . SVG Version: 6.00 Build 0)  -->
<svg version="1.1" id="图层_1" xmlns="http://www.w3.org/2000/svg" xmlns:xlink="http://www.w3.org/1999/xlink" x="0px" y="0px"
	 viewBox="0 0 96 96" style="enable-background:new 0 0 96 96;" xml:space="preserve">
<style type="text/css">
	.st0{opacity:0.2;}
	.st1{opacity:8.000000e-02;}
	.st2{opacity:0.1;}
	.st3{fill:url(#SVGID_1_);}
	.st4{fill:url(#SVGID_2_);}
	.st5{fill:#FECF18;}
	.st6{fill:url(#SVGID_3_);}
	.st7{fill:url(#SVGID_4_);}
	.st8{fill:url(#SVGID_5_);}
	.st9{fill:url(#SVGID_6_);}
	.st10{fill:url(#SVGID_7_);}
	.st11{fill:url(#SVGID_8_);}
	.st12{fill:url(#SVGID_9_);}
	.st13{fill:url(#SVGID_10_);}
</style>
<g id="_96">
	<g class="st0">
		<path d="M47.5,92c-14.9,0-28-3.9-34.3-10.2S3,62.4,3,47.5s3.9-28,10.2-34.3S32.6,3,47.5,3s28,3.9,34.3,10.2S92,32.6,92,47.5
			s-3.9,28-10.2,34.3S62.4,92,47.5,92z"/>
	</g>
	<g class="st1">
		<path d="M49,95c-15.3,0-28.8-4.1-35.4-10.6S3,64.3,3,49s4.1-28.8,10.6-35.4S33.7,3,49,3s28.8,4.1,35.4,10.6S95,33.7,95,49
			s-4.1,28.8-10.6,35.4S64.3,95,49,95z"/>
	</g>
	<g class="st2">
		<path d="M49,93.5c-14.9,0-28-3.9-34.3-10.2S4.5,63.9,4.5,49s3.9-28,10.2-34.3S34.1,4.5,49,4.5s28,3.9,34.3,10.2S93.5,34.1,93.5,49
			s-3.9,28-10.2,34.3S63.9,93.5,49,93.5z"/>
	</g>
	<g id="_96-2">
		
			<linearGradient id="SVGID_1_" gradientUnits="userSpaceOnUse" x1="47.4912" y1="149.48" x2="47.4912" y2="235.4513" gradientTransform="matrix(1 0 0 -1 0 239.97)">
			<stop  offset="0" style="stop-color:#33ADF5"/>
			<stop  offset="1" style="stop-color:#2D99F3"/>
		</linearGradient>
		<path class="st3" d="M80.7,80.7c-13,13-53.5,13-66.5,0s-13-53.5,0-66.5s53.5-13,66.5,0S93.7,67.8,80.7,80.7z"/>
	</g>
	
		<linearGradient id="SVGID_2_" gradientUnits="userSpaceOnUse" x1="47.485" y1="152.51" x2="47.485" y2="232.45" gradientTransform="matrix(1 0 0 -1 0 239.97)">
		<stop  offset="0" style="stop-color:#2E9BF3"/>
		<stop  offset="1" style="stop-color:#1B89EE"/>
	</linearGradient>
	<path class="st4" d="M47.5,87.5c-13.7,0-25.6-3.4-31.1-8.8S7.5,61.2,7.5,47.5s3.4-25.6,8.9-31.1s17.4-8.9,31.1-8.9
		s25.6,3.4,31.1,8.9s8.8,17.4,8.8,31.1s-3.4,25.6-8.9,31.1S61.2,87.5,47.5,87.5z"/>
	<g id="_96-3">
		<path class="st5" d="M87.4,49.8c-0.9-1.5-1.9-2.9-3.1-4.1c-0.5-0.5-1.1-1-1.7-1.4L61,27.7l-2.1-5.7c-3.1-0.5-5.7,1.5-8.3,5.7
			c1-2.6,1-4.1-1.5-3.6c-2.5,0.5-5.7,0.5-9.3,1c-2.4,0.6-4.5,1.8-6.2,3.6c-5.5,3.2-9.4,3.2-12,6c-0.6,0.6-0.7,1.5-0.4,2.3
			c0.5,1.4,1.2,2.8,2.1,4c-0.5,3.6,1,6.7,3.6,9.8l-0.6,2.3c-0.3,1.2-0.1,2.4,0.5,3.4c0.7,1.3,1.6,2.5,2.6,3.6c2.1,2.6,3.1-1,7.2-1.5
			c4.1-0.5,7.2,1,8.8,1.5c1.6,0.5,9.8,1.5,9.8-7.2c0.5,4.1-0.5,8.2-4.1,12.9c2.1,2.6,3.1,4.6,3.1,6.2c0.5,2.1,0,6.2,1.5,10.8
			c0.5,1.4,1.1,2.7,1.8,4c9.3-1.2,16.9-4.2,21-8.2C83.8,73.4,87.1,62.5,87.4,49.8z"/>
		
			<linearGradient id="SVGID_3_" gradientUnits="userSpaceOnUse" x1="37.4" y1="65.3718" x2="43.53" y2="65.3718" gradientTransform="matrix(1 0 0 -1 0 98)">
			<stop  offset="0" style="stop-color:#FF4800;stop-opacity:0.5"/>
			<stop  offset="1" style="stop-color:#FCA510;stop-opacity:0.2"/>
		</linearGradient>
		<path class="st6" d="M37.4,31.1c1-0.3,2.1-0.3,3.1,0c1.4,0.5,2.5,1.6,3.1,3.1c-1,0.3-2.1,0.3-3.1,0C39,33.6,37.9,32.5,37.4,31.1z"
			/>
		<g>
			<linearGradient id="SVGID_4_" gradientUnits="userSpaceOnUse" x1="86.801" y1="87.743" x2="53.8481" y2="61.1972">
				<stop  offset="0" style="stop-color:#FCA504"/>
				<stop  offset="1" style="stop-color:#FCA506;stop-opacity:0"/>
			</linearGradient>
			<path class="st7" d="M80.1,76.9c-1.6-1.9-3.1-3.9-4.4-6c-6.4-10.7-5.3-18.7-12.3-24.5c-5.7-4.7-13.2-5-18.4-4.6
				C34.3,43.3,30.3,50,29.7,54c-0.3,2.2-0.3,4.2-0.1,6.3c2,2.3,3.1-1.2,7.1-1.7c4.1-0.5,7.2,1,8.8,1.5c1.6,0.5,9.8,1.5,9.8-7.2
				c0.5,4.1-0.5,8.2-4.1,12.9c2.1,2.6,3.1,4.6,3.1,6.2c0.5,2.1,0,6.2,1.5,10.8c0.5,1.4,1.1,2.7,1.8,4c9.3-1.2,16.9-4.2,21-8.2
				C79.1,78.1,79.6,77.5,80.1,76.9z"/>
			<linearGradient id="SVGID_5_" gradientUnits="userSpaceOnUse" x1="65.125" y1="89.4026" x2="58.4059" y2="40.2655">
				<stop  offset="0" style="stop-color:#FF4800;stop-opacity:0.5"/>
				<stop  offset="0.65" style="stop-color:#FCA510;stop-opacity:0.2"/>
			</linearGradient>
			<path class="st8" d="M71.1,70.8c-2.5-6.4-2.2-7.6-5.2-13.6c-2-4.3-5.6-7.7-10.1-9.4c-2.9-1.2-6.1-1.7-9.2-1.5
				c6.1,2.5,8.4,4.9,8.7,7.4c0-0.3,0-0.6,0-0.9c0.5,4.1-0.5,8.2-4.1,12.9c2.1,2.6,3.1,4.6,3.1,6.2c0.5,2.1,0,6.2,1.5,10.8
				c0.5,1.4,1.1,2.7,1.8,4c7.9-1,14.6-3.3,18.9-6.5C74.3,77.4,72.5,74.2,71.1,70.8z"/>
			<linearGradient id="SVGID_6_" gradientUnits="userSpaceOnUse" x1="56.0656" y1="22.7699" x2="57.3869" y2="39.2634">
				<stop  offset="0" style="stop-color:#FF4800;stop-opacity:0.5"/>
				<stop  offset="0.65" style="stop-color:#FCA510;stop-opacity:0.2"/>
			</linearGradient>
			<path class="st9" d="M60.8,27.2l-1.8-5.1c-0.8-0.1-1.6-0.1-2.3,0.1c0.3,0.9,0.6,1.8,0.7,2.8c0.6,5.9-3.9,10.1-4.6,10.7
				c1.7-0.7,3.3-1.7,4.6-3.1C57.3,32.7,58.4,31.5,60.8,27.2z"/>
		</g>
		<g>
			
				<linearGradient id="SVGID_7_" gradientUnits="userSpaceOnUse" x1="60.4" y1="30.97" x2="71.13" y2="30.97" gradientTransform="matrix(1 0 0 -1 0 98)">
				<stop  offset="0" style="stop-color:#0288D1"/>
				<stop  offset="1" style="stop-color:#4FC3F7"/>
			</linearGradient>
			<polygon class="st10" points="61.9,60.2 65,57.1 68.1,57.1 68.1,73.9 71.1,73.9 71.1,77 60.4,77 60.4,73.9 63.5,73.9 63.5,61.7 
				61.9,63.2 			"/>
			<linearGradient id="SVGID_8_" gradientUnits="userSpaceOnUse" x1="80.33" y1="70.9498" x2="84.5593" y2="70.9498">
				<stop  offset="0" style="stop-color:#0288D1"/>
				<stop  offset="1" style="stop-color:#4FC3F7"/>
			</linearGradient>
			<path class="st11" d="M84.6,67.8h-1.2l-3.1,3v3.1l1.5-1.5v1.7C82.9,72.3,83.8,70.1,84.6,67.8z"/>
			<linearGradient id="SVGID_9_" gradientUnits="userSpaceOnUse" x1="80.014" y1="55.0623" x2="86.4828" y2="55.0623">
				<stop  offset="0" style="stop-color:#0288D1"/>
				<stop  offset="1" style="stop-color:#4FC3F7"/>
			</linearGradient>
			<path class="st12" d="M84.8,49.6c0.2-0.4,0.6-0.8,1-1c0.2-0.1,0.5-0.2,0.7-0.2c-0.7-1-1.4-1.9-2.2-2.7c-0.1-0.1-0.3-0.2-0.4-0.4
				c-0.7,0.3-1.4,0.8-1.9,1.4c-0.7,0.9-1.2,2-1.5,3.2c-0.4,1.6-0.5,3.3-0.5,5c0,1.7,0.1,3.4,0.5,5c0.3,1.1,0.8,2.2,1.5,3.1
				c0.6,0.7,1.4,1.3,2.2,1.6c0.4,0.1,0.8,0.2,1.2,0.3c0.3-1.1,0.6-2.3,0.8-3.6c-0.1,0-0.3-0.1-0.4-0.1c-0.4-0.2-0.8-0.6-1-1
				c-0.3-0.6-0.5-1.3-0.5-2c-0.1-1.1-0.2-2.2-0.2-3.3c0-1.1,0-2.2,0.2-3.3C84.4,50.9,84.5,50.2,84.8,49.6z"/>
			<linearGradient id="SVGID_10_" gradientUnits="userSpaceOnUse" x1="62.2436" y1="83.7151" x2="72.9875" y2="83.7151">
				<stop  offset="0" style="stop-color:#0288D1"/>
				<stop  offset="1" style="stop-color:#4FC3F7"/>
			</linearGradient>
			<path class="st13" d="M63.5,83.4c-0.6,0.8-1,1.7-1.3,2.6C66.3,85.2,70,84,73,82.5c-0.4-0.3-0.8-0.5-1.2-0.6c-1.9-0.6-4-0.6-5.9,0
				C64.9,82.1,64.1,82.7,63.5,83.4z"/>
		</g>
	</g>
</g>
</svg>
