<svg xmlns="http://www.w3.org/2000/svg" xmlns:xlink="http://www.w3.org/1999/xlink" viewBox="0 0 96 96"><defs><style>.cls-1{opacity:0.2;}.cls-2{opacity:0.08;}.cls-3{opacity:0.1;}.cls-4{fill:url(#未命名的渐变_28);}.cls-5{fill:url(#未命名的渐变_7);}.cls-6{fill:#ff4e02;}.cls-7{fill:#ff7f00;}.cls-8{fill:#ffb200;}.cls-9{fill:#e6e501;}.cls-10{fill:#ffff4d;}.cls-11{fill:#ffff80;}.cls-12{fill:#fffeb3;}.cls-13{fill:#67b722;}.cls-14{fill:#80c31c;}.cls-15{fill:#99cf17;}.cls-16{fill:#b2db11;}.cls-17{fill:#cde70c;}.cls-18{fill:#4fbdd8;}.cls-19{fill:#67c5de;}.cls-20{fill:#81cfe3;}.cls-21{fill:#9ad9ea;}.cls-22{fill:#b2e2ee;}.cls-23{fill:#fe0000;}.cls-24{fill:#ec9923;}.cls-25{fill:#010101;}.cls-26{fill:#c8a063;}</style><linearGradient id="未命名的渐变_28" x1="4.52" y1="-94.47" x2="90.46" y2="-94.47" gradientTransform="translate(0 141.97)" gradientUnits="userSpaceOnUse"><stop offset="0" stop-color="#4646bd"/><stop offset="0.5" stop-color="#804bd1"/><stop offset="1" stop-color="#e84040"/></linearGradient><linearGradient id="未命名的渐变_7" x1="7.52" y1="-94.48" x2="87.45" y2="-94.48" gradientTransform="translate(0 141.97)" gradientUnits="userSpaceOnUse"><stop offset="0" stop-color="#373795"/><stop offset="0.5" stop-color="#7343bc"/><stop offset="1" stop-color="#c83737"/></linearGradient></defs><g id="图层_12" data-name="图层 12"><g id="accessories-painting"><g id="_96" data-name="96"><g id="浅灰色"><g id="_128" data-name=" 128"><g class="cls-1"><path d="M47.49,92c-14.89,0-28-3.9-34.31-10.18S3,62.38,3,47.49s3.9-28,10.18-34.31S32.61,3,47.49,3s28,3.9,34.31,10.18S92,32.61,92,47.49s-3.9,28-10.18,34.31S62.38,92,47.49,92Z"/></g><g class="cls-2"><path d="M49,95c-15.27,0-28.83-4.07-35.38-10.62S3,64.27,3,49,7.07,20.17,13.62,13.62,33.73,3,49,3,77.83,7.07,84.38,13.62,95,33.73,95,49,90.93,77.83,84.38,84.38,64.27,95,49,95Z"/></g><g class="cls-3"><path d="M49,93.49c-14.89,0-28-3.9-34.31-10.18S4.51,63.89,4.51,49s3.9-28,10.18-34.31S34.11,4.51,49,4.51s28,3.9,34.31,10.18S93.49,34.11,93.49,49s-3.9,28-10.18,34.31S63.89,93.49,49,93.49Z"/></g><g id="_128-2" data-name=" 128-2"><path class="cls-4" d="M80.74,80.74c-13,13-53.54,13-66.49,0s-13-53.54,0-66.49,53.54-13,66.49,0S93.72,67.75,80.74,80.74Z"/></g><path class="cls-5" d="M47.49,87.46c-13.73,0-25.64-3.39-31.11-8.85S7.52,61.22,7.52,47.49s3.39-25.64,8.85-31.11S33.76,7.52,47.49,7.52s25.64,3.39,31.11,8.85,8.85,17.38,8.85,31.11S84.06,73.12,78.6,78.59,61.22,87.46,47.49,87.46Z"/></g></g><g id="_96-2" data-name="96"><rect class="cls-6" x="21" y="32" width="11" height="11"/><rect class="cls-7" x="32" y="32" width="11" height="11"/><rect class="cls-8" x="43" y="32" width="11" height="11"/><rect class="cls-9" x="21" y="43" width="11" height="11"/><rect class="cls-10" x="32" y="43" width="11" height="11"/><rect class="cls-11" x="43" y="43" width="11" height="11"/><rect class="cls-12" x="54" y="43" width="11" height="11"/><rect class="cls-13" x="21" y="54" width="11" height="11"/><rect class="cls-14" x="32" y="54" width="11" height="11"/><rect class="cls-15" x="43" y="54" width="11" height="11"/><rect class="cls-16" x="54" y="54" width="11" height="11"/><rect class="cls-17" x="65" y="54" width="11" height="11"/><path class="cls-18" d="M21,65H32V76H27a6,6,0,0,1-6-6Z"/><rect class="cls-19" x="32" y="65" width="11" height="11"/><rect class="cls-20" x="43" y="65" width="11" height="11"/><rect class="cls-21" x="54" y="65" width="11" height="11"/><path class="cls-22" d="M65,65H76v5a6,6,0,0,1-6,6H65Z"/><rect class="cls-23" x="32" y="21" width="11" height="11"/><path class="cls-24" d="M53.26,57.58,47.63,54.2,66.82,22.47a2.36,2.36,0,0,1,3.24-.79l1.6,1a2.37,2.37,0,0,1,.8,3.24h0Z"/><polygon class="cls-25" points="45.89 61.67 47.48 62.6 45.05 64.91 45.89 61.67"/><polygon class="cls-26" points="47.67 54.2 53.26 57.58 47.48 62.6 45.89 61.67 47.67 54.2"/></g></g></g></g></svg>