<?xml version="1.0" encoding="utf-8"?>
<!-- Generator: Adobe Illustrator 24.0.0, SVG Export Plug-In . SVG Version: 6.00 Build 0)  -->
<svg version="1.1" id="图层_1" xmlns="http://www.w3.org/2000/svg" xmlns:xlink="http://www.w3.org/1999/xlink" x="0px" y="0px"
	 viewBox="0 0 96 96" style="enable-background:new 0 0 96 96;" xml:space="preserve">
<style type="text/css">
	.st0{opacity:0.2;}
	.st1{opacity:8.000000e-02;}
	.st2{opacity:0.1;}
	.st3{fill:url(#SVGID_1_);}
	.st4{fill:url(#SVGID_2_);}
	.st5{fill:none;stroke:url(#SVGID_3_);stroke-width:1.5;stroke-miterlimit:10;}
	.st6{fill:#02DED3;}
	.st7{fill:url(#SVGID_4_);}
	.st8{fill:url(#SVGID_5_);}
	.st9{fill:url(#SVGID_6_);}
	.st10{fill:url(#SVGID_7_);}
	.st11{opacity:0.7;fill:url(#SVGID_8_);enable-background:new    ;}
	.st12{opacity:0.7;fill:url(#SVGID_9_);enable-background:new    ;}
</style>
<g id="_128">
	<g class="st0">
		<path d="M47.5,92c-14.9,0-28-3.9-34.3-10.2S3,62.4,3,47.5s3.9-28,10.2-34.3S32.6,3,47.5,3s28,3.9,34.3,10.2S92,32.6,92,47.5
			s-3.9,28-10.2,34.3S62.4,92,47.5,92z"/>
	</g>
	<g class="st1">
		<path d="M49,95c-15.3,0-28.8-4.1-35.4-10.6S3,64.3,3,49s4.1-28.8,10.6-35.4S33.7,3,49,3s28.8,4.1,35.4,10.6S95,33.7,95,49
			s-4.1,28.8-10.6,35.4S64.3,95,49,95z"/>
	</g>
	<g class="st2">
		<path d="M49,93.5c-14.9,0-28-3.9-34.3-10.2S4.5,63.9,4.5,49s3.9-28,10.2-34.3S34.1,4.5,49,4.5s28,3.9,34.3,10.2S93.5,34.1,93.5,49
			s-3.9,28-10.2,34.3S63.9,93.5,49,93.5z"/>
	</g>
	<g id="_128-2">
		
			<linearGradient id="SVGID_1_" gradientUnits="userSpaceOnUse" x1="47.4912" y1="149.48" x2="47.4912" y2="235.4513" gradientTransform="matrix(1 0 0 -1 0 239.97)">
			<stop  offset="0" style="stop-color:#DAE1E4"/>
			<stop  offset="1" style="stop-color:#F3F4FA"/>
		</linearGradient>
		<path class="st3" d="M80.7,80.7c-13,13-53.5,13-66.5,0s-13-53.5,0-66.5s53.5-13,66.5,0S93.7,67.8,80.7,80.7z"/>
	</g>
	
		<linearGradient id="SVGID_2_" gradientUnits="userSpaceOnUse" x1="47.485" y1="152.51" x2="47.485" y2="232.45" gradientTransform="matrix(1 0 0 -1 0 239.97)">
		<stop  offset="0" style="stop-color:#CFD8DC"/>
		<stop  offset="1" style="stop-color:#EBECF2"/>
	</linearGradient>
	<path class="st4" d="M47.5,87.5c-13.7,0-25.6-3.4-31.1-8.8S7.5,61.2,7.5,47.5s3.4-25.6,8.9-31.1s17.4-8.9,31.1-8.9
		s25.6,3.4,31.1,8.9s8.8,17.4,8.8,31.1s-3.4,25.6-8.9,31.1S61.2,87.5,47.5,87.5z"/>
</g>
<g id="生物识别">
	<g id="_96-2">
		
			<radialGradient id="SVGID_3_" cx="48" cy="49.9938" r="27.7943" gradientTransform="matrix(1 0 0 -1 0 98)" gradientUnits="userSpaceOnUse">
			<stop  offset="0" style="stop-color:#00FAF0"/>
			<stop  offset="0.23" style="stop-color:#0085B7"/>
			<stop  offset="0.34" style="stop-color:#00C6D7"/>
			<stop  offset="0.43" style="stop-color:#00FFF2"/>
			<stop  offset="0.63" style="stop-color:#0093BE"/>
			<stop  offset="0.8" style="stop-color:#00EFEA"/>
			<stop  offset="0.83" style="stop-color:#00FFF2"/>
			<stop  offset="1" style="stop-color:#0097C0"/>
		</radialGradient>
		<polygon class="st5" points="48,21 21,34 21,61 48,75 75,61 75,34 		"/>
		<circle id="_6" class="st6" cx="21" cy="34" r="2"/>
		<circle id="_5" class="st6" cx="21" cy="61" r="2"/>
		<circle id="_4" class="st6" cx="48" cy="75" r="2"/>
		<circle id="_3" class="st6" cx="75" cy="61" r="2"/>
		<circle id="_2" class="st6" cx="75" cy="34" r="2"/>
		<circle id="_1" class="st6" cx="48" cy="21" r="2"/>
		
			<linearGradient id="SVGID_4_" gradientUnits="userSpaceOnUse" x1="48" y1="71.41" x2="48" y2="28.48" gradientTransform="matrix(1 0 0 -1 0 98)">
			<stop  offset="0" style="stop-color:#0085B7"/>
			<stop  offset="0.55" style="stop-color:#00C6D7"/>
			<stop  offset="1" style="stop-color:#00FFF2"/>
		</linearGradient>
		<polygon class="st7" points="48,26 26,37 26,59 48,70 70,59 70,37 		"/>
		
			<linearGradient id="SVGID_5_" gradientUnits="userSpaceOnUse" x1="48" y1="32.77" x2="48" y2="67.27" gradientTransform="matrix(1 0 0 -1 0 98)">
			<stop  offset="0" style="stop-color:#0085B7"/>
			<stop  offset="0.55" style="stop-color:#00C6D7"/>
			<stop  offset="1" style="stop-color:#00FFF2"/>
		</linearGradient>
		<polygon class="st8" points="48,30 30,39 30,57 48,66 66,57 66,39 		"/>
		
			<linearGradient id="SVGID_6_" gradientUnits="userSpaceOnUse" x1="48" y1="62.45" x2="48" y2="37.53" gradientTransform="matrix(1 0 0 -1 0 98)">
			<stop  offset="0" style="stop-color:#0085B7"/>
			<stop  offset="0.55" style="stop-color:#00C6D7"/>
			<stop  offset="1" style="stop-color:#00FFF2"/>
		</linearGradient>
		<polygon class="st9" points="48,35 35,41.5 35,54.5 48,61 61,54.5 61,41.5 		"/>
		
			<linearGradient id="SVGID_7_" gradientUnits="userSpaceOnUse" x1="48" y1="41.54" x2="48" y2="58.37" gradientTransform="matrix(1 0 0 -1 0 98)">
			<stop  offset="0" style="stop-color:#0085B7"/>
			<stop  offset="0.55" style="stop-color:#00C6D7"/>
			<stop  offset="1" style="stop-color:#00FFF2"/>
		</linearGradient>
		<polygon class="st10" points="48,39 39,43.5 39,52.5 48,57 57,52.5 57,43.5 		"/>
		
			<linearGradient id="SVGID_8_" gradientUnits="userSpaceOnUse" x1="26" y1="50" x2="48" y2="50" gradientTransform="matrix(1 0 0 -1 0 98)">
			<stop  offset="0" style="stop-color:#FFFFFF;stop-opacity:0.1"/>
			<stop  offset="1" style="stop-color:#FFFFFF"/>
		</linearGradient>
		<polygon class="st11" points="48,48 26,37 26,59 		"/>
		
			<linearGradient id="SVGID_9_" gradientUnits="userSpaceOnUse" x1="68.78" y1="50" x2="50.03" y2="50" gradientTransform="matrix(1 0 0 -1 0 98)">
			<stop  offset="0" style="stop-color:#FFFFFF;stop-opacity:0.1"/>
			<stop  offset="1" style="stop-color:#FFFFFF"/>
		</linearGradient>
		<polygon class="st12" points="48,48 70,37 70,59 		"/>
	</g>
</g>
</svg>
