<svg xmlns="http://www.w3.org/2000/svg" xmlns:xlink="http://www.w3.org/1999/xlink" viewBox="0 0 96 96"><defs><style>.cls-1{opacity:0.2;}.cls-2{opacity:0.08;}.cls-3{opacity:0.1;}.cls-4{fill:url(#未命名的渐变_111);}.cls-5{fill:url(#未命名的渐变_97);}.cls-6{fill:#fff;}.cls-6,.cls-7,.cls-8{fill-rule:evenodd;}.cls-7{fill:url(#未命名的渐变_262);}.cls-8{fill:url(#未命名的渐变_263);}</style><linearGradient id="未命名的渐变_111" x1="47.49" y1="-51.48" x2="47.49" y2="-137.45" gradientTransform="translate(0 141.97)" gradientUnits="userSpaceOnUse"><stop offset="0" stop-color="#67bb6a"/><stop offset="1" stop-color="#d5ffa4"/></linearGradient><linearGradient id="未命名的渐变_97" x1="47.49" y1="-54.51" x2="47.49" y2="-134.45" gradientTransform="translate(0 141.97)" gradientUnits="userSpaceOnUse"><stop offset="0" stop-color="#4caf50"/><stop offset="1" stop-color="#b2ff59"/></linearGradient><linearGradient id="未命名的渐变_262" x1="37.04" y1="25.66" x2="47.96" y2="69.33" gradientUnits="userSpaceOnUse"><stop offset="0" stop-color="#4caf50" stop-opacity="0.5"/><stop offset="1" stop-color="#fff" stop-opacity="0"/></linearGradient><linearGradient id="未命名的渐变_263" x1="29.26" y1="39.88" x2="56.27" y2="65.66" gradientUnits="userSpaceOnUse"><stop offset="0" stop-color="#4caf50" stop-opacity="0.4"/><stop offset="1" stop-color="#fff" stop-opacity="0"/></linearGradient></defs><g id="图层_12" data-name="图层 12"><g id="browser360-cn"><g id="_96" data-name="96"><g id="浅灰色"><g id="_128" data-name=" 128"><g class="cls-1"><path d="M47.49,92c-14.89,0-28-3.9-34.31-10.18S3,62.38,3,47.49s3.9-28,10.18-34.31S32.61,3,47.49,3s28,3.9,34.31,10.18S92,32.61,92,47.49s-3.9,28-10.18,34.31S62.38,92,47.49,92Z"/></g><g class="cls-2"><path d="M49,95c-15.27,0-28.83-4.07-35.38-10.62S3,64.27,3,49,7.07,20.17,13.62,13.62,33.73,3,49,3,77.83,7.07,84.38,13.62,95,33.73,95,49,90.93,77.83,84.38,84.38,64.27,95,49,95Z"/></g><g class="cls-3"><path d="M49,93.49c-14.89,0-28-3.9-34.31-10.18S4.51,63.89,4.51,49s3.9-28,10.18-34.31S34.11,4.51,49,4.51s28,3.9,34.31,10.18S93.49,34.11,93.49,49s-3.9,28-10.18,34.31S63.89,93.49,49,93.49Z"/></g><g id="_128-2" data-name=" 128-2"><path class="cls-4" d="M80.74,80.74c-13,13-53.54,13-66.49,0s-13-53.54,0-66.49,53.54-13,66.49,0S93.72,67.75,80.74,80.74Z"/></g><path class="cls-5" d="M47.49,87.46c-13.73,0-25.64-3.39-31.11-8.85S7.52,61.22,7.52,47.49s3.39-25.64,8.85-31.11S33.76,7.52,47.49,7.52s25.64,3.39,31.11,8.85,8.85,17.38,8.85,31.11S84.06,73.12,78.6,78.59,61.22,87.46,47.49,87.46Z"/></g></g><g id="_96-2" data-name="96"><path class="cls-6" d="M38.22,46.22A11,11,0,0,0,35,54H75.35a28,28,0,0,0,.2-11,28,28,0,1,0-2.76,18H59a17,17,0,1,1,5.31-18H46A11,11,0,0,0,38.22,46.22Z"/><path class="cls-7" d="M65,47.5A22.13,22.13,0,0,1,64,54H35A11,11,0,0,1,46,43H64.26A17,17,0,1,0,59,61H60.5A22.49,22.49,0,0,1,20,47.76a26.6,26.6,0,0,1,.31-4q.06-.41.15-.81A22.5,22.5,0,0,1,65,47.5Z"/><path class="cls-8" d="M60.5,61a22.52,22.52,0,0,1-30.24,5.39A13.65,13.65,0,0,1,24,55.07V55A24,24,0,0,1,47.09,31,17,17,0,1,0,59,61Z"/></g></g></g></g></svg>