<?xml version="1.0" encoding="utf-8"?>
<!-- Generator: Adobe Illustrator 24.0.0, SVG Export Plug-In . SVG Version: 6.00 Build 0)  -->
<svg version="1.1" id="图层_1" xmlns="http://www.w3.org/2000/svg" xmlns:xlink="http://www.w3.org/1999/xlink" x="0px" y="0px"
	 viewBox="0 0 96 96" style="enable-background:new 0 0 96 96;" xml:space="preserve">
<style type="text/css">
	.st0{opacity:0.2;}
	.st1{fill:url(#SVGID_1_);}
	.st2{opacity:8.000000e-02;}
	.st3{fill:url(#SVGID_2_);}
	.st4{opacity:0.1;}
	.st5{fill:url(#SVGID_3_);}
	.st6{fill:url(#SVGID_4_);}
	.st7{fill:url(#SVGID_5_);}
	.st8{fill:#5F6466;}
	.st9{fill:#065493;}
	.st10{fill:#1580C3;}
	.st11{fill:#2EA7E0;}
	.st12{opacity:0.6;}
	.st13{fill:#FFFFFF;}
	.st14{fill:#F6F5F5;}
	.st15{opacity:0.2;enable-background:new    ;}
	.st16{fill:#FF7900;}
	.st17{fill:#FF3C00;}
	.st18{fill:#E60012;}
	.st19{fill:#FF5B00;}
</style>
<g id="_96">
	<g class="st0">
		
			<linearGradient id="SVGID_1_" gradientUnits="userSpaceOnUse" x1="48" y1="-4151.0005" x2="48" y2="-4061.0005" gradientTransform="matrix(1 0 0 -1 0 -4058.0005)">
			<stop  offset="0" style="stop-color:#000000"/>
			<stop  offset="1" style="stop-color:#34484F"/>
		</linearGradient>
		<path class="st1" d="M48,93c-15.1,0-28.4-3.9-34.7-10.3c-13.6-13.6-13.6-55.8,0-69.5C19.6,6.9,32.9,3,48,3s28.4,3.9,34.7,10.3
			c13.6,13.6,13.6,55.8,0,69.5C76.4,89.1,63.1,93,48,93z"/>
	</g>
	<g class="st2">
		
			<linearGradient id="SVGID_2_" gradientUnits="userSpaceOnUse" x1="49" y1="-4153.0005" x2="49" y2="-4061.0005" gradientTransform="matrix(1 0 0 -1 0 -4058.0005)">
			<stop  offset="0" style="stop-color:#000000"/>
			<stop  offset="1" style="stop-color:#34484F"/>
		</linearGradient>
		<path class="st3" d="M49,95c-15.3,0-28.9-4-35.5-10.6S3,64.4,3,49s4-29,10.5-35.5S33.7,3,49,3s28.9,4,35.4,10.6S95,33.6,95,49
			s-4,29-10.5,35.4S64.3,95,49,95z"/>
	</g>
	<g class="st4">
		
			<linearGradient id="SVGID_3_" gradientUnits="userSpaceOnUse" x1="49" y1="-4152.0005" x2="49" y2="-4062.0005" gradientTransform="matrix(1 0 0 -1 0 -4058.0005)">
			<stop  offset="0" style="stop-color:#000000"/>
			<stop  offset="1" style="stop-color:#34484F"/>
		</linearGradient>
		<path class="st5" d="M49,94c-15.1,0-28.4-3.9-34.7-10.3c-13.6-13.6-13.6-55.8,0-69.5C20.6,7.9,33.9,4,49,4s28.4,3.9,34.7,10.3
			c13.6,13.6,13.6,55.8,0,69.5C77.4,90.1,64.1,94,49,94z"/>
	</g>
	<g id="_512">
		
			<linearGradient id="SVGID_4_" gradientUnits="userSpaceOnUse" x1="48" y1="-4149.9756" x2="48" y2="-4062.0254" gradientTransform="matrix(1 0 0 -1 0 -4058.0005)">
			<stop  offset="1.000000e-02" style="stop-color:#6D7375"/>
			<stop  offset="1" style="stop-color:#BEBEC4"/>
		</linearGradient>
		<path class="st6" d="M82,82c-13.3,13.3-54.7,13.3-68,0S0.7,27.3,14,14s54.7-13.3,68,0S95.3,68.7,82,82z"/>
	</g>
	<g id="_512-2">
		
			<linearGradient id="SVGID_5_" gradientUnits="userSpaceOnUse" x1="48.0438" y1="-4145.9756" x2="48.0438" y2="-4066.063" gradientTransform="matrix(1 0 0 -1 0 -4058.0005)">
			<stop  offset="1.000000e-02" style="stop-color:#797F82"/>
			<stop  offset="1" style="stop-color:#C9C9CF"/>
		</linearGradient>
		<path class="st7" d="M78.9,78.9c-12,12.1-49.8,12.1-61.8,0S5,29.1,17.1,17.1S66.9,5,79,17.1S91,66.9,78.9,78.9z"/>
	</g>
</g>
<g id="刻录">
	<path class="st8" d="M47,80.5c-17.5,0-31.7-14.2-31.7-31.7S29.5,17.1,47,17.1s31.7,14.2,31.7,31.7l0,0l0,0
		C78.7,66.3,64.5,80.5,47,80.5 M47,45.8c-1.7,0-3,1.3-3,3s1.3,3,3,3s3-1.3,3-3S48.7,45.8,47,45.8"/>
	<path class="st9" d="M48.1,80.5c-17.5,0-31.7-14.2-31.7-31.7s14.2-31.7,31.7-31.7s31.7,14.2,31.7,31.7l0,0l0,0
		C79.8,66.3,65.6,80.5,48.1,80.5 M48.1,45.8c-1.7,0-3,1.3-3,3s1.3,3,3,3s3-1.3,3-3S49.8,45.8,48.1,45.8"/>
	<path class="st10" d="M48.1,18.1c-16.9,0-30.7,13.7-30.7,30.7s13.7,30.7,30.7,30.7s30.7-13.7,30.7-30.7l0,0
		C78.8,31.9,65.1,18.1,48.1,18.1C48.2,18.1,48.1,18.1,48.1,18.1L48.1,18.1 M48.1,78.6c-16.4,0-29.8-13.3-29.8-29.8S31.7,19,48.1,19
		s29.8,13.3,29.8,29.8l0,0l0,0C77.9,65.3,64.6,78.6,48.1,78.6"/>
	<path class="st11" d="M48.1,23.3c-14,0-25.5,11.4-25.5,25.5c0,14.1,11.4,25.5,25.5,25.5c14.1,0,25.5-11.4,25.5-25.5
		C73.6,34.7,62.2,23.3,48.1,23.3z M48.1,57.7c-4.9,0-8.9-4-8.9-8.9c0-4.9,4-8.9,8.9-8.9c4.9,0,8.9,4,8.9,8.9
		C57,53.7,53,57.7,48.1,57.7z"/>
	<g class="st12">
		<path class="st13" d="M57.1,49.4l15.6,1h0.9c0.2-3.6-0.3-7.3-1.6-10.7l-15.5,5.9C56.9,46.8,57.1,48.1,57.1,49.4"/>
		<path class="st13" d="M39.3,48.2l-15.6-1h-0.9c-0.2,3.6,0.3,7.3,1.6,10.7L39.8,52C39.4,50.8,39.2,49.5,39.3,48.2"/>
	</g>
	<g class="st12">
		<path class="st13" d="M55.9,44.3l13.6-7.9l0.8-0.5C68.4,32.8,66,30.1,63,28l-9.6,13.6C54.3,42.3,55.2,43.2,55.9,44.3"/>
		<path class="st13" d="M40.5,53.3l-13.6,7.9l-0.8,0.5c1.9,3.1,4.4,5.8,7.4,7.9L43,56.1C42,55.3,41.1,54.4,40.5,53.3"/>
	</g>
	<path class="st14" d="M48.1,19c-16.4,0-29.8,13.3-29.8,29.8s13.3,29.8,29.8,29.8c16.4,0,29.8-13.3,29.8-29.7
		C77.9,32.4,64.6,19,48.1,19C48.2,19,48.2,19,48.1,19 M48.1,74.3c-14.1,0-25.6-11.5-25.5-25.6c0-14.1,11.5-25.6,25.6-25.5
		c14.1,0,25.6,11.5,25.5,25.6l0,0l0,0C73.7,62.9,62.3,74.4,48.1,74.3"/>
	<path class="st10" d="M48.1,39.9c-5,0-9,3.9-9.1,8.9s3.9,9,8.9,9.1s9-3.9,9.1-8.9v-0.1l0,0C57.1,43.9,53.1,39.9,48.1,39.9
		 M48.1,56.9c-4.4,0-8-3.6-8-8s3.6-8,8-8s8,3.6,8,8l0,0C56.1,53.3,52.6,56.9,48.1,56.9"/>
	<path class="st14" d="M48.1,40.8c-4.4,0-8,3.6-8,8s3.6,8,8,8s8-3.6,8-8S52.6,40.8,48.1,40.8 M48.1,52.9c-2.3,0-4.1-1.8-4.1-4.1
		s1.8-4.1,4.1-4.1s4.1,1.8,4.1,4.1C52.3,51.1,50.4,52.9,48.1,52.9L48.1,52.9"/>
	<path class="st15" d="M62.6,78.2c-2.6,0.1-5.2-0.7-7.3-2.2c-4-2.8-4.1-7.1-0.5-10.5c2.3-2.1,6.5-3.6,8.1-6c1.7,1.6,3.2,3.6,3.4,5.6
		c0.1,1.3-0.4,2.5-1.3,3.3c-1.1,1-2.8,1.4-4.1,2.3c-1.1,0.6-2,1.7-2.3,3C58.3,75.6,60.1,77.2,62.6,78.2z"/>
	<path class="st15" d="M64,38.5c-1,1.3-0.6,3.6-0.2,5c0.5,1.6,1.4,3.1,2.5,4.4c1.6,1.9,3.7,3.2,5.4,5c1.8,1.6,3.4,3.4,4.7,5.4
		c3.5,5.9,1.6,13.5-4.3,17.1c-0.6,0.4-1.3,0.7-2,1c-3.2,1-6.7,0.6-10,0.6c1.6,0,3.5-1.3,4.6-2.3c2.3-1.8,3.6-4.6,3.5-7.6
		c-0.1-2.8-1.5-5.3-3.8-6.9c-2.2-1.5-4.4-2.5-5.8-4.9c-1.7-3.4-1.7-7.4,0.1-10.8c1.1-2.2,2.9-3.8,4.7-5.5
		C63.8,38.8,63.9,38.7,64,38.5z"/>
	<path class="st16" d="M63.5,78.1c-2.5,0.1-4.9-0.7-6.9-2.2c-3.8-2.7-3.9-7-0.5-10.2c2.2-2,6-3.5,7.5-5.8c1.6,1.6,3.2,3.5,3.5,5.5
		c0.1,1.2-0.3,2.4-1.2,3.2c-1,0.9-2.6,1.4-3.8,2.2c-1.1,0.6-1.9,1.7-2.2,2.9C59.5,75.5,61.2,77.2,63.5,78.1z"/>
	<path class="st16" d="M65.6,37.4c-1,1.1-0.9,3.2-0.2,5.2c0.6,1.6,1.5,3.2,2.6,4.5c1.6,1.9,3.7,3.3,5.5,5.1c1.8,1.6,3.4,3.5,4.7,5.5
		c2.3,3.8,2.5,8.4,0.5,12.4c-1.3,2.7-3.8,5.3-6.8,6.1c-3.2,1-6.7,0.6-10,0.6c1.6,0,3.4-1.3,4.6-2.3c2.3-1.9,3.5-4.8,3.4-7.7
		c-0.1-2.8-1.5-5.5-3.8-7.1c-2.2-1.5-4.5-2.6-5.8-5.1c-1.7-3.5-1.7-7.6,0.1-11.1c1-2,2.4-3.8,4-5.4C64.8,37.8,65.2,37.6,65.6,37.4z"
		/>
	<path class="st17" d="M62.9,78.1c-2.5,0-5-0.8-7-2.3c-3.8-2.8-4-7.3-0.6-10.6c2.2-2.1,6.2-3.6,7.7-5.9c1.6,1.6,3.1,3.7,3.4,5.7
		c0.2,1.2-0.3,2.5-1.2,3.3c-1,1-2.7,1.4-3.9,2.2c-1.1,0.7-1.9,1.7-2.2,3C58.8,75.5,60.5,77.2,62.9,78.1z"/>
	<path class="st18" d="M58.4,70.5c1.3-0.6,2.6-0.9,4-1.2c0.9-0.1,1.7-0.4,2.5-0.8c-1,0.8-2.4,1.2-3.5,2c-1.1,0.7-1.9,1.7-2.2,3
		c-0.3,2,1.4,3.7,3.8,4.6c-0.3,0-0.6,0-0.9,0c-1-0.2-2-0.6-2.9-1.2c-1.1-0.6-1.9-1.5-2.4-2.6C56.3,72.9,56.9,71.2,58.4,70.5z"/>
	<path class="st19" d="M55.3,65.3c2.2-2.1,6.2-3.5,7.7-5.9c0.1,0.2,0.2,0.4,0.2,0.6c0.3,0.9,0.3,1.9,0.1,2.8c-0.4,1.6-2.1,3-4.3,3.7
		c-1.7,0.6-3.4,0.8-5.2,0.6C54.3,66.5,54.8,65.8,55.3,65.3z"/>
	<path class="st17" d="M64.5,38.1c-0.9,1.3-0.5,3.6-0.1,5c0.6,1.6,1.4,3.1,2.6,4.4c1.6,1.9,3.7,3.2,5.5,4.9c1.8,1.6,3.4,3.4,4.8,5.4
		c2.3,3.7,2.6,8.3,0.8,12.2c-1.3,2.8-3.6,5-6.5,6.2c-3.2,1-6.6,0.7-9.9,0.8c1.6,0,3.4-1.4,4.5-2.4c2.2-1.9,3.4-4.7,3.3-7.7
		c-0.2-2.8-1.6-5.4-3.9-7c-2.2-1.5-4.5-2.4-5.8-4.9c-1.8-3.4-1.8-7.5-0.1-10.9c1.2-2.1,2.7-4,4.5-5.5C64.2,38.4,64.3,38.3,64.5,38.1
		z"/>
	<path class="st18" d="M59.3,44.7C58.8,46.8,59,49,59.9,51c2,4,6.5,4.9,9.8,7.5c1.6,1.2,2.8,2.8,3.7,4.5c2.1,4.4,1,10.1-3.6,12.5
		c-2.2,1.1-4.6,1.6-7.1,1.3c1.2-0.5,2.4-1.2,3.3-2.1c2.2-1.9,3.4-4.8,3.3-7.7c-0.2-2.8-1.6-5.4-3.9-7c-2.2-1.5-4.5-2.4-5.8-4.9
		C57.9,52.1,57.6,47.7,59.3,44.7z"/>
	<path class="st19" d="M64.5,38.1c-0.9,1.3-0.5,3.6-0.1,5c0.6,1.6,1.4,3.1,2.6,4.4c1.6,1.9,3.7,3.2,5.5,4.9c1.8,1.6,3.4,3.4,4.8,5.4
		c1.7,2.6,2.3,5.8,1.8,8.9c-0.1-1.4-0.4-2.7-0.9-4c-1.3-3.4-3.8-6.1-7-7.7c-2.8-1.5-6.2-2.4-8.1-5.2c-2.3-3.3-1.2-8,1.1-11.3
		C64.3,38.4,64.4,38.3,64.5,38.1z"/>
</g>
</svg>
