<svg id="图层_1" data-name="图层 1" xmlns="http://www.w3.org/2000/svg" xmlns:xlink="http://www.w3.org/1999/xlink" viewBox="0 0 96 96"><defs><style>.cls-1,.cls-16{opacity:0.2;}.cls-2{fill:url(#未命名的渐变);}.cls-3{opacity:0.08;}.cls-4{fill:url(#未命名的渐变_2);}.cls-5{opacity:0.1;}.cls-6{fill:url(#未命名的渐变_3);}.cls-7{fill:url(#未命名的渐变_4);}.cls-8{fill:url(#未命名的渐变_5);}.cls-9{fill:#5f6466;}.cls-10{fill:#065493;}.cls-11{fill:#1580c3;}.cls-12{fill:#2ea7e0;}.cls-13{opacity:0.6;}.cls-14{fill:#fff;}.cls-15{fill:#f6f5f5;}.cls-16{isolation:isolate;}.cls-17{fill:#ff7900;}.cls-18{fill:#ff3c00;}.cls-19{fill:#e60012;}.cls-20{fill:#ff5b00;}</style><linearGradient id="未命名的渐变" x1="48" y1="-4151" x2="48" y2="-4061" gradientTransform="matrix(1, 0, 0, -1, 0, -4058)" gradientUnits="userSpaceOnUse"><stop offset="0"/><stop offset="1" stop-color="#34484f"/></linearGradient><linearGradient id="未命名的渐变_2" x1="49" y1="-4153" x2="49" y2="-4061" xlink:href="#未命名的渐变"/><linearGradient id="未命名的渐变_3" x1="49" y1="-4152" x2="49" y2="-4062" xlink:href="#未命名的渐变"/><linearGradient id="未命名的渐变_4" x1="48" y1="-4149.98" x2="48" y2="-4062.03" gradientTransform="matrix(1, 0, 0, -1, 0, -4058)" gradientUnits="userSpaceOnUse"><stop offset="0.01" stop-color="#6d7375"/><stop offset="1" stop-color="#bebec4"/></linearGradient><linearGradient id="未命名的渐变_5" x1="48.04" y1="-4145.98" x2="48.04" y2="-4066.06" gradientTransform="matrix(1, 0, 0, -1, 0, -4058)" gradientUnits="userSpaceOnUse"><stop offset="0.01" stop-color="#797f82"/><stop offset="1" stop-color="#c9c9cf"/></linearGradient></defs><title>画板 1</title><g id="_96" data-name=" 96"><g class="cls-1"><path class="cls-2" d="M48,93c-15.1,0-28.4-3.9-34.7-10.3C-.3,69.1-.3,26.9,13.3,13.2,19.6,6.9,32.9,3,48,3S76.4,6.9,82.7,13.3c13.6,13.6,13.6,55.8,0,69.5C76.4,89.1,63.1,93,48,93Z"/></g><g class="cls-3"><path class="cls-4" d="M49,95c-15.3,0-28.9-4-35.5-10.6S3,64.4,3,49,7,20,13.5,13.5,33.7,3,49,3,77.9,7,84.4,13.6,95,33.6,95,49,91,78,84.5,84.4,64.3,95,49,95Z"/></g><g class="cls-5"><path class="cls-6" d="M49,94c-15.1,0-28.4-3.9-34.7-10.3C.7,70.1.7,27.9,14.3,14.2,20.6,7.9,33.9,4,49,4S77.4,7.9,83.7,14.3c13.6,13.6,13.6,55.8,0,69.5C77.4,90.1,64.1,94,49,94Z"/></g><g id="_512" data-name=" 512"><path class="cls-7" d="M82,82C68.7,95.3,27.3,95.3,14,82S.7,27.3,14,14,68.7.7,82,14,95.3,68.7,82,82Z"/></g><g id="_512-2" data-name=" 512-2"><path class="cls-8" d="M78.9,78.9C66.9,91,29.1,91,17.1,78.9S5,29.1,17.1,17.1,66.9,5,79,17.1,91,66.9,78.9,78.9Z"/></g></g><g id="刻录"><path class="cls-9" d="M47,80.5A31.7,31.7,0,1,1,78.7,48.8h0A31.71,31.71,0,0,1,47,80.5m0-34.7a3,3,0,1,0,3,3,2.95,2.95,0,0,0-3-3"/><path class="cls-10" d="M48.1,80.5A31.7,31.7,0,1,1,79.8,48.8h0A31.71,31.71,0,0,1,48.1,80.5m0-34.7a3,3,0,1,0,3,3,2.95,2.95,0,0,0-3-3"/><path class="cls-11" d="M48.1,18.1A30.7,30.7,0,1,0,78.8,48.8h0A30.71,30.71,0,0,0,48.1,18.1h0m0,60.5A29.8,29.8,0,1,1,77.9,48.8h0A29.75,29.75,0,0,1,48.1,78.6"/><path class="cls-12" d="M48.1,23.3A25.5,25.5,0,1,0,73.6,48.8,25.54,25.54,0,0,0,48.1,23.3Zm0,34.4A8.9,8.9,0,1,1,57,48.8,8.92,8.92,0,0,1,48.1,57.7Z"/><g class="cls-13"><path class="cls-14" d="M57.1,49.4l15.6,1h.9A26.07,26.07,0,0,0,72,39.7L56.5,45.6a12.09,12.09,0,0,1,.6,3.8"/><path class="cls-14" d="M39.3,48.2l-15.6-1h-.9a26.07,26.07,0,0,0,1.6,10.7L39.8,52a9.72,9.72,0,0,1-.5-3.8"/></g><g class="cls-13"><path class="cls-14" d="M55.9,44.3l13.6-7.9.8-.5A26.22,26.22,0,0,0,63,28L53.4,41.6a10.85,10.85,0,0,1,2.5,2.7"/><path class="cls-14" d="M40.5,53.3,26.9,61.2l-.8.5a26.55,26.55,0,0,0,7.4,7.9L43,56.1a9.52,9.52,0,0,1-2.5-2.8"/></g><path class="cls-15" d="M48.1,19A29.8,29.8,0,1,0,77.9,48.9,29.81,29.81,0,0,0,48.1,19h0m0,55.3A25.55,25.55,0,1,1,73.7,48.8h0A25.44,25.44,0,0,1,48.1,74.3"/><path class="cls-11" d="M48.1,39.9A9,9,0,1,0,57,49v-.1h0a8.82,8.82,0,0,0-8.9-9m0,17a8,8,0,1,1,8-8h0a8,8,0,0,1-8,8"/><path class="cls-15" d="M48.1,40.8a8,8,0,1,0,8,8,8,8,0,0,0-8-8m0,12.1a4.1,4.1,0,1,1,4.1-4.1,4,4,0,0,1-4.1,4.1h0"/><path class="cls-16" d="M62.6,78.2A11.87,11.87,0,0,1,55.3,76c-4-2.8-4.1-7.1-.5-10.5,2.3-2.1,6.5-3.6,8.1-6,1.7,1.6,3.2,3.6,3.4,5.6A4,4,0,0,1,65,68.4c-1.1,1-2.8,1.4-4.1,2.3a4.69,4.69,0,0,0-2.3,3C58.3,75.6,60.1,77.2,62.6,78.2Z"/><path class="cls-16" d="M64,38.5c-1,1.3-.6,3.6-.2,5a12.87,12.87,0,0,0,2.5,4.4c1.6,1.9,3.7,3.2,5.4,5a26.82,26.82,0,0,1,4.7,5.4,12.64,12.64,0,0,1-6.3,18.1c-3.2,1-6.7.6-10,.6,1.6,0,3.5-1.3,4.6-2.3a9.2,9.2,0,0,0,3.5-7.6,8.72,8.72,0,0,0-3.8-6.9c-2.2-1.5-4.4-2.5-5.8-4.9a11.77,11.77,0,0,1,.1-10.8A20.52,20.52,0,0,1,63.4,39C63.8,38.8,63.9,38.7,64,38.5Z"/><path class="cls-17" d="M63.5,78.1a10.74,10.74,0,0,1-6.9-2.2c-3.8-2.7-3.9-7-.5-10.2,2.2-2,6-3.5,7.5-5.8,1.6,1.6,3.2,3.5,3.5,5.5a3.82,3.82,0,0,1-1.2,3.2c-1,.9-2.6,1.4-3.8,2.2a4.6,4.6,0,0,0-2.2,2.9C59.5,75.5,61.2,77.2,63.5,78.1Z"/><path class="cls-17" d="M65.6,37.4c-1,1.1-.9,3.2-.2,5.2A15.55,15.55,0,0,0,68,47.1c1.6,1.9,3.7,3.3,5.5,5.1a27.38,27.38,0,0,1,4.7,5.5,12.73,12.73,0,0,1,.5,12.4,11.39,11.39,0,0,1-6.8,6.1c-3.2,1-6.7.6-10,.6,1.6,0,3.4-1.3,4.6-2.3a9.57,9.57,0,0,0,3.4-7.7,9.1,9.1,0,0,0-3.8-7.1c-2.2-1.5-4.5-2.6-5.8-5.1a12.39,12.39,0,0,1,.1-11.1,21,21,0,0,1,4-5.4A7.46,7.46,0,0,1,65.6,37.4Z"/><path class="cls-18" d="M62.9,78.1a11.74,11.74,0,0,1-7-2.3c-3.8-2.8-4-7.3-.6-10.6,2.2-2.1,6.2-3.6,7.7-5.9,1.6,1.6,3.1,3.7,3.4,5.7a3.73,3.73,0,0,1-1.2,3.3c-1,1-2.7,1.4-3.9,2.2a4.8,4.8,0,0,0-2.2,3C58.8,75.5,60.5,77.2,62.9,78.1Z"/><path class="cls-19" d="M58.4,70.5a18.45,18.45,0,0,1,4-1.2,7.32,7.32,0,0,0,2.5-.8c-1,.8-2.4,1.2-3.5,2a4.8,4.8,0,0,0-2.2,3c-.3,2,1.4,3.7,3.8,4.6h-.9a8.13,8.13,0,0,1-2.9-1.2,5.5,5.5,0,0,1-2.4-2.6A3.07,3.07,0,0,1,58.4,70.5Z"/><path class="cls-20" d="M55.3,65.3c2.2-2.1,6.2-3.5,7.7-5.9a1.42,1.42,0,0,1,.2.6,5.33,5.33,0,0,1,.1,2.8c-.4,1.6-2.1,3-4.3,3.7a11.48,11.48,0,0,1-5.2.6C54.3,66.5,54.8,65.8,55.3,65.3Z"/><path class="cls-18" d="M64.5,38.1c-.9,1.3-.5,3.6-.1,5A13.14,13.14,0,0,0,67,47.5c1.6,1.9,3.7,3.2,5.5,4.9a30.92,30.92,0,0,1,4.8,5.4A12.91,12.91,0,0,1,78.1,70a12.31,12.31,0,0,1-6.5,6.2c-3.2,1-6.6.7-9.9.8,1.6,0,3.4-1.4,4.5-2.4a9.66,9.66,0,0,0,3.3-7.7,9.3,9.3,0,0,0-3.9-7c-2.2-1.5-4.5-2.4-5.8-4.9a12,12,0,0,1-.1-10.9,20.09,20.09,0,0,1,4.5-5.5C64.2,38.4,64.3,38.3,64.5,38.1Z"/><path class="cls-19" d="M59.3,44.7a9.78,9.78,0,0,0,.6,6.3c2,4,6.5,4.9,9.8,7.5A13.34,13.34,0,0,1,73.4,63c2.1,4.4,1,10.1-3.6,12.5a12.4,12.4,0,0,1-7.1,1.3A10.32,10.32,0,0,0,66,74.7,9.8,9.8,0,0,0,69.3,67a9.3,9.3,0,0,0-3.9-7c-2.2-1.5-4.5-2.4-5.8-4.9C57.9,52.1,57.6,47.7,59.3,44.7Z"/><path class="cls-20" d="M64.5,38.1c-.9,1.3-.5,3.6-.1,5A13.14,13.14,0,0,0,67,47.5c1.6,1.9,3.7,3.2,5.5,4.9a30.92,30.92,0,0,1,4.8,5.4,12.61,12.61,0,0,1,1.8,8.9,13.67,13.67,0,0,0-.9-4,14.29,14.29,0,0,0-7-7.7c-2.8-1.5-6.2-2.4-8.1-5.2-2.3-3.3-1.2-8,1.1-11.3A1.38,1.38,0,0,0,64.5,38.1Z"/></g></svg>