<svg id="图层_1" data-name="图层 1" xmlns="http://www.w3.org/2000/svg" viewBox="0 0 96 96"><defs><style>.cls-1{opacity:0.2;}.cls-2{opacity:0.08;}.cls-3{opacity:0.1;}.cls-4{fill:#ef3f3f;}.cls-5{fill:#03a9f4;}.cls-6{fill:#f2f2f2;}.cls-7{fill:#c7b299;}.cls-8{fill:#ccc;}.cls-9{fill:#9b8979;}</style></defs><title>画板 1</title><g id="_96" data-name=" 96"><g id="浅灰色"><g id="_128-3" data-name=" 128-3"><g class="cls-1"><path d="M47.49,92c-14.89,0-28-3.9-34.31-10.18S3,62.38,3,47.49s3.9-28,10.18-34.31S32.61,3,47.49,3s28,3.9,34.31,10.18S92,32.61,92,47.49s-3.9,28-10.18,34.31S62.38,92,47.49,92Z"/></g><g class="cls-2"><path d="M49,95c-15.27,0-28.83-4.07-35.38-10.62S3,64.27,3,49,7.07,20.17,13.62,13.62,33.73,3,49,3,77.83,7.07,84.38,13.62,95,33.73,95,49,90.93,77.83,84.38,84.38,64.27,95,49,95Z"/></g><g class="cls-3"><path d="M49,93.49c-14.89,0-28-3.9-34.31-10.18S4.51,63.89,4.51,49s3.9-28,10.18-34.31S34.11,4.51,49,4.51s28,3.9,34.31,10.18S93.49,34.11,93.49,49s-3.9,28-10.18,34.31S63.89,93.49,49,93.49Z"/></g><path class="cls-4" d="M81.25,81.24c-13,13-53.54,13-66.49,0s-13-53.54,0-66.49,53.54-13,66.49,0S94.23,68.25,81.25,81.24Z"/><path class="cls-5" d="M6.82,31.31a72.24,72.24,0,0,0-1.66,12L34,6.27A54.53,54.53,0,0,0,24.23,9Z"/><path class="cls-5" d="M5.19,53.09a73.36,73.36,0,0,0,1,8.53L50.34,5.05c-2.6-.07-5.22,0-7.8.16Z"/><path class="cls-5" d="M8.05,69.12a40.54,40.54,0,0,0,2.66,6.43L64.38,6.74A65.18,65.18,0,0,0,57.6,5.59Z"/><path class="cls-5" d="M70.66,8.54,14.33,80.76c.14.16.28.33.43.48a22.51,22.51,0,0,0,4.3,3.3L76.33,11.11A37,37,0,0,0,70.66,8.54Z"/><path class="cls-5" d="M30.87,89.09,84.93,19.78a22.69,22.69,0,0,0-3.68-5l0,0L24.66,87.21A51.9,51.9,0,0,0,30.87,89.09Z"/><path class="cls-5" d="M44.8,90.92,89.63,33.45a56.07,56.07,0,0,0-1.94-7.36L37.59,90.31C40,90.63,42.37,90.83,44.8,90.92Z"/><path class="cls-5" d="M81.25,81.24c4-4,6.72-10.54,8.26-18.1l-19,24.35A28.82,28.82,0,0,0,81.25,81.24Z"/><path class="cls-5" d="M60.94,89.93l30-38.4a81.68,81.68,0,0,0-.16-9.65l-38.2,49A76.43,76.43,0,0,0,60.94,89.93Z"/><path class="cls-6" d="M48,85c-12.71,0-23.73-3.14-28.8-8.19S11,60.71,11,48s3.14-23.73,8.19-28.8S35.29,11,48,11s23.74,3.14,28.81,8.19S85,35.28,85,48s-3.14,23.74-8.19,28.8S60.72,85,48,85Z"/></g></g><rect class="cls-7" x="14" y="31" width="36" height="34" rx="8"/><rect class="cls-8" x="54" y="35" width="28" height="2"/><rect class="cls-8" x="54" y="43" width="28" height="2"/><rect class="cls-8" x="54" y="51" width="28" height="2"/><rect class="cls-8" x="54" y="59" width="28" height="2"/><path class="cls-9" d="M32.64,51.83A6.05,6.05,0,0,1,31,53.08a3.85,3.85,0,0,1-1.79.47A3.71,3.71,0,0,1,27.32,53a3.85,3.85,0,0,1-1.51-1.66,5.17,5.17,0,0,1-.59-2.47,6.88,6.88,0,0,1,.91-3.31,6.55,6.55,0,0,1,2.24-2.49A5,5,0,0,1,31,42.25a3.81,3.81,0,0,1,1.84.47,4.34,4.34,0,0,1,1.51,1.44l.37-1.61h2l-1.6,7c-.22,1-.33,1.51-.33,1.61a.63.63,0,0,0,.23.48.76.76,0,0,0,.55.21,3.14,3.14,0,0,0,1.54-.64,5.88,5.88,0,0,0,2-2.23,6.14,6.14,0,0,0,.74-2.88,6,6,0,0,0-1-3.25A6.66,6.66,0,0,0,36,40.42a9.47,9.47,0,0,0-4.15-.9,9.9,9.9,0,0,0-4.74,1.14,8,8,0,0,0-3.33,3.26,9.2,9.2,0,0,0-1.18,4.56,8,8,0,0,0,1.18,4.38,7,7,0,0,0,3.42,2.72,13.5,13.5,0,0,0,4.95.88A11.55,11.55,0,0,0,37,55.55a7.5,7.5,0,0,0,3-2.23h2a7.53,7.53,0,0,1-1.94,2.23,10.75,10.75,0,0,1-3.27,1.79,14.17,14.17,0,0,1-4.57.66,17,17,0,0,1-4.54-.59,9.79,9.79,0,0,1-3.54-1.79,7.91,7.91,0,0,1-2.21-2.73A9.9,9.9,0,0,1,21,48.64a11.06,11.06,0,0,1,1.11-4.83A9.78,9.78,0,0,1,26,39.5,11.47,11.47,0,0,1,32,38a11.07,11.07,0,0,1,4.94,1.06,7.94,7.94,0,0,1,3.45,3.14,7.52,7.52,0,0,1-1.19,9.26,6,6,0,0,1-4.41,2.1,2.89,2.89,0,0,1-1.23-.22,1.41,1.41,0,0,1-.7-.62A2.71,2.71,0,0,1,32.64,51.83ZM27.28,49A3.13,3.13,0,0,0,28,51.22a2.2,2.2,0,0,0,1.65.79A2.77,2.77,0,0,0,31,51.66a4.56,4.56,0,0,0,1.31-1,5.3,5.3,0,0,0,1-1.74,6.18,6.18,0,0,0,.4-2.12A3,3,0,0,0,33,44.58a2.44,2.44,0,0,0-1.83-.78,2.69,2.69,0,0,0-1.33.34,4,4,0,0,0-1.22,1.08,6.1,6.1,0,0,0-1,1.78A6.19,6.19,0,0,0,27.28,49Z"/></g></svg>