<?xml version="1.0" encoding="utf-8"?>
<!-- Generator: Adobe Illustrator 24.0.0, SVG Export Plug-In . SVG Version: 6.00 Build 0)  -->
<svg version="1.1" id="图层_1" xmlns="http://www.w3.org/2000/svg" xmlns:xlink="http://www.w3.org/1999/xlink" x="0px" y="0px"
	 viewBox="0 0 96 96" style="enable-background:new 0 0 96 96;" xml:space="preserve">
<style type="text/css">
	.st0{opacity:0.2;}
	.st1{fill:url(#SVGID_1_);}
	.st2{opacity:8.000000e-02;}
	.st3{fill:url(#SVGID_2_);}
	.st4{opacity:0.1;}
	.st5{fill:url(#SVGID_3_);}
	.st6{fill:url(#SVGID_4_);}
	.st7{fill:url(#SVGID_5_);}
	.st8{opacity:0.4;fill:#E6E8F7;enable-background:new    ;}
	.st9{opacity:0.9;fill:#F8E069;enable-background:new    ;}
	.st10{fill:#FDD03B;}
	.st11{fill:#FCE800;}
	.st12{fill:url(#SVGID_6_);}
	.st13{fill:url(#SVGID_7_);}
	.st14{opacity:0.3;fill:#E6E8F7;enable-background:new    ;}
	.st15{fill:#D0E2F1;}
</style>
<g id="麒麟天气">
	<g id="_96">
		<g class="st0">
			
				<linearGradient id="SVGID_1_" gradientUnits="userSpaceOnUse" x1="48" y1="4653.0308" x2="48" y2="4563.0308" gradientTransform="matrix(1 0 0 1 0 -4560.0308)">
				<stop  offset="0" style="stop-color:#000000"/>
				<stop  offset="1" style="stop-color:#34484F"/>
			</linearGradient>
			<path class="st1" d="M48,93c-15.1,0-28.4-3.9-34.7-10.3c-13.6-13.6-13.6-55.8,0-69.5C19.6,6.9,32.9,3,48,3s28.4,3.9,34.7,10.3
				c13.6,13.6,13.6,55.8,0,69.5C76.4,89.1,63.1,93,48,93z"/>
		</g>
		<g class="st2">
			
				<linearGradient id="SVGID_2_" gradientUnits="userSpaceOnUse" x1="49" y1="4655.0308" x2="49" y2="4563.0308" gradientTransform="matrix(1 0 0 1 0 -4560.0308)">
				<stop  offset="0" style="stop-color:#000000"/>
				<stop  offset="1" style="stop-color:#34484F"/>
			</linearGradient>
			<path class="st3" d="M49,95c-15.3,0-28.9-4-35.5-10.6S3,64.4,3,49s4-29,10.5-35.5S33.7,3,49,3s28.9,4,35.4,10.6S95,33.6,95,49
				s-4,29-10.5,35.4S64.3,95,49,95z"/>
		</g>
		<g class="st4">
			
				<linearGradient id="SVGID_3_" gradientUnits="userSpaceOnUse" x1="49" y1="4654.0308" x2="49" y2="4564.0308" gradientTransform="matrix(1 0 0 1 0 -4560.0308)">
				<stop  offset="0" style="stop-color:#000000"/>
				<stop  offset="1" style="stop-color:#34484F"/>
			</linearGradient>
			<path class="st5" d="M49,94c-15.1,0-28.4-3.9-34.7-10.3c-13.6-13.6-13.6-55.8,0-69.5C20.6,7.9,33.9,4,49,4s28.4,3.9,34.7,10.3
				c13.6,13.6,13.6,55.8,0,69.5C77.4,90.1,64.1,94,49,94z"/>
		</g>
		<g id="_512-2">
			
				<linearGradient id="SVGID_4_" gradientUnits="userSpaceOnUse" x1="48" y1="4652.0059" x2="48" y2="4564.0557" gradientTransform="matrix(1 0 0 1 0 -4560.0308)">
				<stop  offset="0" style="stop-color:#289AD8"/>
				<stop  offset="1" style="stop-color:#84D5F9"/>
			</linearGradient>
			<path class="st6" d="M82,82c-13.3,13.3-54.7,13.3-68,0S0.7,27.3,14,14s54.7-13.3,68,0S95.3,68.7,82,82z"/>
		</g>
		<g id="_512-3">
			
				<linearGradient id="SVGID_5_" gradientUnits="userSpaceOnUse" x1="48.0438" y1="4648.0059" x2="48.0438" y2="4568.0933" gradientTransform="matrix(1 0 0 1 0 -4560.0308)">
				<stop  offset="0" style="stop-color:#0288D1"/>
				<stop  offset="1" style="stop-color:#4FC3F7"/>
			</linearGradient>
			<path class="st7" d="M78.9,78.9c-12,12.1-49.8,12.1-61.8,0S5,29.1,17.1,17.1S66.9,5,79,17.1S91,66.9,78.9,78.9z"/>
		</g>
	</g>
	<path class="st8" d="M59,27.7c0-4.6-3.8-8.4-8.4-8.4l0,0l0,0c-3.2-5.4-10.3-7.2-15.7-4c-3.1,1.8-5.1,4.9-5.5,8.5h-0.1
		c-3.4,0-6.2,2.8-6.2,6.2s2.8,6.2,6.2,6.2h22.1l0,0C55.8,35.7,59,32,59,27.7z"/>
	<path class="st9" d="M61.8,19.2l2.4-2.2l1.3,2.9c0.9,2,3.2,2.9,5.2,2.1l3-1.1l0.1,3.2c0.1,2.2,1.8,3.9,4,4l3.2,0.1l-1.1,3
		c-0.7,2,0.2,4.3,2.2,5.2l2.9,1.4l-2.2,2.4c-1.5,1.6-1.5,4,0,5.6l2.2,2.4l-2.9,1.3c-2,0.9-2.9,3.2-2.2,5.2l1.1,3l-3.2,0.1
		c-2.2,0.1-3.9,1.8-4,4L73.7,65l-3-1.1c-2-0.7-4.3,0.2-5.2,2.1l-1.4,3l-2.4-2.2c-1.6-1.5-4-1.5-5.6,0L53.8,69l-1.3-2.9
		c-0.9-2-3.2-2.9-5.2-2.2l-3,1.1l-0.1-3.2c-0.1-2.2-1.8-3.9-4-4L37,57.7l1.1-3c0.7-2-0.2-4.3-2.2-5.2l-3-1.4l2.2-2.4
		c1.5-1.6,1.5-4,0-5.6L33,37.8l2.9-1.3c2-0.9,2.9-3.2,2.2-5.2l-1.1-3l3.2-0.1c2.2-0.1,3.9-1.8,4-4l0.1-3.2l3,1.1
		c2,0.7,4.3-0.2,5.2-2.1l1.4-3l2.4,2.2C57.8,20.7,60.2,20.7,61.8,19.2z"/>
	<path class="st10" d="M59,63c-11,0-20-9-20-20s9-20,20-20s20,9,20,20S70,63,59,63z"/>
	<path class="st11" d="M59,23.5c10.8,0,19.5,8.7,19.5,19.5S69.8,62.5,59,62.5S39.5,53.8,39.5,43S48.2,23.5,59,23.5 M59,22.5
		c-11.3,0-20.5,9.2-20.5,20.5S47.7,63.5,59,63.5S79.5,54.3,79.5,43S70.3,22.5,59,22.5z"/>
	
		<radialGradient id="SVGID_6_" cx="59" cy="4603.0308" r="15.5" gradientTransform="matrix(1 0 0 1 0 -4560.0308)" gradientUnits="userSpaceOnUse">
		<stop  offset="0" style="stop-color:#FFD12C"/>
		<stop  offset="0.25" style="stop-color:#FEC929"/>
		<stop  offset="0.63" style="stop-color:#FAB420"/>
		<stop  offset="0.99" style="stop-color:#F59916"/>
	</radialGradient>
	<circle class="st12" cx="59" cy="43" r="15.5"/>
	<linearGradient id="SVGID_7_" gradientUnits="userSpaceOnUse" x1="44.4948" y1="87.9733" x2="44.4948" y2="49.3991">
		<stop  offset="6.000000e-02" style="stop-color:#E3E7F5"/>
		<stop  offset="1" style="stop-color:#FFFFFF"/>
	</linearGradient>
	<path class="st13" d="M65.8,68h-0.5v-0.5c-1.1-10.4-9.9-18.2-20.4-18.1c-7.3,0-14.1,3.8-17.8,10.1l-0.2,0.3h-0.3
		c-7,0.1-12.8,5-14.3,11.6c1.3,3,2.9,5.6,4.8,7.5c11.3,11.4,45.4,12.1,59.4,2c0.1-0.7,0.2-1.4,0.2-2.1C76.7,72.8,71.8,68,65.8,68z"
		/>
	<path class="st14" d="M65.1,63.7L65.1,63.7c-0.9-6.6-4.7-12.4-10.4-15.8c-10.1-5.9-23-2.6-28.9,7.5c-7.3,0-13.4,5.1-15,11.8
		c1.5,4.8,3.6,8.9,6.3,11.7c3.5,3.5,9.2,6,15.8,7.5h30.1c3.8-0.8,7.3-2,10.3-3.5c1.9-2,3.1-4.7,3.1-7.8
		C76.4,68.8,71.4,63.7,65.1,63.7z"/>
	<path class="st15" d="M65.8,67.6L65.8,67.6c-1.2-10.7-10.3-18.7-21-18.7c-7.5,0-14.4,3.9-18.2,10.3c-6.9,0-12.9,4.5-14.9,10.8
		c0.2,0.5,0.4,1.1,0.6,1.6c1.4-6.6,7.3-11.4,14.2-11.4h0.6l0.3-0.5c3.6-6,10.2-9.8,17.3-9.8c10.2-0.1,18.8,7.5,19.9,17.7l0.1,0.9h1
		c5.7,0,10.3,4.6,10.3,10.3c0,0.9-0.1,1.8-0.3,2.6c0.5-0.3,0.9-0.6,1.3-1c0.1-0.5,0.1-1,0.1-1.5C77.2,72.7,72.1,67.6,65.8,67.6z"/>
</g>
</svg>
