<?xml version="1.0" encoding="utf-8"?>
<!-- Generator: Adobe Illustrator 24.0.0, SVG Export Plug-In . SVG Version: 6.00 Build 0)  -->
<svg version="1.1" id="图层_1" xmlns="http://www.w3.org/2000/svg" xmlns:xlink="http://www.w3.org/1999/xlink" x="0px" y="0px"
	 viewBox="0 0 96 96" style="enable-background:new 0 0 96 96;" xml:space="preserve">
<style type="text/css">
	.st0{opacity:0.2;}
	.st1{opacity:8.000000e-02;}
	.st2{opacity:0.1;}
	.st3{fill:url(#SVGID_1_);}
	.st4{fill:url(#SVGID_2_);}
	.st5{fill:#FFFFFF;}
</style>
<g>
	<g id="_128">
		<g class="st0">
			<path d="M47.5,92c-14.9,0-28-3.9-34.3-10.2S3,62.4,3,47.5s3.9-28,10.2-34.3S32.6,3,47.5,3s28,3.9,34.3,10.2S92,32.6,92,47.5
				s-3.9,28-10.2,34.3S62.4,92,47.5,92z"/>
		</g>
		<g class="st1">
			<path d="M49,95c-15.3,0-28.8-4.1-35.4-10.6S3,64.3,3,49s4.1-28.8,10.6-35.4S33.7,3,49,3s28.8,4.1,35.4,10.6S95,33.7,95,49
				s-4.1,28.8-10.6,35.4S64.3,95,49,95z"/>
		</g>
		<g class="st2">
			<path d="M49,93.5c-14.9,0-28-3.9-34.3-10.2S4.5,63.9,4.5,49s3.9-28,10.2-34.3S34.1,4.5,49,4.5s28,3.9,34.3,10.2
				S93.5,34.1,93.5,49s-3.9,28-10.2,34.3S63.9,93.5,49,93.5z"/>
		</g>
		<g id="_128-2">
			
				<linearGradient id="SVGID_1_" gradientUnits="userSpaceOnUse" x1="47.45" y1="350.48" x2="47.45" y2="264.48" gradientTransform="matrix(1 0 0 1 0 -260.03)">
				<stop  offset="0" style="stop-color:#289AD8"/>
				<stop  offset="1" style="stop-color:#84D5F9"/>
			</linearGradient>
			<path class="st3" d="M80.7,80.7c-13,13-53.5,13-66.5,0s-13-53.5,0-66.5s53.5-13,66.5,0S93.7,67.8,80.7,80.7z"/>
		</g>
		
			<linearGradient id="SVGID_2_" gradientUnits="userSpaceOnUse" x1="47.45" y1="347.53" x2="47.45" y2="267.53" gradientTransform="matrix(1 0 0 1 0 -260.03)">
			<stop  offset="0" style="stop-color:#0288D1"/>
			<stop  offset="1" style="stop-color:#4FC3F7"/>
		</linearGradient>
		<path class="st4" d="M47.5,87.5c-13.7,0-25.6-3.4-31.1-8.8S7.5,61.2,7.5,47.5s3.4-25.6,8.9-31.1s17.4-8.9,31.1-8.9
			s25.6,3.4,31.1,8.9s8.8,17.4,8.8,31.1S84,73.1,78.5,78.6S61.2,87.5,47.5,87.5z"/>
	</g>
	<path class="st5" d="M62.8,36.2L69,30h-8l-2.2,2.2l-3.5,3.5l-0.7,0.7L48,42.9l-6.5-6.4l-0.8-0.8l-3.5-3.5L35,30h-8l6.1,6.1
		c-0.1,0.1-0.2,0.3-0.3,0.4c-6.1,8.3-4.2,20,4.1,26.1s20,4.2,26.1-4.1c4.7-6.5,4.7-15.4,0-21.9L62.8,36.2z M47.9,61.2
		c-7.6,0-13.8-6.2-13.8-13.8l0,0c0-2.8,0.9-5.6,2.5-7.8L44,47l4,4l4-4l7.3-7.3c1.6,2.3,2.4,5,2.4,7.7C61.7,55,55.5,61.1,47.9,61.2
		L47.9,61.2z"/>
</g>
</svg>
