<?xml version="1.0" encoding="utf-8"?>
<!-- Generator: Adobe Illustrator 24.0.0, SVG Export Plug-In . SVG Version: 6.00 Build 0)  -->
<svg version="1.1" id="图层_1" xmlns="http://www.w3.org/2000/svg" xmlns:xlink="http://www.w3.org/1999/xlink" x="0px" y="0px"
	 viewBox="0 0 96 96" style="enable-background:new 0 0 96 96;" xml:space="preserve">
<style type="text/css">
	.st0{opacity:0.2;}
	.st1{opacity:8.000000e-02;}
	.st2{opacity:0.1;}
	.st3{fill:url(#SVGID_1_);}
	.st4{fill:url(#SVGID_2_);}
	.st5{fill:url(#SVGID_3_);}
	.st6{fill:url(#SVGID_4_);}
	.st7{fill:#FFFFFF;}
	.st8{fill:#27D07F;}
	.st9{fill:#FF9843;}
</style>
<g id="_128">
	<g class="st0">
		<path d="M47.5,92c-14.9,0-28-3.9-34.3-10.2S3,62.4,3,47.5s3.9-28,10.2-34.3S32.6,3,47.5,3s28,3.9,34.3,10.2S92,32.6,92,47.5
			s-3.9,28-10.2,34.3S62.4,92,47.5,92z"/>
	</g>
	<g class="st1">
		<path d="M49,95c-15.3,0-28.8-4.1-35.4-10.6S3,64.3,3,49s4.1-28.8,10.6-35.4S33.7,3,49,3s28.8,4.1,35.4,10.6S95,33.7,95,49
			s-4.1,28.8-10.6,35.4S64.3,95,49,95z"/>
	</g>
	<g class="st2">
		<path d="M49,93.5c-14.9,0-28-3.9-34.3-10.2S4.5,63.9,4.5,49s3.9-28,10.2-34.3S34.1,4.5,49,4.5s28,3.9,34.3,10.2S93.5,34.1,93.5,49
			s-3.9,28-10.2,34.3S63.9,93.5,49,93.5z"/>
	</g>
	<g id="_128-2">
		
			<linearGradient id="SVGID_1_" gradientUnits="userSpaceOnUse" x1="47.4912" y1="149.48" x2="47.4912" y2="235.4513" gradientTransform="matrix(1 0 0 -1 0 239.97)">
			<stop  offset="0" style="stop-color:#289AD8"/>
			<stop  offset="1" style="stop-color:#84D5F9"/>
		</linearGradient>
		<path class="st3" d="M80.7,80.7c-13,13-53.5,13-66.5,0s-13-53.5,0-66.5s53.5-13,66.5,0S93.7,67.8,80.7,80.7z"/>
	</g>
	
		<linearGradient id="SVGID_2_" gradientUnits="userSpaceOnUse" x1="47.485" y1="152.51" x2="47.485" y2="232.45" gradientTransform="matrix(1 0 0 -1 0 239.97)">
		<stop  offset="0" style="stop-color:#0288D1"/>
		<stop  offset="1" style="stop-color:#4FC3F7"/>
	</linearGradient>
	<path class="st4" d="M47.5,87.5c-13.7,0-25.6-3.4-31.1-8.8S7.5,61.2,7.5,47.5s3.4-25.6,8.9-31.1s17.4-8.9,31.1-8.9
		s25.6,3.4,31.1,8.9s8.8,17.4,8.8,31.1s-3.4,25.6-8.9,31.1S61.2,87.5,47.5,87.5z"/>
</g>
<g id="图层_34">
	<g id="_96-2">
		
			<image style="overflow:visible;opacity:0.15;enable-background:new    ;" width="88" height="42" xlink:href="CEAFCA3F.png"  transform="matrix(1 0 0 1 4 42)">
		</image>
		
			<linearGradient id="SVGID_3_" gradientUnits="userSpaceOnUse" x1="48" y1="44" x2="48" y2="26" gradientTransform="matrix(1 0 0 -1 0 98)">
			<stop  offset="0" style="stop-color:#FFFFFF"/>
			<stop  offset="1" style="stop-color:#DBDBDB"/>
		</linearGradient>
		<path class="st5" d="M76,72H20c-2.2,0-4-1.8-4-4V56c0-1.1,0.9-2,2-2h60c1.1,0,2,0.9,2,2v12C80,70.2,78.2,72,76,72z"/>
		
			<image style="overflow:visible;opacity:0.1;enable-background:new    ;" width="78" height="64" xlink:href="CEAFCA3D.png"  transform="matrix(1 0 0 1 3 3)">
		</image>
		
			<linearGradient id="SVGID_4_" gradientUnits="userSpaceOnUse" x1="126.1589" y1="-138.0877" x2="119.5089" y2="-175.8077" gradientTransform="matrix(0.98 -0.17 -0.17 -0.98 -105.09 -98.41)">
			<stop  offset="0" style="stop-color:#F5F5F5"/>
			<stop  offset="1" style="stop-color:#CECECE"/>
		</linearGradient>
		<path class="st6" d="M16.8,48.9l46.7-32.7c0.9-0.6,2.1-0.4,2.8,0.5l1.7,2.5l-50,35l-1.7-2.5C15.7,50.8,15.9,49.5,16.8,48.9
			C16.8,48.9,16.8,48.9,16.8,48.9z"/>
		<path class="st7" d="M31,50h40c0.6,0,1,0.4,1,1l0,0c0,0.6-0.4,1-1,1H31c-0.6,0-1-0.4-1-1l0,0C30,50.4,30.4,50,31,50z"/>
		<g transform="translate(49 56)">
			
				<image style="overflow:visible;enable-background:new    ;" width="16" height="16" id="image" xlink:href="CEAFCA43.png"  transform="matrix(1 0 0 1 49 56)">
			</image>
		</g>
		<circle class="st8" cx="57" cy="64" r="2"/>
		<g transform="translate(57 56)">
			
				<image style="overflow:visible;enable-background:new    ;" width="16" height="16" id="image_2_" xlink:href="CEAFCA45.png"  transform="matrix(1 0 0 1 57 56)">
			</image>
		</g>
		<circle class="st8" cx="65" cy="64" r="2"/>
		<g transform="translate(65 56)">
			
				<image style="overflow:visible;enable-background:new    ;" width="16" height="16" id="image_3_" xlink:href="CEAFCA47.png"  transform="matrix(1 0 0 1 65 56)">
			</image>
		</g>
		<circle class="st9" cx="73" cy="64" r="2"/>
	</g>
</g>
</svg>
