<?xml version="1.0" encoding="utf-8"?>
<!-- Generator: Adobe Illustrator 24.0.0, SVG Export Plug-In . SVG Version: 6.00 Build 0)  -->
<svg version="1.1" id="图层_1" xmlns="http://www.w3.org/2000/svg" xmlns:xlink="http://www.w3.org/1999/xlink" x="0px" y="0px"
	 viewBox="0 0 96 96" style="enable-background:new 0 0 96 96;" xml:space="preserve">
<style type="text/css">
	.st0{opacity:0.2;}
	.st1{opacity:8.000000e-02;}
	.st2{opacity:0.1;}
	.st3{fill:url(#SVGID_1_);}
	.st4{fill:url(#SVGID_2_);}
	.st5{fill:url(#SVGID_3_);}
	.st6{fill:url(#SVGID_4_);}
	.st7{fill:url(#SVGID_5_);}
	.st8{opacity:0.15;fill:#FFFFFF;enable-background:new    ;}
	.st9{fill:#F76363;}
	.st10{fill:#29FFCC;}
	.st11{fill:url(#SVGID_6_);}
	.st12{opacity:0.3;fill:#FFFFFF;enable-background:new    ;}
	.st13{fill:url(#SVGID_7_);}
	.st14{fill:url(#SVGID_8_);}
	.st15{fill:url(#SVGID_9_);}
	.st16{opacity:0.3;fill:#F2F2F2;enable-background:new    ;}
</style>
<g id="_128">
	<g class="st0">
		<path d="M47.5,92c-14.9,0-28-3.9-34.3-10.2S3,62.4,3,47.5s3.9-28,10.2-34.3S32.6,3,47.5,3s28,3.9,34.3,10.2S92,32.6,92,47.5
			s-3.9,28-10.2,34.3S62.4,92,47.5,92z"/>
	</g>
	<g class="st1">
		<path d="M49,95c-15.3,0-28.8-4.1-35.4-10.6S3,64.3,3,49s4.1-28.8,10.6-35.4S33.7,3,49,3s28.8,4.1,35.4,10.6S95,33.7,95,49
			s-4.1,28.8-10.6,35.4S64.3,95,49,95z"/>
	</g>
	<g class="st2">
		<path d="M49,93.5c-14.9,0-28-3.9-34.3-10.2S4.5,63.9,4.5,49s3.9-28,10.2-34.3S34.1,4.5,49,4.5s28,3.9,34.3,10.2S93.5,34.1,93.5,49
			s-3.9,28-10.2,34.3S63.9,93.5,49,93.5z"/>
	</g>
	<g id="_128-2">
		
			<linearGradient id="SVGID_1_" gradientUnits="userSpaceOnUse" x1="47.4912" y1="149.48" x2="47.4912" y2="235.4513" gradientTransform="matrix(1 0 0 -1 0 239.97)">
			<stop  offset="1.000000e-02" style="stop-color:#6D7375"/>
			<stop  offset="1" style="stop-color:#BEBEC4"/>
		</linearGradient>
		<path class="st3" d="M80.7,80.7c-13,13-53.5,13-66.5,0s-13-53.5,0-66.5s53.5-13,66.5,0S93.7,67.8,80.7,80.7z"/>
	</g>
	
		<linearGradient id="SVGID_2_" gradientUnits="userSpaceOnUse" x1="47.485" y1="152.51" x2="47.485" y2="232.45" gradientTransform="matrix(1 0 0 -1 0 239.97)">
		<stop  offset="1.000000e-02" style="stop-color:#797F82"/>
		<stop  offset="1" style="stop-color:#C9C9CF"/>
	</linearGradient>
	<path class="st4" d="M47.5,87.5c-13.7,0-25.6-3.4-31.1-8.8S7.5,61.2,7.5,47.5s3.4-25.6,8.9-31.1s17.4-8.9,31.1-8.9
		s25.6,3.4,31.1,8.9s8.8,17.4,8.8,31.1s-3.4,25.6-8.9,31.1S61.2,87.5,47.5,87.5z"/>
</g>
<g id="图层_48">
	<g id="_96-2">
		
			<linearGradient id="SVGID_3_" gradientUnits="userSpaceOnUse" x1="48" y1="60.5" x2="48" y2="26.5" gradientTransform="matrix(1 0 0 -1 0 98)">
			<stop  offset="0" style="stop-color:#B7E3EA"/>
			<stop  offset="1" style="stop-color:#7DA1AD"/>
		</linearGradient>
		<path class="st5" d="M26,37.5h44c2.2,0,4,1.8,4,4v26c0,2.2-1.8,4-4,4H26c-2.2,0-4-1.8-4-4v-26C22,39.3,23.8,37.5,26,37.5z"/>
		
			<linearGradient id="SVGID_4_" gradientUnits="userSpaceOnUse" x1="48" y1="60.5" x2="48" y2="68.5" gradientTransform="matrix(1 0 0 -1 0 98)">
			<stop  offset="0" style="stop-color:#455A64"/>
			<stop  offset="1" style="stop-color:#263238"/>
		</linearGradient>
		<path class="st6" d="M33,29.5h30c1.1,0,2,0.9,2,2v6l0,0H31l0,0v-6C31,30.4,31.9,29.5,33,29.5z"/>
		
			<linearGradient id="SVGID_5_" gradientUnits="userSpaceOnUse" x1="48" y1="60.5" x2="48" y2="44.5" gradientTransform="matrix(1 0 0 -1 0 98)">
			<stop  offset="0" style="stop-color:#B7E3EA"/>
			<stop  offset="1" style="stop-color:#7DA1AD"/>
		</linearGradient>
		<path class="st7" d="M65,53.5H31c-1.7,0-3-1.3-3-3v-13l0,0h40l0,0v13C68,52.2,66.7,53.5,65,53.5z"/>
		<path class="st8" d="M26,37.5h44c2.2,0,4,1.8,4,4l0,0l0,0H22l0,0l0,0C22,39.3,23.8,37.5,26,37.5z"/>
		<circle class="st9" cx="70" cy="45" r="1.5"/>
		<circle class="st10" cx="70" cy="51" r="1.5"/>
		
			<linearGradient id="SVGID_6_" gradientUnits="userSpaceOnUse" x1="48" y1="75.5" x2="48" y2="60.5" gradientTransform="matrix(1 0 0 -1 0 98)">
			<stop  offset="0" style="stop-color:#FFB171"/>
			<stop  offset="1" style="stop-color:#F47B51"/>
		</linearGradient>
		<path class="st11" d="M58.1,22.5H34.8c-0.5,0-0.8,0.4-0.8,0.9v14.1h28V26.4L58.1,22.5z"/>
		<rect x="38" y="25.5" class="st12" width="20" height="1"/>
		<rect x="38" y="28.5" class="st12" width="20" height="1"/>
		<rect x="38" y="31.5" class="st12" width="20" height="1"/>
		<rect x="38" y="34.5" class="st12" width="20" height="1"/>
		
			<linearGradient id="SVGID_7_" gradientUnits="userSpaceOnUse" x1="48" y1="26.5" x2="48" y2="39.5" gradientTransform="matrix(1 0 0 -1 0 98)">
			<stop  offset="0" style="stop-color:#455A64"/>
			<stop  offset="1" style="stop-color:#263238"/>
		</linearGradient>
		<path class="st13" d="M29.3,58.5h37.4c0.7,0,1.3,0.6,1.3,1.3v11.7l0,0H28l0,0V59.8C28,59.1,28.6,58.5,29.3,58.5z"/>
		
			<linearGradient id="SVGID_8_" gradientUnits="userSpaceOnUse" x1="48.0005" y1="24.4973" x2="48.0005" y2="35.5001" gradientTransform="matrix(1 0 0 -1 0 98)">
			<stop  offset="0" style="stop-color:#FFB171"/>
			<stop  offset="1" style="stop-color:#F47B51"/>
		</linearGradient>
		<path class="st14" d="M66.9,72.8l-1.1-1.6l-0.6-0.9l-0.8-1.1l-0.6-0.9L63,66.8l-0.6-0.9l-0.8-1.2L61,63.9l-0.8-1.3
			c0-0.1-0.1-0.1-0.2-0.1H36c-0.1,0-0.2,0-0.2,0.1L35,63.9l-0.6,0.9l-0.8,1.2L33,66.9l-0.9,1.4l-0.6,0.9l-0.8,1.1l-0.6,0.9l-1.1,1.6
			c-0.1,0.2-0.1,0.5,0.2,0.6c0.1,0,0.2,0.1,0.3,0.1h37c0.3,0,0.5-0.2,0.5-0.4C67,73,67,72.9,66.9,72.8z"/>
		
			<linearGradient id="SVGID_9_" gradientUnits="userSpaceOnUse" x1="60.0225" y1="73.4675" x2="58.2225" y2="71.6675" gradientTransform="matrix(1 0 0 -1 0 98)">
			<stop  offset="0" style="stop-color:#FFA969"/>
			<stop  offset="1" style="stop-color:#F46E45"/>
		</linearGradient>
		<path class="st15" d="M58,25.7c0,0.5,0.4,0.9,0.9,0.9H62l-4-4.1V25.7z"/>
		<polygon class="st16" points="58.2,64.5 37.8,64.5 37.3,65.5 58.7,65.5 		"/>
		<polygon class="st16" points="36,68.5 60,68.5 59.5,67.5 36.5,67.5 		"/>
		<polygon class="st16" points="35,71.5 61,71.5 60.5,70.5 35.5,70.5 		"/>
	</g>
</g>
</svg>
