<?xml version="1.0" encoding="utf-8"?>
<!-- Generator: Adobe Illustrator 24.0.0, SVG Export Plug-In . SVG Version: 6.00 Build 0)  -->
<svg version="1.1" id="图层_1" xmlns="http://www.w3.org/2000/svg" xmlns:xlink="http://www.w3.org/1999/xlink" x="0px" y="0px"
	 viewBox="0 0 96 96" style="enable-background:new 0 0 96 96;" xml:space="preserve">
<style type="text/css">
	.st0{opacity:0.2;}
	.st1{opacity:8.000000e-02;}
	.st2{opacity:0.1;}
	.st3{fill:url(#SVGID_1_);}
	.st4{fill:url(#SVGID_2_);}
	.st5{fill:#0C0D10;}
	.st6{opacity:0.9;fill:url(#SVGID_3_);enable-background:new    ;}
	.st7{fill:#333233;}
	.st8{fill:url(#SVGID_4_);}
	.st9{fill:#FFFFFF;}
	.st10{opacity:0.3;fill:url(#SVGID_5_);enable-background:new    ;}
	.st11{opacity:0.26;fill:url(#SVGID_6_);enable-background:new    ;}
	.st12{opacity:0.6;fill:url(#投影_1_);enable-background:new    ;}
	.st13{fill:url(#音符_1_);}
	.st14{fill:url(#SVGID_7_);}
	.st15{opacity:0.8;fill:url(#反光_1_);enable-background:new    ;}
	.st16{fill:url(#高光_1_);}
	.st17{fill:none;}
	.st18{fill:url(#SVGID_8_);}
	.st19{fill:url(#SVGID_9_);}
</style>
<g id="_128">
	<g class="st0">
		<path d="M47.5,92c-14.9,0-28-3.9-34.3-10.2S3,62.4,3,47.5s3.9-28,10.2-34.3S32.6,3,47.5,3s28,3.9,34.3,10.2S92,32.6,92,47.5
			s-3.9,28-10.2,34.3S62.4,92,47.5,92z"/>
	</g>
	<g class="st1">
		<path d="M49,95c-15.3,0-28.8-4.1-35.4-10.6S3,64.3,3,49s4.1-28.8,10.6-35.4S33.7,3,49,3s28.8,4.1,35.4,10.6S95,33.7,95,49
			s-4.1,28.8-10.6,35.4S64.3,95,49,95z"/>
	</g>
	<g class="st2">
		<path d="M49,93.5c-14.9,0-28-3.9-34.3-10.2S4.5,63.9,4.5,49s3.9-28,10.2-34.3S34.1,4.5,49,4.5s28,3.9,34.3,10.2S93.5,34.1,93.5,49
			s-3.9,28-10.2,34.3S63.9,93.5,49,93.5z"/>
	</g>
	<g id="_128-2">
		
			<linearGradient id="SVGID_1_" gradientUnits="userSpaceOnUse" x1="47.4912" y1="149.48" x2="47.4912" y2="235.4513" gradientTransform="matrix(1 0 0 -1 0 239.97)">
			<stop  offset="0" style="stop-color:#DAE1E4"/>
			<stop  offset="1" style="stop-color:#F3F4FA"/>
		</linearGradient>
		<path class="st3" d="M80.7,80.7c-13,13-53.5,13-66.5,0s-13-53.5,0-66.5s53.5-13,66.5,0S93.7,67.8,80.7,80.7z"/>
	</g>
	
		<linearGradient id="SVGID_2_" gradientUnits="userSpaceOnUse" x1="47.485" y1="152.51" x2="47.485" y2="232.45" gradientTransform="matrix(1 0 0 -1 0 239.97)">
		<stop  offset="0" style="stop-color:#CFD8DC"/>
		<stop  offset="1" style="stop-color:#EBECF2"/>
	</linearGradient>
	<path class="st4" d="M47.5,87.5c-13.7,0-25.6-3.4-31.1-8.8S7.5,61.2,7.5,47.5s3.4-25.6,8.9-31.1s17.4-8.9,31.1-8.9
		s25.6,3.4,31.1,8.9s8.8,17.4,8.8,31.1s-3.4,25.6-8.9,31.1S61.2,87.5,47.5,87.5z"/>
</g>
<g id="麒麟音乐">
	<g id="_96-2">
		<path class="st5" d="M47.8,72.6c-13.8,0-25-11.2-25-25s11.2-25,25-25s25,11.2,25,25l0,0C72.8,61.4,61.7,72.6,47.8,72.6z"/>
		
			<linearGradient id="SVGID_3_" gradientUnits="userSpaceOnUse" x1="30.9819" y1="208.7444" x2="64.8436" y2="242.5961" gradientTransform="matrix(1 0 0 1 0 -178)">
			<stop  offset="0" style="stop-color:#FFFFFF;stop-opacity:0.4"/>
			<stop  offset="0.48" style="stop-color:#FFFFFF;stop-opacity:0.2"/>
			<stop  offset="1" style="stop-color:#FFFFFF;stop-opacity:0.3"/>
		</linearGradient>
		<path class="st6" d="M47.8,71.6c-13.2,0-23.9-10.8-23.9-24c0-13.2,10.8-23.9,24-23.9s23.9,10.8,23.9,24c0,11-7.5,20.5-18.1,23.2
			C51.8,71.4,49.8,71.6,47.8,71.6z M48,24c-2,0-3.9,0.2-5.8,0.7C29.5,27.9,21.8,40.8,25,53.5s16.1,20.3,28.7,17.1
			c12.7-3.2,20.3-16.1,17.1-28.7C68.2,31.4,58.8,24,48,24z"/>
		<path class="st7" d="M47.8,34.1c-7.4,0-13.4,6-13.4,13.4c0,7.4,6,13.4,13.4,13.4c7.4,0,13.4-6,13.4-13.4l0,0
			c0-7.4-5.9-13.4-13.3-13.4C47.9,34.1,47.8,34.1,47.8,34.1z M47.8,23.4c13.4,0,24.2,10.8,24.2,24.2c0,13.4-10.8,24.2-24.2,24.2
			c-13.3,0-24.2-10.8-24.2-24.2C23.6,34.2,34.4,23.4,47.8,23.4z"/>
		
			<linearGradient id="SVGID_4_" gradientUnits="userSpaceOnUse" x1="27.9189" y1="31.9482" x2="69.0689" y2="8.1882" gradientTransform="matrix(1 0 0 -1 0 68.05)">
			<stop  offset="0" style="stop-color:#6C7BA3;stop-opacity:0.3"/>
			<stop  offset="0.32" style="stop-color:#494E5E;stop-opacity:0.12"/>
			<stop  offset="0.53" style="stop-color:#313030;stop-opacity:0"/>
			<stop  offset="0.69" style="stop-color:#444854;stop-opacity:0.1"/>
			<stop  offset="1" style="stop-color:#6C7BA3;stop-opacity:0.3"/>
		</linearGradient>
		<path class="st8" d="M47.8,34.3c-7.4,0-13.3,6-13.3,13.3S40.5,61,47.8,61s13.3-6,13.3-13.3l0,0c0-7.3-5.9-13.3-13.2-13.3
			C48,34.3,47.9,34.3,47.8,34.3z M47.8,23.6c13.3,0,24,10.7,24,24s-10.7,24-24,24s-24-10.7-24-24S34.6,23.6,47.8,23.6z"/>
		<g class="st0">
			<path d="M47.8,24.6L47.8,24.6c-12.7,0-23,10.3-23,23s10.3,23,23,23s23-10.3,23-23S60.6,24.6,47.8,24.6z M47.8,70.4
				C35.2,70.4,25,60.2,25,47.6s10.2-22.8,22.8-22.8l0,0c12.6,0,22.8,10.2,22.8,22.8S60.5,70.4,47.8,70.4L47.8,70.4z"/>
			<path d="M47.8,25.4L47.8,25.4c-12.3,0-22.2,9.9-22.2,22.2s9.9,22.2,22.2,22.2s22.2-9.9,22.2-22.2C70.1,35.3,60.1,25.4,47.8,25.4
				C47.9,25.4,47.9,25.4,47.8,25.4z M47.8,69.6c-12.2,0-22-9.8-22-22s9.8-22,22-22s22,9.8,22,22C69.9,59.8,60,69.6,47.8,69.6
				C47.9,69.7,47.9,69.7,47.8,69.6z"/>
			<path d="M47.8,26.2c-11.8,0-21.4,9.6-21.4,21.4S36,69,47.8,69c11.8,0,21.4-9.6,21.4-21.4c0,0,0,0,0,0
				C69.2,35.8,59.6,26.3,47.8,26.2z M47.8,68.8c-11.7,0-21.2-9.4-21.2-21.1S36,26.4,47.8,26.4c11.7,0,21.2,9.4,21.2,21.1
				c0,0,0,0,0,0C69,59.3,59.5,68.8,47.8,68.8z"/>
			<path d="M47.8,27c-11.4,0-20.6,9.2-20.6,20.6s9.2,20.6,20.6,20.6c11.4,0,20.6-9.2,20.6-20.6C68.5,36.2,59.3,27,47.8,27
				C47.9,27,47.9,27,47.8,27z M47.8,68c-11.2,0-20.3-9.1-20.3-20.4c0-11.2,9.1-20.3,20.3-20.3l0,0c11.2,0,20.4,9.1,20.4,20.3
				C68.2,58.9,59.1,68,47.8,68C47.9,68,47.9,68,47.8,68z"/>
			<path d="M47.8,27.9L47.8,27.9C36.9,27.8,28,36.7,28,47.6c0,10.9,8.8,19.8,19.8,19.9c10.9,0,19.8-8.8,19.9-19.7
				C67.6,36.8,58.8,27.9,47.8,27.9C47.9,27.9,47.9,27.9,47.8,27.9z M47.8,67.2c-10.8,0-19.6-8.8-19.6-19.6S37,28,47.8,28
				s19.6,8.8,19.6,19.6l0,0C67.4,58.4,58.6,67.2,47.8,67.2z"/>
			<path d="M47.8,28.6L47.8,28.6c-10.5,0-19,8.5-19,19s8.5,19,19,19s19-8.5,19-19S58.3,28.7,47.8,28.6
				C47.8,28.6,47.8,28.6,47.8,28.6z M47.8,66.4C37.5,66.4,29.1,58,29,47.6s8.4-18.8,18.8-18.8c10.4,0,18.8,8.4,18.8,18.8
				c0,0,0,0,0,0C66.6,58,58.2,66.4,47.8,66.4z"/>
			<path d="M47.8,29.5c-10,0-18.2,8.1-18.2,18.1c0,10,8.1,18.2,18.1,18.2c10,0,18.2-8.1,18.2-18.1c0,0,0,0,0,0
				C66,37.6,57.9,29.5,47.8,29.5z M47.8,65.6c-9.9,0-17.9-8-17.9-17.9c0-9.9,8-17.9,17.9-17.9l0,0c9.9,0,17.9,8,17.9,17.9
				C65.8,57.5,57.8,65.5,47.8,65.6C47.9,65.6,47.9,65.6,47.8,65.6z"/>
			<path d="M47.8,30.3L47.8,30.3c-9.6,0-17.3,7.8-17.3,17.3s7.8,17.3,17.3,17.3s17.3-7.8,17.3-17.3S57.4,30.3,47.8,30.3L47.8,30.3z
				 M47.8,64.8c-9.5,0-17.2-7.7-17.2-17.1c0-9.5,7.7-17.2,17.1-17.2S65,38.1,65,47.6c0,0,0,0,0,0C65,57.1,57.3,64.8,47.8,64.8z"/>
			<path d="M47.8,31L47.8,31c-9.1,0-16.6,7.4-16.6,16.6s7.4,16.6,16.6,16.6s16.6-7.4,16.6-16.6C64.4,38.5,57,31.1,47.8,31
				C47.9,31,47.9,31,47.8,31z M47.8,64c-9,0-16.3-7.3-16.3-16.4s7.3-16.3,16.4-16.3c9,0,16.3,7.3,16.3,16.3l0,0
				C64.2,56.7,56.8,64,47.8,64z"/>
			<path d="M47.8,31.9L47.8,31.9c-8.7,0-15.7,7-15.7,15.7s7,15.7,15.7,15.7s15.7-7,15.7-15.7c0,0,0,0,0,0
				C63.5,38.9,56.5,31.9,47.8,31.9z M47.8,63.2c-8.6,0-15.5-6.9-15.5-15.5c0-8.6,6.9-15.5,15.5-15.5c8.6,0,15.5,6.9,15.5,15.5
				c0,0,0,0,0,0C63.4,56.2,56.4,63.1,47.8,63.2z"/>
			<path d="M47.8,32.7L47.8,32.7c-8.2,0-14.9,6.7-14.9,14.9s6.7,14.9,14.9,14.9s14.9-6.7,14.9-14.9C62.8,39.4,56.1,32.7,47.8,32.7
				C47.9,32.7,47.9,32.7,47.8,32.7z M47.8,62.4c-8.1,0-14.7-6.6-14.7-14.7c0-8.1,6.6-14.7,14.7-14.7c8.1,0,14.7,6.6,14.7,14.7
				C62.6,55.8,56,62.3,47.8,62.4C47.9,62.4,47.9,62.4,47.8,62.4z"/>
			<path d="M47.8,33.5L47.8,33.5c-7.8,0-14.1,6.3-14.1,14.1S40,61.8,47.9,61.8S62,55.5,62,47.7C62,39.9,55.7,33.5,47.8,33.5
				C47.9,33.5,47.9,33.5,47.8,33.5z M47.8,61.5c-7.7,0-13.9-6.2-13.9-13.9s6.2-13.9,13.9-13.9s13.9,6.2,13.9,13.9l0,0
				C61.8,55.3,55.6,61.5,47.8,61.5C47.9,61.5,47.9,61.5,47.8,61.5z"/>
		</g>
		<path class="st9" d="M59.4,47.6c0,6.4-5.2,11.5-11.6,11.5c-6.4,0-11.5-5.2-11.5-11.6c0-6.4,5.2-11.5,11.5-11.5l0,0
			C54.2,36,59.4,41.2,59.4,47.6"/>
		
			<radialGradient id="SVGID_5_" cx="34.08" cy="38.0044" r="16.9019" gradientTransform="matrix(1 0 0 -1.13 0 84.58)" gradientUnits="userSpaceOnUse">
			<stop  offset="0" style="stop-color:#6C7BA3;stop-opacity:0.8"/>
			<stop  offset="0.73" style="stop-color:#6C7BA3;stop-opacity:0"/>
		</radialGradient>
		<path class="st10" d="M34.3,47.6c0-6.2,4.2-11.6,10.2-13.1l-1.3-10.7C30.1,26.3,21.5,39,24,52.1c0.5,2.6,1.4,5.1,2.7,7.4l8.5-7.1
			C34.6,50.8,34.3,49.2,34.3,47.6z"/>
		
			<radialGradient id="SVGID_6_" cx="-4171.1748" cy="194.0705" r="16.8735" gradientTransform="matrix(-1 0 0 1.07 -4109.6797 -155.06)" gradientUnits="userSpaceOnUse">
			<stop  offset="0" style="stop-color:#6C7BA3;stop-opacity:0.8"/>
			<stop  offset="0.73" style="stop-color:#6C7BA3;stop-opacity:0"/>
		</radialGradient>
		<path class="st11" d="M61.2,47.6c0,6.2-4.2,11.6-10.2,13.1l1.3,10.7C65.4,68.9,74,56.2,71.6,43.1c-0.5-2.6-1.4-5.1-2.7-7.4
			l-8.5,7.1C61,44.4,61.2,46,61.2,47.6z"/>
		
			<radialGradient id="投影_1_" cx="37.7388" cy="22.8812" r="8.82" gradientTransform="matrix(1.02 0 0 -1.02 9.46 71.17)" gradientUnits="userSpaceOnUse">
			<stop  offset="0" style="stop-color:#FF7761"/>
			<stop  offset="0.7" style="stop-color:#FF7761"/>
			<stop  offset="0.97" style="stop-color:#FF7761;stop-opacity:0"/>
		</radialGradient>
		<circle id="投影" class="st12" cx="47.8" cy="47.6" r="9"/>
		
			<linearGradient id="音符_1_" gradientUnits="userSpaceOnUse" x1="57.201" y1="20.9227" x2="61.431" y2="51.0527" gradientTransform="matrix(1 0 0 -1 0 68.05)">
			<stop  offset="0" style="stop-color:#F94141"/>
			<stop  offset="1" style="stop-color:#FFBDAB"/>
		</linearGradient>
		<path id="音符" class="st13" d="M65.6,18.8c-2.4-2.2-5.4-3.4-8.6-3.4c-0.6,0-1,0.4-1.1,1l-3.6,25.8c-3.1-2.6-7.8-2.2-10.4,0.9
			c-2.6,3.1-2.2,7.8,0.9,10.4c3.1,2.6,7.8,2.2,10.4-0.9c0.7-0.9,1.3-1.9,1.5-3.1c0-0.1,0.1-0.1,0.1-0.1l3-22.1
			c1.9-0.5,3.8-0.2,5.5,0.7c1.3,0.9,2.7,1.5,4.3,1.7c2.7,0.2,6.6-0.1,9.7-2.8c0,0-6.5-1.7-10.1-6.3C66.6,19.9,66.1,19.4,65.6,18.8z"
			/>
		
			<linearGradient id="SVGID_7_" gradientUnits="userSpaceOnUse" x1="43.832" y1="27.4012" x2="51.8318" y2="13.5415" gradientTransform="matrix(1 0 0 -1 0 68.05)">
			<stop  offset="0" style="stop-color:#FF7272"/>
			<stop  offset="0.97" style="stop-color:#FC624F"/>
		</linearGradient>
		<circle class="st14" cx="47.8" cy="47.6" r="8"/>
		
			<radialGradient id="反光_1_" cx="47.85" cy="20.46" r="7.6" gradientTransform="matrix(1 0 0 -1 0 68.26)" gradientUnits="userSpaceOnUse">
			<stop  offset="0" style="stop-color:#FF7272;stop-opacity:0"/>
			<stop  offset="0.22" style="stop-color:#FF7575;stop-opacity:4.000000e-02"/>
			<stop  offset="0.39" style="stop-color:#FF7E7D;stop-opacity:8.000000e-02"/>
			<stop  offset="0.54" style="stop-color:#FF8F8B;stop-opacity:0.11"/>
			<stop  offset="0.67" style="stop-color:#FFA59F;stop-opacity:0.14"/>
			<stop  offset="0.8" style="stop-color:#FFC2B8;stop-opacity:0.16"/>
			<stop  offset="0.92" style="stop-color:#FFE6D7;stop-opacity:0.19"/>
			<stop  offset="1" style="stop-color:#FFFFED;stop-opacity:0.2"/>
		</radialGradient>
		<ellipse id="反光" class="st15" cx="47.8" cy="47.7" rx="7.6" ry="7.5"/>
		
			<radialGradient id="高光_1_" cx="46.93" cy="22.43" r="5.9" gradientTransform="matrix(1 0 0 -1 0 68.26)" gradientUnits="userSpaceOnUse">
			<stop  offset="0" style="stop-color:#FFFFFF;stop-opacity:0.3"/>
			<stop  offset="1" style="stop-color:#FFFFFF;stop-opacity:0"/>
		</radialGradient>
		<ellipse id="高光" class="st16" cx="46.9" cy="45.7" rx="6" ry="6"/>
		<rect x="40.2" y="40.1" class="st17" width="15.2" height="15.2"/>
		
			<linearGradient id="SVGID_8_" gradientUnits="userSpaceOnUse" x1="57.7" y1="40.4068" x2="77.12" y2="40.4068" gradientTransform="matrix(1 0 0 -1 0 68.05)">
			<stop  offset="0" style="stop-color:#FF7C74"/>
			<stop  offset="1" style="stop-color:#FC5151"/>
		</linearGradient>
		<path class="st18" d="M73.8,25.6c-3.4,2.2-6.3,2.6-8.6,1.2c-2.3-1.5-5.3-1.3-7.4,0.4c1.8-0.5,3.8-0.3,5.4,0.7
			c1.3,0.9,2.8,1.5,4.4,1.7c2.7,0.2,6.6-0.1,9.7-2.8C76,26.5,74.9,26.1,73.8,25.6z"/>
		
			<radialGradient id="SVGID_9_" cx="60.83" cy="77.32" r="5.09" gradientTransform="matrix(1 0 0 -1 0 98.17)" gradientUnits="userSpaceOnUse">
			<stop  offset="0" style="stop-color:#FFFFFF;stop-opacity:0.2"/>
			<stop  offset="1" style="stop-color:#FFFFFF;stop-opacity:0"/>
		</radialGradient>
		<path class="st19" d="M65.4,22.2c0.4-1,0.5-2.1,0.3-3.2l-0.1-0.1c-1.8-1.7-4.1-2.8-6.6-3.2c-1.3,0.7-2.3,1.9-2.8,3.2
			c-1,2.9,0.2,6,2.7,6.9S64.4,25.1,65.4,22.2z"/>
	</g>
</g>
</svg>
