<?xml version="1.0" encoding="utf-8"?>
<!-- Generator: Adobe Illustrator 24.0.0, SVG Export Plug-In . SVG Version: 6.00 Build 0)  -->
<svg version="1.1" id="图层_1" xmlns="http://www.w3.org/2000/svg" xmlns:xlink="http://www.w3.org/1999/xlink" x="0px" y="0px"
	 viewBox="0 0 96 96" style="enable-background:new 0 0 96 96;" xml:space="preserve">
<style type="text/css">
	.st0{opacity:0.2;}
	.st1{fill:url(#SVGID_1_);}
	.st2{opacity:8.000000e-02;}
	.st3{fill:url(#SVGID_2_);}
	.st4{opacity:0.1;}
	.st5{fill:url(#SVGID_3_);}
	.st6{fill:url(#SVGID_4_);}
	.st7{fill:url(#SVGID_5_);}
	.st8{opacity:0.2;enable-background:new    ;}
	.st9{fill:url(#SVGID-16_1_);}
	.st10{fill:#FF7955;}
	.st11{fill:#FFA537;}
	.st12{fill:#82CF5B;}
	.st13{fill:#1DB6F4;}
	.st14{fill:#9E3CFB;}
	.st15{opacity:0.1;fill:#222222;enable-background:new    ;}
	.st16{opacity:0.3;fill:#222222;enable-background:new    ;}
	.st17{opacity:0.4;}
	.st18{fill:#424242;}
	.st19{fill:#FFFFFF;}
	.st20{opacity:0.4;enable-background:new    ;}
	.st21{fill:#C6D4DB;}
	.st22{fill:url(#SVGID_6_);}
	.st23{fill:#CCCCCC;}
</style>
<g>
	<g id="_96">
		<g class="st0">
			
				<linearGradient id="SVGID_1_" gradientUnits="userSpaceOnUse" x1="48" y1="4650.9702" x2="48" y2="4560.9702" gradientTransform="matrix(1 0 0 1 0 -4557.9702)">
				<stop  offset="0" style="stop-color:#000000"/>
				<stop  offset="1" style="stop-color:#34484F"/>
			</linearGradient>
			<path class="st1" d="M48,93c-15.1,0-28.4-3.9-34.7-10.3c-13.6-13.6-13.6-55.8,0-69.5C19.6,6.9,32.9,3,48,3s28.4,3.9,34.7,10.3
				c13.6,13.6,13.6,55.8,0,69.5C76.4,89.1,63.1,93,48,93z"/>
		</g>
		<g class="st2">
			
				<linearGradient id="SVGID_2_" gradientUnits="userSpaceOnUse" x1="49" y1="4652.9702" x2="49" y2="4560.9702" gradientTransform="matrix(1 0 0 1 0 -4557.9702)">
				<stop  offset="0" style="stop-color:#000000"/>
				<stop  offset="1" style="stop-color:#34484F"/>
			</linearGradient>
			<path class="st3" d="M49,95c-15.3,0-28.9-4-35.5-10.6S3,64.4,3,49s4-29,10.5-35.5S33.7,3,49,3s28.9,4,35.4,10.6S95,33.6,95,49
				s-4,29-10.5,35.4S64.3,95,49,95z"/>
		</g>
		<g class="st4">
			
				<linearGradient id="SVGID_3_" gradientUnits="userSpaceOnUse" x1="49" y1="4651.9702" x2="49" y2="4561.9702" gradientTransform="matrix(1 0 0 1 0 -4557.9702)">
				<stop  offset="0" style="stop-color:#000000"/>
				<stop  offset="1" style="stop-color:#34484F"/>
			</linearGradient>
			<path class="st5" d="M49,94c-15.1,0-28.4-3.9-34.7-10.3c-13.6-13.6-13.6-55.8,0-69.5C20.6,7.9,33.9,4,49,4s28.4,3.9,34.7,10.3
				c13.6,13.6,13.6,55.8,0,69.5C77.4,90.1,64.1,94,49,94z"/>
		</g>
		<g id="_512">
			
				<linearGradient id="SVGID_4_" gradientUnits="userSpaceOnUse" x1="48" y1="4649.9453" x2="48" y2="4561.9951" gradientTransform="matrix(1 0 0 1 0 -4557.9702)">
				<stop  offset="0" style="stop-color:#FFB785"/>
				<stop  offset="0.53" style="stop-color:#89BED4"/>
				<stop  offset="1" style="stop-color:#35BAF6"/>
			</linearGradient>
			<path class="st6" d="M82,82c-13.3,13.3-54.7,13.3-68,0S0.7,27.3,14,14s54.7-13.3,68,0S95.3,68.7,82,82z"/>
		</g>
		<g id="_512-2">
			
				<linearGradient id="SVGID_5_" gradientUnits="userSpaceOnUse" x1="48.0438" y1="4645.9453" x2="48.0438" y2="4566.0327" gradientTransform="matrix(1 0 0 1 0 -4557.9702)">
				<stop  offset="0" style="stop-color:#FFA565"/>
				<stop  offset="0.53" style="stop-color:#7FB0C4"/>
				<stop  offset="1" style="stop-color:#03A9F4"/>
			</linearGradient>
			<path class="st7" d="M78.9,78.9c-12,12.1-49.8,12.1-61.8,0S5,29.1,17.1,17.1S66.9,5,79,17.1S91,66.9,78.9,78.9z"/>
		</g>
	</g>
	<g>
		<path class="st8" d="M75,78H21V24h54V78z"/>
		
			<linearGradient id="SVGID-16_1_" gradientUnits="userSpaceOnUse" x1="21" y1="4606.7202" x2="75" y2="4606.7202" gradientTransform="matrix(1 0 0 1 0 -4557.9702)">
			<stop  offset="0" style="stop-color:#F2F2F2"/>
			<stop  offset="8.000000e-02" style="stop-color:#F8F8F8"/>
			<stop  offset="0.25" style="stop-color:#FFFFFF"/>
			<stop  offset="0.5" style="stop-color:#FFFFFF"/>
			<stop  offset="0.75" style="stop-color:#FFFFFF"/>
			<stop  offset="1" style="stop-color:#F2F2F2"/>
		</linearGradient>
		<rect id="SVGID-16" x="21" y="22.5" class="st9" width="54" height="52.5"/>
	</g>
</g>
<g>
	<g id="麒麟软件中心">
		<g>
			<path class="st10" d="M21,52.5c0,4.6,0,22.5,0,22.5h12V47.4C28.5,47.3,24.1,49.1,21,52.5z"/>
			<path class="st11" d="M36,47.8c-1-0.2-2-0.3-3-0.4V75l10.2,0V49.3C41,49,38.4,48.5,36,47.8z"/>
			<path class="st12" d="M43,49.3V75h10V48.9C49.9,49.6,46.6,49.7,43,49.3z"/>
			<path class="st13" d="M63,44.3c-3,2.3-6.4,3.9-10.1,4.7V75H63L63,44.3C63,44.3,63,44.3,63,44.3z"/>
			<path class="st14" d="M64.9,42.7c-0.6,0.6-1.3,1.1-1.9,1.6V75h12V37.2C73.3,36.9,70.3,37.8,64.9,42.7z"/>
			<polygon class="st15" points="63,31.5 52.5,31.5 43.5,31.5 33,31.5 21,31.5 21,75 33,75 43.5,75 52.5,75 63,75 75,75 75,31.5 			
				"/>
			<rect x="21" y="72" class="st16" width="54" height="3"/>
		</g>
		<g class="st17">
			<path class="st18" d="M51.8,69c-0.8,0-1.5-0.1-2.2-0.4c-1.2-0.4-2.1-1.4-2.4-2.6c-0.2-0.6-0.3-1.3-0.3-2v-7.8h2.8v7.6
				c0,0.4,0,0.9,0.2,1.3c0.1,0.3,0.2,0.6,0.5,0.9c0.2,0.2,0.4,0.4,0.7,0.5s0.6,0.2,0.9,0.2c0.6,0,1.2-0.2,1.6-0.6
				c0.5-0.6,0.7-1.4,0.6-2.2v-7.6H57V64c0,0.7-0.1,1.4-0.3,2s-0.5,1.1-0.9,1.6c-0.4,0.4-1,0.8-1.6,1C53.3,68.9,52.5,69,51.8,69z"/>
			<path class="st18" d="M66.7,68.7c-0.3-0.4-0.5-0.8-0.9-1.3s-0.7-1-1.1-1.4s-0.8-0.9-1.2-1.4c-0.4-0.4-0.8-0.8-1.3-1.2v5.3h-2.8
				V56.2h2.8v4.7c0.7-0.8,1.4-1.6,2.2-2.4l2-2.3h3.3c-0.8,1-1.7,2-2.5,2.9s-1.7,1.9-2.7,2.8c1,0.9,2,1.9,2.8,3
				c1,1.2,1.8,2.5,2.6,3.8C69.9,68.7,66.7,68.7,66.7,68.7z"/>
		</g>
		<path class="st19" d="M51.8,68.6c-0.8,0-1.5-0.1-2.2-0.4c-1.2-0.4-2.1-1.4-2.5-2.6c-0.2-0.6-0.3-1.3-0.3-2v-7.9h2.8v7.6
			c0,0.4,0,0.9,0.2,1.3c0.1,0.3,0.2,0.6,0.5,0.9c0.2,0.2,0.4,0.4,0.7,0.5s0.6,0.2,0.9,0.2c0.6,0,1.2-0.2,1.6-0.6
			c0.5-0.6,0.7-1.4,0.6-2.2v-7.6h2.8v7.8c0,0.7-0.1,1.4-0.3,2s-0.5,1.1-0.9,1.6c-0.4,0.4-1,0.8-1.6,1C53.3,68.4,52.5,68.6,51.8,68.6
			z"/>
		<path class="st19" d="M66.7,68.3c-0.2-0.4-0.5-0.9-0.9-1.3c-0.3-0.5-0.7-1-1.1-1.4c-0.4-0.5-0.8-0.9-1.2-1.4
			c-0.4-0.4-0.8-0.8-1.3-1.2v5.3h-2.8V55.7h2.8v4.7c0.7-0.8,1.4-1.6,2.2-2.4l2-2.3h3.3c-0.8,1-1.7,2-2.5,2.9s-1.7,1.9-2.7,2.8
			c1,0.9,2,1.9,2.8,3c1,1.2,1.8,2.5,2.6,3.8L66.7,68.3z"/>
	</g>
	<g>
		<g>
			<g>
				<g>
					<path class="st20" d="M60.3,28.1c0,9.1-5.4,16.5-12,16.5s-12-7.4-12-16.5c0-0.4,0-0.7,0-1.1h-1.4c0,0.4,0,0.7,0,1.1
						c0,10.2,6,18.4,13.4,18.4s13.4-8.3,13.4-18.4c0-0.4,0-0.7,0-1.1h-1.4C60.3,27.4,60.3,27.7,60.3,28.1z"/>
					<path class="st21" d="M61.9,27.5c0,0.8-0.6,1.5-1.5,1.5c-0.8,0-1.5-0.6-1.5-1.5s0.6-1.5,1.5-1.5l0,0
						C61.2,26,61.9,26.6,61.9,27.5L61.9,27.5z M60.3,26.5c-0.5,0-0.9,0.5-0.9,1s0.5,0.9,1,0.9s0.9-0.4,0.9-0.9S60.9,26.5,60.3,26.5
						C60.4,26.6,60.3,26.6,60.3,26.5L60.3,26.5z"/>
					<path class="st21" d="M37.1,27.5c0,0.8-0.6,1.5-1.4,1.6c-0.8,0-1.5-0.6-1.6-1.4c0-0.8,0.6-1.5,1.4-1.6c0,0,0,0,0.1,0
						C36.4,26,37.1,26.7,37.1,27.5z M35.5,26.6c-0.5,0-0.9,0.5-0.8,1c0,0.5,0.5,0.9,1,0.8c0.5,0,0.8-0.4,0.8-0.9
						S36.1,26.6,35.5,26.6L35.5,26.6z"/>
					<g id="_96-2">
						<g>
							
								<radialGradient id="SVGID_6_" cx="47.8944" cy="61.95" r="12.3358" gradientTransform="matrix(1 0 0 -1 0 98)" gradientUnits="userSpaceOnUse">
								<stop  offset="0" style="stop-color:#D2E5F5"/>
								<stop  offset="7.000000e-02" style="stop-color:#C9E2F4"/>
								<stop  offset="0.19" style="stop-color:#AFDBF1"/>
								<stop  offset="0.34" style="stop-color:#86D0EC"/>
								<stop  offset="0.52" style="stop-color:#4CBFE5"/>
								<stop  offset="0.72" style="stop-color:#03ABDC"/>
								<stop  offset="0.73" style="stop-color:#00AADC"/>
								<stop  offset="0.77" style="stop-color:#0087C7"/>
								<stop  offset="0.99" style="stop-color:#006EA5"/>
							</radialGradient>
							<path class="st22" d="M59.7,28.6c0,8-5.2,14.4-11.7,14.4s-11.7-6.5-11.7-14.4c0-0.5,0-1.1,0.1-1.6h-1.7
								c0,0.5-0.1,1.1-0.1,1.6c0,9.1,6,16.5,13.4,16.5c7.3,0,13.4-7.4,13.4-16.5c0-0.5,0-1.1-0.1-1.6h-1.7
								C59.7,27.5,59.7,28.1,59.7,28.6z"/>
						</g>
						<rect x="21" y="21" class="st23" width="54" height="3"/>
					</g>
				</g>
			</g>
		</g>
	</g>
</g>
</svg>
