<?xml version="1.0" encoding="iso-8859-1"?>
<!-- Generator: Adobe Illustrator 21.0.0, SVG Export Plug-In . SVG Version: 6.00 Build 0)  -->
<svg version="1.0" id="&#x56FE;&#x5C42;_1" xmlns="http://www.w3.org/2000/svg" xmlns:xlink="http://www.w3.org/1999/xlink" x="0px"
	 y="0px" width="96px" height="96px" viewBox="0 0 96 96" enable-background="new 0 0 96 96" xml:space="preserve">
<title>96</title>
<g id="&#x5E95;&#x677F;_&#x590D;&#x5236;">
	<g id="_96">
		<g opacity="0.2">
			
				<linearGradient id="SVGID_1_" gradientUnits="userSpaceOnUse" x1="48" y1="4249" x2="48" y2="4159" gradientTransform="matrix(1 0 0 1 0 -4156.0005)">
				<stop  offset="0" style="stop-color:#000000"/>
				<stop  offset="1" style="stop-color:#34484F"/>
			</linearGradient>
			<path fill="url(#SVGID_1_)" d="M48,93c-15.1,0-28.4-3.9-34.7-10.3c-13.6-13.6-13.6-55.8,0-69.5C19.6,6.9,32.9,3,48,3
				s28.4,3.9,34.7,10.3c13.6,13.6,13.6,55.8,0,69.5C76.4,89.1,63.1,93,48,93z"/>
		</g>
		<g opacity="8.000000e-02">
			
				<linearGradient id="SVGID_2_" gradientUnits="userSpaceOnUse" x1="49" y1="4251" x2="49" y2="4159" gradientTransform="matrix(1 0 0 1 0 -4156.0005)">
				<stop  offset="0" style="stop-color:#000000"/>
				<stop  offset="1" style="stop-color:#34484F"/>
			</linearGradient>
			<path fill="url(#SVGID_2_)" d="M49,95c-15.3,0-28.9-4-35.5-10.6S3,64.4,3,49s4-29,10.5-35.5S33.7,3,49,3s28.9,4,35.4,10.6
				S95,33.6,95,49s-4,29-10.5,35.4S64.3,95,49,95z"/>
		</g>
		<g opacity="0.1">
			
				<linearGradient id="SVGID_3_" gradientUnits="userSpaceOnUse" x1="49" y1="4250" x2="49" y2="4160" gradientTransform="matrix(1 0 0 1 0 -4156.0005)">
				<stop  offset="0" style="stop-color:#000000"/>
				<stop  offset="1" style="stop-color:#34484F"/>
			</linearGradient>
			<path fill="url(#SVGID_3_)" d="M49,94c-15.1,0-28.4-3.9-34.7-10.3c-13.6-13.6-13.6-55.8,0-69.5C20.6,7.9,33.9,4,49,4
				s28.4,3.9,34.7,10.3c13.6,13.6,13.6,55.8,0,69.5C77.4,90.1,64.1,94,49,94z"/>
		</g>
		
			<linearGradient id="_512_1_" gradientUnits="userSpaceOnUse" x1="48" y1="4247.9751" x2="48" y2="4160.0254" gradientTransform="matrix(1 0 0 1 0 -4156.0005)">
			<stop  offset="0" style="stop-color:#1F98CA"/>
			<stop  offset="1" style="stop-color:#5CB7C1"/>
		</linearGradient>
		<path id="_512" fill="url(#_512_1_)" d="M82,82c-13.3,13.3-54.7,13.3-68,0S0.7,27.3,14,14s54.7-13.3,68,0S95.3,68.7,82,82z"/>
		
			<linearGradient id="_512-2_1_" gradientUnits="userSpaceOnUse" x1="48.0438" y1="4243.9751" x2="48.0438" y2="4164.0625" gradientTransform="matrix(1 0 0 1 0 -4156.0005)">
			<stop  offset="0" style="stop-color:#336FD1"/>
			<stop  offset="1" style="stop-color:#14B7B4"/>
		</linearGradient>
		<path id="_512-2" fill="url(#_512-2_1_)" d="M78.9,78.9c-12,12.1-49.8,12.1-61.8,0S5,29.1,17.1,17.1S66.9,5,79,17.1
			S91,66.9,78.9,78.9z"/>
	</g>
</g>
<g id="&#x9E92;&#x9E9F;&#x4F20;&#x4E66;">
	<g id="&#x9E92;&#x9E9F;&#x4F20;&#x4E66;-2">
		<polygon fill="#1F4C8C" points="68.6,36.9 20.5,29 26.4,70 38.7,83.4 53.6,63.1 54.1,63.7 63,72.8 65.2,50.9 82,45 		"/>
		<polygon fill="#A5A5A5" points="57.4,55.4 63,69.2 20.6,25.3 		"/>
		<polygon fill="#919191" points="54.8,54.5 54.6,60.4 52.4,58.2 		"/>
		<polygon fill="#EFEFEF" points="65.4,46.1 20.6,25.3 68.6,33.2 82,41.3 		"/>
		<polyline fill="#DCDDDD" points="20.6,25.3 54.8,54.5 63,69.2 65.4,46.1 		"/>
		<polygon opacity="0.7" fill="#919191" enable-background="new    " points="68.6,33.2 46.5,37.3 46.2,52.4 45,36.7 		"/>
		<polygon fill="#D3D3D3" points="45,36.7 46.3,52.8 20.6,25.3 		"/>
		<polygon fill="#FFFFFF" points="45,36.7 20.6,25.3 68.6,33.2 		"/>
		<polygon fill="#EFEFEF" points="54.8,54.5 20.6,25.3 26.4,66.4 38.7,79.7 		"/>
		<polygon opacity="0.7" fill="#919191" enable-background="new    " points="40.1,42 41.3,42.9 26.4,66.4 		"/>
		<polygon fill="#FFFFFF" points="40.2,41.9 20.6,25.3 26.4,66.4 		"/>
	</g>
</g>
</svg>
