<?xml version="1.0" encoding="utf-8"?>
<!-- Generator: Adobe Illustrator 24.0.0, SVG Export Plug-In . SVG Version: 6.00 Build 0)  -->
<svg version="1.1" id="图层_1" xmlns="http://www.w3.org/2000/svg" xmlns:xlink="http://www.w3.org/1999/xlink" x="0px" y="0px"
	 viewBox="0 0 96 96" style="enable-background:new 0 0 96 96;" xml:space="preserve">
<style type="text/css">
	.st0{opacity:0.2;}
	.st1{opacity:8.000000e-02;}
	.st2{opacity:0.1;}
	.st3{fill:url(#SVGID_1_);}
	.st4{fill:url(#SVGID_2_);}
	.st5{fill:url(#SVGID_3_);}
	.st6{fill:url(#SVGID_4_);}
	.st7{fill:url(#SVGID_5_);}
</style>
<g id="_128">
	<g class="st0">
		<path d="M47.5,92c-14.9,0-28-3.9-34.3-10.2S3,62.4,3,47.5s3.9-28,10.2-34.3S32.6,3,47.5,3s28,3.9,34.3,10.2S92,32.6,92,47.5
			s-3.9,28-10.2,34.3S62.4,92,47.5,92z"/>
	</g>
	<g class="st1">
		<path d="M49,95c-15.3,0-28.8-4.1-35.4-10.6S3,64.3,3,49s4.1-28.8,10.6-35.4S33.7,3,49,3s28.8,4.1,35.4,10.6S95,33.7,95,49
			s-4.1,28.8-10.6,35.4S64.3,95,49,95z"/>
	</g>
	<g class="st2">
		<path d="M49,93.5c-14.9,0-28-3.9-34.3-10.2S4.5,63.9,4.5,49s3.9-28,10.2-34.3S34.1,4.5,49,4.5s28,3.9,34.3,10.2S93.5,34.1,93.5,49
			s-3.9,28-10.2,34.3S63.9,93.5,49,93.5z"/>
	</g>
	<g id="_128-2">
		
			<linearGradient id="SVGID_1_" gradientUnits="userSpaceOnUse" x1="47.4912" y1="149.48" x2="47.4912" y2="235.4513" gradientTransform="matrix(1 0 0 -1 0 239.97)">
			<stop  offset="0" style="stop-color:#DAE1E4"/>
			<stop  offset="1" style="stop-color:#F3F4FA"/>
		</linearGradient>
		<path class="st3" d="M80.7,80.7c-13,13-53.5,13-66.5,0s-13-53.5,0-66.5s53.5-13,66.5,0S93.7,67.8,80.7,80.7z"/>
	</g>
	
		<linearGradient id="SVGID_2_" gradientUnits="userSpaceOnUse" x1="47.485" y1="152.51" x2="47.485" y2="232.45" gradientTransform="matrix(1 0 0 -1 0 239.97)">
		<stop  offset="0" style="stop-color:#CFD8DC"/>
		<stop  offset="1" style="stop-color:#EBECF2"/>
	</linearGradient>
	<path class="st4" d="M47.5,87.5c-13.7,0-25.6-3.4-31.1-8.8S7.5,61.2,7.5,47.5s3.4-25.6,8.9-31.1s17.4-8.9,31.1-8.9
		s25.6,3.4,31.1,8.9s8.8,17.4,8.8,31.1s-3.4,25.6-8.9,31.1S61.2,87.5,47.5,87.5z"/>
</g>
<g id="服务与支持">
	<g id="_96-2">
		
			<linearGradient id="SVGID_3_" gradientUnits="userSpaceOnUse" x1="780.8414" y1="778.0214" x2="780.8414" y2="828.4114" gradientTransform="matrix(-0.71 0.71 -0.71 -0.71 1163.7699 56.95)">
			<stop  offset="0" style="stop-color:#A05BF7"/>
			<stop  offset="0.79" style="stop-color:#E967F5"/>
			<stop  offset="1" style="stop-color:#F5AFFA"/>
		</linearGradient>
		<path class="st5" d="M48.9,78l11-11.1c8.8-8.9,8.8-23.2,0-32.1L48.8,23.6c-7.4-7.5-19.4-7.5-26.9-0.1c0,0-0.1,0.1-0.1,0.1l0,0
			c-7.4,7.5-7.4,19.6,0,27.1L48.9,78z"/>
		
			<linearGradient id="SVGID_4_" gradientUnits="userSpaceOnUse" x1="714.0496" y1="809.6741" x2="746.9696" y2="810.6141" gradientTransform="matrix(-0.71 0.71 -0.71 -0.71 1152.62 95.66)">
			<stop  offset="0" style="stop-color:#21E8FA"/>
			<stop  offset="1" style="stop-color:#96FAD5"/>
		</linearGradient>
		<circle class="st6" cx="61" cy="37" r="19"/>
		
			<linearGradient id="SVGID_5_" gradientUnits="userSpaceOnUse" x1="42.5364" y1="82.4339" x2="78.1564" y2="115.2339" gradientTransform="matrix(1 0 0 -1 -11.15 136.71)">
			<stop  offset="3.000000e-02" style="stop-color:#000000;stop-opacity:0"/>
			<stop  offset="0.72" style="stop-color:#000000;stop-opacity:0.15"/>
			<stop  offset="0.92" style="stop-color:#000000;stop-opacity:0"/>
		</linearGradient>
		<path class="st7" d="M80,37c0-10.5-8.5-19-19-19c-4.8,0-9.4,1.8-12.9,5.1c-7.5-7-19.2-6.8-26.5,0.5c-7.4,7.5-7.4,19.6,0,27.1
			L48.8,78l11-11.1c3.2-3.2,5.4-7.2,6.3-11.6C74.3,53.1,80,45.6,80,37z"/>
	</g>
</g>
</svg>
