<?xml version="1.0" encoding="utf-8"?>
<!-- Generator: Adobe Illustrator 24.0.0, SVG Export Plug-In . SVG Version: 6.00 Build 0)  -->
<svg version="1.1" id="图层_1" xmlns="http://www.w3.org/2000/svg" xmlns:xlink="http://www.w3.org/1999/xlink" x="0px" y="0px"
	 viewBox="0 0 96 96" style="enable-background:new 0 0 96 96;" xml:space="preserve">
<style type="text/css">
	.st0{opacity:0.2;}
	.st1{opacity:8.000000e-02;}
	.st2{opacity:0.1;}
	.st3{fill:url(#SVGID_1_);}
	.st4{fill:url(#SVGID_2_);}
	.st5{fill-rule:evenodd;clip-rule:evenodd;fill:url(#形状结合_1_);}
	.st6{fill:none;stroke:#1B579E;stroke-width:5;stroke-linecap:round;stroke-miterlimit:10;}
	.st7{fill:#C3D0D8;}
	.st8{fill:url(#SVGID_3_);}
	.st9{fill:#ADBCC4;}
	.st10{fill:none;stroke:#909496;stroke-width:2;stroke-linecap:round;stroke-miterlimit:10;}
</style>
<g id="_128">
	<g class="st0">
		<path d="M47.5,92c-14.9,0-28-3.9-34.3-10.2S3,62.4,3,47.5s3.9-28,10.2-34.3S32.6,3,47.5,3s28,3.9,34.3,10.2S92,32.6,92,47.5
			s-3.9,28-10.2,34.3S62.4,92,47.5,92z"/>
	</g>
	<g class="st1">
		<path d="M49,95c-15.3,0-28.8-4.1-35.4-10.6S3,64.3,3,49s4.1-28.8,10.6-35.4S33.7,3,49,3s28.8,4.1,35.4,10.6S95,33.7,95,49
			s-4.1,28.8-10.6,35.4S64.3,95,49,95z"/>
	</g>
	<g class="st2">
		<path d="M49,93.5c-14.9,0-28-3.9-34.3-10.2S4.5,63.9,4.5,49s3.9-28,10.2-34.3S34.1,4.5,49,4.5s28,3.9,34.3,10.2S93.5,34.1,93.5,49
			s-3.9,28-10.2,34.3S63.9,93.5,49,93.5z"/>
	</g>
	<g id="_128-2">
		
			<linearGradient id="SVGID_1_" gradientUnits="userSpaceOnUse" x1="47.4912" y1="149.48" x2="47.4912" y2="235.4513" gradientTransform="matrix(1 0 0 -1 0 239.97)">
			<stop  offset="1.000000e-02" style="stop-color:#6D7375"/>
			<stop  offset="1" style="stop-color:#BEBEC4"/>
		</linearGradient>
		<path class="st3" d="M80.7,80.7c-13,13-53.5,13-66.5,0s-13-53.5,0-66.5s53.5-13,66.5,0S93.7,67.8,80.7,80.7z"/>
	</g>
	
		<linearGradient id="SVGID_2_" gradientUnits="userSpaceOnUse" x1="47.485" y1="152.51" x2="47.485" y2="232.45" gradientTransform="matrix(1 0 0 -1 0 239.97)">
		<stop  offset="1.000000e-02" style="stop-color:#797F82"/>
		<stop  offset="1" style="stop-color:#C9C9CF"/>
	</linearGradient>
	<path class="st4" d="M47.5,87.5c-13.7,0-25.6-3.4-31.1-8.8S7.5,61.2,7.5,47.5s3.4-25.6,8.9-31.1s17.4-8.9,31.1-8.9
		s25.6,3.4,31.1,8.9s8.8,17.4,8.8,31.1s-3.4,25.6-8.9,31.1S61.2,87.5,47.5,87.5z"/>
</g>
<g id="图层_28">
	<g id="_96-2">
		
			<linearGradient id="形状结合_1_" gradientUnits="userSpaceOnUse" x1="-1044.2483" y1="73.3761" x2="-1044.2483" y2="72.8864" gradientTransform="matrix(125.33 0 0 -79.64 130923.6406 5864.2505)">
			<stop  offset="0" style="stop-color:#4399FE"/>
			<stop  offset="1" style="stop-color:#4376FE"/>
		</linearGradient>
		<path id="形状结合" class="st5" d="M28.1,59L28.1,59c-5.2-0.4-9.2-4.8-9.1-10c-0.1-4.8,3.3-8.9,7.9-9.8
			c0-10.7,8.2-19.3,18.3-19.3c7.2,0,13.5,4.4,16.6,11c0.5,0,1.2-0.2,1.9-0.2C71,30.7,77,37.1,77,44.9c0.2,7.4-5.4,13.6-12.8,14.1
			H28.1z"/>
		<line class="st6" x1="29" y1="49.5" x2="67" y2="49.5"/>
		<path class="st7" d="M56,76H33c-1.7,0-3-1.3-3-3V49h36v17L56,76z"/>
		
			<linearGradient id="SVGID_3_" gradientUnits="userSpaceOnUse" x1="48" y1="229" x2="48" y2="254" gradientTransform="matrix(1 0 0 1 0 -180)">
			<stop  offset="0" style="stop-color:#FFFFFF"/>
			<stop  offset="0.8" style="stop-color:#D1EAFF"/>
			<stop  offset="1" style="stop-color:#E7F4FF"/>
		</linearGradient>
		<path class="st8" d="M56.7,74H34c-1.1,0-2-0.9-2-2V49h32v17.7L56.7,74z"/>
		<path class="st9" d="M56,76v-7c0-1.7,1.3-3,3-3h7L56,76z"/>
		<line class="st10" x1="38" y1="67" x2="50" y2="67"/>
		<line class="st10" x1="38" y1="61" x2="58" y2="61"/>
		<line class="st10" x1="38" y1="55" x2="58" y2="55"/>
	</g>
</g>
</svg>
