<?xml version="1.0" encoding="utf-8"?>
<!-- Generator: Adobe Illustrator 24.0.0, SVG Export Plug-In . SVG Version: 6.00 Build 0)  -->
<svg version="1.1" id="图层_1" xmlns="http://www.w3.org/2000/svg" xmlns:xlink="http://www.w3.org/1999/xlink" x="0px" y="0px"
	 viewBox="0 0 96 96" style="enable-background:new 0 0 96 96;" xml:space="preserve">
<style type="text/css">
	.st0{opacity:0.2;}
	.st1{opacity:8.000000e-02;}
	.st2{opacity:0.1;}
	.st3{fill:url(#SVGID_1_);}
	.st4{fill:url(#SVGID_2_);}
	.st5{fill-rule:evenodd;clip-rule:evenodd;fill:url(#Fill-1_1_);}
	.st6{fill-rule:evenodd;clip-rule:evenodd;fill:url(#Fill-1-2_1_);}
	.st7{fill-rule:evenodd;clip-rule:evenodd;fill:url(#Fill-3_1_);}
	.st8{fill-rule:evenodd;clip-rule:evenodd;fill:url(#SVGID_3_);}
	.st9{fill:url(#路径-8_1_);}
	.st10{fill-rule:evenodd;clip-rule:evenodd;fill:url(#Fill-5_1_);}
	.st11{fill-rule:evenodd;clip-rule:evenodd;fill:#FFFFFF;}
	.st12{fill-rule:evenodd;clip-rule:evenodd;fill:#F1F4FF;}
	.st13{opacity:0.47;fill-rule:evenodd;clip-rule:evenodd;fill:#D3E2F3;enable-background:new    ;}
	.st14{fill-rule:evenodd;clip-rule:evenodd;fill:#5B7AFF;}
	.st15{fill-rule:evenodd;clip-rule:evenodd;fill:#5978FC;}
	.st16{fill-rule:evenodd;clip-rule:evenodd;fill:url(#path-8_1_);}
	.st17{fill-rule:evenodd;clip-rule:evenodd;fill:url(#SVGID_4_);}
	.st18{fill:url(#SVGID_5_);}
</style>
<g id="_128">
	<g class="st0">
		<path d="M47.5,92c-14.9,0-28-3.9-34.3-10.2S3,62.4,3,47.5s3.9-28,10.2-34.3S32.6,3,47.5,3s28,3.9,34.3,10.2S92,32.6,92,47.5
			s-3.9,28-10.2,34.3S62.4,92,47.5,92z"/>
	</g>
	<g class="st1">
		<path d="M49,95c-15.3,0-28.8-4.1-35.4-10.6S3,64.3,3,49s4.1-28.8,10.6-35.4S33.7,3,49,3s28.8,4.1,35.4,10.6S95,33.7,95,49
			s-4.1,28.8-10.6,35.4S64.3,95,49,95z"/>
	</g>
	<g class="st2">
		<path d="M49,93.5c-14.9,0-28-3.9-34.3-10.2S4.5,63.9,4.5,49s3.9-28,10.2-34.3S34.1,4.5,49,4.5s28,3.9,34.3,10.2S93.5,34.1,93.5,49
			s-3.9,28-10.2,34.3S63.9,93.5,49,93.5z"/>
	</g>
	<g id="_128-2">
		
			<linearGradient id="SVGID_1_" gradientUnits="userSpaceOnUse" x1="47.4912" y1="149.48" x2="47.4912" y2="235.4513" gradientTransform="matrix(1 0 0 -1 0 239.97)">
			<stop  offset="0" style="stop-color:#DAE1E4"/>
			<stop  offset="1" style="stop-color:#F3F4FA"/>
		</linearGradient>
		<path class="st3" d="M80.7,80.7c-13,13-53.5,13-66.5,0s-13-53.5,0-66.5s53.5-13,66.5,0S93.7,67.8,80.7,80.7z"/>
	</g>
	
		<linearGradient id="SVGID_2_" gradientUnits="userSpaceOnUse" x1="47.485" y1="152.51" x2="47.485" y2="232.45" gradientTransform="matrix(1 0 0 -1 0 239.97)">
		<stop  offset="0" style="stop-color:#CFD8DC"/>
		<stop  offset="1" style="stop-color:#EBECF2"/>
	</linearGradient>
	<path class="st4" d="M47.5,87.5c-13.7,0-25.6-3.4-31.1-8.8S7.5,61.2,7.5,47.5s3.4-25.6,8.9-31.1s17.4-8.9,31.1-8.9
		s25.6,3.4,31.1,8.9s8.8,17.4,8.8,31.1s-3.4,25.6-8.9,31.1S61.2,87.5,47.5,87.5z"/>
</g>
<g id="U盘启动">
	<g id="_96-2">
		
			<linearGradient id="Fill-1_1_" gradientUnits="userSpaceOnUse" x1="-953.8708" y1="91.8265" x2="-953.6009" y2="92.4165" gradientTransform="matrix(109.13 0 0 108.98 104127.25 -10006.1523)">
			<stop  offset="0" style="stop-color:#8AF7FF"/>
			<stop  offset="1" style="stop-color:#4848FF"/>
		</linearGradient>
		<path id="Fill-1" class="st5" d="M48,82L48,82c-17.7,0-32-14.3-32-32V18h64v32C80,67.7,65.7,82,48,82"/>
		
			<linearGradient id="Fill-1-2_1_" gradientUnits="userSpaceOnUse" x1="-953.9293" y1="92.0138" x2="-953.4992" y2="92.3839" gradientTransform="matrix(109.13 0 0 108.99 104127.9141 -10006.4805)">
			<stop  offset="0" style="stop-color:#8ADAFF"/>
			<stop  offset="1" style="stop-color:#4848FF"/>
		</linearGradient>
		<path id="Fill-1-2" class="st6" d="M58.7,18v13.2h2.7v18c0,6.3-5.2,11.5-11.5,11.5h-3.7c-6.4,0-11.5-5.2-11.5-11.5v-18h2.7V18H16
			v32c0,17.7,14.3,32,32,32s32-14.3,32-32V18H58.7z"/>
		
			<linearGradient id="Fill-3_1_" gradientUnits="userSpaceOnUse" x1="-948.6196" y1="91.7732" x2="-948.3297" y2="92.7432" gradientTransform="matrix(67.75 0 0 79.69 64283.7891 -7339.8301)">
			<stop  offset="0" style="stop-color:#8AF7FF"/>
			<stop  offset="1" style="stop-color:#4848FF"/>
		</linearGradient>
		<path id="Fill-3" class="st7" d="M55.7,59c-1.8,1-3.8,1.6-5.8,1.6h-3.7c-6.4,0-8.8-29.4-8.8-29.4V18H16v31.9
			c0,2.5,0.3,5.1,0.9,7.5C28.1,66.6,43.9,67.2,55.7,59"/>
		
			<linearGradient id="SVGID_3_" gradientUnits="userSpaceOnUse" x1="19.9612" y1="11.2926" x2="35.2712" y2="62.6926" gradientTransform="matrix(1 0 0 -1 0 98)">
			<stop  offset="0" style="stop-color:#FFFFFF;stop-opacity:0"/>
			<stop  offset="1" style="stop-color:#FEFEFE"/>
		</linearGradient>
		<path class="st8" d="M16.4,18H16c0.4,24.8,13,44.8,28.5,44.8c2.6,0,5.2-0.5,7.5-1.6c-2.3,1-4.7,1.5-7.2,1.4
			C29.4,62.6,16.8,42.8,16.4,18z"/>
		
			<linearGradient id="路径-8_1_" gradientUnits="userSpaceOnUse" x1="-944.2512" y1="96.9848" x2="-943.6613" y2="97.0148" gradientTransform="matrix(52.14 0 0 13.61 49252.9414 -1258.9299)">
			<stop  offset="0" style="stop-color:#C0E2FF"/>
			<stop  offset="1" style="stop-color:#FFFFFF;stop-opacity:0"/>
		</linearGradient>
		<path id="路径-8" class="st9" d="M17,57.8c7.7,7,19.3,9,30.4,5.9l-0.2-0.5c-12,3.8-23.8,0.2-30.4-6.1L17,57.8z"/>
		
			<linearGradient id="Fill-5_1_" gradientUnits="userSpaceOnUse" x1="-948.2798" y1="92.4731" x2="-948.3898" y2="92.9131" gradientTransform="matrix(67.75 0 0 79.69 64283.7891 -7339.8301)">
			<stop  offset="0" style="stop-color:#8AF7FF"/>
			<stop  offset="1" style="stop-color:#4848FF"/>
		</linearGradient>
		<path id="Fill-5" class="st10" d="M16,18L16,18v31.9c0,2.5,0.3,5.1,0.9,7.5c11.2,9.1,27,9.8,38.8,1.6c0,0-0.1,0-0.1,0
			c-3.3,2.3-7.2,3.6-11.2,3.7C29,62.8,16.4,42.8,16,18z"/>
		<polygon id="Fill-5-2" class="st11" points="37.3,31.2 58.7,31.2 58.7,18 37.3,18 		"/>
		<polygon id="Fill-5备份-2" class="st12" points="45.4,31.1 58.7,31.2 58.7,18 39.1,18 		"/>
		<polygon id="Fill-5备份" class="st13" points="37.3,31 58.7,31 58.7,29.6 37.3,30.5 		"/>
		<polygon id="Fill-7" class="st14" points="41.1,26.4 45,26.4 45,22.6 41.1,22.6 		"/>
		<polygon id="Fill-8" class="st15" points="51,26.4 54.9,26.4 54.9,22.6 51,22.6 		"/>
		
			<linearGradient id="path-8_1_" gradientUnits="userSpaceOnUse" x1="-941.2659" y1="93.4407" x2="-941.6559" y2="92.9307" gradientTransform="matrix(45.53 0 0 50.18 42913.1523 -4632.4307)">
			<stop  offset="0" style="stop-color:#BACBFF"/>
			<stop  offset="1" style="stop-color:#FFFFFF"/>
		</linearGradient>
		<path id="path-8" class="st16" d="M46.2,63c-6.2,0-11.2-5.3-11.2-11.8V31H61v20.1C61,57.7,56,63,49.8,63H46.2z"/>
		
			<linearGradient id="SVGID_4_" gradientUnits="userSpaceOnUse" x1="59.6637" y1="37.8872" x2="38.4237" y2="48.9372" gradientTransform="matrix(1 0 0 -1 0 98)">
			<stop  offset="0" style="stop-color:#D4DFFF"/>
			<stop  offset="1" style="stop-color:#FFFFFF"/>
		</linearGradient>
		<path class="st17" d="M49.8,61.4h-3.6c-6.2,0-11.2-5.3-11.2-11.8v1.5c0,6.5,5,11.8,11.2,11.8h3.6C56,63,61,57.7,61,51.1v-1.5
			C61,56.1,56,61.4,49.8,61.4z"/>
		
			<linearGradient id="SVGID_5_" gradientUnits="userSpaceOnUse" x1="47.3668" y1="63.2168" x2="48.1468" y2="41.9168" gradientTransform="matrix(1 0 0 -1 0 98)">
			<stop  offset="0" style="stop-color:#6DA8FD"/>
			<stop  offset="1" style="stop-color:#5364FF"/>
		</linearGradient>
		<path class="st18" d="M54.1,42.4c-0.1-0.8-0.8-1.5-1.6-1.4c-0.7,0.1-1.3,0.7-1.4,1.4c0,0.5,0.3,1,0.8,1.3v0.2c0,0.6-2,1.6-3,2.2
			v-6.8h1.5L48,34.8l-2.3,4.6h1.5v8.3c-2.2-0.8-3.7-2.9-3.8-5.3h0.8v-3h-3v3h0.8c0.1,3.1,2.1,5.8,5.1,6.8l0.2,0.1v2.4
			c-1.2,0.4-1.8,1.7-1.4,2.9c0.4,1.2,1.7,1.8,2.9,1.4c1.2-0.4,1.8-1.7,1.4-2.9c-0.2-0.7-0.7-1.2-1.4-1.4v-3.9l0.3-0.2
			c0.6-0.3,4.2-1.8,4.2-3.7v-0.2C53.8,43.4,54.1,42.9,54.1,42.4z"/>
	</g>
</g>
</svg>
