<?xml version="1.0" encoding="utf-8"?>
<!-- Generator: Adobe Illustrator 24.0.0, SVG Export Plug-In . SVG Version: 6.00 Build 0)  -->
<svg version="1.1" id="图层_1" xmlns="http://www.w3.org/2000/svg" xmlns:xlink="http://www.w3.org/1999/xlink" x="0px" y="0px"
	 viewBox="0 0 96 96" style="enable-background:new 0 0 96 96;" xml:space="preserve">
<style type="text/css">
	.st0{opacity:0.2;}
	.st1{opacity:8.000000e-02;}
	.st2{opacity:0.1;}
	.st3{fill:url(#SVGID_1_);}
	.st4{fill:url(#SVGID_2_);}
	.st5{fill:#FFFFFF;}
	.st6{fill:#4F53FF;}
	.st7{opacity:0.2;fill:url(#SVGID_3_);enable-background:new    ;}
	.st8{opacity:0.8;fill:url(#SVGID_4_);enable-background:new    ;}
	.st9{fill:url(#SVGID_5_);}
	.st10{opacity:0.43;fill:url(#SVGID_6_);enable-background:new    ;}
	.st11{opacity:0.5;fill:url(#SVGID_7_);enable-background:new    ;}
</style>
<g id="_128">
	<g class="st0">
		<path d="M47.5,92c-14.9,0-28-3.9-34.3-10.2S3,62.4,3,47.5s3.9-28,10.2-34.3S32.6,3,47.5,3s28,3.9,34.3,10.2S92,32.6,92,47.5
			s-3.9,28-10.2,34.3S62.4,92,47.5,92z"/>
	</g>
	<g class="st1">
		<path d="M49,95c-15.3,0-28.8-4.1-35.4-10.6S3,64.3,3,49s4.1-28.8,10.6-35.4S33.7,3,49,3s28.8,4.1,35.4,10.6S95,33.7,95,49
			s-4.1,28.8-10.6,35.4S64.3,95,49,95z"/>
	</g>
	<g class="st2">
		<path d="M49,93.5c-14.9,0-28-3.9-34.3-10.2S4.5,63.9,4.5,49s3.9-28,10.2-34.3S34.1,4.5,49,4.5s28,3.9,34.3,10.2S93.5,34.1,93.5,49
			s-3.9,28-10.2,34.3S63.9,93.5,49,93.5z"/>
	</g>
	<g id="_128-2">
		
			<linearGradient id="SVGID_1_" gradientUnits="userSpaceOnUse" x1="47.4912" y1="149.48" x2="47.4912" y2="235.4513" gradientTransform="matrix(1 0 0 -1 0 239.97)">
			<stop  offset="0" style="stop-color:#597DE2"/>
			<stop  offset="1" style="stop-color:#6C8AF4"/>
		</linearGradient>
		<path class="st3" d="M80.7,80.7c-13,13-53.5,13-66.5,0s-13-53.5,0-66.5s53.5-13,66.5,0S93.7,67.8,80.7,80.7z"/>
	</g>
	
		<linearGradient id="SVGID_2_" gradientUnits="userSpaceOnUse" x1="47.485" y1="10.54" x2="47.485" y2="90.48" gradientTransform="matrix(1 0 0 -1 0 98)">
		<stop  offset="0" style="stop-color:#4161D8"/>
		<stop  offset="1" style="stop-color:#4E6CEF"/>
	</linearGradient>
	<path class="st4" d="M47.5,87.5c-13.7,0-25.6-3.4-31.1-8.8S7.5,61.2,7.5,47.5s3.4-25.6,8.9-31.1s17.4-8.9,31.1-8.9
		s25.6,3.4,31.1,8.9s8.8,17.4,8.8,31.1s-3.4,25.6-8.9,31.1S61.2,87.5,47.5,87.5z"/>
</g>
<g id="麒麟搜素">
	<g id="_96-2">
		<circle class="st5" cx="48" cy="47" r="29"/>
		<circle class="st6" cx="48" cy="47" r="20"/>
		<circle class="st5" cx="71" cy="75" r="5"/>
		
			<linearGradient id="SVGID_3_" gradientUnits="userSpaceOnUse" x1="37.9981" y1="33.6767" x2="58.0019" y2="68.3233" gradientTransform="matrix(1 0 0 -1 0 98)">
			<stop  offset="0" style="stop-color:#FFFFFF"/>
			<stop  offset="1" style="stop-color:#3E8AFD"/>
		</linearGradient>
		<circle class="st7" cx="48" cy="47" r="20"/>
		
			<linearGradient id="SVGID_4_" gradientUnits="userSpaceOnUse" x1="37.9981" y1="33.6767" x2="58.0019" y2="68.3233" gradientTransform="matrix(1 0 0 -1 0 98)">
			<stop  offset="0.47" style="stop-color:#6872EA;stop-opacity:0"/>
			<stop  offset="1" style="stop-color:#3743D3"/>
		</linearGradient>
		<circle class="st8" cx="48" cy="47" r="20"/>
		
			<linearGradient id="SVGID_5_" gradientUnits="userSpaceOnUse" x1="37.9981" y1="33.6767" x2="58.0019" y2="68.3233" gradientTransform="matrix(1 0 0 -1 0 98)">
			<stop  offset="0" style="stop-color:#FFFFFF;stop-opacity:0.4"/>
			<stop  offset="0.49" style="stop-color:#75A8FF;stop-opacity:0"/>
		</linearGradient>
		<circle class="st9" cx="48" cy="47" r="20"/>
		
			<linearGradient id="SVGID_6_" gradientUnits="userSpaceOnUse" x1="1.7763" y1="-477.4578" x2="2.3163" y2="-488.2878" gradientTransform="matrix(0.6601 -0.4694 -0.5796 -0.8149 -238.4313 -352.6277)">
			<stop  offset="0" style="stop-color:#FFFFFF"/>
			<stop  offset="9.000000e-02" style="stop-color:#FFFFFF;stop-opacity:0.81"/>
			<stop  offset="0.21" style="stop-color:#FFFFFF;stop-opacity:0.6"/>
			<stop  offset="0.32" style="stop-color:#FFFFFF;stop-opacity:0.42"/>
			<stop  offset="0.44" style="stop-color:#FFFFFF;stop-opacity:0.27"/>
			<stop  offset="0.55" style="stop-color:#FFFFFF;stop-opacity:0.15"/>
			<stop  offset="0.66" style="stop-color:#FFFFFF;stop-opacity:7.000000e-02"/>
			<stop  offset="0.77" style="stop-color:#FFFFFF;stop-opacity:2.000000e-02"/>
			<stop  offset="0.87" style="stop-color:#FFFFFF;stop-opacity:0"/>
		</linearGradient>
		<path class="st10" d="M39.6,35.3c5.2-3.7,11.7-3.7,14.3,0s0.6,9.8-4.7,13.6c-5.2,3.7-11.7,3.7-14.3,0C32.3,45.1,34.4,39,39.6,35.3
			z"/>
		
			<linearGradient id="SVGID_7_" gradientUnits="userSpaceOnUse" x1="35.9479" y1="-63.2024" x2="37.5186" y2="-65.9137" gradientTransform="matrix(0.9913 -0.1316 -0.1316 -0.9913 -3.2043 -20.643)">
			<stop  offset="0" style="stop-color:#FFFFFF"/>
			<stop  offset="8.000000e-02" style="stop-color:#FFFFFF;stop-opacity:0.81"/>
			<stop  offset="0.18" style="stop-color:#FFFFFF;stop-opacity:0.6"/>
			<stop  offset="0.28" style="stop-color:#FFFFFF;stop-opacity:0.42"/>
			<stop  offset="0.38" style="stop-color:#FFFFFF;stop-opacity:0.27"/>
			<stop  offset="0.48" style="stop-color:#FFFFFF;stop-opacity:0.15"/>
			<stop  offset="0.58" style="stop-color:#FFFFFF;stop-opacity:7.000000e-02"/>
			<stop  offset="0.67" style="stop-color:#FFFFFF;stop-opacity:2.000000e-02"/>
			<stop  offset="0.76" style="stop-color:#FFFFFF;stop-opacity:0"/>
		</linearGradient>
		<path class="st11" d="M40.7,37.3c2-1.6,4-2.4,4.6-1.8c0.5,0.7-0.6,2.5-2.6,4.2s-4,2.4-4.6,1.8C37.6,40.8,38.7,39,40.7,37.3z"/>
	</g>
</g>
</svg>
