<svg id="图层_1" data-name="图层 1" xmlns="http://www.w3.org/2000/svg" xmlns:xlink="http://www.w3.org/1999/xlink" viewBox="0 0 96 96"><defs><style>.cls-1{opacity:0.08;}.cls-1,.cls-2,.cls-3{isolation:isolate;}.cls-2{opacity:0.1;}.cls-3{opacity:0.2;}.cls-4{fill:url(#未命名的渐变);}.cls-5{fill:url(#未命名的渐变_2);}.cls-6{fill:#4d5d6a;}.cls-7,.cls-8,.cls-9{fill:none;stroke-miterlimit:10;}.cls-7,.cls-8{stroke:#4d5d6a;}.cls-7{stroke-width:4px;}.cls-8{stroke-width:3px;}.cls-9{stroke:#e67a70;stroke-width:1.2px;}.cls-10{fill:#455a64;}.cls-11{fill:#e67a70;}</style><linearGradient id="未命名的渐变" x1="47.49" y1="67.49" x2="47.49" y2="153.46" gradientTransform="matrix(1, 0, 0, -1, 0, 157.97)" gradientUnits="userSpaceOnUse"><stop offset="0" stop-color="#cfd8dc"/><stop offset="1" stop-color="#fff"/></linearGradient><linearGradient id="未命名的渐变_2" x1="47.49" y1="153.46" x2="47.49" y2="67.49" gradientTransform="matrix(1, 0, 0, -1, 0, 157.97)" gradientUnits="userSpaceOnUse"><stop offset="0" stop-color="#4dd0e1"/><stop offset="1" stop-color="#0097a7"/></linearGradient></defs><title>画板 1</title><g id="控制面板"><g id="时间"><g id="_128" data-name=" 128"><g id="时钟"><path class="cls-1" d="M49,95A46,46,0,1,1,95,49,46,46,0,0,1,49,95Z"/><path class="cls-2" d="M49,93.49A44.49,44.49,0,1,1,93.49,49,44.49,44.49,0,0,1,49,93.49Z"/><path class="cls-3" d="M47.49,92A44.49,44.49,0,1,1,92,47.49,44.49,44.49,0,0,1,47.49,92Z"/><circle class="cls-4" cx="47.49" cy="47.49" r="42.98"/><path class="cls-5" d="M47.49,9A38.46,38.46,0,1,1,9,47.49,38.46,38.46,0,0,1,47.49,9m0-4.52a43,43,0,1,0,43,43A43,43,0,0,0,47.49,4.51Z"/><circle class="cls-6" cx="47.49" cy="47.49" r="3.77"/><line class="cls-7" x1="52.62" y1="43.04" x2="31.84" y2="61.07"/><line class="cls-8" x1="50.74" y1="53.15" x2="36.99" y2="18.69"/><line class="cls-9" x1="43.72" y1="43.53" x2="66.91" y2="67.29"/><path class="cls-10" d="M47.49,49.35a1.86,1.86,0,1,1,1.87-1.86h0A1.87,1.87,0,0,1,47.49,49.35Z"/><path class="cls-11" d="M47.49,46A1.64,1.64,0,0,1,49,47.49a1.51,1.51,0,0,1-3,0A1.64,1.64,0,0,1,47.49,46m0-.75a2.4,2.4,0,0,0-2.26,2.26,2.26,2.26,0,0,0,4.52,0A2.4,2.4,0,0,0,47.49,45.23Z"/><circle class="cls-10" cx="47.49" cy="14.42" r="2.89"/><circle class="cls-10" cx="47.49" cy="80.94" r="2.89"/><circle class="cls-10" cx="14.22" cy="47.68" r="2.88"/><circle class="cls-10" cx="80.76" cy="47.68" r="2.88"/><path class="cls-6" d="M63.12,76.9l2-1.15-3.51-6.07c-.65.41-1.31.81-2,1.16Z"/><path class="cls-6" d="M31.86,18.08l-2,1.15,3.51,6.07c.65-.41,1.31-.81,2-1.16Z"/><path class="cls-6" d="M19.26,29.85l-1.18,2,6,3.5c.35-.69.75-1.34,1.16-2Z"/><path class="cls-6" d="M75.73,65.12l1.18-2-6-3.5c-.35.69-.75,1.34-1.16,2Z"/><path class="cls-6" d="M18.08,63.12l1.15,2,6.07-3.51c-.41-.65-.81-1.31-1.16-2Z"/><path class="cls-6" d="M76.9,31.85l-1.15-2-6.07,3.51c.41.65.81,1.31,1.16,2Z"/><path class="cls-6" d="M65.12,19.26l-2-1.18-3.5,6c.69.35,1.34.75,2,1.16Z"/><path class="cls-6" d="M29.86,75.72l2,1.18,3.5-6c-.69-.35-1.34-.75-2-1.16Z"/></g></g></g></g></svg>