<svg xmlns="http://www.w3.org/2000/svg" xmlns:xlink="http://www.w3.org/1999/xlink" viewBox="0 0 96 96"><defs><style>.cls-1{opacity:0.08;}.cls-1,.cls-2,.cls-3{isolation:isolate;}.cls-2{opacity:0.1;}.cls-3{opacity:0.2;}.cls-4{fill:url(#未命名的渐变_110);}.cls-5{fill:url(#未命名的渐变_99);}.cls-6{fill:#f2f2f2;}.cls-7{fill:#e6e6e6;}.cls-8{fill:#ccc;}.cls-9{fill:#fff;}</style><linearGradient id="未命名的渐变_110" x1="48" y1="-50.97" x2="48" y2="-136.97" gradientTransform="translate(0 141.97)" gradientUnits="userSpaceOnUse"><stop offset="0" stop-color="#f94974"/><stop offset="1" stop-color="#c877fb"/></linearGradient><linearGradient id="未命名的渐变_99" x1="71.45" y1="256.5" x2="26.55" y2="256.5" gradientTransform="matrix(1, 0, 0, -1, 0, 320)" gradientUnits="userSpaceOnUse"><stop offset="0.03" stop-color="#fff"/><stop offset="1" stop-color="#e6e6e6"/></linearGradient></defs><title>96</title><g id="圆"><g id="_96" data-name="96"><path class="cls-1" d="M49,95A46,46,0,1,1,95,49,46,46,0,0,1,49,95Z"/><path class="cls-2" d="M49,93.5A44.5,44.5,0,1,1,93.5,49h0A44.5,44.5,0,0,1,49,93.5Z"/><path class="cls-3" d="M48,92.5A44.5,44.5,0,1,1,92.5,48,44.5,44.5,0,0,1,48,92.5Z"/><path class="cls-4" d="M48,5A43,43,0,1,0,91,48,43,43,0,0,0,48,5Z"/></g></g><g id="录音"><g id="_96-2" data-name="96"><path class="cls-5" d="M71.45,48H67.31a19,19,0,0,1-36.62,0H26.55A23,23,0,0,0,47,65.91V77a2,2,0,0,0,4,0V65.91A23,23,0,0,0,71.45,48Z"/><path class="cls-6" d="M49,19a12.63,12.63,0,0,0-1.51.11,11.09,11.09,0,0,0-6.28,3A10.27,10.27,0,0,0,38,29.5v16A10.79,10.79,0,0,0,49,56a12.63,12.63,0,0,0,1.51-.11,11.09,11.09,0,0,0,6.28-3A10.27,10.27,0,0,0,60,45.5v-16A10.79,10.79,0,0,0,49,19Z"/><path class="cls-7" d="M45.22,22.29a10.51,10.51,0,0,1,2.27-3.18,11.09,11.09,0,0,0-6.28,3,12.61,12.61,0,0,1,1.5-.11A11.18,11.18,0,0,1,45.22,22.29Z"/><path class="cls-7" d="M52.78,52.71a10.51,10.51,0,0,1-2.27,3.18,11.09,11.09,0,0,0,6.28-3,12.61,12.61,0,0,1-1.5.11A11.18,11.18,0,0,1,52.78,52.71Z"/><path class="cls-8" d="M60,29.5A10.79,10.79,0,0,0,49,19a12.63,12.63,0,0,0-1.51.11,10.51,10.51,0,0,0-2.27,3.18A10.65,10.65,0,0,1,53.71,32.5v16a10.05,10.05,0,0,1-.93,4.21,11.18,11.18,0,0,0,2.51.29,12.61,12.61,0,0,0,1.5-.11A10.27,10.27,0,0,0,60,45.5Z"/><path class="cls-9" d="M44.29,42.5v-16a10.05,10.05,0,0,1,.93-4.21A11.18,11.18,0,0,0,42.71,22a12.61,12.61,0,0,0-1.5.11A10.27,10.27,0,0,0,38,29.5v16A10.79,10.79,0,0,0,49,56a12.63,12.63,0,0,0,1.51-.11,10.51,10.51,0,0,0,2.27-3.18A10.65,10.65,0,0,1,44.29,42.5Z"/><path class="cls-6" d="M44.29,42.5a10.65,10.65,0,0,0,8.49,10.21,10.05,10.05,0,0,0,.93-4.21v-16a10.65,10.65,0,0,0-8.49-10.21,10.05,10.05,0,0,0-.93,4.21Z"/></g></g></svg>