<svg id="图层_1" data-name="图层 1" xmlns="http://www.w3.org/2000/svg" xmlns:xlink="http://www.w3.org/1999/xlink" viewBox="0 0 96 96"><defs><style>.cls-1{opacity:0.2;}.cls-2{opacity:0.08;}.cls-3{opacity:0.1;}.cls-4{fill:url(#未命名的渐变);}.cls-5{fill:url(#未命名的渐变_2);}.cls-6{fill:#2f3e44;}.cls-7{fill:#f44336;}.cls-8{fill:none;stroke:#f5f5f5;stroke-miterlimit:10;stroke-width:3px;}</style><linearGradient id="未命名的渐变" x1="47.49" y1="67.49" x2="47.49" y2="153.44" gradientTransform="matrix(1, 0, 0, -1, 0, 157.97)" gradientUnits="userSpaceOnUse"><stop offset="0" stop-color="#263238"/><stop offset="1" stop-color="#455a64"/></linearGradient><linearGradient id="未命名的渐变_2" x1="47.49" y1="148.48" x2="47.49" y2="73.18" gradientTransform="matrix(1, 0, 0, -1, 0, 157.97)" gradientUnits="userSpaceOnUse"><stop offset="0" stop-color="#607d8b"/><stop offset="1" stop-color="#455a64"/></linearGradient></defs><title>画板 1</title><g id="底板_复制" data-name="底板 复制"><g id="深蓝绿色"><g id="_128" data-name=" 128"><g class="cls-1"><path d="M47.49,92c-14.89,0-28-3.9-34.31-10.18S3,62.38,3,47.49s3.9-28,10.18-34.31S32.61,3,47.49,3s28,3.9,34.31,10.18S92,32.61,92,47.49s-3.9,28-10.18,34.31S62.38,92,47.49,92Z"/></g><g class="cls-2"><path d="M49,95c-15.27,0-28.83-4.07-35.38-10.62S3,64.27,3,49,7.07,20.17,13.62,13.62,33.73,3,49,3,77.83,7.07,84.38,13.62,95,33.73,95,49,90.93,77.83,84.38,84.38,64.27,95,49,95Z"/></g><g class="cls-3"><path d="M49,93.49c-14.89,0-28-3.9-34.31-10.18S4.51,63.89,4.51,49s3.9-28,10.18-34.31S34.11,4.51,49,4.51s28,3.9,34.31,10.18S93.49,34.11,93.49,49s-3.9,28-10.18,34.31S63.89,93.49,49,93.49Z"/></g><path id="_128-2" data-name=" 128-2" class="cls-4" d="M80.74,80.74c-13,13-53.54,13-66.49,0s-13-53.54,0-66.49,53.54-13,66.49,0S93.72,67.75,80.74,80.74Z"/></g></g></g><g id="计算器"><g id="_128-3" data-name=" 128-3"><path class="cls-5" d="M76.62,18c-5.69-5.69-17.4-8.53-29.12-8.53S24.05,12.33,18.37,18C7,29.39,7,64.89,18.37,76.26c5.69,5.69,17.4,8.53,29.12,8.53s23.44-2.84,29.12-8.53C88,64.89,88,29.39,76.62,18Z"/><rect class="cls-6" x="19" y="20" width="24" height="24"/><rect class="cls-6" x="52" y="20" width="24" height="24"/><rect class="cls-6" x="19" y="50" width="24" height="24"/><rect class="cls-7" x="52" y="50" width="24" height="24"/><line class="cls-8" x1="54.79" y1="32.25" x2="72.64" y2="32.25"/><line class="cls-8" x1="54.79" y1="57.89" x2="72.64" y2="57.89"/><line class="cls-8" x1="54.79" y1="66.16" x2="72.64" y2="66.16"/><line class="cls-8" x1="22.34" y1="32.25" x2="40.19" y2="32.25"/><line class="cls-8" x1="31.27" y1="41.18" x2="31.27" y2="23.33"/><line class="cls-8" x1="24.96" y1="55.72" x2="37.58" y2="68.34"/><line class="cls-8" x1="24.96" y1="68.34" x2="37.58" y2="55.72"/></g></g></svg>