<svg xmlns="http://www.w3.org/2000/svg" xmlns:xlink="http://www.w3.org/1999/xlink" viewBox="0 0 96 96"><defs><style>.cls-1{fill:none;}.cls-2{opacity:0.2;}.cls-3{opacity:0.08;}.cls-4{opacity:0.1;}.cls-5{fill:url(#未命名的渐变_46);}.cls-6{fill:url(#未命名的渐变_18);}.cls-7{fill:url(#未命名的渐变_143);}.cls-8{clip-path:url(#clip-path);}.cls-9{fill:#dabf79;}.cls-10{fill:#404040;}</style><linearGradient id="未命名的渐变_46" x1="47.49" y1="-51.48" x2="47.49" y2="-137.45" gradientTransform="translate(0 141.97)" gradientUnits="userSpaceOnUse"><stop offset="0" stop-color="#b71c1c"/><stop offset="1" stop-color="#ff7575"/></linearGradient><linearGradient id="未命名的渐变_18" x1="47.49" y1="-54.51" x2="47.49" y2="-134.45" gradientTransform="translate(0 141.97)" gradientUnits="userSpaceOnUse"><stop offset="0" stop-color="#9c1313"/><stop offset="1" stop-color="#ff5252"/></linearGradient><linearGradient id="未命名的渐变_143" x1="47.48" y1="87.46" x2="47.48" y2="29" gradientUnits="userSpaceOnUse"><stop offset="0" stop-color="#e6e6e6" stop-opacity="0.92"/><stop offset="1" stop-color="#f7f7f7" stop-opacity="0.92"/></linearGradient><clipPath id="clip-path"><path class="cls-1" d="M78.6,16.37c-5.47-5.46-17.38-8.85-31.11-8.85s-25.66,3.39-31.12,8.86c-2.76,2.76-5,7.17-6.52,12.62H85.12C83.59,23.54,81.36,19.13,78.6,16.37Z"/></clipPath></defs><title>96</title><g id="底板_复制"><g id="红色"><g id="_96" data-name="96"><g class="cls-2"><path d="M47.49,92c-14.89,0-28-3.9-34.31-10.18S3,62.38,3,47.49s3.9-28,10.18-34.31S32.61,3,47.49,3s28,3.9,34.31,10.18S92,32.61,92,47.49s-3.9,28-10.18,34.31S62.38,92,47.49,92Z"/></g><g class="cls-3"><path d="M49,95c-15.27,0-28.83-4.07-35.38-10.62S3,64.27,3,49,7.07,20.17,13.62,13.62,33.73,3,49,3,77.83,7.07,84.38,13.62,95,33.73,95,49,90.93,77.83,84.38,84.38,64.27,95,49,95Z"/></g><g class="cls-4"><path d="M49,93.49c-14.89,0-28-3.9-34.31-10.18S4.51,63.89,4.51,49s3.9-28,10.18-34.31S34.11,4.51,49,4.51s28,3.9,34.31,10.18S93.49,34.11,93.49,49s-3.9,28-10.18,34.31S63.89,93.49,49,93.49Z"/></g><path class="cls-5" d="M80.74,80.74c-13,13-53.54,13-66.49,0s-13-53.54,0-66.49,53.54-13,66.49,0S93.72,67.75,80.74,80.74Z"/><path class="cls-6" d="M47.49,87.46c-13.73,0-25.64-3.39-31.11-8.85S7.52,61.22,7.52,47.49s3.39-25.64,8.85-31.11S33.76,7.52,47.49,7.52s25.64,3.39,31.11,8.85,8.85,17.38,8.85,31.11S84.06,73.12,78.6,78.59,61.22,87.46,47.49,87.46Z"/></g></g></g><g id="日历"><g id="_96-2" data-name="96"><path class="cls-7" d="M7.52,47.49c0,13.73,3.39,25.66,8.86,31.12s17.38,8.85,31.11,8.85,25.65-3.4,31.11-8.87,8.85-17.38,8.85-31.11A69.4,69.4,0,0,0,85.12,29H9.85A69.43,69.43,0,0,0,7.52,47.49Z"/><g class="cls-8"><path class="cls-9" d="M92.29,33.85s-.72-4.37-5.88-4.19H83.92a15.74,15.74,0,0,0-2.19-8,16.31,16.31,0,0,0-9.34-7.12A15.4,15.4,0,0,0,67.24,14a15.61,15.61,0,0,0-8.16,3.07s-8.37-5.7-14.87,2.49a11.12,11.12,0,0,0-8.8,2.17,10.83,10.83,0,0,0-3.78,6.59,7.61,7.61,0,0,0-5.24-5.57,7.56,7.56,0,0,0-5.59.73,6.76,6.76,0,0,0-3.56,6l-19.94.09s-5,.89-4.81,5.79c0,0,0,4.09,4.81,5.16l18.16.09L15.37,40,1.57,39.9s-4.9-1.51-3.38-6.5c0,0,1.24-3.74,6.58-3.2H82.31a5,5,0,0,1,4.37,5.55s-.36,3.79-4.1,4.15H41.72a4.52,4.52,0,0,0-3.38,4.45s-.07,3.47,4.11,3.83H55.87a4.81,4.81,0,0,1,2.85,6.32S57.65,56.81,55.61,57l-32.67-.35v.89H61a5,5,0,0,0,2.36-1.27,5.28,5.28,0,0,0-.7-7.92,5.07,5.07,0,0,0-3.09-.87H47a3.62,3.62,0,0,1-2.73-2.39A3.68,3.68,0,0,1,45.73,41a3.05,3.05,0,0,1,.72-.23,3.51,3.51,0,0,1,.73-.08L87,40.7c.22,0,3.76-.61,5-3.63A5.75,5.75,0,0,0,92.29,33.85Zm-95,1.45A5.21,5.21,0,0,0-.06,39.87s-4.25.5-5.82-1.72A5.2,5.2,0,0,1-7,34.66a4.69,4.69,0,0,1,.54-1.86,4.93,4.93,0,0,1,1-1.4c2-1.84,4.84-1.35,5.32-1.26A5.86,5.86,0,0,0-2.73,35.3Zm26.05-5.77a1,1,0,0,1,.16-.4,1.27,1.27,0,0,1,.9-.54,1.43,1.43,0,0,1,1.05.36,1.21,1.21,0,0,1,.32.58Zm3,0a1.79,1.79,0,0,0-.54-1.06,1.75,1.75,0,0,0-.94-.43,2,2,0,0,0-1.32.29,2,2,0,0,0-.85,1.2h-.8a2.81,2.81,0,0,1,1.47-2,2.68,2.68,0,0,1,1.79-.16,2.54,2.54,0,0,1,1.93,2.16Zm1.33,0a3.24,3.24,0,0,0-1.11-2.05,3.14,3.14,0,0,0-1.69-.73,3,3,0,0,0-1.67.18,3.59,3.59,0,0,0-1.91,2.6h-.8a4.22,4.22,0,0,1,3.44-3.62c3.83-.43,4.6,3.62,4.6,3.62Zm1.34,0c-.36-4.11-4.51-4.17-4.51-4.17a4.3,4.3,0,0,0-4.57,4.17h-.8a5.35,5.35,0,0,1,5-5c5.28-.18,5.7,5,5.7,5Zm1.39,0a6.23,6.23,0,0,0-1.2-3.23A6.31,6.31,0,0,0,25.75,24,6.23,6.23,0,0,0,21,25a6.3,6.3,0,0,0-2.47,4.5H17.8A6.88,6.88,0,0,1,24,23.13c6.71,0,7.18,6.4,7.18,6.4ZM49.06,16.31a11.11,11.11,0,0,1,5.5-.39,10.94,10.94,0,0,1,3.81,1.5L57.3,18.49A10.32,10.32,0,0,0,54,17.11a8.47,8.47,0,0,0-7.83,3.07l-1.38-.58A12.34,12.34,0,0,1,49.06,16.31ZM52.2,21a4.55,4.55,0,0,0-2.65,1.18l-1.11-.63s2.45-3.28,7.17-1.33l-.89,1.33A4.53,4.53,0,0,0,52.2,21Zm2.21,1-.49,1.16a2.77,2.77,0,0,0-1.74-.22,2.8,2.8,0,0,0-1.6.93l-.76-1S51.25,20.67,54.41,22Zm-6.5-1.07-1.16-.49a8,8,0,0,1,10.06-1.64l-.76,1.11S52.63,17.29,47.91,20.89Zm-7.79,8.59a2.16,2.16,0,0,1,1.76-1.54,2.19,2.19,0,0,1,2.29,1.59Zm4.63.05a2.67,2.67,0,0,0-3.56-2.09s-1.07.08-1.61,2.09H38.16a3.8,3.8,0,0,1,3.56-3.61,3.66,3.66,0,0,1,1.56.23,4.06,4.06,0,0,1,2,1.42,3.92,3.92,0,0,1,.71,2Zm2,0A4.78,4.78,0,0,0,42.1,25.3a4.63,4.63,0,0,0-4.52,4.23H36.24a6,6,0,0,1,5.35-5.48c5.87-.31,6.54,5.48,6.54,5.48Zm1.91,0c-.22-5.74-6.21-6.23-6.21-6.23a6.57,6.57,0,0,0-6.78,6.23H34.24l.18-1.07C36.2,21.69,42.1,22,42.1,22a8.11,8.11,0,0,1,8,7.52Zm2,0c-.8-7.7-8.22-8.19-8.22-8.19a8.76,8.76,0,0,0-8.83,8.19H32.28a11.3,11.3,0,0,1,1.38-4.59,10.15,10.15,0,0,1,11.09-4.58A10.26,10.26,0,0,1,52,29.53Zm.4-5.08a2,2,0,0,1,2.62-.67,12.73,12.73,0,0,0-1.11,4.15S51.51,24.76,51.07,24.45Zm14,5.08a3.61,3.61,0,0,1,1.65-2.45,3.22,3.22,0,0,1,2.34-.26,3.35,3.35,0,0,1,2.28,2.71Zm6.9,0a4,4,0,0,0-1-2.18,4.1,4.1,0,0,0-2.73-1.28,4.17,4.17,0,0,0-2,.65,4.47,4.47,0,0,0-1.88,2.76L62,29.53a6.12,6.12,0,0,1,6.21-5.74s5.36-.27,5.94,5.74Zm2.85,0a6.27,6.27,0,0,0-6-6.3,6.73,6.73,0,0,0-5.12,1.37,6.87,6.87,0,0,0-2.48,4.93H59c.85-8.73,9.06-8.82,9.06-8.82,9,.45,9.15,8.82,9.15,8.82Zm2.93,0a9.55,9.55,0,0,0-2.41-6.48,9.86,9.86,0,0,0-7.87-3,10.19,10.19,0,0,0-7.06,3.73,9.82,9.82,0,0,0-2,5.75H56.05A12.17,12.17,0,0,1,70.65,18c9.44,1.87,9.66,11.53,9.66,11.53Zm3,0a13,13,0,0,0-4.32-9.44A12.78,12.78,0,0,0,68.23,17a13.06,13.06,0,0,0-8.49,3.18,13.32,13.32,0,0,0-4.36,9.33H53.07a13,13,0,0,1,1.56-6.46,15.1,15.1,0,0,1,4.58-5.34A16.49,16.49,0,0,1,67,14.92a3.44,3.44,0,0,0,.68-.06l-.06,0c15,0,15.71,14.69,15.71,14.69ZM63.92,51a4.29,4.29,0,0,1,.1,2.72,4.15,4.15,0,0,1-1.21,1.92,4.35,4.35,0,0,1-3,1.41H57.09a5.46,5.46,0,0,0,2.61-3.74,5.37,5.37,0,0,0-2.43-5.22S62.55,47.23,63.92,51Zm-20.3-6.12a5.54,5.54,0,0,0,1.48,2.56c-2.88.52-5.35-.55-6-2.27a3.38,3.38,0,0,1,.17-2.7,3.82,3.82,0,0,1,3.46-1.92h2.4A4,4,0,0,0,43.62,44.85Zm44.81-5.16a20,20,0,0,1-2.49.24c-.57,0-1.1,0-1.61,0a5.92,5.92,0,0,0,2.86-4.63,5.84,5.84,0,0,0-.54-2.54,6,6,0,0,0-2.2-2.56s5.45-.72,6.65,2.61C91.1,32.81,93.24,37.85,88.43,39.69Z"/></g><path class="cls-10" d="M42,44.12a4.35,4.35,0,0,0-1.34-3.36A5.28,5.28,0,0,0,37,39.54a7.32,7.32,0,0,0-3.31.84,10.84,10.84,0,0,0-3.12,2.39V39.53a9,9,0,0,1,2.94-2.07,9.78,9.78,0,0,1,3.86-.71,8.43,8.43,0,0,1,5.77,1.92,6.54,6.54,0,0,1,2.18,5.19,9.22,9.22,0,0,1-1.34,5,16.12,16.12,0,0,1-4.58,4.37A54,54,0,0,0,35,56.55a6.22,6.22,0,0,0-1.56,1.9,4.87,4.87,0,0,0-.45,2.2H46.14v3H29.52V62.3a10.58,10.58,0,0,1,.63-3.88,9.59,9.59,0,0,1,2.05-3.1,30.36,30.36,0,0,1,4.47-3.63,17.28,17.28,0,0,0,4.24-3.83A6.4,6.4,0,0,0,42,44.12Z"/><path class="cls-10" d="M66,55.46a8.1,8.1,0,0,1-2.57,6.25,9.77,9.77,0,0,1-6.9,2.37A10.9,10.9,0,0,1,51,63V59.56a9.89,9.89,0,0,0,5.46,1.74,6.41,6.41,0,0,0,4.46-1.53,5.2,5.2,0,0,0,1.7-4.05,4.72,4.72,0,0,0-1.77-3.93,7.82,7.82,0,0,0-5-1.41,40.63,40.63,0,0,0-4.49.22l1-13.41H64.65v2.94H55.11l-.54,7.48,2.4-.1a9.68,9.68,0,0,1,6.59,2.09A7.36,7.36,0,0,1,66,55.46Z"/><path class="cls-10" d="M42.29,78.09v.39c-.46,0-1.23,0-2.34,0s-1.89,0-2.36,0v-.39c.48,0,1.27,0,2.37,0S41.83,78.12,42.29,78.09Zm-.46-3c-.39,0-1,0-1.9,0s-1.51,0-1.91,0v-.36c.4,0,1,0,1.91,0s1.51,0,1.9,0Zm-.3,1.62q-.28,0-1.5,0c-.81,0-1.35,0-1.64,0v-.35c.27,0,.81,0,1.62,0s1.31,0,1.52,0Z"/><path class="cls-10" d="M46.61,77.16h-2.5A2.91,2.91,0,0,1,43.32,79a.53.53,0,0,0-.37-.23,1.67,1.67,0,0,0,.63-.82,4.08,4.08,0,0,0,.19-1.39V75.14c0-.34,0-.58,0-.71q.53,0,1.62,0c.73,0,1.26,0,1.61,0,0,.24,0,.48,0,.71v3.24a.77.77,0,0,1-.07.39.44.44,0,0,1-.3.17,4.68,4.68,0,0,1-.76,0,.41.41,0,0,0,0-.11.41.41,0,0,0-.18-.33,4.54,4.54,0,0,0,.6.06.45.45,0,0,0,.27-.06.31.31,0,0,0,.08-.26Zm-2.49-1.47h2.49v-1H44.12Zm2.49.26H44.12v1h2.49Z"/><path class="cls-10" d="M49.46,76.42v.13c.11.07.22.16.34.25a3.38,3.38,0,0,0,.45-.75.9.9,0,0,0,.28.17c.07,0,.1,0,.1.06s0,0-.07.07A3.18,3.18,0,0,0,50,77c.26.2.44.35.55.45l-.28.28a3.78,3.78,0,0,0-.8-.8v1.27c0,.3,0,.6,0,.9h-.4c0-.3,0-.6,0-.9V76.79a7.91,7.91,0,0,1-.7.66.84.84,0,0,0-.28-.32,3.47,3.47,0,0,0,.91-.7,3.63,3.63,0,0,0,.66-1,8.43,8.43,0,0,0-1.48.07v-.37a9.08,9.08,0,0,0,1,0,8.57,8.57,0,0,0,.93,0A4.5,4.5,0,0,1,49.46,76.42Zm.39-1.65-.23.29a3.66,3.66,0,0,0-.91-.68l.2-.27A7.06,7.06,0,0,1,49.85,74.77Zm1.38.15c-.33,0-.61,0-.85,0v-.33c.28,0,.74,0,1.37,0a13.11,13.11,0,0,0,1.32,0,3.06,3.06,0,0,0-.07.6l-.15,2.92a.94.94,0,0,1-.1.43.52.52,0,0,1-.29.22,2.89,2.89,0,0,1-.68.11.91.91,0,0,0-.17-.42h.45a.93.93,0,0,0,.32,0c.08,0,.12-.13.13-.28l.17-3.23H51.55A16.73,16.73,0,0,1,51.44,77a2.69,2.69,0,0,1-.39,1.16,3.45,3.45,0,0,1-.92.91.64.64,0,0,0-.33-.29,3.32,3.32,0,0,0,.89-.71,2.28,2.28,0,0,0,.41-1A14.07,14.07,0,0,0,51.23,74.92Z"/><path class="cls-10" d="M55.72,76.38V78a.5.5,0,0,0,.08.34.3.3,0,0,0,.23.09h.82a6.67,6.67,0,0,0,.84,0,.38.38,0,0,0,.26-.21,1.66,1.66,0,0,0,.11-.61.74.74,0,0,0,.41.24,1.9,1.9,0,0,1-.27.67.61.61,0,0,1-.41.23c-.17,0-.5,0-1,0s-.84,0-1,0a.48.48,0,0,1-.33-.17.84.84,0,0,1-.08-.44V76.45l-1.73.38-.09-.36c.59-.1,1.19-.2,1.82-.33v-.92a7.08,7.08,0,0,0-.05-1l.32,0h.16s.07,0,.07,0,0,0-.08.08a.23.23,0,0,0-.08.21v1.48c.76-.16,1.64-.36,2.65-.6l.07.37Z"/></g></g></svg>