<?xml version="1.0" encoding="utf-8"?>
<!-- Generator: Adobe Illustrator 24.0.0, SVG Export Plug-In . SVG Version: 6.00 Build 0)  -->
<svg version="1.1" id="图层_1" xmlns="http://www.w3.org/2000/svg" xmlns:xlink="http://www.w3.org/1999/xlink" x="0px" y="0px"
	 viewBox="0 0 96 96" style="enable-background:new 0 0 96 96;" xml:space="preserve">
<style type="text/css">
	.st0{opacity:0.2;}
	.st1{opacity:8.000000e-02;}
	.st2{opacity:0.1;}
	.st3{fill:url(#SVGID_1_);}
	.st4{fill:url(#SVGID_2_);}
	.st5{fill:url(#SVGID_3_);}
	.st6{fill:url(#SVGID_4_);}
	.st7{fill:url(#SVGID_5_);}
	.st8{fill:url(#SVGID_6_);}
	.st9{fill:url(#SVGID_7_);}
	.st10{fill:url(#SVGID_8_);}
	.st11{fill:url(#SVGID_9_);}
	.st12{fill:url(#SVGID_10_);}
	.st13{fill:url(#SVGID_11_);}
	.st14{fill:url(#SVGID_12_);}
	.st15{fill:url(#SVGID_13_);}
	.st16{fill:url(#SVGID_14_);}
	.st17{fill:url(#SVGID_15_);}
	.st18{fill:url(#SVGID_16_);}
	.st19{fill:#C6F7E3;}
	.st20{fill:#0C160E;}
	.st21{fill:#2E2E30;}
	.st22{opacity:0.24;}
	.st23{fill:#E6E6E6;}
	.st24{fill:#3B3B39;}
	.st25{fill:#898989;}
	.st26{fill:#E0E0E0;}
	.st27{fill:#FF6118;}
	.st28{opacity:0.68;}
	.st29{fill:none;stroke:#000000;stroke-width:3;stroke-linecap:round;stroke-linejoin:round;}
</style>
<g id="_128">
	<g class="st0">
		<path d="M47.5,92c-14.9,0-28-3.9-34.3-10.2S3,62.4,3,47.5s3.9-28,10.2-34.3S32.6,3,47.5,3s28,3.9,34.3,10.2S92,32.6,92,47.5
			s-3.9,28-10.2,34.3S62.4,92,47.5,92z"/>
	</g>
	<g class="st1">
		<path d="M49,95c-15.3,0-28.8-4.1-35.4-10.6S3,64.3,3,49s4.1-28.8,10.6-35.4S33.7,3,49,3s28.8,4.1,35.4,10.6S95,33.7,95,49
			s-4.1,28.8-10.6,35.4S64.3,95,49,95z"/>
	</g>
	<g class="st2">
		<path d="M49,93.5c-14.9,0-28-3.9-34.3-10.2S4.5,63.9,4.5,49s3.9-28,10.2-34.3S34.1,4.5,49,4.5s28,3.9,34.3,10.2S93.5,34.1,93.5,49
			s-3.9,28-10.2,34.3S63.9,93.5,49,93.5z"/>
	</g>
	<g id="_128-2">
		
			<linearGradient id="SVGID_1_" gradientUnits="userSpaceOnUse" x1="47.4912" y1="235.4513" x2="47.4912" y2="149.48" gradientTransform="matrix(1 0 0 -1 0 239.97)">
			<stop  offset="0" style="stop-color:#51F2C0"/>
			<stop  offset="1" style="stop-color:#5FE4F9"/>
		</linearGradient>
		<path class="st3" d="M80.7,80.7c-13,13-53.5,13-66.5,0s-13-53.5,0-66.5s53.5-13,66.5,0S93.7,67.8,80.7,80.7z"/>
	</g>
	
		<linearGradient id="SVGID_2_" gradientUnits="userSpaceOnUse" x1="47.485" y1="152.51" x2="47.485" y2="232.45" gradientTransform="matrix(1 0 0 -1 0 239.97)">
		<stop  offset="0" style="stop-color:#45D3FF"/>
		<stop  offset="1" style="stop-color:#3BEBAD"/>
	</linearGradient>
	<path class="st4" d="M47.5,87.5c-13.7,0-25.6-3.4-31.1-8.8S7.5,61.2,7.5,47.5s3.4-25.6,8.9-31.1s17.4-8.9,31.1-8.9
		s25.6,3.4,31.1,8.9s8.8,17.4,8.8,31.1s-3.4,25.6-8.9,31.1S61.2,87.5,47.5,87.5z"/>
</g>
<g id="截图">
	<g id="_96-2">
		
			<linearGradient id="SVGID_3_" gradientUnits="userSpaceOnUse" x1="48" y1="69" x2="48" y2="31" gradientTransform="matrix(1 0 0 -1 0 98)">
			<stop  offset="0" style="stop-color:#45D3FF"/>
			<stop  offset="1" style="stop-color:#3BEBAD"/>
		</linearGradient>
		<circle class="st5" cx="48" cy="48" r="19"/>
		
			<linearGradient id="SVGID_4_" gradientUnits="userSpaceOnUse" x1="48" y1="69" x2="48" y2="31" gradientTransform="matrix(1 0 0 -1 0 98)">
			<stop  offset="0" style="stop-color:#45D3FF"/>
			<stop  offset="1" style="stop-color:#3BEBAD"/>
		</linearGradient>
		<circle class="st6" cx="48" cy="48" r="19"/>
		
			<linearGradient id="SVGID_5_" gradientUnits="userSpaceOnUse" x1="48" y1="69" x2="48" y2="31" gradientTransform="matrix(1 0 0 -1 0 98)">
			<stop  offset="0" style="stop-color:#45D3FF"/>
			<stop  offset="1" style="stop-color:#3BEBAD"/>
		</linearGradient>
		<circle class="st7" cx="48" cy="48" r="15.7"/>
		
			<linearGradient id="SVGID_6_" gradientUnits="userSpaceOnUse" x1="48" y1="69" x2="48" y2="31" gradientTransform="matrix(1 0 0 -1 0 98)">
			<stop  offset="0" style="stop-color:#45D3FF"/>
			<stop  offset="1" style="stop-color:#3BEBAD"/>
		</linearGradient>
		<circle class="st8" cx="48" cy="48" r="15.7"/>
		
			<linearGradient id="SVGID_7_" gradientUnits="userSpaceOnUse" x1="48" y1="69" x2="48" y2="31" gradientTransform="matrix(1 0 0 -1 0 98)">
			<stop  offset="0" style="stop-color:#45D3FF"/>
			<stop  offset="1" style="stop-color:#3BEBAD"/>
		</linearGradient>
		<circle class="st9" cx="48" cy="48" r="14.5"/>
		
			<linearGradient id="SVGID_8_" gradientUnits="userSpaceOnUse" x1="48" y1="69" x2="48" y2="31" gradientTransform="matrix(1 0 0 -1 0 98)">
			<stop  offset="0" style="stop-color:#45D3FF"/>
			<stop  offset="1" style="stop-color:#3BEBAD"/>
		</linearGradient>
		<circle class="st10" cx="48" cy="48" r="14.5"/>
		
			<linearGradient id="SVGID_9_" gradientUnits="userSpaceOnUse" x1="48" y1="69" x2="48" y2="31" gradientTransform="matrix(1 0 0 -1 0 98)">
			<stop  offset="0" style="stop-color:#45D3FF"/>
			<stop  offset="1" style="stop-color:#3BEBAD"/>
		</linearGradient>
		<path class="st11" d="M62.5,47.9c0-8-6.5-14.5-14.5-14.5c-8,0-14.5,6.5-14.5,14.5H62.5z"/>
		
			<linearGradient id="SVGID_10_" gradientUnits="userSpaceOnUse" x1="48" y1="69" x2="48" y2="31" gradientTransform="matrix(1 0 0 -1 0 98)">
			<stop  offset="0" style="stop-color:#45D3FF"/>
			<stop  offset="1" style="stop-color:#3BEBAD"/>
		</linearGradient>
		<path class="st12" d="M62.5,47.9c0-8-6.5-14.5-14.5-14.5c-8,0-14.5,6.5-14.5,14.5H62.5z"/>
		
			<linearGradient id="SVGID_11_" gradientUnits="userSpaceOnUse" x1="48" y1="69" x2="48" y2="31" gradientTransform="matrix(1 0 0 -1 0 98)">
			<stop  offset="0" style="stop-color:#45D3FF"/>
			<stop  offset="1" style="stop-color:#3BEBAD"/>
		</linearGradient>
		<circle class="st13" cx="48" cy="48" r="11.2"/>
		
			<linearGradient id="SVGID_12_" gradientUnits="userSpaceOnUse" x1="48" y1="69" x2="48" y2="31" gradientTransform="matrix(1 0 0 -1 0 98)">
			<stop  offset="0" style="stop-color:#45D3FF"/>
			<stop  offset="1" style="stop-color:#3BEBAD"/>
		</linearGradient>
		<circle class="st14" cx="48" cy="48" r="11.2"/>
		
			<linearGradient id="SVGID_13_" gradientUnits="userSpaceOnUse" x1="48" y1="69" x2="48" y2="31" gradientTransform="matrix(1 0 0 -1 0 98)">
			<stop  offset="0" style="stop-color:#45D3FF"/>
			<stop  offset="1" style="stop-color:#3BEBAD"/>
		</linearGradient>
		<circle class="st15" cx="48" cy="48" r="7.8"/>
		
			<linearGradient id="SVGID_14_" gradientUnits="userSpaceOnUse" x1="48" y1="69" x2="48" y2="31" gradientTransform="matrix(1 0 0 -1 0 98)">
			<stop  offset="0" style="stop-color:#45D3FF"/>
			<stop  offset="1" style="stop-color:#3BEBAD"/>
		</linearGradient>
		<circle class="st16" cx="48" cy="48" r="7.8"/>
		
			<linearGradient id="SVGID_15_" gradientUnits="userSpaceOnUse" x1="45.76" y1="69" x2="45.76" y2="31" gradientTransform="matrix(1 0 0 -1 0 98)">
			<stop  offset="0" style="stop-color:#45D3FF"/>
			<stop  offset="1" style="stop-color:#3BEBAD"/>
		</linearGradient>
		<circle class="st17" cx="45.8" cy="45.8" r="2.2"/>
		
			<linearGradient id="SVGID_16_" gradientUnits="userSpaceOnUse" x1="45.76" y1="69" x2="45.76" y2="31" gradientTransform="matrix(1 0 0 -1 0 98)">
			<stop  offset="0" style="stop-color:#45D3FF"/>
			<stop  offset="1" style="stop-color:#3BEBAD"/>
		</linearGradient>
		<circle class="st18" cx="45.8" cy="45.8" r="2.2"/>
		<circle class="st19" cx="48" cy="48" r="19"/>
		<circle class="st20" cx="48" cy="48" r="15.7"/>
		<circle class="st21" cx="48" cy="48" r="14.5"/>
		<g class="st22">
			<path class="st23" d="M62.5,47.9c0-8-6.5-14.5-14.5-14.5c-8,0-14.5,6.5-14.5,14.5H62.5z"/>
		</g>
		<circle class="st24" cx="48" cy="48" r="11.2"/>
		<circle class="st25" cx="48" cy="48" r="7.8"/>
		<circle class="st26" cx="45.8" cy="45.8" r="2.2"/>
		<path class="st27" d="M74,36.5c0,2.2-1.8,4-4,4s-4-1.8-4-4s1.8-4,4-4S74,34.3,74,36.5z"/>
		<g class="st28">
			<path class="st29" d="M14.5,35.5v-9c0-2.2,1.8-4,4-4h9"/>
			<path class="st29" d="M81.5,35.5v-9c0-2.2-1.8-4-4-4h-9"/>
			<path class="st29" d="M14.5,59.5v9c0,2.2,1.8,4,4,4h9"/>
			<path class="st29" d="M81.5,59.5v9c0,2.2-1.8,4-4,4h-9"/>
		</g>
	</g>
</g>
</svg>
