<?xml version="1.0" encoding="utf-8"?>
<!-- Generator: Adobe Illustrator 24.0.0, SVG Export Plug-In . SVG Version: 6.00 Build 0)  -->
<svg version="1.1" id="图层_1" xmlns="http://www.w3.org/2000/svg" xmlns:xlink="http://www.w3.org/1999/xlink" x="0px" y="0px"
	 viewBox="0 0 96 96" style="enable-background:new 0 0 96 96;" xml:space="preserve">
<style type="text/css">
	.st0{opacity:0.2;}
	.st1{opacity:8.000000e-02;}
	.st2{opacity:0.1;}
	.st3{fill:url(#SVGID_1_);}
	.st4{fill:url(#SVGID_2_);}
	.st5{fill:url(#SVGID_3_);}
	.st6{opacity:0.2;fill:#7D96FF;enable-background:new    ;}
	.st7{fill:#E7ECED;}
	.st8{fill:#B0B7BC;}
	.st9{fill:url(#SVGID_4_);}
	.st10{fill:url(#SVGID_5_);}
	.st11{fill:url(#SVGID_6_);}
</style>
<g id="_128">
	<g class="st0">
		<path d="M47.5,92c-14.9,0-28-3.9-34.3-10.2S3,62.4,3,47.5s3.9-28,10.2-34.3S32.6,3,47.5,3s28,3.9,34.3,10.2S92,32.6,92,47.5
			s-3.9,28-10.2,34.3S62.4,92,47.5,92z"/>
	</g>
	<g class="st1">
		<path d="M49,95c-15.3,0-28.8-4.1-35.4-10.6S3,64.3,3,49s4.1-28.8,10.6-35.4S33.7,3,49,3s28.8,4.1,35.4,10.6S95,33.7,95,49
			s-4.1,28.8-10.6,35.4S64.3,95,49,95z"/>
	</g>
	<g class="st2">
		<path d="M49,93.5c-14.9,0-28-3.9-34.3-10.2S4.5,63.9,4.5,49s3.9-28,10.2-34.3S34.1,4.5,49,4.5s28,3.9,34.3,10.2S93.5,34.1,93.5,49
			s-3.9,28-10.2,34.3S63.9,93.5,49,93.5z"/>
	</g>
	<g id="_128-2">
		
			<linearGradient id="SVGID_1_" gradientUnits="userSpaceOnUse" x1="47.4912" y1="149.48" x2="47.4912" y2="235.4513" gradientTransform="matrix(1 0 0 -1 0 239.97)">
			<stop  offset="0" style="stop-color:#DAE1E4"/>
			<stop  offset="1" style="stop-color:#F3F4FA"/>
		</linearGradient>
		<path class="st3" d="M80.7,80.7c-13,13-53.5,13-66.5,0s-13-53.5,0-66.5s53.5-13,66.5,0S93.7,67.8,80.7,80.7z"/>
	</g>
	
		<linearGradient id="SVGID_2_" gradientUnits="userSpaceOnUse" x1="47.485" y1="152.51" x2="47.485" y2="232.45" gradientTransform="matrix(1 0 0 -1 0 239.97)">
		<stop  offset="0" style="stop-color:#CFD8DC"/>
		<stop  offset="1" style="stop-color:#EBECF2"/>
	</linearGradient>
	<path class="st4" d="M47.5,87.5c-13.7,0-25.6-3.4-31.1-8.8S7.5,61.2,7.5,47.5s3.4-25.6,8.9-31.1s17.4-8.9,31.1-8.9
		s25.6,3.4,31.1,8.9s8.8,17.4,8.8,31.1s-3.4,25.6-8.9,31.1S61.2,87.5,47.5,87.5z"/>
</g>
<g id="_96-2">
	
		<linearGradient id="SVGID_3_" gradientUnits="userSpaceOnUse" x1="48" y1="32" x2="48" y2="78" gradientTransform="matrix(1 0 0 -1 0 98)">
		<stop  offset="0" style="stop-color:#3D01A1"/>
		<stop  offset="1" style="stop-color:#6D03C4"/>
	</linearGradient>
	<path class="st5" d="M72,66H24V25c0-2.8,2.2-5,5-5h38c2.8,0,5,2.2,5,5V66z"/>
	<path class="st6" d="M72,25c0-1.2-0.4-2.2-1.1-3.1L24,64.2V66h48V25z"/>
	<path class="st7" d="M24,66h48l0,0v5c0,2.8-2.2,5-5,5H29c-2.8,0-5-2.2-5-5V66L24,66z"/>
	<circle class="st8" cx="48" cy="71" r="3"/>
	
		<linearGradient id="SVGID_4_" gradientUnits="userSpaceOnUse" x1="31" y1="50.1912" x2="65" y2="50.1912" gradientTransform="matrix(1 0 0 -1 0 98)">
		<stop  offset="0" style="stop-color:#009FFB"/>
		<stop  offset="1" style="stop-color:#8C59FF;stop-opacity:0.9"/>
	</linearGradient>
	<path class="st9" d="M45.7,36.1l-13.4,9.3c-1.4,0.9-1.8,2.8-0.8,4.2c0.2,0.3,0.5,0.6,0.8,0.8l12.8,8.9c1.7,1.2,4.1,1.2,5.8,0
		l12.8-8.9c1.4-0.9,1.8-2.8,0.8-4.2c-0.2-0.3-0.5-0.6-0.8-0.8l-13.4-9.3C48.9,35.1,47.1,35.1,45.7,36.1z"/>
	
		<linearGradient id="SVGID_5_" gradientUnits="userSpaceOnUse" x1="31" y1="55.9912" x2="65" y2="55.9912" gradientTransform="matrix(1 0 0 -1 0 98)">
		<stop  offset="0" style="stop-color:#4EF09C;stop-opacity:0.9"/>
		<stop  offset="1" style="stop-color:#E9FF85"/>
	</linearGradient>
	<path class="st10" d="M45.7,30.3l-13.4,9.3c-1.4,0.9-1.8,2.8-0.8,4.2c0.2,0.3,0.5,0.6,0.8,0.8l12.8,8.9c1.7,1.2,4.1,1.2,5.8,0
		l12.8-8.9c1.4-0.9,1.8-2.8,0.8-4.2c-0.2-0.3-0.5-0.6-0.8-0.8l-13.4-9.3C48.9,29.3,47.1,29.3,45.7,30.3z"/>
	
		<linearGradient id="SVGID_6_" gradientUnits="userSpaceOnUse" x1="31" y1="61.695" x2="65" y2="61.695" gradientTransform="matrix(1 0 0 -1 0 98)">
		<stop  offset="0" style="stop-color:#009FFB"/>
		<stop  offset="1" style="stop-color:#8C59FF;stop-opacity:0.9"/>
	</linearGradient>
	<path class="st11" d="M45.1,24.9l-12.8,8.9c-1.4,0.9-1.8,2.8-0.8,4.2c0.2,0.3,0.5,0.6,0.8,0.8l12.8,8.9c1.7,1.2,4.1,1.2,5.8,0
		l12.8-8.9c1.4-0.9,1.8-2.8,0.8-4.2c-0.2-0.3-0.5-0.6-0.8-0.8l-12.8-8.9C49.2,23.7,46.8,23.7,45.1,24.9z"/>
</g>
</svg>
