<?xml version="1.0" encoding="utf-8"?>
<!-- Generator: Adobe Illustrator 24.0.0, SVG Export Plug-In . SVG Version: 6.00 Build 0)  -->
<svg version="1.1" id="图层_1" xmlns="http://www.w3.org/2000/svg" xmlns:xlink="http://www.w3.org/1999/xlink" x="0px" y="0px"
	 viewBox="0 0 96 96" style="enable-background:new 0 0 96 96;" xml:space="preserve">
<style type="text/css">
	.st0{opacity:0.2;}
	.st1{opacity:8.000000e-02;}
	.st2{opacity:0.1;}
	.st3{fill:url(#SVGID_1_);}
	.st4{fill:url(#SVGID_2_);}
	.st5{fill:#484A32;}
	.st6{fill:#8E6F34;}
	.st7{fill:#DDAB65;}
	.st8{opacity:0.9;fill:url(#SVGID_3_);enable-background:new    ;}
	.st9{opacity:0.9;fill:url(#SVGID_4_);enable-background:new    ;}
	.st10{opacity:0.9;fill:url(#SVGID_5_);enable-background:new    ;}
	.st11{fill:none;stroke:url(#SVGID_6_);stroke-width:0.5;stroke-linecap:round;stroke-miterlimit:10;}
	.st12{fill:none;stroke:url(#SVGID_7_);stroke-width:0.5;stroke-linecap:round;stroke-miterlimit:10;}
	.st13{fill:none;stroke:url(#SVGID_8_);stroke-width:0.5;stroke-linecap:round;stroke-miterlimit:10;}
	.st14{fill:url(#SVGID_9_);}
	.st15{fill:url(#SVGID_10_);}
	.st16{opacity:0.3;}
	.st17{fill:#261302;}
</style>
<g id="_128">
	<g class="st0">
		<path d="M47.5,92c-14.9,0-28-3.9-34.3-10.2S3,62.4,3,47.5s3.9-28,10.2-34.3S32.6,3,47.5,3s28,3.9,34.3,10.2S92,32.6,92,47.5
			s-3.9,28-10.2,34.3S62.4,92,47.5,92z"/>
	</g>
	<g class="st1">
		<path d="M49,95c-15.3,0-28.8-4.1-35.4-10.6S3,64.3,3,49s4.1-28.8,10.6-35.4S33.7,3,49,3s28.8,4.1,35.4,10.6S95,33.7,95,49
			s-4.1,28.8-10.6,35.4S64.3,95,49,95z"/>
	</g>
	<g class="st2">
		<path d="M49,93.5c-14.9,0-28-3.9-34.3-10.2S4.5,63.9,4.5,49s3.9-28,10.2-34.3S34.1,4.5,49,4.5s28,3.9,34.3,10.2S93.5,34.1,93.5,49
			s-3.9,28-10.2,34.3S63.9,93.5,49,93.5z"/>
	</g>
	<g id="_128-2">
		
			<linearGradient id="SVGID_1_" gradientUnits="userSpaceOnUse" x1="47.4912" y1="149.48" x2="47.4912" y2="235.4513" gradientTransform="matrix(1 0 0 -1 0 239.97)">
			<stop  offset="0" style="stop-color:#DAE1E4"/>
			<stop  offset="1" style="stop-color:#F3F4FA"/>
		</linearGradient>
		<path class="st3" d="M80.7,80.7c-13,13-53.5,13-66.5,0s-13-53.5,0-66.5s53.5-13,66.5,0S93.7,67.8,80.7,80.7z"/>
	</g>
	
		<linearGradient id="SVGID_2_" gradientUnits="userSpaceOnUse" x1="47.485" y1="152.51" x2="47.485" y2="232.45" gradientTransform="matrix(1 0 0 -1 0 239.97)">
		<stop  offset="0" style="stop-color:#CFD8DC"/>
		<stop  offset="1" style="stop-color:#EBECF2"/>
	</linearGradient>
	<path class="st4" d="M47.5,87.5c-13.7,0-25.6-3.4-31.1-8.8S7.5,61.2,7.5,47.5s3.4-25.6,8.9-31.1s17.4-8.9,31.1-8.9
		s25.6,3.4,31.1,8.9s8.8,17.4,8.8,31.1s-3.4,25.6-8.9,31.1S61.2,87.5,47.5,87.5z"/>
</g>
<g id="图层_29">
	<g id="_96-2">
		<polygon class="st5" points="26.2,52 48.2,52 48.2,28 26.2,36.5 		"/>
		<polygon class="st6" points="70.2,55 48.2,55 48.2,28 70.2,38 		"/>
		<polygon class="st7" points="48.2,28 57.2,30 77.8,40.3 70.2,39 		"/>
		<polygon class="st7" points="48.2,28 26.2,39 18.2,40.3 39.2,30 		"/>
		
			<linearGradient id="SVGID_3_" gradientUnits="userSpaceOnUse" x1="48.17" y1="78" x2="48.17" y2="57" gradientTransform="matrix(1 0 0 -1 0 98)">
			<stop  offset="0" style="stop-color:#009ACC"/>
			<stop  offset="0.22" style="stop-color:#009ECE"/>
			<stop  offset="0.44" style="stop-color:#00ABD5"/>
			<stop  offset="0.68" style="stop-color:#00C0E0"/>
			<stop  offset="0.91" style="stop-color:#00DDF0"/>
			<stop  offset="1" style="stop-color:#00EAF7"/>
		</linearGradient>
		<polygon class="st8" points="48.2,20 27.2,30 48.2,41 69.2,30 		"/>
		
			<linearGradient id="SVGID_4_" gradientUnits="userSpaceOnUse" x1="37.67" y1="65.17" x2="37.67" y2="50.13" gradientTransform="matrix(1 0 0 -1 0 98)">
			<stop  offset="0" style="stop-color:#009ACC"/>
			<stop  offset="0.22" style="stop-color:#009ECE"/>
			<stop  offset="0.44" style="stop-color:#00ABD5"/>
			<stop  offset="0.68" style="stop-color:#00C0E0"/>
			<stop  offset="0.91" style="stop-color:#00DDF0"/>
			<stop  offset="1" style="stop-color:#00EAF7"/>
		</linearGradient>
		<polygon class="st9" points="48.2,49.6 27.2,49.6 27.2,30 48.2,40.8 		"/>
		
			<linearGradient id="SVGID_5_" gradientUnits="userSpaceOnUse" x1="58.67" y1="68" x2="58.67" y2="47.15" gradientTransform="matrix(1 0 0 -1 0 98)">
			<stop  offset="0" style="stop-color:#009ACC"/>
			<stop  offset="0.22" style="stop-color:#009ECE"/>
			<stop  offset="0.44" style="stop-color:#00ABD5"/>
			<stop  offset="0.68" style="stop-color:#00C0E0"/>
			<stop  offset="0.91" style="stop-color:#00DDF0"/>
			<stop  offset="1" style="stop-color:#00EAF7"/>
		</linearGradient>
		<polygon class="st10" points="48.2,50.8 69.2,50.8 69.2,30 48.2,41 		"/>
		
			<linearGradient id="SVGID_6_" gradientUnits="userSpaceOnUse" x1="-552.8402" y1="960.9138" x2="-531.8396" y2="960.9138" gradientTransform="matrix(0.45 -0.89 0.89 0.45 -563.47 -862.01)">
			<stop  offset="0" style="stop-color:#FFFFFF;stop-opacity:0"/>
			<stop  offset="0.12" style="stop-color:#FFFFFF;stop-opacity:2.000000e-02"/>
			<stop  offset="0.24" style="stop-color:#FFFEFE;stop-opacity:7.000000e-02"/>
			<stop  offset="0.37" style="stop-color:#FFFCFE;stop-opacity:0.15"/>
			<stop  offset="0.5" style="stop-color:#FFF9FD;stop-opacity:0.26"/>
			<stop  offset="0.63" style="stop-color:#FFF6FC;stop-opacity:0.41"/>
			<stop  offset="0.76" style="stop-color:#FFF3FA;stop-opacity:0.59"/>
			<stop  offset="0.89" style="stop-color:#FFEEF9;stop-opacity:0.8"/>
			<stop  offset="1" style="stop-color:#FFEAF7"/>
		</linearGradient>
		<line class="st11" x1="48.2" y1="40.7" x2="48.2" y2="63.6"/>
		
			<linearGradient id="SVGID_7_" gradientUnits="userSpaceOnUse" x1="27.43" y1="62.44" x2="48.42" y2="62.44" gradientTransform="matrix(1 0 0 -1 0 98)">
			<stop  offset="0" style="stop-color:#FFFFFF;stop-opacity:0"/>
			<stop  offset="0.12" style="stop-color:#FFFFFF;stop-opacity:2.000000e-02"/>
			<stop  offset="0.24" style="stop-color:#FFFEFE;stop-opacity:7.000000e-02"/>
			<stop  offset="0.37" style="stop-color:#FFFCFE;stop-opacity:0.15"/>
			<stop  offset="0.5" style="stop-color:#FFF9FD;stop-opacity:0.26"/>
			<stop  offset="0.63" style="stop-color:#FFF6FC;stop-opacity:0.41"/>
			<stop  offset="0.76" style="stop-color:#FFF3FA;stop-opacity:0.59"/>
			<stop  offset="0.89" style="stop-color:#FFEEF9;stop-opacity:0.8"/>
			<stop  offset="1" style="stop-color:#FFEAF7"/>
		</linearGradient>
		<line class="st12" x1="48.2" y1="40.7" x2="27.7" y2="30.4"/>
		
			<linearGradient id="SVGID_8_" gradientUnits="userSpaceOnUse" x1="-1758.91" y1="62.44" x2="-1737.92" y2="62.44" gradientTransform="matrix(-1 0 0 -1 -1690 98)">
			<stop  offset="0" style="stop-color:#FFFFFF;stop-opacity:0"/>
			<stop  offset="0.12" style="stop-color:#FFFFFF;stop-opacity:2.000000e-02"/>
			<stop  offset="0.24" style="stop-color:#FFFEFE;stop-opacity:7.000000e-02"/>
			<stop  offset="0.37" style="stop-color:#FFFCFE;stop-opacity:0.15"/>
			<stop  offset="0.5" style="stop-color:#FFF9FD;stop-opacity:0.26"/>
			<stop  offset="0.63" style="stop-color:#FFF6FC;stop-opacity:0.41"/>
			<stop  offset="0.76" style="stop-color:#FFF3FA;stop-opacity:0.59"/>
			<stop  offset="0.89" style="stop-color:#FFEEF9;stop-opacity:0.8"/>
			<stop  offset="1" style="stop-color:#FFEAF7"/>
		</linearGradient>
		<line class="st13" x1="48.2" y1="40.7" x2="68.7" y2="30.4"/>
		
			<linearGradient id="SVGID_9_" gradientUnits="userSpaceOnUse" x1="48.17" y1="35.5" x2="70.17" y2="35.5" gradientTransform="matrix(1 0 0 -1 0 98)">
			<stop  offset="0" style="stop-color:#BA8349"/>
			<stop  offset="1" style="stop-color:#BF8B4E"/>
		</linearGradient>
		<polygon class="st14" points="48.2,76 70.2,65.8 70.2,49 48.2,49 		"/>
		
			<linearGradient id="SVGID_10_" gradientUnits="userSpaceOnUse" x1="26.17" y1="35.5" x2="48.17" y2="35.5" gradientTransform="matrix(1 0 0 -1 0 98)">
			<stop  offset="0" style="stop-color:#C48C53"/>
			<stop  offset="1" style="stop-color:#C9975A"/>
		</linearGradient>
		<polygon class="st15" points="26.2,65.8 48.2,76 48.2,49 26.2,49 		"/>
		<polygon class="st7" points="26.2,39 48.2,49 40.2,58 19.2,48 		"/>
		<polygon class="st7" points="48.3,49 70.2,39 77.2,48 57.2,58 		"/>
		<g class="st16">
			<polygon class="st17" points="39.8,64.6 48.2,66 56.6,64.6 48.2,73 			"/>
			<polygon class="st17" points="52.2,67 44.2,67 44.2,55 48.2,56.3 52.2,55 			"/>
		</g>
	</g>
</g>
</svg>
