<?xml version="1.0" encoding="utf-8"?>
<!-- Generator: Adobe Illustrator 24.0.0, SVG Export Plug-In . SVG Version: 6.00 Build 0)  -->
<svg version="1.1" id="图层_1" xmlns="http://www.w3.org/2000/svg" xmlns:xlink="http://www.w3.org/1999/xlink" x="0px" y="0px"
	 viewBox="0 0 96 96" style="enable-background:new 0 0 96 96;" xml:space="preserve">
<style type="text/css">
	.st0{opacity:8.000000e-02;enable-background:new    ;}
	.st1{opacity:0.1;enable-background:new    ;}
	.st2{opacity:0.2;enable-background:new    ;}
	.st3{fill:url(#SVGID_2_);}
	.st4{fill:#9ECE42;}
	.st5{fill:url(#SVGID_3_);}
	.st6{fill:none;}
	.st7{opacity:8.000000e-02;fill:#1C202A;enable-background:new    ;}
	.st8{opacity:0.1;fill:#1C202A;enable-background:new    ;}
	.st9{opacity:0.2;fill:#1C202A;enable-background:new    ;}
	.st10{fill:#62AEE0;}
	.st11{fill:#9FD6FA;}
	.st12{fill:url(#SVGID_5_);}
	.st13{fill:#C4E0F2;}
	.st14{fill:#278DDC;}
	.st15{fill:#2A95DE;}
	.st16{fill:#EAF5FF;}
	.st17{fill:#1C82C6;}
	.st18{fill:#FFFFFF;}
	.st19{fill:#83BA2D;}
	.st20{fill:#FDE6A0;}
	.st21{fill:#EAAE36;}
	.st22{fill:#5F9E18;}
	.st23{fill:#90B6DE;}
	.st24{fill:url(#SVGID_6_);}
	.st25{fill:url(#SVGID_7_);}
</style>
<g id="光阴影">
	<path class="st0" d="M48,93c-15.1,0-28.4-3.9-34.7-10.3c-13.6-13.6-13.6-55.8,0-69.5C19.6,6.9,32.9,3,48,3s28.4,3.9,34.7,10.3
		c13.6,13.6,13.6,55.8,0,69.5C76.4,89.1,63.1,93,48,93z"/>
	<path class="st1" d="M49,95c-15.3,0-28.9-4-35.5-10.6S3,64.4,3,49s4-29,10.5-35.5S33.7,3,49,3s28.9,4,35.4,10.6S95,33.6,95,49
		s-4,29-10.5,35.4S64.3,95,49,95z"/>
	<path class="st2" d="M49,94c-15.1,0-28.4-3.9-34.7-10.3c-13.6-13.6-13.6-55.8,0-69.5C20.6,7.9,33.9,4,49,4s28.4,3.9,34.7,10.3
		c13.6,13.6,13.6,55.8,0,69.5C77.4,90.1,64.1,94,49,94z"/>
</g>
<g>
	<g>
		
			<linearGradient id="SVGID_2_" gradientUnits="userSpaceOnUse" x1="48" y1="-397.975" x2="48" y2="-310.025" gradientTransform="matrix(1 0 0 -1 0 -306)">
			<stop  offset="0" style="stop-color:#D3D3D3"/>
			<stop  offset="1" style="stop-color:#B5B5B5"/>
		</linearGradient>
		<path id="SVGID_1_" class="st3" d="M82,82c-13.3,13.3-54.7,13.3-68,0S0.7,27.3,14,14s54.7-13.3,68,0S95.3,68.7,82,82z"/>
	</g>
	<path class="st4" d="M7.3,70.2c1.6,4.8,3.9,9,6.7,11.8c13.3,13.3,54.7,13.3,68,0c2.8-2.8,5.1-7,6.7-11.8H7.3z"/>
</g>
<g>
	<g>
		
			<linearGradient id="SVGID_3_" gradientUnits="userSpaceOnUse" x1="48.0438" y1="-393.975" x2="48.0438" y2="-314.0625" gradientTransform="matrix(1 0 0 -1 0 -306)">
			<stop  offset="0" style="stop-color:#ADADAD"/>
			<stop  offset="1" style="stop-color:#A1A1A1"/>
		</linearGradient>
		<path id="SVGID_4_" class="st5" d="M78.9,78.9c-12,12.1-49.8,12.1-61.8,0S5,29.1,17.1,17.1S66.9,5,79,17.1S91,66.9,78.9,78.9z"/>
	</g>
	<g>
		<g>
			<g>
				<rect id="矩形_2-2" x="4.1" y="0.4" class="st6" width="87.8" height="89.9"/>
			</g>
		</g>
		<g>
			<path class="st7" d="M74.7,76.5c-1.9,0-7.3,0-8.7-3.9c-5.6,2.2-11.6,3.3-17.7,3.2l0,0c-6.2,0.1-12.3-1.1-18-3.4
				c-1.3,4.1-6.8,4.1-8.7,4.1c-2,0.1-3.9-0.2-5.8-0.9c-2-0.8-3.4-2.8-3.3-5c0-0.2,0-0.3,0-0.5s0-0.3,0-0.5c0.1-3.1,1.8-6,4.5-7.6
				c-0.5-0.7-0.9-1.4-1.3-2.1C10.4,59.1,7,54.8,7,48.7v-1.3c0-6,3.2-10.2,8.1-10.9c2.5-6.7,6.8-12.5,12.4-16.9
				c5.9-4.8,13.2-7.4,20.8-7.5c7.7,0.1,15.1,2.8,21,7.7C74.8,24.2,79,30,81.5,36.5c4.9,0.7,8,4.9,8,10.8v1.3c0,6-3.4,10.4-8.6,11.2
				c-0.4,0.8-0.9,1.6-1.4,2.3c2.6,1.6,4.2,4.4,4.3,7.4c0,0.2,0,0.3,0,0.5s0,0.3,0,0.5c0.1,2.4-1.5,4.6-3.8,5.2
				C78.2,76.3,76.5,76.6,74.7,76.5z"/>
		</g>
		<g>
			<path class="st8" d="M74.7,75.8c-1.9,0-7.5,0-8.3-4.2c-5.8,2.4-11.9,3.6-18.2,3.5l0,0c-6.4,0.1-12.7-1.2-18.6-3.7
				c-0.6,4.3-6.3,4.3-8.2,4.3c-1.9,0.1-3.7-0.2-5.5-0.9c-1.8-0.7-2.9-2.4-2.9-4.3c0-0.2,0-0.3,0-0.5s0-0.3,0-0.5
				c0.2-3.2,2.1-6,4.9-7.3c-0.7-1-1.3-2-1.9-3.1c-5.2-0.6-8.5-4.7-8.5-10.5v-1.4c0-5.8,3.1-9.8,7.9-10.2l0,0
				c2.5-6.7,6.7-12.6,12.3-17.1c5.7-4.7,12.9-7.3,20.3-7.4c7.5,0.1,14.8,2.8,20.6,7.6c5.4,4.4,9.6,10.2,12,16.8
				c4.8,0.4,7.8,4.4,7.8,10.2v1.3c0,5.8-3.3,9.9-8.4,10.5c-0.6,1.1-1.2,2.2-2,3.2c2.7,1.4,4.5,4.1,4.7,7.2c0,0.2,0,0.3,0,0.5
				s0,0.3,0,0.5C83,75.8,76.8,75.8,74.7,75.8z"/>
		</g>
		<g>
			<path class="st9" d="M74.7,75.1c-2.1,0-7.6,0-7.6-4.5l0,0c-5.9,2.6-12.3,3.9-18.8,3.8l0,0c-6.6,0.1-13.2-1.2-19.2-4
				c0,0.1,0,0.1,0,0.2c0,4.5-5.5,4.5-7.6,4.5c-1.8,0.1-3.5-0.2-5.2-0.8c-1.5-0.6-2.5-2.1-2.5-3.7c0-0.2,0-0.3,0-0.5s0-0.3,0-0.5
				c0.2-3.2,2.3-5.9,5.3-7c-1-1.2-1.8-2.6-2.5-4c-5-0.4-8.3-4.2-8.3-9.9c0-0.2,0-0.4,0-0.7s0-0.5,0-0.7c0-5.6,3-9.3,7.6-9.5
				c0.1-0.1,0.1-0.2,0.2-0.3c2.4-6.7,6.6-12.5,12.1-16.9C34,16,41,13.5,48.3,13.4c7.4,0.1,14.5,2.7,20.2,7.4c5.5,4.4,9.7,10.3,12,17
				C85,38,88,41.7,88,47.3c0,0.2,0,0.4,0,0.7s0,0.5,0,0.7c0,5.6-3.2,9.5-8.1,9.9c-0.7,1.5-1.6,2.9-2.6,4.2c2.9,1.1,4.8,3.8,5,6.9
				c0,0.2,0,0.3,0,0.5s0,0.3,0,0.5C82.3,75.1,76.8,75.1,74.7,75.1z"/>
		</g>
		<g>
			<g id="组_1_副本">
				<path class="st10" d="M26.8,48.7c-0.2,5-4.2,9.1-9.3,9.2c-5.8,0-8.4-4.4-8.4-9.2s2.4-8.8,7.3-8.8S26.8,43.8,26.8,48.7z"/>
				<path class="st11" d="M26.8,47.3c-0.2,5-4.2,9.1-9.3,9.2c-5.8,0-8.4-4.4-8.4-9.2s2.4-8.8,7.3-8.8S26.8,42.4,26.8,47.3z"/>
				<path class="st10" d="M69.7,48.7c0.2,5,4.2,9.1,9.3,9.2c5.8,0,8.4-4.4,8.4-9.2s-2.4-8.8-7.3-8.8S69.7,43.8,69.7,48.7z"/>
				<path class="st11" d="M69.7,47.3c0.2,5,4.2,9.1,9.3,9.2c5.8,0,8.4-4.4,8.4-9.2s-2.4-8.8-7.3-8.8S69.7,42.4,69.7,47.3z"/>
				
					<radialGradient id="SVGID_5_" cx="49.93" cy="-281.69" r="32.1" gradientTransform="matrix(1 0 0 -1 -0.13 -273.97)" gradientUnits="userSpaceOnUse">
					<stop  offset="0" style="stop-color:#FFFFFF"/>
					<stop  offset="1" style="stop-color:#D9E9F9"/>
				</radialGradient>
				<path class="st12" d="M81.5,48c0,16.5-14.9,25.7-33.2,25.7S15.1,64.4,15.1,48S30,14.1,48.3,14.1S81.5,31.5,81.5,48z"/>
				<path class="st13" d="M78.8,38.3c-1-2-3.4-2.7-5.4-1.7c-1.4,0.7-2.2,2.1-2.2,3.7c0,0.2,0,0.4,0,0.6c0,0.3,0.1,0.6,0.2,1
					c0.4,1.6,0.6,3.3,0.6,5c0,11.8-10.7,18.5-23.9,18.5s-23.8-6.7-23.8-18.6c0-1.8,0.9-5.9,0.9-6.5c0.1-2.2-1.7-4-3.9-4.1
					c-1.3,0-2.5,0.6-3.3,1.6c-0.6,0.8-1,1.7-1.1,2.6c-0.3,2.4-0.6,4.9-0.6,7.3c0,15.9,14.4,24.9,32.1,24.9s32.1-9,32.1-24.9
					C80.4,45.1,79.4,39.5,78.8,38.3z"/>
				<path class="st14" d="M23,42.4c-0.1,0.7-0.1,1.4-0.1,2.1c0,14.2,11.4,22.2,25.4,22.2s25.4-8,25.4-22.2c0-0.8-0.1-1.6-0.2-2.4
					c-6-2.5-15-4.1-25-4.1C38.2,38.1,29,39.8,23,42.4z"/>
				<path class="st15" d="M48.2,64.2c-6.3,0-12-1.8-16-5.1c-4.2-3.5-6.6-8.8-6.4-14.3c0-0.4,0-1,0-1.3c5.5-2.1,13.4-3.2,22.6-3.2
					c8.8,0,16.6,1.1,22.1,3c0,0.4,0,1,0,1.5c0.2,5.5-2.1,10.8-6.3,14.3C60.2,62.4,54.5,64.2,48.2,64.2z"/>
				<path class="st13" d="M48.3,15.8c18,0,32.7,16.8,33.2,33V48c0-16.5-14.9-33.9-33.2-33.9S15.1,31.5,15.1,48v0.8
					C15.6,32.6,30.3,15.8,48.3,15.8z"/>
				<path class="st16" d="M79.8,38.3c-1.1-2-3.7-2.7-5.7-1.6c-1.3,0.7-2.1,2.1-2.2,3.6c0,0.2,0,0.4,0,0.6c0,0.3,0.1,0.7,0.2,1
					c0.4,1.7,0.6,3.4,0.7,5.1c0,12.3-11.1,19.2-24.7,19.2S23.5,59.3,23.5,47c0-1.8,0.9-6.1,0.9-6.7c0-2.3-1.9-4.2-4.2-4.1
					c-1.2,0-2.4,0.6-3.2,1.5c-0.6,0.8-1,1.7-1.2,2.7c-0.4,2.5-0.6,5.1-0.7,7.6c0,16.5,14.9,25.7,33.2,25.7S81.5,64.4,81.5,48
					C81.5,45.3,80.4,39.5,79.8,38.3z"/>
				<path id="形状_1_副本_拷贝_2" class="st17" d="M37.7,51.9h20.4c0,0,1.2,11.9-10.3,11.9S37.7,51.9,37.7,51.9z"/>
				<path id="形状_1_副本_拷贝_2-2" class="st18" d="M37.7,51h20.4c0,0,1.2,11.8-10.3,11.8S37.7,51,37.7,51z"/>
			</g>
		</g>
		<path class="st19" d="M11.8,70.2c1.4,3.5,3.1,6.5,5.3,8.7c12,12.1,49.8,12.1,61.8,0c2.2-2.2,4-5.2,5.4-8.7H11.8z"/>
		<g id="_96-2">
			<circle id="形状_3_副本_拷贝" cx="29.7" cy="75.6" r="3.3"/>
			<circle id="形状_3_副本_拷贝_2" cx="66.2" cy="75.6" r="3.3"/>
			<path class="st20" d="M30.8,74.8c0.6,0,1,0.3,1,1c0,1.1-0.8,1.3-1.2,2.2s-0.4,3.2,1.2,3.2h31.1c1.9,0,2.4-0.8,2.4-1.5
				c0.3-1-0.1-2.2-0.9-2.9c-1.3-1.2,0-2.6,1.4-2.2C67,75,68,76,68.3,77.2c0.3,1.6,0.3,3.2,0,4.7c-0.5,1.4-1.8,2.4-3.3,2.4
				c-1.6,0-32.3,0.4-33.7,0.4s-3.4-0.8-3.9-2.6s-0.1-4.8,1.5-6.3C29.8,74.9,30.4,74.7,30.8,74.8z"/>
		</g>
		<g>
			<g>
				<g id="组_11_拷贝_2">
					<path class="st21" d="M49.9,81.3c0.1,0,0.3,0,0.5,0.5c0.1,0.3,0.2,0.6,0.3,0.9c0.2,0.6,0.5,1.4,1.2,1.4c0,0,0.1,0,0.2,0
						L52,83.3c-0.2,0-0.3-0.1-0.5-0.8c-0.1-0.3-0.2-0.6-0.4-1c-0.1-0.1-0.1-0.2-0.2-0.3h-1L49.9,81.3z"/>
					<path class="st21" d="M47.3,81.3c0.1,0,0.3,0,0.5,0.5c0.1,0.3,0.2,0.6,0.3,0.9c0.2,0.6,0.5,1.4,1.2,1.4c0,0,0.1,0,0.2,0
						l-0.1-0.7c-0.2,0-0.3-0.1-0.5-0.8c-0.1-0.3-0.2-0.6-0.4-1c-0.1-0.1-0.1-0.2-0.2-0.3h-1L47.3,81.3z"/>
					<path class="st21" d="M55.1,81.3c0.1,0,0.3,0,0.5,0.5c0.1,0.3,0.2,0.6,0.3,0.9c0.2,0.6,0.5,1.4,1.2,1.4c0,0,0.1,0,0.2,0
						l-0.1-0.7c-0.2,0-0.3-0.1-0.5-0.8c-0.1-0.3-0.2-0.6-0.4-1c-0.1-0.1-0.1-0.2-0.2-0.3h-1L55.1,81.3z"/>
					<path class="st21" d="M52.5,81.3c0.1,0,0.3,0,0.5,0.5c0.1,0.3,0.2,0.6,0.3,0.9c0.2,0.6,0.5,1.4,1.2,1.4c0,0,0.1,0,0.2,0
						l-0.1-0.7c-0.2,0-0.3-0.1-0.5-0.8c-0.1-0.3-0.2-0.6-0.4-1c-0.1-0.1-0.1-0.2-0.2-0.3h-1L52.5,81.3z"/>
					<path class="st21" d="M60.2,81.3c0.1,0,0.3,0,0.5,0.5c0.1,0.3,0.2,0.6,0.3,0.9c0.2,0.6,0.5,1.4,1.2,1.4c0,0,0.1,0,0.2,0
						l-0.1-0.7c-0.2,0-0.3-0.1-0.5-0.8c-0.1-0.3-0.2-0.6-0.4-1c-0.1-0.1-0.1-0.2-0.2-0.3h-1L60.2,81.3z"/>
					<path class="st21" d="M64.2,82.5c-0.1-0.3-0.2-0.6-0.4-1c-0.1-0.1-0.1-0.3-0.2-0.4c-0.2,0-0.4,0-0.7,0h-0.3l0.1,0.1
						c0.1,0,0.3,0,0.5,0.5c0.1,0.3,0.2,0.6,0.3,0.9c0.2,0.6,0.5,1.4,1.2,1.4c0,0,0.1,0,0.2,0l-0.1-0.7
						C64.5,83.4,64.5,83.2,64.2,82.5z"/>
					<path class="st21" d="M67.7,82.9l-0.2-0.5c-0.3,0.1-0.9-0.9-1.2-1.4c-0.1-0.2-0.2-0.3-0.3-0.5c-0.2-0.3-0.5-0.6-0.7-0.7
						c0,0.2-0.1,0.5-0.3,0.7c0.1,0,0.3,0.1,0.5,0.4c0.1,0.1,0.2,0.3,0.3,0.5c0.5,0.8,1.1,1.7,1.8,1.7C67.6,83.1,67.7,83,67.7,82.9z"
						/>
					<path class="st21" d="M68.5,78.7L68.5,78.7c-0.4,0.3-0.9,0.5-1.5,0.4c-0.6-0.1-1.2-0.4-1.7-0.8c0.1,0.3,0.1,0.6,0.1,0.9
						c0.5,0.3,0.9,0.5,1.5,0.6c0.1,0,0.3,0,0.4,0c0.5,0,0.9-0.1,1.3-0.4C68.5,79.3,68.5,79,68.5,78.7z"/>
					<path class="st21" d="M68.2,76.9c-0.1-0.3-0.2-0.6-0.4-0.8c-0.2,0.5-0.6,0.7-1.7,0.9h-1.5c0.2,0.2,0.4,0.5,0.5,0.7l1,0
						C67.2,77.6,67.8,77.4,68.2,76.9z"/>
					<path class="st21" d="M64.1,76.5c0.6-0.1,1.1-0.3,1.6-0.6c0.4-0.2,0.6-0.6,0.8-1c-0.2-0.1-0.4-0.2-0.6-0.3c0,0,0,0,0,0
						c-0.1,0.3-0.2,0.6-0.5,0.7c-0.4,0.3-0.9,0.4-1.4,0.5C63.9,76,64,76.3,64.1,76.5z"/>
					<path class="st21" d="M57.6,81.3c0.1,0,0.3,0,0.5,0.5c0.1,0.3,0.2,0.6,0.3,0.9c0.2,0.6,0.5,1.4,1.2,1.4c0,0,0.1,0,0.2,0
						l-0.1-0.7c-0.2,0-0.3-0.1-0.5-0.8c-0.1-0.3-0.2-0.6-0.4-1c-0.1-0.1-0.1-0.2-0.2-0.3h-1L57.6,81.3z"/>
					<path class="st21" d="M44.8,81.3c0.1,0,0.3,0,0.5,0.5c0.1,0.3,0.2,0.6,0.3,0.9c0.2,0.6,0.5,1.4,1.2,1.4c0,0,0.1,0,0.2,0
						l-0.1-0.7c-0.2,0-0.3-0.1-0.5-0.8c-0.1-0.3-0.2-0.6-0.4-1c-0.1-0.1-0.1-0.2-0.2-0.3h-1L44.8,81.3z"/>
					<path class="st21" d="M42.2,81.3c0.1,0,0.3,0,0.5,0.5c0.1,0.3,0.2,0.6,0.3,0.9c0.2,0.6,0.5,1.4,1.2,1.4c0,0,0.1,0,0.2,0
						l-0.1-0.7c-0.2,0-0.3-0.1-0.5-0.8c-0.1-0.3-0.2-0.6-0.4-1c-0.1-0.1-0.1-0.2-0.2-0.3h-1L42.2,81.3z"/>
					<path class="st21" d="M39.6,81.3c0.1,0,0.3,0,0.5,0.5c0.1,0.3,0.2,0.6,0.3,0.9c0.2,0.6,0.5,1.4,1.2,1.4c0,0,0.1,0,0.2,0
						l-0.1-0.7c-0.2,0-0.3-0.1-0.5-0.8c-0.1-0.3-0.2-0.6-0.4-1c-0.1-0.1-0.1-0.2-0.2-0.3h-1L39.6,81.3z"/>
					<path class="st21" d="M37,81.3c0.1,0,0.3,0,0.5,0.5c0.1,0.3,0.2,0.6,0.3,0.9c0.2,0.6,0.5,1.4,1.2,1.4c0,0,0.1,0,0.2,0l-0.1-0.7
						c-0.2,0-0.3-0.1-0.5-0.8c-0.1-0.3-0.2-0.6-0.4-1c-0.1-0.1-0.1-0.2-0.2-0.3h-1L37,81.3z"/>
					<path class="st21" d="M34.5,81.3c0.1,0,0.3,0,0.5,0.5c0.1,0.3,0.2,0.6,0.3,0.9c0.2,0.6,0.5,1.4,1.2,1.4c0,0,0.1,0,0.2,0
						l-0.1-0.7c-0.2,0-0.3-0.1-0.5-0.8c-0.1-0.3-0.2-0.6-0.4-1c-0.1-0.1-0.1-0.2-0.2-0.3h-1L34.5,81.3z"/>
					<path class="st21" d="M33.6,84c-0.3-0.1-0.5-0.9-0.6-1.5c-0.1-0.5-0.2-1-0.4-1.3h-0.8l-0.1,0.1c0.2,0.2,0.4,0.9,0.5,1.4
						c0.2,0.8,0.4,1.7,1,2c0.1,0,0.1,0,0.2,0L33.6,84z"/>
					<path class="st21" d="M30,83.7c-0.2-0.5-0.3-1-0.2-1.4c0.2-0.6,0.5-1.1,0.9-1.5c-0.1-0.2-0.3-0.4-0.3-0.7
						c-0.6,0.5-1,1.2-1.3,2.1c-0.1,0.8,0,1.5,0.2,1.9L30,83.7z"/>
					<path class="st21" d="M30.4,79c0-0.3,0.1-0.5,0.1-0.7c-1.5-0.1-2.5,0.3-3.3,1.3c-0.1,0.6-0.1,1.1,0,1.6l0,0
						C27.8,79.5,28.8,78.9,30.4,79z"/>
					<path class="st21" d="M28.1,76.9c1-0.3,2,0,2.8,0.7c0.2-0.2,0.3-0.4,0.5-0.6c-0.7-0.7-1.7-1-2.7-0.9
						C28.4,76.3,28.2,76.6,28.1,76.9z"/>
					<path class="st21" d="M30.8,75.2c0.4,0.3,0.7,0.7,1,1.1c0-0.1,0.1-0.3,0.1-0.5c0-0.7-0.4-1-1-1c-0.2,0-0.4,0-0.7,0.1
						C30.3,75,30.6,75.1,30.8,75.2z"/>
				</g>
				<path class="st22" d="M68.3,81c-0.5,1.3-1.8,2.2-3.3,2.1c-1.6,0-32.3,0.4-33.7,0.4s-3.4-0.5-3.9-2.3c-0.1-0.4-0.1-0.8-0.1-1.2
					c0,0.7,0,1.4,0.2,2.1c0.4,1.8,2.5,2.6,3.9,2.6s32.1-0.4,33.7-0.4c1.5-0.1,2.7-1,3.2-2.3c0.2-0.9,0.3-1.9,0.2-2.8
					C68.5,79.8,68.4,80.4,68.3,81z"/>
			</g>
			<path class="st23" d="M28.4,70.6c0,3.1-3.1,3.8-6.9,3.8s-6.9-0.7-6.9-3.8s3.1-7,6.9-7S28.4,67.5,28.4,70.6z"/>
			
				<radialGradient id="SVGID_6_" cx="22.2" cy="-333.91" r="9.3" gradientTransform="matrix(1 0 0 -1 -0.13 -273.97)" gradientUnits="userSpaceOnUse">
				<stop  offset="0" style="stop-color:#DEEBF5"/>
				<stop  offset="1" style="stop-color:#CBDFF4"/>
			</radialGradient>
			<path class="st24" d="M28.4,69.6c0,3.1-3.1,4.1-6.9,4.1s-6.9-1.1-6.9-4.1c0.3-3.7,3.2-6.6,6.9-6.7C25.2,63,28.1,65.9,28.4,69.6z"
				/>
			<path class="st23" d="M81.6,70.6c0,3.1-3.1,3.8-6.9,3.8s-6.9-0.7-6.9-3.8s3.1-7,6.9-7S81.6,67.5,81.6,70.6z"/>
			
				<radialGradient id="SVGID_7_" cx="71.81" cy="-333.33" r="10.85" gradientTransform="matrix(1 0 0 -1 0 -274)" gradientUnits="userSpaceOnUse">
				<stop  offset="0" style="stop-color:#DEEBF5"/>
				<stop  offset="1" style="stop-color:#CBDFF4"/>
			</radialGradient>
			<path class="st25" d="M81.6,69.6c0,3.1-3.1,4.1-6.9,4.1s-6.9-1.1-6.9-4.1c0-3.8,3.1-6.9,6.9-6.9C78.5,62.7,81.6,65.8,81.6,69.6z"
				/>
		</g>
	</g>
</g>
</svg>
