<?xml version="1.0" encoding="utf-8"?>
<!-- Generator: Adobe Illustrator 24.0.0, SVG Export Plug-In . SVG Version: 6.00 Build 0)  -->
<svg version="1.1" id="图层_1" xmlns="http://www.w3.org/2000/svg" xmlns:xlink="http://www.w3.org/1999/xlink" x="0px" y="0px"
	 viewBox="0 0 96 96" style="enable-background:new 0 0 96 96;" xml:space="preserve">
<style type="text/css">
	.st0{opacity:0.2;}
	.st1{opacity:8.000000e-02;}
	.st2{opacity:0.1;}
	.st3{fill:url(#SVGID_1_);}
	.st4{fill:url(#SVGID_2_);}
	.st5{opacity:8.000000e-02;fill:#130F30;enable-background:new    ;}
	.st6{fill:url(#SVGID_3_);}
	.st7{fill:url(#SVGID_4_);}
	.st8{fill:url(#SVGID_5_);}
	.st9{fill:url(#SVGID_6_);}
	.st10{opacity:0.9;fill:url(#SVGID_7_);enable-background:new    ;}
	.st11{opacity:0.48;fill:url(#SVGID_8_);enable-background:new    ;}
</style>
<g>
	<g id="_128">
		<g class="st0">
			<path d="M47.5,92c-14.9,0-28-3.9-34.3-10.2S3,62.4,3,47.5s3.9-28,10.2-34.3S32.6,3,47.5,3s28,3.9,34.3,10.2S92,32.6,92,47.5
				s-3.9,28-10.2,34.3S62.4,92,47.5,92z"/>
		</g>
		<g class="st1">
			<path d="M49,95c-15.3,0-28.8-4.1-35.4-10.6S3,64.3,3,49s4.1-28.8,10.6-35.4S33.7,3,49,3s28.8,4.1,35.4,10.6S95,33.7,95,49
				s-4.1,28.8-10.6,35.4S64.3,95,49,95z"/>
		</g>
		<g class="st2">
			<path d="M49,93.5c-14.9,0-28-3.9-34.3-10.2S4.5,63.9,4.5,49s3.9-28,10.2-34.3S34.1,4.5,49,4.5s28,3.9,34.3,10.2
				S93.5,34.1,93.5,49s-3.9,28-10.2,34.3S63.9,93.5,49,93.5z"/>
		</g>
		<g id="_128-2">
			
				<linearGradient id="SVGID_1_" gradientUnits="userSpaceOnUse" x1="47.4912" y1="149.48" x2="47.4912" y2="235.4513" gradientTransform="matrix(1 0 0 -1 0 239.97)">
				<stop  offset="0" style="stop-color:#FFA184"/>
				<stop  offset="1" style="stop-color:#FFF59F"/>
			</linearGradient>
			<path class="st3" d="M80.7,80.7c-13,13-53.5,13-66.5,0s-13-53.5,0-66.5s53.5-13,66.5,0S93.7,67.8,80.7,80.7z"/>
		</g>
		
			<linearGradient id="SVGID_2_" gradientUnits="userSpaceOnUse" x1="47.485" y1="152.51" x2="47.485" y2="232.45" gradientTransform="matrix(1 0 0 -1 0 239.97)">
			<stop  offset="0" style="stop-color:#FF8A65"/>
			<stop  offset="1" style="stop-color:#FFEF61"/>
		</linearGradient>
		<path class="st4" d="M47.5,87.5c-13.7,0-25.6-3.4-31.1-8.8S7.5,61.2,7.5,47.5s3.4-25.6,8.9-31.1s17.4-8.9,31.1-8.9
			s25.6,3.4,31.1,8.9s8.8,17.4,8.8,31.1s-3.4,25.6-8.9,31.1S61.2,87.5,47.5,87.5z"/>
	</g>
	<g id="图层_26">
		<g id="_96-2">
			<circle class="st5" cx="48" cy="48" r="37"/>
			
				<linearGradient id="SVGID_3_" gradientUnits="userSpaceOnUse" x1="48" y1="17.72" x2="48" y2="83.54" gradientTransform="matrix(1 0 0 -1 0 98)">
				<stop  offset="0" style="stop-color:#FFC0A7"/>
				<stop  offset="1" style="stop-color:#FFFAC7"/>
			</linearGradient>
			<circle class="st6" cx="48" cy="48" r="34"/>
			
				<linearGradient id="SVGID_4_" gradientUnits="userSpaceOnUse" x1="48" y1="20.58" x2="48" y2="80.63" gradientTransform="matrix(1 0 0 -1 0 98)">
				<stop  offset="0" style="stop-color:#E444FA"/>
				<stop  offset="1" style="stop-color:#5857F8"/>
			</linearGradient>
			<circle class="st7" cx="48" cy="48" r="31"/>
			
				<linearGradient id="SVGID_5_" gradientUnits="userSpaceOnUse" x1="48" y1="26" x2="48" y2="74" gradientTransform="matrix(1 0 0 -1 0 98)">
				<stop  offset="0" style="stop-color:#D65EFD"/>
				<stop  offset="1" style="stop-color:#9B8AFE"/>
			</linearGradient>
			<circle class="st8" cx="48" cy="48" r="24"/>
			
				<linearGradient id="SVGID_6_" gradientUnits="userSpaceOnUse" x1="48" y1="34" x2="48" y2="66" gradientTransform="matrix(1 0 0 -1 0 98)">
				<stop  offset="0" style="stop-color:#9202E6"/>
				<stop  offset="1" style="stop-color:#1C21D5"/>
			</linearGradient>
			<circle class="st9" cx="48" cy="48" r="16"/>
			
				<linearGradient id="SVGID_7_" gradientUnits="userSpaceOnUse" x1="-739" y1="-527" x2="-727" y2="-527" gradientTransform="matrix(6.123234e-17 -1 -1 -6.123234e-17 -479 -685)">
				<stop  offset="0" style="stop-color:#FFC0A7"/>
				<stop  offset="1" style="stop-color:#FFFAC7"/>
			</linearGradient>
			<circle class="st10" cx="48" cy="48" r="6"/>
			
				<linearGradient id="SVGID_8_" gradientUnits="userSpaceOnUse" x1="48" y1="51" x2="48" y2="73" gradientTransform="matrix(1 0 0 -1 0 98)">
				<stop  offset="0" style="stop-color:#FFFFFF;stop-opacity:0"/>
				<stop  offset="1" style="stop-color:#FFFFFF"/>
			</linearGradient>
			<path class="st11" d="M67,38c0,6.1-8.5,9-19,9s-19-2.9-19-9s8.5-13,19-13S67,31.9,67,38z"/>
		</g>
	</g>
</g>
</svg>
