<?xml version="1.0" encoding="utf-8"?>
<!-- Generator: Adobe Illustrator 24.0.0, SVG Export Plug-In . SVG Version: 6.00 Build 0)  -->
<svg version="1.1" id="图层_1" xmlns="http://www.w3.org/2000/svg" xmlns:xlink="http://www.w3.org/1999/xlink" x="0px" y="0px"
	 viewBox="0 0 96 96" style="enable-background:new 0 0 96 96;" xml:space="preserve">
<style type="text/css">
	.st0{opacity:0.2;}
	.st1{fill:url(#SVGID_1_);}
	.st2{opacity:8.000000e-02;}
	.st3{fill:url(#SVGID_2_);}
	.st4{opacity:0.1;}
	.st5{fill:url(#SVGID_3_);}
	.st6{fill:url(#SVGID_4_);}
	.st7{fill:url(#SVGID_5_);}
	.st8{fill:url(#SVGID_6_);}
	.st9{fill:url(#SVGID_7_);}
	.st10{fill:url(#SVGID_8_);}
	.st11{fill:#FFFFFF;}
	.st12{fill:url(#SVGID_9_);}
	.st13{fill:url(#SVGID_10_);}
	.st14{fill:url(#SVGID_11_);}
	.st15{opacity:0.2;fill:url(#SVGID_12_);}
</style>
<g>
	<g id="_96">
		<g class="st0">
			
				<linearGradient id="SVGID_1_" gradientUnits="userSpaceOnUse" x1="48" y1="-4150.9702" x2="48" y2="-4060.9702" gradientTransform="matrix(1 0 0 -1 0 -4057.9702)">
				<stop  offset="0" style="stop-color:#000000"/>
				<stop  offset="1" style="stop-color:#34484F"/>
			</linearGradient>
			<path class="st1" d="M48,93c-15.1,0-28.4-3.9-34.7-10.3c-13.6-13.6-13.6-55.8,0-69.5C19.6,6.9,32.9,3,48,3s28.4,3.9,34.7,10.3
				c13.6,13.6,13.6,55.8,0,69.5C76.4,89.1,63.1,93,48,93z"/>
		</g>
		<g class="st2">
			
				<linearGradient id="SVGID_2_" gradientUnits="userSpaceOnUse" x1="49" y1="-4152.9702" x2="49" y2="-4060.9702" gradientTransform="matrix(1 0 0 -1 0 -4057.9702)">
				<stop  offset="0" style="stop-color:#000000"/>
				<stop  offset="1" style="stop-color:#34484F"/>
			</linearGradient>
			<path class="st3" d="M49,95c-15.3,0-28.9-4-35.5-10.6S3,64.4,3,49s4-29,10.5-35.5S33.7,3,49,3s28.9,4,35.4,10.6S95,33.6,95,49
				s-4,29-10.5,35.4S64.3,95,49,95z"/>
		</g>
		<g class="st4">
			
				<linearGradient id="SVGID_3_" gradientUnits="userSpaceOnUse" x1="49" y1="-4151.9702" x2="49" y2="-4061.9702" gradientTransform="matrix(1 0 0 -1 0 -4057.9702)">
				<stop  offset="0" style="stop-color:#000000"/>
				<stop  offset="1" style="stop-color:#34484F"/>
			</linearGradient>
			<path class="st5" d="M49,94c-15.1,0-28.4-3.9-34.7-10.3c-13.6-13.6-13.6-55.8,0-69.5C20.6,7.9,33.9,4,49,4s28.4,3.9,34.7,10.3
				c13.6,13.6,13.6,55.8,0,69.5C77.4,90.1,64.1,94,49,94z"/>
		</g>
		<g id="_512">
			
				<linearGradient id="SVGID_4_" gradientUnits="userSpaceOnUse" x1="48" y1="-4149.9453" x2="48" y2="-4061.9951" gradientTransform="matrix(1 0 0 -1 0 -4057.9702)">
				<stop  offset="0" style="stop-color:#000000"/>
				<stop  offset="1" style="stop-color:#34484F"/>
			</linearGradient>
			<path class="st6" d="M82,82c-13.3,13.3-54.7,13.3-68,0S0.7,27.3,14,14s54.7-13.3,68,0S95.3,68.7,82,82z"/>
		</g>
		<g id="_512-2">
			
				<linearGradient id="SVGID_5_" gradientUnits="userSpaceOnUse" x1="48.0438" y1="-4145.9453" x2="48.0438" y2="-4066.0327" gradientTransform="matrix(1 0 0 -1 0 -4057.9702)">
				<stop  offset="0" style="stop-color:#0A1317"/>
				<stop  offset="1" style="stop-color:#425B63"/>
			</linearGradient>
			<path class="st7" d="M78.9,78.9c-12,12.1-49.8,12.1-61.8,0S5,29.1,17.1,17.1S66.9,5,79,17.1S91,66.9,78.9,78.9z"/>
		</g>
	</g>
	<g id="麒麟影音-深灰色">
		<g id="_96-2">
			<g id="_64">
				
					<linearGradient id="SVGID_6_" gradientUnits="userSpaceOnUse" x1="26.9407" y1="-4137.9702" x2="78.0807" y2="-4065.7004" gradientTransform="matrix(1 0 0 -1 0 -4057.9702)">
					<stop  offset="0" style="stop-color:#4DD0E1"/>
					<stop  offset="0.94" style="stop-color:#1976D2"/>
				</linearGradient>
				<path class="st8" d="M51,17c-16,0-29,13-29,29v29h29c16,0,29-13,29-29S67,17,51,17z"/>
				
					<linearGradient id="SVGID_7_" gradientUnits="userSpaceOnUse" x1="21" y1="-4103.9702" x2="81" y2="-4103.9702" gradientTransform="matrix(1 0 0 -1 0 -4057.9702)">
					<stop  offset="6.000000e-02" style="stop-color:#BA68C8"/>
					<stop  offset="1" style="stop-color:#03A9F4"/>
				</linearGradient>
				<path class="st9" d="M21,76V46c0-16.6,13.4-30,30-30s30,13.4,30,30S67.6,76,51,76H21z"/>
				<g>
					
						<radialGradient id="SVGID_8_" cx="12527.7969" cy="-13497.7314" r="317.68" gradientTransform="matrix(0.19 0 0 -0.19 -2368.01 -2551.2844)" gradientUnits="userSpaceOnUse">
						<stop  offset="0" style="stop-color:#F9DEFF"/>
						<stop  offset="0.94" style="stop-color:#1976D2;stop-opacity:0"/>
					</radialGradient>
					<path class="st10" d="M51,17c-16,0-29,13-29,29v29h29c16,0,29-13,29-29S67,17,51,17z"/>
				</g>
				<g class="st0">
					<path class="st11" d="M51,69c-12.7,0-23-10.3-23-23s10.3-23,23-23s23,10.3,23,23S63.7,69,51,69z"/>
				</g>
				
					<radialGradient id="SVGID_9_" cx="12729.7568" cy="-13669.9189" r="110.6238" gradientTransform="matrix(0.19 0 0 -0.19 -2367.6101 -2551.2844)" gradientUnits="userSpaceOnUse">
					<stop  offset="0" style="stop-color:#455A64"/>
					<stop  offset="1" style="stop-color:#263238"/>
				</radialGradient>
				<circle class="st12" cx="51" cy="46" r="21"/>
				
					<linearGradient id="SVGID_10_" gradientUnits="userSpaceOnUse" x1="59.6269" y1="-4118.292" x2="45.7269" y2="-4098.3521" gradientTransform="matrix(1 0 0 -1 0 -4057.9702)">
					<stop  offset="0.34" style="stop-color:#999999"/>
					<stop  offset="1" style="stop-color:#E6E6E6"/>
				</linearGradient>
				<polygon class="st13" points="63,46.5 45,35 45,58 				"/>
				
					<linearGradient id="SVGID_11_" gradientUnits="userSpaceOnUse" x1="44.9358" y1="-4093.022" x2="54.9358" y2="-4111.3521" gradientTransform="matrix(1 0 0 -1 0 -4057.9702)">
					<stop  offset="0.38" style="stop-color:#FFFFFF"/>
					<stop  offset="1" style="stop-color:#CCCCCC"/>
				</linearGradient>
				<polygon class="st14" points="47,38 60,46.5 47,55 				"/>
				<linearGradient id="SVGID_12_" gradientUnits="userSpaceOnUse" x1="27.7121" y1="28.68" x2="48.226" y2="51.8839">
					<stop  offset="0" style="stop-color:#FFFFFF"/>
					<stop  offset="0.94" style="stop-color:#FFFFFF;stop-opacity:0"/>
				</linearGradient>
				<path class="st15" d="M51,17c-16,0-29,13-29,29v29h4.5C30.6,64.8,44,37.9,72.8,26.9C67.5,20.9,59.7,17,51,17z"/>
			</g>
		</g>
	</g>
</g>
</svg>
