<?xml version="1.0" encoding="utf-8"?>
<!-- Generator: Adobe Illustrator 24.0.0, SVG Export Plug-In . SVG Version: 6.00 Build 0)  -->
<svg version="1.1" id="图层_1" xmlns="http://www.w3.org/2000/svg" xmlns:xlink="http://www.w3.org/1999/xlink" x="0px" y="0px"
	 viewBox="0 0 96 96" style="enable-background:new 0 0 96 96;" xml:space="preserve">
<style type="text/css">
	.st0{opacity:0.2;}
	.st1{opacity:8.000000e-02;}
	.st2{opacity:0.1;}
	.st3{fill:url(#SVGID_1_);}
	.st4{fill:url(#SVGID_2_);}
	.st5{fill:#D2A7B4;}
	.st6{fill:url(#SVGID_3_);}
	.st7{opacity:0.2;fill:#FFFFFF;enable-background:new    ;}
	.st8{fill:#8C7A8A;}
	.st9{fill:#797791;}
	.st10{fill:url(#SVGID_4_);}
</style>
<g id="_128">
	<g class="st0">
		<path d="M47.5,92c-14.9,0-28-3.9-34.3-10.2S3,62.4,3,47.5s3.9-28,10.2-34.3S32.6,3,47.5,3s28,3.9,34.3,10.2S92,32.6,92,47.5
			s-3.9,28-10.2,34.3S62.4,92,47.5,92z"/>
	</g>
	<g class="st1">
		<path d="M49,95c-15.3,0-28.8-4.1-35.4-10.6S3,64.3,3,49s4.1-28.8,10.6-35.4S33.7,3,49,3s28.8,4.1,35.4,10.6S95,33.7,95,49
			s-4.1,28.8-10.6,35.4S64.3,95,49,95z"/>
	</g>
	<g class="st2">
		<path d="M49,93.5c-14.9,0-28-3.9-34.3-10.2S4.5,63.9,4.5,49s3.9-28,10.2-34.3S34.1,4.5,49,4.5s28,3.9,34.3,10.2S93.5,34.1,93.5,49
			s-3.9,28-10.2,34.3S63.9,93.5,49,93.5z"/>
	</g>
	<g id="_128-2">
		
			<linearGradient id="SVGID_1_" gradientUnits="userSpaceOnUse" x1="47.4912" y1="149.48" x2="47.4912" y2="235.4513" gradientTransform="matrix(1 0 0 -1 0 239.97)">
			<stop  offset="0" style="stop-color:#766F87"/>
			<stop  offset="1" style="stop-color:#B78C91"/>
		</linearGradient>
		<path class="st3" d="M80.7,80.7c-13,13-53.5,13-66.5,0s-13-53.5,0-66.5s53.5-13,66.5,0S93.7,67.8,80.7,80.7z"/>
	</g>
	
		<linearGradient id="SVGID_2_" gradientUnits="userSpaceOnUse" x1="47.485" y1="152.51" x2="47.485" y2="232.45" gradientTransform="matrix(1 0 0 -1 0 239.97)">
		<stop  offset="0" style="stop-color:#585C75"/>
		<stop  offset="0.67" style="stop-color:#8E747E"/>
		<stop  offset="1" style="stop-color:#A37E81"/>
	</linearGradient>
	<path class="st4" d="M47.5,87.5c-13.7,0-25.6-3.4-31.1-8.8S7.5,61.2,7.5,47.5s3.4-25.6,8.9-31.1s17.4-8.9,31.1-8.9
		s25.6,3.4,31.1,8.9s8.8,17.4,8.8,31.1s-3.4,25.6-8.9,31.1S61.2,87.5,47.5,87.5z"/>
</g>
<g id="外部控制器">
	<g id="_96-2">
		<rect x="53.4" y="31.1" transform="matrix(0.7071 -0.7071 0.7071 0.7071 -5.4742 53.9686)" class="st5" width="18" height="5"/>
		
			<linearGradient id="SVGID_3_" gradientUnits="userSpaceOnUse" x1="-78.7695" y1="536.38" x2="-78.7695" y2="572.38" gradientTransform="matrix(0.7071 0.7071 0.7071 -0.7071 -292.2965 499.6634)">
			<stop  offset="0" style="stop-color:#CBA7B4"/>
			<stop  offset="1" style="stop-color:#CAB4C6"/>
		</linearGradient>
		<path class="st6" d="M57.9,40.4l-1.1-1.1L44,26.5c-2.3-2.3-6.1-2.3-8.5,0c0,0,0,0,0,0l-17,17c-2.3,2.3-2.3,6.1,0,8.5l12.8,12.7
			l1.1,1.1L44,77.4c2.3,2.3,6.1,2.3,8.5,0l17-17c2.3-2.3,2.3-6.1,0-8.5c0,0,0,0,0,0L57.9,40.4z"/>
		<path class="st7" d="M57.9,40.4l-1.1-1.1l0,0L31.3,64.7l0,0l1.1,1.1L44,77.4c2.3,2.3,6.1,2.3,8.5,0l17-17c2.3-2.3,2.3-6.1,0-8.5
			c0,0,0,0,0,0L57.9,40.4z"/>
		<circle class="st8" cx="37" cy="42.1" r="6"/>
		<circle class="st9" cx="53.9" cy="59" r="6"/>
		
			<linearGradient id="SVGID_4_" gradientUnits="userSpaceOnUse" x1="-78.7483" y1="582.3816" x2="-78.7483" y2="600.3816" gradientTransform="matrix(0.7071 0.7071 0.7071 -0.7071 -292.2965 499.6634)">
			<stop  offset="0" style="stop-color:#FE8591"/>
			<stop  offset="1" style="stop-color:#FF7946"/>
		</linearGradient>
		<circle class="st10" cx="70.2" cy="25.8" r="9"/>
	</g>
</g>
</svg>
