<?xml version="1.0" encoding="utf-8"?>
<!-- Generator: Adobe Illustrator 21.0.0, SVG Export Plug-In . SVG Version: 6.00 Build 0)  -->
<svg version="1.1" id="图层_1" xmlns="http://www.w3.org/2000/svg" xmlns:xlink="http://www.w3.org/1999/xlink" x="0px" y="0px"
	 viewBox="0 0 96 96" style="enable-background:new 0 0 96 96;" xml:space="preserve">
<style type="text/css">
	.st0{opacity:0.2;}
	.st1{opacity:8.000000e-02;}
	.st2{opacity:0.1;}
	.st3{fill:url(#SVGID_1_);}
	.st4{fill:url(#SVGID_2_);}
	.st5{fill:#1F4C8C;}
	.st6{fill:url(#SVGID_3_);}
</style>
<title>128</title>
<g id="底板_复制">
	<g id="蓝色">
		<g id="_128">
			<g class="st0">
				<path d="M47.5,92c-14.9,0-28-3.9-34.3-10.2C6.9,75.5,3,62.4,3,47.5s3.9-28,10.2-34.3S32.6,3,47.5,3s28,3.9,34.3,10.2
					C88.1,19.5,92,32.6,92,47.5s-3.9,28-10.2,34.3C75.5,88.1,62.4,92,47.5,92z"/>
			</g>
			<g class="st1">
				<path d="M49,95c-15.3,0-28.8-4.1-35.4-10.6S3,64.3,3,49s4.1-28.8,10.6-35.4S33.7,3,49,3s28.8,4.1,35.4,10.6S95,33.7,95,49
					s-4.1,28.8-10.6,35.4S64.3,95,49,95z"/>
			</g>
			<g class="st2">
				<path d="M49,93.5c-14.9,0-28-3.9-34.3-10.2C8.4,77,4.5,63.9,4.5,49s3.9-28,10.2-34.3S34.1,4.5,49,4.5s28,3.9,34.3,10.2
					C89.6,21,93.5,34.1,93.5,49s-3.9,28-10.2,34.3C77,89.6,63.9,93.5,49,93.5z"/>
			</g>
			<g id="_128-2">
				
					<linearGradient id="SVGID_1_" gradientUnits="userSpaceOnUse" x1="47.4942" y1="4214.4492" x2="47.4942" y2="4128.4961" gradientTransform="matrix(1 0 0 1 0 -4123.9702)">
					<stop  offset="0" style="stop-color:#4676AD"/>
					<stop  offset="1" style="stop-color:#96BEFF"/>
				</linearGradient>
				<path class="st3" d="M80.7,80.7c-13,13-53.5,13-66.5,0s-13-53.5,0-66.5s53.5-13,66.5,0S93.7,67.8,80.7,80.7z"/>
			</g>
			
				<linearGradient id="SVGID_2_" gradientUnits="userSpaceOnUse" x1="47.4918" y1="4211.4292" x2="47.4918" y2="4131.4946" gradientTransform="matrix(1 0 0 1 0 -4123.9702)">
				<stop  offset="0" style="stop-color:#3A6BA1"/>
				<stop  offset="1" style="stop-color:#78ABFF"/>
			</linearGradient>
			<path class="st4" d="M47.5,87.5c-13.7,0-25.6-3.4-31.1-8.9S7.5,61.2,7.5,47.5s3.4-25.6,8.9-31.1s17.4-8.9,31.1-8.9
				s25.6,3.4,31.1,8.9c5.5,5.5,8.9,17.4,8.9,31.1s-3.4,25.6-8.9,31.1C73.1,84.1,61.2,87.5,47.5,87.5z"/>
		</g>
	</g>
</g>
<g id="gnome-help-蓝色">
	<g id="_128-3">
		<path class="st5" d="M49,60.5c-0.1-5,1-9.8,5.7-13.3c5-3.9,9.9-8.7,9.4-14.5c-0.1-5.5-6.6-9.9-13.6-10.5c-7.9-1.1-17.3,1.6-20,7.7
			c-1.3,3-0.1,8.3,4.4,8.3c2.6,0,3.8-1.7,4-3.2c0-1.1-0.2-2.2-0.6-3.2c-0.3-1.1,1.1-3.2,2.6-4.1c0.9-0.5,1.8-0.8,2.8-1
			c4.1-0.9,8.4,0.7,10.9,4.2c1.9,2.9-0.2,7.3-3.2,11.6s-6.2,9.1-6.2,14.3c0,2-0.2,2.6-0.1,3.4C45.3,60.8,47.4,60.8,49,60.5z
			 M46.9,67.2c-4.3-0.2-7.3,4.6-4.7,7.7c2.3,3.4,8.8,2.6,9.9-1.3C53.3,70.6,50.5,67.1,46.9,67.2z"/>
		
			<linearGradient id="SVGID_3_" gradientUnits="userSpaceOnUse" x1="30" y1="4171.5024" x2="64.1635" y2="4171.5024" gradientTransform="matrix(1 0 0 1 0 -4123.9702)">
			<stop  offset="0" style="stop-color:#E2F4FB"/>
			<stop  offset="1" style="stop-color:#F9F9F9"/>
		</linearGradient>
		<path class="st6" d="M49,58.5c-0.1-5,1-9.8,5.7-13.3c5-3.9,9.9-8.7,9.3-14.5c-0.1-5.5-6.6-9.9-13.6-10.5c-7.9-1.1-17.4,1.6-20,7.7
			c-1.3,3-0.1,8.3,4.4,8.3c2.6,0,3.8-1.7,4-3.2c0-1.1-0.2-2.2-0.6-3.2c-0.3-1.1,1.1-3.2,2.6-4.1c0.9-0.5,1.8-0.8,2.8-1
			c4.2-0.9,8.5,0.7,10.9,4.2c1.9,2.9-0.2,7.3-3.2,11.6c-3,4.3-6.2,9.1-6.2,14.3c0,2-0.2,2.6-0.1,3.4C45.3,58.8,47.4,58.8,49,58.5z
			 M47,65.2c-4.3-0.2-7.3,4.6-4.7,7.7c2.3,3.4,8.8,2.6,9.9-1.3C53.3,68.6,50.6,65.1,47,65.2z"/>
	</g>
</g>
</svg>
