<?xml version="1.0" encoding="utf-8"?>
<!-- Generator: Adobe Illustrator 24.0.0, SVG Export Plug-In . SVG Version: 6.00 Build 0)  -->
<svg version="1.1" id="图层_1" xmlns="http://www.w3.org/2000/svg" xmlns:xlink="http://www.w3.org/1999/xlink" x="0px" y="0px"
	 viewBox="0 0 96 96" style="enable-background:new 0 0 96 96;" xml:space="preserve">
<style type="text/css">
	.st0{opacity:0.2;}
	.st1{opacity:8.000000e-02;}
	.st2{opacity:0.1;}
	.st3{fill:url(#SVGID_1_);}
	.st4{fill:url(#SVGID_2_);}
	.st5{fill:#F2F2F2;}
	.st6{fill:url(#SVGID_3_);}
	.st7{fill:#FFFFFF;}
	.st8{fill:url(#SVGID_4_);}
</style>
<g id="_128">
	<g class="st0">
		<path d="M47.5,92c-14.9,0-28-3.9-34.3-10.2S3,62.4,3,47.5s3.9-28,10.2-34.3S32.6,3,47.5,3s28,3.9,34.3,10.2S92,32.6,92,47.5
			s-3.9,28-10.2,34.3S62.4,92,47.5,92z"/>
	</g>
	<g class="st1">
		<path d="M49,95c-15.3,0-28.8-4.1-35.4-10.6S3,64.3,3,49s4.1-28.8,10.6-35.4S33.7,3,49,3s28.8,4.1,35.4,10.6S95,33.7,95,49
			s-4.1,28.8-10.6,35.4S64.3,95,49,95z"/>
	</g>
	<g class="st2">
		<path d="M49,93.5c-14.9,0-28-3.9-34.3-10.2S4.5,63.9,4.5,49s3.9-28,10.2-34.3S34.1,4.5,49,4.5s28,3.9,34.3,10.2S93.5,34.1,93.5,49
			s-3.9,28-10.2,34.3S63.9,93.5,49,93.5z"/>
	</g>
	<g id="_128-2">
		
			<linearGradient id="SVGID_1_" gradientUnits="userSpaceOnUse" x1="47.4912" y1="149.48" x2="47.4912" y2="235.4513" gradientTransform="matrix(1 0 0 -1 0 239.97)">
			<stop  offset="0" style="stop-color:#289AD8"/>
			<stop  offset="1" style="stop-color:#84D5F9"/>
		</linearGradient>
		<path class="st3" d="M80.7,80.7c-13,13-53.5,13-66.5,0s-13-53.5,0-66.5s53.5-13,66.5,0S93.7,67.8,80.7,80.7z"/>
	</g>
	
		<linearGradient id="SVGID_2_" gradientUnits="userSpaceOnUse" x1="47.485" y1="152.51" x2="47.485" y2="232.45" gradientTransform="matrix(1 0 0 -1 0 239.97)">
		<stop  offset="0" style="stop-color:#0288D1"/>
		<stop  offset="1" style="stop-color:#4FC3F7"/>
	</linearGradient>
	<path class="st4" d="M47.5,87.5c-13.7,0-25.6-3.4-31.1-8.8S7.5,61.2,7.5,47.5s3.4-25.6,8.9-31.1s17.4-8.9,31.1-8.9
		s25.6,3.4,31.1,8.9s8.8,17.4,8.8,31.1s-3.4,25.6-8.9,31.1S61.2,87.5,47.5,87.5z"/>
</g>
<g id="图层_43">
	<g id="_96-2">
		<path class="st5" d="M27,37h44c1.7,0,3,1.3,3,3l0,0c0,1.7-1.3,3-3,3H27c-1.7,0-3-1.3-3-3l0,0C24,38.3,25.3,37,27,37z"/>
		<path class="st5" d="M27,50h44c1.7,0,3,1.3,3,3l0,0c0,1.7-1.3,3-3,3H27c-1.7,0-3-1.3-3-3l0,0C24,51.3,25.3,50,27,50z"/>
		<path class="st5" d="M27,63h44c1.7,0,3,1.3,3,3l0,0c0,1.7-1.3,3-3,3H27c-1.7,0-3-1.3-3-3l0,0C24,64.3,25.3,63,27,63z"/>
		<path class="st5" d="M27,24h44c1.7,0,3,1.3,3,3l0,0c0,1.7-1.3,3-3,3H27c-1.7,0-3-1.3-3-3l0,0C24,25.3,25.3,24,27,24z"/>
		
			<linearGradient id="SVGID_3_" gradientUnits="userSpaceOnUse" x1="48" y1="31.9617" x2="86.0042" y2="31.9617" gradientTransform="matrix(1 0 0 -1 0 98)">
			<stop  offset="0" style="stop-color:#EA3250"/>
			<stop  offset="1" style="stop-color:#FCB472"/>
		</linearGradient>
		<path class="st6" d="M85.9,62.6c0-1.7-1.1-2.5-2.9-2.7c-2.1,0-3.8-1.7-3.7-3.8c0-0.3,0-0.6,0.1-0.8c0.7-3.2,0.5-3.6-2.4-5.3
			l-1.9-1c-1.7-1.4-4.1-1.2-5.5,0.5c0,0,0,0,0,0c-2.1,1.7-3.1,1.7-5.2,0c-1.4-1.7-3.8-1.9-5.5-0.6c0,0,0,0-0.1,0l-3.1,1.7
			c-1.4,0.7-2.1,2.3-1.5,3.8c1,3.2-0.4,5.2-3.8,5.5c-1.2,0-2.3,0.9-2.4,2.2c-0.2,2.5-0.2,5,0,7.5c0,1.6,1,2.4,2.8,2.6
			c2.1,0,3.8,1.7,3.8,3.9c0,0,0,0,0,0c0,0.2,0,0.5,0,0.7c-0.6,3.3-0.6,3.7,2.5,5.4c0.7,0.4,1.3,0.8,2,1.1c1.6,1.1,3.8,0.8,5-0.7
			c2.4-2.1,3.1-2.1,5.6,0c0.5,0.3,1,0.6,1.5,0.9c1,0.6,2.1,0.6,3.1,0c1.8-1.1,3.5-2.1,5-3.3c0.5-0.7,0.6-1.7,0.3-2.5
			c-1.2-2.8,0.7-5.3,3.9-5.7c1.2,0.1,2.2-0.8,2.3-2c0,0,0,0,0,0C86,67.6,86.1,65.1,85.9,62.6z M67.1,74L67.1,74c-4.5,0-8.1-3.6-8-8
			s3.6-8,8-8s8,3.6,8,8C75,70.4,71.5,74,67.1,74z"/>
		<path class="st7" d="M76,66c0,5-4,9-9,9l0,0c-5,0-9-4-9-9s4-9,9-9l0,0C72,57,76,61,76,66z"/>
		
			<linearGradient id="SVGID_4_" gradientUnits="userSpaceOnUse" x1="62" y1="32" x2="72" y2="32" gradientTransform="matrix(1 0 0 -1 0 98)">
			<stop  offset="0" style="stop-color:#E50A45"/>
			<stop  offset="1" style="stop-color:#FCB472"/>
		</linearGradient>
		<path class="st8" d="M71.7,64.1l-4.5,4.6l-1,1c-0.5,0.5-1.2,0.5-1.7,0c0,0,0,0,0,0l-2.1-2.1c-0.5-0.5-0.5-1.2,0-1.7c0,0,0,0,0,0
			c0.5-0.5,1.2-0.5,1.7,0c0,0,0,0,0,0l1.3,1.3l4.7-4.8c0.5-0.5,1.2-0.5,1.7,0c0,0,0,0,0,0C72.1,62.8,72.1,63.6,71.7,64.1
			C71.7,64,71.7,64,71.7,64.1z"/>
	</g>
</g>
</svg>
