<?xml version="1.0" encoding="utf-8"?>
<!-- Generator: Adobe Illustrator 24.0.0, SVG Export Plug-In . SVG Version: 6.00 Build 0)  -->
<svg version="1.1" id="图层_1" xmlns="http://www.w3.org/2000/svg" xmlns:xlink="http://www.w3.org/1999/xlink" x="0px" y="0px"
	 viewBox="0 0 96 96" style="enable-background:new 0 0 96 96;" xml:space="preserve">
<style type="text/css">
	.st0{opacity:0.2;}
	.st1{opacity:8.000000e-02;}
	.st2{opacity:0.1;}
	.st3{fill:url(#SVGID_1_);}
	.st4{fill:url(#SVGID_2_);}
	.st5{opacity:0.4;}
	.st6{opacity:0.5;fill:#595959;enable-background:new    ;}
	.st7{opacity:0.7;fill:#FFFFFF;enable-background:new    ;}
	.st8{opacity:0.9;fill:#1F1F28;enable-background:new    ;}
	.st9{fill:url(#SVGID_3_);}
	.st10{fill:url(#SVGID_4_);}
	.st11{fill:url(#SVGID_5_);}
</style>
<g id="_128">
	<g class="st0">
		<path d="M47.5,92c-14.9,0-28-3.9-34.3-10.2S3,62.4,3,47.5s3.9-28,10.2-34.3S32.6,3,47.5,3s28,3.9,34.3,10.2S92,32.6,92,47.5
			s-3.9,28-10.2,34.3S62.4,92,47.5,92z"/>
	</g>
	<g class="st1">
		<path d="M49,95c-15.3,0-28.8-4.1-35.4-10.6S3,64.3,3,49s4.1-28.8,10.6-35.4S33.7,3,49,3s28.8,4.1,35.4,10.6S95,33.7,95,49
			s-4.1,28.8-10.6,35.4S64.3,95,49,95z"/>
	</g>
	<g class="st2">
		<path d="M49,93.5c-14.9,0-28-3.9-34.3-10.2S4.5,63.9,4.5,49s3.9-28,10.2-34.3S34.1,4.5,49,4.5s28,3.9,34.3,10.2S93.5,34.1,93.5,49
			s-3.9,28-10.2,34.3S63.9,93.5,49,93.5z"/>
	</g>
	<g id="_128-2">
		
			<linearGradient id="SVGID_1_" gradientUnits="userSpaceOnUse" x1="47.4912" y1="149.48" x2="47.4912" y2="235.4513" gradientTransform="matrix(1 0 0 -1 0 239.97)">
			<stop  offset="0" style="stop-color:#DAE1E4"/>
			<stop  offset="1" style="stop-color:#F3F4FA"/>
		</linearGradient>
		<path class="st3" d="M80.7,80.7c-13,13-53.5,13-66.5,0s-13-53.5,0-66.5s53.5-13,66.5,0S93.7,67.8,80.7,80.7z"/>
	</g>
	
		<linearGradient id="SVGID_2_" gradientUnits="userSpaceOnUse" x1="47.485" y1="152.51" x2="47.485" y2="232.45" gradientTransform="matrix(1 0 0 -1 0 239.97)">
		<stop  offset="0" style="stop-color:#CFD8DC"/>
		<stop  offset="1" style="stop-color:#EBECF2"/>
	</linearGradient>
	<path class="st4" d="M47.5,87.5c-13.7,0-25.6-3.4-31.1-8.8S7.5,61.2,7.5,47.5s3.4-25.6,8.9-31.1s17.4-8.9,31.1-8.9
		s25.6,3.4,31.1,8.9s8.8,17.4,8.8,31.1s-3.4,25.6-8.9,31.1S61.2,87.5,47.5,87.5z"/>
</g>
<g id="便签贴">
	<g id="_96-2">
		<g class="st5">
			<rect x="21" y="24" class="st6" width="55" height="4"/>
			<rect x="21" y="41" class="st6" width="55" height="4"/>
			<rect x="21" y="59" class="st6" width="55" height="4"/>
		</g>
		<path class="st7" d="M31.3,85.2c-0.1-0.3-0.2-0.6-0.2-0.9c0.1-0.4,0.2-0.7,0.4-1c0.2-0.4,0.6-0.7,1-0.9c0.4-0.2,0.6,0,0.5,0.6
			c-0.1,0.5,0,1,0.2,1.5c0.2,0.4,0.7,0.6,1.1,0.5c0.5-0.1,1-0.4,1.3-0.8c0.4-0.6,0.8-1.3,1.2-2c0.5-0.9,0.8-1.9,1.1-2.9
			c0.3-1,0.5-2,0.6-3.1c0.1-0.9,0.1-1.8,0.1-2.7c-0.1-0.7-0.2-1.4-0.4-2.1c-0.3-0.7-0.8-1.2-1.5-1.4c-0.6-0.2-1-0.5-1.4-1
			c-0.2-0.4-0.2-1,0.1-1.4c0.6-0.4,1.4-0.5,2-0.2c0.5,0.3,1.1,0.7,1.5,1c0.5,0.3,1,0.7,1.4,1.2c0.4,0.4,0.9,0.7,1.3,1.1
			c0.4,0.3,0.8,0.6,1.1,1c0.4,0.4,0.8,0.8,1.2,1.2c0.4,0.4,0.9,0.8,1.3,1.3s0.7,0.4,0.7-0.3c0.1-0.9,0.3-1.8,0.6-2.7
			c0.3-1.1,0.6-2.1,0.8-2.8c0.3-0.8,0.6-1.6,1-2.4c0.4-0.8,0.8-1.6,1.3-2.4c0.5-0.8,1-1.5,1.6-2.2c0.5-0.6,1.2-1.2,1.9-1.6
			c0.6-0.3,1.3-0.5,1.9-0.7c0.6-0.1,1.1-0.1,1.7-0.1c0.5,0.1,0.9,0.2,1.3,0.4c0.6,0.4,1.1,1.1,1.4,1.8c0,0.5-0.1,0.7-0.4,0.9
			s-0.5-0.1-0.9-0.6c-0.3-0.5-0.7-0.9-1.3-1c-0.5-0.1-0.9-0.2-1.4-0.2c-0.5,0-1.1,0.2-1.5,0.4c-0.6,0.2-1.1,0.5-1.5,1
			c-0.5,0.5-0.9,1.2-1.2,1.8c-0.5,0.7-0.9,1.5-1.4,2.6c-0.5,1.1-1,2.2-1.3,3.3c-0.3,1.1-0.6,2.1-0.7,3.2c-0.1,1-0.2,1.8-0.3,2.6
			c-0.1,0.8,0,1.6,0.2,2.4c0.2,0.8,0.3,1.6,0.4,2.3c0.1,0.7,0,1.4-0.2,2c-0.7,0.2-1.1,0.2-1.3-0.1c-0.2-0.3-0.3-0.7-0.2-1.1
			c0-0.5-0.1-1.1-0.2-1.6c-0.2-0.6-0.4-1.3-0.7-1.8c-0.3-0.6-0.7-1.2-1.2-1.7c-0.4-0.5-0.9-0.9-1.4-1.3c-0.3-0.3-0.7-0.5-1.1-0.7
			c-0.4-0.2-0.6-0.1-0.7,0.4s-0.2,1-0.4,1.8c-0.2,0.9-0.4,1.8-0.7,2.7c-0.4,1.2-0.9,2.4-1.5,3.6c-0.5,1.2-1.2,2.3-2.1,3.2
			c-0.5,0.6-1.3,1.1-2.1,1.3c-0.5,0.2-1.1,0.1-1.5-0.2C32.3,86.5,31.8,86,31.3,85.2 M52.6,76.1c0.3,0.2,0.6,0.2,0.9,0.1
			c0.3-0.1,0.5-0.4,0.7-0.7c0.2-0.3,0.4-0.6,0.6-0.9c0.3-0.3,0.5-0.6,0.7-1c0.2-0.3,0.2-0.7,0.1-1c-0.2-0.3-0.4-0.5-0.7-0.6
			c-0.4-0.1-0.6-0.2-0.7-0.5C54,71.3,54,71,54.1,70.8c0.3-0.3,0.6-0.5,1-0.7c0.5-0.2,1-0.1,1.3,0.3c0.3,0.3,0.5,0.7,0.5,1.1
			c0.1,0.4,0.4,0.7,1,0.7c0.5,0.1,1,0,1.4-0.4c0.3-0.3,0.6-0.3,0.8,0s0.2,0.7,0.1,0.7c-0.2,0.2-0.5,0.4-0.7,0.6
			c-0.5,0.3-1,0.4-1.6,0.4c-0.7,0-1.2,0.1-1.3,0.4c-0.2,0.4-0.5,0.9-0.7,1.3c-0.3,0.5-0.6,1-1,1.5c-0.4,0.5-0.9,0.8-1.5,1.1
			c-0.5,0.1-1.1,0-1.6-0.2c-0.4-0.3-0.8-0.7-1-1.1c-0.1-0.5-0.1-1,0.1-1.5c0.2-0.6,0.4-1.1,0.7-1.6c0.2-0.5,0.5-0.9,0.9-1.2
			c0.4-0.3,0.7-0.4,0.9-0.4c0.2,0.1,0.5,0.2,0.7,0.4c0.1,0.2,0.2,0.4,0.2,0.6c0,0.2-0.1,0.4-0.3,0.5c-0.2,0.2-0.4,0.4-0.7,0.6
			c-0.4,0.3-0.6,0.7-0.8,1.1C52.3,75.5,52.2,75.9,52.6,76.1 M59.9,71.9c-0.1-0.4-0.1-0.8-0.1-1.3c0.1-0.8,0.3-1.5,0.6-2.2
			c0.3-0.8,0.5-1.7,0.6-2.6c-0.3,0.3-0.6,0.5-1,0.7c-0.2,0.1-0.4,0-0.5-0.2c-0.1-0.2-0.2-0.4-0.1-0.6c0.2-0.3,0.4-0.5,0.7-0.7
			c0.4-0.3,0.7-0.5,1.2-0.9c0.4-1.1,0.7-2.1,1-2.7s0.5-1.5,0.8-2.2c0.3-0.7,0.6-1.4,1-2.1c0.2-0.5,0.5-0.9,1-1.2
			c0.4,0.2,0.4,0.7,0.1,1.6c-0.3,0.7-0.5,1.4-0.7,2.1c-0.2,0.6-0.4,1.1-0.5,1.6s-0.4,1.1-0.5,1.8c0.5-0.4,1.3-0.9,2.3-1.6
			s2.1-1.4,3.2-2.1s2.3-1.4,3.4-2.1s2.3-1.4,3.4-2s2.4-1.3,3.6-1.8s2.3-1.1,3.1-1.4c0.7-0.3,1.4-0.3,2.1-0.2
			c-0.3,0.4-0.8,0.6-1.2,0.8c-0.4,0.1-0.9,0.4-1.3,0.5l-1.6,0.8c-0.6,0.4-1.4,0.7-2.3,1.3s-1.8,1-2.8,1.5c-1,0.5-2,1.1-3,1.8
			c-1,0.7-1.9,1.3-2.8,1.8s-1.8,1.2-2.8,1.8s-1.7,1-2.1,1.3c-0.4,0.2-0.7,0.4-1,0.7c-0.2,0.1-0.4,0.3-0.6,0.5
			c-0.1,0.2-0.3,0.4-0.4,0.7c-0.1,0.4-0.3,0.7-0.4,1.1c-0.2,0.6-0.3,1.2-0.4,1.8c-0.1,0.7-0.3,1.3-0.4,1.8c-0.2,0.4-0.2,0.9-0.2,1.3
			c0,0.3,0.1,0.6,0.4,0.8c0.2,0.2,0.5,0.2,0.8,0.1c0.6-0.3,1.1-0.7,1.5-1.2c0.5-0.5,0.9-1.1,1.3-1.7c0.2-0.3,0.4-0.6,0.6-0.8
			c0.2-0.2,0.3-0.2,0.4-0.1s0.2,0.4-0.1,0.9c-0.2,0.4-0.4,0.9-0.7,1.3c-0.2,0.4-0.5,0.7-0.8,1c-0.3,0.4-0.7,0.7-1.1,1
			c-0.3,0.2-0.6,0.4-0.8,0.5l-0.5,0.2c-0.4,0.2-0.8,0.2-1.2,0.2c-0.3,0-0.6-0.1-0.8-0.4c-0.2-0.1-0.3-0.3-0.4-0.5v-0.1
			C60,72.5,59.9,72.2,59.9,71.9 M67.1,67c0.4-0.4,0.8-0.8,1-1.4c0.2-0.2,0.2-0.5,0-0.7c-0.1-0.1-0.3-0.1-0.6,0.3
			c-0.3,0.3-0.4,0.6-0.4,1L67.1,67 M66.2,69c-0.2-0.5-0.4-1-0.5-1.5c0-0.5,0.1-0.9,0.2-1.4c0.2-0.5,0.4-1,0.5-1.4
			c0.2-0.4,0.5-0.8,0.8-1l0.4-0.2c0.4-0.1,0.7-0.2,1.1-0.2c0.4,0.1,0.7,0.4,0.8,0.8c0.2,0.5,0.2,1.1-0.1,1.5c-0.2,0.6-0.6,1.1-1,1.5
			c-0.4,0.4-0.7,0.7-0.7,0.9s0.1,0.2,0.4,0.3c0.5-0.1,1.1-0.2,1.5-0.4c0.6-0.3,1.2-0.7,1.8-1.1c0.4-0.3,0.7-0.6,1-1
			c0.2-0.3,0.4-0.5,0.5-0.7s0.3-0.2,0.5,0.1c0,0.5-0.2,1-0.5,1.5c-0.3,0.5-0.6,0.9-1,1.3c-0.5,0.5-1.2,1-1.8,1.3l-0.4,0.2
			c-0.6,0.3-1.2,0.5-1.9,0.5c-0.3,0-0.7-0.1-1-0.2C66.7,69.6,66.4,69.4,66.2,69 M74,65.1c0.2,0.3,0.6,0.3,0.9,0.1c0,0,0,0,0,0
			c0.3-0.2,0.5-0.5,0.7-0.8c0.2-0.4,0.3-0.8,0.4-1.3c0.1-0.5,0.1-0.8,0-0.9c-0.3,0.6-0.6,1.3-1.1,1.8C74.7,64.4,74.4,64.7,74,65.1
			 M71.9,65.2c-0.1-0.3-0.2-0.6-0.3-0.9c0-0.2,0-0.4,0.2-0.6c0.1-0.2,0.3-0.3,0.5-0.4c0.2-0.1,0.6,0.2,1.1,0.9c0.4-0.3,0.7-0.6,1-1
			c0.3-0.4,0.5-0.7,0.7-1c0.2-0.4,0.5-0.8,0.8-1.1c0.3-0.4,0.6-0.8,0.9-1.3c0.2-0.3,0.4-0.7,0.5-1.1c0.1-0.3,0.1-0.6,0.1-0.9
			c0-0.2,0.1-0.5,0.2-0.7c0.2-0.1,0.4-0.2,0.7-0.2c0.1,0,0.4,0.2,0.6,0.6c0.1,0.2,0.1,0.3,0.2,0.5c0,0.3-0.1,0.5-0.2,0.8
			c-0.1,0.3-0.3,0.6-0.4,0.9c-0.2,0.3-0.4,0.6-0.6,1c-0.2,0.4-0.4,0.8-0.5,1.3c-0.1,0.4-0.2,0.9-0.2,1.3v1c0,0.4-0.1,0.7-0.4,1
			c-0.6,0.7-1.4,1.2-2.3,1.4c-0.4-0.1-0.9-0.2-1.3-0.4c-0.5-0.2-0.9-0.6-1.3-1.1"/>
		<path class="st8" d="M30.8,83.7c-0.3-0.6-0.3-1.3,0.2-1.8c0.2-0.4,0.6-0.7,1-0.8c0.4-0.2,0.6,0,0.5,0.6c-0.1,0.5,0,1,0.2,1.4
			c0.2,0.4,0.7,0.6,1.1,0.5c0.5-0.1,1-0.4,1.3-0.8c0.4-0.6,0.8-1.3,1.2-2c0.5-0.9,0.8-1.9,1.1-2.9c0.3-1,0.5-2,0.6-3
			c0.1-0.9,0.1-1.8,0.1-2.7c-0.1-0.7-0.2-1.5-0.4-2.2c-0.3-0.7-0.8-1.2-1.5-1.4c-0.6-0.2-1.1-0.5-1.4-1c-0.2-0.4-0.2-1,0.1-1.4
			c0.6-0.4,1.4-0.5,2-0.1c0.5,0.3,1.1,0.7,1.5,1c0.5,0.3,1,0.7,1.4,1.2c0.4,0.4,0.9,0.7,1.3,1.1c0.4,0.3,0.8,0.6,1.1,1
			c0.3,0.4,0.7,0.7,1.2,1.2s0.9,0.8,1.3,1.3s0.7,0.4,0.7-0.3c0.1-0.9,0.3-1.8,0.6-2.7c0.3-1.1,0.6-2.1,0.8-2.8
			c0.3-0.8,0.6-1.6,1-2.4c0.4-0.8,0.8-1.6,1.2-2.4c0.5-0.8,1-1.5,1.6-2.2c0.5-0.6,1.2-1.2,1.9-1.6c0.6-0.3,1.3-0.5,1.9-0.7
			c0.6-0.1,1.1-0.1,1.7-0.1c0.5,0.1,0.9,0.2,1.3,0.4c0.6,0.4,1.1,1.1,1.4,1.8c0,0.5-0.1,0.7-0.4,0.9s-0.5-0.1-0.9-0.6
			c-0.3-0.5-0.7-0.9-1.3-1c-0.5-0.1-0.9-0.2-1.4-0.2c-0.5,0-1.1,0.2-1.5,0.4c-0.6,0.2-1.1,0.6-1.5,1c-0.5,0.5-1,1.1-1.3,1.8
			c-0.4,0.7-0.9,1.5-1.4,2.6c-0.5,1.1-1,2.2-1.3,3.4c-0.3,1.1-0.6,2.1-0.7,3.2c-0.2,1-0.2,1.8-0.3,2.6c-0.1,0.8,0,1.6,0.2,2.4
			c0.2,0.8,0.3,1.6,0.4,2.3c0.1,0.7,0,1.4-0.2,2c-0.7,0.2-1.1,0.2-1.3-0.1c-0.2-0.3-0.3-0.7-0.2-1.1c0-0.5-0.1-1.1-0.2-1.6
			c-0.2-0.6-0.4-1.2-0.7-1.8c-0.3-0.6-0.7-1.2-1.2-1.7c-0.4-0.5-0.9-0.9-1.4-1.3c-0.3-0.3-0.7-0.5-1.1-0.7c-0.4-0.2-0.6-0.1-0.7,0.4
			s-0.2,1-0.4,1.8c-0.2,0.9-0.4,1.8-0.7,2.7c-0.4,1.2-0.9,2.4-1.5,3.6c-0.5,1.2-1.2,2.3-2.1,3.2c-0.6,0.6-1.3,1.1-2.1,1.3
			c-0.5,0.2-1.1,0.1-1.5-0.2C31.8,85,31.3,84.4,30.8,83.7 M52.1,74.5c0.3,0.2,0.6,0.2,0.9,0.1c0.3-0.1,0.5-0.4,0.7-0.7
			c0.2-0.3,0.4-0.6,0.6-0.9c0.3-0.3,0.5-0.6,0.7-1c0.2-0.3,0.2-0.7,0.1-1c-0.2-0.3-0.4-0.5-0.7-0.6c-0.4-0.1-0.6-0.2-0.7-0.5
			c-0.1-0.2-0.1-0.5,0.1-0.7c0.3-0.3,0.6-0.5,1-0.7c0.5-0.2,1-0.1,1.3,0.3c0.3,0.3,0.5,0.7,0.6,1.2c0.1,0.4,0.4,0.7,1,0.7
			c0.5,0.1,1.1,0,1.5-0.4c0.3-0.3,0.6-0.3,0.8,0s0.2,0.7,0.1,0.7c-0.2,0.2-0.5,0.4-0.7,0.6c-0.5,0.3-1.1,0.4-1.6,0.4
			c-0.7,0-1.2,0.1-1.3,0.4c-0.2,0.4-0.5,0.9-0.7,1.3c-0.3,0.5-0.6,1-1,1.5c-0.4,0.5-0.9,0.8-1.5,1.1c-0.5,0.1-1.1,0-1.6-0.2
			c-0.4-0.3-0.8-0.7-1-1.1c-0.1-0.5-0.1-1,0.2-1.5c0.2-0.6,0.4-1.1,0.7-1.6c0.2-0.5,0.5-0.9,0.9-1.2c0.4-0.3,0.7-0.4,0.9-0.4
			c0.2,0.1,0.5,0.2,0.7,0.4c0.1,0.2,0.2,0.4,0.2,0.6c0,0.2-0.1,0.4-0.3,0.5c-0.2,0.2-0.4,0.4-0.7,0.6c-0.4,0.3-0.6,0.7-0.8,1.1
			c-0.3,0.6-0.3,0.9,0.1,1.1 M59.5,70.5c-0.1-0.4-0.1-0.8-0.1-1.3c0.1-0.8,0.3-1.5,0.6-2.2c0.3-0.8,0.5-1.7,0.7-2.6
			c-0.3,0.3-0.6,0.5-1,0.7c-0.1,0.2-0.4,0.2-0.5,0.1c-0.1,0-0.1-0.1-0.1-0.2c-0.1-0.2-0.2-0.4-0.1-0.6c0.2-0.3,0.4-0.5,0.7-0.7
			c0.4-0.3,0.7-0.5,1.2-0.9c0.4-1.1,0.7-2,1-2.7s0.5-1.5,0.8-2.2c0.3-0.7,0.6-1.4,1-2.1c0.2-0.5,0.5-0.9,1-1.2
			c0.4,0.2,0.4,0.7,0.1,1.6c-0.3,0.7-0.5,1.4-0.7,2.1c-0.2,0.6-0.4,1.1-0.5,1.6c-0.2,0.6-0.4,1.2-0.5,1.8c0.5-0.4,1.3-0.9,2.4-1.6
			s2.1-1.4,3.2-2.1s2.3-1.4,3.4-2.1s2.3-1.4,3.4-2s2.3-1.3,3.6-1.8s2.3-1.1,3.1-1.4c0.7-0.3,1.5-0.4,2.2-0.2
			c-0.3,0.4-0.8,0.6-1.3,0.8c-0.4,0.1-0.9,0.4-1.3,0.5L80,52.6c-0.6,0.4-1.4,0.7-2.3,1.3s-1.8,1-2.8,1.5c-1,0.5-2,1.1-3,1.8
			c-1,0.7-1.9,1.2-2.8,1.8s-1.8,1.2-2.8,1.8s-1.7,1-2.1,1.3c-0.4,0.2-0.7,0.4-1,0.7c-0.2,0.1-0.4,0.3-0.6,0.5
			c-0.1,0.2-0.3,0.4-0.4,0.7c-0.2,0.4-0.3,0.7-0.4,1.1c-0.2,0.6-0.3,1.2-0.4,1.8c-0.2,0.7-0.3,1.3-0.4,1.8c-0.2,0.4-0.2,0.9-0.2,1.4
			c0,0.3,0.1,0.6,0.4,0.8c0.2,0.2,0.5,0.2,0.8,0.1c0.6-0.3,1.1-0.7,1.5-1.2c0.5-0.5,1-1.1,1.3-1.8c0.2-0.3,0.4-0.6,0.6-0.8
			c0.2-0.2,0.3-0.2,0.4-0.1s0.2,0.4-0.1,0.9c-0.2,0.4-0.4,0.9-0.7,1.3c-0.2,0.3-0.5,0.7-0.8,1c-0.3,0.4-0.7,0.7-1.1,1
			c-0.3,0.2-0.6,0.4-0.8,0.5L61.9,72c-0.4,0.2-0.8,0.2-1.2,0.2c-0.3,0-0.6-0.1-0.8-0.4c-0.2-0.1-0.3-0.3-0.4-0.5v-0.1
			c0-0.3,0-0.6-0.1-0.9 M66.6,65.4c0.4-0.4,0.8-0.9,1-1.4c0.2-0.2,0.2-0.5,0-0.7c-0.1-0.2-0.3-0.1-0.6,0.3c-0.3,0.3-0.4,0.6-0.4,1
			C66.6,64.9,66.6,65.2,66.6,65.4 M65.7,67.5c-0.2-0.5-0.4-1-0.5-1.5c0-0.5,0.1-0.9,0.2-1.4c0.2-0.5,0.4-1,0.5-1.4
			c0.2-0.4,0.5-0.7,0.8-1l0.4-0.2c0.4-0.1,0.7-0.2,1.1-0.2c0.4,0.1,0.7,0.4,0.8,0.8c0.2,0.5,0.2,1.1,0,1.5c-0.2,0.6-0.6,1.1-1,1.5
			c-0.4,0.4-0.7,0.7-0.7,0.9s0.1,0.2,0.4,0.3c0.5-0.1,1.1-0.2,1.5-0.4c0.6-0.3,1.2-0.7,1.7-1.1c0.4-0.3,0.7-0.6,1-1
			c0.2-0.3,0.4-0.5,0.5-0.7s0.3-0.2,0.5,0.1c0,0.5-0.2,1-0.5,1.5c-0.3,0.5-0.6,0.9-1,1.3c-0.5,0.5-1.2,1-1.8,1.3l-0.4,0.2
			c-0.6,0.3-1.2,0.4-1.9,0.5c-0.3,0-0.7-0.1-1-0.2C66.3,68.1,66,67.8,65.7,67.5 M73.6,63.5c0.2,0.3,0.6,0.3,0.9,0.1c0,0,0,0,0,0
			c0.3-0.2,0.5-0.5,0.7-0.8c0.2-0.4,0.3-0.8,0.4-1.3c0.1-0.5,0.1-0.8,0-0.9c-0.3,0.6-0.7,1.3-1.1,1.8C74.3,62.8,73.9,63.2,73.6,63.5
			 M71.4,63.6c-0.1-0.3-0.2-0.6-0.3-0.9c-0.1-0.2,0-0.4,0.2-0.6c0.1-0.2,0.3-0.3,0.5-0.4c0.2-0.1,0.6,0.2,1.1,0.9
			c0.4-0.3,0.7-0.6,1-1c0.3-0.4,0.5-0.7,0.7-1c0.2-0.4,0.5-0.8,0.8-1.1c0.3-0.4,0.6-0.8,0.9-1.3c0.2-0.4,0.4-0.7,0.5-1.1
			c0.1-0.3,0.1-0.6,0.1-0.9c0-0.2,0.1-0.5,0.2-0.7c0.2-0.1,0.4-0.2,0.7-0.2c0.1,0,0.4,0.2,0.6,0.6c0.1,0.2,0.1,0.3,0.2,0.5
			c0,0.3-0.1,0.5-0.2,0.8c-0.1,0.3-0.3,0.6-0.4,0.9c-0.2,0.3-0.4,0.7-0.6,1c-0.2,0.4-0.4,0.8-0.5,1.2c-0.1,0.4-0.2,0.9-0.2,1.3v1
			c0,0.4-0.1,0.7-0.4,1c-0.4,0.4-0.8,0.7-1.3,1c-0.4,0.2-0.7,0.3-1.1,0.4c-0.3,0.1-0.7-0.2-1.3-0.4C72.1,64.5,71.7,64.2,71.4,63.6"
			/>
		
			<linearGradient id="SVGID_3_" gradientUnits="userSpaceOnUse" x1="22.5" y1="212" x2="22.5" y2="201" gradientTransform="matrix(1 0 0 1 0 -180)">
			<stop  offset="0" style="stop-color:#108EE9"/>
			<stop  offset="1" style="stop-color:#69BFFF"/>
		</linearGradient>
		<circle class="st9" cx="22.5" cy="26.5" r="5.5"/>
		
			<linearGradient id="SVGID_4_" gradientUnits="userSpaceOnUse" x1="22.5" y1="247" x2="22.5" y2="236" gradientTransform="matrix(1 0 0 1 0 -180)">
			<stop  offset="0" style="stop-color:#FFA437"/>
			<stop  offset="1" style="stop-color:#FFB65F"/>
		</linearGradient>
		<circle class="st10" cx="22.5" cy="61.5" r="5.5"/>
		
			<linearGradient id="SVGID_5_" gradientUnits="userSpaceOnUse" x1="22.5" y1="229" x2="22.5" y2="218" gradientTransform="matrix(1 0 0 1 0 -180)">
			<stop  offset="0" style="stop-color:#F04134"/>
			<stop  offset="1" style="stop-color:#FF9377"/>
		</linearGradient>
		<circle class="st11" cx="22.5" cy="43.5" r="5.5"/>
	</g>
</g>
</svg>
