<?xml version="1.0" encoding="utf-8"?>
<!-- Generator: Adobe Illustrator 24.0.0, SVG Export Plug-In . SVG Version: 6.00 Build 0)  -->
<svg version="1.1" id="图层_1" xmlns="http://www.w3.org/2000/svg" xmlns:xlink="http://www.w3.org/1999/xlink" x="0px" y="0px"
	 viewBox="0 0 96 96" style="enable-background:new 0 0 96 96;" xml:space="preserve">
<style type="text/css">
	.st0{opacity:8.000000e-02;enable-background:new    ;}
	.st1{opacity:0.1;enable-background:new    ;}
	.st2{opacity:0.2;enable-background:new    ;}
	.st3{fill:url(#SVGID_1_);}
	.st4{opacity:0.73;}
	.st5{fill:#FFFFFF;}
	.st6{fill:url(#SVGID_2_);}
	.st7{opacity:0.8;fill:none;stroke:url(#SVGID_3_);stroke-width:4;stroke-miterlimit:10;enable-background:new    ;}
</style>
<g>
	<g id="产品激活">
		<g id="_96">
			<path class="st0" d="M49,95C23.6,95,3,74.4,3,49S23.6,3,49,3s46,20.6,46,46S74.4,95,49,95z"/>
			<path class="st1" d="M49,93.5C24.4,93.5,4.5,73.6,4.5,49S24.4,4.5,49,4.5S93.5,24.4,93.5,49l0,0C93.5,73.6,73.6,93.5,49,93.5
				L49,93.5z"/>
			<path class="st2" d="M48,92.5C23.4,92.5,3.5,72.6,3.5,48S23.4,3.5,48,3.5S92.5,23.4,92.5,48S72.6,92.5,48,92.5z"/>
			
				<linearGradient id="SVGID_1_" gradientUnits="userSpaceOnUse" x1="48" y1="148.97" x2="48" y2="234.97" gradientTransform="matrix(1 0 0 -1 0 239.97)">
				<stop  offset="0" style="stop-color:#D5DAE6"/>
				<stop  offset="1" style="stop-color:#F6F7FA"/>
			</linearGradient>
			<path class="st3" d="M48,5C24.3,5,5,24.3,5,48s19.3,43,43,43s43-19.3,43-43S71.7,5,48,5z"/>
			<g class="st4">
				<polygon class="st5" points="69,43.1 63.9,44.7 60.8,49.3 57.7,50.9 55.4,52.1 47.9,49.1 42.5,45.1 46.1,40.2 44.8,35 
					47.2,28.1 47.2,28.1 41.6,33.7 40.8,33.5 42.3,30 41.1,32.1 42.3,30 37.2,35.2 36.8,35.4 32.3,38.2 30,42.8 27,48.1 29.9,55.3 
					30.8,60.9 32,63.7 30,66.1 28,68.6 33.6,68.6 34.3,63.4 36.5,60 40.3,60.7 44.5,59 47.6,57.3 50.4,59.7 47.1,63.7 43.3,67.1 
					49.1,67.3 49.1,64.9 49.1,64.9 49.2,64.9 49.2,64.9 53,61.7 55.2,63.4 50.5,70 56.4,70.1 56.2,66.8 60.5,62.8 58.2,58.4 58,53 
					62.4,50.5 64.8,51 64.8,50.9 68.1,49.8 68.1,49.8 				"/>
				<polygon class="st5" points="69,43.1 63.9,44.7 60.8,49.3 57.7,50.9 55.4,52.1 47.9,49.1 42.5,45.1 46.1,40.2 44.8,35 
					47.2,28.1 47.2,28.1 41.6,33.7 40.8,33.5 42.3,30 41.1,32.1 42.3,30 37.2,35.2 36.8,35.4 32.3,38.2 30,42.8 27,48.1 29.9,55.3 
					30.8,60.9 32,63.7 30,66.1 28,68.6 33.6,68.6 34.3,63.4 36.5,60 40.3,60.7 44.5,59 47.6,57.3 50.4,59.7 47.1,63.7 43.3,67.1 
					49.1,67.3 49.1,64.9 49.1,64.9 49.2,64.9 49.2,64.9 53,61.7 55.2,63.4 50.5,70 56.4,70.1 56.2,66.8 60.5,62.8 58.2,58.4 58,53 
					62.4,50.5 64.8,51 64.8,50.9 68.1,49.8 68.1,49.8 				"/>
			</g>
			
				<linearGradient id="SVGID_2_" gradientUnits="userSpaceOnUse" x1="48" y1="61" x2="48" y2="102.95" gradientTransform="matrix(1 0 0 -1 0 130)">
				<stop  offset="0" style="stop-color:#006DF9"/>
				<stop  offset="1" style="stop-color:#00CAF5"/>
			</linearGradient>
			<polygon class="st6" points="69,42 63.9,43.6 60.8,48.2 57.7,49.9 55.4,51.1 47.9,48.1 42.5,44.1 46.1,39.1 44.8,33.9 47.2,27 
				47.2,27 41.6,32.7 40.8,32.5 42.3,29 41.1,31.1 42.3,29 37.2,34.2 36.8,34.4 32.3,37.2 30,41.8 27,47 29.9,54.3 30.8,59.8 
				32,62.7 30,65 28,67.5 33.6,67.5 34.3,62.4 36.5,58.9 40.3,59.6 44.5,57.9 47.6,56.3 50.4,58.6 47.1,62.6 43.3,66.1 49.1,66.2 
				49.1,63.9 49.1,63.9 49.2,63.9 49.2,63.8 53,60.7 55.2,62.3 50.5,68.9 56.4,69 56.2,65.7 60.5,61.8 58.2,57.3 58,52 62.4,49.4 
				64.8,50 64.8,49.9 68.1,48.8 68.1,48.8 			"/>
			
				<linearGradient id="SVGID_3_" gradientUnits="userSpaceOnUse" x1="47.9879" y1="12" x2="47.9879" y2="88" gradientTransform="matrix(1 0 0 -1 0 98)">
				<stop  offset="0" style="stop-color:#00BBF9"/>
				<stop  offset="1" style="stop-color:#006DF9"/>
			</linearGradient>
			<path class="st7" d="M84,52c-2.2,19.8-20,34.2-39.8,32c-19.8-2.2-34.2-20-32-39.8s20-34.2,39.8-32c0,0,0.1,0,0.1,0
				C65.8,13.9,77.3,23.1,82,36H71.8"/>
		</g>
	</g>
</g>
</svg>
