<?xml version="1.0" encoding="utf-8"?>
<!-- Generator: Adobe Illustrator 24.0.0, SVG Export Plug-In . SVG Version: 6.00 Build 0)  -->
<svg version="1.1" id="图层_1" xmlns="http://www.w3.org/2000/svg" xmlns:xlink="http://www.w3.org/1999/xlink" x="0px" y="0px"
	 viewBox="0 0 96 96" style="enable-background:new 0 0 96 96;" xml:space="preserve">
<style type="text/css">
	.st0{opacity:0.2;}
	.st1{opacity:8.000000e-02;}
	.st2{opacity:0.1;}
	.st3{fill:url(#SVGID_1_);}
	.st4{fill:url(#SVGID_2_);}
	.st5{fill:#C4C0BF;}
	.st6{fill:#F2F2F2;}
	.st7{fill:url(#SVGID_3_);}
</style>
<g id="_128">
	<g class="st0">
		<path d="M47.5,92c-14.9,0-28-3.9-34.3-10.2S3,62.4,3,47.5s3.9-28,10.2-34.3S32.6,3,47.5,3s28,3.9,34.3,10.2S92,32.6,92,47.5
			s-3.9,28-10.2,34.3S62.4,92,47.5,92z"/>
	</g>
	<g class="st1">
		<path d="M49,95c-15.3,0-28.8-4.1-35.4-10.6S3,64.3,3,49s4.1-28.8,10.6-35.4S33.7,3,49,3s28.8,4.1,35.4,10.6S95,33.7,95,49
			s-4.1,28.8-10.6,35.4S64.3,95,49,95z"/>
	</g>
	<g class="st2">
		<path d="M49,93.5c-14.9,0-28-3.9-34.3-10.2S4.5,63.9,4.5,49s3.9-28,10.2-34.3S34.1,4.5,49,4.5s28,3.9,34.3,10.2S93.5,34.1,93.5,49
			s-3.9,28-10.2,34.3S63.9,93.5,49,93.5z"/>
	</g>
	<g id="_128-2">
		
			<linearGradient id="SVGID_1_" gradientUnits="userSpaceOnUse" x1="47.4912" y1="235.4513" x2="47.4912" y2="149.48" gradientTransform="matrix(1 0 0 -1 0 239.97)">
			<stop  offset="0" style="stop-color:#BEB4AC"/>
			<stop  offset="1" style="stop-color:#6D6662"/>
		</linearGradient>
		<path class="st3" d="M80.7,80.7c-13,13-53.5,13-66.5,0s-13-53.5,0-66.5s53.5-13,66.5,0S93.7,67.8,80.7,80.7z"/>
	</g>
	
		<linearGradient id="SVGID_2_" gradientUnits="userSpaceOnUse" x1="47.485" y1="152.51" x2="47.485" y2="232.45" gradientTransform="matrix(1 0 0 -1 0 239.97)">
		<stop  offset="0" style="stop-color:#7C736E"/>
		<stop  offset="1" style="stop-color:#CCC2BA"/>
	</linearGradient>
	<path class="st4" d="M47.5,87.5c-13.7,0-25.6-3.4-31.1-8.8S7.5,61.2,7.5,47.5s3.4-25.6,8.9-31.1s17.4-8.9,31.1-8.9
		s25.6,3.4,31.1,8.9s8.8,17.4,8.8,31.1s-3.4,25.6-8.9,31.1S61.2,87.5,47.5,87.5z"/>
</g>
<g id="图层_24">
	<g id="_96-2">
		<path class="st5" d="M35,55l25.3-25.3c0.9-0.9,2.4-0.9,3.3,0l0.7,0.7c0.9,0.9,0.9,2.4,0,3.3L39.1,59c-0.9,0.9-2.4,0.9-3.3,0
			L35,58.3C34.1,57.4,34.1,55.9,35,55z"/>
		<path class="st6" d="M75.7,60.9l-2.8-4.8c1.6-4.9,1.8-10.2,0.4-15.2l3.1-4.6l-3.3-6l-5.5,0.1c-3.4-3.9-7.9-6.6-13-7.9l-2.5-4.9
			l-6.8-0.2l-2.7,4.8c-5.1,1.1-9.7,3.6-13.3,7.3l-5.5-0.4L20.3,35l2.8,4.8C21.5,44.7,21.3,50,22.7,55l-3.1,4.6l3.3,6l5.5-0.1
			c3.5,3.9,8,6.6,13,7.9l2.5,5l6.8,0.2l2.7-4.8c5.1-1.1,9.7-3.6,13.3-7.3l5.5,0.3L75.7,60.9z M36.9,59.1c-6.1-6.1-6.1-16.1,0-22.2
			s16.1-6.1,22.2,0c6.1,6.1,6.1,16.1,0,22.2l0,0C53,65.3,43,65.3,36.9,59.1C36.9,59.1,36.9,59.1,36.9,59.1L36.9,59.1z"/>
		
			<radialGradient id="SVGID_3_" cx="54.92" cy="196.85" r="12.5" gradientTransform="matrix(1 0 0 1 4.08 -161.85)" gradientUnits="userSpaceOnUse">
			<stop  offset="0" style="stop-color:#DBDDDD"/>
			<stop  offset="1" style="stop-color:#776D65"/>
		</radialGradient>
		<circle class="st7" cx="59" cy="35" r="12.5"/>
	</g>
</g>
</svg>
