<?xml version="1.0" encoding="utf-8"?>
<!-- Generator: Adobe Illustrator 24.0.0, SVG Export Plug-In . SVG Version: 6.00 Build 0)  -->
<svg version="1.1" id="图层_1" xmlns="http://www.w3.org/2000/svg" xmlns:xlink="http://www.w3.org/1999/xlink" x="0px" y="0px"
	 viewBox="0 0 96 96" style="enable-background:new 0 0 96 96;" xml:space="preserve">
<style type="text/css">
	.st0{opacity:0.2;}
	.st1{opacity:8.000000e-02;}
	.st2{opacity:0.1;}
	.st3{fill:url(#SVGID_1_);}
	.st4{fill:#F8F8F8;}
	.st5{fill:#BEBEC4;}
	.st6{fill:#049604;}
	.st7{fill:#EE333A;}
	.st8{fill:#1B5EB5;}
</style>
<g id="图层_12">
	<g id="org.gnome.Mines">
		<g id="_96">
			<g id="_96-2">
				<g class="st0">
					<path d="M47.5,92c-14.9,0-28-3.9-34.3-10.2S3,62.4,3,47.5s3.9-28,10.2-34.3S32.6,3,47.5,3s28,3.9,34.3,10.2S92,32.6,92,47.5
						s-3.9,28-10.2,34.3S62.4,92,47.5,92z"/>
				</g>
				<g class="st1">
					<path d="M49,95c-15.3,0-28.8-4.1-35.4-10.6S3,64.3,3,49s4.1-28.8,10.6-35.4S33.7,3,49,3s28.8,4.1,35.4,10.6S95,33.7,95,49
						s-4.1,28.8-10.6,35.4S64.3,95,49,95z"/>
				</g>
				<g class="st2">
					<path d="M49,93.5c-14.9,0-28-3.9-34.3-10.2S4.5,63.9,4.5,49s3.9-28,10.2-34.3S34.1,4.5,49,4.5s28,3.9,34.3,10.2
						S93.5,34.1,93.5,49s-3.9,28-10.2,34.3S63.9,93.5,49,93.5z"/>
				</g>
				<g id="_128-2">
					
						<linearGradient id="SVGID_1_" gradientUnits="userSpaceOnUse" x1="47.4912" y1="149.48" x2="47.4912" y2="235.4513" gradientTransform="matrix(1 0 0 -1 0 239.97)">
						<stop  offset="1.000000e-02" style="stop-color:#6D7375"/>
						<stop  offset="1" style="stop-color:#BEBEC4"/>
					</linearGradient>
					<path class="st3" d="M80.7,80.7c-13,13-53.5,13-66.5,0s-13-53.5,0-66.5s53.5-13,66.5,0S93.7,67.8,80.7,80.7z"/>
				</g>
				<g>
					<path class="st4" d="M47.5,87.5c-13.7,0-25.6-3.4-31.1-8.8S7.5,61.2,7.5,47.5s3.4-25.6,8.9-31.1s17.4-8.9,31.1-8.9
						s25.6,3.4,31.1,8.9s8.8,17.4,8.8,31.1s-3.4,25.6-8.9,31.1S61.2,87.5,47.5,87.5z"/>
					<path class="st5" d="M48,87.5c13.5-0.1,25.2-3.5,30.6-8.9c5.4-5.4,8.8-17.1,8.8-30.6H48V87.5z"/>
					<path class="st5" d="M46,87.4c0.5,0,1,0,1.5,0c0.8,0,1.7,0,2.5,0V7.6c-0.8,0-1.7,0-2.5,0c-0.5,0-1,0-1.5,0V87.4z"/>
					<path class="st5" d="M7.5,47.5c0,0.8,0,1.7,0,2.5h79.9c0-0.8,0-1.7,0-2.5c0-0.5,0-1,0-1.5H7.5C7.5,46.5,7.5,47,7.5,47.5z"/>
				</g>
			</g>
			<g id="_96-3">
				<polygon class="st6" points="25,18 25,43 28,43 28,31 42,31 				"/>
				<path class="st7" d="M74.6,68.6L79,66l-4.4-2.6l0,0c-0.2-0.6-0.4-1.2-0.7-1.7l0,0L75,57l-4.7,1.1l0,0c-0.5-0.3-1.1-0.5-1.7-0.7
					l0,0L66,53l-2.6,4.4l0,0c-0.6,0.2-1.2,0.4-1.7,0.7l0,0L57,57l1.1,4.7l0,0c-0.3,0.5-0.5,1.1-0.7,1.7l0,0L53,66l4.4,2.6l0,0
					c0.2,0.6,0.4,1.2,0.7,1.7l0,0L57,75l4.7-1l0,0c0.6,0.3,1.1,0.5,1.7,0.7l0,0L66,79l2.6-4.3l0,0c0.6-0.2,1.2-0.4,1.7-0.7l0,0
					l4.7,1l-1.1-4.6l0,0C74.2,69.8,74.4,69.2,74.6,68.6z"/>
				<polygon class="st8" points="33,75 33,55 25,55 25,58 30,58 30,75 25,75 25,78 37,78 37,75 				"/>
			</g>
		</g>
	</g>
</g>
</svg>
