<?xml version="1.0" encoding="utf-8"?>
<!-- Generator: Adobe Illustrator 24.0.0, SVG Export Plug-In . SVG Version: 6.00 Build 0)  -->
<svg version="1.1" id="图层_1" xmlns="http://www.w3.org/2000/svg" xmlns:xlink="http://www.w3.org/1999/xlink" x="0px" y="0px"
	 viewBox="0 0 96 96" style="enable-background:new 0 0 96 96;" xml:space="preserve">
<style type="text/css">
	.st0{opacity:0.2;}
	.st1{opacity:8.000000e-02;}
	.st2{opacity:0.1;}
	.st3{fill:url(#SVGID_1_);}
	.st4{fill:#B78A58;}
	.st5{fill:#A0774E;}
	.st6{fill:url(#SVGID_2_);}
	.st7{fill:url(#SVGID_3_);}
	.st8{fill:url(#SVGID_4_);}
	.st9{fill:url(#SVGID_5_);}
</style>
<g id="_96">
	<g id="_96-2">
		<g id="浅灰色">
			<g id="_128">
				<g class="st0">
					<path d="M47.5,92c-14.9,0-28-3.9-34.3-10.2S3,62.4,3,47.5s3.9-28,10.2-34.3S32.6,3,47.5,3s28,3.9,34.3,10.2S92,32.6,92,47.5
						s-3.9,28-10.2,34.3S62.4,92,47.5,92z"/>
				</g>
				<g class="st1">
					<path d="M49,95c-15.3,0-28.8-4.1-35.4-10.6S3,64.3,3,49s4.1-28.8,10.6-35.4S33.7,3,49,3s28.8,4.1,35.4,10.6S95,33.7,95,49
						s-4.1,28.8-10.6,35.4S64.3,95,49,95z"/>
				</g>
				<g class="st2">
					<path d="M49,93.5c-14.9,0-28-3.9-34.3-10.2S4.5,63.9,4.5,49s3.9-28,10.2-34.3S34.1,4.5,49,4.5s28,3.9,34.3,10.2
						S93.5,34.1,93.5,49s-3.9,28-10.2,34.3S63.9,93.5,49,93.5z"/>
				</g>
				<g id="_128-2">
					
						<linearGradient id="SVGID_1_" gradientUnits="userSpaceOnUse" x1="47.4912" y1="149.48" x2="47.4912" y2="235.4513" gradientTransform="matrix(1 0 0 -1 0 239.97)">
						<stop  offset="0" style="stop-color:#C1822F"/>
						<stop  offset="1" style="stop-color:#EAD968"/>
					</linearGradient>
					<path class="st3" d="M80.7,80.7c-13,13-53.5,13-66.5,0s-13-53.5,0-66.5s53.5-13,66.5,0S93.7,67.8,80.7,80.7z"/>
				</g>
				<g>
					<path class="st4" d="M47.5,87.5c-13.7,0-25.6-3.4-31.1-8.8S7.5,61.2,7.5,47.5s3.4-25.6,8.9-31.1s17.4-8.9,31.1-8.9
						s25.6,3.4,31.1,8.9s8.8,17.4,8.8,31.1s-3.4,25.6-8.9,31.1S61.2,87.5,47.5,87.5z"/>
					<path class="st5" d="M7.5,47.5c0,1.2,0,2.4,0.1,3.5h79.8c0.1-1.2,0.1-2.3,0.1-3.5c0-0.8,0-1.7,0-2.5H7.6
						C7.5,45.8,7.5,46.7,7.5,47.5z"/>
					<path class="st5" d="M45,87.4c0.8,0,1.7,0,2.5,0c1.2,0,2.4,0,3.5-0.1V7.6c-1.2,0-2.3-0.1-3.5-0.1c-0.8,0-1.7,0-2.5,0V87.4z"/>
				</g>
			</g>
		</g>
	</g>
	<g id="_96-3">
		
			<linearGradient id="SVGID_2_" gradientUnits="userSpaceOnUse" x1="22.1592" y1="-796.3508" x2="39.3384" y2="-813.1101" gradientTransform="matrix(1 0 0 -1 0 -774)">
			<stop  offset="0" style="stop-color:#424242"/>
			<stop  offset="0.14" style="stop-color:#333333"/>
			<stop  offset="0.36" style="stop-color:#242424"/>
			<stop  offset="0.61" style="stop-color:#1B1B1B"/>
			<stop  offset="0.97" style="stop-color:#181818"/>
		</linearGradient>
		<circle class="st6" cx="30" cy="30" r="12"/>
		
			<linearGradient id="SVGID_3_" gradientUnits="userSpaceOnUse" x1="58.1592" y1="-832.3508" x2="75.3384" y2="-849.1101" gradientTransform="matrix(1 0 0 -1 0 -774)">
			<stop  offset="0" style="stop-color:#424242"/>
			<stop  offset="0.14" style="stop-color:#333333"/>
			<stop  offset="0.36" style="stop-color:#242424"/>
			<stop  offset="0.61" style="stop-color:#1B1B1B"/>
			<stop  offset="0.97" style="stop-color:#181818"/>
		</linearGradient>
		<circle class="st7" cx="66" cy="66" r="12"/>
		
			<linearGradient id="SVGID_4_" gradientUnits="userSpaceOnUse" x1="59.9126" y1="-796.038" x2="74.4903" y2="-815.105" gradientTransform="matrix(1 0 0 -1 0 -774)">
			<stop  offset="0" style="stop-color:#E5E5E5"/>
			<stop  offset="0.42" style="stop-color:#BEBEBE"/>
			<stop  offset="0.76" style="stop-color:#A4A4A4"/>
			<stop  offset="0.97" style="stop-color:#9B9B9B"/>
		</linearGradient>
		<circle class="st8" cx="66" cy="30" r="12"/>
		
			<linearGradient id="SVGID_5_" gradientUnits="userSpaceOnUse" x1="23.9126" y1="-832.038" x2="38.4903" y2="-851.105" gradientTransform="matrix(1 0 0 -1 0 -774)">
			<stop  offset="0" style="stop-color:#E5E5E5"/>
			<stop  offset="0.42" style="stop-color:#BEBEBE"/>
			<stop  offset="0.76" style="stop-color:#A4A4A4"/>
			<stop  offset="0.97" style="stop-color:#9B9B9B"/>
		</linearGradient>
		<circle class="st9" cx="30" cy="66" r="12"/>
	</g>
</g>
</svg>
