<?xml version="1.0" encoding="utf-8"?>
<!-- Generator: Adobe Illustrator 24.0.0, SVG Export Plug-In . SVG Version: 6.00 Build 0)  -->
<svg version="1.1" id="图层_1" xmlns="http://www.w3.org/2000/svg" xmlns:xlink="http://www.w3.org/1999/xlink" x="0px" y="0px"
	 viewBox="0 0 96 96" style="enable-background:new 0 0 96 96;" xml:space="preserve">
<style type="text/css">
	.st0{opacity:0.2;}
	.st1{opacity:8.000000e-02;}
	.st2{opacity:0.1;}
	.st3{fill:#FFFFFF;}
	.st4{fill:url(#SVGID_1_);}
	.st5{fill:url(#SVGID_2_);}
	.st6{fill:url(#SVGID_3_);}
	.st7{fill:url(#SVGID_4_);}
</style>
<g id="_96">
	<g class="st0">
		<path d="M47.5,92c-14.9,0-28-3.9-34.3-10.2S3,62.4,3,47.5s3.9-28,10.2-34.3S32.6,3,47.5,3s28,3.9,34.3,10.2S92,32.6,92,47.5
			s-3.9,28-10.2,34.3S62.4,92,47.5,92z"/>
	</g>
	<g class="st1">
		<path d="M49,95c-15.3,0-28.8-4.1-35.4-10.6S3,64.3,3,49s4.1-28.8,10.6-35.4S33.7,3,49,3s28.8,4.1,35.4,10.6S95,33.7,95,49
			s-4.1,28.8-10.6,35.4S64.3,95,49,95z"/>
	</g>
	<g class="st2">
		<path d="M49,93.5c-14.9,0-28-3.9-34.3-10.2S4.5,63.9,4.5,49s3.9-28,10.2-34.3S34.1,4.5,49,4.5s28,3.9,34.3,10.2S93.5,34.1,93.5,49
			s-3.9,28-10.2,34.3S63.9,93.5,49,93.5z"/>
	</g>
	<g id="_96-2">
		<path class="st3" d="M80.7,80.7c-13,13-53.5,13-66.5,0s-13-53.5,0-66.5s53.5-13,66.5,0S93.7,67.8,80.7,80.7z"/>
	</g>
	<g>
		<g>
			<g id="_96-3">
				<linearGradient id="SVGID_1_" gradientUnits="userSpaceOnUse" x1="47.4849" y1="48" x2="47.4849" y2="87.46">
					<stop  offset="0" style="stop-color:#8F6893"/>
					<stop  offset="1" style="stop-color:#76537F"/>
				</linearGradient>
				<path class="st4" d="M87.4,48H7.5c0.1,13.5,3.5,25.2,8.9,30.6c5.5,5.5,17.4,8.9,31.1,8.9c13.7,0,25.7-3.4,31.1-8.9
					C84,73.2,87.4,61.5,87.4,48z"/>
				<linearGradient id="SVGID_2_" gradientUnits="userSpaceOnUse" x1="47.485" y1="7.52" x2="47.485" y2="48">
					<stop  offset="0" style="stop-color:#5E86BF"/>
					<stop  offset="1" style="stop-color:#789FD1"/>
				</linearGradient>
				<path class="st5" d="M87.5,47.5c0-13.7-3.4-25.6-8.8-31.1c-5.5-5.5-17.4-8.8-31.1-8.8c-13.7,0-25.7,3.4-31.1,8.9
					c-5.5,5.5-8.8,17.4-8.8,31.1c0,0.2,0,0.3,0,0.5h79.9C87.4,47.8,87.5,47.7,87.5,47.5z"/>
				<linearGradient id="SVGID_3_" gradientUnits="userSpaceOnUse" x1="7.52" y1="47.733" x2="48" y2="47.733">
					<stop  offset="0" style="stop-color:#D60F06"/>
					<stop  offset="1" style="stop-color:#D50E05"/>
				</linearGradient>
				<path class="st6" d="M16.4,16.4C16.4,16.4,16.4,16.4,16.4,16.4c-5.5,5.5-8.9,17.4-8.9,31.1s3.4,25.7,8.9,31.1
					c0.2,0.2,0.4,0.3,0.5,0.5L48,48L16.4,16.4z"/>
				<linearGradient id="SVGID_4_" gradientUnits="userSpaceOnUse" x1="87.45" y1="47.7518" x2="48" y2="47.7518">
					<stop  offset="0" style="stop-color:#8CC62B"/>
					<stop  offset="1" style="stop-color:#89DB00"/>
				</linearGradient>
				<path class="st7" d="M79.1,16.9L48,48l30.6,30.6c0,0,0,0,0,0c5.5-5.5,8.9-17.4,8.9-31.1C87.5,34.2,84.3,22.6,79.1,16.9z"/>
				<path class="st3" d="M42,60.8h11.8v2.3c-3,4.2-5.2,10-6.3,17.3h-3.3c0.8-5.8,2.7-11.4,5.6-16.6H42V60.8z"/>
				<path class="st3" d="M54.3,17.7l-3.1,1.2c-0.5-1.9-1.3-2.8-2.5-2.8c-1.9,0.1-3,1.9-3.3,5.4c0.8-1.2,2.1-1.8,3.5-1.7
					c3.4,0.2,5.3,2.4,5.6,6.6c-0.2,4.4-2.2,6.7-6.3,6.9c-4-0.1-6.2-3-6.3-8.9c0.2-7.2,2.4-10.9,6.7-11.3
					C51.4,13.2,53.3,14.8,54.3,17.7z M48,30.5c2-0.1,3-1.5,3-3.9c-0.1-2.4-1-3.7-2.8-3.8c-1.8,0.1-2.8,1.4-2.8,3.8
					S46.3,30.4,48,30.5z"/>
				<path class="st3" d="M28.3,53.8v3H16v-2.2c1.4-2.7,3.3-5,5.7-6.9c2.4-1.7,3.5-3.4,3.4-5c-0.1-1.8-1-2.8-2.7-2.8
					c-1.4-0.1-2.5,1-3.4,3.2l-2.9-1.4c1.2-3.2,3.3-4.8,6.3-4.8c3.9,0.2,5.9,2.1,6,5.7c0.1,2.5-1.4,4.8-4.4,7c-1.6,1.1-3,2.5-4.1,4.1
					H28.3z"/>
				<path class="st3" d="M69.3,37.3H79v3h-6.9l-0.4,4c0.8-0.6,1.8-0.9,2.8-0.8c3.6,0.2,5.4,2.4,5.5,6.6c-0.2,4.6-2.2,6.9-6.3,7.1
					c-3.4,0.2-5.4-1.8-6.1-5.6l3.3-1c0.3,2.4,1.2,3.6,2.8,3.6c2-0.2,3-1.5,3.1-4.1c-0.1-2.3-1-3.4-2.8-3.5c-1.4-0.1-2.6,0.8-3,2.1
					L68.2,48L69.3,37.3z"/>
			</g>
		</g>
	</g>
</g>
</svg>
