<svg xmlns="http://www.w3.org/2000/svg" xmlns:xlink="http://www.w3.org/1999/xlink" viewBox="0 0 96 96"><defs><style>.cls-1{opacity:0.2;}.cls-2{opacity:0.08;}.cls-3{opacity:0.1;}.cls-4{fill:url(#未命名的渐变_13);}.cls-5{fill:url(#未命名的渐变_11);}.cls-6{isolation:isolate;}.cls-7{fill:#333;}</style><linearGradient id="未命名的渐变_13" x1="47.49" y1="-51.48" x2="47.49" y2="-137.45" gradientTransform="translate(0 141.97)" gradientUnits="userSpaceOnUse"><stop offset="0" stop-color="#dae1e4"/><stop offset="1" stop-color="#f3f4fa"/></linearGradient><linearGradient id="未命名的渐变_11" x1="47.49" y1="-54.51" x2="47.49" y2="-134.45" gradientTransform="translate(0 141.97)" gradientUnits="userSpaceOnUse"><stop offset="0" stop-color="#cfd8dc"/><stop offset="1" stop-color="#ebecf2"/></linearGradient></defs><g id="图层_12" data-name="图层 12"><g id="fonts"><g id="_96" data-name="96"><g id="浅灰色"><g id="_128" data-name=" 128"><g class="cls-1"><path d="M47.49,92c-14.89,0-28-3.9-34.31-10.18S3,62.38,3,47.49s3.9-28,10.18-34.31S32.61,3,47.49,3s28,3.9,34.31,10.18S92,32.61,92,47.49s-3.9,28-10.18,34.31S62.38,92,47.49,92Z"/></g><g class="cls-2"><path d="M49,95c-15.27,0-28.83-4.07-35.38-10.62S3,64.27,3,49,7.07,20.17,13.62,13.62,33.73,3,49,3,77.83,7.07,84.38,13.62,95,33.73,95,49,90.93,77.83,84.38,84.38,64.27,95,49,95Z"/></g><g class="cls-3"><path d="M49,93.49c-14.89,0-28-3.9-34.31-10.18S4.51,63.89,4.51,49s3.9-28,10.18-34.31S34.11,4.51,49,4.51s28,3.9,34.31,10.18S93.49,34.11,93.49,49s-3.9,28-10.18,34.31S63.89,93.49,49,93.49Z"/></g><g id="_128-2" data-name=" 128-2"><path class="cls-4" d="M80.74,80.74c-13,13-53.54,13-66.49,0s-13-53.54,0-66.49,53.54-13,66.49,0S93.72,67.75,80.74,80.74Z"/></g><path class="cls-5" d="M47.49,87.46c-13.73,0-25.64-3.39-31.11-8.85S7.52,61.22,7.52,47.49s3.39-25.64,8.85-31.11S33.76,7.52,47.49,7.52s25.64,3.39,31.11,8.85,8.85,17.38,8.85,31.11S84.06,73.12,78.6,78.59,61.22,87.46,47.49,87.46Z"/></g></g><g id="_96-2" data-name="96"><g class="cls-6"><path class="cls-7" d="M13,64,28,25h8L53,64H46L41,52H24L20,64ZM25,48H40L32,29Z"/><path class="cls-7" d="M75.59,60.67A19.38,19.38,0,0,1,70.08,64a16.35,16.35,0,0,1-5.69,1c-3.34,0-5.9-.8-7.7-2.39A7.79,7.79,0,0,1,54,56.51a7.94,7.94,0,0,1,1-4,8.22,8.22,0,0,1,2.66-2.89A12.49,12.49,0,0,1,61.39,48,37.22,37.22,0,0,1,66,47.24a48.75,48.75,0,0,0,9.19-1.73q0-1,0-1.32c0-2-.49-3.49-1.46-4.33q-2-1.7-5.87-1.7a9.33,9.33,0,0,0-5.37,1.24,7.53,7.53,0,0,0-2.56,4.4l-5-.67A12,12,0,0,1,57.15,38a9.92,9.92,0,0,1,4.55-3,20.76,20.76,0,0,1,6.9-1,18.83,18.83,0,0,1,6.33.89,8.49,8.49,0,0,1,3.58,2.25,8,8,0,0,1,1.6,3.42,27.78,27.78,0,0,1,.26,4.64v6.7a69.26,69.26,0,0,0,.33,8.87A11,11,0,0,0,82,64.33H76.62A10.26,10.26,0,0,1,75.59,60.67Zm-.43-11.23a38.25,38.25,0,0,1-8.42,1.9,19.88,19.88,0,0,0-4.49,1,4.5,4.5,0,0,0-2,1.63,4.29,4.29,0,0,0-.71,2.39,4.23,4.23,0,0,0,1.56,3.35,6.78,6.78,0,0,0,4.56,1.34,10.82,10.82,0,0,0,5.3-1.27,7.9,7.9,0,0,0,3.41-3.48,11.9,11.9,0,0,0,.83-5Z"/></g><rect class="cls-7" x="20" y="68.93" width="56" height="3.07" rx="1.54"/></g></g></g></g></svg>