<?xml version="1.0" encoding="utf-8"?>
<!-- Generator: Adobe Illustrator 24.0.0, SVG Export Plug-In . SVG Version: 6.00 Build 0)  -->
<svg version="1.1" id="图层_1" xmlns="http://www.w3.org/2000/svg" xmlns:xlink="http://www.w3.org/1999/xlink" x="0px" y="0px"
	 viewBox="0 0 96 96" style="enable-background:new 0 0 96 96;" xml:space="preserve">
<style type="text/css">
	.st0{opacity:0.2;}
	.st1{opacity:8.000000e-02;}
	.st2{opacity:0.1;}
	.st3{fill:url(#SVGID_1_);}
	.st4{fill:url(#SVGID_2_);}
	.st5{fill:url(#SVGID_3_);}
	.st6{fill:url(#SVGID_4_);}
	.st7{fill:url(#SVGID_5_);}
	.st8{fill:url(#SVGID_6_);}
	.st9{fill:url(#SVGID_7_);}
	.st10{fill:url(#SVGID_8_);}
</style>
<g id="_96">
	<g class="st0">
		<path d="M47.5,92c-14.9,0-28-3.9-34.3-10.2S3,62.4,3,47.5s3.9-28,10.2-34.3S32.6,3,47.5,3s28,3.9,34.3,10.2S92,32.6,92,47.5
			s-3.9,28-10.2,34.3S62.4,92,47.5,92z"/>
	</g>
	<g class="st1">
		<path d="M49,95c-15.3,0-28.8-4.1-35.4-10.6S3,64.3,3,49s4.1-28.8,10.6-35.4S33.7,3,49,3s28.8,4.1,35.4,10.6S95,33.7,95,49
			s-4.1,28.8-10.6,35.4S64.3,95,49,95z"/>
	</g>
	<g class="st2">
		<path d="M49,93.5c-14.9,0-28-3.9-34.3-10.2S4.5,63.9,4.5,49s3.9-28,10.2-34.3S34.1,4.5,49,4.5s28,3.9,34.3,10.2S93.5,34.1,93.5,49
			s-3.9,28-10.2,34.3S63.9,93.5,49,93.5z"/>
	</g>
	<g id="_128-2">
		
			<linearGradient id="SVGID_1_" gradientUnits="userSpaceOnUse" x1="14.25" y1="225.72" x2="80.74" y2="159.23" gradientTransform="matrix(1 0 0 -1 0 239.97)">
			<stop  offset="0" style="stop-color:#267BE3"/>
			<stop  offset="1" style="stop-color:#1248FB"/>
		</linearGradient>
		<path class="st3" d="M80.7,80.7c-13,13-53.5,13-66.5,0s-13-53.5,0-66.5s53.5-13,66.5,0S93.7,67.8,80.7,80.7z"/>
	</g>
	
		<radialGradient id="SVGID_2_" cx="47.485" cy="192.48" r="50.8032" fx="20.0797" fy="192.48" gradientTransform="matrix(1 0 0 -1 0 239.97)" gradientUnits="userSpaceOnUse">
		<stop  offset="0" style="stop-color:#86C1F8"/>
		<stop  offset="0.13" style="stop-color:#7FBBF8"/>
		<stop  offset="0.31" style="stop-color:#6DABF6"/>
		<stop  offset="0.53" style="stop-color:#4E90F4"/>
		<stop  offset="0.77" style="stop-color:#256BF1"/>
		<stop  offset="0.94" style="stop-color:#024DEF"/>
	</radialGradient>
	<path class="st4" d="M47.5,87.5c-13.7,0-25.6-3.4-31.1-8.8S7.5,61.2,7.5,47.5s3.4-25.6,8.9-31.1s17.4-8.9,31.1-8.9
		s25.6,3.4,31.1,8.9s8.8,17.4,8.8,31.1s-3.4,25.6-8.9,31.1S61.2,87.5,47.5,87.5z"/>
	<g>
		<linearGradient id="SVGID_3_" gradientUnits="userSpaceOnUse" x1="50.3396" y1="20.681" x2="38.4771" y2="94.0175">
			<stop  offset="0" style="stop-color:#F3F124"/>
			<stop  offset="0.39" style="stop-color:#F3EF24"/>
			<stop  offset="0.58" style="stop-color:#F4E726"/>
			<stop  offset="0.72" style="stop-color:#F6DA28"/>
			<stop  offset="0.84" style="stop-color:#F8C82C"/>
			<stop  offset="0.95" style="stop-color:#FBB030"/>
			<stop  offset="1" style="stop-color:#FDA233"/>
		</linearGradient>
		<path class="st5" d="M47.5,87.5c10.1,0,19.1-1.8,25.4-5c-4.7-1.4-9.3-3.6-13.4-6.4c-3.5-2.4-9.9-6.9-14-15.4
			c-1.2-2.5-2.1-5.2-2.7-7.9c2.1,6.9,4.9,9.5,7.5,10.3c2.4,0.7,5.1-0.3,7.5,0C63,63.8,66.7,67,70,64.5c1.3-1,1.3-3.8,0.3-5.8
			c2-1.8,8.7-8,7.1-12.6c-0.4-1.3-1.3-2-5.4-5.1c-2.5-1.9-5.2-4-8.2-6.2c0.1-1.4-0.3-2.9-1-4.1c-0.9-1.5-2.5-2.7-7.5-4.1
			c-3.4-1-7-1.7-10.5-2.1c-1.1-2.9-3.3-5.2-6.1-6.5c-0.8,0.9-1.5,2-2,3.1c-0.5,1.3-0.8,2.7-0.7,4.1c-7.8,2.9-14.4,8.3-18.7,15.4
			c-4.1,6.8-5.1,13.3-5.8,18.5c-0.5,3.5-0.7,7-0.6,10.6c1.4,3.8,3.2,6.9,5.4,9C21.8,84.1,33.8,87.5,47.5,87.5z"/>
		
			<linearGradient id="SVGID_4_" gradientUnits="userSpaceOnUse" x1="58.229" y1="60.1206" x2="59.299" y2="61.9706" gradientTransform="matrix(1 0 0 -1 0 98)">
			<stop  offset="0" style="stop-color:#F39D23;stop-opacity:0.9"/>
			<stop  offset="0.1" style="stop-color:#F39D23;stop-opacity:0.87"/>
			<stop  offset="0.24" style="stop-color:#F49E25;stop-opacity:0.8"/>
			<stop  offset="0.4" style="stop-color:#F69E27;stop-opacity:0.67"/>
			<stop  offset="0.59" style="stop-color:#F79F2A;stop-opacity:0.5"/>
			<stop  offset="0.79" style="stop-color:#FAA02E;stop-opacity:0.27"/>
			<stop  offset="1" style="stop-color:#FDA233;stop-opacity:0"/>
			<stop  offset="1" style="stop-color:#FDA233;stop-opacity:0"/>
		</linearGradient>
		<path class="st6" d="M56.5,34.4c0,1.3,0.6,2.6,1.7,3.4c1,0.7,2.2,0.9,3.4,0.7c-0.4-0.8-1-1.5-1.7-2c-0.5-0.4-1.1-0.7-1.7-1
			C57.5,35,56.9,34.7,56.5,34.4z"/>
		<g>
			<linearGradient id="SVGID_5_" gradientUnits="userSpaceOnUse" x1="36.3067" y1="19.3907" x2="41.9528" y2="29.1801">
				<stop  offset="0" style="stop-color:#F39D23;stop-opacity:0.9"/>
				<stop  offset="0.1" style="stop-color:#F39D23;stop-opacity:0.87"/>
				<stop  offset="0.24" style="stop-color:#F49E25;stop-opacity:0.8"/>
				<stop  offset="0.4" style="stop-color:#F69E27;stop-opacity:0.67"/>
				<stop  offset="0.59" style="stop-color:#F79F2A;stop-opacity:0.5"/>
				<stop  offset="0.79" style="stop-color:#FAA02E;stop-opacity:0.27"/>
				<stop  offset="1" style="stop-color:#FDA233;stop-opacity:0"/>
				<stop  offset="1" style="stop-color:#FDA233;stop-opacity:0"/>
			</linearGradient>
			<path class="st7" d="M41.2,29.6c-1.1-1.3-1.9-2.8-2.4-4.4c-0.6-2.4-0.6-4.8,0.1-7.2c0,0-0.1,0-0.1-0.1c-0.8,0.9-1.5,2-2,3.1
				c-0.5,1.1-0.7,2.3-0.7,3.5c0.3,0.7,0.6,1.4,1,2C38.1,28,39.6,29,41.2,29.6z"/>
			<linearGradient id="SVGID_6_" gradientUnits="userSpaceOnUse" x1="39.4506" y1="92.1546" x2="61.7442" y2="53.5413">
				<stop  offset="0" style="stop-color:#F39D23;stop-opacity:0.3"/>
				<stop  offset="0.2" style="stop-color:#F49D24;stop-opacity:0.27"/>
				<stop  offset="0.49" style="stop-color:#F69F29;stop-opacity:0.2"/>
				<stop  offset="0.83" style="stop-color:#FBA12F;stop-opacity:7.000000e-02"/>
				<stop  offset="1" style="stop-color:#FDA233;stop-opacity:0"/>
			</linearGradient>
			<path class="st8" d="M50.5,87.4c0.6,0,1.1,0,1.7-0.1c0.2,0,0.4,0,0.7,0c0.7,0,1.4-0.1,2.1-0.2c0.2,0,0.4,0,0.6-0.1
				c0.5-0.1,1-0.1,1.5-0.2c0.3,0,0.6-0.1,0.9-0.1c0.4-0.1,0.8-0.1,1.2-0.2c0.3,0,0.6-0.1,0.9-0.1c0.6-0.1,1.2-0.2,1.7-0.3
				c0.3-0.1,0.7-0.1,1-0.2c0.3-0.1,0.5-0.1,0.8-0.2c0.4-0.1,0.7-0.2,1.1-0.3c0.2-0.1,0.4-0.1,0.6-0.2c1.3-0.3,2.5-0.7,3.7-1.1
				c0.1,0,0.2-0.1,0.3-0.1c0.4-0.1,0.8-0.3,1.2-0.5c0,0,0,0,0,0c0.9-0.3,1.7-0.7,2.5-1.1c-4.7-1.4-9.3-3.6-13.4-6.4
				c-3.5-2.4-9.9-6.9-14-15.4c-1.2-2.5-2.1-5.2-2.7-7.9c2.1,6.9,4.9,9.5,7.5,10.3c2.4,0.7,5.1-0.3,7.5,0C63,63.8,66.7,67,70,64.5
				c1.3-1,1.3-3.8,0.3-5.8c0,0,0.1-0.1,0.1-0.1c-0.7,0.1-1.4,0.1-2.1,0.1c-3.3-0.1-5.7-1.2-8.8-2.7c-7.2-3.4-8-6.3-12.3-6.8
				s-7.8,1.7-9.5,2.7c-8.4,5.3-11.2,15.8-11.9,19.5C25,75.8,24.7,80,25,83.8c0,0,0,0,0,0c0.7,0.3,1.4,0.5,2.2,0.8
				c0.2,0.1,0.4,0.1,0.6,0.2c0.6,0.2,1.1,0.3,1.7,0.5c0.3,0.1,0.5,0.1,0.8,0.2c0.6,0.1,1.2,0.3,1.8,0.4c0.2,0.1,0.5,0.1,0.7,0.2
				c0.8,0.2,1.7,0.3,2.5,0.5c0,0,0,0,0,0c0.9,0.1,1.8,0.3,2.7,0.4c0.3,0,0.5,0.1,0.8,0.1c0.6,0.1,1.3,0.1,2,0.2c0.3,0,0.6,0.1,1,0.1
				c0.7,0,1.3,0.1,2,0.1c0.3,0,0.6,0,0.9,0c1,0,1.9,0.1,2.9,0.1c0.8,0,1.5,0,2.3,0C50,87.4,50.2,87.4,50.5,87.4z"/>
			
				<linearGradient id="SVGID_7_" gradientUnits="userSpaceOnUse" x1="70.2687" y1="30.8679" x2="49.2187" y2="44.0079" gradientTransform="matrix(1 0 0 -1 0 98)">
				<stop  offset="0" style="stop-color:#F39D23;stop-opacity:0.5"/>
				<stop  offset="2.000000e-02" style="stop-color:#F39D24;stop-opacity:0.48"/>
				<stop  offset="0.15" style="stop-color:#F69F28;stop-opacity:0.33"/>
				<stop  offset="0.28" style="stop-color:#F9A02C;stop-opacity:0.21"/>
				<stop  offset="0.43" style="stop-color:#FBA12F;stop-opacity:0.12"/>
				<stop  offset="0.59" style="stop-color:#FCA131;stop-opacity:5.000000e-02"/>
				<stop  offset="0.76" style="stop-color:#FDA233;stop-opacity:1.000000e-02"/>
				<stop  offset="1" style="stop-color:#FDA233;stop-opacity:0"/>
			</linearGradient>
			<path class="st9" d="M42.1,49.7c1.7-0.6,3.5-0.8,5.2-0.6c4.3,0.5,5.1,3.4,12.3,6.8c3.2,1.5,5.6,2.6,8.8,2.7c0.7,0,1.4,0,2.1-0.1
				l-0.1,0.1c1,2,1,4.8-0.3,5.8c-3.3,2.5-7-0.6-12.2-1.4c-2.4-0.3-5.1,0.7-7.5,0c-2.6-0.8-5.4-3.3-7.5-10.3c0.1,0.5,0.3,1,0.4,1.6
				c-0.5-1.5-0.9-3.1-1.1-4.7"/>
			<linearGradient id="SVGID_8_" gradientUnits="userSpaceOnUse" x1="50.8901" y1="91.4942" x2="62.9593" y2="55.7919">
				<stop  offset="0" style="stop-color:#F39D23;stop-opacity:0.5"/>
				<stop  offset="0.15" style="stop-color:#F69E28;stop-opacity:0.36"/>
				<stop  offset="0.45" style="stop-color:#FBA130;stop-opacity:0.1"/>
				<stop  offset="0.6" style="stop-color:#FDA233;stop-opacity:0"/>
			</linearGradient>
			<path class="st10" d="M78.6,78.6c1.2-1.2,2.3-2.7,3.2-4.4C77,72.7,71,73,65.3,75.8c-7.1-2.4-13.3-7-17.7-13
				c-1.8-2.5-3.3-5.3-4.4-8.3c-0.5-1.5-0.9-3.1-1.1-4.7c-2.5,3-4.5,6.5-5.8,10.3c-2.3,7.7-2.2,15.9,0.3,23.6
				c0.4,1.1,0.8,2.2,1.3,3.3c3,0.4,6.1,0.6,9.4,0.6C61.2,87.5,73.1,84.1,78.6,78.6z"/>
		</g>
	</g>
</g>
</svg>
