<svg xmlns="http://www.w3.org/2000/svg" xmlns:xlink="http://www.w3.org/1999/xlink" viewBox="0 0 96 96"><defs><style>.cls-1{opacity:0.2;}.cls-2{opacity:0.08;}.cls-3{opacity:0.1;}.cls-4{fill:url(#未命名的渐变_142);}.cls-5{fill:url(#未命名的渐变_9);}.cls-6{fill:#fff;}.cls-7{fill:url(#未命名的渐变_9-2);}.cls-8{fill:url(#未命名的渐变_9-3);}</style><linearGradient id="未命名的渐变_142" x1="47.49" y1="-51.48" x2="47.49" y2="-137.45" gradientTransform="translate(0 141.97)" gradientUnits="userSpaceOnUse"><stop offset="0" stop-color="#ef8454"/><stop offset="1" stop-color="#f1ca83"/></linearGradient><linearGradient id="未命名的渐变_9" x1="47.49" y1="-54.51" x2="47.49" y2="-134.45" gradientTransform="translate(0 141.97)" gradientUnits="userSpaceOnUse"><stop offset="0" stop-color="#e8632e"/><stop offset="1" stop-color="#f4a338"/></linearGradient><linearGradient id="未命名的渐变_9-2" x1="48" y1="50" x2="48" y2="30" gradientTransform="matrix(1, 0, 0, 1, 0, 0)" xlink:href="#未命名的渐变_9"/><linearGradient id="未命名的渐变_9-3" x1="48" y1="62" x2="48" y2="54" gradientTransform="matrix(1, 0, 0, 1, 0, 0)" xlink:href="#未命名的渐变_9"/></defs><title>奇安信可信浏览器-96</title><g id="图层_12" data-name="图层 12"><g id="黄粉色"><g id="_96" data-name="96"><g id="浅灰色"><g id="_128" data-name=" 128"><g class="cls-1"><path d="M47.49,92c-14.89,0-28-3.9-34.31-10.18S3,62.38,3,47.49s3.9-28,10.18-34.31S32.61,3,47.49,3s28,3.9,34.31,10.18S92,32.61,92,47.49s-3.9,28-10.18,34.31S62.38,92,47.49,92Z"/></g><g class="cls-2"><path d="M49,95c-15.27,0-28.83-4.07-35.38-10.62S3,64.27,3,49,7.07,20.17,13.62,13.62,33.73,3,49,3,77.83,7.07,84.38,13.62,95,33.73,95,49,90.93,77.83,84.38,84.38,64.27,95,49,95Z"/></g><g class="cls-3"><path d="M49,93.49c-14.89,0-28-3.9-34.31-10.18S4.51,63.89,4.51,49s3.9-28,10.18-34.31S34.11,4.51,49,4.51s28,3.9,34.31,10.18S93.49,34.11,93.49,49s-3.9,28-10.18,34.31S63.89,93.49,49,93.49Z"/></g><g id="_128-2" data-name=" 128-2"><path class="cls-4" d="M80.74,80.74c-13,13-53.54,13-66.49,0s-13-53.54,0-66.49,53.54-13,66.49,0S93.72,67.75,80.74,80.74Z"/></g><path class="cls-5" d="M47.49,87.46c-13.73,0-25.64-3.39-31.11-8.85S7.52,61.22,7.52,47.49s3.39-25.64,8.85-31.11S33.76,7.52,47.49,7.52s25.64,3.39,31.11,8.85,8.85,17.38,8.85,31.11S84.06,73.12,78.6,78.59,61.22,87.46,47.49,87.46Z"/></g></g></g></g><g id="_96-2" data-name="96"><path class="cls-6" d="M23,47.48v-20A5.53,5.53,0,0,1,28.56,22H67.44A5.53,5.53,0,0,1,73,27.49v20C73,60.17,57.73,71,51.06,75.09a6.07,6.07,0,0,1-6.2.11C38.14,71.37,23,61.2,23,47.48Z"/><rect class="cls-7" x="44" y="30" width="8" height="20" rx="4"/><circle class="cls-8" cx="48" cy="58" r="4"/></g></g></svg>