<svg xmlns="http://www.w3.org/2000/svg" xmlns:xlink="http://www.w3.org/1999/xlink" viewBox="0 0 96 96"><defs><style>.cls-1{opacity:0.2;}.cls-2{opacity:0.08;}.cls-3{opacity:0.1;}.cls-4{fill:url(#未命名的渐变_88);}.cls-5{fill:url(#未命名的渐变_84);}.cls-6{opacity:0.2;}.cls-7{fill:#fff;}</style><linearGradient id="未命名的渐变_88" x1="47.49" y1="-51.48" x2="47.49" y2="-137.45" gradientTransform="translate(0 141.97)" gradientUnits="userSpaceOnUse"><stop offset="0" stop-color="#f75821"/><stop offset="1" stop-color="#ff8d73"/></linearGradient><linearGradient id="未命名的渐变_84" x1="47.49" y1="-54.51" x2="47.49" y2="-134.45" gradientTransform="translate(0 141.97)" gradientUnits="userSpaceOnUse"><stop offset="0" stop-color="#f14601"/><stop offset="1" stop-color="#fe7642"/></linearGradient></defs><title>奇安信可信浏览器-96</title><g id="底板_复制"><g id="搜狗色"><g id="_96" data-name="96"><g id="_128" data-name=" 128"><g class="cls-1"><path d="M47.49,92c-14.89,0-28-3.9-34.31-10.18S3,62.38,3,47.49s3.9-28,10.18-34.31S32.61,3,47.49,3s28,3.9,34.31,10.18S92,32.61,92,47.49s-3.9,28-10.18,34.31S62.38,92,47.49,92Z"/></g><g class="cls-2"><path d="M49,95c-15.27,0-28.83-4.07-35.38-10.62S3,64.27,3,49,7.07,20.17,13.62,13.62,33.73,3,49,3,77.83,7.07,84.38,13.62,95,33.73,95,49,90.93,77.83,84.38,84.38,64.27,95,49,95Z"/></g><g class="cls-3"><path d="M49,93.49c-14.89,0-28-3.9-34.31-10.18S4.51,63.89,4.51,49s3.9-28,10.18-34.31S34.11,4.51,49,4.51s28,3.9,34.31,10.18S93.49,34.11,93.49,49s-3.9,28-10.18,34.31S63.89,93.49,49,93.49Z"/></g><g id="_128-2" data-name=" 128-2"><path class="cls-4" d="M80.74,80.74c-13,13-53.54,13-66.49,0s-13-53.54,0-66.49,53.54-13,66.49,0S93.72,67.75,80.74,80.74Z"/></g><path class="cls-5" d="M47.49,87.46c-13.73,0-25.64-3.39-31.11-8.85S7.52,61.22,7.52,47.49s3.39-25.64,8.85-31.11S33.76,7.52,47.49,7.52s25.64,3.39,31.11,8.85,8.85,17.38,8.85,31.11S84.06,73.12,78.6,78.59,61.22,87.46,47.49,87.46Z"/></g></g></g></g><g id="图层_12" data-name="图层 12"><g id="_96-2" data-name="96"><path class="cls-6" d="M70,32s-2.78-8.36-3.34-8.36c-9.49,0-28.68,1.59-39.55,7.8-7.8,4.46-13.16,15.47-5,21.73,7.25,5.57,24,2.23,30.09,1.67,4.44-.4,7.8,1.67,6.13,4.46-2.07,3.44-8.36,5-17.83,6.13C36,65.92,26,65.4,26,65.4l3.35,8.91s24.51,1.11,36.21-5,15-16.16,10.58-21.18c-5-5.6-13.86-6.2-23.95-5-9.47,1.11-12.82,0-13.93-1.67-.69-1-1.67-5,5.57-6.69S65.52,32,70,32Z"/><path class="cls-7" d="M70,31s-2.78-8.36-3.34-8.36c-9.49,0-28.68,1.59-39.55,7.8-7.8,4.46-13.16,15.47-5,21.73,7.25,5.57,24,2.23,30.09,1.67,4.44-.4,7.8,1.67,6.13,4.46-2.07,3.44-8.36,5-17.83,6.13C36,64.92,26,64.4,26,64.4l3.35,8.91s24.51,1.11,36.21-5,15-16.16,10.58-21.18c-5-5.6-13.86-6.2-23.95-5-9.47,1.11-12.82,0-13.93-1.67-.69-1-1.67-5,5.57-6.69S65.52,31,70,31Z"/></g></g></svg>