<?xml version="1.0" encoding="utf-8"?>
<!-- Generator: Adobe Illustrator 24.0.0, SVG Export Plug-In . SVG Version: 6.00 Build 0)  -->
<svg version="1.1" id="图层_1" xmlns="http://www.w3.org/2000/svg" xmlns:xlink="http://www.w3.org/1999/xlink" x="0px" y="0px"
	 viewBox="0 0 96 96" style="enable-background:new 0 0 96 96;" xml:space="preserve">
<style type="text/css">
	.st0{opacity:0.2;}
	.st1{opacity:8.000000e-02;}
	.st2{opacity:0.1;}
	.st3{fill:url(#SVGID_1_);}
	.st4{fill:url(#SVGID_2_);}
	.st5{fill:#FFFFFF;}
	.st6{fill:none;stroke:#FFFFFF;stroke-width:4.5;stroke-miterlimit:10;}
</style>
<g id="_128">
	<g class="st0">
		<path d="M47.5,92c-14.9,0-28-3.9-34.3-10.2S3,62.4,3,47.5s3.9-28,10.2-34.3S32.6,3,47.5,3s28,3.9,34.3,10.2S92,32.6,92,47.5
			s-3.9,28-10.2,34.3S62.4,92,47.5,92z"/>
	</g>
	<g class="st1">
		<path d="M49,95c-15.3,0-28.8-4.1-35.4-10.6S3,64.3,3,49s4.1-28.8,10.6-35.4S33.7,3,49,3s28.8,4.1,35.4,10.6S95,33.7,95,49
			s-4.1,28.8-10.6,35.4S64.3,95,49,95z"/>
	</g>
	<g class="st2">
		<path d="M49,93.5c-14.9,0-28-3.9-34.3-10.2S4.5,63.9,4.5,49s3.9-28,10.2-34.3S34.1,4.5,49,4.5s28,3.9,34.3,10.2S93.5,34.1,93.5,49
			s-3.9,28-10.2,34.3S63.9,93.5,49,93.5z"/>
	</g>
	<g id="_128-2">
		
			<linearGradient id="SVGID_1_" gradientUnits="userSpaceOnUse" x1="47.4912" y1="149.48" x2="47.4912" y2="235.4513" gradientTransform="matrix(1 0 0 -1 0 239.97)">
			<stop  offset="0" style="stop-color:#67BB6A"/>
			<stop  offset="1" style="stop-color:#D5FFA4"/>
		</linearGradient>
		<path class="st3" d="M80.7,80.7c-13,13-53.5,13-66.5,0s-13-53.5,0-66.5s53.5-13,66.5,0S93.7,67.8,80.7,80.7z"/>
	</g>
	
		<linearGradient id="SVGID_2_" gradientUnits="userSpaceOnUse" x1="47.485" y1="152.51" x2="47.485" y2="232.45" gradientTransform="matrix(1 0 0 -1 0 239.97)">
		<stop  offset="0" style="stop-color:#4CAF50"/>
		<stop  offset="1" style="stop-color:#B2FF59"/>
	</linearGradient>
	<path class="st4" d="M47.5,87.5c-13.7,0-25.6-3.4-31.1-8.8S7.5,61.2,7.5,47.5s3.4-25.6,8.9-31.1s17.4-8.9,31.1-8.9
		s25.6,3.4,31.1,8.9s8.8,17.4,8.8,31.1s-3.4,25.6-8.9,31.1S61.2,87.5,47.5,87.5z"/>
</g>
<g id="系统监视">
	<g id="_96-2">
		<g>
			<g>
				<g class="st2">
					<rect x="20" y="83.5" class="st5" width="57" height="3"/>
					<rect x="9" y="71.5" class="st5" width="78" height="3"/>
					<rect x="6" y="58.5" class="st5" width="84" height="3"/>
					<rect x="6" y="46.5" class="st5" width="84" height="3"/>
					<rect x="6" y="34.5" class="st5" width="84" height="3"/>
					<rect x="9" y="22.5" class="st5" width="78" height="3"/>
					<rect x="17" y="10.5" class="st5" width="61" height="3"/>
				</g>
			</g>
		</g>
		<path class="st6" d="M84.2,49.4L81,53.9c-1.4,1.9-4.1,2.4-6.1,1c-0.6-0.4-1-0.9-1.3-1.5L69.2,45c-1.2-2.1-3.8-2.9-5.9-1.7
			c-0.7,0.4-1.3,1-1.7,1.7l-3.2,5.8c-1.1,2.1-3.8,2.9-5.9,1.7c-1.1-0.6-1.8-1.6-2.1-2.7l-3.5-13.3c-0.6-2.3-3-3.7-5.3-3.1
			c-1.6,0.4-2.8,1.7-3.1,3.3l-3.7,17c-0.5,2.3-2.8,3.8-5.2,3.3c-1.3-0.3-2.3-1.1-2.9-2.3l-1.6-3.2c-1.1-2.1-3.7-3-5.8-1.9
			c0,0,0,0,0,0H19c-0.1,0.1-0.3,0.2-0.4,0.2l-9,6"/>
	</g>
</g>
</svg>
