<svg id="图层_1" data-name="图层 1" xmlns="http://www.w3.org/2000/svg" xmlns:xlink="http://www.w3.org/1999/xlink" viewBox="0 0 96 96"><defs><style>.cls-1{opacity:0.2;}.cls-2{opacity:0.08;}.cls-3{opacity:0.1;}.cls-4{fill:url(#未命名的渐变);}.cls-5{fill:url(#未命名的渐变_2);}.cls-6{fill:#fff;opacity:0.5;isolation:isolate;}.cls-7{fill:url(#未命名的渐变_3);}</style><linearGradient id="未命名的渐变" x1="47.49" y1="4214.45" x2="47.49" y2="4128.5" gradientTransform="translate(0 -4123.97)" gradientUnits="userSpaceOnUse"><stop offset="0.01" stop-color="#6d7375"/><stop offset="1" stop-color="#bebec4"/></linearGradient><linearGradient id="未命名的渐变_2" x1="47.49" y1="4211.43" x2="47.49" y2="4131.49" gradientTransform="translate(0 -4123.97)" gradientUnits="userSpaceOnUse"><stop offset="0.01" stop-color="#797f82"/><stop offset="1" stop-color="#c9c9cf"/></linearGradient><linearGradient id="未命名的渐变_3" x1="47.5" y1="4859.97" x2="47.5" y2="4804.86" gradientTransform="translate(0 -4785.97)" gradientUnits="userSpaceOnUse"><stop offset="0" stop-color="#313c42"/><stop offset="1" stop-color="#161d21"/></linearGradient></defs><title>画板 1</title><g id="底板_复制" data-name="底板 复制"><g id="中灰色"><g id="_128" data-name=" 128"><g class="cls-1"><path d="M47.49,92c-14.89,0-28-3.9-34.31-10.18S3,62.38,3,47.49s3.9-28,10.18-34.31S32.61,3,47.49,3s28,3.9,34.31,10.18S92,32.61,92,47.49s-3.9,28-10.18,34.31S62.38,92,47.49,92Z"/></g><g class="cls-2"><path d="M49,95c-15.27,0-28.83-4.07-35.38-10.62S3,64.27,3,49,7.07,20.17,13.62,13.62,33.73,3,49,3,77.83,7.07,84.38,13.62,95,33.73,95,49,90.93,77.83,84.38,84.38,64.27,95,49,95Z"/></g><g class="cls-3"><path d="M49,93.49c-14.89,0-28-3.9-34.31-10.18S4.51,63.89,4.51,49s3.9-28,10.18-34.31S34.11,4.51,49,4.51s28,3.9,34.31,10.18S93.49,34.11,93.49,49s-3.9,28-10.18,34.31S63.89,93.49,49,93.49Z"/></g><g id="_128-2" data-name=" 128-2"><path class="cls-4" d="M80.74,80.74c-13,13-53.54,13-66.49,0s-13-53.54,0-66.49,53.54-13,66.49,0S93.72,67.75,80.74,80.74Z"/></g><path class="cls-5" d="M47.49,87.46c-13.73,0-25.64-3.39-31.11-8.85S7.52,61.22,7.52,47.49s3.39-25.64,8.85-31.11S33.76,7.52,47.49,7.52s25.64,3.39,31.11,8.85,8.85,17.38,8.85,31.11-3.39,25.64-8.85,31.11S61.22,87.46,47.49,87.46Z"/></g></g></g><g id="_130" data-name=" 130"><g id="_128-3" data-name=" 128-3"><g id="_128-3-2" data-name=" 128-3-2"><path class="cls-6" d="M77,51.52V45.23l-.88-.29-6.7-2.19-1.8-4.32,3.46-7.32-4.43-4.44-.83.42-6.28,3.26-4.32-1.79L52.5,21H46.24l-.29.88L43.76,28.6l-4.32,1.75-7.31-3.46-4.42,4.44.42.83,3.25,6.3L29.6,42.78,22,45.48v6.28l.88.29,6.7,2.19,1.8,4.34-3.46,7.32,4.42,4.44.83-.42,6.29-3.26,4.32,1.79L46.5,76h6.26l.29-.88,2.19-6.71,4.32-1.75,7.31,3.46,4.43-4.44-.42-.83-3.25-6.29,1.79-4.32ZM49.5,57.28a8.78,8.78,0,1,1,8.76-8.78,8.77,8.77,0,0,1-8.76,8.78Z"/><path class="cls-7" d="M75,49.52V43.23l-.88-.29-6.7-2.19-1.8-4.32,3.46-7.32-4.43-4.44-.83.42-6.28,3.26-4.32-1.79L50.5,19H44.24l-.29.88L41.76,26.6l-4.32,1.75-7.31-3.46-4.42,4.44.42.83,3.25,6.3L27.6,40.78,20,43.48v6.28l.88.29,6.7,2.19,1.8,4.34-3.46,7.32,4.42,4.44.83-.42,6.29-3.26,4.32,1.79L44.5,74h6.26l.29-.88,2.19-6.71,4.32-1.75,7.31,3.46,4.43-4.44-.42-.83-3.25-6.29,1.79-4.32ZM47.5,55.28a8.78,8.78,0,1,1,8.76-8.78,8.77,8.77,0,0,1-8.76,8.78Z"/></g></g></g></svg>