<svg xmlns="http://www.w3.org/2000/svg" xmlns:xlink="http://www.w3.org/1999/xlink" viewBox="0 0 96 96"><defs><style>.cls-1{opacity:0.2;}.cls-2{opacity:0.08;}.cls-3{opacity:0.1;}.cls-4{fill:url(#未命名的渐变_46);}.cls-5{fill:url(#未命名的渐变_279);}.cls-6{fill:#fff;}</style><linearGradient id="未命名的渐变_46" x1="47.49" y1="-51.48" x2="47.49" y2="-137.45" gradientTransform="translate(0 141.97)" gradientUnits="userSpaceOnUse"><stop offset="0" stop-color="#b71c1c"/><stop offset="1" stop-color="#ff7575"/></linearGradient><linearGradient id="未命名的渐变_279" x1="47.49" y1="-134.45" x2="47.49" y2="-54.51" gradientTransform="translate(0 141.97)" gradientUnits="userSpaceOnUse"><stop offset="0" stop-color="#dc4d3c"/><stop offset="1" stop-color="#cb3c3c"/></linearGradient></defs><g id="图层_12" data-name="图层 12"><g id="wps-office2019-pdfmian"><g id="_96" data-name="96"><g id="浅灰色"><g id="_128" data-name=" 128"><g class="cls-1"><path d="M47.49,92c-14.89,0-28-3.9-34.31-10.18S3,62.38,3,47.49s3.9-28,10.18-34.31S32.61,3,47.49,3s28,3.9,34.31,10.18S92,32.61,92,47.49s-3.9,28-10.18,34.31S62.38,92,47.49,92Z"/></g><g class="cls-2"><path d="M49,95c-15.27,0-28.83-4.07-35.38-10.62S3,64.27,3,49,7.07,20.17,13.62,13.62,33.73,3,49,3,77.83,7.07,84.38,13.62,95,33.73,95,49,90.93,77.83,84.38,84.38,64.27,95,49,95Z"/></g><g class="cls-3"><path d="M49,93.49c-14.89,0-28-3.9-34.31-10.18S4.51,63.89,4.51,49s3.9-28,10.18-34.31S34.11,4.51,49,4.51s28,3.9,34.31,10.18S93.49,34.11,93.49,49s-3.9,28-10.18,34.31S63.89,93.49,49,93.49Z"/></g><g id="_128-2" data-name=" 128-2"><path class="cls-4" d="M80.74,80.74c-13,13-53.54,13-66.49,0s-13-53.54,0-66.49,53.54-13,66.49,0S93.72,67.75,80.74,80.74Z"/></g><path class="cls-5" d="M47.49,87.46c-13.73,0-25.64-3.39-31.11-8.85S7.52,61.22,7.52,47.49s3.39-25.64,8.85-31.11S33.76,7.52,47.49,7.52s25.64,3.39,31.11,8.85,8.85,17.38,8.85,31.11S84.06,73.12,78.6,78.59,61.22,87.46,47.49,87.46Z"/></g></g><path class="cls-6" d="M54.5,19h-15A1.5,1.5,0,0,0,38,20.5V47a1,1,0,0,0,1,1h4a1,1,0,0,0,1-1V25H54.11A13.75,13.75,0,0,1,68,37.82,13.51,13.51,0,0,1,54.5,52H38v6H54.5A19.5,19.5,0,0,0,74,38.5h0A19.5,19.5,0,0,0,54.5,19Z"/><path class="cls-6" d="M39,63v8H33.73a6.65,6.65,0,0,1-6.67-5.64A6.5,6.5,0,0,1,33.5,58H45V52H33.91A12.77,12.77,0,0,0,21,64.27,12.5,12.5,0,0,0,33.5,77h10A1.5,1.5,0,0,0,45,75.5V63a1,1,0,0,0-1-1H40A1,1,0,0,0,39,63Z"/></g></g></g></svg>