<svg xmlns="http://www.w3.org/2000/svg" xmlns:xlink="http://www.w3.org/1999/xlink" viewBox="0 0 96 96"><defs><style>.cls-1{opacity:0.2;}.cls-2{opacity:0.08;}.cls-3{opacity:0.1;}.cls-4{fill:url(#未命名的渐变_13);}.cls-5{fill:url(#未命名的渐变_11);}.cls-6{fill:url(#未命名的渐变_29);}.cls-7{fill:none;stroke:#fff;stroke-linecap:round;stroke-miterlimit:10;stroke-width:3px;}.cls-8{fill:url(#未命名的渐变_38);}</style><linearGradient id="未命名的渐变_13" x1="47.49" y1="-51.48" x2="47.49" y2="-137.45" gradientTransform="translate(0 141.97)" gradientUnits="userSpaceOnUse"><stop offset="0" stop-color="#dae1e4"/><stop offset="1" stop-color="#f3f4fa"/></linearGradient><linearGradient id="未命名的渐变_11" x1="47.49" y1="-54.51" x2="47.49" y2="-134.45" gradientTransform="translate(0 141.97)" gradientUnits="userSpaceOnUse"><stop offset="0" stop-color="#cfd8dc"/><stop offset="1" stop-color="#ebecf2"/></linearGradient><linearGradient id="未命名的渐变_29" x1="58.17" y1="58.17" x2="34.83" y2="34.83" gradientUnits="userSpaceOnUse"><stop offset="0" stop-color="#2272e5"/><stop offset="1" stop-color="#8cd2fc"/></linearGradient><linearGradient id="未命名的渐变_38" x1="20" y1="47.89" x2="75.78" y2="47.89" gradientUnits="userSpaceOnUse"><stop offset="0" stop-color="#4793fd"/><stop offset="1" stop-color="#4793fd"/></linearGradient></defs><g id="图层_12" data-name="图层 12"><g id="wps-office-officeassistant"><g id="_96" data-name="96"><g id="浅灰色"><g id="_128" data-name=" 128"><g class="cls-1"><path d="M47.49,92c-14.89,0-28-3.9-34.31-10.18S3,62.38,3,47.49s3.9-28,10.18-34.31S32.61,3,47.49,3s28,3.9,34.31,10.18S92,32.61,92,47.49s-3.9,28-10.18,34.31S62.38,92,47.49,92Z"/></g><g class="cls-2"><path d="M49,95c-15.27,0-28.83-4.07-35.38-10.62S3,64.27,3,49,7.07,20.17,13.62,13.62,33.73,3,49,3,77.83,7.07,84.38,13.62,95,33.73,95,49,90.93,77.83,84.38,84.38,64.27,95,49,95Z"/></g><g class="cls-3"><path d="M49,93.49c-14.89,0-28-3.9-34.31-10.18S4.51,63.89,4.51,49s3.9-28,10.18-34.31S34.11,4.51,49,4.51s28,3.9,34.31,10.18S93.49,34.11,93.49,49s-3.9,28-10.18,34.31S63.89,93.49,49,93.49Z"/></g><g id="_128-2" data-name=" 128-2"><path class="cls-4" d="M80.74,80.74c-13,13-53.54,13-66.49,0s-13-53.54,0-66.49,53.54-13,66.49,0S93.72,67.75,80.74,80.74Z"/></g><path class="cls-5" d="M47.49,87.46c-13.73,0-25.64-3.39-31.11-8.85S7.52,61.22,7.52,47.49s3.39-25.64,8.85-31.11S33.76,7.52,47.49,7.52s25.64,3.39,31.11,8.85,8.85,17.38,8.85,31.11S84.06,73.12,78.6,78.59,61.22,87.46,47.49,87.46Z"/></g></g><g id="_96-2" data-name="96"><circle class="cls-6" cx="46.5" cy="46.5" r="16.5"/><path class="cls-7" d="M37.33,44A9.52,9.52,0,0,1,45,37.12"/><path class="cls-8" d="M46.5,25A21.52,21.52,0,0,1,68,46.5a21.25,21.25,0,0,1-2.5,10.07l-1.74,3.26,2.62,2.62L70,66A2.77,2.77,0,1,1,66,70l-3.59-3.58-2.62-2.62L56.57,65.5A21.25,21.25,0,0,1,46.5,68a21.5,21.5,0,0,1,0-43m0-5A26.5,26.5,0,1,0,58.91,69.91L62.5,73.5a7.78,7.78,0,0,0,11-11l-3.59-3.59A26.49,26.49,0,0,0,46.5,20Z"/></g></g></g></g></svg>