<?xml version="1.0" encoding="utf-8"?>
<!-- Generator: Adobe Illustrator 24.0.0, SVG Export Plug-In . SVG Version: 6.00 Build 0)  -->
<svg version="1.1" id="图层_1" xmlns="http://www.w3.org/2000/svg" xmlns:xlink="http://www.w3.org/1999/xlink" x="0px" y="0px"
	 viewBox="0 0 96 96" style="enable-background:new 0 0 96 96;" xml:space="preserve">
<style type="text/css">
	.st0{opacity:0.2;}
	.st1{opacity:8.000000e-02;}
	.st2{opacity:0.1;}
	.st3{fill:url(#SVGID_1_);}
	.st4{fill:#EFAE67;}
	.st5{fill:url(#SVGID_2_);}
	.st6{fill:#E39539;}
	.st7{opacity:0.1;enable-background:new    ;}
	.st8{fill:#FDE3AA;}
	.st9{opacity:5.000000e-02;enable-background:new    ;}
	.st10{fill:#FFFFFF;}
	.st11{fill:url(#SVGID_3_);}
	.st12{opacity:0.25;fill:#FDEFBA;enable-background:new    ;}
	.st13{opacity:0.2;enable-background:new    ;}
	.st14{fill:#9E9E9E;}
	.st15{fill:#2DAF00;}
	.st16{fill:#42CB12;}
</style>
<g id="_96-2_1_">
	<g class="st0">
		<path d="M47.5,92c-14.9,0-28-3.9-34.3-10.2S3,62.4,3,47.5s3.9-28,10.2-34.3S32.6,3,47.5,3s28,3.9,34.3,10.2S92,32.6,92,47.5
			s-3.9,28-10.2,34.3S62.4,92,47.5,92z"/>
	</g>
	<g class="st1">
		<path d="M49,95c-15.3,0-28.8-4.1-35.4-10.6S3,64.3,3,49s4.1-28.8,10.6-35.4S33.7,3,49,3s28.8,4.1,35.4,10.6S95,33.7,95,49
			s-4.1,28.8-10.6,35.4S64.3,95,49,95z"/>
	</g>
	<g class="st2">
		<path d="M49,93.5c-14.9,0-28-3.9-34.3-10.2S4.5,63.9,4.5,49s3.9-28,10.2-34.3S34.1,4.5,49,4.5s28,3.9,34.3,10.2S93.5,34.1,93.5,49
			s-3.9,28-10.2,34.3S63.9,93.5,49,93.5z"/>
	</g>
	<g id="_128-2">
		
			<linearGradient id="SVGID_1_" gradientUnits="userSpaceOnUse" x1="47.4912" y1="149.48" x2="47.4912" y2="235.4513" gradientTransform="matrix(1 0 0 -1 0 239.97)">
			<stop  offset="1.000000e-02" style="stop-color:#6D7375"/>
			<stop  offset="1" style="stop-color:#BEBEC4"/>
		</linearGradient>
		<path class="st3" d="M80.7,80.7c-13,13-53.5,13-66.5,0s-13-53.5,0-66.5s53.5-13,66.5,0S93.7,67.8,80.7,80.7z"/>
	</g>
</g>
<g id="麒麟备份还原">
	<g id="_96-2">
		<g>
			<path class="st4" d="M80.7,80.7c-13,13-53.5,13-66.5,0s-13-53.5,0-66.5s53.5-13,66.5,0S93.7,67.8,80.7,80.7z"/>
			<linearGradient id="SVGID_2_" gradientUnits="userSpaceOnUse" x1="4.5551" y1="70.145" x2="90.4295" y2="70.145">
				<stop  offset="1.000000e-02" style="stop-color:#FFF176"/>
				<stop  offset="1" style="stop-color:#FBC02D"/>
			</linearGradient>
			<path class="st5" d="M14.3,80.7c13,13,53.5,13,66.5,0c6.1-6.1,9.3-18.4,9.7-30.9H4.6C4.9,62.4,8.2,74.6,14.3,80.7z"/>
		</g>
		<g>
			<path class="st6" d="M47.5,87.5c-13.7,0-25.6-3.4-31.1-8.8S7.5,61.2,7.5,47.5s3.4-25.6,8.9-31.1s17.4-8.9,31.1-8.9
				s25.6,3.4,31.1,8.9s8.8,17.4,8.8,31.1s-3.4,25.6-8.9,31.1S61.2,87.5,47.5,87.5z"/>
			<path class="st7" d="M77.8,62.5l8.4-0.7c0.9-4.4,1.3-9.2,1.3-14.3c0-4.9-0.4-9.6-1.3-13.8L77.8,25V62.5z"/>
			<polygon class="st8" points="71.5,15 71.5,15 71.5,15 22.1,15 22.1,53.5 78.1,53.5 78.1,21.6 			"/>
			<polygon class="st9" points="68.6,18 68.6,18 68.6,18 22.1,18 22.1,56.5 75.1,56.5 75.1,24.6 			"/>
			<polygon class="st10" points="66.7,21 66.6,21 66.6,21 18.1,21 18.1,59.5 73.1,59.5 73.1,27.6 			"/>
			<path class="st9" d="M14.1,82c2.6,2.6,6.3,4.7,10.7,6.3h46.6c4.4-1.6,8.1-3.7,10.7-6.3c5.8-5.8,9-16.9,9.8-28.6v-3.6H4.1
				C4.3,62.9,7.6,75.6,14.1,82z"/>
			<linearGradient id="SVGID_3_" gradientUnits="userSpaceOnUse" x1="47.49" y1="49.8" x2="47.49" y2="87.46">
				<stop  offset="0" style="stop-color:#FADD60"/>
				<stop  offset="0.99" style="stop-color:#F5A816"/>
			</linearGradient>
			<path class="st11" d="M87.4,49.8H7.6c0.4,12.7,3.7,23.7,8.8,28.8c5.5,5.5,17.4,8.9,31.1,8.9s25.7-3.4,31.1-8.9
				C83.8,73.4,87.1,62.5,87.4,49.8z"/>
			<path class="st12" d="M7.9,55h79.2c0.2-1.7,0.3-3.4,0.3-5.2H7.6C7.6,51.6,7.7,53.3,7.9,55z"/>
			<path id="path3759" class="st13" d="M73.1,34.1v-6.6h-6.5L73.1,34.1z"/>
			<rect x="22.1" y="26" class="st14" width="15" height="15"/>
			<rect x="41.1" y="26" class="st14" width="22" height="3"/>
			<rect x="41.6" y="33.7" class="st14" width="22.7" height="3.3"/>
		</g>
		<g id="图层_3">
			<path class="st13" d="M83.9,59.1H79c0-13.8-11.2-25-25-25s-25,11.2-25,25s11.2,25,25,25V73.7c-8.1,0-14.6-6.6-14.6-14.6
				C39.4,51,46,44.5,54,44.5c8.1,0,14.6,6.6,14.6,14.6l0,0h-4.9l10.1,12.7l0,0L83.9,59.1z"/>
			<path class="st15" d="M53.9,36c-12.5,0.3-22.6,9.4-22.6,23.6c0.3,12.1,10.5,22.5,22.6,22.2v-5.9c-9.2,0-16.7-7.5-16.7-16.7
				s7.5-16.7,16.7-16.7S70.6,50,70.6,59.2h5.9C76.6,45.8,66.5,36,53.9,36z"/>
			<path class="st16" d="M31.3,59.1C31,46.6,41,36.2,53.5,36c12.5-0.3,22.9,9.7,23.1,22.2c0,0.3,0,0.6,0,1h5.9
				c0-15.8-12.8-28.6-28.6-28.6S25.4,43.3,25.4,59.1S38.2,87.7,54,87.7l0,0v-5.9C41.4,81.7,31.3,71.6,31.3,59.1z"/>
			<polygon class="st16" points="88.1,59.1 76.6,59.1 76.6,73.7 76.6,73.7 			"/>
			<polygon class="st15" points="65.1,59.1 76.6,73.7 76.6,59.1 			"/>
		</g>
	</g>
</g>
</svg>
