<?xml version="1.0" encoding="iso-8859-1"?>
<!-- Generator: Adobe Illustrator 21.0.0, SVG Export Plug-In . SVG Version: 6.00 Build 0)  -->
<svg version="1.1" id="&#x5176;&#x4ED6;" xmlns="http://www.w3.org/2000/svg" xmlns:xlink="http://www.w3.org/1999/xlink" x="0px"
	 y="0px" viewBox="0 0 256 256" style="enable-background:new 0 0 256 256;" xml:space="preserve">
<title>画板 18</title>
<g id="&#x5783;&#x573E;&#x6876;-&#x6EE1;">
	<g id="_256">
		<path style="opacity:0.1;fill:#040000;enable-background:new    ;" d="M40,255.3l-0.6-1c-0.2-0.4-24-39.6-24-89.9
			c0-50,20.4-97.2,20.6-97.7l0.5-1.2h8.1l0.9-0.5l2-7.9l-30.1-4.8l5.4-33.6l64.4,10.4l3.6-22.4l95.1,15.4l-3.6,22.4l64.4,10.4
			l-5.4,33.6l-19.2-3.1c5.5,16.8,13.6,46.8,13.6,79c0,46.1-19.5,82.2-23.4,89c-0.201,0.28-0.368,0.582-0.5,0.9l-0.6,1L40,255.3
			L40,255.3z M160.25,40.9l0.9-5.6L110,27l-0.9,5.6L160.25,40.9z"/>
		<path style="opacity:0.2;fill:#040000;enable-background:new    ;" d="M38,253.3l-0.6-1c-0.2-0.4-24-39.6-24-89.9
			c0-50,20.4-97.2,20.6-97.7l0.5-1.2h8.1l0.9-0.5l2-7.9l-30.1-4.8l5.4-33.6l64.4,10.4l3.6-22.4l95.1,15.4l-3.6,22.4l64.4,10.4
			l-5.4,33.6l-19.2-3.1c5.5,16.8,13.6,46.8,13.6,79c0,46.1-19.5,82.2-23.4,89c-0.201,0.28-0.368,0.582-0.5,0.9l-0.6,1L38,253.3
			L38,253.3z M158.25,38.9l0.9-5.6L108,25l-0.9,5.6L158.25,38.9z"/>
		<path style="fill:#606061;" d="M178,44.1l3.6-22.4L90.45,7l-3.6,22.4l-64.5-10.5l-4.8,29.7L48,53.5l-2.7,10.8l-2.1,1.2h-7.3
			c0,0-20.5,46.8-20.5,96.9c0,50.3,23.7,88.9,23.7,88.9h168.8c0.183-0.291,0.35-0.591,0.5-0.9c3.5-6,23.2-42.1,23.2-88
			c0-33.4-8.6-64.3-14.5-81.5l20.5,3.3l4.8-29.7L178,44.1z M161.5,31.7l-1.5,9.5l-55.1-8.9l1.5-9.5L161.5,31.7z"/>
		<polygon style="fill:#9E9E9E;" points="161.25,69.7 85.35,33.6 54.25,50.1 56.35,69.9 65.85,80 113.55,74.9 		"/>
		<polygon style="fill:#E0E0E0;" points="95.55,54.2 89.85,57.3 86.15,68.6 78.25,62.8 76.15,55.3 76.65,51.4 86.05,52.8 		"/>
		<polygon style="fill:#E0E0E0;" points="114.95,57.9 114.45,57.8 113.95,61.8 115.25,67.6 115.25,67.6 115.65,67.9 124.05,59.2 		
			"/>
		<polygon style="fill:#E0E0E0;" points="133.65,67.9 133.25,68 134.55,66.3 137.65,63.6 137.65,63.6 137.95,63.5 139.55,66.8 		"/>
		<polygon style="fill:#E0E0E0;" points="92.65,67.5 91.65,67.4 95.95,62 105.95,54.6 105.95,54.6 107.05,54.5 111.55,68.5 		"/>
		<polygon style="fill:#E0E0E0;" points="40.65,69.3 46.95,65.7 49.55,55.3 59.95,59.1 63.85,65.2 63.85,68.6 52.25,69 		"/>
		<polygon style="fill:#9E9E9E;" points="52.25,69 52.95,68.9 52.75,63.4 50.15,55.5 50.15,55.5 49.55,55.3 46.95,65.7 40.65,69.3 
					"/>
		<polygon style="fill:#E0E0E0;" points="76.85,58.1 74.25,60.2 71.75,59.8 69.85,62.6 69.15,66.3 68.45,69.2 70.05,67.7 
			73.55,64.3 77.35,61.7 		"/>
		<path style="fill:#E0E0E0;" d="M56.05,48.6l2.2,4.5c0,0,0,1.5,2.1,1.9s13.6,0.8,13.6,0.8l2.5-4.8L56.05,48.6z"/>
		
			<linearGradient id="SVGID_1_" gradientUnits="userSpaceOnUse" x1="-4387.4497" y1="655.38" x2="-4175.25" y2="655.38" gradientTransform="matrix(1 0 0 1 4404.7998 -496.98)">
			<stop  offset="0.05" style="stop-color:#CED7DB"/>
			<stop  offset="0.1" style="stop-color:#C4CDD2"/>
			<stop  offset="0.27" style="stop-color:#A7B5BC"/>
			<stop  offset="0.41" style="stop-color:#94A6B0"/>
			<stop  offset="0.51" style="stop-color:#8DA1AB"/>
			<stop  offset="1" style="stop-color:#CED7DB"/>
		</linearGradient>
		<path style="fill:url(#SVGID_1_);" d="M209.75,67.5H37.15c0,0-19.8,44.6-19.8,94.9s22.8,86.9,22.8,86.9h166.6
			c0,0,22.8-36.6,22.8-86.9S209.75,67.5,209.75,67.5z"/>
		<path style="opacity:0.3;fill:#5E7B88;enable-background:new    ;" d="M33.65,76.5h179.7c-2-5.3-3.3-8.5-3.5-9H37.15
			C37,68,35.55,71.2,33.65,76.5z"/>
		<path style="opacity:0.45;fill:#5E7B88;enable-background:new    ;" d="M130.15,67.5l85.9,16.7c-1.4-4-2.6-7.3-3.6-9.9L147,67.4
			L130.15,67.5z"/>
		<polygon style="opacity:0.33;fill:#263137;enable-background:new    ;" points="54.95,53.1 129.75,67.5 146.95,67.5 54.85,52.6 		
			"/>
		
			<rect x="116.893" y="-57.836" transform="matrix(0.1599 -0.9871 0.9871 0.1599 58.2776 171.5829)" style="fill:#5E7B88;" width="26.1" height="218.78"/>
		
			<linearGradient id="SVGID_2_" gradientUnits="userSpaceOnUse" x1="-4254.4556" y1="229.3538" x2="-4035.5857" y2="229.3538" gradientTransform="matrix(0.99 0.16 -0.16 0.99 4258.5303 484.83)">
			<stop  offset="0.05" style="stop-color:#5E7B88"/>
			<stop  offset="0.25" style="stop-color:#5E7B88"/>
			<stop  offset="0.51" style="stop-color:#445962"/>
			<stop  offset="0.74" style="stop-color:#5E7B88"/>
			<stop  offset="1" style="stop-color:#5E7B88"/>
		</linearGradient>
		<polygon style="opacity:0.65;fill:url(#SVGID_2_);enable-background:new    ;" points="236.15,80 20.15,45 24.05,21.2 
			240.05,56.2 		"/>
		<polygon style="fill:#5E7B88;" points="92.05,9.3 88.45,31.6 102.55,33.9 104.95,18.8 164.05,28.3 161.55,43.5 175.65,45.8 
			179.25,23.4 		"/>
		
			<linearGradient id="SVGID_3_" gradientUnits="userSpaceOnUse" x1="-4189.1855" y1="206.067" x2="-4100.8154" y2="206.067" gradientTransform="matrix(0.99 0.16 -0.16 0.99 4258.5303 484.83)">
			<stop  offset="0.05" style="stop-color:#445962"/>
			<stop  offset="0.13" style="stop-color:#4D646E"/>
			<stop  offset="0.29" style="stop-color:#5A7581"/>
			<stop  offset="0.4" style="stop-color:#5E7B88"/>
			<stop  offset="0.61" style="stop-color:#5E7B88"/>
			<stop  offset="1" style="stop-color:#445962"/>
		</linearGradient>
		<polygon style="fill:url(#SVGID_3_);" points="92.05,9.3 88.45,31.6 102.55,33.9 104.95,18.8 164.05,28.3 161.55,43.5 
			175.65,45.8 179.25,23.4 		"/>
		
			<rect x="133.292" y="-5.651" transform="matrix(0.1599 -0.9871 0.9871 0.1599 88.9303 152.9816)" style="fill:#445962;" width="2.1" height="59.79"/>
		
			<rect x="127.034" y="-45.89" transform="matrix(0.1599 -0.9871 0.9871 0.1599 44.8814 179.7345)" style="fill:#445962;" width="2" height="218.78"/>
		<path style="fill:#5E7B88;" d="M67.65,235.3h-16.8c0,0-15-35.1-15-76.8s15-66.8,15-66.8h16.8c0,0-15,18.3-15,66.8
			S67.65,235.3,67.65,235.3z"/>
		<path style="fill:#CED7DB;" d="M50.15,233.6c0.204,0.578,0.437,1.146,0.7,1.7h16.8c0,0-0.3-0.6-0.8-1.7H50.15z"/>
		<path style="fill:#536B75;" d="M65.45,95c0.645-1.188,1.381-2.325,2.2-3.4h-16.8c0,0-0.7,1.2-1.8,3.4H65.45z"/>
		<path style="fill:#5E7B88;" d="M109.75,235.3h-16.9c-7.128-24.984-10.828-50.82-11-76.8c0-41.7,11-66.8,11-66.8h16.8
			c0,0-11,18.3-11,66.8S109.75,235.3,109.75,235.3z"/>
		<path style="fill:#CED7DB;" d="M92.35,233.6c0.3,1.1,0.5,1.7,0.5,1.7h16.8c0,0-0.2-0.6-0.6-1.7H92.35z"/>
		<path style="fill:#536B75;" d="M108.15,95c1-2.3,1.6-3.4,1.6-3.4h-16.9c0,0-0.5,1.2-1.3,3.4H108.15z"/>
		<path style="fill:#5E7B88;" d="M179.25,235.3h16.8c0,0,15-35.1,15-76.8s-15-66.8-15-66.8h-16.8c0,0,15,18.3,15,66.8
			S179.25,235.3,179.25,235.3z"/>
		<path style="fill:#CED7DB;" d="M196.75,233.6c-0.203,0.579-0.437,1.146-0.7,1.7h-16.8c0,0,0.3-0.6,0.8-1.7H196.75z"/>
		<path style="fill:#536B75;" d="M181.45,95c-0.646-1.188-1.381-2.324-2.2-3.4h16.8c0,0,0.7,1.2,1.8,3.4H181.45z"/>
		<path style="fill:#5E7B88;" d="M137.25,235.3h16.8c7.128-24.984,10.828-50.82,11-76.8c0-41.7-11-66.8-11-66.8h-16.8
			c0,0,11,18.3,11,66.8S137.25,235.3,137.25,235.3z"/>
		<path style="fill:#CED7DB;" d="M154.55,233.6c-0.3,1.1-0.5,1.7-0.5,1.7h-16.8c0,0,0.2-0.6,0.6-1.7H154.55z"/>
		<path style="fill:#536B75;" d="M138.85,95c-1-2.3-1.6-3.4-1.6-3.4h16.8c0,0,0.5,1.2,1.3,3.4H138.85z"/>
	</g>
</g>
</svg>
