<?xml version="1.0" encoding="utf-8"?>
<!-- Generator: Adobe Illustrator 21.0.0, SVG Export Plug-In . SVG Version: 6.00 Build 0)  -->
<svg version="1.1" id="图层_1" xmlns="http://www.w3.org/2000/svg" xmlns:xlink="http://www.w3.org/1999/xlink" x="0px" y="0px"
	 viewBox="0 0 32 32" style="enable-background:new 0 0 32 32;" xml:space="preserve">
<title>32</title>
<g id="底板_复制">
	<g id="浅灰色">
		<g id="_32">
			<g style="opacity:0.2;">
				<path d="M16,30.5c-4.9,0-9.1-1.3-11.2-3.3S1.5,20.9,1.5,16S2.8,6.9,4.8,4.8S11.1,1.5,16,1.5s9.1,1.3,11.2,3.3s3.3,6.3,3.3,11.2
					s-1.3,9.1-3.3,11.2S20.9,30.5,16,30.5z"/>
			</g>
			<g style="opacity:8.000000e-02;">
				<path d="M16.5,31.5c-5,0-9.4-1.3-11.5-3.5s-3.5-6.6-3.5-11.5S2.8,7.1,5,5s6.5-3.5,11.5-3.5S25.9,2.8,28,5s3.5,6.5,3.5,11.5
					S30.2,25.9,28,28S21.5,31.5,16.5,31.5z"/>
			</g>
			<g style="opacity:0.1;">
				<path d="M16.5,31c-4.9,0-9.1-1.3-11.2-3.3S2,21.4,2,16.5S3.3,7.4,5.3,5.3S11.6,2,16.5,2s9.1,1.3,11.2,3.3S31,11.6,31,16.5
					s-1.3,9.1-3.3,11.2S21.4,31,16.5,31z"/>
			</g>
			<g id="_32-2">
				
					<linearGradient id="SVGID_1_" gradientUnits="userSpaceOnUse" x1="16" y1="788.0025" x2="16" y2="759.9975" gradientTransform="matrix(1 0 0 1 0 -758)">
					<stop  offset="0" style="stop-color:#CFD8DC"/>
					<stop  offset="1" style="stop-color:#EBECF2"/>
				</linearGradient>
				<path style="fill:url(#SVGID_1_);" d="M26.8,26.8C22.6,31,9.4,31,5.1,26.8S0.9,9.4,5.2,5.2s17.4-4.2,21.7,0S31.1,22.6,26.8,26.8
					z"/>
			</g>
		</g>
	</g>
</g>
<g id="定时关机">
	<g id="_32-3">
		
			<linearGradient id="SVGID_2_" gradientUnits="userSpaceOnUse" x1="5.9918" y1="774.7625" x2="25.9918" y2="774.7625" gradientTransform="matrix(1 0 0 1 0 -758)">
			<stop  offset="0" style="stop-color:#FFFFFF"/>
			<stop  offset="1" style="stop-color:#ECEFF1"/>
		</linearGradient>
		<path style="fill:url(#SVGID_2_);" d="M25.1,8.1c-1.3-1.2-3.3-1.2-4.5,0c-0.2,0.2-0.2,0.6,0,0.8l0,0l1.3,1.3l-0.6,0.7
			C18,8.5,13.7,8.6,10.6,11L10,10.4l1.5-1.5c0.2-0.2,0.2-0.6,0-0.8l0,0c-1.3-1.3-3.3-1.3-4.5,0s-1.3,3.3,0,4.5
			c0.2,0.2,0.6,0.2,0.8,0l0,0l1.4-1.4l0.6,0.6C6.7,15,6.5,20.1,9.5,23.4l-2,2c-0.2,0.2-0.2,0.6,0,0.8c0.1,0.1,0.3,0.2,0.4,0.2
			c0.2,0,0.3-0.1,0.4-0.2l2-2c3.3,2.8,8.1,2.8,11.4,0l2,2c0.1,0.1,0.3,0.2,0.4,0.2c0.2,0,0.3-0.1,0.4-0.2c0.2-0.2,0.2-0.6,0-0.8l0,0
			l-2-2c3-3.4,2.8-8.6-0.4-11.8l0,0l0.6-0.6l1.6,1.6c0.2,0.2,0.6,0.2,0.8,0l0,0C26.3,11.4,26.3,9.4,25.1,8.1z"/>
		<path style="fill:#0D47A1;" d="M23.4,7.5c0.3,0,0.6,0.2,0.6,0.6c0,0.2,0,0.3-0.2,0.4l-2.1,2.3c-0.2,0.2-0.6,0.3-0.8,0
			c-0.2-0.2-0.3-0.6,0-0.8L23,7.7C23.1,7.6,23.3,7.5,23.4,7.5L23.4,7.5z"/>
		<path style="fill:#0D47A1;" d="M8.2,7.8c0.2,0,0.3,0.1,0.4,0.2l2.3,2.1c0.2,0.2,0.3,0.6,0,0.8s-0.6,0.3-0.8,0l-2.3-2
			C7.6,8.7,7.6,8.3,7.8,8l0,0C7.9,7.9,8.1,7.8,8.2,7.8L8.2,7.8z"/>
		<path style="fill:#0D47A1;" d="M8,25.3c-0.3,0-0.6-0.3-0.6-0.6c0-0.2,0.1-0.3,0.2-0.4L9.8,22c0.2-0.2,0.6-0.2,0.8,0s0.2,0.6,0,0.8
			L8.4,25C8.3,25.2,8.1,25.3,8,25.3L8,25.3z"/>
		<path style="fill:#0D47A1;" d="M24,25.3c-0.2,0-0.3-0.1-0.4-0.2l-2.2-2.2c-0.2-0.2-0.2-0.6,0-0.8s0.6-0.2,0.8,0l2.2,2.2
			c0.2,0.2,0.2,0.6,0,0.8l0,0C24.4,25.2,24.2,25.3,24,25.3L24,25.3z"/>
		
			<linearGradient id="SVGID_3_" gradientUnits="userSpaceOnUse" x1="16" y1="765.98" x2="16" y2="783.25" gradientTransform="matrix(1 0 0 1 0 -758)">
			<stop  offset="0" style="stop-color:#64B5F6"/>
			<stop  offset="1" style="stop-color:#0D47A1"/>
		</linearGradient>
		<path style="fill:url(#SVGID_3_);" d="M16,25.3c-4.8,0-8.6-3.9-8.6-8.6S11.2,8,16,8s8.6,3.9,8.6,8.6c0,3.5-2.1,6.6-5.3,7.9
			C18.3,25,17.2,25.3,16,25.3z"/>
		
			<linearGradient id="SVGID_4_" gradientUnits="userSpaceOnUse" x1="16" y1="767.5" x2="16" y2="781.72" gradientTransform="matrix(1 0 0 1 0 -758)">
			<stop  offset="0" style="stop-color:#FFFFFF"/>
			<stop  offset="1" style="stop-color:#EBECF2"/>
		</linearGradient>
		<path style="fill:url(#SVGID_4_);" d="M16,23.7c-3.9,0-7.1-3.2-7.1-7.1s3.2-7.1,7.1-7.1s7.1,3.2,7.1,7.1c0,2.8-1.7,5.4-4.3,6.5
			C17.9,23.5,17,23.7,16,23.7z"/>
		
			<radialGradient id="SVGID_5_" cx="6.77" cy="764.5" r="4.43" gradientTransform="matrix(1 0 0 1 0 -758)" gradientUnits="userSpaceOnUse">
			<stop  offset="0" style="stop-color:#E4ECF5"/>
			<stop  offset="1" style="stop-color:#86A9CF"/>
		</radialGradient>
		<path style="fill:url(#SVGID_5_);" d="M7.4,11.6c-0.2,0-0.3-0.1-0.4-0.2c-1.3-1.3-1.3-3.3,0-4.5s3.3-1.3,4.5,0
			c0.2,0.2,0.2,0.6,0,0.8l0,0l-3.7,3.7C7.7,11.6,7.5,11.6,7.4,11.6L7.4,11.6z"/>
		
			<radialGradient id="SVGID_6_" cx="25.41" cy="764.88" r="3.95" gradientTransform="matrix(1 0 0 1 0 -758)" gradientUnits="userSpaceOnUse">
			<stop  offset="0" style="stop-color:#E4ECF5"/>
			<stop  offset="1" style="stop-color:#86A9CF"/>
		</radialGradient>
		<path style="fill:url(#SVGID_6_);" d="M24.6,11.6c-0.2,0-0.3-0.1-0.4-0.2l-3.7-3.7c-0.2-0.2-0.2-0.6,0-0.8l0,0
			c1.3-1.3,3.3-1.3,4.5,0s1.3,3.3,0,4.5C25,11.6,24.8,11.6,24.6,11.6L24.6,11.6z"/>
		<path style="fill:#A11F31;" d="M16.1,17.2h-4c-0.3,0-0.6-0.3-0.6-0.6s0.3-0.6,0.6-0.6h4c0.3,0,0.6,0.3,0.6,0.6
			S16.4,17.2,16.1,17.2z"/>
		<path style="fill:#D7404D;" d="M16.1,17.2c-0.3,0-0.6-0.3-0.6-0.6l0,0v-4.8c0-0.3,0.3-0.6,0.6-0.6c0.3,0,0.6,0.3,0.6,0.6v4.8
			C16.7,16.9,16.4,17.2,16.1,17.2L16.1,17.2L16.1,17.2z"/>
		<path style="fill:#536EB3;" d="M16.4,22.3c0.1,0.1,0.1,0.2,0.1,0.3v0.3c0,0.2-0.3,0.4-0.5,0.4c-0.2,0-0.3-0.2-0.4-0.4v-0.3
			c0-0.2,0.2-0.4,0.4-0.4C16.2,22.2,16.3,22.2,16.4,22.3L16.4,22.3z"/>
		<path style="fill:#536EB3;" d="M22.2,16c0.1,0.1,0.1,0.2,0.1,0.3v0.3c0,0.2-0.3,0.4-0.5,0.4s-0.3-0.2-0.4-0.4v-0.3
			c0-0.2,0.2-0.4,0.4-0.4C22.1,15.9,22.2,15.9,22.2,16L22.2,16z"/>
		<path style="fill:#536EB3;" d="M16.4,10c0.1,0.1,0.1,0.2,0.1,0.3v0.3c0,0.2-0.3,0.4-0.5,0.4c-0.2,0-0.3-0.2-0.4-0.4v-0.3
			c0-0.2,0.2-0.4,0.4-0.4C16.2,9.9,16.3,9.9,16.4,10L16.4,10z"/>
		<path style="fill:#536EB3;" d="M10.1,16c0.1,0.1,0.1,0.2,0.1,0.3v0.3c0,0.2-0.1,0.5-0.4,0.5c-0.2,0-0.5-0.1-0.5-0.4v-0.1v-0.3
			c0-0.2,0.2-0.4,0.4-0.4C9.9,15.9,10,15.9,10.1,16L10.1,16z"/>
	</g>
</g>
</svg>
