<?xml version="1.0" encoding="utf-8"?>
<!-- Generator: Adobe Illustrator 21.0.0, SVG Export Plug-In . SVG Version: 6.00 Build 0)  -->
<svg version="1.1" id="信息" xmlns="http://www.w3.org/2000/svg" xmlns:xlink="http://www.w3.org/1999/xlink" x="0px" y="0px"
	 viewBox="0 0 16 16" style="enable-background:new 0 0 16 16;" xml:space="preserve">
<style type="text/css">
	.st0{fill:#808080;}
	.st1{fill:#61A132;}
</style>
<title>16</title>
<g id="_16">
	<rect x="3.5" y="6" class="st0" width="8" height="1"/>
	<rect x="3.5" y="8" class="st0" width="5" height="1"/>
	<path class="st0" d="M7.5,0.5C3.4,0.5,0,3.4,0,7c0,1.7,0.7,3.3,2,4.4V16l3.7-2.7c0.6,0.1,1.2,0.2,1.8,0.2c4.1,0,7.5-2.9,7.5-6.5
		S11.6,0.5,7.5,0.5z M7.5,12.5c-0.6,0-1.2-0.1-1.8-0.2l-0.2-0.1L3,14v-3l-0.2-0.1C1.7,9.9,1,8.5,1,7c0-3,2.9-5.5,6.5-5.5S14,4,14,7
		S11.1,12.5,7.5,12.5z"/>
	<circle class="st1" cx="13.5" cy="3.5" r="2.5"/>
</g>
</svg>
