<?xml version="1.0" encoding="utf-8"?>
<!-- Generator: Adobe Illustrator 15.0.0, SVG Export Plug-In . SVG Version: 6.00 Build 0)  -->
<!DOCTYPE svg PUBLIC "-//W3C//DTD SVG 1.1//EN" "http://www.w3.org/Graphics/SVG/1.1/DTD/svg11.dtd">
<svg version="1.1"
	 id="svg9311" sodipodi:docname="launcher_icon_glow_62.svg" inkscape:version="0.48+devel r" xmlns:dc="http://purl.org/dc/elements/1.1/" xmlns:cc="http://creativecommons.org/ns#" xmlns:rdf="http://www.w3.org/1999/02/22-rdf-syntax-ns#" xmlns:svg="http://www.w3.org/2000/svg" xmlns:sodipodi="http://sodipodi.sourceforge.net/DTD/sodipodi-0.dtd" xmlns:inkscape="http://www.inkscape.org/namespaces/inkscape"
	 xmlns="http://www.w3.org/2000/svg" xmlns:xlink="http://www.w3.org/1999/xlink" x="0px" y="0px" width="62px" height="62px"
	 viewBox="0 0 62 62" enable-background="new 0 0 62 62" xml:space="preserve">
<filter  id="filter4296-4" style="color-interpolation-filters:sRGB" inkscape:collect="always">
	<feGaussianBlur  id="feGaussianBlur4298-5" stdDeviation="1.56" inkscape:collect="always"></feGaussianBlur>
</filter>
<rect display="none" fill="#231815" width="62" height="62"/>
<sodipodi:namedview  id="base" fit-margin-left="0" fit-margin-top="0" showgrid="false" inkscape:cy="-351.85714" inkscape:cx="-1812.5715" inkscape:zoom="0.35" borderopacity="1.0" bordercolor="#666666" pagecolor="#ffffff" fit-margin-bottom="0" fit-margin-right="0" inkscape:current-layer="layer1" inkscape:document-units="px" inkscape:pageshadow="2" inkscape:pageopacity="0.0">
	</sodipodi:namedview>
<g id="layer1" transform="translate(-1531.8572,-118.50504)" inkscape:label="Layer 1" inkscape:groupmode="layer">
	
		<g id="g4541" transform="translate(1250.8572,93.505042)" inkscape:export-ydpi="90" inkscape:export-xdpi="90" inkscape:export-filename="PNG/launcher_icon_glow_62.png">
		<rect id="rect4433-3" x="281" y="25" fill="none" width="62" height="62"/>
		<g>
			<defs>
				<path id="SVGID_1_" d="M281,25v62h62V25H281z M290,31h44c1.662,0,3,1.338,3,3v44c0,1.662-1.338,3-3,3h-44c-1.662,0-3-1.338-3-3
					V34C287,32.338,288.338,31,290,31z"/>
			</defs>
			<clipPath id="SVGID_2_">
				<use xlink:href="#SVGID_1_"  display="none" overflow="visible"/>
			</clipPath>
			<g id="rect5162-4" display="none" clip-path="url(#SVGID_2_)" filter="url(#filter4296-4)">
				<path display="inline" fill="none" stroke="#FFFFFF" d="M290,30h44c2.209,0,4,1.791,4,4v44c0,2.209-1.791,4-4,4h-44
					c-2.209,0-4-1.791-4-4V34C286,31.791,287.791,30,290,30z"/>
			</g>
		</g>
	</g>
</g>
<rect x="5" y="5" fill="none" stroke="#FFFFFF" width="52" height="52"/>
</svg>
