<svg id="图层_4" data-name="图层 4" xmlns="http://www.w3.org/2000/svg" viewBox="0 0 16 16"><defs><style>.cls-1{fill:gray;}.cls-2{fill:none;stroke:gray;stroke-miterlimit:10;}</style></defs><title>16</title><g id="_16" data-name="16"><path class="cls-1" d="M13,2a1,1,0,0,1,1,1V13a1,1,0,0,1-1,1H6a1,1,0,0,1-1-1V3A1,1,0,0,1,6,2h7m0-1H6A2,2,0,0,0,4,3V13a2,2,0,0,0,2,2h7a2,2,0,0,0,2-2V3a2,2,0,0,0-2-2Z"/><path class="cls-1" d="M4,3V4H3V3H4M5,2H2V5H5V2Z"/><path class="cls-1" d="M4,7V8H3V7H4M5,6H2V9H5V6Z"/><path class="cls-1" d="M4,11v1H3V11H4m1-1H2v3H5V10Z"/><circle class="cls-2" cx="9.5" cy="5.5" r="2"/><path class="cls-2" d="M11.14,9.5H7.86A1.42,1.42,0,0,0,6.5,11v.6a.88.88,0,0,0,.82.9h4.36a.88.88,0,0,0,.82-.9V11A1.42,1.42,0,0,0,11.14,9.5Z"/></g></svg>