<svg id="图层_6" data-name="图层 6" xmlns="http://www.w3.org/2000/svg" viewBox="0 0 16 16"><defs><style>.cls-1,.cls-3{fill:gray;}.cls-1,.cls-2{isolation:isolate;}</style></defs><title>16</title><g id="_16" data-name="16"><rect class="cls-1" x="4" y="7" width="1" height="1"/><rect class="cls-1" x="7" y="7" width="1" height="1"/><rect class="cls-1" x="4" y="10" width="1" height="1"/><rect class="cls-1" x="7" y="10" width="1" height="1"/><rect class="cls-1" x="10" y="10" width="1" height="1"/><rect class="cls-1" x="10" y="7" width="1" height="1"/><rect class="cls-1" x="2" y="5" width="12" height="1"/><rect class="cls-1" x="4" y="1" width="1" height="3"/><rect class="cls-1" x="11" y="1" width="1" height="3"/><g class="cls-2"><path class="cls-3" d="M13,3a1,1,0,0,1,1,1v8a1,1,0,0,1-1,1H3a1,1,0,0,1-1-1V4A1,1,0,0,1,3,3H13m0-1H3A2,2,0,0,0,1,4v8a2,2,0,0,0,2,2H13a2,2,0,0,0,2-2V4a2,2,0,0,0-2-2Z"/></g></g></svg>