<svg id="图层_6" data-name="图层 6" xmlns="http://www.w3.org/2000/svg" viewBox="0 0 16 16"><defs><style>.cls-1{fill:gray;}.cls-1,.cls-2{isolation:isolate;}.cls-2{fill:none;stroke:gray;stroke-linecap:round;stroke-miterlimit:10;}</style></defs><title>16</title><g id="_16" data-name="16"><rect class="cls-1" x="4" y="7" width="1" height="1"/><rect class="cls-1" x="7" y="7" width="1" height="1"/><rect class="cls-1" x="4" y="10" width="1" height="1"/><rect class="cls-1" x="7" y="10" width="1" height="1"/><rect class="cls-1" x="10" y="10" width="1" height="1"/><rect class="cls-1" x="10" y="7" width="1" height="1"/><rect class="cls-1" x="2" y="5" width="12" height="1"/><rect class="cls-1" x="4" y="1" width="1" height="3"/><rect class="cls-1" x="11" y="1" width="1" height="3"/><path class="cls-1" d="M15,4v7H14V4a1,1,0,0,0-1-1H3A1,1,0,0,0,2,4v8a1,1,0,0,0,1,1H9v1H3a2,2,0,0,1-2-2V4A2,2,0,0,1,3,2H13A2,2,0,0,1,15,4Z"/><line class="cls-2" x1="12.5" y1="11.5" x2="12.5" y2="15.5"/><line class="cls-2" x1="14.5" y1="13.5" x2="10.5" y2="13.5"/></g></svg>