<svg id="图层_8" data-name="图层 8" xmlns="http://www.w3.org/2000/svg" viewBox="0 0 16 16"><defs><style>.cls-1{fill:gray;}.cls-2,.cls-3{fill:none;stroke:gray;stroke-miterlimit:10;}.cls-2{stroke-linecap:round;}</style></defs><title>16</title><g id="_16" data-name="16"><rect class="cls-1" x="10" y="11" width="1" height="3"/><rect class="cls-1" x="10" y="9" width="1" height="1"/><path class="cls-1" d="M10.56,8A3.43,3.43,0,0,1,14,11.56,3.5,3.5,0,1,1,10.56,8m0-1A4.5,4.5,0,1,0,15,11.56,4.41,4.41,0,0,0,10.56,7Z"/><path class="cls-2" d="M5.5,14.5h-2a1,1,0,0,1-1-1V2.5a1,1,0,0,1,1-1H9.09a1,1,0,0,1,.7.29l2.42,2.42a1,1,0,0,1,.29.7V6.5"/><line class="cls-3" x1="9.5" y1="2" x2="9.5" y2="5"/><line class="cls-3" x1="12" y1="4.5" x2="9" y2="4.5"/></g></svg>