<svg id="图层_9" data-name="图层 9" xmlns="http://www.w3.org/2000/svg" viewBox="0 0 16 16"><defs><style>.cls-1{fill:gray;}.cls-1,.cls-2{isolation:isolate;}.cls-2,.cls-3{fill:none;stroke:gray;stroke-linecap:round;stroke-miterlimit:10;}</style></defs><title>16</title><g id="_16" data-name="16"><rect class="cls-1" x="3" y="4" width="3" height="1"/><rect class="cls-1" x="3" y="6" width="3" height="1"/><rect class="cls-1" x="3" y="8" width="3" height="1"/><rect class="cls-1" x="3" y="10" width="3" height="1"/><polygon class="cls-1" points="10 3 10 8 11.5 9 13 8 13 3 10 3"/><path class="cls-2" d="M14.5,9.5v-5a2,2,0,0,0-2-2h-9a2,2,0,0,0-2,2v7a2,2,0,0,0,2,2h5"/><line class="cls-3" x1="10.5" y1="13.5" x2="14.5" y2="13.5"/><line class="cls-3" x1="12.5" y1="11.5" x2="12.5" y2="15.5"/></g></svg>