<svg id="图层_12" data-name="图层 12" xmlns="http://www.w3.org/2000/svg" viewBox="0 0 16 16"><defs><style>.cls-1{fill:none;stroke:gray;stroke-linecap:round;stroke-linejoin:round;}.cls-2{fill:gray;}</style></defs><title>16</title><g id="_16" data-name="16"><polyline class="cls-1" points="6 10 8 12 10 10"/><path class="cls-2" d="M10.87,5A4,4,0,0,1,14,6.88V7H12V6H4V7H2V6.83a2.59,2.59,0,0,1,.52-.72A3.68,3.68,0,0,1,5.1,5h5.77m0-1H5.1A4.71,4.71,0,0,0,1.8,5.4a3.59,3.59,0,0,0-.71,1A1.11,1.11,0,0,0,1,6.82V8H5V7h6V8h4V6.88a1,1,0,0,0-.14-.52A5,5,0,0,0,10.9,4Z"/></g></svg>