<svg id="图层_12" data-name="图层 12" xmlns="http://www.w3.org/2000/svg" viewBox="0 0 16 16"><defs><style>.cls-1{fill:gray;}</style></defs><title>16</title><g id="_16" data-name="16"><path class="cls-1" d="M3.29,3.37,4.94,5l-.06.05-.71.71.71.71,4.59,4.59.71.71.7-.71.06-.06,1.65,1.65-.22.21a2.82,2.82,0,0,1-1,.16,4.09,4.09,0,0,1-2.89-1.16L4.1,7.47a4.42,4.42,0,0,1-1-3.95l.15-.15M3.29,2l-.86.85a1.13,1.13,0,0,0-.29.51A5.46,5.46,0,0,0,3.37,8.15L7.8,12.59A5.09,5.09,0,0,0,11.4,14a4,4,0,0,0,1.3-.21,1.2,1.2,0,0,0,.4-.26l.9-.9L10.94,9.61l-.76.76L5.59,5.78,6.35,5,3.29,2Z"/></g></svg>