<svg id="call-start" xmlns="http://www.w3.org/2000/svg" viewBox="0 0 16 16"><defs><style>.cls-1{opacity:0.75;}.cls-2{fill:#1f2022;}</style></defs><title>call-start-symbolic</title><g id="_16" data-name=" 16" class="cls-1"><path class="cls-2" d="M14,1l.7.7.2.2a6.12,6.12,0,0,1-1.6,5.5L7.49,13.3A5.9,5.9,0,0,1,3.29,15,5.07,5.07,0,0,1,2,14.9l-.1-.2L1.2,14h0l3-3h0l.3.3h0a2.42,2.42,0,0,0,3.42.08L8,11.3l3.19-3.4.1-.1a2.42,2.42,0,0,0,.08-3.42l-.08-.08L11,4l3-3h0m0-1c-.32,0-.43.21-.7.5l-3,3a1,1,0,0,0,0,1.4l.3.3a1.45,1.45,0,0,1,.05,2.05l-.05,0L7.19,10.6a1.45,1.45,0,0,1-2.05.05l0-.05-.4-.4A1,1,0,0,0,4,10c-.29,0-.39,0-.7.3l-3,3a1,1,0,0,0,0,1.4l.7.7.4.4a10.9,10.9,0,0,0,1.8.2,7,7,0,0,0,4.89-2L14,8.1a7,7,0,0,0,1.8-6.7L15.4,1,14.7.3A.89.89,0,0,0,14,0Z"/></g></svg>