<svg id="图层_13" data-name="图层 13" xmlns="http://www.w3.org/2000/svg" viewBox="0 0 16 16"><defs><style>.cls-1,.cls-2{fill:gray;}.cls-2{isolation:isolate;}</style></defs><title>16</title><g id="_16" data-name="16"><path class="cls-1" d="M13,3a1,1,0,0,1,1,1v8a1,1,0,0,1-1,1H3a1,1,0,0,1-1-1V4A1,1,0,0,1,3,3H13m0-1H3A2,2,0,0,0,1,4v8a2,2,0,0,0,2,2H13a2,2,0,0,0,2-2V4a2,2,0,0,0-2-2Z"/><path class="cls-1" d="M8,5A3,3,0,1,1,5,8,3,3,0,0,1,8,5M8,4a4,4,0,1,0,4,4A4,4,0,0,0,8,4Z"/><circle class="cls-1" cx="8" cy="8" r="1"/><circle class="cls-2" cx="12.5" cy="4.5" r="0.5"/><rect class="cls-2" x="4" y="1" width="2" height="1"/></g></svg>