<svg id="图层_14" data-name="图层 14" xmlns="http://www.w3.org/2000/svg" viewBox="0 0 16 16"><defs><style>.cls-1{fill:gray;}</style></defs><title>16</title><path id="_16" data-name="16" class="cls-1" d="M14,1.27l-.51.49a.9.9,0,0,0-.7-.1,1.29,1.29,0,0,0-1,.5L10.19,3.74l-.9-.89a.62.62,0,0,0-.37-.2.48.48,0,0,0-.5.47v0a.47.47,0,0,0,.19.4l.91.9-6.19,6a1.19,1.19,0,0,0-.41,1.28v.6L1,14.24l.7.69,1.92-1.88h.51a1.5,1.5,0,0,0,1.32-.4l6.15-6,.91.89a.5.5,0,0,0,.71,0,.5.5,0,0,0,0-.7h0l-.91-.89,1.61-1.58a1.36,1.36,0,0,0,.31-1.69l.5-.49C15.42,1.49,14.61.71,14,1.27ZM10.19,4.93l.71.69L7.46,9H6Z"/></svg>