<svg id="svg7384" xmlns="http://www.w3.org/2000/svg" viewBox="0 0 16 16"><defs><style>.cls-1{opacity:0.75;}.cls-2{fill:#202020;}</style></defs><title>contact-new-symbolic</title><g class="cls-1"><path class="cls-2" d="M13,10v2H11v1h2v2h1V13h2V12H14V10Z"/></g><g class="cls-1"><path class="cls-2" d="M8,1A3,3,0,1,1,5,4,3,3,0,0,1,8,1M8,0a4,4,0,1,0,4,4A4,4,0,0,0,8,0Z"/></g><g class="cls-1"><path class="cls-2" d="M.93,15,0,14.71A8.3,8.3,0,0,1,7.88,9,7.6,7.6,0,0,1,11,9.63l-.4.89A6.69,6.69,0,0,0,7.88,10,7.3,7.3,0,0,0,.93,15Z"/></g></svg>