<svg id="图层_16" data-name="图层 16" xmlns="http://www.w3.org/2000/svg" viewBox="0 0 16 16"><defs><style>.cls-1{fill:gray;}</style></defs><title>16</title><g id="_16" data-name="16"><path class="cls-1" d="M2.5,6h0A1.5,1.5,0,0,0,1,7.5H1A1.5,1.5,0,0,0,2.5,9h0A1.5,1.5,0,0,0,4,7.5H4A1.5,1.5,0,0,0,2.5,6Z"/><path class="cls-1" d="M7.5,6h0A1.5,1.5,0,0,0,6,7.5H6A1.5,1.5,0,0,0,7.5,9h0A1.5,1.5,0,0,0,9,7.5H9A1.5,1.5,0,0,0,7.5,6Z"/><path class="cls-1" d="M12.5,6h0A1.5,1.5,0,0,0,11,7.5h0A1.5,1.5,0,0,0,12.5,9h0A1.5,1.5,0,0,0,14,7.5h0A1.5,1.5,0,0,0,12.5,6Z"/></g></svg>