<svg id="图层_30" data-name="图层 30" xmlns="http://www.w3.org/2000/svg" viewBox="0 0 16 16"><defs><style>.cls-1{fill:#1f2022;opacity:0.75;}</style></defs><title>document-print-symbolic</title><path class="cls-1" d="M14,5V2a2,2,0,0,0-2-2H4A2,2,0,0,0,2,2V5A2,2,0,0,0,0,7v4a2,2,0,0,0,2,2H4v1a2,2,0,0,0,2,2h4a2,2,0,0,0,2-2V13h2a2,2,0,0,0,2-2V7A2,2,0,0,0,14,5ZM3,2A1,1,0,0,1,4,1h8a1,1,0,0,1,1,1V5H3Zm8,12a1,1,0,0,1-1,1H6a1,1,0,0,1-1-1V13h6Zm4-3a1,1,0,0,1-1,1H2a1,1,0,0,1-1-1V7A1,1,0,0,1,2,6H14a1,1,0,0,1,1,1Z"/><rect class="cls-1" x="11" y="7" width="3" height="1"/><rect class="cls-1" x="4" y="4" width="8" height="1"/><rect class="cls-1" x="4" y="2" width="8" height="1"/><rect class="cls-1" x="3" y="10" width="10" height="2"/></svg>