<svg id="图层_19" data-name="图层 19" xmlns="http://www.w3.org/2000/svg" viewBox="0 0 16 16"><defs><style>.cls-1,.cls-3{fill:none;stroke:gray;stroke-miterlimit:10;}.cls-2{fill:gray;}.cls-3{stroke-linecap:round;}</style></defs><title>16</title><g id="_16" data-name="16"><line class="cls-1" x1="9.5" y1="2" x2="9.5" y2="5"/><line class="cls-1" x1="12" y1="4.5" x2="9" y2="4.5"/><path class="cls-2" d="M10.21,13V11H14a1,1,0,0,0,1-1h0a1,1,0,0,0-1-1H10.21V7L7.35,9.65a.5.5,0,0,0,0,.7Z"/><path class="cls-3" d="M12.5,12.5v1a1,1,0,0,1-1,1h-8a1,1,0,0,1-1-1V2.5a1,1,0,0,1,1-1H9.09a1,1,0,0,1,.7.29l2.42,2.42a1,1,0,0,1,.29.7V7.5"/></g></svg>