<svg id="图层_17" data-name="图层 17" xmlns="http://www.w3.org/2000/svg" viewBox="0 0 16 16"><defs><style>.cls-1{fill:none;stroke:gray;stroke-linecap:round;stroke-miterlimit:10;}.cls-2{fill:gray;}.cls-3{isolation:isolate;}</style></defs><title>16</title><g id="_16" data-name="16"><line class="cls-1" x1="8.5" y1="13.5" x2="14.5" y2="13.5"/><line class="cls-1" x1="10.5" y1="11.5" x2="14.5" y2="11.5"/><line class="cls-1" x1="12.5" y1="9.5" x2="14.5" y2="9.5"/><polygon class="cls-2" points="3.49 10.48 5.5 12.54 1.86 14.31 3.49 10.48"/><g class="cls-3"><path class="cls-2" d="M12.52,2,14,3.48,5,12.26a6.44,6.44,0,0,1-.94.5,15.75,15.75,0,0,1-1.46.64A14.42,14.42,0,0,1,3.23,12l0,0,0-.06A3.15,3.15,0,0,1,3.71,11l8.81-9m0-1a.94.94,0,0,0-.67.28L3,10.37a4.27,4.27,0,0,0-.61,1.13,16.22,16.22,0,0,0-1,2.57L1,15l.93-.31a18.88,18.88,0,0,0,2.57-1,8.21,8.21,0,0,0,1.13-.61l9.09-8.9a.94.94,0,0,0,0-1.33L13.18,1.27A.93.93,0,0,0,12.52,1Z"/></g></g></svg>