<svg id="表-2" xmlns="http://www.w3.org/2000/svg" viewBox="0 0 16 16"><defs><style>.cls-1{opacity:0.75;}.cls-2{fill:#1f2022;}</style></defs><title>document-open-recent-symbolic</title><g class="cls-1"><path class="cls-2" d="M8,16a8,8,0,1,1,8-8A8,8,0,0,1,8,16ZM8,1A7,7,0,0,0,1,8a7,7,0,0,0,7,7,7,7,0,0,0,7-7A7,7,0,0,0,8,1Z"/><rect class="cls-2" x="7" y="2" width="1" height="1"/><rect class="cls-2" x="2" y="8" width="1" height="1"/><rect class="cls-2" x="13" y="8" width="1" height="1"/><rect class="cls-2" x="7" y="13" width="1" height="1"/><polygon class="cls-2" points="8 8 8 4 7 4 7 8 7 9 8 9 12 9 12 8 8 8"/></g></svg>