<svg id="图层_1" data-name="图层 1" xmlns="http://www.w3.org/2000/svg" viewBox="0 0 16 16"><defs><style>.cls-1{fill:#1f2022;opacity:0.75;isolation:isolate;}</style></defs><title>document-open-symbolic</title><path class="cls-1" d="M14,3H9.26A.58.58,0,0,1,9,2.94L5.22,1.05,5,1H2A2,2,0,0,0,0,3V13a2,2,0,0,0,2,2V14a1,1,0,0,1-1-1V3A1,1,0,0,1,2,2H4.75A.54.54,0,0,1,5,2.06L8.78,4H14a1,1,0,0,1,1,1v8a1,1,0,0,1-1,1H14a2.73,2.73,0,0,0,.05-.5v-6A2.5,2.5,0,0,0,11.5,5h-6A2.5,2.5,0,0,0,3,7.5v6A2.5,2.5,0,0,0,5.5,16h6a2.5,2.5,0,0,0,2-1H14a2,2,0,0,0,2-2V5A2,2,0,0,0,14,3ZM5.5,15A1.5,1.5,0,0,1,4,13.5v-6A1.5,1.5,0,0,1,5.5,6h6A1.5,1.5,0,0,1,13,7.5v6A1.5,1.5,0,0,1,11.5,15Z"/><rect class="cls-1" x="6" y="8" width="5" height="1"/><rect class="cls-1" x="6" y="10" width="5" height="1"/><rect class="cls-1" x="6" y="12" width="3" height="1"/></svg>