<svg id="图层_23" data-name="图层 23" xmlns="http://www.w3.org/2000/svg" viewBox="0 0 16 16"><defs><style>.cls-1,.cls-3{fill:gray;}.cls-1,.cls-2{isolation:isolate;}</style></defs><title>16</title><g id="_16" data-name="16"><path class="cls-1" d="M14.6,6.7a6,6,0,0,0-1-2.5l1-1L12.9,1.5l-1.1,1a7.54,7.54,0,0,0-2.5-1V0H6.7V1.4A6.24,6.24,0,0,0,4.2,2.5l-1-1L1.5,3.2l1,1a4.59,4.59,0,0,0-1,2.5H0V9.2H1.4a6,6,0,0,0,1,2.5l-1,1,1.7,1.7,1.1-1a7.54,7.54,0,0,0,2.5,1V16H9.2V14.6a6,6,0,0,0,2.5-1l1,1,1.7-1.7-1-1.1a7.54,7.54,0,0,0,1-2.5H16V6.7ZM8,13A5.08,5.08,0,0,1,3,8,5.08,5.08,0,0,1,8,3a5.08,5.08,0,0,1,5,5A5.08,5.08,0,0,1,8,13Z"/><g class="cls-2"><path class="cls-3" d="M8,6a2,2,0,0,1,2,2A2,2,0,1,1,8,6M8,5a3,3,0,1,0,3,3A3,3,0,0,0,8,5Z"/></g></g></svg>