<svg id="图层_20" data-name="图层 20" xmlns="http://www.w3.org/2000/svg" viewBox="0 0 16 16"><defs><style>.cls-1,.cls-2{fill:none;stroke:gray;stroke-miterlimit:10;}.cls-1{stroke-linecap:round;}</style></defs><title>16</title><g id="_16" data-name="16"><path class="cls-1" d="M9.5,14.5h-6a1,1,0,0,1-1-1V2.5a1,1,0,0,1,1-1H9.09a1,1,0,0,1,.7.29l2.42,2.42a1,1,0,0,1,.29.7V7.5"/><line class="cls-1" x1="10.5" y1="12.5" x2="14.5" y2="12.5"/><line class="cls-1" x1="12.5" y1="10.5" x2="12.5" y2="14.5"/><line class="cls-2" x1="9.5" y1="2" x2="9.5" y2="5"/><line class="cls-2" x1="12" y1="4.5" x2="9" y2="4.5"/><line class="cls-1" x1="4.5" y1="8.5" x2="7.5" y2="8.5"/><line class="cls-1" x1="4.5" y1="5.5" x2="7.5" y2="5.5"/></g></svg>