<svg id="图层_19" data-name="图层 19" xmlns="http://www.w3.org/2000/svg" viewBox="0 0 16 16"><defs><style>.cls-1{fill:gray;}.cls-2,.cls-3{fill:none;stroke:gray;stroke-miterlimit:10;}.cls-2{stroke-linecap:round;}</style></defs><title>16</title><g id="_16" data-name="16"><path class="cls-1" d="M14.85,11.35a.48.48,0,0,0,0-.7L12,8v2H7.21a1,1,0,0,0-1,1h0a1,1,0,0,0,1,1H12v2Z"/><path class="cls-2" d="M9.5,14.5h-6a1,1,0,0,1-1-1V2.5a1,1,0,0,1,1-1H9.09a1,1,0,0,1,.7.29l2.42,2.42a1,1,0,0,1,.29.7V6.5"/><line class="cls-3" x1="9.5" y1="2" x2="9.5" y2="5"/><line class="cls-3" x1="12" y1="4.5" x2="9" y2="4.5"/></g></svg>