<svg id="图层_22" data-name="图层 22" xmlns="http://www.w3.org/2000/svg" viewBox="0 0 16 16"><defs><style>.cls-1,.cls-2{fill:none;stroke:gray;stroke-miterlimit:10;}.cls-1{stroke-linecap:round;}</style></defs><title>16</title><g id="_16" data-name="16"><line class="cls-1" x1="10.5" y1="7.5" x2="12.5" y2="7.5"/><path class="cls-2" d="M11.5,12.5v1a.94.94,0,0,1-1,1h-5a.94.94,0,0,1-1-1v-1"/><path class="cls-2" d="M12.5,12.5h-9a2,2,0,0,1-2-2v-3a2,2,0,0,1,2-2h9a2,2,0,0,1,2,2v3A2,2,0,0,1,12.5,12.5Z"/><path class="cls-2" d="M3.5,5.8V3.5a2,2,0,0,1,2-2h5a2,2,0,0,1,2,2V5.8"/><line class="cls-2" x1="3" y1="10.5" x2="13" y2="10.5"/><line class="cls-1" x1="5.5" y1="3.5" x2="10.5" y2="3.5"/></g></svg>