<svg id="d" xmlns="http://www.w3.org/2000/svg" viewBox="0 0 16 16"><defs><style>.cls-1{fill:gray;}.cls-2{fill:none;stroke:gray;stroke-linecap:round;stroke-linejoin:round;}</style></defs><title>16</title><g id="_16" data-name="16"><path class="cls-1" d="M7,4a2.93,2.93,0,0,1,3,3,2.93,2.93,0,0,1-3,3A3,3,0,0,1,7,4M7,3a4,4,0,0,0,0,8,3.92,3.92,0,0,0,4-4A3.92,3.92,0,0,0,7,3Z"/><circle class="cls-1" cx="7" cy="7" r="1"/><path class="cls-2" d="M14.5,2.5v9a3,3,0,0,1-3,3h-9"/><path class="cls-1" d="M11,2a1,1,0,0,1,1,1v8a1,1,0,0,1-1,1H3a1,1,0,0,1-1-1V3A1,1,0,0,1,3,2h8m0-1H3A2,2,0,0,0,1,3v8a2,2,0,0,0,2,2h8a2,2,0,0,0,2-2V3a2,2,0,0,0-2-2Z"/></g></svg>