<svg id="图层_33" data-name="图层 33" xmlns="http://www.w3.org/2000/svg" viewBox="0 0 16 16"><defs><style>.cls-1{fill:gray;isolation:isolate;}</style></defs><title>16</title><path id="_16" data-name="16" class="cls-1" d="M12.38,9.75a2.66,2.66,0,0,0-1.61.53l-1.46-1a1.32,1.32,0,0,0-.37-.88A5.84,5.84,0,0,0,11.85,7C13.6,5.11,13.77,1,13.77,1L8,7.7,2.22,1s.09,4.11,1.93,6A5.78,5.78,0,0,0,7.06,8.42a1.32,1.32,0,0,0-.37.87l-1.46,1a2.61,2.61,0,1,0,.6.65L7,10.14a1.36,1.36,0,0,0,1,.49,1.32,1.32,0,0,0,1-.5l1.17.8a2.63,2.63,0,1,0,2.21-1.18ZM3.63,14.13a1.75,1.75,0,1,1,1.75-1.75A1.75,1.75,0,0,1,3.63,14.13ZM8,9.75a.44.44,0,0,1-.44-.44.44.44,0,0,1,.88,0,.42.42,0,0,1-.39.44Zm4.38,4.38a1.75,1.75,0,1,1,1.75-1.75A1.75,1.75,0,0,1,12.38,14.13Z"/></svg>