<svg id="图层_35" data-name="图层 35" xmlns="http://www.w3.org/2000/svg" viewBox="0 0 16 16"><defs><style>.cls-1{fill:gray;isolation:isolate;}</style></defs><title>16</title><g id="_16" data-name="16"><rect class="cls-1" x="10" y="8" width="5" height="1"/><rect class="cls-1" x="10" y="6" width="5" height="1"/><path class="cls-1" d="M12.4,11.7A9.91,9.91,0,0,0,13.5,10H12.4a3.59,3.59,0,0,1-.7,1,2.34,2.34,0,0,1-.7.7A5.6,5.6,0,0,1,7.5,13,5.55,5.55,0,0,1,2,7.5,5.55,5.55,0,0,1,7.5,2a5.73,5.73,0,0,1,4.9,3h1.1a6.5,6.5,0,1,0-6,9,6.66,6.66,0,0,0,4.2-1.6L14.3,15l.7-.7Z"/></g></svg>