<svg id="e" xmlns="http://www.w3.org/2000/svg" viewBox="0 0 16 16"><defs><style>.cls-1,.cls-5{fill:none;stroke:gray;stroke-miterlimit:10;}.cls-1,.cls-2,.cls-3{isolation:isolate;}.cls-2,.cls-4{fill:gray;}</style></defs><title>16</title><g id="_16" data-name="16"><path class="cls-1" d="M5.2,13.5H4.3a1.83,1.83,0,0,1-1.8-1.85V3.35A1.83,1.83,0,0,1,4.3,1.5H9.7a1.83,1.83,0,0,1,1.8,1.85"/><rect class="cls-2" x="7" y="5" width="5" height="1"/><rect class="cls-2" x="7" y="7" width="5" height="1"/><rect class="cls-2" x="7" y="9" width="3" height="1"/><g class="cls-3"><path class="cls-4" d="M12.2,4a.83.83,0,0,1,.8.85v6.24L10.09,14H6.8a.83.83,0,0,1-.8-.85V4.85A.83.83,0,0,1,6.8,4h5.4m0-1H6.8A1.83,1.83,0,0,0,5,4.85v8.3A1.83,1.83,0,0,0,6.8,15h3.7L14,11.5V4.85A1.83,1.83,0,0,0,12.2,3Z"/></g><polyline class="cls-5" points="13.5 11.5 10.5 11.5 10.5 14.5"/></g></svg>