<svg id="放大镜" xmlns="http://www.w3.org/2000/svg" viewBox="0 0 16 16"><defs><style>.cls-1{fill:#1f2022;opacity:0.75;isolation:isolate;}</style></defs><title>edit-find-replace-symbolic</title><rect class="cls-1" x="9" y="7" width="5" height="1"/><rect class="cls-1" x="9" y="5" width="5" height="1"/><path class="cls-1" d="M11.4,10.7A6.58,6.58,0,0,0,12.47,9H11.36a5.41,5.41,0,0,1-.66,1,4.63,4.63,0,0,1-.7.7A5.6,5.6,0,0,1,6.5,12,5.55,5.55,0,0,1,1,6.5,5.55,5.55,0,0,1,6.5,1a5.52,5.52,0,0,1,4.85,3H12.5a6.5,6.5,0,1,0-6,9,6.3,6.3,0,0,0,4.2-1.6L13.3,14l.7-.7Z"/></svg>