<svg id="e" xmlns="http://www.w3.org/2000/svg" viewBox="0 0 16 16"><defs><style>.cls-1{fill:gray;}.cls-2{fill:none;stroke:gray;stroke-linecap:round;stroke-miterlimit:10;}</style></defs><title>16</title><g id="_16" data-name="16"><path class="cls-1" d="M10.08,4a1.05,1.05,0,0,1,.82.38l3,3.61-3,3.63a1.05,1.05,0,0,1-.82.38H2.9a1,1,0,0,1-1-1V5a1,1,0,0,1,1-1h7.18m0-1H2.9a2,2,0,0,0-2,2v6a2,2,0,0,0,2,2h7.18a2.09,2.09,0,0,0,1.6-.75l3-3.63a1,1,0,0,0,0-1.24l-3-3.63A2.09,2.09,0,0,0,10.08,3Z"/><line class="cls-2" x1="4.5" y1="6" x2="8.5" y2="10"/><line class="cls-2" x1="8.5" y1="6" x2="4.5" y2="10"/></g></svg>