<svg id="e" xmlns="http://www.w3.org/2000/svg" viewBox="0 0 16 16"><defs><style>.cls-1{fill:gray;}</style></defs><title>16</title><g id="_16" data-name="16"><path class="cls-1" d="M10,10.33l1,1.79H9.08a.43.43,0,0,0-.43.43h0a.43.43,0,0,0,.43.43h2.23a.7.7,0,0,0,.69-.71h0a.62.62,0,0,0-.1-.35l-1.19-2a.41.41,0,0,0-.54-.16h0A.43.43,0,0,0,10,10.33Z"/><path class="cls-1" d="M4.32,12.89h0A.73.73,0,0,0,4.7,13H6.94a.43.43,0,0,0,.43-.43h0a.43.43,0,0,0-.43-.43H5L6,10.3a.45.45,0,0,0,0-.61.42.42,0,0,0-.58.14h0L4.12,11.9a.72.72,0,0,0,.19,1Z"/><path class="cls-1" d="M6.37,8.94A.42.42,0,0,0,7,8.86L7,8.8H7L8,7,9.06,8.79A.41.41,0,0,0,9.42,9a.42.42,0,0,0,.42-.42h0a.46.46,0,0,0-.06-.23l-1.18-2a.68.68,0,0,0-.93-.26H7.6a1.25,1.25,0,0,0-.23.23l-1.14,2A.47.47,0,0,0,6.37,8.94Z"/><path class="cls-1" d="M14.5,3H12V2.5A1.5,1.5,0,0,0,10.5,1h-5A1.5,1.5,0,0,0,4,2.5V3H1.5a.5.5,0,0,0,0,1H2v9.5A2.5,2.5,0,0,0,4.5,16h7A2.5,2.5,0,0,0,14,13.5V4h.5a.5.5,0,0,0,0-1ZM5,2.5A.5.5,0,0,1,5.5,2h5a.5.5,0,0,1,.5.5V3H5Zm8,11A1.5,1.5,0,0,1,11.5,15h-7A1.5,1.5,0,0,1,3,13.5V4H13Z"/></g></svg>