<?xml version="1.0" encoding="utf-8"?>
<!-- Generator: Adobe Illustrator 24.0.0, SVG Export Plug-In . SVG Version: 6.00 Build 0)  -->
<svg version="1.1" id="e" xmlns="http://www.w3.org/2000/svg" xmlns:xlink="http://www.w3.org/1999/xlink" x="0px" y="0px"
	 viewBox="0 0 16 16" style="enable-background:new 0 0 16 16;" xml:space="preserve">
<style type="text/css">
	.st0{fill:#808080;}
	.st1{fill:none;stroke:#808080;stroke-miterlimit:10;}
</style>
<title>16</title>
<g id="_16">
	<path class="st0" d="M13,4v9c0,0.5-0.3,1-0.7,1H3.7C3.3,14,3,13.5,3,13V4H13 M14,3H2v10c-0.1,1,0.7,1.9,1.7,2h8.6
		c1-0.1,1.8-1,1.7-2V3z"/>
	<polygon class="st0" points="10,6 6,6 6,7 10,7 10,6 	"/>
	<path class="st1" d="M11.5,4v6.5c0,0.6-0.4,1-1,1h-5c-0.6,0-1-0.4-1-1V4"/>
	<polygon class="st0" points="10,9 6,9 6,10 10,10 10,9 	"/>
	<path class="st1" d="M6.5,1.5h3c0.6,0,1,0.4,1,1v1l0,0h-5l0,0v-1C5.5,1.9,5.9,1.5,6.5,1.5z"/>
</g>
</svg>
