<svg id="图层_1" data-name="图层 1" xmlns="http://www.w3.org/2000/svg" viewBox="0 0 16 16"><defs><style>.cls-1{fill:#1f2022;opacity:0.75;}</style></defs><title>error-correct-symbolic</title><path class="cls-1" d="M13,2.41,14.59,4,6.73,11.85a2,2,0,0,1-.67.45l-2.27.91.91-2.27,0-.06,0-.06a1.7,1.7,0,0,1,.36-.51l.29-.3h0L13,2.41M13,1,4.44,9.56l0,0a2.62,2.62,0,0,0-.57.83l-.07.14L2,15l4.43-1.77a3,3,0,0,0,1-.67L16,4,13,1Z"/><polygon class="cls-1" points="5 6 3.48 8.44 2.89 9.37 2.5 10 0 6 5 6"/><path class="cls-1" d="M11.56,2.44l-.73.73A6.28,6.28,0,0,0,8,2.5C5.21,2.5,3.26,4.29,3,6H2c.25-2.28,2.69-4.5,6-4.5A7.06,7.06,0,0,1,11.56,2.44Z"/></svg>