<svg id="e" xmlns="http://www.w3.org/2000/svg" viewBox="0 0 16 16"><defs><style>.cls-1,.cls-2,.cls-3{isolation:isolate;}.cls-2,.cls-4{fill:gray;}.cls-3{fill:none;stroke:gray;stroke-linecap:round;stroke-miterlimit:10;}</style></defs><title>16</title><g id="_16" data-name="16" class="cls-1"><path class="cls-2" d="M5,6.79,3.44,8.94a.51.51,0,0,1-.81,0L1.09,6.79A.5.5,0,0,1,1.5,6H4.59A.5.5,0,0,1,5,6.79Z"/><path class="cls-3" d="M3,6.25A4.82,4.82,0,0,1,8,2.5a6.41,6.41,0,0,1,3,.75"/><path class="cls-4" d="M12.64,3.08,14,4.38l-7.1,7.1a2.13,2.13,0,0,1-.6.42l-1.81.69.86-2,0,0v0a1.2,1.2,0,0,1,.21-.34l7.1-7.09m0-1.06A.79.79,0,0,0,12,2.3L4.84,9.46a2,2,0,0,0-.46.73L3,13.36a.49.49,0,0,0,.46.64c.09,0,3.17-1.18,3.17-1.18a3.14,3.14,0,0,0,.91-.63L14.73,5a.88.88,0,0,0,0-1.27L13.28,2.3A.83.83,0,0,0,12.64,2Z"/></g></svg>