<svg id="e" xmlns="http://www.w3.org/2000/svg" viewBox="0 0 16 16"><defs><style>.cls-1{fill:gray;}.cls-2,.cls-3{fill:none;stroke:gray;stroke-linecap:round;stroke-miterlimit:10;}.cls-3{stroke-width:0.5px;}</style></defs><title>16</title><g id="_16" data-name="16"><rect class="cls-1" x="1" y="6" width="14" height="1"/><path class="cls-1" d="M13,4a1,1,0,0,1,1,1v8a1,1,0,0,1-1,1H3a1,1,0,0,1-1-1V5A1,1,0,0,1,3,4H13m0-1H3A2,2,0,0,0,1,5v8a2,2,0,0,0,2,2H13a2,2,0,0,0,2-2V5a2,2,0,0,0-2-2Z"/><line class="cls-2" x1="4.5" y1="2.5" x2="4.5" y2="4.5"/><line class="cls-2" x1="11.5" y1="2.5" x2="11.5" y2="4.5"/><path class="cls-1" d="M4,9.5a.5.5,0,0,1,0,1,.5.5,0,0,1,0-1M4,9a.94.94,0,0,0-1,1,.94.94,0,0,0,1,1,.94.94,0,0,0,1-1A.94.94,0,0,0,4,9Z"/><path class="cls-1" d="M12,9.5a.5.5,0,1,1-.5.5.45.45,0,0,1,.5-.5M12,9a.94.94,0,0,0-1,1,1,1,0,0,0,2,0,.94.94,0,0,0-1-1Z"/><line class="cls-3" x1="7.25" y1="9.25" x2="8.75" y2="10.75"/><line class="cls-3" x1="8.75" y1="9.25" x2="7.25" y2="10.75"/></g></svg>