<svg id="f" xmlns="http://www.w3.org/2000/svg" viewBox="0 0 16 16"><defs><style>.cls-1{fill:gray;}</style></defs><title>16</title><g id="_16" data-name="16"><g id="path10873"><path class="cls-1" d="M8.94,3h0A1.08,1.08,0,0,1,10,4.06L10,13H2V3H8.94m0-1H1V14H11l0-9.94A2.08,2.08,0,0,0,8.94,2Z"/></g><path id="path10910" class="cls-1" d="M11,2a2.13,2.13,0,0,1,1,2V14h1V4C13,2.72,11,2,11,2Z"/><path id="path10912" class="cls-1" d="M13,2a2.13,2.13,0,0,1,1,2V14h1V4C15,2.72,13,2,13,2Z"/><path class="cls-1" d="M5.5,8,4.29,6.79A1,1,0,0,1,4,6.09V5H5.09a1,1,0,0,1,.7.29L8.5,8,5.78,10.71a1,1,0,0,1-.7.29H4V9.91a1,1,0,0,1,.29-.7Z"/></g></svg>