<svg id="f" xmlns="http://www.w3.org/2000/svg" viewBox="0 0 16 16"><defs><style>.cls-1{fill:none;stroke:gray;stroke-linecap:round;stroke-miterlimit:10;}.cls-2{fill:gray;}</style></defs><title>16</title><g id="_16" data-name="16"><path class="cls-1" d="M14.5,8.5V6.43a2.14,2.14,0,0,0-2-1.93H9.22c-.72,0-1.05.11-1.25-.37C7.63,3.29,7.19,2.5,6.11,2.5h-3A1.79,1.79,0,0,0,1.5,4.07v7.72A1.67,1.67,0,0,0,3.12,13.5H9.5"/><path class="cls-2" d="M15.5,11H13V8.5a.5.5,0,0,0-1,0V11H9.5a.5.5,0,0,0,0,1H12v2.5a.5.5,0,0,0,1,0V12h2.5a.5.5,0,0,0,0-1Z"/></g></svg>