<svg id="f" xmlns="http://www.w3.org/2000/svg" viewBox="0 0 16 16"><defs><style>.cls-1{fill:none;stroke:gray;stroke-miterlimit:10;}</style></defs><title>16</title><g id="_16" data-name="16"><path class="cls-1" d="M5.5,6.5h3l2,2h3a1,1,0,0,1,1,1v4a1,1,0,0,1-1,1h-8a1,1,0,0,1-1-1v-6A1,1,0,0,1,5.5,6.5Z"/><path class="cls-1" d="M1.5,3V2.5a1,1,0,0,1,1-1H3"/><polyline class="cls-1" points="6.5 3 7 3.5 8 3.5"/><polyline class="cls-1" points="4 1.5 5 1.5 5.5 2"/><line class="cls-1" x1="9.5" y1="3" x2="9.5" y2="4"/><line class="cls-1" x1="11.5" y1="3" x2="11.5" y2="4"/><line class="cls-1" x1="11.5" y1="5" x2="11.5" y2="6"/><line class="cls-1" x1="1.5" y1="4" x2="1.5" y2="5"/><line class="cls-1" x1="1.5" y1="6" x2="1.5" y2="7"/><path class="cls-1" d="M3,9.5H2.5a1,1,0,0,1-1-1V8"/></g></svg>