<svg id="f" xmlns="http://www.w3.org/2000/svg" viewBox="0 0 16 16"><defs><style>.cls-1{fill:gray;}.cls-2,.cls-3{fill:none;stroke:gray;stroke-miterlimit:10;}.cls-2{stroke-linecap:round;}</style></defs><title>16</title><g id="_16" data-name="16"><path class="cls-1" d="M2.5,7a1.5,1.5,0,0,1,0,3,1.5,1.5,0,0,1,0-3m0-1a2.5,2.5,0,0,0,0,5,2.5,2.5,0,0,0,0-5Z"/><path class="cls-1" d="M8.5,7A1.5,1.5,0,1,1,7,8.5,1.54,1.54,0,0,1,8.5,7m0-1A2.5,2.5,0,1,0,11,8.5,2.48,2.48,0,0,0,8.5,6Z"/><path class="cls-2" d="M15.1,9.7a1.94,1.94,0,0,1-1.6.8,2,2,0,0,1,0-4,1.94,1.94,0,0,1,1.6.8"/><line class="cls-3" x1="4.5" y1="6" x2="4.5" y2="11"/><line class="cls-3" x1="6.5" y1="4" x2="6.5" y2="11"/><line class="cls-3" y1="8.5" x2="16" y2="8.5"/></g></svg>