<svg id="文字编辑" xmlns="http://www.w3.org/2000/svg" viewBox="0 0 16 16"><defs><style>.cls-1{fill:#1f2022;opacity:0.75;}</style></defs><title>format-text-strikethrough-symbolic</title><path class="cls-1" d="M16,8H12.07a1.51,1.51,0,0,1,1.41-1,1.49,1.49,0,0,1,1.13.53h1.17A2.5,2.5,0,0,0,11,8h-.58A2.5,2.5,0,0,0,8,6a2.45,2.45,0,0,0-1.5.51v-2h-1V8H5V6H4v.51A2.45,2.45,0,0,0,2.5,6,2.5,2.5,0,0,0,.05,8H0V9H.05A2.5,2.5,0,0,0,2.5,11,2.45,2.45,0,0,0,4,10.49V11H5V9h.5v2h1v-.51A2.45,2.45,0,0,0,8,11a2.5,2.5,0,0,0,2.45-2H11a2.49,2.49,0,0,0,4.72.53H14.57A1.5,1.5,0,0,1,12.07,9H16ZM8,7A1.51,1.51,0,0,1,9.41,8H6.59A1.51,1.51,0,0,1,8,7ZM2.5,7A1.51,1.51,0,0,1,3.91,8H1.09A1.51,1.51,0,0,1,2.5,7Zm0,3A1.51,1.51,0,0,1,1.09,9H3.91A1.51,1.51,0,0,1,2.5,10ZM8,10A1.51,1.51,0,0,1,6.59,9H9.41A1.51,1.51,0,0,1,8,10Z"/></svg>