<svg id="文字编辑" xmlns="http://www.w3.org/2000/svg" viewBox="0 0 16 16"><defs><style>.cls-1{fill:#1f2022;opacity:0.75;isolation:isolate;}</style></defs><title>format-text-bold-symbolic</title><path class="cls-1" d="M6.86,14c-.62,0-1.69-.06-1.87-.07a9,9,0,0,1-2-.33V2.31c.61-.11,1.18-.16,1.77-.24A13.5,13.5,0,0,1,6.56,2a11.21,11.21,0,0,1,2,.2,5.49,5.49,0,0,1,1.58.5,2.44,2.44,0,0,1,1,1,2.59,2.59,0,0,1,.4,1.6,2.51,2.51,0,0,1-1.39,2.2A3,3,0,0,1,11.6,8.6a3,3,0,0,1,.4,1.6A3.72,3.72,0,0,1,10.69,13,5.83,5.83,0,0,1,6.86,14ZM5.57,8.7v3.1H6.86a3.74,3.74,0,0,0,1.88-.3c.54-.29.59-.61.69-1.3a1.17,1.17,0,0,0-.59-1.1,3.75,3.75,0,0,0-1.69-.4Zm0-2H6.86a3.53,3.53,0,0,0,1.63-.28A1,1,0,0,0,9,5.5a1.25,1.25,0,0,0-.49-1.1A3,3,0,0,0,7,4.1H5.57Z"/></svg>