<svg id="f" xmlns="http://www.w3.org/2000/svg" viewBox="0 0 16 16"><defs><style>.cls-1{fill:none;stroke:gray;stroke-miterlimit:10;}</style></defs><title>16</title><g id="_16" data-name="16"><path class="cls-1" d="M4.51,1.5a3.55,3.55,0,0,0-1,.2L4.81,3,3,4.8,1.71,3.5a2.86,2.86,0,0,0,1.8,3.8,3,3,0,0,0,3.8-1.8,3,3,0,0,0-1.8-3.8A3.55,3.55,0,0,0,4.51,1.5Z"/><path class="cls-1" d="M11.51,14.5a3.55,3.55,0,0,0,1-.2L11.21,13,13,11.2l1.3,1.3a2.93,2.93,0,0,0-1.8-3.8,3,3,0,0,0-3.8,1.8,3,3,0,0,0,1.8,3.8,3,3,0,0,0,1,.2Z"/><line class="cls-1" x1="7.2" y1="5.69" x2="10.3" y2="8.69"/><line class="cls-1" x1="5.82" y1="7.41" x2="8.92" y2="10.41"/></g></svg>