<svg id="g" xmlns="http://www.w3.org/2000/svg" viewBox="0 0 16 16"><defs><style>.cls-1,.cls-2{fill:none;stroke:gray;stroke-miterlimit:10;isolation:isolate;}.cls-1{stroke-linecap:round;}.cls-3{fill:gray;}</style></defs><title>16</title><g id="_16" data-name="16"><path class="cls-1" d="M13.5,6.5v6a2,2,0,0,1-2,2h-7a2,2,0,0,1-2-2v-6"/><path class="cls-2" d="M6.5,14.5v-4a1,1,0,0,1,1-1h1a1,1,0,0,1,1,1v4"/><path class="cls-1" d="M1,8,5.17,3.5,6.59,2.08a2,2,0,0,1,2.82,0L10.83,3.5,15,8"/><path class="cls-3" d="M14,7,12,5V3a1,1,0,0,1,1-1h0a1,1,0,0,1,1,1Z"/></g></svg>