<svg id="g" xmlns="http://www.w3.org/2000/svg" viewBox="0 0 16 16"><defs><style>.cls-1{fill:gray;}.cls-2{fill:red;}.cls-3{fill:none;stroke:gray;stroke-linecap:round;stroke-miterlimit:10;}</style></defs><title>16</title><g id="_16" data-name="16"><rect class="cls-1" x="1" y="5" width="14" height="1"/><rect class="cls-1" x="4" y="8" width="1" height="1"/><rect class="cls-1" x="7" y="8" width="1" height="1"/><rect class="cls-2" x="10" y="8" width="2" height="2"/><path class="cls-1" d="M13,3a1,1,0,0,1,1,1v9a1,1,0,0,1-1,1H3a1,1,0,0,1-1-1V4A1,1,0,0,1,3,3H13m0-1H3A2,2,0,0,0,1,4v9a2,2,0,0,0,2,2H13a2,2,0,0,0,2-2V4a2,2,0,0,0-2-2Z"/><rect class="cls-1" x="4" y="11" width="1" height="1"/><rect class="cls-1" x="7" y="11" width="1" height="1"/><rect class="cls-1" x="10" y="11" width="1" height="1"/><line class="cls-3" x1="11.5" y1="1.5" x2="11.5" y2="3.5"/><line class="cls-3" x1="4.5" y1="1.5" x2="4.5" y2="3.5"/></g></svg>