<svg id="g" xmlns="http://www.w3.org/2000/svg" viewBox="0 0 16 16"><defs><style>.cls-1{fill:gray;}</style></defs><title>16</title><g id="_16" data-name="16"><path class="cls-1" d="M5.39,6.8c0-.9.1-1.6.7-2a2.69,2.69,0,0,1,1.5-.5,2.46,2.46,0,0,1,1.5.5,1.8,1.8,0,0,1,.7,1.5,2.43,2.43,0,0,1-.9,1.8,6.47,6.47,0,0,0-.8.9,3.55,3.55,0,0,0-.2,1H7a5,5,0,0,1,.2-1.2,2.72,2.72,0,0,1,.8-1l.1-.1c.6-.5.8-.9.7-1.3a1.3,1.3,0,0,0-1.2-1.3h-.1c-.9,0-1.4.6-1.4,1.7Z"/><rect class="cls-1" x="6.99" y="11" width="1" height="1"/><path class="cls-1" d="M8,2a5.94,5.94,0,0,1,6,6,5.94,5.94,0,0,1-6,6A5.94,5.94,0,0,1,2,8,5.94,5.94,0,0,1,8,2M8,1A7,7,0,0,0,1,8a7,7,0,0,0,7,7,7,7,0,0,0,7-7A7,7,0,0,0,8,1Z"/></g></svg>