<svg xmlns="http://www.w3.org/2000/svg" viewBox="0 0 16 16"><defs><style>.cls-1{fill:gray;}</style></defs><title>16</title><g id="h"><g id="_16" data-name="16"><g id="path67"><path class="cls-1" d="M8,2.73c.21.48.43,1,.57,1.44a6.91,6.91,0,0,0,1.06,2.2,6.91,6.91,0,0,0,2.2,1.06c.39.14,1,.36,1.44.57-.48.21-1,.43-1.44.57a6.91,6.91,0,0,0-2.2,1.06,6.91,6.91,0,0,0-1.06,2.2c-.14.39-.36,1-.57,1.44-.21-.48-.43-1-.57-1.44a6.91,6.91,0,0,0-1.06-2.2,6.91,6.91,0,0,0-2.2-1.06c-.39-.14-1-.36-1.44-.57.48-.21,1-.43,1.44-.57a6.91,6.91,0,0,0,2.2-1.06,6.91,6.91,0,0,0,1.06-2.2c.14-.39.36-1,.57-1.44M8,1C7.28,1,6.17,5.15,5.66,5.66S1,7.28,1,8s4.15,1.83,4.66,2.34S7.28,15,8,15s1.83-4.15,2.34-4.66S15,8.72,15,8s-4.15-1.83-4.66-2.34S8.72,1,8,1Z"/></g></g></g></svg>