<svg id="i" xmlns="http://www.w3.org/2000/svg" viewBox="0 0 16 16"><defs><style>.cls-1{fill:gray;}.cls-2{fill:none;stroke:gray;stroke-linecap:round;stroke-miterlimit:10;}</style></defs><title>16</title><g id="_16" data-name="16"><path class="cls-1" d="M8.05,2C11.33,2,14,4.2,14,6.9s-2.71,4.9-6,4.9a8.32,8.32,0,0,1-1.47-.18l-.43-.08-.35.25L4,13V10.45l-.34-.3A4.6,4.6,0,0,1,2,6.9C2,4.15,4.66,2,8.05,2m0-1C4.11,1,1,3.6,1,6.9a5.59,5.59,0,0,0,2,4V15l3.29-2.4A9.4,9.4,0,0,0,8,12.8c3.84,0,7.05-2.6,7.05-5.9S11.89,1,8.05,1Z"/><line class="cls-2" x1="4.5" y1="8.5" x2="7.5" y2="8.5"/><line class="cls-2" x1="4.5" y1="5.5" x2="11.5" y2="5.5"/></g></svg>