<svg id="h" xmlns="http://www.w3.org/2000/svg" viewBox="0 0 16 16"><defs><style>.cls-1{fill:gray;}.cls-2{fill:none;stroke:gray;stroke-linecap:round;stroke-miterlimit:10;}</style></defs><title>16</title><g id="_16" data-name="16"><path class="cls-1" d="M13,2a1,1,0,0,1,1,1V13a1,1,0,0,1-1,1H3a1,1,0,0,1-1-1V3A1,1,0,0,1,3,2H13m0-1H3A2,2,0,0,0,1,3V13a2,2,0,0,0,2,2H13a2,2,0,0,0,2-2V3a2,2,0,0,0-2-2Z"/><path class="cls-1" d="M8.9,4a.47.47,0,0,1,.5.5.5.5,0,0,1-1,0A.47.47,0,0,1,8.9,4m0-1A1.46,1.46,0,0,0,7.4,4.5a1.5,1.5,0,0,0,3,0A1.46,1.46,0,0,0,8.9,3Z"/><line class="cls-2" x1="3.5" y1="11.5" x2="8.5" y2="11.5"/><line class="cls-2" x1="11.2" y1="11.5" x2="12.5" y2="11.5"/><path class="cls-1" d="M5.9,8a.5.5,0,1,1-.5.5A.47.47,0,0,1,5.9,8m0-1a1.5,1.5,0,0,0,0,3,1.5,1.5,0,0,0,0-3Z"/><line class="cls-2" x1="3.5" y1="8.5" x2="4.5" y2="8.5"/><line class="cls-2" x1="7.2" y1="8.5" x2="12.5" y2="8.5"/><line class="cls-2" x1="3.5" y1="4.5" x2="7.5" y2="4.5"/><line class="cls-2" x1="10.2" y1="4.5" x2="12.5" y2="4.5"/><path class="cls-1" d="M9.8,11a.5.5,0,1,1-.5.5.47.47,0,0,1,.5-.5m0-1a1.5,1.5,0,1,0,1.5,1.5A1.46,1.46,0,0,0,9.8,10Z"/></g></svg>