<svg id="i" xmlns="http://www.w3.org/2000/svg" viewBox="0 0 16 16"><defs><style>.cls-1{fill:gray;}.cls-2{fill:#ce1b1b;}.cls-3{fill:#fff;}</style></defs><title>16</title><g id="_16" data-name="16"><path class="cls-1" d="M8,5.5A8.73,8.73,0,0,1,13.8,8,8.73,8.73,0,0,1,8,10.5,8.73,8.73,0,0,1,2.2,8,8.73,8.73,0,0,1,8,5.5m0-1c-3.9,0-7,3-7,3.5s3.1,3.5,7,3.5,7-3,7-3.5S11.9,4.5,8,4.5Z"/><path class="cls-2" d="M8,5.5A2.5,2.5,0,1,0,10.5,8,2.48,2.48,0,0,0,8,5.5Z"/><circle class="cls-3" cx="8" cy="8" r="1"/></g></svg>