<svg id="h" xmlns="http://www.w3.org/2000/svg" viewBox="0 0 16 16"><defs><style>.cls-1{fill:gray;}</style></defs><title>16</title><g id="_16" data-name="16"><path class="cls-1" d="M12,5.83a1.9,1.9,0,0,0-.5-1.3,1.88,1.88,0,0,0-2.62,0L1.53,11.86a1.85,1.85,0,0,0,2.62,2.61l3-3h0L11.5,7.14A1.91,1.91,0,0,0,12,5.83ZM1.93,14.07a1.05,1.05,0,0,1,0-1.61h0L6.16,8.24a1.23,1.23,0,0,1,1.61.1,1.1,1.1,0,0,1,0,1.51L3.64,14.07a1.16,1.16,0,0,1-1.71,0ZM11,6.64,8.78,8.85A1.82,1.82,0,0,0,7.17,7.24L9.28,5A1.16,1.16,0,0,1,11,5,1.11,1.11,0,0,1,11,6.64Z"/><polygon class="cls-1" points="7.66 2.94 7.16 3.14 7.06 3.84 6.56 3.34 5.96 3.44 6.26 2.94 5.96 2.34 6.56 2.44 7.06 1.94 7.16 2.64 7.66 2.94"/><polygon class="cls-1" points="12.46 1.74 11.86 2.54 12.16 3.34 11.36 3.04 10.56 3.54 10.56 2.64 9.86 2.14 10.76 1.94 11.06 1.04 11.56 1.74 12.46 1.74"/><polygon class="cls-1" points="14.96 7.44 14.56 7.64 14.46 8.04 14.16 7.74 13.76 7.84 13.96 7.44 13.76 7.04 14.16 7.04 14.46 6.74 14.56 7.24 14.96 7.44"/></g></svg>