<svg id="h" xmlns="http://www.w3.org/2000/svg" viewBox="0 0 16 16"><defs><style>.cls-1{fill:none;stroke:gray;stroke-linecap:round;stroke-miterlimit:10;}.cls-2,.cls-3{fill:gray;}.cls-3{opacity:0.2;isolation:isolate;}</style></defs><title>16</title><g id="_16" data-name="16"><line class="cls-1" x1="1.5" y1="1.5" x2="1.5" y2="14.5"/><line class="cls-1" x1="14.5" y1="14.5" x2="1.5" y2="14.5"/><path id="path46082" class="cls-2" d="M13.5,1.07a.5.5,0,0,0-.49.51h0a5.29,5.29,0,0,1-.71,3.21c-.65.93-1.89,1.76-4.42,2.27a8.07,8.07,0,0,0-5.31,3.06A11.27,11.27,0,0,0,1,14.4a.52.52,0,0,0,.39.6A.51.51,0,0,0,2,14.61H2a10.49,10.49,0,0,1,1.4-3.91C4.21,9.53,5.54,8.55,8.08,8s4.21-1.48,5-2.68A6.2,6.2,0,0,0,14,1.56a.49.49,0,0,0-.5-.49Z"/><path id="path46084" class="cls-3" d="M1.5,14.51C2.07,11.8,2.76,9.14,8,8c5.22-1,5.09-3.65,6-6V14.55Z"/></g></svg>