<svg id="h" xmlns="http://www.w3.org/2000/svg" viewBox="0 0 16 16"><defs><style>.cls-1{fill:gray;}</style></defs><title>16</title><g id="_16" data-name="16"><rect id="rect44755" class="cls-1" x="1" y="1" width="2" height="2"/><rect id="rect44757" class="cls-1" x="3" y="1" width="2" height="2"/><rect id="rect44759" class="cls-1" x="5" y="1" width="2" height="2"/><rect id="rect44761" class="cls-1" x="5" y="3" width="2" height="2"/><rect id="rect44763" class="cls-1" x="3" y="5" width="2" height="2"/><rect id="rect44765" class="cls-1" x="1" y="7" width="2" height="2"/><rect id="rect44767" class="cls-1" x="3" y="9" width="2" height="2"/><rect id="rect44769" class="cls-1" x="5" y="7" width="2" height="2"/><rect id="rect44771" class="cls-1" x="7" y="5" width="2" height="2"/><rect id="rect44773" class="cls-1" x="9" y="5" width="2" height="2"/><rect id="rect44775" class="cls-1" x="9" y="1" width="2" height="2"/><rect id="rect44777" class="cls-1" x="11" y="3" width="2" height="2"/><rect id="rect44779" class="cls-1" x="11" y="9" width="2" height="2"/><rect id="rect44781" class="cls-1" x="7" y="11" width="2" height="2"/><rect id="rect44783" class="cls-1" x="9" y="13" width="2" height="2"/><rect id="rect44785" class="cls-1" x="3" y="13" width="2" height="2"/><rect id="rect44787" class="cls-1" x="13" y="11" width="2" height="2"/><rect id="rect44789" class="cls-1" x="13" y="13" width="2" height="2"/><rect id="rect44791" class="cls-1" x="13" y="13" width="2" height="2"/></g></svg>