<svg id="嵌入" xmlns="http://www.w3.org/2000/svg" viewBox="0 0 16 16"><defs><style>.cls-1{opacity:0.75;}.cls-2{fill:#1f2022;}</style></defs><title>insert-text-symbolic</title><g class="cls-1"><path class="cls-2" d="M3.21,3.08l0-.08h-1l0,.08L0,9H1.06l.52-1.42h2.2L4.3,9H5.37ZM1.94,6.58l.74-2,.74,2Z"/><path class="cls-2" d="M9.33,5.89a1.73,1.73,0,0,0,.43-1.14A1.75,1.75,0,0,0,8,3H6V9H8.25A1.76,1.76,0,0,0,10,7.25,1.71,1.71,0,0,0,9.33,5.89ZM7,4H8A.75.75,0,0,1,8,5.5H7ZM8.25,8H7V6.5H8.25a.75.75,0,0,1,0,1.5Z"/><path class="cls-2" d="M14.84,6.88A1.56,1.56,0,0,1,13.5,8C12.69,8,12,7.08,12,6s.69-2,1.5-2a1.53,1.53,0,0,1,1.32,1.09l.95-.34A2.51,2.51,0,0,0,13.5,3,2.78,2.78,0,0,0,11,6a2.78,2.78,0,0,0,2.5,3,2.52,2.52,0,0,0,2.29-1.8Z"/><polygon class="cls-2" points="9 10 16 10 12.5 15 9 10"/></g></svg>