<svg id="i" xmlns="http://www.w3.org/2000/svg" viewBox="0 0 16 16"><defs><style>.cls-1{fill:gray;}.cls-2{fill:none;stroke:gray;stroke-linecap:round;stroke-miterlimit:10;}</style></defs><title>16</title><g id="_16" data-name="16"><path class="cls-1" d="M10.35,11h4.39a.43.43,0,0,1,.36.68l-2.2,3.14a.44.44,0,0,1-.71,0L10,11.68A.43.43,0,0,1,10.35,11Z"/><path class="cls-2" d="M9.09,12,7.64,13.45a3.61,3.61,0,0,1-5.09,0h0a3.61,3.61,0,0,1,0-5.09L4,6.91"/><path class="cls-2" d="M6.91,4,8.36,2.55a3.61,3.61,0,0,1,5.09,0h0a3.61,3.61,0,0,1,0,5.09L12,9.09"/><line class="cls-2" x1="9.82" y1="6.18" x2="6.18" y2="9.82"/></g></svg>