<svg id="i" xmlns="http://www.w3.org/2000/svg" viewBox="0 0 16 16"><defs><style>.cls-1{fill:gray;}.cls-1,.cls-2{isolation:isolate;}.cls-2,.cls-3{fill:none;stroke:gray;stroke-linecap:round;stroke-miterlimit:10;}</style></defs><title>16</title><g id="_16" data-name="16"><path class="cls-1" d="M11.84,15.06l-2-2.8A.8.8,0,0,1,10.54,11h3.92a.8.8,0,0,1,.66,1.26l-2,2.8A.8.8,0,0,1,11.84,15.06Z"/><path class="cls-2" d="M14.5,8.93V3.5a2,2,0,0,0-2-2h-9a2,2,0,0,0-2,2v9a2,2,0,0,0,2,2h5"/><path class="cls-1" d="M12,6a1,1,0,0,0-1-1H4A1,1,0,0,0,3,6v6a1,1,0,0,0,1,1H6a1,1,0,0,0,1-1V10A1,1,0,0,1,8,9h3a1,1,0,0,0,1-1Z"/><line class="cls-3" x1="3.5" y1="3.5" x2="12.5" y2="3.5"/></g></svg>