<svg id="i" xmlns="http://www.w3.org/2000/svg" viewBox="0 0 16 16"><defs><style>.cls-1{fill:gray;}.cls-1,.cls-2{isolation:isolate;}.cls-2{fill:none;stroke:gray;stroke-linecap:round;stroke-miterlimit:10;}</style></defs><title>16</title><g id="_16" data-name="16"><circle class="cls-1" cx="12" cy="5" r="1"/><path class="cls-1" d="M8.22,6.94,6.5,9,5.42,8.28a.5.5,0,0,0-.7.14L3,11H13L9.77,7A1,1,0,0,0,8.22,6.94Z"/><path class="cls-1" d="M7,12h4a.5.5,0,0,1,.4.8l-2,2.67a.51.51,0,0,1-.8,0l-2-2.67A.5.5,0,0,1,7,12Z"/><path class="cls-2" d="M12.5,13.5h0a2,2,0,0,0,2-2v-7a2,2,0,0,0-2-2h-9a2,2,0,0,0-2,2v7a2,2,0,0,0,2,2h2"/></g></svg>