<svg id="m" xmlns="http://www.w3.org/2000/svg" viewBox="0 0 16 16"><defs><style>.cls-1,.cls-2,.cls-3{fill:none;stroke:gray;stroke-miterlimit:10;}.cls-2,.cls-3{stroke-linecap:round;}.cls-3{stroke-dasharray:1.86 1.86;}</style></defs><title>16</title><g id="_16" data-name="16"><line class="cls-1" x1="8.37" y1="9.14" x2="3.8" y2="13.22"/><line class="cls-1" x1="15.22" y1="13.2" x2="10.5" y2="9.27"/><path class="cls-1" d="M15.22,5.8,10.1,9.56a1,1,0,0,1-1.2,0l-5-3.84"/><path class="cls-1" d="M14.5,6.5m0-1H4.5a1,1,0,0,0-1,1v6a1,1,0,0,0,1,1h10a1,1,0,0,0,1-1v-6A1,1,0,0,0,14.5,5.5Z"/><line class="cls-2" x1="12.5" y1="3.5" x2="11.5" y2="3.5"/><path class="cls-3" d="M9.64,3.5H4.5a3,3,0,0,0-3,3v4.07"/><line class="cls-2" x1="1.5" y1="11.5" x2="1.5" y2="12.5"/></g></svg>