<svg id="m" xmlns="http://www.w3.org/2000/svg" viewBox="0 0 16 16"><defs><style>.cls-1{fill:#ea572a;}.cls-2,.cls-3{fill:none;stroke:gray;stroke-miterlimit:10;}.cls-3{stroke-linecap:round;}</style></defs><title>16</title><g id="_16" data-name="16"><path class="cls-1" d="M11.5,9A2.5,2.5,0,1,1,9,11.5,2.53,2.53,0,0,1,11.5,9m0-1A3.5,3.5,0,1,0,15,11.5,3.54,3.54,0,0,0,11.5,8Z"/><rect class="cls-1" x="11" y="10" width="1" height="2"/><rect class="cls-1" x="11" y="12.5" width="1" height="1"/><path class="cls-2" d="M1.7,3.63l5.73,4a1,1,0,0,0,1.14,0L14.5,3.5"/><line class="cls-2" x1="6.76" y1="7.22" x2="2.04" y2="11.87"/><path class="cls-3" d="M6.5,12.5h-3a2,2,0,0,1-2-2v-6a2,2,0,0,1,2-2h9a2,2,0,0,1,2,2v3"/></g></svg>