<svg id="m" xmlns="http://www.w3.org/2000/svg" viewBox="0 0 16 16"><defs><style>.cls-1{fill:none;stroke:gray;stroke-miterlimit:10;}.cls-2{fill:#27bc08;}</style></defs><title>16</title><g id="_16" data-name="16"><path class="cls-1" d="M6.81,2.3,2.3,5.7a2,2,0,0,0-.8,1.6v5.2a2,2,0,0,0,2,2h9.1a2,2,0,0,0,2-2V7.31a2,2,0,0,0-.81-1.61L9.2,2.29A2,2,0,0,0,6.81,2.3Z"/><path class="cls-1" d="M14.5,14,8.58,9.72a1,1,0,0,0-1.16,0L1.5,13.9"/><line class="cls-1" x1="7.2" y1="10.1" x2="1.5" y2="6"/><line class="cls-1" x1="14.3" y1="6.1" x2="8.6" y2="10.1"/><polygon class="cls-2" points="12 12 16 12 16 14 12 14 12 15.5 9 13 12 10.5 12 12"/></g></svg>