<svg id="i" xmlns="http://www.w3.org/2000/svg" viewBox="0 0 16 16"><defs><style>.cls-1,.cls-2,.cls-4,.cls-5{fill:none;stroke-miterlimit:10;}.cls-1,.cls-2{stroke:#ea572a;}.cls-2,.cls-5{stroke-linecap:round;}.cls-3{fill:#ea572a;}.cls-4,.cls-5{stroke:gray;}</style></defs><title>16</title><g id="_16" data-name="16"><line class="cls-1" x1="13.4" y1="13.4" x2="9.63" y2="9.63"/><line class="cls-2" x1="9.77" y1="13.23" x2="13.23" y2="9.77"/><path class="cls-3" d="M11.5,9A2.5,2.5,0,1,1,9,11.5,2.53,2.53,0,0,1,11.5,9m0-1A3.5,3.5,0,1,0,15,11.5,3.54,3.54,0,0,0,11.5,8Z"/><path class="cls-4" d="M1.7,3.63l5.73,4a1,1,0,0,0,1.14,0L14.5,3.5"/><line class="cls-4" x1="6.76" y1="7.22" x2="2.04" y2="11.87"/><path class="cls-5" d="M6.5,12.5h-3a2,2,0,0,1-2-2v-6a2,2,0,0,1,2-2h9a2,2,0,0,1,2,2v3"/></g></svg>