<svg xmlns="http://www.w3.org/2000/svg" viewBox="0 0 16 16"><defs><style>.cls-1{fill:gray;}</style></defs><title>16</title><g id="m"><g id="_16" data-name="16"><rect class="cls-1" x="4" y="3" width="1" height="10"/><rect class="cls-1" x="11" y="3" width="1" height="10"/><rect class="cls-1" x="7" y="3" width="1" height="10"/><rect class="cls-1" x="3" y="5" width="3" height="1"/><rect class="cls-1" x="6" y="10" width="3" height="1"/><rect class="cls-1" x="10" y="7" width="3" height="1"/><path class="cls-1" d="M13,2a1,1,0,0,1,1,1V13a1,1,0,0,1-1,1H3a1,1,0,0,1-1-1V3A1,1,0,0,1,3,2H13m0-1H3A2,2,0,0,0,1,3V13a2,2,0,0,0,2,2H13a2,2,0,0,0,2-2V3a2,2,0,0,0-2-2Z"/></g></g></svg>