<svg xmlns="http://www.w3.org/2000/svg" viewBox="0 0 16 16"><defs><style>.cls-1,.cls-2,.cls-4{fill:none;}.cls-1,.cls-2{stroke:gray;stroke-linecap:round;}.cls-1,.cls-4{stroke-miterlimit:10;}.cls-2{stroke-linejoin:round;}.cls-3{fill:#ea572a;}.cls-4{stroke:#ea572a;}</style></defs><title>16</title><g id="m"><g id="_16" data-name="16"><g id="_16-2" data-name=" 16"><path class="cls-1" d="M7.3,7h0a3.54,3.54,0,0,1,3.5-3.5h3.6"/><path class="cls-1" d="M14.4,10.5H11a3.61,3.61,0,0,1-2-.6"/><path class="cls-1" d="M7.3,7h0a3.56,3.56,0,0,1-3.6,3.5H1.5"/><path class="cls-1" d="M1.5,3.5H3.7a3.61,3.61,0,0,1,2,.6"/><polyline class="cls-2" points="13 8.97 14.97 10.5 13 12.01"/><polyline class="cls-2" points="13 1.97 14.97 3.5 13 5.01"/></g><path class="cls-3" d="M4.5,9a2.5,2.5,0,0,1,0,5,2.5,2.5,0,0,1,0-5m0-1a3.5,3.5,0,0,0,0,7,3.5,3.5,0,0,0,0-7Z"/><line class="cls-4" x1="6.5" y1="9.5" x2="2.5" y2="13.5"/><line class="cls-4" x1="2.5" y1="9.5" x2="6.5" y2="13.5"/></g></g></svg>