<svg xmlns="http://www.w3.org/2000/svg" viewBox="0 0 16 16"><defs><style>.cls-1{fill:gray;}.cls-2{fill:none;stroke:gray;stroke-linecap:round;stroke-linejoin:round;}</style></defs><title>16</title><g id="m"><g id="_16" data-name="16"><g id="_16-2" data-name="16"><path class="cls-1" d="M9.56,4A1.47,1.47,0,0,1,11,5.2,1,1,0,0,0,12,6h1.13L11.44,7.34a1,1,0,0,0-.38.79v2.36A1.51,1.51,0,0,1,9.56,12H2.5A1.5,1.5,0,0,1,1,10.5v-5A1.5,1.5,0,0,1,2.5,4H9.56m0-1H2.5A2.5,2.5,0,0,0,0,5.5v5A2.5,2.5,0,0,0,2.5,13H9.56a2.51,2.51,0,0,0,2.5-2.5V8.13L16,5H12A2.49,2.49,0,0,0,9.56,3Z"/></g><line class="cls-2" x1="2.5" y1="10.5" x2="6.5" y2="10.5"/><line class="cls-2" x1="2.5" y1="8.5" x2="9.5" y2="8.5"/></g></g></svg>