<svg xmlns="http://www.w3.org/2000/svg" viewBox="0 0 16 16"><defs><style>.cls-1,.cls-2{fill:none;stroke:gray;stroke-linecap:round;}.cls-1{stroke-miterlimit:10;}.cls-2{stroke-linejoin:round;}.cls-3{fill:#2196f3;}.cls-4{fill:#fff;}</style></defs><title>16</title><g id="m"><g id="_16" data-name="16"><path class="cls-1" d="M6.26,11.5A4.71,4.71,0,0,1,1.5,7.05h0A4.71,4.71,0,0,1,6.26,2.5H9.74A4.72,4.72,0,0,1,14.5,7.05h0A4.64,4.64,0,0,1,9.74,11.5h-1"/><polyline class="cls-2" points="10.5 9.8 8.5 11.5 10.5 13.2"/><circle class="cls-3" cx="8" cy="7" r="2"/><path class="cls-4" d="M8.3,5.5V8.6H7.7V6.2c-.1.1-.2.1-.3.2s-.3.1-.4.1V6a2.47,2.47,0,0,0,.9-.4Z"/></g></g></svg>