<svg xmlns="http://www.w3.org/2000/svg" viewBox="0 0 16 16"><defs><style>.cls-1{fill:gray;}.cls-2,.cls-4{fill:none;stroke-miterlimit:10;}.cls-2{stroke:gray;stroke-linecap:round;}.cls-3{fill:#61a232;}.cls-4{stroke:#61a232;stroke-width:2px;}</style></defs><title>16</title><g id="n"><g id="_16" data-name="16"><path class="cls-1" d="M10,2V5H6V2h4m0-1H6A1,1,0,0,0,5,2V5A1,1,0,0,0,6,6h4a1,1,0,0,0,1-1V2a1,1,0,0,0-1-1Z"/><path class="cls-1" d="M6,12v2H4V12H6m0-1H4a1,1,0,0,0-1,1v2a1,1,0,0,0,1,1H6a1,1,0,0,0,1-1V12a1,1,0,0,0-1-1Z"/><path class="cls-1" d="M12,12v2H10V12h2m0-1H10a1,1,0,0,0-1,1v2a1,1,0,0,0,1,1h2a1,1,0,0,0,1-1V12a1,1,0,0,0-1-1Z"/><line class="cls-2" x1="1.5" y1="12.5" x2="3.5" y2="12.5"/><line class="cls-2" x1="12.5" y1="12.5" x2="14.5" y2="12.5"/><line class="cls-2" x1="10.5" y1="3.5" x2="14.5" y2="3.5"/><path class="cls-3" d="M6.18,8.82l1.44,1.72a.49.49,0,0,0,.76,0L9.82,8.82A.5.5,0,0,0,9.43,8H6.57A.5.5,0,0,0,6.18,8.82Z"/><line class="cls-4" x1="8" y1="6" x2="8" y2="8"/></g></g></svg>