<svg xmlns="http://www.w3.org/2000/svg" viewBox="0 0 16 16"><defs><style>.cls-1{fill:gray;}.cls-2{fill:none;stroke:gray;stroke-linecap:round;stroke-miterlimit:10;}</style></defs><title>16</title><g id="n"><g id="_16" data-name="16"><path class="cls-1" d="M8,7.31a1,1,0,0,1,.72.3L9.91,8.84a1,1,0,0,1,0,1.4L8.71,11.43a1,1,0,0,1-1.42,0L6.1,10.24a1,1,0,0,1,0-1.4L7.28,7.61A1,1,0,0,1,8,7.31m0-1a2,2,0,0,0-1.43.61L5.37,8.14a2,2,0,0,0,0,2.81l1.2,1.19a2,2,0,0,0,2.82,0L10.61,11a2,2,0,0,0,0-2.81L9.43,6.92A2,2,0,0,0,8,6.31Z"/><line class="cls-2" x1="9.77" y1="7.87" x2="14.5" y2="3.5"/><line class="cls-2" x1="6.22" y1="7.89" x2="1.5" y2="3.5"/></g></g></svg>