<svg xmlns="http://www.w3.org/2000/svg" viewBox="0 0 16 16"><defs><style>.cls-1{fill:gray;}.cls-2{fill:none;stroke:gray;stroke-linecap:round;stroke-miterlimit:10;}</style></defs><title>16</title><g id="n"><g id="_16" data-name="16"><path class="cls-1" d="M5.22,8.35a1,1,0,0,1,.7.29l1.44,1.44a1,1,0,0,1,0,1.42L5.92,12.9a1,1,0,0,1-.7.29,1,1,0,0,1-.71-.29L3.1,11.49a1,1,0,0,1,0-1.41L4.5,8.65a1,1,0,0,1,.72-.3m0-1A2,2,0,0,0,3.79,8L2.38,9.39a2,2,0,0,0,0,2.81l1.4,1.4a2,2,0,0,0,1.42.59,2,2,0,0,0,1.39-.57l1.44-1.41a2,2,0,0,0,0-2.84L6.63,7.93a2,2,0,0,0-1.41-.58Z"/><line class="cls-2" x1="7" y1="9" x2="14.5" y2="1.5"/></g></g></svg>