<svg id="n" xmlns="http://www.w3.org/2000/svg" viewBox="0 0 16 16"><defs><style>.cls-1{fill:gray;}.cls-2,.cls-3{fill:none;stroke-linecap:round;stroke-miterlimit:10;}.cls-2{stroke:gray;}.cls-3{stroke:#ea572a;}</style></defs><title>16</title><g id="_16" data-name="16"><path class="cls-1" d="M9,5a1,1,0,0,1,1,1V7A1,1,0,0,1,9,8H7A1,1,0,0,1,6,7V6A1,1,0,0,1,7,5H9M9,4H7A2,2,0,0,0,5,6V7A2,2,0,0,0,7,9H9a2,2,0,0,0,2-2V6A2,2,0,0,0,9,4Z"/><line class="cls-2" x1="1.5" y1="6.5" x2="5.5" y2="6.5"/><line class="cls-2" x1="10.5" y1="6.5" x2="14.5" y2="6.5"/><line class="cls-3" x1="9.05" y1="9.5" x2="14" y2="14.45"/><line class="cls-3" x1="14" y1="9.5" x2="9.05" y2="14.45"/></g></svg>