<svg id="n" xmlns="http://www.w3.org/2000/svg" viewBox="0 0 16 16"><defs><style>.cls-1{fill:gray;}.cls-2{fill:none;stroke:gray;stroke-linecap:round;stroke-miterlimit:10;}.cls-3{fill:#dd9f07;}</style></defs><title>16</title><g id="_16" data-name="16"><path class="cls-1" d="M9,5a1,1,0,0,1,1,1V7A1,1,0,0,1,9,8H7A1,1,0,0,1,6,7V6A1,1,0,0,1,7,5H9M9,4H7A2,2,0,0,0,5,6V7A2,2,0,0,0,7,9H9a2,2,0,0,0,2-2V6A2,2,0,0,0,9,4Z"/><line class="cls-2" x1="1.5" y1="6.5" x2="5.5" y2="6.5"/><line class="cls-2" x1="10.5" y1="6.5" x2="14.5" y2="6.5"/><polygon class="cls-3" points="11 9 11.9 11 14 11.3 12.5 12.8 12.9 15 11 14 9.1 15 9.5 12.8 8 11.3 10.1 11 11 9"/></g></svg>