<svg id="n" xmlns="http://www.w3.org/2000/svg" viewBox="0 0 16 16"><defs><style>.cls-1{fill:gray;}.cls-2{fill:none;stroke:gray;stroke-linecap:round;stroke-miterlimit:10;}</style></defs><title>16</title><g id="_16" data-name="16"><path class="cls-1" d="M6,4.7V12H1.74L6,4.7m.49-2.35a.48.48,0,0,0-.42.25L.44,12.25A.5.5,0,0,0,.87,13H6.5a.5.5,0,0,0,.5-.5V2.85a.5.5,0,0,0-.51-.5Z"/><path class="cls-1" d="M10,4.7,14.26,12H10V4.7M9.51,2.35a.5.5,0,0,0-.51.5V12.5a.5.5,0,0,0,.5.5h5.63a.5.5,0,0,0,.43-.75L9.93,2.6a.48.48,0,0,0-.42-.25Z"/><line class="cls-2" x1="1.5" y1="14.5" x2="6.5" y2="14.5"/><line class="cls-2" x1="9.5" y1="14.5" x2="14.5" y2="14.5"/></g></svg>