<svg id="O" xmlns="http://www.w3.org/2000/svg" viewBox="0 0 16 16"><defs><style>.cls-1{fill:gray;}.cls-2{fill:none;stroke:gray;stroke-linecap:round;stroke-miterlimit:10;}</style></defs><title>16</title><g id="_16" data-name="16"><g id="å³"><path class="cls-1" d="M5,1.74,12.3,6H5V1.74M4.5.37a.5.5,0,0,0-.5.5V6.5a.5.5,0,0,0,.5.5h9.65a.5.5,0,0,0,.25-.93L4.75.44A.47.47,0,0,0,4.5.37Z"/><path class="cls-1" d="M12.3,10,5,14.26V10h7.3m1.85-1H4.5a.5.5,0,0,0-.5.5v5.63a.5.5,0,0,0,.5.5.47.47,0,0,0,.25-.07L14.4,9.93A.5.5,0,0,0,14.15,9Z"/><line class="cls-2" x1="2.5" y1="1.5" x2="2.5" y2="6.5"/><line class="cls-2" x1="2.5" y1="9.5" x2="2.5" y2="14.5"/></g></g></svg>