<svg id="O" xmlns="http://www.w3.org/2000/svg" viewBox="0 0 16 16"><defs><style>.cls-1{fill:gray;}</style></defs><title>16</title><g id="_16" data-name="16"><path class="cls-1" d="M11.14,2.84,12.85,13.7l-1,.16L10.15,3l1-.15M12,1.69,9,2.16,11,15l3-.46L12,1.69Z"/><path class="cls-1" d="M10.1,9.07,11,15l3-.46-.93-5.93Zm2,3.23a.5.5,0,0,1-.16-1,.5.5,0,1,1,.16,1Z"/><path class="cls-1" d="M8,3V14H7V3H8M9,2H6V15H9V2Z"/><path class="cls-1" d="M6,9v6H9V9Zm1.5,3.5A.5.5,0,1,1,8,12,.47.47,0,0,1,7.5,12.5Z"/><path class="cls-1" d="M4,3V14H3V3H4M5,2H2V15H5V2Z"/><path class="cls-1" d="M2,9v6H5V9Zm1.5,3.5a.5.5,0,0,1,0-1,.5.5,0,0,1,0,1Z"/></g></svg>