<svg id="O" xmlns="http://www.w3.org/2000/svg" viewBox="0 0 16 16"><defs><style>.cls-1,.cls-2{fill:none;stroke:#888;stroke-miterlimit:10;}.cls-1{stroke-linecap:round;}.cls-3{fill:#ea572a;}</style></defs><title>16</title><g id="_16" data-name="16"><g id="_16-2" data-name="16"><path class="cls-1" d="M7.5,14.6l-6-2V4.29l6.9-2.8,6,1.9V8"/><line class="cls-1" x1="7.5" y1="14.5" x2="7.5" y2="6.5"/><polyline class="cls-2" points="1.5 4.49 7.5 6.49 14.5 3.49"/><rect class="cls-3" x="12" y="10.96" width="1" height="2"/><rect class="cls-3" x="12" y="13.46" width="1" height="1"/><path class="cls-3" d="M12.5,10a2.5,2.5,0,1,1-2.5,2.5A2.53,2.53,0,0,1,12.5,10m0-1a3.5,3.5,0,1,0,3.5,3.5A3.54,3.54,0,0,0,12.5,9Z"/></g></g></svg>