<svg id="p" xmlns="http://www.w3.org/2000/svg" viewBox="0 0 16 16"><defs><style>.cls-1,.cls-2{fill:none;stroke:#888;stroke-miterlimit:10;}.cls-1{stroke-linecap:round;}.cls-3{fill:#2196f3;}</style></defs><title>16</title><g id="_16" data-name="16"><g id="_16-2" data-name="16"><path class="cls-1" d="M7.5,14.6l-6-2V4.29l6.9-2.8,6,1.9V8"/><line class="cls-1" x1="7.5" y1="14.5" x2="7.5" y2="6.5"/><polyline class="cls-2" points="1.5 4.49 7.5 6.49 14.5 3.49"/><path class="cls-3" d="M11,14V10h2v4a1,1,0,0,1-1,1h0A1,1,0,0,1,11,14Z"/><path class="cls-3" d="M10.21,11h3.58a.5.5,0,0,0,.36-.85l-1.8-1.8a.5.5,0,0,0-.7,0l-1.8,1.8A.5.5,0,0,0,10.21,11Z"/></g></g></svg>