<svg xmlns="http://www.w3.org/2000/svg" viewBox="0 0 16 16"><defs><style>.cls-1{fill:gray;}.cls-2{fill:none;stroke:gray;stroke-miterlimit:10;}</style></defs><title>16</title><g id="s"><g id="_16" data-name="16"><path class="cls-1" d="M3.5,6.5A1.5,1.5,0,1,1,2,8,1.5,1.5,0,0,1,3.5,6.5m0-1A2.5,2.5,0,1,0,6,8,2.5,2.5,0,0,0,3.5,5.5Z"/><path class="cls-1" d="M12.5,11A1.5,1.5,0,1,1,11,12.5,1.5,1.5,0,0,1,12.5,11m0-1A2.5,2.5,0,1,0,15,12.5,2.5,2.5,0,0,0,12.5,10Z"/><path class="cls-1" d="M12.5,2A1.5,1.5,0,1,1,11,3.5,1.5,1.5,0,0,1,12.5,2m0-1A2.5,2.5,0,1,0,15,3.5,2.5,2.5,0,0,0,12.5,1Z"/><line class="cls-2" x1="5.5" y1="8" x2="10.5" y2="4.5"/><line class="cls-2" x1="5.5" y1="8" x2="10.5" y2="11.5"/></g></g></svg>