<svg xmlns="http://www.w3.org/2000/svg" viewBox="0 0 16 16"><defs><style>.cls-1,.cls-2{fill:none;stroke:gray;stroke-linecap:round;}.cls-1{stroke-linejoin:round;}.cls-2{stroke-miterlimit:10;}</style></defs><title>16</title><g id="s"><g id="_16" data-name="16"><path class="cls-1" d="M8.31,11.41,4.83,14A.5.5,0,0,1,4,13.52L5,9.5A.49.49,0,0,0,4.78,9L1.58,6.39A.5.5,0,0,1,1.9,5.5H5.79a.5.5,0,0,0,.48-.35L7.55,1.22a.5.5,0,0,1,1,0l1.45,4a.5.5,0,0,0,.47.33h3.74a.5.5,0,0,1,.32.88L11,9.38"/><line class="cls-2" x1="13.5" y1="11.5" x2="13.5" y2="15.5"/><line class="cls-2" x1="15.5" y1="13.5" x2="11.5" y2="13.5"/></g></g></svg>