<svg id="s" xmlns="http://www.w3.org/2000/svg" viewBox="0 0 16 16"><defs><style>.cls-1{fill:#61a232;}.cls-2{fill:gray;}</style></defs><title>16</title><g id="_16" data-name="16"><polygon class="cls-1" points="8.7 6 7.3 6 12.3 11 13 10.3 8.7 6"/><polygon class="cls-1" points="7.3 6 3 10.3 3.7 11 8.7 6 7.3 6"/><path class="cls-2" d="M10,2a1,1,0,0,1,1,1V5a1,1,0,0,1-1,1H6A1,1,0,0,1,5,5V3A1,1,0,0,1,6,2h4m0-1H6A2,2,0,0,0,4,3V5A2,2,0,0,0,6,7h4a2,2,0,0,0,2-2V3a2,2,0,0,0-2-2Z"/><path class="cls-2" d="M6,12v2H2V12H6m0-1H2a1,1,0,0,0-1,1v2a1,1,0,0,0,1,1H6a1,1,0,0,0,1-1V12a1,1,0,0,0-1-1Z"/><path class="cls-2" d="M14,12v2H10V12h4m0-1H10a1,1,0,0,0-1,1v2a1,1,0,0,0,1,1h4a1,1,0,0,0,1-1V12a1,1,0,0,0-1-1Z"/><polygon class="cls-1" points="2 9 2 12 5 12 2 9"/><polygon class="cls-1" points="14 9 14 12 11 12 14 9"/></g></svg>