<svg id="s" xmlns="http://www.w3.org/2000/svg" viewBox="0 0 16 16"><defs><style>.cls-1,.cls-2{fill:none;stroke:gray;stroke-miterlimit:10;}.cls-2{stroke-linecap:round;}</style></defs><title>16</title><g id="_16" data-name="16"><path class="cls-1" d="M4.5,1.5h7a2,2,0,0,1,2,2v7.59a1,1,0,0,1-.29.7l-2.42,2.42a1,1,0,0,1-.7.29H4.5a2,2,0,0,1-2-2v-9A2,2,0,0,1,4.5,1.5Z"/><polyline class="cls-1" points="13.5 11.5 10.5 11.5 10.5 14.5"/><g id="_14-2" data-name=" 14-2"><path class="cls-2" d="M11.36,8A3.5,3.5,0,0,1,4.64,8"/><path class="cls-2" d="M4.65,6a3.5,3.5,0,0,1,6.7,0"/><line class="cls-2" x1="4.65" y1="6" x2="3.65" y2="4.5"/><line class="cls-2" x1="11.45" y1="8" x2="12.15" y2="9.9"/></g></g></svg>