<svg id="s" xmlns="http://www.w3.org/2000/svg" viewBox="0 0 16 16"><defs><style>.cls-1,.cls-2{fill:none;stroke:gray;stroke-miterlimit:10;}.cls-1{stroke-linecap:round;}</style></defs><title>16</title><g id="_16" data-name="16"><path class="cls-1" d="M3,9.5A2.48,2.48,0,0,0,.5,12v1A1.54,1.54,0,0,0,2,14.5H3"/><path class="cls-1" d="M6,7.5a3,3,0,0,1-3-3,3,3,0,0,1,3-3"/><circle class="cls-2" cx="10" cy="4.5" r="3"/><path class="cls-2" d="M13,9.5H7A2.48,2.48,0,0,0,4.5,12v1A1.54,1.54,0,0,0,6,14.5h8A1.54,1.54,0,0,0,15.5,13V12A2.48,2.48,0,0,0,13,9.5Z"/></g></svg>