<svg id="s" xmlns="http://www.w3.org/2000/svg" viewBox="0 0 16 16"><defs><style>.cls-1{fill:gray;}.cls-2{fill:none;stroke:gray;stroke-linecap:round;stroke-linejoin:round;}</style></defs><title>16</title><g id="_16" data-name="16"><path class="cls-1" d="M13.82,8l-.53,3.16a1,1,0,0,1-1,.84H9.59l-.72-1.29a1,1,0,0,0-1.74,0L6.41,12H3.69a1,1,0,0,1-1-.84L2.18,8H13.82m.59-1H1.59a.5.5,0,0,0-.49.58l.62,3.75a2,2,0,0,0,2,1.67H6.41a1,1,0,0,0,.88-.51L8,11.2l.71,1.29a1,1,0,0,0,.88.51h2.72a2,2,0,0,0,2-1.67l.62-3.75A.5.5,0,0,0,14.41,7Z"/><polyline class="cls-2" points="6 3.5 5.07 3.5 1.5 7.5"/><polyline class="cls-2" points="10 3.5 10.93 3.5 14.5 7.5"/></g></svg>