<svg id="s" xmlns="http://www.w3.org/2000/svg" viewBox="0 0 16 16"><defs><style>.cls-1{fill:gray;}.cls-2{fill:none;stroke:gray;stroke-linecap:round;stroke-miterlimit:10;}</style></defs><title>16</title><g id="_16" data-name="16"><path class="cls-1" d="M13,2a1,1,0,0,1,1,1V13a1,1,0,0,1-1,1H3a1,1,0,0,1-1-1V3A1,1,0,0,1,3,2H13m0-1H3A2,2,0,0,0,1,3V13a2,2,0,0,0,2,2H13a2,2,0,0,0,2-2V3a2,2,0,0,0-2-2Z"/><path class="cls-1" d="M8,4A4,4,0,1,1,4,8,4,4,0,0,1,8,4M8,3a5,5,0,1,0,5,5A5,5,0,0,0,8,3Z"/><path class="cls-2" d="M5.5,8.5a2,2,0,0,0,2,2"/></g></svg>