<svg id="s" xmlns="http://www.w3.org/2000/svg" viewBox="0 0 16 16"><defs><style>.cls-1,.cls-2{fill:none;stroke:gray;stroke-miterlimit:10;}.cls-1{stroke-linecap:round;}.cls-3{fill:#61a232;}</style></defs><title>16</title><g id="_16" data-name="16"><path class="cls-1" d="M2.5,5.5v-2a2,2,0,0,1,2-2h7a2,2,0,0,1,2,2v7.59a1,1,0,0,1-.29.7l-2.42,2.42a1,1,0,0,1-.7.29H4.5a2,2,0,0,1-2-2v-2"/><line class="cls-1" x1="8.5" y1="10.5" x2="6.5" y2="10.5"/><line class="cls-1" x1="10.5" y1="7.5" x2="8.5" y2="7.5"/><line class="cls-1" x1="10.5" y1="4.5" x2="5.5" y2="4.5"/><polyline class="cls-2" points="13.5 11.5 10.5 11.5 10.5 14.5"/><path class="cls-3" d="M5,7H1.5a.5.5,0,0,0-.5.5v1a.5.5,0,0,0,.5.5H5Z"/><path class="cls-3" d="M4.85,5.85l1.8,1.8a.5.5,0,0,1,0,.7l-1.8,1.8A.5.5,0,0,1,4,9.79V6.21A.5.5,0,0,1,4.85,5.85Z"/></g></svg>