<svg xmlns="http://www.w3.org/2000/svg" viewBox="0 0 16 16"><defs><style>.cls-1{fill:gray;}.cls-2{fill:none;stroke:gray;stroke-linecap:round;stroke-miterlimit:10;}</style></defs><title>16</title><g id="s"><g id="_16" data-name="16"><path class="cls-1" d="M8,2a5.94,5.94,0,0,1,6,6,5.94,5.94,0,0,1-6,6A5.94,5.94,0,0,1,2,8,5.94,5.94,0,0,1,8,2M8,1A7,7,0,0,0,1,8a7,7,0,0,0,7,7,7,7,0,0,0,7-7A7,7,0,0,0,8,1Z"/><line class="cls-2" x1="4.5" y1="11.5" x2="11.5" y2="11.5"/><line class="cls-2" x1="4.5" y1="8.5" x2="11.5" y2="8.5"/><line class="cls-2" x1="4.5" y1="5.5" x2="11.5" y2="5.5"/></g></g></svg>