<svg id="s" xmlns="http://www.w3.org/2000/svg" viewBox="0 0 16 16"><defs><style>.cls-1,.cls-3{fill:none;stroke:gray;stroke-miterlimit:10;}.cls-1{stroke-linecap:round;}.cls-2{fill:gray;}</style></defs><title>16</title><g id="_16" data-name="16"><path class="cls-1" d="M7.5,1.5,1.9,5.7a1,1,0,0,0-.4.8v7"/><path class="cls-2" d="M9,4.46a1,1,0,0,1,.58.19l4,2.86a1,1,0,0,1,.42.82V13a1,1,0,0,1-1,1H5a1,1,0,0,1-1-1V8.33a1,1,0,0,1,.42-.82l4-2.86A1,1,0,0,1,9,4.46m0-1a2.08,2.08,0,0,0-1.17.37l-4,2.87A2,2,0,0,0,3,8.33V13a2,2,0,0,0,2,2h8a2,2,0,0,0,2-2V8.33a2,2,0,0,0-.83-1.63l-4-2.87A2.08,2.08,0,0,0,9,3.46Z"/><polyline class="cls-3" points="14 14 9 10.3 4 14"/><line class="cls-3" x1="8.1" y1="11.1" x2="3.4" y2="7.3"/><line class="cls-3" x1="14.6" y1="7.3" x2="9.9" y2="11.1"/></g></svg>