<svg id="s" xmlns="http://www.w3.org/2000/svg" viewBox="0 0 16 16"><defs><style>.cls-1,.cls-2{fill:none;stroke:gray;stroke-miterlimit:10;}.cls-2{stroke-linecap:round;}.cls-3{fill:#ff5722;}</style></defs><title>16</title><g id="_16" data-name="16"><path class="cls-1" d="M1.7,3.63l5.73,4a1,1,0,0,0,1.14,0L14.5,3.5"/><line class="cls-1" x1="6.6" y1="7.4" x2="2" y2="12"/><line class="cls-2" x1="9.5" y1="7.4" x2="12" y2="10"/><path class="cls-2" d="M9.5,12.5h-6a2,2,0,0,1-2-2v-6a2,2,0,0,1,2-2h9a2,2,0,0,1,2,2v5"/><polygon class="cls-3" points="13 9.86 12.31 12 10 12 11.73 13.56 11.27 15.86 13 14.55 14.85 15.86 14.27 13.56 16 12 13.81 12 13 9.86"/></g></svg>