<svg xmlns="http://www.w3.org/2000/svg" viewBox="0 0 16 16"><defs><style>.cls-1{fill:gray;}</style></defs><title>16</title><g id="s"><g id="_16" data-name="16"><path class="cls-1" d="M13,3a1,1,0,0,1,1,1v8a1,1,0,0,1-1,1H3a1,1,0,0,1-1-1V4A1,1,0,0,1,3,3H13m0-1H3A2,2,0,0,0,1,4v8a2,2,0,0,0,2,2H13a2,2,0,0,0,2-2V4a2,2,0,0,0-2-2Z"/><rect class="cls-1" x="1" y="6" width="14" height="1"/><rect class="cls-1" x="1" y="9" width="14" height="1"/><rect class="cls-1" x="5" y="3" width="1" height="10"/><rect class="cls-1" x="10" y="3" width="1" height="10"/></g></g></svg>