<svg id="s" xmlns="http://www.w3.org/2000/svg" viewBox="0 0 16 16"><defs><style>.cls-1,.cls-3{fill:none;stroke:gray;}.cls-1{stroke-miterlimit:10;}.cls-2{fill:gray;}.cls-3{stroke-linecap:round;stroke-linejoin:round;}</style></defs><title>16</title><g id="_16" data-name="16"><line class="cls-1" x1="8" y1="9.35" x2="4" y2="13"/><line class="cls-1" x1="14" y1="13" x2="10.06" y2="9.4"/><path class="cls-1" d="M14,6,9.67,9.9a1,1,0,0,1-1.34,0L4,6"/><path class="cls-2" d="M13,6a1,1,0,0,1,1,1v5a1,1,0,0,1-1,1H5a1,1,0,0,1-1-1V7A1,1,0,0,1,5,6h8m0-1H5A2,2,0,0,0,3,7v5a2,2,0,0,0,2,2h8a2,2,0,0,0,2-2V7a2,2,0,0,0-2-2Z"/><path class="cls-3" d="M12.5,3.5h-8a3,3,0,0,0-3,3v6"/></g></svg>