<svg id="s" xmlns="http://www.w3.org/2000/svg" viewBox="0 0 16 16"><defs><style>.cls-1{fill:gray;}.cls-2{fill:#61a232;}.cls-3{fill:none;stroke:#61a232;stroke-miterlimit:10;}</style></defs><title>16</title><g id="_16" data-name="16"><path class="cls-1" d="M10,2a1,1,0,0,1,1,1V5a1,1,0,0,1-1,1H6A1,1,0,0,1,5,5V3A1,1,0,0,1,6,2h4m0-1H6A2,2,0,0,0,4,3V5A2,2,0,0,0,6,7h4a2,2,0,0,0,2-2V3a2,2,0,0,0-2-2Z"/><path class="cls-1" d="M6,12v2H2V12H6m0-1H2a1,1,0,0,0-1,1v2a1,1,0,0,0,1,1H6a1,1,0,0,0,1-1V12a1,1,0,0,0-1-1Z"/><path class="cls-1" d="M14,12v2H10V12h4m0-1H10a1,1,0,0,0-1,1v2a1,1,0,0,0,1,1h4a1,1,0,0,0,1-1V12a1,1,0,0,0-1-1Z"/><polygon class="cls-2" points="2.5 9 4.5 7 6.5 9 2.5 9"/><line class="cls-3" x1="4.5" y1="9" x2="4.5" y2="11"/><polygon class="cls-2" points="9.5 9 11.5 7 13.5 9 9.5 9"/><line class="cls-3" x1="11.5" y1="9" x2="11.5" y2="11"/></g></svg>