<svg id="s" xmlns="http://www.w3.org/2000/svg" viewBox="0 0 16 16"><defs><style>.cls-1{fill:gray;}</style></defs><title>16</title><g id="_16" data-name="16"><path class="cls-1" d="M8,2a5.94,5.94,0,0,1,6,6,5.94,5.94,0,0,1-6,6A5.94,5.94,0,0,1,2,8,5.94,5.94,0,0,1,8,2M8,1A7,7,0,0,0,1,8a7,7,0,0,0,7,7,7,7,0,0,0,7-7A7,7,0,0,0,8,1Z"/><path class="cls-1" d="M5.3,7.3a1.5,1.5,0,0,1,.4-1.1,1.5,1.5,0,0,1,1.1-.4A1.22,1.22,0,0,1,8,7H8c0,.6-.4,1-1.2,1.4l-.4.3a1.14,1.14,0,0,0-.7.8H8V10H5.2a2.06,2.06,0,0,1,1-1.7L6.7,8c.2-.1.4-.3.6-.4A1.42,1.42,0,0,0,7.5,7c0-.5-.3-.7-.8-.8s-.8.3-.8,1Z"/><path class="cls-1" d="M10.5,9v1H10V9H8V8.4L9.9,5.7h.6V8.5H11V9Zm-2-.5H10V6.6H9.9Z"/><rect class="cls-1" x="8" y="2" width="1" height="2"/><rect class="cls-1" x="8" y="12" width="1" height="2"/><rect class="cls-1" x="12" y="8" width="2" height="1"/><rect class="cls-1" x="2" y="8" width="2" height="1"/></g></svg>