<svg xmlns="http://www.w3.org/2000/svg" viewBox="0 0 16 16"><defs><style>.cls-1,.cls-2{fill:none;stroke:gray;stroke-miterlimit:10;}.cls-2{stroke-linecap:round;}.cls-3{fill:gray;}</style></defs><title>16</title><g id="s"><g id="_16" data-name="16"><line class="cls-1" x1="10.5" y1="14" x2="10.5" y2="11"/><line class="cls-1" x1="13" y1="11.5" x2="10" y2="11.5"/><path class="cls-2" d="M10.5,1.5h-7a1,1,0,0,0-1,1v11a1,1,0,0,0,1,1h6.59a1,1,0,0,0,.7-.29l2.42-2.42a1,1,0,0,0,.29-.7V8.5"/><path class="cls-3" d="M13,3.41l.59.59-5,5H8V8.41l5-5m0-1.2a.5.5,0,0,0-.35.14l-5.5,5.5A.49.49,0,0,0,7,8.21V9.5a.5.5,0,0,0,.5.5H8.79a.49.49,0,0,0,.36-.15l5.5-5.5a.5.5,0,0,0,0-.7l-1.3-1.3A.5.5,0,0,0,13,2.21Z"/></g></g></svg>