<svg id="s" xmlns="http://www.w3.org/2000/svg" viewBox="0 0 16 16"><defs><style>.cls-1,.cls-2{fill:gray;}.cls-2{opacity:0.5;isolation:isolate;}</style></defs><title>16</title><g id="_16" data-name="16"><path class="cls-1" d="M13,2a1,1,0,0,1,1,1V13a1,1,0,0,1-1,1H3a1,1,0,0,1-1-1V3A1,1,0,0,1,3,2H13m0-1H3A2,2,0,0,0,1,3V13a2,2,0,0,0,2,2H13a2,2,0,0,0,2-2V3a2,2,0,0,0-2-2Z"/><g id="цик"><rect class="cls-1" x="10" y="1" width="1" height="14"/><rect class="cls-1" x="5" y="1" width="1" height="14"/><rect class="cls-2" x="1.5" y="6" width="13" height="4"/></g></g></svg>