<svg id="s" xmlns="http://www.w3.org/2000/svg" viewBox="0 0 16 16"><defs><style>.cls-1{fill:gray;}.cls-2,.cls-3{fill:none;stroke:gray;stroke-miterlimit:10;}.cls-3{stroke-linecap:round;}</style></defs><title>16</title><g id="_16" data-name="16"><path class="cls-1" d="M10,2V3H6V2h4m0-1H6A1,1,0,0,0,5,2V3A1,1,0,0,0,6,4h4a1,1,0,0,0,1-1V2a1,1,0,0,0-1-1Z"/><path class="cls-2" d="M5,2.5H3.5a1,1,0,0,0-1,1v10a1,1,0,0,0,1,1h9a1,1,0,0,0,1-1V3.5a1,1,0,0,0-1-1H11"/><line class="cls-3" x1="7.5" y1="12.5" x2="11.5" y2="12.5"/><line class="cls-3" x1="7.5" y1="9.5" x2="11.5" y2="9.5"/><line class="cls-3" x1="7.5" y1="6.5" x2="11.5" y2="6.5"/><circle class="cls-1" cx="5" cy="6" r="1"/><circle class="cls-1" cx="5" cy="9" r="1"/><circle class="cls-1" cx="5" cy="12" r="1"/></g></svg>