<svg id="图层_76" data-name="图层 76" xmlns="http://www.w3.org/2000/svg" viewBox="0 0 16 16"><defs><style>.cls-1{opacity:0.75;}.cls-2{fill:#1f2022;}</style></defs><title>system-lock-screen-symbolic</title><g class="cls-1"><path class="cls-2" d="M8,9a1,1,0,0,0-.5,1.85V13h1V10.85A1,1,0,0,0,8,9Z"/><path class="cls-2" d="M12,6.05V4A4,4,0,0,0,4,4V6.05A2.47,2.47,0,0,0,2,8.5v5A2.48,2.48,0,0,0,4.5,16h7A2.48,2.48,0,0,0,14,13.5v-5A2.47,2.47,0,0,0,12,6.05ZM8,1a3,3,0,0,1,3,3V6H5V4A3,3,0,0,1,8,1Zm5,12.5A1.54,1.54,0,0,1,11.5,15h-7A1.54,1.54,0,0,1,3,13.5v-5A1.54,1.54,0,0,1,4.5,7h7A1.54,1.54,0,0,1,13,8.5Z"/></g></svg>