<svg id="s" xmlns="http://www.w3.org/2000/svg" viewBox="0 0 16 16"><defs><style>.cls-1{fill:gray;}.cls-2,.cls-3{fill:none;stroke:gray;stroke-miterlimit:10;}.cls-3{stroke-linecap:round;stroke-width:2px;}</style></defs><title>16</title><g id="_16" data-name="16"><g id="_16-2" data-name=" 16-2"><path class="cls-1" d="M12,7a1,1,0,0,1,1,1v5a1,1,0,0,1-1,1H4a1,1,0,0,1-1-1V8A1,1,0,0,1,4,7h8m0-1H4A2,2,0,0,0,2,8v5a2,2,0,0,0,2,2h8a2,2,0,0,0,2-2V8a2,2,0,0,0-2-2Z"/></g><path class="cls-2" d="M11.5,6.5V5a3.5,3.5,0,0,0-7,0V6.5"/><line class="cls-3" x1="8" y1="9.5" x2="8" y2="11.5"/></g></svg>