<svg id="s" xmlns="http://www.w3.org/2000/svg" viewBox="0 0 16 16"><defs><style>.cls-1{fill:gray;}.cls-2{fill:none;stroke:gray;stroke-linecap:round;stroke-miterlimit:10;}</style></defs><title>16</title><g id="_16" data-name="16"><path class="cls-1" d="M13,3a1,1,0,0,1,1,1v7a1,1,0,0,1-1,1H3a1,1,0,0,1-1-1V4A1,1,0,0,1,3,3H13m0-1H3A2,2,0,0,0,1,4v7a2,2,0,0,0,2,2H13a2,2,0,0,0,2-2V4a2,2,0,0,0-2-2Z"/><rect class="cls-1" x="7.07" y="12" width="1.93" height="2"/><line class="cls-2" x1="5.49" y1="14.5" x2="10.49" y2="14.5"/></g></svg>