<svg id="t" xmlns="http://www.w3.org/2000/svg" viewBox="0 0 16 16"><defs><style>.cls-1,.cls-2{fill:none;stroke-linecap:round;stroke-linejoin:round;}.cls-1{stroke:gray;}.cls-2{stroke:#61a232;}</style></defs><title>16</title><g id="_16" data-name="16"><polyline class="cls-1" points="1.5 9.5 3.5 3.5 5.5 9.5"/><line class="cls-1" x1="2.51" y1="7.5" x2="4.68" y2="7.5"/><path class="cls-1" d="M6.5,6.5H8A1.5,1.5,0,0,1,9.5,8h0A1.5,1.5,0,0,1,8,9.5H6.5"/><path class="cls-1" d="M6.5,3.5H8A1.5,1.5,0,0,1,9.5,5h0A1.5,1.5,0,0,1,8,6.5H6.51"/><line class="cls-1" x1="6.5" y1="3.5" x2="6.5" y2="9.5"/><path class="cls-1" d="M14.5,8A1.86,1.86,0,0,1,12.91,9.5h-.69c-.94,0-1.72-1.13-1.72-2.5V6c0-1.38.78-2.5,1.72-2.5h.69c.71,0,1.31.62,1.58,1.5"/><polyline class="cls-2" points="4 10 7 13.5 13.5 6.5"/></g></svg>