<svg id="图层_1" data-name="图层 1" xmlns="http://www.w3.org/2000/svg" viewBox="0 0 16 16"><defs><style>.cls-1{fill:gray;}</style></defs><title>ukui-preview-file-details</title><path class="cls-1" d="M13,1H2A2,2,0,0,0,0,3v9a2,2,0,0,0,2,2H13a2,2,0,0,0,2-2V3A2,2,0,0,0,13,1ZM12,2h1V3H12ZM10,2h1V3H10ZM3,13H2a1,1,0,0,1-1-1V4H3Zm5,0H4V4H8Zm6-1a1,1,0,0,1-1,1H9V4h5Z"/><rect class="cls-1" x="10" y="6" width="3" height="1"/><rect class="cls-1" x="10" y="8" width="3" height="1"/><rect class="cls-1" x="10" y="10" width="3" height="1"/></svg>