<svg id="v" xmlns="http://www.w3.org/2000/svg" viewBox="0 0 16 16"><defs><style>.cls-1{fill:#7e8080;}.cls-2{fill:none;stroke:#7e8080;stroke-miterlimit:10;}</style></defs><title>16</title><g id="_16" data-name="16"><path class="cls-1" d="M13,3a1,1,0,0,1,1,1v8a1,1,0,0,1-1,1H3a1,1,0,0,1-1-1V4A1,1,0,0,1,3,3H13m0-1H3A2,2,0,0,0,1,4v8a2,2,0,0,0,2,2H13a2,2,0,0,0,2-2V4a2,2,0,0,0-2-2Z"/><line class="cls-2" x1="4.5" y1="4.68" x2="4.5" y2="13.54"/><line class="cls-2" x1="9.5" y1="4.68" x2="9.5" y2="13.54"/><path class="cls-1" d="M2,3V5H14V3ZM13,4H12V3h1ZM11,4H10V3h1Z"/></g></svg>