<svg id="v" xmlns="http://www.w3.org/2000/svg" viewBox="0 0 16 16"><defs><style>.cls-1{fill:none;stroke:gray;stroke-linecap:round;stroke-miterlimit:10;}.cls-2{fill:gray;}</style></defs><title>16</title><g id="_16" data-name="16"><line class="cls-1" x1="6.5" y1="11.5" x2="14.5" y2="11.5"/><line class="cls-1" x1="6.5" y1="7.5" x2="14.5" y2="7.5"/><line class="cls-1" x1="6.5" y1="3.5" x2="14.5" y2="3.5"/><path class="cls-2" d="M4,11v1H3V11H4m0-1H3a1,1,0,0,0-1,1v1a1,1,0,0,0,1,1H4a1,1,0,0,0,1-1V11a1,1,0,0,0-1-1Z"/><path class="cls-2" d="M4,7V8H3V7H4M4,6H3A1,1,0,0,0,2,7V8A1,1,0,0,0,3,9H4A1,1,0,0,0,5,8V7A1,1,0,0,0,4,6Z"/><path class="cls-2" d="M4,3V4H3V3H4M4,2H3A1,1,0,0,0,2,3V4A1,1,0,0,0,3,5H4A1,1,0,0,0,5,4V3A1,1,0,0,0,4,2Z"/></g></svg>