<svg id="v" xmlns="http://www.w3.org/2000/svg" viewBox="0 0 16 16"><defs><style>.cls-1{fill:gray;}.cls-2{fill:none;stroke:gray;stroke-linecap:round;stroke-linejoin:round;}</style></defs><title>16</title><g id="_16" data-name="16"><path class="cls-1" d="M13,4a1,1,0,0,1,1,1v7a1,1,0,0,1-1,1H3a1,1,0,0,1-1-1V5A1,1,0,0,1,3,4H13m0-1H3A2,2,0,0,0,1,5v7a2,2,0,0,0,2,2H13a2,2,0,0,0,2-2V5a2,2,0,0,0-2-2Z"/><circle class="cls-1" cx="12" cy="6" r="1"/><polygon class="cls-2" points="8.9 7.1 6.3 10.8 5.4 8.8 3.6 11.5 12.4 11.5 8.9 7.1"/></g></svg>