<svg id="v" xmlns="http://www.w3.org/2000/svg" viewBox="0 0 16 16"><defs><style>.cls-1{fill:gray;}.cls-2{fill:none;stroke:gray;stroke-miterlimit:10;}</style></defs><title>16</title><g id="_16" data-name="16"><path class="cls-1" d="M6,5.86v4a.47.47,0,0,0,.72.41l3.37-2a.48.48,0,0,0,0-.82l-3.37-2A.48.48,0,0,0,6,5.86Z"/><line class="cls-2" x1="1.5" y1="11.5" x2="14.5" y2="11.5"/><line class="cls-2" x1="1.5" y1="4.5" x2="14.5" y2="4.5"/><line class="cls-2" x1="10.5" y1="3" x2="10.5" y2="5"/><line class="cls-2" x1="7.5" y1="3" x2="7.5" y2="5"/><line class="cls-2" x1="4.5" y1="3" x2="4.5" y2="5"/><line class="cls-2" x1="10.5" y1="11.5" x2="10.5" y2="13.5"/><line class="cls-2" x1="7.5" y1="11.5" x2="7.5" y2="13.5"/><line class="cls-2" x1="4.5" y1="11.5" x2="4.5" y2="13.5"/><path class="cls-1" d="M13,3a1,1,0,0,1,1,1v8a1,1,0,0,1-1,1H3a1,1,0,0,1-1-1V4A1,1,0,0,1,3,3H13m0-1H3A2,2,0,0,0,1,4v8a2,2,0,0,0,2,2H13a2,2,0,0,0,2-2V4a2,2,0,0,0-2-2Z"/></g></svg>