<svg id="v" xmlns="http://www.w3.org/2000/svg" viewBox="0 0 16 16"><defs><style>.cls-1{fill:gray;}.cls-2{fill:none;stroke:gray;stroke-linecap:round;stroke-miterlimit:10;}</style></defs><title>16</title><g id="_16" data-name="16"><path class="cls-1" d="M13,4a1,1,0,0,1,1,1v7a1,1,0,0,1-1,1H3a1,1,0,0,1-1-1V5A1,1,0,0,1,3,4H13m0-1H3A2,2,0,0,0,1,5v7a2,2,0,0,0,2,2H13a2,2,0,0,0,2-2V5a2,2,0,0,0-2-2Z"/><rect class="cls-1" x="1" y="6" width="14" height="1"/><line class="cls-2" x1="4.5" y1="10.5" x2="4.5" y2="8.5"/><line class="cls-2" x1="7.5" y1="10.5" x2="7.5" y2="8.5"/><line class="cls-2" x1="10.5" y1="10.5" x2="10.5" y2="8.5"/><line class="cls-2" x1="3.5" y1="9.5" x2="12.5" y2="9.5"/><rect class="cls-1" x="5" y="2" width="1" height="3"/><rect class="cls-1" x="10" y="2" width="1" height="3"/></g></svg>