<svg id="图层_11" data-name="图层 11" xmlns="http://www.w3.org/2000/svg" viewBox="0 0 16 16"><defs><style>.cls-1{fill:gray;}</style></defs><title>16</title><g id="_16" data-name="16"><path class="cls-1" d="M13,4a1,1,0,0,1,1,1v7a1,1,0,0,1-1,1H3a1,1,0,0,1-1-1V5A1,1,0,0,1,3,4H13m0-1H3A2,2,0,0,0,1,5v7a2,2,0,0,0,2,2H13a2,2,0,0,0,2-2V5a2,2,0,0,0-2-2Z"/><rect class="cls-1" x="1" y="6" width="14" height="1"/><rect class="cls-1" x="5" y="2" width="1" height="3"/><rect class="cls-1" x="10" y="2" width="1" height="3"/><rect class="cls-1" x="4" y="8" width="1" height="1"/><rect class="cls-1" x="7" y="8" width="1" height="1"/><rect class="cls-1" x="10" y="8" width="1" height="1"/><rect class="cls-1" x="4" y="11" width="1" height="1"/><rect class="cls-1" x="7" y="11" width="1" height="1"/><rect class="cls-1" x="10" y="11" width="1" height="1"/></g></svg>