<svg id="视图" xmlns="http://www.w3.org/2000/svg" viewBox="0 0 16 16"><defs><style>.cls-1{fill:gray;}</style></defs><title>view-dual-symbolic</title><path class="cls-1" d="M0,3v9a2,2,0,0,0,2,2H6a3.5,3.5,0,0,1,2,1,3.94,3.94,0,0,1,2-1h4a2,2,0,0,0,2-2V3a2,2,0,0,0-2-2H10a3.11,3.11,0,0,0-2,.8A3.11,3.11,0,0,0,6,1H2A2,2,0,0,0,0,3ZM1,3A1,1,0,0,1,2,2H6A3.5,3.5,0,0,1,8,3a3.5,3.5,0,0,1,2-1h4a1,1,0,0,1,1,1v9a1,1,0,0,1-1,1H10a3.11,3.11,0,0,0-2,.8A2.79,2.79,0,0,0,6,13H2a1,1,0,0,1-1-1ZM2,4V5H6V4ZM9,4V5h4V4ZM2,6V7H6V6ZM9,6V7h4V6ZM2,8V9H6V8ZM9,8V9h4V8ZM2,10v1H6V10Zm7,0v1h4V10Z"/></svg>