<svg id="v" xmlns="http://www.w3.org/2000/svg" viewBox="0 0 16 16"><defs><style>.cls-1,.cls-4{fill:none;stroke:gray;stroke-linecap:round;stroke-miterlimit:10;}.cls-1,.cls-2{isolation:isolate;}.cls-3{fill:gray;}</style></defs><title>16</title><g id="_16" data-name="16"><line class="cls-1" x1="6.5" y1="12.5" x2="9.5" y2="12.5"/><line class="cls-1" x1="6.5" y1="9.5" x2="11.5" y2="9.5"/><line class="cls-1" x1="6.5" y1="6.5" x2="11.5" y2="6.5"/><g class="cls-2"><path class="cls-3" d="M13,4a1,1,0,0,1,1,1v9a1,1,0,0,1-1,1H5a1,1,0,0,1-1-1V5A1,1,0,0,1,5,4h8m0-1H5A2,2,0,0,0,3,5v9a2,2,0,0,0,2,2h8a2,2,0,0,0,2-2V5a2,2,0,0,0-2-2Z"/></g><path class="cls-4" d="M1.5,13.5V3.5a2,2,0,0,1,2-2h9"/></g></svg>