<svg id="v" xmlns="http://www.w3.org/2000/svg" viewBox="0 0 16 16"><defs><style>.cls-1{isolation:isolate;}.cls-2{fill:gray;}.cls-3{fill:none;stroke:gray;stroke-linecap:round;stroke-linejoin:round;}</style></defs><title>16</title><g id="_16" data-name="16"><g class="cls-1"><path class="cls-2" d="M5,13v1H4V13H5m0-1H4a1,1,0,0,0-1,1v1a1,1,0,0,0,1,1H5a1,1,0,0,0,1-1V13a1,1,0,0,0-1-1Z"/></g><g class="cls-1"><path class="cls-2" d="M5,8V9H4V8H5M5,7H4A1,1,0,0,0,3,8V9a1,1,0,0,0,1,1H5A1,1,0,0,0,6,9V8A1,1,0,0,0,5,7Z"/></g><g class="cls-1"><path class="cls-2" d="M5,3V4H4V3H5M5,2H4A1,1,0,0,0,3,3V4A1,1,0,0,0,4,5H5A1,1,0,0,0,6,4V3A1,1,0,0,0,5,2Z"/></g><polyline class="cls-3" points="7.5 6.5 10.5 2.5 13.5 6.5"/><line class="cls-3" x1="10.5" y1="2.5" x2="10.5" y2="14.5"/></g></svg>