<svg id="v" xmlns="http://www.w3.org/2000/svg" viewBox="0 0 16 16"><defs><style>.cls-1{fill:gray;}.cls-2{fill:none;stroke:gray;stroke-linecap:round;stroke-miterlimit:10;}</style></defs><title>16</title><g id="_16" data-name="16"><g id="_16-2" data-name="16"><path class="cls-1" d="M13,2a1,1,0,0,1,1,1v9a1,1,0,0,1-1,1H9.86A4.66,4.66,0,0,0,8,13.74,4.18,4.18,0,0,0,6.12,13H3a1,1,0,0,1-1-1V3A1,1,0,0,1,3,2H6a2.18,2.18,0,0,1,1.36.57L8,3.1l.64-.53A2.18,2.18,0,0,1,10,2h3m0-1H10a3.18,3.18,0,0,0-2,.8A3.18,3.18,0,0,0,6,1H3A2,2,0,0,0,1,3v9a2,2,0,0,0,2,2H6a3.48,3.48,0,0,1,2,1,4.21,4.21,0,0,1,2-1h3a2,2,0,0,0,2-2V3a2,2,0,0,0-2-2Z"/></g><line class="cls-2" x1="9.5" y1="10.5" x2="12.5" y2="10.5"/><line class="cls-2" x1="3.5" y1="10.5" x2="6.5" y2="10.5"/><line class="cls-2" x1="9.5" y1="8.5" x2="12.5" y2="8.5"/><line class="cls-2" x1="3.5" y1="8.5" x2="6.5" y2="8.5"/><line class="cls-2" x1="9.5" y1="6.5" x2="12.5" y2="6.5"/><line class="cls-2" x1="3.5" y1="6.5" x2="6.5" y2="6.5"/><line class="cls-2" x1="9.5" y1="4.5" x2="12.5" y2="4.5"/><line class="cls-2" x1="3.5" y1="4.5" x2="6.5" y2="4.5"/></g></svg>