<svg id="v" xmlns="http://www.w3.org/2000/svg" viewBox="0 0 16 16"><defs><style>.cls-1{fill:none;stroke:gray;stroke-linecap:round;stroke-miterlimit:10;}.cls-2{fill:gray;}</style></defs><title>16</title><g id="_16" data-name="16"><line class="cls-1" x1="7.5" y1="13.5" x2="7.5" y2="2.5"/><path class="cls-2" d="M14,3V6H11V3h3m0-1H11a1,1,0,0,0-1,1V6a1,1,0,0,0,1,1h3a1,1,0,0,0,1-1V3a1,1,0,0,0-1-1Z"/><path class="cls-2" d="M14,10v3H11V10h3m0-1H11a1,1,0,0,0-1,1v3a1,1,0,0,0,1,1h3a1,1,0,0,0,1-1V10a1,1,0,0,0-1-1Z"/><line class="cls-1" x1="1.5" y1="12.5" x2="4.5" y2="12.5"/><line class="cls-1" x1="1.5" y1="9.5" x2="4.5" y2="9.5"/><line class="cls-1" x1="1.5" y1="6.5" x2="4.5" y2="6.5"/><line class="cls-1" x1="1.5" y1="3.5" x2="4.5" y2="3.5"/></g></svg>