<svg id="v" xmlns="http://www.w3.org/2000/svg" viewBox="0 0 16 16"><defs><style>.cls-1{isolation:isolate;}.cls-2{fill:gray;}</style></defs><title>16</title><g id="_16" data-name="16" class="cls-1"><path class="cls-2" d="M13,3V6H10V3h3M6,3V6H3V3H6m7,7v3H10V10h3M6,10v3H3V10H6m7-8H10A1,1,0,0,0,9,3V6a1,1,0,0,0,1,1h3a1,1,0,0,0,1-1V3a1,1,0,0,0-1-1ZM6,2H3A1,1,0,0,0,2,3V6A1,1,0,0,0,3,7H6A1,1,0,0,0,7,6V3A1,1,0,0,0,6,2Zm7,7H10a1,1,0,0,0-1,1v3a1,1,0,0,0,1,1h3a1,1,0,0,0,1-1V10a1,1,0,0,0-1-1ZM6,9H3a1,1,0,0,0-1,1v3a1,1,0,0,0,1,1H6a1,1,0,0,0,1-1V10A1,1,0,0,0,6,9Z"/></g></svg>