<svg id="v" xmlns="http://www.w3.org/2000/svg" viewBox="0 0 16 16"><defs><style>.cls-1,.cls-2,.cls-3{fill:none;stroke-linecap:round;}.cls-1{stroke:gray;}.cls-1,.cls-2{stroke-linejoin:round;}.cls-2,.cls-3{stroke:#2196f3;}.cls-3{stroke-miterlimit:10;}</style></defs><title>16</title><g id="_16" data-name="16"><polyline class="cls-1" points="2.5 9.5 1.5 9.5 1.5 10.5"/><polyline class="cls-1" points="6.5 10.5 6.5 9.5 5.5 9.5"/><polyline class="cls-1" points="1.5 13.5 1.5 14.5 2.5 14.5"/><polyline class="cls-1" points="5.5 14.5 6.5 14.5 6.5 13.5"/><polyline class="cls-2" points="8.5 4.5 8.5 7.5 11.5 7.5"/><line id="_16-2" data-name="16" class="cls-3" x1="8.5" y1="7.5" x2="12" y2="4"/><path class="cls-1" d="M1.5,5.5v-2a2,2,0,0,1,2-2h9a2,2,0,0,1,2,2v9a2,2,0,0,1-2,2h-2"/></g></svg>