<svg id="v" xmlns="http://www.w3.org/2000/svg" viewBox="0 0 16 16"><defs><style>.cls-1{fill:gray;}.cls-2,.cls-3,.cls-4,.cls-5{fill:none;stroke-linecap:round;}.cls-2,.cls-3{stroke:gray;}.cls-2,.cls-3,.cls-5{stroke-linejoin:round;}.cls-3{stroke-dasharray:3.33 3.33;}.cls-4,.cls-5{stroke:#2196f3;}.cls-4{stroke-miterlimit:10;}</style></defs><title>16</title><g id="_16" data-name="16"><path class="cls-1" d="M6,10v4H2V10H6M6,9H2a1,1,0,0,0-1,1v4a1,1,0,0,0,1,1H6a1,1,0,0,0,1-1V10A1,1,0,0,0,6,9Z"/><line class="cls-2" x1="1.5" y1="6.5" x2="1.5" y2="5"/><polyline class="cls-2" points="1.5 3 1.5 1.5 3 1.5"/><line class="cls-3" x1="6.33" y1="1.5" x2="11.33" y2="1.5"/><polyline class="cls-2" points="13 1.5 14.5 1.5 14.5 3"/><line class="cls-3" x1="14.5" y1="6.33" x2="14.5" y2="11.33"/><polyline class="cls-2" points="14.5 13 14.5 14.5 13 14.5"/><line class="cls-2" x1="11" y1="14.5" x2="9.5" y2="14.5"/><line class="cls-4" x1="12.5" y1="3.5" x2="8" y2="8"/><polyline class="cls-5" points="12.5 7.5 12.5 3.5 8.5 3.5"/></g></svg>