<svg id="v" xmlns="http://www.w3.org/2000/svg" viewBox="0 0 16 16"><defs><style>.cls-1,.cls-3{fill:none;stroke:gray;stroke-linecap:round;}.cls-1{stroke-linejoin:round;}.cls-2{fill:gray;}.cls-3{stroke-miterlimit:10;}</style></defs><title>16</title><g id="_16" data-name="16"><g id="_14" data-name=" 14"><polyline class="cls-1" points="3.5 10.5 3.5 12.5 5.5 12.5"/><polyline class="cls-1" points="10.5 12.5 12.5 12.5 12.5 10.5"/><polyline class="cls-1" points="5.5 3.5 3.5 3.5 3.5 5.5"/><polyline class="cls-1" points="12.5 5.5 12.5 3.5 10.5 3.5"/></g><path class="cls-2" d="M13,2a1,1,0,0,1,1,1V13a1,1,0,0,1-1,1H3a1,1,0,0,1-1-1V3A1,1,0,0,1,3,2H13m0-1H3A2,2,0,0,0,1,3V13a2,2,0,0,0,2,2H13a2,2,0,0,0,2-2V3a2,2,0,0,0-2-2Z"/><line class="cls-3" x1="3.5" y1="12.5" x2="5.83" y2="10.17"/><polyline class="cls-3" points="3.5 3.5 3.99 3.99 5.83 5.83"/><line class="cls-3" x1="12.5" y1="3.5" x2="10.17" y2="5.83"/><line class="cls-3" x1="12.5" y1="12.5" x2="10.17" y2="10.17"/></g></svg>