<?xml version="1.0" encoding="utf-8"?>
<!-- Generator: Adobe Illustrator 24.0.0, SVG Export Plug-In . SVG Version: 6.00 Build 0)  -->
<svg version="1.1" id="图层_2_1_" xmlns="http://www.w3.org/2000/svg" xmlns:xlink="http://www.w3.org/1999/xlink" x="0px"
	 y="0px" viewBox="0 0 16 16" style="enable-background:new 0 0 16 16;" xml:space="preserve">
<style type="text/css">
	.st0{opacity:0.75;fill:#1F2022;}
</style>
<path class="st0" d="M10.5,3h-3C6.3,3,5.3,3.9,5.1,5H5C3.9,5,3,5.9,3,7v4c0,1.1,0.9,2,2,2h4c1.1,0,2-0.9,2-2v-0.1
	c1.1-0.2,2-1.2,2-2.4v-3C13,4.1,11.9,3,10.5,3z M9,12H5c-0.6,0-1-0.4-1-1V7c0-0.6,0.4-1,1-1h4c0.6,0,1,0.4,1,1v3v1
	C10,11.6,9.6,12,9,12z M12,8.5c0,0.7-0.4,1.2-1,1.4V7c0-1.1-0.9-2-2-2H6.1c0.2-0.6,0.8-1,1.4-1h3C11.3,4,12,4.7,12,5.5V8.5z"/>
</svg>
