<svg id="gtk-zoom-fit" xmlns="http://www.w3.org/2000/svg" viewBox="0 0 16 16"><defs><style>.cls-1{opacity:0.75;}.cls-2{fill:#1f2022;}</style></defs><title>zoom-fit-best-symbolic</title><g class="cls-1"><path class="cls-2" d="M3,7V4.5A1.5,1.5,0,0,1,4.5,3H7V2H4.5A2.5,2.5,0,0,0,2,4.5V7Z"/><path class="cls-2" d="M3,11.5V9H2v2.5A2.5,2.5,0,0,0,4.5,14H7V13H4.5A1.5,1.5,0,0,1,3,11.5Z"/><path class="cls-2" d="M13,4.5V7h1V4.5A2.5,2.5,0,0,0,11.5,2H9V3h2.5A1.5,1.5,0,0,1,13,4.5Z"/><path class="cls-2" d="M13,9v2.5A1.5,1.5,0,0,1,11.5,13H9v1h2.5A2.5,2.5,0,0,0,14,11.5V9Z"/></g></svg>