/* XPM */
static char *steam[] = {
/* columns rows colors chars-per-pixel */
"32 32 123 2 ",
"   c black",
".  c gray6",
"X  c #1E1E1E",
"o  c #22211F",
"O  c #212121",
"+  c #2C2A2D",
"@  c #35312B",
"#  c #3A342D",
"$  c #2E2D30",
"%  c #312E31",
"&  c #343235",
"*  c #393535",
"=  c #3D3830",
"-  c #363439",
";  c #393639",
":  c #3D3A3D",
">  c #423C34",
",  c #403D3F",
"<  c #474138",
"1  c #514B3D",
"2  c #62532E",
"3  c #6C5A2D",
"4  c #6A5C30",
"5  c #746024",
"6  c #7E6A25",
"7  c #74602E",
"8  c #7B672C",
"9  c #7B692B",
"0  c #6B603C",
"q  c #766734",
"w  c #3E3C41",
"e  c #413E42",
"r  c #444245",
"t  c #494447",
"y  c #464449",
"u  c #49464A",
"i  c #4C494D",
"p  c #534B41",
"a  c #504C4E",
"s  c #565044",
"d  c #4D4C52",
"f  c #524E52",
"g  c #555155",
"h  c #585457",
"j  c #56545A",
"k  c #5A565A",
"l  c #5C595D",
"z  c #695F48",
"x  c #605B5F",
"c  c #6C624A",
"v  c #776940",
"b  c #70664F",
"n  c #706650",
"m  c #726850",
"M  c #5D5B62",
"N  c #615E62",
"B  c #636165",
"V  c #64646B",
"C  c #69666C",
"Z  c #6B6A6E",
"A  c #666771",
"S  c #666972",
"D  c #6B6B71",
"F  c #6F7076",
"G  c #737174",
"H  c #777678",
"J  c #787779",
"K  c #78787A",
"L  c #826C1E",
"P  c #846F23",
"I  c #867225",
"U  c #8A7428",
"Y  c #8E7929",
"T  c #907B24",
"R  c #AD8E1E",
"E  c #B18E1D",
"W  c #9D8126",
"Q  c #9D822B",
"!  c #9E8336",
"~  c #9E8339",
"^  c #A28323",
"/  c #A48927",
"(  c #AC8D25",
")  c #A3842E",
"_  c #A6892C",
"`  c #AA8C2C",
"'  c #AF9024",
"]  c #B59424",
"[  c #B89522",
"{  c #B1932C",
"}  c #A28536",
"|  c #A68936",
" . c #AB8D34",
".. c #A2873B",
"X. c #A4893B",
"o. c #AD8E39",
"O. c #AE913C",
"+. c #B19232",
"@. c #767983",
"#. c #858485",
"$. c #888789",
"%. c #8D8C8D",
"&. c #918F91",
"*. c #959496",
"=. c #979798",
"-. c #989798",
";. c #9D9D9E",
":. c #9E9EA0",
">. c #A4A3A4",
",. c #ACACAC",
"<. c #AFAFB0",
"1. c #B3B3B3",
"2. c #BCBCBC",
"3. c #C0BFC0",
"4. c #C3C2C3",
"5. c #CECECE",
"6. c #D5D5D5",
"7. c #DADADA",
"8. c #E0DFE0",
"9. c #E4E4E4",
"0. c #ECECEC",
"q. c #F2F2F2",
"w. c None",
/* pixels */
"w.w.w.w.w.w.w.w.w.w.w.w.w.w.w.w.w.w.w.w.w.w.w.w.w.w.w.w.w.w.w.w.",
"w.w.w.w.w.w.w.w.w.w.w.w.w.w.w.w.w.w.w.w.w.w.w.w.w.w.w.w.w.w.w.w.",
"w.w.F @.A C N l C B l B D B x B N N C l x k x l l j k k B D w.w.",
"w.w.A S V N B g N g g k l g l M V g k h j k f j f h g e f N w.w.",
"w.w.V M V g i l N h u h h C C l N l x h h k f f k f i g i k w.w.",
"w.w.A V B u M C F l s x B Z Z l l M l l l k h f k g d i i k w.w.",
"w.w.V M A M k C Z B l B B C l B l N l l l l h h k k j d f j w.w.",
"w.w.V M M V l C Z M C Z Z Z B l M N N B l N l l j k f f d l w.w.",
"w.w.A M j M j A A C l B C Z h l B h k l M l l g $.G f f d f w.w.",
"w.w.V M M F <.K B l x B B C l h g l g l l k &.7.7.0.5.x i j w.w.",
"w.w.j j *.<.<.2.%.h l N C N h h l l g l g f 8.$.3.:.2.1.y j w.w.",
"w.w.j d :.7.q.q.8.=.g a h l g l g g g g j %.3.4.q.q.#.8.e j w.w.",
"w.w.j y ;.2.q.q.q.q.8.,.N h a g g g a h j 8.3.1.0.0.#.7.w d w.w.",
"w.w.j y F <.,.0.q.q.q.q.0.3.G i a g a i 3.0.0.:.&.$.4.=.e i w.w.",
"w.w.j d w d *.M K 4.0.q.0.q.q.5.&.i u *.0.0.0.0.9.9.>.w e u w.w.",
"w.w.d u y w e d i ; l >.9.0.0.0.0.7.6.1.7.0.0.9.#.d w e y y w.w.",
"w.w.d y r r r g d t r , t $.6.0.0.0.9.9.*.9.5.h , r r r w r w.w.",
"w.w.y y r r r d i t t u t : : Z 2.0.0.0.,.>., r r y : w : r w.w.",
"w.w.y r r i r d i u t y a a u e * ,.>.<.#.G , y y r : : : : w.w.",
"w.w.r w : r : i d < , y i y t r , i <.,.%.; r r < w ; ; ; e w.w.",
"w.w.y w : w : y i r : e y u y r r : & & : : r e e , : - : ; w.w.",
"w.w.r w : w : r r ; , : y r w e , , : : , : : , e : & - & ; w.w.",
"w.w.w & & ; : : ; ; : : e e e r , : > : : : : : : - - & & ; w.w.",
"w.  : ; L W I 9 , ; : < Y I I 8 ; ; - < U U 6 9 - & % # P 6   w.",
"w.  ; 9 R ] [ q - % ; 8 ( ( ' 3 - - - 8 ] / ^ 4 & & % 5 E ^   w.",
"w.  = / ( { / ; $ + > _ { ( / - % % = ` ` ` Q & $ + # W ( W   w.",
"w.  q ` ` { 2 + $ + 7 ) ) _ 2 + % + 3 _ +.` 2 + + + 7  ._ }   w.",
"w.  v O.o.X.+ + + @ } } } ~ % + + @ } o.X.~ + + + @ Y o.X.0   w.",
"w.w.o 1 z 1 & & - 1 c n m s ; ; * s m n n s - & & 1 c z 1 X w.w.",
"w.w.. X X X X X O O O O O O O O O O O O O O X o X X X X X . w.w.",
"w.w.w.                                                    w.w.w.",
"w.w.w.w.w.w.w.w.w.w.w.w.w.w.w.w.w.w.w.w.w.w.w.w.w.w.w.w.w.w.w.w."
};
