<?xml version="1.0" encoding="utf-8"?>
<!-- Generator: Adobe Illustrator 24.0.0, SVG Export Plug-In . SVG Version: 6.00 Build 0)  -->
<svg version="1.1" id="图层_2_1_" xmlns="http://www.w3.org/2000/svg" xmlns:xlink="http://www.w3.org/1999/xlink" x="0px"
	 y="0px" viewBox="0 0 16 16" style="enable-background:new 0 0 16 16;" xml:space="preserve">
<style type="text/css">
	.st0{fill:none;stroke:#808080;stroke-linecap:round;stroke-miterlimit:10;}
	.st1{display:none;fill:none;stroke:#808080;stroke-linecap:round;stroke-miterlimit:10;}
</style>
<g id="云_4_">
	<path class="st0" d="M3.8,12.5C2,12.5,0.5,11,0.5,9.1S2,5.8,3.8,5.8c0.7-0.1,1.4,0.1,2,0.6"/>
	<path class="st0" d="M13.2,6.4c1.3,0.3,2.3,1.6,2.3,2.9c0,1.7-1.4,3.1-3,3.1"/>
	<path class="st0" d="M5.8,6c0.6-1.5,2-2.5,3.7-2.5c1.8,0,3.5,1.3,3.8,3.2"/>
	<line class="st0" x1="4" y1="12.5" x2="12.3" y2="12.5"/>
</g>
<path class="st1" d="M2,9C1.2,8.7,0.5,8,0.5,7c0-1.1,0.9-2,2-2C3,5,3.4,5.2,3.7,5.4"/>
<path class="st1" d="M3.9,5.2c0-1.5,1.2-2.7,2.7-2.7s2.7,1.2,2.7,2.7"/>
</svg>
