<?xml version="1.0" encoding="utf-8"?>
<!-- Generator: Adobe Illustrator 24.0.0, SVG Export Plug-In . SVG Version: 6.00 Build 0)  -->
<svg version="1.1" xmlns="http://www.w3.org/2000/svg" xmlns:xlink="http://www.w3.org/1999/xlink" x="0px" y="0px"
	 viewBox="0 0 16 16" style="enable-background:new 0 0 16 16;" xml:space="preserve">
<style type="text/css">
	.st0{display:none;}
	.st1{display:inline;fill:none;stroke:#808080;stroke-linecap:round;stroke-miterlimit:10;}
	.st2{fill:none;stroke:#808080;stroke-linecap:round;stroke-miterlimit:10;}
	.st3{fill:none;stroke:#808080;stroke-linecap:round;stroke-linejoin:round;stroke-miterlimit:10;}
	.st4{fill:#808080;}
	.st5{display:none;fill:none;stroke:#808080;stroke-width:0.5;stroke-linecap:round;stroke-linejoin:round;stroke-miterlimit:10;}
	.st6{fill:none;stroke:#808080;stroke-width:0.5;stroke-linecap:round;stroke-linejoin:round;stroke-miterlimit:10;}
</style>
<g id="图层_3">
	
		<image style="display:none;overflow:visible;" width="100" height="100" xlink:href="../图标/206-疾风-High Wind, Near Gale.png"  transform="matrix(0.24 0 0 0.24 -4 -4)">
	</image>
	
		<image style="display:none;overflow:visible;" width="100" height="100" xlink:href="../图标/200-有风-Windy.png"  transform="matrix(0.25 0 0 0.25 -4 -5)">
	</image>
</g>
<g id="图层_5" class="st0">
	<path class="st1" d="M10.5,9.5L2.2,8.3c-1-0.2-1.7-1-1.7-2V5.7c0-1,0.7-1.8,1.7-2l8.3-1.2"/>
	<path class="st1" d="M7,8.6C6.7,7.9,6.5,6.9,6.5,6c0-0.9,0.2-1.9,0.5-2.6"/>
	<path class="st1" d="M3.8,8.4C3.6,7.8,3.5,6.7,3.5,6c0-0.7,0.1-1.8,0.3-2.4"/>
	<path class="st1" d="M11.5,6c0,2.5-0.4,3.5-1,3.5s-1-1-1-3.5s0.4-3.5,1-3.5c0.4,0,0.7,0.5,0.9,1.5C11.5,4.5,11.5,5.2,11.5,6z"/>
</g>
<g id="图层_5_x5F_复制">
	<path class="st2" d="M11.7,5.6l-6.8,5c-0.8,0.6-1.9,0.5-2.6-0.2L1.9,10C1.2,9.3,1.1,8.2,1.7,7.4l5-6.8"/>
	<path class="st2" d="M8.5,7.4C7.8,7.1,7,6.5,6.4,5.9C5.7,5.3,5.2,4.5,4.9,3.7"/>
	<path class="st2" d="M6.2,9.5c-0.6-0.3-1.4-1-1.9-1.5C3.7,7.6,3.1,6.7,2.8,6.1"/>
	<path class="st2" d="M9.9,2.4c1.8,1.8,2.2,2.8,1.8,3.2c-0.4,0.4-1.4,0-3.2-1.8S6.3,1,6.7,0.6C7,0.4,7.5,0.5,8.4,1.1
		C8.8,1.4,9.3,1.8,9.9,2.4z"/>
</g>
<g id="图层_6">
	<line class="st3" x1="14.5" y1="2.5" x2="14.5" y2="15.5"/>
	<line class="st3" x1="13.5" y1="15.5" x2="15.5" y2="15.5"/>
	<circle class="st4" cx="14.5" cy="1.5" r="1.5"/>
</g>
<g id="图层_7">
	<polyline class="st5" points="11.5,4.5 14,6 11.5,7.5 11.5,4.5 	"/>
	<line class="st6" x1="11.5" y1="4.5" x2="13.5" y2="1.5"/>
	<line class="st6" x1="13.5" y1="1" x2="8.5" y2="1"/>
</g>
</svg>
