<?xml version="1.0" encoding="utf-8"?>
<!-- Generator: Adobe Illustrator 24.0.0, SVG Export Plug-In . SVG Version: 6.00 Build 0)  -->
<svg version="1.1" id="图层_2_1_" xmlns="http://www.w3.org/2000/svg" xmlns:xlink="http://www.w3.org/1999/xlink" x="0px"
	 y="0px" viewBox="0 0 16 16" style="enable-background:new 0 0 16 16;" xml:space="preserve">
<style type="text/css">
	.st0{fill:#808080;}
	.st1{display:none;fill:#808080;}
	.st2{fill:none;stroke:#808080;stroke-linecap:round;stroke-miterlimit:10;}
</style>
<path class="st0" d="M7.8,6c0,0-1.5,2.3-1.5,3.3c0,2.3,3,2.3,3,0C9.3,8.3,7.8,6,7.8,6z"/>
<path class="st0" d="M2.2,10c0,0-1.3,1.8-1.3,2.6c0,1.8,2.5,1.8,2.5,0C3.4,11.9,2.2,10,2.2,10z"/>
<path class="st0" d="M6.2,12c0,0-1.3,1.8-1.3,2.6c0,1.8,2.5,1.8,2.5,0C7.4,13.9,6.2,12,6.2,12z"/>
<path class="st0" d="M10.2,12c0,0-1.3,1.8-1.3,2.6c0,1.8,2.5,1.8,2.5,0C11.4,13.9,10.2,12,10.2,12z"/>
<path class="st0" d="M14,10c0,0-1.3,1.8-1.3,2.6c0,1.8,2.5,1.8,2.5,0C15.3,11.9,14,10,14,10z"/>
<path class="st1" d="M8,12c0,0-1,1.4-1,2c0,1.4,2,1.4,2,0C9,13.4,8,12,8,12z"/>
<path class="st1" d="M5,12c0,0-1,1.4-1,2c0,1.4,2,1.4,2,0C6,13.4,5,12,5,12z"/>
<path class="st1" d="M11,12c0,0-1,1.4-1,2c0,1.4,2,1.4,2,0C12,13.4,11,12,11,12z"/>
<g id="云_2_">
	<path class="st2" d="M3.9,9.2C2,9.2,0.5,7.6,0.5,5.8S2,2.4,3.9,2.4c0.7,0,1.4,0.2,1.9,0.6"/>
	<path class="st2" d="M13.2,3.5c1.3,0.4,2.3,1.6,2.3,3c0,1.7-1.4,3.1-3,3.1"/>
	<path class="st2" d="M5.8,3c0.6-1.5,2-2.5,3.7-2.5c1.9,0,3.5,1.3,3.8,3.2"/>
</g>
</svg>
