<?xml version="1.0" encoding="utf-8"?>
<!-- Generator: Adobe Illustrator 24.0.0, SVG Export Plug-In . SVG Version: 6.00 Build 0)  -->
<svg version="1.1" id="图层_2_1_" xmlns="http://www.w3.org/2000/svg" xmlns:xlink="http://www.w3.org/1999/xlink" x="0px"
	 y="0px" viewBox="0 0 16 16" style="enable-background:new 0 0 16 16;" xml:space="preserve">
<style type="text/css">
	.st0{display:none;fill:#808080;}
	.st1{fill:#808080;}
	.st2{fill:none;stroke:#808080;stroke-linecap:round;stroke-miterlimit:10;}
</style>
<image style="display:none;overflow:visible;" width="100" height="100" xlink:href="../图标/302-雷阵雨-Thundershower.png"  transform="matrix(0.2172 0 0 0.2172 -2.633 -2.9113)">
</image>
<path class="st0" d="M2.2,11c0,0-1.3,1.8-1.3,2.6c0,1.8,2.5,1.8,2.5,0C3.4,12.9,2.2,11,2.2,11z"/>
<path class="st0" d="M6.2,12c0,0-1.3,1.8-1.3,2.6c0,1.8,2.5,1.8,2.5,0C7.4,13.9,6.2,12,6.2,12z"/>
<path class="st0" d="M10.2,12c0,0-1.3,1.8-1.3,2.6c0,1.8,2.5,1.8,2.5,0C11.4,13.9,10.2,12,10.2,12z"/>
<path class="st0" d="M14,11c0,0-1.3,1.8-1.3,2.6c0,1.8,2.5,1.8,2.5,0C15.3,12.9,14,11,14,11z"/>
<path class="st1" d="M13,11.2c0,0-1,1.4-1,2c0,1.4,2,1.4,2,0C14,12.6,13,11.2,13,11.2z"/>
<path class="st1" d="M3,11c0,0-1,1.4-1,2c0,1.4,2,1.4,2,0C4,12.4,3,11,3,11z"/>
<path class="st0" d="M11,12c0,0-1,1.4-1,2c0,1.4,2,1.4,2,0C12,13.4,11,12,11,12z"/>
<g id="云_2_">
	<path class="st2" d="M3.9,9.2C2,9.2,0.5,7.6,0.5,5.8S2,2.4,3.9,2.4c0.7,0,1.4,0.2,1.9,0.6"/>
	<path class="st2" d="M13.2,3.5c1.3,0.4,2.3,1.6,2.3,3c0,1.7-1.4,3.1-3,3.1"/>
	<path class="st2" d="M5.8,3c0.6-1.5,2-2.5,3.7-2.5c1.9,0,3.5,1.3,3.8,3.2"/>
</g>
<polygon class="st1" points="9,6 8.8,9 6.5,9 5.5,14.5 8.3,11 10.5,11 11.5,6 "/>
</svg>
