<?xml version="1.0" encoding="utf-8"?>
<!-- Generator: Adobe Illustrator 24.0.0, SVG Export Plug-In . SVG Version: 6.00 Build 0)  -->
<svg version="1.1" id="图层_2_1_" xmlns="http://www.w3.org/2000/svg" xmlns:xlink="http://www.w3.org/1999/xlink" x="0px"
	 y="0px" viewBox="0 0 16 16" style="enable-background:new 0 0 16 16;" xml:space="preserve">
<style type="text/css">
	.st0{display:none;}
	.st1{display:inline;fill:#808080;}
	.st2{fill:none;stroke:#808080;stroke-linecap:round;stroke-miterlimit:10;}
	.st3{fill:#808080;}
	.st4{display:none;fill:#808080;}
	.st5{display:none;fill:none;stroke:#808080;stroke-linecap:round;stroke-miterlimit:10;}
</style>
<g class="st0">
	<circle class="st1" cx="3" cy="12" r="1"/>
	<circle class="st1" cx="13" cy="12" r="1"/>
	<circle class="st1" cx="11" cy="15" r="1"/>
	<circle class="st1" cx="5" cy="15" r="1"/>
	<circle class="st1" cx="8" cy="13" r="1"/>
</g>
<g>
	<path class="st2" d="M5.2,9C4.7,9.3,4.1,9.5,3.5,9.5c-1.7,0-3-1.3-3-3s1.3-3,3-3c0.4,0,0.8,0.1,1.1,0.2"/>
	<path class="st2" d="M12,3.5c0.2,0,0.3,0,0.5,0c1.7,0,3,1.3,3,3s-1.3,3-3,3c-0.3,0-0.7-0.1-1-0.2"/>
	<path class="st2" d="M11.5,9.3c-0.8,0.7-1.9,1.2-3,1.2C7.2,10.5,6,9.9,5.2,9"/>
	<path class="st2" d="M4.6,3.7c0.8-1.3,2.2-2.2,3.9-2.2c1.6,0,2.9,0.8,3.7,2"/>
</g>
<g>
	<path class="st3" d="M3,12c0,0-1,1.4-1,2c0,1.4,2,1.4,2,0C4,13.4,3,12,3,12z"/>
	<path class="st4" d="M2,10c0,0-1,1.4-1,2c0,1.4,2,1.4,2,0C3,11.4,2,10,2,10z"/>
	<path class="st4" d="M10,10c0,0-1,1.4-1,2c0,1.4,2,1.4,2,0C11,11.4,10,10,10,10z"/>
	<path class="st4" d="M14,10c0,0-1,1.4-1,2c0,1.4,2,1.4,2,0C15,11.4,14,10,14,10z"/>
	<path class="st3" d="M8,13c0,0-1,1.4-1,2c0,1.4,2,1.4,2,0C9,14.4,8,13,8,13z"/>
	<path class="st3" d="M13,12c0,0-1,1.4-1,2c0,1.4,2,1.4,2,0C14,13.4,13,12,13,12z"/>
	<path class="st4" d="M6,10c0,0-1,1.4-1,2c0,1.4,2,1.4,2,0C7,11.4,6,10,6,10z"/>
	<path class="st4" d="M8.2,12c0,0-1.2,1.8-1.2,2.6c0,1.8,2.5,1.8,2.5,0C9.4,13.9,8.2,12,8.2,12z"/>
</g>
<g>
	<line class="st5" x1="8.5" y1="13.5" x2="8.5" y2="15.5"/>
	<line class="st2" x1="5.5" y1="12.5" x2="5.5" y2="14.5"/>
	<line class="st5" x1="10.5" y1="12.5" x2="10.5" y2="14.5"/>
	<line class="st5" x1="3.5" y1="11.5" x2="3.5" y2="13.5"/>
	<line class="st2" x1="10.5" y1="12.5" x2="10.5" y2="14.5"/>
	<line class="st2" x1="1.5" y1="10.5" x2="1.5" y2="12.5"/>
	<line class="st2" x1="14.5" y1="10.5" x2="14.5" y2="12.5"/>
</g>
<g class="st0">
	<circle class="st1" cx="4.5" cy="11.5" r="0.5"/>
	<circle class="st1" cx="6.5" cy="12.5" r="0.5"/>
	<circle class="st1" cx="8.5" cy="13.5" r="0.5"/>
	<circle class="st1" cx="10.5" cy="12.5" r="0.5"/>
	<circle class="st1" cx="12.5" cy="11.5" r="0.5"/>
</g>
<image style="display:none;overflow:visible;" width="100" height="100" xlink:href="../图标/311-大暴雨-Heavy Storm.png"  transform="matrix(0.2125 0 0 0.2125 -2.3883 -2.7287)">
</image>
</svg>
