<?xml version="1.0" encoding="utf-8"?>
<!-- Generator: Adobe Illustrator 24.0.0, SVG Export Plug-In . SVG Version: 6.00 Build 0)  -->
<svg version="1.1" xmlns="http://www.w3.org/2000/svg" xmlns:xlink="http://www.w3.org/1999/xlink" x="0px" y="0px"
	 viewBox="0 0 16 16" style="enable-background:new 0 0 16 16;" xml:space="preserve">
<style type="text/css">
	.st0{display:none;}
	.st1{display:inline;}
	.st2{fill:none;stroke:#808080;stroke-linecap:round;stroke-miterlimit:10;}
	.st3{display:inline;fill:none;stroke:#808080;stroke-width:0.5;stroke-linecap:round;stroke-miterlimit:10;}
	.st4{fill:#808080;}
</style>
<g id="图层_2_1_" class="st0">
	<g class="st1">
		<path class="st2" d="M5.2,9C4.7,9.3,4.1,9.5,3.5,9.5c-1.7,0-3-1.3-3-3s1.3-3,3-3c0.4,0,0.8,0.1,1.1,0.2"/>
		<path class="st2" d="M12,3.5c0.2,0,0.3,0,0.5,0c1.7,0,3,1.3,3,3s-1.3,3-3,3c-0.3,0-0.7-0.1-1-0.2"/>
		<path class="st2" d="M11.5,9.3c-0.8,0.7-1.9,1.2-3,1.2C7.2,10.5,6,9.9,5.2,9"/>
		<path class="st2" d="M4.6,3.7c0.8-1.3,2.2-2.2,3.9-2.2c1.6,0,2.9,0.8,3.7,2"/>
	</g>
	
		<image style="overflow:visible;" width="100" height="100" xlink:href="../图标/400-小雪-Light Snow.png"  transform="matrix(0.2159 0 0 0.2159 -2.7128 -3.0904)">
	</image>
	<g>
		<line class="st3" x1="5.9" y1="13.5" x2="9.9" y2="13.5"/>
		<line class="st3" x1="6.9" y1="11.8" x2="8.9" y2="15.2"/>
		<line class="st3" x1="6.8" y1="15.2" x2="8.9" y2="11.8"/>
	</g>
</g>
<g id="图层_5">
	<g>
		<path class="st4" d="M9.9,11.4L8.3,12l1.6,0.6c0.4,0.2,0.6,0.3,0.7,0.4s0.1,0.2,0.1,0.3c0,0.3,0,0.4-0.1,0.4s-0.2,0-0.3,0
			s-0.2,0-0.3-0.1s-0.2-0.1-0.3-0.2l-1.5-1.3l0.3,2c0,0.1,0,0.2,0,0.3s0,0.1,0,0.2c0,0.2,0,0.3-0.1,0.4s-0.2,0.1-0.3,0.1
			c-0.1,0-0.2,0-0.3-0.1s-0.2-0.2-0.2-0.4c0-0.1,0-0.1,0-0.2c0-0.1,0-0.1,0-0.2l0.4-2l-1.5,1.3c-0.1,0.1-0.2,0.1-0.3,0.2
			S6.1,13.8,6,13.8s-0.2,0-0.3-0.1s-0.1-0.2-0.1-0.4c0-0.1,0-0.2,0.1-0.3s0.3-0.2,0.7-0.3L8,12l-1.6-0.6c-0.2-0.1-0.4-0.2-0.6-0.3
			c-0.2-0.1-0.2-0.2-0.2-0.4c0-0.2,0-0.3,0.1-0.4c0.1-0.1,0.2-0.1,0.3-0.1s0.2,0,0.3,0.1s0.2,0.1,0.3,0.2l1.5,1.3l-0.3-2
			c0-0.1,0-0.2,0-0.2c0-0.1,0-0.1,0-0.2c0-0.1,0-0.2,0.1-0.4C8,9.1,8.1,9,8.2,9c0.2,0,0.3,0.1,0.4,0.2c0.1,0.1,0.1,0.2,0.1,0.3
			c0,0.1,0,0.1,0,0.2c0,0.1,0,0.1,0,0.2l-0.4,2l1.5-1.3c0.1-0.1,0.2-0.2,0.3-0.2c0.1,0,0.2,0,0.3,0c0.1,0,0.2,0,0.3,0.1
			s0.1,0.2,0.1,0.3c0,0.1,0,0.2-0.1,0.3C10.6,11.2,10.3,11.3,9.9,11.4z"/>
	</g>
</g>
<g id="图层_3">
	<g id="云_2_">
		<path class="st2" d="M3.9,10.2c-1.9,0-3.4-1.6-3.4-3.4S2,3.4,3.9,3.4c0.7,0,1.4,0.2,1.9,0.6"/>
		<path class="st2" d="M13.2,4.5c1.3,0.4,2.3,1.6,2.3,3c0,1.7-1.4,3.1-3,3.1"/>
		<path class="st2" d="M5.8,4c0.6-1.5,2-2.5,3.7-2.5c1.9,0,3.5,1.3,3.8,3.2"/>
	</g>
</g>
</svg>
