<?xml version="1.0" encoding="utf-8"?>
<!-- Generator: Adobe Illustrator 24.0.0, SVG Export Plug-In . SVG Version: 6.00 Build 0)  -->
<svg version="1.1" xmlns="http://www.w3.org/2000/svg" xmlns:xlink="http://www.w3.org/1999/xlink" x="0px" y="0px"
	 viewBox="0 0 16 16" style="enable-background:new 0 0 16 16;" xml:space="preserve">
<style type="text/css">
	.st0{display:none;}
	.st1{display:inline;}
	.st2{fill:none;stroke:#808080;stroke-linecap:round;stroke-miterlimit:10;}
	.st3{display:inline;fill:none;stroke:#808080;stroke-width:0.5;stroke-linecap:round;stroke-miterlimit:10;}
	.st4{fill:#808080;}
	.st5{display:inline;fill:#808080;}
</style>
<g id="图层_2_1_" class="st0">
	<g class="st1">
		<path class="st2" d="M5.2,9C4.7,9.3,4.1,9.5,3.5,9.5c-1.7,0-3-1.3-3-3s1.3-3,3-3c0.4,0,0.8,0.1,1.1,0.2"/>
		<path class="st2" d="M12,3.5c0.2,0,0.3,0,0.5,0c1.7,0,3,1.3,3,3s-1.3,3-3,3c-0.3,0-0.7-0.1-1-0.2"/>
		<path class="st2" d="M11.5,9.3c-0.8,0.7-1.9,1.2-3,1.2C7.2,10.5,6,9.9,5.2,9"/>
		<path class="st2" d="M4.6,3.7c0.8-1.3,2.2-2.2,3.9-2.2c1.6,0,2.9,0.8,3.7,2"/>
	</g>
	
		<image style="overflow:visible;" width="100" height="100" xlink:href="../图标/400-小雪-Light Snow.png"  transform="matrix(0.2159 0 0 0.2159 -2.7128 -3.0904)">
	</image>
	<g>
		<line class="st3" x1="5.9" y1="13.5" x2="9.9" y2="13.5"/>
		<line class="st3" x1="6.9" y1="11.8" x2="8.9" y2="15.2"/>
		<line class="st3" x1="6.8" y1="15.2" x2="8.9" y2="11.8"/>
	</g>
</g>
<g id="图层_5_x5F_复制_x5F_2">
	
		<image style="display:none;overflow:visible;" width="100" height="100" xlink:href="../图标/500-薄雾-Mist.png"  transform="matrix(0.2139 0 0 0.2139 -2.5638 -3.1809)">
	</image>
	<g>
		<path class="st4" d="M8,3c2.8,0,5,2.2,5,5s-2.2,5-5,5s-5-2.2-5-5S5.2,3,8,3 M8,2C4.7,2,2,4.7,2,8s2.7,6,6,6s6-2.7,6-6S11.3,2,8,2
			L8,2z"/>
	</g>
	<g>
		<line class="st2" x1="0.5" y1="10.5" x2="14" y2="10.5"/>
	</g>
	<g>
		<line class="st2" x1="2" y1="7.5" x2="15.5" y2="7.5"/>
	</g>
	<g>
		<line class="st2" x1="0.5" y1="5.5" x2="8" y2="5.5"/>
	</g>
</g>
<g id="图层_5_x5F_复制2_x5F_2" class="st0">
	<g class="st1">
		<path class="st4" d="M10.2,9.4L8.7,10l1.6,0.6c0.4,0.2,0.6,0.3,0.7,0.4c0.1,0.1,0.1,0.2,0.1,0.3c0,0.2,0,0.4-0.1,0.4
			c-0.1,0-0.2,0-0.3,0s-0.2,0-0.3-0.1c-0.1,0-0.2-0.1-0.3-0.2l-1.4-1.3l0.3,1.9c0,0.1,0,0.2,0,0.3c0,0.1,0,0.1,0,0.2
			c0,0.2,0,0.3-0.1,0.4C8.7,13,8.6,13,8.5,13c-0.1,0-0.2,0-0.3-0.1S8,12.7,8,12.5c0-0.1,0-0.1,0-0.2c0-0.1,0-0.1,0-0.2l0.4-1.9
			L7,11.4c-0.1,0.1-0.2,0.1-0.3,0.2c-0.1,0.1-0.2,0.1-0.3,0.1s-0.2,0-0.3-0.1S6,11.4,6,11.3c0-0.1,0-0.2,0.1-0.3
			c0.1-0.1,0.3-0.2,0.6-0.3L8.3,10L6.8,9.4C6.6,9.3,6.4,9.2,6.2,9.2C6.1,9.1,6,9,6,8.8c0-0.2,0-0.3,0.1-0.3c0.1-0.1,0.2-0.1,0.3-0.1
			s0.2,0,0.3,0.1c0.1,0,0.2,0.1,0.3,0.2l1.4,1.3L8.1,8c0-0.1,0-0.2,0-0.2c0-0.1,0-0.1,0-0.2c0-0.1,0-0.2,0.1-0.3
			C8.3,7.1,8.4,7,8.5,7c0.2,0,0.3,0.1,0.4,0.2C9,7.3,9,7.5,9,7.5c0,0.1,0,0.1,0,0.2c0,0.1,0,0.1,0,0.2L8.6,9.9L10,8.6
			c0.1-0.1,0.2-0.2,0.3-0.2c0.1,0,0.2,0,0.3,0c0.1,0,0.2,0,0.3,0.1C11,8.6,11,8.7,11,8.8c0,0.1,0,0.2-0.1,0.3
			C10.8,9.2,10.6,9.3,10.2,9.4z"/>
	</g>
	<path class="st4" d="M13.5,11c0,0-1.5,2.3-1.5,3.3c0,2.3,3,2.3,3,0C15,13.3,13.5,11,13.5,11z"/>
	<path class="st5" d="M2.3,11c0,0-1.3,1.8-1.3,2.6c0,1.8,2.5,1.8,2.5,0C3.5,12.9,2.3,11,2.3,11z"/>
	<path class="st5" d="M13.8,11c0,0-1.3,1.8-1.3,2.6c0,1.8,2.5,1.8,2.5,0C15,12.9,13.8,11,13.8,11z"/>
</g>
<g id="图层_5_x5F_复制" class="st0">
</g>
<g id="图层_3" class="st0">
	<g id="云_2_" class="st1">
		<path class="st2" d="M3.9,9.2C2,9.2,0.5,7.6,0.5,5.8S2,2.4,3.9,2.4c0.7,0,1.4,0.2,1.9,0.6"/>
		<path class="st2" d="M13.2,3.5c1.3,0.4,2.3,1.6,2.3,3c0,1.7-1.4,3.1-3,3.1"/>
		<path class="st2" d="M5.8,3c0.6-1.5,2-2.5,3.7-2.5c1.9,0,3.5,1.3,3.8,3.2"/>
	</g>
</g>
</svg>
