<?xml version="1.0" encoding="utf-8"?>
<!-- Generator: Adobe Illustrator 24.0.0, SVG Export Plug-In . SVG Version: 6.00 Build 0)  -->
<svg version="1.1" xmlns="http://www.w3.org/2000/svg" xmlns:xlink="http://www.w3.org/1999/xlink" x="0px" y="0px"
	 viewBox="0 0 16 16" style="enable-background:new 0 0 16 16;" xml:space="preserve">
<style type="text/css">
	.st0{display:none;}
	.st1{fill:none;stroke:#808080;stroke-linecap:round;stroke-miterlimit:10;}
	.st2{fill:none;stroke:#808080;stroke-miterlimit:10;}
	.st3{fill:#808080;}
	.st4{display:inline;fill:#808080;}
</style>
<g id="图层_5" class="st0">
	<path class="st1" d="M9.5,8.8c1.2,0.6,2,1.8,2,3.2c0,1.9-1.6,3.5-3.5,3.5S4.5,13.9,4.5,12c0-1.4,0.8-2.6,2-3.2"/>
	<path class="st2" d="M6.5,9V2c0-0.8,0.7-1.5,1.5-1.5h0c0.8,0,1.5,0.7,1.5,1.5v7"/>
	<rect x="6.8" y="1" class="st3" width="2.5" height="6"/>
	<line class="st1" x1="3" y1="4.5" x2="4.5" y2="4.5"/>
	<line class="st1" x1="3.5" y1="6.5" x2="4.5" y2="6.5"/>
	<line class="st1" x1="2.5" y1="2.5" x2="4.5" y2="2.5"/>
	<rect y="5" class="st4" width="1" height="7"/>
	<rect x="5" y="5" class="st4" width="1" height="7"/>
	<polygon class="st4" points="6,12 4.7,12 0,5 1.3,5 	"/>
	<polygon class="st4" points="13.7,5 12.5,5 10,12 11.3,12 	"/>
	<polygon class="st4" points="12.5,5 13.7,5 16,12 14.7,12 	"/>
	<polygon class="st4" points="15.3,10 11.3,10 11.3,9 15,9 	"/>
	<polygon class="st4" points="8,12 7,12 9,5 10,5 	"/>
</g>
<g id="图层_2">
	
		<image style="overflow:visible;" width="100" height="100" xlink:href="../图标/503-扬沙-Sand.png"  transform="matrix(0.21 0 0 0.21 -22 -3)">
	</image>
</g>
<g id="图层_3">
	<g>
		<path class="st3" d="M10.1,10.5c0.8,0.4,1.4,1,1.4,1.6c0,1.3-2.1,2.3-4.7,2.3c-0.6,0-1.2-0.1-1.8-0.2C5.8,14.7,7,15,8.3,15
			c2.6,0,4.7-1,4.7-2.3C13,11.7,11.8,10.8,10.1,10.5z"/>
	</g>
	<g class="st0">
		<path class="st4" d="M10.6,5.2c1.3,0.6,2,1.5,2,2.5c0,1.9-3.1,3.5-7,3.5c-0.9,0-1.8-0.1-2.6-0.3c1.3,0.6,3,1,5,1
			c3.9,0,7-1.6,7-3.5C15,7,13.2,5.8,10.6,5.2z"/>
	</g>
	<g>
		<g>
			<path class="st3" d="M12.6,8c-0.3,1.8-3.3,3.2-7,3.2c-0.9,0-1.8-0.1-2.6-0.3c1.3,0.6,3,1,5,1c3.9,0,7-1.6,7-3.5
				c0-0.5-0.2-1-0.6-1.4C13.9,7.4,13.3,7.7,12.6,8z"/>
		</g>
	</g>
	<g>
		<path class="st3" d="M10.4,0.3C12,1.1,13,2.3,13,3.5C13,6,9,8,4,8C2.8,8,1.7,7.9,0.6,7.7C2.2,8.5,4.5,9,7,9c5,0,9-2,9-4.5
			C16,2.6,13.7,1,10.4,0.3z"/>
	</g>
	<g class="st0">
		<ellipse class="st4" cx="4" cy="3.5" rx="9" ry="4.5"/>
	</g>
	<circle class="st3" cx="3.5" cy="2.5" r="0.5"/>
	<circle class="st3" cx="8.5" cy="2.5" r="0.5"/>
	<circle class="st3" cx="6.5" cy="4.5" r="0.5"/>
	<circle class="st3" cx="1.5" cy="5.5" r="0.5"/>
	<circle class="st3" cx="4.5" cy="6.5" r="0.5"/>
	<circle class="st3" cx="9.5" cy="5.5" r="0.5"/>
	<circle class="st3" cx="4.5" cy="10.5" r="0.5"/>
	<circle class="st3" cx="7.5" cy="10.5" r="0.5"/>
	<circle class="st3" cx="5.5" cy="13.5" r="0.5"/>
</g>
</svg>
