<?xml version="1.0" encoding="UTF-8"?>
<svg width="63px" height="64px" viewBox="0 0 63 64" version="1.1" xmlns="http://www.w3.org/2000/svg" xmlns:xlink="http://www.w3.org/1999/xlink">
    <title>999-未知-Unknown</title>
    <g id="999-未知-Unknown" stroke="none" stroke-width="1" fill="none" fill-rule="evenodd">
        <path d="M8.466,43 L8.466,25.977 L8.553,25.977 L20.327,43 L22.763,43 L22.763,22.294 L20.385,22.294 L20.385,39.143 L20.298,39.143 L8.582,22.294 L6.088,22.294 L6.088,43 L8.466,43 Z M28.012,45.9 L38.278,19.22 L36.219,19.22 L25.924,45.9 L28.012,45.9 Z M41.903,43 L44.107,37.2 L53.619,37.2 L55.823,43 L58.404,43 L50.255,22.294 L47.5,22.294 L39.351,43 L41.903,43 Z M52.865,35.199 L44.861,35.199 L48.834,24.846 L48.95,24.846 L52.865,35.199 Z" id="N/A" fill="#FFFFFF" fill-rule="nonzero"></path>
    </g>
</svg>