<?xml version="1.0" encoding="utf-8"?>
<!-- Generator: Adobe Illustrator 24.0.0, SVG Export Plug-In . SVG Version: 6.00 Build 0)  -->
<svg version="1.1" xmlns="http://www.w3.org/2000/svg" xmlns:xlink="http://www.w3.org/1999/xlink" x="0px" y="0px"
	 viewBox="0 0 16 16" style="enable-background:new 0 0 16 16;" xml:space="preserve">
<style type="text/css">
	.st0{display:none;}
	.st1{display:inline;fill:#808080;}
	.st2{display:inline;fill:none;stroke:#808080;stroke-miterlimit:10;}
	.st3{fill:#808080;}
	.st4{fill:none;stroke:#808080;stroke-linecap:round;stroke-miterlimit:10;}
	.st5{fill:none;stroke:#808080;stroke-linecap:round;stroke-miterlimit:10;enable-background:new    ;}
</style>
<g id="图层_1" class="st0">
	<title>audio-volume-overamplified-symbolic</title>
	<path class="st1" d="M2.5,4H0v8h2.5L6,16V0L2.5,4z M5,13.3L3,11H1V5h2l2-2.3V13.3z"/>
	<path class="st1" d="M6,6v1c0.5,0,0.9,0.4,1,0.9V8c0,0.5-0.4,1-0.9,1c0,0,0,0,0,0H6v1c1.1,0,2-0.9,2-2S7.1,6,6,6z"/>
	<path class="st1" d="M8,3.1v1c2.1,0.6,3.4,2.8,2.8,4.9c-0.4,1.3-1.4,2.4-2.8,2.8v1c2.7-0.6,4.3-3.3,3.7-6C11.2,5,9.8,3.6,8,3.1z"/>
	<path class="st1" d="M11,0.6v1.1c3.5,1.6,5,5.7,3.3,9.2V11c-0.7,1.4-1.9,2.6-3.3,3.3v1.1C15.1,13.7,17,9,15.4,5
		C14.5,3,13,1.4,11,0.6z"/>
	<line class="st2" x1="6.5" y1="4.5" x2="10" y2="0.5"/>
	<line class="st2" x1="6.5" y1="4.5" x2="10" y2="0.5"/>
	<line class="st2" x1="6.5" y1="11.5" x2="10" y2="15.5"/>
</g>
<g id="图层_2">
	<g>
		<path class="st3" d="M5,2.7v10.7l-1.7-2L3,11H2.5H2c-0.6,0-1-0.4-1-1V6c0-0.6,0.4-1,1-1h0.5H3l0.3-0.3L5,2.7 M5.5,0.8
			C5.4,0.8,5.2,0.9,5.1,1L2.5,4H2C0.9,4,0,4.9,0,6v4c0,1.1,0.9,2,2,2h0.5l2.6,3c0.1,0.1,0.2,0.2,0.4,0.2C5.8,15.2,6,15,6,14.7V1.3
			C6,1,5.8,0.8,5.5,0.8L5.5,0.8z"/>
	</g>
	<path class="st3" d="M6,6v1c0.5,0,1,0.4,1,0.9V8c0,0.5-0.4,1-0.9,1H6v1c1.1,0,2-0.9,2-2S7.1,6,6,6z"/>
	<path class="st4" d="M9,4c1.5,0.7,2.5,2.2,2.5,4c0,1.7-1,3.3-2.5,4"/>
	<path class="st5" d="M12,1.7C14.1,3,15.5,5.3,15.5,8c0,2.6-1.4,5-3.5,6.3"/>
	<line class="st4" x1="6.5" y1="4.5" x2="10" y2="0.5"/>
	<line class="st4" x1="6.5" y1="11.5" x2="10" y2="15.5"/>
</g>
</svg>
