<?xml version="1.0" encoding="utf-8"?>
<!-- Generator: Adobe Illustrator 24.0.0, SVG Export Plug-In . SVG Version: 6.00 Build 0)  -->
<svg version="1.1" xmlns="http://www.w3.org/2000/svg" xmlns:xlink="http://www.w3.org/1999/xlink" x="0px" y="0px"
	 viewBox="0 0 16 16" style="enable-background:new 0 0 16 16;" xml:space="preserve">
<style type="text/css">
	.st0{display:none;}
	.st1{display:inline;fill:#808080;}
	.st2{fill:#808080;}
	.st3{fill:none;stroke:#808080;stroke-miterlimit:10;}
</style>
<g id="图层_1" class="st0">
	<title>channel-secure-symbolic</title>
	<path class="st1" d="M10,6V5.5C10,4.7,9.3,4,8.5,4c0,0,0,0,0,0h-1C6.7,4,6,4.7,6,5.5c0,0,0,0,0,0V6H10z"/>
	<rect x="7" y="8.5" class="st1" width="2" height="2.5"/>
	<path class="st1" d="M13,1H3C1.9,1,1,1.9,1,3v10c0,1.1,0.9,2,2,2h10c1.1,0,2-0.9,2-2V3C15,1.9,14.1,1,13,1z M12.5,11
		c0,1.1-0.9,2-2,2h-5c-1.1,0-2-0.9-2-2V8c0-0.9,0.6-1.7,1.5-1.9V5.5C5,4.1,6.1,3,7.5,3c0,0,0,0,0,0h1C9.9,3,11,4.1,11,5.5
		c0,0,0,0,0,0v0.6c0.9,0.2,1.5,1,1.5,1.9V11z"/>
</g>
<g id="图层_2">
	<g>
		<path class="st2" d="M13,2c0.6,0,1,0.4,1,1v10c0,0.6-0.4,1-1,1H3c-0.6,0-1-0.4-1-1V3c0-0.6,0.4-1,1-1H13 M13,1H3C1.9,1,1,1.9,1,3
			v10c0,1.1,0.9,2,2,2h10c1.1,0,2-0.9,2-2V3C15,1.9,14.1,1,13,1L13,1z"/>
	</g>
	<g>
		<path class="st2" d="M10,7c0.6,0,1,0.4,1,1v3c0,0.6-0.4,1-1,1H6c-0.6,0-1-0.4-1-1V8c0-0.6,0.4-1,1-1H10 M10,6H6C4.9,6,4,6.9,4,8v3
			c0,1.1,0.9,2,2,2h4c1.1,0,2-0.9,2-2V8C12,6.9,11.1,6,10,6L10,6z"/>
	</g>
	<path class="st3" d="M5.5,7V6c0-1.4,1.1-2.5,2.5-2.5h0c1.4,0,2.5,1.1,2.5,2.5v1"/>
</g>
</svg>
