<?xml version="1.0" encoding="utf-8"?>
<!-- Generator: Adobe Illustrator 24.0.0, SVG Export Plug-In . SVG Version: 6.00 Build 0)  -->
<svg version="1.1" id="图层_2" xmlns="http://www.w3.org/2000/svg" xmlns:xlink="http://www.w3.org/1999/xlink" x="0px" y="0px"
	 viewBox="0 0 16 16" style="enable-background:new 0 0 16 16;" xml:space="preserve">
<style type="text/css">
	.st0{fill:none;stroke:#808080;stroke-miterlimit:10;}
	.st1{fill:#808080;}
	.st2{fill:#FC7815;}
	.st3{fill:#FFFFFF;}
</style>
<path class="st0" d="M5,14.5H3.5c-1.1,0-2-0.9-2-2v-9c0-1.1,0.9-2,2-2h9c1.1,0,2,0.9,2,2V10"/>
<g>
	<path class="st1" d="M10,7c0.6,0,1,0.4,1,1v3c0,0.6-0.4,1-1,1H6c-0.6,0-1-0.4-1-1V8c0-0.6,0.4-1,1-1H10 M10,6H6C4.9,6,4,6.9,4,8v3
		c0,1.1,0.9,2,2,2h4c1.1,0,2-0.9,2-2V8C12,6.9,11.1,6,10,6L10,6z"/>
</g>
<path class="st0" d="M5.5,7V6c0-1.4,1.1-2.5,2.5-2.5h0c1.4,0,2.5,1.1,2.5,2.5v1"/>
<path class="st2" d="M11.5,8L7,16h9L11.5,8z"/>
<g id="图层_3">
</g>
<rect x="11" y="10" class="st3" width="1" height="3"/>
<rect x="11" y="14" class="st3" width="1" height="1"/>
</svg>
