<?xml version="1.0" encoding="utf-8"?>
<!-- Generator: Adobe Illustrator 24.0.0, SVG Export Plug-In . SVG Version: 6.00 Build 0)  -->
<svg version="1.1" xmlns="http://www.w3.org/2000/svg" xmlns:xlink="http://www.w3.org/1999/xlink" x="0px" y="0px"
	 viewBox="0 0 16 16" style="enable-background:new 0 0 16 16;" xml:space="preserve">
<style type="text/css">
	.st0{fill:#808080;}
	.st1{display:none;fill:#808080;}
	.st2{fill:none;stroke:#808080;stroke-miterlimit:10;}
</style>
<g id="图层_1">
	<title>network-cellular-signal-excellent-secure-symbolic</title>
	<path class="st0" d="M10.9,11.8"/>
	<path class="st1" d="M15,1.2V14c0,0.6-0.4,1-1,1H1.2c-0.4,0-0.7-0.5-0.4-0.9L14.1,0.9C14.5,0.5,15,0.8,15,1.2z"/>
	<g>
		<path class="st0" d="M15,12v3h-5v-3H15 M15,11h-5c-0.6,0-1,0.4-1,1v3c0,0.6,0.4,1,1,1h5c0.6,0,1-0.4,1-1v-3C16,11.4,15.6,11,15,11
			L15,11z"/>
		<path class="st2" d="M10.5,11.3v-0.8c0-1.1,0.9-2,2-2l0,0c1.1,0,2,0.9,2,2v0.8"/>
	</g>
</g>
<g id="图层_2">
	<g>
		<path class="st0" d="M15,7V1.2c0-0.4-0.5-0.7-0.9-0.4L0.9,14.1C0.5,14.5,0.8,15,1.2,15H8v-5h1V8l1,0l0-1H15z"/>
	</g>
</g>
</svg>
