<?xml version="1.0" encoding="utf-8"?>
<!-- Generator: Adobe Illustrator 24.0.0, SVG Export Plug-In . SVG Version: 6.00 Build 0)  -->
<svg version="1.1" xmlns="http://www.w3.org/2000/svg" xmlns:xlink="http://www.w3.org/1999/xlink" x="0px" y="0px"
	 viewBox="0 0 16 16" style="enable-background:new 0 0 16 16;" xml:space="preserve">
<style type="text/css">
	.st0{display:none;}
	.st1{display:inline;fill:#808080;}
	.st2{fill:none;stroke:#808080;stroke-linecap:round;stroke-miterlimit:10;}
	.st3{fill:#808080;}
	.st4{fill:none;stroke:#808080;stroke-miterlimit:10;}
</style>
<g id="图层_1" class="st0">
	<title>network-cellular-signal-weak-secure-symbolic</title>
	<path class="st1" d="M15,12v-1.5C15,9.7,14.3,9,13.5,9S12,9.7,12,10.5V12h-1v4h5v-4H15z M13,10.5c0-0.3,0.2-0.5,0.5-0.5
		s0.5,0.2,0.5,0.5V12h-1V10.5z"/>
	<polygon class="st1" points="0.8,16 10,16 10,15 3.2,15 15,3.7 15,8 16,8 16,1.3 	"/>
	<polygon class="st1" points="7,11 7,15.7 2.2,15.6 	"/>
</g>
<g id="图层_2">
	<path class="st2" d="M14.5,7V1.7c0-0.4-0.5-0.7-0.9-0.4L1.4,13.6C1,14,1.3,14.5,1.7,14.5h5.8"/>
	<g>
		<path class="st3" d="M6,8.9l-4.3,4.4C1.1,13.9,1.5,15,2.4,15H6V8.9z"/>
	</g>
	<g>
		<path class="st3" d="M15,12v3h-5v-3H15 M15,11h-5c-0.6,0-1,0.4-1,1v3c0,0.6,0.4,1,1,1h5c0.6,0,1-0.4,1-1v-3C16,11.4,15.6,11,15,11
			L15,11z"/>
		<path class="st4" d="M10.5,11.3v-0.8c0-1.1,0.9-2,2-2l0,0c1.1,0,2,0.9,2,2v0.8"/>
	</g>
</g>
</svg>
