<?xml version="1.0" encoding="utf-8"?>
<!-- Generator: Adobe Illustrator 24.0.0, SVG Export Plug-In . SVG Version: 6.00 Build 0)  -->
<svg version="1.1" id="图层_2_1_" xmlns="http://www.w3.org/2000/svg" xmlns:xlink="http://www.w3.org/1999/xlink" x="0px"
	 y="0px" viewBox="0 0 16 16" style="enable-background:new 0 0 16 16;" xml:space="preserve">
<style type="text/css">
	.st0{display:none;}
	.st1{display:inline;}
	.st2{fill:#808080;}
	.st3{fill:none;stroke:#808080;stroke-linecap:round;stroke-miterlimit:10;}
	.st4{fill:none;stroke:#808080;stroke-miterlimit:10;}
</style>
<g id="图层_3" class="st0">
	<g class="st1">
		<path class="st2" d="M14,2.4V14H2.4L14,2.4 M14.5,0.7c-0.1,0-0.2,0-0.3,0.1L0.9,14.1C0.5,14.5,0.8,15,1.2,15H14c0.6,0,1-0.4,1-1
			V1.2C15,0.9,14.8,0.7,14.5,0.7L14.5,0.7z"/>
	</g>
	<g class="st1">
		<path class="st2" d="M12,3L0.9,14.1C0.5,14.5,0.8,15,1.2,15H12V3z"/>
	</g>
</g>
<g id="图层_3_x5F_复制">
	<path class="st3" d="M14.5,7V1.7c0-0.4-0.5-0.7-0.9-0.4L1.4,13.6C1,14,1.3,14.5,1.7,14.5H7"/>
	<g>
		<path class="st2" d="M12,3L1.7,13.3C1.1,13.9,1.5,15,2.4,15H8v-5h1V8h1V7l2,0V3z"/>
	</g>
</g>
<g>
	<path class="st2" d="M15,12v3h-5v-3H15 M15,11h-5c-0.6,0-1,0.4-1,1v3c0,0.6,0.4,1,1,1h5c0.6,0,1-0.4,1-1v-3C16,11.4,15.6,11,15,11
		L15,11z"/>
	<path class="st4" d="M10.5,11.3v-0.8c0-1.1,0.9-2,2-2l0,0c1.1,0,2,0.9,2,2v0.8"/>
</g>
</svg>
