<?xml version="1.0" encoding="utf-8"?>
<!-- Generator: Adobe Illustrator 24.0.0, SVG Export Plug-In . SVG Version: 6.00 Build 0)  -->
<svg version="1.1" id="图层_1" xmlns="http://www.w3.org/2000/svg" xmlns:xlink="http://www.w3.org/1999/xlink" x="0px" y="0px"
	 viewBox="0 0 16 16" style="enable-background:new 0 0 16 16;" xml:space="preserve">
<style type="text/css">
	.st0{fill:#808080;}
	.st1{opacity:0.2;fill:none;stroke:#808080;stroke-linecap:round;stroke-miterlimit:10;}
</style>
<path class="st0" d="M12,6h1c0.6,0,1,0.4,1,1v1c0,0.6-0.4,1-1,1h-1c-0.6,0-1-0.4-1-1V7C11,6.4,11.4,6,12,6z"/>
<path class="st0" d="M8,6h1c0.6,0,1,0.4,1,1v1c0,0.6-0.4,1-1,1H8C7.4,9,7,8.6,7,8V7C7,6.4,7.4,6,8,6z"/>
<path class="st0" d="M4,6h1c0.6,0,1,0.4,1,1v1c0,0.6-0.4,1-1,1H4C3.4,9,3,8.6,3,8V7C3,6.4,3.4,6,4,6z"/>
<path class="st1" d="M4.9,10l-4,3.6c-0.3,0.3-0.1,0.9,0.3,0.9h13.2c0.5,0,1-0.4,1-1V1.4C15.5,1,15,0.7,14.7,1l-4.3,4"/>
</svg>
