<?xml version="1.0" encoding="utf-8"?>
<!-- Generator: Adobe Illustrator 24.0.0, SVG Export Plug-In . SVG Version: 6.00 Build 0)  -->
<svg version="1.1" id="_开关" xmlns="http://www.w3.org/2000/svg" xmlns:xlink="http://www.w3.org/1999/xlink" x="0px" y="0px"
	 viewBox="0 0 16 16" style="enable-background:new 0 0 16 16;" xml:space="preserve">
<style type="text/css">
	.st0{display:none;}
	.st1{display:inline;fill:none;stroke:#808080;stroke-linecap:round;stroke-miterlimit:10;}
	.st2{fill:#808080;}
	.st3{fill:none;stroke:#808080;stroke-linecap:round;stroke-miterlimit:10;}
</style>
<title>16</title>
<g id="_16" class="st0">
	<path class="st1" d="M6.1,2.5c-3.4,1-5.4,4.7-4.4,8.3s4.6,5.5,8.1,4.5s5.4-4.7,4.4-8.3C13.6,4.8,12,3.2,9.9,2.5"/>
</g>
<path class="st2" d="M8,1L8,1c0.6,0,1,0.4,1,1v5c0,0.6-0.4,1-1,1h0C7.4,8,7,7.6,7,7V2C7,1.4,7.4,1,8,1z"/>
<path class="st3" d="M11,3.2c2.1,1.1,3.5,3.3,3.5,5.8c0,3.6-2.9,6.5-6.5,6.5S1.5,12.6,1.5,9c0-2.5,1.5-4.7,3.6-5.8"/>
</svg>
