<?xml version="1.0" encoding="utf-8"?>
<!-- Generator: Adobe Illustrator 14.0.0, SVG Export Plug-In . SVG Version: 6.00 Build 43363)  -->
<!DOCTYPE svg PUBLIC "-//W3C//DTD SVG 1.1//EN" "http://www.w3.org/Graphics/SVG/1.1/DTD/svg11.dtd">
<svg version="1.1"
	 id="svg2408" xmlns:dc="http://purl.org/dc/elements/1.1/" xmlns:svg="http://www.w3.org/2000/svg" xmlns:cc="http://creativecommons.org/ns#" xmlns:rdf="http://www.w3.org/1999/02/22-rdf-syntax-ns#" xmlns:inkscape="http://www.inkscape.org/namespaces/inkscape"
	 xmlns="http://www.w3.org/2000/svg" xmlns:xlink="http://www.w3.org/1999/xlink" x="0px" y="0px" width="96px" height="96px"
	 viewBox="0 0 96 96" enable-background="new 0 0 96 96" xml:space="preserve">
<g>
	<g>
		<g>
			
				<linearGradient id="SVGID_1_" gradientUnits="userSpaceOnUse" x1="14" y1="744" x2="106" y2="744" gradientTransform="matrix(1 0 0 1 -12 -696)">
				<stop  offset="0" style="stop-color:#000000"/>
				<stop  offset="1" style="stop-color:#000000;stop-opacity:0.5882"/>
			</linearGradient>
			<path opacity="0.08" fill="url(#SVGID_1_)" enable-background="new    " d="M10.5,93C5.813,93,2,89.188,2,84.5v-73
				C2,6.813,5.813,3,10.5,3h42c4.145,0,7.652,3.007,8.367,7H81.5c4.688,0,8.5,3.813,8.5,8.5v3.805c2.482,1.538,4,4.241,4,7.195v55
				c0,4.688-3.813,8.5-8.5,8.5H10.5z"/>
			
				<linearGradient id="SVGID_2_" gradientUnits="userSpaceOnUse" x1="15" y1="744" x2="105" y2="744" gradientTransform="matrix(1 0 0 1 -12 -696)">
				<stop  offset="0" style="stop-color:#000000"/>
				<stop  offset="1" style="stop-color:#000000;stop-opacity:0.5882"/>
			</linearGradient>
			<path opacity="0.1" fill="url(#SVGID_2_)" enable-background="new    " d="M10.5,92C6.364,92,3,88.636,3,84.5v-73
				C3,7.364,6.364,4,10.5,4h42c3.968,0,7.227,3.097,7.482,7H81.5c4.137,0,7.5,3.364,7.5,7.5v4.385c2.451,1.284,4,3.813,4,6.615v55
				c0,4.136-3.363,7.5-7.5,7.5H10.5z"/>
			
				<linearGradient id="SVGID_3_" gradientUnits="userSpaceOnUse" x1="16" y1="744" x2="104" y2="744" gradientTransform="matrix(1 0 0 1 -12 -696)">
				<stop  offset="0" style="stop-color:#000000"/>
				<stop  offset="1" style="stop-color:#000000;stop-opacity:0.5882"/>
			</linearGradient>
			<path opacity="0.2" fill="url(#SVGID_3_)" enable-background="new    " d="M10.5,91C6.916,91,4,88.084,4,84.5v-73
				C4,7.916,6.916,5,10.5,5h42c3.584,0,6.5,2.916,6.5,6.5V12h22.5c3.584,0,6.5,2.916,6.5,6.5v5.02c2.37,0.982,4,3.306,4,5.98v55
				c0,3.584-2.916,6.5-6.5,6.5H10.5z"/>
			
				<linearGradient id="SVGID_4_" gradientUnits="userSpaceOnUse" x1="60" y1="704" x2="60" y2="786.4195" gradientTransform="matrix(1 0 0 1 -12 -696)">
				<stop  offset="0" style="stop-color:#000000"/>
				<stop  offset="1" style="stop-color:#000000;stop-opacity:0.5882"/>
			</linearGradient>
			<path opacity="0.45" fill="url(#SVGID_4_)" enable-background="new    " d="M86,26.05V19.5c0-2.484-2.016-4.5-4.5-4.5H57v-2.5
				c0-2.484-2.016-4.5-4.5-4.5h-42C8.015,8,6,10.016,6,12.5v18V63v22.5c0,2.486,2.015,4.5,4.5,4.5h75c2.484,0,4.5-2.014,4.5-4.5v-55
				C90,28.187,88.246,26.302,86,26.05z"/>
		</g>
		
			<linearGradient id="SVGID_5_" gradientUnits="userSpaceOnUse" x1="60" y1="701" x2="60" y2="785.4297" gradientTransform="matrix(1 0 0 1 -12 -696)">
			<stop  offset="0" style="stop-color:#B1B1B1"/>
			<stop  offset="1" style="stop-color:#181818"/>
		</linearGradient>
		<path fill="url(#SVGID_5_)" d="M86,23.05V16.5c0-2.484-2.016-4.5-4.5-4.5H57V9.5C57,7.016,54.984,5,52.5,5h-42
			C8.015,5,6,7.016,6,9.5v18V62v22.5c0,2.486,2.015,4.5,4.5,4.5h75c2.484,0,4.5-2.014,4.5-4.5v-57C90,25.187,88.246,23.302,86,23.05
			z"/>
		<path opacity="0.3" fill="#434343" enable-background="new    " d="M86,23.05V16.5c0-2.484-2.016-4.5-4.5-4.5H57V9.5
			C57,7.016,54.984,5,52.5,5h-42C8.015,5,6,7.016,6,9.5v18V62v22.5c0,2.486,2.015,4.5,4.5,4.5h75c2.484,0,4.5-2.014,4.5-4.5v-57
			C90,25.187,88.246,23.302,86,23.05z"/>
		<g>
			<path fill="#3B3B3B" d="M90,84.5c0,2.486-2.016,4.5-4.5,4.5h-75C8.015,89,6,86.986,6,84.5v-57c0-2.484,2.015-4.5,4.5-4.5h75
				c2.484,0,4.5,2.016,4.5,4.5V84.5z"/>
		</g>
		
			<linearGradient id="SVGID_6_" gradientUnits="userSpaceOnUse" x1="58" y1="701" x2="58" y2="769.8505" gradientTransform="matrix(1 0 0 1 -12 -696)">
			<stop  offset="0" style="stop-color:#D4D4D4"/>
			<stop  offset="1" style="stop-color:#333333"/>
		</linearGradient>
		<path fill="url(#SVGID_6_)" d="M81.5,12H57V9.5C57,7.016,54.984,5,52.5,5h-42C8.015,5,6,7.016,6,9.5V62c0,2.486,2.015,4.5,4.5,4.5
			H35V69c0,2.486,2.015,4.5,4.5,4.5h42c2.484,0,4.5-2.014,4.5-4.5V16.5C86,14.016,83.984,12,81.5,12z"/>
		
			<linearGradient id="SVGID_7_" gradientUnits="userSpaceOnUse" x1="58" y1="702.5" x2="58" y2="768.3352" gradientTransform="matrix(1 0 0 1 -12 -696)">
			<stop  offset="0" style="stop-color:#B8B8B8"/>
			<stop  offset="1" style="stop-color:#404040"/>
		</linearGradient>
		<path fill="url(#SVGID_7_)" d="M81.5,13.5h-26v-4c0-1.655-1.346-3-3-3h-42c-1.655,0-3,1.345-3,3V62c0,1.652,1.345,3,3,3h26v4
			c0,1.652,1.345,3,3,3h42c1.654,0,3-1.348,3-3V16.5C84.5,14.845,83.154,13.5,81.5,13.5z"/>
		
			<linearGradient id="SVGID_8_" gradientUnits="userSpaceOnUse" x1="58" y1="702.5" x2="58" y2="768.3352" gradientTransform="matrix(1 0 0 1 -12 -696)">
			<stop  offset="0" style="stop-color:#B1B1B1;stop-opacity:0"/>
			<stop  offset="0.9127" style="stop-color:#9F9F9F"/>
		</linearGradient>
		<path fill="url(#SVGID_8_)" d="M81.5,13.5h-26v-4c0-1.655-1.346-3-3-3h-42c-1.655,0-3,1.345-3,3V62c0,1.652,1.345,3,3,3h26v4
			c0,1.652,1.345,3,3,3h42c1.654,0,3-1.348,3-3V16.5C84.5,14.845,83.154,13.5,81.5,13.5z"/>
		
			<radialGradient id="SVGID_9_" cx="46.333" cy="2036.5889" r="35.7406" gradientTransform="matrix(1 0 0 0.3428 -12 -691.8922)" gradientUnits="userSpaceOnUse">
			<stop  offset="0" style="stop-color:#CECECE"/>
			<stop  offset="1" style="stop-color:#D9D9D9;stop-opacity:0"/>
		</radialGradient>
		<path opacity="0.2" fill="url(#SVGID_9_)" enable-background="new    " d="M81.5,13.5h-26v-4c0-1.655-1.346-3-3-3h-42
			c-1.655,0-3,1.345-3,3V62c0,1.652,1.345,3,3,3h26v4c0,1.652,1.345,3,3,3h42c1.654,0,3-1.348,3-3V16.5
			C84.5,14.845,83.154,13.5,81.5,13.5z"/>
		
			<radialGradient id="SVGID_10_" cx="58.625" cy="4170.8252" r="35.7407" gradientTransform="matrix(1 0 0 0.1679 -12 -674.7806)" gradientUnits="userSpaceOnUse">
			<stop  offset="0.0873" style="stop-color:#353535"/>
			<stop  offset="1" style="stop-color:#353535;stop-opacity:0"/>
		</radialGradient>
		<path opacity="0.4" fill="url(#SVGID_10_)" enable-background="new    " d="M81.5,13.5h-26v-4c0-1.655-1.346-3-3-3h-42
			c-1.655,0-3,1.345-3,3V62c0,1.652,1.345,3,3,3h26v4c0,1.652,1.345,3,3,3h42c1.654,0,3-1.348,3-3V16.5
			C84.5,14.845,83.154,13.5,81.5,13.5z"/>
		
			<linearGradient id="SVGID_11_" gradientUnits="userSpaceOnUse" x1="60" y1="719" x2="60" y2="780.8148" gradientTransform="matrix(1 0 0 1 -12 -696)">
			<stop  offset="0" style="stop-color:#D9D9D9"/>
			<stop  offset="1" style="stop-color:#545454"/>
		</linearGradient>
		<path fill="url(#SVGID_11_)" d="M90,80c0,2.486-2.016,4.5-4.5,4.5h-75C8.015,84.5,6,82.486,6,80V27.5c0-2.484,2.015-4.5,4.5-4.5
			h75c2.484,0,4.5,2.016,4.5,4.5V80z"/>
		
			<linearGradient id="SVGID_12_" gradientUnits="userSpaceOnUse" x1="60" y1="720.5" x2="60" y2="779.2994" gradientTransform="matrix(1 0 0 1 -12 -696)">
			<stop  offset="0" style="stop-color:#BFBFBF"/>
			<stop  offset="1" style="stop-color:#4D4D4D"/>
		</linearGradient>
		<path fill="url(#SVGID_12_)" d="M10.5,83c-1.655,0-3-1.348-3-3V27.5c0-1.655,1.345-3,3-3h75c1.654,0,3,1.345,3,3V80
			c0,1.652-1.346,3-3,3H10.5z"/>
		
			<radialGradient id="SVGID_13_" cx="60.25" cy="719.125" r="36.8073" gradientTransform="matrix(1 0 0 1 -12 -696)" gradientUnits="userSpaceOnUse">
			<stop  offset="0" style="stop-color:#FFFFFF"/>
			<stop  offset="1" style="stop-color:#FFFFFF;stop-opacity:0"/>
		</radialGradient>
		<path opacity="0.3" fill="url(#SVGID_13_)" enable-background="new    " d="M90,80c0,2.486-2.016,4.5-4.5,4.5h-75
			C8.015,84.5,6,82.486,6,80V27.5c0-2.484,2.015-4.5,4.5-4.5h75c2.484,0,4.5,2.016,4.5,4.5V80z"/>
	</g>
	<g>
		<path id="path3859_1_" opacity="0.05" enable-background="new    " d="M78.318,18.737c-0.227-0.009-0.469-0.004-0.735,0.026
			c-0.038,0.005-0.065-0.005-0.104,0H58.213c-0.044-0.003-0.087-0.003-0.131,0c-0.076,0.012-0.104,0.036-0.158,0.053h-0.475
			c-1.824,0-3.315,1.492-3.315,3.316v0.027c0.003,0.435,0.354,0.788,0.79,0.79h2.368c0.21,0.146,0.371,0.251,0.5,0.289V76.9
			c-0.034,2.197,3.138,3.002,4.211,1.132l0.024,0.026l0.055-0.078l8.079-11.424c2.827,3.959,5.606,7.975,8.501,11.896
			c0.021,0.038,0.049,0.071,0.079,0.104c1.473,1.435,4.001,0.021,3.79-1.947h0.025c0-0.045,0-0.086,0-0.131
			c-0.014-18,0.014-36.001-0.025-54.004c0-0.018,0-0.035,0-0.053C82.355,20.18,80.316,18.814,78.318,18.737z"/>
		<path id="path3850-4_1_" inkscape:connector-curvature="0" opacity="0.1" enable-background="new    " d="M58.213,19.553
			c-1.107,0.176-0.703,1.544-0.748,2.324c0.044,0.844,1.385,0.437,1.117,1.322c0,17.901,0,35.801,0,53.701
			c-0.023,1.439,2.126,1.996,2.784,0.713c2.932-4.145,5.862-8.281,8.795-12.426c3.054,4.254,6.032,8.59,9.133,12.793
			c0.97,0.941,2.703-0.055,2.474-1.361c-0.012-18.045,0.022-36.091-0.017-54.136c-0.159-2.042-2.276-3.209-4.164-2.93
			C71.128,19.553,64.671,19.553,58.213,19.553z"/>
		<path id="path3846_1_" opacity="0.15" enable-background="new    " d="M58.292,20.395v1.316c0.646,0,1.132,0.473,1.132,1.105
			v42.188v11.869c0.01,0.363,0.313,0.646,0.672,0.637c0.203-0.006,0.393-0.103,0.512-0.268l9.556-13.501l9.58,13.501
			c0.214,0.293,0.623,0.357,0.915,0.143c0.162-0.119,0.265-0.309,0.27-0.512v-1.764V65.004V22.816c0-1.342-1.115-2.421-2.447-2.421
			H58.292z"/>
	</g>
	<path id="rect3196_1_" inkscape:connector-curvature="0" fill="#1A1A1A" d="M57.76,20.492c-1.376,0-2.482,1.107-2.482,2.482V23
		h24.826v-0.026c0-1.375-1.105-2.482-2.48-2.482H57.76z"/>
	<path id="rect3204_1_" inkscape:connector-curvature="0" fill="#333333" d="M57.76,20.492c1.375,0,2.561,1.107,2.561,2.482v53.221
		l9.932-14.02l9.902,14.02l0.004-53.221c0-1.375-1.16-2.482-2.535-2.482H76.77H58.563H57.76z"/>
	
		<linearGradient id="path3173_2_" gradientUnits="userSpaceOnUse" x1="80.9063" y1="770.0771" x2="80.9063" y2="716.7246" gradientTransform="matrix(1 0 0 1 -12 -696)">
		<stop  offset="0" style="stop-color:#C1C1C1"/>
		<stop  offset="0.5" style="stop-color:#F9F9F9"/>
		<stop  offset="0.75" style="stop-color:#F9F9F9"/>
		<stop  offset="1" style="stop-color:#C1C1C1"/>
	</linearGradient>
	<path id="path3173_1_" inkscape:connector-curvature="0" fill="url(#path3173_2_)" d="M59.365,20.492
		c0.97,0,2.576,0.226,2.576,1.75l-0.004,51.603L70.25,62.18l8.189,11.59l0.008-51.525c0-0.97-0.781-1.75-1.752-1.75L59.365,20.492
		L59.365,20.492z"/>
	
		<linearGradient id="path3175_2_" gradientUnits="userSpaceOnUse" x1="81.0273" y1="767.2715" x2="81.0273" y2="716.5969" gradientTransform="matrix(1 0 0 1 -12 -696)">
		<stop  offset="0" style="stop-color:#616161"/>
		<stop  offset="0.4046" style="stop-color:#616161"/>
		<stop  offset="0.6182" style="stop-color:#696969"/>
		<stop  offset="0.7872" style="stop-color:#737373"/>
		<stop  offset="0.9319" style="stop-color:#8A8A8A"/>
		<stop  offset="1" style="stop-color:#949494"/>
	</linearGradient>
	<path id="path3175_1_" inkscape:connector-curvature="0" fill="url(#path3175_2_)" d="M61.379,20.394
		c0.936,0,2.484,0.111,2.484,1.688v49.189l6.387-9.095l6.425,9.095V22.082c0-0.935-0.752-1.688-1.688-1.688H61.379z"/>
	
		<linearGradient id="path3177_1_" gradientUnits="userSpaceOnUse" x1="452.0742" y1="-1007.1572" x2="452.0742" y2="-1086.2205" gradientTransform="matrix(0.7054 0 0 -0.7054 -249.9346 -690.0156)">
		<stop  offset="0" style="stop-color:#000000;stop-opacity:0.5691"/>
		<stop  offset="0.0702" style="stop-color:#000000;stop-opacity:0"/>
		<stop  offset="0.2027" style="stop-color:#252525;stop-opacity:0.0902"/>
		<stop  offset="0.2665" style="stop-color:#8D8D8D;stop-opacity:0.1373"/>
		<stop  offset="0.3502" style="stop-color:#C4C4C4;stop-opacity:0.1843"/>
		<stop  offset="0.439" style="stop-color:#727272;stop-opacity:0.1373"/>
		<stop  offset="0.4978" style="stop-color:#222222;stop-opacity:0.0902"/>
		<stop  offset="0.659" style="stop-color:#ABABAB;stop-opacity:0.1922"/>
		<stop  offset="1" style="stop-color:#252525;stop-opacity:0.6098"/>
	</linearGradient>
	<path id="path3177_3_" inkscape:connector-curvature="0" fill="url(#path3177_1_)" d="M57.76,20.492
		c1.375,0,2.561,1.107,2.561,2.482v53.221l9.933-14.02l9.904,14.02l0.001-53.221c0-1.321-1.08-2.374-2.383-2.456
		c-0.055-0.016-0.101-0.024-0.152-0.026H58.563H57.76z"/>
</g>
</svg>
