<?xml version="1.0" encoding="utf-8"?>
<!-- Generator: Adobe Illustrator 17.0.1, SVG Export Plug-In . SVG Version: 6.00 Build 0)  -->
<!DOCTYPE svg PUBLIC "-//W3C//DTD SVG 1.1//EN" "http://www.w3.org/Graphics/SVG/1.1/DTD/svg11.dtd" [
	<!ENTITY ns_flows "http://ns.adobe.com/Flows/1.0/">
	<!ENTITY ns_extend "http://ns.adobe.com/Extensibility/1.0/">
	<!ENTITY ns_ai "http://ns.adobe.com/AdobeIllustrator/10.0/">
	<!ENTITY ns_graphs "http://ns.adobe.com/Graphs/1.0/">
]>
<svg version="1.1" id="图层_1" xmlns:x="&ns_extend;" xmlns:i="&ns_ai;" xmlns:graph="&ns_graphs;"
	 xmlns="http://www.w3.org/2000/svg" xmlns:xlink="http://www.w3.org/1999/xlink" xmlns:a="http://ns.adobe.com/AdobeSVGViewerExtensions/3.0/"
	 x="0px" y="0px" width="21px" height="21px" viewBox="0 0 21 21" enable-background="new 0 0 21 21" xml:space="preserve">
<path fill-rule="evenodd" clip-rule="evenodd" fill="#0D4E84" d="M8.057-0.057c4.481,0,8.114,3.633,8.114,8.114
	s-3.633,8.114-8.114,8.114s-8.114-3.633-8.114-8.114S3.575-0.057,8.057-0.057z M8.057,1.488c3.628,0,6.568,2.941,6.568,6.568
	s-2.941,6.568-6.568,6.568s-6.568-2.941-6.568-6.568S4.429,1.488,8.057,1.488z"/>
<path fill-rule="evenodd" clip-rule="evenodd" fill="#0D4E84" d="M8.057,1.839c3.434,0,6.218,2.784,6.218,6.218
	s-2.784,6.218-6.218,6.218s-6.218-2.784-6.218-6.218S4.623,1.839,8.057,1.839z M8.057,2.169c3.252,0,5.888,2.636,5.888,5.888
	s-2.636,5.888-5.888,5.888s-5.888-2.636-5.888-5.888S4.805,2.169,8.057,2.169z"/>
<g>
	<path fill-rule="evenodd" clip-rule="evenodd" fill="#0D4E84" d="M13.419,16.291c-0.436,0.336-1.067,0.254-1.402-0.182
		l-0.535-0.694c-0.336-0.436-0.254-1.067,0.182-1.402l1.905-1.468c0.436-0.336,1.067-0.254,1.402,0.182l0.535,0.694
		c0.336,0.436,0.254,1.067-0.182,1.402L13.419,16.291z"/>
</g>
<polygon fill-rule="evenodd" clip-rule="evenodd" fill="#0D4E84" points="16.896,20.952 13.255,16.192 15.318,14.615 18.958,19.375 
	18.393,20.773 "/>
<path fill-rule="evenodd" clip-rule="evenodd" fill="#0D4E84" d="M8.792,3.767c0,0,3.862,0.722,3.506,4.649
	c0.336-0.135,0.644-0.305,0.644-0.305s0.267-3.69-3.657-4.57C9.059,3.728,8.792,3.767,8.792,3.767z"/>
</svg>
