<?xml version="1.0" encoding="utf-8"?>
<!-- Generator: Adobe Illustrator 17.0.1, SVG Export Plug-In . SVG Version: 6.00 Build 0)  -->
<!DOCTYPE svg PUBLIC "-//W3C//DTD SVG 1.1//EN" "http://www.w3.org/Graphics/SVG/1.1/DTD/svg11.dtd" [
	<!ENTITY ns_flows "http://ns.adobe.com/Flows/1.0/">
	<!ENTITY ns_extend "http://ns.adobe.com/Extensibility/1.0/">
	<!ENTITY ns_ai "http://ns.adobe.com/AdobeIllustrator/10.0/">
	<!ENTITY ns_graphs "http://ns.adobe.com/Graphs/1.0/">
]>
<svg version="1.1" id="图层_1" xmlns:x="&ns_extend;" xmlns:i="&ns_ai;" xmlns:graph="&ns_graphs;"
	 xmlns="http://www.w3.org/2000/svg" xmlns:xlink="http://www.w3.org/1999/xlink" xmlns:a="http://ns.adobe.com/AdobeSVGViewerExtensions/3.0/"
	 x="0px" y="0px" width="21px" height="21px" viewBox="0 0 21 21" enable-background="new 0 0 21 21" xml:space="preserve">
<path fill-rule="evenodd" clip-rule="evenodd" fill="#0D4E84" d="M6.535,3.917H8.53v12.422H7.766l-1.23-2.399V3.917z"/>
<path fill-rule="evenodd" clip-rule="evenodd" fill="#0D4E84" d="M18.501,2.68h1.994v11.256l-0.779,0.639l-1.215-2.829V2.68z"/>
<path fill-rule="evenodd" clip-rule="evenodd" fill="#0D4E84" d="M3.339,14.222c2.12-1.043,4.364-0.489,5.014,1.237
	S7.81,19.43,5.691,20.473c-2.12,1.043-4.364,0.489-5.014-1.237C0.028,17.51,1.22,15.265,3.339,14.222z M3.845,15.383
	c1.288-0.634,2.652-0.297,3.047,0.752s-0.33,2.413-1.617,3.047s-2.652,0.297-3.047-0.752C1.833,17.381,2.558,16.017,3.845,15.383z"
	/>
<path fill-rule="evenodd" clip-rule="evenodd" fill="#0D4E84" d="M15.79,12.927c1.288-0.634,2.652-0.297,3.047,0.752
	s-0.33,2.413-1.617,3.047c-1.288,0.634-2.652,0.297-3.047-0.752C13.778,14.925,14.502,13.561,15.79,12.927z M15.305,11.723
	c2.119-1.043,4.364-0.489,5.013,1.237c0.649,1.726-0.542,3.971-2.662,5.014c-2.12,1.043-4.364,0.489-5.014-1.237
	C11.993,15.01,13.185,12.765,15.305,11.723z"/>
<path fill-rule="evenodd" clip-rule="evenodd" d="M18.517,5.184"/>
<path fill-rule="evenodd" clip-rule="evenodd" d="M18.517,5.184"/>
<g>
	<g>
		<path fill-rule="evenodd" clip-rule="evenodd" fill="#0D4E84" d="M18.517,0.046L8.514,1.528C7.426,1.689,6.535,2.721,6.535,3.821
			v1.227c0,1.1,0.89,1.868,1.978,1.707l10.003-1.482c1.088-0.161,1.978-1.193,1.978-2.293V1.753
			C20.495,0.653,19.605-0.116,18.517,0.046z M18.517,3.578v0.06v1l-5.743,0.854L9.534,5.972c0,0,0,0,0,0L8.545,6.119v-1V5.078V4.584
			c0-0.55,0.445-1.066,0.989-1.146l7.993-1.178c0.544-0.08,0.989,0.304,0.989,0.854V3.578z"/>
	</g>
</g>
</svg>
