<?xml version="1.0" encoding="utf-8"?>
<!-- Generator: Adobe Illustrator 17.0.1, SVG Export Plug-In . SVG Version: 6.00 Build 0)  -->
<!DOCTYPE svg PUBLIC "-//W3C//DTD SVG 1.1//EN" "http://www.w3.org/Graphics/SVG/1.1/DTD/svg11.dtd" [
	<!ENTITY ns_flows "http://ns.adobe.com/Flows/1.0/">
	<!ENTITY ns_extend "http://ns.adobe.com/Extensibility/1.0/">
	<!ENTITY ns_ai "http://ns.adobe.com/AdobeIllustrator/10.0/">
	<!ENTITY ns_graphs "http://ns.adobe.com/Graphs/1.0/">
]>
<svg version="1.1" id="图层_1" xmlns:x="&ns_extend;" xmlns:i="&ns_ai;" xmlns:graph="&ns_graphs;"
	 xmlns="http://www.w3.org/2000/svg" xmlns:xlink="http://www.w3.org/1999/xlink" xmlns:a="http://ns.adobe.com/AdobeSVGViewerExtensions/3.0/"
	 x="0px" y="0px" width="21px" height="21px" viewBox="0 0 21 21" enable-background="new 0 0 21 21" xml:space="preserve">
<g>
	<g>
		<path fill-rule="evenodd" clip-rule="evenodd" fill="#0D4E84" d="M1.934,3.263h15.501c0.901,0,1.632,0.73,1.632,1.632v9.79
			c0,0.901-0.73,1.632-1.632,1.632H3.565c-0.901,0-1.632-0.73-1.632-1.632V3.263z M6.829,6.527h12.237v1.632H6.829V6.527z
			 M6.013,6.527h0.816v1.377v0.255v8.158H6.013V6.527z"/>
		<path fill-rule="evenodd" clip-rule="evenodd" fill="#0D4E84" d="M3.565,0h6.527c0.901,0,1.632,0.73,1.632,1.632v0.816h-9.79
			V1.632C1.934,0.73,2.664,0,3.565,0z"/>
	</g>
	<rect x="2.065" y="19.01" fill-rule="evenodd" clip-rule="evenodd" fill="#0D4E84" width="16.87" height="1.99"/>
	<rect x="9.595" y="16.091" fill-rule="evenodd" clip-rule="evenodd" fill="#0D4E84" width="1.81" height="3.013"/>
</g>
</svg>
