<?xml version="1.0" encoding="utf-8"?>
<!-- Generator: Adobe Illustrator 17.0.1, SVG Export Plug-In . SVG Version: 6.00 Build 0)  -->
<!DOCTYPE svg PUBLIC "-//W3C//DTD SVG 1.1//EN" "http://www.w3.org/Graphics/SVG/1.1/DTD/svg11.dtd" [
	<!ENTITY ns_flows "http://ns.adobe.com/Flows/1.0/">
	<!ENTITY ns_extend "http://ns.adobe.com/Extensibility/1.0/">
	<!ENTITY ns_ai "http://ns.adobe.com/AdobeIllustrator/10.0/">
	<!ENTITY ns_graphs "http://ns.adobe.com/Graphs/1.0/">
]>
<svg version="1.1" id="图层_1" xmlns:x="&ns_extend;" xmlns:i="&ns_ai;" xmlns:graph="&ns_graphs;"
	 xmlns="http://www.w3.org/2000/svg" xmlns:xlink="http://www.w3.org/1999/xlink" xmlns:a="http://ns.adobe.com/AdobeSVGViewerExtensions/3.0/"
	 x="0px" y="0px" width="21px" height="21px" viewBox="0 0 21 21" enable-background="new 0 0 21 21" xml:space="preserve">
<g>
	<path fill-rule="evenodd" clip-rule="evenodd" fill="#0D4E84" d="M8,0.5v7H4l6.5,8l6.5-8h-4v-7H8z"/>
	<path fill-rule="evenodd" clip-rule="evenodd" fill="#0D4E84" d="M0,13.417h2v5.016H0V13.417z"/>
	<path fill-rule="evenodd" clip-rule="evenodd" fill="#0D4E84" d="M0,17.5h21v1c0,1.105-0.895,2-2,2H2c-1.105,0-2-0.895-2-2V17.5z"
		/>
	<path fill-rule="evenodd" clip-rule="evenodd" fill="#0D4E84" d="M19,13.417h2v4.667h-2V13.417z"/>
	<path fill-rule="evenodd" clip-rule="evenodd" fill="#0D4E84" d="M2,14.1c0,0.221-0.179,0.4-0.4,0.4H0.4
		c-0.221,0-0.4-0.179-0.4-0.4v-1.2c0-0.221,0.179-0.4,0.4-0.4h1.2c0.221,0,0.4,0.179,0.4,0.4V14.1z"/>
	<path fill-rule="evenodd" clip-rule="evenodd" fill="#0D4E84" d="M21,14.1c0,0.221-0.179,0.4-0.4,0.4h-1.2
		c-0.221,0-0.4-0.179-0.4-0.4v-1.2c0-0.221,0.179-0.4,0.4-0.4h1.2c0.221,0,0.4,0.179,0.4,0.4V14.1z"/>
</g>
</svg>
