<?xml version="1.0" encoding="utf-8"?>
<!-- Generator: Adobe Illustrator 17.0.1, SVG Export Plug-In . SVG Version: 6.00 Build 0)  -->
<!DOCTYPE svg PUBLIC "-//W3C//DTD SVG 1.1//EN" "http://www.w3.org/Graphics/SVG/1.1/DTD/svg11.dtd" [
	<!ENTITY ns_extend "http://ns.adobe.com/Extensibility/1.0/">
	<!ENTITY ns_ai "http://ns.adobe.com/AdobeIllustrator/10.0/">
	<!ENTITY ns_graphs "http://ns.adobe.com/Graphs/1.0/">
	<!ENTITY ns_vars "http://ns.adobe.com/Variables/1.0/">
	<!ENTITY ns_imrep "http://ns.adobe.com/ImageReplacement/1.0/">
	<!ENTITY ns_sfw "http://ns.adobe.com/SaveForWeb/1.0/">
	<!ENTITY ns_custom "http://ns.adobe.com/GenericCustomNamespace/1.0/">
	<!ENTITY ns_adobe_xpath "http://ns.adobe.com/XPath/1.0/">
]>
<svg version="1.1" id="图层_1" xmlns:x="&ns_extend;" xmlns:i="&ns_ai;" xmlns:graph="&ns_graphs;"
	 xmlns="http://www.w3.org/2000/svg" xmlns:xlink="http://www.w3.org/1999/xlink" x="0px" y="0px" width="21px" height="21px"
	 viewBox="0 0 21 21" enable-background="new 0 0 21 21" xml:space="preserve">
<metadata>
	<sfw  xmlns="&ns_sfw;">
		<slices></slices>
		<sliceSourceBounds  width="1976.117" height="1612.166" x="-467.515" y="-486.662" bottomLeftOrigin="true"></sliceSourceBounds>
		<optimizationSettings>
			<targetSettings  fileFormat="GIFFormat" targetSettingsID="0">
				
					<GIFFormat  transparency="true" includeCaption="false" interlaced="false" noMatteColor="false" matteColor="#FFFFFF" autoReduce="false" webShiftPercent="0" numColors="256" lossy="0" ditherAlgorithm="diffusion" ditherPercent="100" rolloverMasterPalette="false" reductionAlgorithm="selective">
					<colorTable  isExact="false"></colorTable>
					<lockedColors></lockedColors>
					<colorShiftEntries></colorShiftEntries>
				</GIFFormat>
			</targetSettings>
			<targetSettings  fileFormat="GIFFormat" targetSettingsID="1">
				
					<GIFFormat  transparency="true" includeCaption="false" interlaced="false" noMatteColor="false" matteColor="#FFFFFF" autoReduce="false" webShiftPercent="0" numColors="256" lossy="0" ditherAlgorithm="diffusion" ditherPercent="100" rolloverMasterPalette="false" reductionAlgorithm="selective">
					<colorTable  isExact="false"></colorTable>
					<lockedColors></lockedColors>
					<colorShiftEntries></colorShiftEntries>
				</GIFFormat>
			</targetSettings>
			<targetSettings  fileFormat="GIFFormat" targetSettingsID="2">
				
					<GIFFormat  transparency="true" includeCaption="false" interlaced="false" noMatteColor="false" matteColor="#FFFFFF" autoReduce="false" webShiftPercent="0" numColors="256" lossy="0" ditherAlgorithm="diffusion" ditherPercent="100" rolloverMasterPalette="false" reductionAlgorithm="selective">
					<colorTable  isExact="false"></colorTable>
					<lockedColors></lockedColors>
					<colorShiftEntries></colorShiftEntries>
				</GIFFormat>
			</targetSettings>
			<targetSettings  fileFormat="GIFFormat" targetSettingsID="3">
				
					<GIFFormat  transparency="true" includeCaption="false" interlaced="false" noMatteColor="false" matteColor="#FFFFFF" autoReduce="false" webShiftPercent="0" numColors="256" lossy="0" ditherAlgorithm="diffusion" ditherPercent="100" rolloverMasterPalette="false" reductionAlgorithm="selective">
					<colorTable  isExact="false"></colorTable>
					<lockedColors></lockedColors>
					<colorShiftEntries></colorShiftEntries>
				</GIFFormat>
			</targetSettings>
			<targetSettings  fileFormat="GIFFormat" targetSettingsID="4">
				
					<GIFFormat  transparency="true" includeCaption="false" interlaced="false" noMatteColor="false" matteColor="#FFFFFF" autoReduce="false" webShiftPercent="0" numColors="256" lossy="0" ditherAlgorithm="diffusion" ditherPercent="100" rolloverMasterPalette="false" reductionAlgorithm="selective">
					<colorTable  isExact="false"></colorTable>
					<lockedColors></lockedColors>
					<colorShiftEntries></colorShiftEntries>
				</GIFFormat>
			</targetSettings>
			<targetSettings  fileFormat="GIFFormat" targetSettingsID="5">
				
					<GIFFormat  transparency="true" includeCaption="false" interlaced="false" noMatteColor="false" matteColor="#FFFFFF" autoReduce="false" webShiftPercent="0" numColors="256" lossy="0" ditherAlgorithm="diffusion" ditherPercent="100" rolloverMasterPalette="false" reductionAlgorithm="selective">
					<colorTable  isExact="false"></colorTable>
					<lockedColors></lockedColors>
					<colorShiftEntries></colorShiftEntries>
				</GIFFormat>
			</targetSettings>
			<targetSettings  fileFormat="GIFFormat" targetSettingsID="6">
				
					<GIFFormat  transparency="true" includeCaption="false" interlaced="false" noMatteColor="false" matteColor="#FFFFFF" autoReduce="false" webShiftPercent="0" numColors="256" lossy="0" ditherAlgorithm="diffusion" ditherPercent="100" rolloverMasterPalette="false" reductionAlgorithm="selective">
					<colorTable  isExact="false"></colorTable>
					<lockedColors></lockedColors>
					<colorShiftEntries></colorShiftEntries>
				</GIFFormat>
			</targetSettings>
			<targetSettings  fileFormat="GIFFormat" targetSettingsID="7">
				
					<GIFFormat  transparency="true" includeCaption="false" interlaced="false" noMatteColor="false" matteColor="#FFFFFF" autoReduce="false" webShiftPercent="0" numColors="256" lossy="0" ditherAlgorithm="diffusion" ditherPercent="100" rolloverMasterPalette="false" reductionAlgorithm="selective">
					<colorTable  isExact="false"></colorTable>
					<lockedColors></lockedColors>
					<colorShiftEntries></colorShiftEntries>
				</GIFFormat>
			</targetSettings>
			<targetSettings  fileFormat="GIFFormat" targetSettingsID="8">
				
					<GIFFormat  transparency="true" includeCaption="false" interlaced="false" noMatteColor="false" matteColor="#FFFFFF" autoReduce="false" webShiftPercent="0" numColors="256" lossy="0" ditherAlgorithm="diffusion" ditherPercent="100" rolloverMasterPalette="false" reductionAlgorithm="selective">
					<colorTable  isExact="false"></colorTable>
					<lockedColors></lockedColors>
					<colorShiftEntries></colorShiftEntries>
				</GIFFormat>
			</targetSettings>
			<targetSettings  fileFormat="GIFFormat" targetSettingsID="9">
				
					<GIFFormat  transparency="true" includeCaption="false" interlaced="false" noMatteColor="false" matteColor="#FFFFFF" autoReduce="false" webShiftPercent="0" numColors="256" lossy="0" ditherAlgorithm="diffusion" ditherPercent="100" rolloverMasterPalette="false" reductionAlgorithm="selective">
					<colorTable  isExact="false"></colorTable>
					<lockedColors></lockedColors>
					<colorShiftEntries></colorShiftEntries>
				</GIFFormat>
			</targetSettings>
			<targetSettings  fileFormat="GIFFormat" targetSettingsID="10">
				
					<GIFFormat  transparency="true" includeCaption="false" interlaced="false" noMatteColor="false" matteColor="#FFFFFF" autoReduce="false" webShiftPercent="0" numColors="256" lossy="0" ditherAlgorithm="diffusion" ditherPercent="100" rolloverMasterPalette="false" reductionAlgorithm="selective">
					<colorTable  isExact="false"></colorTable>
					<lockedColors></lockedColors>
					<colorShiftEntries></colorShiftEntries>
				</GIFFormat>
			</targetSettings>
			<targetSettings  fileFormat="GIFFormat" targetSettingsID="11">
				
					<GIFFormat  transparency="true" includeCaption="false" interlaced="false" noMatteColor="false" matteColor="#FFFFFF" autoReduce="false" webShiftPercent="0" numColors="256" lossy="0" ditherAlgorithm="diffusion" ditherPercent="100" rolloverMasterPalette="false" reductionAlgorithm="selective">
					<colorTable  isExact="false"></colorTable>
					<lockedColors></lockedColors>
					<colorShiftEntries></colorShiftEntries>
				</GIFFormat>
			</targetSettings>
			<targetSettings  fileFormat="GIFFormat" targetSettingsID="12">
				
					<GIFFormat  transparency="true" includeCaption="false" interlaced="false" noMatteColor="false" matteColor="#FFFFFF" autoReduce="false" webShiftPercent="0" numColors="256" lossy="0" ditherAlgorithm="diffusion" ditherPercent="100" rolloverMasterPalette="false" reductionAlgorithm="selective">
					<colorTable  isExact="false"></colorTable>
					<lockedColors></lockedColors>
					<colorShiftEntries></colorShiftEntries>
				</GIFFormat>
			</targetSettings>
			<targetSettings  fileFormat="GIFFormat" targetSettingsID="13">
				
					<GIFFormat  transparency="true" includeCaption="false" interlaced="false" noMatteColor="false" matteColor="#FFFFFF" autoReduce="false" webShiftPercent="0" numColors="256" lossy="0" ditherAlgorithm="diffusion" ditherPercent="100" rolloverMasterPalette="false" reductionAlgorithm="selective">
					<colorTable  isExact="false"></colorTable>
					<lockedColors></lockedColors>
					<colorShiftEntries></colorShiftEntries>
				</GIFFormat>
			</targetSettings>
			<targetSettings  fileFormat="GIFFormat" targetSettingsID="14">
				
					<GIFFormat  transparency="true" includeCaption="false" interlaced="false" noMatteColor="false" matteColor="#FFFFFF" autoReduce="false" webShiftPercent="0" numColors="256" lossy="0" ditherAlgorithm="diffusion" ditherPercent="100" rolloverMasterPalette="false" reductionAlgorithm="selective">
					<colorTable  isExact="false"></colorTable>
					<lockedColors></lockedColors>
					<colorShiftEntries></colorShiftEntries>
				</GIFFormat>
			</targetSettings>
			<targetSettings  fileFormat="GIFFormat" targetSettingsID="363907582">
				
					<GIFFormat  transparency="true" includeCaption="false" interlaced="false" noMatteColor="false" matteColor="#FFFFFF" autoReduce="false" webShiftPercent="0" numColors="256" lossy="0" ditherAlgorithm="diffusion" ditherPercent="100" rolloverMasterPalette="false" reductionAlgorithm="selective">
					<colorTable  isExact="false"></colorTable>
					<lockedColors></lockedColors>
					<colorShiftEntries></colorShiftEntries>
				</GIFFormat>
			</targetSettings>
			<targetSettings  fileFormat="GIFFormat" targetSettingsID="363924389">
				
					<GIFFormat  transparency="true" includeCaption="false" interlaced="false" noMatteColor="false" matteColor="#FFFFFF" autoReduce="false" webShiftPercent="0" numColors="256" lossy="0" ditherAlgorithm="diffusion" ditherPercent="100" rolloverMasterPalette="false" reductionAlgorithm="selective">
					<colorTable  isExact="false"></colorTable>
					<lockedColors></lockedColors>
					<colorShiftEntries></colorShiftEntries>
				</GIFFormat>
			</targetSettings>
			<targetSettings  fileFormat="GIFFormat" targetSettingsID="363941196">
				
					<GIFFormat  transparency="true" includeCaption="false" interlaced="false" noMatteColor="false" matteColor="#FFFFFF" autoReduce="false" webShiftPercent="0" numColors="256" lossy="0" ditherAlgorithm="diffusion" ditherPercent="100" rolloverMasterPalette="false" reductionAlgorithm="selective">
					<colorTable  isExact="false"></colorTable>
					<lockedColors></lockedColors>
					<colorShiftEntries></colorShiftEntries>
				</GIFFormat>
			</targetSettings>
			<targetSettings  fileFormat="GIFFormat" targetSettingsID="363958003">
				
					<GIFFormat  transparency="true" includeCaption="false" interlaced="false" noMatteColor="false" matteColor="#FFFFFF" autoReduce="false" webShiftPercent="0" numColors="256" lossy="0" ditherAlgorithm="diffusion" ditherPercent="100" rolloverMasterPalette="false" reductionAlgorithm="selective">
					<colorTable  isExact="false"></colorTable>
					<lockedColors></lockedColors>
					<colorShiftEntries></colorShiftEntries>
				</GIFFormat>
			</targetSettings>
			<targetSettings  fileFormat="GIFFormat" targetSettingsID="363974810">
				
					<GIFFormat  transparency="true" includeCaption="false" interlaced="false" noMatteColor="false" matteColor="#FFFFFF" autoReduce="false" webShiftPercent="0" numColors="256" lossy="0" ditherAlgorithm="diffusion" ditherPercent="100" rolloverMasterPalette="false" reductionAlgorithm="selective">
					<colorTable  isExact="false"></colorTable>
					<lockedColors></lockedColors>
					<colorShiftEntries></colorShiftEntries>
				</GIFFormat>
			</targetSettings>
		</optimizationSettings>
	</sfw>
</metadata>
<g>
	<path fill-rule="evenodd" clip-rule="evenodd" fill="#0D4E84" d="M2,0.542h17c1.105,0,2,0.895,2,2v16c0,1.105-0.895,2-2,2H2
		c-1.105,0-2-0.895-2-2v-16C0,1.437,0.896,0.542,2,0.542z M2.5,0.542h1c0.276,0,0.5,0.224,0.5,0.5v1c0,0.276-0.224,0.5-0.5,0.5h-1
		c-0.276,0-0.5-0.224-0.5-0.5v-1C2,0.766,2.224,0.542,2.5,0.542z M2.5,3.542h1c0.276,0,0.5,0.224,0.5,0.5v1
		c0,0.276-0.224,0.5-0.5,0.5h-1c-0.276,0-0.5-0.224-0.5-0.5v-1C2,3.766,2.224,3.542,2.5,3.542z M2.5,6.542h1
		c0.276,0,0.5,0.224,0.5,0.5v1c0,0.276-0.224,0.5-0.5,0.5h-1c-0.276,0-0.5-0.224-0.5-0.5v-1C2,6.766,2.224,6.542,2.5,6.542z
		 M2.5,9.542h1c0.276,0,0.5,0.224,0.5,0.5v1c0,0.276-0.224,0.5-0.5,0.5h-1c-0.276,0-0.5-0.224-0.5-0.5v-1
		C2,9.766,2.224,9.542,2.5,9.542z M2.5,12.542h1c0.276,0,0.5,0.224,0.5,0.5v1c0,0.276-0.224,0.5-0.5,0.5h-1
		c-0.276,0-0.5-0.224-0.5-0.5v-1C2,12.766,2.224,12.542,2.5,12.542z M2.5,15.542h1c0.276,0,0.5,0.224,0.5,0.5v1
		c0,0.276-0.224,0.5-0.5,0.5h-1c-0.276,0-0.5-0.224-0.5-0.5v-1C2,15.766,2.224,15.542,2.5,15.542z M2.5,18.542h1
		c0.276,0,0.5,0.224,0.5,0.5v1c0,0.276-0.224,0.5-0.5,0.5h-1c-0.276,0-0.5-0.224-0.5-0.5v-1C2,18.766,2.224,18.542,2.5,18.542z
		 M17.5,0.542h1c0.276,0,0.5,0.224,0.5,0.5v1c0,0.276-0.224,0.5-0.5,0.5h-1c-0.276,0-0.5-0.224-0.5-0.5v-1
		C17,0.766,17.224,0.542,17.5,0.542z M17.5,3.542h1c0.276,0,0.5,0.224,0.5,0.5v1c0,0.276-0.224,0.5-0.5,0.5h-1
		c-0.276,0-0.5-0.224-0.5-0.5v-1C17,3.766,17.224,3.542,17.5,3.542z M17.5,6.542h1c0.276,0,0.5,0.224,0.5,0.5v1
		c0,0.276-0.224,0.5-0.5,0.5h-1c-0.276,0-0.5-0.224-0.5-0.5v-1C17,6.766,17.224,6.542,17.5,6.542z M17.5,9.542h1
		c0.276,0,0.5,0.224,0.5,0.5v1c0,0.276-0.224,0.5-0.5,0.5h-1c-0.276,0-0.5-0.224-0.5-0.5v-1C17,9.766,17.224,9.542,17.5,9.542z
		 M17.5,12.542h1c0.276,0,0.5,0.224,0.5,0.5v1c0,0.276-0.224,0.5-0.5,0.5h-1c-0.276,0-0.5-0.224-0.5-0.5v-1
		C17,12.766,17.224,12.542,17.5,12.542z M17.5,15.542h1c0.276,0,0.5,0.224,0.5,0.5v1c0,0.276-0.224,0.5-0.5,0.5h-1
		c-0.276,0-0.5-0.224-0.5-0.5v-1C17,15.766,17.224,15.542,17.5,15.542z M17.5,18.542h1c0.276,0,0.5,0.224,0.5,0.5v1
		c0,0.276-0.224,0.5-0.5,0.5h-1c-0.276,0-0.5-0.224-0.5-0.5v-1C17,18.766,17.224,18.542,17.5,18.542z M8,3.542h5
		c1.105,0,2,0.895,2,2v10c0,1.105-0.895,2-2,2H8c-1.105,0-2-0.895-2-2v-10C6,4.437,6.895,3.542,8,3.542z M6.003,9.542h8.994
		c0,0.181,0,2,0,2H6.003V9.542z"/>
</g>
</svg>
