<?xml version="1.0" encoding="utf-8"?>
<!-- Generator: Adobe Illustrator 14.0.0, SVG Export Plug-In . SVG Version: 6.00 Build 43363)  -->
<!DOCTYPE svg PUBLIC "-//W3C//DTD SVG 1.1//EN" "http://www.w3.org/Graphics/SVG/1.1/DTD/svg11.dtd">
<svg version="1.1"
	 id="open" xmlns:dc="http://purl.org/dc/elements/1.1/" xmlns:cc="http://creativecommons.org/ns#" xmlns:svg="http://www.w3.org/2000/svg" xmlns:rdf="http://www.w3.org/1999/02/22-rdf-syntax-ns#" xmlns:inkscape="http://www.inkscape.org/namespaces/inkscape"
	 xmlns="http://www.w3.org/2000/svg" xmlns:xlink="http://www.w3.org/1999/xlink" x="0px" y="0px" width="96px" height="96px"
	 viewBox="0 0 96 96" enable-background="new 0 0 96 96" xml:space="preserve">
<g>
	<g>
		<linearGradient id="SVGID_1_" gradientUnits="userSpaceOnUse" x1="2" y1="48" x2="94" y2="48">
			<stop  offset="0" style="stop-color:#000000"/>
			<stop  offset="1" style="stop-color:#000000;stop-opacity:0.5882"/>
		</linearGradient>
		<path opacity="0.08" fill="url(#SVGID_1_)" enable-background="new    " d="M10.5,93C5.813,93,2,89.187,2,84.5v-73
			C2,6.813,5.813,3,10.5,3h42c4.145,0,7.653,3.007,8.367,7H81.5c4.687,0,8.5,3.813,8.5,8.5v16.154c2.482,1.538,4,4.241,4,7.195V84.5
			c0,4.687-3.813,8.5-8.5,8.5H10.5z"/>
		<linearGradient id="SVGID_2_" gradientUnits="userSpaceOnUse" x1="3" y1="48" x2="93" y2="48">
			<stop  offset="0" style="stop-color:#000000"/>
			<stop  offset="1" style="stop-color:#000000;stop-opacity:0.5882"/>
		</linearGradient>
		<path opacity="0.1" fill="url(#SVGID_2_)" enable-background="new    " d="M10.5,92C6.364,92,3,88.636,3,84.5v-73
			C3,7.364,6.364,4,10.5,4h42c3.968,0,7.226,3.097,7.483,7H81.5c4.136,0,7.5,3.364,7.5,7.5v16.734c2.451,1.284,4,3.812,4,6.615V84.5
			c0,4.136-3.364,7.5-7.5,7.5H10.5z"/>
		<linearGradient id="SVGID_3_" gradientUnits="userSpaceOnUse" x1="4" y1="48" x2="92" y2="48">
			<stop  offset="0" style="stop-color:#000000"/>
			<stop  offset="1" style="stop-color:#000000;stop-opacity:0.5882"/>
		</linearGradient>
		<path opacity="0.2" fill="url(#SVGID_3_)" enable-background="new    " d="M10.5,91C6.916,91,4,88.084,4,84.5v-73
			C4,7.916,6.916,5,10.5,5h42c3.584,0,6.5,2.916,6.5,6.5V12h22.5c3.584,0,6.5,2.916,6.5,6.5v17.099c2.37,0.982,4,3.306,4,5.98V84.5
			c0,3.584-2.916,6.5-6.5,6.5H10.5z"/>
		<linearGradient id="SVGID_4_" gradientUnits="userSpaceOnUse" x1="47.9995" y1="8" x2="47.9995" y2="90.4195">
			<stop  offset="0" style="stop-color:#000000"/>
			<stop  offset="1" style="stop-color:#000000;stop-opacity:0.5882"/>
		</linearGradient>
		<path opacity="0.45" fill="url(#SVGID_4_)" enable-background="new    " d="M86,38.399V19.5c0-2.484-2.016-4.5-4.5-4.5H57v-2.5
			c0-2.484-2.016-4.5-4.5-4.5h-42C8.015,8,6,10.016,6,12.5v18V63v22.5c0,2.487,2.015,4.5,4.5,4.5h75c2.484,0,4.5-2.013,4.5-4.5
			V42.849C90,40.536,88.246,38.651,86,38.399z"/>
	</g>
	<linearGradient id="SVGID_5_" gradientUnits="userSpaceOnUse" x1="47.9995" y1="5" x2="47.9995" y2="89.4297">
		<stop  offset="0" style="stop-color:#FFA033"/>
		<stop  offset="1" style="stop-color:#A25600"/>
	</linearGradient>
	<path fill="url(#SVGID_5_)" d="M86,35.599V16.5c0-2.484-2.016-4.5-4.5-4.5H57V9.5C57,7.016,54.984,5,52.5,5h-42
		C8.015,5,6,7.016,6,9.5v18V62v22.5c0,2.487,2.015,4.5,4.5,4.5h75c2.484,0,4.5-2.013,4.5-4.5V40.048
		C90,37.735,88.246,35.851,86,35.599z"/>
	<path opacity="0.3" fill="#6D380F" d="M86,35.599V16.5c0-2.484-2.016-4.5-4.5-4.5H57V9.5C57,7.016,54.984,5,52.5,5h-42
		C8.015,5,6,7.016,6,9.5v18V62v22.5c0,2.487,2.015,4.5,4.5,4.5h75c2.484,0,4.5-2.013,4.5-4.5V40.048
		C90,37.735,88.246,35.851,86,35.599z"/>
	<g>
		<path fill="#663505" d="M90,84.5c0,2.487-2.016,4.5-4.5,4.5h-75C8.015,89,6,86.987,6,84.5V40.099c0-2.484,2.015-4.5,4.5-4.5h75
			c2.484,0,4.5,2.016,4.5,4.5V84.5z"/>
	</g>
	<linearGradient id="SVGID_6_" gradientUnits="userSpaceOnUse" x1="45.9995" y1="5" x2="45.9995" y2="73.8505">
		<stop  offset="0" style="stop-color:#FFB866"/>
		<stop  offset="1" style="stop-color:#A25600"/>
	</linearGradient>
	<path fill="url(#SVGID_6_)" d="M81.5,12H57V9.5C57,7.016,54.984,5,52.5,5h-42C8.015,5,6,7.016,6,9.5V62c0,2.487,2.015,4.5,4.5,4.5
		H35V69c0,2.487,2.015,4.5,4.5,4.5h42c2.484,0,4.5-2.013,4.5-4.5V16.5C86,14.016,83.984,12,81.5,12z"/>
	<linearGradient id="SVGID_7_" gradientUnits="userSpaceOnUse" x1="45.9995" y1="6.5" x2="45.9995" y2="72.3352">
		<stop  offset="0" style="stop-color:#FA8E32"/>
		<stop  offset="1" style="stop-color:#AD670E"/>
	</linearGradient>
	<path fill="url(#SVGID_7_)" d="M81.5,13.5h-26v-4c0-1.655-1.345-3-3-3h-42c-1.655,0-3,1.345-3,3V62c0,1.653,1.345,3,3,3h26v4
		c0,1.653,1.345,3,3,3h42c1.655,0,3-1.347,3-3V16.5C84.5,14.845,83.155,13.5,81.5,13.5z"/>
	<linearGradient id="SVGID_8_" gradientUnits="userSpaceOnUse" x1="45.9995" y1="6.5" x2="45.9995" y2="72.3352">
		<stop  offset="0" style="stop-color:#EBB400;stop-opacity:0"/>
		<stop  offset="0.9127" style="stop-color:#EB9600"/>
	</linearGradient>
	<path fill="url(#SVGID_8_)" d="M81.5,13.5h-26v-4c0-1.655-1.345-3-3-3h-42c-1.655,0-3,1.345-3,3V62c0,1.653,1.345,3,3,3h26v4
		c0,1.653,1.345,3,3,3h42c1.655,0,3-1.347,3-3V16.5C84.5,14.845,83.155,13.5,81.5,13.5z"/>
	
		<radialGradient id="SVGID_9_" cx="34.333" cy="6.251" r="35.7408" gradientTransform="matrix(1 0 0 0.3428 0 4.1084)" gradientUnits="userSpaceOnUse">
		<stop  offset="0" style="stop-color:#FFC866"/>
		<stop  offset="1" style="stop-color:#FFDB66;stop-opacity:0"/>
	</radialGradient>
	<path opacity="0.2" fill="url(#SVGID_9_)" d="M81.5,13.5h-26v-4c0-1.655-1.345-3-3-3h-42c-1.655,0-3,1.345-3,3V62
		c0,1.653,1.345,3,3,3h26v4c0,1.653,1.345,3,3,3h42c1.655,0,3-1.347,3-3V16.5C84.5,14.845,83.155,13.5,81.5,13.5z"/>
	
		<radialGradient id="SVGID_10_" cx="46.5" cy="25" r="35.7408" gradientTransform="matrix(1 0 0 0.1679 0 20.8031)" gradientUnits="userSpaceOnUse">
		<stop  offset="0.0873" style="stop-color:#562E00"/>
		<stop  offset="1" style="stop-color:#562E00;stop-opacity:0"/>
	</radialGradient>
	<path opacity="0.4" fill="url(#SVGID_10_)" d="M81.5,13.5h-26v-4c0-1.655-1.345-3-3-3h-42c-1.655,0-3,1.345-3,3V62
		c0,1.653,1.345,3,3,3h26v4c0,1.653,1.345,3,3,3h42c1.655,0,3-1.347,3-3V16.5C84.5,14.845,83.155,13.5,81.5,13.5z"/>
	<g>
		<path fill="#D6D6D6" d="M81.813,25.178c0-1.658-1.344-3-3-3H13.688c-1.656,0-3,1.342-3,3V58.52c0,1.657,1.344,3,3,3h65.124
			c1.656,0,3-1.343,3-3V25.178z"/>
		<path fill="#F5F5F5" d="M81.813,26.178c0-1.658-1.344-3-3-3H13.688c-1.656,0-3,1.342-3,3V58.52c0,1.657,1.344,3,3,3h65.124
			c1.656,0,3-1.343,3-3V26.178z"/>
		
			<linearGradient id="SVGID_11_" gradientUnits="userSpaceOnUse" x1="46.2505" y1="13.0244" x2="46.2505" y2="50.5194" gradientTransform="matrix(1 0 0 -1 0 74.6973)">
			<stop  offset="0" style="stop-color:#E6E6E6"/>
			<stop  offset="1" style="stop-color:#F2F2F2"/>
		</linearGradient>
		<path fill="url(#SVGID_11_)" d="M81.813,27.178c0-1.658-1.344-3-3-3H13.688c-1.656,0-3,1.342-3,3V58.52c0,1.657,1.344,3,3,3
			h65.124c1.656,0,3-1.343,3-3V27.178z"/>
		
			<linearGradient id="SVGID_12_" gradientUnits="userSpaceOnUse" x1="46.2505" y1="14.0327" x2="46.2505" y2="49.5195" gradientTransform="matrix(1 0 0 -1 0 74.6973)">
			<stop  offset="0" style="stop-color:#CCCCCC"/>
			<stop  offset="1" style="stop-color:#F2F2F2"/>
		</linearGradient>
		<path fill="url(#SVGID_12_)" d="M13.688,25.178c-1.104,0-2,0.896-2,2V58.52c0,1.104,0.896,2,2,2h65.124c1.104,0,2-0.896,2-2
			V27.178c0-1.104-0.896-2-2-2H13.688z"/>
		
			<radialGradient id="SVGID_13_" cx="46.4282" cy="13.2241" r="25.3019" gradientTransform="matrix(1 0 0 -1 0 74.6973)" gradientUnits="userSpaceOnUse">
			<stop  offset="0" style="stop-color:#FFFFFF"/>
			<stop  offset="1" style="stop-color:#FFFFFF;stop-opacity:0"/>
		</radialGradient>
		<path fill="url(#SVGID_13_)" d="M81.813,27.178c0-1.658-1.344-3-3-3H13.688c-1.656,0-3,1.342-3,3V58.52c0,1.657,1.344,3,3,3
			h65.124c1.656,0,3-1.343,3-3V27.178z"/>
	</g>
	<g>
		<linearGradient id="SVGID_14_" gradientUnits="userSpaceOnUse" x1="47.9995" y1="35.5986" x2="47.9995" y2="84.7504">
			<stop  offset="0" style="stop-color:#FFB866"/>
			<stop  offset="1" style="stop-color:#A25600"/>
		</linearGradient>
		<path fill="url(#SVGID_14_)" d="M90,80c0,2.487-2.016,4.5-4.5,4.5h-75C8.015,84.5,6,82.487,6,80V40.099c0-2.484,2.015-4.5,4.5-4.5
			h75c2.484,0,4.5,2.016,4.5,4.5V80z"/>
		<linearGradient id="SVGID_15_" gradientUnits="userSpaceOnUse" x1="47.9995" y1="37.0986" x2="47.9995" y2="83.235">
			<stop  offset="0" style="stop-color:#F59E3B"/>
			<stop  offset="1" style="stop-color:#AD670E"/>
		</linearGradient>
		<path fill="url(#SVGID_15_)" d="M10.5,83c-1.655,0-3-1.347-3-3V40.099c0-1.655,1.345-3,3-3h75c1.655,0,3,1.345,3,3V80
			c0,1.653-1.345,3-3,3H10.5z"/>
	</g>
	<radialGradient id="SVGID_16_" cx="48.25" cy="35.6978" r="31.8462" gradientUnits="userSpaceOnUse">
		<stop  offset="0" style="stop-color:#FFFFFF"/>
		<stop  offset="1" style="stop-color:#FFFFFF;stop-opacity:0"/>
	</radialGradient>
	<path opacity="0.3" fill="url(#SVGID_16_)" d="M90,80c0,2.487-2.016,4.5-4.5,4.5h-75C8.015,84.5,6,82.487,6,80V40.099
		c0-2.484,2.015-4.5,4.5-4.5h75c2.484,0,4.5,2.016,4.5,4.5V80z"/>
</g>
<g opacity="0.2">
	<radialGradient id="SVGID_17_" cx="49.5" cy="60.5" r="263.7849" gradientUnits="userSpaceOnUse">
		<stop  offset="0" style="stop-color:#FFFFFF"/>
		<stop  offset="1" style="stop-color:#FFFFFF;stop-opacity:0"/>
	</radialGradient>
	<polygon fill="url(#SVGID_17_)" points="60.149,83 88.5,54.65 88.5,45.673 51.173,83 	"/>
	<radialGradient id="SVGID_18_" cx="49.5" cy="60.5" r="263.7849" gradientUnits="userSpaceOnUse">
		<stop  offset="0" style="stop-color:#FFFFFF"/>
		<stop  offset="1" style="stop-color:#FFFFFF;stop-opacity:0"/>
	</radialGradient>
	<polygon fill="url(#SVGID_18_)" points="14.008,83 22.984,83 68.887,37.099 59.91,37.099 	"/>
	<radialGradient id="SVGID_19_" cx="49.5" cy="60.5" r="263.7849" gradientUnits="userSpaceOnUse">
		<stop  offset="0" style="stop-color:#FFFFFF"/>
		<stop  offset="1" style="stop-color:#FFFFFF;stop-opacity:0"/>
	</radialGradient>
	<polygon fill="url(#SVGID_19_)" points="78.731,83 88.5,73.231 88.5,64.255 69.755,83 	"/>
	<radialGradient id="SVGID_20_" cx="49.5" cy="60.5" r="263.7849" gradientUnits="userSpaceOnUse">
		<stop  offset="0" style="stop-color:#FFFFFF"/>
		<stop  offset="1" style="stop-color:#FFFFFF;stop-opacity:0"/>
	</radialGradient>
	<polygon fill="url(#SVGID_20_)" points="7.5,70.926 7.5,79.902 50.305,37.099 41.327,37.099 	"/>
	<radialGradient id="SVGID_21_" cx="49.5" cy="60.5" r="263.7849" gradientUnits="userSpaceOnUse">
		<stop  offset="0" style="stop-color:#FFFFFF"/>
		<stop  offset="1" style="stop-color:#FFFFFF;stop-opacity:0"/>
	</radialGradient>
	<path fill="url(#SVGID_21_)" d="M78.493,37.099L32.59,83h8.977l45.467-45.466c-0.45-0.271-0.972-0.436-1.534-0.436H78.493z"/>
	<radialGradient id="SVGID_22_" cx="49.5" cy="60.5" r="263.7849" gradientUnits="userSpaceOnUse">
		<stop  offset="0" style="stop-color:#FFFFFF"/>
		<stop  offset="1" style="stop-color:#FFFFFF;stop-opacity:0"/>
	</radialGradient>
	<polygon fill="url(#SVGID_22_)" points="7.5,52.344 7.5,61.32 31.722,37.099 22.745,37.099 	"/>
	<radialGradient id="SVGID_23_" cx="49.5" cy="60.5" r="263.7849" gradientUnits="userSpaceOnUse">
		<stop  offset="0" style="stop-color:#FFFFFF"/>
		<stop  offset="1" style="stop-color:#FFFFFF;stop-opacity:0"/>
	</radialGradient>
	<path fill="url(#SVGID_23_)" d="M7.5,40.099v2.64l5.64-5.64H10.5C8.845,37.099,7.5,38.444,7.5,40.099z"/>
</g>
</svg>
