<?xml version="1.0" encoding="utf-8"?>
<!-- Generator: Adobe Illustrator 17.0.1, SVG Export Plug-In . SVG Version: 6.00 Build 0)  -->
<!DOCTYPE svg PUBLIC "-//W3C//DTD SVG 1.1//EN" "http://www.w3.org/Graphics/SVG/1.1/DTD/svg11.dtd" [
	<!ENTITY ns_flows "http://ns.adobe.com/Flows/1.0/">
	<!ENTITY ns_extend "http://ns.adobe.com/Extensibility/1.0/">
	<!ENTITY ns_ai "http://ns.adobe.com/AdobeIllustrator/10.0/">
	<!ENTITY ns_graphs "http://ns.adobe.com/Graphs/1.0/">
]>
<svg version="1.1" id="图层_1" xmlns:x="&ns_extend;" xmlns:i="&ns_ai;" xmlns:graph="&ns_graphs;"
	 xmlns="http://www.w3.org/2000/svg" xmlns:xlink="http://www.w3.org/1999/xlink" xmlns:a="http://ns.adobe.com/AdobeSVGViewerExtensions/3.0/"
	 x="0px" y="0px" width="21px" height="21px" viewBox="0 0 21 21" enable-background="new 0 0 21 21" xml:space="preserve">
<path fill-rule="evenodd" clip-rule="evenodd" fill="#0D4E84" d="M2,1.5h17c1.105,0,2,0.895,2,2v14c0,1.104-0.895,2-2,2H2
	c-1.105,0-2-0.896-2-2v-14C0,2.395,0.896,1.5,2,1.5z M4,3.5h13c1.104,0,2,0.895,2,2v9c0,1.104-0.896,2-2,2c0,0-9.159,0-12.101,0
	c-0.563,0-0.899,0-0.899,0c-1.105,0-2-0.895-2-2v-9C2,4.395,2.895,3.5,4,3.5z M13,10.5l3-6l3,5v5c0,0,0.031,0.578-0.281,1
	C18.484,15.5,4,15.5,4,15.5l5-8L13,10.5z M5,4.5c1.105,0,2,0.895,2,2c0,1.105-0.895,2-2,2s-2-0.895-2-2C3,5.395,3.895,4.5,5,4.5z"/>
</svg>
