<?xml version="1.0" encoding="utf-8"?>
<!-- Generator: Adobe Illustrator 14.0.0, SVG Export Plug-In . SVG Version: 6.00 Build 43363)  -->
<!DOCTYPE svg PUBLIC "-//W3C//DTD SVG 1.1//EN" "http://www.w3.org/Graphics/SVG/1.1/DTD/svg11.dtd">
<svg version="1.1"
	 id="svg2408" xmlns:dc="http://purl.org/dc/elements/1.1/" xmlns:svg="http://www.w3.org/2000/svg" xmlns:cc="http://creativecommons.org/ns#" xmlns:rdf="http://www.w3.org/1999/02/22-rdf-syntax-ns#" xmlns:inkscape="http://www.inkscape.org/namespaces/inkscape"
	 xmlns="http://www.w3.org/2000/svg" xmlns:xlink="http://www.w3.org/1999/xlink" x="0px" y="0px" width="96px" height="96px"
	 viewBox="0 0 96 96" enable-background="new 0 0 96 96" xml:space="preserve">
<g>
	<linearGradient id="SVGID_1_" gradientUnits="userSpaceOnUse" x1="2" y1="48" x2="94" y2="48">
		<stop  offset="0" style="stop-color:#000000"/>
		<stop  offset="1" style="stop-color:#000000;stop-opacity:0.5882"/>
	</linearGradient>
	<path opacity="0.08" fill="url(#SVGID_1_)" enable-background="new    " d="M10.5,93C5.813,93,2,89.187,2,84.5v-73
		C2,6.813,5.813,3,10.5,3h75c4.145,0,7.786,3.007,8.5,7v74.5c0,4.687-3.813,8.5-8.5,8.5H10.5z"/>
	<linearGradient id="SVGID_2_" gradientUnits="userSpaceOnUse" x1="3" y1="48" x2="93" y2="48">
		<stop  offset="0" style="stop-color:#000000"/>
		<stop  offset="1" style="stop-color:#000000;stop-opacity:0.5882"/>
	</linearGradient>
	<path opacity="0.1" fill="url(#SVGID_2_)" enable-background="new    " d="M10.5,92C6.364,92,3,88.636,3,84.5v-73
		C3,7.364,6.364,4,10.5,4h75c3.968,0,7.242,3.097,7.5,7v73.5c0,4.136-3.364,7.5-7.5,7.5H10.5z"/>
	<linearGradient id="SVGID_3_" gradientUnits="userSpaceOnUse" x1="4" y1="48" x2="92" y2="48">
		<stop  offset="0" style="stop-color:#000000"/>
		<stop  offset="1" style="stop-color:#000000;stop-opacity:0.5882"/>
	</linearGradient>
	<path opacity="0.2" fill="url(#SVGID_3_)" enable-background="new    " d="M10.5,91C6.916,91,4,88.084,4,84.5v-73
		C4,7.916,6.916,5,10.5,5h75c3.584,0,6.5,2.916,6.5,6.5v73c0,3.584-2.916,6.5-6.5,6.5H10.5z"/>
	<linearGradient id="SVGID_4_" gradientUnits="userSpaceOnUse" x1="47.9995" y1="8" x2="47.9995" y2="90.4195">
		<stop  offset="0" style="stop-color:#000000"/>
		<stop  offset="1" style="stop-color:#000000;stop-opacity:0.5882"/>
	</linearGradient>
	<path opacity="0.45" fill="url(#SVGID_4_)" enable-background="new    " d="M90,12.5c0-2.484-2.016-4.5-4.5-4.5h-75
		C8.015,8,6,10.016,6,12.5v18V63v22.5c0,2.487,2.015,4.5,4.5,4.5h75c2.484,0,4.5-2.013,4.5-4.5V12.5z"/>
</g>
<g>
	<g>
		<g>
			<path fill="#0F0F0F" d="M90,84.5c0,2.487-2.016,4.5-4.5,4.5h-75C8.015,89,6,86.987,6,84.5v-57c0-2.484,2.015-4.5,4.5-4.5h75
				c2.484,0,4.5,2.016,4.5,4.5V84.5z"/>
		</g>
		<linearGradient id="SVGID_5_" gradientUnits="userSpaceOnUse" x1="48.0005" y1="84.5" x2="48.0005" y2="5.0005">
			<stop  offset="0" style="stop-color:#333333"/>
			<stop  offset="1" style="stop-color:#595959"/>
		</linearGradient>
		<path fill="url(#SVGID_5_)" d="M90,80c0,2.487-2.016,4.5-4.5,4.5h-75C8.015,84.5,6,82.487,6,80V9.5C6,7.016,8.015,5,10.5,5h75
			C87.984,5,90,7.016,90,9.5V80z"/>
		<linearGradient id="SVGID_6_" gradientUnits="userSpaceOnUse" x1="48.0005" y1="83" x2="48.0005" y2="6.5005">
			<stop  offset="0" style="stop-color:#191919"/>
			<stop  offset="1" style="stop-color:#3C3C3C"/>
		</linearGradient>
		<path fill="url(#SVGID_6_)" d="M10.5,83c-1.654,0-3-1.346-3-3V9.5c0-1.654,1.346-3,3-3h75c1.654,0,3,1.346,3,3V80
			c0,1.654-1.346,3-3,3H10.5z"/>
	</g>
</g>
<rect x="32.5" y="5" fill="#1A1A1A" width="2" height="79.5"/>
<rect x="61.5" y="5" fill="#1A1A1A" width="2" height="79.5"/>
<linearGradient id="rect3317_2_" gradientUnits="userSpaceOnUse" x1="282.666" y1="-246.5" x2="300.666" y2="-246.5" gradientTransform="matrix(0 -1 -1 0 -213 332)">
	<stop  offset="0" style="stop-color:#1A1A1A"/>
	<stop  offset="0.2505" style="stop-color:#1A1A1A"/>
	<stop  offset="0.501" style="stop-color:#CDFF01"/>
	<stop  offset="0.7505" style="stop-color:#1A1A1A"/>
	<stop  offset="1" style="stop-color:#1A1A1A"/>
</linearGradient>
<rect id="rect3317" x="32.5" y="31.333" fill="url(#rect3317_2_)" width="2" height="18"/>
<linearGradient id="rect3317_3_" gradientUnits="userSpaceOnUse" x1="282.666" y1="-275.5" x2="300.666" y2="-275.5" gradientTransform="matrix(0 -1 -1 0 -213 332)">
	<stop  offset="0" style="stop-color:#1A1A1A"/>
	<stop  offset="0.2505" style="stop-color:#1A1A1A"/>
	<stop  offset="0.501" style="stop-color:#CDFF01"/>
	<stop  offset="0.7505" style="stop-color:#1A1A1A"/>
	<stop  offset="1" style="stop-color:#1A1A1A"/>
</linearGradient>
<rect id="rect3317_1_" x="61.5" y="31.333" fill="url(#rect3317_3_)" width="2" height="18"/>
<g>
	<path id="rect3345_1_" inkscape:connector-curvature="0" fill="#999999" d="M9.5,7.667v4.587v4.586
		c0-1.266,1.027-2.293,2.292-2.293c1.267,0,2.294,1.027,2.294,2.293c0,1.266-1.028,2.294-2.294,2.294
		c-1.265,0-2.292-1.028-2.292-2.294v4.587v4.586c0-1.265,1.027-2.292,2.292-2.292c1.267,0,2.294,1.027,2.294,2.292
		s-1.028,2.293-2.294,2.293c-1.265,0-2.292-1.028-2.292-2.293V30.6v4.586c0-1.266,1.027-2.293,2.292-2.293
		c1.267,0,2.294,1.027,2.294,2.293c0,1.265-1.028,2.294-2.294,2.294c-1.265,0-2.292-1.029-2.292-2.294v4.587v4.587
		c0-1.266,1.027-2.293,2.292-2.293c1.267,0,2.294,1.028,2.294,2.293s-1.028,2.294-2.294,2.294c-1.265,0-2.292-1.028-2.292-2.294
		v4.587v4.586c0-1.266,1.027-2.293,2.292-2.293c1.267,0,2.294,1.027,2.294,2.293s-1.028,2.293-2.294,2.293
		c-1.265,0-2.292-1.027-2.292-2.293v4.588v4.585c0-1.265,1.027-2.291,2.292-2.291c1.267,0,2.294,1.026,2.294,2.291
		c0,1.267-1.028,2.294-2.294,2.294h4.587h4.587c-1.266,0-2.293-1.027-2.293-2.294c0-1.265,1.027-2.291,2.293-2.291
		c1.266,0,2.293,1.026,2.293,2.291c0,1.267-1.028,2.294-2.293,2.294h4.587h4.586c-1.266,0-2.293-1.027-2.293-2.294
		c0-1.265,1.027-2.291,2.293-2.291v-4.589c-1.266,0-2.293-1.027-2.293-2.293s1.027-2.293,2.293-2.293v-4.586
		c-1.266,0-2.293-1.028-2.293-2.294s1.027-2.293,2.293-2.293V37.48c-1.266,0-2.293-1.029-2.293-2.294
		c0-1.266,1.027-2.293,2.293-2.293v-4.587c-1.266,0-2.293-1.028-2.293-2.293s1.027-2.292,2.293-2.292v-4.587
		c-1.266,0-2.293-1.028-2.293-2.294c0-1.266,1.027-2.293,2.293-2.293V9.96c-1.266,0-2.293-1.027-2.293-2.293H23.26
		c0,1.266-1.028,2.293-2.293,2.293c-1.266,0-2.293-1.027-2.293-2.293h-4.586c0,1.266-1.028,2.293-2.294,2.293
		C10.527,9.96,9.5,8.933,9.5,7.667z M11.792,65C10.527,65,9.5,63.973,9.5,62.706V65H11.792z M16.38,9.96
		c1.266,0,2.293,1.028,2.293,2.293c0,1.266-1.027,2.293-2.293,2.293s-2.293-1.027-2.293-2.293C14.087,10.988,15.114,9.96,16.38,9.96
		z M25.554,9.96c1.265,0,2.293,1.028,2.293,2.293c0,1.266-1.028,2.293-2.293,2.293c-1.266,0-2.293-1.027-2.293-2.293
		C23.26,10.988,24.288,9.96,25.554,9.96z M20.967,14.547c1.266,0,2.293,1.027,2.293,2.293c0,1.266-1.028,2.294-2.293,2.294
		c-1.266,0-2.293-1.028-2.293-2.294C18.673,15.574,19.701,14.547,20.967,14.547z M16.38,19.134c1.266,0,2.293,1.027,2.293,2.293
		s-1.027,2.294-2.293,2.294s-2.293-1.028-2.293-2.294S15.114,19.134,16.38,19.134z M25.554,19.134c1.265,0,2.293,1.027,2.293,2.293
		s-1.028,2.294-2.293,2.294c-1.266,0-2.293-1.028-2.293-2.294S24.288,19.134,25.554,19.134z M20.967,23.721
		c1.266,0,2.293,1.027,2.293,2.292s-1.028,2.293-2.293,2.293c-1.266,0-2.293-1.028-2.293-2.293S19.701,23.721,20.967,23.721z
		 M16.38,28.307c1.266,0,2.293,1.028,2.293,2.293c0,1.265-1.027,2.293-2.293,2.293s-2.293-1.029-2.293-2.293
		C14.087,29.334,15.114,28.307,16.38,28.307z M25.554,28.307c1.265,0,2.293,1.028,2.293,2.293c0,1.265-1.028,2.293-2.293,2.293
		c-1.266,0-2.293-1.029-2.293-2.293C23.26,29.334,24.288,28.307,25.554,28.307z M20.967,32.894c1.266,0,2.293,1.027,2.293,2.293
		c0,1.265-1.028,2.294-2.293,2.294c-1.266,0-2.293-1.029-2.293-2.294C18.673,33.921,19.701,32.894,20.967,32.894z M16.38,37.48
		c1.266,0,2.293,1.027,2.293,2.293s-1.027,2.293-2.293,2.293s-2.293-1.028-2.293-2.293S15.114,37.48,16.38,37.48z M25.554,37.48
		c1.265,0,2.293,1.027,2.293,2.293s-1.028,2.293-2.293,2.293c-1.266,0-2.293-1.028-2.293-2.293S24.288,37.48,25.554,37.48z
		 M20.967,42.067c1.266,0,2.293,1.028,2.293,2.293s-1.028,2.294-2.293,2.294c-1.266,0-2.293-1.028-2.293-2.294
		S19.701,42.067,20.967,42.067z M16.38,46.654c1.266,0,2.293,1.027,2.293,2.293c0,1.265-1.027,2.293-2.293,2.293
		s-2.293-1.028-2.293-2.293C14.087,47.682,15.114,46.654,16.38,46.654z M25.554,46.654c1.265,0,2.293,1.027,2.293,2.293
		c0,1.265-1.028,2.293-2.293,2.293c-1.266,0-2.293-1.028-2.293-2.293C23.26,47.682,24.288,46.654,25.554,46.654z M20.967,51.24
		c1.266,0,2.293,1.027,2.293,2.293s-1.028,2.293-2.293,2.293c-1.266,0-2.293-1.027-2.293-2.293S19.701,51.24,20.967,51.24z
		 M16.38,55.826c1.266,0,2.293,1.029,2.293,2.295c0,1.264-1.027,2.294-2.293,2.294s-2.293-1.03-2.293-2.294
		C14.087,56.855,15.114,55.826,16.38,55.826z M25.554,55.826c1.265,0,2.293,1.029,2.293,2.295c0,1.264-1.028,2.294-2.293,2.294
		c-1.266,0-2.293-1.03-2.293-2.294C23.26,56.855,24.288,55.826,25.554,55.826z"/>
	<path id="rect3345_2_" inkscape:connector-curvature="0" fill="#999999" d="M9.5,23.298v4.586v4.587
		c0-1.266,1.027-2.293,2.292-2.293c1.267,0,2.294,1.027,2.294,2.293c0,1.267-1.028,2.294-2.294,2.294
		c-1.265,0-2.292-1.027-2.292-2.294v4.587v4.586c0-1.265,1.027-2.292,2.292-2.292c1.267,0,2.294,1.027,2.294,2.292
		c0,1.266-1.028,2.294-2.294,2.294c-1.265,0-2.292-1.028-2.292-2.294v4.588v4.586c0-1.266,1.027-2.293,2.292-2.293
		c1.267,0,2.294,1.027,2.294,2.293s-1.028,2.294-2.294,2.294c-1.265,0-2.292-1.028-2.292-2.294v4.587v4.587
		c0-1.266,1.027-2.293,2.292-2.293c1.267,0,2.294,1.027,2.294,2.293s-1.028,2.294-2.294,2.294c-1.265,0-2.292-1.028-2.292-2.294
		v4.587v4.586c0-1.266,1.027-2.293,2.292-2.293c1.267,0,2.294,1.027,2.294,2.293s-1.028,2.293-2.294,2.293
		c-1.265,0-2.292-1.027-2.292-2.293v4.588v4.585c0-1.265,1.027-2.291,2.292-2.291c1.267,0,2.294,1.026,2.294,2.291
		c0,1.267-1.028,2.294-2.294,2.294h4.587h4.587c-1.266,0-2.293-1.027-2.293-2.294c0-1.265,1.027-2.291,2.293-2.291
		c1.266,0,2.293,1.026,2.293,2.291c0,1.267-1.028,2.294-2.293,2.294h4.587h4.586c-1.266,0-2.293-1.027-2.293-2.294
		c0-1.265,1.027-2.291,2.293-2.291v-4.589c-1.266,0-2.293-1.027-2.293-2.293s1.027-2.293,2.293-2.293v-4.586
		c-1.266,0-2.293-1.028-2.293-2.294s1.027-2.293,2.293-2.293v-4.587c-1.266,0-2.293-1.028-2.293-2.294s1.027-2.293,2.293-2.293
		v-4.587c-1.266,0-2.293-1.028-2.293-2.294c0-1.265,1.027-2.292,2.293-2.292v-4.587c-1.266,0-2.293-1.027-2.293-2.294
		c0-1.266,1.027-2.293,2.293-2.293v-4.587c-1.266,0-2.293-1.027-2.293-2.293H23.26c0,1.266-1.028,2.293-2.293,2.293
		c-1.266,0-2.293-1.027-2.293-2.293h-4.586c0,1.266-1.028,2.293-2.294,2.293C10.527,25.591,9.5,24.563,9.5,23.298z M11.792,80.631
		c-1.265,0-2.292-1.027-2.292-2.294v2.294H11.792z M16.38,25.591c1.266,0,2.293,1.027,2.293,2.293c0,1.267-1.027,2.294-2.293,2.294
		s-2.293-1.027-2.293-2.294C14.087,26.618,15.114,25.591,16.38,25.591z M25.554,25.591c1.265,0,2.293,1.027,2.293,2.293
		c0,1.267-1.028,2.294-2.293,2.294c-1.266,0-2.293-1.027-2.293-2.294C23.26,26.618,24.288,25.591,25.554,25.591z M20.967,30.178
		c1.266,0,2.293,1.027,2.293,2.293c0,1.267-1.028,2.294-2.293,2.294c-1.266,0-2.293-1.027-2.293-2.294
		C18.673,31.205,19.701,30.178,20.967,30.178z M16.38,34.765c1.266,0,2.293,1.027,2.293,2.293s-1.027,2.294-2.293,2.294
		s-2.293-1.028-2.293-2.294S15.114,34.765,16.38,34.765z M25.554,34.765c1.265,0,2.293,1.027,2.293,2.293s-1.028,2.294-2.293,2.294
		c-1.266,0-2.293-1.028-2.293-2.294S24.288,34.765,25.554,34.765z M20.967,39.352c1.266,0,2.293,1.027,2.293,2.292
		c0,1.266-1.028,2.294-2.293,2.294c-1.266,0-2.293-1.028-2.293-2.294C18.673,40.379,19.701,39.352,20.967,39.352z M16.38,43.938
		c1.266,0,2.293,1.028,2.293,2.294c0,1.264-1.027,2.293-2.293,2.293s-2.293-1.029-2.293-2.293
		C14.087,44.966,15.114,43.938,16.38,43.938z M25.554,43.938c1.265,0,2.293,1.028,2.293,2.294c0,1.264-1.028,2.293-2.293,2.293
		c-1.266,0-2.293-1.029-2.293-2.293C23.26,44.966,24.288,43.938,25.554,43.938z M20.967,48.524c1.266,0,2.293,1.027,2.293,2.293
		s-1.028,2.294-2.293,2.294c-1.266,0-2.293-1.028-2.293-2.294S19.701,48.524,20.967,48.524z M16.38,53.111
		c1.266,0,2.293,1.027,2.293,2.293s-1.027,2.294-2.293,2.294s-2.293-1.028-2.293-2.294S15.114,53.111,16.38,53.111z M25.554,53.111
		c1.265,0,2.293,1.027,2.293,2.293s-1.028,2.294-2.293,2.294c-1.266,0-2.293-1.028-2.293-2.294S24.288,53.111,25.554,53.111z
		 M20.967,57.698c1.266,0,2.293,1.027,2.293,2.293s-1.028,2.294-2.293,2.294c-1.266,0-2.293-1.028-2.293-2.294
		S19.701,57.698,20.967,57.698z M16.38,62.285c1.266,0,2.293,1.027,2.293,2.293c0,1.265-1.027,2.293-2.293,2.293
		s-2.293-1.028-2.293-2.293C14.087,63.313,15.114,62.285,16.38,62.285z M25.554,62.285c1.265,0,2.293,1.027,2.293,2.293
		c0,1.265-1.028,2.293-2.293,2.293c-1.266,0-2.293-1.028-2.293-2.293C23.26,63.313,24.288,62.285,25.554,62.285z M20.967,66.871
		c1.266,0,2.293,1.027,2.293,2.293s-1.028,2.293-2.293,2.293c-1.266,0-2.293-1.027-2.293-2.293S19.701,66.871,20.967,66.871z
		 M16.38,71.457c1.266,0,2.293,1.029,2.293,2.295c0,1.264-1.027,2.294-2.293,2.294s-2.293-1.03-2.293-2.294
		C14.087,72.486,15.114,71.457,16.38,71.457z M25.554,71.457c1.265,0,2.293,1.029,2.293,2.295c0,1.264-1.028,2.294-2.293,2.294
		c-1.266,0-2.293-1.03-2.293-2.294C23.26,72.486,24.288,71.457,25.554,71.457z"/>
	<path d="M9,7.5v73.667h22.26V7.5H9z M29.086,75.25H10.554c-0.565,0-1.023-0.459-1.023-1.023c0-0.566,0.458-1.023,1.023-1.023
		h18.532c0.565,0,1.023,0.457,1.023,1.023C30.109,74.791,29.651,75.25,29.086,75.25z M29.086,71.25H10.554
		c-0.565,0-1.023-0.459-1.023-1.023c0-0.566,0.458-1.023,1.023-1.023h18.532c0.565,0,1.023,0.457,1.023,1.023
		C30.109,70.791,29.651,71.25,29.086,71.25z M29.086,67.25H10.554c-0.565,0-1.023-0.459-1.023-1.023
		c0-0.566,0.458-1.023,1.023-1.023h18.532c0.565,0,1.023,0.457,1.023,1.023C30.109,66.791,29.651,67.25,29.086,67.25z M29.396,21.5
		H10.864c-0.565,0-1.023-0.458-1.023-1.023c0-0.565,0.458-1.023,1.023-1.023h18.532c0.565,0,1.023,0.458,1.023,1.023
		C30.419,21.041,29.961,21.5,29.396,21.5z M29.396,17.333H10.864c-0.565,0-1.023-0.458-1.023-1.023c0-0.565,0.458-1.023,1.023-1.023
		h18.532c0.565,0,1.023,0.458,1.023,1.023C30.419,16.875,29.961,17.333,29.396,17.333z M29.396,13.167H10.864
		c-0.565,0-1.023-0.458-1.023-1.023c0-0.565,0.458-1.023,1.023-1.023h18.532c0.565,0,1.023,0.458,1.023,1.023
		C30.419,12.708,29.961,13.167,29.396,13.167z"/>
	<linearGradient id="SVGID_7_" gradientUnits="userSpaceOnUse" x1="9" y1="44.3335" x2="31.2598" y2="44.3335">
		<stop  offset="0" style="stop-color:#3C3C3C"/>
		<stop  offset="1" style="stop-color:#191919"/>
	</linearGradient>
	<path fill="url(#SVGID_7_)" d="M9,7.5v73.667h22.26V7.5H9z M29.086,76.25H10.554c-0.565,0-1.023-0.459-1.023-1.023
		c0-0.566,0.458-1.023,1.023-1.023h18.532c0.565,0,1.023,0.457,1.023,1.023C30.109,75.791,29.651,76.25,29.086,76.25z M29.086,72.25
		H10.554c-0.565,0-1.023-0.459-1.023-1.023c0-0.566,0.458-1.023,1.023-1.023h18.532c0.565,0,1.023,0.457,1.023,1.023
		C30.109,71.791,29.651,72.25,29.086,72.25z M29.086,68.25H10.554c-0.565,0-1.023-0.459-1.023-1.023
		c0-0.566,0.458-1.023,1.023-1.023h18.532c0.565,0,1.023,0.457,1.023,1.023C30.109,67.791,29.651,68.25,29.086,68.25z M29.396,22.5
		H10.864c-0.565,0-1.023-0.458-1.023-1.023c0-0.565,0.458-1.023,1.023-1.023h18.532c0.565,0,1.023,0.458,1.023,1.023
		C30.419,22.041,29.961,22.5,29.396,22.5z M29.396,18.333H10.864c-0.565,0-1.023-0.458-1.023-1.023c0-0.565,0.458-1.023,1.023-1.023
		h18.532c0.565,0,1.023,0.458,1.023,1.023C30.419,17.875,29.961,18.333,29.396,18.333z M29.396,14.167H10.864
		c-0.565,0-1.023-0.458-1.023-1.023c0-0.565,0.458-1.023,1.023-1.023h18.532c0.565,0,1.023,0.458,1.023,1.023
		C30.419,13.708,29.961,14.167,29.396,14.167z"/>
	<g>
		<linearGradient id="SVGID_8_" gradientUnits="userSpaceOnUse" x1="20.1299" y1="38.1396" x2="20.1299" y2="43.4552">
			<stop  offset="0" style="stop-color:#000000"/>
			<stop  offset="1" style="stop-color:#808080"/>
		</linearGradient>
		<path fill="url(#SVGID_8_)" d="M20.13,43.285c-1.396,0-2.533-1.136-2.533-2.533s1.136-2.533,2.533-2.533s2.533,1.136,2.533,2.533
			S21.526,43.285,20.13,43.285L20.13,43.285z"/>
		
			<radialGradient id="SVGID_9_" cx="20.1563" cy="39.2886" r="2.7437" gradientTransform="matrix(1.833002e-004 1 -1.1286 2.068652e-004 64.4921 19.1242)" gradientUnits="userSpaceOnUse">
			<stop  offset="0" style="stop-color:#B0FF04"/>
			<stop  offset="0.5636" style="stop-color:#5AC306"/>
			<stop  offset="0.7394" style="stop-color:#13A400"/>
		</radialGradient>
		<circle fill="url(#SVGID_9_)" cx="20.13" cy="40.752" r="1.672"/>
	</g>
	<g>
		<rect x="9" y="46.762" fill="#B3B3B3" width="22.26" height="6.988"/>
		<rect x="10.191" y="47.893" width="19.949" height="5"/>
		<g>
			
				<linearGradient id="rect5902_1_" gradientUnits="userSpaceOnUse" x1="277.8203" y1="-297.8926" x2="277.8203" y2="-295.8931" gradientTransform="matrix(1 0 0 -1 -258 -248)">
				<stop  offset="0" style="stop-color:#4F4F4F"/>
				<stop  offset="1" style="stop-color:#A2A2A2"/>
			</linearGradient>
			
				<rect id="rect5902" x="13.82" y="47.893" opacity="0.6" fill="url(#rect5902_1_)" enable-background="new    " width="12" height="2"/>
			
				<linearGradient id="rect5906_1_" gradientUnits="userSpaceOnUse" x1="277.8203" y1="-333.0527" x2="277.8203" y2="-331.0532" gradientTransform="matrix(1 0 0 -0.9107 -258 -250.5254)">
				<stop  offset="0" style="stop-color:#000000"/>
				<stop  offset="0.5" style="stop-color:#656565"/>
				<stop  offset="1" style="stop-color:#000000"/>
			</linearGradient>
			<rect id="rect5906" x="13.82" y="50.965" fill="url(#rect5906_1_)" width="12" height="1.821"/>
			<rect id="rect5918_6_" x="11.82" y="47.893" fill="#545454" width="1" height="5"/>
			<rect id="rect5920_6_" x="26.82" y="47.893" fill="#545454" width="1" height="5"/>
		</g>
	</g>
	<g>
		<rect x="9" y="56.125" fill="#B3B3B3" width="22.26" height="6.988"/>
		<rect x="10.191" y="57.256" width="19.949" height="5"/>
		<g>
			
				<linearGradient id="rect5902_2_" gradientUnits="userSpaceOnUse" x1="277.8203" y1="-307.2559" x2="277.8203" y2="-305.2559" gradientTransform="matrix(1 0 0 -1 -258 -248)">
				<stop  offset="0" style="stop-color:#4F4F4F"/>
				<stop  offset="1" style="stop-color:#A2A2A2"/>
			</linearGradient>
			
				<rect id="rect5902_10_" x="13.82" y="57.256" opacity="0.6" fill="url(#rect5902_2_)" enable-background="new    " width="12" height="2"/>
			
				<linearGradient id="rect5906_2_" gradientUnits="userSpaceOnUse" x1="277.8203" y1="-343.3345" x2="277.8203" y2="-341.3345" gradientTransform="matrix(1 0 0 -0.9107 -258 -250.5254)">
				<stop  offset="0" style="stop-color:#000000"/>
				<stop  offset="0.5" style="stop-color:#656565"/>
				<stop  offset="1" style="stop-color:#000000"/>
			</linearGradient>
			<rect id="rect5906_10_" x="13.82" y="60.328" fill="url(#rect5906_2_)" width="12" height="1.821"/>
			<rect id="rect5918_10_" x="11.82" y="57.256" fill="#545454" width="1" height="5"/>
			<rect id="rect5920_10_" x="26.82" y="57.256" fill="#545454" width="1" height="5"/>
		</g>
	</g>
	<g>
		
			<linearGradient id="path6049_1_" gradientUnits="userSpaceOnUse" x1="304.4268" y1="241.4922" x2="310.9449" y2="241.4922" gradientTransform="matrix(0 1.2347 1.2347 0 -278.0412 -347.7941)">
			<stop  offset="0" style="stop-color:#000000;stop-opacity:0.4263"/>
			<stop  offset="1" style="stop-color:#FFFFFF;stop-opacity:0.3171"/>
		</linearGradient>
		<path id="path6049_2_" fill="url(#path6049_1_)" d="M20.13,36.13c-2.97,0-5.378-2.407-5.378-5.378c0-2.97,2.408-5.378,5.378-5.378
			c2.971,0,5.378,2.408,5.378,5.378C25.508,33.723,23.101,36.13,20.13,36.13z"/>
		<path id="path5936_2_" fill="#C6C6C6" stroke="#000000" stroke-width="1.1313" stroke-linecap="square" d="M23.979,30.752
			c0,2.127-1.723,3.85-3.85,3.85s-3.85-1.723-3.85-3.85s1.723-3.85,3.85-3.85S23.979,28.625,23.979,30.752z"/>
		<linearGradient id="path6067_1_" gradientUnits="userSpaceOnUse" x1="17.3799" y1="30.752" x2="22.8799" y2="30.752">
			<stop  offset="0" style="stop-color:#FFFFFF"/>
			<stop  offset="1" style="stop-color:#7C7C7C"/>
		</linearGradient>
		<path id="path6067_2_" fill="url(#path6067_1_)" d="M20.13,33.502c-1.519,0-2.75-1.231-2.75-2.75s1.231-2.75,2.75-2.75
			s2.75,1.231,2.75,2.75S21.648,33.502,20.13,33.502z"/>
		<g opacity="0.4263" enable-background="new    ">
			<path d="M21.332,29.592c-0.104-0.102-0.268-0.102-0.371,0c-0.102,0.103-0.102,0.269,0,0.372l0,0
				c0.235,0.233,0.352,0.54,0.352,0.849c0,0.307-0.116,0.612-0.352,0.848c-0.234,0.234-0.54,0.352-0.849,0.352
				c-0.308,0-0.614-0.117-0.849-0.352c-0.234-0.235-0.351-0.541-0.351-0.848c0-0.309,0.116-0.615,0.351-0.849
				c0.103-0.104,0.103-0.27,0-0.372c-0.103-0.102-0.269-0.102-0.37,0c-0.336,0.336-0.506,0.779-0.505,1.221
				c-0.001,0.439,0.169,0.882,0.505,1.219c0.335,0.335,0.778,0.504,1.219,0.504h0.002c0.438,0,0.883-0.169,1.218-0.504
				c0.336-0.337,0.506-0.779,0.505-1.219C21.838,30.371,21.668,29.928,21.332,29.592z"/>
			<path d="M20.112,31.074c0.146,0,0.263-0.118,0.263-0.262v-1.583c0-0.145-0.117-0.262-0.263-0.262
				c-0.145,0-0.262,0.117-0.262,0.262v1.583C19.851,30.956,19.968,31.074,20.112,31.074z"/>
		</g>
	</g>
</g>
<g>
	<path id="rect3345_4_" inkscape:connector-curvature="0" fill="#999999" d="M37.37,7.667v4.587v4.586
		c0-1.266,1.027-2.293,2.292-2.293c1.267,0,2.294,1.027,2.294,2.293c0,1.266-1.028,2.294-2.294,2.294
		c-1.265,0-2.292-1.028-2.292-2.294v4.587v4.586c0-1.265,1.027-2.292,2.292-2.292c1.267,0,2.294,1.027,2.294,2.292
		s-1.028,2.293-2.294,2.293c-1.265,0-2.292-1.028-2.292-2.293V30.6v4.586c0-1.266,1.027-2.293,2.292-2.293
		c1.267,0,2.294,1.027,2.294,2.293c0,1.265-1.028,2.294-2.294,2.294c-1.265,0-2.292-1.029-2.292-2.294v4.587v4.587
		c0-1.266,1.027-2.293,2.292-2.293c1.267,0,2.294,1.028,2.294,2.293s-1.028,2.294-2.294,2.294c-1.265,0-2.292-1.028-2.292-2.294
		v4.587v4.586c0-1.266,1.027-2.293,2.292-2.293c1.267,0,2.294,1.027,2.294,2.293s-1.028,2.293-2.294,2.293
		c-1.265,0-2.292-1.027-2.292-2.293v4.588v4.585c0-1.265,1.027-2.291,2.292-2.291c1.267,0,2.294,1.026,2.294,2.291
		c0,1.267-1.028,2.294-2.294,2.294h4.587h4.587c-1.266,0-2.293-1.027-2.293-2.294c0-1.265,1.027-2.291,2.293-2.291
		c1.266,0,2.294,1.026,2.294,2.291c0,1.267-1.028,2.294-2.294,2.294h4.587h4.586c-1.266,0-2.293-1.027-2.293-2.294
		c0-1.265,1.027-2.291,2.293-2.291v-4.589c-1.266,0-2.293-1.027-2.293-2.293s1.027-2.293,2.293-2.293v-4.586
		c-1.266,0-2.293-1.028-2.293-2.294s1.027-2.293,2.293-2.293V37.48c-1.266,0-2.293-1.029-2.293-2.294
		c0-1.266,1.027-2.293,2.293-2.293v-4.587c-1.266,0-2.293-1.028-2.293-2.293s1.027-2.292,2.293-2.292v-4.587
		c-1.266,0-2.293-1.028-2.293-2.294c0-1.266,1.027-2.293,2.293-2.293V9.96c-1.266,0-2.293-1.027-2.293-2.293h-4.586
		c0,1.266-1.028,2.293-2.294,2.293c-1.266,0-2.293-1.027-2.293-2.293h-4.586c0,1.266-1.028,2.293-2.294,2.293
		C38.397,9.96,37.37,8.933,37.37,7.667z M39.663,65c-1.265,0-2.292-1.027-2.292-2.294V65H39.663z M44.25,9.96
		c1.266,0,2.293,1.028,2.293,2.293c0,1.266-1.027,2.293-2.293,2.293s-2.293-1.027-2.293-2.293C41.957,10.988,42.984,9.96,44.25,9.96
		z M53.424,9.96c1.266,0,2.293,1.028,2.293,2.293c0,1.266-1.027,2.293-2.293,2.293s-2.293-1.027-2.293-2.293
		C51.131,10.988,52.158,9.96,53.424,9.96z M48.837,14.547c1.266,0,2.294,1.027,2.294,2.293c0,1.266-1.028,2.294-2.294,2.294
		c-1.266,0-2.293-1.028-2.293-2.294C46.543,15.574,47.571,14.547,48.837,14.547z M44.25,19.134c1.266,0,2.293,1.027,2.293,2.293
		s-1.027,2.294-2.293,2.294s-2.293-1.028-2.293-2.294S42.984,19.134,44.25,19.134z M53.424,19.134c1.266,0,2.293,1.027,2.293,2.293
		s-1.027,2.294-2.293,2.294s-2.293-1.028-2.293-2.294S52.158,19.134,53.424,19.134z M48.837,23.721c1.266,0,2.294,1.027,2.294,2.292
		s-1.028,2.293-2.294,2.293c-1.266,0-2.293-1.028-2.293-2.293S47.571,23.721,48.837,23.721z M44.25,28.307
		c1.266,0,2.293,1.028,2.293,2.293c0,1.265-1.027,2.293-2.293,2.293s-2.293-1.029-2.293-2.293
		C41.957,29.334,42.984,28.307,44.25,28.307z M53.424,28.307c1.266,0,2.293,1.028,2.293,2.293c0,1.265-1.027,2.293-2.293,2.293
		s-2.293-1.029-2.293-2.293C51.131,29.334,52.158,28.307,53.424,28.307z M48.837,32.894c1.266,0,2.294,1.027,2.294,2.293
		c0,1.265-1.028,2.294-2.294,2.294c-1.266,0-2.293-1.029-2.293-2.294C46.543,33.921,47.571,32.894,48.837,32.894z M44.25,37.48
		c1.266,0,2.293,1.027,2.293,2.293s-1.027,2.293-2.293,2.293s-2.293-1.028-2.293-2.293S42.984,37.48,44.25,37.48z M53.424,37.48
		c1.266,0,2.293,1.027,2.293,2.293s-1.027,2.293-2.293,2.293s-2.293-1.028-2.293-2.293S52.158,37.48,53.424,37.48z M48.837,42.067
		c1.266,0,2.294,1.028,2.294,2.293s-1.028,2.294-2.294,2.294c-1.266,0-2.293-1.028-2.293-2.294S47.571,42.067,48.837,42.067z
		 M44.25,46.654c1.266,0,2.293,1.027,2.293,2.293c0,1.265-1.027,2.293-2.293,2.293s-2.293-1.028-2.293-2.293
		C41.957,47.682,42.984,46.654,44.25,46.654z M53.424,46.654c1.266,0,2.293,1.027,2.293,2.293c0,1.265-1.027,2.293-2.293,2.293
		s-2.293-1.028-2.293-2.293C51.131,47.682,52.158,46.654,53.424,46.654z M48.837,51.24c1.266,0,2.294,1.027,2.294,2.293
		s-1.028,2.293-2.294,2.293c-1.266,0-2.293-1.027-2.293-2.293S47.571,51.24,48.837,51.24z M44.25,55.826
		c1.266,0,2.293,1.029,2.293,2.295c0,1.264-1.027,2.294-2.293,2.294s-2.293-1.03-2.293-2.294
		C41.957,56.855,42.984,55.826,44.25,55.826z M53.424,55.826c1.266,0,2.293,1.029,2.293,2.295c0,1.264-1.027,2.294-2.293,2.294
		s-2.293-1.03-2.293-2.294C51.131,56.855,52.158,55.826,53.424,55.826z"/>
	<path id="rect3345_3_" inkscape:connector-curvature="0" fill="#999999" d="M37.37,23.298v4.586v4.587
		c0-1.266,1.027-2.293,2.292-2.293c1.267,0,2.294,1.027,2.294,2.293c0,1.267-1.028,2.294-2.294,2.294
		c-1.265,0-2.292-1.027-2.292-2.294v4.587v4.586c0-1.265,1.027-2.292,2.292-2.292c1.267,0,2.294,1.027,2.294,2.292
		c0,1.266-1.028,2.294-2.294,2.294c-1.265,0-2.292-1.028-2.292-2.294v4.588v4.586c0-1.266,1.027-2.293,2.292-2.293
		c1.267,0,2.294,1.027,2.294,2.293s-1.028,2.294-2.294,2.294c-1.265,0-2.292-1.028-2.292-2.294v4.587v4.587
		c0-1.266,1.027-2.293,2.292-2.293c1.267,0,2.294,1.027,2.294,2.293s-1.028,2.294-2.294,2.294c-1.265,0-2.292-1.028-2.292-2.294
		v4.587v4.586c0-1.266,1.027-2.293,2.292-2.293c1.267,0,2.294,1.027,2.294,2.293s-1.028,2.293-2.294,2.293
		c-1.265,0-2.292-1.027-2.292-2.293v4.588v4.585c0-1.265,1.027-2.291,2.292-2.291c1.267,0,2.294,1.026,2.294,2.291
		c0,1.267-1.028,2.294-2.294,2.294h4.587h4.587c-1.266,0-2.293-1.027-2.293-2.294c0-1.265,1.027-2.291,2.293-2.291
		c1.266,0,2.294,1.026,2.294,2.291c0,1.267-1.028,2.294-2.294,2.294h4.587h4.586c-1.266,0-2.293-1.027-2.293-2.294
		c0-1.265,1.027-2.291,2.293-2.291v-4.589c-1.266,0-2.293-1.027-2.293-2.293s1.027-2.293,2.293-2.293v-4.586
		c-1.266,0-2.293-1.028-2.293-2.294s1.027-2.293,2.293-2.293v-4.587c-1.266,0-2.293-1.028-2.293-2.294s1.027-2.293,2.293-2.293
		v-4.587c-1.266,0-2.293-1.028-2.293-2.294c0-1.265,1.027-2.292,2.293-2.292v-4.587c-1.266,0-2.293-1.027-2.293-2.294
		c0-1.266,1.027-2.293,2.293-2.293v-4.587c-1.266,0-2.293-1.027-2.293-2.293h-4.586c0,1.266-1.028,2.293-2.294,2.293
		c-1.266,0-2.293-1.027-2.293-2.293h-4.586c0,1.266-1.028,2.293-2.294,2.293C38.397,25.591,37.37,24.563,37.37,23.298z
		 M39.663,80.631c-1.265,0-2.292-1.027-2.292-2.294v2.294H39.663z M44.25,25.591c1.266,0,2.293,1.027,2.293,2.293
		c0,1.267-1.027,2.294-2.293,2.294s-2.293-1.027-2.293-2.294C41.957,26.618,42.984,25.591,44.25,25.591z M53.424,25.591
		c1.266,0,2.293,1.027,2.293,2.293c0,1.267-1.027,2.294-2.293,2.294s-2.293-1.027-2.293-2.294
		C51.131,26.618,52.158,25.591,53.424,25.591z M48.837,30.178c1.266,0,2.294,1.027,2.294,2.293c0,1.267-1.028,2.294-2.294,2.294
		c-1.266,0-2.293-1.027-2.293-2.294C46.543,31.205,47.571,30.178,48.837,30.178z M44.25,34.765c1.266,0,2.293,1.027,2.293,2.293
		s-1.027,2.294-2.293,2.294s-2.293-1.028-2.293-2.294S42.984,34.765,44.25,34.765z M53.424,34.765c1.266,0,2.293,1.027,2.293,2.293
		s-1.027,2.294-2.293,2.294s-2.293-1.028-2.293-2.294S52.158,34.765,53.424,34.765z M48.837,39.352c1.266,0,2.294,1.027,2.294,2.292
		c0,1.266-1.028,2.294-2.294,2.294c-1.266,0-2.293-1.028-2.293-2.294C46.543,40.379,47.571,39.352,48.837,39.352z M44.25,43.938
		c1.266,0,2.293,1.028,2.293,2.294c0,1.264-1.027,2.293-2.293,2.293s-2.293-1.029-2.293-2.293
		C41.957,44.966,42.984,43.938,44.25,43.938z M53.424,43.938c1.266,0,2.293,1.028,2.293,2.294c0,1.264-1.027,2.293-2.293,2.293
		s-2.293-1.029-2.293-2.293C51.131,44.966,52.158,43.938,53.424,43.938z M48.837,48.524c1.266,0,2.294,1.027,2.294,2.293
		s-1.028,2.294-2.294,2.294c-1.266,0-2.293-1.028-2.293-2.294S47.571,48.524,48.837,48.524z M44.25,53.111
		c1.266,0,2.293,1.027,2.293,2.293s-1.027,2.294-2.293,2.294s-2.293-1.028-2.293-2.294S42.984,53.111,44.25,53.111z M53.424,53.111
		c1.266,0,2.293,1.027,2.293,2.293s-1.027,2.294-2.293,2.294s-2.293-1.028-2.293-2.294S52.158,53.111,53.424,53.111z M48.837,57.698
		c1.266,0,2.294,1.027,2.294,2.293s-1.028,2.294-2.294,2.294c-1.266,0-2.293-1.028-2.293-2.294S47.571,57.698,48.837,57.698z
		 M44.25,62.285c1.266,0,2.293,1.027,2.293,2.293c0,1.265-1.027,2.293-2.293,2.293s-2.293-1.028-2.293-2.293
		C41.957,63.313,42.984,62.285,44.25,62.285z M53.424,62.285c1.266,0,2.293,1.027,2.293,2.293c0,1.265-1.027,2.293-2.293,2.293
		s-2.293-1.028-2.293-2.293C51.131,63.313,52.158,62.285,53.424,62.285z M48.837,66.871c1.266,0,2.294,1.027,2.294,2.293
		s-1.028,2.293-2.294,2.293c-1.266,0-2.293-1.027-2.293-2.293S47.571,66.871,48.837,66.871z M44.25,71.457
		c1.266,0,2.293,1.029,2.293,2.295c0,1.264-1.027,2.294-2.293,2.294s-2.293-1.03-2.293-2.294
		C41.957,72.486,42.984,71.457,44.25,71.457z M53.424,71.457c1.266,0,2.293,1.029,2.293,2.295c0,1.264-1.027,2.294-2.293,2.294
		s-2.293-1.03-2.293-2.294C51.131,72.486,52.158,71.457,53.424,71.457z"/>
	<path d="M36.87,7.5v73.667h22.26V7.5H36.87z M56.956,75.25H38.424c-0.565,0-1.023-0.459-1.023-1.023
		c0-0.566,0.458-1.023,1.023-1.023h18.532c0.565,0,1.023,0.457,1.023,1.023C57.979,74.791,57.521,75.25,56.956,75.25z M56.956,71.25
		H38.424c-0.565,0-1.023-0.459-1.023-1.023c0-0.566,0.458-1.023,1.023-1.023h18.532c0.565,0,1.023,0.457,1.023,1.023
		C57.979,70.791,57.521,71.25,56.956,71.25z M56.956,67.25H38.424c-0.565,0-1.023-0.459-1.023-1.023
		c0-0.566,0.458-1.023,1.023-1.023h18.532c0.565,0,1.023,0.457,1.023,1.023C57.979,66.791,57.521,67.25,56.956,67.25z M57.266,21.5
		H38.734c-0.565,0-1.023-0.458-1.023-1.023c0-0.565,0.458-1.023,1.023-1.023h18.531c0.565,0,1.023,0.458,1.023,1.023
		C58.289,21.041,57.831,21.5,57.266,21.5z M57.266,17.333H38.734c-0.565,0-1.023-0.458-1.023-1.023c0-0.565,0.458-1.023,1.023-1.023
		h18.531c0.565,0,1.023,0.458,1.023,1.023C58.289,16.875,57.831,17.333,57.266,17.333z M57.266,13.167H38.734
		c-0.565,0-1.023-0.458-1.023-1.023c0-0.565,0.458-1.023,1.023-1.023h18.531c0.565,0,1.023,0.458,1.023,1.023
		C58.289,12.708,57.831,13.167,57.266,13.167z"/>
	<linearGradient id="SVGID_10_" gradientUnits="userSpaceOnUse" x1="36.8701" y1="44.3335" x2="59.1299" y2="44.3335">
		<stop  offset="0" style="stop-color:#3C3C3C"/>
		<stop  offset="1" style="stop-color:#191919"/>
	</linearGradient>
	<path fill="url(#SVGID_10_)" d="M36.87,7.5v73.667h22.26V7.5H36.87z M56.956,76.25H38.424c-0.565,0-1.023-0.459-1.023-1.023
		c0-0.566,0.458-1.023,1.023-1.023h18.532c0.565,0,1.023,0.457,1.023,1.023C57.979,75.791,57.521,76.25,56.956,76.25z M56.956,72.25
		H38.424c-0.565,0-1.023-0.459-1.023-1.023c0-0.566,0.458-1.023,1.023-1.023h18.532c0.565,0,1.023,0.457,1.023,1.023
		C57.979,71.791,57.521,72.25,56.956,72.25z M56.956,68.25H38.424c-0.565,0-1.023-0.459-1.023-1.023
		c0-0.566,0.458-1.023,1.023-1.023h18.532c0.565,0,1.023,0.457,1.023,1.023C57.979,67.791,57.521,68.25,56.956,68.25z M57.266,22.5
		H38.734c-0.565,0-1.023-0.458-1.023-1.023c0-0.565,0.458-1.023,1.023-1.023h18.531c0.565,0,1.023,0.458,1.023,1.023
		C58.289,22.041,57.831,22.5,57.266,22.5z M57.266,18.333H38.734c-0.565,0-1.023-0.458-1.023-1.023c0-0.565,0.458-1.023,1.023-1.023
		h18.531c0.565,0,1.023,0.458,1.023,1.023C58.289,17.875,57.831,18.333,57.266,18.333z M57.266,14.167H38.734
		c-0.565,0-1.023-0.458-1.023-1.023c0-0.565,0.458-1.023,1.023-1.023h18.531c0.565,0,1.023,0.458,1.023,1.023
		C58.289,13.708,57.831,14.167,57.266,14.167z"/>
	<g>
		<linearGradient id="SVGID_11_" gradientUnits="userSpaceOnUse" x1="48" y1="38.1396" x2="48" y2="43.4552">
			<stop  offset="0" style="stop-color:#000000"/>
			<stop  offset="1" style="stop-color:#808080"/>
		</linearGradient>
		<path fill="url(#SVGID_11_)" d="M48,43.285c-1.396,0-2.533-1.136-2.533-2.533s1.136-2.533,2.533-2.533s2.533,1.136,2.533,2.533
			S49.396,43.285,48,43.285L48,43.285z"/>
		
			<radialGradient id="SVGID_12_" cx="48.0264" cy="39.2886" r="2.7437" gradientTransform="matrix(1.833002e-004 1 -1.1286 2.068652e-004 92.3571 -8.7459)" gradientUnits="userSpaceOnUse">
			<stop  offset="0" style="stop-color:#B0FF04"/>
			<stop  offset="0.5636" style="stop-color:#5AC306"/>
			<stop  offset="0.7394" style="stop-color:#13A400"/>
		</radialGradient>
		<circle fill="url(#SVGID_12_)" cx="48" cy="40.752" r="1.672"/>
	</g>
	<g>
		<rect x="36.87" y="46.762" fill="#B3B3B3" width="22.26" height="6.988"/>
		<rect x="38.062" y="47.893" width="19.948" height="5"/>
		<g>
			
				<linearGradient id="rect5902_3_" gradientUnits="userSpaceOnUse" x1="305.6904" y1="-297.8926" x2="305.6904" y2="-295.8931" gradientTransform="matrix(1 0 0 -1 -258 -248)">
				<stop  offset="0" style="stop-color:#4F4F4F"/>
				<stop  offset="1" style="stop-color:#A2A2A2"/>
			</linearGradient>
			
				<rect id="rect5902_12_" x="41.69" y="47.893" opacity="0.6" fill="url(#rect5902_3_)" enable-background="new    " width="12" height="2"/>
			
				<linearGradient id="rect5906_3_" gradientUnits="userSpaceOnUse" x1="305.6904" y1="-333.0527" x2="305.6904" y2="-331.0532" gradientTransform="matrix(1 0 0 -0.9107 -258 -250.5254)">
				<stop  offset="0" style="stop-color:#000000"/>
				<stop  offset="0.5" style="stop-color:#656565"/>
				<stop  offset="1" style="stop-color:#000000"/>
			</linearGradient>
			<rect id="rect5906_12_" x="41.69" y="50.965" fill="url(#rect5906_3_)" width="12" height="1.821"/>
			<rect id="rect5918_12_" x="39.69" y="47.893" fill="#545454" width="1" height="5"/>
			<rect id="rect5920_12_" x="54.69" y="47.893" fill="#545454" width="1" height="5"/>
		</g>
	</g>
	<g>
		<rect x="36.87" y="56.125" fill="#B3B3B3" width="22.26" height="6.988"/>
		<rect x="38.062" y="57.256" width="19.948" height="5"/>
		<g>
			
				<linearGradient id="rect5902_4_" gradientUnits="userSpaceOnUse" x1="305.6904" y1="-307.2559" x2="305.6904" y2="-305.2559" gradientTransform="matrix(1 0 0 -1 -258 -248)">
				<stop  offset="0" style="stop-color:#4F4F4F"/>
				<stop  offset="1" style="stop-color:#A2A2A2"/>
			</linearGradient>
			
				<rect id="rect5902_11_" x="41.69" y="57.256" opacity="0.6" fill="url(#rect5902_4_)" enable-background="new    " width="12" height="2"/>
			
				<linearGradient id="rect5906_4_" gradientUnits="userSpaceOnUse" x1="305.6904" y1="-343.3345" x2="305.6904" y2="-341.3345" gradientTransform="matrix(1 0 0 -0.9107 -258 -250.5254)">
				<stop  offset="0" style="stop-color:#000000"/>
				<stop  offset="0.5" style="stop-color:#656565"/>
				<stop  offset="1" style="stop-color:#000000"/>
			</linearGradient>
			<rect id="rect5906_11_" x="41.69" y="60.328" fill="url(#rect5906_4_)" width="12" height="1.821"/>
			<rect id="rect5918_11_" x="39.69" y="57.256" fill="#545454" width="1" height="5"/>
			<rect id="rect5920_11_" x="54.69" y="57.256" fill="#545454" width="1" height="5"/>
		</g>
	</g>
	<g>
		
			<linearGradient id="path6049_5_" gradientUnits="userSpaceOnUse" x1="304.4268" y1="264.0645" x2="310.9449" y2="264.0645" gradientTransform="matrix(0 1.2347 1.2347 0 -278.0412 -347.7941)">
			<stop  offset="0" style="stop-color:#000000;stop-opacity:0.4263"/>
			<stop  offset="1" style="stop-color:#FFFFFF;stop-opacity:0.3171"/>
		</linearGradient>
		<path id="path6049_3_" fill="url(#path6049_5_)" d="M48,36.13c-2.97,0-5.378-2.407-5.378-5.378c0-2.97,2.408-5.378,5.378-5.378
			c2.971,0,5.378,2.408,5.378,5.378C53.378,33.723,50.971,36.13,48,36.13z"/>
		<path id="path5936_3_" fill="#C6C6C6" stroke="#000000" stroke-width="1.1313" stroke-linecap="square" d="M51.85,30.752
			c0,2.127-1.723,3.85-3.85,3.85s-3.85-1.723-3.85-3.85s1.723-3.85,3.85-3.85S51.85,28.625,51.85,30.752z"/>
		<linearGradient id="path6067_5_" gradientUnits="userSpaceOnUse" x1="45.25" y1="30.752" x2="50.75" y2="30.752">
			<stop  offset="0" style="stop-color:#FFFFFF"/>
			<stop  offset="1" style="stop-color:#7C7C7C"/>
		</linearGradient>
		<path id="path6067_3_" fill="url(#path6067_5_)" d="M48,33.502c-1.519,0-2.75-1.231-2.75-2.75s1.231-2.75,2.75-2.75
			s2.75,1.231,2.75,2.75S49.519,33.502,48,33.502z"/>
		<g opacity="0.4263" enable-background="new    ">
			<path d="M49.202,29.592c-0.104-0.102-0.268-0.102-0.371,0c-0.102,0.103-0.102,0.269,0,0.372l0,0
				c0.235,0.233,0.352,0.54,0.352,0.849c0,0.307-0.116,0.612-0.352,0.848c-0.234,0.234-0.54,0.352-0.849,0.352
				c-0.308,0-0.614-0.117-0.849-0.352c-0.234-0.235-0.351-0.541-0.351-0.848c0-0.309,0.116-0.615,0.351-0.849
				c0.103-0.104,0.103-0.27,0-0.372c-0.103-0.102-0.269-0.102-0.37,0c-0.336,0.336-0.506,0.779-0.505,1.221
				c-0.001,0.439,0.169,0.882,0.505,1.219c0.335,0.335,0.778,0.504,1.219,0.504h0.002c0.438,0,0.883-0.169,1.218-0.504
				c0.336-0.337,0.506-0.779,0.505-1.219C49.708,30.371,49.538,29.928,49.202,29.592z"/>
			<path d="M47.982,31.074c0.146,0,0.263-0.118,0.263-0.262v-1.583c0-0.145-0.117-0.262-0.263-0.262
				c-0.145,0-0.262,0.117-0.262,0.262v1.583C47.721,30.956,47.838,31.074,47.982,31.074z"/>
		</g>
	</g>
</g>
<g>
	<path id="rect3345_6_" inkscape:connector-curvature="0" fill="#999999" d="M65.24,7.667v4.587v4.586
		c0-1.266,1.027-2.293,2.293-2.293s2.294,1.027,2.294,2.293c0,1.266-1.028,2.294-2.294,2.294s-2.293-1.028-2.293-2.294v4.587v4.586
		c0-1.265,1.027-2.292,2.293-2.292s2.294,1.027,2.294,2.292s-1.028,2.293-2.294,2.293s-2.293-1.028-2.293-2.293V30.6v4.586
		c0-1.266,1.027-2.293,2.293-2.293s2.294,1.027,2.294,2.293c0,1.265-1.028,2.294-2.294,2.294s-2.293-1.029-2.293-2.294v4.587v4.587
		c0-1.266,1.027-2.293,2.293-2.293s2.294,1.028,2.294,2.293s-1.028,2.294-2.294,2.294s-2.293-1.028-2.293-2.294v4.587v4.586
		c0-1.266,1.027-2.293,2.293-2.293s2.294,1.027,2.294,2.293s-1.028,2.293-2.294,2.293s-2.293-1.027-2.293-2.293v4.588v4.585
		c0-1.265,1.027-2.291,2.293-2.291s2.294,1.026,2.294,2.291c0,1.267-1.028,2.294-2.294,2.294h4.587h4.587
		c-1.266,0-2.293-1.027-2.293-2.294c0-1.265,1.027-2.291,2.293-2.291s2.294,1.026,2.294,2.291c0,1.267-1.028,2.294-2.294,2.294
		h4.587h4.586c-1.266,0-2.293-1.027-2.293-2.294c0-1.265,1.027-2.291,2.293-2.291v-4.589c-1.266,0-2.293-1.027-2.293-2.293
		s1.027-2.293,2.293-2.293v-4.586c-1.266,0-2.293-1.028-2.293-2.294s1.027-2.293,2.293-2.293V37.48
		c-1.266,0-2.293-1.029-2.293-2.294c0-1.266,1.027-2.293,2.293-2.293v-4.587c-1.266,0-2.293-1.028-2.293-2.293
		s1.027-2.292,2.293-2.292v-4.587c-1.266,0-2.293-1.028-2.293-2.294c0-1.266,1.027-2.293,2.293-2.293V9.96
		c-1.266,0-2.293-1.027-2.293-2.293h-4.586c0,1.266-1.028,2.293-2.294,2.293s-2.293-1.027-2.293-2.293h-4.587
		c0,1.266-1.028,2.293-2.294,2.293S65.24,8.933,65.24,7.667z M67.533,65c-1.266,0-2.293-1.027-2.293-2.294V65H67.533z M72.12,9.96
		c1.267,0,2.294,1.028,2.294,2.293c0,1.266-1.027,2.293-2.294,2.293s-2.293-1.027-2.293-2.293C69.827,10.988,70.854,9.96,72.12,9.96
		z M81.294,9.96c1.266,0,2.293,1.028,2.293,2.293c0,1.266-1.027,2.293-2.293,2.293s-2.293-1.027-2.293-2.293
		C79.001,10.988,80.028,9.96,81.294,9.96z M76.707,14.547c1.266,0,2.294,1.027,2.294,2.293c0,1.266-1.028,2.294-2.294,2.294
		s-2.293-1.028-2.293-2.294C74.414,15.574,75.441,14.547,76.707,14.547z M72.12,19.134c1.267,0,2.294,1.027,2.294,2.293
		s-1.027,2.294-2.294,2.294s-2.293-1.028-2.293-2.294S70.854,19.134,72.12,19.134z M81.294,19.134c1.266,0,2.293,1.027,2.293,2.293
		s-1.027,2.294-2.293,2.294s-2.293-1.028-2.293-2.294S80.028,19.134,81.294,19.134z M76.707,23.721c1.266,0,2.294,1.027,2.294,2.292
		s-1.028,2.293-2.294,2.293s-2.293-1.028-2.293-2.293S75.441,23.721,76.707,23.721z M72.12,28.307c1.267,0,2.294,1.028,2.294,2.293
		c0,1.265-1.027,2.293-2.294,2.293s-2.293-1.029-2.293-2.293C69.827,29.334,70.854,28.307,72.12,28.307z M81.294,28.307
		c1.266,0,2.293,1.028,2.293,2.293c0,1.265-1.027,2.293-2.293,2.293s-2.293-1.029-2.293-2.293
		C79.001,29.334,80.028,28.307,81.294,28.307z M76.707,32.894c1.266,0,2.294,1.027,2.294,2.293c0,1.265-1.028,2.294-2.294,2.294
		s-2.293-1.029-2.293-2.294C74.414,33.921,75.441,32.894,76.707,32.894z M72.12,37.48c1.267,0,2.294,1.027,2.294,2.293
		s-1.027,2.293-2.294,2.293s-2.293-1.028-2.293-2.293S70.854,37.48,72.12,37.48z M81.294,37.48c1.266,0,2.293,1.027,2.293,2.293
		s-1.027,2.293-2.293,2.293s-2.293-1.028-2.293-2.293S80.028,37.48,81.294,37.48z M76.707,42.067c1.266,0,2.294,1.028,2.294,2.293
		s-1.028,2.294-2.294,2.294s-2.293-1.028-2.293-2.294S75.441,42.067,76.707,42.067z M72.12,46.654c1.267,0,2.294,1.027,2.294,2.293
		c0,1.265-1.027,2.293-2.294,2.293s-2.293-1.028-2.293-2.293C69.827,47.682,70.854,46.654,72.12,46.654z M81.294,46.654
		c1.266,0,2.293,1.027,2.293,2.293c0,1.265-1.027,2.293-2.293,2.293s-2.293-1.028-2.293-2.293
		C79.001,47.682,80.028,46.654,81.294,46.654z M76.707,51.24c1.266,0,2.294,1.027,2.294,2.293s-1.028,2.293-2.294,2.293
		s-2.293-1.027-2.293-2.293S75.441,51.24,76.707,51.24z M72.12,55.826c1.267,0,2.294,1.029,2.294,2.295
		c0,1.264-1.027,2.294-2.294,2.294s-2.293-1.03-2.293-2.294C69.827,56.855,70.854,55.826,72.12,55.826z M81.294,55.826
		c1.266,0,2.293,1.029,2.293,2.295c0,1.264-1.027,2.294-2.293,2.294s-2.293-1.03-2.293-2.294
		C79.001,56.855,80.028,55.826,81.294,55.826z"/>
	<path id="rect3345_5_" inkscape:connector-curvature="0" fill="#999999" d="M65.24,23.298v4.586v4.587
		c0-1.266,1.027-2.293,2.293-2.293s2.294,1.027,2.294,2.293c0,1.267-1.028,2.294-2.294,2.294s-2.293-1.027-2.293-2.294v4.587v4.586
		c0-1.265,1.027-2.292,2.293-2.292s2.294,1.027,2.294,2.292c0,1.266-1.028,2.294-2.294,2.294s-2.293-1.028-2.293-2.294v4.588v4.586
		c0-1.266,1.027-2.293,2.293-2.293s2.294,1.027,2.294,2.293s-1.028,2.294-2.294,2.294s-2.293-1.028-2.293-2.294v4.587v4.587
		c0-1.266,1.027-2.293,2.293-2.293s2.294,1.027,2.294,2.293s-1.028,2.294-2.294,2.294s-2.293-1.028-2.293-2.294v4.587v4.586
		c0-1.266,1.027-2.293,2.293-2.293s2.294,1.027,2.294,2.293s-1.028,2.293-2.294,2.293s-2.293-1.027-2.293-2.293v4.588v4.585
		c0-1.265,1.027-2.291,2.293-2.291s2.294,1.026,2.294,2.291c0,1.267-1.028,2.294-2.294,2.294h4.587h4.587
		c-1.266,0-2.293-1.027-2.293-2.294c0-1.265,1.027-2.291,2.293-2.291s2.294,1.026,2.294,2.291c0,1.267-1.028,2.294-2.294,2.294
		h4.587h4.586c-1.266,0-2.293-1.027-2.293-2.294c0-1.265,1.027-2.291,2.293-2.291v-4.589c-1.266,0-2.293-1.027-2.293-2.293
		s1.027-2.293,2.293-2.293v-4.586c-1.266,0-2.293-1.028-2.293-2.294s1.027-2.293,2.293-2.293v-4.587
		c-1.266,0-2.293-1.028-2.293-2.294s1.027-2.293,2.293-2.293v-4.587c-1.266,0-2.293-1.028-2.293-2.294
		c0-1.265,1.027-2.292,2.293-2.292v-4.587c-1.266,0-2.293-1.027-2.293-2.294c0-1.266,1.027-2.293,2.293-2.293v-4.587
		c-1.266,0-2.293-1.027-2.293-2.293h-4.586c0,1.266-1.028,2.293-2.294,2.293s-2.293-1.027-2.293-2.293h-4.587
		c0,1.266-1.028,2.293-2.294,2.293S65.24,24.563,65.24,23.298z M67.533,80.631c-1.266,0-2.293-1.027-2.293-2.294v2.294H67.533z
		 M72.12,25.591c1.267,0,2.294,1.027,2.294,2.293c0,1.267-1.027,2.294-2.294,2.294s-2.293-1.027-2.293-2.294
		C69.827,26.618,70.854,25.591,72.12,25.591z M81.294,25.591c1.266,0,2.293,1.027,2.293,2.293c0,1.267-1.027,2.294-2.293,2.294
		s-2.293-1.027-2.293-2.294C79.001,26.618,80.028,25.591,81.294,25.591z M76.707,30.178c1.266,0,2.294,1.027,2.294,2.293
		c0,1.267-1.028,2.294-2.294,2.294s-2.293-1.027-2.293-2.294C74.414,31.205,75.441,30.178,76.707,30.178z M72.12,34.765
		c1.267,0,2.294,1.027,2.294,2.293s-1.027,2.294-2.294,2.294s-2.293-1.028-2.293-2.294S70.854,34.765,72.12,34.765z M81.294,34.765
		c1.266,0,2.293,1.027,2.293,2.293s-1.027,2.294-2.293,2.294s-2.293-1.028-2.293-2.294S80.028,34.765,81.294,34.765z M76.707,39.352
		c1.266,0,2.294,1.027,2.294,2.292c0,1.266-1.028,2.294-2.294,2.294s-2.293-1.028-2.293-2.294
		C74.414,40.379,75.441,39.352,76.707,39.352z M72.12,43.938c1.267,0,2.294,1.028,2.294,2.294c0,1.264-1.027,2.293-2.294,2.293
		s-2.293-1.029-2.293-2.293C69.827,44.966,70.854,43.938,72.12,43.938z M81.294,43.938c1.266,0,2.293,1.028,2.293,2.294
		c0,1.264-1.027,2.293-2.293,2.293s-2.293-1.029-2.293-2.293C79.001,44.966,80.028,43.938,81.294,43.938z M76.707,48.524
		c1.266,0,2.294,1.027,2.294,2.293s-1.028,2.294-2.294,2.294s-2.293-1.028-2.293-2.294S75.441,48.524,76.707,48.524z M72.12,53.111
		c1.267,0,2.294,1.027,2.294,2.293s-1.027,2.294-2.294,2.294s-2.293-1.028-2.293-2.294S70.854,53.111,72.12,53.111z M81.294,53.111
		c1.266,0,2.293,1.027,2.293,2.293s-1.027,2.294-2.293,2.294s-2.293-1.028-2.293-2.294S80.028,53.111,81.294,53.111z M76.707,57.698
		c1.266,0,2.294,1.027,2.294,2.293s-1.028,2.294-2.294,2.294s-2.293-1.028-2.293-2.294S75.441,57.698,76.707,57.698z M72.12,62.285
		c1.267,0,2.294,1.027,2.294,2.293c0,1.265-1.027,2.293-2.294,2.293s-2.293-1.028-2.293-2.293
		C69.827,63.313,70.854,62.285,72.12,62.285z M81.294,62.285c1.266,0,2.293,1.027,2.293,2.293c0,1.265-1.027,2.293-2.293,2.293
		s-2.293-1.028-2.293-2.293C79.001,63.313,80.028,62.285,81.294,62.285z M76.707,66.871c1.266,0,2.294,1.027,2.294,2.293
		s-1.028,2.293-2.294,2.293s-2.293-1.027-2.293-2.293S75.441,66.871,76.707,66.871z M72.12,71.457c1.267,0,2.294,1.029,2.294,2.295
		c0,1.264-1.027,2.294-2.294,2.294s-2.293-1.03-2.293-2.294C69.827,72.486,70.854,71.457,72.12,71.457z M81.294,71.457
		c1.266,0,2.293,1.029,2.293,2.295c0,1.264-1.027,2.294-2.293,2.294s-2.293-1.03-2.293-2.294
		C79.001,72.486,80.028,71.457,81.294,71.457z"/>
	<path d="M64.74,7.5v73.667H87V7.5H64.74z M84.826,75.25H66.295c-0.565,0-1.023-0.459-1.023-1.023c0-0.566,0.458-1.023,1.023-1.023
		h18.531c0.565,0,1.023,0.457,1.023,1.023C85.85,74.791,85.392,75.25,84.826,75.25z M84.826,71.25H66.295
		c-0.565,0-1.023-0.459-1.023-1.023c0-0.566,0.458-1.023,1.023-1.023h18.531c0.565,0,1.023,0.457,1.023,1.023
		C85.85,70.791,85.392,71.25,84.826,71.25z M84.826,67.25H66.295c-0.565,0-1.023-0.459-1.023-1.023c0-0.566,0.458-1.023,1.023-1.023
		h18.531c0.565,0,1.023,0.457,1.023,1.023C85.85,66.791,85.392,67.25,84.826,67.25z M85.136,21.5H66.604
		c-0.565,0-1.023-0.458-1.023-1.023c0-0.565,0.458-1.023,1.023-1.023h18.531c0.565,0,1.023,0.458,1.023,1.023
		C86.159,21.041,85.701,21.5,85.136,21.5z M85.136,17.333H66.604c-0.565,0-1.023-0.458-1.023-1.023c0-0.565,0.458-1.023,1.023-1.023
		h18.531c0.565,0,1.023,0.458,1.023,1.023C86.159,16.875,85.701,17.333,85.136,17.333z M85.136,13.167H66.604
		c-0.565,0-1.023-0.458-1.023-1.023c0-0.565,0.458-1.023,1.023-1.023h18.531c0.565,0,1.023,0.458,1.023,1.023
		C86.159,12.708,85.701,13.167,85.136,13.167z"/>
	<linearGradient id="SVGID_13_" gradientUnits="userSpaceOnUse" x1="64.7402" y1="44.3335" x2="87" y2="44.3335">
		<stop  offset="0" style="stop-color:#3C3C3C"/>
		<stop  offset="1" style="stop-color:#191919"/>
	</linearGradient>
	<path fill="url(#SVGID_13_)" d="M64.74,7.5v73.667H87V7.5H64.74z M84.826,76.25H66.295c-0.565,0-1.023-0.459-1.023-1.023
		c0-0.566,0.458-1.023,1.023-1.023h18.531c0.565,0,1.023,0.457,1.023,1.023C85.85,75.791,85.392,76.25,84.826,76.25z M84.826,72.25
		H66.295c-0.565,0-1.023-0.459-1.023-1.023c0-0.566,0.458-1.023,1.023-1.023h18.531c0.565,0,1.023,0.457,1.023,1.023
		C85.85,71.791,85.392,72.25,84.826,72.25z M84.826,68.25H66.295c-0.565,0-1.023-0.459-1.023-1.023c0-0.566,0.458-1.023,1.023-1.023
		h18.531c0.565,0,1.023,0.457,1.023,1.023C85.85,67.791,85.392,68.25,84.826,68.25z M85.136,22.5H66.604
		c-0.565,0-1.023-0.458-1.023-1.023c0-0.565,0.458-1.023,1.023-1.023h18.531c0.565,0,1.023,0.458,1.023,1.023
		C86.159,22.041,85.701,22.5,85.136,22.5z M85.136,18.333H66.604c-0.565,0-1.023-0.458-1.023-1.023c0-0.565,0.458-1.023,1.023-1.023
		h18.531c0.565,0,1.023,0.458,1.023,1.023C86.159,17.875,85.701,18.333,85.136,18.333z M85.136,14.167H66.604
		c-0.565,0-1.023-0.458-1.023-1.023c0-0.565,0.458-1.023,1.023-1.023h18.531c0.565,0,1.023,0.458,1.023,1.023
		C86.159,13.708,85.701,14.167,85.136,14.167z"/>
	<g>
		<linearGradient id="SVGID_14_" gradientUnits="userSpaceOnUse" x1="75.8711" y1="38.1396" x2="75.8711" y2="43.4552">
			<stop  offset="0" style="stop-color:#000000"/>
			<stop  offset="1" style="stop-color:#808080"/>
		</linearGradient>
		<path fill="url(#SVGID_14_)" d="M75.87,43.285c-1.396,0-2.532-1.136-2.532-2.533s1.136-2.533,2.532-2.533s2.533,1.136,2.533,2.533
			S77.267,43.285,75.87,43.285L75.87,43.285z"/>
		
			<radialGradient id="SVGID_15_" cx="75.8965" cy="39.2886" r="2.7437" gradientTransform="matrix(1.833002e-004 1 -1.1286 2.068652e-004 120.2221 -36.6161)" gradientUnits="userSpaceOnUse">
			<stop  offset="0" style="stop-color:#B0FF04"/>
			<stop  offset="0.5636" style="stop-color:#5AC306"/>
			<stop  offset="0.7394" style="stop-color:#13A400"/>
		</radialGradient>
		<circle fill="url(#SVGID_15_)" cx="75.87" cy="40.752" r="1.672"/>
	</g>
	<g>
		<rect x="64.74" y="46.762" fill="#B3B3B3" width="22.26" height="6.988"/>
		<rect x="65.932" y="47.893" width="19.948" height="5"/>
		<g>
			
				<linearGradient id="rect5902_5_" gradientUnits="userSpaceOnUse" x1="333.5605" y1="-297.8926" x2="333.5605" y2="-295.8931" gradientTransform="matrix(1 0 0 -1 -258 -248)">
				<stop  offset="0" style="stop-color:#4F4F4F"/>
				<stop  offset="1" style="stop-color:#A2A2A2"/>
			</linearGradient>
			
				<rect id="rect5902_14_" x="69.561" y="47.893" opacity="0.6" fill="url(#rect5902_5_)" enable-background="new    " width="12" height="2"/>
			
				<linearGradient id="rect5906_5_" gradientUnits="userSpaceOnUse" x1="333.5605" y1="-333.0527" x2="333.5605" y2="-331.0532" gradientTransform="matrix(1 0 0 -0.9107 -258 -250.5254)">
				<stop  offset="0" style="stop-color:#000000"/>
				<stop  offset="0.5" style="stop-color:#656565"/>
				<stop  offset="1" style="stop-color:#000000"/>
			</linearGradient>
			<rect id="rect5906_14_" x="69.561" y="50.965" fill="url(#rect5906_5_)" width="12" height="1.821"/>
			<rect id="rect5918_14_" x="67.561" y="47.893" fill="#545454" width="1" height="5"/>
			<rect id="rect5920_14_" x="82.561" y="47.893" fill="#545454" width="1" height="5"/>
		</g>
	</g>
	<g>
		<rect x="64.74" y="56.125" fill="#B3B3B3" width="22.26" height="6.988"/>
		<rect x="65.932" y="57.256" width="19.948" height="5"/>
		<g>
			
				<linearGradient id="rect5902_6_" gradientUnits="userSpaceOnUse" x1="333.5605" y1="-307.2559" x2="333.5605" y2="-305.2559" gradientTransform="matrix(1 0 0 -1 -258 -248)">
				<stop  offset="0" style="stop-color:#4F4F4F"/>
				<stop  offset="1" style="stop-color:#A2A2A2"/>
			</linearGradient>
			
				<rect id="rect5902_13_" x="69.561" y="57.256" opacity="0.6" fill="url(#rect5902_6_)" enable-background="new    " width="12" height="2"/>
			
				<linearGradient id="rect5906_6_" gradientUnits="userSpaceOnUse" x1="333.5605" y1="-343.3345" x2="333.5605" y2="-341.3345" gradientTransform="matrix(1 0 0 -0.9107 -258 -250.5254)">
				<stop  offset="0" style="stop-color:#000000"/>
				<stop  offset="0.5" style="stop-color:#656565"/>
				<stop  offset="1" style="stop-color:#000000"/>
			</linearGradient>
			<rect id="rect5906_13_" x="69.561" y="60.328" fill="url(#rect5906_6_)" width="12" height="1.821"/>
			<rect id="rect5918_13_" x="67.561" y="57.256" fill="#545454" width="1" height="5"/>
			<rect id="rect5920_13_" x="82.561" y="57.256" fill="#545454" width="1" height="5"/>
		</g>
	</g>
	<g>
		
			<linearGradient id="path6049_6_" gradientUnits="userSpaceOnUse" x1="304.4268" y1="286.6367" x2="310.9449" y2="286.6367" gradientTransform="matrix(0 1.2347 1.2347 0 -278.0412 -347.7941)">
			<stop  offset="0" style="stop-color:#000000;stop-opacity:0.4263"/>
			<stop  offset="1" style="stop-color:#FFFFFF;stop-opacity:0.3171"/>
		</linearGradient>
		<path id="path6049_4_" fill="url(#path6049_6_)" d="M75.87,36.13c-2.97,0-5.378-2.407-5.378-5.378c0-2.97,2.408-5.378,5.378-5.378
			c2.971,0,5.378,2.408,5.378,5.378C81.248,33.723,78.841,36.13,75.87,36.13z"/>
		<path id="path5936_4_" fill="#C6C6C6" stroke="#000000" stroke-width="1.1313" stroke-linecap="square" d="M79.72,30.752
			c0,2.127-1.723,3.85-3.85,3.85s-3.85-1.723-3.85-3.85s1.723-3.85,3.85-3.85S79.72,28.625,79.72,30.752z"/>
		<linearGradient id="path6067_6_" gradientUnits="userSpaceOnUse" x1="73.1201" y1="30.752" x2="78.6201" y2="30.752">
			<stop  offset="0" style="stop-color:#FFFFFF"/>
			<stop  offset="1" style="stop-color:#7C7C7C"/>
		</linearGradient>
		<path id="path6067_4_" fill="url(#path6067_6_)" d="M75.87,33.502c-1.519,0-2.75-1.231-2.75-2.75s1.231-2.75,2.75-2.75
			s2.75,1.231,2.75,2.75S77.389,33.502,75.87,33.502z"/>
		<g opacity="0.4263" enable-background="new    ">
			<path d="M77.072,29.592c-0.104-0.102-0.268-0.102-0.371,0c-0.102,0.103-0.102,0.269,0,0.372l0,0
				c0.235,0.233,0.352,0.54,0.352,0.849c0,0.307-0.116,0.612-0.352,0.848c-0.234,0.234-0.54,0.352-0.849,0.352
				c-0.308,0-0.614-0.117-0.849-0.352c-0.234-0.235-0.351-0.541-0.351-0.848c0-0.309,0.116-0.615,0.351-0.849
				c0.103-0.104,0.103-0.27,0-0.372c-0.103-0.102-0.269-0.102-0.37,0c-0.336,0.336-0.506,0.779-0.505,1.221
				c-0.001,0.439,0.169,0.882,0.505,1.219c0.335,0.335,0.778,0.504,1.219,0.504h0.002c0.438,0,0.883-0.169,1.218-0.504
				c0.336-0.337,0.506-0.779,0.505-1.219C77.578,30.371,77.408,29.928,77.072,29.592z"/>
			<path d="M75.853,31.074c0.146,0,0.263-0.118,0.263-0.262v-1.583c0-0.145-0.117-0.262-0.263-0.262
				c-0.145,0-0.262,0.117-0.262,0.262v1.583C75.591,30.956,75.708,31.074,75.853,31.074z"/>
		</g>
	</g>
</g>
<path opacity="0.3" d="M85.5,80h-75c-1.654,0-3-1.346-3-3v3c0,1.654,1.346,3,3,3h75c1.654,0,3-1.346,3-3v-3
	C88.5,78.654,87.154,80,85.5,80z"/>
</svg>
