<?xml version="1.0" encoding="utf-8"?>
<!-- Generator: Adobe Illustrator 14.0.0, SVG Export Plug-In . SVG Version: 6.00 Build 43363)  -->
<!DOCTYPE svg PUBLIC "-//W3C//DTD SVG 1.1//EN" "http://www.w3.org/Graphics/SVG/1.1/DTD/svg11.dtd">
<svg version="1.1"
	 id="svg2408" xmlns:dc="http://purl.org/dc/elements/1.1/" xmlns:svg="http://www.w3.org/2000/svg" xmlns:cc="http://creativecommons.org/ns#" xmlns:rdf="http://www.w3.org/1999/02/22-rdf-syntax-ns#" xmlns:inkscape="http://www.inkscape.org/namespaces/inkscape"
	 xmlns="http://www.w3.org/2000/svg" xmlns:xlink="http://www.w3.org/1999/xlink" x="0px" y="0px" width="96px" height="96px"
	 viewBox="0 0 96 96" enable-background="new 0 0 96 96" xml:space="preserve">
<g>
	
		<linearGradient id="SVGID_1_" gradientUnits="userSpaceOnUse" x1="8" y1="-48" x2="100" y2="-48" gradientTransform="matrix(1 0 0 -1 -6 0)">
		<stop  offset="0" style="stop-color:#000000"/>
		<stop  offset="1" style="stop-color:#000000;stop-opacity:0.5882"/>
	</linearGradient>
	<path opacity="0.08" fill="url(#SVGID_1_)" enable-background="new    " d="M10.5,93C5.813,93,2,89.188,2,84.5v-73
		C2,6.813,5.813,3,10.5,3h75c4.145,0,7.786,3.007,8.5,7v74.5c0,4.688-3.813,8.5-8.5,8.5H10.5z"/>
	
		<linearGradient id="SVGID_2_" gradientUnits="userSpaceOnUse" x1="9" y1="-48" x2="99" y2="-48" gradientTransform="matrix(1 0 0 -1 -6 0)">
		<stop  offset="0" style="stop-color:#000000"/>
		<stop  offset="1" style="stop-color:#000000;stop-opacity:0.5882"/>
	</linearGradient>
	<path opacity="0.1" fill="url(#SVGID_2_)" enable-background="new    " d="M10.5,92C6.364,92,3,88.636,3,84.5v-73
		C3,7.364,6.364,4,10.5,4h75c3.968,0,7.242,3.097,7.5,7v73.5c0,4.136-3.363,7.5-7.5,7.5H10.5z"/>
	
		<linearGradient id="SVGID_3_" gradientUnits="userSpaceOnUse" x1="10" y1="-48" x2="98" y2="-48" gradientTransform="matrix(1 0 0 -1 -6 0)">
		<stop  offset="0" style="stop-color:#000000"/>
		<stop  offset="1" style="stop-color:#000000;stop-opacity:0.5882"/>
	</linearGradient>
	<path opacity="0.2" fill="url(#SVGID_3_)" enable-background="new    " d="M10.5,91C6.916,91,4,88.084,4,84.5v-73
		C4,7.916,6.916,5,10.5,5h75c3.584,0,6.5,2.916,6.5,6.5v73c0,3.584-2.916,6.5-6.5,6.5H10.5z"/>
	
		<linearGradient id="SVGID_4_" gradientUnits="userSpaceOnUse" x1="54" y1="-8" x2="54" y2="-90.4195" gradientTransform="matrix(1 0 0 -1 -6 0)">
		<stop  offset="0" style="stop-color:#000000"/>
		<stop  offset="1" style="stop-color:#000000;stop-opacity:0.5882"/>
	</linearGradient>
	<path opacity="0.45" fill="url(#SVGID_4_)" enable-background="new    " d="M90,12.5c0-2.484-2.016-4.5-4.5-4.5h-75
		C8.015,8,6,10.016,6,12.5v18V63v22.5c0,2.486,2.015,4.5,4.5,4.5h75c2.484,0,4.5-2.014,4.5-4.5V12.5z"/>
</g>
<g>
	<g>
		
			<linearGradient id="SVGID_5_" gradientUnits="userSpaceOnUse" x1="8" y1="-48" x2="100" y2="-48" gradientTransform="matrix(1 0 0 -1 -6 0)">
			<stop  offset="0" style="stop-color:#000000"/>
			<stop  offset="1" style="stop-color:#000000;stop-opacity:0.5882"/>
		</linearGradient>
		<path opacity="0.08" fill="url(#SVGID_5_)" enable-background="new    " d="M10.5,93C5.813,93,2,89.188,2,84.5v-73
			C2,6.813,5.813,3,10.5,3h75c4.145,0,7.786,3.007,8.5,7v74.5c0,4.688-3.813,8.5-8.5,8.5H10.5z"/>
		
			<linearGradient id="SVGID_6_" gradientUnits="userSpaceOnUse" x1="9" y1="-48" x2="99" y2="-48" gradientTransform="matrix(1 0 0 -1 -6 0)">
			<stop  offset="0" style="stop-color:#000000"/>
			<stop  offset="1" style="stop-color:#000000;stop-opacity:0.5882"/>
		</linearGradient>
		<path opacity="0.1" fill="url(#SVGID_6_)" enable-background="new    " d="M10.5,92C6.364,92,3,88.636,3,84.5v-73
			C3,7.364,6.364,4,10.5,4h75c3.968,0,7.242,3.097,7.5,7v73.5c0,4.136-3.363,7.5-7.5,7.5H10.5z"/>
		
			<linearGradient id="SVGID_7_" gradientUnits="userSpaceOnUse" x1="10" y1="-48" x2="98" y2="-48" gradientTransform="matrix(1 0 0 -1 -6 0)">
			<stop  offset="0" style="stop-color:#000000"/>
			<stop  offset="1" style="stop-color:#000000;stop-opacity:0.5882"/>
		</linearGradient>
		<path opacity="0.2" fill="url(#SVGID_7_)" enable-background="new    " d="M10.5,91C6.916,91,4,88.084,4,84.5v-73
			C4,7.916,6.916,5,10.5,5h75c3.584,0,6.5,2.916,6.5,6.5v73c0,3.584-2.916,6.5-6.5,6.5H10.5z"/>
		
			<linearGradient id="SVGID_8_" gradientUnits="userSpaceOnUse" x1="54" y1="-8" x2="54" y2="-90.4195" gradientTransform="matrix(1 0 0 -1 -6 0)">
			<stop  offset="0" style="stop-color:#000000"/>
			<stop  offset="1" style="stop-color:#000000;stop-opacity:0.5882"/>
		</linearGradient>
		<path opacity="0.45" fill="url(#SVGID_8_)" enable-background="new    " d="M90,12.5c0-2.484-2.016-4.5-4.5-4.5h-75
			C8.015,8,6,10.016,6,12.5v18V63v22.5c0,2.486,2.015,4.5,4.5,4.5h75c2.484,0,4.5-2.014,4.5-4.5V12.5z"/>
	</g>
	<g>
		<path fill="#3F5050" d="M90,84.5c0,2.486-2.016,4.5-4.5,4.5h-75C8.015,89,6,86.986,6,84.5v-57c0-2.484,2.015-4.5,4.5-4.5h75
			c2.484,0,4.5,2.016,4.5,4.5V84.5z"/>
	</g>
	
		<linearGradient id="SVGID_9_" gradientUnits="userSpaceOnUse" x1="54" y1="-84.5" x2="54" y2="-5" gradientTransform="matrix(1 0 0 -1 -6 0)">
		<stop  offset="0" style="stop-color:#B6CCCC"/>
		<stop  offset="1" style="stop-color:#D7E0E0"/>
	</linearGradient>
	<path fill="url(#SVGID_9_)" d="M90,80c0,2.486-2.016,4.5-4.5,4.5h-75C8.015,84.5,6,82.486,6,80V9.5C6,7.016,8.015,5,10.5,5h75
		C87.984,5,90,7.016,90,9.5V80z"/>
	
		<linearGradient id="SVGID_10_" gradientUnits="userSpaceOnUse" x1="54" y1="-83" x2="54" y2="-6.5" gradientTransform="matrix(1 0 0 -1 -6 0)">
		<stop  offset="0" style="stop-color:#A5BCBC"/>
		<stop  offset="1" style="stop-color:#BFCFCF"/>
	</linearGradient>
	<path fill="url(#SVGID_10_)" d="M10.5,83c-1.654,0-3-1.346-3-3V9.5c0-1.654,1.346-3,3-3h75c1.654,0,3,1.346,3,3V80
		c0,1.654-1.346,3-3,3H10.5z"/>
	<g opacity="0.2">
		
			<radialGradient id="SVGID_11_" cx="51.666" cy="-47" r="255.6427" gradientTransform="matrix(1 0 0 -1 -6 0)" gradientUnits="userSpaceOnUse">
			<stop  offset="0" style="stop-color:#FFFFFF"/>
			<stop  offset="1" style="stop-color:#FFFFFF;stop-opacity:0"/>
		</radialGradient>
		<polygon fill="url(#SVGID_11_)" points="22.984,83 32.59,83 88.5,27.091 88.5,17.485 		"/>
		
			<radialGradient id="SVGID_12_" cx="51.666" cy="-47" r="255.6422" gradientTransform="matrix(1 0 0 -1 -6 0)" gradientUnits="userSpaceOnUse">
			<stop  offset="0" style="stop-color:#FFFFFF"/>
			<stop  offset="1" style="stop-color:#FFFFFF;stop-opacity:0"/>
		</radialGradient>
		<polygon fill="url(#SVGID_12_)" points="43.738,6.5 7.5,42.738 7.5,52.344 53.344,6.5 		"/>
		
			<radialGradient id="SVGID_13_" cx="51.666" cy="-47" r="255.644" gradientTransform="matrix(1 0 0 -1 -6 0)" gradientUnits="userSpaceOnUse">
			<stop  offset="0" style="stop-color:#FFFFFF"/>
			<stop  offset="1" style="stop-color:#FFFFFF;stop-opacity:0"/>
		</radialGradient>
		<polygon fill="url(#SVGID_13_)" points="62.32,6.5 7.5,61.32 7.5,70.926 71.926,6.5 		"/>
		
			<radialGradient id="SVGID_14_" cx="51.666" cy="-47" r="255.6455" gradientTransform="matrix(1 0 0 -1 -6 0)" gradientUnits="userSpaceOnUse">
			<stop  offset="0" style="stop-color:#FFFFFF"/>
			<stop  offset="1" style="stop-color:#FFFFFF;stop-opacity:0"/>
		</radialGradient>
		<polygon fill="url(#SVGID_14_)" points="51.173,83 88.5,45.673 88.5,36.068 41.567,83 		"/>
		
			<radialGradient id="SVGID_15_" cx="51.666" cy="-47" r="255.6449" gradientTransform="matrix(1 0 0 -1 -6 0)" gradientUnits="userSpaceOnUse">
			<stop  offset="0" style="stop-color:#FFFFFF"/>
			<stop  offset="1" style="stop-color:#FFFFFF;stop-opacity:0"/>
		</radialGradient>
		<polygon fill="url(#SVGID_15_)" points="69.755,83 88.5,64.255 88.5,54.65 60.148,83 		"/>
		
			<radialGradient id="SVGID_16_" cx="51.665" cy="-47" r="255.6484" gradientTransform="matrix(1 0 0 -1 -6 0)" gradientUnits="userSpaceOnUse">
			<stop  offset="0" style="stop-color:#FFFFFF"/>
			<stop  offset="1" style="stop-color:#FFFFFF;stop-opacity:0"/>
		</radialGradient>
		<path fill="url(#SVGID_16_)" d="M85.5,83c1.654,0,3-1.348,3-3v-6.77L78.73,83H85.5z"/>
		
			<radialGradient id="SVGID_17_" cx="51.666" cy="-47" r="255.645" gradientTransform="matrix(1 0 0 -1 -6 0)" gradientUnits="userSpaceOnUse">
			<stop  offset="0" style="stop-color:#FFFFFF"/>
			<stop  offset="1" style="stop-color:#FFFFFF;stop-opacity:0"/>
		</radialGradient>
		<path fill="url(#SVGID_17_)" d="M10.5,83h3.508L88.361,8.647C87.991,7.41,86.855,6.5,85.5,6.5h-4.598L7.5,79.902V80
			C7.5,81.652,8.845,83,10.5,83z"/>
		
			<radialGradient id="SVGID_18_" cx="51.667" cy="-47" r="255.6434" gradientTransform="matrix(1 0 0 -1 -6 0)" gradientUnits="userSpaceOnUse">
			<stop  offset="0" style="stop-color:#FFFFFF"/>
			<stop  offset="1" style="stop-color:#FFFFFF;stop-opacity:0"/>
		</radialGradient>
		<path fill="url(#SVGID_18_)" d="M10.5,6.5c-1.654,0-3,1.346-3,3v5.576L16.076,6.5H10.5z"/>
		
			<radialGradient id="SVGID_19_" cx="51.666" cy="-47" r="255.6406" gradientTransform="matrix(1 0 0 -1 -6 0)" gradientUnits="userSpaceOnUse">
			<stop  offset="0" style="stop-color:#FFFFFF"/>
			<stop  offset="1" style="stop-color:#FFFFFF;stop-opacity:0"/>
		</radialGradient>
		<polygon fill="url(#SVGID_19_)" points="25.053,6.5 7.5,24.053 7.5,33.658 34.658,6.5 		"/>
	</g>
</g>
<path opacity="0.2" fill="#FFFFFF" enable-background="new    " d="M11.941,81.387c-1.551,0-2.812-1.262-2.812-2.812V48.381
	c0-1.55,1.261-2.812,2.812-2.812h11.932v-1.391h-4.385c-1.97,0-3.572-1.602-3.572-3.571v-2.719h-4.714
	c-1.594,0-2.892-1.297-2.892-2.892V11.555c0-1.594,1.297-2.892,2.892-2.892h30.765c1.594,0,2.892,1.297,2.892,2.892v9.857h17.763
	c0.362-0.34,0.842-0.537,1.351-0.537h6.963c1.309,0,2.258,0.967,2.258,2.299v6.963c0,0.355-0.096,0.701-0.275,1.005v14.495h11.979
	c1.597,0,2.894,1.298,2.894,2.895v23.474c0,1.598-1.297,2.896-2.894,2.896h-4.723v2.726c0,1.972-1.604,3.573-3.574,3.573H62.383
	c-1.973,0-3.576-1.604-3.576-3.573V74.9h-4.723c-1.596,0-2.895-1.299-2.895-2.896v-6.109h-6.243v12.681
	c0,1.55-1.262,2.812-2.813,2.812H11.941L11.941,81.387z M51.189,60.47V48.531c0-1.596,1.299-2.896,2.895-2.896H67.49V31.458
	c-0.328-0.359-0.512-0.823-0.512-1.32v-3.049h-3.008c-0.334,0-0.658-0.085-0.951-0.25H44.858v8.158c0,1.595-1.298,2.892-2.892,2.892
	h-4.714v2.719c0,1.969-1.602,3.571-3.571,3.571h-4.384v1.391h12.836c1.551,0,2.813,1.261,2.813,2.812V60.47H51.189z"/>
<g>
	<g>
		
			<linearGradient id="SVGID_20_" gradientUnits="userSpaceOnUse" x1="30.873" y1="-44.8745" x2="34.2979" y2="-44.8745" gradientTransform="matrix(1 0 0 -1 -6 0)">
			<stop  offset="0" style="stop-color:#333333"/>
			<stop  offset="0.2485" style="stop-color:#DEDEDE"/>
			<stop  offset="0.406" style="stop-color:#DCDCDC"/>
			<stop  offset="0.4809" style="stop-color:#D4D4D4"/>
			<stop  offset="0.5384" style="stop-color:#C7C7C7"/>
			<stop  offset="0.5869" style="stop-color:#B5B5B5"/>
			<stop  offset="0.6299" style="stop-color:#9D9D9D"/>
			<stop  offset="0.6683" style="stop-color:#808080"/>
			<stop  offset="0.703" style="stop-color:#5E5E5E"/>
			<stop  offset="0.7063" style="stop-color:#616161"/>
			<stop  offset="0.7579" style="stop-color:#8B8B8B"/>
			<stop  offset="0.8082" style="stop-color:#ACACAC"/>
			<stop  offset="0.8562" style="stop-color:#C3C3C3"/>
			<stop  offset="0.901" style="stop-color:#D1D1D1"/>
			<stop  offset="0.9394" style="stop-color:#D6D6D6"/>
			<stop  offset="1" style="stop-color:#262626"/>
		</linearGradient>
		<rect x="24.873" y="43.179" fill="url(#SVGID_20_)" width="3.425" height="3.391"/>
		
			<linearGradient id="SVGID_21_" gradientUnits="userSpaceOnUse" x1="74.4902" y1="-34.5244" x2="77.916" y2="-34.5244" gradientTransform="matrix(1 0 0 -1 -6 0)">
			<stop  offset="0" style="stop-color:#404040"/>
			<stop  offset="0.2485" style="stop-color:#DEDEDE"/>
			<stop  offset="0.406" style="stop-color:#DCDCDC"/>
			<stop  offset="0.4809" style="stop-color:#D4D4D4"/>
			<stop  offset="0.5384" style="stop-color:#C7C7C7"/>
			<stop  offset="0.5869" style="stop-color:#B5B5B5"/>
			<stop  offset="0.6299" style="stop-color:#9D9D9D"/>
			<stop  offset="0.6683" style="stop-color:#808080"/>
			<stop  offset="0.703" style="stop-color:#5E5E5E"/>
			<stop  offset="0.7063" style="stop-color:#616161"/>
			<stop  offset="0.7579" style="stop-color:#8B8B8B"/>
			<stop  offset="0.8082" style="stop-color:#ACACAC"/>
			<stop  offset="0.8562" style="stop-color:#C3C3C3"/>
			<stop  offset="0.901" style="stop-color:#D1D1D1"/>
			<stop  offset="0.9394" style="stop-color:#D6D6D6"/>
			<stop  offset="1" style="stop-color:#1A1A1A"/>
		</linearGradient>
		<rect x="68.49" y="22.412" fill="url(#SVGID_21_)" width="3.426" height="24.225"/>
		
			<linearGradient id="SVGID_22_" gradientUnits="userSpaceOnUse" x1="-519.2129" y1="14.5156" x2="-515.7871" y2="14.5156" gradientTransform="matrix(0 -1 -1 0 71.2588 -493.375)">
			<stop  offset="0" style="stop-color:#333333"/>
			<stop  offset="0.0606" style="stop-color:#D6D6D6"/>
			<stop  offset="0.099" style="stop-color:#D1D1D1"/>
			<stop  offset="0.1438" style="stop-color:#C3C3C3"/>
			<stop  offset="0.1918" style="stop-color:#ACACAC"/>
			<stop  offset="0.2421" style="stop-color:#8B8B8B"/>
			<stop  offset="0.2937" style="stop-color:#616161"/>
			<stop  offset="0.297" style="stop-color:#5E5E5E"/>
			<stop  offset="0.3317" style="stop-color:#808080"/>
			<stop  offset="0.3701" style="stop-color:#9D9D9D"/>
			<stop  offset="0.4131" style="stop-color:#B5B5B5"/>
			<stop  offset="0.4616" style="stop-color:#C7C7C7"/>
			<stop  offset="0.5191" style="stop-color:#D4D4D4"/>
			<stop  offset="0.594" style="stop-color:#DCDCDC"/>
			<stop  offset="0.7515" style="stop-color:#DEDEDE"/>
			<stop  offset="1" style="stop-color:#404040"/>
		</linearGradient>
		<rect x="43.858" y="22.412" fill="url(#SVGID_22_)" width="25.771" height="3.426"/>
	</g>
	<g>
		<g>
			<path fill="#1A1A1A" d="M36.253,40.607c0,1.42-1.151,2.571-2.571,2.571H19.488c-1.421,0-2.572-1.151-2.572-2.571v-9.975
				c0-1.42,1.151-2.572,2.572-2.572h14.194c1.42,0,2.571,1.152,2.571,2.572V40.607z"/>
			
				<linearGradient id="SVGID_23_" gradientUnits="userSpaceOnUse" x1="32.5845" y1="-41.7119" x2="32.5845" y2="-26.5938" gradientTransform="matrix(1 0 0 -1 -6 0)">
				<stop  offset="0" style="stop-color:#333333"/>
				<stop  offset="1" style="stop-color:#191919"/>
			</linearGradient>
			<path fill="url(#SVGID_23_)" d="M36.253,39.141c0,1.42-1.151,2.571-2.571,2.571H19.488c-1.421,0-2.572-1.151-2.572-2.571v-9.976
				c0-1.419,1.151-2.571,2.572-2.571h14.194c1.42,0,2.571,1.152,2.571,2.571V39.141z"/>
			
				<linearGradient id="SVGID_24_" gradientUnits="userSpaceOnUse" x1="32.5845" y1="-41.7119" x2="32.5845" y2="-26.5938" gradientTransform="matrix(1 0 0 -1 -6 0)">
				<stop  offset="0" style="stop-color:#FFFFFF;stop-opacity:0"/>
				<stop  offset="1" style="stop-color:#FFFFFF"/>
			</linearGradient>
			<path opacity="0.2" fill="url(#SVGID_24_)" enable-background="new    " d="M36.253,39.141c0,1.42-1.151,2.571-2.571,2.571
				H19.488c-1.421,0-2.572-1.151-2.572-2.571v-9.976c0-1.419,1.151-2.571,2.572-2.571h14.194c1.42,0,2.571,1.152,2.571,2.571V39.141
				z"/>
			
				<linearGradient id="SVGID_25_" gradientUnits="userSpaceOnUse" x1="32.5845" y1="-41.7119" x2="32.5845" y2="-26.5938" gradientTransform="matrix(1 0 0 -1 -6 0)">
				<stop  offset="0.2019" style="stop-color:#000000;stop-opacity:0"/>
				<stop  offset="0.396" style="stop-color:#000000"/>
			</linearGradient>
			<path opacity="0.7" fill="url(#SVGID_25_)" enable-background="new    " d="M36.253,39.141c0,1.42-1.151,2.571-2.571,2.571
				H19.488c-1.421,0-2.572-1.151-2.572-2.571v-9.976c0-1.419,1.151-2.571,2.572-2.571h14.194c1.42,0,2.571,1.152,2.571,2.571V39.141
				z"/>
			<g>
				
					<linearGradient id="SVGID_26_" gradientUnits="userSpaceOnUse" x1="32.5845" y1="-9.6631" x2="32.5845" y2="-57.0671" gradientTransform="matrix(1 0 0 -1 -6 0)">
					<stop  offset="0" style="stop-color:#595959"/>
					<stop  offset="1" style="stop-color:#333333"/>
				</linearGradient>
				<path fill="url(#SVGID_26_)" d="M43.858,34.996c0,1.045-0.848,1.892-1.892,1.892H11.202c-1.045,0-1.892-0.847-1.892-1.892
					V11.555c0-1.044,0.847-1.892,1.892-1.892h30.765c1.044,0,1.892,0.847,1.892,1.892L43.858,34.996L43.858,34.996z"/>
				
					<linearGradient id="SVGID_27_" gradientUnits="userSpaceOnUse" x1="32.5845" y1="-10.083" x2="32.5845" y2="-36.6026" gradientTransform="matrix(1 0 0 -1 -6 0)">
					<stop  offset="0" style="stop-color:#3C3C3C"/>
					<stop  offset="1" style="stop-color:#191919"/>
				</linearGradient>
				<path fill="url(#SVGID_27_)" d="M11.202,36.468c-0.812,0-1.471-0.661-1.471-1.472V11.555c0-0.811,0.66-1.472,1.471-1.472h30.765
					c0.812,0,1.471,0.661,1.471,1.472v23.441c0,0.812-0.66,1.472-1.471,1.472H11.202z"/>
				<path fill="#1A1A1A" d="M12.798,34.366c-0.763,0-1.387-0.624-1.387-1.386V13.151c0-0.762,0.624-1.386,1.387-1.386h27.151
					c0.763,0,1.387,0.624,1.387,1.386v19.828c0,0.763-0.624,1.386-1.387,1.386L12.798,34.366L12.798,34.366z"/>
				<path fill="#4D4D4D" d="M13.218,34.786c-0.762,0-1.386-0.624-1.386-1.387V13.572c0-0.763,0.624-1.386,1.386-1.386h27.187
					c0.762,0,1.386,0.623,1.386,1.386v19.827c0,0.763-0.624,1.387-1.386,1.387H13.218z"/>
				<g>
					<g>
						
							<linearGradient id="SVGID_28_" gradientUnits="userSpaceOnUse" x1="32.584" y1="-12.186" x2="32.584" y2="-34.4781" gradientTransform="matrix(1 0 0 -1 -6 0)">
							<stop  offset="0" style="stop-color:#74D1FF"/>
							<stop  offset="1" style="stop-color:#19A1E6"/>
						</linearGradient>
						<path fill="url(#SVGID_28_)" d="M13.218,34.366c-0.762,0-1.386-0.624-1.386-1.386V13.572c0-0.763,0.624-1.386,1.386-1.386
							h26.731c0.763,0,1.387,0.623,1.387,1.386v19.407c0,0.763-0.624,1.386-1.387,1.386L13.218,34.366L13.218,34.366z"/>
					</g>
					<g>
						
							<linearGradient id="SVGID_29_" gradientUnits="userSpaceOnUse" x1="32.584" y1="-12.6069" x2="32.584" y2="-34.0544" gradientTransform="matrix(1 0 0 -1 -6 0)">
							<stop  offset="0" style="stop-color:#6DC4EF"/>
							<stop  offset="1" style="stop-color:#1793D1"/>
						</linearGradient>
						<path fill="url(#SVGID_29_)" d="M13.638,33.945c-0.762,0-1.385-0.624-1.385-1.386V13.993c0-0.762,0.624-1.386,1.385-1.386
							h25.891c0.763,0,1.386,0.624,1.386,1.386v18.566c0,0.762-0.624,1.386-1.386,1.386H13.638z"/>
					</g>
					
						<radialGradient id="SVGID_30_" cx="32.0952" cy="-300.9277" r="12.6337" gradientTransform="matrix(1 0 0 -0.5658 -6 -136.3951)" gradientUnits="userSpaceOnUse">
						<stop  offset="0" style="stop-color:#00FFFF"/>
						<stop  offset="1" style="stop-color:#00FFFF;stop-opacity:0"/>
					</radialGradient>
					<path fill="url(#SVGID_30_)" d="M13.638,33.945c-0.762,0-1.385-0.624-1.385-1.386V13.993c0-0.762,0.624-1.386,1.385-1.386
						h25.891c0.763,0,1.386,0.624,1.386,1.386v18.566c0,0.762-0.624,1.386-1.386,1.386H13.638z"/>
					
						<radialGradient id="SVGID_31_" cx="26.0654" cy="-279.8223" r="17.4791" gradientTransform="matrix(1 0 0 -0.5658 -6 -145.5592)" gradientUnits="userSpaceOnUse">
						<stop  offset="0" style="stop-color:#00FFFF"/>
						<stop  offset="1" style="stop-color:#00FFFF;stop-opacity:0"/>
					</radialGradient>
					<path opacity="0.65" fill="url(#SVGID_31_)" enable-background="new    " d="M13.638,33.945c-0.762,0-1.385-0.624-1.385-1.386
						V13.993c0-0.762,0.624-1.386,1.385-1.386h25.891c0.763,0,1.386,0.624,1.386,1.386v18.566c0,0.762-0.624,1.386-1.386,1.386
						H13.638z"/>
					<g>
						<g>
							<defs>
								<path id="SVGID_32_" d="M13.218,34.366c-0.762,0-1.386-0.624-1.386-1.386V13.572c0-0.763,0.624-1.386,1.386-1.386h26.731
									c0.763,0,1.387,0.623,1.387,1.386v19.407c0,0.763-0.624,1.386-1.387,1.386L13.218,34.366L13.218,34.366z"/>
							</defs>
							<clipPath id="SVGID_33_">
								<use xlink:href="#SVGID_32_"  overflow="visible"/>
							</clipPath>
							<g id="path3698_7_" inkscape:connector-curvature="0" opacity="0.2" clip-path="url(#SVGID_33_)">
								
									<linearGradient id="SVGID_34_" gradientUnits="userSpaceOnUse" x1="72.416" y1="45.4355" x2="92.8276" y2="19.0348" gradientTransform="matrix(0.9828 0.1849 0.1849 -0.9828 -69.8711 36.1968)">
									<stop  offset="0" style="stop-color:#FFFFFF"/>
									<stop  offset="1" style="stop-color:#FFFFFF;stop-opacity:0"/>
								</linearGradient>
								<path fill="url(#SVGID_34_)" d="M-6.994,36.988c-0.167-4.043-0.103-8.053,0.186-12.009c4.645,0.87,9.229,1.17,13.657,0.975
									c1.148,3.645,2.607,7.267,4.378,10.825C5.399,37.615-0.727,37.728-6.994,36.988L-6.994,36.988 M13.254,36.457
									c-1.932-3.468-3.549-7.013-4.846-10.594c3.913-0.278,7.695-0.944,11.295-1.948c2.281,2.944,4.909,5.752,7.867,8.365
									C23.092,34.158,18.292,35.579,13.254,36.457L13.254,36.457 M29.132,31.6c-3.055-2.495-5.781-5.201-8.16-8.054
									c3.188-0.97,6.222-2.207,9.074-3.671c2.99,2.098,6.312,3.952,9.93,5.489C36.646,27.752,33.017,29.85,29.132,31.6
									L29.132,31.6 M41.141,24.509c-3.666-1.416-7.042-3.163-10.089-5.165c2.531-1.37,4.91-2.923,7.119-4.633
									c3.375,1.238,7.035,2.14,10.929,2.623C46.699,19.922,44.039,22.328,41.141,24.509L41.141,24.509 M-6.721,23.871
									c0.24-2.862,0.598-5.695,1.072-8.491c3.469,0.853,6.915,1.322,10.28,1.45c0.464,2.696,1.098,5.398,1.901,8.09
									C2.229,25.07-2.218,24.743-6.721,23.871L-6.721,23.871 M8.049,24.846c-0.914-2.65-1.654-5.317-2.221-7.984
									c3.027,0.043,5.985-0.188,8.837-0.665c1.268,2.347,2.733,4.646,4.395,6.873C15.546,24.004,11.859,24.612,8.049,24.846
									L8.049,24.846 M20.3,22.726c-1.738-2.165-3.278-4.41-4.62-6.708c2.571-0.485,5.05-1.17,7.417-2.032
									c1.83,1.875,3.865,3.645,6.092,5.278C26.392,20.652,23.419,21.818,20.3,22.726L20.3,22.726 M30.181,18.759
									c-2.277-1.563-4.36-3.271-6.239-5.09c2.138-0.825,4.179-1.794,6.111-2.892c2.196,1.359,4.583,2.56,7.145,3.565
									C35.015,15.977,32.67,17.457,30.181,18.759L30.181,18.759 M-5.509,14.575c0.377-2.115,0.821-4.208,1.33-6.276
									c2.68,0.781,5.353,1.293,7.984,1.563c0.133,2.053,0.366,4.118,0.697,6.187C1.222,15.9-2.132,15.422-5.509,14.575
									L-5.509,14.575 M5.669,16.088c-0.41-2.051-0.717-4.1-0.923-6.14c2.398,0.193,4.757,0.186,7.053-0.004
									c0.713,1.875,1.548,3.734,2.504,5.566C11.513,15.951,8.624,16.152,5.669,16.088L5.669,16.088 M15.295,15.344
									c-1.014-1.798-1.905-3.627-2.674-5.475c2.096-0.214,4.137-0.58,6.107-1.082c1.15,1.6,2.43,3.154,3.839,4.645
									C20.243,14.248,17.812,14.893,15.295,15.344L15.295,15.344 M23.395,13.131c-1.449-1.449-2.771-2.966-3.961-4.532
									c1.799-0.494,3.538-1.102,5.204-1.813c1.463,1.28,3.056,2.481,4.772,3.586C27.504,11.422,25.496,12.348,23.395,13.131
									L23.395,13.131 M-4.028,7.693c0.41-1.619,0.86-3.221,1.351-4.806c2.127,0.698,4.255,1.202,6.359,1.526
									C3.65,6.017,3.678,7.633,3.769,9.257C1.199,8.979-1.411,8.466-4.028,7.693L-4.028,7.693 M4.688,9.347
									c-0.147-1.616-0.23-3.226-0.25-4.825c1.938,0.261,3.854,0.37,5.732,0.34c0.396,1.514,0.87,3.024,1.42,4.526
									C9.342,9.558,7.034,9.55,4.688,9.347L4.688,9.347 M12.396,9.32c-0.596-1.483-1.113-2.976-1.55-4.474
									c1.731-0.058,3.427-0.233,5.077-0.516c0.736,1.35,1.558,2.679,2.465,3.978C16.454,8.784,14.451,9.126,12.396,9.32
									L12.396,9.32 M19.082,8.131c-0.941-1.273-1.796-2.579-2.564-3.908c1.522-0.286,3.004-0.665,4.437-1.127
									c0.995,1.145,2.079,2.25,3.25,3.305C22.562,7.083,20.852,7.663,19.082,8.131L19.082,8.131"/>
							</g>
						</g>
					</g>
					
						<linearGradient id="SVGID_35_" gradientUnits="userSpaceOnUse" x1="28.2148" y1="-8.3394" x2="26.2591" y2="-37.1867" gradientTransform="matrix(1 0 0 -1 -6 0)">
						<stop  offset="0" style="stop-color:#FFFFFF"/>
						<stop  offset="1" style="stop-color:#FFFFFF;stop-opacity:0"/>
					</linearGradient>
					<path opacity="0.4" fill="url(#SVGID_35_)" enable-background="new    " d="M34.366,10.083H11.202
						c-0.812,0-1.471,0.661-1.471,1.472v23.441c0,0.812,0.66,1.472,1.471,1.472h12.411C21.736,17.502,34.366,10.083,34.366,10.083z"
						/>
				</g>
			</g>
			<g>
				
					<linearGradient id="SVGID_36_" gradientUnits="userSpaceOnUse" x1="38.9619" y1="-37.4023" x2="38.9619" y2="-40.9547" gradientTransform="matrix(1 0 0 -1 -6 0)">
					<stop  offset="0" style="stop-color:#000000"/>
					<stop  offset="1" style="stop-color:#808080"/>
				</linearGradient>
				<path fill="url(#SVGID_36_)" d="M32.962,40.841c-0.934,0-1.692-0.759-1.692-1.693c0-0.933,0.759-1.692,1.692-1.692
					s1.692,0.759,1.692,1.692C34.655,40.082,33.896,40.841,32.962,40.841L32.962,40.841z"/>
				
					<radialGradient id="SVGID_37_" cx="129.0273" cy="538.375" r="1.8334" gradientTransform="matrix(1.833002e-004 1 1.1286 -2.068652e-004 -574.6565 -90.7451)" gradientUnits="userSpaceOnUse">
					<stop  offset="0" style="stop-color:#B0FF04"/>
					<stop  offset="0.5636" style="stop-color:#5AC306"/>
					<stop  offset="0.7394" style="stop-color:#13A400"/>
				</radialGradient>
				<circle fill="url(#SVGID_37_)" cx="32.962" cy="39.148" r="1.117"/>
			</g>
		</g>
	</g>
	<g>
		<g>
			<path fill="#1A1A1A" d="M79.172,77.626c0,1.42-1.152,2.573-2.574,2.573H62.383c-1.424,0-2.576-1.153-2.576-2.573v-9.99
				c0-1.423,1.152-2.575,2.576-2.575h14.215c1.422,0,2.574,1.152,2.574,2.575V77.626z"/>
			
				<linearGradient id="SVGID_38_" gradientUnits="userSpaceOnUse" x1="75.4893" y1="-78.7305" x2="75.4893" y2="-63.5908" gradientTransform="matrix(1 0 0 -1 -6 0)">
				<stop  offset="0" style="stop-color:#333333"/>
				<stop  offset="1" style="stop-color:#191919"/>
			</linearGradient>
			<path fill="url(#SVGID_38_)" d="M79.172,76.157c0,1.42-1.152,2.573-2.574,2.573H62.383c-1.424,0-2.576-1.153-2.576-2.573v-9.99
				c0-1.423,1.152-2.576,2.576-2.576h14.215c1.422,0,2.574,1.153,2.574,2.576V76.157z"/>
			
				<linearGradient id="SVGID_39_" gradientUnits="userSpaceOnUse" x1="75.4893" y1="-78.7305" x2="75.4893" y2="-63.5908" gradientTransform="matrix(1 0 0 -1 -6 0)">
				<stop  offset="0" style="stop-color:#FFFFFF;stop-opacity:0"/>
				<stop  offset="1" style="stop-color:#FFFFFF"/>
			</linearGradient>
			<path opacity="0.2" fill="url(#SVGID_39_)" enable-background="new    " d="M79.172,76.157c0,1.42-1.152,2.573-2.574,2.573
				H62.383c-1.424,0-2.576-1.153-2.576-2.573v-9.99c0-1.423,1.152-2.576,2.576-2.576h14.215c1.422,0,2.574,1.153,2.574,2.576V76.157
				z"/>
			
				<linearGradient id="SVGID_40_" gradientUnits="userSpaceOnUse" x1="75.4893" y1="-78.7305" x2="75.4893" y2="-63.5908" gradientTransform="matrix(1 0 0 -1 -6 0)">
				<stop  offset="0.2019" style="stop-color:#000000;stop-opacity:0"/>
				<stop  offset="0.396" style="stop-color:#000000"/>
			</linearGradient>
			<path opacity="0.7" fill="url(#SVGID_40_)" enable-background="new    " d="M79.172,76.157c0,1.42-1.152,2.573-2.574,2.573
				H62.383c-1.424,0-2.576-1.153-2.576-2.573v-9.99c0-1.423,1.152-2.576,2.576-2.576h14.215c1.422,0,2.574,1.153,2.574,2.576V76.157
				z"/>
			<g>
				
					<linearGradient id="SVGID_41_" gradientUnits="userSpaceOnUse" x1="75.4883" y1="-46.6357" x2="75.4883" y2="-94.1078" gradientTransform="matrix(1 0 0 -1 -6 0)">
					<stop  offset="0" style="stop-color:#595959"/>
					<stop  offset="1" style="stop-color:#333333"/>
				</linearGradient>
				<path fill="url(#SVGID_41_)" d="M86.787,72.005c0,1.048-0.848,1.896-1.893,1.896H54.084c-1.045,0-1.895-0.848-1.895-1.896
					V48.531c0-1.046,0.85-1.896,1.895-1.896h30.811c1.045,0,1.894,0.849,1.894,1.896L86.787,72.005L86.787,72.005z"/>
				
					<linearGradient id="SVGID_42_" gradientUnits="userSpaceOnUse" x1="75.4902" y1="-47.0571" x2="75.4902" y2="-73.615" gradientTransform="matrix(1 0 0 -1 -6 0)">
					<stop  offset="0" style="stop-color:#3C3C3C"/>
					<stop  offset="1" style="stop-color:#191919"/>
				</linearGradient>
				<path fill="url(#SVGID_42_)" d="M54.084,73.479c-0.813,0-1.473-0.66-1.473-1.475V48.531c0-0.813,0.66-1.474,1.473-1.474h30.811
					c0.813,0,1.474,0.661,1.474,1.474v23.474c0,0.813-0.66,1.476-1.474,1.476H54.084V73.479z"/>
				<path fill="#1A1A1A" d="M55.684,71.374c-0.764,0-1.389-0.624-1.389-1.388V50.13c0-0.764,0.625-1.388,1.389-1.388h27.189
					c0.764,0,1.389,0.624,1.389,1.388v19.856c0,0.764-0.625,1.388-1.389,1.388H55.684z"/>
				<path fill="#4D4D4D" d="M56.104,71.795c-0.762,0-1.387-0.624-1.387-1.388V50.551c0-0.764,0.625-1.388,1.387-1.388H83.33
					c0.764,0,1.387,0.624,1.387,1.388v19.856c0,0.764-0.623,1.388-1.387,1.388H56.104z"/>
				<g>
					<g>
						
							<linearGradient id="SVGID_43_" gradientUnits="userSpaceOnUse" x1="75.4902" y1="-49.1631" x2="75.4902" y2="-71.4875" gradientTransform="matrix(1 0 0 -1 -6 0)">
							<stop  offset="0" style="stop-color:#74D1FF"/>
							<stop  offset="1" style="stop-color:#19A1E6"/>
						</linearGradient>
						<path fill="url(#SVGID_43_)" d="M56.104,71.374c-0.762,0-1.387-0.624-1.387-1.388V50.551c0-0.764,0.625-1.388,1.387-1.388
							h26.771c0.765,0,1.39,0.624,1.39,1.388v19.436c0,0.765-0.625,1.389-1.39,1.389L56.104,71.374L56.104,71.374z"/>
					</g>
					<g>
						
							<linearGradient id="SVGID_44_" gradientUnits="userSpaceOnUse" x1="75.4893" y1="-49.584" x2="75.4893" y2="-71.0623" gradientTransform="matrix(1 0 0 -1 -6 0)">
							<stop  offset="0" style="stop-color:#6DC4EF"/>
							<stop  offset="1" style="stop-color:#1793D1"/>
						</linearGradient>
						<path fill="url(#SVGID_44_)" d="M56.525,70.953c-0.764,0-1.389-0.625-1.389-1.389V50.973c0-0.764,0.625-1.389,1.389-1.389
							h25.928c0.764,0,1.389,0.625,1.389,1.389v18.594c0,0.763-0.625,1.388-1.389,1.388L56.525,70.953L56.525,70.953z"/>
					</g>
					
						<radialGradient id="SVGID_45_" cx="75" cy="-337.9355" r="12.652" gradientTransform="matrix(1 0 0 -0.5658 -6 -120.3248)" gradientUnits="userSpaceOnUse">
						<stop  offset="0" style="stop-color:#00FFFF"/>
						<stop  offset="1" style="stop-color:#00FFFF;stop-opacity:0"/>
					</radialGradient>
					<path fill="url(#SVGID_45_)" d="M56.525,70.953c-0.764,0-1.389-0.625-1.389-1.389V50.973c0-0.764,0.625-1.389,1.389-1.389
						h25.928c0.764,0,1.389,0.625,1.389,1.389v18.594c0,0.763-0.625,1.388-1.389,1.388L56.525,70.953L56.525,70.953z"/>
					
						<radialGradient id="SVGID_46_" cx="68.9609" cy="-316.7998" r="17.5047" gradientTransform="matrix(1 0 0 -0.5658 -6 -129.5025)" gradientUnits="userSpaceOnUse">
						<stop  offset="0" style="stop-color:#00FFFF"/>
						<stop  offset="1" style="stop-color:#00FFFF;stop-opacity:0"/>
					</radialGradient>
					<path opacity="0.65" fill="url(#SVGID_46_)" enable-background="new    " d="M56.525,70.953c-0.764,0-1.389-0.625-1.389-1.389
						V50.973c0-0.764,0.625-1.389,1.389-1.389h25.928c0.764,0,1.389,0.625,1.389,1.389v18.594c0,0.763-0.625,1.388-1.389,1.388
						L56.525,70.953L56.525,70.953z"/>
					<g>
						<g>
							<defs>
								<path id="SVGID_47_" d="M56.104,71.374c-0.762,0-1.387-0.624-1.387-1.388V50.551c0-0.764,0.625-1.388,1.387-1.388h26.771
									c0.765,0,1.39,0.624,1.39,1.388v19.436c0,0.765-0.625,1.389-1.39,1.389L56.104,71.374L56.104,71.374z"/>
							</defs>
							<clipPath id="SVGID_48_">
								<use xlink:href="#SVGID_47_"  overflow="visible"/>
							</clipPath>
							<g id="path3698_6_" inkscape:connector-curvature="0" opacity="0.2" clip-path="url(#SVGID_48_)">
								
									<linearGradient id="SVGID_49_" gradientUnits="userSpaceOnUse" x1="121.3887" y1="17.0342" x2="141.8294" y2="-9.4042" gradientTransform="matrix(0.9828 0.1849 0.1849 -0.9828 -69.8711 36.1968)">
									<stop  offset="0" style="stop-color:#FFFFFF"/>
									<stop  offset="1" style="stop-color:#FFFFFF;stop-opacity:0"/>
								</linearGradient>
								<path fill="url(#SVGID_49_)" d="M35.863,74c-0.167-4.049-0.103-8.063,0.186-12.025c4.652,0.871,9.242,1.172,13.678,0.977
									c1.148,3.65,2.611,7.277,4.383,10.841C48.273,74.629,42.139,74.741,35.863,74L35.863,74 M56.141,73.469
									c-1.936-3.473-3.555-7.023-4.854-10.607c3.918-0.278,7.707-0.946,11.311-1.95c2.285,2.946,4.916,5.759,7.879,8.375
									C65.992,71.165,61.186,72.59,56.141,73.469L56.141,73.469 M72.041,68.604c-3.059-2.498-5.789-5.207-8.172-8.064
									c3.193-0.971,6.232-2.209,9.088-3.676c2.994,2.1,6.32,3.957,9.943,5.496C79.564,64.752,75.932,66.852,72.041,68.604
									L72.041,68.604 M84.066,61.504c-3.672-1.419-7.051-3.168-10.104-5.172c2.535-1.373,4.918-2.93,7.129-4.641
									c3.38,1.24,7.046,2.144,10.943,2.627C89.633,56.909,86.969,59.318,84.066,61.504L84.066,61.504 M36.137,60.863
									c0.24-2.865,0.599-5.703,1.073-8.502c3.474,0.854,6.925,1.322,10.296,1.451c0.465,2.699,1.1,5.406,1.902,8.103
									C45.1,62.064,40.646,61.738,36.137,60.863L36.137,60.863 M50.928,61.842c-0.916-2.654-1.656-5.324-2.225-7.996
									c3.033,0.043,5.994-0.188,8.85-0.664c1.271,2.35,2.738,4.65,4.402,6.881C58.436,60.998,54.744,61.607,50.928,61.842
									L50.928,61.842 M63.195,59.718c-1.738-2.168-3.281-4.416-4.625-6.719c2.574-0.485,5.057-1.171,7.428-2.035
									c1.832,1.879,3.871,3.651,6.102,5.287C69.297,57.643,66.318,58.809,63.195,59.718L63.195,59.718 M73.092,55.745
									c-2.281-1.565-4.367-3.276-6.248-5.099c2.141-0.824,4.184-1.795,6.119-2.896c2.199,1.36,4.59,2.563,7.154,3.569
									C77.932,52.959,75.584,54.441,73.092,55.745L73.092,55.745 M37.35,51.557c0.377-2.117,0.822-4.216,1.332-6.286
									c2.684,0.781,5.361,1.295,7.996,1.565c0.133,2.055,0.365,4.123,0.698,6.195C44.09,52.882,40.731,52.402,37.35,51.557
									L37.35,51.557 M48.544,53.07c-0.411-2.055-0.718-4.106-0.925-6.148c2.402,0.193,4.764,0.187,7.064-0.004
									c0.713,1.878,1.549,3.74,2.508,5.574C54.396,52.934,51.504,53.134,48.544,53.07L48.544,53.07 M58.184,52.325
									c-1.016-1.8-1.908-3.634-2.678-5.483c2.1-0.214,4.143-0.58,6.117-1.083c1.15,1.603,2.434,3.158,3.844,4.651
									C63.139,51.229,60.705,51.874,58.184,52.325L58.184,52.325 M66.295,50.109c-1.449-1.452-2.773-2.97-3.967-4.539
									c1.803-0.494,3.543-1.104,5.211-1.816c1.465,1.282,3.061,2.485,4.779,3.59C70.41,48.397,68.4,49.324,66.295,50.109
									L66.295,50.109 M38.833,44.663c0.411-1.621,0.861-3.226,1.352-4.813c2.13,0.699,4.261,1.204,6.368,1.528
									c-0.032,1.606-0.004,3.224,0.087,4.851C44.067,45.951,41.454,45.438,38.833,44.663L38.833,44.663 M47.563,46.319
									c-0.147-1.618-0.23-3.23-0.251-4.832c1.941,0.261,3.86,0.37,5.741,0.341c0.396,1.516,0.871,3.028,1.422,4.533
									C52.223,46.53,49.91,46.522,47.563,46.319L47.563,46.319 M55.281,46.293c-0.598-1.485-1.115-2.981-1.553-4.481
									c1.733-0.058,3.432-0.233,5.084-0.517c0.737,1.352,1.561,2.682,2.469,3.984C59.344,45.756,57.338,46.099,55.281,46.293
									L55.281,46.293 M61.977,45.103c-0.942-1.276-1.799-2.583-2.567-3.914c1.522-0.287,3.008-0.666,4.442-1.128
									c0.996,1.146,2.08,2.253,3.254,3.309C65.461,44.052,63.748,44.634,61.977,45.103L61.977,45.103"/>
							</g>
						</g>
					</g>
					
						<linearGradient id="SVGID_50_" gradientUnits="userSpaceOnUse" x1="71.1133" y1="-45.311" x2="69.1548" y2="-74.1987" gradientTransform="matrix(1 0 0 -1 -6 0)">
						<stop  offset="0" style="stop-color:#FFFFFF"/>
						<stop  offset="1" style="stop-color:#FFFFFF;stop-opacity:0"/>
					</linearGradient>
					<path opacity="0.4" fill="url(#SVGID_50_)" enable-background="new    " d="M77.283,47.058H54.084
						c-0.813,0-1.473,0.661-1.473,1.474v23.474c0,0.813,0.66,1.475,1.473,1.475h12.43C64.635,54.486,77.283,47.058,77.283,47.058z"
						/>
				</g>
			</g>
			<g>
				
					<linearGradient id="SVGID_51_" gradientUnits="userSpaceOnUse" x1="81.876" y1="-74.415" x2="81.876" y2="-77.972" gradientTransform="matrix(1 0 0 -1 -6 0)">
					<stop  offset="0" style="stop-color:#000000"/>
					<stop  offset="1" style="stop-color:#808080"/>
				</linearGradient>
				<path fill="url(#SVGID_51_)" d="M75.877,77.857c-0.936,0-1.695-0.76-1.695-1.693c0-0.936,0.76-1.695,1.695-1.695
					c0.934,0,1.693,0.76,1.693,1.695C77.57,77.098,76.811,77.857,75.877,77.857L75.877,77.857z"/>
				
					<radialGradient id="SVGID_52_" cx="171.9414" cy="501.3623" r="1.8366" gradientTransform="matrix(1.833002e-004 1 1.1286 -2.068652e-004 -489.9768 -96.6543)" gradientUnits="userSpaceOnUse">
					<stop  offset="0" style="stop-color:#B0FF04"/>
					<stop  offset="0.5636" style="stop-color:#5AC306"/>
					<stop  offset="0.7394" style="stop-color:#13A400"/>
				</radialGradient>
				<circle fill="url(#SVGID_52_)" cx="75.877" cy="76.164" r="1.119"/>
			</g>
		</g>
	</g>
	<g>
		<g>
			
				<linearGradient id="SVGID_53_" gradientUnits="userSpaceOnUse" x1="33.0376" y1="-80.3887" x2="33.0376" y2="-46.5688" gradientTransform="matrix(1 0 0 -1 -6 0)">
				<stop  offset="0" style="stop-color:#191919"/>
				<stop  offset="1" style="stop-color:#3C3C3C"/>
			</linearGradient>
			<path fill="url(#SVGID_53_)" d="M42.134,46.569H11.941c-1,0-1.812,0.812-1.812,1.812v7.246v21.137v1.813
				c0,1.002,0.812,1.813,1.812,1.813h30.193c1,0,1.813-0.811,1.813-1.813v-1.813V55.627v-7.246
				C43.947,47.381,43.135,46.569,42.134,46.569z"/>
			<g>
				<g>
					<path fill="#0F0F0F" d="M43.947,78.575c0,1.002-0.813,1.812-1.813,1.812H11.941c-1,0-1.812-0.81-1.812-1.812V55.627
						c0-1,0.812-1.811,1.812-1.811h30.193c1,0,1.813,0.811,1.813,1.811V78.575z"/>
				</g>
				
					<linearGradient id="SVGID_54_" gradientUnits="userSpaceOnUse" x1="33.0376" y1="-78.5762" x2="33.0376" y2="-46.5688" gradientTransform="matrix(1 0 0 -1 -6 0)">
					<stop  offset="0" style="stop-color:#333333"/>
					<stop  offset="1" style="stop-color:#595959"/>
				</linearGradient>
				<path fill="url(#SVGID_54_)" d="M43.947,76.764c0,1.002-0.813,1.813-1.813,1.813H11.941c-1,0-1.812-0.811-1.812-1.813V48.381
					c0-1,0.812-1.812,1.812-1.812h30.193c1,0,1.813,0.812,1.813,1.812V76.764z"/>
				
					<linearGradient id="SVGID_55_" gradientUnits="userSpaceOnUse" x1="33.0371" y1="-77.9707" x2="33.0371" y2="-47.1738" gradientTransform="matrix(1 0 0 -1 -6 0)">
					<stop  offset="0" style="stop-color:#191919"/>
					<stop  offset="1" style="stop-color:#3C3C3C"/>
				</linearGradient>
				<path fill="url(#SVGID_55_)" d="M11.941,77.971c-0.666,0-1.208-0.541-1.208-1.207V48.381c0-0.665,0.542-1.207,1.208-1.207
					h30.193c0.667,0,1.208,0.542,1.208,1.207v28.383c0,0.666-0.542,1.207-1.208,1.207H11.941z"/>
			</g>
		</g>
		<rect x="20.797" y="46.569" fill="#1A1A1A" width="0.805" height="32.006"/>
		<rect x="32.473" y="46.569" fill="#1A1A1A" width="0.805" height="32.006"/>
		
			<linearGradient id="rect3317_1_" gradientUnits="userSpaceOnUse" x1="-332.4189" y1="840.1992" x2="-325.1719" y2="840.1992" gradientTransform="matrix(0 -1 1 0 -819 -268)">
			<stop  offset="0" style="stop-color:#1A1A1A"/>
			<stop  offset="0.2505" style="stop-color:#1A1A1A"/>
			<stop  offset="0.501" style="stop-color:#CDFF01"/>
			<stop  offset="0.7505" style="stop-color:#1A1A1A"/>
			<stop  offset="1" style="stop-color:#1A1A1A"/>
		</linearGradient>
		<rect id="rect3317_5_" x="20.797" y="57.172" fill="url(#rect3317_1_)" width="0.805" height="7.247"/>
		
			<linearGradient id="rect3317_2_" gradientUnits="userSpaceOnUse" x1="-332.4189" y1="851.875" x2="-325.1719" y2="851.875" gradientTransform="matrix(0 -1 1 0 -819 -268)">
			<stop  offset="0" style="stop-color:#1A1A1A"/>
			<stop  offset="0.2505" style="stop-color:#1A1A1A"/>
			<stop  offset="0.501" style="stop-color:#CDFF01"/>
			<stop  offset="0.7505" style="stop-color:#1A1A1A"/>
			<stop  offset="1" style="stop-color:#1A1A1A"/>
		</linearGradient>
		<rect id="rect3317_4_" x="32.473" y="57.172" fill="url(#rect3317_2_)" width="0.805" height="7.247"/>
		<g>
			<path id="rect3345_18_" inkscape:connector-curvature="0" fill="#999999" d="M11.538,47.643v1.847v1.848
				c0-0.51,0.414-0.924,0.923-0.924c0.51,0,0.924,0.414,0.924,0.924s-0.414,0.922-0.924,0.922c-0.509,0-0.923-0.412-0.923-0.922
				v1.846v1.847c0-0.509,0.414-0.923,0.923-0.923c0.51,0,0.924,0.414,0.924,0.923c0,0.511-0.414,0.924-0.924,0.924
				c-0.509,0-0.923-0.413-0.923-0.924v1.848v1.847c0-0.509,0.414-0.924,0.923-0.924c0.51,0,0.924,0.415,0.924,0.924
				c0,0.51-0.414,0.924-0.924,0.924c-0.509,0-0.923-0.414-0.923-0.924v1.846v1.848c0-0.509,0.414-0.923,0.923-0.923
				c0.51,0,0.924,0.414,0.924,0.923c0,0.51-0.414,0.924-0.924,0.924c-0.509,0-0.923-0.414-0.923-0.924v1.848v1.846
				c0-0.51,0.414-0.922,0.923-0.922c0.51,0,0.924,0.412,0.924,0.922c0,0.511-0.414,0.924-0.924,0.924
				c-0.509,0-0.923-0.413-0.923-0.924v1.849v1.845c0-0.51,0.414-0.923,0.923-0.923c0.51,0,0.924,0.413,0.924,0.923
				c0,0.512-0.414,0.924-0.924,0.924h1.847h1.847c-0.51,0-0.923-0.412-0.923-0.924c0-0.51,0.413-0.923,0.923-0.923
				c0.509,0,0.923,0.413,0.923,0.923c0,0.512-0.414,0.924-0.923,0.924h1.847h1.846c-0.51,0-0.923-0.412-0.923-0.924
				c0-0.51,0.414-0.923,0.923-0.923v-1.847c-0.51,0-0.923-0.413-0.923-0.924c0-0.51,0.414-0.922,0.923-0.922v-1.848
				c-0.51,0-0.923-0.414-0.923-0.924c0-0.509,0.414-0.923,0.923-0.923v-1.847c-0.51,0-0.923-0.414-0.923-0.924
				c0-0.509,0.414-0.924,0.923-0.924v-1.847c-0.51,0-0.923-0.413-0.923-0.924c0-0.509,0.414-0.923,0.923-0.923V52.26
				c-0.51,0-0.923-0.412-0.923-0.922s0.414-0.924,0.923-0.924v-1.848c-0.51,0-0.923-0.415-0.923-0.923h-1.847
				c0,0.509-0.414,0.923-0.923,0.923c-0.51,0-0.923-0.415-0.923-0.923h-1.847c0,0.509-0.414,0.923-0.924,0.923
				C11.951,48.566,11.538,48.151,11.538,47.643z M12.46,70.725c-0.509,0-0.923-0.412-0.923-0.924v0.924H12.46z M14.308,48.566
				c0.51,0,0.923,0.414,0.923,0.923c0,0.51-0.414,0.924-0.923,0.924c-0.509,0-0.923-0.414-0.923-0.924
				C13.384,48.98,13.798,48.566,14.308,48.566z M18.001,48.566c0.509,0,0.923,0.414,0.923,0.923c0,0.51-0.414,0.924-0.923,0.924
				c-0.51,0-0.924-0.414-0.924-0.924C17.077,48.98,17.491,48.566,18.001,48.566z M16.154,50.413c0.509,0,0.923,0.414,0.923,0.924
				c0,0.511-0.414,0.922-0.923,0.922c-0.51,0-0.923-0.411-0.923-0.922C15.231,50.827,15.644,50.413,16.154,50.413z M14.308,52.259
				c0.51,0,0.923,0.414,0.923,0.925c0,0.51-0.414,0.924-0.923,0.924c-0.509,0-0.923-0.414-0.923-0.924
				C13.385,52.673,13.798,52.259,14.308,52.259z M18.001,52.259c0.509,0,0.923,0.414,0.923,0.925c0,0.51-0.414,0.924-0.923,0.924
				c-0.51,0-0.924-0.414-0.924-0.924C17.077,52.673,17.491,52.259,18.001,52.259z M16.154,54.105c0.509,0,0.923,0.414,0.923,0.922
				c0,0.512-0.414,0.925-0.923,0.925c-0.51,0-0.923-0.413-0.923-0.925C15.231,54.52,15.644,54.105,16.154,54.105z M14.308,55.952
				c0.51,0,0.923,0.414,0.923,0.924c0,0.509-0.414,0.923-0.923,0.923c-0.509,0-0.923-0.414-0.923-0.923
				C13.384,56.366,13.798,55.952,14.308,55.952z M18.001,55.952c0.509,0,0.923,0.414,0.923,0.924c0,0.509-0.414,0.923-0.923,0.923
				c-0.51,0-0.924-0.414-0.924-0.923C17.077,56.366,17.491,55.952,18.001,55.952z M16.154,57.799c0.509,0,0.923,0.415,0.923,0.924
				c0,0.51-0.414,0.924-0.923,0.924c-0.51,0-0.923-0.414-0.923-0.924C15.231,58.214,15.644,57.799,16.154,57.799z M14.308,59.646
				c0.51,0,0.923,0.412,0.923,0.922s-0.414,0.924-0.923,0.924c-0.509,0-0.923-0.414-0.923-0.924
				C13.384,60.061,13.798,59.646,14.308,59.646z M18.001,59.646c0.509,0,0.923,0.412,0.923,0.922s-0.414,0.924-0.923,0.924
				c-0.51,0-0.924-0.414-0.924-0.924C17.077,60.061,17.491,59.646,18.001,59.646z M16.154,61.492c0.509,0,0.923,0.414,0.923,0.923
				c0,0.51-0.414,0.924-0.923,0.924c-0.51,0-0.923-0.414-0.923-0.924C15.231,61.906,15.644,61.492,16.154,61.492z M14.308,63.339
				c0.51,0,0.923,0.414,0.923,0.925c0,0.508-0.414,0.922-0.923,0.922c-0.509,0-0.923-0.414-0.923-0.922
				C13.384,63.753,13.798,63.339,14.308,63.339z M18.001,63.339c0.509,0,0.923,0.414,0.923,0.925c0,0.508-0.414,0.922-0.923,0.922
				c-0.51,0-0.924-0.414-0.924-0.922C17.077,63.753,17.491,63.339,18.001,63.339z M16.154,65.186c0.509,0,0.923,0.414,0.923,0.924
				s-0.414,0.923-0.923,0.923c-0.51,0-0.923-0.413-0.923-0.923S15.644,65.186,16.154,65.186z M14.308,67.031
				c0.51,0,0.923,0.412,0.923,0.925c0,0.508-0.414,0.922-0.923,0.922c-0.509,0-0.923-0.414-0.923-0.922
				C13.384,67.443,13.798,67.031,14.308,67.031z M18.001,67.031c0.509,0,0.923,0.412,0.923,0.925c0,0.508-0.414,0.922-0.923,0.922
				c-0.51,0-0.924-0.414-0.924-0.922C17.077,67.443,17.491,67.031,18.001,67.031z"/>
			<path id="rect3345_17_" inkscape:connector-curvature="0" fill="#999999" d="M11.538,53.938v1.846v1.846
				c0-0.509,0.414-0.923,0.923-0.923c0.51,0,0.924,0.414,0.924,0.923c0,0.51-0.414,0.924-0.924,0.924
				c-0.509,0-0.923-0.414-0.923-0.924v1.85v1.847c0-0.513,0.414-0.925,0.923-0.925c0.51,0,0.924,0.412,0.924,0.925
				c0,0.509-0.414,0.922-0.924,0.922c-0.509,0-0.923-0.413-0.923-0.922v1.846v1.847c0-0.511,0.414-0.924,0.923-0.924
				c0.51,0,0.924,0.413,0.924,0.924c0,0.51-0.414,0.922-0.924,0.922c-0.509,0-0.923-0.412-0.923-0.922v1.848v1.846
				c0-0.509,0.414-0.922,0.923-0.922c0.51,0,0.924,0.413,0.924,0.922c0,0.51-0.414,0.924-0.924,0.924
				c-0.509,0-0.923-0.414-0.923-0.924v1.848V72.4c0-0.508,0.414-0.924,0.923-0.924c0.51,0,0.924,0.416,0.924,0.924
				c0,0.51-0.414,0.923-0.924,0.923c-0.509,0-0.923-0.413-0.923-0.923v1.848v1.846c0-0.509,0.414-0.922,0.923-0.922
				c0.51,0,0.924,0.413,0.924,0.922c0,0.512-0.414,0.926-0.924,0.926h1.847h1.847c-0.51,0-0.923-0.414-0.923-0.926
				c0-0.509,0.413-0.922,0.923-0.922c0.509,0,0.923,0.413,0.923,0.922c0,0.512-0.414,0.926-0.923,0.926h1.847h1.846
				c-0.51,0-0.923-0.414-0.923-0.926c0-0.509,0.414-0.922,0.923-0.922v-1.849c-0.51,0-0.923-0.413-0.923-0.923
				c0-0.508,0.414-0.924,0.923-0.924v-1.846c-0.51,0-0.923-0.414-0.923-0.924c0-0.509,0.414-0.922,0.923-0.922v-1.85
				c-0.51,0-0.923-0.412-0.923-0.922c0-0.511,0.414-0.924,0.923-0.924v-1.847c-0.51,0-0.923-0.413-0.923-0.923
				c0-0.512,0.414-0.924,0.923-0.924v-1.848c-0.51,0-0.923-0.414-0.923-0.924c0-0.509,0.414-0.923,0.923-0.923v-1.847
				c-0.51,0-0.923-0.414-0.923-0.922h-1.847c0,0.508-0.414,0.922-0.923,0.922c-0.51,0-0.923-0.414-0.923-0.922h-1.847
				c0,0.508-0.414,0.922-0.924,0.922C11.951,54.859,11.538,54.445,11.538,53.938z M12.46,77.02c-0.509,0-0.923-0.414-0.923-0.926
				v0.926H12.46z M14.308,54.859c0.51,0,0.923,0.412,0.923,0.923c0,0.51-0.414,0.923-0.923,0.923c-0.509,0-0.923-0.413-0.923-0.923
				C13.385,55.271,13.798,54.859,14.308,54.859z M18.001,54.859c0.509,0,0.923,0.412,0.923,0.923c0,0.51-0.414,0.923-0.923,0.923
				c-0.51,0-0.924-0.413-0.924-0.923C17.077,55.271,17.491,54.859,18.001,54.859z M16.154,56.705c0.509,0,0.923,0.414,0.923,0.923
				c0,0.511-0.414,0.924-0.923,0.924c-0.51,0-0.923-0.413-0.923-0.924C15.231,57.119,15.644,56.705,16.154,56.705z M14.308,58.552
				c0.51,0,0.923,0.414,0.923,0.925c0,0.51-0.414,0.922-0.923,0.922c-0.509,0-0.923-0.412-0.923-0.922
				C13.384,58.966,13.798,58.552,14.308,58.552z M18.001,58.552c0.509,0,0.923,0.414,0.923,0.925c0,0.51-0.414,0.922-0.923,0.922
				c-0.51,0-0.924-0.412-0.924-0.922C17.077,58.966,17.491,58.552,18.001,58.552z M16.154,60.398c0.509,0,0.923,0.412,0.923,0.925
				c0,0.509-0.414,0.922-0.923,0.922c-0.51,0-0.923-0.413-0.923-0.922C15.231,60.813,15.644,60.398,16.154,60.398z M14.308,62.245
				c0.51,0,0.923,0.414,0.923,0.924c0,0.509-0.414,0.923-0.923,0.923c-0.509,0-0.923-0.414-0.923-0.923
				C13.384,62.659,13.798,62.245,14.308,62.245z M18.001,62.245c0.509,0,0.923,0.414,0.923,0.924c0,0.509-0.414,0.923-0.923,0.923
				c-0.51,0-0.924-0.414-0.924-0.923C17.077,62.659,17.491,62.245,18.001,62.245z M16.154,64.092c0.509,0,0.923,0.413,0.923,0.924
				c0,0.51-0.414,0.922-0.923,0.922c-0.51,0-0.923-0.412-0.923-0.922C15.231,64.505,15.644,64.092,16.154,64.092z M14.308,65.938
				c0.51,0,0.923,0.416,0.923,0.926c0,0.509-0.414,0.924-0.923,0.924c-0.509,0-0.923-0.415-0.923-0.924
				C13.385,66.354,13.798,65.938,14.308,65.938z M18.001,65.938c0.509,0,0.923,0.416,0.923,0.926c0,0.509-0.414,0.924-0.923,0.924
				c-0.51,0-0.924-0.415-0.924-0.924C17.077,66.354,17.491,65.938,18.001,65.938z M16.154,67.786c0.509,0,0.923,0.413,0.923,0.922
				c0,0.51-0.414,0.924-0.923,0.924c-0.51,0-0.923-0.414-0.923-0.924C15.231,68.199,15.644,67.786,16.154,67.786z M14.308,69.632
				c0.51,0,0.923,0.414,0.923,0.923c0,0.51-0.414,0.924-0.923,0.924c-0.509,0-0.923-0.414-0.923-0.924
				C13.384,70.046,13.798,69.632,14.308,69.632z M18.001,69.632c0.509,0,0.923,0.414,0.923,0.923c0,0.51-0.414,0.924-0.923,0.924
				c-0.51,0-0.924-0.414-0.924-0.924C17.077,70.046,17.491,69.632,18.001,69.632z M16.154,71.479c0.509,0,0.923,0.414,0.923,0.922
				c0,0.511-0.414,0.924-0.923,0.924c-0.51,0-0.923-0.413-0.923-0.924C15.231,71.893,15.644,71.479,16.154,71.479z M14.308,73.323
				c0.51,0,0.923,0.416,0.923,0.925s-0.414,0.924-0.923,0.924c-0.509,0-0.923-0.415-0.923-0.924S13.798,73.323,14.308,73.323z
				 M18.001,73.323c0.509,0,0.923,0.416,0.923,0.925s-0.414,0.924-0.923,0.924c-0.51,0-0.924-0.415-0.924-0.924
				S17.491,73.323,18.001,73.323z"/>
			<path d="M11.337,47.576v29.656h8.961V47.576H11.337z M19.423,74.852h-7.461c-0.227,0-0.412-0.184-0.412-0.412
				c0-0.228,0.185-0.412,0.412-0.412h7.461c0.227,0,0.412,0.185,0.412,0.412C19.835,74.668,19.65,74.852,19.423,74.852z
				 M19.423,73.241h-7.461c-0.227,0-0.412-0.187-0.412-0.412c0-0.229,0.185-0.413,0.412-0.413h7.461
				c0.227,0,0.412,0.186,0.412,0.413C19.835,73.055,19.65,73.241,19.423,73.241z M19.423,71.63h-7.461
				c-0.227,0-0.412-0.185-0.412-0.412c0-0.227,0.185-0.411,0.412-0.411h7.461c0.227,0,0.412,0.185,0.412,0.411
				C19.835,71.445,19.65,71.63,19.423,71.63z M19.547,53.212h-7.46c-0.227,0-0.412-0.185-0.412-0.412
				c0-0.227,0.185-0.411,0.412-0.411h7.46c0.228,0,0.413,0.185,0.413,0.411C19.96,53.027,19.775,53.212,19.547,53.212z
				 M19.547,51.535h-7.46c-0.227,0-0.412-0.186-0.412-0.413s0.185-0.412,0.412-0.412h7.46c0.228,0,0.413,0.187,0.413,0.412
				C19.96,51.35,19.775,51.535,19.547,51.535z M19.547,49.855h-7.46c-0.227,0-0.412-0.185-0.412-0.41
				c0-0.229,0.185-0.412,0.412-0.412h7.46c0.228,0,0.413,0.184,0.413,0.412C19.96,49.672,19.775,49.855,19.547,49.855z"/>
			
				<linearGradient id="SVGID_56_" gradientUnits="userSpaceOnUse" x1="17.3369" y1="-62.4043" x2="26.2979" y2="-62.4043" gradientTransform="matrix(1 0 0 -1 -6 0)">
				<stop  offset="0" style="stop-color:#3C3C3C"/>
				<stop  offset="1" style="stop-color:#191919"/>
			</linearGradient>
			<path fill="url(#SVGID_56_)" d="M11.337,47.576v29.656h8.961V47.576H11.337z M19.423,75.253h-7.461
				c-0.227,0-0.412-0.185-0.412-0.41c0-0.229,0.185-0.413,0.412-0.413h7.461c0.227,0,0.412,0.185,0.412,0.413
				C19.835,75.068,19.65,75.253,19.423,75.253z M19.423,73.645h-7.461c-0.227,0-0.412-0.186-0.412-0.412
				c0-0.229,0.185-0.412,0.412-0.412h7.461c0.227,0,0.412,0.185,0.412,0.412C19.835,73.459,19.65,73.645,19.423,73.645z
				 M19.423,72.034h-7.461c-0.227,0-0.412-0.187-0.412-0.413s0.185-0.413,0.412-0.413h7.461c0.227,0,0.412,0.187,0.412,0.413
				C19.835,71.85,19.65,72.034,19.423,72.034z M19.547,53.613h-7.46c-0.227,0-0.412-0.184-0.412-0.41
				c0-0.229,0.185-0.413,0.412-0.413h7.46c0.228,0,0.413,0.185,0.413,0.413S19.775,53.613,19.547,53.613z M19.547,51.938h-7.46
				c-0.227,0-0.412-0.185-0.412-0.412c0-0.229,0.185-0.411,0.412-0.411h7.46c0.228,0,0.413,0.184,0.413,0.411
				S19.775,51.938,19.547,51.938z M19.547,50.26h-7.46c-0.227,0-0.412-0.185-0.412-0.412c0-0.227,0.185-0.412,0.412-0.412h7.46
				c0.228,0,0.413,0.186,0.413,0.412C19.96,50.075,19.775,50.26,19.547,50.26z"/>
			<g>
				
					<linearGradient id="SVGID_57_" gradientUnits="userSpaceOnUse" x1="21.8179" y1="-59.9111" x2="21.8179" y2="-62.0519" gradientTransform="matrix(1 0 0 -1 -6 0)">
					<stop  offset="0" style="stop-color:#000000"/>
					<stop  offset="1" style="stop-color:#808080"/>
				</linearGradient>
				<path fill="url(#SVGID_57_)" d="M15.817,61.982c-0.562,0-1.019-0.459-1.019-1.021c0-0.563,0.458-1.021,1.019-1.021
					c0.562,0,1.021,0.457,1.021,1.021C16.837,61.523,16.379,61.982,15.817,61.982L15.817,61.982z"/>
				
					<radialGradient id="SVGID_58_" cx="111.874" cy="516.1709" r="1.104" gradientTransform="matrix(1.833002e-004 1 1.1286 -2.068652e-004 -566.7463 -51.3936)" gradientUnits="userSpaceOnUse">
					<stop  offset="0" style="stop-color:#B0FF04"/>
					<stop  offset="0.5636" style="stop-color:#5AC306"/>
					<stop  offset="0.7394" style="stop-color:#13A400"/>
				</radialGradient>
				<circle fill="url(#SVGID_58_)" cx="15.817" cy="60.963" r="0.673"/>
			</g>
			<g>
				<rect x="11.337" y="63.383" fill="#B3B3B3" width="8.961" height="2.813"/>
				<rect x="11.816" y="63.837" width="8.032" height="2.015"/>
				<g>
					
						<linearGradient id="rect5902_1_" gradientUnits="userSpaceOnUse" x1="279.6914" y1="1008.6416" x2="279.6914" y2="1007.8369" gradientTransform="matrix(1 0 0 1 -264 -944)">
						<stop  offset="0" style="stop-color:#4F4F4F"/>
						<stop  offset="1" style="stop-color:#A2A2A2"/>
					</linearGradient>
					
						<rect id="rect5902_26_" x="13.277" y="63.837" opacity="0.6" fill="url(#rect5902_1_)" enable-background="new    " width="4.831" height="0.806"/>
					
						<linearGradient id="rect5906_1_" gradientUnits="userSpaceOnUse" x1="279.6914" y1="1077.4736" x2="279.6914" y2="1076.6689" gradientTransform="matrix(1 0 0 0.9107 -264 -915.4487)">
						<stop  offset="0" style="stop-color:#000000"/>
						<stop  offset="0.5" style="stop-color:#656565"/>
						<stop  offset="1" style="stop-color:#000000"/>
					</linearGradient>
					<rect id="rect5906_26_" x="13.277" y="65.074" fill="url(#rect5906_1_)" width="4.831" height="0.732"/>
					<rect id="rect5918_26_" x="12.471" y="63.837" fill="#545454" width="0.403" height="2.015"/>
					<rect id="rect5920_26_" x="18.511" y="63.837" fill="#545454" width="0.402" height="2.015"/>
				</g>
			</g>
			<g>
				<rect x="11.337" y="67.152" fill="#B3B3B3" width="8.961" height="2.813"/>
				<rect x="11.816" y="67.605" width="8.032" height="2.015"/>
				<g>
					
						<linearGradient id="rect5902_2_" gradientUnits="userSpaceOnUse" x1="279.6914" y1="1012.4121" x2="279.6914" y2="1011.6055" gradientTransform="matrix(1 0 0 1 -264 -944)">
						<stop  offset="0" style="stop-color:#4F4F4F"/>
						<stop  offset="1" style="stop-color:#A2A2A2"/>
					</linearGradient>
					
						<rect id="rect5902_25_" x="13.277" y="67.605" opacity="0.6" fill="url(#rect5902_2_)" enable-background="new    " width="4.831" height="0.807"/>
					
						<linearGradient id="rect5906_2_" gradientUnits="userSpaceOnUse" x1="279.6914" y1="1081.6143" x2="279.6914" y2="1080.8096" gradientTransform="matrix(1 0 0 0.9107 -264 -915.4487)">
						<stop  offset="0" style="stop-color:#000000"/>
						<stop  offset="0.5" style="stop-color:#656565"/>
						<stop  offset="1" style="stop-color:#000000"/>
					</linearGradient>
					<rect id="rect5906_25_" x="13.277" y="68.845" fill="url(#rect5906_2_)" width="4.831" height="0.732"/>
					<rect id="rect5918_25_" x="12.471" y="67.605" fill="#545454" width="0.403" height="2.015"/>
					<rect id="rect5920_25_" x="18.511" y="67.605" fill="#545454" width="0.402" height="2.015"/>
				</g>
			</g>
			<g>
				
					<linearGradient id="path6049_1_" gradientUnits="userSpaceOnUse" x1="356.7754" y1="-98.957" x2="359.3991" y2="-98.957" gradientTransform="matrix(0 1.2347 -1.2347 0 -106.3651 -384.6495)">
					<stop  offset="0" style="stop-color:#000000;stop-opacity:0.4263"/>
					<stop  offset="1" style="stop-color:#FFFFFF;stop-opacity:0.3171"/>
				</linearGradient>
				<path id="path6049_10_" fill="url(#path6049_1_)" d="M15.817,59.102c-1.195,0-2.165-0.97-2.165-2.164s0.97-2.166,2.165-2.166
					c1.196,0,2.166,0.972,2.166,2.166C17.982,58.132,17.013,59.102,15.817,59.102z"/>
				<path id="path5936_10_" fill="#C6C6C6" stroke="#000000" stroke-width="1.1313" stroke-linecap="square" d="M17.367,56.938
					c0,0.855-0.693,1.551-1.55,1.551c-0.855,0-1.549-0.694-1.549-1.551c0-0.857,0.694-1.551,1.549-1.551
					C16.674,55.387,17.367,56.08,17.367,56.938z"/>
				
					<linearGradient id="path6067_1_" gradientUnits="userSpaceOnUse" x1="20.71" y1="-56.9375" x2="22.9248" y2="-56.9375" gradientTransform="matrix(1 0 0 -1 -6 0)">
					<stop  offset="0" style="stop-color:#FFFFFF"/>
					<stop  offset="1" style="stop-color:#7C7C7C"/>
				</linearGradient>
				<path id="path6067_10_" fill="url(#path6067_1_)" d="M15.817,58.045c-0.611,0-1.107-0.496-1.107-1.107
					c0-0.61,0.496-1.107,1.107-1.107c0.612,0,1.108,0.497,1.108,1.107C16.925,57.549,16.429,58.045,15.817,58.045z"/>
				<g opacity="0.4263" enable-background="new    ">
					<path d="M16.301,56.47c-0.042-0.04-0.107-0.04-0.149,0c-0.042,0.042-0.042,0.108,0,0.15l0,0
						c0.094,0.094,0.141,0.218,0.141,0.341s-0.047,0.247-0.141,0.342c-0.094,0.094-0.217,0.143-0.342,0.143
						c-0.124,0-0.247-0.049-0.341-0.143c-0.095-0.095-0.142-0.219-0.142-0.342s0.047-0.247,0.142-0.341
						c0.041-0.042,0.041-0.108,0-0.15c-0.041-0.04-0.108-0.04-0.149,0c-0.135,0.136-0.203,0.313-0.203,0.491
						s0.068,0.355,0.203,0.491c0.135,0.134,0.313,0.204,0.491,0.204h0.001c0.176,0,0.355-0.07,0.49-0.204
						c0.135-0.136,0.204-0.313,0.203-0.491C16.505,56.783,16.437,56.604,16.301,56.47z"/>
					<path d="M15.81,57.066c0.059,0,0.105-0.047,0.105-0.105v-0.637c0-0.061-0.046-0.106-0.105-0.106
						c-0.058,0-0.105,0.048-0.105,0.106v0.637C15.705,57.021,15.752,57.066,15.81,57.066z"/>
				</g>
			</g>
		</g>
		<g>
			<path id="rect3345_16_" inkscape:connector-curvature="0" fill="#999999" d="M22.759,47.643v1.847v1.848
				c0-0.51,0.413-0.924,0.922-0.924c0.51,0,0.924,0.414,0.924,0.924s-0.414,0.922-0.924,0.922c-0.509,0-0.922-0.412-0.922-0.922
				v1.846v1.847c0-0.509,0.413-0.923,0.922-0.923c0.51,0,0.924,0.414,0.924,0.923c0,0.511-0.414,0.924-0.924,0.924
				c-0.509,0-0.922-0.413-0.922-0.924v1.848v1.847c0-0.509,0.413-0.924,0.922-0.924c0.51,0,0.924,0.415,0.924,0.924
				c0,0.51-0.414,0.924-0.924,0.924c-0.509,0-0.922-0.414-0.922-0.924v1.846v1.848c0-0.509,0.413-0.923,0.922-0.923
				c0.51,0,0.924,0.414,0.924,0.923c0,0.51-0.414,0.924-0.924,0.924c-0.509,0-0.922-0.414-0.922-0.924v1.848v1.846
				c0-0.51,0.413-0.922,0.922-0.922c0.51,0,0.924,0.412,0.924,0.922c0,0.511-0.414,0.924-0.924,0.924
				c-0.509,0-0.922-0.413-0.922-0.924v1.849v1.845c0-0.51,0.413-0.923,0.922-0.923c0.51,0,0.924,0.413,0.924,0.923
				c0,0.512-0.414,0.924-0.924,0.924h1.848h1.846c-0.51,0-0.923-0.412-0.923-0.924c0-0.51,0.414-0.923,0.923-0.923
				s0.923,0.413,0.923,0.923c0,0.512-0.414,0.924-0.923,0.924h1.847h1.846c-0.509,0-0.923-0.412-0.923-0.924
				c0-0.51,0.414-0.923,0.923-0.923v-1.847c-0.509,0-0.923-0.413-0.923-0.924c0-0.51,0.414-0.922,0.923-0.922v-1.848
				c-0.509,0-0.923-0.414-0.923-0.924c0-0.509,0.414-0.923,0.923-0.923v-1.847c-0.509,0-0.923-0.414-0.923-0.924
				c0-0.509,0.414-0.924,0.923-0.924v-1.847c-0.509,0-0.923-0.413-0.923-0.924c0-0.509,0.414-0.923,0.923-0.923V52.26
				c-0.509,0-0.923-0.412-0.923-0.922s0.414-0.924,0.923-0.924v-1.848c-0.509,0-0.923-0.415-0.923-0.923h-1.846
				c0,0.509-0.414,0.923-0.923,0.923s-0.923-0.415-0.923-0.923h-1.847c0,0.509-0.414,0.923-0.924,0.923
				C23.171,48.566,22.759,48.151,22.759,47.643z M23.681,70.725c-0.509,0-0.922-0.412-0.922-0.924v0.924H23.681z M25.528,48.566
				c0.51,0,0.923,0.414,0.923,0.923c0,0.51-0.413,0.924-0.923,0.924c-0.51,0-0.924-0.414-0.924-0.924
				C24.604,48.98,25.019,48.566,25.528,48.566z M29.221,48.566c0.509,0,0.923,0.414,0.923,0.923c0,0.51-0.414,0.924-0.923,0.924
				c-0.509,0-0.923-0.414-0.923-0.924C28.298,48.98,28.712,48.566,29.221,48.566z M27.375,50.413c0.51,0,0.923,0.414,0.923,0.924
				c0,0.511-0.414,0.922-0.923,0.922s-0.923-0.411-0.923-0.922C26.452,50.827,26.865,50.413,27.375,50.413z M25.528,52.259
				c0.51,0,0.923,0.414,0.923,0.925c0,0.51-0.413,0.924-0.923,0.924c-0.51,0-0.924-0.414-0.924-0.924
				C24.604,52.673,25.019,52.259,25.528,52.259z M29.221,52.259c0.509,0,0.923,0.414,0.923,0.925c0,0.51-0.414,0.924-0.923,0.924
				c-0.509,0-0.923-0.414-0.923-0.924C28.298,52.673,28.712,52.259,29.221,52.259z M27.375,54.105c0.51,0,0.923,0.414,0.923,0.922
				c0,0.512-0.414,0.925-0.923,0.925s-0.923-0.413-0.923-0.925C26.451,54.52,26.865,54.105,27.375,54.105z M25.528,55.952
				c0.51,0,0.923,0.414,0.923,0.924c0,0.509-0.413,0.923-0.923,0.923c-0.51,0-0.924-0.414-0.924-0.923
				C24.604,56.366,25.019,55.952,25.528,55.952z M29.221,55.952c0.509,0,0.923,0.414,0.923,0.924c0,0.509-0.414,0.923-0.923,0.923
				c-0.509,0-0.923-0.414-0.923-0.923C28.298,56.366,28.712,55.952,29.221,55.952z M27.375,57.799c0.51,0,0.923,0.415,0.923,0.924
				c0,0.51-0.414,0.924-0.923,0.924s-0.923-0.414-0.923-0.924C26.451,58.214,26.865,57.799,27.375,57.799z M25.528,59.646
				c0.51,0,0.923,0.412,0.923,0.922s-0.413,0.924-0.923,0.924c-0.51,0-0.924-0.414-0.924-0.924
				C24.604,60.061,25.019,59.646,25.528,59.646z M29.221,59.646c0.509,0,0.923,0.412,0.923,0.922s-0.414,0.924-0.923,0.924
				c-0.509,0-0.923-0.414-0.923-0.924C28.298,60.061,28.712,59.646,29.221,59.646z M27.375,61.492c0.51,0,0.923,0.414,0.923,0.923
				c0,0.51-0.414,0.924-0.923,0.924s-0.923-0.414-0.923-0.924C26.451,61.906,26.865,61.492,27.375,61.492z M25.528,63.339
				c0.51,0,0.923,0.414,0.923,0.925c0,0.508-0.413,0.922-0.923,0.922c-0.51,0-0.924-0.414-0.924-0.922
				C24.604,63.753,25.019,63.339,25.528,63.339z M29.221,63.339c0.509,0,0.923,0.414,0.923,0.925c0,0.508-0.414,0.922-0.923,0.922
				c-0.509,0-0.923-0.414-0.923-0.922C28.298,63.753,28.712,63.339,29.221,63.339z M27.375,65.186c0.51,0,0.923,0.414,0.923,0.924
				s-0.414,0.923-0.923,0.923s-0.923-0.413-0.923-0.923S26.865,65.186,27.375,65.186z M25.528,67.031
				c0.51,0,0.923,0.412,0.923,0.925c0,0.508-0.413,0.922-0.923,0.922c-0.51,0-0.924-0.414-0.924-0.922
				C24.604,67.443,25.019,67.031,25.528,67.031z M29.221,67.031c0.509,0,0.923,0.412,0.923,0.925c0,0.508-0.414,0.922-0.923,0.922
				c-0.509,0-0.923-0.414-0.923-0.922C28.298,67.443,28.712,67.031,29.221,67.031z"/>
			<path id="rect3345_15_" inkscape:connector-curvature="0" fill="#999999" d="M22.759,53.938v1.846v1.846
				c0-0.509,0.413-0.923,0.922-0.923c0.51,0,0.924,0.414,0.924,0.923c0,0.51-0.414,0.924-0.924,0.924
				c-0.509,0-0.922-0.414-0.922-0.924v1.85v1.847c0-0.513,0.413-0.925,0.922-0.925c0.51,0,0.924,0.412,0.924,0.925
				c0,0.509-0.414,0.922-0.924,0.922c-0.509,0-0.922-0.413-0.922-0.922v1.846v1.847c0-0.511,0.413-0.924,0.922-0.924
				c0.51,0,0.924,0.413,0.924,0.924c0,0.51-0.414,0.922-0.924,0.922c-0.509,0-0.922-0.412-0.922-0.922v1.848v1.846
				c0-0.509,0.413-0.922,0.922-0.922c0.51,0,0.924,0.413,0.924,0.922c0,0.51-0.414,0.924-0.924,0.924
				c-0.509,0-0.922-0.414-0.922-0.924v1.848V72.4c0-0.508,0.413-0.924,0.922-0.924c0.51,0,0.924,0.416,0.924,0.924
				c0,0.51-0.414,0.923-0.924,0.923c-0.509,0-0.922-0.413-0.922-0.923v1.848v1.846c0-0.509,0.413-0.922,0.922-0.922
				c0.51,0,0.924,0.413,0.924,0.922c0,0.512-0.414,0.926-0.924,0.926h1.848h1.846c-0.51,0-0.923-0.414-0.923-0.926
				c0-0.509,0.414-0.922,0.923-0.922s0.923,0.413,0.923,0.922c0,0.512-0.414,0.926-0.923,0.926h1.847h1.846
				c-0.509,0-0.923-0.414-0.923-0.926c0-0.509,0.414-0.922,0.923-0.922v-1.849c-0.509,0-0.923-0.413-0.923-0.923
				c0-0.508,0.414-0.924,0.923-0.924v-1.846c-0.509,0-0.923-0.414-0.923-0.924c0-0.509,0.414-0.922,0.923-0.922v-1.85
				c-0.509,0-0.923-0.412-0.923-0.922c0-0.511,0.414-0.924,0.923-0.924v-1.847c-0.509,0-0.923-0.413-0.923-0.923
				c0-0.512,0.414-0.924,0.923-0.924v-1.848c-0.509,0-0.923-0.414-0.923-0.924c0-0.509,0.414-0.923,0.923-0.923v-1.847
				c-0.509,0-0.923-0.414-0.923-0.922h-1.846c0,0.508-0.414,0.922-0.923,0.922s-0.923-0.414-0.923-0.922h-1.847
				c0,0.508-0.414,0.922-0.924,0.922C23.171,54.859,22.759,54.445,22.759,53.938z M23.681,77.02c-0.509,0-0.922-0.414-0.922-0.926
				v0.926H23.681z M25.528,54.859c0.51,0,0.923,0.412,0.923,0.923c0,0.51-0.413,0.923-0.923,0.923c-0.51,0-0.924-0.413-0.924-0.923
				C24.604,55.271,25.019,54.859,25.528,54.859z M29.221,54.859c0.509,0,0.923,0.412,0.923,0.923c0,0.51-0.414,0.923-0.923,0.923
				c-0.509,0-0.923-0.413-0.923-0.923C28.298,55.271,28.712,54.859,29.221,54.859z M27.375,56.705c0.51,0,0.923,0.414,0.923,0.923
				c0,0.511-0.414,0.924-0.923,0.924s-0.923-0.413-0.923-0.924C26.451,57.119,26.865,56.705,27.375,56.705z M25.528,58.552
				c0.51,0,0.923,0.414,0.923,0.925c0,0.51-0.413,0.922-0.923,0.922c-0.51,0-0.924-0.412-0.924-0.922
				C24.604,58.966,25.019,58.552,25.528,58.552z M29.221,58.552c0.509,0,0.923,0.414,0.923,0.925c0,0.51-0.414,0.922-0.923,0.922
				c-0.509,0-0.923-0.412-0.923-0.922C28.298,58.966,28.712,58.552,29.221,58.552z M27.375,60.398c0.51,0,0.923,0.412,0.923,0.925
				c0,0.509-0.414,0.922-0.923,0.922s-0.923-0.413-0.923-0.922C26.451,60.813,26.865,60.398,27.375,60.398z M25.528,62.245
				c0.51,0,0.923,0.414,0.923,0.924c0,0.509-0.413,0.923-0.923,0.923c-0.51,0-0.924-0.414-0.924-0.923
				C24.604,62.659,25.019,62.245,25.528,62.245z M29.221,62.245c0.509,0,0.923,0.414,0.923,0.924c0,0.509-0.414,0.923-0.923,0.923
				c-0.509,0-0.923-0.414-0.923-0.923C28.298,62.659,28.712,62.245,29.221,62.245z M27.375,64.092c0.51,0,0.923,0.413,0.923,0.924
				c0,0.51-0.414,0.922-0.923,0.922s-0.923-0.412-0.923-0.922C26.451,64.505,26.865,64.092,27.375,64.092z M25.528,65.938
				c0.51,0,0.923,0.416,0.923,0.926c0,0.509-0.413,0.924-0.923,0.924c-0.51,0-0.924-0.415-0.924-0.924
				C24.604,66.354,25.019,65.938,25.528,65.938z M29.221,65.938c0.509,0,0.923,0.416,0.923,0.926c0,0.509-0.414,0.924-0.923,0.924
				c-0.509,0-0.923-0.415-0.923-0.924C28.298,66.354,28.712,65.938,29.221,65.938z M27.375,67.786c0.51,0,0.923,0.413,0.923,0.922
				c0,0.51-0.414,0.924-0.923,0.924s-0.923-0.414-0.923-0.924C26.451,68.199,26.865,67.786,27.375,67.786z M25.528,69.632
				c0.51,0,0.923,0.414,0.923,0.923c0,0.51-0.413,0.924-0.923,0.924c-0.51,0-0.924-0.414-0.924-0.924
				C24.604,70.046,25.019,69.632,25.528,69.632z M29.221,69.632c0.509,0,0.923,0.414,0.923,0.923c0,0.51-0.414,0.924-0.923,0.924
				c-0.509,0-0.923-0.414-0.923-0.924C28.298,70.046,28.712,69.632,29.221,69.632z M27.375,71.479c0.51,0,0.923,0.414,0.923,0.922
				c0,0.511-0.414,0.924-0.923,0.924s-0.923-0.413-0.923-0.924C26.451,71.893,26.865,71.479,27.375,71.479z M25.528,73.323
				c0.51,0,0.923,0.416,0.923,0.925s-0.413,0.924-0.923,0.924c-0.51,0-0.924-0.415-0.924-0.924S25.019,73.323,25.528,73.323z
				 M29.221,73.323c0.509,0,0.923,0.416,0.923,0.925s-0.414,0.924-0.923,0.924c-0.509,0-0.923-0.415-0.923-0.924
				S28.712,73.323,29.221,73.323z"/>
			<path d="M22.557,47.576v29.656h8.962V47.576H22.557z M30.643,74.852h-7.461c-0.227,0-0.412-0.184-0.412-0.412
				c0-0.228,0.185-0.412,0.412-0.412h7.461c0.228,0,0.413,0.185,0.413,0.412C31.056,74.668,30.871,74.852,30.643,74.852z
				 M30.643,73.241h-7.461c-0.227,0-0.412-0.187-0.412-0.412c0-0.229,0.185-0.413,0.412-0.413h7.461
				c0.228,0,0.413,0.186,0.413,0.413C31.056,73.055,30.871,73.241,30.643,73.241z M30.643,71.63h-7.461
				c-0.227,0-0.412-0.185-0.412-0.412c0-0.227,0.185-0.411,0.412-0.411h7.461c0.228,0,0.413,0.185,0.413,0.411
				C31.056,71.445,30.871,71.63,30.643,71.63z M30.768,53.212h-7.461c-0.228,0-0.412-0.185-0.412-0.412
				c0-0.227,0.185-0.411,0.412-0.411h7.461c0.228,0,0.412,0.185,0.412,0.411C31.18,53.027,30.996,53.212,30.768,53.212z
				 M30.768,51.535h-7.461c-0.228,0-0.412-0.186-0.412-0.413s0.185-0.412,0.412-0.412h7.461c0.228,0,0.412,0.187,0.412,0.412
				C31.18,51.35,30.996,51.535,30.768,51.535z M30.768,49.855h-7.461c-0.228,0-0.412-0.185-0.412-0.41
				c0-0.229,0.185-0.412,0.412-0.412h7.461c0.228,0,0.412,0.184,0.412,0.412C31.18,49.672,30.996,49.855,30.768,49.855z"/>
			
				<linearGradient id="SVGID_59_" gradientUnits="userSpaceOnUse" x1="28.5571" y1="-62.4043" x2="37.519" y2="-62.4043" gradientTransform="matrix(1 0 0 -1 -6 0)">
				<stop  offset="0" style="stop-color:#3C3C3C"/>
				<stop  offset="1" style="stop-color:#191919"/>
			</linearGradient>
			<path fill="url(#SVGID_59_)" d="M22.557,47.576v29.656h8.962V47.576H22.557z M30.643,75.253h-7.461
				c-0.227,0-0.412-0.185-0.412-0.41c0-0.229,0.185-0.413,0.412-0.413h7.461c0.228,0,0.413,0.185,0.413,0.413
				C31.056,75.068,30.871,75.253,30.643,75.253z M30.643,73.645h-7.461c-0.227,0-0.412-0.186-0.412-0.412
				c0-0.229,0.185-0.412,0.412-0.412h7.461c0.228,0,0.413,0.185,0.413,0.412C31.056,73.459,30.871,73.645,30.643,73.645z
				 M30.643,72.034h-7.461c-0.227,0-0.412-0.187-0.412-0.413s0.185-0.413,0.412-0.413h7.461c0.228,0,0.413,0.187,0.413,0.413
				C31.056,71.85,30.871,72.034,30.643,72.034z M30.768,53.613h-7.461c-0.228,0-0.412-0.184-0.412-0.41
				c0-0.229,0.185-0.413,0.412-0.413h7.461c0.228,0,0.412,0.185,0.412,0.413S30.996,53.613,30.768,53.613z M30.768,51.938h-7.461
				c-0.228,0-0.412-0.185-0.412-0.412c0-0.229,0.185-0.411,0.412-0.411h7.461c0.228,0,0.412,0.184,0.412,0.411
				S30.996,51.938,30.768,51.938z M30.768,50.26h-7.461c-0.228,0-0.412-0.185-0.412-0.412c0-0.227,0.185-0.412,0.412-0.412h7.461
				c0.228,0,0.412,0.186,0.412,0.412C31.18,50.075,30.996,50.26,30.768,50.26z"/>
			<g>
				
					<linearGradient id="SVGID_60_" gradientUnits="userSpaceOnUse" x1="33.0381" y1="-59.9111" x2="33.0381" y2="-62.0519" gradientTransform="matrix(1 0 0 -1 -6 0)">
					<stop  offset="0" style="stop-color:#000000"/>
					<stop  offset="1" style="stop-color:#808080"/>
				</linearGradient>
				<path fill="url(#SVGID_60_)" d="M27.038,61.982c-0.563,0-1.02-0.459-1.02-1.021c0-0.563,0.457-1.021,1.02-1.021
					s1.02,0.457,1.02,1.021C28.058,61.523,27.6,61.982,27.038,61.982L27.038,61.982z"/>
				
					<radialGradient id="SVGID_61_" cx="123.0957" cy="516.1709" r="1.1038" gradientTransform="matrix(1.833002e-004 1 1.1286 -2.068652e-004 -555.5266 -62.6153)" gradientUnits="userSpaceOnUse">
					<stop  offset="0" style="stop-color:#B0FF04"/>
					<stop  offset="0.5636" style="stop-color:#5AC306"/>
					<stop  offset="0.7394" style="stop-color:#13A400"/>
				</radialGradient>
				<circle fill="url(#SVGID_61_)" cx="27.038" cy="60.963" r="0.673"/>
			</g>
			<g>
				<rect x="22.557" y="63.383" fill="#B3B3B3" width="8.962" height="2.813"/>
				<rect x="23.036" y="63.837" width="8.031" height="2.015"/>
				<g>
					
						<linearGradient id="rect5902_3_" gradientUnits="userSpaceOnUse" x1="290.9131" y1="1008.6416" x2="290.9131" y2="1007.8369" gradientTransform="matrix(1 0 0 1 -264 -944)">
						<stop  offset="0" style="stop-color:#4F4F4F"/>
						<stop  offset="1" style="stop-color:#A2A2A2"/>
					</linearGradient>
					
						<rect id="rect5902_24_" x="24.498" y="63.837" opacity="0.6" fill="url(#rect5902_3_)" enable-background="new    " width="4.83" height="0.806"/>
					
						<linearGradient id="rect5906_3_" gradientUnits="userSpaceOnUse" x1="290.9131" y1="1077.4736" x2="290.9131" y2="1076.6689" gradientTransform="matrix(1 0 0 0.9107 -264 -915.4487)">
						<stop  offset="0" style="stop-color:#000000"/>
						<stop  offset="0.5" style="stop-color:#656565"/>
						<stop  offset="1" style="stop-color:#000000"/>
					</linearGradient>
					<rect id="rect5906_24_" x="24.498" y="65.074" fill="url(#rect5906_3_)" width="4.83" height="0.732"/>
					<rect id="rect5918_24_" x="23.692" y="63.837" fill="#545454" width="0.403" height="2.015"/>
					<rect id="rect5920_24_" x="29.731" y="63.837" fill="#545454" width="0.403" height="2.015"/>
				</g>
			</g>
			<g>
				<rect x="22.557" y="67.152" fill="#B3B3B3" width="8.962" height="2.813"/>
				<rect x="23.036" y="67.605" width="8.031" height="2.015"/>
				<g>
					
						<linearGradient id="rect5902_4_" gradientUnits="userSpaceOnUse" x1="290.9131" y1="1012.4121" x2="290.9131" y2="1011.6055" gradientTransform="matrix(1 0 0 1 -264 -944)">
						<stop  offset="0" style="stop-color:#4F4F4F"/>
						<stop  offset="1" style="stop-color:#A2A2A2"/>
					</linearGradient>
					
						<rect id="rect5902_17_" x="24.498" y="67.605" opacity="0.6" fill="url(#rect5902_4_)" enable-background="new    " width="4.83" height="0.807"/>
					
						<linearGradient id="rect5906_4_" gradientUnits="userSpaceOnUse" x1="290.9131" y1="1081.6143" x2="290.9131" y2="1080.8096" gradientTransform="matrix(1 0 0 0.9107 -264 -915.4487)">
						<stop  offset="0" style="stop-color:#000000"/>
						<stop  offset="0.5" style="stop-color:#656565"/>
						<stop  offset="1" style="stop-color:#000000"/>
					</linearGradient>
					<rect id="rect5906_17_" x="24.498" y="68.845" fill="url(#rect5906_4_)" width="4.83" height="0.732"/>
					<rect id="rect5918_17_" x="23.692" y="67.605" fill="#545454" width="0.403" height="2.015"/>
					<rect id="rect5920_17_" x="29.731" y="67.605" fill="#545454" width="0.403" height="2.015"/>
				</g>
			</g>
			<g>
				
					<linearGradient id="path6049_2_" gradientUnits="userSpaceOnUse" x1="356.7754" y1="-108.0449" x2="359.3991" y2="-108.0449" gradientTransform="matrix(0 1.2347 -1.2347 0 -106.3651 -384.6495)">
					<stop  offset="0" style="stop-color:#000000;stop-opacity:0.4263"/>
					<stop  offset="1" style="stop-color:#FFFFFF;stop-opacity:0.3171"/>
				</linearGradient>
				<path id="path6049_9_" fill="url(#path6049_2_)" d="M27.038,59.102c-1.195,0-2.165-0.97-2.165-2.164s0.97-2.166,2.165-2.166
					c1.196,0,2.165,0.972,2.165,2.166S28.233,59.102,27.038,59.102z"/>
				<path id="path5936_9_" fill="#C6C6C6" stroke="#000000" stroke-width="1.1313" stroke-linecap="square" d="M28.587,56.938
					c0,0.855-0.694,1.551-1.55,1.551s-1.55-0.694-1.55-1.551c0-0.857,0.694-1.551,1.55-1.551S28.587,56.08,28.587,56.938z"/>
				
					<linearGradient id="path6067_2_" gradientUnits="userSpaceOnUse" x1="31.9312" y1="-56.9375" x2="34.145" y2="-56.9375" gradientTransform="matrix(1 0 0 -1 -6 0)">
					<stop  offset="0" style="stop-color:#FFFFFF"/>
					<stop  offset="1" style="stop-color:#7C7C7C"/>
				</linearGradient>
				<path id="path6067_9_" fill="url(#path6067_2_)" d="M27.038,58.045c-0.611,0-1.107-0.496-1.107-1.107
					c0-0.61,0.496-1.107,1.107-1.107c0.611,0,1.107,0.497,1.107,1.107C28.145,57.549,27.649,58.045,27.038,58.045z"/>
				<g opacity="0.4263" enable-background="new    ">
					<path d="M27.521,56.47c-0.042-0.04-0.107-0.04-0.149,0c-0.04,0.042-0.04,0.108,0,0.15l0,0c0.095,0.094,0.142,0.218,0.142,0.341
						s-0.047,0.247-0.142,0.342c-0.094,0.094-0.217,0.143-0.341,0.143c-0.125,0-0.248-0.049-0.341-0.143
						c-0.095-0.095-0.142-0.219-0.142-0.342s0.047-0.247,0.142-0.341c0.041-0.042,0.041-0.108,0-0.15c-0.042-0.04-0.108-0.04-0.15,0
						c-0.135,0.136-0.204,0.313-0.203,0.491c0,0.178,0.068,0.355,0.203,0.491c0.135,0.134,0.313,0.204,0.491,0.204h0.001
						c0.176,0,0.354-0.07,0.49-0.204c0.135-0.136,0.204-0.313,0.203-0.491C27.725,56.783,27.657,56.604,27.521,56.47z"/>
					<path d="M27.031,57.066c0.059,0,0.105-0.047,0.105-0.105v-0.637c0-0.061-0.047-0.106-0.105-0.106
						c-0.058,0-0.105,0.048-0.105,0.106v0.637C26.925,57.021,26.972,57.066,27.031,57.066z"/>
				</g>
			</g>
		</g>
		<g>
			<path id="rect3345_14_" inkscape:connector-curvature="0" fill="#999999" d="M33.979,47.643v1.847v1.848
				c0-0.51,0.414-0.924,0.923-0.924c0.51,0,0.924,0.414,0.924,0.924s-0.414,0.922-0.924,0.922c-0.509,0-0.923-0.412-0.923-0.922
				v1.846v1.847c0-0.509,0.414-0.923,0.923-0.923c0.51,0,0.924,0.414,0.924,0.923c0,0.511-0.414,0.924-0.924,0.924
				c-0.509,0-0.923-0.413-0.923-0.924v1.848v1.847c0-0.509,0.414-0.924,0.923-0.924c0.51,0,0.924,0.415,0.924,0.924
				c0,0.51-0.414,0.924-0.924,0.924c-0.509,0-0.923-0.414-0.923-0.924v1.846v1.848c0-0.509,0.414-0.923,0.923-0.923
				c0.51,0,0.924,0.414,0.924,0.923c0,0.51-0.414,0.924-0.924,0.924c-0.509,0-0.923-0.414-0.923-0.924v1.848v1.846
				c0-0.51,0.414-0.922,0.923-0.922c0.51,0,0.924,0.412,0.924,0.922c0,0.511-0.414,0.924-0.924,0.924
				c-0.509,0-0.923-0.413-0.923-0.924v1.849v1.845c0-0.51,0.414-0.923,0.923-0.923c0.51,0,0.924,0.413,0.924,0.923
				c0,0.512-0.414,0.924-0.924,0.924h1.847h1.846c-0.509,0-0.923-0.412-0.923-0.924c0-0.51,0.415-0.923,0.923-0.923
				c0.51,0,0.924,0.413,0.924,0.923c0,0.512-0.414,0.924-0.924,0.924h1.847h1.846c-0.509,0-0.923-0.412-0.923-0.924
				c0-0.51,0.414-0.923,0.923-0.923v-1.847c-0.509,0-0.923-0.413-0.923-0.924c0-0.51,0.414-0.922,0.923-0.922v-1.848
				c-0.509,0-0.923-0.414-0.923-0.924c0-0.509,0.414-0.923,0.923-0.923v-1.847c-0.509,0-0.923-0.414-0.923-0.924
				c0-0.509,0.414-0.924,0.923-0.924v-1.847c-0.509,0-0.923-0.413-0.923-0.924c0-0.509,0.414-0.923,0.923-0.923V52.26
				c-0.509,0-0.923-0.412-0.923-0.922s0.414-0.924,0.923-0.924v-1.848c-0.509,0-0.923-0.415-0.923-0.923h-1.846
				c0,0.509-0.414,0.923-0.924,0.923c-0.509,0-0.923-0.415-0.923-0.923h-1.846c0,0.509-0.414,0.923-0.924,0.923
				C34.392,48.566,33.979,48.151,33.979,47.643z M34.901,70.725c-0.509,0-0.923-0.412-0.923-0.924v0.924H34.901z M36.749,48.566
				c0.509,0,0.923,0.414,0.923,0.923c0,0.51-0.414,0.924-0.923,0.924c-0.511,0-0.923-0.414-0.923-0.924
				C35.825,48.98,36.238,48.566,36.749,48.566z M40.441,48.566c0.51,0,0.923,0.414,0.923,0.923c0,0.51-0.413,0.924-0.923,0.924
				c-0.51,0-0.923-0.414-0.923-0.924C39.519,48.98,39.932,48.566,40.441,48.566z M38.595,50.413c0.51,0,0.924,0.414,0.924,0.924
				c0,0.511-0.414,0.922-0.924,0.922c-0.509,0-0.923-0.411-0.923-0.922C37.672,50.827,38.086,50.413,38.595,50.413z M36.749,52.259
				c0.509,0,0.923,0.414,0.923,0.925c0,0.51-0.414,0.924-0.923,0.924c-0.511,0-0.923-0.414-0.923-0.924
				C35.826,52.673,36.238,52.259,36.749,52.259z M40.441,52.259c0.51,0,0.923,0.414,0.923,0.925c0,0.51-0.413,0.924-0.923,0.924
				c-0.51,0-0.923-0.414-0.923-0.924C39.518,52.673,39.932,52.259,40.441,52.259z M38.595,54.105c0.51,0,0.924,0.414,0.924,0.922
				c0,0.512-0.414,0.925-0.924,0.925c-0.509,0-0.923-0.413-0.923-0.925C37.671,54.52,38.086,54.105,38.595,54.105z M36.749,55.952
				c0.509,0,0.923,0.414,0.923,0.924c0,0.509-0.414,0.923-0.923,0.923c-0.511,0-0.923-0.414-0.923-0.923
				C35.825,56.366,36.238,55.952,36.749,55.952z M40.441,55.952c0.51,0,0.923,0.414,0.923,0.924c0,0.509-0.413,0.923-0.923,0.923
				c-0.51,0-0.923-0.414-0.923-0.923C39.519,56.366,39.932,55.952,40.441,55.952z M38.595,57.799c0.51,0,0.924,0.415,0.924,0.924
				c0,0.51-0.414,0.924-0.924,0.924c-0.509,0-0.923-0.414-0.923-0.924C37.671,58.214,38.086,57.799,38.595,57.799z M36.749,59.646
				c0.509,0,0.923,0.412,0.923,0.922s-0.414,0.924-0.923,0.924c-0.511,0-0.923-0.414-0.923-0.924
				C35.825,60.061,36.238,59.646,36.749,59.646z M40.441,59.646c0.51,0,0.923,0.412,0.923,0.922s-0.413,0.924-0.923,0.924
				c-0.51,0-0.923-0.414-0.923-0.924C39.519,60.061,39.932,59.646,40.441,59.646z M38.595,61.492c0.51,0,0.924,0.414,0.924,0.923
				c0,0.51-0.414,0.924-0.924,0.924c-0.509,0-0.923-0.414-0.923-0.924C37.671,61.906,38.086,61.492,38.595,61.492z M36.749,63.339
				c0.509,0,0.923,0.414,0.923,0.925c0,0.508-0.414,0.922-0.923,0.922c-0.511,0-0.923-0.414-0.923-0.922
				C35.825,63.753,36.238,63.339,36.749,63.339z M40.441,63.339c0.51,0,0.923,0.414,0.923,0.925c0,0.508-0.413,0.922-0.923,0.922
				c-0.51,0-0.923-0.414-0.923-0.922C39.519,63.753,39.932,63.339,40.441,63.339z M38.595,65.186c0.51,0,0.924,0.414,0.924,0.924
				s-0.414,0.923-0.924,0.923c-0.509,0-0.923-0.413-0.923-0.923S38.086,65.186,38.595,65.186z M36.749,67.031
				c0.509,0,0.923,0.412,0.923,0.925c0,0.508-0.414,0.922-0.923,0.922c-0.511,0-0.923-0.414-0.923-0.922
				C35.825,67.443,36.238,67.031,36.749,67.031z M40.441,67.031c0.51,0,0.923,0.412,0.923,0.925c0,0.508-0.413,0.922-0.923,0.922
				c-0.51,0-0.923-0.414-0.923-0.922C39.519,67.443,39.932,67.031,40.441,67.031z"/>
			<path id="rect3345_13_" inkscape:connector-curvature="0" fill="#999999" d="M33.979,53.938v1.846v1.846
				c0-0.509,0.414-0.923,0.923-0.923c0.51,0,0.924,0.414,0.924,0.923c0,0.51-0.414,0.924-0.924,0.924
				c-0.509,0-0.923-0.414-0.923-0.924v1.85v1.847c0-0.513,0.414-0.925,0.923-0.925c0.51,0,0.924,0.412,0.924,0.925
				c0,0.509-0.414,0.922-0.924,0.922c-0.509,0-0.923-0.413-0.923-0.922v1.846v1.847c0-0.511,0.414-0.924,0.923-0.924
				c0.51,0,0.924,0.413,0.924,0.924c0,0.51-0.414,0.922-0.924,0.922c-0.509,0-0.923-0.412-0.923-0.922v1.848v1.846
				c0-0.509,0.414-0.922,0.923-0.922c0.51,0,0.924,0.413,0.924,0.922c0,0.51-0.414,0.924-0.924,0.924
				c-0.509,0-0.923-0.414-0.923-0.924v1.848V72.4c0-0.508,0.414-0.924,0.923-0.924c0.51,0,0.924,0.416,0.924,0.924
				c0,0.51-0.414,0.923-0.924,0.923c-0.509,0-0.923-0.413-0.923-0.923v1.848v1.846c0-0.509,0.414-0.922,0.923-0.922
				c0.51,0,0.924,0.413,0.924,0.922c0,0.512-0.414,0.926-0.924,0.926h1.847h1.846c-0.509,0-0.923-0.414-0.923-0.926
				c0-0.509,0.415-0.922,0.923-0.922c0.51,0,0.924,0.413,0.924,0.922c0,0.512-0.414,0.926-0.924,0.926h1.847h1.846
				c-0.509,0-0.923-0.414-0.923-0.926c0-0.509,0.414-0.922,0.923-0.922v-1.849c-0.509,0-0.923-0.413-0.923-0.923
				c0-0.508,0.414-0.924,0.923-0.924v-1.846c-0.509,0-0.923-0.414-0.923-0.924c0-0.509,0.414-0.922,0.923-0.922v-1.85
				c-0.509,0-0.923-0.412-0.923-0.922c0-0.511,0.414-0.924,0.923-0.924v-1.847c-0.509,0-0.923-0.413-0.923-0.923
				c0-0.512,0.414-0.924,0.923-0.924v-1.848c-0.509,0-0.923-0.414-0.923-0.924c0-0.509,0.414-0.923,0.923-0.923v-1.847
				c-0.509,0-0.923-0.414-0.923-0.922h-1.846c0,0.508-0.414,0.922-0.924,0.922c-0.509,0-0.923-0.414-0.923-0.922h-1.846
				c0,0.508-0.414,0.922-0.924,0.922C34.392,54.859,33.979,54.445,33.979,53.938z M34.901,77.02c-0.509,0-0.923-0.414-0.923-0.926
				v0.926H34.901z M36.749,54.859c0.509,0,0.923,0.412,0.923,0.923c0,0.51-0.414,0.923-0.923,0.923
				c-0.511,0-0.923-0.413-0.923-0.923C35.826,55.271,36.238,54.859,36.749,54.859z M40.441,54.859c0.51,0,0.923,0.412,0.923,0.923
				c0,0.51-0.413,0.923-0.923,0.923c-0.51,0-0.923-0.413-0.923-0.923C39.518,55.271,39.932,54.859,40.441,54.859z M38.595,56.705
				c0.51,0,0.924,0.414,0.924,0.923c0,0.511-0.414,0.924-0.924,0.924c-0.509,0-0.923-0.413-0.923-0.924
				C37.671,57.119,38.086,56.705,38.595,56.705z M36.749,58.552c0.509,0,0.923,0.414,0.923,0.925c0,0.51-0.414,0.922-0.923,0.922
				c-0.511,0-0.923-0.412-0.923-0.922C35.825,58.966,36.238,58.552,36.749,58.552z M40.441,58.552c0.51,0,0.923,0.414,0.923,0.925
				c0,0.51-0.413,0.922-0.923,0.922c-0.51,0-0.923-0.412-0.923-0.922C39.519,58.966,39.932,58.552,40.441,58.552z M38.595,60.398
				c0.51,0,0.924,0.412,0.924,0.925c0,0.509-0.414,0.922-0.924,0.922c-0.509,0-0.923-0.413-0.923-0.922
				C37.671,60.813,38.086,60.398,38.595,60.398z M36.749,62.245c0.509,0,0.923,0.414,0.923,0.924c0,0.509-0.414,0.923-0.923,0.923
				c-0.511,0-0.923-0.414-0.923-0.923C35.825,62.659,36.238,62.245,36.749,62.245z M40.441,62.245c0.51,0,0.923,0.414,0.923,0.924
				c0,0.509-0.413,0.923-0.923,0.923c-0.51,0-0.923-0.414-0.923-0.923C39.519,62.659,39.932,62.245,40.441,62.245z M38.595,64.092
				c0.51,0,0.924,0.413,0.924,0.924c0,0.51-0.414,0.922-0.924,0.922c-0.509,0-0.923-0.412-0.923-0.922
				C37.671,64.505,38.086,64.092,38.595,64.092z M36.749,65.938c0.509,0,0.923,0.416,0.923,0.926c0,0.509-0.414,0.924-0.923,0.924
				c-0.511,0-0.923-0.415-0.923-0.924C35.826,66.354,36.238,65.938,36.749,65.938z M40.441,65.938c0.51,0,0.923,0.416,0.923,0.926
				c0,0.509-0.413,0.924-0.923,0.924c-0.51,0-0.923-0.415-0.923-0.924C39.518,66.354,39.932,65.938,40.441,65.938z M38.595,67.786
				c0.51,0,0.924,0.413,0.924,0.922c0,0.51-0.414,0.924-0.924,0.924c-0.509,0-0.923-0.414-0.923-0.924
				C37.671,68.199,38.086,67.786,38.595,67.786z M36.749,69.632c0.509,0,0.923,0.414,0.923,0.923c0,0.51-0.414,0.924-0.923,0.924
				c-0.511,0-0.923-0.414-0.923-0.924C35.825,70.046,36.238,69.632,36.749,69.632z M40.441,69.632c0.51,0,0.923,0.414,0.923,0.923
				c0,0.51-0.413,0.924-0.923,0.924c-0.51,0-0.923-0.414-0.923-0.924C39.519,70.046,39.932,69.632,40.441,69.632z M38.595,71.479
				c0.51,0,0.924,0.414,0.924,0.922c0,0.511-0.414,0.924-0.924,0.924c-0.509,0-0.923-0.413-0.923-0.924
				C37.671,71.893,38.086,71.479,38.595,71.479z M36.749,73.323c0.509,0,0.923,0.416,0.923,0.925s-0.414,0.924-0.923,0.924
				c-0.511,0-0.923-0.415-0.923-0.924S36.238,73.323,36.749,73.323z M40.441,73.323c0.51,0,0.923,0.416,0.923,0.925
				s-0.413,0.924-0.923,0.924c-0.51,0-0.923-0.415-0.923-0.924S39.932,73.323,40.441,73.323z"/>
			<path d="M33.777,47.576v29.656h8.962V47.576H33.777z M41.863,74.852h-7.46c-0.227,0-0.412-0.184-0.412-0.412
				c0-0.228,0.185-0.412,0.412-0.412h7.46c0.228,0,0.413,0.185,0.413,0.412C42.276,74.668,42.091,74.852,41.863,74.852z
				 M41.863,73.241h-7.46c-0.227,0-0.412-0.187-0.412-0.412c0-0.229,0.185-0.413,0.412-0.413h7.46c0.228,0,0.413,0.186,0.413,0.413
				C42.276,73.055,42.091,73.241,41.863,73.241z M41.863,71.63h-7.46c-0.227,0-0.412-0.185-0.412-0.412
				c0-0.227,0.185-0.411,0.412-0.411h7.46c0.228,0,0.413,0.185,0.413,0.411C42.276,71.445,42.091,71.63,41.863,71.63z
				 M41.988,53.212h-7.46c-0.228,0-0.412-0.185-0.412-0.412c0-0.227,0.184-0.411,0.412-0.411h7.46c0.228,0,0.412,0.185,0.412,0.411
				C42.4,53.027,42.216,53.212,41.988,53.212z M41.988,51.535h-7.46c-0.228,0-0.412-0.186-0.412-0.413s0.184-0.412,0.412-0.412h7.46
				c0.228,0,0.412,0.187,0.412,0.412C42.4,51.35,42.216,51.535,41.988,51.535z M41.988,49.855h-7.46
				c-0.228,0-0.412-0.185-0.412-0.41c0-0.229,0.184-0.412,0.412-0.412h7.46c0.228,0,0.412,0.184,0.412,0.412
				C42.4,49.672,42.216,49.855,41.988,49.855z"/>
			
				<linearGradient id="SVGID_62_" gradientUnits="userSpaceOnUse" x1="39.7769" y1="-62.4043" x2="48.7383" y2="-62.4043" gradientTransform="matrix(1 0 0 -1 -6 0)">
				<stop  offset="0" style="stop-color:#3C3C3C"/>
				<stop  offset="1" style="stop-color:#191919"/>
			</linearGradient>
			<path fill="url(#SVGID_62_)" d="M33.777,47.576v29.656h8.962V47.576H33.777z M41.863,75.253h-7.46
				c-0.227,0-0.412-0.185-0.412-0.41c0-0.229,0.185-0.413,0.412-0.413h7.46c0.228,0,0.413,0.185,0.413,0.413
				C42.276,75.068,42.091,75.253,41.863,75.253z M41.863,73.645h-7.46c-0.227,0-0.412-0.186-0.412-0.412
				c0-0.229,0.185-0.412,0.412-0.412h7.46c0.228,0,0.413,0.185,0.413,0.412C42.276,73.459,42.091,73.645,41.863,73.645z
				 M41.863,72.034h-7.46c-0.227,0-0.412-0.187-0.412-0.413s0.185-0.413,0.412-0.413h7.46c0.228,0,0.413,0.187,0.413,0.413
				C42.276,71.85,42.091,72.034,41.863,72.034z M41.988,53.613h-7.46c-0.228,0-0.412-0.184-0.412-0.41
				c0-0.229,0.184-0.413,0.412-0.413h7.46c0.228,0,0.412,0.185,0.412,0.413S42.216,53.613,41.988,53.613z M41.988,51.938h-7.46
				c-0.228,0-0.412-0.185-0.412-0.412c0-0.229,0.184-0.411,0.412-0.411h7.46c0.228,0,0.412,0.184,0.412,0.411
				S42.216,51.938,41.988,51.938z M41.988,50.26h-7.46c-0.228,0-0.412-0.185-0.412-0.412c0-0.227,0.184-0.412,0.412-0.412h7.46
				c0.228,0,0.412,0.186,0.412,0.412C42.4,50.075,42.216,50.26,41.988,50.26z"/>
			<g>
				
					<linearGradient id="SVGID_63_" gradientUnits="userSpaceOnUse" x1="44.2578" y1="-59.9111" x2="44.2578" y2="-62.0519" gradientTransform="matrix(1 0 0 -1 -6 0)">
					<stop  offset="0" style="stop-color:#000000"/>
					<stop  offset="1" style="stop-color:#808080"/>
				</linearGradient>
				<path fill="url(#SVGID_63_)" d="M38.258,61.982c-0.563,0-1.02-0.459-1.02-1.021c0-0.563,0.458-1.021,1.02-1.021
					s1.02,0.457,1.02,1.021C39.278,61.523,38.82,61.982,38.258,61.982L38.258,61.982z"/>
				
					<radialGradient id="SVGID_64_" cx="134.3164" cy="516.1719" r="1.1033" gradientTransform="matrix(1.833002e-004 1 1.1286 -2.068652e-004 -544.3088 -73.835)" gradientUnits="userSpaceOnUse">
					<stop  offset="0" style="stop-color:#B0FF04"/>
					<stop  offset="0.5636" style="stop-color:#5AC306"/>
					<stop  offset="0.7394" style="stop-color:#13A400"/>
				</radialGradient>
				<circle fill="url(#SVGID_64_)" cx="38.258" cy="60.963" r="0.673"/>
			</g>
			<g>
				<rect x="33.777" y="63.383" fill="#B3B3B3" width="8.962" height="2.813"/>
				<rect x="34.256" y="63.837" width="8.031" height="2.015"/>
				<g>
					
						<linearGradient id="rect5902_5_" gradientUnits="userSpaceOnUse" x1="302.1328" y1="1008.6416" x2="302.1328" y2="1007.8369" gradientTransform="matrix(1 0 0 1 -264 -944)">
						<stop  offset="0" style="stop-color:#4F4F4F"/>
						<stop  offset="1" style="stop-color:#A2A2A2"/>
					</linearGradient>
					
						<rect id="rect5902_16_" x="35.718" y="63.837" opacity="0.6" fill="url(#rect5902_5_)" enable-background="new    " width="4.831" height="0.806"/>
					
						<linearGradient id="rect5906_5_" gradientUnits="userSpaceOnUse" x1="302.1328" y1="1077.4736" x2="302.1328" y2="1076.6689" gradientTransform="matrix(1 0 0 0.9107 -264 -915.4487)">
						<stop  offset="0" style="stop-color:#000000"/>
						<stop  offset="0.5" style="stop-color:#656565"/>
						<stop  offset="1" style="stop-color:#000000"/>
					</linearGradient>
					<rect id="rect5906_16_" x="35.718" y="65.074" fill="url(#rect5906_5_)" width="4.831" height="0.732"/>
					<rect id="rect5918_16_" x="34.913" y="63.837" fill="#545454" width="0.402" height="2.015"/>
					<rect id="rect5920_16_" x="40.952" y="63.837" fill="#545454" width="0.403" height="2.015"/>
				</g>
			</g>
			<g>
				<rect x="33.777" y="67.152" fill="#B3B3B3" width="8.962" height="2.813"/>
				<rect x="34.256" y="67.605" width="8.031" height="2.015"/>
				<g>
					
						<linearGradient id="rect5902_6_" gradientUnits="userSpaceOnUse" x1="302.1328" y1="1012.4121" x2="302.1328" y2="1011.6055" gradientTransform="matrix(1 0 0 1 -264 -944)">
						<stop  offset="0" style="stop-color:#4F4F4F"/>
						<stop  offset="1" style="stop-color:#A2A2A2"/>
					</linearGradient>
					
						<rect id="rect5902_15_" x="35.718" y="67.605" opacity="0.6" fill="url(#rect5902_6_)" enable-background="new    " width="4.831" height="0.807"/>
					
						<linearGradient id="rect5906_6_" gradientUnits="userSpaceOnUse" x1="302.1328" y1="1081.6143" x2="302.1328" y2="1080.8096" gradientTransform="matrix(1 0 0 0.9107 -264 -915.4487)">
						<stop  offset="0" style="stop-color:#000000"/>
						<stop  offset="0.5" style="stop-color:#656565"/>
						<stop  offset="1" style="stop-color:#000000"/>
					</linearGradient>
					<rect id="rect5906_15_" x="35.718" y="68.845" fill="url(#rect5906_6_)" width="4.831" height="0.732"/>
					<rect id="rect5918_15_" x="34.913" y="67.605" fill="#545454" width="0.402" height="2.015"/>
					<rect id="rect5920_15_" x="40.952" y="67.605" fill="#545454" width="0.403" height="2.015"/>
				</g>
			</g>
			<g>
				
					<linearGradient id="path6049_3_" gradientUnits="userSpaceOnUse" x1="356.7754" y1="-117.1313" x2="359.3991" y2="-117.1313" gradientTransform="matrix(0 1.2347 -1.2347 0 -106.3651 -384.6495)">
					<stop  offset="0" style="stop-color:#000000;stop-opacity:0.4263"/>
					<stop  offset="1" style="stop-color:#FFFFFF;stop-opacity:0.3171"/>
				</linearGradient>
				<path id="path6049_8_" fill="url(#path6049_3_)" d="M38.258,59.102c-1.196,0-2.166-0.97-2.166-2.164s0.97-2.166,2.166-2.166
					c1.195,0,2.165,0.972,2.165,2.166S39.454,59.102,38.258,59.102z"/>
				<path id="path5936_8_" fill="#C6C6C6" stroke="#000000" stroke-width="1.1313" stroke-linecap="square" d="M39.808,56.938
					c0,0.855-0.693,1.551-1.549,1.551c-0.857,0-1.55-0.694-1.55-1.551c0-0.857,0.693-1.551,1.55-1.551
					C39.114,55.387,39.808,56.08,39.808,56.938z"/>
				
					<linearGradient id="path6067_3_" gradientUnits="userSpaceOnUse" x1="43.1509" y1="-56.9375" x2="45.3652" y2="-56.9375" gradientTransform="matrix(1 0 0 -1 -6 0)">
					<stop  offset="0" style="stop-color:#FFFFFF"/>
					<stop  offset="1" style="stop-color:#7C7C7C"/>
				</linearGradient>
				<path id="path6067_8_" fill="url(#path6067_3_)" d="M38.258,58.045c-0.612,0-1.107-0.496-1.107-1.107
					c0-0.61,0.496-1.107,1.107-1.107c0.611,0,1.107,0.497,1.107,1.107C39.365,57.549,38.87,58.045,38.258,58.045z"/>
				<g opacity="0.4263" enable-background="new    ">
					<path d="M38.742,56.47c-0.041-0.04-0.107-0.04-0.149,0c-0.041,0.042-0.041,0.108,0,0.15l0,0
						c0.095,0.094,0.142,0.218,0.142,0.341s-0.047,0.247-0.142,0.342c-0.094,0.094-0.218,0.143-0.341,0.143
						c-0.125,0-0.248-0.049-0.341-0.143c-0.095-0.095-0.142-0.219-0.142-0.342s0.047-0.247,0.142-0.341
						c0.041-0.042,0.041-0.108,0-0.15c-0.042-0.04-0.109-0.04-0.149,0c-0.136,0.136-0.204,0.313-0.204,0.491
						s0.068,0.355,0.204,0.491c0.134,0.134,0.313,0.204,0.491,0.204h0.001c0.176,0,0.355-0.07,0.49-0.204
						c0.135-0.136,0.204-0.313,0.204-0.491C38.946,56.783,38.877,56.604,38.742,56.47z"/>
					<path d="M38.251,57.066c0.058,0,0.105-0.047,0.105-0.105v-0.637c0-0.061-0.047-0.106-0.105-0.106
						c-0.059,0-0.106,0.048-0.106,0.106v0.637C38.145,57.021,38.192,57.066,38.251,57.066z"/>
				</g>
			</g>
		</g>
		<path opacity="0.3" enable-background="new    " d="M42.134,76.764H11.941c-0.666,0-1.208-0.541-1.208-1.207v1.207
			c0,0.666,0.542,1.207,1.208,1.207h30.193c0.667,0,1.208-0.541,1.208-1.207v-1.207C43.343,76.223,42.801,76.764,42.134,76.764z"/>
	</g>
	
		<linearGradient id="SVGID_65_" gradientUnits="userSpaceOnUse" x1="-558.2715" y1="23.1904" x2="-554.8447" y2="23.1904" gradientTransform="matrix(0 -1 -1 0 71.2588 -493.375)">
		<stop  offset="0" style="stop-color:#333333"/>
		<stop  offset="0.0606" style="stop-color:#D6D6D6"/>
		<stop  offset="0.099" style="stop-color:#D1D1D1"/>
		<stop  offset="0.1438" style="stop-color:#C3C3C3"/>
		<stop  offset="0.1918" style="stop-color:#ACACAC"/>
		<stop  offset="0.2421" style="stop-color:#8B8B8B"/>
		<stop  offset="0.2937" style="stop-color:#616161"/>
		<stop  offset="0.297" style="stop-color:#5E5E5E"/>
		<stop  offset="0.3317" style="stop-color:#808080"/>
		<stop  offset="0.3701" style="stop-color:#9D9D9D"/>
		<stop  offset="0.4131" style="stop-color:#B5B5B5"/>
		<stop  offset="0.4616" style="stop-color:#C7C7C7"/>
		<stop  offset="0.5191" style="stop-color:#D4D4D4"/>
		<stop  offset="0.594" style="stop-color:#DCDCDC"/>
		<stop  offset="0.7515" style="stop-color:#DEDEDE"/>
		<stop  offset="1" style="stop-color:#404040"/>
	</linearGradient>
	<rect x="43.947" y="61.47" fill="url(#SVGID_65_)" width="8.243" height="3.427"/>
	<g opacity="0.3">
		<rect x="68.49" y="24.875" width="3.426" height="6.542"/>
		<rect x="62.797" y="22.412" width="6.832" height="3.426"/>
	</g>
	<path d="M70.934,21.875h-6.963c-0.553,0-1,0.448-1,1v2.213c0,0.552,0.447,1,1,1h4.008v4.049c0,0.553,0.447,1,1,1h2.213
		c0.554,0,1-0.447,1-1v-6.963C72.191,22.412,71.703,21.875,70.934,21.875z"/>
	<g>
		<path fill="#333333" d="M71.191,30.641h-2.213c-0.554,0-1-0.447-1-1v0.497c0,0.553,0.446,1,1,1h2.213c0.553,0,1-0.447,1-1v-0.497
			C72.191,30.193,71.744,30.641,71.191,30.641z"/>
		<path fill="#333333" d="M63.467,25.088v-2.213c0-0.552,0.447-1,1-1h-0.496c-0.553,0-1,0.448-1,1v2.213c0,0.552,0.447,1,1,1h0.496
			C63.914,26.088,63.467,25.64,63.467,25.088z"/>
	</g>
	<path opacity="0.1" fill="#FFFFFF" enable-background="new    " d="M62.971,22.875v0.883h7.178v7.379h1.043
		c0.091,0,0.172-0.029,0.257-0.052v-8.627h-8.38C63.01,22.586,62.971,22.725,62.971,22.875z"/>
	<path opacity="0.2" fill="#FFFFFF" enable-background="new    " d="M70.398,23.508v7.629h0.793c0.002,0,0.004-0.001,0.006-0.001
		v-7.627v-0.8h-0.799h-7.396c-0.01,0.056-0.032,0.107-0.032,0.167v0.633L70.398,23.508L70.398,23.508z"/>
	
		<radialGradient id="SVGID_66_" cx="77.21" cy="-22.6724" r="4.2318" gradientTransform="matrix(1 0 0 -1 -6 0)" gradientUnits="userSpaceOnUse">
		<stop  offset="0" style="stop-color:#FFFFFF"/>
		<stop  offset="1" style="stop-color:#FFFFFF;stop-opacity:0"/>
	</radialGradient>
	<path opacity="0.2" fill="url(#SVGID_66_)" enable-background="new    " d="M70.398,23.508v7.629h0.793
		c0.002,0,0.004-0.001,0.006-0.001v-7.627v-0.8h-0.799h-7.396c-0.01,0.056-0.032,0.107-0.032,0.167v0.633L70.398,23.508
		L70.398,23.508z"/>
</g>
</svg>
