<?xml version="1.0" encoding="utf-8"?>
<!-- Generator: Adobe Illustrator 14.0.0, SVG Export Plug-In . SVG Version: 6.00 Build 43363)  -->
<!DOCTYPE svg PUBLIC "-//W3C//DTD SVG 1.1//EN" "http://www.w3.org/Graphics/SVG/1.1/DTD/svg11.dtd">
<svg version="1.1"
	 id="svg2408" xmlns:dc="http://purl.org/dc/elements/1.1/" xmlns:svg="http://www.w3.org/2000/svg" xmlns:cc="http://creativecommons.org/ns#" xmlns:rdf="http://www.w3.org/1999/02/22-rdf-syntax-ns#" xmlns:inkscape="http://www.inkscape.org/namespaces/inkscape"
	 xmlns="http://www.w3.org/2000/svg" xmlns:xlink="http://www.w3.org/1999/xlink" x="0px" y="0px" width="96px" height="96px"
	 viewBox="0 0 96 96" enable-background="new 0 0 96 96" xml:space="preserve">
<g>
	<linearGradient id="SVGID_1_" gradientUnits="userSpaceOnUse" x1="2" y1="48" x2="94" y2="48">
		<stop  offset="0" style="stop-color:#000000"/>
		<stop  offset="1" style="stop-color:#000000;stop-opacity:0.5882"/>
	</linearGradient>
	<path opacity="0.08" fill="url(#SVGID_1_)" enable-background="new    " d="M10.5,93C5.813,93,2,89.187,2,84.5v-73
		C2,6.813,5.813,3,10.5,3h75c4.145,0,7.786,3.007,8.5,7v74.5c0,4.687-3.813,8.5-8.5,8.5H10.5z"/>
	<linearGradient id="SVGID_2_" gradientUnits="userSpaceOnUse" x1="3" y1="48" x2="93" y2="48">
		<stop  offset="0" style="stop-color:#000000"/>
		<stop  offset="1" style="stop-color:#000000;stop-opacity:0.5882"/>
	</linearGradient>
	<path opacity="0.1" fill="url(#SVGID_2_)" enable-background="new    " d="M10.5,92C6.364,92,3,88.636,3,84.5v-73
		C3,7.364,6.364,4,10.5,4h75c3.968,0,7.242,3.097,7.5,7v73.5c0,4.136-3.364,7.5-7.5,7.5H10.5z"/>
	<linearGradient id="SVGID_3_" gradientUnits="userSpaceOnUse" x1="4" y1="48" x2="92" y2="48">
		<stop  offset="0" style="stop-color:#000000"/>
		<stop  offset="1" style="stop-color:#000000;stop-opacity:0.5882"/>
	</linearGradient>
	<path opacity="0.2" fill="url(#SVGID_3_)" enable-background="new    " d="M10.5,91C6.916,91,4,88.084,4,84.5v-73
		C4,7.916,6.916,5,10.5,5h75c3.584,0,6.5,2.916,6.5,6.5v73c0,3.584-2.916,6.5-6.5,6.5H10.5z"/>
	<linearGradient id="SVGID_4_" gradientUnits="userSpaceOnUse" x1="47.9995" y1="8" x2="47.9995" y2="90.4195">
		<stop  offset="0" style="stop-color:#000000"/>
		<stop  offset="1" style="stop-color:#000000;stop-opacity:0.5882"/>
	</linearGradient>
	<path opacity="0.45" fill="url(#SVGID_4_)" enable-background="new    " d="M90,12.5c0-2.484-2.016-4.5-4.5-4.5h-75
		C8.015,8,6,10.016,6,12.5v18V63v22.5c0,2.487,2.015,4.5,4.5,4.5h75c2.484,0,4.5-2.013,4.5-4.5V12.5z"/>
</g>
<g>
	<path fill="#206E1E" d="M90,84.5c0,2.487-2.016,4.5-4.5,4.5h-75C8.015,89,6,86.987,6,84.5v-57c0-2.484,2.015-4.5,4.5-4.5h75
		c2.484,0,4.5,2.016,4.5,4.5V84.5z"/>
</g>
<linearGradient id="SVGID_5_" gradientUnits="userSpaceOnUse" x1="48.0005" y1="84.5" x2="48.0005" y2="5.0005">
	<stop  offset="0" style="stop-color:#13A400"/>
	<stop  offset="1" style="stop-color:#5AC306"/>
</linearGradient>
<path fill="url(#SVGID_5_)" d="M90,80c0,2.487-2.016,4.5-4.5,4.5h-75C8.015,84.5,6,82.487,6,80V9.5C6,7.016,8.015,5,10.5,5h75
	C87.984,5,90,7.016,90,9.5V80z"/>
<path fill="#37B403" d="M10.5,83c-1.654,0-3-1.346-3-3V9.5c0-1.654,1.346-3,3-3h75c1.654,0,3,1.346,3,3V80c0,1.654-1.346,3-3,3H10.5
	z"/>
<radialGradient id="SVGID_6_" cx="48" cy="44.75" r="39.3911" gradientUnits="userSpaceOnUse">
	<stop  offset="0" style="stop-color:#FFFFFF"/>
	<stop  offset="1" style="stop-color:#FFFFFF;stop-opacity:0"/>
</radialGradient>
<path opacity="0.3" fill="url(#SVGID_6_)" d="M10.5,83c-1.654,0-3-1.346-3-3V9.5c0-1.654,1.346-3,3-3h75c1.654,0,3,1.346,3,3V80
	c0,1.654-1.346,3-3,3H10.5z"/>
<radialGradient id="SVGID_7_" cx="47" cy="7.75" r="40.8905" gradientUnits="userSpaceOnUse">
	<stop  offset="0" style="stop-color:#FFFFFF"/>
	<stop  offset="1" style="stop-color:#FFFFFF;stop-opacity:0"/>
</radialGradient>
<path display="none" opacity="0.2" fill="url(#SVGID_7_)" d="M90,80c0,2.487-2.016,4.5-4.5,4.5h-75C8.015,84.5,6,82.487,6,80V9.5
	C6,7.016,8.015,5,10.5,5h75C87.984,5,90,7.016,90,9.5V80z"/>
<g opacity="0.2">
	<radialGradient id="SVGID_8_" cx="45.6665" cy="47" r="255.6421" gradientUnits="userSpaceOnUse">
		<stop  offset="0" style="stop-color:#FFFFFF"/>
		<stop  offset="1" style="stop-color:#FFFFFF;stop-opacity:0"/>
	</radialGradient>
	<polygon fill="url(#SVGID_8_)" points="22.984,83 32.59,83 88.5,27.091 88.5,17.485 	"/>
	<radialGradient id="SVGID_9_" cx="45.6665" cy="47" r="255.6422" gradientUnits="userSpaceOnUse">
		<stop  offset="0" style="stop-color:#FFFFFF"/>
		<stop  offset="1" style="stop-color:#FFFFFF;stop-opacity:0"/>
	</radialGradient>
	<polygon fill="url(#SVGID_9_)" points="43.738,6.5 7.5,42.738 7.5,52.344 53.344,6.5 	"/>
	<radialGradient id="SVGID_10_" cx="45.6665" cy="47" r="255.6426" gradientUnits="userSpaceOnUse">
		<stop  offset="0" style="stop-color:#FFFFFF"/>
		<stop  offset="1" style="stop-color:#FFFFFF;stop-opacity:0"/>
	</radialGradient>
	<polygon fill="url(#SVGID_10_)" points="62.32,6.5 7.5,61.32 7.5,70.926 71.926,6.5 	"/>
	<radialGradient id="SVGID_11_" cx="45.6665" cy="47" r="255.6421" gradientUnits="userSpaceOnUse">
		<stop  offset="0" style="stop-color:#FFFFFF"/>
		<stop  offset="1" style="stop-color:#FFFFFF;stop-opacity:0"/>
	</radialGradient>
	<polygon fill="url(#SVGID_11_)" points="51.173,83 88.5,45.673 88.5,36.068 41.567,83 	"/>
	<radialGradient id="SVGID_12_" cx="45.6665" cy="47" r="255.6421" gradientUnits="userSpaceOnUse">
		<stop  offset="0" style="stop-color:#FFFFFF"/>
		<stop  offset="1" style="stop-color:#FFFFFF;stop-opacity:0"/>
	</radialGradient>
	<polygon fill="url(#SVGID_12_)" points="69.755,83 88.5,64.255 88.5,54.65 60.149,83 	"/>
	<radialGradient id="SVGID_13_" cx="45.6665" cy="47" r="255.6421" gradientUnits="userSpaceOnUse">
		<stop  offset="0" style="stop-color:#FFFFFF"/>
		<stop  offset="1" style="stop-color:#FFFFFF;stop-opacity:0"/>
	</radialGradient>
	<path fill="url(#SVGID_13_)" d="M85.5,83c1.655,0,3-1.347,3-3v-6.769L78.731,83H85.5z"/>
	<radialGradient id="SVGID_14_" cx="45.6665" cy="47" r="255.6419" gradientUnits="userSpaceOnUse">
		<stop  offset="0" style="stop-color:#FFFFFF"/>
		<stop  offset="1" style="stop-color:#FFFFFF;stop-opacity:0"/>
	</radialGradient>
	<path fill="url(#SVGID_14_)" d="M10.5,83h3.508L88.361,8.647C87.991,7.41,86.855,6.5,85.5,6.5h-4.598L7.5,79.902V80
		C7.5,81.653,8.845,83,10.5,83z"/>
	<radialGradient id="SVGID_15_" cx="45.6665" cy="47" r="255.6419" gradientUnits="userSpaceOnUse">
		<stop  offset="0" style="stop-color:#FFFFFF"/>
		<stop  offset="1" style="stop-color:#FFFFFF;stop-opacity:0"/>
	</radialGradient>
	<path fill="url(#SVGID_15_)" d="M10.5,6.5c-1.654,0-3,1.346-3,3v5.576L16.076,6.5H10.5z"/>
	<radialGradient id="SVGID_16_" cx="45.6665" cy="47" r="255.6414" gradientUnits="userSpaceOnUse">
		<stop  offset="0" style="stop-color:#FFFFFF"/>
		<stop  offset="1" style="stop-color:#FFFFFF;stop-opacity:0"/>
	</radialGradient>
	<polygon fill="url(#SVGID_16_)" points="25.053,6.5 7.5,24.053 7.5,33.658 34.658,6.5 	"/>
</g>
<g id="layer4">
	<path id="path4259" opacity="0.05" enable-background="new    " d="M16.655,14.687c0.002,0-0.159,0.032-0.156,0.031
		c0.001,0-0.047-0.011-0.094,0c0,0-0.031,0.024-0.063,0.031c-0.073,0.016-0.156,0.031-0.156,0.031l-0.281,0.094
		c0,0-0.25,0.094-0.25,0.094c-0.001,0-0.25,0.125-0.25,0.125s-0.093,0.062-0.094,0.063s0.002,0.03,0,0.031
		c-0.012,0.009-0.047,0.02-0.063,0.031c-0.031,0.023-0.031,0.031-0.031,0.031c-0.02,0.012-0.048,0.022-0.063,0.031
		c-0.007,0.004-0.026-0.003-0.031,0c0,0-0.343,0.312-0.343,0.312s-0.093,0.092-0.094,0.094c-0.003,0.004,0.004,0.025,0,0.031
		c-0.009,0.012-0.02,0.016-0.031,0.031c-0.023,0.031-0.031,0.031-0.031,0.031c0,0-0.187,0.25-0.188,0.25
		c0,0-0.125,0.218-0.125,0.219l-0.094,0.219c0,0-0.078,0.141-0.094,0.188s-0.031,0.094-0.031,0.094s0.016-0.008,0,0.031
		c-0.008,0.02-0.025,0.017-0.031,0.031c-0.003,0.007,0.002,0.026,0,0.031c0,0-0.094,0.406-0.094,0.406c0,0,0.003,0.081,0,0.125
		c0,0,0.001,0.023,0,0.031c0,0.006,0,0.022,0,0.031c-0.002,0.009,0.002,0.021,0,0.031s0.002,0.022,0,0.031s-0.03-0.007-0.031,0
		s0.001,0.026,0,0.031h0.031l1.031,0.219h-1.063v16c0,0,0,0.185,0,0.188c0.001,0.006-0.001,0.022,0,0.031
		c0.003,0.018-0.004,0.039,0,0.063c0.008,0.047,0.031,0.031,0.031,0.031c0,0,0.031,0.312,0.031,0.313c0,0-0.008,0.016,0,0.063
		c0.004,0.023,0.028,0.045,0.031,0.063c0,0.003,0,0.029,0,0.031c0,0,0.125,0.375,0.125,0.375l0.156,0.281c0,0,0.125,0.25,0.125,0.25
		c0.001,0.001,0.188,0.25,0.188,0.25c0,0,0.031,0.023,0.063,0.063c0.016,0.02,0.02,0.048,0.031,0.063
		c0.006,0.007,0.027-0.004,0.031,0c0.002,0.002-0.001,0.029,0,0.031c0,0,0.154,0.155,0.156,0.156s0.029-0.002,0.031,0
		c0.004,0.004-0.007,0.025,0,0.031c0.015,0.012,0.043,0.016,0.063,0.031c0.039,0.031,0.063,0.063,0.063,0.063
		c0,0,0.25,0.187,0.25,0.187c0.001,0.001,0.25,0.125,0.25,0.125c0.001,0,0.281,0.156,0.281,0.156c0.001,0,0.25,0.094,0.25,0.094
		s0.123,0.031,0.125,0.031s0.028,0,0.031,0c0.018,0.003,0.039,0.027,0.063,0.031c0.047,0.008,0.062,0,0.063,0l0.313,0.031
		c0,0-0.016,0.023,0.031,0.031c0.023,0.004,0.044-0.003,0.063,0c0.009,0.001,0.025-0.001,0.031,0c0.063,0.005,0.125,0.005,0.188,0
		h4.938v3.531v11.594c0,12.625,10.25,22.875,22.875,22.875h14.375h19.813c0,0,0.186,0,0.188,0c0.006-0.001,0.022,0.002,0.031,0
		c0.018-0.003,0.039,0.004,0.063,0c0.047-0.008,0.031-0.031,0.031-0.031l0.313-0.031c0,0,0.016,0.008,0.063,0
		c0.023-0.004,0.045-0.028,0.063-0.031c0.003,0,0.029,0,0.031,0l0.375-0.125l0.281-0.156l0.25-0.125l0.25-0.188
		c0,0,0.023-0.031,0.063-0.063c0.02-0.016,0.048-0.02,0.063-0.031c0.008-0.006-0.004-0.027,0-0.031c0.002-0.002,0.029,0.002,0.031,0
		c0,0,0.154-0.154,0.156-0.156s-0.002-0.029,0-0.031c0.004-0.004,0.025,0.008,0.031,0c0.012-0.015,0.016-0.043,0.031-0.063
		c0.031-0.039,0.063-0.063,0.063-0.063l0.188-0.25l0.125-0.25l0.156-0.281l0.094-0.25c0,0,0.031-0.123,0.031-0.125s0-0.028,0-0.031
		c0.003-0.018,0.027-0.039,0.031-0.063c0.008-0.047,0-0.063,0-0.063l0.031-0.313c0,0,0.023,0.016,0.031-0.031
		c0.004-0.023-0.003-0.045,0-0.063c0.002-0.009-0.001-0.025,0-0.031c0.006-0.063,0.006-0.125,0-0.188V51.938V37.562
		c0-12.625-10.25-22.875-22.875-22.875h-6.188h-8h-20H17.03h-0.031h-0.063h-0.063c-0.053,0-0.156,0-0.156,0
		C16.696,14.687,16.676,14.687,16.655,14.687z"/>
	<path id="path4255" opacity="0.1" enable-background="new    " d="M16.78,15.75c-0.053,0.006-0.105,0.017-0.156,0.031
		c0,0-0.156,0.031-0.156,0.031l-0.188,0.063c0,0-0.156,0.063-0.156,0.063c-0.001,0-0.156,0.094-0.157,0.094
		c0,0-0.125,0.093-0.125,0.094c0,0-0.156,0.093-0.156,0.094s-0.125,0.125-0.125,0.125s-0.093,0.125-0.094,0.125
		s-0.125,0.156-0.125,0.156c0,0-0.094,0.156-0.094,0.156c0,0-0.063,0.125-0.063,0.125l-0.063,0.188c0,0-0.063,0.156-0.063,0.156
		c0,0-0.031,0.156-0.031,0.156v0.188c0,0-0.031,0.156-0.031,0.156v16l0.031,0.188c0,0,0.031,0.218,0.031,0.219l0.031,0.188
		c0,0,0.063,0.156,0.063,0.156l0.094,0.188c0,0,0.093,0.156,0.093,0.156c0.001,0.001,0.125,0.156,0.125,0.157
		s0.125,0.156,0.125,0.156s0.156,0.125,0.156,0.125c0,0,0.156,0.125,0.156,0.125l0.156,0.094c0,0,0.187,0.094,0.188,0.094
		c0,0,0.156,0.063,0.156,0.063l0.188,0.031c0,0,0.218,0.031,0.218,0.031c0.001,0,0.188,0.031,0.188,0.031h6v4.594v11.594
		c0,12.041,9.771,21.813,21.813,21.813h14.375h19.813l0.188-0.031l0.219-0.031l0.188-0.031l0.156-0.063l0.188-0.094l0.156-0.094
		l0.156-0.125l0.156-0.125L80.529,73l0.125-0.156l0.094-0.156l0.094-0.188l0.063-0.156l0.031-0.188l0.031-0.219l0.031-0.188V51.938
		V37.562c0-12.042-9.771-21.813-21.813-21.813h-6.188h-8h-20H17.03c0,0-0.02,0-0.031,0c-0.024,0-0.027,0-0.063,0
		c0,0-0.027,0-0.063,0C16.82,15.75,16.78,15.75,16.78,15.75z"/>
	<path id="path4251" opacity="0.15" enable-background="new    " d="M16.905,16.75c-0.515,0.05-0.906,0.483-0.906,1v16
		c0.002,0.551,0.449,0.998,1,1h7v5.594v11.594c0,11.509,9.304,20.813,20.813,20.813h14.375h19.813c0.551-0.002,0.998-0.449,1-1
		V51.938V37.562c0-11.509-9.304-20.813-20.813-20.813h-6.188h-8h-20h-8C16.967,16.748,16.936,16.748,16.905,16.75z"/>
	<path id="path4247" inkscape:connector-curvature="0" opacity="0.3" enable-background="new    " d="M16.999,17.75v16h8v6.594
		v11.594c0,10.969,8.844,19.813,19.813,19.813h14.375h19.813V51.938V37.562c0-10.969-8.844-19.813-19.813-19.813h-6.188h-8h-20
		H16.999z"/>
	<path id="rect3374" inkscape:connector-curvature="0" fill="#FFFFFF" d="M16.999,16.75v16h8v6.594v11.594
		c0,10.969,8.844,19.813,19.813,19.813h14.375h19.813V50.938V36.562c0-10.969-8.844-19.813-19.813-19.813h-6.188h-8h-20H16.999z"/>
	
		<linearGradient id="path3389_1_" gradientUnits="userSpaceOnUse" x1="301.1982" y1="-269.3486" x2="317.1985" y2="-317.3494" gradientTransform="matrix(1 0 0 -1 -258 -252)">
		<stop  offset="0" style="stop-color:#C7F994"/>
		<stop  offset="1" style="stop-color:#87CF3E"/>
	</linearGradient>
	<path id="path3389" inkscape:connector-curvature="0" fill="url(#path3389_1_)" d="M20.999,20.75v8h4c2.095-0.001,4.001,1.905,4,4
		v6.594v11.594c0,8.821,6.991,15.813,15.813,15.813h14.375h15.813V50.938V36.562c0-8.821-6.991-15.813-15.813-15.813h-6.188h-8h-20
		H20.999z"/>
	<path id="path4221" opacity="0.08" enable-background="new    " d="M34.842,24.75c-0.212,0.073-0.352,0.276-0.344,0.5v27v1
		c0,4.705,3.795,8.5,8.5,8.5h18c4.705,0,8.5-3.795,8.5-8.5v-1v-14c0-4.142-3.358-7.5-7.5-7.5c-1.934,0-3.672,0.768-5,1.969
		c-1.328-1.201-3.066-1.969-5-1.969c-4.141,0-7.5,3.358-7.5,7.5v12c0.006,0.274,0.227,0.495,0.5,0.501h4
		c0.273-0.006,0.494-0.227,0.5-0.501v-12c0-1.381,1.119-2.5,2.5-2.5s2.5,1.119,2.5,2.5v12c0.006,0.274,0.227,0.495,0.5,0.501h4
		c0.273-0.006,0.494-0.227,0.5-0.501v-12c0-1.381,1.119-2.5,2.5-2.5s2.5,1.119,2.5,2.5v14v1c0,1.942-1.558,3.5-3.5,3.5h-18
		c-1.942,0-3.5-1.558-3.5-3.5v-1v-27c-0.006-0.274-0.227-0.495-0.5-0.5h-4C34.947,24.742,34.894,24.742,34.842,24.75z"/>
	
		<linearGradient id="path4203_1_" gradientUnits="userSpaceOnUse" x1="292.957" y1="-313.5444" x2="313.4139" y2="-289.2282" gradientTransform="matrix(1 0 0 -1 -258 -252)">
		<stop  offset="0" style="stop-color:#000000"/>
		<stop  offset="1" style="stop-color:#000000;stop-opacity:0"/>
	</linearGradient>
	<path id="path4203" inkscape:connector-curvature="0" opacity="0.175" fill="url(#path4203_1_)" enable-background="new    " d="
		M20.999,26.968v1.781h4c2.095-0.001,4.001,1.905,4,4v6.594v11.594c0,8.821,6.991,15.813,15.813,15.813h14.375h14.438
		C58.865,59.665,59.361,41.535,45.78,32.468C38.129,27.362,25.094,26.959,20.999,26.968z"/>
	<path id="path4217" inkscape:connector-curvature="0" opacity="0.2" enable-background="new    " d="M34.999,25.25v27v1
		c0,4.432,3.568,8,8,8h18c4.432,0,8-3.568,8-8v-1v-14c0-3.866-3.134-7-7-7c-1.965,0-3.729,0.822-5,2.125
		c-1.271-1.303-3.035-2.125-5-2.125c-3.866,0-7,3.134-7,7v12h4v-12c0-1.657,1.344-3,3-3s3,1.343,3,3v12h4v-12c0-1.657,1.344-3,3-3
		s3,1.343,3,3v14v1c0,2.216-1.784,4-4,4h-18c-2.216,0-4-1.784-4-4v-1v-27H34.999z"/>
	<path id="rect3392" inkscape:connector-curvature="0" fill="#FFFFFF" d="M34.999,24.75v27v1c0,4.432,3.568,8,8,8h18
		c4.432,0,8-3.568,8-8v-1v-14c0-3.866-3.134-7-7-7c-1.965,0-3.729,0.822-5,2.125c-1.271-1.303-3.035-2.125-5-2.125
		c-3.866,0-7,3.134-7,7v12h4v-12c0-1.657,1.344-3,3-3s3,1.343,3,3v12h4v-12c0-1.657,1.344-3,3-3s3,1.343,3,3v14v1
		c0,2.216-1.784,4-4,4h-18c-2.216,0-4-1.784-4-4v-1v-27H34.999z"/>
	<path id="path4227" inkscape:connector-curvature="0" opacity="0.2" enable-background="new    " d="M20.999,20.75v0.5h4h20h8
		h6.188c8.821,0,15.813,6.991,15.813,15.813v-0.5c0-8.821-6.991-15.813-15.813-15.813h-6.188h-8h-20H20.999z"/>
	<path id="path4236" inkscape:connector-curvature="0" opacity="0.08" enable-background="new    " d="M20.999,20.75v8h0.5v-7h3.5
		h20h8h6.188c8.551,0,15.313,6.762,15.313,15.313v14.375V66.75h0.5V50.938V36.562c0-8.821-6.991-15.813-15.813-15.813h-6.188h-8h-20
		H20.999z M25.78,28.843c1.768,0.393,3.22,2.073,3.219,3.906v6.594v11.594c0,7.223,4.678,13.189,11.219,15.125
		c-6.26-1.918-10.719-7.678-10.719-14.625V39.843V33.25C29.5,31.112,27.835,29.238,25.78,28.843z M40.217,66.063
		c0.479,0.142,0.973,0.277,1.469,0.375C41.184,66.337,40.699,66.21,40.217,66.063z"/>
	<path id="rect4261" inkscape:connector-curvature="0" opacity="0.3" fill="#52A800" enable-background="new    " d="M64.998,49.78
		v1.97v1c0,2.216-1.784,4-4,4H49.029v4h11.969c4.432,0,8-3.568,8-8v-1v-1.97H64.998z"/>
</g>
</svg>
