<?xml version="1.0" encoding="utf-8"?>
<!-- Generator: Adobe Illustrator 14.0.0, SVG Export Plug-In . SVG Version: 6.00 Build 43363)  -->
<!DOCTYPE svg PUBLIC "-//W3C//DTD SVG 1.1//EN" "http://www.w3.org/Graphics/SVG/1.1/DTD/svg11.dtd">
<svg version="1.1"
	 id="svg2408" xmlns:dc="http://purl.org/dc/elements/1.1/" xmlns:svg="http://www.w3.org/2000/svg" xmlns:cc="http://creativecommons.org/ns#" xmlns:rdf="http://www.w3.org/1999/02/22-rdf-syntax-ns#" xmlns:inkscape="http://www.inkscape.org/namespaces/inkscape"
	 xmlns="http://www.w3.org/2000/svg" xmlns:xlink="http://www.w3.org/1999/xlink" x="0px" y="0px" width="96px" height="96px"
	 viewBox="0 0 96 96" enable-background="new 0 0 96 96" xml:space="preserve">
<g>
	<linearGradient id="SVGID_1_" gradientUnits="userSpaceOnUse" x1="2" y1="48" x2="94" y2="48">
		<stop  offset="0" style="stop-color:#000000"/>
		<stop  offset="1" style="stop-color:#000000;stop-opacity:0.5882"/>
	</linearGradient>
	<path opacity="0.08" fill="url(#SVGID_1_)" enable-background="new    " d="M10.5,93C5.813,93,2,89.187,2,84.5v-73
		C2,6.813,5.813,3,10.5,3h75c4.145,0,7.786,3.007,8.5,7v74.5c0,4.687-3.813,8.5-8.5,8.5H10.5z"/>
	<linearGradient id="SVGID_2_" gradientUnits="userSpaceOnUse" x1="3" y1="48" x2="93" y2="48">
		<stop  offset="0" style="stop-color:#000000"/>
		<stop  offset="1" style="stop-color:#000000;stop-opacity:0.5882"/>
	</linearGradient>
	<path opacity="0.1" fill="url(#SVGID_2_)" enable-background="new    " d="M10.5,92C6.364,92,3,88.636,3,84.5v-73
		C3,7.364,6.364,4,10.5,4h75c3.968,0,7.242,3.097,7.5,7v73.5c0,4.136-3.364,7.5-7.5,7.5H10.5z"/>
	<linearGradient id="SVGID_3_" gradientUnits="userSpaceOnUse" x1="4" y1="48" x2="92" y2="48">
		<stop  offset="0" style="stop-color:#000000"/>
		<stop  offset="1" style="stop-color:#000000;stop-opacity:0.5882"/>
	</linearGradient>
	<path opacity="0.2" fill="url(#SVGID_3_)" enable-background="new    " d="M10.5,91C6.916,91,4,88.084,4,84.5v-73
		C4,7.916,6.916,5,10.5,5h75c3.584,0,6.5,2.916,6.5,6.5v73c0,3.584-2.916,6.5-6.5,6.5H10.5z"/>
	<linearGradient id="SVGID_4_" gradientUnits="userSpaceOnUse" x1="47.9995" y1="8" x2="47.9995" y2="90.4195">
		<stop  offset="0" style="stop-color:#000000"/>
		<stop  offset="1" style="stop-color:#000000;stop-opacity:0.5882"/>
	</linearGradient>
	<path opacity="0.45" fill="url(#SVGID_4_)" enable-background="new    " d="M90,12.5c0-2.484-2.016-4.5-4.5-4.5h-75
		C8.015,8,6,10.016,6,12.5v18V63v22.5c0,2.487,2.015,4.5,4.5,4.5h75c2.484,0,4.5-2.013,4.5-4.5V12.5z"/>
</g>
<g>
	<path fill="#8C2E14" d="M90,84.5c0,2.487-2.016,4.5-4.5,4.5h-75C8.015,89,6,86.987,6,84.5v-57c0-2.484,2.015-4.5,4.5-4.5h75
		c2.484,0,4.5,2.016,4.5,4.5V84.5z"/>
</g>
<linearGradient id="SVGID_5_" gradientUnits="userSpaceOnUse" x1="48.0005" y1="84.5" x2="48.0005" y2="5.0005">
	<stop  offset="0" style="stop-color:#DD481F;stop-opacity:0.9412"/>
	<stop  offset="1" style="stop-color:#EC6829;stop-opacity:0.9412"/>
</linearGradient>
<path fill="url(#SVGID_5_)" d="M90,80c0,2.487-2.016,4.5-4.5,4.5h-75C8.015,84.5,6,82.487,6,80V9.5C6,7.016,8.015,5,10.5,5h75
	C87.984,5,90,7.016,90,9.5V80z"/>
<path fill="#E55824" d="M10.5,83c-1.654,0-3-1.346-3-3V9.5c0-1.654,1.346-3,3-3h75c1.654,0,3,1.346,3,3V80c0,1.654-1.346,3-3,3H10.5
	z"/>
<radialGradient id="SVGID_6_" cx="48" cy="44.75" r="39.3911" gradientUnits="userSpaceOnUse">
	<stop  offset="0" style="stop-color:#FFFFFF"/>
	<stop  offset="1" style="stop-color:#FFFFFF;stop-opacity:0"/>
</radialGradient>
<path opacity="0.3" fill="url(#SVGID_6_)" d="M10.5,83c-1.654,0-3-1.346-3-3V9.5c0-1.654,1.346-3,3-3h75c1.654,0,3,1.346,3,3V80
	c0,1.654-1.346,3-3,3H10.5z"/>
<radialGradient id="SVGID_7_" cx="47" cy="7.75" r="40.8905" gradientUnits="userSpaceOnUse">
	<stop  offset="0" style="stop-color:#FFFFFF"/>
	<stop  offset="1" style="stop-color:#FFFFFF;stop-opacity:0"/>
</radialGradient>
<path display="none" opacity="0.2" fill="url(#SVGID_7_)" d="M90,80c0,2.487-2.016,4.5-4.5,4.5h-75C8.015,84.5,6,82.487,6,80V9.5
	C6,7.016,8.015,5,10.5,5h75C87.984,5,90,7.016,90,9.5V80z"/>
<g opacity="0.2">
	<radialGradient id="SVGID_8_" cx="45.6665" cy="47" r="255.6421" gradientUnits="userSpaceOnUse">
		<stop  offset="0" style="stop-color:#FFFFFF"/>
		<stop  offset="1" style="stop-color:#FFFFFF;stop-opacity:0"/>
	</radialGradient>
	<polygon fill="url(#SVGID_8_)" points="22.984,83 32.59,83 88.5,27.091 88.5,17.485 	"/>
	<radialGradient id="SVGID_9_" cx="45.6665" cy="47" r="255.6422" gradientUnits="userSpaceOnUse">
		<stop  offset="0" style="stop-color:#FFFFFF"/>
		<stop  offset="1" style="stop-color:#FFFFFF;stop-opacity:0"/>
	</radialGradient>
	<polygon fill="url(#SVGID_9_)" points="43.738,6.5 7.5,42.738 7.5,52.344 53.344,6.5 	"/>
	<radialGradient id="SVGID_10_" cx="45.6665" cy="47" r="255.6426" gradientUnits="userSpaceOnUse">
		<stop  offset="0" style="stop-color:#FFFFFF"/>
		<stop  offset="1" style="stop-color:#FFFFFF;stop-opacity:0"/>
	</radialGradient>
	<polygon fill="url(#SVGID_10_)" points="62.32,6.5 7.5,61.32 7.5,70.926 71.926,6.5 	"/>
	<radialGradient id="SVGID_11_" cx="45.6665" cy="47" r="255.6421" gradientUnits="userSpaceOnUse">
		<stop  offset="0" style="stop-color:#FFFFFF"/>
		<stop  offset="1" style="stop-color:#FFFFFF;stop-opacity:0"/>
	</radialGradient>
	<polygon fill="url(#SVGID_11_)" points="51.173,83 88.5,45.673 88.5,36.068 41.567,83 	"/>
	<radialGradient id="SVGID_12_" cx="45.6665" cy="47" r="255.6421" gradientUnits="userSpaceOnUse">
		<stop  offset="0" style="stop-color:#FFFFFF"/>
		<stop  offset="1" style="stop-color:#FFFFFF;stop-opacity:0"/>
	</radialGradient>
	<polygon fill="url(#SVGID_12_)" points="69.755,83 88.5,64.255 88.5,54.65 60.149,83 	"/>
	<radialGradient id="SVGID_13_" cx="45.6665" cy="47" r="255.6421" gradientUnits="userSpaceOnUse">
		<stop  offset="0" style="stop-color:#FFFFFF"/>
		<stop  offset="1" style="stop-color:#FFFFFF;stop-opacity:0"/>
	</radialGradient>
	<path fill="url(#SVGID_13_)" d="M85.5,83c1.655,0,3-1.347,3-3v-6.769L78.731,83H85.5z"/>
	<radialGradient id="SVGID_14_" cx="45.6665" cy="47" r="255.6419" gradientUnits="userSpaceOnUse">
		<stop  offset="0" style="stop-color:#FFFFFF"/>
		<stop  offset="1" style="stop-color:#FFFFFF;stop-opacity:0"/>
	</radialGradient>
	<path fill="url(#SVGID_14_)" d="M10.5,83h3.508L88.361,8.647C87.991,7.41,86.855,6.5,85.5,6.5h-4.598L7.5,79.902V80
		C7.5,81.653,8.845,83,10.5,83z"/>
	<radialGradient id="SVGID_15_" cx="45.6665" cy="47" r="255.6419" gradientUnits="userSpaceOnUse">
		<stop  offset="0" style="stop-color:#FFFFFF"/>
		<stop  offset="1" style="stop-color:#FFFFFF;stop-opacity:0"/>
	</radialGradient>
	<path fill="url(#SVGID_15_)" d="M10.5,6.5c-1.654,0-3,1.346-3,3v5.576L16.076,6.5H10.5z"/>
	<radialGradient id="SVGID_16_" cx="45.6665" cy="47" r="255.6414" gradientUnits="userSpaceOnUse">
		<stop  offset="0" style="stop-color:#FFFFFF"/>
		<stop  offset="1" style="stop-color:#FFFFFF;stop-opacity:0"/>
	</radialGradient>
	<polygon fill="url(#SVGID_16_)" points="25.053,6.5 7.5,24.053 7.5,33.658 34.658,6.5 	"/>
</g>
<g>
	<path id="path4365" opacity="0.07" enable-background="new    " d="M65.194,11.219c-3.65,0-6.615,2.28-8.063,5.375
		c-0.054-0.013-0.035-0.021-0.094-0.031c-1.559-0.271-3.162-0.5-4.813-0.5c-4.285,0-8.545,1.052-12.406,2.969
		c-0.93,0.463-1.584,1.289-1.844,2.219c-0.01,0.033,0.008,0.061,0,0.094c-0.03-0.006-0.063-0.026-0.094-0.031
		c-0.246-0.043-0.277-0.005-0.344,0s-0.143-0.005-0.188,0c-0.09,0.01-0.146-0.002-0.094,0c-0.029-0.005,0.002,0.004-0.031,0
		c-0.222-0.031-0.399-0.035-0.25-0.031c-0.26-0.006-0.45,0.06-0.469,0.063c-0.067,0.001-0.072-0.028-0.188,0
		c-0.431,0.104-0.817,0.335-1.188,0.625c-4.391,3.397-7.67,8.098-9.406,13.344c-0.782-0.218-1.555-0.5-2.406-0.5
		c-5.119,0-9.344,4.21-9.344,9.344S18.2,53.5,23.319,53.5c0.886,0,1.689-0.296,2.5-0.531c1.744,5.113,4.949,9.695,9.219,13.031
		c0.529,0.414,1.447,0.918,2.688,0.719c0.01,0,0.021,0,0.031,0c-0.361,0.063-0.361,0.074,0.031,0
		c0.027-0.005,0.036-0.025,0.063-0.031c0.01,0.011,0.021,0.021,0.031,0.031c0,0.01,0,0.021,0,0.031
		c0.176,0.639,0.679,1.617,1.781,2.188v0.031c0.008,0.004,0.023-0.004,0.031,0c3.898,1.955,8.221,3,12.531,3
		c1.543,0,3.067-0.217,4.563-0.469c1.128,3.835,4.453,6.781,8.656,6.781c5.115,0,9.313-4.203,9.313-9.313
		c0-2.248-0.976-4.185-2.313-5.781c4.245-4.475,6.949-10.266,7.563-16.406c0.113-1.127-0.338-2.063-0.875-2.656
		c-0.021-0.022-0.041-0.041-0.063-0.063c0.018-0.018,0.046-0.013,0.063-0.031c0.646-0.714,0.969-1.674,0.875-2.688
		c-0.57-5.883-3.061-11.506-7-15.906c-0.106-0.12-0.171-0.072-0.281-0.156c0.936-1.406,1.656-3.003,1.656-4.844
		C74.382,15.391,70.244,11.219,65.194,11.219z M52.226,32.438c5.609,0,10.557,4.23,11.438,9.781
		c0.117,0.742,0.532,1.373,1.031,1.875c-0.516,0.503-0.94,1.09-1.063,1.844c-0.892,5.5-5.798,9.688-11.406,9.688
		c-1.57,0-3.078-0.299-4.563-0.938c-0.676-0.289-1.463-0.316-2.188-0.156c-0.148-0.651-0.375-1.315-0.938-1.813
		c-2.51-2.219-3.938-5.396-3.938-8.688c0-3.328,1.441-6.538,3.969-8.75c0.555-0.487,0.811-1.14,0.969-1.813
		c0.55,0.134,1.118,0.091,1.688-0.063v0.063c-0.001,0,0.095,0,0.094,0c0.119-0.012,0.235-0.044,0.344-0.094c0.021,0,0.041,0,0.063,0
		C49.208,32.746,50.692,32.438,52.226,32.438z"/>
	<path id="path4361" opacity="0.1" enable-background="new    " d="M65.194,12.313c-3.619,0-6.57,2.457-7.594,5.75
		c-0.255-0.151-0.451-0.386-0.75-0.438c-1.529-0.266-3.068-0.469-4.625-0.469c-4.11,0-8.221,0.999-11.938,2.844
		c-0.651,0.325-1.105,0.901-1.281,1.531c-0.196,0.695,0,1.423,0.313,1.938c-0.403-0.641-1.078-0.997-1.625-1.094
		c-0.074-0.013-0.332,0.039-0.5,0.031c-0.02-0.005-0.047,0.003-0.063,0c-0.018-0.003-0.048-0.029-0.063-0.031
		c-0.055-0.008-0.09,0.001-0.125,0c-0.095-0.002-0.174,0.018-0.25,0.031c-0.037,0.007-0.085-0.01-0.125,0
		c-0.241,0.058-0.506,0.191-0.781,0.406c-4.391,3.396-7.677,8.152-9.281,13.438c-0.031,0.101,0.018,0.209,0,0.313
		c-0.983-0.42-2.055-0.656-3.188-0.656c-4.529,0-8.25,3.707-8.25,8.25c0,4.543,3.721,8.25,8.25,8.25
		c1.133,0,2.204-0.236,3.188-0.656c0.006,0.021-0.006,0.043,0,0.063c1.592,5.244,4.854,9.957,9.188,13.344
		c0.328,0.257,1.046,0.633,1.875,0.5c0.01-0.002,0.021,0.002,0.031,0c0.873-0.164,1.418-0.849,1.594-1.125
		c-0.459,0.727-0.422,1.395-0.281,1.906c0,0.01,0,0.021,0,0.031c0.125,0.453,0.446,1.129,1.25,1.531
		c3.754,1.889,7.914,2.875,12.063,2.875c1.584,0,3.182-0.189,4.75-0.469c0.191-0.033,0.3-0.18,0.469-0.25
		c0.607,3.943,3.896,7.031,8,7.031c4.525,0,8.219-3.698,8.219-8.219c0-2.381-1.055-4.494-2.688-6
		c0.138-0.092,0.318-0.096,0.438-0.219c4.234-4.338,6.93-10.039,7.531-16.063c0.083-0.826-0.211-1.386-0.625-1.844
		c-0.482-0.534-1.177-0.775-1.781-0.781c0.593-0.01,1.298-0.215,1.781-0.75c0.447-0.494,0.69-1.172,0.625-1.875
		c-0.547-5.645-2.965-11.052-6.75-15.281c-0.257-0.289-0.609-0.372-0.938-0.5c1.225-1.419,2.031-3.207,2.031-5.219
		C73.288,15.979,69.651,12.313,65.194,12.313z M52.226,31.344c6.152,0,11.535,4.637,12.5,10.719
		c0.186,1.172,1.189,2.017,2.375,2.031c-1.177,0.023-2.223,0.9-2.406,2.031c-0.978,6.029-6.324,10.594-12.469,10.594
		c-1.711,0-3.383-0.336-5-1.031c-1.01-0.432-2.311-0.168-3,0.906c0.566-0.918,0.537-2.229-0.406-3.063
		c-2.74-2.422-4.313-5.895-4.313-9.5c0-3.641,1.58-7.144,4.344-9.563c0.881-0.773,1.042-2.07,0.438-3.063
		c0.629,1.003,1.863,1.435,2.969,0.969c0.01,0,0.021,0,0.031,0C48.894,31.693,50.543,31.344,52.226,31.344z"/>
	<path id="path4357" opacity="0.15" enable-background="new    " d="M65.194,13.313c-3.906,0-7.063,3.217-7.063,7.125
		s3.162,7.094,7.063,7.094s7.094-3.18,7.094-7.094S69.101,13.313,65.194,13.313z M52.226,18.156c-3.945,0-7.918,0.972-11.5,2.75
		c-0.392,0.195-0.646,0.534-0.75,0.906c-0.122,0.432-0.03,0.808,0.188,1.156l4.969,7.906c0.361,0.576,1.123,0.827,1.75,0.563
		c1.728-0.733,3.528-1.094,5.344-1.094c6.654,0,12.457,4.989,13.5,11.563c0.104,0.661,0.723,1.188,1.406,1.188h9.375
		c0.385,0,0.751-0.124,1.063-0.469c0.266-0.294,0.412-0.694,0.375-1.094c-0.525-5.422-2.857-10.649-6.5-14.719
		c-0.488-0.548-1.268-0.572-1.813-0.219c-1.273,0.827-2.689,1.25-4.125,1.25c-4.207,0-7.621-3.402-7.656-7.594c0,0,0-0.026,0-0.031
		c0-0.01,0-0.028,0-0.031c0-0.008,0-0.022,0-0.031c0-0.019,0-0.039,0-0.063c0-0.046,0-0.109,0-0.094
		c0-0.695-0.539-1.262-1.188-1.375C55.155,18.362,53.688,18.156,52.226,18.156z M36.944,23.375c0.043-0.011-0.196-0.043-0.531,0.219
		c-4.223,3.267-7.396,7.857-8.938,12.938c-0.164,0.542-0.013,1.149,0.469,1.531c1.818,1.447,2.906,3.695,2.906,5.969
		S29.764,48.553,27.944,50c-0.48,0.382-0.633,0.987-0.469,1.531c1.53,5.039,4.674,9.585,8.844,12.844
		c0.22,0.172,0.572,0.373,1.094,0.281c0.549-0.096,0.794-0.432,0.938-0.656l5.031-7.906c0.34-0.535,0.332-1.326-0.219-1.813
		c-2.953-2.61-4.656-6.353-4.656-10.25c0-3.931,1.705-7.703,4.688-10.313c0.516-0.452,0.62-1.223,0.25-1.813L38.476,24
		c-0.251-0.399-0.59-0.558-0.969-0.625C37.39,23.354,37.165,23.32,36.944,23.375z M23.319,36.906c-3.982,0-7.25,3.254-7.25,7.25
		s3.268,7.25,7.25,7.25s7.219-3.26,7.219-7.25S27.302,36.906,23.319,36.906z M67.132,45.063c-0.77,0.002-1.32,0.491-1.438,1.219
		c-1.057,6.521-6.829,11.438-13.469,11.438c-1.836,0-3.658-0.342-5.406-1.094c-0.563-0.24-1.365-0.1-1.75,0.5l-5.031,7.938
		c-0.248,0.393-0.227,0.871-0.156,1.125c0.068,0.248,0.273,0.684,0.719,0.906c3.614,1.817,7.638,2.781,11.625,2.781
		c1.497,0,3.025-0.195,4.563-0.469c0.583-0.103,1.09-0.659,1.156-1.219c0.446-3.871,3.688-6.75,7.563-6.75
		c1.186,0,2.416,0.291,3.531,0.875c0.547,0.287,1.238,0.178,1.656-0.25c4.076-4.175,6.672-9.679,7.25-15.469
		c0.039-0.392-0.174-0.84-0.375-1.063c-0.31-0.342-0.676-0.471-1.063-0.469H67.132z M65.444,61.75c-3.98,0-7.25,3.238-7.25,7.219
		s3.27,7.219,7.25,7.219s7.219-3.244,7.219-7.219S69.425,61.75,65.444,61.75z"/>
	<path id="path4353" inkscape:connector-curvature="0" opacity="0.3" enable-background="new    " d="M65.202,14.25
		c-3.396,0-6.147,2.766-6.147,6.176c0,3.41,2.751,6.175,6.147,6.175c3.398,0,6.148-2.766,6.148-6.175
		C71.351,17.016,68.601,14.25,65.202,14.25z M52.219,19.087c-3.792,0-7.636,0.961-11.093,2.677c-0.123,0.062-0.199,0.17-0.236,0.302
		c-0.037,0.133-0.029,0.272,0.043,0.389l4.987,7.925c0.126,0.202,0.384,0.287,0.603,0.194c1.846-0.784,3.761-1.166,5.696-1.166
		c7.119,0,13.329,5.299,14.446,12.33c0.037,0.236,0.234,0.41,0.473,0.41h9.373c0.137,0,0.273-0.049,0.365-0.151
		c0.092-0.102,0.142-0.23,0.129-0.367c-0.506-5.217-2.727-10.268-6.234-14.187c-0.158-0.178-0.424-0.195-0.623-0.065
		c-1.415,0.918-3.02,1.404-4.644,1.404c-4.737,0-8.577-3.866-8.577-8.594c0-0.002,0-0.165,0-0.173c0-0.235-0.176-0.456-0.408-0.497
		C55.037,19.261,53.6,19.087,52.219,19.087z M37.171,24.269c-0.064,0.016-0.141,0.045-0.193,0.086
		c-4.065,3.145-7.114,7.568-8.599,12.459c-0.058,0.191-0.007,0.394,0.15,0.519c2.043,1.625,3.268,4.127,3.268,6.694
		c0,2.565-1.224,5.068-3.268,6.693c-0.156,0.123-0.208,0.326-0.15,0.518c1.473,4.85,4.497,9.256,8.513,12.395
		c0.107,0.084,0.23,0.132,0.365,0.108s0.249-0.122,0.322-0.237l5.03-7.903c0.128-0.202,0.094-0.468-0.086-0.626
		c-3.151-2.785-4.966-6.779-4.966-10.947c0-4.201,1.824-8.206,5.009-10.992c0.18-0.157,0.235-0.423,0.108-0.626l-4.988-7.925
		c-0.072-0.115-0.188-0.192-0.322-0.216C37.298,24.257,37.235,24.253,37.171,24.269L37.171,24.269z M23.306,37.83
		c-3.477,0-6.299,2.837-6.299,6.327c0,3.49,2.822,6.305,6.299,6.305s6.299-2.814,6.299-6.305
		C29.604,40.667,26.782,37.83,23.306,37.83z M76.511,45.992l-9.373,0.021c-0.236,0-0.457,0.176-0.494,0.41
		c-1.132,6.979-7.326,12.242-14.425,12.242c-1.958,0-3.895-0.405-5.761-1.209c-0.219-0.093-0.475-0.027-0.603,0.174l-5.03,7.924
		c-0.073,0.116-0.079,0.256-0.043,0.389c0.037,0.133,0.114,0.241,0.236,0.303c3.484,1.752,7.365,2.678,11.2,2.678
		c1.423,0,2.907-0.144,4.407-0.41c0.21-0.037,0.361-0.198,0.387-0.411c0.5-4.334,4.148-7.601,8.491-7.601
		c1.347,0,2.731,0.342,3.977,0.993c0.189,0.1,0.409,0.067,0.56-0.086c3.926-4.022,6.408-9.325,6.965-14.899
		c0.014-0.137-0.037-0.265-0.129-0.367C76.783,46.041,76.647,45.991,76.511,45.992L76.511,45.992z M65.439,62.684
		c-3.478,0-6.299,2.811-6.299,6.283c0,3.472,2.821,6.283,6.299,6.283c3.477,0,6.298-2.812,6.298-6.283
		C71.737,65.494,68.916,62.684,65.439,62.684z"/>
	<path id="path3324" inkscape:connector-curvature="0" fill="#FFFFFF" d="M65.202,13.25c-3.396,0-6.147,2.766-6.147,6.176
		c0,3.41,2.751,6.175,6.147,6.175c3.398,0,6.148-2.766,6.148-6.175C71.351,16.016,68.601,13.25,65.202,13.25z M52.219,18.087
		c-3.792,0-7.636,0.961-11.093,2.677c-0.123,0.062-0.199,0.17-0.236,0.302c-0.037,0.133-0.029,0.272,0.043,0.389l4.987,7.925
		c0.126,0.202,0.384,0.287,0.603,0.194c1.846-0.784,3.761-1.166,5.696-1.166c7.119,0,13.329,5.299,14.446,12.33
		c0.037,0.236,0.234,0.41,0.473,0.41h9.373c0.137,0,0.273-0.049,0.365-0.151c0.092-0.102,0.142-0.23,0.129-0.367
		c-0.506-5.217-2.727-10.268-6.234-14.187c-0.158-0.178-0.424-0.195-0.623-0.065c-1.415,0.918-3.02,1.404-4.644,1.404
		c-4.737,0-8.577-3.866-8.577-8.594c0-0.002,0-0.165,0-0.173c0-0.235-0.176-0.456-0.408-0.497
		C55.037,18.261,53.6,18.087,52.219,18.087z M37.171,23.269c-0.064,0.016-0.141,0.045-0.193,0.086
		c-4.065,3.145-7.114,7.568-8.599,12.459c-0.058,0.191-0.007,0.394,0.15,0.519c2.043,1.625,3.268,4.127,3.268,6.694
		c0,2.565-1.224,5.068-3.268,6.693c-0.156,0.123-0.208,0.326-0.15,0.518c1.473,4.85,4.497,9.256,8.513,12.395
		c0.107,0.084,0.23,0.132,0.365,0.108s0.249-0.122,0.322-0.237l5.03-7.903c0.128-0.202,0.094-0.468-0.086-0.626
		c-3.151-2.785-4.966-6.779-4.966-10.947c0-4.201,1.824-8.206,5.009-10.992c0.18-0.157,0.235-0.423,0.108-0.626l-4.988-7.925
		c-0.072-0.115-0.188-0.192-0.322-0.216C37.298,23.257,37.235,23.253,37.171,23.269L37.171,23.269z M23.306,36.83
		c-3.477,0-6.299,2.837-6.299,6.327c0,3.49,2.822,6.305,6.299,6.305s6.299-2.814,6.299-6.305
		C29.604,39.667,26.782,36.83,23.306,36.83z M76.511,44.992l-9.373,0.021c-0.236,0-0.457,0.176-0.494,0.41
		c-1.132,6.979-7.326,12.242-14.425,12.242c-1.958,0-3.895-0.405-5.761-1.209c-0.219-0.093-0.475-0.027-0.603,0.174l-5.03,7.924
		c-0.073,0.116-0.079,0.256-0.043,0.389c0.037,0.133,0.114,0.241,0.236,0.303c3.484,1.752,7.365,2.678,11.2,2.678
		c1.423,0,2.907-0.144,4.407-0.41c0.21-0.037,0.361-0.198,0.387-0.411c0.5-4.334,4.148-7.601,8.491-7.601
		c1.347,0,2.731,0.342,3.977,0.993c0.189,0.1,0.409,0.067,0.56-0.086c3.926-4.022,6.408-9.325,6.965-14.899
		c0.014-0.137-0.037-0.265-0.129-0.367C76.783,45.041,76.647,44.991,76.511,44.992L76.511,44.992z M65.439,61.684
		c-3.478,0-6.299,2.811-6.299,6.283c0,3.472,2.821,6.283,6.299,6.283c3.477,0,6.298-2.812,6.298-6.283
		C71.737,64.494,68.916,61.684,65.439,61.684z"/>
</g>
</svg>
