<?xml version="1.0" encoding="utf-8"?>
<!-- Generator: Adobe Illustrator 17.1.0, SVG Export Plug-In . SVG Version: 6.00 Build 0)  -->
<!DOCTYPE svg PUBLIC "-//W3C//DTD SVG 1.1//EN" "http://www.w3.org/Graphics/SVG/1.1/DTD/svg11.dtd">
<svg version="1.1"
	 id="svg2408" xmlns:dc="http://purl.org/dc/elements/1.1/" xmlns:cc="http://creativecommons.org/ns#" xmlns:rdf="http://www.w3.org/1999/02/22-rdf-syntax-ns#" xmlns:inkscape="http://www.inkscape.org/namespaces/inkscape" xmlns:svg="http://www.w3.org/2000/svg"
	 xmlns="http://www.w3.org/2000/svg" xmlns:xlink="http://www.w3.org/1999/xlink" x="0px" y="0px" viewBox="0 0 96 96"
	 enable-background="new 0 0 96 96" xml:space="preserve">
<g>
	
		<linearGradient id="SVGID_1_" gradientUnits="userSpaceOnUse" x1="2" y1="48" x2="94" y2="48" gradientTransform="matrix(1 0 0 -1 0 96)">
		<stop  offset="0" style="stop-color:#000000"/>
		<stop  offset="1" style="stop-color:#000000;stop-opacity:0.5882"/>
	</linearGradient>
	<path opacity="8.000000e-002" fill="url(#SVGID_1_)" enable-background="new    " d="M10.5,93C5.8,93,2,89.2,2,84.5v-73
		C2,6.8,5.8,3,10.5,3h75c4.1,0,7.8,3,8.5,7v74.5c0,4.7-3.8,8.5-8.5,8.5H10.5z"/>
	
		<linearGradient id="SVGID_2_" gradientUnits="userSpaceOnUse" x1="3" y1="48" x2="93" y2="48" gradientTransform="matrix(1 0 0 -1 0 96)">
		<stop  offset="0" style="stop-color:#000000"/>
		<stop  offset="1" style="stop-color:#000000;stop-opacity:0.5882"/>
	</linearGradient>
	<path opacity="0.1" fill="url(#SVGID_2_)" enable-background="new    " d="M10.5,92C6.4,92,3,88.6,3,84.5v-73C3,7.4,6.4,4,10.5,4
		h75c4,0,7.2,3.1,7.5,7v73.5c0,4.1-3.4,7.5-7.5,7.5H10.5z"/>
	
		<linearGradient id="SVGID_3_" gradientUnits="userSpaceOnUse" x1="4" y1="48" x2="92" y2="48" gradientTransform="matrix(1 0 0 -1 0 96)">
		<stop  offset="0" style="stop-color:#000000"/>
		<stop  offset="1" style="stop-color:#000000;stop-opacity:0.5882"/>
	</linearGradient>
	<path opacity="0.2" fill="url(#SVGID_3_)" enable-background="new    " d="M10.5,91C6.9,91,4,88.1,4,84.5v-73C4,7.9,6.9,5,10.5,5
		h75c3.6,0,6.5,2.9,6.5,6.5v73c0,3.6-2.9,6.5-6.5,6.5H10.5z"/>
	
		<linearGradient id="SVGID_4_" gradientUnits="userSpaceOnUse" x1="48" y1="88" x2="48" y2="5.5805" gradientTransform="matrix(1 0 0 -1 0 96)">
		<stop  offset="0" style="stop-color:#000000"/>
		<stop  offset="1" style="stop-color:#000000;stop-opacity:0.5882"/>
	</linearGradient>
	<path opacity="0.45" fill="url(#SVGID_4_)" enable-background="new    " d="M90,12.5C90,10,88,8,85.5,8h-75C8,8,6,10,6,12.5v18V63
		v22.5C6,88,8,90,10.5,90h75c2.5,0,4.5-2,4.5-4.5V12.5z"/>
</g>
<g>
	<path fill="#8C2E14" d="M90,84.5c0,2.5-2,4.5-4.5,4.5h-75C8,89,6,87,6,84.5v-57C6,25,8,23,10.5,23h75c2.5,0,4.5,2,4.5,4.5V84.5z"/>
</g>
<linearGradient id="SVGID_5_" gradientUnits="userSpaceOnUse" x1="48" y1="11.5" x2="48" y2="91" gradientTransform="matrix(1 0 0 -1 0 96)">
	<stop  offset="0" style="stop-color:#DD481F;stop-opacity:0.9412"/>
	<stop  offset="1" style="stop-color:#EC6829;stop-opacity:0.9412"/>
</linearGradient>
<path fill="url(#SVGID_5_)" d="M90,80c0,2.5-2,4.5-4.5,4.5h-75C8,84.5,6,82.5,6,80V9.5C6,7,8,5,10.5,5h75C88,5,90,7,90,9.5V80z"/>
<path fill="#DC4713" d="M10.5,83c-1.7,0-3-1.3-3-3V9.5c0-1.7,1.3-3,3-3h75c1.7,0,3,1.3,3,3V80c0,1.7-1.3,3-3,3H10.5z"/>
<radialGradient id="SVGID_6_" cx="48" cy="51.25" r="39.3911" gradientTransform="matrix(1 0 0 -1 0 96)" gradientUnits="userSpaceOnUse">
	<stop  offset="0" style="stop-color:#FFFFFF"/>
	<stop  offset="1" style="stop-color:#FFFFFF;stop-opacity:0"/>
</radialGradient>
<path opacity="0.3" fill="url(#SVGID_6_)" enable-background="new    " d="M10.5,83c-1.7,0-3-1.3-3-3V9.5c0-1.7,1.3-3,3-3h75
	c1.7,0,3,1.3,3,3V80c0,1.7-1.3,3-3,3H10.5z"/>
<radialGradient id="SVGID_7_" cx="47" cy="88.25" r="40.8905" gradientTransform="matrix(1 0 0 -1 0 96)" gradientUnits="userSpaceOnUse">
	<stop  offset="0" style="stop-color:#FFFFFF"/>
	<stop  offset="1" style="stop-color:#FFFFFF;stop-opacity:0"/>
</radialGradient>
<path display="none" opacity="0.2" fill="url(#SVGID_7_)" enable-background="new    " d="M90,80c0,2.5-2,4.5-4.5,4.5h-75
	C8,84.5,6,82.5,6,80V9.5C6,7,8,5,10.5,5h75C88,5,90,7,90,9.5V80z"/>
<g opacity="0.2">
	
		<radialGradient id="SVGID_8_" cx="45.6665" cy="49" r="255.6421" gradientTransform="matrix(1 0 0 -1 0 96)" gradientUnits="userSpaceOnUse">
		<stop  offset="0" style="stop-color:#FFFFFF"/>
		<stop  offset="1" style="stop-color:#FFFFFF;stop-opacity:0"/>
	</radialGradient>
	<polygon fill="url(#SVGID_8_)" points="23,83 32.6,83 88.5,27.1 88.5,17.5 	"/>
	
		<radialGradient id="SVGID_9_" cx="45.6665" cy="49" r="255.6422" gradientTransform="matrix(1 0 0 -1 0 96)" gradientUnits="userSpaceOnUse">
		<stop  offset="0" style="stop-color:#FFFFFF"/>
		<stop  offset="1" style="stop-color:#FFFFFF;stop-opacity:0"/>
	</radialGradient>
	<polygon fill="url(#SVGID_9_)" points="43.7,6.5 7.5,42.7 7.5,52.3 53.3,6.5 	"/>
	
		<radialGradient id="SVGID_10_" cx="45.6665" cy="49" r="255.6426" gradientTransform="matrix(1 0 0 -1 0 96)" gradientUnits="userSpaceOnUse">
		<stop  offset="0" style="stop-color:#FFFFFF"/>
		<stop  offset="1" style="stop-color:#FFFFFF;stop-opacity:0"/>
	</radialGradient>
	<polygon fill="url(#SVGID_10_)" points="62.3,6.5 7.5,61.3 7.5,70.9 71.9,6.5 	"/>
	
		<radialGradient id="SVGID_11_" cx="45.6665" cy="49" r="255.6421" gradientTransform="matrix(1 0 0 -1 0 96)" gradientUnits="userSpaceOnUse">
		<stop  offset="0" style="stop-color:#FFFFFF"/>
		<stop  offset="1" style="stop-color:#FFFFFF;stop-opacity:0"/>
	</radialGradient>
	<polygon fill="url(#SVGID_11_)" points="51.2,83 88.5,45.7 88.5,36.1 41.6,83 	"/>
	
		<radialGradient id="SVGID_12_" cx="45.6665" cy="49" r="255.6421" gradientTransform="matrix(1 0 0 -1 0 96)" gradientUnits="userSpaceOnUse">
		<stop  offset="0" style="stop-color:#FFFFFF"/>
		<stop  offset="1" style="stop-color:#FFFFFF;stop-opacity:0"/>
	</radialGradient>
	<polygon fill="url(#SVGID_12_)" points="69.8,83 88.5,64.3 88.5,54.7 60.1,83 	"/>
	
		<radialGradient id="SVGID_13_" cx="45.6665" cy="49" r="255.6421" gradientTransform="matrix(1 0 0 -1 0 96)" gradientUnits="userSpaceOnUse">
		<stop  offset="0" style="stop-color:#FFFFFF"/>
		<stop  offset="1" style="stop-color:#FFFFFF;stop-opacity:0"/>
	</radialGradient>
	<path fill="url(#SVGID_13_)" d="M85.5,83c1.7,0,3-1.3,3-3v-6.8L78.7,83H85.5z"/>
	
		<radialGradient id="SVGID_14_" cx="45.6665" cy="49" r="255.6419" gradientTransform="matrix(1 0 0 -1 0 96)" gradientUnits="userSpaceOnUse">
		<stop  offset="0" style="stop-color:#FFFFFF"/>
		<stop  offset="1" style="stop-color:#FFFFFF;stop-opacity:0"/>
	</radialGradient>
	<path fill="url(#SVGID_14_)" d="M10.5,83H14L88.4,8.6c-0.4-1.2-1.5-2.1-2.9-2.1h-4.6L7.5,79.9V80C7.5,81.7,8.8,83,10.5,83z"/>
	
		<radialGradient id="SVGID_15_" cx="45.6665" cy="49" r="255.6419" gradientTransform="matrix(1 0 0 -1 0 96)" gradientUnits="userSpaceOnUse">
		<stop  offset="0" style="stop-color:#FFFFFF"/>
		<stop  offset="1" style="stop-color:#FFFFFF;stop-opacity:0"/>
	</radialGradient>
	<path fill="url(#SVGID_15_)" d="M10.5,6.5c-1.7,0-3,1.3-3,3v5.6l8.6-8.6H10.5z"/>
	
		<radialGradient id="SVGID_16_" cx="45.6665" cy="49" r="255.6414" gradientTransform="matrix(1 0 0 -1 0 96)" gradientUnits="userSpaceOnUse">
		<stop  offset="0" style="stop-color:#FFFFFF"/>
		<stop  offset="1" style="stop-color:#FFFFFF;stop-opacity:0"/>
	</radialGradient>
	<polygon fill="url(#SVGID_16_)" points="25.1,6.5 7.5,24.1 7.5,33.7 34.7,6.5 	"/>
</g>
<g>
	<g opacity="7.000000e-002" enable-background="new    ">
		<path fill-rule="evenodd" clip-rule="evenodd" d="M34.3,45c0-5.6,2.8-10.6,7-13.6l-4.6-7.8c-5.1,3.4-9,8.7-10.6,14.9
			c2,1.4,3.3,3.7,3.3,6.4c0,2.7-1.4,5-3.4,6.4c1.6,6.3,5.4,11.6,10.6,15.1l4.4-7.9C36.9,55.4,34.3,50.5,34.3,45z"/>
		<path fill-rule="evenodd" clip-rule="evenodd" d="M51,28.2c8.6,0,15.7,6.5,16.6,14.9l9.1-0.1c-0.5-6.4-3.3-12.1-7.5-16.3
			c-1,0.5-2.2,0.8-3.5,0.8c-4.2,0-7.6-3.3-7.8-7.4c-2.2-0.6-4.5-0.9-6.9-0.9c-4.1,0-8,1-11.4,2.7l4.7,7.8
			C46.3,28.8,48.6,28.2,51,28.2z"/>
		<path fill-rule="evenodd" clip-rule="evenodd" d="M65.8,62c1.3,0,2.6,0.3,3.7,0.9c4.2-4.3,6.9-10.1,7.2-16.5l-9.1,0.1
			C66.9,55,59.7,61.7,51,61.7c-2.5,0-4.9-0.6-7.1-1.6l-4.4,7.9c3.5,1.7,7.4,2.7,11.5,2.7c2.4,0,4.8-0.3,7-1C58,65.5,61.5,62,65.8,62
			z"/>
		<circle fill-rule="evenodd" clip-rule="evenodd" cx="65.8" cy="69.8" r="5.9"/>
		<circle fill-rule="evenodd" clip-rule="evenodd" cx="65.7" cy="19.7" r="5.9"/>
		<circle fill-rule="evenodd" clip-rule="evenodd" cx="21.6" cy="44.8" r="5.9"/>
		<path opacity="7.000000e-002" fill-rule="evenodd" clip-rule="evenodd" enable-background="new    " d="M79.8,46l0.2,0l-0.1-1.3
			l0.1-1.3l-0.2,0l0-0.5c-0.5-6.4-3.1-12.4-7.4-17.2c1.4-1.6,2.3-3.6,2.3-5.9c0-4.9-4-8.9-8.9-8.9c-3.9,0-7.2,2.5-8.4,6
			c-2.1-0.5-4.2-0.7-6.3-0.7c-4.5,0-8.8,1-12.8,3l-0.5,0.3l-0.1-0.1L36.5,20l-1.2,0.6l0.1,0.2L35,21.1c-5.4,3.6-9.4,9-11.4,15.1
			c-0.7-0.2-1.3-0.2-2-0.2c-4.9,0-8.9,4-8.9,8.9s4,8.9,8.9,8.9c0.7,0,1.3-0.1,1.9-0.2c1.9,6.3,5.9,11.7,11.4,15.4l0.5,0.3l-0.1,0.1
			l1.1,0.6l1.2,0.8l0.1-0.2l0.4,0.2c4,2,8.3,3,12.8,3c2.2,0,4.4-0.3,6.6-0.8c1.3,3.3,4.5,5.7,8.2,5.7c4.9,0,8.9-4,8.9-8.9
			c0-2.2-0.8-4.2-2.1-5.7c4.3-4.9,6.8-11,7.2-17.5L79.8,46z M47.8,58.3c-0.6-0.2-1.3-0.4-1.9-0.6H46l0.1-0.8l2.7,0L47.8,58.3z
			 M37.3,45.3l1,2.5l0.5,3.3l0.1,0.3l-0.1,0.1C37.9,49.6,37.3,47.5,37.3,45.3z M53.1,35.3l1.1-3.2l-1-0.6c3.8,0.6,7,2.8,9.1,5.8
			l-3,0.9l-2,3l-1.3,0.7l-2.8-1.1l-0.4-0.3l1.2-1.6L53.1,35.3z M59.8,54.9l2.8-2.6c-0.8,1.2-1.7,2.3-2.8,3.2L59.8,54.9z M62.8,51.9
			L60.9,48l0-0.7l0,0l1.1,0.2l2.6-0.9C64.4,48.6,63.7,50.4,62.8,51.9z M49.2,58.6l3.4,0c-0.6,0.1-1.1,0.1-1.7,0.1
			C50.4,58.7,49.8,58.6,49.2,58.6z"/>
		<polygon fill-rule="evenodd" clip-rule="evenodd" points="61.8,44.5 63.7,43.8 64.3,39.8 61.2,40.8 59.4,43.5 56.3,45.1 
			51.8,43.4 48.7,41 50.8,38.2 50,35.1 51.4,31.1 48.1,34.4 47.7,34.3 48.5,32.2 45.5,35.3 42.6,37 39.5,42.8 41.2,47 41.8,50.3 
			42.5,51.9 40.1,54.7 43.4,54.7 43.8,51.7 45.2,49.7 47.3,50.1 49.8,49.1 51.7,48.2 53.5,49.4 51.3,51.9 49.1,53.9 52.5,54 
			52.5,52.6 55.2,50.5 56.1,51.7 53.4,55.6 56.9,55.6 56.7,53.6 59.2,51.4 57.9,48.8 57.8,45.7 60.3,44.2 		"/>
	</g>
	<path opacity="0.1" fill-rule="evenodd" clip-rule="evenodd" enable-background="new    " d="M78.8,45L78.8,45l0-0.3l0-0.3l0,0
		l-0.1-1.5c-0.5-6.5-3.3-12.6-7.8-17.3c1.6-1.4,2.7-3.5,2.7-5.9c0-4.3-3.5-7.9-7.9-7.9c-3.8,0-6.9,2.7-7.7,6.2
		c-2.3-0.6-4.7-0.9-7-0.9c-4.3,0-8.5,1-12.3,2.9l-1.3,0.7l0,0L37,20.9L36.7,21l0,0l-1.2,0.8c-5.5,3.7-9.5,9.2-11.3,15.5
		c-0.8-0.3-1.7-0.5-2.7-0.5c-4.3,0-7.9,3.5-7.9,7.9c0,4.3,3.5,7.9,7.9,7.9c0.9,0,1.8-0.2,2.6-0.4c1.7,6.5,5.7,12.1,11.3,15.8
		l1.3,0.8l0,0L37,69l0.3,0.2l0,0l1.3,0.6c3.9,1.9,8,2.9,12.4,2.9c2.5,0,4.9-0.3,7.2-1c0.9,3.4,3.9,5.8,7.6,5.8
		c4.3,0,7.9-3.5,7.9-7.9c0-2.3-1-4.3-2.5-5.7c4.5-4.8,7.2-11,7.6-17.6L78.8,45z M59,57.3l-0.2-2.9l2.9-2.6l-1.8-3.5l-0.1-1.5
		l0.9-0.5l1.2,0.2l3.6-1.3l0.2-1.2l0.1,0.8l-0.1,1.5C65.2,51,62.7,55,59,57.3z M63.9,37.9L60,39.1l-2,2.9l-1.9,1l-3.3-1.3l-1.4-1
		l1.5-2l-0.9-3.4l1.2-3.5l-2.4-1.5c0,0,0.1,0,0.1,0C56.5,30.2,61.4,33.3,63.9,37.9z M48.2,31.5l-1.1-0.7c0.7-0.2,1.4-0.3,2.2-0.4
		L48.2,31.5z M48.5,51.8l-3,2.8l0.3-2.1l0.4-0.6l1.4,0.3L48.5,51.8z M42.5,33l1.2-0.9l1.3-0.6c0.7-0.3,1.4-0.5,2.1-0.7l-2.9,2.9
		l-3.1,1.9l-3.8,7.1l2,4.9l0.5,3.3l0.3,0.7l-1.4,1.6c-1.6-2.4-2.5-5.2-2.5-8.2C36.3,40.2,38.6,35.7,42.5,33z M44.8,58.3l-1.3-0.6
		l-1.2-0.9c0,0-0.1-0.1-0.1-0.1h3l0.1-0.9l5.4,0.1l-1.2,1.6l9,0c-2.2,1.3-4.8,2.1-7.6,2.1C48.8,59.7,46.7,59.2,44.8,58.3z"/>
	<g opacity="0.15" enable-background="new    ">
		<path fill-rule="evenodd" clip-rule="evenodd" d="M41.6,57.6c-0.8-0.6-1.5-1.2-2.1-1.9h4.7l0.5-3.6l0.8-1.3l1.8,0.3l2.8-1.1
			l1.4-0.7l0.4,0.2l-1.4,1.6l-4,3.7l6,0.1l-1.1,1.6l6.5,0l-0.2-2.5l2.7-2.5l-1.5-3.1l-0.1-2.3l1.7-1l1.3,0.3l2.8-1l0.8-5.7
			c0.6,1.4,1,2.9,1.2,4.5l0.1,0.9L77.8,44L77.7,43c-0.5-6.4-3.2-12.4-7.8-17l-0.5-0.5c1.9-1.2,3.2-3.4,3.2-5.8
			c0-3.8-3.1-6.9-6.9-6.9c-3.7,0-6.7,2.9-6.8,6.5l-0.7-0.2c-2.3-0.7-4.8-1-7.2-1c-4.2,0-8.2,0.9-11.9,2.8l-1,0.5l5.7,9.5l0.8-0.4
			c2-0.9,4.2-1.4,6.4-1.4c6.3,0,11.8,3.7,14.3,9.2l-4.7,1.4l-1.9,2.8L56.2,44l-3.9-1.6l-2.3-1.7l1.8-2.5l-0.8-3.2l1.3-3.8l-1.7-1
			l-1.8,1.8l-1.1-0.7l-2.9,3l-3,1.8l-3.5,6.4l1.9,4.6l0.5,3.3l0.5,1.2l-2.6,3c-2.2-2.8-3.5-6.2-3.5-9.8c0-5.1,2.5-9.9,6.6-12.8
			l0.7-0.5L37,22.1l-0.9,0.6c-5.4,3.6-9.3,9.1-11,15.4l-0.2,0.7c-1-0.6-2.1-0.9-3.3-0.9c-3.8,0-6.9,3.1-6.9,6.9s3.1,6.9,6.9,6.9
			c1.2,0,2.3-0.3,3.3-0.8l0.2,0.7c1.6,6.4,5.5,12,11,15.7l0.9,0.6l5.4-9.7L41.6,57.6z M53.5,53.1l0.9-0.7l-0.9,1.2L53.5,53.1z"/>
		<path fill-rule="evenodd" clip-rule="evenodd" d="M77.7,46.4l0.1-1.1l-11.1,0.1l-0.1,0.9c-0.7,8.1-7.5,14.3-15.7,14.3
			c-2.3,0-4.6-0.5-6.6-1.5l-0.8-0.4l-5.4,9.6l0.9,0.5c3.7,1.9,7.8,2.8,11.9,2.8c2.5,0,4.9-0.3,7.3-1l0.7-0.2
			c0.4,3.4,3.3,6.1,6.8,6.1c3.8,0,6.9-3.1,6.9-6.9c0-2.3-1.2-4.4-3-5.6l0.5-0.5C74.7,59,77.4,52.9,77.7,46.4z"/>
	</g>
</g>
<g>
	<g>
		<path fill-rule="evenodd" clip-rule="evenodd" fill="#FFFFFF" d="M41,57.4c-4.1-3-6.8-7.9-6.8-13.4c0-5.6,2.8-10.6,7-13.6
			l-4.6-7.8c-5.1,3.4-9,8.7-10.6,14.9c2,1.4,3.3,3.7,3.3,6.4c0,2.7-1.4,5-3.4,6.4c1.6,6.3,5.4,11.6,10.6,15.1L41,57.4z"/>
		<path fill-rule="evenodd" clip-rule="evenodd" fill="#FFFFFF" d="M44.2,28.7c2.1-0.9,4.4-1.4,6.8-1.4c8.6,0,15.7,6.5,16.6,14.9
			l9.1-0.1c-0.5-6.4-3.3-12.1-7.5-16.3c-1,0.5-2.2,0.8-3.5,0.8c-4.2,0-7.6-3.3-7.8-7.4c-2.2-0.6-4.5-0.9-6.9-0.9
			c-4.1,0-8,1-11.4,2.7L44.2,28.7z"/>
		<path fill-rule="evenodd" clip-rule="evenodd" fill="#FFFFFF" d="M65.8,61c1.3,0,2.6,0.3,3.7,0.9c4.2-4.3,6.9-10.1,7.2-16.5
			l-9.1,0.1C66.9,54,59.7,60.7,51,60.7c-2.5,0-4.9-0.6-7.1-1.6l-4.4,7.9c3.5,1.7,7.4,2.7,11.5,2.7c2.4,0,4.8-0.3,7-1
			C58,64.5,61.5,61,65.8,61z"/>
	</g>
	<circle fill-rule="evenodd" clip-rule="evenodd" fill="#FFFFFF" cx="65.8" cy="68.8" r="5.9"/>
	<circle fill-rule="evenodd" clip-rule="evenodd" fill="#FFFFFF" cx="65.7" cy="18.7" r="5.9"/>
	<circle fill-rule="evenodd" clip-rule="evenodd" fill="#FFFFFF" cx="21.6" cy="43.8" r="5.9"/>
	<polygon fill-rule="evenodd" clip-rule="evenodd" fill="#FFFFFF" points="48.7,40 50.8,37.2 50,34.1 51.4,30.1 48.1,33.4 
		47.7,33.3 48.5,31.2 45.5,34.3 42.6,36 39.5,41.8 41.2,46 41.8,49.3 42.5,50.9 40.1,53.7 43.4,53.7 43.8,50.7 45.2,48.7 47.3,49.1 
		49.8,48.1 51.7,47.2 53.5,48.4 51.3,50.9 49.1,52.9 52.5,53 52.5,51.6 55.2,49.5 56.1,50.7 53.4,54.6 56.9,54.6 56.7,52.6 
		59.2,50.4 57.9,47.8 57.8,44.7 60.3,43.2 61.8,43.5 63.7,42.8 64.3,38.8 61.2,39.8 59.4,42.5 56.3,44.1 51.8,42.4 	"/>
</g>
</svg>
