<?xml version="1.0" encoding="utf-8"?>
<!-- Generator: Adobe Illustrator 14.0.0, SVG Export Plug-In . SVG Version: 6.00 Build 43363)  -->
<!DOCTYPE svg PUBLIC "-//W3C//DTD SVG 1.1//EN" "http://www.w3.org/Graphics/SVG/1.1/DTD/svg11.dtd">
<svg version="1.1"
	 id="svg2408" xmlns:dc="http://purl.org/dc/elements/1.1/" xmlns:svg="http://www.w3.org/2000/svg" xmlns:cc="http://creativecommons.org/ns#" xmlns:rdf="http://www.w3.org/1999/02/22-rdf-syntax-ns#" xmlns:inkscape="http://www.inkscape.org/namespaces/inkscape"
	 xmlns="http://www.w3.org/2000/svg" xmlns:xlink="http://www.w3.org/1999/xlink" x="0px" y="0px" width="96px" height="96px"
	 viewBox="0 0 96 96" enable-background="new 0 0 96 96" xml:space="preserve">
<g>
	
		<linearGradient id="SVGID_1_" gradientUnits="userSpaceOnUse" x1="8" y1="-48" x2="100" y2="-48" gradientTransform="matrix(1 0 0 -1 -6 0)">
		<stop  offset="0" style="stop-color:#000000"/>
		<stop  offset="1" style="stop-color:#000000;stop-opacity:0.5882"/>
	</linearGradient>
	<path opacity="0.08" fill="url(#SVGID_1_)" enable-background="new    " d="M10.5,93C5.813,93,2,89.188,2,84.5v-73
		C2,6.813,5.813,3,10.5,3h75c4.145,0,7.786,3.007,8.5,7v74.5c0,4.688-3.813,8.5-8.5,8.5H10.5z"/>
	
		<linearGradient id="SVGID_2_" gradientUnits="userSpaceOnUse" x1="9" y1="-48" x2="99" y2="-48" gradientTransform="matrix(1 0 0 -1 -6 0)">
		<stop  offset="0" style="stop-color:#000000"/>
		<stop  offset="1" style="stop-color:#000000;stop-opacity:0.5882"/>
	</linearGradient>
	<path opacity="0.1" fill="url(#SVGID_2_)" enable-background="new    " d="M10.5,92C6.364,92,3,88.636,3,84.5v-73
		C3,7.364,6.364,4,10.5,4h75c3.968,0,7.242,3.097,7.5,7v73.5c0,4.136-3.363,7.5-7.5,7.5H10.5z"/>
	
		<linearGradient id="SVGID_3_" gradientUnits="userSpaceOnUse" x1="10" y1="-48" x2="98" y2="-48" gradientTransform="matrix(1 0 0 -1 -6 0)">
		<stop  offset="0" style="stop-color:#000000"/>
		<stop  offset="1" style="stop-color:#000000;stop-opacity:0.5882"/>
	</linearGradient>
	<path opacity="0.2" fill="url(#SVGID_3_)" enable-background="new    " d="M10.5,91C6.916,91,4,88.084,4,84.5v-73
		C4,7.916,6.916,5,10.5,5h75c3.584,0,6.5,2.916,6.5,6.5v73c0,3.584-2.916,6.5-6.5,6.5H10.5z"/>
	
		<linearGradient id="SVGID_4_" gradientUnits="userSpaceOnUse" x1="54" y1="-8" x2="54" y2="-90.4195" gradientTransform="matrix(1 0 0 -1 -6 0)">
		<stop  offset="0" style="stop-color:#000000"/>
		<stop  offset="1" style="stop-color:#000000;stop-opacity:0.5882"/>
	</linearGradient>
	<path opacity="0.45" fill="url(#SVGID_4_)" enable-background="new    " d="M90,12.5c0-2.484-2.016-4.5-4.5-4.5h-75
		C8.015,8,6,10.016,6,12.5v18V63v22.5c0,2.486,2.015,4.5,4.5,4.5h75c2.484,0,4.5-2.014,4.5-4.5V12.5z"/>
</g>
<g>
	<path fill="#0E5A80" d="M90,84.5c0,2.486-2.016,4.5-4.5,4.5h-75C8.015,89,6,86.986,6,84.5v-57c0-2.484,2.015-4.5,4.5-4.5h75
		c2.484,0,4.5,2.016,4.5,4.5V84.5z"/>
</g>
<linearGradient id="SVGID_5_" gradientUnits="userSpaceOnUse" x1="54" y1="-84.5" x2="54" y2="-5" gradientTransform="matrix(1 0 0 -1 -6 0)">
	<stop  offset="0" style="stop-color:#1793D1"/>
	<stop  offset="1" style="stop-color:#6DC4EF"/>
</linearGradient>
<path fill="url(#SVGID_5_)" d="M90,80c0,2.486-2.016,4.5-4.5,4.5h-75C8.015,84.5,6,82.486,6,80V9.5C6,7.016,8.015,5,10.5,5h75
	C87.984,5,90,7.016,90,9.5V80z"/>
<path fill="#29ABE2" d="M10.5,83c-1.654,0-3-1.346-3-3V9.5c0-1.654,1.346-3,3-3h75c1.654,0,3,1.346,3,3V80c0,1.654-1.346,3-3,3H10.5
	z"/>
<radialGradient id="SVGID_6_" cx="54" cy="-44.75" r="39.3911" gradientTransform="matrix(1 0 0 -1 -6 0)" gradientUnits="userSpaceOnUse">
	<stop  offset="0" style="stop-color:#FFFFFF"/>
	<stop  offset="1" style="stop-color:#FFFFFF;stop-opacity:0"/>
</radialGradient>
<path opacity="0.3" fill="url(#SVGID_6_)" enable-background="new    " d="M10.5,83c-1.654,0-3-1.346-3-3V9.5c0-1.654,1.346-3,3-3
	h75c1.654,0,3,1.346,3,3V80c0,1.654-1.346,3-3,3H10.5z"/>
<g opacity="0.2">
	
		<radialGradient id="SVGID_7_" cx="51.666" cy="-47" r="255.6427" gradientTransform="matrix(1 0 0 -1 -6 0)" gradientUnits="userSpaceOnUse">
		<stop  offset="0" style="stop-color:#FFFFFF"/>
		<stop  offset="1" style="stop-color:#FFFFFF;stop-opacity:0"/>
	</radialGradient>
	<polygon fill="url(#SVGID_7_)" points="22.984,83 32.59,83 88.5,27.091 88.5,17.485 	"/>
	
		<radialGradient id="SVGID_8_" cx="51.666" cy="-47" r="255.6422" gradientTransform="matrix(1 0 0 -1 -6 0)" gradientUnits="userSpaceOnUse">
		<stop  offset="0" style="stop-color:#FFFFFF"/>
		<stop  offset="1" style="stop-color:#FFFFFF;stop-opacity:0"/>
	</radialGradient>
	<polygon fill="url(#SVGID_8_)" points="43.738,6.5 7.5,42.738 7.5,52.344 53.344,6.5 	"/>
	
		<radialGradient id="SVGID_9_" cx="51.666" cy="-47" r="255.644" gradientTransform="matrix(1 0 0 -1 -6 0)" gradientUnits="userSpaceOnUse">
		<stop  offset="0" style="stop-color:#FFFFFF"/>
		<stop  offset="1" style="stop-color:#FFFFFF;stop-opacity:0"/>
	</radialGradient>
	<polygon fill="url(#SVGID_9_)" points="62.32,6.5 7.5,61.32 7.5,70.926 71.926,6.5 	"/>
	
		<radialGradient id="SVGID_10_" cx="51.666" cy="-47" r="255.6455" gradientTransform="matrix(1 0 0 -1 -6 0)" gradientUnits="userSpaceOnUse">
		<stop  offset="0" style="stop-color:#FFFFFF"/>
		<stop  offset="1" style="stop-color:#FFFFFF;stop-opacity:0"/>
	</radialGradient>
	<polygon fill="url(#SVGID_10_)" points="51.173,83 88.5,45.673 88.5,36.068 41.567,83 	"/>
	
		<radialGradient id="SVGID_11_" cx="51.666" cy="-47" r="255.6449" gradientTransform="matrix(1 0 0 -1 -6 0)" gradientUnits="userSpaceOnUse">
		<stop  offset="0" style="stop-color:#FFFFFF"/>
		<stop  offset="1" style="stop-color:#FFFFFF;stop-opacity:0"/>
	</radialGradient>
	<polygon fill="url(#SVGID_11_)" points="69.755,83 88.5,64.255 88.5,54.65 60.148,83 	"/>
	
		<radialGradient id="SVGID_12_" cx="51.665" cy="-47" r="255.6484" gradientTransform="matrix(1 0 0 -1 -6 0)" gradientUnits="userSpaceOnUse">
		<stop  offset="0" style="stop-color:#FFFFFF"/>
		<stop  offset="1" style="stop-color:#FFFFFF;stop-opacity:0"/>
	</radialGradient>
	<path fill="url(#SVGID_12_)" d="M85.5,83c1.654,0,3-1.348,3-3v-6.77L78.73,83H85.5z"/>
	
		<radialGradient id="SVGID_13_" cx="51.666" cy="-47" r="255.645" gradientTransform="matrix(1 0 0 -1 -6 0)" gradientUnits="userSpaceOnUse">
		<stop  offset="0" style="stop-color:#FFFFFF"/>
		<stop  offset="1" style="stop-color:#FFFFFF;stop-opacity:0"/>
	</radialGradient>
	<path fill="url(#SVGID_13_)" d="M10.5,83h3.508L88.361,8.647C87.991,7.41,86.855,6.5,85.5,6.5h-4.598L7.5,79.902V80
		C7.5,81.652,8.845,83,10.5,83z"/>
	
		<radialGradient id="SVGID_14_" cx="51.667" cy="-47" r="255.6434" gradientTransform="matrix(1 0 0 -1 -6 0)" gradientUnits="userSpaceOnUse">
		<stop  offset="0" style="stop-color:#FFFFFF"/>
		<stop  offset="1" style="stop-color:#FFFFFF;stop-opacity:0"/>
	</radialGradient>
	<path fill="url(#SVGID_14_)" d="M10.5,6.5c-1.654,0-3,1.346-3,3v5.576L16.076,6.5H10.5z"/>
	
		<radialGradient id="SVGID_15_" cx="51.666" cy="-47" r="255.6406" gradientTransform="matrix(1 0 0 -1 -6 0)" gradientUnits="userSpaceOnUse">
		<stop  offset="0" style="stop-color:#FFFFFF"/>
		<stop  offset="1" style="stop-color:#FFFFFF;stop-opacity:0"/>
	</radialGradient>
	<polygon fill="url(#SVGID_15_)" points="25.053,6.5 7.5,24.053 7.5,33.658 34.658,6.5 	"/>
</g>
<g id="layer4_5_">
	<path id="path3943" opacity="0.05" enable-background="new    " d="M47.661,8.767c-0.043,0.008-0.084,0.018-0.125,0.031
		c-1.511,0.341-2.271,1.61-2.688,2.719s-0.674,2.196-1.031,2.75c-0.038,0.059-0.069,0.122-0.094,0.188
		c-2.02,5.212-4.334,10.362-6.531,15.531c-0.064,0.137-0.098,0.286-0.094,0.438c0.004,0.061-0.059,0.193-0.406,0.594
		c-0.29,0.333-0.68,0.879-0.844,1.594h-0.031C28.495,47.61,20.172,62.15,12.223,76.861c-0.038,0.06-0.069,0.121-0.094,0.188
		c-0.73,2.513,2.276,4.632,4.375,3.281c0.021-0.015,0.041-0.019,0.063-0.031c8.16-4.678,16.559-9.157,25.688-11.03
		c0.098-0.018,0.193-0.05,0.281-0.095c0.674-0.362,1.154-0.922,1.375-1.53c0.221-0.609,0.221-1.203,0.156-1.75
		c-0.128-1.095-0.457-2.113-0.438-2.656c0-0.021,0-0.041,0-0.063c-0.052-1.879,0.105-3.936,0.688-5.719
		c0.572-1.753,1.539-3.185,3.063-4.125c0.57-0.146,1.059-0.119,1.5,0.063c0.489,0.198,0.968,0.59,1.407,1.125
		c0.879,1.067,1.543,2.682,1.875,3.938c0,0.01,0,0.021,0,0.031c0.826,2.604,0.455,5.488,0.125,8.406
		c-0.014,0.125-0.004,0.254,0.031,0.375c0.23,0.811,0.752,1.422,1.344,1.813s1.227,0.592,1.844,0.719
		c1.232,0.254,2.424,0.338,3,0.656c0.059,0.038,0.121,0.068,0.188,0.094c7.47,2.244,14.459,6.191,21.313,9.969
		c0.04,0.023,0.082,0.045,0.125,0.063c2.479,0.896,4.829-2.087,3.438-4.281l0.031-0.03c-0.019-0.031-0.045-0.063-0.063-0.095
		c-1.994-3.464-3.697-7.272-5.938-10.75c-0.096-0.135-0.226-0.241-0.375-0.313c-0.787-0.414-1.059-0.726-1.188-1
		s-0.157-0.689-0.063-1.47c0.017-0.194-0.027-0.393-0.125-0.563C67.497,46.18,58.82,30.383,52.13,13.767
		c-0.026-0.044-0.06-0.086-0.094-0.125c-0.31-0.498-0.575-1.688-1.095-2.781c-0.26-0.546-0.608-1.075-1.155-1.5
		C49.238,8.936,48.475,8.684,47.661,8.767z"/>
	<path id="path3937" inkscape:connector-curvature="0" opacity="0.1" enable-background="new    " d="M47.754,9.735
		c-2.211,0.5-2.083,3.479-3.113,5.073c-2.033,5.246-4.383,10.396-6.574,15.552c0.059,1.015-1.332,1.496-1.381,2.681
		c-7.342,15.036-15.678,29.59-23.619,44.288c-0.484,1.663,1.658,3.051,2.969,2.155c8.196-4.698,16.698-9.241,26.031-11.155
		c2.003-1.08,0.536-3.438,0.596-5.117c-0.107-3.907,0.67-8.624,4.289-10.787c3.418-1.086,5.43,3.054,6.146,5.765
		c0.911,2.873,0.485,5.897,0.157,8.797c0.69,2.418,3.933,1.632,5.709,2.611c7.609,2.286,14.664,6.303,21.511,10.075
		c1.651,0.599,3.299-1.496,2.28-2.938c-2.051-3.547-3.762-7.354-5.969-10.78c-1.759-0.925-1.985-1.756-1.781-3.438
		C66.66,46.629,57.939,30.838,51.223,14.148C50.303,12.662,50.184,9.489,47.754,9.735z"/>
	<path id="path3933_1_" opacity="0.15" enable-background="new    " d="M47.817,10.86c-0.271,0.073-0.491,0.27-0.594,0.531
		c-2.941,7.211-4.742,11.913-8,18.875c-0.148,0.325-0.086,0.707,0.156,0.969c0.522,0.554,1.235,1.206,1.844,1.813
		c-0.5-0.362-1.129-0.729-1.563-1.094c-0.375-0.314-0.935-0.264-1.248,0.111c-0.051,0.061-0.094,0.129-0.127,0.201
		c-4.172,8.705-10.727,21.125-24.031,45.031c-0.256,0.418-0.125,0.963,0.293,1.219c0.283,0.174,0.642,0.174,0.926,0
		c10.425-6.019,18.451-9.703,25.844-11.094c0.482-0.082,0.809-0.539,0.727-1.021c-0.002-0.014-0.005-0.026-0.008-0.041
		c-0.303-1.305-0.504-2.723-0.5-4.188v-0.063c0-0.01,0-0.021,0-0.03l0.031-0.25c0.001-0.021,0.001-0.041,0-0.063
		c0.079-3.203,0.961-6.033,2.25-7.938c1.289-1.905,2.914-2.861,4.594-2.719c1.678,0.143,3.269,1.414,4.469,3.563
		c1.201,2.148,1.954,5.109,1.875,8.313c-0.03,1.217-0.173,2.382-0.405,3.438c-0.104,0.479,0.198,0.95,0.678,1.056
		c0.014,0.002,0.027,0.006,0.041,0.008c7.313,1.431,15.248,5.094,25.531,11.031c0.418,0.256,0.963,0.125,1.219-0.293
		c0.174-0.283,0.174-0.643,0-0.927c-2.033-3.743-3.859-7.097-5.594-10.313c-0.063-0.109-0.147-0.207-0.25-0.28
		c-1.162-0.899-2.453-2.015-3.938-3.156c0.188,0.107,0.442,0.204,0.625,0.313c0.419,0.253,0.964,0.117,1.217-0.301
		c0.156-0.262,0.17-0.584,0.033-0.855C56.284,29.888,54.9,25.597,48.848,11.392C48.684,10.983,48.245,10.757,47.817,10.86z"/>
	<path id="path3927" inkscape:connector-curvature="0" opacity="0.3" enable-background="new    " d="M48.03,11.735
		c-2.938,7.202-4.71,11.913-7.98,18.901c2.006,2.126,4.467,4.601,8.464,7.397c-4.298-1.769-7.229-3.544-9.418-5.386
		c-4.187,8.734-10.744,21.176-24.053,45.087c10.46-6.039,18.568-9.762,26.125-11.182c-0.324-1.396-0.51-2.906-0.496-4.479
		l0.012-0.337c0.166-6.7,3.652-11.854,7.781-11.504c4.13,0.351,7.341,6.069,7.175,12.771c-0.031,1.262-0.175,2.475-0.423,3.6
		c7.476,1.463,15.496,5.176,25.813,11.133c-2.034-3.746-3.852-7.122-5.584-10.338c-2.731-2.117-5.582-4.873-11.395-7.855
		c3.995,1.037,6.855,2.234,9.086,3.574C55.505,30.287,54.077,25.925,48.03,11.735L48.03,11.735z"/>
	
		<radialGradient id="path2518_1_" cx="312.0352" cy="1015.6934" r="32.9938" gradientTransform="matrix(1 0 0 1.0002 -264 -948.1591)" gradientUnits="userSpaceOnUse">
		<stop  offset="0" style="stop-color:#FAFAFA"/>
		<stop  offset="1" style="stop-color:#F0F0F0"/>
	</radialGradient>
	<path id="path2518" inkscape:connector-curvature="0" fill="url(#path2518_1_)" d="M48.03,10.735
		c-2.938,7.202-4.71,11.913-7.98,18.901c2.006,2.126,4.467,4.601,8.464,7.397c-4.298-1.769-7.229-3.544-9.418-5.386
		c-4.187,8.734-10.744,21.176-24.053,45.087c10.46-6.039,18.568-9.762,26.125-11.182c-0.324-1.396-0.51-2.906-0.496-4.479
		l0.012-0.337c0.166-6.7,3.652-11.854,7.781-11.504c4.13,0.351,7.341,6.069,7.175,12.771c-0.031,1.262-0.175,2.475-0.423,3.6
		c7.476,1.463,15.496,5.176,25.813,11.133c-2.034-3.746-3.852-7.122-5.584-10.338c-2.731-2.117-5.582-4.873-11.395-7.855
		c3.995,1.037,6.855,2.234,9.086,3.574C55.505,29.287,54.077,24.925,48.03,10.735L48.03,10.735z"/>
	<path id="path2522" inkscape:connector-curvature="0" fill="#FFFFFF" d="M66.611,49.959C52.307,30.544,48.992,14.896,48.152,11.16
		C55.782,28.76,55.73,28.976,66.611,49.959z"/>
	
		<linearGradient id="path2520_1_" gradientUnits="userSpaceOnUse" x1="-3535.999" y1="5431.8564" x2="-3470.4351" y2="5630.4482" gradientTransform="matrix(-0.1368 0 0 0.1368 -428.4478 -722.1869)">
		<stop  offset="0" style="stop-color:#FFFFFF;stop-opacity:0"/>
		<stop  offset="1" style="stop-color:#FFFFFF;stop-opacity:0.6047"/>
	</linearGradient>
	<path id="path2520" inkscape:connector-curvature="0" fill="url(#path2520_1_)" d="M48.153,11.033
		c-0.363,0.896-0.717,1.767-1.055,2.594c-0.375,0.923-0.736,1.805-1.092,2.668c-0.356,0.863-0.706,1.7-1.055,2.532
		c-0.349,0.832-0.698,1.655-1.055,2.482c-0.357,0.828-0.725,1.657-1.105,2.507c-0.379,0.85-0.774,1.73-1.191,2.631
		c-0.416,0.9-0.848,1.827-1.314,2.805c-0.064,0.133-0.135,0.288-0.199,0.422c1.999,2.118,4.453,4.581,8.427,7.36
		c-4.285-1.763-7.207-3.538-9.395-5.374c-0.114,0.234-0.217,0.443-0.335,0.683c-0.413,0.837-0.869,1.741-1.328,2.656
		c-0.02,0.039-0.03,0.073-0.05,0.112c-0.116,0.232-0.216,0.433-0.335,0.67c-0.018,0.036-0.044,0.075-0.063,0.111
		c-1.9,3.814-4.252,8.371-7.271,14.024C38.101,45.2,47.13,38.405,63.52,44.257c-0.822-1.558-1.574-3.008-2.283-4.381
		c-0.711-1.374-1.373-2.669-1.986-3.885c-0.611-1.216-1.184-2.352-1.713-3.438c-0.529-1.086-1.016-2.12-1.477-3.103
		c-0.461-0.983-0.896-1.922-1.304-2.83c-0.407-0.908-0.797-1.785-1.167-2.644c-0.369-0.859-0.721-1.695-1.066-2.532
		c-0.348-0.837-0.691-1.665-1.029-2.507c-0.113-0.282-0.234-0.572-0.348-0.856C50.213,15.896,49.26,13.63,48.153,11.033
		L48.153,11.033z"/>
</g>
</svg>
