<?xml version="1.0" encoding="utf-8"?>
<!-- Generator: Adobe Illustrator 14.0.0, SVG Export Plug-In . SVG Version: 6.00 Build 43363)  -->
<!DOCTYPE svg PUBLIC "-//W3C//DTD SVG 1.1//EN" "http://www.w3.org/Graphics/SVG/1.1/DTD/svg11.dtd">
<svg version="1.1"
	 id="svg2408" xmlns:dc="http://purl.org/dc/elements/1.1/" xmlns:svg="http://www.w3.org/2000/svg" xmlns:cc="http://creativecommons.org/ns#" xmlns:rdf="http://www.w3.org/1999/02/22-rdf-syntax-ns#" xmlns:inkscape="http://www.inkscape.org/namespaces/inkscape"
	 xmlns="http://www.w3.org/2000/svg" xmlns:xlink="http://www.w3.org/1999/xlink" x="0px" y="0px" width="96px" height="96px"
	 viewBox="0 0 96 96" enable-background="new 0 0 96 96" xml:space="preserve">
<g>
	<linearGradient id="SVGID_1_" gradientUnits="userSpaceOnUse" x1="2" y1="48" x2="94" y2="48">
		<stop  offset="0" style="stop-color:#000000"/>
		<stop  offset="1" style="stop-color:#000000;stop-opacity:0.5882"/>
	</linearGradient>
	<path opacity="0.08" fill="url(#SVGID_1_)" enable-background="new    " d="M10.5,93C5.813,93,2,89.187,2,84.5v-73
		C2,6.813,5.813,3,10.5,3h75c4.145,0,7.786,3.007,8.5,7v74.5c0,4.687-3.813,8.5-8.5,8.5H10.5z"/>
	<linearGradient id="SVGID_2_" gradientUnits="userSpaceOnUse" x1="3" y1="48" x2="93" y2="48">
		<stop  offset="0" style="stop-color:#000000"/>
		<stop  offset="1" style="stop-color:#000000;stop-opacity:0.5882"/>
	</linearGradient>
	<path opacity="0.1" fill="url(#SVGID_2_)" enable-background="new    " d="M10.5,92C6.364,92,3,88.636,3,84.5v-73
		C3,7.364,6.364,4,10.5,4h75c3.968,0,7.242,3.097,7.5,7v73.5c0,4.136-3.364,7.5-7.5,7.5H10.5z"/>
	<linearGradient id="SVGID_3_" gradientUnits="userSpaceOnUse" x1="4" y1="48" x2="92" y2="48">
		<stop  offset="0" style="stop-color:#000000"/>
		<stop  offset="1" style="stop-color:#000000;stop-opacity:0.5882"/>
	</linearGradient>
	<path opacity="0.2" fill="url(#SVGID_3_)" enable-background="new    " d="M10.5,91C6.916,91,4,88.084,4,84.5v-73
		C4,7.916,6.916,5,10.5,5h75c3.584,0,6.5,2.916,6.5,6.5v73c0,3.584-2.916,6.5-6.5,6.5H10.5z"/>
	<linearGradient id="SVGID_4_" gradientUnits="userSpaceOnUse" x1="47.9995" y1="8" x2="47.9995" y2="90.4195">
		<stop  offset="0" style="stop-color:#000000"/>
		<stop  offset="1" style="stop-color:#000000;stop-opacity:0.5882"/>
	</linearGradient>
	<path opacity="0.45" fill="url(#SVGID_4_)" enable-background="new    " d="M90,12.5c0-2.484-2.016-4.5-4.5-4.5h-75
		C8.015,8,6,10.016,6,12.5v18V63v22.5c0,2.487,2.015,4.5,4.5,4.5h75c2.484,0,4.5-2.013,4.5-4.5V12.5z"/>
</g>
<g>
	<path fill="#3E3E3E" d="M90,84.5c0,2.487-2.016,4.5-4.5,4.5h-75C8.015,89,6,86.987,6,84.5v-57c0-2.484,2.015-4.5,4.5-4.5h75
		c2.484,0,4.5,2.016,4.5,4.5V84.5z"/>
</g>
<linearGradient id="SVGID_5_" gradientUnits="userSpaceOnUse" x1="48.0005" y1="84.5" x2="48.0005" y2="5.0005">
	<stop  offset="0" style="stop-color:#333333"/>
	<stop  offset="0.503" style="stop-color:#404040"/>
	<stop  offset="1" style="stop-color:#4D4D4D"/>
</linearGradient>
<path fill="url(#SVGID_5_)" d="M90,80c0,2.487-2.016,4.5-4.5,4.5h-75C8.015,84.5,6,82.487,6,80V9.5C6,7.016,8.015,5,10.5,5h75
	C87.984,5,90,7.016,90,9.5V80z"/>
<path fill="#4D4D4D" d="M10.5,83c-1.654,0-3-1.346-3-3V9.5c0-1.654,1.346-3,3-3h75c1.654,0,3,1.346,3,3V80c0,1.654-1.346,3-3,3H10.5
	z"/>
<radialGradient id="SVGID_6_" cx="48" cy="44.75" r="39.3911" gradientUnits="userSpaceOnUse">
	<stop  offset="0" style="stop-color:#FFFFFF"/>
	<stop  offset="1" style="stop-color:#FFFFFF;stop-opacity:0"/>
</radialGradient>
<path opacity="0.3" fill="url(#SVGID_6_)" d="M10.5,83c-1.654,0-3-1.346-3-3V9.5c0-1.654,1.346-3,3-3h75c1.654,0,3,1.346,3,3V80
	c0,1.654-1.346,3-3,3H10.5z"/>
<g opacity="0.2">
	<radialGradient id="SVGID_7_" cx="45.6665" cy="47" r="255.6421" gradientUnits="userSpaceOnUse">
		<stop  offset="0" style="stop-color:#FFFFFF"/>
		<stop  offset="1" style="stop-color:#FFFFFF;stop-opacity:0"/>
	</radialGradient>
	<polygon fill="url(#SVGID_7_)" points="22.984,83 32.59,83 88.5,27.091 88.5,17.485 	"/>
	<radialGradient id="SVGID_8_" cx="45.6665" cy="47" r="255.6422" gradientUnits="userSpaceOnUse">
		<stop  offset="0" style="stop-color:#FFFFFF"/>
		<stop  offset="1" style="stop-color:#FFFFFF;stop-opacity:0"/>
	</radialGradient>
	<polygon fill="url(#SVGID_8_)" points="43.738,6.5 7.5,42.738 7.5,52.344 53.344,6.5 	"/>
	<radialGradient id="SVGID_9_" cx="45.6665" cy="47" r="255.6426" gradientUnits="userSpaceOnUse">
		<stop  offset="0" style="stop-color:#FFFFFF"/>
		<stop  offset="1" style="stop-color:#FFFFFF;stop-opacity:0"/>
	</radialGradient>
	<polygon fill="url(#SVGID_9_)" points="62.32,6.5 7.5,61.32 7.5,70.926 71.926,6.5 	"/>
	<radialGradient id="SVGID_10_" cx="45.6665" cy="47" r="255.6421" gradientUnits="userSpaceOnUse">
		<stop  offset="0" style="stop-color:#FFFFFF"/>
		<stop  offset="1" style="stop-color:#FFFFFF;stop-opacity:0"/>
	</radialGradient>
	<polygon fill="url(#SVGID_10_)" points="51.173,83 88.5,45.673 88.5,36.068 41.567,83 	"/>
	<radialGradient id="SVGID_11_" cx="45.6665" cy="47" r="255.6421" gradientUnits="userSpaceOnUse">
		<stop  offset="0" style="stop-color:#FFFFFF"/>
		<stop  offset="1" style="stop-color:#FFFFFF;stop-opacity:0"/>
	</radialGradient>
	<polygon fill="url(#SVGID_11_)" points="69.755,83 88.5,64.255 88.5,54.65 60.149,83 	"/>
	<radialGradient id="SVGID_12_" cx="45.6665" cy="47" r="255.6421" gradientUnits="userSpaceOnUse">
		<stop  offset="0" style="stop-color:#FFFFFF"/>
		<stop  offset="1" style="stop-color:#FFFFFF;stop-opacity:0"/>
	</radialGradient>
	<path fill="url(#SVGID_12_)" d="M85.5,83c1.655,0,3-1.347,3-3v-6.769L78.731,83H85.5z"/>
	<radialGradient id="SVGID_13_" cx="45.6665" cy="47" r="255.6419" gradientUnits="userSpaceOnUse">
		<stop  offset="0" style="stop-color:#FFFFFF"/>
		<stop  offset="1" style="stop-color:#FFFFFF;stop-opacity:0"/>
	</radialGradient>
	<path fill="url(#SVGID_13_)" d="M10.5,83h3.508L88.361,8.647C87.991,7.41,86.855,6.5,85.5,6.5h-4.598L7.5,79.902V80
		C7.5,81.653,8.845,83,10.5,83z"/>
	<radialGradient id="SVGID_14_" cx="45.6665" cy="47" r="255.6419" gradientUnits="userSpaceOnUse">
		<stop  offset="0" style="stop-color:#FFFFFF"/>
		<stop  offset="1" style="stop-color:#FFFFFF;stop-opacity:0"/>
	</radialGradient>
	<path fill="url(#SVGID_14_)" d="M10.5,6.5c-1.654,0-3,1.346-3,3v5.576L16.076,6.5H10.5z"/>
	<radialGradient id="SVGID_15_" cx="45.6665" cy="47" r="255.6414" gradientUnits="userSpaceOnUse">
		<stop  offset="0" style="stop-color:#FFFFFF"/>
		<stop  offset="1" style="stop-color:#FFFFFF;stop-opacity:0"/>
	</radialGradient>
	<polygon fill="url(#SVGID_15_)" points="25.053,6.5 7.5,24.053 7.5,33.658 34.658,6.5 	"/>
</g>
<g id="layer3">
	<path id="path3816" opacity="0.1" enable-background="new    " d="M67.962,10.624c-2.947,0.196-6.183,1.357-8.844,3.531
		c-1.86,1.52-3.209,3.815-4.156,6.219c-0.945,2.399-1.527,4.942-1.094,7.25c0.228,1.21,0.75,2.356,1.406,3.344
		c0.35,0.526,0.752,1.046,1.219,1.5c-1.025-0.142-2.01-0.325-3.125-0.344c-2.363-0.041-4.995,0.165-7.719,0.719
		c-6.35,1.29-11.576,3.695-15.344,7.031c1.635-1.678,1.904-4.266,1.281-7.063c-0.104-0.466-0.293-0.851-0.438-1.281
		c0.345,0.489,0.524,1.033,0.969,1.5c0.869,0.913,1.94,1.741,3.344,1.813c1.439,0.074,2.613-0.724,3.469-1.625
		c1.967-2.074,2.525-5.093,1.969-8.094c-0.404-2.178-1.171-4.017-2.313-5.344c-1.167-1.355-2.867-2.164-4.656-1.906
		c-1.244,0.179-2.244,0.84-3.063,1.656c-0.746,0.744-1.415,1.587-1.688,2.656c-0.257,1.009-0.195,1.917-0.188,3.063
		c0.008,1.246,0.301,2.318,0.625,3.375c-0.179-0.229-0.301-0.515-0.5-0.719c-1.219-1.251-2.961-2.009-4.75-1.719
		c-1.201,0.195-2.223,0.819-3.094,1.688c-1.643,1.638-1.654,4.011-1.156,6.031c0.5,2.031,1.589,4.116,3.313,5.625
		c1.008,0.883,2.127,1.527,3.375,1.656c1.28,0.132,2.531-0.371,3.406-1.219c-0.292,0.262-0.664,0.476-0.938,0.75
		c-2.14,2.146-3.48,4.34-4.5,7.344c-2.742,8.073,2.087,18.347,10.688,25.313c3.118,2.525,5.324,3.764,8.563,4.844
		c1.84,0.613,3.531,0.758,6.563,0.656c3.436-0.115,4.82-0.4,7.125-1.531c3.768-1.85,7.534-5.584,9.375-9.313
		c1.021-2.067,1.357-3.57,1.25-5.406c-0.096-1.65-0.557-3.352-1.969-4.406c-1.362-1.018-3.002-1.143-4.875-1.125
		c-2.637,0.024-4.811,0.32-6.594,1.375c-1.803,1.065-2.896,2.834-3.5,4.906c-0.34,1.164-0.736,1.826-0.813,1.906
		c-0.208,0.221,0.046,0.125-0.5,0.125c-0.75,0-1.741-0.39-2.407-0.938c-0.637-0.524-0.884-1.154-0.906-1.375
		c0.029-0.059,0.058-0.116,0.125-0.219c0.195-0.297,0.573-0.777,1.188-1.344c1.247-1.15,3.384-2.724,6.532-4.844
		c4.559-3.07,7.734-5.6,9.813-8.063c2.093-2.48,3.051-5.115,2.75-7.781c-0.321-2.843-2.123-5.14-4.625-6.563
		c-0.315-0.179-0.727-0.25-1.063-0.406c0.928-0.152,1.888-0.398,2.781-0.813c2.117-0.981,4.238-2.593,6.281-4.75
		c2.21-2.334,3.854-4.855,4.781-7.281c0.924-2.419,1.233-4.925,0.125-7.063C74.06,11.264,70.917,10.428,67.962,10.624z
		 M47.93,13.155c-2.252,0.002-4.352,0.91-5.656,2.656c-1.281,1.715-1.758,3.957-1.75,6.531c0.006,1.806,0.32,3.506,0.875,4.969
		c0.544,1.434,1.348,2.843,2.844,3.563c0.52,0.25,1.148,0.598,2,0.625c0.803,0.025,1.396-0.206,2.063-0.438
		c2.203-0.766,3.411-2.863,4.282-4.938c0.885-2.109,1.412-4.52,1.125-6.813c-0.208-1.66-0.646-3.199-1.656-4.375
		C51.015,13.724,49.483,13.154,47.93,13.155z"/>
	<path id="path3812" opacity="0.15" enable-background="new    " d="M68.024,11.718c-2.714,0.18-5.748,1.262-8.219,3.281
		c-1.637,1.337-2.942,3.494-3.844,5.781s-1.403,4.678-1.031,6.656c0.193,1.028,0.66,2.05,1.25,2.938s1.286,1.669,2.156,2.125
		c1.576,0.826,3.518,0.499,5.469-0.406s4-2.452,5.969-4.531c2.128-2.248,3.701-4.651,4.563-6.906s1.064-4.436,0.156-6.188
		C73.359,12.281,70.735,11.538,68.024,11.718z M47.93,14.249c-1.973,0.002-3.696,0.767-4.781,2.219s-1.538,3.437-1.531,5.875
		c0.005,1.689,0.282,3.277,0.781,4.594s1.18,2.424,2.313,2.969c0.535,0.258,0.965,0.481,1.563,0.5s1.008-0.139,1.688-0.375
		c1.717-0.597,2.797-2.338,3.625-4.313s1.316-4.259,1.063-6.281c-0.194-1.549-0.6-2.842-1.406-3.781S49.22,14.248,47.93,14.249z
		 M34.086,18.937c-0.939,0.135-1.752,0.661-2.469,1.375c-0.677,0.675-1.169,1.347-1.375,2.156s-0.164,1.612-0.156,2.781
		c0.019,2.917,0.828,4.946,2.813,7.031c0.786,0.826,1.611,1.417,2.625,1.469s1.887-0.503,2.625-1.281
		c1.672-1.764,2.197-4.409,1.688-7.156c-0.379-2.041-1.088-3.681-2.063-4.813C36.8,19.367,35.456,18.739,34.086,18.937z
		 M24.555,27.249c-0.927,0.15-1.777,0.654-2.531,1.406c-1.264,1.26-1.297,3.16-0.844,5s1.452,3.735,2.969,5.063
		c0.897,0.786,1.827,1.276,2.781,1.375s1.911-0.28,2.563-0.938c1.304-1.315,1.613-3.484,1.031-6.094
		c-0.413-1.854-1.17-3.362-2.188-4.406S25.936,27.025,24.555,27.249z M53.337,33.218c-2.289-0.039-4.829,0.151-7.469,0.688
		c-6.752,1.372-12.215,3.955-15.813,7.563c-2.044,2.05-3.269,4.05-4.25,6.938c-2.521,7.42,1.999,17.365,10.344,24.125
		c3.063,2.48,5.07,3.605,8.219,4.656c1.705,0.568,3.198,0.693,6.188,0.594c3.401-0.113,4.458-0.312,6.688-1.406
		c3.49-1.713,7.175-5.369,8.875-8.813c0.977-1.977,1.225-3.174,1.125-4.875c-0.088-1.5-0.477-2.806-1.531-3.594
		s-2.404-0.923-4.219-0.906c-2.559,0.023-4.508,0.318-6.031,1.219s-2.479,2.385-3.031,4.281c-0.361,1.241-0.73,1.993-1.063,2.344
		s-0.608,0.469-1.281,0.469c-1.077,0-2.244-0.487-3.094-1.188s-1.344-1.582-1.344-2.281c0-0.227,0.353-1.049,1.688-2.281
		c1.335-1.232,3.524-2.837,6.688-4.969c4.522-3.047,7.601-5.519,9.563-7.844s2.795-4.634,2.531-6.969
		c-0.278-2.462-1.826-4.461-4.094-5.75S56.782,33.277,53.337,33.218z"/>
	<path id="path3700" inkscape:connector-curvature="0" opacity="0.3" enable-background="new    " d="M44.704,76.163
		c-3.067-1.024-4.852-2.041-7.864-4.48c-8.085-6.549-12.294-16.203-10.003-22.948c0.946-2.786,2.025-4.552,3.977-6.51
		c3.389-3.398,8.673-5.905,15.279-7.247c10.256-2.084,18.333,0.515,18.964,6.102c0.458,4.056-2.653,7.75-11.626,13.792
		c-6.37,4.291-8.85,6.577-8.85,8.156c0,2.27,2.752,4.545,5.499,4.545c1.732,0,2.623-0.937,3.389-3.564
		c1.015-3.479,3.088-4.707,8.029-4.752c3.461-0.032,4.535,0.77,4.694,3.502c0.093,1.601-0.103,2.408-1.048,4.322
		c-1.55,3.139-5.182,6.742-8.376,8.311c-2.18,1.07-2.853,1.213-6.231,1.326C47.588,76.816,46.294,76.693,44.704,76.163z
		 M24.856,37.906c-2.614-2.289-3.738-6.857-2.092-8.499c2.509-2.502,5.693-0.659,6.705,3.882
		C30.536,38.076,27.976,40.638,24.856,37.906z M33.667,31.529c-1.873-1.968-2.497-3.526-2.515-6.279
		c-0.015-2.334-0.018-2.978,1.208-4.2c2.432-2.425,5.486-0.622,6.427,4.456c0.463,2.497-0.059,4.759-1.434,6.208
		C36.085,33.053,35.068,33.001,33.667,31.529z M58.841,31.536c-1.211-0.634-2.533-2.632-2.848-4.301
		c-0.609-3.237,1.716-9.103,4.514-11.389c4.566-3.731,11.305-4.179,13.023-0.865c1.398,2.696-0.445,7.496-4.536,11.817
		C65.206,30.798,61.094,32.717,58.841,31.536L58.841,31.536z M45.176,28.949c-1.447-0.697-2.492-3.45-2.502-6.593
		c-0.013-4.59,1.813-7.038,5.249-7.041c2.097-0.002,3.316,1.412,3.673,4.257c0.436,3.476-1.755,8.647-3.993,9.425
		C46.254,29.467,46.251,29.467,45.176,28.949L45.176,28.949z"/>
	
		<linearGradient id="path3456_1_" gradientUnits="userSpaceOnUse" x1="305.9932" y1="-327.749" x2="305.9932" y2="-264.1591" gradientTransform="matrix(1 0 0 -1 -258 -252)">
		<stop  offset="0" style="stop-color:#AAAAAA"/>
		<stop  offset="1" style="stop-color:#F0F0F0"/>
	</linearGradient>
	<path id="path3456" inkscape:connector-curvature="0" fill="url(#path3456_1_)" d="M44.704,75.163
		c-3.067-1.024-4.852-2.041-7.864-4.48c-8.085-6.549-12.294-16.203-10.003-22.948c0.946-2.786,2.025-4.552,3.977-6.51
		c3.389-3.398,8.673-5.905,15.279-7.247c10.256-2.084,18.333,0.515,18.964,6.102c0.458,4.057-2.653,7.75-11.626,13.792
		c-6.37,4.291-8.85,6.577-8.85,8.156c0,2.27,2.752,4.545,5.499,4.545c1.732,0,2.623-0.937,3.389-3.564
		c1.015-3.479,3.088-4.707,8.029-4.752c3.461-0.032,4.535,0.77,4.694,3.502c0.093,1.601-0.103,2.408-1.048,4.322
		c-1.55,3.139-5.182,6.742-8.376,8.311c-2.18,1.07-2.853,1.213-6.231,1.326C47.588,75.816,46.294,75.693,44.704,75.163z
		 M24.856,36.906c-2.614-2.289-3.738-6.857-2.092-8.499c2.509-2.502,5.693-0.659,6.705,3.882
		C30.536,37.076,27.976,39.638,24.856,36.906z M33.667,30.529c-1.873-1.968-2.497-3.526-2.515-6.279
		c-0.015-2.334-0.018-2.978,1.208-4.2c2.432-2.425,5.486-0.622,6.427,4.456c0.463,2.497-0.059,4.759-1.434,6.208
		C36.085,32.053,35.068,32.001,33.667,30.529z M58.841,30.536c-1.211-0.634-2.533-2.632-2.848-4.301
		c-0.609-3.237,1.716-9.103,4.514-11.389c4.566-3.731,11.305-4.179,13.023-0.865c1.398,2.696-0.445,7.496-4.536,11.817
		C65.206,29.798,61.094,31.717,58.841,30.536L58.841,30.536z M45.176,27.949c-1.447-0.697-2.492-3.45-2.502-6.593
		c-0.013-4.59,1.813-7.038,5.249-7.041c2.097-0.002,3.316,1.412,3.673,4.257c0.436,3.476-1.755,8.647-3.993,9.425
		C46.254,28.467,46.251,28.467,45.176,27.949L45.176,27.949z"/>
	<path id="path3682" inkscape:connector-curvature="0" opacity="0.75" fill="#FFFFFF" enable-background="new    " d="
		M68.993,11.749c-2.663-0.064-5.932,0.995-8.5,3.094c-2.623,2.143-4.83,7.43-4.594,10.75c0.192-3.301,2.222-7.812,4.594-9.75
		c4.566-3.731,11.313-4.188,13.031-0.875c0.24,0.463,0.384,1.02,0.438,1.594c0.076-0.984-0.061-1.866-0.438-2.594
		C72.772,12.518,71.064,11.799,68.993,11.749z M47.93,14.312c-3.437,0.003-5.264,2.442-5.25,7.031c0,0.202,0.022,0.396,0.031,0.594
		c0.101-4.311,1.892-6.622,5.219-6.625c2.097-0.002,3.3,1.405,3.657,4.25c0.02,0.158,0.021,0.336,0.031,0.5
		c0.031-0.52,0.027-1.028-0.031-1.5C51.23,15.716,50.027,14.31,47.93,14.312z M34.243,18.999c-0.643,0.093-1.267,0.457-1.875,1.063
		c-1.127,1.125-1.224,1.806-1.219,3.719c0.05-1.223,0.3-1.802,1.219-2.719c2.432-2.425,5.465-0.64,6.406,4.438
		c0.072,0.39,0.131,0.78,0.156,1.156c0.034-0.689-0.018-1.409-0.156-2.156C38.068,20.691,36.172,18.721,34.243,18.999z
		 M25.243,27.28c-0.829-0.017-1.685,0.343-2.469,1.125c-0.595,0.593-0.818,1.576-0.75,2.688c0.085-0.695,0.338-1.277,0.75-1.688
		c2.51-2.502,5.676-0.666,6.688,3.875c0.123,0.553,0.219,1.074,0.25,1.563c0.05-0.751-0.038-1.611-0.25-2.563
		C28.766,29.158,27.066,27.316,25.243,27.28z M51.587,33.28c-1.734,0.073-3.578,0.297-5.5,0.688
		c-6.605,1.342-11.893,3.852-15.281,7.25c-1.952,1.957-3.022,3.744-3.969,6.531c-0.469,1.381-0.647,2.863-0.594,4.438
		c0.042-1.213,0.225-2.352,0.594-3.438c0.946-2.787,2.017-4.574,3.969-6.531c3.389-3.398,8.676-5.908,15.281-7.25
		c10.256-2.084,18.337,0.538,18.969,6.125c0.01,0.084-0.006,0.166,0,0.25c0.032-0.418,0.048-0.827,0-1.25
		C64.542,35.553,59.105,32.965,51.587,33.28z M61.493,58.249c-4.941,0.046-7.017,1.271-8.031,4.75
		c-0.766,2.628-1.643,3.563-3.375,3.563c-2.509,0-5.022-1.879-5.438-3.938c-0.033,0.139-0.063,0.277-0.063,0.406
		c0,2.27,2.754,4.531,5.5,4.531c1.732,0,2.609-0.935,3.375-3.563c1.015-3.479,3.09-4.704,8.031-4.75
		c3.461-0.032,4.529,0.768,4.688,3.5c0.006,0.092-0.004,0.164,0,0.25c0.033-0.378,0.027-0.785,0-1.25
		C66.022,59.017,64.954,58.217,61.493,58.249z"/>
	<path id="path3691" inkscape:connector-curvature="0" opacity="0.15" enable-background="new    " d="M73.962,15.562
		c-0.204,2.66-1.982,6.096-4.969,9.25c-3.787,4-7.902,5.899-10.156,4.719c-1.21-0.634-2.529-2.612-2.844-4.281
		c-0.035-0.184-0.078-0.395-0.094-0.594c-0.029,0.568,0.004,1.119,0.094,1.594c0.314,1.669,1.634,3.647,2.844,4.281
		c2.254,1.181,6.369-0.719,10.156-4.719C72.382,22.233,74.222,18.33,73.962,15.562z M51.618,19.062
		c-0.199,3.305-2.066,7.266-4,7.938c-1.351,0.469-1.361,0.455-2.438-0.063c-1.354-0.652-2.338-3.112-2.469-6
		c-0.004,0.142-0.031,0.26-0.031,0.406c0.009,3.143,1.053,5.897,2.5,6.594c1.076,0.518,1.087,0.532,2.438,0.063
		C49.754,27.257,51.812,22.515,51.618,19.062z M31.149,23.249c-0.004,0.311-0.002,0.603,0,1c0.018,2.753,0.658,4.313,2.531,6.281
		c1.401,1.472,2.418,1.525,3.688,0.188c1.16-1.223,1.696-3.029,1.563-5.063c-0.08,1.615-0.6,3.047-1.563,4.063
		c-1.269,1.338-2.286,1.285-3.688-0.188C31.807,27.562,31.167,26.002,31.149,23.249z M22.024,30.218
		c-0.201,2.079,0.919,5.003,2.844,6.688c2.759,2.416,5.082,0.68,4.844-3.063c-0.204,3.029-2.344,4.251-4.844,2.063
		C23.234,34.475,22.181,32.158,22.024,30.218z M65.056,40.343c-0.278,3.592-3.588,7.117-11.625,12.531
		c-6.37,4.291-8.844,6.578-8.844,8.156c0,0.195,0.023,0.398,0.063,0.594c0.38-1.564,2.931-3.809,8.782-7.75
		C62.216,47.956,65.358,44.302,65.056,40.343z M26.243,51.187c-0.222,6.314,3.811,14.006,10.594,19.5
		c3.012,2.439,4.807,3.445,7.875,4.469c1.591,0.531,2.865,0.661,5.813,0.563c3.379-0.113,4.07-0.242,6.25-1.313
		c3.194-1.568,6.825-5.174,8.375-8.313c0.892-1.805,1.086-2.664,1.031-4.094c-0.08,0.922-0.36,1.735-1.031,3.094
		c-1.55,3.139-5.181,6.744-8.375,8.313c-2.18,1.07-2.871,1.199-6.25,1.313c-2.948,0.099-4.222-0.031-5.813-0.563
		c-3.068-1.023-4.863-2.029-7.875-4.469C30.407,64.479,26.451,57.298,26.243,51.187z"/>
</g>
</svg>
