<?xml version="1.0" encoding="utf-8"?>
<!-- Generator: Adobe Illustrator 14.0.0, SVG Export Plug-In . SVG Version: 6.00 Build 43363)  -->
<!DOCTYPE svg PUBLIC "-//W3C//DTD SVG 1.1//EN" "http://www.w3.org/Graphics/SVG/1.1/DTD/svg11.dtd">
<svg version="1.1"
	 id="svg2408" xmlns:dc="http://purl.org/dc/elements/1.1/" xmlns:svg="http://www.w3.org/2000/svg" xmlns:cc="http://creativecommons.org/ns#" xmlns:rdf="http://www.w3.org/1999/02/22-rdf-syntax-ns#" xmlns:inkscape="http://www.inkscape.org/namespaces/inkscape"
	 xmlns="http://www.w3.org/2000/svg" xmlns:xlink="http://www.w3.org/1999/xlink" x="0px" y="0px" width="96px" height="96px"
	 viewBox="0 0 96 96" enable-background="new 0 0 96 96" xml:space="preserve">
<g>
	
		<linearGradient id="SVGID_1_" gradientUnits="userSpaceOnUse" x1="14" y1="744" x2="106" y2="744" gradientTransform="matrix(1 0 0 1 -12 -696)">
		<stop  offset="0" style="stop-color:#000000"/>
		<stop  offset="1" style="stop-color:#000000;stop-opacity:0.5882"/>
	</linearGradient>
	<path opacity="0.08" fill="url(#SVGID_1_)" enable-background="new    " d="M10.5,93C5.813,93,2,89.188,2,84.5v-73
		C2,6.813,5.813,3,10.5,3h75c4.145,0,7.786,3.007,8.5,7v74.5c0,4.688-3.813,8.5-8.5,8.5H10.5z"/>
	
		<linearGradient id="SVGID_2_" gradientUnits="userSpaceOnUse" x1="15" y1="744" x2="105" y2="744" gradientTransform="matrix(1 0 0 1 -12 -696)">
		<stop  offset="0" style="stop-color:#000000"/>
		<stop  offset="1" style="stop-color:#000000;stop-opacity:0.5882"/>
	</linearGradient>
	<path opacity="0.1" fill="url(#SVGID_2_)" enable-background="new    " d="M10.5,92C6.364,92,3,88.636,3,84.5v-73
		C3,7.364,6.364,4,10.5,4h75c3.968,0,7.242,3.097,7.5,7v73.5c0,4.136-3.363,7.5-7.5,7.5H10.5z"/>
	
		<linearGradient id="SVGID_3_" gradientUnits="userSpaceOnUse" x1="16" y1="744" x2="104" y2="744" gradientTransform="matrix(1 0 0 1 -12 -696)">
		<stop  offset="0" style="stop-color:#000000"/>
		<stop  offset="1" style="stop-color:#000000;stop-opacity:0.5882"/>
	</linearGradient>
	<path opacity="0.2" fill="url(#SVGID_3_)" enable-background="new    " d="M10.5,91C6.916,91,4,88.084,4,84.5v-73
		C4,7.916,6.916,5,10.5,5h75c3.584,0,6.5,2.916,6.5,6.5v73c0,3.584-2.916,6.5-6.5,6.5H10.5z"/>
	
		<linearGradient id="SVGID_4_" gradientUnits="userSpaceOnUse" x1="60" y1="704" x2="60" y2="786.4195" gradientTransform="matrix(1 0 0 1 -12 -696)">
		<stop  offset="0" style="stop-color:#000000"/>
		<stop  offset="1" style="stop-color:#000000;stop-opacity:0.5882"/>
	</linearGradient>
	<path opacity="0.45" fill="url(#SVGID_4_)" enable-background="new    " d="M90,12.5c0-2.484-2.016-4.5-4.5-4.5h-75
		C8.015,8,6,10.016,6,12.5v18V63v22.5c0,2.486,2.015,4.5,4.5,4.5h75c2.484,0,4.5-2.014,4.5-4.5V12.5z"/>
</g>
<g>
	<g>
		<g>
			<path fill="#0F0F0F" d="M90,84.5c0,2.486-2.016,4.5-4.5,4.5h-75C8.015,89,6,86.986,6,84.5v-57c0-2.484,2.015-4.5,4.5-4.5h75
				c2.484,0,4.5,2.016,4.5,4.5V84.5z"/>
		</g>
		
			<linearGradient id="SVGID_5_" gradientUnits="userSpaceOnUse" x1="60" y1="780.5" x2="60" y2="701" gradientTransform="matrix(1 0 0 1 -12 -696)">
			<stop  offset="0" style="stop-color:#333333"/>
			<stop  offset="1" style="stop-color:#595959"/>
		</linearGradient>
		<path fill="url(#SVGID_5_)" d="M90,80c0,2.486-2.016,4.5-4.5,4.5h-75C8.015,84.5,6,82.486,6,80V9.5C6,7.016,8.015,5,10.5,5h75
			C87.984,5,90,7.016,90,9.5V80z"/>
		
			<linearGradient id="SVGID_6_" gradientUnits="userSpaceOnUse" x1="60" y1="779" x2="60" y2="702.5" gradientTransform="matrix(1 0 0 1 -12 -696)">
			<stop  offset="0" style="stop-color:#191919"/>
			<stop  offset="1" style="stop-color:#3C3C3C"/>
		</linearGradient>
		<path fill="url(#SVGID_6_)" d="M10.5,83c-1.654,0-3-1.346-3-3V9.5c0-1.654,1.346-3,3-3h75c1.654,0,3,1.346,3,3V80
			c0,1.654-1.346,3-3,3H10.5z"/>
		<g>
			
				<linearGradient id="SVGID_7_" gradientUnits="userSpaceOnUse" x1="95.8623" y1="770.9287" x2="95.8623" y2="778.1944" gradientTransform="matrix(1 0 0 1 -12 -696)">
				<stop  offset="0" style="stop-color:#000000"/>
				<stop  offset="1" style="stop-color:#808080"/>
			</linearGradient>
			<path fill="url(#SVGID_7_)" d="M83.861,81.961c-1.908,0-3.461-1.553-3.461-3.462s1.553-3.462,3.461-3.462
				c1.91,0,3.463,1.553,3.463,3.462S85.771,81.961,83.861,81.961L83.861,81.961z"/>
			
				<radialGradient id="SVGID_8_" cx="275.9932" cy="-380.5923" r="3.7499" gradientTransform="matrix(1.833002e-004 1 -1.1286 2.068652e-004 -345.6911 -199.415)" gradientUnits="userSpaceOnUse">
				<stop  offset="0" style="stop-color:#B0FF04"/>
				<stop  offset="0.5636" style="stop-color:#5AC306"/>
				<stop  offset="0.7394" style="stop-color:#13A400"/>
			</radialGradient>
			<circle fill="url(#SVGID_8_)" cx="83.861" cy="78.499" r="2.285"/>
		</g>
	</g>
	<path fill="#4D4D4D" d="M18,77.35c-2.426,0-4.4-1.974-4.4-4.397v-56.4c0-2.426,1.974-4.4,4.4-4.4h60c2.427,0,4.4,1.974,4.4,4.4
		v56.4c0,2.426-1.976,4.397-4.4,4.397H18z"/>
	<g>
		<path fill="#1A1A1A" d="M18,76.35c-1.875,0-3.4-1.523-3.4-3.397v-56.4c0-1.875,1.525-3.4,3.4-3.4h60c1.875,0,3.4,1.525,3.4,3.4
			v56.4c0,1.874-1.525,3.397-3.4,3.397H18z"/>
		
			<linearGradient id="SVGID_9_" gradientUnits="userSpaceOnUse" x1="61" y1="772.3496" x2="61" y2="711.1523" gradientTransform="matrix(1 0 0 1 -12 -696)">
			<stop  offset="0" style="stop-color:#333333"/>
			<stop  offset="1" style="stop-color:#595959"/>
		</linearGradient>
		<path fill="url(#SVGID_9_)" d="M19,76.35c-1.323,0-2.4-1.076-2.4-2.397v-56.4c0-1.323,1.077-2.4,2.4-2.4h60
			c1.323,0,2.4,1.077,2.4,2.4v56.4c0,1.321-1.077,2.397-2.4,2.397H19z"/>
		<g>
			
				<linearGradient id="SVGID_10_" gradientUnits="userSpaceOnUse" x1="60" y1="771.3496" x2="60" y2="710.1523" gradientTransform="matrix(1 0 0 1 -12 -696)">
				<stop  offset="0" style="stop-color:#19A1E6"/>
				<stop  offset="1" style="stop-color:#74D1FF"/>
			</linearGradient>
			<path fill="url(#SVGID_10_)" d="M18,75.35c-1.323,0-2.4-1.076-2.4-2.397v-56.4c0-1.323,1.077-2.4,2.4-2.4h60
				c1.323,0,2.4,1.077,2.4,2.4v56.4c0,1.321-1.077,2.397-2.4,2.397H18z"/>
			<path opacity="0.03" enable-background="new    " d="M18,74.35c-0.772,0-1.4-0.627-1.4-1.397v-56.4c0-0.772,0.628-1.4,1.4-1.4h60
				c0.771,0,1.4,0.628,1.4,1.4v56.4c0,0.771-0.629,1.397-1.4,1.397H18z"/>
			
				<linearGradient id="SVGID_11_" gradientUnits="userSpaceOnUse" x1="60" y1="769.3496" x2="60" y2="712.1523" gradientTransform="matrix(1 0 0 1 -12 -696)">
				<stop  offset="0" style="stop-color:#1793D1"/>
				<stop  offset="1" style="stop-color:#6DC4EF"/>
			</linearGradient>
			<path fill="url(#SVGID_11_)" d="M18,73.35c-0.221,0-0.4-0.179-0.4-0.397v-56.4c0-0.221,0.179-0.4,0.4-0.4h60
				c0.221,0,0.4,0.179,0.4,0.4v56.4c0,0.221-0.18,0.397-0.4,0.397H18z"/>
			<g>
				<g>
					<g>
						<defs>
							<path id="SVGID_12_" d="M18,75.35c-1.323,0-2.4-1.076-2.4-2.397v-56.4c0-1.323,1.077-2.4,2.4-2.4h60
								c1.323,0,2.4,1.077,2.4,2.4v56.4c0,1.321-1.077,2.397-2.4,2.397H18z"/>
						</defs>
						<clipPath id="SVGID_13_">
							<use xlink:href="#SVGID_12_"  overflow="visible"/>
						</clipPath>
						<g clip-path="url(#SVGID_13_)">
							<path opacity="0.2" fill="#FFFFFF" enable-background="new    " d="M75.943,93.837c-13.188,0-23.916-10.729-23.916-23.916
								s10.729-23.915,23.916-23.915s23.916,10.729,23.916,23.915S89.131,93.837,75.943,93.837L75.943,93.837z"/>
							<path opacity="0.3" fill="#003470" enable-background="new    " d="M75.943,47.006c-12.655,0-22.916,10.262-22.916,22.915
								c0,12.656,10.261,22.916,22.916,22.916c12.656,0,22.916-10.26,22.916-22.916C98.859,57.268,88.6,47.006,75.943,47.006z
								 M83.742,53.337c1.689,0,3.066,1.379,3.066,3.067s-1.377,3.068-3.066,3.068c-1.69,0-3.068-1.38-3.068-3.068
								S82.052,53.337,83.742,53.337z M60.337,72.98c-1.688,0-3.067-1.377-3.067-3.068c0-1.688,1.379-3.066,3.067-3.066
								c1.69,0,3.067,1.379,3.067,3.066C63.404,71.604,62.027,72.98,60.337,72.98z M62.677,73.49c1.13-0.771,1.874-2.07,1.874-3.536
								c0-1.524-0.806-2.865-2.013-3.624c0.762-2.575,3.786-6.018,6.015-7.523l2.26,3.774c-1.647,1.292-3.806,4.922-3.806,7.172
								c0,2.229,2.15,6.239,3.774,7.533l-2.221,3.703C66.148,79.555,63.5,75.921,62.677,73.49z M81.547,69.702l-0.759-0.147
								l-1.349,0.795l0.08,1.688l0.672,1.388l-1.322,1.234l0.089,1.047l-1.827-0.003l1.43-2.089l-0.496-0.634h-0.02l0,0
								l-1.352,1.104v0.009l-0.01-0.005v0.001l-0.01,0.736l-1.781-0.028l1.155-1.088l1.125-1.359l-0.956-0.639l-0.963,0.507
								l-1.313,0.525l-1.152-0.21l-0.7,1.103l-0.226,1.597h-1.742l0.648-0.778l0.603-0.728l-0.369-0.896l-0.285-1.766l-0.905-2.271
								l0.963-1.657l0.677-1.442l1.405-0.885l0.105-0.062l1.604-1.654l-0.004,0.013l0,0l-0.443,1.113l0.238,0.047l1.718-1.771
								l0.002-0.002l-0.005,0.005l-0.721,2.178l0.402,1.636l-1.115,1.553l1.672,1.253l2.328,0.956l0.703-0.383l0.951-0.514
								l0.977-1.458l1.594-0.502h0.005l0,0l-0.298,2.118V69.33l-1.021,0.369 M83.743,86.534c-1.69,0-3.069-1.379-3.069-3.068
								c0-1.69,1.379-3.069,3.069-3.069c1.688,0,3.065,1.379,3.065,3.069C86.811,85.155,85.434,86.534,83.743,86.534z
								 M85.236,79.434c-0.59-0.31-1.159-0.31-1.871-0.283c-1.676,0.061-3.545,1.382-3.711,3.586
								c-4.803,1.24-8.041-0.129-9.611-0.896l2.116-3.762c0.854,0.369,4.872,1.698,8.024-0.278c2.918-1.83,4.157-3.58,4.541-7.109
								l4.504,0.092C88.914,75.042,87.088,77.489,85.236,79.434z M84.902,69.055c-0.403-3.507-2.873-6.098-5.364-7.314
								c-2.522-1.233-5.744-0.736-7.411,0.017l-2.066-3.791c2.566-1.674,7.26-1.579,9.396-0.873
								c0.124,0.041,0.163,1.849,2.191,3.046c1.058,0.627,2.771,0.688,3.604,0.288c2.533,2.261,3.848,5.786,3.977,8.63h-4.326
								V69.055z"/>
						</g>
					</g>
				</g>
				<g>
					<g>
						<defs>
							<path id="SVGID_14_" d="M18,75.35c-1.323,0-2.4-1.076-2.4-2.397v-56.4c0-1.323,1.077-2.4,2.4-2.4h60
								c1.323,0,2.4,1.077,2.4,2.4v56.4c0,1.321-1.077,2.397-2.4,2.397H18z"/>
						</defs>
						<clipPath id="SVGID_15_">
							<use xlink:href="#SVGID_14_"  overflow="visible"/>
						</clipPath>
						<g id="path3698_2_" inkscape:connector-curvature="0" opacity="0.2" clip-path="url(#SVGID_15_)">
							
								<linearGradient id="SVGID_16_" gradientUnits="userSpaceOnUse" x1="143.1465" y1="591.7021" x2="184.8935" y2="645.6984" gradientTransform="matrix(0.9828 0.1849 -0.1849 0.9828 -15.8604 -607.2227)">
								<stop  offset="0" style="stop-color:#FFFFFF"/>
								<stop  offset="1" style="stop-color:#FFFFFF;stop-opacity:0"/>
							</linearGradient>
							<path fill="url(#SVGID_16_)" d="M-18.726,66.332c-0.34-8.27-0.211-16.471,0.38-24.562c9.5,1.778,18.874,2.394,27.933,1.993
								c2.348,7.455,5.334,14.864,8.956,22.141C6.622,67.615-5.907,67.845-18.726,66.332L-18.726,66.332 M22.688,65.247
								c-3.953-7.093-7.26-14.345-9.913-21.668c8.004-0.569,15.741-1.932,23.103-3.983c4.665,6.02,10.039,11.763,16.09,17.106
								C42.808,60.544,32.993,63.45,22.688,65.247L22.688,65.247 M55.164,55.313c-6.249-5.103-11.825-10.636-16.69-16.473
								c6.52-1.984,12.727-4.512,18.559-7.51c6.115,4.292,12.908,8.085,20.31,11.227C70.529,47.441,63.107,51.732,55.164,55.313
								L55.164,55.313 M79.725,40.81c-7.498-2.896-14.401-6.469-20.636-10.564c5.177-2.802,10.043-5.979,14.562-9.475
								c6.9,2.533,14.389,4.377,22.352,5.365C91.091,31.427,85.65,36.346,79.725,40.81L79.725,40.81 M-18.167,39.502
								c0.49-5.854,1.223-11.648,2.193-17.366c7.094,1.742,14.142,2.703,21.026,2.966c0.95,5.514,2.245,11.041,3.888,16.547
								C0.139,41.957-8.957,41.287-18.167,39.502L-18.167,39.502 M12.042,41.499c-1.87-5.421-3.384-10.877-4.542-16.331
								c6.192,0.089,12.241-0.385,18.075-1.359c2.592,4.8,5.59,9.503,8.988,14.057C27.376,39.777,19.834,41.021,12.042,41.499
								L12.042,41.499 M37.099,37.161c-3.553-4.428-6.705-9.02-9.447-13.721c5.256-0.993,10.328-2.394,15.17-4.156
								c3.743,3.834,7.905,7.456,12.462,10.796C49.559,32.921,43.477,35.305,37.099,37.161L37.099,37.161 M57.309,29.048
								c-4.656-3.198-8.917-6.691-12.761-10.411c4.371-1.687,8.548-3.669,12.499-5.914c4.49,2.779,9.374,5.235,14.611,7.292
								C67.195,23.357,62.398,26.386,57.309,29.048L57.309,29.048 M-15.688,20.492c0.771-4.326,1.679-8.607,2.721-12.837
								C-7.486,9.251-2.019,10.3,3.36,10.851c0.273,4.198,0.748,8.421,1.428,12.654C-1.922,23.201-8.783,22.223-15.688,20.492
								L-15.688,20.492 M7.173,23.585c-0.838-4.194-1.467-8.386-1.887-12.558c4.904,0.396,9.729,0.38,14.426-0.008
								c1.459,3.834,3.166,7.638,5.121,11.386C19.126,23.304,13.218,23.717,7.173,23.585L7.173,23.585 M26.862,22.063
								c-2.074-3.678-3.897-7.419-5.469-11.198c4.286-0.438,8.461-1.186,12.49-2.213c2.352,3.273,4.972,6.451,7.852,9.5
								C36.981,19.822,32.009,21.141,26.862,22.063L26.862,22.063 M43.429,17.538c-2.963-2.965-5.667-6.066-8.102-9.27
								c3.681-1.009,7.235-2.253,10.643-3.708c2.992,2.618,6.25,5.076,9.76,7.334C51.835,14.042,47.726,15.935,43.429,17.538
								L43.429,17.538 M-12.659,6.415c0.838-3.311,1.759-6.588,2.762-9.831c4.351,1.429,8.703,2.458,13.006,3.122
								C3.042,2.987,3.102,6.292,3.286,9.613C-1.97,9.045-7.308,7.995-12.659,6.415L-12.659,6.415 M5.169,9.797
								C4.868,6.492,4.697,3.2,4.657-0.071c3.964,0.533,7.883,0.756,11.724,0.696c0.81,3.095,1.778,6.185,2.906,9.257
								C14.688,10.229,9.966,10.213,5.169,9.797L5.169,9.797 M20.934,9.742c-1.219-3.032-2.276-6.087-3.171-9.151
								c3.54-0.118,7.01-0.477,10.384-1.055c1.505,2.761,3.187,5.479,5.042,8.137C29.231,8.646,25.136,9.345,20.934,9.742
								L20.934,9.742 M34.607,7.311c-1.925-2.605-3.675-5.275-5.246-7.993c3.114-0.586,6.146-1.36,9.075-2.306
								c2.035,2.342,4.252,4.602,6.646,6.759C41.726,5.166,38.228,6.353,34.607,7.311L34.607,7.311"/>
						</g>
					</g>
				</g>
			</g>
			
				<radialGradient id="SVGID_17_" cx="59.5" cy="771.584" r="31.5131" gradientTransform="matrix(1 0 0 1 -12 -696)" gradientUnits="userSpaceOnUse">
				<stop  offset="0" style="stop-color:#00FFFF"/>
				<stop  offset="1" style="stop-color:#00FFFF;stop-opacity:0"/>
			</radialGradient>
			<path opacity="0.65" fill="url(#SVGID_17_)" enable-background="new    " d="M18,75.35c-1.323,0-2.4-1.076-2.4-2.397v-56.4
				c0-1.323,1.077-2.4,2.4-2.4h60c1.323,0,2.4,1.077,2.4,2.4v56.4c0,1.321-1.077,2.397-2.4,2.397H18z"/>
			
				<radialGradient id="SVGID_18_" cx="44.667" cy="772.4199" r="31.5129" gradientTransform="matrix(1 0 0 0.9176 -12 -694.8538)" gradientUnits="userSpaceOnUse">
				<stop  offset="0" style="stop-color:#00FFFF"/>
				<stop  offset="1" style="stop-color:#00FFFF;stop-opacity:0"/>
			</radialGradient>
			<path opacity="0.65" fill="url(#SVGID_18_)" enable-background="new    " d="M18,75.35c-1.323,0-2.4-1.076-2.4-2.397v-56.4
				c0-1.323,1.077-2.4,2.4-2.4h60c1.323,0,2.4,1.077,2.4,2.4v56.4c0,1.321-1.077,2.397-2.4,2.397H18z"/>
			<path opacity="0.6" fill="#1793D1" enable-background="new    " d="M18,75.35c-1.323,0-2.4-1.076-2.4-2.397v-56.4
				c0-1.323,1.077-2.4,2.4-2.4h8v61.202h-8V75.35z"/>
			<path fill="#168DC7" d="M15.6,21.25v-4.7c0-1.323,1.077-2.4,2.4-2.4h60c1.323,0,2.4,1.077,2.4,2.4v4.7H15.6z"/>
			<path opacity="0.2" enable-background="new    " d="M78,14.15H18c-1.323,0-2.4,1.077-2.4,2.4v1c0-1.323,1.077-2.4,2.4-2.4h60
				c1.323,0,2.4,1.077,2.4,2.4v-1C80.4,15.227,79.323,14.15,78,14.15z"/>
			<path opacity="0.2" enable-background="new    " d="M78,75.35H18c-1.323,0-2.4-1.076-2.4-2.398v-1c0,1.322,1.077,2.398,2.4,2.398
				h60c1.323,0,2.4-1.076,2.4-2.398v1C80.4,74.273,79.323,75.35,78,75.35z"/>
		</g>
	</g>
	<g>
		
			<linearGradient id="SVGID_19_" gradientUnits="userSpaceOnUse" x1="52.624" y1="697.6318" x2="46.9235" y2="781.7145" gradientTransform="matrix(1 0 0 1 -12 -696)">
			<stop  offset="0" style="stop-color:#FFFFFF"/>
			<stop  offset="1" style="stop-color:#FFFFFF;stop-opacity:0"/>
		</linearGradient>
		<path opacity="0.4" fill="url(#SVGID_19_)" enable-background="new    " d="M72.891,6.5H10.5c-1.654,0-3,1.346-3,3V80
			c0,1.654,1.346,3,3,3h31.008C36.262,28.019,72.891,6.5,72.891,6.5z"/>
	</g>
</g>
<g>
	<g>
		<g>
			
				<linearGradient id="SVGID_20_" gradientUnits="userSpaceOnUse" x1="41.3711" y1="728.2676" x2="56.5498" y2="728.2676" gradientTransform="matrix(1 0 0 1 -12 -696)">
				<stop  offset="0" style="stop-color:#000000"/>
				<stop  offset="1" style="stop-color:#000000;stop-opacity:0.5882"/>
			</linearGradient>
			<path opacity="0.08" fill="url(#SVGID_20_)" enable-background="new    " d="M30.774,39.692c-0.773,0-1.403-0.629-1.403-1.402
				V26.245c0-0.773,0.629-1.402,1.403-1.402h6.93c0.685,0,1.263,0.496,1.38,1.155h3.404c0.773,0,1.403,0.629,1.403,1.402v0.628
				c0.409,0.254,0.659,0.7,0.659,1.187v9.075c0,0.773-0.628,1.402-1.401,1.402H30.774z"/>
			
				<linearGradient id="SVGID_21_" gradientUnits="userSpaceOnUse" x1="42.064" y1="728.2676" x2="55.8594" y2="728.2676" gradientTransform="matrix(1 0 0 1 -12 -696)">
				<stop  offset="0" style="stop-color:#000000"/>
				<stop  offset="1" style="stop-color:#000000;stop-opacity:0.5882"/>
			</linearGradient>
			<path opacity="0.2" fill="url(#SVGID_21_)" enable-background="new    " d="M31.084,39.007c-0.563,0-1.02-0.457-1.02-1.019
				V26.546c0-0.562,0.458-1.019,1.02-1.019h6.583c0.561,0,1.019,0.457,1.019,1.019v0.078h3.527c0.562,0,1.02,0.458,1.02,1.019v0.787
				c0.372,0.154,0.627,0.519,0.627,0.938v8.621c0,0.562-0.458,1.019-1.02,1.019L31.084,39.007L31.084,39.007z"/>
		</g>
		
			<linearGradient id="SVGID_22_" gradientUnits="userSpaceOnUse" x1="48.9619" y1="721.8174" x2="48.9619" y2="734.4814" gradientTransform="matrix(1 0 0 1 -12 -696)">
			<stop  offset="0" style="stop-color:#FFA033"/>
			<stop  offset="1" style="stop-color:#A25600"/>
		</linearGradient>
		<path fill="url(#SVGID_22_)" d="M42.662,28.525v-0.982c0-0.373-0.303-0.675-0.676-0.675h-3.675v-0.375
			c0-0.373-0.302-0.675-0.675-0.675h-6.3c-0.373,0-0.675,0.302-0.675,0.675v2.7v5.175v3.375c0,0.373,0.302,0.675,0.675,0.675h11.25
			c0.372,0,0.675-0.302,0.675-0.675v-8.55C43.262,28.846,42.999,28.563,42.662,28.525z"/>
		<path opacity="0.3" fill="#6D380F" enable-background="new    " d="M42.662,28.525v-0.982c0-0.373-0.303-0.675-0.676-0.675h-3.675
			v-0.375c0-0.373-0.302-0.675-0.675-0.675h-6.3c-0.373,0-0.675,0.302-0.675,0.675v2.7v5.175v3.375c0,0.373,0.302,0.675,0.675,0.675
			h11.25c0.372,0,0.675-0.302,0.675-0.675v-8.55C43.262,28.846,42.999,28.563,42.662,28.525z"/>
		<g>
			<path fill="#663505" d="M43.262,37.743c0,0.373-0.303,0.675-0.675,0.675h-11.25c-0.373,0-0.675-0.302-0.675-0.675v-8.55
				c0-0.373,0.302-0.675,0.675-0.675h11.25c0.372,0,0.675,0.302,0.675,0.675V37.743z"/>
		</g>
		
			<linearGradient id="SVGID_23_" gradientUnits="userSpaceOnUse" x1="48.6621" y1="721.8164" x2="48.6621" y2="732.1433" gradientTransform="matrix(1 0 0 1 -12 -696)">
			<stop  offset="0" style="stop-color:#FFB866"/>
			<stop  offset="1" style="stop-color:#A25600"/>
		</linearGradient>
		<path fill="url(#SVGID_23_)" d="M41.986,26.867h-3.675v-0.375c0-0.373-0.302-0.675-0.675-0.675h-6.3
			c-0.373,0-0.675,0.302-0.675,0.675v7.875c0,0.374,0.302,0.675,0.675,0.675h3.675v0.375c0,0.373,0.302,0.675,0.675,0.675h6.3
			c0.373,0,0.676-0.302,0.676-0.675v-7.875C42.662,27.17,42.359,26.867,41.986,26.867z"/>
		
			<linearGradient id="SVGID_24_" gradientUnits="userSpaceOnUse" x1="48.6621" y1="722.042" x2="48.6621" y2="731.9169" gradientTransform="matrix(1 0 0 1 -12 -696)">
			<stop  offset="0" style="stop-color:#FA8E32"/>
			<stop  offset="1" style="stop-color:#AD670E"/>
		</linearGradient>
		<path fill="url(#SVGID_24_)" d="M41.986,27.092h-3.899v-0.6c0-0.248-0.202-0.45-0.45-0.45h-6.3c-0.248,0-0.45,0.202-0.45,0.45
			v7.875c0,0.248,0.202,0.45,0.45,0.45h3.899v0.6c0,0.248,0.202,0.45,0.45,0.45h6.3c0.249,0,0.45-0.202,0.45-0.45v-7.875
			C42.437,27.294,42.235,27.092,41.986,27.092z"/>
		
			<linearGradient id="SVGID_25_" gradientUnits="userSpaceOnUse" x1="48.6621" y1="722.042" x2="48.6621" y2="731.9169" gradientTransform="matrix(1 0 0 1 -12 -696)">
			<stop  offset="0" style="stop-color:#EBB400;stop-opacity:0"/>
			<stop  offset="0.9127" style="stop-color:#EB9600"/>
		</linearGradient>
		<path fill="url(#SVGID_25_)" d="M41.986,27.092h-3.899v-0.6c0-0.248-0.202-0.45-0.45-0.45h-6.3c-0.248,0-0.45,0.202-0.45,0.45
			v7.875c0,0.248,0.202,0.45,0.45,0.45h3.899v0.6c0,0.248,0.202,0.45,0.45,0.45h6.3c0.249,0,0.45-0.202,0.45-0.45v-7.875
			C42.437,27.294,42.235,27.092,41.986,27.092z"/>
		
			<radialGradient id="SVGID_26_" cx="46.9111" cy="2056.3418" r="5.3612" gradientTransform="matrix(1 0 0 0.3428 -12 -678.9088)" gradientUnits="userSpaceOnUse">
			<stop  offset="0" style="stop-color:#FFC866"/>
			<stop  offset="1" style="stop-color:#FFDB66;stop-opacity:0"/>
		</radialGradient>
		<path opacity="0.2" fill="url(#SVGID_26_)" enable-background="new    " d="M41.986,27.092h-3.899v-0.6
			c0-0.248-0.202-0.45-0.45-0.45h-6.3c-0.248,0-0.45,0.202-0.45,0.45v7.875c0,0.248,0.202,0.45,0.45,0.45h3.899v0.6
			c0,0.248,0.202,0.45,0.45,0.45h6.3c0.249,0,0.45-0.202,0.45-0.45v-7.875C42.437,27.294,42.235,27.092,41.986,27.092z"/>
		
			<radialGradient id="SVGID_27_" cx="48.7549" cy="4174.2188" r="5.3609" gradientTransform="matrix(1 0 0 0.1679 -12 -671.9578)" gradientUnits="userSpaceOnUse">
			<stop  offset="0.0873" style="stop-color:#562E00"/>
			<stop  offset="1" style="stop-color:#562E00;stop-opacity:0"/>
		</radialGradient>
		<path opacity="0.4" fill="url(#SVGID_27_)" enable-background="new    " d="M41.986,27.092h-3.899v-0.6
			c0-0.248-0.202-0.45-0.45-0.45h-6.3c-0.248,0-0.45,0.202-0.45,0.45v7.875c0,0.248,0.202,0.45,0.45,0.45h3.899v0.6
			c0,0.248,0.202,0.45,0.45,0.45h6.3c0.249,0,0.45-0.202,0.45-0.45v-7.875C42.437,27.294,42.235,27.092,41.986,27.092z"/>
		<g display="none">
			<path display="inline" fill="#D6D6D6" d="M42.033,27.394c0-0.249-0.201-0.45-0.449-0.45h-9.769c-0.249,0-0.45,0.202-0.45,0.45
				v5.001c0,0.249,0.201,0.45,0.45,0.45h9.769c0.248,0,0.449-0.201,0.449-0.45V27.394z"/>
			<path display="inline" fill="#F5F5F5" d="M42.033,27.544c0-0.249-0.201-0.45-0.449-0.45h-9.769c-0.249,0-0.45,0.201-0.45,0.45
				v4.852c0,0.249,0.201,0.45,0.45,0.45h9.769c0.248,0,0.449-0.201,0.449-0.45V27.544z"/>
			
				<linearGradient id="SVGID_28_" gradientUnits="userSpaceOnUse" x1="48.6992" y1="-654.1709" x2="48.6992" y2="-648.5469" gradientTransform="matrix(1 0 0 -1 -12 -621.3027)">
				<stop  offset="0" style="stop-color:#E6E6E6"/>
				<stop  offset="1" style="stop-color:#F2F2F2"/>
			</linearGradient>
			<path display="inline" fill="url(#SVGID_28_)" d="M42.033,27.694c0-0.249-0.201-0.45-0.449-0.45h-9.769
				c-0.249,0-0.45,0.201-0.45,0.45v4.702c0,0.249,0.201,0.45,0.45,0.45h9.769c0.248,0,0.449-0.201,0.449-0.45V27.694z"/>
			
				<linearGradient id="SVGID_29_" gradientUnits="userSpaceOnUse" x1="48.6992" y1="-654.0195" x2="48.6992" y2="-648.6968" gradientTransform="matrix(1 0 0 -1 -12 -621.3027)">
				<stop  offset="0" style="stop-color:#CCCCCC"/>
				<stop  offset="1" style="stop-color:#F2F2F2"/>
			</linearGradient>
			<path display="inline" fill="url(#SVGID_29_)" d="M31.815,27.394c-0.166,0-0.301,0.134-0.301,0.3v4.702
				c0,0.166,0.135,0.3,0.301,0.3h9.769c0.165,0,0.3-0.134,0.3-0.3v-4.702c0-0.166-0.135-0.3-0.3-0.3H31.815z"/>
			
				<radialGradient id="SVGID_30_" cx="48.7256" cy="-654.1406" r="3.7953" gradientTransform="matrix(1 0 0 -1 -12 -621.3027)" gradientUnits="userSpaceOnUse">
				<stop  offset="0" style="stop-color:#FFFFFF"/>
				<stop  offset="1" style="stop-color:#FFFFFF;stop-opacity:0"/>
			</radialGradient>
			<path display="inline" fill="url(#SVGID_30_)" d="M42.033,27.694c0-0.249-0.201-0.45-0.449-0.45h-9.769
				c-0.249,0-0.45,0.201-0.45,0.45v4.702c0,0.249,0.201,0.45,0.45,0.45h9.769c0.248,0,0.449-0.201,0.449-0.45V27.694z"/>
		</g>
		
			<linearGradient id="SVGID_31_" gradientUnits="userSpaceOnUse" x1="48.9629" y1="724.5166" x2="48.9629" y2="733.7883" gradientTransform="matrix(1 0 0 1 -12 -696)">
			<stop  offset="0" style="stop-color:#FFB866"/>
			<stop  offset="1" style="stop-color:#A25600"/>
		</linearGradient>
		<path fill="url(#SVGID_31_)" d="M43.262,37.067c0,0.373-0.303,0.675-0.675,0.675h-11.25c-0.373,0-0.675-0.302-0.675-0.675v-7.875
			c0-0.373,0.302-0.675,0.675-0.675h11.25c0.372,0,0.675,0.302,0.675,0.675V37.067z"/>
		
			<linearGradient id="SVGID_32_" gradientUnits="userSpaceOnUse" x1="48.9629" y1="724.7432" x2="48.9629" y2="733.5638" gradientTransform="matrix(1 0 0 1 -12 -696)">
			<stop  offset="0" style="stop-color:#F59E3B"/>
			<stop  offset="1" style="stop-color:#AD670E"/>
		</linearGradient>
		<path fill="url(#SVGID_32_)" d="M31.337,37.518c-0.248,0-0.45-0.202-0.45-0.45v-7.875c0-0.248,0.202-0.45,0.45-0.45h11.25
			c0.248,0,0.45,0.202,0.45,0.45v7.875c0,0.248-0.202,0.45-0.45,0.45H31.337z"/>
		
			<radialGradient id="SVGID_33_" cx="48.999" cy="724.5361" r="5.5207" gradientTransform="matrix(1 0 0 1 -12 -696)" gradientUnits="userSpaceOnUse">
			<stop  offset="0" style="stop-color:#FFFFFF"/>
			<stop  offset="1" style="stop-color:#FFFFFF;stop-opacity:0"/>
		</radialGradient>
		<path opacity="0.3" fill="url(#SVGID_33_)" enable-background="new    " d="M43.262,37.067c0,0.373-0.303,0.675-0.675,0.675
			h-11.25c-0.373,0-0.675-0.302-0.675-0.675v-7.875c0-0.373,0.302-0.675,0.675-0.675h11.25c0.372,0,0.675,0.302,0.675,0.675V37.067z
			"/>
	</g>
	<g opacity="0.2">
		
			<radialGradient id="SVGID_34_" cx="49.1113" cy="729.168" r="39.1189" gradientTransform="matrix(1 0 0 1 -12 -696)" gradientUnits="userSpaceOnUse">
			<stop  offset="0" style="stop-color:#FFFFFF"/>
			<stop  offset="1" style="stop-color:#FFFFFF;stop-opacity:0"/>
		</radialGradient>
		<path fill="url(#SVGID_34_)" d="M39.721,32.447l3.311-3.31c-0.028-0.222-0.215-0.395-0.444-0.395h-0.603L39,31.727L39.721,32.447z
			"/>
		
			<radialGradient id="SVGID_35_" cx="49.1104" cy="729.167" r="39.1429" gradientTransform="matrix(1 0 0 1 -12 -696)" gradientUnits="userSpaceOnUse">
			<stop  offset="0" style="stop-color:#FFFFFF"/>
			<stop  offset="1" style="stop-color:#FFFFFF;stop-opacity:0"/>
		</radialGradient>
		<polygon fill="url(#SVGID_35_)" points="38.342,32.385 38.071,32.655 38.792,33.375 39.062,33.106 		"/>
		
			<radialGradient id="SVGID_36_" cx="49.1113" cy="729.166" r="39.1363" gradientTransform="matrix(1 0 0 1 -12 -696)" gradientUnits="userSpaceOnUse">
			<stop  offset="0" style="stop-color:#FFFFFF"/>
			<stop  offset="1" style="stop-color:#FFFFFF;stop-opacity:0"/>
		</radialGradient>
		<polygon fill="url(#SVGID_36_)" points="37.675,34.493 37.675,34.253 36.474,34.253 36.249,34.478 36.249,35.918 		"/>
		
			<radialGradient id="SVGID_37_" cx="49.1113" cy="729.168" r="39.115" gradientTransform="matrix(1 0 0 1 -12 -696)" gradientUnits="userSpaceOnUse">
			<stop  offset="0" style="stop-color:#FFFFFF"/>
			<stop  offset="1" style="stop-color:#FFFFFF;stop-opacity:0"/>
		</radialGradient>
		<path fill="url(#SVGID_37_)" d="M34.465,34.043l2.497-2.498l0.437,0.437l0.27-0.27l-0.706-0.706l-2.844,2.843l-0.014-0.014
			l-3.218,3.218v0.015c0,0.248,0.202,0.45,0.45,0.45h0.526l2.602-2.602V34.043z"/>
		
			<radialGradient id="SVGID_38_" cx="49.1123" cy="729.1689" r="39.1269" gradientTransform="matrix(1 0 0 1 -12 -696)" gradientUnits="userSpaceOnUse">
			<stop  offset="0" style="stop-color:#FFFFFF"/>
			<stop  offset="1" style="stop-color:#FFFFFF;stop-opacity:0"/>
		</radialGradient>
		<polygon fill="url(#SVGID_38_)" points="30.887,31.478 30.887,32.919 35.063,28.742 33.622,28.742 		"/>
		
			<radialGradient id="SVGID_39_" cx="49.1123" cy="729.166" r="39.1114" gradientTransform="matrix(1 0 0 1 -12 -696)" gradientUnits="userSpaceOnUse">
			<stop  offset="0" style="stop-color:#FFFFFF"/>
			<stop  offset="1" style="stop-color:#FFFFFF;stop-opacity:0"/>
		</radialGradient>
		<polygon fill="url(#SVGID_39_)" points="37.851,28.742 36.41,28.742 30.887,34.266 30.887,35.706 		"/>
		
			<radialGradient id="SVGID_40_" cx="49.1123" cy="729.166" r="39.1277" gradientTransform="matrix(1 0 0 1 -12 -696)" gradientUnits="userSpaceOnUse">
			<stop  offset="0" style="stop-color:#FFFFFF"/>
			<stop  offset="1" style="stop-color:#FFFFFF;stop-opacity:0"/>
		</radialGradient>
		<polygon fill="url(#SVGID_40_)" points="35.821,36.347 34.465,36.347 34.465,36.262 33.209,37.518 34.65,37.518 		"/>
		
			<radialGradient id="SVGID_41_" cx="49.1133" cy="729.1689" r="39.1259" gradientTransform="matrix(1 0 0 1 -12 -696)" gradientUnits="userSpaceOnUse">
			<stop  offset="0" style="stop-color:#FFFFFF"/>
			<stop  offset="1" style="stop-color:#FFFFFF;stop-opacity:0"/>
		</radialGradient>
		<path fill="url(#SVGID_41_)" d="M32.276,28.742h-0.939c-0.248,0-0.45,0.202-0.45,0.45v0.939L32.276,28.742z"/>
		
			<radialGradient id="SVGID_42_" cx="49.1113" cy="729.167" r="39.1212" gradientTransform="matrix(1 0 0 1 -12 -696)" gradientUnits="userSpaceOnUse">
			<stop  offset="0" style="stop-color:#FFFFFF"/>
			<stop  offset="1" style="stop-color:#FFFFFF;stop-opacity:0"/>
		</radialGradient>
		<polygon fill="url(#SVGID_42_)" points="43.037,31.918 43.037,30.478 40.394,33.121 40.464,33.19 39.805,33.849 39.735,33.779 
			39.459,34.055 39.459,35.496 		"/>
		
			<radialGradient id="SVGID_43_" cx="49.1113" cy="729.168" r="39.1186" gradientTransform="matrix(1 0 0 1 -12 -696)" gradientUnits="userSpaceOnUse">
			<stop  offset="0" style="stop-color:#FFFFFF"/>
			<stop  offset="1" style="stop-color:#FFFFFF;stop-opacity:0"/>
		</radialGradient>
		<polygon fill="url(#SVGID_43_)" points="43.037,34.706 43.037,33.265 38.784,37.518 40.225,37.518 		"/>
		
			<radialGradient id="SVGID_44_" cx="49.1084" cy="729.167" r="39.1337" gradientTransform="matrix(1 0 0 1 -12 -696)" gradientUnits="userSpaceOnUse">
			<stop  offset="0" style="stop-color:#FFFFFF"/>
			<stop  offset="1" style="stop-color:#FFFFFF;stop-opacity:0"/>
		</radialGradient>
		<path fill="url(#SVGID_44_)" d="M41.571,37.518h1.016c0.248,0,0.45-0.202,0.45-0.45v-1.015L41.571,37.518z"/>
		
			<radialGradient id="SVGID_45_" cx="49.1123" cy="729.166" r="39.127" gradientTransform="matrix(1 0 0 1 -12 -696)" gradientUnits="userSpaceOnUse">
			<stop  offset="0" style="stop-color:#FFFFFF"/>
			<stop  offset="1" style="stop-color:#FFFFFF;stop-opacity:0"/>
		</radialGradient>
		<polygon fill="url(#SVGID_45_)" points="38.608,36.347 37.675,36.347 37.675,35.84 35.997,37.518 37.438,37.518 		"/>
		
			<radialGradient id="SVGID_46_" cx="49.1104" cy="729.167" r="39.1268" gradientTransform="matrix(1 0 0 1 -12 -696)" gradientUnits="userSpaceOnUse">
			<stop  offset="0" style="stop-color:#FFFFFF"/>
			<stop  offset="1" style="stop-color:#FFFFFF;stop-opacity:0"/>
		</radialGradient>
		<polygon fill="url(#SVGID_46_)" points="37.606,30.333 38.327,31.053 40.638,28.742 39.197,28.742 		"/>
	</g>
	<g>
		<path opacity="0.3" fill="#FFFFFF" enable-background="new    " d="M37.675,36.847c-0.276,0-0.5-0.224-0.5-0.5v-1.594h-0.426
			v1.594c0,0.276-0.224,0.5-0.5,0.5h-1.784c-0.276,0-0.5-0.224-0.5-0.5v-2.021c-0.075-0.024-0.144-0.066-0.201-0.123l-0.658-0.659
			c-0.195-0.195-0.195-0.512,0-0.707l3.502-3.502c0.098-0.098,0.226-0.146,0.354-0.146s0.256,0.049,0.354,0.146l3.502,3.502
			c0.094,0.094,0.146,0.221,0.146,0.354c0,0.133-0.053,0.26-0.146,0.354l-0.659,0.659c-0.058,0.058-0.126,0.099-0.199,0.122v2.022
			c0,0.276-0.224,0.5-0.5,0.5L37.675,36.847L37.675,36.847z"/>
		
			<radialGradient id="SVGID_47_" cx="48.9365" cy="725.7939" r="7.3257" gradientTransform="matrix(1 0 0 1 -12 -696)" gradientUnits="userSpaceOnUse">
			<stop  offset="0" style="stop-color:#EF7E1C;stop-opacity:0"/>
			<stop  offset="1" style="stop-color:#B35F15"/>
		</radialGradient>
		<path opacity="0.4" fill="url(#SVGID_47_)" enable-background="new    " d="M36.962,29.688L33.46,33.19l0.658,0.659l2.844-2.843
			l2.843,2.843l0.659-0.659L36.962,29.688z M34.465,34.043v2.304h1.784v-2.094h1.426v2.094h1.784v-2.304l-2.497-2.497L34.465,34.043
			z"/>
		<path opacity="0.7" fill="#BC6116" enable-background="new    " d="M36.962,29.688L33.46,33.19l0.658,0.659l2.844-2.843
			l2.843,2.843l0.659-0.659L36.962,29.688z M34.465,34.043v2.304h1.784v-2.094h1.426v2.094h1.784v-2.304l-2.497-2.497L34.465,34.043
			z"/>
		<path opacity="0.1" fill="#FFBE4D" enable-background="new    " d="M37.975,36.128v-2.093H35.95v2.093h-1.185v-1.879l2.197-2.197
			l2.197,2.197v1.879H37.975z M33.884,33.271l3.078-3.078l3.078,3.078l-0.235,0.234l-2.842-2.843l-2.844,2.843L33.884,33.271z"/>
		
			<radialGradient id="SVGID_48_" cx="48.9619" cy="725.7188" r="4.4637" gradientTransform="matrix(1 0 0 1 -12 -696)" gradientUnits="userSpaceOnUse">
			<stop  offset="0" style="stop-color:#FFAE33"/>
			<stop  offset="1" style="stop-color:#FFAE33;stop-opacity:0"/>
		</radialGradient>
		<path opacity="0.4" fill="url(#SVGID_48_)" enable-background="new    " d="M36.962,29.688L33.46,33.19l0.658,0.659l2.844-2.843
			l2.843,2.843l0.659-0.659L36.962,29.688z M34.465,34.043v2.304h1.784v-2.094h1.426v2.094h1.784v-2.304l-2.497-2.497L34.465,34.043
			z"/>
	</g>
</g>
<g>
	<g>
		<g>
			
				<linearGradient id="SVGID_49_" gradientUnits="userSpaceOnUse" x1="41.3721" y1="747.7998" x2="56.5518" y2="747.7998" gradientTransform="matrix(1 0 0 1 -12 -696)">
				<stop  offset="0" style="stop-color:#000000"/>
				<stop  offset="1" style="stop-color:#000000;stop-opacity:0.5882"/>
			</linearGradient>
			<path opacity="0.08" fill="url(#SVGID_49_)" enable-background="new    " d="M30.775,59.225c-0.773,0-1.403-0.627-1.403-1.399
				V45.777c0-0.773,0.629-1.402,1.403-1.402H43.15c0.683,0,1.285,0.496,1.402,1.155v12.293c0,0.771-0.628,1.401-1.402,1.401H30.775
				L30.775,59.225z"/>
			
				<linearGradient id="SVGID_50_" gradientUnits="userSpaceOnUse" x1="42.064" y1="747.8008" x2="55.8594" y2="747.8008" gradientTransform="matrix(1 0 0 1 -12 -696)">
				<stop  offset="0" style="stop-color:#000000"/>
				<stop  offset="1" style="stop-color:#000000;stop-opacity:0.5882"/>
			</linearGradient>
			<path opacity="0.2" fill="url(#SVGID_50_)" enable-background="new    " d="M31.084,58.54c-0.563,0-1.02-0.457-1.02-1.019V46.078
				c0-0.562,0.458-1.018,1.02-1.018H42.84c0.562,0,1.019,0.457,1.019,1.018v11.443c0,0.562-0.458,1.019-1.019,1.019H31.084z"/>
		</g>
		
			<linearGradient id="SVGID_51_" gradientUnits="userSpaceOnUse" x1="48.9629" y1="741.3496" x2="48.9629" y2="754.0141" gradientTransform="matrix(1 0 0 1 -12 -696)">
			<stop  offset="0" style="stop-color:#86A0B9"/>
			<stop  offset="1" style="stop-color:#86A0B9"/>
		</linearGradient>
		<path fill="url(#SVGID_51_)" d="M43.262,46.025c0-0.373-0.303-0.675-0.675-0.675h-11.25c-0.373,0-0.675,0.302-0.675,0.675v2.7
			V53.9v3.375c0,0.373,0.302,0.675,0.675,0.675h11.25c0.372,0,0.675-0.302,0.675-0.675V46.025z"/>
		<g>
			<path fill="#253E58" d="M43.262,57.275c0,0.373-0.303,0.675-0.675,0.675h-11.25c-0.373,0-0.675-0.302-0.675-0.675v-8.551
				c0-0.375,0.302-0.677,0.675-0.677h11.25c0.372,0,0.675,0.302,0.675,0.677V57.275z"/>
		</g>
		
			<linearGradient id="SVGID_52_" gradientUnits="userSpaceOnUse" x1="48.9629" y1="741.3496" x2="48.9629" y2="753.3358" gradientTransform="matrix(1 0 0 1 -12 -696)">
			<stop  offset="0" style="stop-color:#86A0B9"/>
			<stop  offset="1" style="stop-color:#86A0B9"/>
		</linearGradient>
		<path fill="url(#SVGID_52_)" d="M43.262,56.6c0,0.373-0.303,0.676-0.675,0.676h-11.25c-0.373,0-0.675-0.303-0.675-0.676V46.025
			c0-0.373,0.302-0.675,0.675-0.675h11.25c0.372,0,0.675,0.302,0.675,0.675V56.6z"/>
		
			<linearGradient id="SVGID_53_" gradientUnits="userSpaceOnUse" x1="42.6621" y1="747.3125" x2="55.3251" y2="747.3125" gradientTransform="matrix(1 0 0 1 -12 -696)">
			<stop  offset="0" style="stop-color:#86A0B9"/>
			<stop  offset="0.0229" style="stop-color:#93ACC4"/>
			<stop  offset="0.0651" style="stop-color:#B5CBE1"/>
			<stop  offset="0.08" style="stop-color:#C3D8EC"/>
			<stop  offset="0.1055" style="stop-color:#B1C7DD"/>
			<stop  offset="0.1515" style="stop-color:#86A0B9"/>
			<stop  offset="0.85" style="stop-color:#86A0B9"/>
			<stop  offset="0.8749" style="stop-color:#98B1C8"/>
			<stop  offset="0.92" style="stop-color:#C3D8EC"/>
			<stop  offset="0.9349" style="stop-color:#B5CBE1"/>
			<stop  offset="0.9771" style="stop-color:#93ACC4"/>
			<stop  offset="1" style="stop-color:#86A0B9"/>
		</linearGradient>
		<path fill="url(#SVGID_53_)" d="M43.262,56.6c0,0.373-0.303,0.676-0.675,0.676h-11.25c-0.373,0-0.675-0.303-0.675-0.676V46.025
			c0-0.373,0.302-0.675,0.675-0.675h11.25c0.372,0,0.675,0.302,0.675,0.675V56.6z"/>
		<g opacity="0.2">
			
				<radialGradient id="SVGID_54_" cx="49.0127" cy="748.5498" r="39.0685" gradientTransform="matrix(1 0 0 1 -12 -696)" gradientUnits="userSpaceOnUse">
				<stop  offset="0" style="stop-color:#FFFFFF"/>
				<stop  offset="1" style="stop-color:#FFFFFF;stop-opacity:0"/>
			</radialGradient>
			<path fill="url(#SVGID_54_)" d="M43.032,48.67c-0.028-0.223-0.215-0.395-0.444-0.395h-0.603l-8.775,8.774h1.441L43.032,48.67z"/>
			
				<radialGradient id="SVGID_55_" cx="49.0127" cy="748.5508" r="39.0815" gradientTransform="matrix(1 0 0 1 -12 -696)" gradientUnits="userSpaceOnUse">
				<stop  offset="0" style="stop-color:#FFFFFF"/>
				<stop  offset="1" style="stop-color:#FFFFFF;stop-opacity:0"/>
			</radialGradient>
			<polygon fill="url(#SVGID_55_)" points="33.623,48.275 30.887,51.011 30.887,52.451 35.064,48.275 			"/>
			
				<radialGradient id="SVGID_56_" cx="49.0127" cy="748.5498" r="39.0676" gradientTransform="matrix(1 0 0 1 -12 -696)" gradientUnits="userSpaceOnUse">
				<stop  offset="0" style="stop-color:#FFFFFF"/>
				<stop  offset="1" style="stop-color:#FFFFFF;stop-opacity:0"/>
			</radialGradient>
			<polygon fill="url(#SVGID_56_)" points="36.411,48.275 30.887,53.798 30.887,55.238 37.851,48.275 			"/>
			
				<radialGradient id="SVGID_57_" cx="49.0146" cy="748.5479" r="39.069" gradientTransform="matrix(1 0 0 1 -12 -696)" gradientUnits="userSpaceOnUse">
				<stop  offset="0" style="stop-color:#FFFFFF"/>
				<stop  offset="1" style="stop-color:#FFFFFF;stop-opacity:0"/>
			</radialGradient>
			<path fill="url(#SVGID_57_)" d="M31.337,48.275c-0.248,0-0.45,0.201-0.45,0.45v0.938l1.39-1.389L31.337,48.275L31.337,48.275z"/>
			
				<radialGradient id="SVGID_58_" cx="49.0127" cy="748.5488" r="39.0723" gradientTransform="matrix(1 0 0 1 -12 -696)" gradientUnits="userSpaceOnUse">
				<stop  offset="0" style="stop-color:#FFFFFF"/>
				<stop  offset="1" style="stop-color:#FFFFFF;stop-opacity:0"/>
			</radialGradient>
			<polygon fill="url(#SVGID_58_)" points="35.998,57.05 37.438,57.05 43.038,51.451 43.038,50.01 			"/>
			
				<radialGradient id="SVGID_59_" cx="49.0127" cy="748.5488" r="39.0683" gradientTransform="matrix(1 0 0 1 -12 -696)" gradientUnits="userSpaceOnUse">
				<stop  offset="0" style="stop-color:#FFFFFF"/>
				<stop  offset="1" style="stop-color:#FFFFFF;stop-opacity:0"/>
			</radialGradient>
			<polygon fill="url(#SVGID_59_)" points="40.225,57.05 43.038,54.238 43.038,52.797 38.785,57.05 			"/>
			
				<radialGradient id="SVGID_60_" cx="49.0088" cy="748.5479" r="39.0892" gradientTransform="matrix(1 0 0 1 -12 -696)" gradientUnits="userSpaceOnUse">
				<stop  offset="0" style="stop-color:#FFFFFF"/>
				<stop  offset="1" style="stop-color:#FFFFFF;stop-opacity:0"/>
			</radialGradient>
			<path fill="url(#SVGID_60_)" d="M42.587,57.05c0.248,0,0.45-0.202,0.45-0.45v-1.016l-1.466,1.466H42.587z"/>
			
				<radialGradient id="SVGID_61_" cx="49.0127" cy="748.5498" r="39.0697" gradientTransform="matrix(1 0 0 1 -12 -696)" gradientUnits="userSpaceOnUse">
				<stop  offset="0" style="stop-color:#FFFFFF"/>
				<stop  offset="1" style="stop-color:#FFFFFF;stop-opacity:0"/>
			</radialGradient>
			<path fill="url(#SVGID_61_)" d="M40.638,48.275h-1.44l-8.311,8.311V56.6c0,0.248,0.202,0.45,0.45,0.45h0.526L40.638,48.275z"/>
		</g>
		<path fill="#B3C6D9" d="M42.587,56.975h-11.25c-0.373,0-0.675-0.302-0.675-0.675v0.3c0,0.373,0.302,0.676,0.675,0.676h11.25
			c0.372,0,0.675-0.303,0.675-0.676v-0.3C43.262,56.673,42.959,56.975,42.587,56.975z"/>
		<g>
			<g>
				<g>
					<defs>
						<path id="SVGID_62_" d="M42.587,45.35h-11.25c-0.373,0-0.675,0.302-0.675,0.675V56.3c0,0.373,0.302,0.675,0.675,0.675h11.25
							c0.372,0,0.675-0.302,0.675-0.675V46.025C43.262,45.652,42.959,45.35,42.587,45.35z"/>
					</defs>
					<clipPath id="SVGID_63_">
						<use xlink:href="#SVGID_62_"  overflow="visible"/>
					</clipPath>
					
						<linearGradient id="SVGID_64_" gradientUnits="userSpaceOnUse" x1="48.9619" y1="755.2998" x2="48.9619" y2="749.6777" gradientTransform="matrix(1 0 0 1 -12 -696)">
						<stop  offset="0" style="stop-color:#456B92"/>
						<stop  offset="1" style="stop-color:#456B92;stop-opacity:0"/>
					</linearGradient>
					<path opacity="0.7" clip-path="url(#SVGID_63_)" fill="url(#SVGID_64_)" enable-background="new    " d="M43.262,58.625
						c0,0.373-0.303,0.675-0.675,0.675h-11.25c-0.373,0-0.675-0.302-0.675-0.675v-4.271c0-0.373,0.302-0.676,0.675-0.676h11.25
						c0.372,0,0.675,0.303,0.675,0.676V58.625z"/>
				</g>
			</g>
		</g>
		
			<radialGradient id="SVGID_65_" cx="48.9619" cy="2662.1318" r="6.1873" gradientTransform="matrix(1 0 0 0.2664 -12 -659.6809)" gradientUnits="userSpaceOnUse">
			<stop  offset="0" style="stop-color:#456B92"/>
			<stop  offset="1" style="stop-color:#456B92;stop-opacity:0"/>
		</radialGradient>
		<path fill="url(#SVGID_65_)" d="M43.262,51.047c0,0.373-0.303,0.676-0.675,0.676h-11.25c-0.373,0-0.675-0.303-0.675-0.676v-3.072
			c0-0.372,0.302-0.675,0.675-0.675h11.25c0.372,0,0.675,0.303,0.675,0.675V51.047z"/>
		<path display="none" fill="#62788F" d="M43.262,51.598c0,0.373-0.303,0.674-0.675,0.674h-11.25c-0.373,0-0.675-0.301-0.675-0.674
			v-4.423c0-0.372,0.302-0.675,0.675-0.675h11.25c0.372,0,0.675,0.303,0.675,0.675V51.598z"/>
		<path fill="#FFFFFF" d="M43.262,49.848c0,0.373-0.303,0.674-0.675,0.674h-11.25c-0.373,0-0.675-0.301-0.675-0.674v-3.822
			c0-0.373,0.302-0.675,0.675-0.675h11.25c0.372,0,0.675,0.302,0.675,0.675V49.848z"/>
		
			<linearGradient id="SVGID_66_" gradientUnits="userSpaceOnUse" x1="48.9619" y1="746.2969" x2="48.9619" y2="741.3506" gradientTransform="matrix(1 0 0 1 -12 -696)">
			<stop  offset="0" style="stop-color:#CBDAE7"/>
			<stop  offset="1" style="stop-color:#AEC3D9"/>
		</linearGradient>
		<path fill="url(#SVGID_66_)" d="M43.262,49.622c0,0.373-0.303,0.675-0.675,0.675h-11.25c-0.373,0-0.675-0.302-0.675-0.675v-3.597
			c0-0.373,0.302-0.675,0.675-0.675h11.25c0.372,0,0.675,0.302,0.675,0.675V49.622z"/>
		
			<radialGradient id="SVGID_67_" cx="49" cy="745.0684" r="5.5208" gradientTransform="matrix(1 0 0 1 -12 -696)" gradientUnits="userSpaceOnUse">
			<stop  offset="0" style="stop-color:#FFFFFF"/>
			<stop  offset="1" style="stop-color:#FFFFFF;stop-opacity:0"/>
		</radialGradient>
		<path display="none" opacity="0.3" fill="url(#SVGID_67_)" enable-background="new    " d="M43.262,57.6
			c0,0.373-0.303,0.676-0.675,0.676h-11.25c-0.373,0-0.675-0.303-0.675-0.676v-7.875c0-0.373,0.302-0.675,0.675-0.675h11.25
			c0.372,0,0.675,0.302,0.675,0.675V57.6z"/>
	</g>
	
		<radialGradient id="SVGID_68_" cx="48.9629" cy="743.7109" r="5.8134" gradientTransform="matrix(1 0 0 1 -12 -696)" gradientUnits="userSpaceOnUse">
		<stop  offset="0" style="stop-color:#FFFFFF"/>
		<stop  offset="1" style="stop-color:#FFFFFF;stop-opacity:0"/>
	</radialGradient>
	<path opacity="0.6" fill="url(#SVGID_68_)" enable-background="new    " d="M31.788,49.771c-0.331,0-0.601-0.271-0.601-0.602v-2.92
		c0-0.331,0.27-0.6,0.601-0.6h10.35c0.331,0,0.6,0.269,0.6,0.6v2.922c0,0.331-0.269,0.6-0.6,0.6H31.788L31.788,49.771z"/>
	
		<radialGradient id="SVGID_69_" cx="49.0127" cy="745.5664" r="5.1027" gradientTransform="matrix(1 0 0 1 -12 -696)" gradientUnits="userSpaceOnUse">
		<stop  offset="0" style="stop-color:#456B92"/>
		<stop  offset="1" style="stop-color:#24415E"/>
	</radialGradient>
	<path fill="url(#SVGID_69_)" d="M42.587,49.172c0,0.248-0.202,0.45-0.45,0.45h-10.35c-0.249,0-0.45-0.202-0.45-0.45V46.25
		c0-0.248,0.201-0.45,0.45-0.45h10.35c0.248,0,0.45,0.202,0.45,0.45V49.172z"/>
	
		<linearGradient id="SVGID_70_" gradientUnits="userSpaceOnUse" x1="48.9619" y1="746.5498" x2="48.9619" y2="744.4084" gradientTransform="matrix(1 0 0 1 -12 -696)">
		<stop  offset="0" style="stop-color:#000000"/>
		<stop  offset="1" style="stop-color:#000000;stop-opacity:0"/>
	</linearGradient>
	<path fill="url(#SVGID_70_)" d="M42.587,49.172c0,0.248-0.202,0.45-0.45,0.45h-10.35c-0.249,0-0.45-0.202-0.45-0.45V46.25
		c0-0.248,0.201-0.45,0.45-0.45h10.35c0.248,0,0.45,0.202,0.45,0.45V49.172z"/>
	<g>
		<path fill="#CBDAE7" d="M35.32,56.182l-0.349-0.355l0.348-0.355l0.494-0.48v0.445l0.619-0.004h0.008
			c0.013,0.002,0.024,0.002,0.036,0.002c0.052,0,0.076-0.015,0.103-0.056c0.012-0.021,0.024-0.067-0.007-0.12l-0.729-1.251
			l0.683-0.39l0.689,1.188c0.104,0.145,0.161,0.313,0.169,0.49v0.057c-0.008,0.154-0.048,0.295-0.119,0.424
			c-0.168,0.283-0.463,0.449-0.79,0.449l0,0c-0.027,0-0.055-0.002-0.081-0.004h-0.581v0.453L35.32,56.182z M33.492,56.225
			c-0.332,0-0.627-0.168-0.787-0.447c-0.072-0.131-0.112-0.271-0.12-0.418v-0.063c0.008-0.177,0.067-0.351,0.168-0.487l0.288-0.51
			l-0.393-0.225l0.676-0.182l0.481-0.132l0.131,0.489l0.182,0.666l-0.39-0.225l-0.304,0.527c-0.056,0.086-0.054,0.117-0.029,0.164
			c0.019,0.03,0.052,0.051,0.093,0.051h0.018h1.438v0.785h-1.381C33.546,56.223,33.519,56.225,33.492,56.225L33.492,56.225z
			 M33.481,53.541l0.687-1.195c0.143-0.309,0.464-0.516,0.813-0.516c0.354,0,0.678,0.207,0.825,0.525l0.29,0.502l0.393-0.234
			l-0.313,1.169l-0.488-0.131l-0.657-0.179l0.38-0.229l-0.313-0.537l-0.004-0.007c-0.03-0.068-0.063-0.087-0.111-0.091
			c-0.044,0.004-0.077,0.026-0.1,0.067l-0.721,1.252L33.481,53.541z"/>
		<path fill="#305173" d="M35.32,55.912l-0.349-0.357l0.348-0.355l0.494-0.481v0.446l0.619-0.005l0.008,0.001
			c0.013,0.001,0.024,0.002,0.036,0.002c0.052,0,0.076-0.016,0.103-0.057c0.012-0.021,0.024-0.066-0.007-0.119l-0.729-1.252
			l0.683-0.39l0.689,1.19c0.104,0.143,0.161,0.311,0.169,0.488v0.058c-0.008,0.155-0.048,0.295-0.119,0.423
			c-0.168,0.283-0.463,0.45-0.79,0.45l0,0c-0.027,0-0.055-0.001-0.081-0.003h-0.581v0.453L35.32,55.912z M33.492,55.954
			c-0.332,0-0.627-0.167-0.787-0.448c-0.072-0.129-0.112-0.27-0.12-0.418v-0.064c0.008-0.178,0.067-0.348,0.168-0.486l0.288-0.51
			l-0.393-0.225l0.676-0.181l0.481-0.132l0.131,0.488l0.182,0.666l-0.39-0.225l-0.304,0.529c-0.056,0.084-0.054,0.115-0.029,0.16
			c0.019,0.031,0.052,0.053,0.093,0.053h0.018h1.438v0.787h-1.381C33.546,55.953,33.519,55.954,33.492,55.954L33.492,55.954z
			 M33.481,53.271l0.687-1.196c0.143-0.31,0.464-0.515,0.813-0.515c0.354,0,0.678,0.205,0.825,0.523l0.29,0.502l0.393-0.232
			l-0.313,1.168l-0.488-0.131l-0.657-0.182l0.38-0.229l-0.313-0.537l-0.004-0.008c-0.03-0.068-0.063-0.088-0.111-0.092
			c-0.044,0.006-0.077,0.029-0.1,0.069l-0.721,1.253L33.481,53.271z"/>
		<path display="none" fill="#4A749E" d="M37.102,55.744l-0.626-1.08l-0.447,0.256l0.658,1.131c0.051,0.082,0.051,0.18,0.006,0.262
			c-0.063,0.104-0.152,0.127-0.268,0.115l-0.748,0.006v-0.262l-0.262,0.256l-0.256,0.262l0.256,0.264l0.262,0.262v-0.262h0.729
			c0.287,0.023,0.581-0.109,0.741-0.377c0.063-0.115,0.096-0.236,0.103-0.357v-0.052C37.243,56.012,37.192,55.865,37.102,55.744z
			 M35.594,54.166L35.371,54.3l0.352,0.097l0.357,0.098l0.192-0.719l-0.224,0.137l-0.364-0.635c-0.122-0.262-0.39-0.445-0.703-0.445
			c-0.307,0-0.575,0.188-0.696,0.445l-0.62,1.08l0.447,0.264l0.652-1.131c0.045-0.083,0.121-0.137,0.217-0.143
			c0.121,0.006,0.191,0.07,0.236,0.174L35.594,54.166z M33.275,56.313c-0.057-0.107-0.031-0.197,0.032-0.293l0.371-0.646
			l0.223,0.128l-0.096-0.354l-0.096-0.356l-0.352,0.099L33,54.982l0.224,0.129l-0.357,0.633c-0.09,0.121-0.141,0.268-0.147,0.414
			v0.059c0.007,0.121,0.038,0.242,0.103,0.357c0.153,0.268,0.447,0.402,0.741,0.377h1.246v-0.518h-1.304
			C33.41,56.439,33.327,56.395,33.275,56.313z"/>
		
			<radialGradient id="SVGID_71_" cx="46.9854" cy="750.0234" r="2.9286" gradientTransform="matrix(1 0 0 1 -12 -696)" gradientUnits="userSpaceOnUse">
			<stop  offset="0.2545" style="stop-color:#000000;stop-opacity:0"/>
			<stop  offset="1" style="stop-color:#000000"/>
		</radialGradient>
		<path opacity="0.1" fill="url(#SVGID_71_)" enable-background="new    " d="M37.102,54.744l-0.626-1.08l-0.447,0.256l0.658,1.131
			c0.051,0.082,0.051,0.18,0.006,0.262c-0.063,0.104-0.152,0.127-0.268,0.115l-0.748,0.006v-0.262l-0.262,0.256l-0.256,0.262
			l0.256,0.264l0.262,0.262v-0.262h0.729c0.287,0.023,0.581-0.109,0.741-0.377c0.063-0.115,0.096-0.236,0.103-0.357v-0.052
			C37.243,55.012,37.192,54.865,37.102,54.744z M35.594,53.166L35.371,53.3l0.352,0.097l0.357,0.098l0.192-0.719l-0.224,0.137
			l-0.364-0.635c-0.122-0.262-0.39-0.445-0.703-0.445c-0.307,0-0.575,0.188-0.696,0.445l-0.62,1.08l0.447,0.264l0.652-1.131
			c0.045-0.083,0.121-0.137,0.217-0.143c0.121,0.006,0.191,0.07,0.236,0.174L35.594,53.166z M33.275,55.313
			c-0.057-0.107-0.031-0.197,0.032-0.293l0.371-0.646l0.223,0.128l-0.096-0.354l-0.096-0.356l-0.352,0.099L33,53.982l0.224,0.129
			l-0.357,0.633c-0.09,0.121-0.141,0.268-0.147,0.414v0.059c0.007,0.121,0.038,0.242,0.103,0.357
			c0.153,0.268,0.447,0.402,0.741,0.377h1.246v-0.518h-1.304C33.41,55.439,33.327,55.395,33.275,55.313z"/>
	</g>
</g>
<g>
	<path id="path4371" opacity="0.5" fill="#FFFFFF" enable-background="new    " d="M22.178,17.7c0,1.104-0.896,2-2,2s-2-0.896-2-2
		s0.896-2,2-2S22.178,16.596,22.178,17.7z"/>
	<g id="text4373" transform="translate(0.115134,0.909771)" opacity="0.5">
		<path id="path4378" inkscape:connector-curvature="0" fill="#FFFFFF" d="M25.664,18.236c-0.021-0.072-0.047-0.146-0.074-0.223
			c-0.026-0.076-0.053-0.152-0.078-0.228h-0.811c-0.025,0.075-0.053,0.151-0.08,0.228c-0.026,0.076-0.051,0.15-0.072,0.223h-0.486
			c0.078-0.225,0.152-0.432,0.223-0.621c0.069-0.19,0.137-0.369,0.203-0.537c0.068-0.168,0.135-0.327,0.198-0.477
			c0.065-0.152,0.134-0.301,0.204-0.444h0.447c0.067,0.144,0.135,0.292,0.201,0.444c0.065,0.149,0.131,0.309,0.197,0.477
			c0.068,0.168,0.137,0.347,0.207,0.537c0.07,0.189,0.145,0.396,0.223,0.621H25.664 M25.104,16.627
			c-0.01,0.03-0.025,0.071-0.045,0.123c-0.02,0.052-0.043,0.112-0.068,0.181c-0.027,0.067-0.056,0.143-0.088,0.225
			c-0.029,0.082-0.061,0.168-0.093,0.258h0.59c-0.031-0.09-0.063-0.176-0.093-0.258c-0.03-0.082-0.06-0.157-0.087-0.225
			c-0.026-0.068-0.049-0.129-0.069-0.181C25.131,16.698,25.115,16.658,25.104,16.627"/>
		<path id="path4380" inkscape:connector-curvature="0" fill="#FFFFFF" d="M27.416,17.458c0-0.139-0.031-0.248-0.094-0.33
			c-0.062-0.084-0.154-0.126-0.275-0.126c-0.04,0-0.077,0.002-0.111,0.006c-0.034,0.003-0.063,0.005-0.084,0.009v0.808
			c0.027,0.018,0.064,0.032,0.107,0.045c0.047,0.012,0.093,0.019,0.139,0.019C27.31,17.888,27.416,17.745,27.416,17.458
			 M27.871,17.447c0,0.121-0.015,0.232-0.045,0.332c-0.029,0.101-0.074,0.187-0.131,0.259c-0.059,0.071-0.131,0.128-0.217,0.168
			s-0.186,0.06-0.297,0.06c-0.063,0-0.12-0.006-0.174-0.018c-0.055-0.012-0.106-0.029-0.156-0.051v0.594h-0.447v-2.079
			c0.041-0.012,0.086-0.022,0.139-0.032c0.052-0.013,0.105-0.022,0.162-0.031c0.058-0.008,0.115-0.014,0.174-0.018
			c0.06-0.006,0.117-0.009,0.171-0.009c0.13,0,0.245,0.021,0.348,0.06s0.188,0.094,0.259,0.166c0.069,0.069,0.123,0.155,0.158,0.258
			C27.853,17.206,27.871,17.32,27.871,17.447"/>
		<path id="path4382" inkscape:connector-curvature="0" fill="#FFFFFF" d="M29.227,17.458c0-0.139-0.031-0.248-0.094-0.33
			c-0.062-0.084-0.154-0.126-0.275-0.126c-0.04,0-0.077,0.002-0.111,0.006c-0.034,0.003-0.063,0.005-0.084,0.009v0.808
			c0.027,0.018,0.064,0.032,0.107,0.045c0.047,0.012,0.093,0.019,0.139,0.019C29.12,17.888,29.227,17.745,29.227,17.458
			 M29.682,17.447c0,0.121-0.015,0.232-0.045,0.332c-0.029,0.101-0.074,0.187-0.131,0.259c-0.059,0.071-0.131,0.128-0.217,0.168
			s-0.186,0.06-0.297,0.06c-0.063,0-0.12-0.006-0.174-0.018c-0.055-0.012-0.106-0.029-0.156-0.051v0.594h-0.447v-2.079
			c0.041-0.012,0.086-0.022,0.139-0.032c0.052-0.013,0.105-0.022,0.162-0.031c0.058-0.008,0.115-0.014,0.174-0.018
			c0.06-0.006,0.117-0.009,0.171-0.009c0.13,0,0.245,0.021,0.348,0.06s0.188,0.094,0.259,0.166c0.069,0.069,0.123,0.155,0.158,0.258
			C29.663,17.206,29.682,17.32,29.682,17.447"/>
		<path id="path4384" inkscape:connector-curvature="0" fill="#FFFFFF" d="M30.656,18.265c-0.131-0.002-0.236-0.016-0.318-0.041
			c-0.08-0.026-0.145-0.063-0.192-0.108c-0.046-0.048-0.077-0.104-0.096-0.171c-0.017-0.068-0.024-0.145-0.024-0.229V15.98
			l0.447-0.072v1.719c0,0.04,0.003,0.076,0.01,0.107c0.006,0.033,0.016,0.06,0.032,0.082c0.019,0.021,0.043,0.039,0.075,0.054
			c0.031,0.014,0.074,0.022,0.129,0.026L30.656,18.265"/>
		<path id="path4386" inkscape:connector-curvature="0" fill="#FFFFFF" d="M31.422,18.236h-0.447v-1.578h0.447V18.236
			 M31.464,16.202c0,0.082-0.026,0.147-0.081,0.194c-0.052,0.047-0.113,0.069-0.186,0.069c-0.073,0-0.135-0.022-0.189-0.069
			c-0.052-0.047-0.078-0.112-0.078-0.194s0.026-0.146,0.078-0.192c0.055-0.048,0.117-0.072,0.189-0.072
			c0.072,0,0.134,0.024,0.186,0.072C31.438,16.056,31.464,16.12,31.464,16.202"/>
		<path id="path4388" inkscape:connector-curvature="0" fill="#FFFFFF" d="M31.768,17.447c0-0.114,0.018-0.221,0.054-0.321
			c0.038-0.103,0.092-0.19,0.161-0.265c0.07-0.075,0.156-0.135,0.256-0.18c0.1-0.043,0.214-0.065,0.342-0.065
			c0.084,0,0.161,0.008,0.23,0.024c0.07,0.014,0.139,0.034,0.205,0.063l-0.094,0.357c-0.042-0.017-0.088-0.031-0.138-0.043
			c-0.05-0.012-0.106-0.018-0.168-0.018c-0.132,0-0.231,0.041-0.297,0.123c-0.064,0.082-0.097,0.189-0.097,0.324
			c0,0.142,0.03,0.252,0.09,0.33c0.063,0.078,0.17,0.117,0.322,0.117c0.053,0,0.111-0.006,0.174-0.016
			c0.062-0.01,0.119-0.025,0.17-0.048l0.063,0.366c-0.052,0.021-0.116,0.041-0.194,0.057c-0.078,0.016-0.164,0.023-0.259,0.023
			c-0.144,0-0.268-0.021-0.372-0.063c-0.104-0.044-0.189-0.104-0.258-0.177c-0.066-0.074-0.115-0.161-0.146-0.261
			C31.782,17.674,31.768,17.564,31.768,17.447"/>
		<path id="path4390" inkscape:connector-curvature="0" fill="#FFFFFF" d="M33.869,17.923c0.044,0,0.086-0.001,0.126-0.003
			c0.04-0.002,0.071-0.005,0.096-0.009v-0.339c-0.019-0.005-0.045-0.009-0.081-0.013c-0.035-0.004-0.068-0.006-0.099-0.006
			c-0.042,0-0.082,0.004-0.12,0.01c-0.036,0.004-0.068,0.013-0.096,0.026c-0.028,0.015-0.051,0.033-0.066,0.058
			c-0.016,0.023-0.023,0.054-0.023,0.09c0,0.07,0.022,0.119,0.068,0.146C33.723,17.911,33.787,17.923,33.869,17.923 M33.833,16.616
			c0.132,0,0.242,0.015,0.33,0.045c0.088,0.03,0.157,0.073,0.21,0.129c0.054,0.056,0.092,0.124,0.113,0.204
			c0.022,0.08,0.033,0.169,0.033,0.267v0.931c-0.063,0.014-0.152,0.029-0.267,0.048c-0.114,0.02-0.252,0.03-0.414,0.03
			c-0.103,0-0.194-0.01-0.278-0.027c-0.082-0.018-0.154-0.047-0.213-0.088c-0.061-0.041-0.107-0.096-0.139-0.161
			c-0.032-0.066-0.048-0.147-0.048-0.243c0-0.092,0.018-0.17,0.054-0.234c0.038-0.063,0.088-0.115,0.15-0.152
			c0.062-0.038,0.133-0.065,0.213-0.081c0.08-0.019,0.162-0.027,0.249-0.027c0.058,0,0.108,0.003,0.153,0.009
			c0.045,0.004,0.082,0.01,0.11,0.019V17.24c0-0.076-0.022-0.137-0.069-0.184c-0.045-0.045-0.125-0.068-0.24-0.068
			c-0.075,0-0.15,0.006-0.225,0.018c-0.074,0.01-0.138,0.025-0.191,0.045l-0.057-0.359c0.025-0.008,0.057-0.017,0.096-0.024
			c0.039-0.01,0.082-0.019,0.129-0.024c0.046-0.008,0.094-0.014,0.144-0.018C33.729,16.619,33.781,16.616,33.833,16.616"/>
		<path id="path4392" inkscape:connector-curvature="0" fill="#FFFFFF" d="M34.909,16.265l0.446-0.072v0.465h0.537v0.371h-0.537
			v0.556c0,0.095,0.017,0.169,0.049,0.226c0.033,0.056,0.102,0.084,0.201,0.084c0.048,0,0.097-0.004,0.146-0.013
			c0.053-0.01,0.1-0.022,0.141-0.039l0.063,0.349c-0.054,0.021-0.114,0.041-0.18,0.057s-0.147,0.023-0.243,0.023
			c-0.122,0-0.223-0.016-0.303-0.047c-0.08-0.035-0.145-0.08-0.192-0.139c-0.048-0.061-0.082-0.132-0.103-0.216
			c-0.018-0.084-0.026-0.177-0.026-0.279L34.909,16.265"/>
		<path id="path4394" inkscape:connector-curvature="0" fill="#FFFFFF" d="M36.701,18.236h-0.447v-1.578h0.447V18.236
			 M36.743,16.202c0,0.082-0.026,0.147-0.081,0.194c-0.052,0.047-0.113,0.069-0.186,0.069c-0.073,0-0.135-0.022-0.189-0.069
			c-0.052-0.047-0.078-0.112-0.078-0.194s0.026-0.146,0.078-0.192c0.055-0.048,0.117-0.072,0.189-0.072
			c0.072,0,0.134,0.024,0.186,0.072C36.717,16.056,36.743,16.12,36.743,16.202"/>
		<path id="path4396" inkscape:connector-curvature="0" fill="#FFFFFF" d="M38.598,17.443c0,0.125-0.018,0.238-0.055,0.343
			c-0.035,0.103-0.088,0.19-0.156,0.264c-0.067,0.072-0.149,0.128-0.245,0.168c-0.095,0.04-0.2,0.06-0.318,0.06
			c-0.116,0-0.222-0.02-0.317-0.06c-0.094-0.04-0.176-0.096-0.244-0.168c-0.067-0.073-0.12-0.161-0.158-0.264
			c-0.038-0.104-0.057-0.218-0.057-0.343c0-0.123,0.019-0.236,0.057-0.338c0.04-0.103,0.094-0.189,0.162-0.262
			c0.07-0.072,0.152-0.128,0.246-0.168c0.096-0.039,0.199-0.06,0.312-0.06c0.114,0,0.218,0.021,0.312,0.06
			c0.097,0.04,0.179,0.096,0.246,0.168c0.068,0.072,0.121,0.159,0.16,0.262C38.578,17.206,38.598,17.32,38.598,17.443
			 M38.142,17.443c0-0.137-0.028-0.245-0.084-0.323C38.004,17.04,37.926,17,37.824,17s-0.181,0.04-0.237,0.12
			c-0.056,0.078-0.084,0.187-0.084,0.323c0,0.139,0.028,0.248,0.084,0.33c0.057,0.08,0.135,0.121,0.237,0.121
			s0.181-0.041,0.234-0.121C38.113,17.691,38.142,17.581,38.142,17.443"/>
		<path id="path4398" inkscape:connector-curvature="0" fill="#FFFFFF" d="M38.943,16.711c0.076-0.022,0.174-0.042,0.295-0.06
			c0.119-0.021,0.246-0.03,0.377-0.03c0.135,0,0.246,0.019,0.334,0.054c0.09,0.034,0.16,0.083,0.213,0.147
			c0.052,0.063,0.088,0.14,0.11,0.228c0.022,0.088,0.033,0.186,0.033,0.295v0.891h-0.446v-0.838c0-0.144-0.02-0.246-0.058-0.306
			c-0.038-0.06-0.108-0.09-0.213-0.09c-0.032,0-0.066,0.002-0.103,0.006c-0.035,0.003-0.068,0.005-0.096,0.009v1.219h-0.447
			L38.943,16.711"/>
		<path id="path4400" inkscape:connector-curvature="0" fill="#FFFFFF" d="M41.166,17.914c0.082,0,0.141-0.008,0.174-0.024
			c0.034-0.016,0.051-0.047,0.051-0.093c0-0.036-0.021-0.067-0.065-0.093c-0.044-0.028-0.11-0.059-0.201-0.094
			c-0.069-0.025-0.134-0.053-0.192-0.08c-0.056-0.028-0.104-0.061-0.144-0.1s-0.071-0.086-0.093-0.141s-0.033-0.119-0.033-0.195
			c0-0.147,0.055-0.265,0.165-0.351c0.11-0.086,0.261-0.129,0.453-0.129c0.096,0,0.188,0.009,0.276,0.026
			c0.088,0.017,0.158,0.034,0.209,0.055l-0.078,0.348c-0.051-0.018-0.108-0.033-0.17-0.048c-0.061-0.015-0.129-0.021-0.205-0.021
			c-0.139,0-0.209,0.039-0.209,0.116c0,0.019,0.003,0.034,0.009,0.048c0.006,0.014,0.019,0.028,0.036,0.043
			c0.018,0.012,0.042,0.025,0.072,0.041c0.031,0.015,0.071,0.03,0.119,0.049c0.098,0.035,0.18,0.072,0.243,0.107
			c0.063,0.034,0.114,0.072,0.15,0.114c0.038,0.04,0.063,0.085,0.077,0.135c0.017,0.05,0.024,0.108,0.024,0.175
			c0,0.155-0.059,0.273-0.177,0.354c-0.116,0.08-0.281,0.119-0.495,0.119c-0.14,0-0.257-0.012-0.351-0.035
			c-0.092-0.024-0.156-0.044-0.192-0.061l0.075-0.363c0.076,0.031,0.154,0.055,0.234,0.072
			C41.01,17.907,41.088,17.914,41.166,17.914"/>
	</g>
</g>
</svg>
