<?xml version="1.0" encoding="utf-8"?>
<!-- Generator: Adobe Illustrator 14.0.0, SVG Export Plug-In . SVG Version: 6.00 Build 43363)  -->
<!DOCTYPE svg PUBLIC "-//W3C//DTD SVG 1.1//EN" "http://www.w3.org/Graphics/SVG/1.1/DTD/svg11.dtd">
<svg version="1.1"
	 id="svg2408" xmlns:dc="http://purl.org/dc/elements/1.1/" xmlns:svg="http://www.w3.org/2000/svg" xmlns:cc="http://creativecommons.org/ns#" xmlns:rdf="http://www.w3.org/1999/02/22-rdf-syntax-ns#" xmlns:inkscape="http://www.inkscape.org/namespaces/inkscape"
	 xmlns="http://www.w3.org/2000/svg" xmlns:xlink="http://www.w3.org/1999/xlink" x="0px" y="0px" width="96px" height="96px"
	 viewBox="0 0 96 96" enable-background="new 0 0 96 96" xml:space="preserve">
<g>
	<g>
		<linearGradient id="SVGID_1_" gradientUnits="userSpaceOnUse" x1="2" y1="48" x2="94" y2="48">
			<stop  offset="0" style="stop-color:#000000"/>
			<stop  offset="1" style="stop-color:#000000;stop-opacity:0.5882"/>
		</linearGradient>
		<path opacity="0.08" fill="url(#SVGID_1_)" enable-background="new    " d="M10.5,93C5.813,93,2,89.187,2,84.5v-73
			C2,6.813,5.813,3,10.5,3h75c4.145,0,7.786,3.007,8.5,7v74.5c0,4.687-3.813,8.5-8.5,8.5H10.5z"/>
		<linearGradient id="SVGID_2_" gradientUnits="userSpaceOnUse" x1="3" y1="48" x2="93" y2="48">
			<stop  offset="0" style="stop-color:#000000"/>
			<stop  offset="1" style="stop-color:#000000;stop-opacity:0.5882"/>
		</linearGradient>
		<path opacity="0.1" fill="url(#SVGID_2_)" enable-background="new    " d="M10.5,92C6.364,92,3,88.636,3,84.5v-73
			C3,7.364,6.364,4,10.5,4h75c3.968,0,7.242,3.097,7.5,7v73.5c0,4.136-3.364,7.5-7.5,7.5H10.5z"/>
		<linearGradient id="SVGID_3_" gradientUnits="userSpaceOnUse" x1="4" y1="48" x2="92" y2="48">
			<stop  offset="0" style="stop-color:#000000"/>
			<stop  offset="1" style="stop-color:#000000;stop-opacity:0.5882"/>
		</linearGradient>
		<path opacity="0.2" fill="url(#SVGID_3_)" enable-background="new    " d="M10.5,91C6.916,91,4,88.084,4,84.5v-73
			C4,7.916,6.916,5,10.5,5h75c3.584,0,6.5,2.916,6.5,6.5v73c0,3.584-2.916,6.5-6.5,6.5H10.5z"/>
		<linearGradient id="SVGID_4_" gradientUnits="userSpaceOnUse" x1="47.9995" y1="8" x2="47.9995" y2="90.4195">
			<stop  offset="0" style="stop-color:#000000"/>
			<stop  offset="1" style="stop-color:#000000;stop-opacity:0.5882"/>
		</linearGradient>
		<path opacity="0.45" fill="url(#SVGID_4_)" enable-background="new    " d="M90,12.5c0-2.484-2.016-4.5-4.5-4.5h-75
			C8.015,8,6,10.016,6,12.5v18V63v22.5c0,2.487,2.015,4.5,4.5,4.5h75c2.484,0,4.5-2.013,4.5-4.5V12.5z"/>
	</g>
	<linearGradient id="SVGID_5_" gradientUnits="userSpaceOnUse" x1="47.9995" y1="5" x2="47.9995" y2="89.4297">
		<stop  offset="0" style="stop-color:#86A0B9"/>
		<stop  offset="1" style="stop-color:#86A0B9"/>
	</linearGradient>
	<path fill="url(#SVGID_5_)" d="M90,9.5C90,7.016,87.984,5,85.5,5h-75C8.015,5,6,7.016,6,9.5v18V62v22.5c0,2.487,2.015,4.5,4.5,4.5
		h75c2.484,0,4.5-2.013,4.5-4.5V9.5z"/>
	<g>
		<path fill="#253E58" d="M90,84.5c0,2.487-2.016,4.5-4.5,4.5h-75C8.015,89,6,86.987,6,84.5v-57c0-2.484,2.015-4.5,4.5-4.5h75
			c2.484,0,4.5,2.016,4.5,4.5V84.5z"/>
	</g>
	<linearGradient id="SVGID_6_" gradientUnits="userSpaceOnUse" x1="47.9995" y1="5" x2="47.9995" y2="84.9067">
		<stop  offset="0" style="stop-color:#86A0B9"/>
		<stop  offset="1" style="stop-color:#86A0B9"/>
	</linearGradient>
	<path fill="url(#SVGID_6_)" d="M90,80c0,2.487-2.016,4.5-4.5,4.5h-75C8.015,84.5,6,82.487,6,80V9.5C6,7.016,8.015,5,10.5,5h75
		C87.984,5,90,7.016,90,9.5V80z"/>
	<linearGradient id="SVGID_7_" gradientUnits="userSpaceOnUse" x1="6" y1="44.75" x2="90.4292" y2="44.75">
		<stop  offset="0" style="stop-color:#86A0B9"/>
		<stop  offset="0.0229" style="stop-color:#93ACC4"/>
		<stop  offset="0.0651" style="stop-color:#B5CBE1"/>
		<stop  offset="0.08" style="stop-color:#C3D8EC"/>
		<stop  offset="0.1055" style="stop-color:#B1C7DD"/>
		<stop  offset="0.1515" style="stop-color:#86A0B9"/>
		<stop  offset="0.85" style="stop-color:#86A0B9"/>
		<stop  offset="0.8749" style="stop-color:#98B1C8"/>
		<stop  offset="0.92" style="stop-color:#C3D8EC"/>
		<stop  offset="0.9349" style="stop-color:#B5CBE1"/>
		<stop  offset="0.9771" style="stop-color:#93ACC4"/>
		<stop  offset="1" style="stop-color:#86A0B9"/>
	</linearGradient>
	<path fill="url(#SVGID_7_)" d="M90,80c0,2.487-2.016,4.5-4.5,4.5h-75C8.015,84.5,6,82.487,6,80V9.5C6,7.016,8.015,5,10.5,5h75
		C87.984,5,90,7.016,90,9.5V80z"/>
	<g opacity="0.2">
		<radialGradient id="SVGID_8_" cx="48.3335" cy="53" r="260.4564" gradientUnits="userSpaceOnUse">
			<stop  offset="0" style="stop-color:#FFFFFF"/>
			<stop  offset="1" style="stop-color:#FFFFFF;stop-opacity:0"/>
		</radialGradient>
		<path fill="url(#SVGID_8_)" d="M88.463,27.129C88.277,25.65,87.028,24.5,85.5,24.5h-4.015L22.984,83h9.606L88.463,27.129z"/>
		<radialGradient id="SVGID_9_" cx="48.3335" cy="53" r="260.4567" gradientUnits="userSpaceOnUse">
			<stop  offset="0" style="stop-color:#FFFFFF"/>
			<stop  offset="1" style="stop-color:#FFFFFF;stop-opacity:0"/>
		</radialGradient>
		<polygon fill="url(#SVGID_9_)" points="25.738,24.5 7.5,42.738 7.5,52.344 35.344,24.5 		"/>
		<radialGradient id="SVGID_10_" cx="48.3335" cy="53" r="260.4561" gradientUnits="userSpaceOnUse">
			<stop  offset="0" style="stop-color:#FFFFFF"/>
			<stop  offset="1" style="stop-color:#FFFFFF;stop-opacity:0"/>
		</radialGradient>
		<polygon fill="url(#SVGID_10_)" points="44.321,24.5 7.5,61.32 7.5,70.926 53.926,24.5 		"/>
		<radialGradient id="SVGID_11_" cx="48.3335" cy="53" r="260.4565" gradientUnits="userSpaceOnUse">
			<stop  offset="0" style="stop-color:#FFFFFF"/>
			<stop  offset="1" style="stop-color:#FFFFFF;stop-opacity:0"/>
		</radialGradient>
		<path fill="url(#SVGID_11_)" d="M10.5,24.5c-1.655,0-3,1.345-3,3v6.262l9.262-9.262H10.5z"/>
		<radialGradient id="SVGID_12_" cx="48.3335" cy="53" r="260.4564" gradientUnits="userSpaceOnUse">
			<stop  offset="0" style="stop-color:#FFFFFF"/>
			<stop  offset="1" style="stop-color:#FFFFFF;stop-opacity:0"/>
		</radialGradient>
		<polygon fill="url(#SVGID_12_)" points="41.567,83 51.173,83 88.5,45.673 88.5,36.068 		"/>
		<radialGradient id="SVGID_13_" cx="48.3335" cy="53" r="260.4564" gradientUnits="userSpaceOnUse">
			<stop  offset="0" style="stop-color:#FFFFFF"/>
			<stop  offset="1" style="stop-color:#FFFFFF;stop-opacity:0"/>
		</radialGradient>
		<polygon fill="url(#SVGID_13_)" points="69.755,83 88.5,64.255 88.5,54.65 60.149,83 		"/>
		<radialGradient id="SVGID_14_" cx="48.3335" cy="53" r="260.4564" gradientUnits="userSpaceOnUse">
			<stop  offset="0" style="stop-color:#FFFFFF"/>
			<stop  offset="1" style="stop-color:#FFFFFF;stop-opacity:0"/>
		</radialGradient>
		<path fill="url(#SVGID_14_)" d="M85.5,83c1.655,0,3-1.347,3-3v-6.769L78.731,83H85.5z"/>
		<radialGradient id="SVGID_15_" cx="48.3335" cy="53" r="260.4563" gradientUnits="userSpaceOnUse">
			<stop  offset="0" style="stop-color:#FFFFFF"/>
			<stop  offset="1" style="stop-color:#FFFFFF;stop-opacity:0"/>
		</radialGradient>
		<path fill="url(#SVGID_15_)" d="M72.509,24.5h-9.605L7.5,79.902V80c0,1.653,1.345,3,3,3h3.508L72.509,24.5z"/>
	</g>
	<path fill="#B3C6D9" d="M85.5,82.5h-75C8.015,82.5,6,80.487,6,78v2c0,2.487,2.015,4.5,4.5,4.5h75c2.484,0,4.5-2.013,4.5-4.5v-2
		C90,80.487,87.984,82.5,85.5,82.5z"/>
	<g>
		<defs>
			<path id="SVGID_16_" d="M85.5,5h-75C8.015,5,6,7.016,6,9.5V78c0,2.487,2.015,4.5,4.5,4.5h75c2.484,0,4.5-2.013,4.5-4.5V9.5
				C90,7.016,87.984,5,85.5,5z"/>
		</defs>
		<clipPath id="SVGID_17_">
			<use xlink:href="#SVGID_16_"  overflow="visible"/>
		</clipPath>
		<linearGradient id="SVGID_18_" gradientUnits="userSpaceOnUse" x1="48.0005" y1="98" x2="48.0005" y2="60.5195">
			<stop  offset="0" style="stop-color:#456B92"/>
			<stop  offset="1" style="stop-color:#456B92;stop-opacity:0"/>
		</linearGradient>
		<path opacity="0.7" clip-path="url(#SVGID_17_)" fill="url(#SVGID_18_)" d="M90,93.5c0,2.488-2.016,4.5-4.5,4.5h-75
			C8.015,98,6,95.988,6,93.5V65.02c0-2.484,2.015-4.5,4.5-4.5h75c2.484,0,4.5,2.016,4.5,4.5V93.5z"/>
	</g>
	
		<radialGradient id="SVGID_19_" cx="48" cy="32.7412" r="41.25" gradientTransform="matrix(1 0 0 0.2664 0 24.0176)" gradientUnits="userSpaceOnUse">
		<stop  offset="0" style="stop-color:#456B92"/>
		<stop  offset="1" style="stop-color:#456B92;stop-opacity:0"/>
	</radialGradient>
	<path fill="url(#SVGID_19_)" d="M90,42.982c0,2.487-2.016,4.5-4.5,4.5h-75c-2.485,0-4.5-2.014-4.5-4.5V22.5
		c0-2.484,2.015-4.5,4.5-4.5h75c2.484,0,4.5,2.016,4.5,4.5V42.982z"/>
	<path fill="#FFFFFF" d="M90,34.981c0,2.487-2.016,4.5-4.5,4.5h-75c-2.485,0-4.5-2.013-4.5-4.5V9.5C6,7.016,8.015,5,10.5,5h75
		C87.984,5,90,7.016,90,9.5V34.981z"/>
	<linearGradient id="SVGID_20_" gradientUnits="userSpaceOnUse" x1="48.0005" y1="37.981" x2="48.0005" y2="5">
		<stop  offset="0" style="stop-color:#CBDAE7"/>
		<stop  offset="1" style="stop-color:#AEC3D9"/>
	</linearGradient>
	<path fill="url(#SVGID_20_)" d="M90,33.481c0,2.487-2.016,4.5-4.5,4.5h-75c-2.485,0-4.5-2.013-4.5-4.5V9.5C6,7.016,8.015,5,10.5,5
		h75C87.984,5,90,7.016,90,9.5V33.481z"/>
</g>
<radialGradient id="SVGID_21_" cx="48" cy="20.7402" r="38.7574" gradientUnits="userSpaceOnUse">
	<stop  offset="0" style="stop-color:#FFFFFF"/>
	<stop  offset="1" style="stop-color:#FFFFFF;stop-opacity:0"/>
</radialGradient>
<path opacity="0.6" fill="url(#SVGID_21_)" d="M13.5,34.481c-2.206,0-4-1.794-4-4V11c0-2.206,1.794-4,4-4h69c2.206,0,4,1.794,4,4
	v19.481c0,2.206-1.794,4-4,4H13.5z"/>
<radialGradient id="SVGID_22_" cx="48.3335" cy="33.1084" r="34.0192" gradientUnits="userSpaceOnUse">
	<stop  offset="0" style="stop-color:#456B92"/>
	<stop  offset="1" style="stop-color:#24415E"/>
</radialGradient>
<path fill="url(#SVGID_22_)" d="M85.5,30.481c0,1.657-1.344,3-3,3h-69c-1.657,0-3-1.343-3-3V11c0-1.657,1.343-3,3-3h69
	c1.656,0,3,1.343,3,3V30.481z"/>
<linearGradient id="SVGID_23_" gradientUnits="userSpaceOnUse" x1="48" y1="39.665" x2="48" y2="25.3876">
	<stop  offset="0" style="stop-color:#000000"/>
	<stop  offset="1" style="stop-color:#000000;stop-opacity:0"/>
</linearGradient>
<path fill="url(#SVGID_23_)" d="M85.5,30.481c0,1.657-1.344,3-3,3h-69c-1.657,0-3-1.343-3-3V11c0-1.657,1.343-3,3-3h69
	c1.656,0,3,1.343,3,3V30.481z"/>
<g>
	<path fill="#CBDAE7" d="M37.051,77.213l-2.326-2.383l2.318-2.376l3.292-3.213v2.976l4.128-0.034l0.054,0.005
		c0.083,0.011,0.164,0.015,0.242,0.015c0.345,0,0.511-0.087,0.684-0.363c0.078-0.147,0.163-0.458-0.045-0.796L40.542,62.7l4.546-2.6
		l4.6,7.932c0.687,0.951,1.074,2.081,1.123,3.266l0.002,0.38c-0.054,1.031-0.32,1.965-0.794,2.822
		c-1.123,1.886-3.087,2.997-5.268,2.997l0,0c-0.18,0-0.361-0.008-0.541-0.023l-3.875,0.002v3.021L37.051,77.213z M24.865,77.497
		c-2.219,0-4.183-1.116-5.251-2.986c-0.479-0.863-0.747-1.798-0.799-2.785l-0.001-0.433c0.051-1.18,0.448-2.323,1.122-3.255
		l1.917-3.392l-2.613-1.493l4.501-1.205l3.211-0.877l0.874,3.261l1.21,4.438l-2.599-1.487l-2.023,3.523
		c-0.373,0.564-0.359,0.785-0.198,1.089c0.127,0.205,0.346,0.334,0.619,0.334l0.119-0.004h9.59v5.251h-9.207
		C25.231,77.489,25.048,77.497,24.865,77.497L24.865,77.497z M24.792,59.609l4.577-7.973c0.949-2.06,3.093-3.434,5.424-3.434
		c2.356,0,4.516,1.375,5.502,3.504l1.933,3.351l2.614-1.567l-2.087,7.79L39.5,60.408l-4.383-1.195l2.537-1.521l-2.089-3.578
		l-0.021-0.047c-0.204-0.466-0.421-0.582-0.742-0.609c-0.294,0.034-0.518,0.189-0.664,0.461l-4.81,8.347L24.792,59.609z"/>
	<path fill="#305173" d="M37.051,75.411l-2.326-2.384l2.318-2.375l3.292-3.214v2.978l4.128-0.035l0.054,0.005
		c0.083,0.01,0.164,0.015,0.242,0.015c0.345,0,0.511-0.089,0.684-0.364c0.078-0.148,0.163-0.458-0.045-0.795l-4.855-8.344l4.546-2.6
		l4.6,7.933c0.687,0.95,1.074,2.079,1.123,3.268l0.002,0.376c-0.054,1.032-0.32,1.966-0.794,2.823
		c-1.123,1.887-3.087,2.998-5.268,2.998l0,0c-0.18,0-0.361-0.009-0.541-0.024l-3.875,0.003v3.021L37.051,75.411z M24.865,75.695
		c-2.219,0-4.183-1.118-5.251-2.987c-0.479-0.863-0.747-1.796-0.799-2.786l-0.001-0.429c0.051-1.184,0.448-2.324,1.122-3.259
		l1.917-3.391l-2.613-1.491l4.501-1.206l3.211-0.877l0.874,3.259l1.21,4.439l-2.599-1.486l-2.023,3.523
		c-0.373,0.563-0.359,0.785-0.198,1.088c0.127,0.204,0.346,0.334,0.619,0.334l0.119-0.003h9.59v5.252h-9.207
		C25.231,75.687,25.048,75.695,24.865,75.695L24.865,75.695z M24.792,57.809l4.577-7.973c0.949-2.06,3.093-3.436,5.424-3.436
		c2.356,0,4.516,1.376,5.502,3.505l1.933,3.35l2.614-1.568l-2.087,7.792L39.5,58.606l-4.383-1.195l2.537-1.521l-2.089-3.579
		l-0.021-0.047c-0.204-0.465-0.421-0.582-0.742-0.608c-0.294,0.032-0.518,0.188-0.664,0.46l-4.81,8.349L24.792,57.809z"/>
	<path fill="#4A749E" d="M48.932,67.625l-4.173-7.198l-2.981,1.705l4.387,7.537c0.341,0.554,0.341,1.194,0.042,1.747
		c-0.426,0.68-1.021,0.852-1.79,0.767l-4.983,0.042v-1.746l-1.746,1.704l-1.704,1.746l1.704,1.747l1.746,1.744v-1.744h4.856
		c1.917,0.168,3.875-0.726,4.94-2.514c0.426-0.767,0.639-1.575,0.683-2.386v-0.341C49.869,69.414,49.529,68.434,48.932,67.625z
		 M38.881,57.104l-1.49,0.895l2.342,0.638l2.385,0.641l1.278-4.771l-1.491,0.894l-2.428-4.216c-0.809-1.745-2.599-2.981-4.685-2.981
		c-2.044,0-3.834,1.236-4.643,2.981l-4.132,7.199l2.981,1.744l4.345-7.537c0.298-0.554,0.81-0.895,1.449-0.938
		c0.809,0.043,1.277,0.469,1.576,1.15L38.881,57.104z M23.42,71.416c-0.382-0.725-0.213-1.322,0.213-1.959l2.471-4.303l1.49,0.853
		l-0.639-2.344l-0.639-2.385l-2.343,0.639l-2.385,0.64l1.492,0.852l-2.385,4.217c-0.597,0.809-0.937,1.789-0.981,2.768v0.384
		c0.044,0.811,0.256,1.619,0.683,2.386c1.021,1.788,2.981,2.682,4.94,2.514h8.306v-3.451h-8.688
		C24.314,72.268,23.761,71.969,23.42,71.416z"/>
	<radialGradient id="SVGID_24_" cx="34.8135" cy="62.8115" r="19.5265" gradientUnits="userSpaceOnUse">
		<stop  offset="0.2545" style="stop-color:#000000;stop-opacity:0"/>
		<stop  offset="1" style="stop-color:#000000"/>
	</radialGradient>
	<path opacity="0.1" fill="url(#SVGID_24_)" d="M48.932,67.625l-4.173-7.198l-2.981,1.705l4.387,7.537
		c0.341,0.554,0.341,1.194,0.042,1.747c-0.426,0.68-1.021,0.852-1.79,0.767l-4.983,0.042v-1.746l-1.746,1.704l-1.704,1.746
		l1.704,1.747l1.746,1.744v-1.744h4.856c1.917,0.168,3.875-0.726,4.94-2.514c0.426-0.767,0.639-1.575,0.683-2.386v-0.341
		C49.869,69.414,49.529,68.434,48.932,67.625z M38.881,57.104l-1.49,0.895l2.342,0.638l2.385,0.641l1.278-4.771l-1.491,0.894
		l-2.428-4.216c-0.809-1.745-2.599-2.981-4.685-2.981c-2.044,0-3.834,1.236-4.643,2.981l-4.132,7.199l2.981,1.744l4.345-7.537
		c0.298-0.554,0.81-0.895,1.449-0.938c0.809,0.043,1.277,0.469,1.576,1.15L38.881,57.104z M23.42,71.416
		c-0.382-0.725-0.213-1.322,0.213-1.959l2.471-4.303l1.49,0.853l-0.639-2.344l-0.639-2.385l-2.343,0.639l-2.385,0.64l1.492,0.852
		l-2.385,4.217c-0.597,0.809-0.937,1.789-0.981,2.768v0.384c0.044,0.811,0.256,1.619,0.683,2.386
		c1.021,1.788,2.981,2.682,4.94,2.514h8.306v-3.451h-8.688C24.314,72.268,23.761,71.969,23.42,71.416z"/>
</g>
</svg>
