<?xml version="1.0" encoding="utf-8"?>
<!-- Generator: Adobe Illustrator 17.0.1, SVG Export Plug-In . SVG Version: 6.00 Build 0)  -->
<!DOCTYPE svg PUBLIC "-//W3C//DTD SVG 1.1//EN" "http://www.w3.org/Graphics/SVG/1.1/DTD/svg11.dtd" [
	<!ENTITY ns_flows "http://ns.adobe.com/Flows/1.0/">
	<!ENTITY ns_extend "http://ns.adobe.com/Extensibility/1.0/">
	<!ENTITY ns_ai "http://ns.adobe.com/AdobeIllustrator/10.0/">
	<!ENTITY ns_graphs "http://ns.adobe.com/Graphs/1.0/">
]>
<svg version="1.1" id="图层_1" xmlns:x="&ns_extend;" xmlns:i="&ns_ai;" xmlns:graph="&ns_graphs;"
	 xmlns="http://www.w3.org/2000/svg" xmlns:xlink="http://www.w3.org/1999/xlink" xmlns:a="http://ns.adobe.com/AdobeSVGViewerExtensions/3.0/"
	 x="0px" y="0px" width="21px" height="21px" viewBox="0 0 21 21" enable-background="new 0 0 21 21" xml:space="preserve">
<g>
	<path fill-rule="evenodd" clip-rule="evenodd" fill="#0D4E84" d="M9.836,1.621c0.365-0.74,0.963-0.74,1.328,0l1.994,4.041
		c0.365,0.74,1.332,1.442,2.148,1.561l4.459,0.648c0.816,0.119,1.001,0.687,0.41,1.263l-3.227,3.145
		c-0.591,0.576-0.96,1.712-0.821,2.525l0.762,4.441c0.139,0.813-0.344,1.164-1.074,0.78l-3.988-2.097
		c-0.73-0.384-1.925-0.384-2.655,0l-3.988,2.097c-0.73,0.384-1.214,0.033-1.074-0.78l0.762-4.441c0.139-0.813-0.23-1.95-0.821-2.525
		L0.824,9.133c-0.591-0.576-0.406-1.144,0.41-1.263l4.459-0.648C6.51,7.104,7.477,6.402,7.842,5.662L9.836,1.621z"/>
</g>
</svg>
