<?xml version="1.0" encoding="utf-8"?>
<!-- Generator: Adobe Illustrator 17.0.1, SVG Export Plug-In . SVG Version: 6.00 Build 0)  -->
<!DOCTYPE svg PUBLIC "-//W3C//DTD SVG 1.1//EN" "http://www.w3.org/Graphics/SVG/1.1/DTD/svg11.dtd" [
	<!ENTITY ns_flows "http://ns.adobe.com/Flows/1.0/">
	<!ENTITY ns_extend "http://ns.adobe.com/Extensibility/1.0/">
	<!ENTITY ns_ai "http://ns.adobe.com/AdobeIllustrator/10.0/">
	<!ENTITY ns_graphs "http://ns.adobe.com/Graphs/1.0/">
]>
<svg version="1.1" id="图层_1" xmlns:x="&ns_extend;" xmlns:i="&ns_ai;" xmlns:graph="&ns_graphs;"
	 xmlns="http://www.w3.org/2000/svg" xmlns:xlink="http://www.w3.org/1999/xlink" xmlns:a="http://ns.adobe.com/AdobeSVGViewerExtensions/3.0/"
	 x="0px" y="0px" width="21px" height="21px" viewBox="0 0 21 21" enable-background="new 0 0 21 21" xml:space="preserve">
<g>
	<g>
		<path fill-rule="evenodd" clip-rule="evenodd" fill="#0D4E84" d="M16.502,1.966c0,0.55-0.45,1-1,1h-10c-0.55,0-1-0.45-1-1V1.007
			c0-0.55,0.45-1,1-1h10c0.55,0,1,0.45,1,1V1.966z"/>
	</g>
	<g>
		<path fill-rule="evenodd" clip-rule="evenodd" fill="#0D4E84" d="M16.502,20.007c0,0.55-0.356,0.725-0.792,0.39l-4.415-3.402
			c-0.436-0.336-1.149-0.336-1.584,0l-4.416,3.403c-0.436,0.336-0.792,0.16-0.792-0.39V5.24c0-0.55,0.45-1,1-1h10c0.55,0,1,0.45,1,1
			V20.007z M14.491,8.26c0-0.55-0.45-1-1-1H7.513c-0.55,0-1,0.45-1,1v8.336c0,0.55,0.366,0.738,0.814,0.419l2.362-1.687
			c0.448-0.32,1.18-0.32,1.627,0l2.361,1.687c0.448,0.32,0.814,0.131,0.814-0.419V8.26z"/>
	</g>
</g>
</svg>
