<svg id="图层_1" data-name="图层 1" xmlns="http://www.w3.org/2000/svg" viewBox="0 0 16 16"><defs><style>.cls-1{fill:#262626;}</style></defs><g id="a"><g id="图层_3" data-name="图层 3"><path class="cls-1" d="M12,13.7a.5.5,0,0,1-.39-.18.52.52,0,0,1,.07-.71A6.16,6.16,0,0,0,14,8,6,6,0,0,0,2,8a6.08,6.08,0,0,0,2,4.53.51.51,0,0,1,0,.71.5.5,0,0,1-.71,0A7.09,7.09,0,0,1,1,8,7,7,0,0,1,15,8a7.2,7.2,0,0,1-2.68,5.59A.56.56,0,0,1,12,13.7Z"/><path class="cls-1" d="M4.3,15h0a.62.62,0,0,1-.7-.2l-2.3-5,.5-.2a2.52,2.52,0,0,1,3.3,1.2l.4.9A2.62,2.62,0,0,1,4.3,15Z"/><path class="cls-1" d="M11.8,15h0a.62.62,0,0,0,.7-.2l2.3-5-.5-.2A2.52,2.52,0,0,0,11,10.8l-.4.9A2.44,2.44,0,0,0,11.8,15Z"/></g></g></svg>