<svg id="音响" xmlns="http://www.w3.org/2000/svg" viewBox="0 0 96 96"><rect x="15" y="4" width="66" height="88" rx="9" fill="#b1c9c2"/><circle cx="47" cy="59" r="21.5" fill="#fff"/><path d="M47,39A20,20,0,1,1,27,59,20,20,0,0,1,47,39m0-3A23,23,0,1,0,70,59,23,23,0,0,0,47,36Z" fill="#514f4f"/><circle cx="47" cy="59" r="8" fill="#514f4f"/><circle cx="48" cy="21.08" r="9" fill="#fff"/><path d="M48,13.08a8,8,0,1,1-8,8,8,8,0,0,1,8-8m0-2a10,10,0,1,0,10,10,10,10,0,0,0-10-10Z" fill="#514f4f"/><circle cx="48" cy="21.08" r="3" fill="#514f4f"/></svg>