<svg id="图层_1" data-name="图层 1" xmlns="http://www.w3.org/2000/svg" viewBox="0 0 16 16"><defs><style>.cls-1{fill:#262626;}</style></defs><g id="a"><g id="图层_5" data-name="图层 5"><path class="cls-1" d="M7.55,13A5.47,5.47,0,0,1,2,7.5v-1a.5.5,0,0,1,1,0v1A4.48,4.48,0,0,0,7.55,12,4.54,4.54,0,0,0,12,7.5v-1a.5.5,0,0,1,1,0v1A5.55,5.55,0,0,1,7.55,13Z"/><path class="cls-1" d="M9.5,15h-4a.5.5,0,0,1,0-1h4a.5.5,0,0,1,0,1Z"/><path class="cls-1" d="M7.5,11A3.47,3.47,0,0,1,4,7.5v-3a3.5,3.5,0,0,1,7,0v3A3.47,3.47,0,0,1,7.5,11Zm0-9A2.44,2.44,0,0,0,5,4.5v3A2.44,2.44,0,0,0,7.5,10,2.44,2.44,0,0,0,10,7.5v-3A2.44,2.44,0,0,0,7.5,2Z"/><rect class="cls-1" x="7" y="12.5" width="1" height="2"/><path class="cls-1" d="M8.5,8h-2a.5.5,0,0,1,0-1h2a.5.5,0,0,1,0,1Z"/><path class="cls-1" d="M8.5,6h-2a.5.5,0,0,1,0-1h2a.5.5,0,0,1,0,1Z"/></g></g></svg>