<svg id="图层_1" data-name="图层 1" xmlns="http://www.w3.org/2000/svg" viewBox="0 0 16 16"><defs><style>.cls-1{fill:#262626;}</style></defs><g id="a"><g id="图层_2" data-name="图层 2"><path class="cls-1" d="M13,2a.94.94,0,0,1,1,1V13a.94.94,0,0,1-1,1H3a.94.94,0,0,1-1-1V3A.94.94,0,0,1,3,2H13m0-1H3A2,2,0,0,0,1,3V13a2,2,0,0,0,2,2H13a2,2,0,0,0,2-2V3A2,2,0,0,0,13,1Z"/><path class="cls-1" d="M7,11.5H6V4.8A1.47,1.47,0,0,1,7.2,3.31l3-.6A1.55,1.55,0,0,1,11.38,3a1.41,1.41,0,0,1,.61,1V10.5H11V4a.49.49,0,0,0-.19-.22.56.56,0,0,0-.41-.09l-3,.6A.48.48,0,0,0,7,4.8Z"/><circle class="cls-1" cx="5.5" cy="11.5" r="1.5"/><circle class="cls-1" cx="10.5" cy="10.5" r="1.5"/><rect class="cls-1" x="6.45" y="6" width="5.1" height="1" transform="matrix(0.98, -0.2, 0.2, 0.98, -1.1, 1.89)"/></g></g></svg>