<svg id="图层_1" data-name="图层 1" xmlns="http://www.w3.org/2000/svg" viewBox="0 0 16 16"><defs><style>.cls-1{fill:#262626;}</style></defs><g id="a"><g id="图层_7" data-name="图层 7"><path class="cls-1" d="M7,2.85v10.3l-1.92-2.4A2,2,0,0,0,3.52,10H2V6H3.52a2,2,0,0,0,1.56-.75L7,2.85m0-1a1,1,0,0,0-.77.38L4.3,4.62A1,1,0,0,1,3.52,5H2A1,1,0,0,0,1,6v4a1,1,0,0,0,1,1H3.52a1,1,0,0,1,.78.38l1.92,2.39a1,1,0,0,0,.77.38,1,1,0,0,0,1-1V2.85a1,1,0,0,0-1-1Z"/><g id="路径_112" data-name="路径 112"><path class="cls-1" d="M13,9.75l1.08,1.06L13,11.88V9.75m-1-2.4v6.93l3.5-3.47Z"/><path class="cls-1" d="M13,5.13l1.08,1.06L13,7.26V5.13m-1-2.4V9.66l3.5-3.47Z"/><rect class="cls-1" x="10.25" y="4.28" width="1" height="4.95" transform="translate(-1.62 9.58) rotate(-45)"/><rect class="cls-1" x="8.28" y="9.75" width="4.94" height="1" transform="translate(-4.1 10.58) rotate(-44.9)"/></g></g></g></svg>