<svg id="图层_1" data-name="图层 1" xmlns="http://www.w3.org/2000/svg" viewBox="0 0 16 16"><defs><style>.cls-1{fill:#262626;}</style></defs><g id="a"><g id="图层_4" data-name="图层 4"><g id="图层_2" data-name="图层 2"><path class="cls-1" d="M12.1,12.2a.47.47,0,0,1-.35-.15.48.48,0,0,1,0-.7A5.74,5.74,0,0,0,13.4,7.4,5.34,5.34,0,0,0,8,2,5.4,5.4,0,0,0,2.6,7.4a5,5,0,0,0,1.27,3.37,1.41,1.41,0,0,1,.19.23c.09.11.19.24.29.35a.49.49,0,0,1-.7.7,3.86,3.86,0,0,1-.38-.44l-.12-.16a6,6,0,0,1-1.55-4A6.41,6.41,0,0,1,8,1a6.33,6.33,0,0,1,6.4,6.4,6.73,6.73,0,0,1-2,4.65A.47.47,0,0,1,12.1,12.2Z"/><path class="cls-1" d="M4.1,12.1H3.9a1,1,0,0,1-.5-.4L1.9,8.3l.4-.2a1.79,1.79,0,0,1,2.4.8h0l.3.8a1.74,1.74,0,0,1-.4,2.2C4.4,12,4.2,12,4.1,12.1Z"/><path class="cls-1" d="M11.9,12.2h0c.3.1.4-.1.6-.3l1.7-3.6-.4-.2a1.92,1.92,0,0,0-2.5.9l-.3.7a1.89,1.89,0,0,0,.9,2.5Z"/><path class="cls-1" d="M8.7,15H7.6a.5.5,0,0,1,0-1H8.7a2.4,2.4,0,0,0,2-1.17l2.48-4.47a.5.5,0,0,1,.68-.2.51.51,0,0,1,.2.68l-2.5,4.5A3.42,3.42,0,0,1,8.7,15Z"/><ellipse class="cls-1" cx="7.5" cy="14" rx="1.5" ry="1"/></g></g></g></svg>