<svg id="图层_1" data-name="图层 1" xmlns="http://www.w3.org/2000/svg" viewBox="0 0 16 16"><defs><style>.cls-1{fill:#262626;}</style></defs><g id="c"><g id="图层_14" data-name="图层 14"><path class="cls-1" d="M11,6a1,1,0,0,1,1,1v5a1,1,0,0,1-1,1H3a1,1,0,0,1-1-1V7A1,1,0,0,1,3,6h8m0-1H3A2,2,0,0,0,1,7v5a2,2,0,0,0,2,2h8a2,2,0,0,0,2-2V7A2,2,0,0,0,11,5Z"/><polygon class="cls-1" points="15 7 12 8 12 11 15 12 15 7"/><path class="cls-1" d="M9,3A1,1,0,1,1,8,4,1,1,0,0,1,9,3M9,2a2,2,0,1,0,2,2A2,2,0,0,0,9,2Z"/><path class="cls-1" d="M4.5,2A1.5,1.5,0,1,1,3,3.5,1.5,1.5,0,0,1,4.5,2m0-1A2.5,2.5,0,1,0,7,3.5,2.5,2.5,0,0,0,4.5,1Z"/></g></g></svg>