<svg id="图层_1" data-name="图层 1" xmlns="http://www.w3.org/2000/svg" viewBox="0 0 16 16"><defs><style>.cls-1{fill:#262626;}</style></defs><g id="c"><g id="图层_10" data-name="图层 10"><g id="_16" data-name=" 16"><path class="cls-1" d="M13,4a.94.94,0,0,1,1,1v8a.94.94,0,0,1-1,1H3a.94.94,0,0,1-1-1V5A.94.94,0,0,1,3,4H13m0-1H3A2,2,0,0,0,1,5v8a2,2,0,0,0,2,2H13a2,2,0,0,0,2-2V5a2,2,0,0,0-2-2Z"/><path class="cls-1" d="M8,6a3,3,0,0,1,3,3,3,3,0,0,1-3,3A3,3,0,0,1,5,9,3,3,0,0,1,8,6M8,5a4,4,0,1,0,4,4A4,4,0,0,0,8,5Z"/><circle class="cls-1" cx="8" cy="9" r="1"/><circle class="cls-1" cx="12.5" cy="5.5" r="0.5"/></g><path class="cls-1" d="M5,2H7A.94.94,0,0,1,8,3H8A.94.94,0,0,1,7,4H5A.94.94,0,0,1,4,3H4A.94.94,0,0,1,5,2Z"/></g></g></svg>