<svg id="打印机" xmlns="http://www.w3.org/2000/svg" viewBox="0 0 96 96"><defs><style>.cls-1{fill:#e8e4d9;}.cls-2{fill:#575b66;}.cls-3{fill:#417feb;}.cls-4{fill:#ffd357;}.cls-5{fill:#1ee2a6;}.cls-6{fill:#123a89;}</style></defs><title>96</title><g id="_96" data-name="96"><rect class="cls-1" x="21" y="6" width="54" height="84" rx="9"/><rect class="cls-2" x="33" y="67" width="30" height="3"/><rect class="cls-2" x="33" y="75" width="22" height="3"/><path class="cls-3" d="M80.74,15H75v9.74H21V15H15.26A9.31,9.31,0,0,0,6,24.35v33.3A9.31,9.31,0,0,0,15.26,67H21V57.26H75V67h5.74A9.31,9.31,0,0,0,90,57.65V24.35A9.31,9.31,0,0,0,80.74,15Z"/><circle class="cls-4" cx="55" cy="39" r="5"/><circle class="cls-5" cx="71" cy="39" r="5"/><path class="cls-6" d="M24,53H72a3,3,0,0,1,3,3v2a0,0,0,0,1,0,0H21a0,0,0,0,1,0,0V56A3,3,0,0,1,24,53Z"/><path class="cls-6" d="M21,24H75v2a3,3,0,0,1-3,3H24a3,3,0,0,1-3-3Z"/></g></svg>