<svg id="磁盘_光驱" xmlns="http://www.w3.org/2000/svg" xmlns:xlink="http://www.w3.org/1999/xlink" viewBox="0 0 96 96"><defs><linearGradient id="未命名的渐变_64" x1="102.75" y1="48" x2="-8.01" y2="48" gradientUnits="userSpaceOnUse"><stop offset="0" stop-color="#adb1b2"/><stop offset="0.9" stop-color="#cdd3d3" stop-opacity="0"/></linearGradient><linearGradient id="未命名的渐变_130" x1="683.65" y1="1354.98" x2="683.65" y2="1303.39" gradientTransform="translate(-1362.62 -424.79) rotate(-45)" gradientUnits="userSpaceOnUse"><stop offset="0" stop-color="#fa55c1"/><stop offset="1" stop-color="#6ef5f6"/></linearGradient></defs><g id="_96" data-name="96"><path d="M85.8,79,82,12.74A9.26,9.26,0,0,0,72.79,4H23.21A9.26,9.26,0,0,0,14,12.74L10.2,79A12.34,12.34,0,0,0,22.52,92h51A12.34,12.34,0,0,0,85.8,79Z" fill="url(#未命名的渐变_64)"/><path d="M85.8,79,82,12.74A9.26,9.26,0,0,0,72.79,4H23.21A9.26,9.26,0,0,0,14,12.74L10.2,79A12.34,12.34,0,0,0,22.52,92h51A12.34,12.34,0,0,0,85.8,79Z" fill="#d3d1cd"/><rect x="14" y="69" width="68" height="18" rx="9" fill="#605e5c"/><rect x="19" y="75" width="38" height="6" rx="3" fill="#141312"/><rect x="70" y="75" width="6" height="6" rx="2.96" fill="#43ef50"/><rect x="61" y="75" width="6" height="6" rx="2.96" fill="#43ef50"/><path d="M61,59.5a27.5,27.5,0,1,1,19.45-8A27.35,27.35,0,0,1,61,59.5Z" fill="url(#未命名的渐变_130)"/><path d="M61,5A27,27,0,0,1,80.09,51.09,27,27,0,1,1,41.91,12.91,26.82,26.82,0,0,1,61,5m0-1a28,28,0,1,0,19.8,8.2A27.9,27.9,0,0,0,61,4Z" fill="#fff"/><g opacity="0.8"><path d="M61,24.22a7.78,7.78,0,1,1-5.5,2.28A7.75,7.75,0,0,1,61,24.22m0-2.91a10.69,10.69,0,1,0,7.56,3.13A10.61,10.61,0,0,0,61,21.31Z" fill="#fff"/></g><g opacity="0.2"><path d="M57.57,24.63l-9-17.79A28.25,28.25,0,0,0,35.91,19.66L53.62,28.6a8.28,8.28,0,0,1,4-4Z" fill="#fff"/></g><g opacity="0.2"><path d="M68.2,35.76a7.74,7.74,0,0,1-1.46,2,8.1,8.1,0,0,1-2,1.48l8.94,17.71A28.32,28.32,0,0,0,86,44.74Z" fill="#fff"/></g><circle cx="61" cy="32" r="5.83" fill="#fff" opacity="0.9"/></g></svg>