<svg id="图层_1" data-name="图层 1" xmlns="http://www.w3.org/2000/svg" viewBox="0 0 16 16"><defs><style>.cls-1{fill:#262626;}</style></defs><g id="d"><path class="cls-1" d="M13,13H11.5V12H13a1,1,0,0,0,0-2H3a1,1,0,0,0,0,2H4.5v1H3A2,2,0,0,1,3,9H13a2,2,0,0,1,0,4Z"/><path class="cls-1" d="M8,15a5,5,0,0,1-5-5H4a4,4,0,0,0,8,0h1A5,5,0,0,1,8,15Z"/><path class="cls-1" d="M8,12a2,2,0,0,1-2-2H7a1,1,0,0,0,2,0h1A2,2,0,0,1,8,12Z"/><path class="cls-1" d="M14.41,11a.51.51,0,0,1-.48-.35l-2-6.57A1.51,1.51,0,0,0,10.49,3h-5A1.5,1.5,0,0,0,4.08,4.07l-2,6.58a.5.5,0,0,1-1-.3l2-6.57A2.48,2.48,0,0,1,5.48,2h5a2.51,2.51,0,0,1,2.4,1.79l2,6.56a.51.51,0,0,1-.33.63Z"/></g></svg>