<svg id="蓝磁盘usb_复制" xmlns="http://www.w3.org/2000/svg" viewBox="0 0 96 96"><g id="_96" data-name="96"><path d="M85.8,78.24,82,13.54A9.17,9.17,0,0,0,72.79,5H23.21A9.17,9.17,0,0,0,14,13.54L10.2,78.24A12.19,12.19,0,0,0,22.52,91h51A12.19,12.19,0,0,0,85.8,78.24Z" fill="#d3d1cd"/><rect x="14" y="69" width="68" height="18" rx="9" fill="#605e5c"/><rect x="19" y="75" width="38" height="6" rx="2.96" fill="#141312"/><rect x="71" y="75" width="6" height="6" rx="3" fill="#43ef50"/><rect x="61" y="75" width="6" height="6" rx="3" fill="#43ef50"/><circle cx="47" cy="53" r="3" fill="#838484"/><rect x="46" y="21.36" width="2" height="30" fill="#838484"/><polygon points="47 17.41 43 22.41 51 22.41 47 17.41" fill="#838484"/><path d="M53,27.64v7.27a4.73,4.73,0,0,1-1.78,3.44l-4.4,3.1" fill="none" stroke="#838484" stroke-miterlimit="10" stroke-width="2"/><path d="M41,33.09v7.27a4.73,4.73,0,0,0,1.78,3.44l4.4,3.11" fill="none" stroke="#838484" stroke-miterlimit="10" stroke-width="2"/><rect x="51" y="26" width="4" height="4" fill="#838484"/><rect x="39" y="30" width="4" height="4" rx="2" fill="#838484"/></g></svg>