<svg id="磁盘-灰_复制" xmlns="http://www.w3.org/2000/svg" viewBox="0 0 96 96"><path d="M85.8,78.24,82,13.54A9.17,9.17,0,0,0,72.79,5H23.21A9.17,9.17,0,0,0,14,13.54L10.2,78.24A12.19,12.19,0,0,0,22.52,91h51A12.19,12.19,0,0,0,85.8,78.24Z" fill="#d3d1cd"/><rect x="14" y="69" width="68" height="18" rx="9" fill="#605e5c"/><rect x="19" y="75" width="38" height="6" rx="2.96" fill="#141312"/><rect x="71" y="75" width="6" height="6" rx="3" fill="#43ef50"/><rect x="61" y="75" width="6" height="6" rx="3" fill="#43ef50"/><circle cx="48" cy="36" r="8" fill="#838484"/><rect x="40" y="47.5" width="16" height="3" fill="#838484"/><rect x="40" y="54.5" width="16" height="3" fill="#838484"/><rect x="24.53" y="21.53" width="16" height="3" transform="translate(-6.75 29.74) rotate(-45)" fill="#838484"/><rect x="29.47" y="26.47" width="16" height="3" transform="translate(-8.81 34.69) rotate(-45)" fill="#838484"/><rect x="53" y="21" width="16" height="8" transform="translate(35.54 -35.81) rotate(45)" fill="#838484"/></svg>