<svg id="图层_1" data-name="图层 1" xmlns="http://www.w3.org/2000/svg" viewBox="0 0 16 16"><defs><style>.cls-1{fill:#262626;}</style></defs><g id="d"><path class="cls-1" d="M13,11a1,1,0,0,1,0,2H3a1,1,0,0,1,0-2H13m0-1H3a2,2,0,0,0,0,4H13a2,2,0,0,0,0-4Z"/><path class="cls-1" d="M14.4,12a.5.5,0,0,1-.48-.37l-2-7.52A1.5,1.5,0,0,0,10.46,3H5.54A1.51,1.51,0,0,0,4.08,4.13l-2,7.5a.48.48,0,0,1-.61.35.49.49,0,0,1-.35-.61l2-7.5A2.49,2.49,0,0,1,5.54,2h4.92a2.49,2.49,0,0,1,2.42,1.88l2,7.51a.49.49,0,0,1-.35.61Z"/><path class="cls-1" d="M8,5c1.08,0,2,.69,2,1.5S9.08,8,8,8,6,7.31,6,6.5,6.92,5,8,5M8,4A2.78,2.78,0,0,0,5,6.5,2.78,2.78,0,0,0,8,9a2.78,2.78,0,0,0,3-2.5A2.78,2.78,0,0,0,8,4Z"/></g></svg>