<svg id="图层_1" data-name="图层 1" xmlns="http://www.w3.org/2000/svg" viewBox="0 0 16 16"><defs><style>.cls-1{fill:#262626;}</style></defs><g id="图层_19" data-name="图层 19"><rect class="cls-1" x="8" y="3" width="1" height="1"/><rect class="cls-1" x="8" y="1" width="1" height="1"/><path class="cls-1" d="M4.54,15a3.34,3.34,0,0,1-2.28-.89,3.5,3.5,0,0,1-.33-4.91A3.17,3.17,0,0,1,4.5,8V9a2.19,2.19,0,0,0-1.82.83,2.51,2.51,0,0,0,.26,3.5A2.34,2.34,0,0,0,4.7,14a2.43,2.43,0,0,0,1.72-.87l.76.64A3.45,3.45,0,0,1,4.76,15Z"/><path class="cls-1" d="M12.5,15a3.52,3.52,0,0,1-2.68-1.27l.76-.65A2.49,2.49,0,0,0,12.5,14a2.5,2.5,0,0,0,0-5V8a3.5,3.5,0,0,1,0,7Z"/><rect class="cls-1" x="4.5" y="8" width="8" height="1"/><path class="cls-1" d="M10.3,14H6.7a.5.5,0,1,1,0-1h3.6a.5.5,0,0,1,0,1Z"/><path class="cls-1" d="M4.5,13a.5.5,0,0,1-.5-.5v-2a.5.5,0,0,1,1,0v2A.5.5,0,0,1,4.5,13Z"/><path class="cls-1" d="M5.5,12h-2a.5.5,0,0,1,0-1h2a.5.5,0,0,1,0,1Z"/><rect class="cls-1" x="8" y="5" width="1" height="4"/><circle class="cls-1" cx="12.5" cy="10.5" r="0.5"/><circle class="cls-1" cx="12.5" cy="12.5" r="0.5"/><circle class="cls-1" cx="13.5" cy="11.5" r="0.5"/><circle class="cls-1" cx="11.5" cy="11.5" r="0.5"/></g></svg>