<svg id="图层_1" data-name="图层 1" xmlns="http://www.w3.org/2000/svg" viewBox="0 0 16 16"><defs><style>.cls-1{fill:#262626;}</style></defs><g id="c"><g id="图层_15" data-name="图层 15"><path class="cls-1" d="M11,2a1,1,0,0,1,1,1V13a1,1,0,0,1-1,1H4a1,1,0,0,1-1-1V3A1,1,0,0,1,4,2h7m0-1H4A2,2,0,0,0,2,3V13a2,2,0,0,0,2,2h7a2,2,0,0,0,2-2V3A2,2,0,0,0,11,1Z"/><path class="cls-1" d="M10,3.53a.47.47,0,0,1,.47.47h0v7a.47.47,0,0,1-.47.47H5A.47.47,0,0,1,4.53,11h0V4A.47.47,0,0,1,5,3.53h5M10,3H5A1,1,0,0,0,4,4v7a1,1,0,0,0,1,1h5a1,1,0,0,0,1-1V4A1,1,0,0,0,10,3Z"/><circle class="cls-1" cx="7.5" cy="13.5" r="0.5"/></g></g></svg>