<svg id="图层_1" data-name="图层 1" xmlns="http://www.w3.org/2000/svg" viewBox="0 0 16 16"><defs><style>.cls-1{fill:#262626;}</style></defs><g id="i"><g id="图层_20" data-name="图层 20"><path class="cls-1" d="M7.62,15H7.53a5.59,5.59,0,0,1-4.8-2.75,4.61,4.61,0,0,1-.65-3.46L2.84,4.9a.49.49,0,0,1,.59-.39.5.5,0,0,1,.39.59L3.06,9a3.68,3.68,0,0,0,.52,2.74,4.72,4.72,0,0,0,4,2.27h0a4.61,4.61,0,0,0,4-2.25A4.44,4.44,0,0,0,11.93,9l-.75-3.89a.5.5,0,1,1,1-.18l.75,3.89a5.46,5.46,0,0,1-.46,3.42A5.62,5.62,0,0,1,7.62,15Z"/><path class="cls-1" d="M11.67,5.5a.51.51,0,0,1-.5-.44A3.51,3.51,0,0,0,7.52,2,3.42,3.42,0,0,0,3.83,5.05a.51.51,0,0,1-.55.45A.5.5,0,0,1,2.83,5,4.4,4.4,0,0,1,7.53,1a4.51,4.51,0,0,1,4.64,3.94.51.51,0,0,1-.44.56Z"/><path class="cls-1" d="M7.5,8.93a.5.5,0,0,1-.5-.5V6.7a.5.5,0,1,1,1,0V8.43A.5.5,0,0,1,7.5,8.93Z"/><path class="cls-1" d="M7.5,3.73a.5.5,0,0,1-.5-.5V1.5a.5.5,0,0,1,1,0V3.23A.5.5,0,0,1,7.5,3.73Z"/><path class="cls-1" d="M7.51,9A7.6,7.6,0,0,1,2.68,7.23a.5.5,0,0,1,.64-.76A6.6,6.6,0,0,0,7.5,8a6.55,6.55,0,0,0,4.17-1.61.5.5,0,0,1,.66.76A7.69,7.69,0,0,1,7.51,9Z"/><path class="cls-1" d="M7.5,7A1.5,1.5,0,0,1,6,5.5v-1a1.5,1.5,0,0,1,3,0v1A1.5,1.5,0,0,1,7.5,7Zm0-3a.5.5,0,0,0-.5.5v1a.5.5,0,0,0,1,0v-1A.5.5,0,0,0,7.5,4Z"/></g></g></svg>