<svg id="图层_1" data-name="图层 1" xmlns="http://www.w3.org/2000/svg" viewBox="0 0 16 16"><defs><style>.cls-1{fill:#262626;}</style></defs><g id="i"><g id="图层_21" data-name="图层 21"><path class="cls-1" d="M12.5,14h-9A2.5,2.5,0,0,1,1,11.5v-7A2.5,2.5,0,0,1,3.5,2h9A2.5,2.5,0,0,1,15,4.5v7A2.5,2.5,0,0,1,12.5,14ZM3.5,3A1.5,1.5,0,0,0,2,4.5v7A1.5,1.5,0,0,0,3.5,13h9A1.5,1.5,0,0,0,14,11.5v-7A1.5,1.5,0,0,0,12.5,3Z"/><rect class="cls-1" x="1.8" y="9" width="12.7" height="1"/><rect class="cls-1" x="7" y="9.5" width="1" height="4"/></g></g></svg>