<svg id="图层_1" data-name="图层 1" xmlns="http://www.w3.org/2000/svg" viewBox="0 0 16 16"><defs><style>.cls-1{fill:#262626;}</style></defs><g id="m"><g id="图层_23" data-name="图层 23"><g id="_16" data-name=" 16"><path class="cls-1" d="M11.21,3a1,1,0,0,1,.69.27l1.78,1.66a1,1,0,0,1,.32.73V13a1,1,0,0,1-1,1H3a1,1,0,0,1-1-1V4A1,1,0,0,1,3,3h8.21m0-1H3A2,2,0,0,0,1,4v9a2,2,0,0,0,2,2H13a2,2,0,0,0,2-2V5.66a2,2,0,0,0-.64-1.47L12.58,2.53A2,2,0,0,0,11.21,2Z"/><path class="cls-1" d="M11,8a1,1,0,0,1,1,1v5H4V9A1,1,0,0,1,5,8h6m0-1H5A2,2,0,0,0,3,9v6H13V9A2,2,0,0,0,11,7Z"/><path class="cls-1" d="M11.5,5h-7a.5.5,0,0,1,0-1h7a.5.5,0,0,1,0,1Z"/></g></g></g></svg>