<svg id="图层_1" data-name="图层 1" xmlns="http://www.w3.org/2000/svg" viewBox="0 0 16 16"><defs><style>.cls-1{fill:#262626;}</style></defs><g id="黑色"><g id="m_复制" data-name="m 复制"><g id="图层_25_复制" data-name="图层 25 复制"><path class="cls-1" d="M12,4a1,1,0,0,1,1,1v9a1,1,0,0,1-1,1H5a1,1,0,0,1-1-1V5A1,1,0,0,1,5,4h7m0-1H5A2,2,0,0,0,3,5v9a2,2,0,0,0,2,2h7a2,2,0,0,0,2-2V5A2,2,0,0,0,12,3Z"/><path class="cls-1" d="M11,2V3H6V2h5m1-1H5V4h7Z"/><rect class="cls-1" x="8" y="1.5" width="1" height="2.5"/><path class="cls-1" d="M8.53,14a.5.5,0,0,1-.5-.5v-7a.5.5,0,0,1,1,0v7A.5.5,0,0,1,8.53,14Z"/><path class="cls-1" d="M8,12H7.74A1.77,1.77,0,0,1,6,10.27V9A.5.5,0,0,1,7,9v1.26a.77.77,0,0,0,.75.74H8a.5.5,0,0,1,0,1Z"/><path class="cls-1" d="M9,11.18a.5.5,0,0,1,0-1h.26A.77.77,0,0,0,10,9.43V8.21a.5.5,0,1,1,1,0V9.44a1.77,1.77,0,0,1-1.73,1.74Z"/></g></g></g></svg>