<svg id="图层_1" data-name="图层 1" xmlns="http://www.w3.org/2000/svg" viewBox="0 0 16 16"><defs><style>.cls-1{fill:#262626;}</style></defs><g id="m"><g id="图层_26" data-name="图层 26"><path class="cls-1" d="M13,4a1,1,0,0,1,1,1v6a1,1,0,0,1-1,1H3a1,1,0,0,1-1-1V5A1,1,0,0,1,3,4H13m0-1H3A2,2,0,0,0,1,5v6a2,2,0,0,0,2,2H13a2,2,0,0,0,2-2V5A2,2,0,0,0,13,3Z"/><path class="cls-1" d="M5,7A1,1,0,1,1,4,8,1,1,0,0,1,5,7M5,6A2,2,0,1,0,7,8,2,2,0,0,0,5,6Z"/><path class="cls-1" d="M11,7a1,1,0,1,1-1,1,1,1,0,0,1,1-1m0-1a2,2,0,1,0,2,2A2,2,0,0,0,11,6Z"/><path class="cls-1" d="M11,10H5A.5.5,0,0,1,5,9h6a.5.5,0,0,1,0,1Z"/></g></g></svg>