<svg id="图层_1" data-name="图层 1" xmlns="http://www.w3.org/2000/svg" viewBox="0 0 16 16"><defs><style>.cls-1{fill:#262626;}</style></defs><g id="黑色"><g id="m_复制" data-name="m 复制"><g id="图层_24_复制_2" data-name="图层 24 复制 2"><path class="cls-1" d="M2,11a.47.47,0,0,1-.43-.28,7,7,0,0,1,9.11-9.11,7,7,0,0,1,3.75,9.11.47.47,0,0,1-.61.25.46.46,0,0,1-.25-.61,6,6,0,1,0-11.14,0,.46.46,0,0,1-.25.61Z"/><path class="cls-1" d="M8,5.5A2.5,2.5,0,1,1,5.5,8,2.5,2.5,0,0,1,8,5.5M8,5a3,3,0,1,0,3,3A3,3,0,0,0,8,5Z"/><path class="cls-1" d="M8,9A1,1,0,1,1,9,8,1,1,0,0,1,8,9ZM8,8"/><g id="_24" data-name=" 24"><path class="cls-1" d="M4,16H3V15H4a1,1,0,0,0,0-2H3V12H4a2,2,0,0,1,0,4Z"/><rect class="cls-1" x="3" y="12" width="1" height="4"/><path class="cls-1" d="M11,16H10V15h1a1,1,0,0,0,0-2H10V12h1a2,2,0,0,1,0,4Z"/><rect class="cls-1" x="10" y="12" width="1" height="4"/><polygon class="cls-1" points="8.19 16 9.69 12 8.63 12 7.85 14.08 7.07 12 6 12 7.5 16 8.19 16"/></g></g></g></g></svg>