<svg id="光盘-空_复制" xmlns="http://www.w3.org/2000/svg" xmlns:xlink="http://www.w3.org/1999/xlink" viewBox="0 0 96 96"><defs><linearGradient id="未命名的渐变_116" x1="663.14" y1="1372.31" x2="663.14" y2="1289.75" gradientTransform="translate(-1362.62 -424.79) rotate(-45)" gradientUnits="userSpaceOnUse"><stop offset="0" stop-color="#ff6cd2"/><stop offset="1" stop-color="#64ffff"/></linearGradient><linearGradient id="未命名的渐变_91" x1="-3051.92" y1="1823.82" x2="-3052.36" y2="1823.39" gradientTransform="translate(-820.71 3495.67) rotate(135)" gradientUnits="userSpaceOnUse"><stop offset="0" stop-color="#7c4cf2"/><stop offset="1" stop-color="#cd99ff"/></linearGradient><linearGradient id="未命名的渐变_91-2" x1="-2984.88" y1="1890.87" x2="-3052.36" y2="1823.39" xlink:href="#未命名的渐变_91"/><linearGradient id="未命名的渐变_91-3" x1="730.4" y1="1399.03" x2="662.92" y2="1331.55" gradientTransform="translate(-1362.62 -424.79) rotate(-45)" xlink:href="#未命名的渐变_91"/></defs><g id="_96" data-name="96"><circle cx="48" cy="48" r="44" fill="url(#未命名的渐变_116)"/><polygon points="47.95 48.05 48.11 48.11 48.05 47.95 47.89 47.89 47.95 48.05" fill="#e6e6e6"/><polygon points="47.95 48.05 48.11 48.11 48.05 47.95 47.89 47.89 47.95 48.05" fill="#e6e6e6"/><polygon points="47.9 48.1 48.31 48.31 48.1 47.9 47.69 47.69 47.9 48.1" fill="url(#未命名的渐变_91)"/><polygon points="47.9 48.1 48.31 48.31 48.1 47.9 47.69 47.69 47.9 48.1" fill="url(#未命名的渐变_91-2)"/><polygon points="47.9 48.1 48.31 48.31 48.1 47.9 47.69 47.69 47.9 48.1" fill="url(#未命名的渐变_91-3)"/><path d="M48,36a12,12,0,1,1-8.49,3.51A12,12,0,0,1,48,36m0-4.86a16.86,16.86,0,1,0,11.92,4.94A16.76,16.76,0,0,0,48,31.14Z" fill="#fff"/><g opacity="0.2"><path d="M42.61,36.42,28.5,8.47A44.29,44.29,0,0,0,8.57,28.6l27.83,14A12.88,12.88,0,0,1,39,39,13,13,0,0,1,42.61,36.42Z" fill="#fff"/></g><g opacity="0.2"><path d="M59.32,53.91a12.75,12.75,0,0,1-5.45,5.43L67.92,87.17A44.23,44.23,0,0,0,87.26,68Z" fill="#fff"/></g><polygon points="48.54 48.78 48.95 48.99 48.75 48.58 48.34 48.37 48.54 48.78" fill="#fff"/><circle cx="48" cy="48" r="9" fill="#fff" opacity="0.9"/></g></svg>