<svg id="图层_1" data-name="图层 1" xmlns="http://www.w3.org/2000/svg" viewBox="0 0 16 16"><defs><style>.cls-1,.cls-2{fill:#262626;}.cls-2{fill-rule:evenodd;}</style></defs><g id="m"><g id="图层_27" data-name="图层 27"><path class="cls-1" d="M13,3a1,1,0,0,1,1,1v9a1,1,0,0,1-1,1H3a1,1,0,0,1-1-1V4A1,1,0,0,1,3,3H13m0-1H3A2,2,0,0,0,1,4v9a2,2,0,0,0,2,2H13a2,2,0,0,0,2-2V4A2,2,0,0,0,13,2Z"/><rect class="cls-1" x="1.5" y="10" width="13" height="1"/><rect class="cls-1" x="1.5" y="6" width="13" height="1"/><path class="cls-2" d="M7,2V14h4V2Zm3,8H8V7h2Z"/></g></g></svg>