<svg id="图层_1" data-name="图层 1" xmlns="http://www.w3.org/2000/svg" viewBox="0 0 16 16"><defs><style>.cls-1{fill:#262626;}</style></defs><g id="m"><g id="图层_28" data-name="图层 28"><path class="cls-1" d="M11,2a.94.94,0,0,1,1,1V13a.94.94,0,0,1-1,1H4a.94.94,0,0,1-1-1V3A.94.94,0,0,1,4,2h7m0-1H4A2,2,0,0,0,2,3V13a2,2,0,0,0,2,2h7a2,2,0,0,0,2-2V3A2,2,0,0,0,11,1Z"/><path class="cls-1" d="M10,5H5A.94.94,0,0,1,4,4H4A.94.94,0,0,1,5,3h5a.94.94,0,0,1,1,1h0A.94.94,0,0,1,10,5Z"/><path class="cls-1" d="M7.5,7A2.5,2.5,0,1,1,5,9.5,2.48,2.48,0,0,1,7.5,7m0-1a3.5,3.5,0,0,0,0,7,3.5,3.5,0,0,0,0-7Z"/><polygon class="cls-1" points="7 8 7 11 9 9.5 7 8"/></g></g></svg>