<svg id="图层_1" data-name="图层 1" xmlns="http://www.w3.org/2000/svg" viewBox="0 0 16 16"><defs><style>.cls-1{fill:#262626;}</style></defs><g id="n"><g id="图层_2" data-name="图层 2"><path class="cls-1" d="M8,12a1.5,1.5,0,0,0,0,3H8a1.5,1.5,0,0,0,0-3Z"/><path class="cls-1" d="M5.25,11.05a.5.5,0,0,1-.33-.87,4.54,4.54,0,0,1,6.11,0,.5.5,0,1,1-.66.74,3.58,3.58,0,0,0-4.79,0A.46.46,0,0,1,5.25,11.05Z"/><path class="cls-1" d="M12.62,8.83a.5.5,0,0,1-.34-.13A6.32,6.32,0,0,0,8,7H8A6.15,6.15,0,0,0,3.76,8.69a.48.48,0,0,1-.7,0,.49.49,0,0,1,0-.7A7.1,7.1,0,0,1,8,6H8a7.34,7.34,0,0,1,5,2,.51.51,0,0,1,0,.71A.5.5,0,0,1,12.62,8.83Z"/><path class="cls-1" d="M14.5,6.44a.46.46,0,0,1-.33-.13A9,9,0,0,0,8,4,9.58,9.58,0,0,0,1.82,6.24a.5.5,0,0,1-.64-.76A10.56,10.56,0,0,1,8,3a9.94,9.94,0,0,1,6.83,2.57.48.48,0,0,1,0,.7A.5.5,0,0,1,14.5,6.44Z"/></g></g></svg>