<svg id="图层_1" data-name="图层 1" xmlns="http://www.w3.org/2000/svg" viewBox="0 0 16 16"><defs><style>.cls-1{fill:#262626;}</style></defs><g id="n"><g id="有线网络"><path class="cls-1" d="M7.5,15h-2a.5.5,0,0,1,0-1H7V13H3.5A2.5,2.5,0,0,1,1,10.5v-4A2.5,2.5,0,0,1,3.5,4h5a.5.5,0,0,1,0,1h-5A1.5,1.5,0,0,0,2,6.5v4A1.5,1.5,0,0,0,3.5,12h4a.5.5,0,0,1,.5.5v2A.5.5,0,0,1,7.5,15Z"/><path class="cls-1" d="M14.5,7h-4a.5.5,0,0,1-.5-.5v-4a.5.5,0,0,1,.5-.5h.8a.5.5,0,0,1,0,1H11V6h3V3h-.3a.5.5,0,0,1,0-1h.8a.5.5,0,0,1,.5.5v4A.5.5,0,0,1,14.5,7Z"/><path class="cls-1" d="M12.5,5a.5.5,0,0,1-.5-.5v-1a.5.5,0,0,1,1,0v1A.5.5,0,0,1,12.5,5Z"/><path class="cls-1" d="M11.5,3a.5.5,0,0,1-.5-.5v-1a.5.5,0,0,1,1,0v1A.5.5,0,0,1,11.5,3Z"/><path class="cls-1" d="M13.5,3a.5.5,0,0,1-.5-.5v-1a.5.5,0,0,1,1,0v1A.5.5,0,0,1,13.5,3Z"/><path class="cls-1" d="M12.5,15a.5.5,0,0,1-.5-.5V7a.5.5,0,0,1,1,0v7.5A.5.5,0,0,1,12.5,15Z"/><path class="cls-1" d="M10.5,13h-3a.5.5,0,0,1,0-1h3a.5.5,0,0,1,0,1Z"/><path class="cls-1" d="M9.5,15h-2a.5.5,0,0,1,0-1h2a.5.5,0,0,1,0,1Z"/></g></g></svg>