<svg id="图层_1" data-name="图层 1" xmlns="http://www.w3.org/2000/svg" viewBox="0 0 16 16"><defs><style>.cls-1{fill:#262626;}</style></defs><g id="i"><path class="cls-1" d="M13,4a1,1,0,0,1,1,1v7a1,1,0,0,1-1,1H3a1,1,0,0,1-1-1V5A1,1,0,0,1,3,4H13m0-1H3A2,2,0,0,0,1,5v7a2,2,0,0,0,2,2H13a2,2,0,0,0,2-2V5A2,2,0,0,0,13,3Z"/><polygon class="cls-1" points="5 5 3 5 3 6 5 6 5 5 5 5"/><polygon class="cls-1" points="8 5 6 5 6 6 8 6 8 5 8 5"/><polygon class="cls-1" points="10 5 9 5 9 6 10 6 10 5 10 5"/><polygon class="cls-1" points="13 5 11 5 11 6 13 6 13 5 13 5"/><polygon class="cls-1" points="5 7 3 7 3 8 5 8 5 7 5 7"/><polygon class="cls-1" points="5 11 3 11 3 12 5 12 5 11 5 11"/><polygon class="cls-1" points="13 11 11 11 11 12 13 12 13 11 13 11"/><polygon class="cls-1" points="9 7 6 7 6 8 9 8 9 7 9 7"/><polygon class="cls-1" points="13 7 10 7 10 8 13 8 13 7 13 7"/><polygon class="cls-1" points="6 9 3 9 3 10 6 10 6 9 6 9"/><polygon class="cls-1" points="10 9 7 9 7 10 10 10 10 9 10 9"/><polygon class="cls-1" points="13 9 11 9 11 10 13 10 13 9 13 9"/><polygon class="cls-1" points="10 11 6 11 6 12 10 12 10 11 10 11"/></g></svg>