<svg id="p" xmlns="http://www.w3.org/2000/svg" viewBox="0 0 16 16"><defs><style>.cls-1{fill:#262626;}</style></defs><path class="cls-1" d="M11,2V4H5V2h6m0-1H5A1,1,0,0,0,4,2V4A1,1,0,0,0,5,5h6a1,1,0,0,0,1-1V2A1,1,0,0,0,11,1Z"/><path class="cls-1" d="M10.88,11a.12.12,0,0,1,.12.12v2.76a.12.12,0,0,1-.12.12H5.12A.12.12,0,0,1,5,13.88V11.12A.12.12,0,0,1,5.12,11h5.76m0-1H5.12A1.12,1.12,0,0,0,4,11.12v2.76A1.12,1.12,0,0,0,5.12,15h5.76A1.12,1.12,0,0,0,12,13.88V11.12A1.12,1.12,0,0,0,10.88,10Z"/><path class="cls-1" d="M13,4H3A2,2,0,0,0,1,6v4a2,2,0,0,0,2,2H4V11H3a1,1,0,0,1-1-1V6A1,1,0,0,1,3,5H13a1,1,0,0,1,1,1v4a1,1,0,0,1-1,1H12v1h1a2,2,0,0,0,2-2V6A2,2,0,0,0,13,4Z"/><path class="cls-1" d="M11,6a1,1,0,1,0,1,1A1,1,0,0,0,11,6Z"/></svg>