<svg id="p" xmlns="http://www.w3.org/2000/svg" viewBox="0 0 16 16"><defs><style>.cls-1{fill:#262626;}</style></defs><path class="cls-1" d="M11,2V4H5V2h6m0-1H5A1,1,0,0,0,4,2V4A1,1,0,0,0,5,5h6a1,1,0,0,0,1-1V2A1,1,0,0,0,11,1Z"/><path class="cls-1" d="M11.5,15h-7a.5.5,0,0,1,0-1h7a.5.5,0,0,1,0,1Z"/><rect class="cls-1" x="7" y="12.5" width="2" height="2"/><path class="cls-1" d="M13,5a1,1,0,0,1,1,1v5a1,1,0,0,1-1,1H3a1,1,0,0,1-1-1V6A1,1,0,0,1,3,5H13m0-1H3A2,2,0,0,0,1,6v5a2,2,0,0,0,2,2H13a2,2,0,0,0,2-2V6A2,2,0,0,0,13,4Z"/><path class="cls-1" d="M11,6a1,1,0,1,0,1,1A1,1,0,0,0,11,6Z"/><path class="cls-1" d="M10.5,11h-5a.5.5,0,0,1,0-1h5a.5.5,0,0,1,0,1Z"/></svg>