<svg id="扫描仪" xmlns="http://www.w3.org/2000/svg" xmlns:xlink="http://www.w3.org/1999/xlink" viewBox="0 0 96 96"><defs><linearGradient id="未命名的渐变_16" x1="21.92" y1="8.83" x2="21.92" y2="8.82" gradientUnits="userSpaceOnUse"><stop offset="0" stop-color="#e6e6e6"/><stop offset="1" stop-color="#ccc"/></linearGradient></defs><g id="_96" data-name="96"><path d="M90,80.37a8.25,8.25,0,0,0-.27-2.06L86.32,56H9.5L6.27,78.31A8.25,8.25,0,0,0,6,80.37H6v.08H6A7.5,7.5,0,0,0,13.37,88H82.63A7.5,7.5,0,0,0,90,80.46h0v-.08Z" fill="#07869b"/><path d="M48.24,15a3,3,0,0,0-.1-.45l.13,1A4.36,4.36,0,0,0,48.24,15Z" fill="#ccc"/><path d="M16.11,11.16a3.25,3.25,0,0,0-.06.45Z" fill="#ccc"/><path d="M70.93,12a3.26,3.26,0,0,0-.09-.45l.12,1A3,3,0,0,0,70.93,12Z" fill="#ccc"/><path d="M21.91,8.82h0Z" fill="url(#未命名的渐变_16)"/><circle cx="80.5" cy="81.5" r="2.5" fill="#1ee2a6"/><circle cx="72.5" cy="81.5" r="2.5" fill="#ffd357"/><polygon points="86.18 76 77.81 12 77.31 12 12.23 76 86.18 76" fill="#fff"/><polygon points="18.19 12 9.82 76 12.23 76 77.31 12 76.72 12 18.19 12" fill="#fff"/><path d="M81.19,10.71A4.72,4.72,0,0,0,77.36,8H18.85a4.61,4.61,0,0,0-4.06,2.89,5.06,5.06,0,0,0-.36,1.18h0L6,55l2.49-1h79L90,55S82.17,13.66,81.19,10.71Z" fill="#31c5e8"/><rect x="6" y="54" width="84" height="2" rx="0.95" fill="#206366"/></g></svg>