<svg id="图层_1" data-name="图层 1" xmlns="http://www.w3.org/2000/svg" viewBox="0 0 16 16"><defs><style>.cls-1{fill:#262626;}</style></defs><g id="UKUI"><g id="图层_100" data-name="图层 100"><g id="_16" data-name=" 16"><path class="cls-1" d="M8.11,12H3.5A1.5,1.5,0,0,1,2,10.5v-6A1.5,1.5,0,0,1,3.5,3h9A1.5,1.5,0,0,1,14,4.5V6.58a3.43,3.43,0,0,1,1,.21V4.5A2.5,2.5,0,0,0,12.5,2h-9A2.5,2.5,0,0,0,1,4.5v6A2.5,2.5,0,0,0,3.5,13H7.69A2.6,2.6,0,0,1,8.11,12Z"/><path id="路径-2" class="cls-1" d="M13.23,13.93a6,6,0,0,0-3.12.22A.28.28,0,0,1,9.75,14V14h0l-.07-.25a.71.71,0,0,1,.36-.8l.52-.25a.61.61,0,0,0,.27-.82h0a.7.7,0,0,0-.13-.17L8.21,9.35a.66.66,0,0,1,0-.92h0a.76.76,0,0,1,1,0l1.7,1.48a.61.61,0,0,0,.8,0l1-.87A1.63,1.63,0,0,1,15,9.1h0a.57.57,0,0,1,.12.15l.54.76a1.82,1.82,0,0,1-.13,2.25l-1.25,1.43a.94.94,0,0,1-1,.27H13.2Z"/></g></g></g></svg>