<svg id="UKUI" xmlns="http://www.w3.org/2000/svg" viewBox="0 0 16 16"><defs><style>.cls-1{fill:#262626;}</style></defs><g id="_16" data-name=" 16"><polygon class="cls-1" points="4 12 8 12 4 15 4 12"/><path class="cls-1" d="M6.84,4H12.5A1.5,1.5,0,0,1,14,5.5v4a1.43,1.43,0,0,1-.26.82l.73.68A2.49,2.49,0,0,0,15,9.5v-4A2.5,2.5,0,0,0,12.5,3H5.75Z"/><path class="cls-1" d="M7.07,11H3.5A1.5,1.5,0,0,1,2,9.5V6.35L1,5.44V9.5A2.5,2.5,0,0,0,3.5,12H8.16Z"/><path class="cls-1" d="M13.5,14a.51.51,0,0,1-.34-.13l-12-11a.5.5,0,0,1,.68-.74l12,11a.51.51,0,0,1,0,.71A.5.5,0,0,1,13.5,14Z"/></g></svg>