<svg id="图层_1" data-name="图层 1" xmlns="http://www.w3.org/2000/svg" viewBox="0 0 16 16"><defs><style>.cls-1{fill:#262626;}</style></defs><g id="UKUI"><g id="图层_103" data-name="图层 103"><g id="_16" data-name=" 16"><path class="cls-1" d="M3,15a2,2,0,1,1,2-2A2,2,0,0,1,3,15Zm0-3a1,1,0,1,0,1,1A1,1,0,0,0,3,12Z"/><path class="cls-1" d="M13,15a2,2,0,1,1,2-2A2,2,0,0,1,13,15Zm0-3a1,1,0,1,0,1,1A1,1,0,0,0,13,12Z"/><path class="cls-1" d="M8,5a2,2,0,1,1,2-2A2,2,0,0,1,8,5ZM8,2A1,1,0,1,0,9,3,1,1,0,0,0,8,2Z"/><rect id="矩形_98" data-name="矩形 98" class="cls-1" x="4" y="12" width="8" height="1"/><rect id="矩形_99" data-name="矩形 99" class="cls-1" x="9.97" y="3.81" width="1" height="8.46" transform="translate(-2.62 6.31) rotate(-30)"/><rect id="矩形_100" data-name="矩形 100" class="cls-1" x="1.24" y="7.53" width="8.46" height="1" transform="translate(-4.22 8.75) rotate(-60)"/></g></g></g></svg>