<svg id="图层_1" data-name="图层 1" xmlns="http://www.w3.org/2000/svg" viewBox="0 0 16 16"><defs><style>.cls-1{fill:#262626;}</style></defs><g id="UKUI"><g id="图层_81" data-name="图层 81"><path id="_16" data-name=" 16" class="cls-1" d="M10.9,13.1c.2,0,.3-.2.4-.4l.2-5.2c2.2-1.1,3.9-2.2,3.4-3.1h0a.91.91,0,0,0-.8-.4,10.74,10.74,0,0,0-3.9,1.4L5,3H4.7c-.1,0-.2,0-.3.2s-.1.4.1.6L7.5,7c-1.2.8-2.3,1.6-2.8,2L2.6,8.4H2.5a.55.55,0,0,0-.5.3,5.26,5.26,0,0,1,1.2,1.4,1.33,1.33,0,0,1,.3.5,11.11,11.11,0,0,1,.7,1.6h.1a.55.55,0,0,0,.5-.3L5.3,10A19.8,19.8,0,0,0,8.7,8.7l1.6,4c.1.3.2.5.6.4h0m0,1.1h0A1.43,1.43,0,0,1,9.4,13L8.2,10a16.45,16.45,0,0,1-2,.7L5.9,12h0a1.63,1.63,0,0,1-1.5,1.1H4.2a.85.85,0,0,1-.8-.7,8.26,8.26,0,0,0-.7-1.3,2.19,2.19,0,0,0-.3-.5,10.59,10.59,0,0,0-1-1.2,1,1,0,0,1-.3-1.2,1.69,1.69,0,0,1,1.4-.9.76.76,0,0,1,.4.1h0l1.6.4A11.76,11.76,0,0,1,6,6.7L3.8,4.4a1.5,1.5,0,0,1-.3-1.8,1.39,1.39,0,0,1,1.2-.7,1.27,1.27,0,0,1,.6.1h.1l4.7,2.3A9,9,0,0,1,14,3a2,2,0,0,1,1.6.7l.1.1h0l.1.1h0a2,2,0,0,1,.1,1.3c-.3.9-1.3,1.8-3.5,2.9l-.2,4.6v.2a1.59,1.59,0,0,1-1.3,1.3Z"/></g></g></svg>