<svg id="图层_1" data-name="图层 1" xmlns="http://www.w3.org/2000/svg" viewBox="0 0 16 16"><defs><style>.cls-1{fill:#262626;}</style></defs><g id="UKUI"><g id="图层_92" data-name="图层 92"><g id="_16" data-name=" 16"><rect class="cls-1" x="7" y="13" width="2" height="2"/><path class="cls-1" d="M10.5,15h-5a.5.5,0,0,1,0-1h5a.5.5,0,0,1,0,1Z"/><path class="cls-1" d="M13,3a1,1,0,0,1,1,1v6a1,1,0,0,1-1,1H3a1,1,0,0,1-1-1V4A1,1,0,0,1,3,3H13m0-1H3A2,2,0,0,0,1,4v6a2,2,0,0,0,2,2H13a2,2,0,0,0,2-2V4A2,2,0,0,0,13,2Z"/></g></g></g></svg>