<svg id="图层_1" data-name="图层 1" xmlns="http://www.w3.org/2000/svg" viewBox="0 0 16 16"><defs><style>.cls-1{fill:#262626;}</style></defs><g id="UKUI"><g id="图层_96" data-name="图层 96"><g id="_16" data-name=" 16"><path class="cls-1" d="M10.1,13.89a5.89,5.89,0,0,0,.58-.24,2.59,2.59,0,0,1,1.67-2.87h0a2.63,2.63,0,0,1,.83-.14,1.77,1.77,0,0,1,.46,0c.08-.18.16-.37.24-.58A2.46,2.46,0,0,1,12.8,8a2.44,2.44,0,0,1,1.08-2.11c-.07-.2-.15-.38-.23-.56a2,2,0,0,1-.49,0,2.45,2.45,0,0,1-1.78-.77,2.44,2.44,0,0,1-.7-2.26c-.18-.08-.37-.16-.58-.23a2.44,2.44,0,0,1-2,1.09H7.92a2.46,2.46,0,0,1-2-1.09c-.2.07-.39.15-.57.23A2.46,2.46,0,0,1,4.6,4.61a2.5,2.5,0,0,1-1.77.76,2,2,0,0,1-.49,0c-.08.18-.16.37-.23.58A2.45,2.45,0,0,1,3.19,8a2.44,2.44,0,0,1-1.08,2.11c.07.2.15.39.23.57a2,2,0,0,1,.49,0,2.44,2.44,0,0,1,1.78.76,2.44,2.44,0,0,1,.71,2.26c.19.09.38.16.57.23a2.45,2.45,0,0,1,2-1.08H8a2.45,2.45,0,0,1,2,1.08M6.15,15H6a6.75,6.75,0,0,1-1.57-.65.47.47,0,0,1-.19-.62,1.43,1.43,0,0,0-.37-1.6,1.45,1.45,0,0,0-1.6-.37H2.06a.47.47,0,0,1-.41-.24A6.57,6.57,0,0,1,1,10a.46.46,0,0,1,.3-.57A1.42,1.42,0,0,0,2.19,8a1.43,1.43,0,0,0-.87-1.4A.45.45,0,0,1,1,6V6a7,7,0,0,1,.65-1.58.47.47,0,0,1,.41-.24h.21a1.41,1.41,0,0,0,.54.11A1.48,1.48,0,0,0,3.89,3.9a1.45,1.45,0,0,0,.37-1.61.47.47,0,0,1,.19-.62A6.86,6.86,0,0,1,6,1h.13a.47.47,0,0,1,.45.32A1.46,1.46,0,0,0,7.9,2.2h.15A1.44,1.44,0,0,0,9.4,1.32.46.46,0,0,1,9.84,1H10a6.75,6.75,0,0,1,1.57.65.47.47,0,0,1,.19.62A1.46,1.46,0,0,0,12.1,3.9a1.43,1.43,0,0,0,1.06.47,1.41,1.41,0,0,0,.54-.11h.21a.46.46,0,0,1,.41.24A6.77,6.77,0,0,1,15,6a.47.47,0,0,1-.31.56A1.44,1.44,0,0,0,13.8,8a1.43,1.43,0,0,0,.87,1.39A.5.5,0,0,1,15,10a6.75,6.75,0,0,1-.65,1.57.46.46,0,0,1-.41.24.37.37,0,0,1-.21,0,1.7,1.7,0,0,0-1,0,1.57,1.57,0,0,0-1,2v0a.48.48,0,0,1-.19.62A6.26,6.26,0,0,1,10,15H9.87a.46.46,0,0,1-.44-.32,1.44,1.44,0,0,0-1.33-.87H7.92a1.44,1.44,0,0,0-1.32.87A.47.47,0,0,1,6.15,15Z"/><circle id="椭圆_36" data-name="椭圆 36" class="cls-1" cx="8" cy="8" r="1"/><path class="cls-1" d="M8,11a3,3,0,1,1,3-3A3,3,0,0,1,8,11ZM8,6a2,2,0,1,0,2,2A2,2,0,0,0,8,6Z"/></g></g></g></svg>