<svg id="图层_2" data-name="图层 2" xmlns="http://www.w3.org/2000/svg" viewBox="0 0 16 16"><defs><style>.cls-1{fill:#262626;}</style></defs><g id="_24" data-name="24"><circle class="cls-1" cx="7.5" cy="12.5" r="0.5"/><circle class="cls-1" cx="5.5" cy="12.5" r="0.5"/><circle class="cls-1" cx="7.5" cy="10.5" r="0.5"/><circle class="cls-1" cx="5.5" cy="10.5" r="0.5"/><circle class="cls-1" cx="9.5" cy="8.5" r="0.5"/><circle class="cls-1" cx="7.5" cy="8.5" r="0.5"/><circle class="cls-1" cx="5.5" cy="8.5" r="0.5"/><path class="cls-1" d="M9.5,13h0a.47.47,0,0,1-.5-.5v-2a.47.47,0,0,1,.5-.5h0a.47.47,0,0,1,.5.5v2A.47.47,0,0,1,9.5,13Z"/></g><path class="cls-1" d="M11,2a.94.94,0,0,1,1,1V13a.94.94,0,0,1-1,1H4a.94.94,0,0,1-1-1V3A.94.94,0,0,1,4,2h7m0-1H4A2,2,0,0,0,2,3V13a2,2,0,0,0,2,2h7a2,2,0,0,0,2-2V3a2,2,0,0,0-2-2Z"/><path class="cls-1" d="M10,4V6H5V4h5m1-1H4V7h7V3Z"/></svg>