<svg id="图层_1" data-name="图层 1" xmlns="http://www.w3.org/2000/svg" viewBox="0 0 16 16"><defs><style>.cls-1{fill:#262626;}</style></defs><g id="UKUI"><g id="图层_92" data-name="图层 92"><g id="_16" data-name=" 16"><path class="cls-1" d="M8,12a3,3,0,1,1,3-3A3,3,0,0,1,8,12ZM8,7a2,2,0,1,0,2,2A2,2,0,0,0,8,7Z"/><path class="cls-1" d="M9.7,3h0a8.81,8.81,0,0,1,.7,1.4l.3.6h2.9c.2,0,.4.3.4.5v7a.47.47,0,0,1-.5.5H2.5a.47.47,0,0,1-.5-.5v-7c0-.2.2-.5.4-.5H5.3l.3-.6c.2-.5.6-1.2.7-1.4H9.7m.1-1H6.3a1.23,1.23,0,0,0-.8.4C5.4,2.5,4.7,4,4.7,4H2.4A1.45,1.45,0,0,0,1,5.5v7A1.54,1.54,0,0,0,2.5,14h11A1.54,1.54,0,0,0,15,12.5v-7A1.45,1.45,0,0,0,13.6,4H11.3a8.94,8.94,0,0,0-.9-1.6A.82.82,0,0,0,9.8,2Z"/></g></g></g></svg>