<svg id="图层_1" data-name="图层 1" xmlns="http://www.w3.org/2000/svg" viewBox="0 0 16 16"><defs><style>.cls-1{fill:#262626;}</style></defs><path class="cls-1" d="M8,4a5,5,0,0,1,5,5,5,5,0,0,1-5,5A5,5,0,0,1,3,9,5,5,0,0,1,8,4M8,3a6,6,0,1,0,6,6A6,6,0,0,0,8,3Z"/><path class="cls-1" d="M6.4,2.2A3.13,3.13,0,0,0,4,1,3,3,0,0,0,1,4a3.16,3.16,0,0,0,.7,1.9A7.09,7.09,0,0,1,6.4,2.2Z"/><path class="cls-1" d="M9.6,2.2A3.13,3.13,0,0,1,12,1a3,3,0,0,1,3,3,3.16,3.16,0,0,1-.7,1.9A7.09,7.09,0,0,0,9.6,2.2Z"/><circle class="cls-1" cx="8" cy="9" r="1"/><path class="cls-1" d="M8,9.59,5.24,7.93a.5.5,0,1,1,.52-.86L8,8.41l2.73-1.83a.5.5,0,0,1,.56.84Z"/><path class="cls-1" d="M8,13a.5.5,0,0,1-.5-.5V9a.5.5,0,0,1,1,0v3.5A.5.5,0,0,1,8,13Z"/></svg>