<svg id="图层_1" data-name="图层 1" xmlns="http://www.w3.org/2000/svg" viewBox="0 0 16 16"><defs><style>.cls-1{fill:#262626;}</style></defs><g id="黑色"><g id="关机"><path class="cls-1" d="M8,15A6.94,6.94,0,0,1,1.08,8.83,6.89,6.89,0,0,1,2.51,3.69,7.56,7.56,0,0,1,4.73,1.78a.5.5,0,0,1,.54.84,6.74,6.74,0,0,0-2,1.67,6,6,0,0,0,9.4,7.4,6,6,0,0,0-1-8.4,3.25,3.25,0,0,0-.91-.64A.51.51,0,0,1,10.55,2a.5.5,0,0,1,.67-.23,4.23,4.23,0,0,1,1.13.8A7,7,0,0,1,8.83,14.92,6.11,6.11,0,0,1,8,15Z"/><path class="cls-1" d="M8,8A1,1,0,0,1,7,7V1A1,1,0,0,1,9,1V7A1,1,0,0,1,8,8Z"/></g></g></svg>