<svg id="UKUI" xmlns="http://www.w3.org/2000/svg" viewBox="0 0 16 16"><defs><style>.cls-1{fill:#262626;}</style></defs><g id="ECO"><g id="_16" data-name=" 16"><path class="cls-1" d="M8,2.69c1.8,2.52,4,6.12,4,7.64A3.72,3.72,0,0,1,8.24,14H8a3.73,3.73,0,0,1-4-3.43,1.93,1.93,0,0,1,0-.24C4,8.81,6.2,5.21,8,2.69M8,1S3,7.57,3,10.33A4.72,4.72,0,0,0,7.76,15H8a4.72,4.72,0,0,0,5-4.43,1.93,1.93,0,0,0,0-.24C13,7.57,8,1,8,1Z"/><path id="路径" class="cls-1" d="M8.53,8.47a.14.14,0,0,1-.16-.12h0a.06.06,0,0,1,0-.06L9,6.19A.14.14,0,0,0,8.92,6H8.87a.19.19,0,0,0-.15,0L6,9.62a.13.13,0,0,0,0,.2H6a.11.11,0,0,0,.11,0l1.39-.2a.15.15,0,0,1,.16.13h0v.06l-.6,2.07a.14.14,0,0,0,.1.18A.16.16,0,0,0,7.37,12L10,8.5a.15.15,0,0,0,0-.2.17.17,0,0,0-.1,0Z"/></g></g></svg>