<svg id="图层_1" data-name="图层 1" xmlns="http://www.w3.org/2000/svg" viewBox="0 0 16 16"><defs><style>.cls-1{fill:#262626;}</style></defs><g id="UKUI"><g id="图层_88" data-name="图层 88"><g id="_16" data-name=" 16"><g id="路径_122" data-name="路径 122"><path class="cls-1" d="M13,2a1,1,0,0,1,1,1V9a1,1,0,0,1-1,1H7A1,1,0,0,1,6,9V3A1,1,0,0,1,7,2h6m0-1H7A2,2,0,0,0,5,3V9a2,2,0,0,0,2,2h6a2,2,0,0,0,2-2V3A2,2,0,0,0,13,1Z"/></g><path id="路径_123" data-name="路径 123" class="cls-1" d="M10,11v2.13a.87.87,0,0,1-.87.87H2.87A.87.87,0,0,1,2,13.13H2V6.87A.87.87,0,0,1,2.87,6H5V5H3A2,2,0,0,0,1,7v6a2,2,0,0,0,2,2H9a2,2,0,0,0,2-2V11Z"/><rect id="矩形_109" data-name="矩形 109" class="cls-1" x="8" y="4" width="4" height="1"/><rect id="矩形_110" data-name="矩形 110" class="cls-1" x="8" y="6" width="4" height="1"/></g></g></g></svg>