<svg id="UKUI" xmlns="http://www.w3.org/2000/svg" viewBox="0 0 16 16"><defs><style>.cls-1{fill:#262626;}</style></defs><g id="图层_78" data-name="图层 78"><g id="_16" data-name=" 16"><rect id="矩形_103" data-name="矩形 103" class="cls-1" x="5" y="6" width="6" height="1"/><rect id="矩形_104" data-name="矩形 104" class="cls-1" x="5" y="9" width="6" height="1"/><path class="cls-1" d="M3,4A1,1,0,0,0,2,5v6a1,1,0,0,0,1,1H5.38l.29.29L7.5,14.12l1.83-1.83L9.62,12H13a1,1,0,0,0,1-1V5a1,1,0,0,0-1-1H3M3,3H13a2,2,0,0,1,2,2v6a2,2,0,0,1-2,2H10L8.21,14.83a1,1,0,0,1-1.41,0h0L5,13H3a2,2,0,0,1-2-2V5A2,2,0,0,1,3,3Z"/></g></g></svg>