<?xml version="1.0" encoding="utf-8"?>
<!-- Generator: Adobe Illustrator 18.0.0, SVG Export Plug-In . SVG Version: 6.00 Build 0)  -->
<!DOCTYPE svg PUBLIC "-//W3C//DTD SVG 1.1//EN" "http://www.w3.org/Graphics/SVG/1.1/DTD/svg11.dtd">
<svg version="1.1"
	 id="svg2" xmlns:dc="http://purl.org/dc/elements/1.1/" xmlns:cc="http://creativecommons.org/ns#" xmlns:rdf="http://www.w3.org/1999/02/22-rdf-syntax-ns#" xmlns:svg="http://www.w3.org/2000/svg" xmlns:sodipodi="http://sodipodi.sourceforge.net/DTD/sodipodi-0.dtd" xmlns:inkscape="http://www.inkscape.org/namespaces/inkscape" inkscape:version="0.48.4 r9939" sodipodi:docname="computer-laptop.svg"
	 xmlns="http://www.w3.org/2000/svg" xmlns:xlink="http://www.w3.org/1999/xlink" x="0px" y="0px" viewBox="0 0 48 48"
	 enable-background="new 0 0 48 48" xml:space="preserve">
<sodipodi:namedview  id="base" inkscape:cy="20.633099" inkscape:cx="8.8186329" inkscape:zoom="11.583333" borderopacity="1.0" bordercolor="#666666" showgrid="true" pagecolor="#ffffff" inkscape:window-maximized="1" inkscape:snap-nodes="true" inkscape:object-paths="true" inkscape:object-nodes="true" inkscape:window-y="24" inkscape:window-x="65" inkscape:window-height="744" inkscape:window-width="1301" inkscape:snap-bbox="true" inkscape:current-layer="layer1" inkscape:document-units="px" inkscape:pageshadow="2" inkscape:pageopacity="0.0" inkscape:snap-global="true">
	<inkscape:grid  type="xygrid" enabled="true" visible="true" id="grid3003" empspacing="6" snapvisiblegridlinesonly="true">
		</inkscape:grid>
</sodipodi:namedview>
<g id="layer1_1_" transform="translate(0,-1004.3622)" inkscape:label="Layer 1" inkscape:groupmode="layer">
	<path id="path3788" inkscape:connector-curvature="0" opacity="0.2" fill="#FFFFFF" enable-background="new    " d="M24,1050.3
		c-20.9,0-23.2-0.1-23.4-15.1c0.3,14.1,2.8,14.1,23.4,14.1s23.1,0,23.4-14.1C47.2,1050.2,44.9,1050.3,24,1050.3z"/>
	
		<linearGradient id="path3757_1_" gradientUnits="userSpaceOnUse" x1="36" y1="1058.7383" x2="36" y2="972.4166" gradientTransform="matrix(0.5 0 0 0.5 6 520.1811)">
		<stop  offset="0" style="stop-color:#E6E6E6"/>
		<stop  offset="1" style="stop-color:#F9F9F9"/>
	</linearGradient>
	<path id="path3757" inkscape:connector-curvature="0" sodipodi:nodetypes="zzzzz" fill="url(#path3757_1_)" d="M24,1006.4
		c-23.5,0-23.5,0-23.5,21.6c0,21.6,0,21.6,23.5,21.6s23.5,0,23.5-21.6C47.5,1006.4,47.5,1006.4,24,1006.4z"/>
	<g id="g3788" transform="translate(40,0)">
		<linearGradient id="path3777_1_" gradientUnits="userSpaceOnUse" x1="-39.5423" y1="1027.9697" x2="7.5423" y2="1027.9697">
			<stop  offset="0" style="stop-color:#FFFFFF"/>
			<stop  offset="1" style="stop-color:#FFFFFF"/>
		</linearGradient>
		
			<path id="path3777" inkscape:connector-curvature="0" sodipodi:nodetypes="zzzzz" opacity="7.999998e-002" fill="url(#path3777_1_)" enable-background="new    " d="
			M-16,1006.4c-23.5,0-23.5,0-23.5,21.6c0,21.6,0,21.6,23.5,21.6s23.5,0,23.5-21.6C7.5,1006.4,7.5,1006.4-16,1006.4z"/>
		
			<linearGradient id="path3787_1_" gradientUnits="userSpaceOnUse" x1="-4.7296" y1="1054.8478" x2="-61.6235" y2="997.9539" gradientTransform="matrix(0.5 0 0 0.5 6 520.1811)">
			<stop  offset="0" style="stop-color:#000000"/>
			<stop  offset="1" style="stop-color:#FFFFFF"/>
		</linearGradient>
		
			<path id="path3787" inkscape:connector-curvature="0" sodipodi:nodetypes="zzzzz" opacity="7.999998e-002" fill="url(#path3787_1_)" enable-background="new    " d="
			M-16,1006.4c-23.5,0-23.5,0-23.5,21.6c0,21.6,0,21.6,23.5,21.6s23.5,0,23.5-21.6C7.5,1006.4,7.5,1006.4-16,1006.4z"/>
	</g>
	<g id="g3813_1_" transform="translate(-47.998,993.3622)">
	</g>
	<path id="path3770" opacity="0.1" enable-background="new    " d="M24,1006.4c-20.9,0-23.2,0.1-23.4,15.1
		c0.3-14.1,2.8-14.1,23.4-14.1s23.1,0,23.4,14.1C47.2,1006.5,44.9,1006.4,24,1006.4z"/>
</g>
<g id="layer1" transform="translate(0,-1004.3622)" inkscape:label="Layer 1" inkscape:groupmode="layer">
	<g id="g3813" transform="translate(-47.998,993.3622)">
	</g>
	<path id="rect3783" inkscape:connector-curvature="0" sodipodi:nodetypes="cccccccccc" fill="#212121" d="M7,1012.9v21.7h34v-21.7
		H7z M8.9,1014.8h30.2v17H8.9V1014.8z"/>
	<rect id="rect3788" x="8.9" y="1014.8" fill="#FF9800" width="30.2" height="17"/>
	<path id="rect3820" inkscape:connector-curvature="0" sodipodi:nodetypes="ccccc" fill="#212121" fill-opacity="0.6774" d="
		M10.8,1028v2.8h26.4v-2.8H10.8z"/>
	<rect id="rect3823" x="13.6" y="1026.1" fill="#FF5252" width="3.8" height="3.8"/>
	<rect id="rect3825" x="19.3" y="1026.1" fill="#64B5F6" width="3.8" height="3.8"/>
	<rect id="rect3827" x="24.9" y="1026.1" fill="#76FF03" width="3.8" height="3.8"/>
	<rect id="rect3829" x="30.6" y="1026.1" fill="#B3E5FC" width="3.8" height="3.8"/>
	<rect id="rect3790" x="3.2" y="1041.2" fill="#212121" width="41.5" height="1.9"/>
	<path id="rect3798" inkscape:connector-curvature="0" sodipodi:nodetypes="ccccc" fill="#9E9E9E" d="M7,1034.6l-3.8,6.6h41.5
		l-3.8-6.6H7z"/>
	<path id="path3001" inkscape:connector-curvature="0" sodipodi:nodetypes="ccccc" fill="#424242" d="M8.9,1035.5l-0.9,2.8H40
		l-0.9-2.8H8.9z"/>
	<path id="path3003" inkscape:connector-curvature="0" sodipodi:nodetypes="ccccc" fill="#424242" d="M18.3,1039.3v0.9h11.3v-0.9
		H18.3z"/>
</g>
</svg>
