<?xml version="1.0" encoding="utf-8"?>
<!-- Generator: Adobe Illustrator 18.0.0, SVG Export Plug-In . SVG Version: 6.00 Build 0)  -->
<!DOCTYPE svg PUBLIC "-//W3C//DTD SVG 1.1//EN" "http://www.w3.org/Graphics/SVG/1.1/DTD/svg11.dtd">
<svg version="1.1"
	 id="svg2" sodipodi:docname="block-device.svg" xmlns:cc="http://creativecommons.org/ns#" xmlns:dc="http://purl.org/dc/elements/1.1/" xmlns:rdf="http://www.w3.org/1999/02/22-rdf-syntax-ns#" xmlns:inkscape="http://www.inkscape.org/namespaces/inkscape" xmlns:sodipodi="http://sodipodi.sourceforge.net/DTD/sodipodi-0.dtd" xmlns:svg="http://www.w3.org/2000/svg" inkscape:version="0.48.4 r9939"
	 xmlns="http://www.w3.org/2000/svg" xmlns:xlink="http://www.w3.org/1999/xlink" x="0px" y="0px" viewBox="-6190 3774.9 48 48"
	 style="enable-background:new -6190 3774.9 48 48;" xml:space="preserve">
<style type="text/css">
	.st0{fill:#CFD8DC;}
	.st1{fill:#616161;}
	.st2{fill:#212121;}
	.st3{fill:#F9A825;}
	.st4{fill:#424242;}
	.st5{fill:#37474F;}
	.st6{fill:#78909C;}
	.st7{opacity:0.2;enable-background:new    ;}
</style>
<g>
	<path class="st0" d="M-6166.5,3792.4h-0.7v3.2h0.5c1.2,0,1.8-0.5,1.8-1.6C-6164.8,3792.9-6165.3,3792.4-6166.5,3792.4z"/>
	<path class="st0" d="M-6142,3798.9c0-22,0-22-24-22s-24,0-24,22c0,5.9,0,10.3,0.5,13.4h47C-6142,3809.1-6142,3804.8-6142,3798.9z
		 M-6184.1,3808.3c-0.9,0-1.6-0.7-1.6-1.6c0-0.9,0.7-1.7,1.6-1.7c0.9,0,1.6,0.7,1.6,1.7C-6182.5,3807.6-6183.2,3808.3-6184.1,3808.3
		z M-6184.1,3784.1c-0.9,0-1.6-0.7-1.6-1.6c0-0.9,0.7-1.6,1.6-1.6c0.9,0,1.6,0.7,1.6,1.6
		C-6182.5,3783.4-6183.2,3784.1-6184.1,3784.1z M-6175.9,3796.4h-1.2v-2.1h-2.3v2.1h-1.2v-4.9h1.2v1.9h2.3v-1.9h1.2V3796.4z
		 M-6169.6,3793.9c0,0.8-0.3,1.4-0.8,1.8c-0.5,0.4-1.3,0.6-2.4,0.6h-1.7v-4.9h1.8c1,0,1.7,0.2,2.2,0.6
		C-6169.8,3792.6-6169.6,3793.2-6169.6,3793.9L-6169.6,3793.9z M-6163.5,3793.9c0,0.8-0.3,1.4-0.8,1.8c-0.5,0.4-1.3,0.6-2.4,0.6
		h-1.7v-4.9h1.8c1,0,1.7,0.2,2.2,0.6C-6163.8,3792.6-6163.5,3793.2-6163.5,3793.9L-6163.5,3793.9z M-6147.9,3808.3
		c-0.9,0-1.6-0.7-1.6-1.6c0-0.9,0.7-1.7,1.6-1.7c0.9,0,1.6,0.7,1.6,1.7C-6146.2,3807.6-6146.9,3808.3-6147.9,3808.3z
		 M-6147.9,3784.1c-0.9,0-1.6-0.7-1.6-1.6c0-0.9,0.7-1.6,1.6-1.6c0.9,0,1.6,0.7,1.6,1.6C-6146.2,3783.4-6146.9,3784.1-6147.9,3784.1
		z"/>
	<path class="st0" d="M-6172.5,3792.4h-0.7v3.2h0.5c1.2,0,1.8-0.5,1.8-1.6C-6170.9,3792.9-6171.4,3792.4-6172.5,3792.4z"/>
	<path class="st1" d="M-6189.5,3812.3c0.9,5.9,3.4,7.7,10.5,8.3c3.2,0.3,7.4,0.3,12.8,0.3h0.4c9.4,0,15.1,0,18.6-1.4
		c2.9-1.2,4.2-3.3,4.7-7.2H-6189.5z"/>
	<path class="st2" d="M-6147.2,3815h-1.2v2.4v1.2h-15.9v-1.2v-2.4h-2.4v2.4v1.2h-11v-1.2v-2.4h-1.2v5.6c3.2,0.3,7.4,0.3,12.8,0.3
		h0.4c9.4,0,15.1,0,18.6-1.4V3815z"/>
	<rect x="-6157" y="3815" width="1.2" height="2.4"/>
	<rect x="-6154.6" y="3815" width="1.2" height="2.4"/>
	<rect x="-6164.3" y="3815" width="1.2" height="2.4"/>
	<rect x="-6159.4" y="3815" width="1.2" height="2.4"/>
	<rect x="-6149.7" y="3815" width="1.2" height="2.4"/>
	<rect x="-6161.9" y="3815" width="1.2" height="2.4"/>
	<rect x="-6152.1" y="3815" width="1.2" height="2.4"/>
	<rect x="-6175.3" y="3815" width="1.2" height="2.4"/>
	<rect x="-6177.8" y="3815" width="1.2" height="2.4"/>
	<rect x="-6168" y="3815" width="1.2" height="2.4"/>
	<rect x="-6172.9" y="3815" width="1.2" height="2.4"/>
	<rect x="-6170.4" y="3815" width="1.2" height="2.4"/>
	<rect x="-6174.1" y="3815" class="st3" width="1.2" height="2.4"/>
	<rect x="-6171.7" y="3815" class="st3" width="1.2" height="2.4"/>
	<rect x="-6169.2" y="3815" class="st3" width="1.2" height="2.4"/>
	<rect x="-6176.6" y="3815" class="st3" width="1.2" height="2.4"/>
	<rect x="-6160.7" y="3815" class="st3" width="1.2" height="2.4"/>
	<rect x="-6158.2" y="3815" class="st3" width="1.2" height="2.4"/>
	<rect x="-6163.1" y="3815" class="st3" width="1.2" height="2.4"/>
	<rect x="-6153.3" y="3815" class="st3" width="1.2" height="2.4"/>
	<rect x="-6150.9" y="3815" class="st3" width="1.2" height="2.4"/>
	<rect x="-6155.8" y="3815" class="st3" width="1.2" height="2.4"/>
	<polygon class="st4" points="-6150.9,3817.4 -6152.1,3817.4 -6153.3,3817.4 -6154.6,3817.4 -6155.8,3817.4 -6157,3817.4 
		-6158.2,3817.4 -6159.4,3817.4 -6160.7,3817.4 -6161.9,3817.4 -6163.1,3817.4 -6164.3,3817.4 -6164.3,3818.6 -6148.4,3818.6 
		-6148.4,3817.4 -6149.7,3817.4 	"/>
	<polygon class="st4" points="-6169.2,3817.4 -6170.4,3817.4 -6171.7,3817.4 -6172.9,3817.4 -6174.1,3817.4 -6175.3,3817.4 
		-6176.6,3817.4 -6177.8,3817.4 -6177.8,3818.6 -6166.8,3818.6 -6166.8,3817.4 -6168,3817.4 	"/>
	<circle class="st5" cx="-6184.1" cy="3782.5" r="1.6"/>
	<circle class="st5" cx="-6147.9" cy="3782.5" r="1.6"/>
	<circle class="st5" cx="-6184.1" cy="3806.7" r="1.6"/>
	<circle class="st5" cx="-6147.9" cy="3806.7" r="1.6"/>
	<polygon class="st6" points="-6177.2,3793.4 -6179.5,3793.4 -6179.5,3791.5 -6180.7,3791.5 -6180.7,3796.4 -6179.5,3796.4 
		-6179.5,3794.3 -6177.2,3794.3 -6177.2,3796.4 -6175.9,3796.4 -6175.9,3791.5 -6177.2,3791.5 	"/>
	<path class="st6" d="M-6170.4,3792.1c-0.5-0.4-1.3-0.6-2.2-0.6h-1.8v4.9h1.7c1,0,1.8-0.2,2.4-0.6c0.6-0.4,0.8-1,0.8-1.8v0
		C-6169.6,3793.2-6169.8,3792.6-6170.4,3792.1z M-6172.7,3795.5h-0.5v-3.2h0.7c1.1,0,1.7,0.5,1.7,1.6
		C-6170.9,3795-6171.5,3795.5-6172.7,3795.5z"/>
	<path class="st6" d="M-6164.3,3792.1c-0.5-0.4-1.3-0.6-2.2-0.6h-1.8v4.9h1.7c1,0,1.8-0.2,2.4-0.6c0.6-0.4,0.8-1,0.8-1.8v0
		C-6163.5,3793.2-6163.8,3792.6-6164.3,3792.1z M-6166.6,3795.5h-0.5v-3.2h0.7c1.1,0,1.7,0.5,1.7,1.6
		C-6164.8,3795-6165.4,3795.5-6166.6,3795.5z"/>
</g>
<path id="path3770" class="st7" d="M-6166,3776.9c-21.3,0-23.7,0.1-23.9,15.4c0.3-14.4,2.9-14.4,23.9-14.4s23.6,0,23.9,14.4
	C-6142.3,3776.9-6144.7,3776.9-6166,3776.9z"/>
</svg>
