<?xml version="1.0" encoding="utf-8"?>
<!-- Generator: Adobe Illustrator 18.0.0, SVG Export Plug-In . SVG Version: 6.00 Build 0)  -->
<!DOCTYPE svg PUBLIC "-//W3C//DTD SVG 1.1//EN" "http://www.w3.org/Graphics/SVG/1.1/DTD/svg11.dtd">
<svg version="1.1"
	 id="svg2" sodipodi:docname="drive-harddisk-ieee1394.svg" xmlns:cc="http://creativecommons.org/ns#" xmlns:dc="http://purl.org/dc/elements/1.1/" xmlns:rdf="http://www.w3.org/1999/02/22-rdf-syntax-ns#" xmlns:inkscape="http://www.inkscape.org/namespaces/inkscape" xmlns:sodipodi="http://sodipodi.sourceforge.net/DTD/sodipodi-0.dtd" xmlns:svg="http://www.w3.org/2000/svg" inkscape:version="0.48.4 r9939"
	 xmlns="http://www.w3.org/2000/svg" xmlns:xlink="http://www.w3.org/1999/xlink" x="0px" y="0px" viewBox="-12 -12 48 48"
	 style="enable-background:new -12 -12 48 48;" xml:space="preserve">
<style type="text/css">
	.st0{fill:#CFD8DC;}
	.st1{fill:#78909C;}
	.st2{fill:#616161;}
	.st3{fill:#212121;}
	.st4{fill:#F9A825;}
	.st5{fill:#424242;}
	.st6{fill:#37474F;}
	.st7{opacity:0.2;enable-background:new    ;}
</style>
<sodipodi:namedview  id="base" pagecolor="#ffffff" borderopacity="1.0" inkscape:cx="0.42647693" showgrid="true" inkscape:cy="11.357426" inkscape:zoom="8.1906535" bordercolor="#666666" inkscape:window-maximized="1" inkscape:snap-global="true" inkscape:window-y="24" inkscape:pageshadow="2" inkscape:pageopacity="0.0" inkscape:document-units="px" inkscape:current-layer="layer1" inkscape:window-height="744" inkscape:window-width="1301" inkscape:snap-bbox="true" inkscape:window-x="65" inkscape:object-paths="true" inkscape:object-nodes="true" inkscape:snap-nodes="true">
	<inkscape:grid  type="xygrid" visible="true" enabled="true" id="grid3003" empspacing="6" snapvisiblegridlinesonly="true">
		</inkscape:grid>
</sodipodi:namedview>
<g>
	<path class="st0" d="M36,12c0-22,0-22-24-22s-24,0-24,22c0,5.9,0,10.3,0.5,13.4h47C36,22.3,36,17.9,36,12z M-6.2,21.5
		c-0.9,0-1.7-0.7-1.7-1.6s0.7-1.7,1.7-1.7s1.6,0.7,1.6,1.7S-5.2,21.5-6.2,21.5z M-6.2-2.7c-0.9,0-1.7-0.7-1.7-1.7
		C-7.8-5.3-7.1-6-6.2-6s1.6,0.7,1.6,1.6C-4.5-3.5-5.2-2.7-6.2-2.7z M2.1,9.6H0.8V7.4h-2.3v2.1h-1.2V4.7h1.2v1.9h2.3V4.7h1.2V9.6z
		 M8.4,7.1c0,0.8-0.3,1.4-0.8,1.8C7.1,9.3,6.3,9.6,5.2,9.6H3.6V4.7h1.8c1,0,1.7,0.2,2.2,0.6C8.2,5.7,8.4,6.3,8.4,7.1L8.4,7.1z
		 M14.5,7.1c0,0.8-0.3,1.4-0.8,1.8c-0.5,0.4-1.3,0.6-2.4,0.6H9.6V4.7h1.8c1,0,1.7,0.2,2.2,0.6C14.2,5.7,14.5,6.3,14.5,7.1L14.5,7.1z
		 M30.2,21.5c-0.9,0-1.7-0.7-1.7-1.6s0.7-1.7,1.7-1.7s1.7,0.7,1.7,1.7S31.1,21.5,30.2,21.5z M30.2-2.7c-0.9,0-1.7-0.7-1.7-1.7
		c0-0.9,0.7-1.6,1.7-1.6s1.7,0.7,1.7,1.6C31.8-3.5,31.1-2.7,30.2-2.7z"/>
	<rect x="-4.5" y="3.4" class="st0" width="22.4" height="7.6"/>
	<path id="图标" inkscape:connector-curvature="0" class="st1" d="M18.9-0.9l-4.3,4.1L18,6.4l4.3-4L18.9-0.9z M5.7-0.7L1.7,3
		l1.4,1.3l4-3.8C7,0.5,5.7-0.7,5.7-0.7z M8.3,1.7l-4,3.8l1.4,1.3l4-3.8C9.6,3,8.3,1.7,8.3,1.7z M11.9,4.9c-2.3,0-4.2,1.8-4.2,4
		s1.9,4,4.2,4s4.2-1.8,4.2-4S14.3,4.9,11.9,4.9L11.9,4.9z M11.9,6.6c1.3,0,2.4,1,2.4,2.3s-1,2.3-2.4,2.3c-1.3,0-2.4-1-2.4-2.3
		C9.6,7.7,10.6,6.6,11.9,6.6L11.9,6.6z M9.1,14.5v1.7h5.6v-1.7H9.1z M9.1,18.1v1.7h5.6v-1.7H9.1z"/>
	<path class="st2" d="M-11.5,25.4c0.9,5.9,3.4,7.7,10.5,8.3C2.2,34,6.4,34,11.8,34h0.4c9.4,0,15.1,0,18.6-1.4
		c2.9-1.2,4.2-3.3,4.7-7.2H-11.5z"/>
	<path class="st3" d="M30.8,28.1h-1.2v2.4v1.2H13.7v-1.2v-2.4h-2.4v2.4v1.2h-11v-1.2v-2.4H-1v5.6C2.2,34,6.4,34,11.8,34h0.4
		c9.4,0,15.1,0,18.6-1.4V28.1z"/>
	<rect x="21" y="28.1" width="1.2" height="2.4"/>
	<rect x="23.4" y="28.1" width="1.2" height="2.4"/>
	<rect x="13.7" y="28.1" width="1.2" height="2.4"/>
	<rect x="18.6" y="28.1" width="1.2" height="2.4"/>
	<rect x="28.3" y="28.1" width="1.2" height="2.4"/>
	<rect x="16.1" y="28.1" width="1.2" height="2.4"/>
	<rect x="25.9" y="28.1" width="1.2" height="2.4"/>
	<rect x="2.7" y="28.1" width="1.2" height="2.4"/>
	<rect x="0.2" y="28.1" width="1.2" height="2.4"/>
	<rect x="10" y="28.1" width="1.2" height="2.4"/>
	<rect x="5.1" y="28.1" width="1.2" height="2.4"/>
	<rect x="7.6" y="28.1" width="1.2" height="2.4"/>
	<rect x="3.9" y="28.1" class="st4" width="1.2" height="2.4"/>
	<rect x="6.3" y="28.1" class="st4" width="1.2" height="2.4"/>
	<rect x="8.8" y="28.1" class="st4" width="1.2" height="2.4"/>
	<rect x="1.4" y="28.1" class="st4" width="1.2" height="2.4"/>
	<rect x="17.3" y="28.1" class="st4" width="1.2" height="2.4"/>
	<rect x="19.8" y="28.1" class="st4" width="1.2" height="2.4"/>
	<rect x="14.9" y="28.1" class="st4" width="1.2" height="2.4"/>
	<rect x="24.7" y="28.1" class="st4" width="1.2" height="2.4"/>
	<rect x="27.1" y="28.1" class="st4" width="1.2" height="2.4"/>
	<rect x="22.2" y="28.1" class="st4" width="1.2" height="2.4"/>
	<polygon class="st5" points="27.1,30.6 25.9,30.6 24.7,30.6 23.4,30.6 22.2,30.6 21,30.6 19.8,30.6 18.6,30.6 17.3,30.6 16.1,30.6 
		14.9,30.6 13.7,30.6 13.7,31.8 29.6,31.8 29.6,30.6 28.3,30.6 	"/>
	<polygon class="st5" points="8.8,30.6 7.6,30.6 6.3,30.6 5.1,30.6 3.9,30.6 2.7,30.6 1.4,30.6 0.2,30.6 0.2,31.8 11.2,31.8 
		11.2,30.6 10,30.6 	"/>
	<circle class="st6" cx="-6.2" cy="-4.4" r="1.6"/>
	<circle class="st6" cx="30.2" cy="-4.4" r="1.6"/>
	<circle class="st6" cx="-6.2" cy="19.8" r="1.6"/>
	<circle class="st6" cx="30.2" cy="19.8" r="1.6"/>
</g>
<path id="path3770" class="st7" d="M12-10C-9.3-10-11.7-9.9-11.9,5.4C-11.6-9-9-9,12-9S35.6-9,35.9,5.4C35.7-9.9,33.3-10,12-10z"/>
</svg>
