<?xml version="1.0" encoding="utf-8"?>
<!-- Generator: Adobe Illustrator 15.0.0, SVG Export Plug-In . SVG Version: 6.00 Build 0)  -->
<!DOCTYPE svg PUBLIC "-//W3C//DTD SVG 1.1//EN" "http://www.w3.org/Graphics/SVG/1.1/DTD/svg11.dtd">
<svg version="1.1"
	 id="svg2" sodipodi:docname="drive-harddisk-scsi.svg" inkscape:version="0.48.4 r9939" xmlns:cc="http://creativecommons.org/ns#" xmlns:dc="http://purl.org/dc/elements/1.1/" xmlns:rdf="http://www.w3.org/1999/02/22-rdf-syntax-ns#" xmlns:inkscape="http://www.inkscape.org/namespaces/inkscape" xmlns:sodipodi="http://sodipodi.sourceforge.net/DTD/sodipodi-0.dtd" xmlns:svg="http://www.w3.org/2000/svg"
	 xmlns="http://www.w3.org/2000/svg" xmlns:xlink="http://www.w3.org/1999/xlink" x="0px" y="0px" width="48px" height="48px"
	 viewBox="0 0 48 48" enable-background="new 0 0 48 48" xml:space="preserve">
<sodipodi:namedview  id="base" inkscape:snap-nodes="true" inkscape:object-nodes="true" inkscape:object-paths="true" inkscape:window-x="65" inkscape:snap-bbox="true" inkscape:window-width="1301" inkscape:window-height="744" inkscape:current-layer="layer1" inkscape:document-units="px" inkscape:pageopacity="0.0" inkscape:pageshadow="2" inkscape:window-y="24" inkscape:snap-global="true" bordercolor="#666666" inkscape:zoom="11.583333" inkscape:cy="17.911716" showgrid="true" inkscape:cx="23.980529" borderopacity="1.0" pagecolor="#ffffff" inkscape:window-maximized="1">
	<inkscape:grid  type="xygrid" visible="true" enabled="true" id="grid3003" empspacing="6" snapvisiblegridlinesonly="true">
		</inkscape:grid>
</sodipodi:namedview>
<g id="layer1_1_" transform="translate(0,-1004.3622)" inkscape:groupmode="layer" inkscape:label="Layer 1">
	<path id="path3788" inkscape:connector-curvature="0" opacity="0.2" fill="#FFFFFF" enable-background="new    " d="M24,1051.138
		c-21.201,0-23.601-0.201-23.801-15.4c0.4,14.4,2.801,14.4,23.801,14.4s23.6,0,23.799-14.4
		C47.6,1051.138,45.199,1051.138,24,1051.138z"/>
	
		<linearGradient id="path3757_1_" gradientUnits="userSpaceOnUse" x1="-237.3989" y1="-388.6373" x2="-237.3989" y2="-381.5416" gradientTransform="matrix(6.2008 0 0 -6.2008 1496.0609 -1359.5919)">
		<stop  offset="0" style="stop-color:#E6E6E6"/>
		<stop  offset="1" style="stop-color:#F9F9F9"/>
	</linearGradient>
	<path id="path3757" sodipodi:nodetypes="zzzzz" inkscape:connector-curvature="0" fill="url(#path3757_1_)" d="M24,1006.337
		c-24,0-24,0-24,22c0,22,0,22,24,22s24,0,24-22C48,1006.337,48,1006.337,24,1006.337z"/>
	<g id="g3788" transform="translate(40,0)">
		<path id="path3777" sodipodi:nodetypes="zzzzz" inkscape:connector-curvature="0" fill="#CFD8DC" d="M-16,1006.337
			c-24,0-24,0-24,22c0,22,0,22,24,22s24,0,24-22C8,1006.337,8,1006.337-16,1006.337z"/>
		
			<linearGradient id="path3787_1_" gradientUnits="userSpaceOnUse" x1="-409.3804" y1="-395.2233" x2="-409.3773" y2="-398.7804" gradientTransform="matrix(12.4017 0 0 -12.4017 5060.9995 -3895.3032)">
			<stop  offset="0.011" style="stop-color:#FFFFFF"/>
			<stop  offset="1" style="stop-color:#4D4D4D"/>
		</linearGradient>
		
			<path id="path3787" sodipodi:nodetypes="zzzzz" inkscape:connector-curvature="0" opacity="0.4" fill="url(#path3787_1_)" enable-background="new    " d="
			M-16,1006.337c-24,0-24,0-24,22c0,22,0,22,24,22s24,0,24-22C8,1006.337,8,1006.337-16,1006.337z"/>
	</g>
	<g id="g3813_1_" transform="translate(-47.998,993.3622)">
	</g>
	<path id="path3770" opacity="0.2" enable-background="new    " d="M24,1006.337c-21.201,0-23.601,0.199-23.801,15.4
		c0.4-14.4,2.801-14.4,23.801-14.4s23.6,0,23.799,14.4C47.6,1006.337,45.199,1006.337,24,1006.337z"/>
</g>
<g>
	<g>
		<g>
			<g>
				<defs>
					<path id="SVGID_1_" d="M24,2.099c-24,0-24,0-24,22c0,22,0,22,24,22s24,0,24-22C48,2.099,48,2.099,24,2.099z"/>
				</defs>
				<clipPath id="SVGID_2_">
					<use xlink:href="#SVGID_1_"  overflow="visible"/>
				</clipPath>
				<rect id="rect3089_1_" x="0.199" y="34.898" clip-path="url(#SVGID_2_)" fill="#616161" width="47.801" height="11.4"/>
			</g>
		</g>
	</g>
</g>
<rect id="rect3091_1_" x="15" y="39.699" fill="#212121" width="26" height="4"/>
<rect id="rect3885_1_" x="27" y="39.699" width="13" height="2"/>
<rect id="rect3887_1_" x="16" y="39.699" width="9" height="2"/>
<rect id="rect3865_1_" x="19" y="39.699" fill="#F9A825" width="1" height="2"/>
<rect id="rect3867_1_" x="21" y="39.699" fill="#F9A825" width="1" height="2"/>
<rect id="rect3869_1_" x="23" y="39.699" fill="#F9A825" width="1" height="2"/>
<rect id="rect3871_1_" x="17" y="39.699" fill="#F9A825" width="1" height="2"/>
<rect id="rect3873_1_" x="30" y="39.699" fill="#F9A825" width="1" height="2"/>
<rect id="rect3875_1_" x="32" y="39.699" fill="#F9A825" width="1" height="2"/>
<rect id="rect3877_1_" x="28" y="39.699" fill="#F9A825" width="1" height="2"/>
<rect id="rect3879_1_" x="36" y="39.699" fill="#F9A825" width="1" height="2"/>
<rect id="rect3881_1_" x="38" y="39.699" fill="#F9A825" width="1" height="2"/>
<rect id="rect3883_1_" x="34" y="39.699" fill="#F9A825" width="1" height="2"/>
<rect id="rect3861_1_" x="27" y="41.699" fill="#424242" width="13" height="1"/>
<rect id="rect3863_1_" x="16" y="41.699" fill="#424242" width="9" height="1"/>
<path id="path3901_1_" sodipodi:type="arc" sodipodi:cy="9" sodipodi:rx="1" sodipodi:cx="7" sodipodi:ry="1" fill="#37474F" d="
	M9,9.299c0,0.8-0.601,1.4-1.4,1.4c-0.801,0-1.6-0.601-1.6-1.4c0-0.801,0.6-1.4,1.399-1.4S9,8.499,9,9.299z"/>
<path id="path3903_1_" sodipodi:type="arc" sodipodi:cy="9" sodipodi:rx="1" sodipodi:cx="7" sodipodi:ry="1" fill="#37474F" d="
	M42,9.299c0,0.8-0.602,1.4-1.4,1.4c-0.801,0-1.6-0.601-1.6-1.4c0-0.801,0.6-1.4,1.398-1.4C41.199,7.899,42,8.499,42,9.299z"/>
<path id="path3905_1_" sodipodi:type="arc" sodipodi:cy="9" sodipodi:rx="1" sodipodi:cx="7" sodipodi:ry="1" fill="#37474F" d="
	M9,31.299c0,0.801-0.601,1.4-1.4,1.4c-0.801,0-1.6-0.6-1.6-1.4c0-0.799,0.6-1.6,1.399-1.6S9,30.5,9,31.299z"/>
<path id="path3907_1_" sodipodi:type="arc" sodipodi:cy="9" sodipodi:rx="1" sodipodi:cx="7" sodipodi:ry="1" fill="#37474F" d="
	M42,31.299c0,0.801-0.602,1.4-1.4,1.4c-0.801,0-1.6-0.6-1.6-1.4c0-0.799,0.6-1.398,1.398-1.398C41.199,29.699,42,30.5,42,31.299z"/>
<g id="g3792" transform="matrix(0.97297297,0,0,1,58.297297,-16.999983)">
	<path id="rect3782" inkscape:connector-curvature="0" fill="#78909C" d="M-36.083,25.899l-9.8,9.801l9.8,9.8l7.399-7.402h-3.202
		l-4.197,4.201l-6.6-6.599l6.6-6.601l4.197,4.2h3.202L-36.083,25.899z"/>
	<rect id="rect3787" x="-37.283" y="34.499" fill="#78909C" width="12.6" height="2.201"/>
</g>
</svg>
