<?xml version="1.0" encoding="utf-8"?>
<!-- Generator: Adobe Illustrator 15.0.0, SVG Export Plug-In . SVG Version: 6.00 Build 0)  -->
<!DOCTYPE svg PUBLIC "-//W3C//DTD SVG 1.1//EN" "http://www.w3.org/Graphics/SVG/1.1/DTD/svg11.dtd">
<svg version="1.1"
	 id="svg2" sodipodi:docname="drive-harddisk-system.svg" inkscape:version="0.48.4 r9939" xmlns:cc="http://creativecommons.org/ns#" xmlns:dc="http://purl.org/dc/elements/1.1/" xmlns:rdf="http://www.w3.org/1999/02/22-rdf-syntax-ns#" xmlns:inkscape="http://www.inkscape.org/namespaces/inkscape" xmlns:sodipodi="http://sodipodi.sourceforge.net/DTD/sodipodi-0.dtd" xmlns:svg="http://www.w3.org/2000/svg"
	 xmlns="http://www.w3.org/2000/svg" xmlns:xlink="http://www.w3.org/1999/xlink" x="0px" y="0px" width="48px" height="48px"
	 viewBox="0 0 48 48" enable-background="new 0 0 48 48" xml:space="preserve">
<sodipodi:namedview  id="base" inkscape:snap-nodes="false" inkscape:object-nodes="true" inkscape:object-paths="true" inkscape:window-x="65" inkscape:snap-bbox="true" inkscape:window-width="1301" inkscape:window-height="744" inkscape:current-layer="layer1" inkscape:document-units="px" inkscape:pageopacity="0.0" inkscape:pageshadow="2" inkscape:window-y="24" inkscape:snap-global="true" bordercolor="#666666" inkscape:zoom="11.583333" inkscape:cy="24.409259" showgrid="true" inkscape:cx="14.468284" borderopacity="1.0" pagecolor="#ffffff" inkscape:window-maximized="1">
	<inkscape:grid  type="xygrid" visible="true" enabled="true" id="grid3003" empspacing="6" snapvisiblegridlinesonly="true">
		</inkscape:grid>
</sodipodi:namedview>
<g id="layer1_1_" transform="translate(0,-1004.3622)" inkscape:groupmode="layer" inkscape:label="Layer 1">
	<path id="path3788" inkscape:connector-curvature="0" opacity="0.2" fill="#FFFFFF" enable-background="new    " d="M24,1051.138
		c-21.201,0-23.601-0.201-23.801-15.4c0.4,14.4,2.801,14.4,23.801,14.4s23.6,0,23.799-14.4
		C47.6,1051.138,45.199,1051.138,24,1051.138z"/>
	
		<linearGradient id="path3757_1_" gradientUnits="userSpaceOnUse" x1="-237.3989" y1="-388.6378" x2="-237.3989" y2="-381.5416" gradientTransform="matrix(6.2008 0 0 -6.2008 1496.0609 -1359.5919)">
		<stop  offset="0" style="stop-color:#E6E6E6"/>
		<stop  offset="1" style="stop-color:#F9F9F9"/>
	</linearGradient>
	<path id="path3757" sodipodi:nodetypes="zzzzz" inkscape:connector-curvature="0" fill="url(#path3757_1_)" d="M24,1006.337
		c-24,0-24,0-24,22c0,22,0,22,24,22s24,0,24-22C48,1006.337,48,1006.337,24,1006.337z"/>
	<g id="g3788" transform="translate(40,0)">
		<path id="path3777" sodipodi:nodetypes="zzzzz" inkscape:connector-curvature="0" fill="#CFD8DC" d="M-16,1006.337
			c-24,0-24,0-24,22c0,22,0,22,24,22s24,0,24-22C8,1006.337,8,1006.337-16,1006.337z"/>
		
			<linearGradient id="path3787_1_" gradientUnits="userSpaceOnUse" x1="-409.3804" y1="-395.2233" x2="-409.3773" y2="-398.7804" gradientTransform="matrix(12.4017 0 0 -12.4017 5060.9995 -3895.3032)">
			<stop  offset="0.011" style="stop-color:#FFFFFF"/>
			<stop  offset="1" style="stop-color:#4D4D4D"/>
		</linearGradient>
		
			<path id="path3787" sodipodi:nodetypes="zzzzz" inkscape:connector-curvature="0" opacity="0.4" fill="url(#path3787_1_)" enable-background="new    " d="
			M-16,1006.337c-24,0-24,0-24,22c0,22,0,22,24,22s24,0,24-22C8,1006.337,8,1006.337-16,1006.337z"/>
	</g>
	<g id="g3813_1_" transform="translate(-47.998,993.3622)">
	</g>
	<path id="path3770" opacity="0.2" enable-background="new    " d="M24,1006.337c-21.201,0-23.601,0.199-23.801,15.4
		c0.4-14.4,2.801-14.4,23.801-14.4s23.6,0,23.799,14.4C47.6,1006.337,45.199,1006.337,24,1006.337z"/>
</g>
<g>
	<g>
		<g>
			<g>
				<defs>
					<path id="SVGID_1_" d="M24,2.099c-24,0-24,0-24,22c0,22,0,22,24,22s24,0,24-22C48,2.099,48,2.099,24,2.099z"/>
				</defs>
				<clipPath id="SVGID_2_">
					<use xlink:href="#SVGID_1_"  overflow="visible"/>
				</clipPath>
				<rect id="rect3089_1_" x="0.199" y="34.898" clip-path="url(#SVGID_2_)" fill="#616161" width="47.801" height="11.4"/>
			</g>
		</g>
	</g>
</g>
<rect id="rect3091_1_" x="15" y="39.699" fill="#212121" width="26" height="4"/>
<rect id="rect3885_1_" x="27" y="39.699" width="13" height="2"/>
<rect id="rect3887_1_" x="16" y="39.699" width="9" height="2"/>
<rect id="rect3865_1_" x="19" y="39.699" fill="#F9A825" width="1" height="2"/>
<rect id="rect3867_1_" x="21" y="39.699" fill="#F9A825" width="1" height="2"/>
<rect id="rect3869_1_" x="23" y="39.699" fill="#F9A825" width="1" height="2"/>
<rect id="rect3871_1_" x="17" y="39.699" fill="#F9A825" width="1" height="2"/>
<rect id="rect3873_1_" x="30" y="39.699" fill="#F9A825" width="1" height="2"/>
<rect id="rect3875_1_" x="32" y="39.699" fill="#F9A825" width="1" height="2"/>
<rect id="rect3877_1_" x="28" y="39.699" fill="#F9A825" width="1" height="2"/>
<rect id="rect3879_1_" x="36" y="39.699" fill="#F9A825" width="1" height="2"/>
<rect id="rect3881_1_" x="38" y="39.699" fill="#F9A825" width="1" height="2"/>
<rect id="rect3883_1_" x="34" y="39.699" fill="#F9A825" width="1" height="2"/>
<rect id="rect3861_1_" x="27" y="41.699" fill="#424242" width="13" height="1"/>
<rect id="rect3863_1_" x="16" y="41.699" fill="#424242" width="9" height="1"/>
<path id="path3901_1_" sodipodi:type="arc" sodipodi:cy="9" sodipodi:rx="1" sodipodi:cx="7" sodipodi:ry="1" fill="#37474F" d="
	M9,9.299c0,0.8-0.601,1.4-1.4,1.4c-0.801,0-1.6-0.601-1.6-1.4c0-0.801,0.6-1.4,1.399-1.4S9,8.499,9,9.299z"/>
<path id="path3903_1_" sodipodi:type="arc" sodipodi:cy="9" sodipodi:rx="1" sodipodi:cx="7" sodipodi:ry="1" fill="#37474F" d="
	M42,9.299c0,0.8-0.602,1.4-1.4,1.4c-0.801,0-1.6-0.601-1.6-1.4c0-0.801,0.6-1.4,1.398-1.4C41.199,7.899,42,8.499,42,9.299z"/>
<path id="path3905_1_" sodipodi:type="arc" sodipodi:cy="9" sodipodi:rx="1" sodipodi:cx="7" sodipodi:ry="1" fill="#37474F" d="
	M9,31.3c0,0.801-0.601,1.399-1.4,1.399c-0.801,0-1.6-0.6-1.6-1.399c0-0.799,0.6-1.601,1.399-1.601S9,30.501,9,31.3z"/>
<path id="path3907_1_" sodipodi:type="arc" sodipodi:cy="9" sodipodi:rx="1" sodipodi:cx="7" sodipodi:ry="1" fill="#37474F" d="
	M42,31.3c0,0.801-0.602,1.399-1.4,1.399c-0.801,0-1.6-0.6-1.6-1.399c0-0.799,0.6-1.398,1.398-1.398C41.199,29.699,42,30.501,42,31.3
	z"/>
<path id="rect2995" sodipodi:nodetypes="cccccccccccccccccccccccccsccscccccccccsccccccccccccccccccccccccccccccccscccccccccccccscccccccccccccccccccsccccccccccccccccccccccccccsccccccccccccccccccccccccccccccccc" inkscape:connector-curvature="0" fill="#78909C" d="
	M24.398,7.299c3.602,0,3.4,3.6,3.4,5.8c0,1.8,1.201,2.601,2,4C31,18.499,32,20.7,31.4,23.099c-0.199,0-0.199,0-0.199-0.199
	c0.199-0.2,0-0.601-0.201-0.801C30.801,21.9,30.6,21.7,30.4,21.7c0-1.399-0.602-2.799-1.199-3.601c-0.602-0.8-1.602-1.199-1-0.601
	c0.398,0.399,1.6,2,1,3.601c-0.201,0-0.4,0-0.4,0l0,0c-0.201-1.199-0.801-2.199-1-2.8c-0.4-1-1.201-2.801-1.6-4.2
	c0.199-0.2,0.199-0.2,0.199-0.2c0.199-0.199,0.199-0.4,0-0.6c0-0.2-0.199-0.2-0.199-0.4c0.199-0.199,0.199-0.6,0.199-1
	c0-1-0.602-1.8-1.199-1.8C24.6,10.099,24,10.899,24,11.7l0,0c-0.199,0-0.199,0-0.199,0h-0.4v0.199c0-0.6-0.4-1.199-1-1.199
	c-0.4,0-0.801,0.6-0.6,1.399c0,0.399,0.199,0.601,0.399,1c-0.2,0-0.2,0.2-0.2,0.2c-0.199,0.199-0.4,0.4-0.199,0.8
	C22,14.299,22,14.499,22.2,14.7c-0.2,1.6-1.2,3.799-1.8,5c-0.4,1-0.6,1.799-0.6,2.6c-1-1.2-0.201-2.801,0.199-3.6
	c0.4-0.801,0.4-1,0.4-1l0,0c-0.801,1.199-2.2,4,0,5.398c2.4,1.4,2.6,2.799,1.199,2.799C21.2,25.5,21,25.099,20.801,24.698
	c-0.4-0.6-0.601-1.2-1-1.6c-0.4-0.398-0.601-0.8-1.201-0.8c-0.199,0-0.199,0-0.399,0s-0.399,0.2-0.601,0.399
	c-0.199-1.801,0.801-3.8,2-5.399c0,0,0,0,0-0.2c0.201-0.199,0.201-0.398,0.4-0.398c1.2-1.201,1.4-2.201,1.4-3.4
	C21.399,11.899,20.399,7.7,24.398,7.299C24.199,7.299,24.199,7.299,24.398,7.299L24.398,7.299z M25,11.299
	C25,11.099,25,11.099,25,11.299c0.398,0,0.6,0.4,0.398,1c0,0.199-0.199,0.4-0.199,0.4c-0.199-0.201-0.4-0.201-0.4-0.201
	c-0.199-0.199-0.199-0.199-0.4-0.199c0-0.2,0-0.2,0-0.2C24.398,11.7,24.6,11.299,25,11.299L25,11.299z M22.199,11.299
	c0.2,0,0.4,0.199,0.4,0.6c0,0.2,0,0.2,0,0.2c-0.2,0.2-0.4,0.399-0.6,0.399c-0.201-0.199-0.201-0.199-0.201-0.399
	C21.799,11.7,22,11.499,22.199,11.299z M23.6,12.099c0.199,0,0.199,0,0.199,0c0.201,0,0.6,0.2,1,0.399c0.201,0.201,0.4,0.201,1,0.4
	l0,0c0.201,0.2,0.201,0.4,0.4,0.4c0.199,0.199,0.199,0.199,0,0.4c-0.199,0.399-0.4,0.6-1,0.799c-0.199,0.201-0.4,0.201-0.602,0.4
	c-0.199,0.2-0.6,0.2-1,0.2c-0.399,0-0.6-0.2-0.6-0.2c-0.199-0.199-0.4-0.4-0.6-0.4c-0.4-0.199-0.6-0.399-0.6-0.6
	c-0.201-0.199,0-0.4,0.199-0.4c0.2-0.199,0.4-0.199,0.4-0.399c0.199-0.2,0.199-0.2,0.199-0.2c0.201-0.199,0.4-0.4,0.801-0.6
	C23.199,12.099,23.399,12.099,23.6,12.099L23.6,12.099z M25.6,13.499c-0.199,0-0.398,0.201-0.398,0.201c-0.201,0-0.4,0-0.602,0.199
	c-0.399,0.2-0.801,0.4-1.2,0.4s-0.8-0.2-1-0.4C22.199,13.7,22,13.7,22,13.499l-0.201-0.199l-0.199-0.2l0,0l0,0l0,0l0,0l0,0l0,0l0,0
	l0,0l0,0l0,0l0,0l0,0l0,0l0.199,0.2c0.201,0.199,0.201,0.4,0.4,0.4c0.4,0.199,0.6,0.399,1.2,0.399s0.999-0.2,1.399-0.399
	c0.201-0.201,0.4-0.201,0.602-0.4C25.398,13.299,25.6,13.299,25.6,13.499L25.6,13.499L25.6,13.499L25.6,13.499L25.6,13.499
	L25.6,13.499L25.6,13.499C25.799,13.499,25.799,13.499,25.6,13.499C25.799,13.499,25.799,13.499,25.6,13.499
	C25.799,13.499,25.799,13.499,25.6,13.499C25.799,13.499,25.799,13.499,25.6,13.499C25.799,13.499,25.799,13.499,25.6,13.499
	C25.799,13.499,25.799,13.499,25.6,13.499C25.799,13.499,25.799,13.499,25.6,13.499C25.799,13.499,25.6,13.499,25.6,13.499
	L25.6,13.499L25.6,13.499z M29,21.499c0.199,0,0.6,0.201,1,0.201c1,0.398,1.199,0.799,1,1.199c-0.201,0.399-1.201,1-1.801,1
	c-0.602,0-1-1-0.801-1.801C28.199,21.499,28.6,21.299,29,21.499z M17.799,22.299L17.799,22.299H18c0.799,0.199,1.399,1.199,2,2.401
	c0.399,0.999,2,1.999,1.799,2.999c-0.199,1.4-1.799,1.802-3.6,1c-1.8-1-4.199,0.199-3.4-2.198c0.201-0.603-0.199-1.4,0-2
	c0.4-0.601,1.201-0.601,1.4-1C17,23.099,17.199,22.499,17.799,22.299L17.799,22.299z M27.799,22.499c0,0.201,0.201,0.4,0.201,0.601
	c0.199,0.399,0.398,0.802,1,1c0.398,0.2,0.799,0,1.199-0.198c0.199,0,0.199-0.201,0.199-0.201c0.4-0.199,0.602-0.399,1-0.799l0,0
	l0,0c0,0,0-0.201,0.199-0.201c0.201,0,0.4,0.201,0.602,0.201c0.398,0.398,0.398,1.398,0.801,1.799c2,1.999-1,1.801-2.201,3.399
	c-1.199,1.4-3,1.6-3.6,0.199c-0.4-1,0.398-2.601,0.398-3.397C27.199,23.901,27.398,23.099,27.799,22.499L27.799,22.499z
	 M26.799,26.3c0,0.201-0.199,0.399-0.199,0.399c-0.199,0.601-0.199,1-0.199,1.4C25.4,28.299,24.6,27.9,24,27.9
	c-1,0-1.6,0.398-2.199,0.398C22,28.1,22,27.9,22,27.698c0-0.399-0.199-0.799-0.399-1.198C23.399,27.9,25.199,27.3,26.799,26.3
	L26.799,26.3z"/>
</svg>
