<?xml version="1.0" encoding="utf-8"?>
<!-- Generator: Adobe Illustrator 15.0.0, SVG Export Plug-In . SVG Version: 6.00 Build 0)  -->
<!DOCTYPE svg PUBLIC "-//W3C//DTD SVG 1.1//EN" "http://www.w3.org/Graphics/SVG/1.1/DTD/svg11.dtd">
<svg version="1.1"
	 id="svg2" sodipodi:docname="drive-optical.svg" inkscape:version="0.48.4 r9939" xmlns:cc="http://creativecommons.org/ns#" xmlns:dc="http://purl.org/dc/elements/1.1/" xmlns:rdf="http://www.w3.org/1999/02/22-rdf-syntax-ns#" xmlns:inkscape="http://www.inkscape.org/namespaces/inkscape" xmlns:sodipodi="http://sodipodi.sourceforge.net/DTD/sodipodi-0.dtd" xmlns:svg="http://www.w3.org/2000/svg"
	 xmlns="http://www.w3.org/2000/svg" xmlns:xlink="http://www.w3.org/1999/xlink" x="0px" y="0px" width="48px" height="48px"
	 viewBox="0 0 48 48" enable-background="new 0 0 48 48" xml:space="preserve">
<sodipodi:namedview  id="base" inkscape:snap-nodes="true" inkscape:object-nodes="true" inkscape:object-paths="true" inkscape:window-x="65" inkscape:snap-bbox="true" inkscape:window-width="1301" inkscape:window-height="744" inkscape:current-layer="layer1" inkscape:document-units="px" inkscape:pageopacity="0.0" inkscape:pageshadow="2" inkscape:window-y="24" inkscape:snap-global="true" bordercolor="#666666" inkscape:zoom="8" inkscape:cy="16.123128" showgrid="true" inkscape:cx="24.223293" borderopacity="1.0" pagecolor="#ffffff" inkscape:window-maximized="1">
	<inkscape:grid  type="xygrid" visible="true" enabled="true" id="grid3003" empspacing="6" snapvisiblegridlinesonly="true">
		</inkscape:grid>
</sodipodi:namedview>
<g id="layer1_1_" transform="translate(0,-1004.3622)" inkscape:groupmode="layer" inkscape:label="Layer 1">
	<path id="path3788" inkscape:connector-curvature="0" opacity="0.2" fill="#FFFFFF" enable-background="new    " d="M24,1051.159
		c-21.258,0-23.658-0.114-23.887-15.43c0.344,14.399,2.857,14.399,23.887,14.399s23.541,0,23.885-14.399
		C47.656,1051.045,45.258,1051.159,24,1051.159z"/>
	
		<linearGradient id="path3757_1_" gradientUnits="userSpaceOnUse" x1="-237.3979" y1="623.1068" x2="-237.3979" y2="616.011" gradientTransform="matrix(6.2008 0 0 6.2008 1496.0609 -2813.4141)">
		<stop  offset="0" style="stop-color:#E6E6E6"/>
		<stop  offset="1" style="stop-color:#F9F9F9"/>
	</linearGradient>
	<path id="path3757" sodipodi:nodetypes="zzzzz" inkscape:connector-curvature="0" fill="url(#path3757_1_)" d="M24,1006.358
		c-24,0-24,0-24,22.057s0,22.057,24,22.057s24,0,24-22.057S48,1006.358,24,1006.358z"/>
	<g id="g3788" transform="translate(40,0)">
		<path id="path3777" sodipodi:nodetypes="zzzzz" inkscape:connector-curvature="0" fill="#CFD8DC" d="M-16,1006.358
			c-24,0-24,0-24,22.057s0,22.057,24,22.057s24,0,24-22.057S8,1006.358-16,1006.358z"/>
		
			<linearGradient id="path3787_1_" gradientUnits="userSpaceOnUse" x1="-369.3809" y1="629.6913" x2="-369.3779" y2="633.2484" gradientTransform="matrix(12.4017 0 0 12.4017 4564.9297 -6803.2314)">
			<stop  offset="0.011" style="stop-color:#FFFFFF"/>
			<stop  offset="1" style="stop-color:#4D4D4D"/>
		</linearGradient>
		
			<path id="path3787" sodipodi:nodetypes="zzzzz" inkscape:connector-curvature="0" opacity="0.4" fill="url(#path3787_1_)" enable-background="new    " d="
			M-16,1006.358c-24,0-24,0-24,22.057s0,22.057,24,22.057s24,0,24-22.057S8,1006.358-16,1006.358z"/>
	</g>
	<g id="g3813_1_" transform="translate(-47.998,993.3622)">
	</g>
</g>
<g id="图层_2">
	<circle fill="#FFFFFF" cx="24" cy="24.353" r="16.457"/>
</g>
<g id="layer1" transform="translate(0,-1004.3622)" inkscape:groupmode="layer" inkscape:label="Layer 1">
	<g>
		<g>
			<g>
				<defs>
					<path id="SVGID_1_" d="M24,1006.358c-24,0-24,0-24,22.057s0,22.057,24,22.057s24,0,24-22.057S48,1006.358,24,1006.358z"/>
				</defs>
				<clipPath id="SVGID_2_">
					<use xlink:href="#SVGID_1_"  overflow="visible"/>
				</clipPath>
				
					<path id="rect2999" sodipodi:nodetypes="cccccccsssccccccccccccccssssccccs" inkscape:connector-curvature="0" clip-path="url(#SVGID_2_)" fill="#E57373" d="
					M-1.144,1005.901v31.085v14.63h16.915h33.371v-45.715H-1.144L-1.144,1005.901z M24,1012.301c9.143,0,16.457,7.313,16.457,16.458
					c0,9.143-7.314,16.457-16.457,16.457c-1.373,0-2.744-0.229-4.115-0.457v-3.657l4.115-4.113h4.115l8.229-8.229v-4.114
					l-4.115-4.114h-4.113L24,1016.417l-4.113,4.113h-4.114l-4.114,4.114v4.114l-3.656,3.657c-0.229-1.144-0.457-2.4-0.457-3.657
					C7.543,1019.614,14.856,1012.301,24,1012.301L24,1012.301z M24,1024.643c2.285,0,4.115,1.829,4.115,4.114
					s-1.83,4.114-4.115,4.114l-9.373,9.371c-1.6-1.144-2.971-2.515-4.113-4.114l9.371-9.371
					C19.885,1026.473,21.715,1024.643,24,1024.643z"/>
			</g>
		</g>
	</g>
	<g>
		<g>
			<g>
				<defs>
					<path id="SVGID_3_" d="M24,1006.358c-24,0-24,0-24,22.057s0,22.057,24,22.057s24,0,24-22.057S48,1006.358,24,1006.358z"/>
				</defs>
				<clipPath id="SVGID_4_">
					<use xlink:href="#SVGID_3_"  overflow="visible"/>
				</clipPath>
				
					<path id="path3795" sodipodi:nodetypes="cccccsssss" inkscape:connector-curvature="0" clip-path="url(#SVGID_4_)" fill="#FFCDD2" d="
					M-1.144,1005.901v45.714h50.286v-45.714H-1.144z M24,1012.301c9.143,0,16.457,7.313,16.457,16.458
					c0,9.143-7.314,16.457-16.457,16.457c-9.145,0-16.457-7.313-16.457-16.457C7.543,1019.614,14.856,1012.301,24,1012.301z"/>
			</g>
		</g>
	</g>
	<g>
		<g>
			<g>
				<defs>
					<path id="SVGID_5_" d="M24,1006.358c-24,0-24,0-24,22.057s0,22.057,24,22.057s24,0,24-22.057S48,1006.358,24,1006.358z"/>
				</defs>
				<clipPath id="SVGID_6_">
					<use xlink:href="#SVGID_5_"  overflow="visible"/>
				</clipPath>
				
					<path id="rect3003" sodipodi:nodetypes="cccccccscc" inkscape:connector-curvature="0" clip-path="url(#SVGID_6_)" fill="#231111" d="
					M-1.144,1041.33v10.286h47.999v-6.857H40l-3.656-3.886h-1.486c-2.857,2.515-6.742,4.113-10.857,4.113
					c-3.886,0-7.543-1.37-10.285-3.656H-1.144z"/>
			</g>
		</g>
	</g>
	<path id="path3793" sodipodi:type="arc" sodipodi:cy="48" sodipodi:rx="6" sodipodi:cx="48" sodipodi:ry="6" fill="#D32F2F" d="
		M30.172,1028.758c0,3.429-2.744,6.171-6.172,6.171c-3.429,0-6.17-2.742-6.17-6.171s2.742-6.171,6.17-6.171
		S30.172,1025.33,30.172,1028.758z"/>
	<path id="path3008" sodipodi:type="arc" sodipodi:cy="48" sodipodi:rx="6" sodipodi:cx="48" sodipodi:ry="6" fill="#660F0F" d="
		M28.115,1028.758c0,2.285-1.83,4.114-4.115,4.114c-2.287,0-4.115-1.829-4.115-4.114c0-2.286,1.83-4.114,4.115-4.114
		S28.115,1026.473,28.115,1028.758z"/>
	<path id="path3798" sodipodi:type="arc" sodipodi:cy="57" sodipodi:rx="3" sodipodi:cx="39" sodipodi:ry="3" fill="#D32F2F" d="
		M19.885,1034.929c0,1.145-0.914,2.058-2.057,2.058s-2.057-0.913-2.057-2.058c0-1.143,0.914-2.057,2.057-2.057
		C18.971,1032.873,19.885,1033.787,19.885,1034.929z"/>
	<rect id="rect3800" x="30.855" y="1027.387" fill="#D32F2F" width="4.115" height="1.372"/>
	
		<path id="path3802" sodipodi:type="arc" sodipodi:cy="39.5" sodipodi:rx="1.5" sodipodi:cx="37.5" sodipodi:ry="1.5" fill="#D32F2F" d="
		M17.828,1022.93c0,0.571-0.457,1.028-1.029,1.028c-0.57,0-1.027-0.457-1.027-1.028s0.457-1.028,1.027-1.028
		C17.371,1021.901,17.828,1022.358,17.828,1022.93z"/>
	
		<path id="path3804" sodipodi:type="arc" sodipodi:cy="34.5" sodipodi:rx="1.5" sodipodi:cx="48.5" sodipodi:ry="1.5" fill="#D32F2F" d="
		M25.371,1019.501c0,0.57-0.457,1.029-1.029,1.029c-0.57,0-1.027-0.459-1.027-1.029c0-0.571,0.457-1.029,1.027-1.029
		C24.914,1018.473,25.371,1018.93,25.371,1019.501z"/>
	
		<path id="path3806" sodipodi:type="arc" sodipodi:cy="41.5" sodipodi:rx="1.5" sodipodi:cx="60.5" sodipodi:ry="1.5" fill="#D32F2F" d="
		M33.6,1024.301c0,0.572-0.457,1.029-1.027,1.029c-0.572,0-1.029-0.457-1.029-1.029c0-0.571,0.457-1.028,1.029-1.028
		C33.143,1023.272,33.6,1023.729,33.6,1024.301z"/>
</g>
<path id="path3770" opacity="0.2" enable-background="new    " d="M24,1.953c-21.258,0-23.658,0.113-23.887,15.429
	C0.457,2.981,2.971,2.981,24,2.981s23.541,0,23.885,14.4C47.656,2.066,45.258,1.953,24,1.953z"/>
</svg>
