<?xml version="1.0" encoding="utf-8"?>
<!-- Generator: Adobe Illustrator 18.0.0, SVG Export Plug-In . SVG Version: 6.00 Build 0)  -->
<!DOCTYPE svg PUBLIC "-//W3C//DTD SVG 1.1//EN" "http://www.w3.org/Graphics/SVG/1.1/DTD/svg11.dtd">
<svg version="1.1" id="图层_1" xmlns="http://www.w3.org/2000/svg" xmlns:xlink="http://www.w3.org/1999/xlink" x="0px" y="0px"
	 viewBox="-12 -12 48 48" style="enable-background:new -12 -12 48 48;" xml:space="preserve">
<style type="text/css">
	.st0{fill:#FFFFFF;}
	.st1{fill:#E57373;}
	.st2{fill:#FFCDD2;}
	.st3{fill:#263238;}
	.st4{fill:#231111;}
	.st5{fill:#455964;}
	.st6{fill:#D32F2F;}
	.st7{fill:#660F0F;}
	.st8{fill:#212121;}
	.st9{opacity:0.2;enable-background:new    ;}
</style>
<g>
	<rect x="-5.8" y="-5.8" class="st0" width="35.8" height="35.3"/>
	<path class="st1" d="M-2.4,22l8.1-8.1c-0.2-0.6-0.3-1.2-0.3-1.9c0-3.6,3-6.6,6.6-6.6s6.6,3,6.6,6.6s-3,6.6-6.6,6.6
		c-0.7,0-1.3-0.1-1.9-0.3l-8,8c1.7,1.1,3.5,2,5.5,2.5v-3.6l4.4-4.4h4.4l8.8-8.8V7.6l-4.4-4.4h-4.4L12-1.2L7.6,3.2H3.2l-4.4,4.4V12
		l-3.9,3.9c0.9,3.8,2.9,7.1,5.8,9.5h0C-0.5,24.5-1.6,23.3-2.4,22z M21.2,6.1c0.6,0,1.1,0.5,1.1,1.1c0,0.6-0.5,1.1-1.1,1.1
		c-0.6,0-1.1-0.5-1.1-1.1C20.1,6.6,20.6,6.1,21.2,6.1z M19.3,10.5h4.4V12h-4.4V10.5z M12.4,1c0.6,0,1.1,0.5,1.1,1.1
		c0,0.6-0.5,1.1-1.1,1.1c-0.6,0-1.1-0.5-1.1-1.1C11.3,1.5,11.8,1,12.4,1z M4.3,4.7c0.6,0,1.1,0.5,1.1,1.1c0,0.6-0.5,1.1-1.1,1.1
		c-0.6,0-1.1-0.5-1.1-1.1C3.2,5.2,3.7,4.7,4.3,4.7z"/>
	<path class="st2" d="M-12,12c0,5.9,0,10.3,0.5,13.4l12.2,0c-2.9-2.4-4.9-5.7-5.8-9.5l0,0c0,0,0,0,0,0c-0.1-0.3-0.1-0.5-0.2-0.8
		c-0.1-0.4-0.1-0.8-0.2-1.1c0-0.2,0-0.3,0-0.5c0-0.5-0.1-1-0.1-1.5v0v0C-5.6,2.3,2.3-5.6,12-5.6S29.6,2.3,29.6,12
		c0,5.1-2.2,9.7-5.7,13h1.3l3.9,4.2h5.4C36,25.9,36,20.7,36,12c0-22,0-22-24-22S-12-10-12,12z"/>
	<path class="st3" d="M8.5,29.2C8.5,29.2,8.4,29.2,8.5,29.2C8.4,29.2,8.5,29.2,8.5,29.2z"/>
	<path class="st3" d="M10.4,29.5c-0.1,0-0.2,0-0.3,0C10.2,29.5,10.3,29.5,10.4,29.5z"/>
	<path class="st3" d="M12,29.6c-0.6,0-1.1,0-1.6-0.1C10.9,29.6,11.4,29.6,12,29.6z"/>
	<path class="st3" d="M10.1,29.5c-0.5-0.1-1.1-0.1-1.6-0.2C9,29.4,9.5,29.4,10.1,29.5z"/>
	<path class="st3" d="M7.6,29c0.3,0.1,0.5,0.1,0.8,0.2C8.1,29.2,7.9,29.1,7.6,29L7.6,29z"/>
	<path class="st4" d="M29.1,29.1L25.2,25h-1.3h-0.3c-3.1,2.7-7.2,4.4-11.6,4.4c-1.5,0-3-0.2-4.4-0.6c-2-0.5-3.8-1.4-5.5-2.5
		C1.7,26,1.3,25.7,1,25.4l-0.3,0h0l-12.2,0C-10.2,34-5.5,34,12,34c14.5,0,20.3,0,22.5-4.9H29.1z"/>
	<path class="st5" d="M16.4,12c0-0.3,0-0.6-0.1-0.9C16.4,11.4,16.4,11.7,16.4,12L16.4,12z"/>
	<path class="st6" d="M12,5.4c-3.6,0-6.6,3-6.6,6.6c0,0.7,0.1,1.3,0.3,1.9c0.6,2.1,2.3,3.8,4.4,4.4c0.6,0.2,1.2,0.3,1.9,0.3
		c3.6,0,6.6-3,6.6-6.6S15.6,5.4,12,5.4z M16.4,12c0,1.5-0.8,2.9-1.9,3.6c-0.7,0.5-1.5,0.8-2.5,0.8c-2.4,0-4.4-2-4.4-4.4
		c0-0.3,0-0.6,0.1-0.9c0.4-2,2.2-3.5,4.3-3.5s3.9,1.5,4.3,3.5C16.4,11.4,16.4,11.7,16.4,12L16.4,12z"/>
	<path class="st7" d="M16.4,12c0-0.3,0-0.6-0.1-0.9c-0.4-2-2.2-3.5-4.3-3.5s-3.9,1.5-4.3,3.5c-0.1,0.3-0.1,0.6-0.1,0.9
		c0,2.4,2,4.4,4.4,4.4c0.9,0,1.8-0.3,2.5-0.8C15.6,14.9,16.4,13.5,16.4,12z"/>
	<path class="st8" d="M14.5,15.6c1.2-0.8,1.9-2.1,1.9-3.6v0C16.4,13.5,15.6,14.9,14.5,15.6z"/>
	<circle class="st6" cx="5.4" cy="18.6" r="2.2"/>
	<rect x="19.3" y="10.5" class="st6" width="4.4" height="1.5"/>
	<circle class="st6" cx="4.3" cy="5.8" r="1.1"/>
	<circle class="st6" cx="12.4" cy="2.1" r="1.1"/>
	<circle class="st6" cx="21.2" cy="7.2" r="1.1"/>
</g>
<path id="path3770" class="st9" d="M12-10C-9.3-10-11.7-9.9-11.9,5.4C-11.6-9-9-9,12-9S35.6-9,35.9,5.4C35.7-9.9,33.3-10,12-10z"/>
</svg>
