<?xml version="1.0" encoding="utf-8"?>
<!-- Generator: Adobe Illustrator 18.0.0, SVG Export Plug-In . SVG Version: 6.00 Build 0)  -->
<!DOCTYPE svg PUBLIC "-//W3C//DTD SVG 1.1//EN" "http://www.w3.org/Graphics/SVG/1.1/DTD/svg11.dtd">
<svg version="1.1"
	 id="svg2" sodipodi:docname="drive-harddisk-system.svg" xmlns:cc="http://creativecommons.org/ns#" xmlns:dc="http://purl.org/dc/elements/1.1/" xmlns:rdf="http://www.w3.org/1999/02/22-rdf-syntax-ns#" xmlns:inkscape="http://www.inkscape.org/namespaces/inkscape" xmlns:sodipodi="http://sodipodi.sourceforge.net/DTD/sodipodi-0.dtd" xmlns:svg="http://www.w3.org/2000/svg" inkscape:version="0.48.4 r9939"
	 xmlns="http://www.w3.org/2000/svg" xmlns:xlink="http://www.w3.org/1999/xlink" x="0px" y="0px" viewBox="-12 -12 48 48"
	 style="enable-background:new -12 -12 48 48;" xml:space="preserve">
<style type="text/css">
	.st0{fill:#CFD8DC;}
	.st1{fill:#616161;}
	.st2{fill:#212121;}
	.st3{fill:#F9A825;}
	.st4{fill:#424242;}
	.st5{fill:#37474F;}
	.st6{fill:#78909C;}
	.st7{opacity:0.2;enable-background:new    ;}
</style>
<sodipodi:namedview  id="base" pagecolor="#ffffff" borderopacity="1.0" inkscape:cx="14.468284" showgrid="true" inkscape:cy="24.409259" inkscape:zoom="11.583333" bordercolor="#666666" inkscape:window-maximized="1" inkscape:snap-global="true" inkscape:window-y="24" inkscape:pageshadow="2" inkscape:pageopacity="0.0" inkscape:document-units="px" inkscape:current-layer="layer1" inkscape:window-height="744" inkscape:window-width="1301" inkscape:snap-bbox="true" inkscape:window-x="65" inkscape:object-paths="true" inkscape:object-nodes="true" inkscape:snap-nodes="false">
	<inkscape:grid  type="xygrid" visible="true" enabled="true" id="grid3003" empspacing="6" snapvisiblegridlinesonly="true">
		</inkscape:grid>
</sodipodi:namedview>
<g>
	<path class="st0" d="M36,12c0-22,0-22-24-22s-24,0-24,22c0,5.9,0,10.3,0.5,13.4h47C36,22.3,36,17.9,36,12z M-6.2,21.5
		c-0.9,0-1.7-0.7-1.7-1.6s0.7-1.7,1.7-1.7s1.6,0.7,1.6,1.7S-5.2,21.5-6.2,21.5z M-6.2-2.7c-0.9,0-1.7-0.7-1.7-1.7
		C-7.8-5.3-7.1-6-6.2-6s1.6,0.7,1.6,1.6C-4.5-3.5-5.2-2.7-6.2-2.7z M2.1,9.6H0.8V7.4h-2.3v2.1h-1.2V4.7h1.2v1.9h2.3V4.7h1.2V9.6z
		 M8.4,7.1c0,0.8-0.3,1.4-0.8,1.8C7.1,9.3,6.3,9.6,5.2,9.6H3.6V4.7h1.8c1,0,1.7,0.2,2.2,0.6C8.2,5.7,8.4,6.3,8.4,7.1L8.4,7.1z
		 M14.5,7.1c0,0.8-0.3,1.4-0.8,1.8c-0.5,0.4-1.3,0.6-2.4,0.6H9.6V4.7h1.8c1,0,1.7,0.2,2.2,0.6C14.2,5.7,14.5,6.3,14.5,7.1L14.5,7.1z
		 M30.2,21.5c-0.9,0-1.7-0.7-1.7-1.6s0.7-1.7,1.7-1.7s1.7,0.7,1.7,1.7S31.1,21.5,30.2,21.5z M30.2-2.7c-0.9,0-1.7-0.7-1.7-1.7
		c0-0.9,0.7-1.6,1.7-1.6s1.7,0.7,1.7,1.6C31.8-3.5,31.1-2.7,30.2-2.7z"/>
	<rect x="-4.5" y="3.4" class="st0" width="22.4" height="7.6"/>
	<path class="st1" d="M-11.5,25.4c0.9,5.9,3.4,7.7,10.5,8.3C2.2,34,6.4,34,11.8,34h0.4c9.4,0,15.1,0,18.6-1.4
		c2.9-1.2,4.2-3.3,4.7-7.2H-11.5z"/>
	<path class="st2" d="M30.8,28.1h-1.2v2.4v1.2H13.7v-1.2v-2.4h-2.4v2.4v1.2h-11v-1.2v-2.4H-1v5.6C2.2,34,6.4,34,11.8,34h0.4
		c9.4,0,15.1,0,18.6-1.4V28.1z"/>
	<rect x="21" y="28.1" width="1.2" height="2.4"/>
	<rect x="23.4" y="28.1" width="1.2" height="2.4"/>
	<rect x="13.7" y="28.1" width="1.2" height="2.4"/>
	<rect x="18.6" y="28.1" width="1.2" height="2.4"/>
	<rect x="28.3" y="28.1" width="1.2" height="2.4"/>
	<rect x="16.1" y="28.1" width="1.2" height="2.4"/>
	<rect x="25.9" y="28.1" width="1.2" height="2.4"/>
	<rect x="2.7" y="28.1" width="1.2" height="2.4"/>
	<rect x="0.2" y="28.1" width="1.2" height="2.4"/>
	<rect x="10" y="28.1" width="1.2" height="2.4"/>
	<rect x="5.1" y="28.1" width="1.2" height="2.4"/>
	<rect x="7.6" y="28.1" width="1.2" height="2.4"/>
	<rect x="3.9" y="28.1" class="st3" width="1.2" height="2.4"/>
	<rect x="6.3" y="28.1" class="st3" width="1.2" height="2.4"/>
	<rect x="8.8" y="28.1" class="st3" width="1.2" height="2.4"/>
	<rect x="1.4" y="28.1" class="st3" width="1.2" height="2.4"/>
	<rect x="17.3" y="28.1" class="st3" width="1.2" height="2.4"/>
	<rect x="19.8" y="28.1" class="st3" width="1.2" height="2.4"/>
	<rect x="14.9" y="28.1" class="st3" width="1.2" height="2.4"/>
	<rect x="24.7" y="28.1" class="st3" width="1.2" height="2.4"/>
	<rect x="27.1" y="28.1" class="st3" width="1.2" height="2.4"/>
	<rect x="22.2" y="28.1" class="st3" width="1.2" height="2.4"/>
	<polygon class="st4" points="27.1,30.6 25.9,30.6 24.7,30.6 23.4,30.6 22.2,30.6 21,30.6 19.8,30.6 18.6,30.6 17.3,30.6 16.1,30.6 
		14.9,30.6 13.7,30.6 13.7,31.8 29.6,31.8 29.6,30.6 28.3,30.6 	"/>
	<polygon class="st4" points="8.8,30.6 7.6,30.6 6.3,30.6 5.1,30.6 3.9,30.6 2.7,30.6 1.4,30.6 0.2,30.6 0.2,31.8 11.2,31.8 
		11.2,30.6 10,30.6 	"/>
	<circle class="st5" cx="-6.2" cy="-4.4" r="1.6"/>
	<circle class="st5" cx="30.2" cy="-4.4" r="1.6"/>
	<circle class="st5" cx="-6.2" cy="19.8" r="1.6"/>
	<circle class="st5" cx="30.2" cy="19.8" r="1.6"/>
	
		<path id="图标" inkscape:connector-curvature="0" sodipodi:nodetypes="cccccccccccccccccccccccccsccscccccccccsccccccccccccccccccccccccccccccccscccccccccccccscccccccccccccccccccsccccccccccccccccccccccccccsccccccccccccccccccccccccccccccccc" class="st6" d="
		M12.2-2.7c3.6,0,3.4,3.7,3.4,5.9c0,1.8,1.2,2.6,2,4.1c1.2,1.4,2.2,3.7,1.6,6.1c-0.2,0-0.2,0-0.2-0.2c0.2-0.2,0-0.6-0.2-0.8
		c-0.2-0.2-0.4-0.4-0.6-0.4c0-1.4-0.6-2.8-1.2-3.7c-0.6-0.8-1.6-1.2-1-0.6c0.4,0.4,1.6,2,1,3.7c-0.2,0-0.4,0-0.4,0l0,0
		c-0.2-1.2-0.8-2.2-1-2.8c-0.4-1-1.2-2.8-1.6-4.3C14.3,4,14.3,4,14.3,4c0.2-0.2,0.2-0.4,0-0.6c0-0.2-0.2-0.2-0.2-0.4
		c0.2-0.2,0.2-0.6,0.2-1c0-1-0.6-1.8-1.2-1.8c-0.6,0-1.2,0.8-1.2,1.6l0,0c-0.2,0-0.2,0-0.2,0h-0.4v0.2c0-0.6-0.4-1.2-1-1.2
		c-0.4,0-0.8,0.6-0.6,1.4c0,0.4,0.2,0.6,0.4,1c-0.2,0-0.2,0.2-0.2,0.2C9.6,3.6,9.4,3.8,9.6,4.2C9.8,4.4,9.8,4.6,10,4.8
		C9.8,6.4,8.8,8.6,8.2,9.9c-0.4,1-0.6,1.8-0.6,2.6c-1-1.2-0.2-2.8,0.2-3.7c0.4-0.8,0.4-1,0.4-1l0,0c-0.8,1.2-2.2,4.1,0,5.5
		c2.4,1.4,2.6,2.8,1.2,2.8c-0.4-0.4-0.6-0.8-0.8-1.2c-0.4-0.6-0.6-1.2-1-1.6c-0.4-0.4-0.6-0.8-1.2-0.8c-0.2,0-0.2,0-0.4,0
		s-0.4,0.2-0.6,0.4c-0.2-1.8,0.8-3.9,2-5.5c0,0,0,0,0-0.2C7.6,7,7.6,6.8,7.8,6.8C9,5.6,9.2,4.6,9.2,3.4C9.2,1.9,8.2-2.3,12.2-2.7
		C12-2.7,12-2.7,12.2-2.7L12.2-2.7z M12.9,1.3C12.9,1.1,12.9,1.1,12.9,1.3c0.4,0,0.6,0.4,0.4,1c0,0.2-0.2,0.4-0.2,0.4
		c-0.2-0.2-0.4-0.2-0.4-0.2c-0.2-0.2-0.2-0.2-0.4-0.2c0-0.2,0-0.2,0-0.2C12.2,1.7,12.4,1.3,12.9,1.3L12.9,1.3z M10,1.3
		c0.2,0,0.4,0.2,0.4,0.6c0,0.2,0,0.2,0,0.2C10.2,2.3,10,2.6,9.8,2.6C9.6,2.3,9.6,2.3,9.6,2.1C9.6,1.7,9.8,1.5,10,1.3z M11.4,2.1
		c0.2,0,0.2,0,0.2,0c0.2,0,0.6,0.2,1,0.4c0.2,0.2,0.4,0.2,1,0.4l0,0c0.2,0.2,0.2,0.4,0.4,0.4c0.2,0.2,0.2,0.2,0,0.4
		c-0.2,0.4-0.4,0.6-1,0.8c-0.2,0.2-0.4,0.2-0.6,0.4c-0.2,0.2-0.6,0.2-1,0.2C11,5.2,10.8,5,10.8,5c-0.2-0.2-0.4-0.4-0.6-0.4
		C9.8,4.4,9.6,4.2,9.6,4c-0.2-0.2,0-0.4,0.2-0.4c0.2-0.2,0.4-0.2,0.4-0.4C10.4,3,10.4,3,10.4,3c0.2-0.2,0.4-0.4,0.8-0.6
		C11,2.1,11.2,2.1,11.4,2.1L11.4,2.1z M13.5,3.6c-0.2,0-0.4,0.2-0.4,0.2c-0.2,0-0.4,0-0.6,0.2c-0.4,0.2-0.8,0.4-1.2,0.4
		c-0.4,0-0.8-0.2-1-0.4C10,3.8,9.8,3.8,9.8,3.6L9.6,3.4L9.4,3.2l0,0l0,0l0,0l0,0l0,0l0,0l0,0l0,0l0,0l0,0l0,0l0,0l0,0l0.2,0.2
		C9.8,3.6,9.8,3.8,10,3.8c0.4,0.2,0.6,0.4,1.2,0.4c0.6,0,1-0.2,1.4-0.4c0.2-0.2,0.4-0.2,0.6-0.4C13.3,3.4,13.5,3.4,13.5,3.6
		L13.5,3.6L13.5,3.6L13.5,3.6L13.5,3.6L13.5,3.6L13.5,3.6C13.7,3.6,13.7,3.6,13.5,3.6C13.7,3.6,13.7,3.6,13.5,3.6
		C13.7,3.6,13.7,3.6,13.5,3.6C13.7,3.6,13.7,3.6,13.5,3.6C13.7,3.6,13.7,3.6,13.5,3.6C13.7,3.6,13.7,3.6,13.5,3.6
		C13.7,3.6,13.7,3.6,13.5,3.6C13.7,3.6,13.5,3.6,13.5,3.6L13.5,3.6L13.5,3.6z M16.9,11.7c0.2,0,0.6,0.2,1,0.2c1,0.4,1.2,0.8,1,1.2
		c-0.2,0.4-1.2,1-1.8,1s-1-1-0.8-1.8C16.1,11.7,16.5,11.5,16.9,11.7z M5.6,12.5L5.6,12.5h0.2c0.8,0.2,1.4,1.2,2,2.4c0.4,1,2,2,1.8,3
		c-0.2,1.4-1.8,1.8-3.6,1c-1.8-1-4.2,0.2-3.4-2.2c0.2-0.6-0.2-1.4,0-2c0.4-0.6,1.2-0.6,1.4-1C4.8,13.3,5,12.7,5.6,12.5L5.6,12.5z
		 M15.7,12.7c0,0.2,0.2,0.4,0.2,0.6c0.2,0.4,0.4,0.8,1,1c0.4,0.2,0.8,0,1.2-0.2c0.2,0,0.2-0.2,0.2-0.2c0.4-0.2,0.6-0.4,1-0.8l0,0
		l0,0c0,0,0-0.2,0.2-0.2c0.2,0,0.4,0.2,0.6,0.2c0.4,0.4,0.4,1.4,0.8,1.8c2,2-1,1.8-2.2,3.5c-1.2,1.4-3,1.6-3.6,0.2
		c-0.4-1,0.4-2.6,0.4-3.5C15.1,14.1,15.3,13.3,15.7,12.7L15.7,12.7z M14.7,16.6c0,0.2-0.2,0.4-0.2,0.4c-0.2,0.6-0.2,1-0.2,1.4
		c-1,0.2-1.8-0.2-2.4-0.2c-1,0-1.6,0.4-2.2,0.4c0.2-0.2,0.2-0.4,0.2-0.6c0-0.4-0.2-0.8-0.4-1.2C11.2,18.2,13.1,17.6,14.7,16.6
		L14.7,16.6z"/>
</g>
<path id="path3770" class="st7" d="M12-10C-9.3-10-11.7-9.9-11.9,5.4C-11.6-9-9-9,12-9S35.6-9,35.9,5.4C35.7-9.9,33.3-10,12-10z"/>
</svg>
