<?xml version="1.0" encoding="utf-8"?>
<!-- Generator: Adobe Illustrator 18.0.0, SVG Export Plug-In . SVG Version: 6.00 Build 0)  -->
<!DOCTYPE svg PUBLIC "-//W3C//DTD SVG 1.1//EN" "http://www.w3.org/Graphics/SVG/1.1/DTD/svg11.dtd">
<svg version="1.1"
	 id="svg2" xmlns:cc="http://creativecommons.org/ns#" xmlns:dc="http://purl.org/dc/elements/1.1/" xmlns:rdf="http://www.w3.org/1999/02/22-rdf-syntax-ns#" xmlns:inkscape="http://www.inkscape.org/namespaces/inkscape" xmlns:sodipodi="http://sodipodi.sourceforge.net/DTD/sodipodi-0.dtd" xmlns:svg="http://www.w3.org/2000/svg" inkscape:version="0.48.4 r9939" sodipodi:docname="drive-removable-media-usb-pendrive.svg"
	 xmlns="http://www.w3.org/2000/svg" xmlns:xlink="http://www.w3.org/1999/xlink" x="0px" y="0px" viewBox="0 0 48 48"
	 enable-background="new 0 0 48 48" xml:space="preserve">
<sodipodi:namedview  id="base" bordercolor="#666666" inkscape:zoom="8.1906535" inkscape:cy="18.594307" showgrid="true" inkscape:cx="-3.5606762" borderopacity="1.0" pagecolor="#ffffff" inkscape:window-maximized="1" inkscape:snap-nodes="false" inkscape:object-nodes="true" inkscape:object-paths="true" inkscape:pageshadow="2" inkscape:window-y="24" inkscape:snap-global="true" inkscape:window-x="65" inkscape:snap-bbox="true" inkscape:window-width="1301" inkscape:window-height="744" inkscape:current-layer="layer1" inkscape:document-units="px" inkscape:pageopacity="0.0">
	<inkscape:grid  type="xygrid" enabled="true" visible="true" id="grid3003" empspacing="6" snapvisiblegridlinesonly="true">
		</inkscape:grid>
</sodipodi:namedview>
<g id="layer1_1_" transform="translate(0,-1004.3622)" inkscape:label="Layer 1" inkscape:groupmode="layer">
	<g id="g3788" transform="translate(40,0)">
		<path id="path3777_1_" inkscape:connector-curvature="0" sodipodi:nodetypes="zzzzz" fill="#EF5350" d="M7.9,1036.8
			c0.1-2.4,0.1-5.2,0.1-8.4c0-22.1,0-22.1-24-22.1s-24,0-24,22.1c0,3.3,0,6,0.1,8.4"/>
	</g>
	<path id="path3770" opacity="0.2" enable-background="new    " d="M24,1006.3c-21.3,0-23.7,0.1-23.9,15.4
		c0.3-14.4,2.9-14.4,23.9-14.4s23.5,0,23.9,14.4C47.7,1006.3,45.3,1006.3,24,1006.3z"/>
</g>
<g>
	<g>
		<g>
			<g>
				<defs>
					<path id="SVGID_1_" d="M24,2C0,2,0,2,0,24.1C0,46.2,0,46,24,46S48,46,48,24S48,2,24,2z"/>
				</defs>
				<clipPath id="SVGID_2_">
					<use xlink:href="#SVGID_1_"  overflow="visible"/>
				</clipPath>
				<rect id="rect3089_1_" x="0.1" y="32.4" clip-path="url(#SVGID_2_)" fill="#212121" width="47.8" height="13.7"/>
			</g>
		</g>
	</g>
</g>
<g id="layer1" transform="translate(0,-1004.3622)" inkscape:label="Layer 1" inkscape:groupmode="layer">
	<g id="g3813" transform="translate(-47.998,993.3622)">
	</g>
	<rect id="rect3871" x="4.6" y="1039" fill="#F9A825" width="4.6" height="6.9"/>
	<g>
		<g>
			<g>
				<g>
					<defs>
						<path id="SVGID_3_" d="M24,1006.3c-24,0-24,0-24,22.1c0,22.1,0,22.1,24,22.1s24,0,24-22.1C48,1006.3,48,1006.3,24,1006.3z"/>
					</defs>
					<clipPath id="SVGID_4_">
						<use xlink:href="#SVGID_3_"  overflow="visible"/>
					</clipPath>
					<rect id="rect3009" y="1035.6" clip-path="url(#SVGID_4_)" fill="#455964" width="48" height="2.3"/>
				</g>
			</g>
		</g>
	</g>
	<rect id="rect3779" x="16" y="1039" fill="#F9A825" width="4.6" height="6.9"/>
	<rect id="rect3781" x="27.4" y="1039" fill="#F9A825" width="4.6" height="6.9"/>
	<rect id="rect3783" x="38.9" y="1039" fill="#F9A825" width="4.6" height="6.9"/>
	<rect id="rect3795" x="5.7" y="1039" fill="#A26605" width="1.1" height="6.9"/>
	<rect id="rect3797" x="17.1" y="1039" fill="#A26605" width="2.3" height="6.9"/>
	<rect id="rect3799" x="28.6" y="1039" fill="#A26605" width="1.1" height="6.9"/>
	<rect id="rect3801" x="40" y="1039" fill="#A26605" width="1.1" height="6.9"/>
	<g id="g3834" transform="translate(-49.676,1003.5882)">
	</g>
	<g id="g3848" transform="matrix(1,0,0,0.73089819,0.004,1004.3274)">
		<g id="g3850">
			<g id="g3852">
				<path id="path3854" inkscape:connector-curvature="0" fill="#FAFAFA" d="M24,8.3c-1.7,0-3.2,1.3-3.2,2.9c0,1.3,0.9,2.4,2.1,2.9
					v4.6l-4.8,4c-0.2,0.2-0.5,0.5-0.5,0.8v2.1H16V30h4.6v-4.6h-1.1v-1.6l3.4-3v11.4h-2.3L24,38l3.4-5.7h-2.3V18l3.4,2.9V23
					c-0.9,0.3-1.6,1.3-1.6,2.2c0,1.4,1.1,2.4,2.5,2.4s2.5-1,2.5-2.4c0-1-0.6-1.8-1.5-2.2v-2.6c0-0.2-0.1-0.6-0.3-0.8l-5-4V14
					c1.1-0.3,1.7-1.6,1.7-2.9C26.9,9.6,25.7,8.3,24,8.3"/>
			</g>
		</g>
	</g>
</g>
</svg>
