<?xml version="1.0" encoding="utf-8"?>
<!-- Generator: Adobe Illustrator 15.0.0, SVG Export Plug-In . SVG Version: 6.00 Build 0)  -->
<!DOCTYPE svg PUBLIC "-//W3C//DTD SVG 1.1//EN" "http://www.w3.org/Graphics/SVG/1.1/DTD/svg11.dtd">
<svg version="1.1"
	 id="svg2" sodipodi:docname="drive-cdrom.svg" inkscape:version="0.48.4 r9939" xmlns:cc="http://creativecommons.org/ns#" xmlns:dc="http://purl.org/dc/elements/1.1/" xmlns:rdf="http://www.w3.org/1999/02/22-rdf-syntax-ns#" xmlns:inkscape="http://www.inkscape.org/namespaces/inkscape" xmlns:sodipodi="http://sodipodi.sourceforge.net/DTD/sodipodi-0.dtd" xmlns:svg="http://www.w3.org/2000/svg"
	 xmlns="http://www.w3.org/2000/svg" xmlns:xlink="http://www.w3.org/1999/xlink" x="0px" y="0px" width="48px" height="48px"
	 viewBox="0 0 48 48" enable-background="new 0 0 48 48" xml:space="preserve">
<sodipodi:namedview  id="base" inkscape:snap-nodes="true" inkscape:object-nodes="true" inkscape:object-paths="true" inkscape:window-x="65" inkscape:snap-bbox="true" inkscape:window-width="1301" inkscape:window-height="744" inkscape:current-layer="layer1" inkscape:document-units="px" inkscape:pageopacity="0.0" inkscape:pageshadow="2" inkscape:window-y="24" inkscape:snap-global="true" bordercolor="#666666" inkscape:zoom="8" inkscape:cy="16.123128" showgrid="true" inkscape:cx="46.098293" borderopacity="1.0" pagecolor="#ffffff" inkscape:window-maximized="1">
	<inkscape:grid  type="xygrid" visible="true" enabled="true" id="grid3003" empspacing="6" snapvisiblegridlinesonly="true">
		</inkscape:grid>
</sodipodi:namedview>
<g id="layer1_1_" transform="translate(0,-1004.3622)" inkscape:groupmode="layer" inkscape:label="Layer 1">
	<path id="path3788" inkscape:connector-curvature="0" opacity="0.2" fill="#FFFFFF" enable-background="new    " d="M24,1051.106
		c-21.301,0-23.5,0-23.801-15.4c0.2,14.5,2.9,14.5,23.801,14.5c20.898,0,23.5,0,23.799-14.5
		C47.5,1051.106,45.299,1051.106,24,1051.106z"/>
	
		<linearGradient id="path3757_1_" gradientUnits="userSpaceOnUse" x1="-237.3979" y1="647.1122" x2="-237.3979" y2="640.0416" gradientTransform="matrix(6.2008 0 0 6.2008 1496.0609 -2962.2305)">
		<stop  offset="0" style="stop-color:#E6E6E6"/>
		<stop  offset="1" style="stop-color:#F9F9F9"/>
	</linearGradient>
	<path id="path3757" sodipodi:nodetypes="zzzzz" inkscape:connector-curvature="0" fill="url(#path3757_1_)" d="M24,1006.506
		c-24,0-24,0-24,22c0,22,0,22,24,22s24,0,24-22C47.799,1006.506,47.799,1006.506,24,1006.506z"/>
	<g id="g3788" transform="translate(40,0)">
		<path id="path3777" sodipodi:nodetypes="zzzzz" inkscape:connector-curvature="0" fill="#CFD8DC" d="M-16.201,1006.506
			c-23.799,0-23.799,0-23.799,22c0,22,0,22,23.799,22c23.801,0,24,0,24-22C7.799,1006.506,7.799,1006.506-16.201,1006.506z"/>
	</g>
	<g id="g3813_1_" transform="translate(-47.998,993.3622)">
	</g>
</g>
<circle fill="#FFFFFF" cx="24" cy="24.706" r="16.3"/>
<g>
	<g>
		<g>
			<g>
				<g>
					<defs>
						<path id="SVGID_1_" d="M24,2.006c-23.801,0-23.801,0-23.801,22c0,22,0,22,23.801,22c23.799,0,23.799,0,23.799-22
							C47.799,2.006,47.5,2.006,24,2.006z"/>
					</defs>
					<clipPath id="SVGID_2_">
						<use xlink:href="#SVGID_1_"  overflow="visible"/>
					</clipPath>
					
						<path id="rect2999" sodipodi:nodetypes="cccccccsssccccccccccccccssssccccs" inkscape:connector-curvature="0" clip-path="url(#SVGID_2_)" fill="#78909C" d="
						M-1.101,2.006v30.8v12.199h16.8h33.1v-43H-1.101z M23.799,8.407c9.102,0,16.301,7.199,16.301,16.298
						c0,9.102-7.301,16.301-16.301,16.301c-1.399,0-2.699-0.199-4.1-0.5v-3.6l4.1-4.102H27.9l8.199-8.199v-4.1L32,16.405h-4.102
						l-4.1-4.1l-4.101,4.1h-4.101l-4.1,4.101v4.1l-3.6,3.602c-0.2-1.102-0.5-2.5-0.5-3.602C7.5,15.606,14.699,8.407,23.799,8.407
						L23.799,8.407z M23.799,20.605c2.301,0,4.102,1.802,4.102,4.1c0,2.301-1.801,4.102-4.102,4.102L14.5,38.006
						c-1.601-1.1-2.9-2.5-4.101-4.1l9.3-9.301C19.699,22.407,21.5,20.605,23.799,20.605z"/>
				</g>
			</g>
		</g>
	</g>
</g>
<g>
	<g>
		<g>
			<g>
				<g>
					<defs>
						<path id="SVGID_3_" d="M24,2.006c-23.801,0-23.801,0-23.801,22c0,22,0,22,23.801,22c23.799,0,23.799,0,23.799-22
							C47.799,2.006,47.5,2.006,24,2.006z"/>
					</defs>
					<clipPath id="SVGID_4_">
						<use xlink:href="#SVGID_3_"  overflow="visible"/>
					</clipPath>
					
						<path id="path3795_1_" sodipodi:nodetypes="cccccsssss" inkscape:connector-curvature="0" clip-path="url(#SVGID_4_)" fill="#CFD8DC" d="
						M-1.101,2.006v44.201h49.8V2.006H-1.101z M23.799,8.407c9.102,0,16.301,7.199,16.301,16.298
						c0,9.102-7.301,16.301-16.301,16.301S7.5,33.707,7.5,24.705C7.5,15.706,14.699,8.407,23.799,8.407z"/>
				</g>
			</g>
		</g>
	</g>
</g>
<g>
	<g>
		<g>
			<g>
				<g>
					<defs>
						<path id="SVGID_5_" d="M24,2.006c-24,0-24,0-24,22.199c0,22.201,0,22.001,24,22.001s24,0,24-22.001
							C48,2.206,47.799,2.006,24,2.006z"/>
					</defs>
					<clipPath id="SVGID_6_">
						<use xlink:href="#SVGID_5_"  overflow="visible"/>
					</clipPath>
					
						<path id="rect3003" sodipodi:nodetypes="cccccccscc" inkscape:connector-curvature="0" clip-path="url(#SVGID_6_)" fill="#263238" d="
						M1.1,37.105v9.102h45.299v-5.701h-6.801l-3.6-3.799h-1.4c-2.898,2.5-6.6,4.1-10.898,4.1c-3.8,0-7.5-1.4-10.199-3.6L1.1,37.105z
						"/>
				</g>
			</g>
		</g>
	</g>
</g>
<linearGradient id="path3787_1_" gradientUnits="userSpaceOnUse" x1="-249.3809" y1="-350.6543" x2="-249.3778" y2="-347.1055" gradientTransform="matrix(12.4017 0 0 12.4017 3116.7288 4350.5645)">
	<stop  offset="0.011" style="stop-color:#FFFFFF"/>
	<stop  offset="1" style="stop-color:#4D4D4D"/>
</linearGradient>
<path id="path3787" sodipodi:nodetypes="zzzzz" inkscape:connector-curvature="0" opacity="0.2" fill="url(#path3787_1_)" enable-background="new    " d="
	M24,2.006c-24,0-24,0-24,22.199c0,22.201,0,22.001,24,22.001s24,0,24-22.001C48,2.206,47.799,2.006,24,2.006z"/>
<path id="path3770" opacity="0.1" fill="#263238" enable-background="new    " d="M24,2.006c-21.301,0-23.801,0.3-23.801,15.699
	C0.5,3.206,2.899,3.206,24,3.206c21.1,0,23.5,0,23.799,14.5C47.5,2.305,45.299,2.006,24,2.006z"/>
<path id="path3793" sodipodi:type="arc" sodipodi:cy="48" sodipodi:rx="6" sodipodi:cx="48" sodipodi:ry="6" fill="#455964" d="
	M29.898,24.705c0,3.4-2.699,6.102-6.1,6.102s-6.101-2.701-6.101-6.102c0-3.399,2.7-6.099,6.101-6.099S29.898,21.305,29.898,24.705z"
	/>
<path id="path3008" sodipodi:type="arc" sodipodi:cy="48" sodipodi:rx="6" sodipodi:cx="48" sodipodi:ry="6" fill="#212121" d="
	M27.799,24.705c0,2.301-1.799,4.102-4.1,4.102c-2.3,0-4.1-1.801-4.1-4.102c0-2.298,1.8-4.1,4.1-4.1
	C26,20.605,27.799,22.407,27.799,24.705z"/>
<path id="path3798" sodipodi:type="arc" sodipodi:cy="57" sodipodi:rx="3" sodipodi:cx="39" sodipodi:ry="3" fill="#455964" d="
	M19.699,30.805c0,1.102-0.9,2-2,2s-2-0.898-2-2c0-1.1,0.9-2,2-2C18.799,28.707,19.699,29.707,19.699,30.805z"/>
<rect id="rect3800" x="30.6" y="23.305" fill="#455964" width="4.102" height="1.4"/>
<path id="path3802" sodipodi:type="arc" sodipodi:cy="39.5" sodipodi:rx="1.5" sodipodi:cx="37.5" sodipodi:ry="1.5" fill="#455964" d="
	M17.699,18.805c0,0.7-0.5,0.9-0.9,0.9c-0.5,0-1.1-0.2-1.1-0.9s0.5-0.9,1.1-0.9C17.399,17.907,17.699,18.305,17.699,18.805z"/>
<path id="path3804" sodipodi:type="arc" sodipodi:cy="34.5" sodipodi:rx="1.5" sodipodi:cx="48.5" sodipodi:ry="1.5" fill="#455964" d="
	M25.1,15.407c0,0.699-0.5,0.899-0.899,0.899s-0.899-0.5-0.899-0.899c0-0.5,0.5-0.9,0.899-0.9C24.699,14.506,25.1,14.907,25.1,15.407
	z"/>
<path id="path3806" sodipodi:type="arc" sodipodi:cy="41.5" sodipodi:rx="1.5" sodipodi:cx="60.5" sodipodi:ry="1.5" fill="#455964" d="
	M33.299,20.407c0,0.698-0.5,0.898-0.898,0.898c-0.699,0-0.9-0.5-0.9-0.898c0-0.5,0.5-0.9,0.9-0.9
	C32.799,19.206,33.299,19.706,33.299,20.407z"/>
</svg>
