<?xml version="1.0" encoding="utf-8"?>
<!-- Generator: Adobe Illustrator 15.0.0, SVG Export Plug-In . SVG Version: 6.00 Build 0)  -->
<!DOCTYPE svg PUBLIC "-//W3C//DTD SVG 1.1//EN" "http://www.w3.org/Graphics/SVG/1.1/DTD/svg11.dtd">
<svg version="1.1"
	 id="svg2" sodipodi:docname="drive-harddisk-usb.svg" inkscape:version="0.48.4 r9939" xmlns:cc="http://creativecommons.org/ns#" xmlns:dc="http://purl.org/dc/elements/1.1/" xmlns:rdf="http://www.w3.org/1999/02/22-rdf-syntax-ns#" xmlns:inkscape="http://www.inkscape.org/namespaces/inkscape" xmlns:sodipodi="http://sodipodi.sourceforge.net/DTD/sodipodi-0.dtd" xmlns:svg="http://www.w3.org/2000/svg"
	 xmlns="http://www.w3.org/2000/svg" xmlns:xlink="http://www.w3.org/1999/xlink" x="0px" y="0px" width="48px" height="48px"
	 viewBox="0 0 48 48" enable-background="new 0 0 48 48" xml:space="preserve">
<sodipodi:namedview  id="base" inkscape:snap-nodes="false" inkscape:object-nodes="true" inkscape:object-paths="true" inkscape:window-x="65" inkscape:snap-bbox="true" inkscape:window-width="1301" inkscape:window-height="744" inkscape:current-layer="layer1" inkscape:document-units="px" inkscape:pageopacity="0.0" inkscape:pageshadow="2" inkscape:window-y="24" inkscape:snap-global="true" bordercolor="#666666" inkscape:zoom="8.1906535" inkscape:cy="21.124656" showgrid="true" inkscape:cx="0.42647693" borderopacity="1.0" pagecolor="#ffffff" inkscape:window-maximized="1">
	<inkscape:grid  type="xygrid" visible="true" enabled="true" id="grid3003" empspacing="6" snapvisiblegridlinesonly="true">
		</inkscape:grid>
</sodipodi:namedview>
<g id="layer1_1_" transform="translate(0,-1004.3622)" inkscape:groupmode="layer" inkscape:label="Layer 1">
	<path id="path3788" inkscape:connector-curvature="0" opacity="0.2" fill="#FFFFFF" enable-background="new    " d="M24,1051.138
		c-21.258,0-23.658-0.115-23.887-15.43c0.344,14.4,2.857,14.4,23.887,14.4s23.541,0,23.885-14.4
		C47.656,1051.022,45.258,1051.138,24,1051.138z"/>
	
		<linearGradient id="path3757_1_" gradientUnits="userSpaceOnUse" x1="-237.3979" y1="623.1034" x2="-237.3979" y2="616.0077" gradientTransform="matrix(6.2008 0 0 6.2008 1496.0609 -2813.4141)">
		<stop  offset="0" style="stop-color:#E6E6E6"/>
		<stop  offset="1" style="stop-color:#F9F9F9"/>
	</linearGradient>
	<path id="path3757" sodipodi:nodetypes="zzzzz" inkscape:connector-curvature="0" fill="url(#path3757_1_)" d="M24,1006.337
		c-24,0-24,0-24,22.058c0,22.059,0,22.059,24,22.059s24,0,24-22.059C48,1006.337,48,1006.337,24,1006.337z"/>
	<g id="g3788" transform="translate(40,0)">
		<path id="path3777" sodipodi:nodetypes="zzzzz" inkscape:connector-curvature="0" fill="#CFD8DC" d="M-16,1006.337
			c-24,0-24,0-24,22.058c0,22.059,0,22.059,24,22.059s24,0,24-22.059C8,1006.337,8,1006.337-16,1006.337z"/>
		
			<linearGradient id="path3787_1_" gradientUnits="userSpaceOnUse" x1="-369.3804" y1="629.6908" x2="-369.3773" y2="633.2479" gradientTransform="matrix(12.4017 0 0 12.4017 4564.9297 -6803.2314)">
			<stop  offset="0.011" style="stop-color:#FFFFFF"/>
			<stop  offset="1" style="stop-color:#4D4D4D"/>
		</linearGradient>
		
			<path id="path3787" sodipodi:nodetypes="zzzzz" inkscape:connector-curvature="0" opacity="0.4" fill="url(#path3787_1_)" enable-background="new    " d="
			M-16,1006.337c-24,0-24,0-24,22.058c0,22.059,0,22.059,24,22.059s24,0,24-22.059C8,1006.337,8,1006.337-16,1006.337z"/>
	</g>
	<g id="g3813_1_" transform="translate(-47.998,993.3622)">
	</g>
	<path id="path3770" opacity="0.2" enable-background="new    " d="M24,1006.337c-21.258,0-23.658,0.113-23.887,15.429
		c0.344-14.399,2.857-14.399,23.887-14.399s23.541,0,23.885,14.399C47.656,1006.337,45.258,1006.337,24,1006.337z"/>
</g>
<g>
	<g>
		<g>
			<defs>
				<path id="SVGID_1_" d="M24,2.046c-24,0-24,0-24,22.058c0,22.058,0,22.058,24,22.058s24,0,24-22.058C48,2.046,48,2.046,24,2.046z
					"/>
			</defs>
			<clipPath id="SVGID_2_">
				<use xlink:href="#SVGID_1_"  overflow="visible"/>
			</clipPath>
			<rect id="rect3089_1_" x="0.114" y="34.732" clip-path="url(#SVGID_2_)" fill="#616161" width="47.771" height="11.43"/>
		</g>
	</g>
</g>
<rect id="rect3091_1_" x="14.971" y="39.646" fill="#212121" width="26.059" height="4"/>
<rect id="rect3885_1_" x="26.971" y="39.646" width="13.029" height="2.057"/>
<rect id="rect3887_1_" x="16" y="39.646" width="9.029" height="2.057"/>
<rect id="rect3865_1_" x="18.971" y="39.646" fill="#F9A825" width="1.029" height="2.057"/>
<rect id="rect3867_1_" x="21.028" y="39.646" fill="#F9A825" width="1.028" height="2.057"/>
<rect id="rect3869_1_" x="22.971" y="39.646" fill="#F9A825" width="1.029" height="2.057"/>
<rect id="rect3871_1_" x="17.028" y="39.646" fill="#F9A825" width="1.028" height="2.057"/>
<rect id="rect3873_1_" x="30.057" y="39.646" fill="#F9A825" width="1.029" height="2.057"/>
<rect id="rect3875_1_" x="32" y="39.646" fill="#F9A825" width="1.029" height="2.057"/>
<rect id="rect3877_1_" x="28" y="39.646" fill="#F9A825" width="1.029" height="2.057"/>
<rect id="rect3879_1_" x="36" y="39.646" fill="#F9A825" width="1.029" height="2.057"/>
<rect id="rect3881_1_" x="38.057" y="39.646" fill="#F9A825" width="1.029" height="2.057"/>
<rect id="rect3883_1_" x="34.057" y="39.646" fill="#F9A825" width="1.029" height="2.057"/>
<rect id="rect3861_1_" x="26.971" y="41.703" fill="#424242" width="13.029" height="1.029"/>
<rect id="rect3863_1_" x="16" y="41.703" fill="#424242" width="9.029" height="1.029"/>
<path id="path3901_1_" sodipodi:type="arc" sodipodi:cy="9" sodipodi:rx="1" sodipodi:cx="7" sodipodi:ry="1" fill="#37474F" d="
	M8.914,9.247c0,0.8-0.687,1.484-1.486,1.484c-0.799,0-1.485-0.686-1.485-1.484s0.687-1.601,1.485-1.601
	C8.229,7.646,8.914,8.446,8.914,9.247z"/>
<path id="path3903_1_" sodipodi:type="arc" sodipodi:cy="9" sodipodi:rx="1" sodipodi:cx="7" sodipodi:ry="1" fill="#37474F" d="
	M41.941,9.247c0,0.8-0.686,1.484-1.484,1.484c-0.801,0-1.602-0.686-1.602-1.484s0.801-1.601,1.602-1.601S41.941,8.446,41.941,9.247z
	"/>
<path id="path3905_1_" sodipodi:type="arc" sodipodi:cy="9" sodipodi:rx="1" sodipodi:cx="7" sodipodi:ry="1" fill="#37474F" d="
	M8.914,31.189c0,0.799-0.687,1.484-1.486,1.484c-0.799,0-1.485-0.686-1.485-1.484c0-0.801,0.687-1.486,1.485-1.486
	C8.229,29.703,8.914,30.389,8.914,31.189z"/>
<path id="path3907_1_" sodipodi:type="arc" sodipodi:cy="9" sodipodi:rx="1" sodipodi:cx="7" sodipodi:ry="1" fill="#37474F" d="
	M41.941,31.189c0,0.799-0.686,1.484-1.484,1.484c-0.801,0-1.602-0.686-1.602-1.484c0-0.801,0.688-1.486,1.486-1.486
	C41.143,29.703,41.941,30.389,41.941,31.189z"/>
<g id="g3848" transform="matrix(1,0,0,0.73089819,1.004,1006.3274)">
	<g id="g3850">
		<g id="g3852">
			<path id="path3854" inkscape:connector-curvature="0" fill="#78909C" d="M24.142-1364.75c-1.715,0-3.2,1.259-3.2,2.858
				c0,1.257,0.915,2.4,2.058,2.858v4.571l-4.801,3.999c-0.229,0.23-0.457,0.457-0.457,0.802v2.055h-1.6v4.571h4.57v-4.571H19.57
				v-1.598l3.428-2.973v11.427h-2.285l3.428,5.716l3.43-5.716h-2.285v-14.285l3.428,2.858v2.056c-0.914,0.342-1.6,1.256-1.6,2.173
				c0,1.371,1.143,2.4,2.514,2.4s2.514-1.029,2.514-2.4c0-1.029-0.57-1.828-1.484-2.173v-2.628c0-0.229-0.113-0.572-0.344-0.8
				l-5.027-3.999v-1.486c1.143-0.343,1.715-1.601,1.715-2.858C27-1363.493,25.857-1364.865,24.142-1364.75"/>
		</g>
	</g>
</g>
</svg>
