<?xml version="1.0" encoding="utf-8"?>
<!-- Generator: Adobe Illustrator 15.0.0, SVG Export Plug-In . SVG Version: 6.00 Build 0)  -->
<!DOCTYPE svg PUBLIC "-//W3C//DTD SVG 1.1//EN" "http://www.w3.org/Graphics/SVG/1.1/DTD/svg11.dtd">
<svg version="1.1"
	 id="svg2" sodipodi:docname="media-floppy.svg" inkscape:version="0.48.4 r9939" xmlns:cc="http://creativecommons.org/ns#" xmlns:dc="http://purl.org/dc/elements/1.1/" xmlns:rdf="http://www.w3.org/1999/02/22-rdf-syntax-ns#" xmlns:inkscape="http://www.inkscape.org/namespaces/inkscape" xmlns:sodipodi="http://sodipodi.sourceforge.net/DTD/sodipodi-0.dtd" xmlns:svg="http://www.w3.org/2000/svg"
	 xmlns="http://www.w3.org/2000/svg" xmlns:xlink="http://www.w3.org/1999/xlink" x="0px" y="0px" width="48px" height="48px"
	 viewBox="0 0 48 48" enable-background="new 0 0 48 48" xml:space="preserve">
<sodipodi:namedview  id="base" inkscape:snap-nodes="true" inkscape:guide-bbox="true" inkscape:object-nodes="true" inkscape:object-paths="true" inkscape:window-x="65" inkscape:snap-bbox="true" inkscape:window-width="1301" inkscape:window-height="744" inkscape:current-layer="layer1" inkscape:document-units="px" inkscape:pageopacity="0.0" inkscape:pageshadow="2" inkscape:window-y="24" bordercolor="#666666" inkscape:zoom="11.583333" inkscape:cy="24.135845" showgrid="true" inkscape:cx="11.745792" borderopacity="1.0" showguides="true" pagecolor="#ffffff" inkscape:window-maximized="1">
	<inkscape:grid  type="xygrid" visible="true" enabled="true" id="grid3003" empspacing="6" snapvisiblegridlinesonly="true">
		</inkscape:grid>
	<sodipodi:guide  id="guide3016" orientation="0,1" position="14,43"></sodipodi:guide>
	<sodipodi:guide  id="guide3018" orientation="0,1" position="16,5"></sodipodi:guide>
</sodipodi:namedview>
<path id="path3788" inkscape:connector-curvature="0" opacity="0.2" fill="#FFFFFF" enable-background="new    " d="M24,46.652
	c-21.244,0-23.656-0.114-23.885-15.388C0.344,45.733,2.986,45.733,24,45.733s23.541,0,23.885-14.354
	C47.541,46.652,45.244,46.652,24,46.652z"/>
<path id="path3757" sodipodi:nodetypes="zzzzz" inkscape:connector-curvature="0" fill="#212121" d="M24,2.098c-24,0-24,0-24,21.933
	c0,21.935,0,21.935,24,21.935s24,0,24-21.935C48,2.098,47.885,2.098,24,2.098z"/>
<g id="g3848" transform="translate(40,0)">
	
		<linearGradient id="path3783_1_" gradientUnits="userSpaceOnUse" x1="-397.3994" y1="619.5732" x2="-394.02" y2="616.1938" gradientTransform="matrix(6.2008 0 0 6.2008 2448.1904 -3817.8062)">
		<stop  offset="0" style="stop-color:#000000"/>
		<stop  offset="1" style="stop-color:#FFFFFF"/>
	</linearGradient>
	
		<path id="path3783" sodipodi:nodetypes="zzzzz" inkscape:connector-curvature="0" opacity="0.04" fill="url(#path3783_1_)" enable-background="new    " d="
		M-16,2.098c-24,0-24,0-24,21.933c0,21.935,0,21.935,24,21.935s24,0,24-21.935C8,2.098,7.885,2.098-16,2.098z"/>
	
		<linearGradient id="path3795_1_" gradientUnits="userSpaceOnUse" x1="-394.0273" y1="622.9453" x2="-398.3721" y2="618.6005" gradientTransform="matrix(6.2008 0 0 6.2008 2448.1904 -3817.8062)">
		<stop  offset="0" style="stop-color:#000000"/>
		<stop  offset="1" style="stop-color:#FFFFFF"/>
	</linearGradient>
	
		<path id="path3795" sodipodi:nodetypes="zzzzz" inkscape:connector-curvature="0" opacity="0.04" fill="url(#path3795_1_)" enable-background="new    " d="
		M-16,2.098c-24,0-24,0-24,21.933c0,21.935,0,21.935,24,21.935s24,0,24-21.935C8,2.098,7.885,2.098-16,2.098z"/>
</g>
<path id="path3770" opacity="0.4" fill="#FFFFFF" enable-background="new    " d="M24,2.098c-21.359,0-23.656,0-23.885,15.388
	C0.344,3.132,2.986,3.132,24,3.132s23.541,0,23.885,14.354C47.541,2.098,45.244,2.098,24,2.098z"/>
<path id="path3023_1_" inkscape:connector-curvature="0" fill="#F9A825" d="M11.942,3.132v12.977v0.918h1.034H34.91h1.033v-1.033
	V3.132h-1.951v11.941H14.011V3.132H11.942L11.942,3.132z"/>
<rect id="rect3793_1_" x="30.889" y="5.084" fill="#F5F5F5" width="1.953" height="8.038"/>
<rect id="rect3795_1_" x="8.957" y="22.768" fill="#FFC400" width="30.889" height="18.947"/>
<path id="rect3800_1_" sodipodi:nodetypes="ccccc" inkscape:connector-curvature="0" fill="#F57F17" d="M45.703,33.677v2.986
	l1.953-1.952v-1.034H45.703L45.703,33.677z"/>
<rect id="rect3803_1_" x="11.942" y="24.72" fill="#FFFFFF" width="24.919" height="1.033"/>
<rect id="rect3805_1_" x="11.942" y="27.706" fill="#FFFFFF" width="24.919" height="1.032"/>
<rect id="rect3807_1_" x="11.942" y="30.69" fill="#FFFFFF" width="24.919" height="1.033"/>
<rect id="rect3809_1_" x="11.942" y="33.677" fill="#FFFFFF" width="24.919" height="1.034"/>
<rect id="rect3811_1_" x="11.942" y="36.776" fill="#FFFFFF" width="24.919" height="1.034"/>
<rect id="rect3811_2_" x="11.942" y="39.533" fill="#FFFFFF" width="24.919" height="1.033"/>
</svg>
