<?xml version="1.0" encoding="iso-8859-1"?>
<!-- Generator: Adobe Illustrator 21.0.0, SVG Export Plug-In . SVG Version: 6.00 Build 0)  -->
<svg version="1.1" id="&#x5176;&#x4ED6;" xmlns="http://www.w3.org/2000/svg" xmlns:xlink="http://www.w3.org/1999/xlink" x="0px"
	 y="0px" viewBox="0 0 22 22" style="enable-background:new 0 0 22 22;" xml:space="preserve">
<title>画板 25</title>
<g id="&#x5783;&#x573E;&#x6876;-&#x6EE1;">
	<g id="_22">
		<path style="fill:#606061;" d="M2.85,22l-0.1-0.2c-1.317-2.388-2.005-5.073-2-7.8c0.101-2.907,0.675-5.778,1.7-8.5l0.1-0.3h3.2
			l-5-0.8l0.5-3.2L7.05,2l0.3-2L16,1.4l-0.3,2l5.6,0.9l-0.5,3.2l-1.5-0.2c0.692,2.133,1.063,4.358,1.1,6.6
			c0.019,2.742-0.707,5.438-2.1,7.8L18.1,22H2.85z M13.35,3V2.7L9.25,2v0.3L13.35,3z"/>
		
			<linearGradient id="SVGID_1_" gradientUnits="userSpaceOnUse" x1="1.18" y1="-276.45" x2="19.74" y2="-276.45" gradientTransform="matrix(1 0 0 1 0 290)">
			<stop  offset="0.05" style="stop-color:#CED7DB"/>
			<stop  offset="0.1" style="stop-color:#C4CDD2"/>
			<stop  offset="0.27" style="stop-color:#A7B5BC"/>
			<stop  offset="0.41" style="stop-color:#94A6B0"/>
			<stop  offset="0.51" style="stop-color:#8DA1AB"/>
			<stop  offset="1" style="stop-color:#CED7DB"/>
		</linearGradient>
		<path style="fill:url(#SVGID_1_);" d="M18,5.6H3c-1.067,2.64-1.644,5.453-1.7,8.3c0.004,2.65,0.656,5.26,1.9,7.6h14.6
			c1.303-2.322,1.991-4.938,2-7.6C19.737,11.044,19.126,8.226,18,5.6z"/>
		<path style="fill:#5E7B88;" d="M15.05,3.8l0.3-2.1l-7.6-1.2l-0.3,2l-5.7-0.9l-0.4,2.3L20.25,7l0.4-2.3L15.05,3.8z M8.65,2.7
			L8.65,2.7l0.2-1.2l5.1,0.8l-0.2,1.3C13.75,3.6,8.65,2.7,8.65,2.7z"/>
		<path style="fill:#5E7B88;" d="M5.65,20.3h-1.5c-0.833-2.172-1.273-4.474-1.3-6.8c-0.07-2.013,0.377-4.01,1.3-5.8h1.5
			c0,0-1.3,1.6-1.3,5.8C4.295,15.833,4.739,18.151,5.65,20.3z"/>
		<path style="fill:#5E7B88;" d="M9.25,20.3h-1.5c-0.648-2.209-0.985-4.498-1-6.8c-0.064-1.981,0.276-3.955,1-5.8h1.5
			c0,0-1,1.6-1,5.8C8.201,15.807,8.539,18.105,9.25,20.3z"/>
		<path style="fill:#5E7B88;" d="M15.35,20.3h1.5c0.833-2.172,1.273-4.474,1.3-6.8c0.07-2.013-0.377-4.01-1.3-5.8h-1.5
			c0,0,1.3,1.6,1.3,5.8C16.722,15.835,16.278,18.157,15.35,20.3z"/>
		<path style="fill:#5E7B88;" d="M11.65,20.3h1.5c0.648-2.209,0.985-4.498,1-6.8c0.064-1.981-0.276-3.955-1-5.8h-1.5
			c0,0,1,1.6,1,5.9C12.646,15.87,12.309,18.127,11.65,20.3z"/>
	</g>
</g>
</svg>
