<svg xmlns="http://www.w3.org/2000/svg" viewBox="0 0 96 96"><g id="Jblender"><g id="_96" data-name="96"><g id="底色-浅橙"><path id="_48" data-name=" 48" d="M82,69V15a9,9,0,0,0-9-9H23a9,9,0,0,0-9,9V81a9,9,0,0,0,9,9H61.16Z" fill="#f97446"/><path d="M68,69H82L61,90V76A7,7,0,0,1,68,69Z" fill="#fff" opacity="0.3"/></g><path d="M47.5,23.44,66,33.76V56.24L47.5,66.56,29,56.24V33.76L47.5,23.44m0-3.44L26,32V58L47.5,70,69,58V32L47.5,20Z" fill="#fff"/><polyline points="28 33 47.5 44 68 33" fill="none" stroke="#fff" stroke-miterlimit="10" stroke-width="3"/><line x1="47.5" y1="44" x2="47.5" y2="67" fill="none" stroke="#fff" stroke-miterlimit="10" stroke-width="3"/></g></g></svg>