<svg xmlns="http://www.w3.org/2000/svg" viewBox="0 0 96 96"><g id="WPS"><g id="S"><path d="M26,89.5A8.51,8.51,0,0,1,17.5,81V15A8.51,8.51,0,0,1,26,6.5H76A8.51,8.51,0,0,1,84.5,15V68.79L63.79,89.5Z" fill="#fff"/><path d="M76,7a8,8,0,0,1,8,8V68.59L63.59,89H26a8,8,0,0,1-8-8V15a8,8,0,0,1,8-8H76m0-1H26a9,9,0,0,0-9,9V81a9,9,0,0,0,9,9H64L85,69V15a9,9,0,0,0-9-9Z" fill="#ccc"/><path d="M64,76V90L85,69H71A7,7,0,0,0,64,76Z" fill="#e6e6e6"/><path d="M51.83,81H30.17A2.09,2.09,0,0,1,28,79V69a2.09,2.09,0,0,1,2.17-2H51.83A2.09,2.09,0,0,1,54,69V79A2.09,2.09,0,0,1,51.83,81ZM30.17,69v4h7.58V69Zm0,6v4h7.58V75Zm9.75-6v4H51.83V69Zm0,6v4H51.83V75Z" fill="#ccc"/><rect x="11" y="13" width="48" height="48" rx="8" fill="#36cc94"/><g id="S-2" data-name="S"><path d="M29,37H42.82a6,6,0,0,1,5.68,6.23V43a5.78,5.78,0,0,1-5.68,6H22" fill="none" stroke="#fff" stroke-linecap="round" stroke-miterlimit="10" stroke-width="4"/><path d="M46.88,25H27.18a6,6,0,0,0-5.68,6.23V31a5.78,5.78,0,0,0,5.68,6H41.39" fill="none" stroke="#fff" stroke-linecap="round" stroke-miterlimit="10" stroke-width="4"/></g></g></g></svg>