<svg xmlns="http://www.w3.org/2000/svg" viewBox="0 0 96 96"><g id="白底"><g id="_48" data-name=" 48"><path d="M22,89.5A7.5,7.5,0,0,1,14.5,82V14A7.5,7.5,0,0,1,22,6.5H74A7.5,7.5,0,0,1,81.5,14V68.79L60.79,89.5Z" fill="#fff"/><path d="M74,7a7,7,0,0,1,7,7V68.59L60.59,89H22a7,7,0,0,1-7-7V14a7,7,0,0,1,7-7H74m0-1H22a8,8,0,0,0-8,8V82a8,8,0,0,0,8,8H61L82,69V14a8,8,0,0,0-8-8Z" fill="#ccc"/></g><path d="M67,69H82L61,90V75A6,6,0,0,1,67,69Z" fill="#e6e6e6"/><rect x="23.91" y="34.57" width="18.86" height="18.86" transform="translate(-21.35 36.46) rotate(-45)" fill="#5edaf7"/><rect x="38.57" y="19.91" width="18.86" height="18.86" transform="translate(-6.68 42.53) rotate(-45)" fill="#439def"/><rect x="38.57" y="49.24" width="18.86" height="18.86" transform="translate(-27.42 51.12) rotate(-45)" fill="#439def"/><rect x="53.24" y="34.57" width="18.86" height="18.86" transform="translate(-12.76 57.2) rotate(-45)" fill="#5edaf7"/></g></svg>