<svg xmlns="http://www.w3.org/2000/svg" viewBox="0 0 96 96"><g id="白底"><g id="_48" data-name=" 48"><path d="M22,89.5A7.5,7.5,0,0,1,14.5,82V14A7.5,7.5,0,0,1,22,6.5H74A7.5,7.5,0,0,1,81.5,14V68.79L60.79,89.5Z" fill="#fff"/><path d="M74,7a7,7,0,0,1,7,7V68.59L60.59,89H22a7,7,0,0,1-7-7V14a7,7,0,0,1,7-7H74m0-1H22a8,8,0,0,0-8,8V82a8,8,0,0,0,8,8H61L82,69V14a8,8,0,0,0-8-8Z" fill="#ccc"/></g><path d="M67,69H82L61,90V75A6,6,0,0,1,67,69Z" fill="#e6e6e6"/><line x1="66.5" y1="55" x2="66.5" y2="68" fill="none" stroke="#f3a64d" stroke-miterlimit="10" stroke-width="3"/><line x1="61.5" y1="55" x2="61.5" y2="68" fill="none" stroke="#f3a64d" stroke-miterlimit="10" stroke-width="3"/><line x1="51.5" y1="55" x2="51.5" y2="68" fill="none" stroke="#f3a64d" stroke-miterlimit="10" stroke-width="3"/><line x1="46.5" y1="55" x2="46.5" y2="68" fill="none" stroke="#f3a64d" stroke-miterlimit="10" stroke-width="3"/><polygon points="65.55 68 65.55 65 73.39 65 76 68 65.55 68" fill="#f3a64d"/><polygon points="37 68 33.5 68 44.5 55 48 55 37 68" fill="#f3a64d"/><polygon points="27.5 68 24 68 37 55 40.5 55 27.5 68" fill="#f3a64d"/><polygon points="33.5 62 30 62 22 55 25.5 55 33.5 62" fill="#f3a64d"/><polygon points="59.5 55 56.5 59 53.5 55 50 55 55.5 62 57.5 62 63 55 59.5 55" fill="#f3a64d"/><path d="M48.5,17.5c-12.76,0-18.73,4.71-19,5.57v18c.27.64,6.24,6.43,19,6.43s18.73-6,19-6.64v-18c-.27-.65-6.24-5.36-19-5.36Z" fill="none" stroke="#aaa9a9" stroke-linecap="round" stroke-miterlimit="10" stroke-width="3"/><path d="M29.5,31.73c.27.67,6.24,6.77,19,6.77s18.73-6.32,19-7" fill="none" stroke="#aaa9a9" stroke-miterlimit="10" stroke-width="3"/><path d="M29.5,22.73c.27.67,6.24,6.77,19,6.77s18.73-6.32,19-7" fill="none" stroke="#aaa9a9" stroke-miterlimit="10" stroke-width="3"/></g></svg>