<svg xmlns="http://www.w3.org/2000/svg" viewBox="0 0 96 96"><g id="白底"><g id="_48" data-name=" 48"><path d="M22,89.5A7.5,7.5,0,0,1,14.5,82V14A7.5,7.5,0,0,1,22,6.5H74A7.5,7.5,0,0,1,81.5,14V68.79L60.79,89.5Z" fill="#fff"/><path d="M74,7a7,7,0,0,1,7,7V68.59L60.59,89H22a7,7,0,0,1-7-7V14a7,7,0,0,1,7-7H74m0-1H22a8,8,0,0,0-8,8V82a8,8,0,0,0,8,8H61L82,69V14a8,8,0,0,0-8-8Z" fill="#ccc"/></g><path d="M67,69H82L61,90V75A6,6,0,0,1,67,69Z" fill="#e6e6e6"/><path d="M48.24,20h-.61a18.63,18.63,0,0,1,9.86,4.3c3.61,3.18,6.51,9.08,6.51,16C64,50,57.87,57.08,51.87,57.09A11.52,11.52,0,0,1,40.55,45.53a14.13,14.13,0,0,1,7.69-12.92,10.09,10.09,0,0,0-11.06,2.15c-4.89,4.71-6.92,14.05-3.7,22.57S44.09,70.27,54,68.57c1.07-.19,2.12-.42,3.16-.68A24.76,24.76,0,0,0,48.24,20Z" fill="#b17dba"/><path d="M47.76,68.92h.48a18.36,18.36,0,0,1-9.73-4.29C34.9,61.44,32,55.54,32,48.63,32,39,38.13,31.87,44.13,31.86A12,12,0,0,1,55.7,43.75a14.16,14.16,0,0,1-7.46,12.67s5.34,2.84,10.64-2.59c4.95-5.08,6.76-13.6,3.54-22.12S52.21,18.57,42,20.39c-1.07.19-2.12.41-3.16.67a24.76,24.76,0,0,0,8.93,47.86Z" fill="#d1a9d8"/></g></svg>