<svg xmlns="http://www.w3.org/2000/svg" viewBox="0 0 96 96"><g id="白底"><g id="_48" data-name=" 48"><path d="M22,89.5A7.5,7.5,0,0,1,14.5,82V14A7.5,7.5,0,0,1,22,6.5H74A7.5,7.5,0,0,1,81.5,14V68.79L60.79,89.5Z" fill="#fff"/><path d="M74,7a7,7,0,0,1,7,7V68.59L60.59,89H22a7,7,0,0,1-7-7V14a7,7,0,0,1,7-7H74m0-1H22a8,8,0,0,0-8,8V82a8,8,0,0,0,8,8H61L82,69V14a8,8,0,0,0-8-8Z" fill="#ccc"/></g><path d="M67,69H82L61,90V75A6,6,0,0,1,67,69Z" fill="#e6e6e6"/><polygon points="67 65 66.97 54 63 54 63 56 65 56 65 65 63 65 63 67 69 67 69 65 67 65" fill="#999" fill-rule="evenodd"/><path d="M56,56v9H52V56h4m0-2H52a2,2,0,0,0-2,2v9a2,2,0,0,0,2,2h4a2,2,0,0,0,2-2V56a2,2,0,0,0-2-2Z" fill="#999"/><path d="M44,56v9H40V56h4m0-2H40a2,2,0,0,0-2,2v9a2,2,0,0,0,2,2h4a2,2,0,0,0,2-2V56a2,2,0,0,0-2-2Z" fill="#999"/><polygon points="31 65 31 54 27 54 27 56 29 56 29 65 27 65 27 67 33 67 33 65 31 65" fill="#999" fill-rule="evenodd"/><path d="M68,39v9H64V39h4m0-2H64a2,2,0,0,0-2,2v9a2,2,0,0,0,2,2h4a2,2,0,0,0,2-2V39a2,2,0,0,0-2-2Z" fill="#999"/><path d="M44,39v9H40V39h4m0-2H40a2,2,0,0,0-2,2v9a2,2,0,0,0,2,2h4a2,2,0,0,0,2-2V39a2,2,0,0,0-2-2Z" fill="#999"/><polygon points="55 48 55 37 51 37 51 39 53 39 53 48 51 48 51 50 57 50 57 48 55 48" fill="#999" fill-rule="evenodd"/><path d="M32,39v9H28V39h4m0-2H28a2,2,0,0,0-2,2v9a2,2,0,0,0,2,2h4a2,2,0,0,0,2-2V39a2,2,0,0,0-2-2Z" fill="#999"/><path d="M68,22v9H64V22h4m0-2H64a2,2,0,0,0-2,2v9a2,2,0,0,0,2,2h4a2,2,0,0,0,2-2V22a2,2,0,0,0-2-2Z" fill="#999"/><path d="M56,22v9H52V22h4m0-2H52a2,2,0,0,0-2,2v9a2,2,0,0,0,2,2h4a2,2,0,0,0,2-2V22a2,2,0,0,0-2-2Z" fill="#999"/><polygon points="43 31 43 20 39 20 39 22 41 22 41 31 39 31 39 33 45 33 45 31 43 31" fill="#999" fill-rule="evenodd"/><path d="M32,22v9H28V22h4m0-2H28a2,2,0,0,0-2,2v9a2,2,0,0,0,2,2h4a2,2,0,0,0,2-2V22a2,2,0,0,0-2-2Z" fill="#999"/></g></svg>