<svg xmlns="http://www.w3.org/2000/svg" xmlns:xlink="http://www.w3.org/1999/xlink" viewBox="0 0 96 96"><defs><linearGradient id="未命名的渐变_92" x1="48" y1="708" x2="48" y2="792" gradientTransform="translate(0 -702)" gradientUnits="userSpaceOnUse"><stop offset="0" stop-color="#feda3e"/><stop offset="0.97" stop-color="#f9d132"/></linearGradient></defs><g id="压缩文件"><g id="_96" data-name="96"><g id="底色-浅橙"><path id="_48" data-name=" 48" d="M82,69V15a9,9,0,0,0-9-9H23a9,9,0,0,0-9,9V81a9,9,0,0,0,9,9H61.16Z" fill="url(#未命名的渐变_92)"/><path d="M68,69H82L61,90V76A7,7,0,0,1,68,69Z" fill="#fff" opacity="0.4"/></g><path d="M28,50v8a5,5,0,0,0,5,5h1a5,5,0,0,0,5-5V50Zm8,10H31V56h5Z" fill="#907c3b"/><rect x="28" y="6" width="11" height="44" fill="#eaeaea"/><rect x="32" y="9" width="7" height="3" fill="#907c3b"/><rect x="32" y="15" width="7" height="3" fill="#907c3b"/><rect x="32" y="21" width="7" height="3" fill="#907c3b"/><rect x="32" y="27" width="7" height="3" fill="#907c3b"/><rect x="32" y="33" width="7" height="3" fill="#907c3b"/><rect x="32" y="39" width="7" height="3" fill="#907c3b"/><rect x="32" y="45" width="7" height="3" fill="#907c3b"/><rect x="28" y="24" width="7" height="3" fill="#907c3b"/><rect x="28" y="18" width="7" height="3" fill="#907c3b"/><rect x="28" y="12" width="7" height="3" fill="#907c3b"/><rect x="28" y="6" width="7" height="3" fill="#907c3b"/><rect x="28" y="30" width="7" height="3" fill="#907c3b"/><rect x="28" y="42" width="7" height="3" fill="#907c3b"/><rect x="28" y="36" width="7" height="3" fill="#907c3b"/><g id="zop"><line x1="67" y1="48" x2="67" y2="62" fill="none" stroke="#a08c53" stroke-miterlimit="10" stroke-width="2"/><path d="M71.5,54H67V49h4.5A2.5,2.5,0,0,1,74,51.5h0A2.5,2.5,0,0,1,71.5,54Z" fill="none" stroke="#a08c53" stroke-miterlimit="10" stroke-width="2"/><line x1="67" y1="55" x2="74.87" y2="61.13" fill="none" stroke="#a08c53" stroke-miterlimit="10" stroke-width="2"/><line x1="55.02" y1="58" x2="62.73" y2="58" fill="none" stroke="#a08c53" stroke-miterlimit="10" stroke-width="2"/><polyline points="53.5 62 59 49 64.5 62" fill="none" stroke="#a08c53" stroke-linejoin="round" stroke-width="2"/><line x1="44" y1="48" x2="44" y2="62" fill="none" stroke="#a08c53" stroke-miterlimit="10" stroke-width="2"/><path d="M48.5,54H44V49h4.5A2.5,2.5,0,0,1,51,51.5h0A2.5,2.5,0,0,1,48.5,54Z" fill="none" stroke="#a08c53" stroke-miterlimit="10" stroke-width="2"/><line x1="44" y1="55" x2="51.87" y2="61.13" fill="none" stroke="#a08c53" stroke-miterlimit="10" stroke-width="2"/></g></g></g></svg>