<svg xmlns="http://www.w3.org/2000/svg" xmlns:xlink="http://www.w3.org/1999/xlink" viewBox="0 0 96 96"><defs><linearGradient id="未命名的渐变_23" x1="38" y1="29.81" x2="38" y2="38.27" gradientUnits="userSpaceOnUse"><stop offset="0" stop-color="#6a8f46"/><stop offset="1" stop-color="#5e8537"/></linearGradient></defs><g id="压缩文件_复制_2"><g id="_96" data-name="96"><g id="底色-浅橙"><path id="_48" data-name=" 48" d="M82,69V15a9,9,0,0,0-9-9H23a9,9,0,0,0-9,9V81a9,9,0,0,0,9,9H61.16Z" fill="#9cce45"/><path d="M68,69H82L61,90V76A7,7,0,0,1,68,69Z" fill="#fff" opacity="0.3"/></g><line x1="32.5" y1="45.5" x2="40.27" y2="53.27" fill="none" stroke="#5c8435" stroke-linecap="round" stroke-linejoin="round" stroke-width="3"/><line x1="63.5" y1="45.5" x2="56.16" y2="52.84" fill="none" stroke="#5c8435" stroke-linecap="round" stroke-linejoin="round" stroke-width="3"/><path d="M48,48A19,19,0,0,0,29,67H67A19,19,0,0,0,48,48ZM42,61H38V57h4Zm16,0H54V57h4Z" fill="#5c8535"/><path d="M33,28v7a5,5,0,0,0,5,5h0a5,5,0,0,0,5-5V28Zm7,9H36V33h4Z" fill="url(#未命名的渐变_23)"/><rect x="33" y="6" width="10" height="22" fill="#dcedc0"/><rect x="37" y="8" width="6" height="2" fill="#5c8435"/><rect x="37" y="12" width="6" height="2" fill="#5c8435"/><rect x="37" y="16" width="6" height="2" fill="#5c8435"/><rect x="37" y="20" width="6" height="2" fill="#5c8435"/><rect x="37" y="24" width="6" height="2" fill="#5c8435"/><rect x="33" y="18" width="6" height="2" fill="#5c8535"/><rect x="33" y="14" width="6" height="2" fill="#5c8535"/><rect x="33" y="22" width="6" height="2" fill="#5c8535"/><rect x="33" y="10" width="6" height="2" fill="#5c8535"/><rect x="33" y="6" width="6" height="2" fill="#5c8535"/></g></g></svg>