<svg xmlns="http://www.w3.org/2000/svg" viewBox="0 0 96 96"><g id="白底"><g id="_48" data-name=" 48"><path d="M22,89.5A7.5,7.5,0,0,1,14.5,82V14A7.5,7.5,0,0,1,22,6.5H74A7.5,7.5,0,0,1,81.5,14V68.79L60.79,89.5Z" fill="#fff"/><path d="M74,7a7,7,0,0,1,7,7V68.59L60.59,89H22a7,7,0,0,1-7-7V14a7,7,0,0,1,7-7H74m0-1H22a8,8,0,0,0-8,8V82a8,8,0,0,0,8,8H61L82,69V14a8,8,0,0,0-8-8Z" fill="#ccc"/></g><path d="M67,69H82L61,90V75A6,6,0,0,1,67,69Z" fill="#e6e6e6"/><polyline points="47.5 31.03 47.5 45.12 58 53.5" fill="none" stroke="#727277" stroke-linecap="round" stroke-linejoin="round" stroke-width="3"/><path d="M30.66,34.06A20.5,20.5,0,1,1,27.5,45" fill="none" stroke="#727277" stroke-linecap="round" stroke-miterlimit="10" stroke-width="3"/><polygon points="28.46 29.44 27.32 37.44 35.32 36.3 28.46 29.44" fill="#727277"/></g></svg>