<svg xmlns="http://www.w3.org/2000/svg" viewBox="0 0 96 96"><g id="bittoe"><g id="_96" data-name="96"><g id="底色-浅橙"><path id="_48" data-name=" 48" d="M82,69V15a9,9,0,0,0-9-9H23a9,9,0,0,0-9,9V81a9,9,0,0,0,9,9H61.16Z" fill="#7857dd"/><path d="M68,69H82L61,90V76A7,7,0,0,1,68,69Z" fill="#fff" opacity="0.3"/></g><path d="M47.4,20.5a20,20,0,0,0,0,40H82" fill="none" stroke="#fff" stroke-miterlimit="10" stroke-width="3"/><path d="M49.8,26.7a14.57,14.57,0,0,0-2.4-.2,14,14,0,0,0,0,28H82" fill="none" stroke="#fff" stroke-miterlimit="10" stroke-width="3"/><path d="M52.69,34.5a7.23,7.23,0,0,0-.89-.68,7.89,7.89,0,0,0-4.4-1.32,8,8,0,0,0,0,16H82" fill="none" stroke="#fff" stroke-miterlimit="10" stroke-width="3"/></g></g></svg>