<svg xmlns="http://www.w3.org/2000/svg" viewBox="0 0 96 96"><g id="TS"><g id="_96" data-name="96"><path id="_48" data-name=" 48" d="M82,69V15a9,9,0,0,0-9-9H23a9,9,0,0,0-9,9V81a9,9,0,0,0,9,9H61Z" fill="#3692dd"/><path d="M67,69H82L61,90V75A6,6,0,0,1,67,69Z" fill="#fff" opacity="0.3"/><rect x="28" y="30" width="21" height="5" fill="#fff"/><rect x="36" y="35" width="5" height="23" fill="#fff"/><path d="M59.52,58c-5.37-.09-8.24-1.57-8.52-4.4a2.12,2.12,0,0,1,2.33-2.24,10.33,10.33,0,0,1,2.8,1.1,6.91,6.91,0,0,0,3.53.75c2.36-.16,3.68-1.19,4-3.14s-1.9-3.7-6.59-4.87c-4-1.1-6-3.39-5.94-6.81.09-5.38,3-8.21,8.65-8.39,5,.27,7.76,1.75,8.14,4.39-.21,1.64-1.2,2-2,2a4.17,4.17,0,0,1-.94-.12c-.24-.11-.54-.24-1-.41a8.71,8.71,0,0,0-1.52-.51,8.71,8.71,0,0,0-3-.52C57.36,35,56.21,36,56.05,38c0,1.2,1.56,2.33,4.64,3.33.34.08.65.17.92.26,4.62,1.36,7,4,7,7.72,0,5.75-3,8.66-9,8.66Z" fill="#fff"/></g></g></svg>