<svg xmlns="http://www.w3.org/2000/svg" viewBox="0 0 96 96"><g id="图层_21" data-name="图层 21"><g id="_96" data-name="96"><g id="底色-浅橙"><path id="_48" data-name=" 48" d="M82,69V15a9,9,0,0,0-9-9H23a9,9,0,0,0-9,9V81a9,9,0,0,0,9,9H61.16Z" fill="#66af12"/><path d="M68,69H82L61,90V76A7,7,0,0,1,68,69Z" fill="#fff" opacity="0.3"/></g><path d="M47.88,58.72l-14.6-14.6,14.6-14.6,4.87,4.87L43,44.12,47.88,49l14.6-14.6L49.83,21.73a2.67,2.67,0,0,0-3.66,0L25.73,42.17a2.67,2.67,0,0,0,0,3.66L46.17,66.27a2.67,2.67,0,0,0,3.66,0L70.27,45.83a2.67,2.67,0,0,0,0-3.66l-3.16-2.92Z" fill="#fff" style="isolation:isolate"/></g></g></svg>