<svg xmlns="http://www.w3.org/2000/svg" viewBox="0 0 96 96"><g id="JS"><g id="_96" data-name="96"><g id="底色-浅橙"><path id="_48" data-name=" 48" d="M82,69V15a9,9,0,0,0-9-9H23a9,9,0,0,0-9,9V81a9,9,0,0,0,9,9H61.16Z" fill="#fbb028"/><path d="M68,69H82L61,90V76A7,7,0,0,1,68,69Z" fill="#fff" opacity="0.3"/></g><g id="js-2" data-name="js"><path d="M36,23h7V58H24V51H36Z" fill="#fff" style="isolation:isolate"/><path d="M50,23H71v7H57v7H71V58H50V51H64V44H50Z" fill="#fff" style="isolation:isolate"/></g></g></g></svg>