<svg xmlns="http://www.w3.org/2000/svg" viewBox="0 0 96 96"><g id="WPS"><g id="A"><path d="M25,89.5A8.51,8.51,0,0,1,16.5,81V15A8.51,8.51,0,0,1,25,6.5H75A8.51,8.51,0,0,1,83.5,15V68.79L63,89.5Z" fill="#fff"/><path d="M75,7a8,8,0,0,1,8,8V68.59L62.74,89H25a8,8,0,0,1-8-8V15a8,8,0,0,1,8-8H75m0-1H25a9,9,0,0,0-9,9V81a9,9,0,0,0,9,9H63.16L84,69V15a9,9,0,0,0-9-9Z" fill="#ccc"/><path d="M84,69H70.33A7.33,7.33,0,0,0,63,76.33V90h.16Z" fill="#e6e6e6"/><path d="M40,63c5.53,0,8.88,1.26,9.82,2-.94.74-4.29,2-9.82,2s-8.88-1.26-9.82-2c.94-.74,4.29-2,9.82-2m0-2c-6.63,0-12,1.79-12,4s5.37,4,12,4,12-1.79,12-4-5.37-4-12-4Z" fill="#ccc"/><path d="M29,70.33c0,2,4.92,3.67,11,3.67s11-1.64,11-3.67" fill="none" stroke="#ccc" stroke-miterlimit="10" stroke-width="2"/><path d="M29,76.33c0,2,4.92,3.67,11,3.67s11-1.64,11-3.67" fill="none" stroke="#ccc" stroke-miterlimit="10" stroke-width="2"/><line x1="51" y1="65" x2="51" y2="76.5" fill="none" stroke="#ccc" stroke-miterlimit="10" stroke-width="2"/><line x1="29" y1="76.5" x2="29" y2="65" fill="none" stroke="#ccc" stroke-miterlimit="10" stroke-width="2"/><rect x="10" y="10" width="48" height="48" rx="9" fill="#f46969"/><line x1="34" y1="20" x2="47" y2="48" fill="none" stroke="#fff" stroke-linecap="round" stroke-miterlimit="10" stroke-width="4"/><line x1="34" y1="20" x2="21" y2="48" fill="none" stroke="#fff" stroke-linecap="round" stroke-miterlimit="10" stroke-width="4"/><line x1="25.26" y1="38" x2="42.02" y2="38" fill="none" stroke="#fff" stroke-miterlimit="10" stroke-width="4"/></g></g></svg>