<svg xmlns="http://www.w3.org/2000/svg" viewBox="0 0 96 96"><g id="锁"><path id="_48" data-name=" 48" d="M13,81a9,9,0,0,0,9,9H60L81,69V15a9,9,0,0,0-9-9H22a9,9,0,0,0-9,9" fill="#3b98ed"/><path d="M66,69H81L60,90V75A6,6,0,0,1,66,69Z" fill="#fff" opacity="0.3"/><path d="M60,33a1,1,0,0,1,1,1V52a1,1,0,0,1-1,1H34a1,1,0,0,1-1-1V34a1,1,0,0,1,1-1H60m0-3H34a4,4,0,0,0-4,4V52a4,4,0,0,0,4,4H60a4,4,0,0,0,4-4V34a4,4,0,0,0-4-4Z" fill="#fff"/><path d="M37.5,32V26.64A9.35,9.35,0,0,1,47,17.5h0a9.35,9.35,0,0,1,9.5,9.14V32" fill="none" stroke="#fff" stroke-miterlimit="10" stroke-width="3"/><rect x="44" y="39" width="6" height="8" fill="#fff"/><g opacity="0.7"><line x1="55" y1="60" x2="55" y2="73" fill="none" stroke="#fff" stroke-miterlimit="10" stroke-width="2"/><rect x="55" y="61" width="6" height="6" fill="none" stroke="#fff" stroke-miterlimit="10" stroke-width="2"/><rect x="44" y="61" width="6" height="6" fill="none" stroke="#fff" stroke-miterlimit="10" stroke-width="2"/><polyline points="50 66.59 50 72 43 72" fill="none" stroke="#fff" stroke-miterlimit="10" stroke-width="2"/><line x1="33" y1="60" x2="33" y2="73" fill="none" stroke="#fff" stroke-miterlimit="10" stroke-width="2"/><rect x="33" y="61" width="6" height="6" fill="none" stroke="#fff" stroke-miterlimit="10" stroke-width="2"/></g></g></svg>