<svg xmlns="http://www.w3.org/2000/svg" viewBox="0 0 96 96"><g id="白底"><g id="_48" data-name=" 48"><path d="M22,89.5A7.5,7.5,0,0,1,14.5,82V14A7.5,7.5,0,0,1,22,6.5H74A7.5,7.5,0,0,1,81.5,14V68.79L60.79,89.5Z" fill="#fff"/><path d="M74,7a7,7,0,0,1,7,7V68.59L60.59,89H22a7,7,0,0,1-7-7V14a7,7,0,0,1,7-7H74m0-1H22a8,8,0,0,0-8,8V82a8,8,0,0,0,8,8H61L82,69V14a8,8,0,0,0-8-8Z" fill="#ccc"/></g><path d="M67,69H82L61,90V75A6,6,0,0,1,67,69Z" fill="#e6e6e6"/><g id="_64" data-name=" 64"><path d="M67.8,40.1a18,18,0,0,0-3-7.5l3-3-5.1-5.1-3.3,3a23.05,23.05,0,0,0-7.5-3V20H44.1v4.2a18.67,18.67,0,0,0-7.5,3.3l-3-3-5.1,5.1,3,3a13.77,13.77,0,0,0-3,7.5H24v7.5h4.2a18,18,0,0,0,3,7.5l-3,3,5.1,5.1,3.3-3a23.05,23.05,0,0,0,7.5,3V68h7.5V63.8a18,18,0,0,0,7.5-3l3,3,5.1-5.1-3-3.3a23.05,23.05,0,0,0,3-7.5H72V40.1ZM48,59A15.24,15.24,0,0,1,33,44,15.24,15.24,0,0,1,48,29,15.24,15.24,0,0,1,63,44,15.24,15.24,0,0,1,48,59Z" fill="#818182" style="isolation:isolate"/><g style="isolation:isolate"><path d="M48,37a7.12,7.12,0,0,1,7,7,7,7,0,1,1-7-7m0-4A11,11,0,1,0,59,44,11,11,0,0,0,48,33Z" fill="#818182"/></g></g></g></svg>