<svg xmlns="http://www.w3.org/2000/svg" viewBox="0 0 96 96"><g id="白底"><g id="_48" data-name=" 48"><path d="M22,89.5A7.5,7.5,0,0,1,14.5,82V14A7.5,7.5,0,0,1,22,6.5H74A7.5,7.5,0,0,1,81.5,14V68.79L60.79,89.5Z" fill="#fff"/><path d="M74,7a7,7,0,0,1,7,7V68.59L60.59,89H22a7,7,0,0,1-7-7V14a7,7,0,0,1,7-7H74m0-1H22a8,8,0,0,0-8,8V82a8,8,0,0,0,8,8H61L82,69V14a8,8,0,0,0-8-8Z" fill="#ccc"/></g><path d="M67,69H82L61,90V75A6,6,0,0,1,67,69Z" fill="#e6e6e6"/><path d="M48,18A24,24,0,1,0,72,42,24,24,0,0,0,48,18Zm0,26.48A2.48,2.48,0,1,1,50.48,42,2.43,2.43,0,0,1,48,44.48Z" fill="#179ffc"/><circle cx="48" cy="42" r="19" fill="#f6f5f5"/><path d="M48,26A16,16,0,1,0,64,42,16,16,0,0,0,48,26Zm0,21.89A5.89,5.89,0,1,1,53.89,42,5.86,5.86,0,0,1,48,47.89Z" fill="#0690fe"/><g opacity="0.5"><path d="M54.29,42l9.43.66A13.17,13.17,0,0,0,62.65,36l-8.86,3.23a8.08,8.08,0,0,1,.5,2.81" fill="#fff"/><path d="M41.38,41.09l-9.27-.66A13.32,13.32,0,0,0,32.86,47l8.85-3.31c.41-1.08-.33-1.66-.33-2.57" fill="#fff"/></g><g opacity="0.5"><path d="M53.3,38.19l8.11-4.71S59.17,30,56.52,28.59l-5.21,7.62a5.12,5.12,0,0,1,2,2" fill="#fff"/><path d="M42.21,44.65,34,49.53c1.41,2.32,2.16,3.56,4.47,5.13l5.46-7.78c-1-.49-1.24-1.49-1.73-2.23" fill="#fff"/></g><path d="M48,36a6,6,0,1,0,6,6h0a5.88,5.88,0,0,0-5.68-6H48" fill="none" stroke="#02070c" stroke-miterlimit="10" stroke-width="2"/></g></svg>