<svg xmlns="http://www.w3.org/2000/svg" viewBox="0 0 96 96"><g id="x-msi"><path id="_48" data-name=" 48" d="M13,81a9,9,0,0,0,9,9H60L81,69V15a9,9,0,0,0-9-9H22a9,9,0,0,0-9,9" fill="#3b98ed"/><path d="M66,69H81L60,90V75A6,6,0,0,1,66,69Z" fill="#fff" opacity="0.3"/><rect x="39.83" y="19.11" width="15" height="15" transform="translate(32.68 -25.68) rotate(45)" fill="#fff"/><rect x="52.58" y="31.89" width="15" height="15" transform="translate(45.45 -30.94) rotate(45)" fill="#fff"/><rect x="27.11" y="31.83" width="15" height="15" transform="translate(37.95 -12.95) rotate(45)" fill="#fff"/><rect x="39.85" y="44.62" width="15" height="15" transform="translate(50.72 -18.22) rotate(45)" fill="#fff"/></g></svg>