<svg xmlns="http://www.w3.org/2000/svg" viewBox="0 0 96 96"><g id="白底"><g id="_48" data-name=" 48"><path d="M22,89.5A7.5,7.5,0,0,1,14.5,82V14A7.5,7.5,0,0,1,22,6.5H74A7.5,7.5,0,0,1,81.5,14V68.79L60.79,89.5Z" fill="#fff"/><path d="M74,7a7,7,0,0,1,7,7V68.59L60.59,89H22a7,7,0,0,1-7-7V14a7,7,0,0,1,7-7H74m0-1H22a8,8,0,0,0-8,8V82a8,8,0,0,0,8,8H61L82,69V14a8,8,0,0,0-8-8Z" fill="#ccc"/></g><path d="M67,69H82L61,90V75A6,6,0,0,1,67,69Z" fill="#e6e6e6"/><polygon points="63 42 52 37.77 52 52.65 63 42" fill="#82817e"/><polygon points="32 72 49 55 43 49 32 72" fill="#82817e"/><polygon points="24 27 50 54 50 37 24 27" fill="#82817e"/><polygon points="53.96 36 69 36 72 44 53.96 36" fill="#82817e"/></g></svg>