<svg xmlns="http://www.w3.org/2000/svg" viewBox="0 0 96 96"><g id="flatpak"><g id="_96" data-name="96"><path id="_48" data-name=" 48" d="M82,69V15a9,9,0,0,0-9-9H23a9,9,0,0,0-9,9V81a9,9,0,0,0,9,9H61Z" fill="#219ae7"/><path d="M67,69H82L61,90V75A6,6,0,0,1,67,69Z" fill="#fff" opacity="0.3"/><polygon points="47.5 17.45 25.5 28.92 41.08 37.05 47.5 33.71 47.5 17.45" fill="#cbe7f9"/><polygon points="41.08 38 25.5 29.87 25.5 46.13 25.5 56.65 47.5 68.13 47.5 41.35 41.08 38" fill="#cbe7f9"/><polygon points="48.5 17.45 48.5 33.71 54.92 37.05 70.5 28.92 48.5 17.45" fill="#cde8fa"/><polygon points="54.92 38 48.5 41.35 48.5 68.13 70.5 56.65 70.5 46.13 70.5 29.87 54.92 38" fill="#cbe7f9"/></g></g></svg>