<svg xmlns="http://www.w3.org/2000/svg" viewBox="0 0 96 96"><g id="libreoffice"><g id="libreoffice-document_复制_3" data-name="libreoffice-document_复制 3"><g id="_94" data-name="94"><g id="_48" data-name=" 48"><path d="M23,89a8,8,0,0,1-8-8V15a8,8,0,0,1,8-8H73a8,8,0,0,1,8,8V68.59L60.59,89Z" fill="#fff"/><path d="M73,8a7,7,0,0,1,7,7V68.17L60.17,88H23a7,7,0,0,1-7-7V15a7,7,0,0,1,7-7H73m0-2H23a9,9,0,0,0-9,9V81a9,9,0,0,0,9,9H61L82,69V15a9,9,0,0,0-9-9Z" fill="#e86e43"/></g><path d="M67,69H82L61,90V75A6,6,0,0,1,67,69Z" fill="#e86e43"/><rect x="32" y="49" width="3" height="3" fill="#e86e43"/><rect x="32" y="43" width="3" height="3" fill="#e86e43"/><rect x="32" y="37" width="3" height="3" fill="#e86e43"/><polygon points="51 58 55 58 55 55 41 55 41 58 45 58 40 65 44 65 48 60 52 65 56 65 51 58" fill="#4f4f4f"/><path d="M68,27V56H28V27H68m2-2H26V58H70V25Z" fill="#e86e43"/><rect x="32" y="31" width="32" height="3" fill="#e86e43"/><rect x="37" y="49" width="9" height="3" fill="#e86e43"/><rect x="37" y="43" width="9" height="3" fill="#e86e43"/><rect x="37" y="37" width="9" height="3" fill="#e86e43"/><g opacity="0.4"><path d="M48,37V52H64V37Z" fill="#b3b3b3"/></g><polyline points="48.5 50.5 53.5 43 58.5 48 61 40.5 64 45" fill="none" stroke="#51ce5d" stroke-linecap="round" stroke-linejoin="round" stroke-width="2"/></g></g></g></svg>