<svg xmlns="http://www.w3.org/2000/svg" viewBox="0 0 96 96"><g id="白底"><g id="_48" data-name=" 48"><path d="M22,89.5A7.5,7.5,0,0,1,14.5,82V14A7.5,7.5,0,0,1,22,6.5H74A7.5,7.5,0,0,1,81.5,14V68.79L60.79,89.5Z" fill="#fff"/><path d="M74,7a7,7,0,0,1,7,7V68.59L60.59,89H22a7,7,0,0,1-7-7V14a7,7,0,0,1,7-7H74m0-1H22a8,8,0,0,0-8,8V82a8,8,0,0,0,8,8H61L82,69V14a8,8,0,0,0-8-8Z" fill="#ccc"/></g><path d="M67,69H82L61,90V75A6,6,0,0,1,67,69Z" fill="#e6e6e6"/><g opacity="0.8"><path d="M67,31V57H53a7.42,7.42,0,0,0-5,2.12A7.42,7.42,0,0,0,43,57H29V31H43c1.1,0,2.21,1.25,2.5,1.66L48,36.43l2.5-3.74C50.79,32.25,51.9,31,53,31H67m3-3H53c-3,0-5,3-5,3s-2-3-5-3H26V60H43c3,0,5,4,5,4s2-4,5-4H70V28Z" fill="#8b8c8e"/><line x1="33" y1="45" x2="45" y2="45" fill="none" stroke="#818696" stroke-miterlimit="10" stroke-width="2"/><line x1="33" y1="49" x2="45" y2="49" fill="none" stroke="#818696" stroke-miterlimit="10" stroke-width="2"/><line x1="33" y1="53" x2="45" y2="53" fill="none" stroke="#818696" stroke-miterlimit="10" stroke-width="2"/><line x1="53" y1="37" x2="65" y2="37" fill="none" stroke="#818696" stroke-miterlimit="10" stroke-width="2"/><line x1="41" y1="41" x2="45" y2="41" fill="none" stroke="#818696" stroke-miterlimit="10" stroke-width="2"/><line x1="41" y1="37" x2="45" y2="37" fill="none" stroke="#818696" stroke-miterlimit="10" stroke-width="2"/><line x1="53" y1="41" x2="65" y2="41" fill="none" stroke="#818696" stroke-miterlimit="10" stroke-width="2"/><line x1="53" y1="45" x2="65" y2="45" fill="none" stroke="#818696" stroke-miterlimit="10" stroke-width="2"/><line x1="53" y1="49" x2="65" y2="49" fill="none" stroke="#818696" stroke-miterlimit="10" stroke-width="2"/><line x1="53" y1="53" x2="59" y2="53" fill="none" stroke="#818696" stroke-miterlimit="10" stroke-width="2"/><rect x="33" y="36" width="6" height="6" fill="#818696"/></g></g></svg>