<svg xmlns="http://www.w3.org/2000/svg" xmlns:xlink="http://www.w3.org/1999/xlink" viewBox="0 0 96 96"><defs><linearGradient id="未命名的渐变_85" x1="48" y1="32" x2="48" y2="116" gradientTransform="matrix(1, 0, 0, -1, 0, 122)" gradientUnits="userSpaceOnUse"><stop offset="0" stop-color="#261300"/><stop offset="1" stop-color="#361300"/></linearGradient></defs><g id="ai"><g id="_96" data-name="96"><g id="_48" data-name=" 48"><path d="M82,69V15a9,9,0,0,0-9-9H23a9,9,0,0,0-9,9V81a9,9,0,0,0,9,9H61Z" fill="url(#未命名的渐变_85)"/></g><path d="M67,69H82L61,90V75A6,6,0,0,1,67,69Z" fill="#ff7d02" opacity="0.3"/><polygon points="32.61 62 26 62 38.12 24 44.73 24 32.61 62" fill="#ff7d02"/><polygon points="57.39 62 50.78 62 38.12 24 44.73 24 57.39 62" fill="#ff7d02"/><rect x="34.61" y="46" width="14.87" height="6" fill="#ff7d02"/><rect x="63" y="35" width="7" height="27" fill="#ff7d02"/><circle cx="66.5" cy="26.5" r="4.5" fill="#ff7d02"/></g></g></svg>