<svg xmlns="http://www.w3.org/2000/svg" viewBox="0 0 96 96"><g id="白底"><g id="_48" data-name=" 48"><path d="M22,89.5A7.5,7.5,0,0,1,14.5,82V14A7.5,7.5,0,0,1,22,6.5H74A7.5,7.5,0,0,1,81.5,14V68.79L60.79,89.5Z" fill="#fff"/><path d="M74,7a7,7,0,0,1,7,7V68.59L60.59,89H22a7,7,0,0,1-7-7V14a7,7,0,0,1,7-7H74m0-1H22a8,8,0,0,0-8,8V82a8,8,0,0,0,8,8H61L82,69V14a8,8,0,0,0-8-8Z" fill="#ccc"/></g><path d="M67,69H82L61,90V75A6,6,0,0,1,67,69Z" fill="#e6e6e6"/><path d="M31,65.5a4.53,4.53,0,0,1,0,9,4.53,4.53,0,0,1,0-9m0-1a5.53,5.53,0,0,0,0,11,5.52,5.52,0,0,0,0-11Z" fill="#888"/><path d="M46.06,72.5H42.5a4,4,0,0,1-4-4h0a4,4,0,0,1,4-4h3.56" fill="none" stroke="#888" stroke-miterlimit="10"/><path d="M46.5,64V74.5a2,2,0,0,1-2,2H39" fill="none" stroke="#888" stroke-miterlimit="10"/><path d="M57.06,72.5H53.5a4,4,0,0,1-4-4h0a4,4,0,0,1,4-4h3.56" fill="none" stroke="#888" stroke-miterlimit="10"/><path d="M57.5,64V74.5a2,2,0,0,1-2,2H50" fill="none" stroke="#888" stroke-miterlimit="10"/><polyline points="37.5 56 37.5 22 62.5 18 62.5 52" fill="none" stroke="#f44760" stroke-miterlimit="10" stroke-width="3"/><ellipse cx="32" cy="56" rx="7" ry="6" fill="#f44760"/><ellipse cx="57" cy="52" rx="7" ry="6" fill="#f44760"/><polygon points="36 19 64 15 64 26 36 30 36 19" fill="#f44760"/></g></svg>