<svg xmlns="http://www.w3.org/2000/svg" viewBox="0 0 96 96"><g id="白底"><g id="_48" data-name=" 48"><path d="M22,89.5A7.5,7.5,0,0,1,14.5,82V14A7.5,7.5,0,0,1,22,6.5H74A7.5,7.5,0,0,1,81.5,14V68.79L60.79,89.5Z" fill="#fff"/><path d="M74,7a7,7,0,0,1,7,7V68.59L60.59,89H22a7,7,0,0,1-7-7V14a7,7,0,0,1,7-7H74m0-1H22a8,8,0,0,0-8,8V82a8,8,0,0,0,8,8H61L82,69V14a8,8,0,0,0-8-8Z" fill="#ccc"/></g><path d="M67,69H82L61,90V75A6,6,0,0,1,67,69Z" fill="#e6e6e6"/><path d="M31.5,79V68A2.5,2.5,0,0,1,34,65.5h1.5" fill="none" stroke="#888" stroke-miterlimit="10"/><line x1="31.5" y1="70.5" x2="36" y2="70.5" fill="none" stroke="#888" stroke-miterlimit="10"/><path d="M42,78.5h0A2.5,2.5,0,0,1,39.5,76V67" fill="none" stroke="#888" stroke-miterlimit="10"/><path d="M44,70.5h3.5a2,2,0,0,1,2,2V79" fill="none" stroke="#888" stroke-miterlimit="10"/><path d="M49.33,78.5H46A2.5,2.5,0,0,1,43.5,76h0A2.5,2.5,0,0,1,46,73.5h3.33" fill="none" stroke="#888" stroke-miterlimit="10"/><path d="M59,78.5H57A4.51,4.51,0,0,1,52.5,74h0A4.51,4.51,0,0,1,57,69.5h2" fill="none" stroke="#888" stroke-miterlimit="10"/><polyline points="37.5 56 37.5 22 62.5 18 62.5 52" fill="none" stroke="#f44760" stroke-miterlimit="10" stroke-width="3"/><ellipse cx="32" cy="56" rx="7" ry="6" fill="#f44760"/><ellipse cx="57" cy="52" rx="7" ry="6" fill="#f44760"/><polygon points="36 19 64 15 64 26 36 30 36 19" fill="#f44760"/></g></svg>