<svg xmlns="http://www.w3.org/2000/svg" viewBox="0 0 96 96"><g id="压缩文件"><g id="压缩文件_复制"><g id="_96" data-name="96"><g id="底色-浅橙"><path id="_48" data-name=" 48" d="M82,69V15a9,9,0,0,0-9-9H23a9,9,0,0,0-9,9V81a9,9,0,0,0,9,9H61.16Z" fill="#ffaf73"/><path d="M68,69H82L61,90V76A7,7,0,0,1,68,69Z" fill="#fff" opacity="0.3"/></g><rect x="56" y="19" width="20" height="2" fill="#8c6951"/><rect x="56" y="23" width="20" height="2" fill="#8c6951"/><rect x="56" y="27" width="20" height="2" fill="#8c6951"/><rect x="56" y="31" width="10" height="2" fill="#8c6951"/><rect x="44" y="6" width="8" height="84" fill="#ffebc0"/><rect x="21" y="62" width="18" height="12" fill="#f9f9f9"/><rect x="35" y="64" width="2" height="8" fill="#706e6d"/><rect x="31" y="64" width="2" height="8" fill="#706e6d"/><rect x="27" y="64" width="2" height="8" fill="#706e6d"/><rect x="23" y="64" width="2" height="8" fill="#706e6d"/></g></g></g></svg>