<svg id="图层_1" data-name="图层 1" xmlns="http://www.w3.org/2000/svg" viewBox="0 0 16 16"><defs><style>.cls-1{fill:#262626;}</style></defs><g id="黑色"><g id="图片"><g id="编组_5备份" data-name="编组 5备份"><g id="路径_7" data-name="路径 7"><path class="cls-1" d="M10,12a.49.49,0,0,1-.38-.18l-3-3.51a1.49,1.49,0,0,0-1.69-.23L1.69,9.46a.5.5,0,1,1-.38-.92L4.52,7.18a2.49,2.49,0,0,1,2.83.46l3,3.54a.51.51,0,0,1-.05.71A.52.52,0,0,1,10,12Z"/></g><path class="cls-1" d="M13,14H3a2,2,0,0,1-2-2V4A2,2,0,0,1,3,2H13a2,2,0,0,1,2,2v8A2,2,0,0,1,13,14ZM3,3A1,1,0,0,0,2,4v8a1,1,0,0,0,1,1H13a1,1,0,0,0,1-1V4a1,1,0,0,0-1-1Z"/><path class="cls-1" d="M14.18,12.31,12.52,10.2a.51.51,0,0,0-.71-.09l-.09.09-1.33,1.63-.78-.64,1.33-1.62a1.55,1.55,0,0,1,.26-.25,1.5,1.5,0,0,1,2.1.26L15,11.69Z"/><path class="cls-1" d="M11.5,7A1.5,1.5,0,1,1,13,5.5,1.5,1.5,0,0,1,11.5,7Zm0-2a.5.5,0,1,0,.5.5A.5.5,0,0,0,11.5,5Z"/></g></g></g></svg>