<svg xmlns="http://www.w3.org/2000/svg" xmlns:xlink="http://www.w3.org/1999/xlink" viewBox="0 0 96 96"><defs><linearGradient id="未命名的渐变_110" x1="48" y1="32" x2="48" y2="116" gradientTransform="matrix(1, 0, 0, -1, 0, 122)" gradientUnits="userSpaceOnUse"><stop offset="0" stop-color="#061e26"/><stop offset="1" stop-color="#0c2b33"/></linearGradient></defs><g id="psd"><g id="_96" data-name="96"><g id="_48" data-name=" 48"><path d="M82,69V15a9,9,0,0,0-9-9H23a9,9,0,0,0-9,9V81a9,9,0,0,0,9,9H61Z" fill="url(#未命名的渐变_110)"/></g><path d="M67,69H82L61,90V75A6,6,0,0,1,67,69Z" fill="#26c9ff" opacity="0.3"/><path d="M28.52,27h10A7.78,7.78,0,0,1,46,35h0a7.78,7.78,0,0,1-7.49,8h-10" fill="none" stroke="#26c9ff" stroke-miterlimit="10" stroke-width="6"/><rect x="26" y="24" width="6" height="36" fill="#26c9ff"/><path d="M51,53.4l5.42-1a5,5,0,0,0,1.4,2.9,4.14,4.14,0,0,0,2.95,1,4.63,4.63,0,0,0,3.15-.93,2.25,2.25,0,0,0,.71-1.75,1.92,1.92,0,0,0-.38-1.23,3.9,3.9,0,0,0-1.8-.86q-6.54-1.74-8.28-3.18a6.81,6.81,0,0,1-2.42-5.56,7.54,7.54,0,0,1,2.09-5.4q2.1-2.19,6.49-2.19c2.79,0,4.87.56,6.23,1.66a8.6,8.6,0,0,1,2.8,4.88l-5.09,1.14A3.91,3.91,0,0,0,63,40.65a4,4,0,0,0-2.6-.77,5,5,0,0,0-3.05.72,1.66,1.66,0,0,0-.62,1.33,1.56,1.56,0,0,0,.54,1.19c.49.43,2.16,1,5,1.83s4.88,1.76,6,2.91A6.67,6.67,0,0,1,70,52.72a8.16,8.16,0,0,1-2.34,5.84C66.1,60.19,63.78,61,60.72,61a9.86,9.86,0,0,1-6.59-2A9.61,9.61,0,0,1,51,53.4Z" fill="#26c9ff"/></g></g></svg>