<svg xmlns="http://www.w3.org/2000/svg" viewBox="0 0 96 96"><g id="白底"><g id="_48" data-name=" 48"><path d="M22,89.5A7.5,7.5,0,0,1,14.5,82V14A7.5,7.5,0,0,1,22,6.5H74A7.5,7.5,0,0,1,81.5,14V68.79L60.79,89.5Z" fill="#fff"/><path d="M74,7a7,7,0,0,1,7,7V68.59L60.59,89H22a7,7,0,0,1-7-7V14a7,7,0,0,1,7-7H74m0-1H22a8,8,0,0,0-8,8V82a8,8,0,0,0,8,8H61L82,69V14a8,8,0,0,0-8-8Z" fill="#ccc"/></g><path d="M67,69H82L61,90V75A6,6,0,0,1,67,69Z" fill="#e6e6e6"/><path d="M43,44.09A11.5,11.5,0,1,1,55.25,25" fill="#d3caf9"/><path d="M49,47.4A11.5,11.5,0,1,1,37,67" fill="#d3caf9"/><path d="M49,47.4A11.5,11.5,0,1,1,37,67" fill="none" stroke="#976adc" stroke-miterlimit="10" stroke-width="2"/><path d="M43,44.09A11.5,11.5,0,1,1,55.25,25" fill="none" stroke="#976adc" stroke-miterlimit="10" stroke-width="2"/><path d="M26,35a2,2,0,1,1-2,2,2,2,0,0,1,2-2m0-2a4,4,0,1,0,4,4,4,4,0,0,0-4-4Z" fill="#f34f17"/><path d="M66,52a2,2,0,1,1-2,2,2,2,0,0,1,2-2m0-2a4,4,0,1,0,4,4,4,4,0,0,0-4-4Z" fill="#f34f17"/><line x1="43" y1="44.34" x2="29.5" y2="38.5" fill="none" stroke="#f34f17" stroke-miterlimit="10" stroke-width="2"/><line x1="63" y1="53" x2="49.14" y2="47" fill="none" stroke="#f34f17" stroke-miterlimit="10" stroke-width="2"/><path d="M48,44v4H44V44h4m2-2H42v8h8V42Z" fill="#a591e9"/><path d="M36,64v4H32V64h4m2-2H30v8h8V62Z" fill="#a591e9"/><path d="M60,25v4H56V25h4m2-2H54v8h8V23Z" fill="#a591e9"/></g></svg>