<svg xmlns="http://www.w3.org/2000/svg" viewBox="0 0 96 96"><g id="libreoffice"><g id="libreoffice-document_复制_2" data-name="libreoffice-document_复制 2"><g id="_96" data-name="96"><g id="_48" data-name=" 48"><path d="M23,89a8,8,0,0,1-8-8V15a8,8,0,0,1,8-8H73a8,8,0,0,1,8,8V68.59L60.59,89Z" fill="#fff"/><path d="M73,8a7,7,0,0,1,7,7V68.17L60.17,88H23a7,7,0,0,1-7-7V15a7,7,0,0,1,7-7H73m0-2H23a9,9,0,0,0-9,9V81a9,9,0,0,0,9,9H61L82,69V15a9,9,0,0,0-9-9Z" fill="#51ce5d"/></g><path d="M67,69H82L61,90V75A6,6,0,0,1,67,69Z" fill="#51ce5d"/><path d="M26,24V55H65V24ZM38,52H29V48h9Zm0-7H29V41h9Zm0-7H29V34h9Zm0-7H29V27h9ZM50,52H41V48h9Zm0-7H41V41h9Zm0-7H41V34h9Zm0-7H41V27h9ZM62,52H53V48h9Zm0-7H53V41h9Zm0-7H53V34h9Zm0-7H53V27h9Z" fill="#62c451"/><rect x="41.5" y="44.5" width="27" height="18" fill="#fff"/><path d="M67,46V61H43V46H67m3-3H40V64H70V43Z" fill="#999"/><rect x="46" y="52" width="4" height="9" fill="#8acdf4"/><rect x="53" y="49" width="4" height="12" fill="#fcb270"/><rect x="60" y="55" width="4" height="6" fill="#7df48f"/></g></g></g></svg>