<svg xmlns="http://www.w3.org/2000/svg" viewBox="0 0 96 96"><g id="libreoffice"><g id="libreoffice-math"><g id="_96" data-name="96"><g id="_48" data-name=" 48"><path d="M23,89a8,8,0,0,1-8-8V15a8,8,0,0,1,8-8H73a8,8,0,0,1,8,8V68.59L60.74,89Z" fill="#fff"/><path d="M73,8a7,7,0,0,1,7,7V68.18L60.32,88H23a7,7,0,0,1-7-7V15a7,7,0,0,1,7-7H73m0-2H23a9,9,0,0,0-9,9V81a9,9,0,0,0,9,9H61.16L82,69V15a9,9,0,0,0-9-9Z" fill="#6d6866"/></g><path d="M67,69H82L61,90V75A6,6,0,0,1,67,69Z" fill="#6d6866"/><rect x="25" y="21" width="45" height="30" fill="#f8d7b6"/><rect x="58" y="56" width="5" height="5" fill="#606060"/><rect x="49" y="56" width="5" height="5" fill="#606060"/><rect x="40" y="56" width="5" height="5" fill="#606060"/><rect x="31" y="56" width="5" height="5" fill="#606060"/><line x1="26.5" y1="52.5" x2="67" y2="52.5" fill="none" stroke="#b3b3b3" stroke-miterlimit="10" stroke-width="3"/><path d="M67,24V63H28V24H67m3-3H25V66H70V21Z" fill="#b3b3b3"/><polyline points="31 39 35 39 40 46.5 46 28.5 64 28.5" fill="none" stroke="#606060" stroke-miterlimit="10" stroke-width="3"/><line x1="49" y1="32.25" x2="62.5" y2="47.75" fill="none" stroke="#606060" stroke-miterlimit="10" stroke-width="3"/><line x1="62.25" y1="32.25" x2="48.75" y2="47.75" fill="none" stroke="#606060" stroke-miterlimit="10" stroke-width="3"/></g></g></g></svg>