<svg xmlns="http://www.w3.org/2000/svg" viewBox="0 0 96 96"><g id="libreoffice"><g id="libreoffice-math_复制"><g id="_96" data-name="96"><g id="_48" data-name=" 48"><path d="M23,89a8,8,0,0,1-8-8V15a8,8,0,0,1,8-8H73a8,8,0,0,1,8,8V68.59L60.74,89Z" fill="#fff"/><path d="M73,8a7,7,0,0,1,7,7V68.18L60.32,88H23a7,7,0,0,1-7-7V15a7,7,0,0,1,7-7H73m0-2H23a9,9,0,0,0-9,9V81a9,9,0,0,0,9,9H61.16L82,69V15a9,9,0,0,0-9-9Z" fill="#64696b"/></g><path d="M67,69H82L61,90V75A6,6,0,0,1,67,69Z" fill="#64696b"/><rect x="51" y="22" width="20" height="20" fill="#b1dafc"/><rect x="51" y="34" width="15" height="3" fill="#1775c1"/><rect x="51" y="28" width="20" height="3" fill="#1775c1"/><rect x="51" y="22" width="20" height="3" fill="#1775c1"/><rect x="25" y="22" width="20" height="20" fill="#b1dafc"/><rect x="25" y="34" width="15" height="3" fill="#1775c1"/><rect x="25" y="28" width="20" height="3" fill="#1775c1"/><rect x="25" y="22" width="20" height="3" fill="#1775c1"/><rect x="51" y="46" width="20" height="20" fill="#b1dafc"/><rect x="51" y="58" width="15" height="3" fill="#1775c1"/><rect x="51" y="52" width="20" height="3" fill="#1775c1"/><rect x="51" y="46" width="20" height="3" fill="#1775c1"/><rect x="25" y="46" width="20" height="20" fill="#b1dafc"/><rect x="25" y="58" width="15" height="3" fill="#1775c1"/><rect x="25" y="52" width="20" height="3" fill="#1775c1"/><rect x="25" y="46" width="20" height="3" fill="#1775c1"/></g></g></g></svg>