<svg xmlns="http://www.w3.org/2000/svg" viewBox="0 0 96 96"><g id="libreoffice"><g id="libreoffice-document"><g id="_96" data-name="96"><g id="_48" data-name=" 48"><path d="M23,89a8,8,0,0,1-8-8V15a8,8,0,0,1,8-8H73a8,8,0,0,1,8,8V68.59L60.74,89Z" fill="#fff"/><path d="M73,8a7,7,0,0,1,7,7V68.18L60.32,88H23a7,7,0,0,1-7-7V15a7,7,0,0,1,7-7H73m0-2H23a9,9,0,0,0-9,9V81a9,9,0,0,0,9,9H61.16L82,69V15a9,9,0,0,0-9-9Z" fill="#25b6ef"/></g><path d="M67,69H82L61,90V75A6,6,0,0,1,67,69Z" fill="#25b6ef"/><rect x="26" y="24" width="15" height="3" fill="#25b6ef"/><rect x="26" y="30" width="15" height="3" fill="#25b6ef"/><rect x="26" y="36" width="15" height="3" fill="#25b6ef"/><rect x="26" y="42" width="15" height="3" fill="#25b6ef"/><rect x="26" y="51" width="45" height="3" fill="#25b6ef"/><rect x="26" y="57" width="45" height="3" fill="#25b6ef"/><rect x="26" y="63" width="27" height="3" fill="#25b6ef"/><path d="M69,26H46V45H69Z" fill="#63bbee"/><path d="M69.5,40.25h0L69.25,40Z" fill="#006837"/><rect x="45" y="25" width="25" height="20" fill="#b6eeff"/><path d="M69,26V44H46V26H69m2-2H44V46H71V24Z" fill="#25b6ef"/><polygon points="51 33.5 46 41 56 41 51 33.5" fill="#7e7f7f"/><rect x="46" y="41" width="23" height="3" fill="#31b216"/><polygon points="63.5 36.5 58 44 68.5 44 63.5 36.5" fill="#666"/><path d="M68.75,31H69V26H64A5,5,0,0,0,68.75,31Z" fill="#e2d93b"/></g></g></g></svg>