<svg xmlns="http://www.w3.org/2000/svg" viewBox="0 0 96 96"><g id="libreoffice"><g id="libreoffice-bse"><g id="_96" data-name="96"><g id="_48" data-name=" 48"><path d="M23,89a8,8,0,0,1-8-8V15a8,8,0,0,1,8-8H73a8,8,0,0,1,8,8V68.59L60.74,89Z" fill="#fff"/><path d="M73,8a7,7,0,0,1,7,7V68.18L60.32,88H23a7,7,0,0,1-7-7V15a7,7,0,0,1,7-7H73m0-2H23a9,9,0,0,0-9,9V81a9,9,0,0,0,9,9H61.16L82,69V15a9,9,0,0,0-9-9Z" fill="#a53de2"/></g><path d="M67,69H82L61,90V75A6,6,0,0,1,67,69Z" fill="#a53de2"/><g opacity="0.6"><rect x="61" y="23" width="9" height="3" fill="#a53de2"/><rect x="61" y="29" width="9" height="3" fill="#a53de2"/><rect x="61" y="35" width="9" height="3" fill="#a53de2"/><rect x="61" y="41" width="9" height="3" fill="#a53de2"/><rect x="61" y="41" width="9" height="3" fill="#a53de2"/><rect x="61" y="47" width="9" height="3" fill="#a53de2"/><rect x="61" y="53" width="9" height="3" fill="#a53de2"/><rect x="61" y="53" width="9" height="3" fill="#a53de2"/><rect x="61" y="59" width="9" height="3" fill="#a53de2"/><rect x="61" y="65" width="9" height="3" fill="#a53de2"/></g><g opacity="0.6"><rect x="44" y="23" width="9" height="3" fill="#a53de2"/><rect x="44" y="29" width="9" height="3" fill="#a53de2"/><rect x="44" y="35" width="9" height="3" fill="#a53de2"/><rect x="44" y="41" width="9" height="3" fill="#a53de2"/><rect x="44" y="41" width="9" height="3" fill="#a53de2"/><rect x="44" y="47" width="9" height="3" fill="#a53de2"/><rect x="44" y="53" width="9" height="3" fill="#a53de2"/><rect x="44" y="53" width="9" height="3" fill="#a53de2"/><rect x="44" y="59" width="9" height="3" fill="#a53de2"/><rect x="44" y="65" width="9" height="3" fill="#a53de2"/></g><g opacity="0.6"><rect x="26" y="23" width="9" height="3" fill="#a53de2"/><rect x="26" y="29" width="9" height="3" fill="#a53de2"/><rect x="26" y="35" width="9" height="3" fill="#a53de2"/><rect x="26" y="41" width="9" height="3" fill="#a53de2"/><rect x="26" y="41" width="9" height="3" fill="#a53de2"/><rect x="26" y="47" width="9" height="3" fill="#a53de2"/><rect x="26" y="53" width="9" height="3" fill="#a53de2"/><rect x="26" y="53" width="9" height="3" fill="#a53de2"/><rect x="26" y="59" width="9" height="3" fill="#a53de2"/><rect x="26" y="65" width="9" height="3" fill="#a53de2"/></g><path d="M48.5,58.82c-10.14,0-14.61-5.42-15.32-6.13V33.36c.71-.94,5.66-5.18,15.32-5.18s14.38,4,15.32,5.18v19.1C63.35,53.16,58.64,58.82,48.5,58.82Z" fill="#fff" stroke="#a53de2" stroke-miterlimit="10"/><path d="M48.5,29C57,29,61.74,32.27,63,33.56V52.09C62,53.25,57.55,58,48.5,58S35,53.45,34,52.31V33.7c1-1.17,5.64-4.7,14.5-4.7m0-2C37.42,27,32.24,32.19,32,33.13v19.8c.24.71,5.42,7.07,16.5,7.07S64.76,53.4,65,52.69V32.89c-.24-.7-5.42-5.89-16.5-5.89Z" fill="#a53de2"/><path d="M64,34c0,4-7,7-15.5,7S33,38,33,34" fill="none" stroke="#a53de2" stroke-miterlimit="10" stroke-width="2"/><path d="M64,43c0,4-7,7-15.5,7S33,47,33,43" fill="none" stroke="#a53de2" stroke-miterlimit="10" stroke-width="2"/></g></g></g></svg>