<svg xmlns="http://www.w3.org/2000/svg" xmlns:xlink="http://www.w3.org/1999/xlink" viewBox="0 0 96 96"><defs><linearGradient id="未命名的渐变_114" x1="55.5" y1="738" x2="55.5" y2="767" gradientTransform="translate(0 -702)" gradientUnits="userSpaceOnUse"><stop offset="0" stop-color="#b6fa5f"/><stop offset="1" stop-color="#3fa644"/></linearGradient><linearGradient id="未命名的渐变_118" x1="57.78" y1="770.29" x2="54.09" y2="741.92" gradientTransform="translate(0 -702)" gradientUnits="userSpaceOnUse"><stop offset="0" stop-color="#01669b"/><stop offset="0.99" stop-color="#5bc7f8"/></linearGradient></defs><g id="libreoffice"><g id="libreoffice-document"><g id="_96" data-name="96"><g id="_48" data-name=" 48"><path d="M23,89a8,8,0,0,1-8-8V15a8,8,0,0,1,8-8H73a8,8,0,0,1,8,8V68.59L60.74,89Z" fill="#fff"/><path d="M73,8a7,7,0,0,1,7,7V68.18L60.32,88H23a7,7,0,0,1-7-7V15a7,7,0,0,1,7-7H73m0-2H23a9,9,0,0,0-9,9V81a9,9,0,0,0,9,9H61.16L82,69V15a9,9,0,0,0-9-9Z" fill="#159cd1"/></g><path d="M67,69H82L61,90V75A6,6,0,0,1,67,69Z" fill="#159cd1"/><rect x="26" y="22" width="44" height="3" fill="#159cd1"/><rect x="26" y="30" width="44" height="3" fill="#159cd1"/><rect x="26" y="38" width="15" height="3" fill="#159cd1"/><rect x="26" y="70" width="30" height="3" fill="#159cd1"/><rect x="26" y="46" width="12" height="3" fill="#159cd1"/><rect x="26" y="62" width="15" height="3" fill="#159cd1"/><rect x="26" y="54" width="12" height="3" fill="#159cd1"/><path d="M69,38.25h0L68.75,38Z" fill="#006837"/><g id="_64" data-name=" 64"><circle cx="55.5" cy="50.5" r="14.5" fill="url(#未命名的渐变_114)"/><path d="M66.26,46.3l.26.21h.24V46l.74-.07.7.5h1.16l.08-.08a12,12,0,0,0-.39-1.15h-.76l-.38-.41-.07-.67-.39.21-.21.81-.56-.59V44l-.54-.47-.2-.2h-.65l.2.56.75.43.13.14-.16.08V45l-.37.15h-.32l-.19-.28.5,0,.13-.19-1.13-.77-.09-.32-.46.41-.46-.09-.71.92-.14.36-.46,0h-.64l-.4-.18-.12-.8.14-.39.68-.15.75.15.09-.41-.32-.07.11-.64.75-.12.5-.74.54-.09.5.07h.19l-.1-.69-.6.24-.21-.5-.35,0,0-.36.28-.3.67-.26.17-.31A14.46,14.46,0,0,0,47,38.77h.73l.33.18.61.13,0,.24,1,0-.13-.31-.9,0,.21-.19-.07-.23H48l.86-.64h.82l.38.56h.65l.38-.38.29.15-.53.5h-.7a2.07,2.07,0,0,1,.06.5l.89,0,.1-.24.61,0,.08-.36-.36-.06.12-.33.27-.08,1,0-.53.5.08.38.56.09,0-.65.5-.27.94-.11,1.36.61v.5l.44.11-.22.41h-.6l-.18.47-1.4-.33,1.1-.58L54.51,39l-.95.12-.05.08h0l-.28.29-.45,0,0,.22.16.07v.07l-.37,0,0,.22h-.35l-.06-.43-.66.23-1.3.76.15.53.36.24.72.1v.82l.34-.06.31-.64.76-.24v-1l.43-.32,1,.24-.08.65h.28l.76-.37,0,.87.56.34v.5l-.56.16,0,.17L56,43v.35h-.19L55,43.06l0-.26h0l.23-.16V42.4l-.25-.06-.07.21-.44.07h-.2l-.13-.25L54,42.31h-.32l-.14.12v.26l.27.09.26,0-.06,0-.24.27L53.61,43l-.23-.06-.64.61.08.07-.94.5L51,45l-.06.41L50,46.1l-.44.45,0,.89L49,47.15v-.5H47.3l-.88.45-.39.71-.15.56.25.54.69.09,1.11-.74.1.37-.34.64.84.15.09,1.3,1.15.2.73-.87.9.18.31.43.86,0v-.25l.47.23.53.83h.91l.37.59,0,.72,1,.39h1.27l.38.61.56.18-.11.5-.62.79L57.21,57l-.56.44-.83,0-.27.5.2.9-.91,1.16-.29.53-.86.42-.56.08v.24l.39.12-.05.26-.35.34.21.27h.43v.33l-.11.33,0,.26.64.54-.09.27H53.3l-.86-.75L51.74,62l.09-1.13-.5-.68.18-1.16-.3-.09v-2.5s-.85-.64-.9-.64l-.44-.1-.09-.47-1.09-1.38.11-.5,0-.81.76-.53-.09-.88-1.11-.08-.86-1-.62-.17-.41-.06,0-.36-.5-.07v.21l-1.27-.31-.5-.8.21-.38L43.69,47l-.14-.84h-.33l.11.83.56.85-.06.34-.47-.07-.58-1V45.94l-.6-.29v-.83A14.52,14.52,0,0,0,66.77,59.64h-.5v-1l-.55-.74V56.77l-.43-.42,0-.5.53-1-1-1.8.12-1.22-.89-.1-.34-.34h-.63l-.31.29H61.65l0,.1H61L59.63,50.2V49l.23-.09.08-.47h-.32l-.14-.5,1.61-1.15V46l.79-.44.32,0h.64l.5-.27L65,45.14V46ZM62.2,41.13l.13-.2.5-.1.12.58.25.41.17.19.31.12-.29.35-.56.05h-.42l0-.5L62.8,42l0-.24-.35-.22-.23-.15Zm-.79.91.29-.47.39-.09.28.12,0,.32-.6.42h-.33Zm-7.9,1.78-.3,0v-.21l.13-.16.18.14Zm1.06-.37h-.21l0,.2-.16.1h-.25v-.11h-.1v-.21h.41l.09-.22h.16l.19,0Z" fill="url(#未命名的渐变_118)"/></g></g></g></g></svg>