<svg xmlns="http://www.w3.org/2000/svg" viewBox="0 0 96 96"><g id="libreoffice"><g id="libreoffice-draw"><g id="_96" data-name="96"><g id="_48" data-name=" 48"><path d="M23,89a8,8,0,0,1-8-8V15a8,8,0,0,1,8-8H73a8,8,0,0,1,8,8V68.59L60.59,89Z" fill="#fff"/><path d="M73,8a7,7,0,0,1,7,7V68.17L60.17,88H23a7,7,0,0,1-7-7V15a7,7,0,0,1,7-7H73m0-2H23a9,9,0,0,0-9,9V81a9,9,0,0,0,9,9H61L82,69V15a9,9,0,0,0-9-9Z" fill="#eda53b"/></g><path d="M67,69H82L61,90V75A6,6,0,0,1,67,69Z" fill="#eda53b"/><path d="M43.5,27A10.5,10.5,0,1,1,33,37.5,10.51,10.51,0,0,1,43.5,27m0-3A13.5,13.5,0,1,0,57,37.5,13.55,13.55,0,0,0,43.5,24Z" fill="#e86e43"/><rect x="49" y="39" width="20" height="20" fill="#69d0f4"/><rect x="49.5" y="38.5" width="20" height="20" fill="#b6eeff"/><path d="M68,40V57H51V40H68m3-3H48V60H71V37Z" fill="#25b6ef"/><polygon points="30.63 58.5 43.5 40.12 56.37 58.5 30.63 58.5" fill="#fff0c7"/><path d="M43.5,42.73,53.49,57h-20l10-14.27m0-5.23L27.75,60h31.5L43.5,37.5Z" fill="#f9a448"/><rect x="40" y="35" width="6" height="6" fill="#17cc4a"/><rect x="24" y="56" width="6" height="6" fill="#17cc4a"/><rect x="56" y="56" width="6" height="6" fill="#17cc4a"/></g></g></g></svg>