<svg xmlns="http://www.w3.org/2000/svg" viewBox="0 0 96 96"><g id="白底"><g id="_48" data-name=" 48"><path d="M22,89.5A7.5,7.5,0,0,1,14.5,82V14A7.5,7.5,0,0,1,22,6.5H74A7.5,7.5,0,0,1,81.5,14V68.79L60.79,89.5Z" fill="#fff"/><path d="M74,7a7,7,0,0,1,7,7V68.59L60.59,89H22a7,7,0,0,1-7-7V14a7,7,0,0,1,7-7H74m0-1H22a8,8,0,0,0-8,8V82a8,8,0,0,0,8,8H61L82,69V14a8,8,0,0,0-8-8Z" fill="#ccc"/></g><path d="M67,69H82L61,90V75A6,6,0,0,1,67,69Z" fill="#e6e6e6"/><rect x="41" y="48" width="9" height="4" fill="#ccf4c6"/><rect x="53" y="48" width="9" height="4" fill="#ccf4c6"/><path d="M26,24V55H65V24ZM38,52H29V48h9Zm0-7H29V41h9Zm0-7H29V34h9Zm0-7H29V27h9ZM50,45H41V41h9Zm0-7H41V34h9Zm0-7H41V27h9ZM62,45H53V41h9Zm0-7H53V34h9Zm0-7H53V27h9Z" fill="#29b27a"/><rect x="41.5" y="44.5" width="27" height="18" fill="#fff"/><path d="M67,46V61H43V46H67m3-3H40V64H70V43Z" fill="#afb2ad"/><rect x="46" y="52" width="4" height="9" fill="#8acdf4"/><rect x="53" y="49" width="4" height="12" fill="#fcb270"/><rect x="60" y="55" width="4" height="6" fill="#29b27a"/></g></svg>