<svg xmlns="http://www.w3.org/2000/svg" viewBox="0 0 96 96"><g id="白底"><g id="_48" data-name=" 48"><path d="M22,89.5A7.5,7.5,0,0,1,14.5,82V14A7.5,7.5,0,0,1,22,6.5H74A7.5,7.5,0,0,1,81.5,14V68.79L60.79,89.5Z" fill="#fff"/><path d="M74,7a7,7,0,0,1,7,7V68.59L60.59,89H22a7,7,0,0,1-7-7V14a7,7,0,0,1,7-7H74m0-1H22a8,8,0,0,0-8,8V82a8,8,0,0,0,8,8H61L82,69V14a8,8,0,0,0-8-8Z" fill="#ccc"/></g><path d="M67,69H82L61,90V75A6,6,0,0,1,67,69Z" fill="#e6e6e6"/><path d="M38,26A11,11,0,1,0,49,37H38Z" fill="#ff9852"/><line x1="27" y1="64" x2="52" y2="64" fill="none" stroke="#adadad" stroke-linecap="round" stroke-miterlimit="10" stroke-width="2"/><line x1="27" y1="58" x2="68" y2="58" fill="none" stroke="#adadad" stroke-linecap="round" stroke-miterlimit="10" stroke-width="2"/><line x1="27" y1="52" x2="68" y2="52" fill="none" stroke="#adadad" stroke-linecap="round" stroke-miterlimit="10" stroke-width="2"/><line x1="56" y1="45" x2="68" y2="45" fill="none" stroke="#adadad" stroke-linecap="round" stroke-miterlimit="10" stroke-width="2"/><line x1="56" y1="39" x2="68" y2="39" fill="none" stroke="#adadad" stroke-linecap="round" stroke-miterlimit="10" stroke-width="2"/><line x1="56" y1="33" x2="68" y2="33" fill="none" stroke="#adadad" stroke-linecap="round" stroke-miterlimit="10" stroke-width="2"/><line x1="56" y1="27" x2="68" y2="27" fill="none" stroke="#adadad" stroke-linecap="round" stroke-miterlimit="10" stroke-width="2"/><path d="M52,34A11,11,0,0,0,41,23V34Z" fill="#24aaed"/></g></svg>