<svg xmlns="http://www.w3.org/2000/svg" viewBox="0 0 96 96"><g id="php-_" data-name="php-？"><g id="_96" data-name="96"><path id="_48" data-name=" 48" d="M82,69V15a9,9,0,0,0-9-9H23a9,9,0,0,0-9,9V81a9,9,0,0,0,9,9H61Z" fill="#7865c9"/><path d="M67,69H82L61,90V75A6,6,0,0,1,67,69Z" fill="#fff" opacity="0.3"/><path d="M24.11,41.81V39.23l14.81-5.79v2.94l-6.75,2.4-4.53,1.68v.12l4.53,1.65,6.75,2.43v2.91Z" fill="#fff"/><path d="M49.9,34.43A2.75,2.75,0,0,0,47,31.52a4.89,4.89,0,0,0-3.63,1.83l-1.95-1.77a7.85,7.85,0,0,1,6-2.88c3.48,0,5.91,2,5.91,5.49,0,4.38-5.34,6-4.83,10.47h-3C44.68,39.62,49.9,37.7,49.9,34.43ZM44.65,49.7a2.31,2.31,0,1,1,4.62,0,2.31,2.31,0,1,1-4.62,0Z" fill="#fff"/><path d="M55.93,44.66l6.75-2.43,4.56-1.65v-.12l-4.56-1.68-6.75-2.4V33.44l14.82,5.79v2.58L55.93,47.57Z" fill="#fff"/></g></g></svg>