<svg xmlns="http://www.w3.org/2000/svg" viewBox="0 0 96 96"><g id="白底"><g id="_48" data-name=" 48"><path d="M22,89.5A7.5,7.5,0,0,1,14.5,82V14A7.5,7.5,0,0,1,22,6.5H74A7.5,7.5,0,0,1,81.5,14V68.79L60.79,89.5Z" fill="#fff"/><path d="M74,7a7,7,0,0,1,7,7V68.59L60.59,89H22a7,7,0,0,1-7-7V14a7,7,0,0,1,7-7H74m0-1H22a8,8,0,0,0-8,8V82a8,8,0,0,0,8,8H61L82,69V14a8,8,0,0,0-8-8Z" fill="#ccc"/></g><path d="M67,69H82L61,90V75A6,6,0,0,1,67,69Z" fill="#e6e6e6"/><rect x="56" y="17" width="17" height="2" fill="#999"/><rect x="56" y="24" width="17" height="2" fill="#999"/><rect x="56" y="31" width="17" height="2" fill="#999"/><rect x="56" y="38" width="17" height="2" fill="#999"/><rect x="56" y="45" width="17" height="2" fill="#999"/><rect x="22" y="52" width="51" height="2" fill="#999"/><rect x="22" y="59" width="51" height="2" fill="#999"/><rect x="22" y="66" width="34" height="2" fill="#999"/><rect x="22" y="73" width="34" height="2" fill="#999"/><path d="M49,45,38,17H35L25,45H22v2h7V45H27l2.6-7.29v.47H42.32L45,45H42v2H52V45ZM30.07,36.41,35.57,21l6.06,15.41Z" fill="#999"/></g></svg>