<svg xmlns="http://www.w3.org/2000/svg" viewBox="0 0 96 96"><g id="白底"><g id="_48" data-name=" 48"><path d="M22,89.5A7.5,7.5,0,0,1,14.5,82V14A7.5,7.5,0,0,1,22,6.5H74A7.5,7.5,0,0,1,81.5,14V68.79L60.79,89.5Z" fill="#fff"/><path d="M74,7a7,7,0,0,1,7,7V68.59L60.59,89H22a7,7,0,0,1-7-7V14a7,7,0,0,1,7-7H74m0-1H22a8,8,0,0,0-8,8V82a8,8,0,0,0,8,8H61L82,69V14a8,8,0,0,0-8-8Z" fill="#ccc"/></g><path d="M67,69H82L61,90V75A6,6,0,0,1,67,69Z" fill="#e6e6e6"/><path d="M48,28A18,18,0,1,1,30,46,18,18,0,0,1,48,28m0-3A21,21,0,1,0,69,46,21,21,0,0,0,48,25Z" fill="#8c8c8c"/><path d="M53.5,55.78a11.27,11.27,0,0,1-4,.72A10.75,10.75,0,0,1,38.5,46a10.75,10.75,0,0,1,11-10.5,11.27,11.27,0,0,1,4,.72" fill="none" stroke="#8c8c8c" stroke-linejoin="round" stroke-width="3"/></g></svg>