<svg xmlns="http://www.w3.org/2000/svg" viewBox="0 0 96 96"><g id="sql"><g id="_96" data-name="96"><path id="_48" data-name=" 48" d="M82,69V15a9,9,0,0,0-9-9H23a9,9,0,0,0-9,9V81a9,9,0,0,0,9,9H61Z" fill="#3882d9"/><path d="M67,69H82L61,90V75A6,6,0,0,1,67,69Z" fill="#fff" opacity="0.3"/><g opacity="0.7"><polyline points="57 60 57 71 62 71" fill="none" stroke="#fff" stroke-miterlimit="10" stroke-width="2"/><rect x="46" y="61" width="6" height="10" fill="none" stroke="#fff" stroke-miterlimit="10" stroke-width="2"/><line x1="50" y1="69" x2="53.7" y2="72.7" fill="none" stroke="#fff" stroke-miterlimit="10" stroke-width="2"/><polyline points="34 66 41 66 41 71 34 71" fill="none" stroke="#fff" stroke-miterlimit="10" stroke-width="2"/><polyline points="42 66 35 66 35 61 42 61" fill="none" stroke="#fff" stroke-miterlimit="10" stroke-width="2"/></g><path d="M64.5,48c0,3.58-7.39,6.48-16.5,6.48S31.5,51.6,31.5,48" fill="none" stroke="#fff" stroke-miterlimit="10" stroke-width="3"/><path d="M64.5,39c0,3.58-7.39,6.48-16.5,6.48S31.5,42.6,31.5,39" fill="none" stroke="#fff" stroke-miterlimit="10" stroke-width="3"/><path d="M64.5,30c0,3.58-7.39,6.48-16.5,6.48S31.5,33.6,31.5,30" fill="none" stroke="#fff" stroke-miterlimit="10" stroke-width="3"/><path d="M48,19c8.87,0,14,2.36,14.91,3.5C62,23.64,56.87,26,48,26s-14-2.36-14.91-3.5C34,21.36,39.13,19,48,19m0-3c-9.94,0-18,2.91-18,6.5S38.06,29,48,29s18-2.91,18-6.5S57.94,16,48,16Z" fill="#fff"/><line x1="64.5" y1="22.98" x2="64.5" y2="48" fill="none" stroke="#fff" stroke-miterlimit="10" stroke-width="3"/><line x1="31.5" y1="22.98" x2="31.5" y2="48" fill="none" stroke="#fff" stroke-miterlimit="10" stroke-width="3"/></g></g></svg>