<svg xmlns="http://www.w3.org/2000/svg" viewBox="0 0 96 96"><g id="白底"><g id="_48" data-name=" 48"><path d="M22,89.5A7.5,7.5,0,0,1,14.5,82V14A7.5,7.5,0,0,1,22,6.5H74A7.5,7.5,0,0,1,81.5,14V68.79L60.79,89.5Z" fill="#fff"/><path d="M74,7a7,7,0,0,1,7,7V68.59L60.59,89H22a7,7,0,0,1-7-7V14a7,7,0,0,1,7-7H74m0-1H22a8,8,0,0,0-8,8V82a8,8,0,0,0,8,8H61L82,69V14a8,8,0,0,0-8-8Z" fill="#ccc"/></g><path d="M67,69H82L61,90V75A6,6,0,0,1,67,69Z" fill="#e6e6e6"/><path d="M49,27A18,18,0,1,1,31,45,18,18,0,0,1,49,27m0-4A22,22,0,1,0,71,45,22,22,0,0,0,49,23Z" fill="#7c7c7c"/><path d="M53.42,38A1.6,1.6,0,0,1,55,39.58v2.63a1.6,1.6,0,0,1-1.58,1.58H43.91a.39.39,0,0,1-.38-.38v-5a.39.39,0,0,1,.38-.38h9.51m0-5H43.91a5.39,5.39,0,0,0-5.38,5.38v5a5.39,5.39,0,0,0,5.38,5.38h9.51A6.6,6.6,0,0,0,60,42.21V39.58A6.6,6.6,0,0,0,53.42,33Z" fill="#7c7c7c"/><rect x="38" y="33" width="6" height="24" fill="#7c7c7c"/><polygon points="60.09 57 53.03 57 46.68 46.41 53.73 46.41 60.09 57" fill="#7c7c7c"/><line x1="49" y1="65" x2="49" y2="70" fill="none" stroke="#7c7c7c" stroke-miterlimit="10" stroke-width="2"/><line x1="49" y1="20" x2="49" y2="25" fill="none" stroke="#7c7c7c" stroke-miterlimit="10" stroke-width="2"/><line x1="56.93" y1="64" x2="58.63" y2="68.07" fill="none" stroke="#7c7c7c" stroke-miterlimit="10" stroke-width="2"/><line x1="39.37" y1="21.93" x2="41.07" y2="26" fill="none" stroke="#7c7c7c" stroke-miterlimit="10" stroke-width="2"/><line x1="35" y1="31" x2="31.32" y2="27.32" fill="none" stroke="#7c7c7c" stroke-miterlimit="10" stroke-width="2"/><line x1="66.68" y1="62.68" x2="63" y2="59" fill="none" stroke="#7c7c7c" stroke-miterlimit="10" stroke-width="2"/><line x1="63" y1="31" x2="66.68" y2="27.32" fill="none" stroke="#7c7c7c" stroke-miterlimit="10" stroke-width="2"/><line x1="31.32" y1="62.68" x2="35" y2="59" fill="none" stroke="#7c7c7c" stroke-miterlimit="10" stroke-width="2"/><line x1="56.9" y1="26" x2="58.6" y2="21.92" fill="none" stroke="#7c7c7c" stroke-miterlimit="10" stroke-width="2"/><line x1="39.4" y1="68.08" x2="41.1" y2="64" fill="none" stroke="#7c7c7c" stroke-miterlimit="10" stroke-width="2"/><line x1="68" y1="37.1" x2="72.08" y2="35.4" fill="none" stroke="#7c7c7c" stroke-miterlimit="10" stroke-width="2"/><line x1="25.92" y1="54.6" x2="30" y2="52.9" fill="none" stroke="#7c7c7c" stroke-miterlimit="10" stroke-width="2"/><line x1="69" y1="45" x2="74" y2="45" fill="none" stroke="#7c7c7c" stroke-miterlimit="10" stroke-width="2"/><line x1="24" y1="45" x2="29" y2="45" fill="none" stroke="#7c7c7c" stroke-miterlimit="10" stroke-width="2"/><line x1="68" y1="52.83" x2="72.11" y2="54.53" fill="none" stroke="#7c7c7c" stroke-miterlimit="10" stroke-width="2"/><line x1="25.89" y1="35.47" x2="30" y2="37.17" fill="none" stroke="#7c7c7c" stroke-miterlimit="10" stroke-width="2"/><line x1="52.82" y1="64.63" x2="53.77" y2="69.54" fill="none" stroke="#7c7c7c" stroke-miterlimit="10" stroke-width="2"/><line x1="44.23" y1="20.46" x2="45.18" y2="25.37" fill="none" stroke="#7c7c7c" stroke-miterlimit="10" stroke-width="2"/><line x1="60.41" y1="62.14" x2="62.85" y2="65.81" fill="none" stroke="#7c7c7c" stroke-miterlimit="10" stroke-width="2"/><line x1="35.15" y1="24.19" x2="37.59" y2="27.86" fill="none" stroke="#7c7c7c" stroke-miterlimit="10" stroke-width="2"/><line x1="32.59" y1="33.93" x2="28.27" y2="31.02" fill="none" stroke="#7c7c7c" stroke-miterlimit="10" stroke-width="2"/><line x1="69.73" y1="58.98" x2="65.41" y2="56.07" fill="none" stroke="#7c7c7c" stroke-miterlimit="10" stroke-width="2"/><line x1="60.07" y1="28.59" x2="62.98" y2="24.27" fill="none" stroke="#7c7c7c" stroke-miterlimit="10" stroke-width="2"/><line x1="35.02" y1="65.73" x2="37.93" y2="61.41" fill="none" stroke="#7c7c7c" stroke-miterlimit="10" stroke-width="2"/><line x1="53.13" y1="24.84" x2="54.02" y2="20.51" fill="none" stroke="#7c7c7c" stroke-miterlimit="10" stroke-width="2"/><line x1="43.98" y1="69.49" x2="44.87" y2="65.16" fill="none" stroke="#7c7c7c" stroke-miterlimit="10" stroke-width="2"/><line x1="66.14" y1="33.62" x2="69.83" y2="31.17" fill="none" stroke="#7c7c7c" stroke-miterlimit="10" stroke-width="2"/><line x1="28.17" y1="58.83" x2="31.86" y2="56.38" fill="none" stroke="#7c7c7c" stroke-miterlimit="10" stroke-width="2"/><line x1="68.63" y1="41.18" x2="73.54" y2="40.23" fill="none" stroke="#7c7c7c" stroke-miterlimit="10" stroke-width="2"/><line x1="24.46" y1="49.77" x2="29.37" y2="48.82" fill="none" stroke="#7c7c7c" stroke-miterlimit="10" stroke-width="2"/><line x1="69.14" y1="49.06" x2="73.51" y2="49.94" fill="none" stroke="#7c7c7c" stroke-miterlimit="10" stroke-width="2"/><line x1="24.49" y1="40.06" x2="28.86" y2="40.94" fill="none" stroke="#7c7c7c" stroke-miterlimit="10" stroke-width="2"/><polygon points="40.45 62.66 40.57 57.34 35.29 57.93 40.45 62.66" fill="none" stroke="#7c7c7c" stroke-miterlimit="10" fill-rule="evenodd"/><polygon points="57.41 62.66 57.29 57.34 62.57 57.93 57.41 62.66" fill="none" stroke="#7c7c7c" stroke-miterlimit="10" fill-rule="evenodd"/><polygon points="45.5 26 49 30 52.5 26 45.5 26" fill="none" stroke="#7c7c7c" stroke-miterlimit="10" fill-rule="evenodd"/><polygon points="30.56 42.11 35.36 39.82 32.45 35.37 30.56 42.11" fill="none" stroke="#7c7c7c" stroke-miterlimit="10" fill-rule="evenodd"/><polygon points="67.36 43.11 62.56 40.82 65.46 36.37 67.36 43.11" fill="none" stroke="#7c7c7c" stroke-miterlimit="10" fill-rule="evenodd"/></g></svg>