<svg xmlns="http://www.w3.org/2000/svg" viewBox="0 0 96 96"><g id="蓝底"><g id="_96" data-name="96"><path id="_48" data-name=" 48" d="M82,69V15a9,9,0,0,0-9-9H23a9,9,0,0,0-9,9V81a9,9,0,0,0,9,9H61Z" fill="#43a6f7"/><path d="M67,69H82L61,90V75A6,6,0,0,1,67,69Z" fill="#fff" opacity="0.3"/><path d="M39,61c-2.07,0-6.36-.48-6.36-5.57a40.16,40.16,0,0,1,.4-5.65,38.64,38.64,0,0,0,.39-4.24c0-1.85-.15-3.85-4.43-4.14v-.8c4.28-.29,4.43-2.34,4.43-4.09a33.17,33.17,0,0,0-.34-4.24,43.86,43.86,0,0,1-.45-5.71C32.64,21.48,37,21,39,21v.57c-3.55.52-3.94,2.33-3.94,4.47a46.66,46.66,0,0,0,.39,4.66c.15,1.33.59,3.71.59,4.95a5,5,0,0,1-4.13,5.28v.14A5.05,5.05,0,0,1,36,46.4a42.17,42.17,0,0,1-.54,4.9A36.74,36.74,0,0,0,35.06,56c0,2,.44,3.85,3.94,4.42Z" fill="#fff"/><path d="M58,21c2.07,0,6.36.48,6.36,5.56a49.73,49.73,0,0,1-.4,5.66c-.2,2-.39,3.19-.39,4.24,0,1.85.14,3.85,4.43,4.14v.8c-4.29.29-4.43,2.33-4.43,4.09a33.17,33.17,0,0,0,.34,4.24,43.86,43.86,0,0,1,.45,5.7C64.36,60.52,60,61,58,61v-.57c3.55-.52,3.94-2.33,3.94-4.47a46.66,46.66,0,0,0-.39-4.66C61.4,50,61,47.59,61,46.35a5,5,0,0,1,4.13-5.28v-.14A5.05,5.05,0,0,1,61,35.6a42.17,42.17,0,0,1,.54-4.9A36.74,36.74,0,0,0,61.94,26c0-2-.44-3.85-3.94-4.42Z" fill="#fff"/></g></g></svg>