<svg xmlns="http://www.w3.org/2000/svg" viewBox="0 0 96 96"><g id="白底"><g id="_48" data-name=" 48"><path d="M22,89.5A7.5,7.5,0,0,1,14.5,82V14A7.5,7.5,0,0,1,22,6.5H74A7.5,7.5,0,0,1,81.5,14V68.79L60.79,89.5Z" fill="#fff"/><path d="M74,7a7,7,0,0,1,7,7V68.59L60.59,89H22a7,7,0,0,1-7-7V14a7,7,0,0,1,7-7H74m0-1H22a8,8,0,0,0-8,8V82a8,8,0,0,0,8,8H61L82,69V14a8,8,0,0,0-8-8Z" fill="#ccc"/></g><path d="M67,69H82L61,90V75A6,6,0,0,1,67,69Z" fill="#e6e6e6"/><path d="M55,33a3,3,0,0,1,3,3v3a3,3,0,0,1-3,3H41a1,1,0,0,1-1-1V34a1,1,0,0,1,1-1H55m0-8H41a9,9,0,0,0-9,9v7a9,9,0,0,0,9,9H55A11,11,0,0,0,66,39V36A11,11,0,0,0,55,25Z" fill="#4163ce"/><rect x="32" y="25" width="10" height="38" fill="#4163ce"/><polygon points="66.65 63 55.47 63 45.41 46.23 56.59 46.23 66.65 63" fill="#4163ce"/></g></svg>