<svg xmlns="http://www.w3.org/2000/svg" viewBox="0 0 96 96"><g id="白底"><g id="_48" data-name=" 48"><path d="M22,89.5A7.5,7.5,0,0,1,14.5,82V14A7.5,7.5,0,0,1,22,6.5H74A7.5,7.5,0,0,1,81.5,14V68.79L60.79,89.5Z" fill="#fff"/><path d="M74,7a7,7,0,0,1,7,7V68.59L60.59,89H22a7,7,0,0,1-7-7V14a7,7,0,0,1,7-7H74m0-1H22a8,8,0,0,0-8,8V82a8,8,0,0,0,8,8H61L82,69V14a8,8,0,0,0-8-8Z" fill="#ccc"/></g><path d="M67,69H82L61,90V75A6,6,0,0,1,67,69Z" fill="#e6e6e6"/><circle cx="48" cy="46" r="22" fill="none" stroke="#848689" stroke-linecap="round" stroke-miterlimit="10" stroke-width="2" stroke-dasharray="3.07 6.14"/><circle cx="64" cy="30" r="4" fill="#307ae5"/><path d="M48,29A17,17,0,1,0,65,46,17,17,0,0,0,48,29Zm8,14a4,4,0,1,1,4-4A4,4,0,0,1,56,43Z" fill="#307ae5"/></g></svg>