<svg xmlns="http://www.w3.org/2000/svg" viewBox="0 0 96 96"><g id="白底"><g id="_48" data-name=" 48"><path d="M22,89.5A7.5,7.5,0,0,1,14.5,82V14A7.5,7.5,0,0,1,22,6.5H74A7.5,7.5,0,0,1,81.5,14V68.79L60.79,89.5Z" fill="#fff"/><path d="M74,7a7,7,0,0,1,7,7V68.59L60.59,89H22a7,7,0,0,1-7-7V14a7,7,0,0,1,7-7H74m0-1H22a8,8,0,0,0-8,8V82a8,8,0,0,0,8,8H61L82,69V14a8,8,0,0,0-8-8Z" fill="#ccc"/></g><path d="M67,69H82L61,90V75A6,6,0,0,1,67,69Z" fill="#e6e6e6"/><path d="M40,55H34A10,10,0,0,1,24,45V43A10,10,0,0,1,34,33h6" fill="none" stroke="#28a2a5" stroke-miterlimit="10" stroke-width="4"/><line x1="39" y1="44" x2="55" y2="44" fill="none" stroke="#28a2a5" stroke-miterlimit="10" stroke-width="4"/><line x1="47" y1="36" x2="47" y2="52" fill="none" stroke="#28a2a5" stroke-miterlimit="10" stroke-width="4"/><line x1="58" y1="44" x2="74" y2="44" fill="none" stroke="#28a2a5" stroke-miterlimit="10" stroke-width="4"/><line x1="66" y1="36" x2="66" y2="52" fill="none" stroke="#28a2a5" stroke-miterlimit="10" stroke-width="4"/></g></svg>