<svg xmlns="http://www.w3.org/2000/svg" viewBox="0 0 96 96"><g id="JAVA"><g id="_96" data-name="96"><g id="底色-浅橙"><path id="_48" data-name=" 48" d="M82,69V15a9,9,0,0,0-9-9H23a9,9,0,0,0-9,9V81a9,9,0,0,0,9,9H61.16Z" fill="#f9aa38"/><path d="M68,69H82L61,90V76A7,7,0,0,1,68,69Z" fill="#fff" opacity="0.3"/></g><path d="M41.1,56.35s-2,1.25,1.49,1.5a28.66,28.66,0,0,0,11.21-.5,13.85,13.85,0,0,0,3,1.25c-10.71,4.48-24.16,0-15.69-2.25" fill="#fff"/><path d="M39.61,50.87s-2.25,1.75,1.24,2a42.56,42.56,0,0,0,14.45-.75,5.91,5.91,0,0,0,2.24,1.24c-12.7,3.49-26.9.25-17.93-2.49" fill="#fff"/><path d="M50.56,41.41c2.5,2.74-.74,5.48-.74,5.48s6.47-3.24,3.48-7.22c-2.74-3.74-5-5.73,6.73-12.21.25,0-18.18,4.24-9.47,13.95" fill="#fff"/><path d="M64.51,60.59s1.5,1.24-1.74,2c-6,1.74-25.41,2.24-30.64,0-2-.75,1.75-2,2.74-2a10.46,10.46,0,0,1,1.75-.25c-2.24-1.5-13.7,2.74-6,4C52.31,67.81,70,62.83,64.51,60.59" fill="#fff"/><path d="M42.1,45.15s-9.72,2.24-3.49,3a77.93,77.93,0,0,0,13-.25c4-.24,8.22-1,8.22-1a10.66,10.66,0,0,0-2.49,1.24c-10,2.49-29.14,1.25-23.66-1.24a20,20,0,0,1,8.47-1.74" fill="#fff"/><path d="M59.53,54.36c10.21-5,5.48-9.71,2.24-9.21a4.45,4.45,0,0,1-1.24.24,1.87,1.87,0,0,1,.75-.74c6.47-2.24,11.45,6.22-2,9.71,0,.25.25,0,.25,0" fill="#fff"/><path d="M53.55,17S59,22.23,48.32,30.45c-8.71,6.48-2,10.21,0,14.45-5-4.49-9-8.22-6.47-11.71C45.58,28,55.8,25.47,53.55,17" fill="#fff"/><path d="M43.09,67.81c9.72.5,24.66-.25,24.91-4.73,0,0-.75,1.74-8,3a82.57,82.57,0,0,1-24.66.25c0,.25,1.25,1.24,7.72,1.49" fill="#fff"/></g></g></svg>