<svg xmlns="http://www.w3.org/2000/svg" viewBox="0 0 96 96"><g id="白底"><g id="_48" data-name=" 48"><path d="M22,89.5A7.5,7.5,0,0,1,14.5,82V14A7.5,7.5,0,0,1,22,6.5H74A7.5,7.5,0,0,1,81.5,14V68.79L60.79,89.5Z" fill="#fff"/><path d="M74,7a7,7,0,0,1,7,7V68.59L60.59,89H22a7,7,0,0,1-7-7V14a7,7,0,0,1,7-7H74m0-1H22a8,8,0,0,0-8,8V82a8,8,0,0,0,8,8H61L82,69V14a8,8,0,0,0-8-8Z" fill="#ccc"/></g><path d="M67,69H82L61,90V75A6,6,0,0,1,67,69Z" fill="#e6e6e6"/><polygon points="66 62 58 62 35 28 43 28 66 62" fill="#8249db"/><polygon points="43 45 35 45 24 28 32 28 43 45" fill="#8249db"/><polygon points="31 62 23 62 35 45 43 45 31 62" fill="#8249db"/><polygon points="42.6 62 34.6 62 46.6 45 54.6 45 42.6 62" fill="#8249db"/><polygon points="71 43 58 43 54 37 71 37 71 43" fill="#8249db"/><polygon points="71 54 65 54 61 48 71 48 71 54" fill="#8249db"/></g></svg>