<svg xmlns="http://www.w3.org/2000/svg" viewBox="0 0 96 96"><g id="白底"><g id="_48" data-name=" 48"><path d="M22,89.5A7.5,7.5,0,0,1,14.5,82V14A7.5,7.5,0,0,1,22,6.5H74A7.5,7.5,0,0,1,81.5,14V68.79L60.79,89.5Z" fill="#fff"/><path d="M74,7a7,7,0,0,1,7,7V68.59L60.59,89H22a7,7,0,0,1-7-7V14a7,7,0,0,1,7-7H74m0-1H22a8,8,0,0,0-8,8V82a8,8,0,0,0,8,8H61L82,69V14a8,8,0,0,0-8-8Z" fill="#ccc"/></g><path d="M67,69H82L61,90V75A6,6,0,0,1,67,69Z" fill="#e6e6e6"/><path d="M58.91,49.78,64,51.07a17.27,17.27,0,0,1-5.76,9.62A15.78,15.78,0,0,1,48.08,64,18.18,18.18,0,0,1,38,61.45,15.9,15.9,0,0,1,32,54.08a26.56,26.56,0,0,1-2-10.37,22.77,22.77,0,0,1,2.3-10.54,15.69,15.69,0,0,1,6.53-6.83A18.94,18.94,0,0,1,48.15,24a15.71,15.71,0,0,1,9.71,3,15.35,15.35,0,0,1,5.48,8.31l-5,1.18a11.9,11.9,0,0,0-3.88-6.14,10.28,10.28,0,0,0-6.4-1.93,12.33,12.33,0,0,0-7.41,2.14,11.24,11.24,0,0,0-4.19,5.74,23.3,23.3,0,0,0-1.2,7.42,23.63,23.63,0,0,0,1.43,8.62,10.68,10.68,0,0,0,4.44,5.5,12.46,12.46,0,0,0,6.54,1.82,10.93,10.93,0,0,0,7.24-2.48A12.74,12.74,0,0,0,58.91,49.78Z" fill="#597fe4"/></g></svg>