<svg xmlns="http://www.w3.org/2000/svg" viewBox="0 0 96 96"><g id="白底"><g id="_48" data-name=" 48"><path d="M22,89.5A7.5,7.5,0,0,1,14.5,82V14A7.5,7.5,0,0,1,22,6.5H74A7.5,7.5,0,0,1,81.5,14V68.79L60.79,89.5Z" fill="#fff"/><path d="M74,7a7,7,0,0,1,7,7V68.59L60.59,89H22a7,7,0,0,1-7-7V14a7,7,0,0,1,7-7H74m0-1H22a8,8,0,0,0-8,8V82a8,8,0,0,0,8,8H61L82,69V14a8,8,0,0,0-8-8Z" fill="#ccc"/></g><path d="M67,69H82L61,90V75A6,6,0,0,1,67,69Z" fill="#e6e6e6"/><path d="M37,40.7V28.1A2.05,2.05,0,0,1,39,26H55a2.05,2.05,0,0,1,2,2.1V40.7" fill="none" stroke="#999" stroke-linecap="round" stroke-linejoin="round" stroke-width="4"/><path d="M55,41H65.86a1,1,0,0,1,.77,1.64L50.23,62.33a4.21,4.21,0,0,1-6.46,0L27.37,42.64A1,1,0,0,1,28.14,41H39" fill="none" stroke="#999" stroke-linejoin="round" stroke-width="4"/></g></svg>