<svg xmlns="http://www.w3.org/2000/svg" viewBox="0 0 96 96"><g id="白底"><g id="_48" data-name=" 48"><path d="M22,89.5A7.5,7.5,0,0,1,14.5,82V14A7.5,7.5,0,0,1,22,6.5H74A7.5,7.5,0,0,1,81.5,14V68.79L60.79,89.5Z" fill="#fff"/><path d="M74,7a7,7,0,0,1,7,7V68.59L60.59,89H22a7,7,0,0,1-7-7V14a7,7,0,0,1,7-7H74m0-1H22a8,8,0,0,0-8,8V82a8,8,0,0,0,8,8H61L82,69V14a8,8,0,0,0-8-8Z" fill="#ccc"/></g><path d="M67,69H82L61,90V75A6,6,0,0,1,67,69Z" fill="#e6e6e6"/><line x1="26" y1="70" x2="53" y2="70" fill="none" stroke="#76c22b" stroke-miterlimit="10" stroke-width="2"/><line x1="44" y1="65" x2="56" y2="65" fill="none" stroke="#76c22b" stroke-miterlimit="10" stroke-width="2"/><line x1="26" y1="65" x2="41" y2="65" fill="none" stroke="#46a926" stroke-miterlimit="10" stroke-width="2"/><line x1="60" y1="60" x2="71" y2="60" fill="none" stroke="#fc8e22" stroke-miterlimit="10" stroke-width="2"/><line x1="33" y1="60" x2="56" y2="60" fill="none" stroke="#76c22b" stroke-miterlimit="10" stroke-width="2"/><line x1="44" y1="55" x2="56" y2="55" fill="none" stroke="#76c22b" stroke-miterlimit="10" stroke-width="2"/><line x1="26" y1="55" x2="41" y2="55" fill="none" stroke="#46a926" stroke-miterlimit="10" stroke-width="2"/><line x1="33" y1="50" x2="59" y2="50" fill="none" stroke="#594ee5" stroke-miterlimit="10" stroke-width="2"/><line x1="48" y1="45" x2="59" y2="45" fill="none" stroke="#fc8e22" stroke-miterlimit="10" stroke-width="2"/><line x1="33" y1="45" x2="44" y2="45" fill="none" stroke="#594ee5" stroke-miterlimit="10" stroke-width="2"/><line x1="33" y1="40" x2="48" y2="40" fill="none" stroke="#594ee5" stroke-miterlimit="10" stroke-width="2"/><line x1="26" y1="35" x2="41" y2="35" fill="none" stroke="#46a926" stroke-miterlimit="10" stroke-width="2"/><line x1="37" y1="30" x2="52" y2="30" fill="none" stroke="#76c22b" stroke-miterlimit="10" stroke-width="2"/><line x1="26" y1="30" x2="33" y2="30" fill="none" stroke="#46a926" stroke-miterlimit="10" stroke-width="2"/><line x1="37" y1="25" x2="71" y2="25" fill="none" stroke="#76c22b" stroke-miterlimit="10" stroke-width="2"/><line x1="26" y1="25" x2="33" y2="25" fill="none" stroke="#46a926" stroke-miterlimit="10" stroke-width="2"/><line x1="37" y1="20" x2="59" y2="20" fill="none" stroke="#76c22b" stroke-miterlimit="10" stroke-width="2"/><line x1="26" y1="20" x2="33" y2="20" fill="none" stroke="#46a926" stroke-miterlimit="10" stroke-width="2"/></g></svg>