<svg xmlns="http://www.w3.org/2000/svg" viewBox="0 0 96 96"><g id="红底"><g id="_96" data-name="96"><g id="底色-浅橙"><path id="_48" data-name=" 48" d="M82,69V15a9,9,0,0,0-9-9H23a9,9,0,0,0-9,9V81a9,9,0,0,0,9,9H61.16Z" fill="#ea2d4d"/><path d="M68,69H82L61,90V76A7,7,0,0,1,68,69Z" fill="#fff" opacity="0.3"/></g><polygon points="33.9 27 37.14 38 25 38 33.9 27" fill="#fff"/><polygon points="37.08 27 44.28 27 38.28 35.01 37.08 27" fill="#fff"/><polygon points="47.88 27 39.79 38 56.38 38 47.88 27" fill="#fff"/><polygon points="52.29 27 59.1 27 56.69 34.61 52.29 27" fill="#fff"/><polygon points="62.18 27 58.4 38 71 38 62.18 27" fill="#fff"/><polygon points="25.06 41 37.08 41 46.28 64.62 25.06 41" fill="#fff"/><polygon points="39.88 41 56.7 41 47.89 61.42 39.88 41" fill="#fff"/><polygon points="59.1 41 70.71 41 49.89 64.22 59.1 41" fill="#fff"/></g></g></svg>