<svg xmlns="http://www.w3.org/2000/svg" viewBox="0 0 96 96"><g id="白底"><g id="_48" data-name=" 48"><path d="M22,89.5A7.5,7.5,0,0,1,14.5,82V14A7.5,7.5,0,0,1,22,6.5H74A7.5,7.5,0,0,1,81.5,14V68.79L60.79,89.5Z" fill="#fff"/><path d="M74,7a7,7,0,0,1,7,7V68.59L60.59,89H22a7,7,0,0,1-7-7V14a7,7,0,0,1,7-7H74m0-1H22a8,8,0,0,0-8,8V82a8,8,0,0,0,8,8H61L82,69V14a8,8,0,0,0-8-8Z" fill="#ccc"/></g><path d="M67,69H82L61,90V75A6,6,0,0,1,67,69Z" fill="#e6e6e6"/><path d="M28.69,51.55c3.23-.16,3.45-.71,3.45-3.17V32.55h-2c-4.23,0-4.65.71-5.62,4.1H24c.19-1.9.29-3.84.36-5.65h.51a1.42,1.42,0,0,0,.71.68,3.06,3.06,0,0,0,1,.1h13A1.48,1.48,0,0,0,41.16,31l.55,0A48.3,48.3,0,0,0,42,36.52l-.55.13c-.77-3.65-2-4.1-4.75-4.1H33.82V48.38c0,2.46.23,3,3.59,3.17V52H28.69Z" fill="#666"/><path d="M39,56.55c3-.16,3.21-.7,3.21-3.16V40.87c0-2.75-.26-3.29-2.89-3.42V37H53.13c0,1.12.16,3,.28,4.89l-.54.09c-.66-3.25-1.27-4.21-5.11-4.21h-3c-.86,0-.89.06-.89.89v7.48H47.6c2.51,0,3.11-.32,3.59-2.46h.54v5.94h-.54C50.68,47.16,50,47,47.6,47H43.89v6.23c0,3,1.3,3,3.94,3,1.93,0,3.84,0,4.85-1.21a10,10,0,0,0,1.78-3.16H55c-.29,1.18-.89,4-1.14,5.11H39Z" fill="#666"/><path d="M52.62,31h6.9v.45c-1.56.16-2.15.32-2.15.76a2,2,0,0,0,.44,1c1.08,1.82,2.54,3.84,4.07,6,1.83-2.65,3.88-5.69,3.88-6.65,0-.61-.62-.86-2.15-1.05V31H70.7v.45c-2.4.29-2.89.92-4.32,2.71-.44.58-1.46,2-4.1,5.69,1.89,2.78,3.91,5.69,5.25,7.57,1.4,2,2.27,2.94,4.47,3.16V51H64.83v-.42c1.24-.16,1.92-.38,1.92-.95a1.75,1.75,0,0,0-.25-.77c-.87-1.41-3.23-4.82-5-7.32-1.89,2.91-3.2,5.21-4.31,7.16a2.35,2.35,0,0,0-.32.89c0,.58.59.83,2,1V51H52v-.45a4.92,4.92,0,0,0,3.57-1.91c.31-.26,1.68-2.18,5.44-7.83-1.77-2.69-3.48-5.27-4.23-6.23-1.55-2.3-1.77-2.84-4.16-3.13Z" fill="#666"/></g></svg>