<svg xmlns="http://www.w3.org/2000/svg" viewBox="0 0 96 96"><g id="白底"><g id="_48" data-name=" 48"><path d="M22,89.5A7.5,7.5,0,0,1,14.5,82V14A7.5,7.5,0,0,1,22,6.5H74A7.5,7.5,0,0,1,81.5,14V68.79L60.79,89.5Z" fill="#fff"/><path d="M74,7a7,7,0,0,1,7,7V68.59L60.59,89H22a7,7,0,0,1-7-7V14a7,7,0,0,1,7-7H74m0-1H22a8,8,0,0,0-8,8V82a8,8,0,0,0,8,8H61L82,69V14a8,8,0,0,0-8-8Z" fill="#ccc"/></g><path d="M67,69H82L61,90V75A6,6,0,0,1,67,69Z" fill="#e6e6e6"/><path d="M72.4,45.72c-1.74-2-4.54-3.53-9.76-1.46-.35.13-1.63-2.33-.61-5.92.15-.53-2.47-1-2.79,0C58.86,39.56,56.65,45,56.09,45c-.76,0-.91-3.24-.45-5.44.07-.31-1.34-.25-2.17-.22a.38.38,0,0,0-.35.25c-.59,1.44-3.7,9-4.06,9.75s-.71,1.57-1,.6,1-4,1.31-5.49c.1-.54-.59-1.34-1.53-.62-.17.13.61-2.7-1.25-2.88C43.8,40.65,43.71,42.74,42,44a33.1,33.1,0,0,1-4,2.12.37.37,0,0,1-.41,0c-.94-.75-5.09-4.08-5.88-5.27-1.77-2.68-1.34-4.37.19-6.57,1.92-2.78,8.09-6.75,13-7.78s8.5,0,8.78,2.39c.4,3.4-2.69,5.77-4.11,6.64a12,12,0,0,1-7.35,2.26c-3-.06-3.91-1.52-4.31-1.52s.1,2.17,2.5,2.77a14.5,14.5,0,0,0,10.58-1.87c3.65-2.54,5-4.69,5.18-7.58a5,5,0,0,0-2.79-5.19c-3.6-1.57-9.57-1.19-15.16,1.6s-9.33,6.13-10.57,9.37c-1.15,3,.85,5.93,2.39,7.19C31.75,44,35.52,46.71,36,47.21s-6.19,1.86-7.42,6.19C27.71,56.59,29,58,31.82,58a7.89,7.89,0,0,0,6.47-4.11,8.77,8.77,0,0,0,.2-6.59,15.56,15.56,0,0,1,2.59-1.39c.37.32-1.69,4.47.5,6.92,1.45,1.62,2.25.85,2.85.25s1.44-3.58,1.64-3.78-.8,4.19,1.4,3.59,5-8.58,5.38-9.58c.57-1.39.72,2.9,1.8,3.59.35.24-2.59,3.2-3,3.79-.69,1-.65,1.83.94,1.83s4.64-1.53,4.64-3.44c0-2.44-.81-2.06-.59-2.62s2.35-4,2.75-4.68c.28-.49.27,2.18,1.3,3.21.71.71-2.66,1.31-2.66,4.71,0,1.85,1.84,1.22,2.41,1,.84-.34,3.46-1.17,2.77-5.28-.12-.75,6.12-1.22,7.79.7.84,1,2.44,3.56-.6,4.78-.43.18.55.76,1.79-.2A4,4,0,0,0,72.4,45.72ZM37.22,51.36c-.76,3.06-5.55,5.55-5.91,3.57-.75-4.19,5.62-7.17,5.89-6.91S37.81,49,37.22,51.36Zm7.41-1.91c-.54,1.14-1.35,2.52-1.65.92a8.87,8.87,0,0,1,1.63-6.55c1.68-2.37,2.11-.71,2.11-.71C46.72,44.92,45.22,48.23,44.63,49.45Zm9.71,1.1c-1,1.14-1.61.71-1.23,0,.24-.45,1.77-2.28,2-2.19C55.63,48.53,55.42,49.27,54.34,50.55Zm5.34-1c-1.07-.65,1.53-3.3,1.74-3.23C62.13,46.57,60.73,50.19,59.68,49.55Z" fill="#ef65e8"/></g></svg>