<svg xmlns="http://www.w3.org/2000/svg" viewBox="0 0 96 96"><g id="白底"><g id="_48" data-name=" 48"><path d="M22,89.5A7.5,7.5,0,0,1,14.5,82V14A7.5,7.5,0,0,1,22,6.5H74A7.5,7.5,0,0,1,81.5,14V68.79L60.79,89.5Z" fill="#fff"/><path d="M74,7a7,7,0,0,1,7,7V68.59L60.59,89H22a7,7,0,0,1-7-7V14a7,7,0,0,1,7-7H74m0-1H22a8,8,0,0,0-8,8V82a8,8,0,0,0,8,8H61L82,69V14a8,8,0,0,0-8-8Z" fill="#ccc"/></g><path d="M67,69H82L61,90V75A6,6,0,0,1,67,69Z" fill="#e6e6e6"/><polygon points="51 67 44 67 44 27 51 26 51 67" fill="#7b2fd3"/><polygon points="51 67 48 67 64 25 67 25 51 67" fill="#7b2fd3"/><path d="M41.41,27.1a13,13,0,0,0-10.95,9.51,12.76,12.76,0,0,0-.21,5.9A1.9,1.9,0,0,0,32.12,44h0A1.92,1.92,0,0,0,34,41.91c0-.3,0-.6,0-.91A13,13,0,0,1,47,28a10.55,10.55,0,0,1,1.13.06A12.88,12.88,0,0,0,41.41,27.1Z" fill="#7b2fd3"/></g></svg>