<svg xmlns="http://www.w3.org/2000/svg" viewBox="0 0 96 96"><g id="白底"><g id="_48" data-name=" 48"><path d="M22,89.5A7.5,7.5,0,0,1,14.5,82V14A7.5,7.5,0,0,1,22,6.5H74A7.5,7.5,0,0,1,81.5,14V68.79L60.79,89.5Z" fill="#fff"/><path d="M74,7a7,7,0,0,1,7,7V68.59L60.59,89H22a7,7,0,0,1-7-7V14a7,7,0,0,1,7-7H74m0-1H22a8,8,0,0,0-8,8V82a8,8,0,0,0,8,8H61L82,69V14a8,8,0,0,0-8-8Z" fill="#ccc"/></g><path d="M67,69H82L61,90V75A6,6,0,0,1,67,69Z" fill="#e6e6e6"/><path d="M44,54.5H35.5a7,7,0,0,1-7-7v-6a7,7,0,0,1,7-7H44" fill="none" stroke="#8545d8" stroke-miterlimit="10" stroke-width="3"/><line x1="47" y1="50.5" x2="69" y2="50.5" fill="none" stroke="#8545d8" stroke-miterlimit="10" stroke-width="3"/><line x1="47" y1="38.5" x2="69" y2="38.5" fill="none" stroke="#8545d8" stroke-miterlimit="10" stroke-width="3"/><line x1="52.5" y1="33.5" x2="52.5" y2="55.5" fill="none" stroke="#8545d8" stroke-miterlimit="10" stroke-width="3"/><line x1="63.5" y1="33.5" x2="63.5" y2="55.5" fill="none" stroke="#8545d8" stroke-miterlimit="10" stroke-width="3"/></g></svg>