<svg xmlns="http://www.w3.org/2000/svg" viewBox="0 0 96 96"><g id="白底"><g id="_48" data-name=" 48"><path d="M22,89.5A7.5,7.5,0,0,1,14.5,82V14A7.5,7.5,0,0,1,22,6.5H74A7.5,7.5,0,0,1,81.5,14V68.79L60.79,89.5Z" fill="#fff"/><path d="M74,7a7,7,0,0,1,7,7V68.59L60.59,89H22a7,7,0,0,1-7-7V14a7,7,0,0,1,7-7H74m0-1H22a8,8,0,0,0-8,8V82a8,8,0,0,0,8,8H61L82,69V14a8,8,0,0,0-8-8Z" fill="#ccc"/></g><path d="M67,69H82L61,90V75A6,6,0,0,1,67,69Z" fill="#e6e6e6"/><path d="M45.13,34H34.87A5.89,5.89,0,0,0,29,39.87V50.13A5.89,5.89,0,0,0,34.87,56H45.13A5.89,5.89,0,0,0,51,50.13V39.87A5.89,5.89,0,0,0,45.13,34Z" fill="#4495cc"/><path d="M63.13,34H52.87A5.89,5.89,0,0,0,47,39.87V50.13A5.89,5.89,0,0,0,52.87,56H63.13A5.89,5.89,0,0,0,69,50.13V39.87A5.89,5.89,0,0,0,63.13,34Z" fill="#ffdf5a"/><path d="M54.13,25H43.87A5.92,5.92,0,0,0,38,30.93v8.14A5.92,5.92,0,0,0,43.87,45H54.13A5.92,5.92,0,0,0,60,39.07V30.93A5.92,5.92,0,0,0,54.13,25ZM43,32a2,2,0,1,1,2-2A2,2,0,0,1,43,32Z" fill="#4495cc"/><path d="M54.13,45H43.87A5.92,5.92,0,0,0,38,50.93v8.14A5.92,5.92,0,0,0,43.87,65H54.13A5.92,5.92,0,0,0,60,59.07V50.93A5.92,5.92,0,0,0,54.13,45ZM55,62a2,2,0,1,1,2-2A2,2,0,0,1,55,62Z" fill="#ffdf5a"/></g></svg>