<svg xmlns="http://www.w3.org/2000/svg" viewBox="0 0 96 96"><g id="markdown"><g id="_96" data-name="96"><path id="_48" data-name=" 48" d="M82,69V15a9,9,0,0,0-9-9H23a9,9,0,0,0-9,9V81a9,9,0,0,0,9,9H61Z" fill="#15abce"/><path d="M67,69H82L61,90V75A6,6,0,0,1,67,69Z" fill="#fff" opacity="0.3"/><path d="M68,35V57H28V35H68m0-4H28a4,4,0,0,0-4,4V57a4,4,0,0,0,4,4H68a4,4,0,0,0,4-4V35a4,4,0,0,0-4-4Z" fill="#fff"/><polygon points="32 39 32 53 36 53 36 44 40 49 44 44 44 53 48 53 48 39 43 39 40 43 37 39 32 39" fill="#fff"/><rect x="56" y="39" width="4" height="11" fill="#fff"/><polygon points="52 47 64 47 58 53 52 47" fill="#fff"/></g></g></svg>