<svg xmlns="http://www.w3.org/2000/svg" viewBox="0 0 96 96"><g id="文档_复制"><path id="_48" data-name=" 48" d="M82,69V15a9,9,0,0,0-9-9H23a9,9,0,0,0-9,9V81a9,9,0,0,0,9,9H61Z" fill="#d5dbdf"/><path d="M67,69H82L61,90V75A6,6,0,0,1,67,69Z" fill="#fff" opacity="0.3"/><path d="M56,33.94a10.33,10.33,0,0,1-1.25,5,13,13,0,0,1-3.33,4,10.38,10.38,0,0,0-2.92,3.33,6.4,6.4,0,0,0-.83,2.29V50H43.92V47.9a7.76,7.76,0,0,1,.93-3.65,15.1,15.1,0,0,1,3.23-3.85,7.82,7.82,0,0,0,2.92-6,5.84,5.84,0,0,0-1.25-4.06,4.58,4.58,0,0,0-3.54-1.35,5,5,0,0,0-3.86,1.77q-1.56,1.77-1.56,5.73H36q.21-5.84,3.12-8.65A9.87,9.87,0,0,1,46.21,25a10,10,0,0,1,7.19,2.5A8.58,8.58,0,0,1,56,33.94ZM48.08,61H43.5V56h4.58Z" fill="#545859"/></g></svg>