<svg xmlns="http://www.w3.org/2000/svg" viewBox="0 0 96 96"><g id="WPS"><g id="W"><path d="M27,89.5A8.51,8.51,0,0,1,18.5,81V15A8.51,8.51,0,0,1,27,6.5H77A8.51,8.51,0,0,1,85.5,15V68.79L65,89.5Z" fill="#fff"/><path d="M77,7a8,8,0,0,1,8,8V68.59L64.74,89H27a8,8,0,0,1-8-8V15a8,8,0,0,1,8-8H77m0-1H27a9,9,0,0,0-9,9V81a9,9,0,0,0,9,9H65.16L86,69V15a9,9,0,0,0-9-9Z" fill="#ccc"/><path d="M86,69H72.33A7.33,7.33,0,0,0,65,76.33V90h.16Z" fill="#e6e6e6"/><rect x="30.5" y="64" width="42" height="3" rx="1.5" fill="#ccc"/><path d="M32,71H54a1.49,1.49,0,0,1,1.47,1.5h0A1.49,1.49,0,0,1,54,74H32a1.49,1.49,0,0,1-1.47-1.5h0A1.49,1.49,0,0,1,32,71Z" fill="#ccc"/><rect x="10" y="13" width="48" height="48" rx="8" fill="#67a8f8"/><polyline id="w-2" data-name="w" points="20.5 25 20.5 49 34 36.2 47.5 49 47.5 25" fill="none" stroke="#fff" stroke-linecap="round" stroke-linejoin="round" stroke-width="4"/></g></g></svg>