<svg xmlns="http://www.w3.org/2000/svg" viewBox="0 0 96 96"><g id="WPS"><g id="P"><path d="M26,89.5A8.51,8.51,0,0,1,17.5,81V15A8.51,8.51,0,0,1,26,6.5H76A8.51,8.51,0,0,1,84.5,15V68.79L64,89.5Z" fill="#fff"/><path d="M76,7a8,8,0,0,1,8,8V68.59L63.74,89H26a8,8,0,0,1-8-8V15a8,8,0,0,1,8-8H76m0-1H26a9,9,0,0,0-9,9V81a9,9,0,0,0,9,9H64.16L85,69V15a9,9,0,0,0-9-9Z" fill="#ccc"/><path d="M85,69H71.33A7.33,7.33,0,0,0,64,76.33V90h.16Z" fill="#e6e6e6"/><path d="M32,69v8H27V69h5m0-2H27a2,2,0,0,0-2,2v8a2,2,0,0,0,2,2h5a2,2,0,0,0,2-2V69a2,2,0,0,0-2-2Z" fill="#ccc"/><path d="M58,69v8H40V69H58m0-2H40a2,2,0,0,0-2,2v8a2,2,0,0,0,2,2H58a2,2,0,0,0,2-2V69a2,2,0,0,0-2-2Z" fill="#ccc"/><rect x="9" y="13" width="48" height="48" rx="9" fill="#f67a4e"/><g id="P-2" data-name="P"><path d="M19.28,50.91V38.21a2.8,2.8,0,0,1,2.8-2.78H34" fill="none" stroke="#fff" stroke-linecap="round" stroke-miterlimit="10" stroke-width="4"/><path d="M18.75,23.09H41a6.22,6.22,0,0,1,6.22,6.18h0A6.19,6.19,0,0,1,41,35.43H23.93" fill="none" stroke="#fff" stroke-linecap="round" stroke-miterlimit="10" stroke-width="4"/></g></g></g></svg>