<svg id="图层_1" data-name="图层 1" xmlns="http://www.w3.org/2000/svg" viewBox="0 0 16 16"><defs><style>.cls-1{fill:#262626;}</style></defs><g id="a"><g id="_16-10" data-name=" 16-10"><rect class="cls-1" x="4" y="8" width="1" height="1"/><rect class="cls-1" x="7" y="8" width="1" height="1"/><rect class="cls-1" x="4" y="11" width="1" height="1"/><rect class="cls-1" x="7" y="11" width="1" height="1"/><rect class="cls-1" x="10" y="11" width="1" height="1"/><rect class="cls-1" x="10" y="8" width="1" height="1"/><rect class="cls-1" x="2" y="5" width="12" height="1"/><path class="cls-1" d="M4.5,4A.5.5,0,0,1,4,3.5v-2a.5.5,0,0,1,1,0v2A.5.5,0,0,1,4.5,4Z"/><path class="cls-1" d="M11.5,4a.5.5,0,0,1-.5-.5v-2a.5.5,0,0,1,1,0v2A.5.5,0,0,1,11.5,4Z"/><path class="cls-1" d="M13,3a1,1,0,0,1,1,1v9a1,1,0,0,1-1,1H3a1,1,0,0,1-1-1V4A1,1,0,0,1,3,3H13m0-1H3A2,2,0,0,0,1,4v9a2,2,0,0,0,2,2H13a2,2,0,0,0,2-2V4A2,2,0,0,0,13,2Z"/></g></g></svg>