<?xml version="1.0" encoding="utf-8"?>
<!-- Generator: Adobe Illustrator 25.0.0, SVG Export Plug-In . SVG Version: 6.00 Build 0)  -->
<svg version="1.1"
	 id="svg7384" xmlns:cc="http://creativecommons.org/ns#" xmlns:dc="http://purl.org/dc/elements/1.1/" xmlns:inkscape="http://www.inkscape.org/namespaces/inkscape" xmlns:rdf="http://www.w3.org/1999/02/22-rdf-syntax-ns#" xmlns:sodipodi="http://sodipodi.sourceforge.net/DTD/sodipodi-0.dtd" xmlns:svg="http://www.w3.org/2000/svg"
	 xmlns="http://www.w3.org/2000/svg" xmlns:xlink="http://www.w3.org/1999/xlink" x="0px" y="0px" viewBox="0 0 16 16"
	 style="enable-background:new 0 0 16 16;" xml:space="preserve">
<style type="text/css">
	.st0{opacity:0.75;}
	.st1{fill:#1F2022;}
</style>
<sodipodi:namedview  bordercolor="#666666" borderopacity="1" gridtolerance="10" guidetolerance="10" id="namedview88" inkscape:bbox-paths="false" inkscape:current-layer="layer10" inkscape:cx="47.52504" inkscape:cy="3.0535175" inkscape:guide-bbox="true" inkscape:object-nodes="false" inkscape:object-paths="false" inkscape:pageopacity="1" inkscape:pageshadow="2" inkscape:snap-bbox="true" inkscape:snap-bbox-midpoints="false" inkscape:snap-global="true" inkscape:snap-grids="true" inkscape:snap-nodes="false" inkscape:snap-others="false" inkscape:snap-to-guides="true" inkscape:window-height="740" inkscape:window-maximized="0" inkscape:window-width="639" inkscape:window-x="0" inkscape:window-y="27" inkscape:zoom="1" objecttolerance="10" pagecolor="#555753" showborder="false" showgrid="false" showguides="true">
	
		<inkscape:grid  empspacing="2" enabled="true" id="grid4866" snapvisiblegridlinesonly="true" spacingx="1px" spacingy="1px" type="xygrid" visible="true">
		</inkscape:grid>
</sodipodi:namedview>
<g id="layer9" transform="translate(258.9998,-446.99085)" inkscape:groupmode="layer" inkscape:label="status">
</g>
<g id="layer10" transform="translate(258.9998,-446.99085)" inkscape:groupmode="layer" inkscape:label="devices" class="st0">
	
		<path id="path23000" inkscape:connector-curvature="0" sodipodi:nodetypes="ssccsccscssscccsscscccccccccccccccccccc" class="st1" d="
		M-251.9,447c-0.5,0-0.9,0.2-1.3,0.5c-0.5,0.4-0.8,1-0.8,1.7v5.3c0,0,0.2,0.5,0.5,0.5s0.5-0.5,0.5-0.5v-5.3c0-0.4,0.2-0.7,0.4-0.9
		s0.7-0.3,1.1-0.3c0.4,0,0.8,0.2,1.1,0.4s0.5,0.6,0.5,1.1c0,2.2,1.5,3.5,3,3.5c0.9,0,1.7-0.5,2.3-1.3l-0.6-1
		c-0.4,0.9-1.1,1.3-1.7,1.3c-1,0-2-0.7-2-2.5c0-0.8-0.3-1.4-0.8-1.9s-1.1-0.6-1.7-0.7C-251.6,447-251.8,447-251.9,447z M-245,449
		v0.1l0.8,1.4v-0.1L-245,449z M-245,449.3c0,0.1,0,0.2,0,0.3l0.7,1.2c0-0.1,0-0.1,0.1-0.2L-245,449.3z M-245.1,449.8
		c0,0.1,0,0.2-0.1,0.3l0.7,1.1c0-0.1,0.1-0.1,0.1-0.2L-245.1,449.8z M-245.2,450.3c0,0.1-0.1,0.2-0.1,0.3l0.6,1
		c0-0.1,0.1-0.1,0.1-0.2L-245.2,450.3z"/>
	<path id="rect23032" class="st1" d="M-256.3,453h5.5c0.4,0,0.7,0.3,0.7,0.7v6.5c0,0.4-0.3,0.7-0.7,0.7h-5.5c-0.4,0-0.7-0.3-0.7-0.7
		v-6.5C-257,453.3-256.7,453-256.3,453z"/>
</g>
<g id="layer11" transform="translate(258.9998,-446.99085)" inkscape:groupmode="layer" inkscape:label="apps">
</g>
<g id="layer13" transform="translate(258.9998,-446.99085)" inkscape:groupmode="layer" inkscape:label="places">
</g>
<g id="layer14" transform="translate(258.9998,-446.99085)" inkscape:groupmode="layer" inkscape:label="mimetypes">
</g>
<g id="layer15" transform="translate(258.9998,-446.99085)" inkscape:groupmode="layer" inkscape:label="emblems">
</g>
<g id="g71291" transform="translate(258.9998,-446.99085)" inkscape:groupmode="layer" inkscape:label="emotes">
</g>
<g id="g4953" transform="translate(258.9998,-446.99085)" inkscape:groupmode="layer" inkscape:label="categories">
</g>
<g id="layer12" transform="translate(258.9998,-446.99085)" inkscape:groupmode="layer" inkscape:label="actions">
</g>
</svg>
