<?xml version="1.0" encoding="utf-8"?>
<!-- Generator: Adobe Illustrator 25.0.0, SVG Export Plug-In . SVG Version: 6.00 Build 0)  -->
<svg version="1.1"
	 id="svg7384" xmlns:cc="http://creativecommons.org/ns#" xmlns:dc="http://purl.org/dc/elements/1.1/" xmlns:inkscape="http://www.inkscape.org/namespaces/inkscape" xmlns:rdf="http://www.w3.org/1999/02/22-rdf-syntax-ns#" xmlns:sodipodi="http://sodipodi.sourceforge.net/DTD/sodipodi-0.dtd" xmlns:svg="http://www.w3.org/2000/svg"
	 xmlns="http://www.w3.org/2000/svg" xmlns:xlink="http://www.w3.org/1999/xlink" x="0px" y="0px" viewBox="0 0 16 16"
	 style="enable-background:new 0 0 16 16;" xml:space="preserve">
<style type="text/css">
	.st0{opacity:0.75;}
	.st1{fill:#1F2022;}
</style>
<sodipodi:namedview  bordercolor="#666666" borderopacity="1" gridtolerance="10" guidetolerance="10" id="namedview88" inkscape:bbox-paths="false" inkscape:current-layer="layer10" inkscape:cx="-7.49829" inkscape:cy="8.96987" inkscape:guide-bbox="true" inkscape:object-nodes="false" inkscape:object-paths="false" inkscape:pageopacity="1" inkscape:pageshadow="2" inkscape:snap-bbox="true" inkscape:snap-bbox-midpoints="false" inkscape:snap-global="true" inkscape:snap-grids="true" inkscape:snap-nodes="false" inkscape:snap-others="false" inkscape:snap-to-guides="true" inkscape:window-height="1381" inkscape:window-maximized="1" inkscape:window-width="2560" inkscape:window-x="1600" inkscape:window-y="27" inkscape:zoom="1" objecttolerance="10" pagecolor="#555753" showborder="false" showgrid="false" showguides="true">
	
		<inkscape:grid  empspacing="2" enabled="true" id="grid4866" snapvisiblegridlinesonly="true" spacingx="1px" spacingy="1px" type="xygrid" visible="true">
		</inkscape:grid>
</sodipodi:namedview>
<g id="layer9" transform="translate(-81.0002,-467)" inkscape:groupmode="layer" inkscape:label="status">
</g>
<g id="layer10" transform="translate(-81.0002,-467)" inkscape:groupmode="layer" inkscape:label="devices" class="st0">
	<path id="rect8337" class="st1" d="M85,476.1L85,476.1c0.9-0.3,2,0.3,2.3,1.3l0.7,2.2c0.3,1-0.2,2-1.2,2.3l0,0
		c-0.9,0.3-2-0.3-2.3-1.3l-0.7-2.2C83.5,477.4,84,476.4,85,476.1z"/>
	<path id="rect8346" inkscape:connector-curvature="0" sodipodi:nodetypes="cscccscccssc" class="st1" d="M89,468c-3.3,0-6,3-6,5.7
		c0,2.4,0.8,4.7,1,5.3c1.6,0,0,0,1.5,0c-1.2-2.3-1-5.2-1-5.2c0-2.4,2-4.3,4.5-4.3s4.5,1.8,4.5,4.3c0,1.7-0.2,2.7-1,5.2H94
		c0.2-0.6,1-3.2,1-5.3C95,470.9,92.3,468,89,468L89,468z"/>
	<path id="rect8371" class="st1" d="M93,476.1L93,476.1c-0.9-0.3-2,0.3-2.3,1.3l-0.7,2.2c-0.3,1,0.2,2,1.2,2.3l0,0
		c0.9,0.3,2-0.3,2.3-1.3l0.7-2.2C94.5,477.4,94,476.4,93,476.1z"/>
</g>
<g id="layer11" transform="translate(-81.0002,-467)" inkscape:groupmode="layer" inkscape:label="apps">
</g>
<g id="layer13" transform="translate(-81.0002,-467)" inkscape:groupmode="layer" inkscape:label="places">
</g>
<g id="layer14" transform="translate(-81.0002,-467)" inkscape:groupmode="layer" inkscape:label="mimetypes">
</g>
<g id="layer15" transform="translate(-81.0002,-467)" inkscape:groupmode="layer" inkscape:label="emblems">
</g>
<g id="g71291" transform="translate(-81.0002,-467)" inkscape:groupmode="layer" inkscape:label="emotes">
</g>
<g id="g4953" transform="translate(-81.0002,-467)" inkscape:groupmode="layer" inkscape:label="categories">
</g>
<g id="layer12" transform="translate(-81.0002,-467)" inkscape:groupmode="layer" inkscape:label="actions">
</g>
</svg>
