<?xml version="1.0" encoding="utf-8"?>
<!-- Generator: Adobe Illustrator 25.0.0, SVG Export Plug-In . SVG Version: 6.00 Build 0)  -->
<svg version="1.1"
	 id="svg7384" xmlns:cc="http://creativecommons.org/ns#" xmlns:dc="http://purl.org/dc/elements/1.1/" xmlns:inkscape="http://www.inkscape.org/namespaces/inkscape" xmlns:rdf="http://www.w3.org/1999/02/22-rdf-syntax-ns#" xmlns:sodipodi="http://sodipodi.sourceforge.net/DTD/sodipodi-0.dtd" xmlns:svg="http://www.w3.org/2000/svg"
	 xmlns="http://www.w3.org/2000/svg" xmlns:xlink="http://www.w3.org/1999/xlink" x="0px" y="0px" viewBox="0 0 16 16"
	 style="enable-background:new 0 0 16 16;" xml:space="preserve">
<style type="text/css">
	.st0{opacity:0.75;}
	.st1{fill:#1F2022;}
</style>
<sodipodi:namedview  bordercolor="#666666" borderopacity="1" gridtolerance="10" guidetolerance="10" id="namedview88" inkscape:bbox-nodes="false" inkscape:bbox-paths="true" inkscape:current-layer="layer10" inkscape:cx="14.000344" inkscape:cy="6.49502" inkscape:guide-bbox="true" inkscape:object-nodes="false" inkscape:object-paths="false" inkscape:pageopacity="1" inkscape:pageshadow="2" inkscape:snap-bbox="true" inkscape:snap-bbox-midpoints="false" inkscape:snap-global="true" inkscape:snap-grids="true" inkscape:snap-nodes="true" inkscape:snap-others="false" inkscape:snap-to-guides="true" inkscape:window-height="1375" inkscape:window-maximized="1" inkscape:window-width="2560" inkscape:window-x="0" inkscape:window-y="27" inkscape:zoom="1" objecttolerance="10" pagecolor="#3a3b39" showborder="false" showgrid="false" showguides="true">
	
		<inkscape:grid  dotted="false" empspacing="2" enabled="true" id="grid4866" originx="80px" originy="350px" snapvisiblegridlinesonly="true" spacingx="1px" spacingy="1px" type="xygrid" visible="true">
		</inkscape:grid>
</sodipodi:namedview>
<g id="layer9" transform="translate(-161.0002,-567)" inkscape:groupmode="layer" inkscape:label="status">
</g>
<g id="layer10" transform="translate(-161.0002,-567)" inkscape:groupmode="layer" inkscape:label="devices" class="st0">
	<path id="path26990" inkscape:connector-curvature="0" sodipodi:nodetypes="sssssscccsccccccss" class="st1" d="M165.2,567
		c-1.8,0-3.2,1.3-3.2,3v10c0,1.7,1.4,3,3.2,3h7.6c1.8,0,3.2-1.3,3.2-3v-6.6l-2,2.9v3.7c0,0.6-0.5,1-1.1,1H165c-0.6,0-1-0.4-1-1v-10
		c0-0.6,0.4-1,1-1h7.7l1.3-1.8c-0.4-0.1-0.8-0.3-1.3-0.3L165.2,567L165.2,567z"/>
	<path id="path8552-8" inkscape:connector-curvature="0" sodipodi:nodetypes="ccccccccccc" class="st1" d="M175,568c0,0-2.5,3.5-4,6
		l-1.4,1.2v1.6l-0.8,1.2h0.7l0.7-0.6l1.7-0.5l0.6-1.5l4.2-6.4L175,568z"/>
</g>
<g id="layer11" transform="translate(-161.0002,-567)" inkscape:groupmode="layer" inkscape:label="apps">
</g>
<g id="layer13" transform="translate(-161.0002,-567)" inkscape:groupmode="layer" inkscape:label="places">
</g>
<g id="layer14" transform="translate(-161.0002,-567)" inkscape:groupmode="layer" inkscape:label="mimetypes">
</g>
<g id="layer15" transform="translate(-161.0002,-567)" inkscape:groupmode="layer" inkscape:label="emblems">
</g>
<g id="g71291" transform="translate(-161.0002,-567)" inkscape:groupmode="layer" inkscape:label="emotes">
</g>
<g id="g4953" transform="translate(-161.0002,-567)" inkscape:groupmode="layer" inkscape:label="categories">
</g>
<g id="layer12" transform="translate(-161.0002,-567)" inkscape:groupmode="layer" inkscape:label="actions">
</g>
</svg>
