<?xml version="1.0" encoding="utf-8"?>
<!-- Generator: Adobe Illustrator 25.0.0, SVG Export Plug-In . SVG Version: 6.00 Build 0)  -->
<svg version="1.1"
	 id="svg7384" xmlns:cc="http://creativecommons.org/ns#" xmlns:dc="http://purl.org/dc/elements/1.1/" xmlns:inkscape="http://www.inkscape.org/namespaces/inkscape" xmlns:rdf="http://www.w3.org/1999/02/22-rdf-syntax-ns#" xmlns:sodipodi="http://sodipodi.sourceforge.net/DTD/sodipodi-0.dtd" xmlns:svg="http://www.w3.org/2000/svg"
	 xmlns="http://www.w3.org/2000/svg" xmlns:xlink="http://www.w3.org/1999/xlink" x="0px" y="0px" viewBox="0 0 16 16"
	 style="enable-background:new 0 0 16 16;" xml:space="preserve">
<style type="text/css">
	.st0{display:none;}
	.st1{display:inline;opacity:0.75;fill:#1F2022;enable-background:new    ;}
	.st2{display:inline;opacity:0.35;fill:#1F2022;enable-background:new    ;}
	.st3{opacity:0.75;}
	.st4{fill:#1F2022;}
	.st5{opacity:0.35;fill:#1F2022;}
</style>
<sodipodi:namedview  bordercolor="#666666" borderopacity="1" gridtolerance="10" guidetolerance="10" id="namedview88" inkscape:bbox-paths="false" inkscape:current-layer="layer10" inkscape:cx="107.05598" inkscape:cy="-159.55779" inkscape:guide-bbox="true" inkscape:object-nodes="false" inkscape:object-paths="false" inkscape:pageopacity="1" inkscape:pageshadow="2" inkscape:snap-bbox="true" inkscape:snap-bbox-midpoints="false" inkscape:snap-global="true" inkscape:snap-grids="true" inkscape:snap-nodes="true" inkscape:snap-others="false" inkscape:snap-to-guides="true" inkscape:window-height="1020" inkscape:window-maximized="0" inkscape:window-width="1598" inkscape:window-x="0" inkscape:window-y="26" inkscape:zoom="1" objecttolerance="10" pagecolor="#555753" showborder="false" showgrid="false" showguides="true">
	
		<inkscape:grid  empspacing="2" enabled="true" id="grid4866" snapvisiblegridlinesonly="true" spacingx="1px" spacingy="1px" type="xygrid" visible="true">
		</inkscape:grid>
</sodipodi:namedview>
<g id="layer9" transform="translate(-281.00023,-447)" inkscape:groupmode="layer" inkscape:label="status">
</g>
<g id="layer10" transform="translate(-281.00023,-447)" inkscape:groupmode="layer" inkscape:label="devices" class="st0">
	<path id="rect4640-8" inkscape:connector-curvature="0" class="st1" d="M296,448.4c-0.1-0.3-0.3-0.6-0.5-0.8
		c-0.4-0.4-0.9-0.6-1.5-0.6h-10c-0.6,0-1.1,0.2-1.5,0.6c-0.2,0.2-0.4,0.4-0.5,0.8c-0.1,0.3-0.1,0.8,0.1,1.1l1,2
		c0.1,0.2,0.2,0.4,0.4,0.7c0.2-0.1,0.5-0.1,0.8-0.1h9.6c0.3,0,0.5,0,0.8,0.1c0.2-0.3,0.3-0.5,0.4-0.7l1-2
		C296.1,449.2,296.1,448.7,296,448.4z M285.1,451.1c0-0.1-0.1-0.2-0.2-0.4l-0.8-1.6h9.8l-0.8,1.6c-0.1,0.2-0.2,0.4-0.2,0.4H285.1z"
		/>
	<path id="rect4640" inkscape:connector-curvature="0" sodipodi:nodetypes="sssccsssscccccccccc" class="st1" d="M285,453.1
		c-0.5,0-0.9,0.1-1.3,0.4s-0.7,0.8-0.7,1.3v8.2h12v-8.2c0-0.6-0.3-1.1-0.7-1.3s-0.8-0.4-1.3-0.4H285z M285,454.1h8v6h-8V454.1z
		 M292,461.1h1v1h-1V461.1z"/>
	<path class="st2" d="M293.9,449.1l-0.8,1.6c-0.1,0.2-0.2,0.4-0.2,0.4h-7.8c0-0.1-0.1-0.2-0.2-0.4l-0.8-1.6H293.9z"/>
	<rect id="rect5431" x="286" y="458.1" class="st1" width="6" height="1"/>
	<path id="rect5431-4" inkscape:connector-curvature="0" sodipodi:nodetypes="ccccc" class="st2" d="M286,455.1h6v1l-6,1V455.1z"/>
</g>
<g id="layer11" transform="translate(-281.00023,-447)" inkscape:groupmode="layer" inkscape:label="apps">
</g>
<g id="layer13" transform="translate(-281.00023,-447)" inkscape:groupmode="layer" inkscape:label="places">
</g>
<g id="layer14" transform="translate(-281.00023,-447)" inkscape:groupmode="layer" inkscape:label="mimetypes">
</g>
<g id="layer15" transform="translate(-281.00023,-447)" inkscape:groupmode="layer" inkscape:label="emblems">
</g>
<g id="g71291" transform="translate(-281.00023,-447)" inkscape:groupmode="layer" inkscape:label="emotes">
</g>
<g id="g4953" transform="translate(-281.00023,-447)" inkscape:groupmode="layer" inkscape:label="categories">
</g>
<g id="layer12" transform="translate(-281.00023,-447)" inkscape:groupmode="layer" inkscape:label="actions">
</g>
<g class="st3">
	<rect x="11" y="13" class="st4" width="1" height="1"/>
</g>
<polygon class="st5" points="5,8 11,8 11,9 5,10 "/>
<g class="st3">
	<g>
		<path class="st4" d="M12,7c0.6,0,1,0.4,1,1v7H3V8c0-0.6,0.4-1,1-1H12 M12,6H4C2.9,6,2,6.9,2,8v8h12V8C14,6.9,13.1,6,12,6L12,6z"/>
	</g>
	<g>
		<polygon class="st4" points="11,11 5,11 5,12 11,12 11,11 		"/>
	</g>
	<path class="st4" d="M12.5,0H3.5C2,0,1,1.7,1.8,3L3,5h10l1.2-2C15,1.7,14,0,12.5,0z M13.3,2.5L12.4,4H3.6L2.7,2.5
		C2.6,2.3,2.5,2.2,2.5,2c0-0.2,0.1-0.4,0.1-0.5C2.8,1.3,3,1,3.5,1h8.9c0.5,0,0.8,0.3,0.9,0.5c0,0.1,0.1,0.3,0.1,0.5
		C13.5,2.2,13.4,2.3,13.3,2.5z"/>
	<path class="st5" d="M13.5,2c0,0.2,0,0.3-0.1,0.5L12.4,4H3.6L2.7,2.5C2.6,2.3,2.5,2.2,2.5,2c0-0.2,0.1-0.4,0.1-0.5
		C2.8,1.3,3,1,3.5,1h8.9c0.5,0,0.8,0.3,0.9,0.5C13.4,1.6,13.5,1.8,13.5,2z"/>
</g>
</svg>
