<?xml version="1.0" encoding="utf-8"?>
<!-- Generator: Adobe Illustrator 25.0.0, SVG Export Plug-In . SVG Version: 6.00 Build 0)  -->
<svg version="1.1"
	 id="svg7384" xmlns:cc="http://creativecommons.org/ns#" xmlns:dc="http://purl.org/dc/elements/1.1/" xmlns:inkscape="http://www.inkscape.org/namespaces/inkscape" xmlns:rdf="http://www.w3.org/1999/02/22-rdf-syntax-ns#" xmlns:sodipodi="http://sodipodi.sourceforge.net/DTD/sodipodi-0.dtd" xmlns:svg="http://www.w3.org/2000/svg"
	 xmlns="http://www.w3.org/2000/svg" xmlns:xlink="http://www.w3.org/1999/xlink" x="0px" y="0px" viewBox="0 0 16 16"
	 style="enable-background:new 0 0 16 16;" xml:space="preserve">
<style type="text/css">
	.st0{opacity:0.75;fill:#1F2022;enable-background:new    ;}
	.st1{opacity:0.35;fill:#1F2022;enable-background:new    ;}
</style>
<sodipodi:namedview  bordercolor="#666666" borderopacity="1" gridtolerance="10" guidetolerance="10" id="namedview88" inkscape:bbox-paths="false" inkscape:current-layer="layer10" inkscape:cx="107.05598" inkscape:cy="-159.55779" inkscape:guide-bbox="true" inkscape:object-nodes="false" inkscape:object-paths="false" inkscape:pageopacity="1" inkscape:pageshadow="2" inkscape:snap-bbox="true" inkscape:snap-bbox-midpoints="false" inkscape:snap-global="true" inkscape:snap-grids="true" inkscape:snap-nodes="true" inkscape:snap-others="false" inkscape:snap-to-guides="true" inkscape:window-height="1020" inkscape:window-maximized="0" inkscape:window-width="1598" inkscape:window-x="0" inkscape:window-y="26" inkscape:zoom="1" objecttolerance="10" pagecolor="#555753" showborder="false" showgrid="false" showguides="true">
	
		<inkscape:grid  empspacing="2" enabled="true" id="grid4866" snapvisiblegridlinesonly="true" spacingx="1px" spacingy="1px" type="xygrid" visible="true">
		</inkscape:grid>
</sodipodi:namedview>
<g id="layer9" transform="translate(-281.00023,-447)" inkscape:groupmode="layer" inkscape:label="status">
</g>
<g id="layer10" transform="translate(-281.00023,-447)" inkscape:groupmode="layer" inkscape:label="devices">
	<path id="rect4640-8" inkscape:connector-curvature="0" class="st0" d="M296,448.3c-0.1-0.3-0.3-0.6-0.5-0.8
		c-0.4-0.4-0.9-0.6-1.5-0.6h-10c-0.6,0-1.1,0.2-1.5,0.6c-0.2,0.2-0.4,0.4-0.5,0.8c-0.1,0.3-0.1,0.8,0.1,1.1l1,2
		c0.1,0.2,0.2,0.4,0.4,0.7c0.2-0.1,0.5-0.1,0.8-0.1h9.6c0.3,0,0.5,0,0.8,0.1c0.2-0.3,0.3-0.5,0.4-0.7l1-2
		C296.1,449.1,296.1,448.6,296,448.3z M285.1,451c0-0.1-0.1-0.2-0.2-0.4l-0.8-1.6h9.8l-0.8,1.6c-0.1,0.2-0.2,0.4-0.2,0.4H285.1z"/>
	<path id="rect4640" inkscape:connector-curvature="0" sodipodi:nodetypes="sssccsssscccccccccc" class="st0" d="M285,453
		c-0.5,0-0.9,0.1-1.3,0.4s-0.7,0.8-0.7,1.3v8.2h12v-8.2c0-0.6-0.3-1.1-0.7-1.3s-0.8-0.4-1.3-0.4H285z M285,454h8v6h-8V454z M292,461
		h1v1h-1V461z"/>
	<path class="st1" d="M293.9,449l-0.8,1.6c-0.1,0.2-0.2,0.4-0.2,0.4h-7.8c0-0.1-0.1-0.2-0.2-0.4l-0.8-1.6H293.9z"/>
	<rect id="rect5431" x="286" y="458" class="st0" width="6" height="1"/>
	<path id="rect5431-4" inkscape:connector-curvature="0" sodipodi:nodetypes="ccccc" class="st1" d="M286,455h6v1l-6,1V455z"/>
</g>
<g id="layer11" transform="translate(-281.00023,-447)" inkscape:groupmode="layer" inkscape:label="apps">
</g>
<g id="layer13" transform="translate(-281.00023,-447)" inkscape:groupmode="layer" inkscape:label="places">
</g>
<g id="layer14" transform="translate(-281.00023,-447)" inkscape:groupmode="layer" inkscape:label="mimetypes">
</g>
<g id="layer15" transform="translate(-281.00023,-447)" inkscape:groupmode="layer" inkscape:label="emblems">
</g>
<g id="g71291" transform="translate(-281.00023,-447)" inkscape:groupmode="layer" inkscape:label="emotes">
</g>
<g id="g4953" transform="translate(-281.00023,-447)" inkscape:groupmode="layer" inkscape:label="categories">
</g>
<g id="layer12" transform="translate(-281.00023,-447)" inkscape:groupmode="layer" inkscape:label="actions">
</g>
</svg>
