<?xml version="1.0" encoding="utf-8"?>
<!-- Generator: Adobe Illustrator 25.0.0, SVG Export Plug-In . SVG Version: 6.00 Build 0)  -->
<svg version="1.1"
	 id="svg7384" xmlns:cc="http://creativecommons.org/ns#" xmlns:dc="http://purl.org/dc/elements/1.1/" xmlns:inkscape="http://www.inkscape.org/namespaces/inkscape" xmlns:rdf="http://www.w3.org/1999/02/22-rdf-syntax-ns#" xmlns:sodipodi="http://sodipodi.sourceforge.net/DTD/sodipodi-0.dtd" xmlns:svg="http://www.w3.org/2000/svg"
	 xmlns="http://www.w3.org/2000/svg" xmlns:xlink="http://www.w3.org/1999/xlink" x="0px" y="0px" viewBox="0 0 16 16"
	 style="enable-background:new 0 0 16 16;" xml:space="preserve">
<style type="text/css">
	.st0{opacity:0.75;}
	.st1{fill:#1F2022;}
</style>
<sodipodi:namedview  bordercolor="#666666" borderopacity="1" gridtolerance="10" guidetolerance="10" id="namedview88" inkscape:bbox-nodes="false" inkscape:bbox-paths="true" inkscape:current-layer="layer10" inkscape:cx="11.559236" inkscape:cy="0.90569" inkscape:guide-bbox="true" inkscape:object-nodes="false" inkscape:object-paths="false" inkscape:pageopacity="1" inkscape:pageshadow="2" inkscape:snap-bbox="true" inkscape:snap-bbox-midpoints="false" inkscape:snap-global="true" inkscape:snap-grids="true" inkscape:snap-nodes="true" inkscape:snap-others="false" inkscape:snap-to-guides="true" inkscape:window-height="1375" inkscape:window-maximized="1" inkscape:window-width="2560" inkscape:window-x="0" inkscape:window-y="27" inkscape:zoom="11.313708" objecttolerance="10" pagecolor="#3a3b39" showborder="false" showgrid="false" showguides="true">
	
		<inkscape:grid  dotted="false" empspacing="2" enabled="true" id="grid4866" originx="0px" originy="330px" snapvisiblegridlinesonly="true" spacingx="1px" spacingy="1px" type="xygrid" visible="true">
		</inkscape:grid>
</sodipodi:namedview>
<g id="layer9" transform="translate(-241.0002,-547)" inkscape:groupmode="layer" inkscape:label="status">
</g>
<g id="layer10" transform="translate(-241.0002,-547)" inkscape:groupmode="layer" inkscape:label="devices" class="st0">
	<path id="path27207" inkscape:connector-curvature="0" sodipodi:nodetypes="ssssssssscccccccccc" class="st1" d="M244.6,550
		c-1.5,0-2.6,1-2.6,2.5v7.9c0,1.5,1.2,2.6,2.6,2.6h8.8c1.5,0,2.6-1.2,2.6-2.6v-7.9c0-1.5-1.2-2.5-2.6-2.5H244.6z M245.5,551h7
		c2,0.5,2,6.9,0,8h-7C243.2,557.4,243.9,551.9,245.5,551z M253,562h-1v-1h1V562z"/>
	<path id="path27232" sodipodi:cx="5" sodipodi:cy="331" sodipodi:rx="1" sodipodi:ry="1" sodipodi:type="arc" class="st1" d="
		M247,548c0,0.6-0.4,1-1,1s-1-0.4-1-1s0.4-1,1-1S247,547.4,247,548z"/>
	<path id="path27234" sodipodi:cx="5" sodipodi:cy="331" sodipodi:rx="1" sodipodi:ry="1" sodipodi:type="arc" class="st1" d="
		M253,548c0,0.6-0.4,1-1,1s-1-0.4-1-1s0.4-1,1-1S253,547.4,253,548z"/>
	<path id="path27236" inkscape:connector-curvature="0" class="st1" d="M246.3,547.7l-0.7,0.7l2.5,2.5l0.1,0.2h0.2h1.1h0.2l0.1-0.1
		l2.4-2.5l-0.7-0.7l-2.3,2.3h-0.7L246.3,547.7L246.3,547.7z"/>
</g>
<g id="layer11" transform="translate(-241.0002,-547)" inkscape:groupmode="layer" inkscape:label="apps">
</g>
<g id="layer13" transform="translate(-241.0002,-547)" inkscape:groupmode="layer" inkscape:label="places">
</g>
<g id="layer14" transform="translate(-241.0002,-547)" inkscape:groupmode="layer" inkscape:label="mimetypes">
</g>
<g id="layer15" transform="translate(-241.0002,-547)" inkscape:groupmode="layer" inkscape:label="emblems">
</g>
<g id="g71291" transform="translate(-241.0002,-547)" inkscape:groupmode="layer" inkscape:label="emotes">
</g>
<g id="g4953" transform="translate(-241.0002,-547)" inkscape:groupmode="layer" inkscape:label="categories">
</g>
<g id="layer12" transform="translate(-241.0002,-547)" inkscape:groupmode="layer" inkscape:label="actions">
</g>
</svg>
