<?xml version="1.0" encoding="utf-8"?>
<!-- Generator: Adobe Illustrator 25.0.0, SVG Export Plug-In . SVG Version: 6.00 Build 0)  -->
<svg version="1.1"
	 id="svg7384" xmlns:cc="http://creativecommons.org/ns#" xmlns:dc="http://purl.org/dc/elements/1.1/" xmlns:inkscape="http://www.inkscape.org/namespaces/inkscape" xmlns:osb="http://www.openswatchbook.org/uri/2009/osb" xmlns:rdf="http://www.w3.org/1999/02/22-rdf-syntax-ns#" xmlns:sodipodi="http://sodipodi.sourceforge.net/DTD/sodipodi-0.dtd" xmlns:svg="http://www.w3.org/2000/svg"
	 xmlns="http://www.w3.org/2000/svg" xmlns:xlink="http://www.w3.org/1999/xlink" x="0px" y="0px" viewBox="0 0 16 16"
	 style="enable-background:new 0 0 16 16;" xml:space="preserve">
<style type="text/css">
	.st0{opacity:0.75;}
	.st1{fill:#1F2022;}
</style>
<sodipodi:namedview  bordercolor="#666666" borderopacity="1" gridtolerance="10" guidetolerance="10" id="namedview88" inkscape:bbox-nodes="true" inkscape:bbox-paths="true" inkscape:current-layer="layer10" inkscape:cx="30.867139" inkscape:cy="-9.38963" inkscape:document-rotation="0" inkscape:document-units="px" inkscape:guide-bbox="true" inkscape:measure-end="0,0" inkscape:measure-start="0,0" inkscape:object-nodes="true" inkscape:object-paths="false" inkscape:pageopacity="1" inkscape:pageshadow="2" inkscape:snap-bbox="true" inkscape:snap-bbox-midpoints="false" inkscape:snap-global="true" inkscape:snap-grids="true" inkscape:snap-nodes="true" inkscape:snap-others="false" inkscape:snap-to-guides="true" inkscape:window-height="1376" inkscape:window-maximized="1" inkscape:window-width="3440" inkscape:window-x="0" inkscape:window-y="27" inkscape:zoom="1" objecttolerance="10" pagecolor="#3a3b39" showborder="false" showgrid="false" showguides="true">
	
		<inkscape:grid  dotted="false" empspacing="2" enabled="true" id="grid4866" originx="-40" originy="330" snapvisiblegridlinesonly="true" spacingx="1px" spacingy="1px" type="xygrid" visible="true">
		</inkscape:grid>
</sodipodi:namedview>
<g id="layer9" transform="translate(-281.0002,-547)" inkscape:groupmode="layer" inkscape:label="status">
</g>
<g id="layer10" transform="translate(-281.0002,-547)" inkscape:groupmode="layer" inkscape:label="devices" class="st0">
	<path id="path5559" inkscape:connector-curvature="0" sodipodi:nodetypes="ssssssssssssssssss" class="st1" d="M287,553
		c1.7,0,3,1.3,3,3v1c0,1.7-1.3,3-3,3h-3c-1.7,0-3-1.3-3-3v-1c0-1.7,1.3-3,3-3H287z M287,555h-3c-0.6,0-1,0.4-1,1v1c0,0.6,0.4,1,1,1
		h3c0.6,0,1-0.4,1-1v-1C288,555.4,287.6,555,287,555z"/>
	<path id="path5561" inkscape:connector-curvature="0" sodipodi:nodetypes="sscccs" class="st1" d="M285.5,561
		c-2.5,0-2.5,0.5-2.5,0.5c0,0.5,0.5,0.5,0.5,0.5h4c0.5,0,0.5-0.5,0.5-0.5S288,561,285.5,561z"/>
	<path id="path5565" inkscape:connector-curvature="0" sodipodi:nodetypes="ssssssssssssssssss" class="st1" d="M294,550.1
		c1.7,0,3,1.3,3,3v3.9c0,1.7-1.3,3-3,3h-3c-1.7,0-3-1.3-3-3v-3.9c0-1.7,1.3-3,3-3H294z M294,552.1h-3c-0.6,0-1,0.4-1,1v3.9
		c0,0.6,0.4,1,1,1h3c0.6,0,1-0.4,1-1v-3.9C295,552.5,294.6,552.1,294,552.1z"/>
	<path id="path5567" inkscape:connector-curvature="0" sodipodi:nodetypes="sscccs" class="st1" d="M292.5,561
		c-2.5,0-2.5,0.5-2.5,0.5c0,0.5,0.5,0.5,0.5,0.5h4c0.5,0,0.5-0.5,0.5-0.5S295,561,292.5,561z"/>
</g>
<g id="layer11" transform="translate(-281.0002,-547)" inkscape:groupmode="layer" inkscape:label="apps">
</g>
<g id="layer13" transform="translate(-281.0002,-547)" inkscape:groupmode="layer" inkscape:label="places">
</g>
<g id="layer14" transform="translate(-281.0002,-547)" inkscape:groupmode="layer" inkscape:label="mimetypes">
</g>
<g id="layer15" transform="translate(-281.0002,-547)" inkscape:groupmode="layer" inkscape:label="emblems">
</g>
<g id="g71291" transform="translate(-281.0002,-547)" inkscape:groupmode="layer" inkscape:label="emotes">
</g>
<g id="g4953" transform="translate(-281.0002,-547)" inkscape:groupmode="layer" inkscape:label="categories">
</g>
<g id="layer12" transform="translate(-281.0002,-547)" inkscape:groupmode="layer" inkscape:label="actions">
</g>
</svg>
