<?xml version="1.0" encoding="utf-8"?>
<!-- Generator: Adobe Illustrator 17.0.1, SVG Export Plug-In . SVG Version: 6.00 Build 0)  -->
<!DOCTYPE svg PUBLIC "-//W3C//DTD SVG 1.1//EN" "http://www.w3.org/Graphics/SVG/1.1/DTD/svg11.dtd" [
	<!ENTITY ns_flows "http://ns.adobe.com/Flows/1.0/">
	<!ENTITY ns_extend "http://ns.adobe.com/Extensibility/1.0/">
	<!ENTITY ns_ai "http://ns.adobe.com/AdobeIllustrator/10.0/">
	<!ENTITY ns_graphs "http://ns.adobe.com/Graphs/1.0/">
]>
<svg version="1.1" id="图层_1" xmlns:x="&ns_extend;" xmlns:i="&ns_ai;" xmlns:graph="&ns_graphs;"
	 xmlns="http://www.w3.org/2000/svg" xmlns:xlink="http://www.w3.org/1999/xlink" xmlns:a="http://ns.adobe.com/AdobeSVGViewerExtensions/3.0/"
	 x="0px" y="0px" width="21px" height="21px" viewBox="0 0 21 21" enable-background="new 0 0 21 21" xml:space="preserve">
<g>
	<g>
		<g>
			<path fill="#0D4E84" d="M15.425,9.53c-0.135,2.922-2.285,5.247-4.925,5.247S5.711,12.452,5.575,9.53H4.398
				c0.049,3.663,2.76,6.617,6.102,6.617s6.053-2.954,6.102-6.617H15.425z"/>
		</g>
	</g>
	<rect x="9.75" y="15.474" fill="#0D4E84" width="1.5" height="5"/>
	<rect x="5.5" y="19" fill="#0D4E84" width="10" height="2"/>
	<g>
		<g>
			<g>
				<path fill="#0D4E84" d="M7.25,8.933V11c0,1.1,0.9,2,2,2h2.5c1.1,0,2-0.9,2-2V8.933H7.25z"/>
				<path fill="#0D4E84" d="M13.75,7.933V2c0-1.1-0.9-2-2-2h-2.5c-1.1,0-2,0.9-2,2v5.933H13.75z M11.907,0.995
					c0.25,0,0.453,0.203,0.453,0.453c0,0.25-0.203,0.453-0.453,0.453s-0.453-0.203-0.453-0.453
					C11.454,1.198,11.657,0.995,11.907,0.995z M11.907,2.735c0.25,0,0.453,0.203,0.453,0.453s-0.203,0.453-0.453,0.453
					s-0.453-0.203-0.453-0.453S11.657,2.735,11.907,2.735z M11.907,4.474c0.25,0,0.453,0.203,0.453,0.453S12.157,5.38,11.907,5.38
					s-0.453-0.203-0.453-0.453S11.657,4.474,11.907,4.474z M11.907,6.214c0.25,0,0.453,0.203,0.453,0.453
					c0,0.25-0.203,0.453-0.453,0.453s-0.453-0.203-0.453-0.453C11.454,6.417,11.657,6.214,11.907,6.214z M10.47,0.995
					c0.25,0,0.453,0.203,0.453,0.453c0,0.25-0.203,0.453-0.453,0.453s-0.453-0.203-0.453-0.453
					C10.017,1.198,10.219,0.995,10.47,0.995z M10.47,2.735c0.25,0,0.453,0.203,0.453,0.453S10.72,3.641,10.47,3.641
					s-0.453-0.203-0.453-0.453S10.219,2.735,10.47,2.735z M10.47,4.474c0.25,0,0.453,0.203,0.453,0.453S10.72,5.38,10.47,5.38
					s-0.453-0.203-0.453-0.453S10.219,4.474,10.47,4.474z M10.47,6.214c0.25,0,0.453,0.203,0.453,0.453
					c0,0.25-0.203,0.453-0.453,0.453s-0.453-0.203-0.453-0.453C10.017,6.417,10.219,6.214,10.47,6.214z M9.032,0.995
					c0.25,0,0.453,0.203,0.453,0.453c0,0.25-0.203,0.453-0.453,0.453S8.579,1.698,8.579,1.448C8.579,1.198,8.782,0.995,9.032,0.995z
					 M9.032,2.735c0.25,0,0.453,0.203,0.453,0.453S9.282,3.641,9.032,3.641S8.579,3.438,8.579,3.188S8.782,2.735,9.032,2.735z
					 M9.032,4.474c0.25,0,0.453,0.203,0.453,0.453S9.282,5.38,9.032,5.38S8.579,5.178,8.579,4.927S8.782,4.474,9.032,4.474z
					 M9.032,6.214c0.25,0,0.453,0.203,0.453,0.453c0,0.25-0.203,0.453-0.453,0.453S8.579,6.917,8.579,6.667
					C8.579,6.417,8.782,6.214,9.032,6.214z"/>
			</g>
		</g>
	</g>
</g>
</svg>
