<?xml version="1.0" encoding="utf-8"?>
<!-- Generator: Adobe Illustrator 17.0.1, SVG Export Plug-In . SVG Version: 6.00 Build 0)  -->
<!DOCTYPE svg PUBLIC "-//W3C//DTD SVG 1.1//EN" "http://www.w3.org/Graphics/SVG/1.1/DTD/svg11.dtd" [
	<!ENTITY ns_flows "http://ns.adobe.com/Flows/1.0/">
	<!ENTITY ns_extend "http://ns.adobe.com/Extensibility/1.0/">
	<!ENTITY ns_ai "http://ns.adobe.com/AdobeIllustrator/10.0/">
	<!ENTITY ns_graphs "http://ns.adobe.com/Graphs/1.0/">
]>
<svg version="1.1" id="图层_1" xmlns:x="&ns_extend;" xmlns:i="&ns_ai;" xmlns:graph="&ns_graphs;"
	 xmlns="http://www.w3.org/2000/svg" xmlns:xlink="http://www.w3.org/1999/xlink" xmlns:a="http://ns.adobe.com/AdobeSVGViewerExtensions/3.0/"
	 x="0px" y="0px" width="21px" height="21px" viewBox="0 0 21 21" enable-background="new 0 0 21 21" xml:space="preserve">
<g>
	<path fill-rule="evenodd" clip-rule="evenodd" fill="#0D4E84" d="M17.979,9.702c-5.511,0-12.773,0-14.873,0
		C3.106,4.344,6.436,0,10.543,0S17.979,4.344,17.979,9.702z M10.543,1.626c-3.337,0-6.042,3.616-6.042,8.076
		c5.672,0,4.917,0,12.084,0C16.585,5.242,13.88,1.626,10.543,1.626z"/>
	<g>
		<rect x="3.446" y="9.929" fill-rule="evenodd" clip-rule="evenodd" fill="#0D4E84" width="1.055" height="6.363"/>
		<rect x="4.843" y="9.929" fill-rule="evenodd" clip-rule="evenodd" fill="#0D4E84" width="1.048" height="6.363"/>
		<path fill-rule="evenodd" clip-rule="evenodd" fill="#0D4E84" d="M3.548,16.292c-1.039,0-1.881-1.424-1.881-3.181
			s0.842-3.181,1.881-3.181S4.587,16.292,3.548,16.292z"/>
	</g>
	<g>
		<rect x="16.595" y="9.929" fill-rule="evenodd" clip-rule="evenodd" fill="#0D4E84" width="1.055" height="6.363"/>
		<rect x="15.205" y="9.929" fill-rule="evenodd" clip-rule="evenodd" fill="#0D4E84" width="1.048" height="6.363"/>
		<path fill-rule="evenodd" clip-rule="evenodd" fill="#0D4E84" d="M17.548,16.292c1.039,0,1.881-1.424,1.881-3.181
			s-0.842-3.181-1.881-3.181C16.509,9.929,16.509,16.292,17.548,16.292z"/>
	</g>
</g>
<path id="rect10302" fill="#0D4E84" d="M12.464,19.031h1.937c0.544,0,0.984,0.441,0.984,0.984v0c0,0.544-0.441,0.984-0.984,0.984
	h-1.937c-0.544,0-0.984-0.441-0.984-0.984v0C11.48,19.472,11.92,19.031,12.464,19.031z"/>
<path id="path10304" fill="#0D4E84" d="M17.688,14.409c-0.272,0.049-0.452,0.309-0.403,0.581c0.033,0.183,0.164,0.332,0.341,0.388
	l1.468,0.53l-0.031,1.75c-0.005,0.532-0.136,0.868-0.313,1.063C18.573,18.91,18.347,19,18.031,19h-4.156
	c-0.276-0.004-0.503,0.217-0.507,0.493c-0.004,0.276,0.217,0.503,0.493,0.507c0.005,0,0.009,0,0.014,0h4.156
	c0.548,0,1.093-0.21,1.469-0.625c0.376-0.415,0.556-1.009,0.563-1.719l0.031-2.1v-0.344l-0.313-0.125L18,14.431
	c-0.098-0.044-0.208-0.055-0.313-0.031L17.688,14.409z"/>
</svg>
