<?xml version="1.0" encoding="utf-8"?>
<!-- Generator: Adobe Illustrator 17.0.1, SVG Export Plug-In . SVG Version: 6.00 Build 0)  -->
<!DOCTYPE svg PUBLIC "-//W3C//DTD SVG 1.1//EN" "http://www.w3.org/Graphics/SVG/1.1/DTD/svg11.dtd" [
	<!ENTITY ns_flows "http://ns.adobe.com/Flows/1.0/">
	<!ENTITY ns_extend "http://ns.adobe.com/Extensibility/1.0/">
	<!ENTITY ns_ai "http://ns.adobe.com/AdobeIllustrator/10.0/">
	<!ENTITY ns_graphs "http://ns.adobe.com/Graphs/1.0/">
]>
<svg version="1.1" id="图层_1" xmlns:x="&ns_extend;" xmlns:i="&ns_ai;" xmlns:graph="&ns_graphs;"
	 xmlns="http://www.w3.org/2000/svg" xmlns:xlink="http://www.w3.org/1999/xlink" xmlns:a="http://ns.adobe.com/AdobeSVGViewerExtensions/3.0/"
	 x="0px" y="0px" width="21px" height="21px" viewBox="0 0 21 21" enable-background="new 0 0 21 21" xml:space="preserve">
<g>
	<path fill-rule="evenodd" clip-rule="evenodd" fill="#0D4E84" d="M8.356,16.5h4.287l1.356,4H7L8.356,16.5z"/>
	<path fill-rule="evenodd" clip-rule="evenodd" fill="#0D4E84" d="M3,19.5h15v1H3V19.5z"/>
	<path fill-rule="evenodd" clip-rule="evenodd" fill="#0D4E84" d="M2,0.5h17c1.105,0,2,0.895,2,2v12c0,1.104-0.895,2-2,2H2
		c-1.105,0-2-0.895-2-2v-12C0,1.395,0.896,0.5,2,0.5z M3,1.625h15c1.105,0,2,0.95,2,2.121v7.424c0,1.172-0.895,2.121-2,2.121H3
		c-1.105,0-2-0.95-2-2.121V3.746C1,2.575,1.895,1.625,3,1.625z M11.344,14.625c0-0.466-0.378-0.844-0.844-0.844l0,0
		c-0.466,0-0.844,0.378-0.844,0.844l0,0c0,0.466,0.378,0.844,0.844,0.844l0,0C10.966,15.469,11.344,15.091,11.344,14.625
		L11.344,14.625z"/>
</g>
</svg>
