<?xml version="1.0" encoding="utf-8"?>
<!-- Generator: Adobe Illustrator 14.0.0, SVG Export Plug-In . SVG Version: 6.00 Build 43363)  -->
<!DOCTYPE svg PUBLIC "-//W3C//DTD SVG 1.1//EN" "http://www.w3.org/Graphics/SVG/1.1/DTD/svg11.dtd">
<svg version="1.1"
	 id="svg2408" xmlns:dc="http://purl.org/dc/elements/1.1/" xmlns:svg="http://www.w3.org/2000/svg" xmlns:cc="http://creativecommons.org/ns#" xmlns:inkscape="http://www.inkscape.org/namespaces/inkscape" xmlns:rdf="http://www.w3.org/1999/02/22-rdf-syntax-ns#"
	 xmlns="http://www.w3.org/2000/svg" xmlns:xlink="http://www.w3.org/1999/xlink" x="0px" y="0px" width="96px" height="96px"
	 viewBox="0 0 96 96" enable-background="new 0 0 96 96" xml:space="preserve">
<g>
	<g>
		<linearGradient id="SVGID_1_" gradientUnits="userSpaceOnUse" x1="2" y1="48" x2="94" y2="48">
			<stop  offset="0" style="stop-color:#000000"/>
			<stop  offset="1" style="stop-color:#000000;stop-opacity:0.5882"/>
		</linearGradient>
		<path opacity="0.08" fill="url(#SVGID_1_)" enable-background="new    " d="M10.5,93C5.813,93,2,89.187,2,84.5v-73
			C2,6.813,5.813,3,10.5,3h75c4.145,0,7.786,3.007,8.5,7v74.5c0,4.687-3.813,8.5-8.5,8.5H10.5z"/>
		<linearGradient id="SVGID_2_" gradientUnits="userSpaceOnUse" x1="3" y1="48" x2="93" y2="48">
			<stop  offset="0" style="stop-color:#000000"/>
			<stop  offset="1" style="stop-color:#000000;stop-opacity:0.5882"/>
		</linearGradient>
		<path opacity="0.1" fill="url(#SVGID_2_)" enable-background="new    " d="M10.5,92C6.364,92,3,88.636,3,84.5v-73
			C3,7.364,6.364,4,10.5,4h75c3.968,0,7.242,3.097,7.5,7v73.5c0,4.136-3.364,7.5-7.5,7.5H10.5z"/>
		<linearGradient id="SVGID_3_" gradientUnits="userSpaceOnUse" x1="4" y1="48" x2="92" y2="48">
			<stop  offset="0" style="stop-color:#000000"/>
			<stop  offset="1" style="stop-color:#000000;stop-opacity:0.5882"/>
		</linearGradient>
		<path opacity="0.2" fill="url(#SVGID_3_)" enable-background="new    " d="M10.5,91C6.916,91,4,88.084,4,84.5v-73
			C4,7.916,6.916,5,10.5,5h75c3.584,0,6.5,2.916,6.5,6.5v73c0,3.584-2.916,6.5-6.5,6.5H10.5z"/>
		<linearGradient id="SVGID_4_" gradientUnits="userSpaceOnUse" x1="47.9995" y1="8" x2="47.9995" y2="90.4195">
			<stop  offset="0" style="stop-color:#000000"/>
			<stop  offset="1" style="stop-color:#000000;stop-opacity:0.5882"/>
		</linearGradient>
		<path opacity="0.45" fill="url(#SVGID_4_)" enable-background="new    " d="M90,12.5c0-2.484-2.016-4.5-4.5-4.5h-75
			C8.015,8,6,10.016,6,12.5v18V63v22.5c0,2.487,2.015,4.5,4.5,4.5h75c2.484,0,4.5-2.013,4.5-4.5V12.5z"/>
	</g>
	<g>
		<path fill="#3F5050" d="M90,84.5c0,2.487-2.016,4.5-4.5,4.5h-75C8.015,89,6,86.987,6,84.5v-57c0-2.484,2.015-4.5,4.5-4.5h75
			c2.484,0,4.5,2.016,4.5,4.5V84.5z"/>
	</g>
	<linearGradient id="SVGID_5_" gradientUnits="userSpaceOnUse" x1="48.0005" y1="84.5" x2="48.0005" y2="5.0005">
		<stop  offset="0" style="stop-color:#B6CCCC"/>
		<stop  offset="1" style="stop-color:#D7E0E0"/>
	</linearGradient>
	<path fill="url(#SVGID_5_)" d="M90,80c0,2.487-2.016,4.5-4.5,4.5h-75C8.015,84.5,6,82.487,6,80V9.5C6,7.016,8.015,5,10.5,5h75
		C87.984,5,90,7.016,90,9.5V80z"/>
	<linearGradient id="SVGID_6_" gradientUnits="userSpaceOnUse" x1="48.0005" y1="83" x2="48.0005" y2="6.5005">
		<stop  offset="0" style="stop-color:#A5BCBC"/>
		<stop  offset="1" style="stop-color:#BFCFCF"/>
	</linearGradient>
	<path fill="url(#SVGID_6_)" d="M10.5,83c-1.654,0-3-1.346-3-3V9.5c0-1.654,1.346-3,3-3h75c1.654,0,3,1.346,3,3V80
		c0,1.654-1.346,3-3,3H10.5z"/>
	<g opacity="0.2">
		<radialGradient id="SVGID_7_" cx="45.6665" cy="47" r="255.6421" gradientUnits="userSpaceOnUse">
			<stop  offset="0" style="stop-color:#FFFFFF"/>
			<stop  offset="1" style="stop-color:#FFFFFF;stop-opacity:0"/>
		</radialGradient>
		<polygon fill="url(#SVGID_7_)" points="22.984,83 32.59,83 88.5,27.091 88.5,17.485 		"/>
		<radialGradient id="SVGID_8_" cx="45.6665" cy="47" r="255.6422" gradientUnits="userSpaceOnUse">
			<stop  offset="0" style="stop-color:#FFFFFF"/>
			<stop  offset="1" style="stop-color:#FFFFFF;stop-opacity:0"/>
		</radialGradient>
		<polygon fill="url(#SVGID_8_)" points="43.738,6.5 7.5,42.738 7.5,52.344 53.344,6.5 		"/>
		<radialGradient id="SVGID_9_" cx="45.6665" cy="47" r="255.6426" gradientUnits="userSpaceOnUse">
			<stop  offset="0" style="stop-color:#FFFFFF"/>
			<stop  offset="1" style="stop-color:#FFFFFF;stop-opacity:0"/>
		</radialGradient>
		<polygon fill="url(#SVGID_9_)" points="62.32,6.5 7.5,61.32 7.5,70.926 71.926,6.5 		"/>
		<radialGradient id="SVGID_10_" cx="45.6665" cy="47" r="255.6421" gradientUnits="userSpaceOnUse">
			<stop  offset="0" style="stop-color:#FFFFFF"/>
			<stop  offset="1" style="stop-color:#FFFFFF;stop-opacity:0"/>
		</radialGradient>
		<polygon fill="url(#SVGID_10_)" points="51.173,83 88.5,45.674 88.5,36.068 41.566,83 		"/>
		<radialGradient id="SVGID_11_" cx="45.6665" cy="47" r="255.6421" gradientUnits="userSpaceOnUse">
			<stop  offset="0" style="stop-color:#FFFFFF"/>
			<stop  offset="1" style="stop-color:#FFFFFF;stop-opacity:0"/>
		</radialGradient>
		<polygon fill="url(#SVGID_11_)" points="69.755,83 88.5,64.255 88.5,54.65 60.149,83 		"/>
		<radialGradient id="SVGID_12_" cx="45.6665" cy="47" r="255.6421" gradientUnits="userSpaceOnUse">
			<stop  offset="0" style="stop-color:#FFFFFF"/>
			<stop  offset="1" style="stop-color:#FFFFFF;stop-opacity:0"/>
		</radialGradient>
		<path fill="url(#SVGID_12_)" d="M85.5,83c1.655,0,3-1.347,3-3v-6.769L78.731,83H85.5z"/>
		<radialGradient id="SVGID_13_" cx="45.6665" cy="47" r="255.6419" gradientUnits="userSpaceOnUse">
			<stop  offset="0" style="stop-color:#FFFFFF"/>
			<stop  offset="1" style="stop-color:#FFFFFF;stop-opacity:0"/>
		</radialGradient>
		<path fill="url(#SVGID_13_)" d="M10.5,83h3.508L88.361,8.647C87.991,7.41,86.855,6.5,85.5,6.5h-4.598L7.5,79.902V80
			C7.5,81.653,8.845,83,10.5,83z"/>
		<radialGradient id="SVGID_14_" cx="45.6665" cy="47" r="255.6419" gradientUnits="userSpaceOnUse">
			<stop  offset="0" style="stop-color:#FFFFFF"/>
			<stop  offset="1" style="stop-color:#FFFFFF;stop-opacity:0"/>
		</radialGradient>
		<path fill="url(#SVGID_14_)" d="M10.5,6.5c-1.654,0-3,1.346-3,3v5.576L16.076,6.5H10.5z"/>
		<radialGradient id="SVGID_15_" cx="45.6665" cy="47" r="255.6414" gradientUnits="userSpaceOnUse">
			<stop  offset="0" style="stop-color:#FFFFFF"/>
			<stop  offset="1" style="stop-color:#FFFFFF;stop-opacity:0"/>
		</radialGradient>
		<polygon fill="url(#SVGID_15_)" points="25.053,6.5 7.5,24.053 7.5,33.658 34.658,6.5 		"/>
	</g>
</g>
<g>
	<path opacity="0.3" fill="#FFFFFF" d="M32.568,80.411c-3.682,0-6.677-2.994-6.677-6.676v-6.19h-10.27
		c-2.916,0-5.288-2.371-5.288-5.286V14.315c0-2.916,2.372-5.288,5.288-5.288h62.923c2.915,0,5.287,2.372,5.287,5.288v47.944
		c0,2.915-2.372,5.286-5.287,5.286H68.276v6.19c0,3.682-2.995,6.676-6.677,6.676H32.568z"/>
	<path fill="#1A1A1A" d="M66.859,73.735c0,2.904-2.355,5.259-5.26,5.259H32.568c-2.905,0-5.259-2.354-5.259-5.259V53.333
		c0-2.905,2.354-5.26,5.259-5.26H61.6c2.904,0,5.26,2.354,5.26,5.26V73.735z"/>
	<linearGradient id="SVGID_16_" gradientUnits="userSpaceOnUse" x1="47.0845" y1="75.9941" x2="47.0845" y2="45.0737">
		<stop  offset="0" style="stop-color:#333333"/>
		<stop  offset="1" style="stop-color:#191919"/>
	</linearGradient>
	<path fill="url(#SVGID_16_)" d="M66.859,70.735c0,2.904-2.355,5.259-5.26,5.259H32.568c-2.905,0-5.259-2.354-5.259-5.259V50.333
		c0-2.905,2.354-5.26,5.259-5.26H61.6c2.904,0,5.26,2.354,5.26,5.26V70.735z"/>
	<linearGradient id="SVGID_17_" gradientUnits="userSpaceOnUse" x1="47.0845" y1="75.9941" x2="47.0845" y2="45.0737">
		<stop  offset="0" style="stop-color:#FFFFFF;stop-opacity:0"/>
		<stop  offset="1" style="stop-color:#FFFFFF"/>
	</linearGradient>
	<path opacity="0.2" fill="url(#SVGID_17_)" d="M66.859,70.735c0,2.904-2.355,5.259-5.26,5.259H32.568
		c-2.905,0-5.259-2.354-5.259-5.259V50.333c0-2.905,2.354-5.26,5.259-5.26H61.6c2.904,0,5.26,2.354,5.26,5.26V70.735z"/>
	<linearGradient id="SVGID_18_" gradientUnits="userSpaceOnUse" x1="47.0845" y1="75.9941" x2="47.0845" y2="45.0737">
		<stop  offset="0.2019" style="stop-color:#000000;stop-opacity:0"/>
		<stop  offset="0.396" style="stop-color:#000000"/>
	</linearGradient>
	<path opacity="0.7" fill="url(#SVGID_18_)" d="M66.859,70.735c0,2.904-2.355,5.259-5.26,5.259H32.568
		c-2.905,0-5.259-2.354-5.259-5.259V50.333c0-2.905,2.354-5.26,5.259-5.26H61.6c2.904,0,5.26,2.354,5.26,5.26V70.735z"/>
	<g>
		<linearGradient id="SVGID_19_" gradientUnits="userSpaceOnUse" x1="47.083" y1="10.4448" x2="47.083" y2="107.4005">
			<stop  offset="0" style="stop-color:#595959"/>
			<stop  offset="1" style="stop-color:#333333"/>
		</linearGradient>
		<path fill="url(#SVGID_19_)" d="M82.415,62.259c0,2.139-1.733,3.869-3.87,3.869H15.622c-2.137,0-3.87-1.73-3.87-3.869V14.315
			c0-2.137,1.733-3.87,3.87-3.87h62.923c2.137,0,3.87,1.733,3.87,3.87V62.259z"/>
		<linearGradient id="SVGID_20_" gradientUnits="userSpaceOnUse" x1="47.0835" y1="11.3047" x2="47.0835" y2="65.5448">
			<stop  offset="0" style="stop-color:#3C3C3C"/>
			<stop  offset="1" style="stop-color:#191919"/>
		</linearGradient>
		<path fill="url(#SVGID_20_)" d="M15.622,65.269c-1.66,0-3.01-1.351-3.01-3.01V14.315c0-1.66,1.35-3.01,3.01-3.01h62.923
			c1.66,0,3.011,1.351,3.011,3.01v47.944c0,1.659-1.351,3.01-3.011,3.01H15.622z"/>
		<path fill="#1A1A1A" d="M18.886,60.969c-1.559,0-2.834-1.275-2.834-2.835V17.58c0-1.559,1.275-2.834,2.834-2.834H74.42
			c1.56,0,2.835,1.275,2.835,2.834v40.554c0,1.56-1.275,2.835-2.835,2.835H18.886z"/>
		<path fill="#4D4D4D" d="M19.746,61.828c-1.559,0-2.834-1.275-2.834-2.835V18.439c0-1.559,1.275-2.834,2.834-2.834h55.605
			c1.56,0,2.835,1.275,2.835,2.834v40.554c0,1.56-1.275,2.835-2.835,2.835H19.746z"/>
		<g>
			<g>
				<linearGradient id="SVGID_21_" gradientUnits="userSpaceOnUse" x1="47.083" y1="15.605" x2="47.083" y2="61.201">
					<stop  offset="0" style="stop-color:#74D1FF"/>
					<stop  offset="1" style="stop-color:#19A1E6"/>
				</linearGradient>
				<path fill="url(#SVGID_21_)" d="M19.746,60.969c-1.559,0-2.834-1.275-2.834-2.835V18.439c0-1.559,1.275-2.834,2.834-2.834H74.42
					c1.56,0,2.835,1.275,2.835,2.834v39.694c0,1.56-1.275,2.835-2.835,2.835H19.746z"/>
			</g>
			<g>
				<linearGradient id="SVGID_22_" gradientUnits="userSpaceOnUse" x1="47.0835" y1="16.4648" x2="47.0835" y2="60.3319">
					<stop  offset="0" style="stop-color:#6DC4EF"/>
					<stop  offset="1" style="stop-color:#1793D1"/>
				</linearGradient>
				<path fill="url(#SVGID_22_)" d="M20.606,60.108c-1.559,0-2.834-1.275-2.834-2.835V19.299c0-1.559,1.275-2.834,2.834-2.834
					h52.955c1.56,0,2.835,1.275,2.835,2.834v37.974c0,1.56-1.275,2.835-2.835,2.835H20.606z"/>
			</g>
			
				<radialGradient id="SVGID_23_" cx="46.0835" cy="59.9531" r="25.8397" gradientTransform="matrix(1 0 0 0.5658 0 26.0328)" gradientUnits="userSpaceOnUse">
				<stop  offset="0" style="stop-color:#00FFFF"/>
				<stop  offset="1" style="stop-color:#00FFFF;stop-opacity:0"/>
			</radialGradient>
			<path fill="url(#SVGID_23_)" d="M20.606,60.108c-1.559,0-2.834-1.275-2.834-2.835V19.299c0-1.559,1.275-2.834,2.834-2.834h52.955
				c1.56,0,2.835,1.275,2.835,2.834v37.974c0,1.56-1.275,2.835-2.835,2.835H20.606z"/>
			
				<radialGradient id="SVGID_24_" cx="33.7505" cy="16.7866" r="35.7501" gradientTransform="matrix(1 0 0 0.5658 0 7.2891)" gradientUnits="userSpaceOnUse">
				<stop  offset="0" style="stop-color:#00FFFF"/>
				<stop  offset="1" style="stop-color:#00FFFF;stop-opacity:0"/>
			</radialGradient>
			<path opacity="0.65" fill="url(#SVGID_24_)" d="M20.606,60.108c-1.559,0-2.834-1.275-2.834-2.835V19.299
				c0-1.559,1.275-2.834,2.834-2.834h52.955c1.56,0,2.835,1.275,2.835,2.834v37.974c0,1.56-1.275,2.835-2.835,2.835H20.606z"/>
			<g>
				<defs>
					<path id="SVGID_25_" d="M19.746,60.969c-1.559,0-2.834-1.275-2.834-2.835V18.439c0-1.559,1.275-2.834,2.834-2.834H74.42
						c1.56,0,2.835,1.275,2.835,2.834v39.694c0,1.56-1.275,2.835-2.835,2.835H19.746z"/>
				</defs>
				<clipPath id="SVGID_26_">
					<use xlink:href="#SVGID_25_"  overflow="visible"/>
				</clipPath>
				<g id="path3698_1_" inkscape:connector-curvature="0" opacity="0.2" clip-path="url(#SVGID_26_)">
					
						<linearGradient id="SVGID_27_" gradientUnits="userSpaceOnUse" x1="8.5649" y1="3.6606" x2="50.3124" y2="57.6574" gradientTransform="matrix(0.9828 0.1849 -0.1849 0.9828 4.8086 -4.4126)">
						<stop  offset="0" style="stop-color:#FFFFFF"/>
						<stop  offset="1" style="stop-color:#FFFFFF;stop-opacity:0"/>
					</linearGradient>
					<path fill="url(#SVGID_27_)" d="M-21.594,66.332c-0.34-8.27-0.21-16.471,0.38-24.562c9.5,1.778,18.875,2.394,27.933,1.993
						c2.348,7.455,5.333,14.864,8.956,22.141C3.753,67.615-8.775,67.845-21.594,66.332L-21.594,66.332 M19.821,65.247
						c-3.954-7.093-7.26-14.345-9.914-21.668c8.004-0.569,15.742-1.932,23.103-3.983c4.665,6.02,10.039,11.764,16.09,17.106
						C39.939,60.544,30.125,63.45,19.821,65.247L19.821,65.247 M52.296,55.313C46.047,50.21,40.471,44.676,35.605,38.84
						c6.52-1.984,12.727-4.512,18.559-7.51c6.115,4.292,12.909,8.085,20.31,11.227C67.661,47.441,60.239,51.732,52.296,55.313
						L52.296,55.313 M76.855,40.81c-7.498-2.896-14.402-6.469-20.635-10.564c5.177-2.802,10.043-5.979,14.561-9.475
						c6.901,2.533,14.388,4.377,22.351,5.365C88.223,31.427,82.783,36.346,76.855,40.81L76.855,40.81 M-21.035,39.502
						c0.49-5.854,1.223-11.648,2.193-17.366c7.095,1.742,14.142,2.703,21.027,2.966c0.95,5.514,2.245,11.041,3.887,16.547
						C-2.729,41.957-11.825,41.287-21.035,39.502L-21.035,39.502 M9.173,41.499c-1.87-5.421-3.383-10.877-4.542-16.331
						c6.192,0.089,12.241-0.385,18.076-1.359c2.591,4.8,5.59,9.503,8.988,14.057C24.508,39.777,16.966,41.021,9.173,41.499
						L9.173,41.499 M34.231,37.161c-3.554-4.428-6.706-9.02-9.447-13.721c5.256-0.993,10.328-2.394,15.169-4.156
						c3.743,3.834,7.904,7.456,12.462,10.796C46.689,32.921,40.608,35.305,34.231,37.161L34.231,37.161 M54.439,29.048
						c-4.655-3.198-8.916-6.691-12.76-10.411c4.371-1.687,8.547-3.669,12.499-5.914c4.49,2.779,9.374,5.235,14.611,7.292
						C64.327,23.357,59.531,26.386,54.439,29.048L54.439,29.048 M-18.556,20.492c0.771-4.326,1.678-8.607,2.72-12.837
						c5.481,1.597,10.949,2.645,16.329,3.196c0.273,4.198,0.748,8.421,1.427,12.654C-4.79,23.201-11.651,22.223-18.556,20.492
						L-18.556,20.492 M4.305,23.585c-0.838-4.194-1.467-8.386-1.887-12.558c4.904,0.396,9.729,0.38,14.426-0.008
						c1.459,3.834,3.167,7.638,5.121,11.386C16.258,23.304,10.349,23.717,4.305,23.585L4.305,23.585 M23.994,22.063
						c-2.074-3.678-3.897-7.419-5.469-11.198c4.287-0.438,8.461-1.186,12.49-2.213c2.352,3.273,4.972,6.451,7.852,9.5
						C34.114,19.822,29.141,21.141,23.994,22.063L23.994,22.063 M40.561,17.538c-2.963-2.965-5.667-6.066-8.102-9.27
						c3.681-1.009,7.236-2.253,10.643-3.708c2.992,2.618,6.251,5.076,9.761,7.334C48.967,14.042,44.857,15.935,40.561,17.538
						L40.561,17.538 M-15.527,6.415c0.838-3.311,1.758-6.588,2.761-9.831c4.351,1.429,8.703,2.458,13.007,3.122
						C0.174,2.987,0.233,6.292,0.418,9.613C-4.838,9.045-10.176,7.995-15.527,6.415L-15.527,6.415 M2.3,9.797
						C2,6.492,1.829,3.2,1.789-0.071c3.964,0.533,7.884,0.756,11.724,0.696c0.81,3.095,1.779,6.185,2.906,9.257
						C11.819,10.229,7.097,10.213,2.3,9.797L2.3,9.797 M18.065,9.742c-1.219-3.032-2.276-6.087-3.171-9.151
						c3.541-0.118,7.01-0.477,10.384-1.055c1.504,2.761,3.186,5.479,5.042,8.137C26.364,8.646,22.268,9.345,18.065,9.742
						L18.065,9.742 M31.739,7.311c-1.925-2.605-3.675-5.275-5.246-7.993c3.115-0.586,6.146-1.36,9.075-2.306
						c2.035,2.342,4.252,4.602,6.646,6.759C38.857,5.166,35.359,6.353,31.739,7.311L31.739,7.311"/>
				</g>
			</g>
			<linearGradient id="SVGID_28_" gradientUnits="userSpaceOnUse" x1="38.147" y1="7.7393" x2="34.147" y2="66.7385">
				<stop  offset="0" style="stop-color:#FFFFFF"/>
				<stop  offset="1" style="stop-color:#FFFFFF;stop-opacity:0"/>
			</linearGradient>
			<path opacity="0.4" fill="url(#SVGID_28_)" d="M63,11.305H15.622c-1.66,0-3.01,1.351-3.01,3.01v47.944
				c0,1.659,1.35,3.01,3.01,3.01h25.383C37.168,26.477,63,11.305,63,11.305z"/>
		</g>
	</g>
	<g>
		<linearGradient id="SVGID_29_" gradientUnits="userSpaceOnUse" x1="60.1289" y1="67.1797" x2="60.1289" y2="74.4453">
			<stop  offset="0" style="stop-color:#000000"/>
			<stop  offset="1" style="stop-color:#808080"/>
		</linearGradient>
		<path fill="url(#SVGID_29_)" d="M60.129,74.212c-1.909,0-3.462-1.553-3.462-3.462s1.553-3.462,3.462-3.462
			s3.462,1.553,3.462,3.462S62.038,74.212,60.129,74.212L60.129,74.212z"/>
		
			<radialGradient id="SVGID_30_" cx="60.165" cy="68.75" r="3.75" gradientTransform="matrix(1.833002e-004 1 -1.1286 2.068652e-004 137.7425 8.5707)" gradientUnits="userSpaceOnUse">
			<stop  offset="0" style="stop-color:#B0FF04"/>
			<stop  offset="0.5636" style="stop-color:#5AC306"/>
			<stop  offset="0.7394" style="stop-color:#13A400"/>
		</radialGradient>
		<circle fill="url(#SVGID_30_)" cx="60.129" cy="70.75" r="2.285"/>
	</g>
</g>
</svg>
