<?xml version="1.0" encoding="utf-8"?>
<!-- Generator: Adobe Illustrator 17.0.1, SVG Export Plug-In . SVG Version: 6.00 Build 0)  -->
<!DOCTYPE svg PUBLIC "-//W3C//DTD SVG 1.1//EN" "http://www.w3.org/Graphics/SVG/1.1/DTD/svg11.dtd" [
	<!ENTITY ns_flows "http://ns.adobe.com/Flows/1.0/">
	<!ENTITY ns_extend "http://ns.adobe.com/Extensibility/1.0/">
	<!ENTITY ns_ai "http://ns.adobe.com/AdobeIllustrator/10.0/">
	<!ENTITY ns_graphs "http://ns.adobe.com/Graphs/1.0/">
]>
<svg version="1.1" id="图层_1" xmlns:x="&ns_extend;" xmlns:i="&ns_ai;" xmlns:graph="&ns_graphs;"
	 xmlns="http://www.w3.org/2000/svg" xmlns:xlink="http://www.w3.org/1999/xlink" xmlns:a="http://ns.adobe.com/AdobeSVGViewerExtensions/3.0/"
	 x="0px" y="0px" width="21px" height="21px" viewBox="0 0 21 21" enable-background="new 0 0 21 21" xml:space="preserve">
<g id="layer10" transform="translate(-200.97 -467)">
	<path id="path40815" fill="#0D4E84" d="M205.843,480.534c0,2.956,2.526,5.388,5.621,5.388c3.095,0,5.641-2.432,5.641-5.388h-2.216
		c0,1.815-1.524,3.271-3.425,3.271c-1.901,0-3.405-1.456-3.405-3.271H205.843z"/>
	<path id="path40817" fill="#0D4E84" d="M209.344,480.534c0,1.167,0.972,2.121,2.139,2.121c1.167,0,2.121-0.954,2.121-2.121h-1.061
		c0,0.593-0.468,1.061-1.061,1.061s-1.061-0.468-1.061-1.061H209.344z"/>
	<path id="rect40840" fill="#0D4E84" d="M205.56,469.078c-1.416,0-2.59,1.173-2.59,2.59v10.252c0,1.416,1.173,2.59,2.59,2.59v-2.125
		c-0.276,0-0.465-0.189-0.465-0.465v-1.66h12.75v1.66c0,0.276-0.189,0.465-0.465,0.465v2.125c1.416,0,2.59-1.173,2.59-2.59v-10.252
		c0-1.416-1.173-2.59-2.59-2.59H205.56z"/>
</g>
</svg>
