<?xml version="1.0" encoding="utf-8"?>
<!-- Generator: Adobe Illustrator 17.0.1, SVG Export Plug-In . SVG Version: 6.00 Build 0)  -->
<!DOCTYPE svg PUBLIC "-//W3C//DTD SVG 1.1//EN" "http://www.w3.org/Graphics/SVG/1.1/DTD/svg11.dtd" [
	<!ENTITY ns_flows "http://ns.adobe.com/Flows/1.0/">
	<!ENTITY ns_extend "http://ns.adobe.com/Extensibility/1.0/">
	<!ENTITY ns_ai "http://ns.adobe.com/AdobeIllustrator/10.0/">
	<!ENTITY ns_graphs "http://ns.adobe.com/Graphs/1.0/">
]>
<svg version="1.1" id="图层_1" xmlns:x="&ns_extend;" xmlns:i="&ns_ai;" xmlns:graph="&ns_graphs;"
	 xmlns="http://www.w3.org/2000/svg" xmlns:xlink="http://www.w3.org/1999/xlink" xmlns:a="http://ns.adobe.com/AdobeSVGViewerExtensions/3.0/"
	 x="0px" y="0px" width="21px" height="21px" viewBox="0 0 21 21" enable-background="new 0 0 21 21" xml:space="preserve">
<g id="layer10_1_" transform="translate(-200.97 -467)">
	<path id="rect40840_1_" fill="#0D4E84" d="M205.56,469.078c-1.416,0-2.59,1.173-2.59,2.59v10.252c0,1.416,1.173,2.59,2.59,2.59
		v-2.125c-0.276,0-0.465-0.189-0.465-0.465v-1.66h12.75v1.66c0,0.276-0.189,0.465-0.465,0.465v2.125c1.416,0,2.59-1.173,2.59-2.59
		v-10.252c0-1.416-1.173-2.59-2.59-2.59H205.56z"/>
	<path fill="#0D4E84" d="M217.449,484.51h-11.917v-2.12h11.917V484.51z M216.595,482.974c-0.311,0-0.563,0.097-0.563,0.216
		s0.252,0.216,0.563,0.216s0.563-0.097,0.563-0.216S216.906,482.974,216.595,482.974z M216.595,483.642
		c-0.311,0-0.563,0.097-0.563,0.216c0,0.119,0.252,0.216,0.563,0.216s0.563-0.097,0.563-0.216
		C217.158,483.738,216.906,483.642,216.595,483.642z"/>
</g>
</svg>
