<?xml version="1.0" encoding="utf-8"?>
<!-- Generator: Adobe Illustrator 17.0.1, SVG Export Plug-In . SVG Version: 6.00 Build 0)  -->
<!DOCTYPE svg PUBLIC "-//W3C//DTD SVG 1.1//EN" "http://www.w3.org/Graphics/SVG/1.1/DTD/svg11.dtd" [
	<!ENTITY ns_flows "http://ns.adobe.com/Flows/1.0/">
	<!ENTITY ns_extend "http://ns.adobe.com/Extensibility/1.0/">
	<!ENTITY ns_ai "http://ns.adobe.com/AdobeIllustrator/10.0/">
	<!ENTITY ns_graphs "http://ns.adobe.com/Graphs/1.0/">
]>
<svg version="1.1" id="图层_1" xmlns:x="&ns_extend;" xmlns:i="&ns_ai;" xmlns:graph="&ns_graphs;"
	 xmlns="http://www.w3.org/2000/svg" xmlns:xlink="http://www.w3.org/1999/xlink" xmlns:a="http://ns.adobe.com/AdobeSVGViewerExtensions/3.0/"
	 x="0px" y="0px" width="21px" height="21px" viewBox="0 0 21 21" enable-background="new 0 0 21 21" xml:space="preserve">
<g>
	<g>
		<path fill-rule="evenodd" clip-rule="evenodd" fill="#0D4E84" d="M19.161,19c0,1.1-0.9,2-2,2H3.839c-1.1,0-2-0.9-2-2V2
			c0-1.1,0.9-2,2-2h13.322c1.1,0,2,0.9,2,2V19z M15.246,2.382C14.467,1.605,12.93,0.97,11.83,0.97H5.16c-1.1,0-2,0.9-2,2v11.505
			c0,1.1,0.9,2,2,2h10.68c1.1,0,2-0.9,2-2V6.969c0-1.1-0.637-2.636-1.416-3.412L15.246,2.382z M15.381,17.333
			c-0.59,0-1.068,0.255-1.068,0.568c0,0.314,0.478,0.568,1.068,0.568c0.59,0,1.068-0.255,1.068-0.568
			C16.449,17.587,15.971,17.333,15.381,17.333z M15.381,18.938c-0.59,0-1.068,0.255-1.068,0.568c0,0.314,0.478,0.568,1.068,0.568
			c0.59,0,1.068-0.255,1.068-0.568C16.449,19.192,15.971,18.938,15.381,18.938z"/>
	</g>
	<path fill-rule="evenodd" clip-rule="evenodd" fill="#0D4E84" d="M11.866,14.813c-1.469,0.318-2.929,0.113-4.187-0.492
		c-0.081-0.039,2.827-1.811,2.343-2.311c-0.41-0.424-3.39,1.471-3.474,1.618c-1.187-0.904-2.07-2.22-2.411-3.792
		c-0.76-3.509,1.468-6.969,4.977-7.729s6.969,1.468,7.729,4.977C17.603,10.593,15.375,14.053,11.866,14.813z M11.019,10.903
		c-1.349,0.292-2.68-0.565-2.972-1.914C7.755,7.64,8.612,6.31,9.961,6.017c1.349-0.292,2.68,0.565,2.972,1.914
		S12.368,10.611,11.019,10.903z"/>
	<path fill-rule="evenodd" clip-rule="evenodd" fill="#0D4E84" d="M10.498,7.39c-0.598,0-1.083,0.485-1.083,1.083
		S9.9,9.557,10.498,9.557s1.083-0.485,1.083-1.083S11.096,7.39,10.498,7.39z M10.498,6.473c-1.105,0-2,0.895-2,2s0.895,2,2,2
		s2-0.895,2-2S11.603,6.473,10.498,6.473z"/>
</g>
</svg>
