<?xml version="1.0" encoding="utf-8"?>
<!-- Generator: Adobe Illustrator 17.0.1, SVG Export Plug-In . SVG Version: 6.00 Build 0)  -->
<!DOCTYPE svg PUBLIC "-//W3C//DTD SVG 1.1//EN" "http://www.w3.org/Graphics/SVG/1.1/DTD/svg11.dtd" [
	<!ENTITY ns_flows "http://ns.adobe.com/Flows/1.0/">
	<!ENTITY ns_extend "http://ns.adobe.com/Extensibility/1.0/">
	<!ENTITY ns_ai "http://ns.adobe.com/AdobeIllustrator/10.0/">
	<!ENTITY ns_graphs "http://ns.adobe.com/Graphs/1.0/">
]>
<svg version="1.1" id="图层_1" xmlns:x="&ns_extend;" xmlns:i="&ns_ai;" xmlns:graph="&ns_graphs;"
	 xmlns="http://www.w3.org/2000/svg" xmlns:xlink="http://www.w3.org/1999/xlink" xmlns:a="http://ns.adobe.com/AdobeSVGViewerExtensions/3.0/"
	 x="0px" y="0px" width="21px" height="21px" viewBox="0 0 21 21" enable-background="new 0 0 21 21" xml:space="preserve">
<g>
	<path fill-rule="evenodd" clip-rule="evenodd" fill="#0D4E84" d="M19.286,11.971c-6.516,0-15.102,0-17.584,0
		C1.702,5.636,5.638,0.5,10.494,0.5S19.286,5.636,19.286,11.971z M10.494,2.423c-3.945,0-7.143,4.275-7.143,9.548
		c6.706,0,5.813,0,14.287,0C17.637,6.697,14.439,2.423,10.494,2.423z"/>
	<g>
		<rect x="2.103" y="12.978" fill-rule="evenodd" clip-rule="evenodd" fill="#0D4E84" width="1.248" height="7.522"/>
		<rect x="3.755" y="12.978" fill-rule="evenodd" clip-rule="evenodd" fill="#0D4E84" width="1.24" height="7.522"/>
		<path fill-rule="evenodd" clip-rule="evenodd" fill="#0D4E84" d="M2.224,20.5C0.996,20.5,0,18.816,0,16.739
			s0.996-3.761,2.224-3.761S3.453,20.5,2.224,20.5z"/>
	</g>
	<g>
		<rect x="17.649" y="12.978" fill-rule="evenodd" clip-rule="evenodd" fill="#0D4E84" width="1.248" height="7.522"/>
		<rect x="16.006" y="12.978" fill-rule="evenodd" clip-rule="evenodd" fill="#0D4E84" width="1.24" height="7.522"/>
		<path fill-rule="evenodd" clip-rule="evenodd" fill="#0D4E84" d="M18.776,20.5c1.228,0,2.224-1.684,2.224-3.761
			s-0.996-3.761-2.224-3.761C17.547,12.978,17.547,20.5,18.776,20.5z"/>
	</g>
</g>
</svg>
