<?xml version="1.0" encoding="utf-8"?>
<!-- Generator: Adobe Illustrator 17.0.1, SVG Export Plug-In . SVG Version: 6.00 Build 0)  -->
<!DOCTYPE svg PUBLIC "-//W3C//DTD SVG 1.1//EN" "http://www.w3.org/Graphics/SVG/1.1/DTD/svg11.dtd" [
	<!ENTITY ns_flows "http://ns.adobe.com/Flows/1.0/">
	<!ENTITY ns_extend "http://ns.adobe.com/Extensibility/1.0/">
	<!ENTITY ns_ai "http://ns.adobe.com/AdobeIllustrator/10.0/">
	<!ENTITY ns_graphs "http://ns.adobe.com/Graphs/1.0/">
]>
<svg version="1.1" id="图层_1" xmlns:x="&ns_extend;" xmlns:i="&ns_ai;" xmlns:graph="&ns_graphs;"
	 xmlns="http://www.w3.org/2000/svg" xmlns:xlink="http://www.w3.org/1999/xlink" xmlns:a="http://ns.adobe.com/AdobeSVGViewerExtensions/3.0/"
	 x="0px" y="0px" width="21px" height="21px" viewBox="0 0 21 21" enable-background="new 0 0 21 21" xml:space="preserve">
<g>
	<g>
		<path fill="#0D4E84" d="M20,5H1C0.45,5,0,5.45,0,6v9c0,0.55,0.45,1,1,1h19c0.55,0,1-0.45,1-1V6C21,5.45,20.55,5,20,5z
			 M16.106,9.713v1.49c0,0.11-0.09,0.2-0.2,0.2h-1.49c-0.11,0-0.2-0.09-0.2-0.2v-1.49c0-0.11,0.09-0.2,0.2-0.2h1.49
			C16.016,9.513,16.106,9.603,16.106,9.713z M13.334,6.637c0-0.11,0.09-0.2,0.2-0.2h1.49c0.11,0,0.2,0.09,0.2,0.2v1.49
			c0,0.11-0.09,0.2-0.2,0.2h-1.49c-0.11,0-0.2-0.09-0.2-0.2V6.637z M13.086,9.713v1.49c0,0.11-0.09,0.2-0.2,0.2h-1.49
			c-0.11,0-0.2-0.09-0.2-0.2v-1.49c0-0.11,0.09-0.2,0.2-0.2h1.49C12.996,9.513,13.086,9.603,13.086,9.713z M10.279,6.637
			c0-0.11,0.09-0.2,0.2-0.2h1.49c0.11,0,0.2,0.09,0.2,0.2v1.49c0,0.11-0.09,0.2-0.2,0.2h-1.49c-0.11,0-0.2-0.09-0.2-0.2V6.637z
			 M10.067,9.713v1.49c0,0.11-0.09,0.2-0.2,0.2h-1.49c-0.11,0-0.2-0.09-0.2-0.2v-1.49c0-0.11,0.09-0.2,0.2-0.2h1.49
			C9.977,9.513,10.067,9.603,10.067,9.713z M7.223,6.637c0-0.11,0.09-0.2,0.2-0.2h1.49c0.11,0,0.2,0.09,0.2,0.2v1.49
			c0,0.11-0.09,0.2-0.2,0.2h-1.49c-0.11,0-0.2-0.09-0.2-0.2V6.637z M7.048,9.713v1.49c0,0.11-0.09,0.2-0.2,0.2h-1.49
			c-0.11,0-0.2-0.09-0.2-0.2v-1.49c0-0.11,0.09-0.2,0.2-0.2h1.49C6.958,9.513,7.048,9.603,7.048,9.713z M4.168,6.637
			c0-0.11,0.09-0.2,0.2-0.2h1.49c0.11,0,0.2,0.09,0.2,0.2v1.49c0,0.11-0.09,0.2-0.2,0.2h-1.49c-0.11,0-0.2-0.09-0.2-0.2V6.637z
			 M1.113,6.637c0-0.11,0.09-0.2,0.2-0.2h1.49c0.11,0,0.2,0.09,0.2,0.2v1.49c0,0.11-0.09,0.2-0.2,0.2h-1.49
			c-0.11,0-0.2-0.09-0.2-0.2V6.637z M3.045,14.279c0,0.11-0.09,0.2-0.2,0.2h-1.49c-0.11,0-0.2-0.09-0.2-0.2v-1.49
			c0-0.11,0.09-0.2,0.2-0.2h1.49c0.11,0,0.2,0.09,0.2,0.2V14.279z M4.028,11.204c0,0.11-0.09,0.2-0.2,0.2h-1.49
			c-0.11,0-0.2-0.09-0.2-0.2v-1.49c0-0.11,0.09-0.2,0.2-0.2h1.49c0.11,0,0.2,0.09,0.2,0.2V11.204z M17.126,14.189
			c0,0.11-0.09,0.2-0.2,0.2H4.337c-0.11,0-0.2-0.09-0.2-0.2v-1.309c0-0.11,0.09-0.2,0.2-0.2h12.588c0.11,0,0.2,0.09,0.2,0.2V14.189z
			 M17.235,11.204v-1.49c0-0.11,0.09-0.2,0.2-0.2h1.49c0.11,0,0.2,0.09,0.2,0.2v1.49c0,0.11-0.09,0.2-0.2,0.2h-1.49
			C17.325,11.404,17.235,11.313,17.235,11.204z M20.108,14.279c0,0.11-0.09,0.2-0.2,0.2h-1.49c-0.11,0-0.2-0.09-0.2-0.2v-1.49
			c0-0.11,0.09-0.2,0.2-0.2h1.49c0.11,0,0.2,0.09,0.2,0.2V14.279z M20.151,8.128c0,0.11-0.09,0.2-0.2,0.2h-3.361
			c-0.11,0-0.2-0.09-0.2-0.2v-1.49c0-0.11,0.09-0.2,0.2-0.2h3.361c0.11,0,0.2,0.09,0.2,0.2V8.128z"/>
	</g>
</g>
</svg>
