<?xml version="1.0" encoding="utf-8"?>
<!-- Generator: Adobe Illustrator 14.0.0, SVG Export Plug-In . SVG Version: 6.00 Build 43363)  -->
<!DOCTYPE svg PUBLIC "-//W3C//DTD SVG 1.1//EN" "http://www.w3.org/Graphics/SVG/1.1/DTD/svg11.dtd">
<svg version="1.1"
	 id="svg2408" xmlns:dc="http://purl.org/dc/elements/1.1/" xmlns:svg="http://www.w3.org/2000/svg" xmlns:cc="http://creativecommons.org/ns#" xmlns:inkscape="http://www.inkscape.org/namespaces/inkscape" xmlns:rdf="http://www.w3.org/1999/02/22-rdf-syntax-ns#"
	 xmlns="http://www.w3.org/2000/svg" xmlns:xlink="http://www.w3.org/1999/xlink" x="0px" y="0px" width="96px" height="96px"
	 viewBox="0 0 96 96" enable-background="new 0 0 96 96" xml:space="preserve">
<g>
	<linearGradient id="SVGID_1_" gradientUnits="userSpaceOnUse" x1="2" y1="48" x2="94" y2="48">
		<stop  offset="0" style="stop-color:#000000"/>
		<stop  offset="1" style="stop-color:#000000;stop-opacity:0.5882"/>
	</linearGradient>
	<path opacity="0.08" fill="url(#SVGID_1_)" enable-background="new    " d="M10.5,93C5.813,93,2,89.187,2,84.5v-73
		C2,6.813,5.813,3,10.5,3h75c4.145,0,7.786,3.007,8.5,7v74.5c0,4.687-3.813,8.5-8.5,8.5H10.5z"/>
	<linearGradient id="SVGID_2_" gradientUnits="userSpaceOnUse" x1="3" y1="48" x2="93" y2="48">
		<stop  offset="0" style="stop-color:#000000"/>
		<stop  offset="1" style="stop-color:#000000;stop-opacity:0.5882"/>
	</linearGradient>
	<path opacity="0.1" fill="url(#SVGID_2_)" enable-background="new    " d="M10.5,92C6.364,92,3,88.636,3,84.5v-73
		C3,7.364,6.364,4,10.5,4h75c3.968,0,7.242,3.097,7.5,7v73.5c0,4.136-3.364,7.5-7.5,7.5H10.5z"/>
	<linearGradient id="SVGID_3_" gradientUnits="userSpaceOnUse" x1="4" y1="48" x2="92" y2="48">
		<stop  offset="0" style="stop-color:#000000"/>
		<stop  offset="1" style="stop-color:#000000;stop-opacity:0.5882"/>
	</linearGradient>
	<path opacity="0.2" fill="url(#SVGID_3_)" enable-background="new    " d="M10.5,91C6.916,91,4,88.084,4,84.5v-73
		C4,7.916,6.916,5,10.5,5h75c3.584,0,6.5,2.916,6.5,6.5v73c0,3.584-2.916,6.5-6.5,6.5H10.5z"/>
	<linearGradient id="SVGID_4_" gradientUnits="userSpaceOnUse" x1="47.9995" y1="8" x2="47.9995" y2="90.4195">
		<stop  offset="0" style="stop-color:#000000"/>
		<stop  offset="1" style="stop-color:#000000;stop-opacity:0.5882"/>
	</linearGradient>
	<path opacity="0.45" fill="url(#SVGID_4_)" enable-background="new    " d="M90,12.5c0-2.484-2.016-4.5-4.5-4.5h-75
		C8.015,8,6,10.016,6,12.5v18V63v22.5c0,2.487,2.015,4.5,4.5,4.5h75c2.484,0,4.5-2.013,4.5-4.5V12.5z"/>
</g>
<g>
	<g>
		<g>
			<path fill="#666666" d="M90,84.5c0,2.487-2.016,4.5-4.5,4.5h-75C8.015,89,6,86.987,6,84.5v-57c0-2.484,2.015-4.5,4.5-4.5h75
				c2.484,0,4.5,2.016,4.5,4.5V84.5z"/>
		</g>
		<linearGradient id="SVGID_5_" gradientUnits="userSpaceOnUse" x1="48.0005" y1="84.5" x2="48.0005" y2="5.0005">
			<stop  offset="0" style="stop-color:#C6C6C6"/>
			<stop  offset="1" style="stop-color:#E7E7E7"/>
		</linearGradient>
		<path fill="url(#SVGID_5_)" d="M90,80c0,2.487-2.016,4.5-4.5,4.5h-75C8.015,84.5,6,82.487,6,80V9.5C6,7.016,8.015,5,10.5,5h75
			C87.984,5,90,7.016,90,9.5V80z"/>
		<linearGradient id="SVGID_6_" gradientUnits="userSpaceOnUse" x1="48.0005" y1="83" x2="48.0005" y2="6.5005">
			<stop  offset="0" style="stop-color:#B3B3B3"/>
			<stop  offset="1" style="stop-color:#D9D9D9"/>
		</linearGradient>
		<path fill="url(#SVGID_6_)" d="M10.5,83c-1.654,0-3-1.346-3-3V9.5c0-1.654,1.346-3,3-3h75c1.654,0,3,1.346,3,3V80
			c0,1.654-1.346,3-3,3H10.5z"/>
	</g>
	<path fill="#4D4D4D" d="M18,77.35c-2.426,0-4.4-1.974-4.4-4.399v-56.4c0-2.426,1.974-4.4,4.4-4.4h60c2.427,0,4.4,1.974,4.4,4.4
		v56.4c0,2.426-1.974,4.399-4.4,4.399H18z"/>
	<g>
		<path fill="#1A1A1A" d="M18,76.35c-1.875,0-3.4-1.525-3.4-3.399v-56.4c0-1.875,1.525-3.4,3.4-3.4h60c1.875,0,3.4,1.525,3.4,3.4
			v56.4c0,1.874-1.525,3.399-3.4,3.399H18z"/>
		<linearGradient id="SVGID_7_" gradientUnits="userSpaceOnUse" x1="49" y1="76.3496" x2="49" y2="15.1504">
			<stop  offset="0" style="stop-color:#333333"/>
			<stop  offset="1" style="stop-color:#595959"/>
		</linearGradient>
		<path fill="url(#SVGID_7_)" d="M19,76.35c-1.323,0-2.4-1.076-2.4-2.399v-56.4c0-1.323,1.077-2.4,2.4-2.4h60
			c1.323,0,2.4,1.077,2.4,2.4v56.4c0,1.323-1.077,2.399-2.4,2.399H19z"/>
		<g>
			<linearGradient id="SVGID_8_" gradientUnits="userSpaceOnUse" x1="48.0005" y1="75.3496" x2="48.0005" y2="14.1504">
				<stop  offset="0" style="stop-color:#1F1F1F"/>
				<stop  offset="1" style="stop-color:#454545"/>
			</linearGradient>
			<path fill="url(#SVGID_8_)" d="M18,75.35c-1.323,0-2.4-1.076-2.4-2.399v-56.4c0-1.323,1.077-2.4,2.4-2.4h60
				c1.323,0,2.4,1.077,2.4,2.4v56.4c0,1.323-1.077,2.399-2.4,2.399H18z"/>
			<path opacity="0.03" d="M18,74.35c-0.772,0-1.4-0.628-1.4-1.399v-56.4c0-0.772,0.628-1.4,1.4-1.4h60c0.772,0,1.4,0.628,1.4,1.4
				v56.4c0,0.771-0.628,1.399-1.4,1.399H18z"/>
			<linearGradient id="SVGID_9_" gradientUnits="userSpaceOnUse" x1="48.0005" y1="73.3496" x2="48.0005" y2="16.1504">
				<stop  offset="0" style="stop-color:#191919"/>
				<stop  offset="1" style="stop-color:#3C3C3C"/>
			</linearGradient>
			<path fill="url(#SVGID_9_)" d="M18,73.35c-0.221,0-0.4-0.179-0.4-0.399v-56.4c0-0.221,0.179-0.4,0.4-0.4h60
				c0.221,0,0.4,0.179,0.4,0.4v56.4c0,0.221-0.18,0.399-0.4,0.399H18z"/>
			<g>
				<defs>
					<path id="SVGID_10_" d="M18,75.35c-1.323,0-2.4-1.076-2.4-2.399v-56.4c0-1.323,1.077-2.4,2.4-2.4h60c1.323,0,2.4,1.077,2.4,2.4
						v56.4c0,1.323-1.077,2.399-2.4,2.399H18z"/>
				</defs>
				<clipPath id="SVGID_11_">
					<use xlink:href="#SVGID_10_"  overflow="visible"/>
				</clipPath>
				<g id="path3698_8_" inkscape:connector-curvature="0" opacity="0.2" clip-path="url(#SVGID_11_)">
					
						<linearGradient id="SVGID_12_" gradientUnits="userSpaceOnUse" x1="11.3838" y1="3.1304" x2="53.1313" y2="57.1272" gradientTransform="matrix(0.9828 0.1849 -0.1849 0.9828 4.8086 -4.4126)">
						<stop  offset="0" style="stop-color:#FFFFFF"/>
						<stop  offset="1" style="stop-color:#FFFFFF;stop-opacity:0"/>
					</linearGradient>
					<path fill="url(#SVGID_12_)" d="M-18.726,66.332c-0.34-8.27-0.211-16.471,0.38-24.562c9.5,1.778,18.874,2.394,27.933,1.993
						c2.348,7.455,5.334,14.864,8.956,22.141C6.622,67.615-5.907,67.845-18.726,66.332L-18.726,66.332 M22.688,65.247
						c-3.953-7.093-7.26-14.345-9.913-21.668c8.004-0.569,15.741-1.932,23.103-3.983c4.665,6.02,10.039,11.764,16.09,17.106
						C42.808,60.544,32.993,63.45,22.688,65.247L22.688,65.247 M55.164,55.313c-6.249-5.103-11.825-10.636-16.69-16.473
						c6.52-1.984,12.727-4.512,18.559-7.51c6.115,4.292,12.909,8.085,20.31,11.227C70.529,47.441,63.107,51.732,55.164,55.313
						L55.164,55.313 M79.724,40.81c-7.498-2.896-14.402-6.469-20.635-10.564c5.177-2.802,10.043-5.979,14.561-9.475
						c6.901,2.533,14.388,4.377,22.351,5.365C91.091,31.427,85.651,36.346,79.724,40.81L79.724,40.81 M-18.167,39.502
						c0.49-5.854,1.223-11.648,2.193-17.366c7.094,1.742,14.142,2.703,21.026,2.966c0.95,5.514,2.245,11.041,3.888,16.547
						C0.139,41.957-8.957,41.287-18.167,39.502L-18.167,39.502 M12.042,41.499c-1.87-5.421-3.384-10.877-4.542-16.331
						c6.192,0.089,12.241-0.385,18.075-1.359c2.592,4.8,5.59,9.503,8.988,14.057C27.376,39.777,19.834,41.021,12.042,41.499
						L12.042,41.499 M37.099,37.161c-3.553-4.428-6.705-9.02-9.447-13.721c5.256-0.993,10.328-2.394,15.17-4.156
						c3.743,3.834,7.904,7.456,12.462,10.796C49.558,32.921,43.477,35.305,37.099,37.161L37.099,37.161 M57.308,29.048
						c-4.655-3.198-8.916-6.691-12.76-10.411c4.371-1.687,8.547-3.669,12.499-5.914c4.49,2.779,9.374,5.235,14.611,7.292
						C67.195,23.357,62.399,26.386,57.308,29.048L57.308,29.048 M-15.688,20.492c0.771-4.326,1.679-8.607,2.721-12.837
						C-7.486,9.251-2.019,10.3,3.36,10.851c0.273,4.198,0.748,8.421,1.428,12.654C-1.922,23.201-8.783,22.223-15.688,20.492
						L-15.688,20.492 M7.173,23.585c-0.838-4.194-1.467-8.386-1.887-12.558c4.904,0.396,9.729,0.38,14.426-0.008
						c1.459,3.834,3.166,7.638,5.121,11.386C19.126,23.304,13.218,23.717,7.173,23.585L7.173,23.585 M26.862,22.063
						c-2.074-3.678-3.897-7.419-5.469-11.198c4.286-0.438,8.461-1.186,12.49-2.213c2.352,3.273,4.972,6.451,7.852,9.5
						C36.981,19.822,32.009,21.141,26.862,22.063L26.862,22.063 M43.429,17.538c-2.963-2.965-5.667-6.066-8.102-9.27
						c3.681-1.009,7.235-2.253,10.643-3.708c2.992,2.618,6.251,5.076,9.761,7.334C51.835,14.042,47.726,15.935,43.429,17.538
						L43.429,17.538 M-12.659,6.415c0.838-3.311,1.759-6.588,2.762-9.831c4.351,1.429,8.703,2.458,13.006,3.122
						C3.042,2.987,3.102,6.292,3.286,9.613C-1.97,9.045-7.308,7.995-12.659,6.415L-12.659,6.415 M5.169,9.797
						C4.868,6.492,4.697,3.2,4.657-0.071c3.964,0.533,7.883,0.756,11.724,0.696c0.81,3.095,1.778,6.185,2.906,9.257
						C14.688,10.229,9.966,10.213,5.169,9.797L5.169,9.797 M20.934,9.742c-1.219-3.032-2.276-6.087-3.171-9.151
						c3.54-0.118,7.01-0.477,10.384-1.055c1.505,2.761,3.187,5.479,5.042,8.137C29.231,8.646,25.136,9.345,20.934,9.742
						L20.934,9.742 M34.607,7.311c-1.925-2.605-3.675-5.275-5.246-7.993c3.114-0.586,6.146-1.36,9.075-2.306
						c2.035,2.342,4.252,4.602,6.646,6.759C41.726,5.166,38.228,6.353,34.607,7.311L34.607,7.311"/>
				</g>
			</g>
			<radialGradient id="SVGID_13_" cx="47.5" cy="75.584" r="31.5129" gradientUnits="userSpaceOnUse">
				<stop  offset="0" style="stop-color:#000000"/>
				<stop  offset="1" style="stop-color:#000000;stop-opacity:0"/>
			</radialGradient>
			<path opacity="0.65" fill="url(#SVGID_13_)" d="M18,75.35c-1.323,0-2.4-1.076-2.4-2.399v-56.4c0-1.323,1.077-2.4,2.4-2.4h60
				c1.323,0,2.4,1.077,2.4,2.4v56.4c0,1.323-1.077,2.399-2.4,2.399H18z"/>
			
				<radialGradient id="SVGID_14_" cx="32.667" cy="13.9175" r="31.5128" gradientTransform="matrix(1 0 0 0.9176 0 1.1462)" gradientUnits="userSpaceOnUse">
				<stop  offset="0" style="stop-color:#000000"/>
				<stop  offset="1" style="stop-color:#000000;stop-opacity:0"/>
			</radialGradient>
			<path opacity="0.65" fill="url(#SVGID_14_)" d="M18,75.35c-1.323,0-2.4-1.076-2.4-2.399v-56.4c0-1.323,1.077-2.4,2.4-2.4h60
				c1.323,0,2.4,1.077,2.4,2.4v56.4c0,1.323-1.077,2.399-2.4,2.399H18z"/>
			<path display="none" opacity="0.6" fill="#1793D1" d="M18,75.35c-1.323,0-2.4-1.076-2.4-2.399v-56.4c0-1.323,1.077-2.4,2.4-2.4h8
				v61.2H18z"/>
			<linearGradient id="SVGID_15_" gradientUnits="userSpaceOnUse" x1="15.6001" y1="70.4492" x2="80.4004" y2="70.4492">
				<stop  offset="0" style="stop-color:#333333"/>
				<stop  offset="1" style="stop-color:#595959"/>
			</linearGradient>
			<path fill="url(#SVGID_15_)" d="M15.6,65.398V73.1c0,1.322,1.077,2.399,2.4,2.399h60c1.323,0,2.4-1.077,2.4-2.399v-7.701H15.6z"
				/>
			<path opacity="0.2" d="M78,14.15H18c-1.323,0-2.4,1.077-2.4,2.4v1c0-1.323,1.077-2.4,2.4-2.4h60c1.323,0,2.4,1.077,2.4,2.4v-1
				C80.4,15.227,79.323,14.15,78,14.15z"/>
			<path opacity="0.2" d="M78,75.35H18c-1.323,0-2.4-1.076-2.4-2.4v-1c0,1.324,1.077,2.4,2.4,2.4h60c1.323,0,2.4-1.076,2.4-2.4v1
				C80.4,74.273,79.323,75.35,78,75.35z"/>
		</g>
	</g>
	<g id="layer6">
		<g id="g4111">
			<path id="path4056" opacity="0.25" enable-background="new    " d="M20.072,70.2c0,1.5,1.229,2.728,2.728,2.728H30
				c1.5,0,2.728-1.228,2.728-2.728V63c0-1.5-1.229-2.729-2.728-2.729h-7.2c-1.499,0-2.728,1.229-2.728,2.729V70.2z"/>
			<path id="rect4050" opacity="0.5" enable-background="new    " d="M21,70.2V63c0-0.994,0.806-1.8,1.8-1.8H30
				c0.994,0,1.8,0.806,1.8,1.8v7.2c0,0.994-0.806,1.8-1.8,1.8h-7.2C21.806,72,21,71.194,21,70.2z"/>
			
				<linearGradient id="rect4020_1_" gradientUnits="userSpaceOnUse" x1="-575.0996" y1="15.6001" x2="-564.2998" y2="15.6001" gradientTransform="matrix(0 -1 -1 0 42 -504)">
				<stop  offset="0" style="stop-color:#FF9800"/>
				<stop  offset="1" style="stop-color:#FF4600"/>
			</linearGradient>
			<path id="rect4020" fill="url(#rect4020_1_)" d="M21,69.3v-7.2c0-0.993,0.806-1.8,1.8-1.8H30c0.994,0,1.8,0.807,1.8,1.8v7.2
				c0,0.994-0.806,1.8-1.8,1.8h-7.2C21.806,71.1,21,70.294,21,69.3z"/>
			
				<linearGradient id="path4028_1_" gradientUnits="userSpaceOnUse" x1="32.3999" y1="-56.6997" x2="32.3999" y2="-68.4006" gradientTransform="matrix(1 0 0 -1 -6 0)">
				<stop  offset="0" style="stop-color:#FFFFFF"/>
				<stop  offset="1" style="stop-color:#FFFFFF;stop-opacity:0"/>
			</linearGradient>
			<path id="path4028" inkscape:connector-curvature="0" fill="url(#path4028_1_)" d="M22.8,60.3c-0.997,0-1.8,0.804-1.8,1.8v2.363
				c1.32,0.757,3.233,1.237,5.4,1.237s4.08-0.48,5.4-1.237V62.1c0-0.996-0.803-1.8-1.8-1.8H22.8z"/>
			<path id="path4109" opacity="0.15" enable-background="new    " d="M25.894,62.072c-0.388,0-0.731,0.339-0.731,0.73V63
				c-0.038,0.016-0.076,0.039-0.113,0.057l-0.141-0.141c-0.286-0.287-0.757-0.283-1.041,0l-0.703,0.703
				c-0.283,0.282-0.287,0.754,0,1.04l0.141,0.141c-0.018,0.037-0.041,0.075-0.056,0.112h-0.197c-0.392,0-0.731,0.343-0.731,0.731
				v1.013c0,0.389,0.339,0.731,0.731,0.731h0.197c0.016,0.038,0.039,0.075,0.056,0.112l-0.141,0.141
				c-0.287,0.286-0.283,0.758,0,1.041l0.703,0.703c0.283,0.282,0.754,0.285,1.041,0l0.141-0.141c0.037,0.018,0.075,0.04,0.113,0.056
				v0.197c0,0.392,0.343,0.731,0.731,0.731h1.013c0.389,0,0.731-0.34,0.731-0.731V69.3c0.038-0.016,0.075-0.038,0.112-0.056
				l0.141,0.141c0.287,0.286,0.758,0.282,1.041,0l0.703-0.703c0.283-0.283,0.287-0.755,0-1.041L29.494,67.5
				c0.018-0.037,0.041-0.074,0.056-0.112h0.197c0.392,0,0.731-0.343,0.731-0.731v-1.013c0-0.389-0.339-0.731-0.731-0.731H29.55
				c-0.016-0.037-0.039-0.075-0.056-0.112l0.141-0.141c0.093-0.093,0.223-0.283,0.225-0.506c0.002-0.239-0.07-0.38-0.225-0.534
				l-0.703-0.703c-0.283-0.283-0.754-0.286-1.041,0l-0.141,0.141c-0.037-0.018-0.075-0.041-0.112-0.057v-0.197
				c0-0.392-0.343-0.73-0.731-0.73H25.894z M26.4,65.531c0.336,0,0.619,0.283,0.619,0.619c0,0.335-0.283,0.618-0.619,0.618
				c-0.335,0-0.619-0.283-0.619-0.618C25.781,65.814,26.064,65.531,26.4,65.531z"/>
			<path id="path4105" inkscape:connector-curvature="0" opacity="0.3" enable-background="new    " d="M30,65.652
				c0-0.142-0.118-0.257-0.262-0.257h-0.507c-0.068-0.253-0.169-0.494-0.298-0.716l0.36-0.361c0.051-0.051,0.078-0.111,0.079-0.178
				c0-0.065-0.024-0.134-0.074-0.183l-0.707-0.707c-0.1-0.1-0.258-0.097-0.36,0.006l-0.361,0.36
				c-0.222-0.129-0.463-0.23-0.716-0.298v-0.508c0-0.144-0.116-0.262-0.257-0.262h-0.995c-0.141,0-0.256,0.118-0.256,0.262v0.508
				c-0.253,0.067-0.495,0.169-0.716,0.298l-0.361-0.36c-0.102-0.103-0.26-0.105-0.36-0.006l-0.707,0.707
				c-0.1,0.101-0.097,0.259,0.005,0.36l0.36,0.361c-0.128,0.222-0.23,0.463-0.298,0.716h-0.507c-0.144,0-0.262,0.115-0.262,0.257
				v0.995c0,0.142,0.118,0.257,0.262,0.257h0.507c0.068,0.253,0.17,0.495,0.298,0.716l-0.36,0.361
				c-0.102,0.103-0.105,0.261-0.005,0.36l0.707,0.707c0.1,0.1,0.258,0.097,0.36-0.006l0.361-0.36
				c0.221,0.129,0.463,0.23,0.716,0.299v0.507c0,0.144,0.115,0.262,0.256,0.262h0.995c0.141,0,0.256-0.118,0.256-0.262v-0.507
				c0.254-0.068,0.496-0.17,0.717-0.299l0.361,0.36c0.102,0.103,0.26,0.105,0.36,0.006l0.707-0.707c0.1-0.1,0.097-0.258-0.005-0.36
				l-0.36-0.361c0.128-0.221,0.23-0.463,0.298-0.716h0.507c0.144,0,0.262-0.115,0.262-0.257V65.652L30,65.652z M27.488,66.15
				c0,0.601-0.487,1.088-1.088,1.088s-1.088-0.487-1.088-1.088c0-0.602,0.487-1.089,1.088-1.089S27.488,65.549,27.488,66.15z"/>
			<path id="path5066" inkscape:connector-curvature="0" fill="#FFFFFF" d="M30,65.202c0-0.141-0.118-0.256-0.262-0.256h-0.507
				c-0.068-0.254-0.169-0.495-0.298-0.717l0.36-0.361c0.051-0.051,0.078-0.111,0.079-0.178c0-0.065-0.024-0.133-0.074-0.183
				l-0.707-0.706c-0.1-0.101-0.258-0.097-0.36,0.005l-0.361,0.36c-0.222-0.128-0.463-0.23-0.716-0.298v-0.507
				c0-0.145-0.116-0.263-0.257-0.263h-0.995c-0.141,0-0.256,0.118-0.256,0.263v0.507c-0.253,0.067-0.495,0.17-0.716,0.298
				l-0.361-0.36c-0.102-0.102-0.26-0.105-0.36-0.005l-0.707,0.706c-0.1,0.101-0.097,0.259,0.005,0.36l0.36,0.361
				c-0.128,0.222-0.23,0.463-0.298,0.718h-0.507c-0.144,0-0.262,0.114-0.262,0.255v0.995c0,0.142,0.118,0.257,0.262,0.257h0.507
				c0.068,0.253,0.17,0.495,0.298,0.717l-0.36,0.36c-0.102,0.103-0.105,0.261-0.005,0.36l0.707,0.707
				c0.1,0.101,0.258,0.097,0.36-0.005l0.361-0.36c0.221,0.128,0.463,0.229,0.716,0.298v0.507c0,0.145,0.115,0.262,0.256,0.262h0.995
				c0.141,0,0.256-0.117,0.256-0.262v-0.507c0.254-0.068,0.496-0.17,0.717-0.298l0.361,0.36c0.102,0.102,0.26,0.105,0.36,0.005
				l0.707-0.707c0.1-0.1,0.097-0.258-0.005-0.36l-0.36-0.36c0.128-0.222,0.23-0.464,0.298-0.717h0.507
				c0.144,0,0.262-0.115,0.262-0.257V65.202L30,65.202z M27.488,65.7c0,0.601-0.487,1.088-1.088,1.088s-1.088-0.487-1.088-1.088
				c0-0.602,0.487-1.088,1.088-1.088S27.488,65.099,27.488,65.7z"/>
		</g>
		<g id="g4120" transform="translate(16,0)">
			<path id="path4122" opacity="0.25" enable-background="new    " d="M18.472,70.2c0,1.5,1.229,2.728,2.729,2.728h7.2
				c1.499,0,2.728-1.228,2.728-2.728V63c0-1.5-1.229-2.729-2.728-2.729h-7.2c-1.5,0-2.729,1.229-2.729,2.729V70.2z"/>
			<path id="rect4124" opacity="0.5" enable-background="new    " d="M19.4,70.2V63c0-0.994,0.806-1.8,1.8-1.8h7.2
				c0.994,0,1.8,0.806,1.8,1.8v7.2c0,0.994-0.806,1.8-1.8,1.8h-7.2C20.206,72,19.4,71.194,19.4,70.2z"/>
			
				<linearGradient id="rect4126_1_" gradientUnits="userSpaceOnUse" x1="-591.0996" y1="17.2002" x2="-580.2998" y2="17.2002" gradientTransform="matrix(0 -1 -1 0 42 -520)">
				<stop  offset="0" style="stop-color:#008ECA"/>
				<stop  offset="1" style="stop-color:#35C3FF"/>
			</linearGradient>
			<path id="rect4126" fill="url(#rect4126_1_)" d="M19.4,69.3v-7.2c0-0.993,0.806-1.8,1.8-1.8h7.2c0.994,0,1.8,0.807,1.8,1.8v7.2
				c0,0.994-0.806,1.8-1.8,1.8h-7.2C20.206,71.1,19.4,70.294,19.4,69.3z"/>
			
				<linearGradient id="path4128_1_" gradientUnits="userSpaceOnUse" x1="14.8003" y1="-56.6997" x2="14.8003" y2="-68.4006" gradientTransform="matrix(1 0 0 -1 10 0)">
				<stop  offset="0" style="stop-color:#FFFFFF"/>
				<stop  offset="1" style="stop-color:#FFFFFF;stop-opacity:0"/>
			</linearGradient>
			<path id="path4128" inkscape:connector-curvature="0" fill="url(#path4128_1_)" d="M21.2,60.3c-0.997,0-1.8,0.804-1.8,1.8v2.363
				c1.32,0.757,3.233,1.237,5.4,1.237s4.08-0.48,5.4-1.237V62.1c0-0.996-0.804-1.8-1.8-1.8H21.2z"/>
			<path id="path4130" opacity="0.15" enable-background="new    " d="M24.294,62.072c-0.389,0-0.731,0.339-0.731,0.73V63
				c-0.037,0.016-0.076,0.039-0.112,0.057l-0.141-0.141c-0.286-0.287-0.758-0.283-1.041,0l-0.703,0.703
				c-0.283,0.282-0.286,0.754,0,1.04l0.141,0.141c-0.018,0.037-0.04,0.075-0.056,0.112h-0.197c-0.392,0-0.731,0.343-0.731,0.731
				v1.013c0,0.389,0.339,0.731,0.731,0.731h0.197c0.016,0.038,0.039,0.075,0.056,0.112l-0.141,0.141
				c-0.286,0.286-0.283,0.758,0,1.041l0.703,0.703c0.283,0.282,0.755,0.285,1.041,0l0.141-0.141c0.036,0.018,0.075,0.04,0.112,0.056
				v0.197c0,0.392,0.343,0.731,0.731,0.731h1.013c0.389,0,0.73-0.34,0.73-0.731V69.3c0.038-0.016,0.076-0.038,0.113-0.056
				l0.141,0.141c0.286,0.286,0.758,0.282,1.04,0l0.703-0.703c0.283-0.283,0.286-0.755,0-1.041L27.894,67.5
				c0.018-0.037,0.04-0.074,0.057-0.112h0.196c0.393,0,0.731-0.343,0.731-0.731v-1.013c0-0.389-0.339-0.731-0.731-0.731H27.95
				c-0.017-0.037-0.039-0.075-0.057-0.112l0.141-0.141c0.093-0.093,0.224-0.283,0.226-0.506c0.002-0.239-0.07-0.38-0.226-0.534
				l-0.703-0.703c-0.282-0.283-0.754-0.286-1.04,0l-0.141,0.141c-0.037-0.018-0.075-0.041-0.113-0.057v-0.197
				c0-0.392-0.342-0.73-0.73-0.73H24.294z M24.8,65.531c0.336,0,0.619,0.283,0.619,0.619c0,0.335-0.283,0.618-0.619,0.618
				c-0.335,0-0.618-0.283-0.618-0.618C24.182,65.814,24.465,65.531,24.8,65.531z"/>
			<path id="path4132" inkscape:connector-curvature="0" opacity="0.3" enable-background="new    " d="M28.4,65.652
				c0-0.142-0.118-0.257-0.262-0.257h-0.508c-0.067-0.253-0.17-0.494-0.298-0.716l0.36-0.361c0.051-0.051,0.078-0.111,0.079-0.178
				c0-0.065-0.024-0.134-0.073-0.183l-0.707-0.707c-0.101-0.1-0.259-0.097-0.36,0.006l-0.361,0.36
				c-0.222-0.129-0.464-0.23-0.716-0.298v-0.508c0-0.144-0.117-0.262-0.258-0.262h-0.994c-0.142,0-0.257,0.118-0.257,0.262v0.508
				c-0.253,0.067-0.495,0.169-0.716,0.298l-0.361-0.36c-0.103-0.103-0.261-0.105-0.361-0.006l-0.706,0.707
				c-0.1,0.101-0.097,0.259,0.005,0.36l0.36,0.361c-0.128,0.222-0.23,0.463-0.298,0.716h-0.507c-0.144,0-0.262,0.115-0.262,0.257
				v0.995c0,0.142,0.118,0.257,0.262,0.257h0.507c0.067,0.253,0.169,0.495,0.298,0.716l-0.36,0.361
				c-0.102,0.103-0.105,0.261-0.005,0.36l0.706,0.707c0.101,0.1,0.259,0.097,0.361-0.006l0.361-0.36
				c0.221,0.129,0.463,0.23,0.716,0.299v0.507c0,0.144,0.115,0.262,0.257,0.262h0.994c0.141,0,0.256-0.118,0.256-0.262v-0.507
				c0.254-0.068,0.496-0.17,0.718-0.299l0.361,0.36c0.102,0.103,0.26,0.105,0.36,0.006l0.707-0.707c0.1-0.1,0.096-0.258-0.006-0.36
				l-0.36-0.361c0.128-0.221,0.23-0.463,0.298-0.716h0.508c0.144,0,0.262-0.115,0.262-0.257V65.652L28.4,65.652z M25.889,66.15
				c0,0.601-0.487,1.088-1.089,1.088c-0.601,0-1.088-0.487-1.088-1.088c0-0.602,0.487-1.089,1.088-1.089
				C25.401,65.062,25.889,65.549,25.889,66.15z"/>
			<path id="path4134" inkscape:connector-curvature="0" fill="#FFFFFF" d="M28.4,65.202c0-0.141-0.118-0.256-0.262-0.256h-0.508
				c-0.067-0.254-0.17-0.495-0.298-0.717l0.36-0.361c0.051-0.051,0.078-0.111,0.079-0.178c0-0.065-0.024-0.133-0.073-0.183
				l-0.707-0.706c-0.101-0.101-0.259-0.097-0.36,0.005l-0.361,0.36c-0.222-0.128-0.464-0.23-0.716-0.298v-0.507
				c0-0.145-0.117-0.263-0.258-0.263h-0.994c-0.142,0-0.257,0.118-0.257,0.263v0.507c-0.253,0.067-0.495,0.17-0.716,0.298
				l-0.361-0.36c-0.103-0.102-0.261-0.105-0.361-0.005l-0.706,0.706c-0.1,0.101-0.097,0.259,0.005,0.36l0.36,0.361
				c-0.128,0.222-0.23,0.463-0.298,0.718h-0.507c-0.144,0-0.262,0.114-0.262,0.255v0.995c0,0.142,0.118,0.257,0.262,0.257h0.507
				c0.067,0.253,0.169,0.495,0.298,0.717l-0.36,0.36c-0.102,0.103-0.105,0.261-0.005,0.36l0.706,0.707
				c0.101,0.101,0.259,0.097,0.361-0.005l0.361-0.36c0.221,0.128,0.463,0.229,0.716,0.298v0.507c0,0.145,0.115,0.262,0.257,0.262
				h0.994c0.141,0,0.256-0.117,0.256-0.262v-0.507c0.254-0.068,0.496-0.17,0.718-0.298l0.361,0.36
				c0.102,0.102,0.26,0.105,0.36,0.005l0.707-0.707c0.1-0.1,0.096-0.258-0.006-0.36l-0.36-0.36c0.128-0.222,0.23-0.464,0.298-0.717
				h0.508c0.144,0,0.262-0.115,0.262-0.257V65.202L28.4,65.202z M25.889,65.7c0,0.601-0.487,1.088-1.089,1.088
				c-0.601,0-1.088-0.487-1.088-1.088c0-0.602,0.487-1.088,1.088-1.088C25.401,64.612,25.889,65.099,25.889,65.7z"/>
		</g>
		<g id="g4140" transform="translate(32,0)">
			<path id="path4142" opacity="0.25" enable-background="new    " d="M16.872,70.2c0,1.5,1.229,2.728,2.728,2.728h7.2
				c1.5,0,2.729-1.228,2.729-2.728V63c0-1.5-1.229-2.729-2.729-2.729h-7.2c-1.499,0-2.728,1.229-2.728,2.729V70.2z"/>
			<path id="rect4144" opacity="0.5" enable-background="new    " d="M17.8,70.2V63c0-0.994,0.806-1.8,1.8-1.8h7.2
				c0.994,0,1.8,0.806,1.8,1.8v7.2c0,0.994-0.806,1.8-1.8,1.8h-7.2C18.605,72,17.8,71.194,17.8,70.2z"/>
			
				<linearGradient id="rect4146_1_" gradientUnits="userSpaceOnUse" x1="-607.0996" y1="18.8003" x2="-594.4998" y2="18.8003" gradientTransform="matrix(0 -1 -1 0 42 -536)">
				<stop  offset="0" style="stop-color:#FFDB5B"/>
				<stop  offset="1" style="stop-color:#26A4BC"/>
			</linearGradient>
			<path id="rect4146" fill="url(#rect4146_1_)" d="M17.8,69.3v-7.2c0-0.993,0.806-1.8,1.8-1.8h7.2c0.994,0,1.8,0.807,1.8,1.8v7.2
				c0,0.994-0.806,1.8-1.8,1.8h-7.2C18.605,71.1,17.8,70.294,17.8,69.3z"/>
			
				<linearGradient id="path4148_1_" gradientUnits="userSpaceOnUse" x1="-2.8003" y1="-56.6997" x2="-2.8003" y2="-68.4006" gradientTransform="matrix(1 0 0 -1 26 0)">
				<stop  offset="0" style="stop-color:#FFFFFF"/>
				<stop  offset="1" style="stop-color:#FFFFFF;stop-opacity:0"/>
			</linearGradient>
			<path id="path4148" inkscape:connector-curvature="0" fill="url(#path4148_1_)" d="M19.6,60.3c-0.996,0-1.8,0.804-1.8,1.8v2.363
				c1.32,0.757,3.233,1.237,5.4,1.237c2.166,0,4.08-0.48,5.399-1.237V62.1c0-0.996-0.803-1.8-1.8-1.8H19.6z"/>
			<path id="path4150" opacity="0.15" enable-background="new    " d="M22.693,62.072c-0.388,0-0.73,0.339-0.73,0.73V63
				c-0.038,0.016-0.076,0.039-0.113,0.057l-0.141-0.141c-0.286-0.287-0.757-0.283-1.04,0l-0.703,0.703
				c-0.283,0.282-0.287,0.754,0,1.04l0.141,0.141c-0.018,0.037-0.041,0.075-0.057,0.112h-0.196c-0.393,0-0.731,0.343-0.731,0.731
				v1.013c0,0.389,0.339,0.731,0.731,0.731h0.196c0.016,0.038,0.039,0.075,0.057,0.112l-0.141,0.141
				c-0.287,0.286-0.283,0.758,0,1.041l0.703,0.703c0.283,0.282,0.754,0.285,1.04,0l0.141-0.141c0.037,0.018,0.075,0.04,0.113,0.056
				v0.197c0,0.392,0.343,0.731,0.73,0.731h1.013c0.389,0,0.731-0.34,0.731-0.731V69.3c0.038-0.016,0.075-0.038,0.112-0.056
				l0.141,0.141c0.287,0.286,0.758,0.282,1.041,0l0.703-0.703c0.283-0.283,0.286-0.755,0-1.041L26.294,67.5
				c0.018-0.037,0.04-0.074,0.056-0.112h0.197c0.392,0,0.731-0.343,0.731-0.731v-1.013c0-0.389-0.34-0.731-0.731-0.731H26.35
				c-0.016-0.037-0.038-0.075-0.056-0.112l0.141-0.141c0.093-0.093,0.223-0.283,0.225-0.506c0.002-0.239-0.07-0.38-0.225-0.534
				l-0.703-0.703c-0.283-0.283-0.754-0.286-1.041,0l-0.141,0.141c-0.037-0.018-0.074-0.041-0.112-0.057v-0.197
				c0-0.392-0.343-0.73-0.731-0.73H22.693z M23.2,65.531c0.336,0,0.618,0.283,0.618,0.619c0,0.335-0.282,0.618-0.618,0.618
				s-0.619-0.283-0.619-0.618C22.581,65.814,22.864,65.531,23.2,65.531z"/>
			<path id="path4152" inkscape:connector-curvature="0" opacity="0.3" enable-background="new    " d="M26.8,65.652
				c0-0.142-0.117-0.257-0.262-0.257h-0.507c-0.068-0.253-0.17-0.494-0.298-0.716l0.36-0.361c0.051-0.051,0.078-0.111,0.079-0.178
				c0-0.065-0.024-0.134-0.074-0.183l-0.707-0.707c-0.1-0.1-0.258-0.097-0.36,0.006l-0.361,0.36
				c-0.221-0.129-0.463-0.23-0.716-0.298v-0.508c0-0.144-0.116-0.262-0.257-0.262h-0.995c-0.142,0-0.256,0.118-0.256,0.262v0.508
				c-0.254,0.067-0.495,0.169-0.717,0.298l-0.361-0.36c-0.102-0.103-0.26-0.105-0.36-0.006l-0.706,0.707
				c-0.101,0.101-0.097,0.259,0.005,0.36l0.36,0.361c-0.128,0.222-0.23,0.463-0.298,0.716h-0.507c-0.145,0-0.263,0.115-0.263,0.257
				v0.995c0,0.142,0.118,0.257,0.263,0.257h0.507c0.067,0.253,0.17,0.495,0.298,0.716l-0.36,0.361
				c-0.102,0.103-0.105,0.261-0.005,0.36l0.706,0.707c0.101,0.1,0.259,0.097,0.36-0.006l0.361-0.36
				c0.222,0.129,0.463,0.23,0.717,0.299v0.507c0,0.144,0.114,0.262,0.256,0.262h0.995c0.141,0,0.256-0.118,0.256-0.262v-0.507
				c0.254-0.068,0.496-0.17,0.717-0.299l0.361,0.36c0.103,0.103,0.261,0.105,0.36,0.006l0.707-0.707
				c0.101-0.1,0.097-0.258-0.005-0.36l-0.36-0.361c0.128-0.221,0.229-0.463,0.298-0.716h0.507c0.145,0,0.262-0.115,0.262-0.257
				V65.652L26.8,65.652z M24.288,66.15c0,0.601-0.487,1.088-1.088,1.088c-0.602,0-1.088-0.487-1.088-1.088
				c0-0.602,0.486-1.089,1.088-1.089C23.801,65.062,24.288,65.549,24.288,66.15z"/>
			<path id="path4154" inkscape:connector-curvature="0" fill="#FFFFFF" d="M26.8,65.202c0-0.141-0.117-0.256-0.262-0.256h-0.507
				c-0.068-0.254-0.17-0.495-0.298-0.717l0.36-0.361c0.051-0.051,0.078-0.111,0.079-0.178c0-0.065-0.024-0.133-0.074-0.183
				l-0.707-0.706c-0.1-0.101-0.258-0.097-0.36,0.005l-0.361,0.36c-0.221-0.128-0.463-0.23-0.716-0.298v-0.507
				c0-0.145-0.116-0.263-0.257-0.263h-0.995c-0.142,0-0.256,0.118-0.256,0.263v0.507c-0.254,0.067-0.495,0.17-0.717,0.298
				l-0.361-0.36c-0.102-0.102-0.26-0.105-0.36-0.005l-0.706,0.706c-0.101,0.101-0.097,0.259,0.005,0.36l0.36,0.361
				c-0.128,0.222-0.23,0.463-0.298,0.718h-0.507c-0.145,0-0.263,0.114-0.263,0.255v0.995c0,0.142,0.118,0.257,0.263,0.257h0.507
				c0.067,0.253,0.17,0.495,0.298,0.717l-0.36,0.36c-0.102,0.103-0.105,0.261-0.005,0.36l0.706,0.707
				c0.101,0.101,0.259,0.097,0.36-0.005l0.361-0.36c0.222,0.128,0.463,0.229,0.717,0.298v0.507c0,0.145,0.114,0.262,0.256,0.262
				h0.995c0.141,0,0.256-0.117,0.256-0.262v-0.507c0.254-0.068,0.496-0.17,0.717-0.298l0.361,0.36
				c0.103,0.102,0.261,0.105,0.36,0.005l0.707-0.707c0.101-0.1,0.097-0.258-0.005-0.36l-0.36-0.36
				c0.128-0.222,0.229-0.464,0.298-0.717h0.507c0.145,0,0.262-0.115,0.262-0.257V65.202L26.8,65.202z M24.288,65.7
				c0,0.601-0.487,1.088-1.088,1.088c-0.602,0-1.088-0.487-1.088-1.088c0-0.602,0.486-1.088,1.088-1.088
				C23.801,64.612,24.288,65.099,24.288,65.7z"/>
		</g>
		<g id="g4160" transform="translate(48,0)">
			<path id="path4162" opacity="0.25" enable-background="new    " d="M15.271,70.2c0,1.5,1.229,2.728,2.729,2.728h7.2
				c1.499,0,2.728-1.228,2.728-2.728V63c0-1.5-1.229-2.729-2.728-2.729H18c-1.499,0-2.729,1.229-2.729,2.729V70.2z"/>
			<path id="rect4164" opacity="0.5" enable-background="new    " d="M16.2,70.2V63c0-0.994,0.806-1.8,1.8-1.8h7.2
				c0.994,0,1.8,0.806,1.8,1.8v7.2c0,0.994-0.806,1.8-1.8,1.8H18C17.006,72,16.2,71.194,16.2,70.2z"/>
			
				<linearGradient id="rect4166_1_" gradientUnits="userSpaceOnUse" x1="-623.0996" y1="20.3999" x2="-612.2998" y2="20.3999" gradientTransform="matrix(0 -1 -1 0 42 -552)">
				<stop  offset="0" style="stop-color:#A535C0"/>
				<stop  offset="1" style="stop-color:#732586"/>
			</linearGradient>
			<path id="rect4166" fill="url(#rect4166_1_)" d="M16.2,69.3v-7.2c0-0.993,0.806-1.8,1.8-1.8h7.2c0.994,0,1.8,0.807,1.8,1.8v7.2
				c0,0.994-0.806,1.8-1.8,1.8H18C17.006,71.1,16.2,70.294,16.2,69.3z"/>
			
				<linearGradient id="path4168_1_" gradientUnits="userSpaceOnUse" x1="-20.3999" y1="-56.6997" x2="-20.3999" y2="-68.4006" gradientTransform="matrix(1 0 0 -1 42 0)">
				<stop  offset="0" style="stop-color:#FFFFFF"/>
				<stop  offset="1" style="stop-color:#FFFFFF;stop-opacity:0"/>
			</linearGradient>
			<path id="path4168" inkscape:connector-curvature="0" fill="url(#path4168_1_)" d="M18,60.3c-0.997,0-1.8,0.804-1.8,1.8v2.363
				c1.32,0.757,3.233,1.237,5.399,1.237c2.167,0,4.08-0.48,5.4-1.237V62.1c0-0.996-0.804-1.8-1.8-1.8H18z"/>
			<path id="path4170" opacity="0.15" enable-background="new    " d="M21.094,62.072c-0.389,0-0.731,0.339-0.731,0.73V63
				c-0.038,0.016-0.075,0.039-0.112,0.057l-0.141-0.141c-0.286-0.287-0.758-0.283-1.041,0l-0.703,0.703
				c-0.282,0.282-0.286,0.754,0,1.04l0.141,0.141c-0.018,0.037-0.04,0.075-0.056,0.112h-0.197c-0.392,0-0.731,0.343-0.731,0.731
				v1.013c0,0.389,0.34,0.731,0.731,0.731h0.197c0.016,0.038,0.038,0.075,0.056,0.112l-0.141,0.141
				c-0.286,0.286-0.282,0.758,0,1.041l0.703,0.703c0.283,0.282,0.755,0.285,1.041,0l0.141-0.141c0.037,0.018,0.074,0.04,0.112,0.056
				v0.197c0,0.392,0.343,0.731,0.731,0.731h1.013c0.389,0,0.731-0.34,0.731-0.731V69.3c0.037-0.016,0.075-0.038,0.112-0.056
				l0.141,0.141c0.286,0.286,0.758,0.282,1.04,0l0.703-0.703c0.283-0.283,0.287-0.755,0-1.041L24.693,67.5
				c0.018-0.037,0.041-0.074,0.057-0.112h0.197c0.392,0,0.73-0.343,0.73-0.731v-1.013c0-0.389-0.339-0.731-0.73-0.731H24.75
				c-0.016-0.037-0.039-0.075-0.057-0.112l0.141-0.141c0.094-0.093,0.224-0.283,0.226-0.506c0.002-0.239-0.07-0.38-0.226-0.534
				l-0.703-0.703c-0.282-0.283-0.754-0.286-1.04,0l-0.141,0.141c-0.037-0.018-0.075-0.041-0.112-0.057v-0.197
				c0-0.392-0.343-0.73-0.731-0.73H21.094z M21.6,65.531c0.336,0,0.619,0.283,0.619,0.619c0,0.335-0.283,0.618-0.619,0.618
				c-0.335,0-0.618-0.283-0.618-0.618C20.981,65.814,21.265,65.531,21.6,65.531z"/>
			<path id="path4172" inkscape:connector-curvature="0" opacity="0.3" enable-background="new    " d="M25.2,65.652
				c0-0.142-0.118-0.257-0.262-0.257h-0.508c-0.067-0.253-0.169-0.494-0.298-0.716l0.36-0.361c0.051-0.051,0.078-0.111,0.079-0.178
				c0-0.065-0.023-0.134-0.073-0.183l-0.707-0.707c-0.101-0.1-0.259-0.097-0.36,0.006l-0.361,0.36
				c-0.222-0.129-0.463-0.23-0.716-0.298v-0.508c0-0.144-0.115-0.262-0.257-0.262h-0.995c-0.142,0-0.257,0.118-0.257,0.262v0.508
				c-0.253,0.067-0.495,0.169-0.716,0.298l-0.361-0.36c-0.103-0.103-0.261-0.105-0.36-0.006l-0.707,0.707
				c-0.1,0.101-0.097,0.259,0.006,0.36l0.36,0.361c-0.129,0.222-0.23,0.463-0.299,0.716h-0.507c-0.144,0-0.262,0.115-0.262,0.257
				v0.995c0,0.142,0.118,0.257,0.262,0.257h0.507c0.068,0.253,0.17,0.495,0.299,0.716l-0.36,0.361
				c-0.103,0.103-0.105,0.261-0.006,0.36l0.707,0.707c0.1,0.1,0.258,0.097,0.36-0.006l0.361-0.36
				c0.221,0.129,0.463,0.23,0.716,0.299v0.507c0,0.144,0.115,0.262,0.257,0.262h0.995c0.141,0,0.256-0.118,0.256-0.262v-0.507
				c0.254-0.068,0.495-0.17,0.717-0.299l0.361,0.36c0.102,0.103,0.26,0.105,0.36,0.006l0.707-0.707c0.1-0.1,0.097-0.258-0.006-0.36
				l-0.36-0.361c0.129-0.221,0.23-0.463,0.298-0.716h0.508c0.144,0,0.262-0.115,0.262-0.257V65.652L25.2,65.652z M22.688,66.15
				c0,0.601-0.487,1.088-1.089,1.088c-0.601,0-1.088-0.487-1.088-1.088c0-0.602,0.487-1.089,1.088-1.089
				C22.201,65.062,22.688,65.549,22.688,66.15z"/>
			<path id="path4174" inkscape:connector-curvature="0" fill="#FFFFFF" d="M25.2,65.202c0-0.141-0.118-0.256-0.262-0.256h-0.508
				c-0.067-0.254-0.169-0.495-0.298-0.717l0.36-0.361c0.051-0.051,0.078-0.111,0.079-0.178c0-0.065-0.023-0.133-0.073-0.183
				l-0.707-0.706c-0.101-0.101-0.259-0.097-0.36,0.005l-0.361,0.36c-0.222-0.128-0.463-0.23-0.716-0.298v-0.507
				c0-0.145-0.115-0.263-0.257-0.263h-0.995c-0.142,0-0.257,0.118-0.257,0.263v0.507c-0.253,0.067-0.495,0.17-0.716,0.298
				l-0.361-0.36c-0.103-0.102-0.261-0.105-0.36-0.005l-0.707,0.706c-0.1,0.101-0.097,0.259,0.006,0.36l0.36,0.361
				c-0.129,0.222-0.23,0.463-0.299,0.718h-0.507c-0.144,0-0.262,0.114-0.262,0.255v0.995c0,0.142,0.118,0.257,0.262,0.257h0.507
				c0.068,0.253,0.17,0.495,0.299,0.717l-0.36,0.36c-0.103,0.103-0.105,0.261-0.006,0.36l0.707,0.707
				c0.1,0.101,0.258,0.097,0.36-0.005l0.361-0.36c0.221,0.128,0.463,0.229,0.716,0.298v0.507c0,0.145,0.115,0.262,0.257,0.262h0.995
				c0.141,0,0.256-0.117,0.256-0.262v-0.507c0.254-0.068,0.495-0.17,0.717-0.298l0.361,0.36c0.102,0.102,0.26,0.105,0.36,0.005
				l0.707-0.707c0.1-0.1,0.097-0.258-0.006-0.36l-0.36-0.36c0.129-0.222,0.23-0.464,0.298-0.717h0.508
				c0.144,0,0.262-0.115,0.262-0.257V65.202L25.2,65.202z M22.688,65.7c0,0.601-0.487,1.088-1.089,1.088
				c-0.601,0-1.088-0.487-1.088-1.088c0-0.602,0.487-1.088,1.088-1.088C22.201,64.612,22.688,65.099,22.688,65.7z"/>
		</g>
		<g id="g4198" transform="translate(0,-48)">
			<path id="path4200_2_" opacity="0.25" enable-background="new    " d="M20.072,75c0,1.5,1.229,2.728,2.728,2.728H30
				c1.5,0,2.728-1.228,2.728-2.728v-7.2c0-1.5-1.229-2.728-2.728-2.728h-7.2c-1.499,0-2.728,1.228-2.728,2.728V75z"/>
			<path id="rect4202" opacity="0.5" enable-background="new    " d="M21,75v-7.2c0-0.994,0.806-1.8,1.8-1.8H30
				c0.994,0,1.8,0.806,1.8,1.8V75c0,0.994-0.806,1.8-1.8,1.8h-7.2C21.806,76.8,21,75.994,21,75z"/>
			
				<linearGradient id="rect4204_1_" gradientUnits="userSpaceOnUse" x1="-579.8999" y1="63.6001" x2="-569.1001" y2="63.6001" gradientTransform="matrix(0 -1 -1 0 90 -504)">
				<stop  offset="0" style="stop-color:#CCCCCC"/>
				<stop  offset="1" style="stop-color:#1A1A1A"/>
			</linearGradient>
			<path id="rect4204" fill="url(#rect4204_1_)" d="M21,74.1v-7.2c0-0.994,0.806-1.8,1.8-1.8H30c0.994,0,1.8,0.806,1.8,1.8v7.2
				c0,0.994-0.806,1.8-1.8,1.8h-7.2C21.806,75.9,21,75.094,21,74.1z"/>
			
				<linearGradient id="path4206_1_" gradientUnits="userSpaceOnUse" x1="32.3999" y1="-13.5" x2="32.3999" y2="-25.1998" gradientTransform="matrix(1 0 0 -1 -6 48)">
				<stop  offset="0" style="stop-color:#FFFFFF"/>
				<stop  offset="1" style="stop-color:#FFFFFF;stop-opacity:0"/>
			</linearGradient>
			<path id="path4206" inkscape:connector-curvature="0" fill="url(#path4206_1_)" d="M22.8,65.1c-0.997,0-1.8,0.803-1.8,1.8v2.363
				c1.32,0.757,3.233,1.237,5.4,1.237s4.08-0.48,5.4-1.237V66.9c0-0.997-0.803-1.8-1.8-1.8H22.8z"/>
			<path id="path4208" opacity="0.15" enable-background="new    " d="M25.894,66.872c-0.388,0-0.731,0.339-0.731,0.731V67.8
				c-0.038,0.017-0.076,0.039-0.113,0.057l-0.141-0.141c-0.286-0.286-0.757-0.284-1.041,0l-0.703,0.703
				c-0.283,0.283-0.287,0.754,0,1.041l0.141,0.141c-0.018,0.037-0.041,0.075-0.056,0.112h-0.197c-0.392,0-0.731,0.343-0.731,0.731
				v1.012c0,0.389,0.339,0.731,0.731,0.731h0.197c0.016,0.038,0.039,0.076,0.056,0.112l-0.141,0.141
				c-0.287,0.286-0.283,0.757,0,1.041l0.703,0.703c0.283,0.283,0.754,0.286,1.041,0l0.141-0.141c0.037,0.018,0.075,0.04,0.113,0.056
				v0.197c0,0.393,0.343,0.731,0.731,0.731h1.013c0.389,0,0.731-0.339,0.731-0.731V74.1c0.038-0.016,0.075-0.039,0.112-0.056
				l0.141,0.141c0.287,0.286,0.758,0.283,1.041,0l0.703-0.703c0.283-0.284,0.287-0.755,0-1.041L29.494,72.3
				c0.018-0.036,0.041-0.075,0.056-0.112h0.197c0.392,0,0.731-0.343,0.731-0.731v-1.012c0-0.389-0.339-0.731-0.731-0.731H29.55
				c-0.016-0.038-0.039-0.076-0.056-0.112l0.141-0.141c0.093-0.093,0.223-0.283,0.225-0.506c0.002-0.239-0.07-0.38-0.225-0.534
				l-0.703-0.703c-0.283-0.284-0.754-0.286-1.041,0l-0.141,0.141c-0.037-0.018-0.075-0.04-0.112-0.057v-0.197
				c0-0.392-0.343-0.731-0.731-0.731H25.894z M26.4,70.331c0.336,0,0.619,0.283,0.619,0.619c0,0.335-0.283,0.619-0.619,0.619
				c-0.335,0-0.619-0.283-0.619-0.619C25.781,70.614,26.064,70.331,26.4,70.331z"/>
			<path id="path4210" inkscape:connector-curvature="0" opacity="0.3" enable-background="new    " d="M30,70.453
				c0-0.142-0.118-0.257-0.262-0.257h-0.507c-0.068-0.253-0.169-0.495-0.298-0.717l0.36-0.361c0.051-0.051,0.078-0.111,0.079-0.177
				c0-0.066-0.024-0.133-0.074-0.183l-0.707-0.707c-0.1-0.1-0.258-0.097-0.36,0.005l-0.361,0.361
				c-0.222-0.129-0.463-0.231-0.716-0.298v-0.508c0-0.144-0.116-0.261-0.257-0.261h-0.995c-0.141,0-0.256,0.117-0.256,0.261v0.508
				c-0.253,0.067-0.495,0.169-0.716,0.298l-0.361-0.361c-0.102-0.102-0.26-0.105-0.36-0.005l-0.707,0.707
				c-0.1,0.1-0.097,0.259,0.005,0.36l0.36,0.361c-0.128,0.222-0.23,0.464-0.298,0.717h-0.507c-0.144,0-0.262,0.115-0.262,0.257
				v0.994c0,0.142,0.118,0.256,0.262,0.256h0.507c0.068,0.253,0.17,0.495,0.298,0.717l-0.36,0.361
				c-0.102,0.102-0.105,0.261-0.005,0.361l0.707,0.706c0.1,0.1,0.258,0.097,0.36-0.005l0.361-0.361
				c0.221,0.129,0.463,0.231,0.716,0.298v0.508c0,0.144,0.115,0.261,0.256,0.261h0.995c0.141,0,0.256-0.118,0.256-0.261v-0.508
				c0.254-0.067,0.496-0.169,0.717-0.298l0.361,0.361c0.102,0.102,0.26,0.105,0.36,0.005l0.707-0.706
				c0.1-0.1,0.097-0.259-0.005-0.361l-0.36-0.361c0.128-0.222,0.23-0.463,0.298-0.717h0.507c0.144,0,0.262-0.115,0.262-0.256V70.453
				L30,70.453z M27.488,70.95c0,0.601-0.487,1.088-1.088,1.088s-1.088-0.487-1.088-1.088c0-0.601,0.487-1.089,1.088-1.089
				S27.488,70.349,27.488,70.95z"/>
			<path id="path4212" inkscape:connector-curvature="0" fill="#ECECEC" d="M30,70.003c0-0.142-0.118-0.256-0.262-0.256h-0.507
				c-0.068-0.253-0.169-0.496-0.298-0.717l0.36-0.361c0.051-0.051,0.078-0.112,0.079-0.178c0-0.066-0.024-0.133-0.074-0.183
				l-0.707-0.706c-0.1-0.101-0.258-0.097-0.36,0.005l-0.361,0.361c-0.222-0.128-0.463-0.23-0.716-0.298v-0.507
				c0-0.144-0.116-0.262-0.257-0.262h-0.995c-0.141,0-0.256,0.118-0.256,0.262v0.507c-0.253,0.068-0.495,0.17-0.716,0.298
				l-0.361-0.361c-0.102-0.102-0.26-0.105-0.36-0.005l-0.707,0.706c-0.1,0.1-0.097,0.259,0.005,0.361l0.36,0.361
				c-0.128,0.221-0.23,0.463-0.298,0.717h-0.507c-0.144,0-0.262,0.114-0.262,0.256v0.994c0,0.142,0.118,0.257,0.262,0.257h0.507
				c0.068,0.253,0.17,0.495,0.298,0.716l-0.36,0.361c-0.102,0.102-0.105,0.261-0.005,0.361l0.707,0.706
				c0.1,0.101,0.258,0.097,0.36-0.004l0.361-0.361c0.221,0.128,0.463,0.23,0.716,0.298v0.507c0,0.145,0.115,0.262,0.256,0.262h0.995
				c0.141,0,0.256-0.117,0.256-0.262v-0.507c0.254-0.068,0.496-0.17,0.717-0.298l0.361,0.361c0.102,0.101,0.26,0.105,0.36,0.004
				l0.707-0.706c0.1-0.1,0.097-0.259-0.005-0.361l-0.36-0.361c0.128-0.221,0.23-0.463,0.298-0.716h0.507
				c0.144,0,0.262-0.115,0.262-0.257V70.003L30,70.003z M27.488,70.5c0,0.601-0.487,1.088-1.088,1.088s-1.088-0.488-1.088-1.088
				s0.487-1.088,1.088-1.088S27.488,69.899,27.488,70.5z"/>
		</g>
		<g id="g4214" transform="translate(16,-48)">
			<path id="path4216" opacity="0.25" enable-background="new    " d="M18.472,75c0,1.5,1.229,2.728,2.729,2.728h7.2
				c1.499,0,2.728-1.228,2.728-2.728v-7.2c0-1.5-1.229-2.728-2.728-2.728h-7.2c-1.5,0-2.729,1.228-2.729,2.728V75z"/>
			<path id="rect4218" opacity="0.5" enable-background="new    " d="M19.4,75v-7.2c0-0.994,0.806-1.8,1.8-1.8h7.2
				c0.994,0,1.8,0.806,1.8,1.8V75c0,0.994-0.806,1.8-1.8,1.8h-7.2C20.206,76.8,19.4,75.994,19.4,75z"/>
			
				<linearGradient id="rect4220_1_" gradientUnits="userSpaceOnUse" x1="-595.8999" y1="65.2002" x2="-585.1001" y2="65.2002" gradientTransform="matrix(0 -1 -1 0 90 -520)">
				<stop  offset="0" style="stop-color:#71C837"/>
				<stop  offset="1" style="stop-color:#447821"/>
			</linearGradient>
			<path id="rect4220" fill="url(#rect4220_1_)" d="M19.4,74.1v-7.2c0-0.994,0.806-1.8,1.8-1.8h7.2c0.994,0,1.8,0.806,1.8,1.8v7.2
				c0,0.994-0.806,1.8-1.8,1.8h-7.2C20.206,75.9,19.4,75.094,19.4,74.1z"/>
			
				<linearGradient id="path4222_1_" gradientUnits="userSpaceOnUse" x1="14.8003" y1="-13.5" x2="14.8003" y2="-25.1998" gradientTransform="matrix(1 0 0 -1 10 48)">
				<stop  offset="0" style="stop-color:#FFFFFF"/>
				<stop  offset="1" style="stop-color:#FFFFFF;stop-opacity:0"/>
			</linearGradient>
			<path id="path4222" inkscape:connector-curvature="0" fill="url(#path4222_1_)" d="M21.2,65.1c-0.997,0-1.8,0.803-1.8,1.8v2.363
				c1.32,0.757,3.233,1.237,5.4,1.237s4.08-0.48,5.4-1.237V66.9c0-0.997-0.804-1.8-1.8-1.8H21.2z"/>
			<path id="path4224" opacity="0.15" enable-background="new    " d="M24.294,66.872c-0.389,0-0.731,0.339-0.731,0.731V67.8
				c-0.037,0.017-0.076,0.039-0.112,0.057l-0.141-0.141c-0.286-0.286-0.758-0.284-1.041,0l-0.703,0.703
				c-0.283,0.283-0.286,0.754,0,1.041l0.141,0.141c-0.018,0.037-0.04,0.075-0.056,0.112h-0.197c-0.392,0-0.731,0.343-0.731,0.731
				v1.012c0,0.389,0.339,0.731,0.731,0.731h0.197c0.016,0.038,0.039,0.076,0.056,0.112l-0.141,0.141
				c-0.286,0.286-0.283,0.757,0,1.041l0.703,0.703c0.283,0.283,0.755,0.286,1.041,0l0.141-0.141c0.036,0.018,0.075,0.04,0.112,0.056
				v0.197c0,0.393,0.343,0.731,0.731,0.731h1.013c0.389,0,0.73-0.339,0.73-0.731V74.1c0.038-0.016,0.076-0.039,0.113-0.056
				l0.141,0.141c0.286,0.286,0.758,0.283,1.04,0l0.703-0.703c0.283-0.284,0.286-0.755,0-1.041L27.894,72.3
				c0.018-0.036,0.04-0.075,0.057-0.112h0.196c0.393,0,0.731-0.343,0.731-0.731v-1.012c0-0.389-0.339-0.731-0.731-0.731H27.95
				c-0.017-0.038-0.039-0.076-0.057-0.112l0.141-0.141c0.093-0.093,0.224-0.283,0.226-0.506c0.002-0.239-0.07-0.38-0.226-0.534
				l-0.703-0.703c-0.282-0.284-0.754-0.286-1.04,0l-0.141,0.141c-0.037-0.018-0.075-0.04-0.113-0.057v-0.197
				c0-0.392-0.342-0.731-0.73-0.731H24.294z M24.8,70.331c0.336,0,0.619,0.283,0.619,0.619c0,0.335-0.283,0.619-0.619,0.619
				c-0.335,0-0.618-0.283-0.618-0.619C24.182,70.614,24.465,70.331,24.8,70.331z"/>
			<path id="path4226" inkscape:connector-curvature="0" opacity="0.3" enable-background="new    " d="M28.4,70.453
				c0-0.142-0.118-0.257-0.262-0.257h-0.508c-0.067-0.253-0.17-0.495-0.298-0.717l0.36-0.361c0.051-0.051,0.078-0.111,0.079-0.177
				c0-0.066-0.024-0.133-0.073-0.183l-0.707-0.707c-0.101-0.1-0.259-0.097-0.36,0.005l-0.361,0.361
				c-0.222-0.129-0.464-0.231-0.716-0.298v-0.508c0-0.144-0.117-0.261-0.258-0.261h-0.994c-0.142,0-0.257,0.117-0.257,0.261v0.508
				c-0.253,0.067-0.495,0.169-0.716,0.298l-0.361-0.361c-0.103-0.102-0.261-0.105-0.361-0.005l-0.706,0.707
				c-0.1,0.1-0.097,0.259,0.005,0.36l0.36,0.361c-0.128,0.222-0.23,0.464-0.298,0.717h-0.507c-0.144,0-0.262,0.115-0.262,0.257
				v0.994c0,0.142,0.118,0.256,0.262,0.256h0.507c0.067,0.253,0.169,0.495,0.298,0.717l-0.36,0.361
				c-0.102,0.102-0.105,0.261-0.005,0.361l0.706,0.706c0.101,0.1,0.259,0.097,0.361-0.005l0.361-0.361
				c0.221,0.129,0.463,0.231,0.716,0.298v0.508c0,0.144,0.115,0.261,0.257,0.261h0.994c0.141,0,0.256-0.118,0.256-0.261v-0.508
				c0.254-0.067,0.496-0.169,0.718-0.298l0.361,0.361c0.102,0.102,0.26,0.105,0.36,0.005l0.707-0.706
				c0.1-0.1,0.096-0.259-0.006-0.361l-0.36-0.361c0.128-0.222,0.23-0.463,0.298-0.717h0.508c0.144,0,0.262-0.115,0.262-0.256V70.453
				L28.4,70.453z M25.889,70.95c0,0.601-0.487,1.088-1.089,1.088c-0.601,0-1.088-0.487-1.088-1.088c0-0.601,0.487-1.089,1.088-1.089
				C25.401,69.861,25.889,70.349,25.889,70.95z"/>
			<path id="path4228" inkscape:connector-curvature="0" fill="#FFFFFF" d="M28.4,70.003c0-0.142-0.118-0.256-0.262-0.256h-0.508
				c-0.067-0.253-0.17-0.496-0.298-0.717l0.36-0.361c0.051-0.051,0.078-0.112,0.079-0.178c0-0.066-0.024-0.133-0.073-0.183
				l-0.707-0.706c-0.101-0.101-0.259-0.097-0.36,0.005l-0.361,0.361c-0.222-0.128-0.464-0.23-0.716-0.298v-0.507
				c0-0.144-0.117-0.262-0.258-0.262h-0.994c-0.142,0-0.257,0.118-0.257,0.262v0.507c-0.253,0.068-0.495,0.17-0.716,0.298
				l-0.361-0.361c-0.103-0.102-0.261-0.105-0.361-0.005l-0.706,0.706c-0.1,0.1-0.097,0.259,0.005,0.361l0.36,0.361
				c-0.128,0.221-0.23,0.463-0.298,0.717h-0.507c-0.144,0-0.262,0.114-0.262,0.256v0.994c0,0.142,0.118,0.257,0.262,0.257h0.507
				c0.067,0.253,0.169,0.495,0.298,0.716l-0.36,0.361c-0.102,0.102-0.105,0.261-0.005,0.361l0.706,0.706
				c0.101,0.101,0.259,0.097,0.361-0.004l0.361-0.361c0.221,0.128,0.463,0.23,0.716,0.298v0.507c0,0.145,0.115,0.262,0.257,0.262
				h0.994c0.141,0,0.256-0.117,0.256-0.262v-0.507c0.254-0.068,0.496-0.17,0.718-0.298l0.361,0.361
				c0.102,0.101,0.26,0.105,0.36,0.004l0.707-0.706c0.1-0.1,0.096-0.259-0.006-0.361l-0.36-0.361
				c0.128-0.221,0.23-0.463,0.298-0.716h0.508c0.144,0,0.262-0.115,0.262-0.257V70.003L28.4,70.003z M25.889,70.5
				c0,0.601-0.487,1.088-1.089,1.088c-0.601,0-1.088-0.488-1.088-1.088s0.487-1.088,1.088-1.088
				C25.401,69.412,25.889,69.899,25.889,70.5z"/>
		</g>
		<g id="g4230" transform="translate(32,-48)">
			<path id="path4232" opacity="0.25" enable-background="new    " d="M16.872,75c0,1.5,1.229,2.728,2.728,2.728h7.2
				c1.5,0,2.729-1.228,2.729-2.728v-7.2c0-1.5-1.229-2.728-2.729-2.728h-7.2c-1.499,0-2.728,1.228-2.728,2.728V75z"/>
			<path id="rect4234_1_" opacity="0.5" enable-background="new    " d="M17.8,75v-7.2c0-0.994,0.806-1.8,1.8-1.8h7.2
				c0.994,0,1.8,0.806,1.8,1.8V75c0,0.994-0.806,1.8-1.8,1.8h-7.2C18.605,76.8,17.8,75.994,17.8,75z"/>
			
				<linearGradient id="rect4236_1_" gradientUnits="userSpaceOnUse" x1="-611.8999" y1="66.8003" x2="-601.1001" y2="66.8003" gradientTransform="matrix(0 -1 -1 0 90 -536)">
				<stop  offset="0" style="stop-color:#2A7FFF"/>
				<stop  offset="1" style="stop-color:#003380"/>
			</linearGradient>
			<path id="rect4236" fill="url(#rect4236_1_)" d="M17.8,74.1v-7.2c0-0.994,0.806-1.8,1.8-1.8h7.2c0.994,0,1.8,0.806,1.8,1.8v7.2
				c0,0.994-0.806,1.8-1.8,1.8h-7.2C18.605,75.9,17.8,75.094,17.8,74.1z"/>
			
				<linearGradient id="path4238_2_" gradientUnits="userSpaceOnUse" x1="-2.8003" y1="-13.5" x2="-2.8003" y2="-25.1998" gradientTransform="matrix(1 0 0 -1 26 48)">
				<stop  offset="0" style="stop-color:#FFFFFF"/>
				<stop  offset="1" style="stop-color:#FFFFFF;stop-opacity:0"/>
			</linearGradient>
			<path id="path4238_1_" inkscape:connector-curvature="0" fill="url(#path4238_2_)" d="M19.6,65.1c-0.996,0-1.8,0.803-1.8,1.8
				v2.363c1.32,0.757,3.233,1.237,5.4,1.237c2.166,0,4.08-0.48,5.399-1.237V66.9c0-0.997-0.803-1.8-1.8-1.8H19.6z"/>
			<path id="path4240" opacity="0.15" enable-background="new    " d="M22.693,66.872c-0.388,0-0.73,0.339-0.73,0.731V67.8
				c-0.038,0.017-0.076,0.039-0.113,0.057l-0.141-0.141c-0.286-0.286-0.757-0.284-1.04,0l-0.703,0.703
				c-0.283,0.283-0.287,0.754,0,1.041l0.141,0.141c-0.018,0.037-0.041,0.075-0.057,0.112h-0.196c-0.393,0-0.731,0.343-0.731,0.731
				v1.012c0,0.389,0.339,0.731,0.731,0.731h0.196c0.016,0.038,0.039,0.076,0.057,0.112l-0.141,0.141
				c-0.287,0.286-0.283,0.757,0,1.041l0.703,0.703c0.283,0.283,0.754,0.286,1.04,0l0.141-0.141c0.037,0.018,0.075,0.04,0.113,0.056
				v0.197c0,0.393,0.343,0.731,0.73,0.731h1.013c0.389,0,0.731-0.339,0.731-0.731V74.1c0.038-0.016,0.075-0.039,0.112-0.056
				l0.141,0.141c0.287,0.286,0.758,0.283,1.041,0l0.703-0.703c0.283-0.284,0.286-0.755,0-1.041L26.294,72.3
				c0.018-0.036,0.04-0.075,0.056-0.112h0.197c0.392,0,0.731-0.343,0.731-0.731v-1.012c0-0.389-0.34-0.731-0.731-0.731H26.35
				c-0.016-0.038-0.038-0.076-0.056-0.112l0.141-0.141c0.093-0.093,0.223-0.283,0.225-0.506c0.002-0.239-0.07-0.38-0.225-0.534
				l-0.703-0.703c-0.283-0.284-0.754-0.286-1.041,0l-0.141,0.141c-0.037-0.018-0.074-0.04-0.112-0.057v-0.197
				c0-0.392-0.343-0.731-0.731-0.731H22.693z M23.2,70.331c0.336,0,0.618,0.283,0.618,0.619c0,0.335-0.282,0.619-0.618,0.619
				s-0.619-0.283-0.619-0.619C22.581,70.614,22.864,70.331,23.2,70.331z"/>
			<path id="path4242" inkscape:connector-curvature="0" opacity="0.3" enable-background="new    " d="M26.8,70.453
				c0-0.142-0.117-0.257-0.262-0.257h-0.507c-0.068-0.253-0.17-0.495-0.298-0.717l0.36-0.361c0.051-0.051,0.078-0.111,0.079-0.177
				c0-0.066-0.024-0.133-0.074-0.183l-0.707-0.707c-0.1-0.1-0.258-0.097-0.36,0.005l-0.361,0.361
				c-0.221-0.129-0.463-0.231-0.716-0.298v-0.508c0-0.144-0.116-0.261-0.257-0.261h-0.995c-0.142,0-0.256,0.117-0.256,0.261v0.508
				c-0.254,0.067-0.495,0.169-0.717,0.298l-0.361-0.361c-0.102-0.102-0.26-0.105-0.36-0.005l-0.706,0.707
				c-0.101,0.1-0.097,0.259,0.005,0.36l0.36,0.361c-0.128,0.222-0.23,0.464-0.298,0.717h-0.507c-0.145,0-0.263,0.115-0.263,0.257
				v0.994c0,0.142,0.118,0.256,0.263,0.256h0.507c0.067,0.253,0.17,0.495,0.298,0.717l-0.36,0.361
				c-0.102,0.102-0.105,0.261-0.005,0.361l0.706,0.706c0.101,0.1,0.259,0.097,0.36-0.005l0.361-0.361
				c0.222,0.129,0.463,0.231,0.717,0.298v0.508c0,0.144,0.114,0.261,0.256,0.261h0.995c0.141,0,0.256-0.118,0.256-0.261v-0.508
				c0.254-0.067,0.496-0.169,0.717-0.298l0.361,0.361c0.103,0.102,0.261,0.105,0.36,0.005l0.707-0.706
				c0.101-0.1,0.097-0.259-0.005-0.361l-0.36-0.361c0.128-0.222,0.229-0.463,0.298-0.717h0.507c0.145,0,0.262-0.115,0.262-0.256
				V70.453L26.8,70.453z M24.288,70.95c0,0.601-0.487,1.088-1.088,1.088c-0.602,0-1.088-0.487-1.088-1.088
				c0-0.601,0.486-1.089,1.088-1.089C23.801,69.861,24.288,70.349,24.288,70.95z"/>
			<path id="path4244" inkscape:connector-curvature="0" fill="#FFFFFF" d="M26.8,70.003c0-0.142-0.117-0.256-0.262-0.256h-0.507
				c-0.068-0.253-0.17-0.496-0.298-0.717l0.36-0.361c0.051-0.051,0.078-0.112,0.079-0.178c0-0.066-0.024-0.133-0.074-0.183
				l-0.707-0.706c-0.1-0.101-0.258-0.097-0.36,0.005l-0.361,0.361c-0.221-0.128-0.463-0.23-0.716-0.298v-0.507
				c0-0.144-0.116-0.262-0.257-0.262h-0.995c-0.142,0-0.256,0.118-0.256,0.262v0.507c-0.254,0.068-0.495,0.17-0.717,0.298
				l-0.361-0.361c-0.102-0.102-0.26-0.105-0.36-0.005l-0.706,0.706c-0.101,0.1-0.097,0.259,0.005,0.361l0.36,0.361
				c-0.128,0.221-0.23,0.463-0.298,0.717h-0.507c-0.145,0-0.263,0.114-0.263,0.256v0.994c0,0.142,0.118,0.257,0.263,0.257h0.507
				c0.067,0.253,0.17,0.495,0.298,0.716l-0.36,0.361c-0.102,0.102-0.105,0.261-0.005,0.361l0.706,0.706
				c0.101,0.101,0.259,0.097,0.36-0.004l0.361-0.361c0.222,0.128,0.463,0.23,0.717,0.298v0.507c0,0.145,0.114,0.262,0.256,0.262
				h0.995c0.141,0,0.256-0.117,0.256-0.262v-0.507c0.254-0.068,0.496-0.17,0.717-0.298l0.361,0.361
				c0.103,0.101,0.261,0.105,0.36,0.004l0.707-0.706c0.101-0.1,0.097-0.259-0.005-0.361l-0.36-0.361
				c0.128-0.221,0.229-0.463,0.298-0.716h0.507c0.145,0,0.262-0.115,0.262-0.257V70.003L26.8,70.003z M24.288,70.5
				c0,0.601-0.487,1.088-1.088,1.088c-0.602,0-1.088-0.488-1.088-1.088s0.486-1.088,1.088-1.088
				C23.801,69.412,24.288,69.899,24.288,70.5z"/>
		</g>
		<g id="g4246" transform="translate(48,-48)">
			<path id="path4248" opacity="0.25" enable-background="new    " d="M15.271,75c0,1.5,1.229,2.728,2.729,2.728h7.2
				c1.499,0,2.728-1.228,2.728-2.728v-7.2c0-1.5-1.229-2.728-2.728-2.728H18c-1.499,0-2.729,1.228-2.729,2.728V75z"/>
			<path id="rect4250" opacity="0.5" enable-background="new    " d="M16.2,75v-7.2c0-0.994,0.806-1.8,1.8-1.8h7.2
				c0.994,0,1.8,0.806,1.8,1.8V75c0,0.994-0.806,1.8-1.8,1.8H18C17.006,76.8,16.2,75.994,16.2,75z"/>
			
				<linearGradient id="rect4252_1_" gradientUnits="userSpaceOnUse" x1="-627.8999" y1="68.3999" x2="-617.1001" y2="68.3999" gradientTransform="matrix(0 -1 -1 0 90 -552)">
				<stop  offset="0" style="stop-color:#FF9800"/>
				<stop  offset="1" style="stop-color:#FF4600"/>
			</linearGradient>
			<path id="rect4252" fill="url(#rect4252_1_)" d="M16.2,74.1v-7.2c0-0.994,0.806-1.8,1.8-1.8h7.2c0.994,0,1.8,0.806,1.8,1.8v7.2
				c0,0.994-0.806,1.8-1.8,1.8H18C17.006,75.9,16.2,75.094,16.2,74.1z"/>
			
				<linearGradient id="path4254_1_" gradientUnits="userSpaceOnUse" x1="-20.3999" y1="-13.5" x2="-20.3999" y2="-25.1998" gradientTransform="matrix(1 0 0 -1 42 48)">
				<stop  offset="0" style="stop-color:#FFFFFF"/>
				<stop  offset="1" style="stop-color:#FFFFFF;stop-opacity:0"/>
			</linearGradient>
			<path id="path4254" inkscape:connector-curvature="0" fill="url(#path4254_1_)" d="M18,65.1c-0.997,0-1.8,0.803-1.8,1.8v2.363
				c1.32,0.757,3.233,1.237,5.399,1.237c2.167,0,4.08-0.48,5.4-1.237V66.9c0-0.997-0.804-1.8-1.8-1.8H18z"/>
			<path id="path4256" opacity="0.15" enable-background="new    " d="M21.094,66.872c-0.389,0-0.731,0.339-0.731,0.731V67.8
				c-0.038,0.017-0.075,0.039-0.112,0.057l-0.141-0.141c-0.286-0.286-0.758-0.284-1.041,0l-0.703,0.703
				c-0.282,0.283-0.286,0.754,0,1.041l0.141,0.141c-0.018,0.037-0.04,0.075-0.056,0.112h-0.197c-0.392,0-0.731,0.343-0.731,0.731
				v1.012c0,0.389,0.34,0.731,0.731,0.731h0.197c0.016,0.038,0.038,0.076,0.056,0.112l-0.141,0.141
				c-0.286,0.286-0.282,0.757,0,1.041l0.703,0.703c0.283,0.283,0.755,0.286,1.041,0l0.141-0.141c0.037,0.018,0.074,0.04,0.112,0.056
				v0.197c0,0.393,0.343,0.731,0.731,0.731h1.013c0.389,0,0.731-0.339,0.731-0.731V74.1c0.037-0.016,0.075-0.039,0.112-0.056
				l0.141,0.141c0.286,0.286,0.758,0.283,1.04,0l0.703-0.703c0.283-0.284,0.287-0.755,0-1.041L24.693,72.3
				c0.018-0.036,0.041-0.075,0.057-0.112h0.197c0.392,0,0.73-0.343,0.73-0.731v-1.012c0-0.389-0.339-0.731-0.73-0.731H24.75
				c-0.016-0.038-0.039-0.076-0.057-0.112l0.141-0.141c0.094-0.093,0.224-0.283,0.226-0.506c0.002-0.239-0.07-0.38-0.226-0.534
				l-0.703-0.703c-0.282-0.284-0.754-0.286-1.04,0l-0.141,0.141c-0.037-0.018-0.075-0.04-0.112-0.057v-0.197
				c0-0.392-0.343-0.731-0.731-0.731H21.094z M21.6,70.331c0.336,0,0.619,0.283,0.619,0.619c0,0.335-0.283,0.619-0.619,0.619
				c-0.335,0-0.618-0.283-0.618-0.619C20.981,70.614,21.265,70.331,21.6,70.331z"/>
			<path id="path4258" inkscape:connector-curvature="0" opacity="0.3" enable-background="new    " d="M25.2,70.453
				c0-0.142-0.118-0.257-0.262-0.257h-0.508c-0.067-0.253-0.169-0.495-0.298-0.717l0.36-0.361c0.051-0.051,0.078-0.111,0.079-0.177
				c0-0.066-0.023-0.133-0.073-0.183l-0.707-0.707c-0.101-0.1-0.259-0.097-0.36,0.005l-0.361,0.361
				c-0.222-0.129-0.463-0.231-0.716-0.298v-0.508c0-0.144-0.115-0.261-0.257-0.261h-0.995c-0.142,0-0.257,0.117-0.257,0.261v0.508
				c-0.253,0.067-0.495,0.169-0.716,0.298l-0.361-0.361c-0.103-0.102-0.261-0.105-0.36-0.005l-0.707,0.707
				c-0.1,0.1-0.097,0.259,0.006,0.36l0.36,0.361c-0.129,0.222-0.23,0.464-0.299,0.717h-0.507c-0.144,0-0.262,0.115-0.262,0.257
				v0.994c0,0.142,0.118,0.256,0.262,0.256h0.507c0.068,0.253,0.17,0.495,0.299,0.717l-0.36,0.361
				c-0.103,0.102-0.105,0.261-0.006,0.361l0.707,0.706c0.1,0.1,0.258,0.097,0.36-0.005l0.361-0.361
				c0.221,0.129,0.463,0.231,0.716,0.298v0.508c0,0.144,0.115,0.261,0.257,0.261h0.995c0.141,0,0.256-0.118,0.256-0.261v-0.508
				c0.254-0.067,0.495-0.169,0.717-0.298l0.361,0.361c0.102,0.102,0.26,0.105,0.36,0.005l0.707-0.706
				c0.1-0.1,0.097-0.259-0.006-0.361l-0.36-0.361c0.129-0.222,0.23-0.463,0.298-0.717h0.508c0.144,0,0.262-0.115,0.262-0.256V70.453
				L25.2,70.453z M22.688,70.95c0,0.601-0.487,1.088-1.089,1.088c-0.601,0-1.088-0.487-1.088-1.088c0-0.601,0.487-1.089,1.088-1.089
				C22.201,69.861,22.688,70.349,22.688,70.95z"/>
			<path id="path4260_1_" inkscape:connector-curvature="0" fill="#AA4400" d="M25.2,70.003c0-0.142-0.118-0.256-0.262-0.256h-0.508
				c-0.067-0.253-0.169-0.496-0.298-0.717l0.36-0.361c0.051-0.051,0.078-0.112,0.079-0.178c0-0.066-0.023-0.133-0.073-0.183
				l-0.707-0.706c-0.101-0.101-0.259-0.097-0.36,0.005l-0.361,0.361c-0.222-0.128-0.463-0.23-0.716-0.298v-0.507
				c0-0.144-0.115-0.262-0.257-0.262h-0.995c-0.142,0-0.257,0.118-0.257,0.262v0.507c-0.253,0.068-0.495,0.17-0.716,0.298
				l-0.361-0.361c-0.103-0.102-0.261-0.105-0.36-0.005l-0.707,0.706c-0.1,0.1-0.097,0.259,0.006,0.361l0.36,0.361
				c-0.129,0.221-0.23,0.463-0.299,0.717h-0.507c-0.144,0-0.262,0.114-0.262,0.256v0.994c0,0.142,0.118,0.257,0.262,0.257h0.507
				c0.068,0.253,0.17,0.495,0.299,0.716l-0.36,0.361c-0.103,0.102-0.105,0.261-0.006,0.361l0.707,0.706
				c0.1,0.101,0.258,0.097,0.36-0.004l0.361-0.361c0.221,0.128,0.463,0.23,0.716,0.298v0.507c0,0.145,0.115,0.262,0.257,0.262h0.995
				c0.141,0,0.256-0.117,0.256-0.262v-0.507c0.254-0.068,0.495-0.17,0.717-0.298l0.361,0.361c0.102,0.101,0.26,0.105,0.36,0.004
				l0.707-0.706c0.1-0.1,0.097-0.259-0.006-0.361l-0.36-0.361c0.129-0.221,0.23-0.463,0.298-0.716h0.508
				c0.144,0,0.262-0.115,0.262-0.257V70.003L25.2,70.003z M22.688,70.5c0,0.601-0.487,1.088-1.089,1.088
				c-0.601,0-1.088-0.488-1.088-1.088s0.487-1.088,1.088-1.088C22.201,69.412,22.688,69.899,22.688,70.5z"/>
		</g>
		<g id="g4278" transform="translate(0,-32)">
			<path id="path4280" opacity="0.25" enable-background="new    " d="M20.072,73.4c0,1.5,1.229,2.728,2.728,2.728H30
				c1.5,0,2.728-1.228,2.728-2.728v-7.2c0-1.5-1.229-2.729-2.728-2.729h-7.2c-1.499,0-2.728,1.228-2.728,2.729V73.4z"/>
			<path id="rect4282" opacity="0.5" enable-background="new    " d="M21,73.4v-7.2c0-0.994,0.806-1.8,1.8-1.8H30
				c0.994,0,1.8,0.806,1.8,1.8v7.2c0,0.994-0.806,1.8-1.8,1.8h-7.2C21.806,75.2,21,74.394,21,73.4z"/>
			
				<linearGradient id="rect4284_1_" gradientUnits="userSpaceOnUse" x1="-578.2998" y1="47.6001" x2="-567.5" y2="47.6001" gradientTransform="matrix(0 -1 -1 0 74 -504)">
				<stop  offset="0" style="stop-color:#008ECA"/>
				<stop  offset="1" style="stop-color:#35C3FF"/>
			</linearGradient>
			<path id="rect4284_2_" fill="url(#rect4284_1_)" d="M21,72.5v-7.2c0-0.994,0.806-1.8,1.8-1.8H30c0.994,0,1.8,0.806,1.8,1.8v7.2
				c0,0.994-0.806,1.8-1.8,1.8h-7.2C21.806,74.3,21,73.494,21,72.5z"/>
			
				<linearGradient id="path4286_1_" gradientUnits="userSpaceOnUse" x1="32.3999" y1="-27.8999" x2="32.3999" y2="-39.5997" gradientTransform="matrix(1 0 0 -1 -6 32)">
				<stop  offset="0" style="stop-color:#FFFFFF"/>
				<stop  offset="1" style="stop-color:#FFFFFF;stop-opacity:0"/>
			</linearGradient>
			<path id="path4286" inkscape:connector-curvature="0" fill="url(#path4286_1_)" d="M22.8,63.5c-0.997,0-1.8,0.803-1.8,1.8v2.363
				c1.32,0.757,3.233,1.237,5.4,1.237s4.08-0.48,5.4-1.237V65.3c0-0.997-0.803-1.8-1.8-1.8H22.8z"/>
			<path id="path4288" opacity="0.15" enable-background="new    " d="M25.894,65.272c-0.388,0-0.731,0.339-0.731,0.731V66.2
				c-0.038,0.016-0.076,0.039-0.113,0.056l-0.141-0.141c-0.286-0.286-0.757-0.284-1.041,0l-0.703,0.703
				c-0.283,0.283-0.287,0.754,0,1.041L23.306,68c-0.018,0.037-0.041,0.075-0.056,0.112h-0.197c-0.392,0-0.731,0.343-0.731,0.731
				v1.013c0,0.388,0.339,0.731,0.731,0.731h0.197c0.016,0.038,0.039,0.076,0.056,0.113l-0.141,0.141
				c-0.287,0.286-0.283,0.757,0,1.041l0.703,0.703c0.283,0.283,0.754,0.286,1.041,0l0.141-0.141c0.037,0.018,0.075,0.04,0.113,0.056
				v0.197c0,0.392,0.343,0.731,0.731,0.731h1.013c0.389,0,0.731-0.339,0.731-0.731V72.5c0.038-0.016,0.075-0.039,0.112-0.056
				l0.141,0.141c0.287,0.287,0.758,0.283,1.041,0l0.703-0.703c0.283-0.284,0.287-0.754,0-1.041L29.494,70.7
				c0.018-0.037,0.041-0.075,0.056-0.113h0.197c0.392,0,0.731-0.343,0.731-0.731v-1.013c0-0.389-0.339-0.731-0.731-0.731H29.55
				c-0.016-0.038-0.039-0.076-0.056-0.112l0.141-0.141c0.093-0.093,0.223-0.283,0.225-0.506c0.002-0.239-0.07-0.38-0.225-0.534
				l-0.703-0.703c-0.283-0.284-0.754-0.286-1.041,0l-0.141,0.141c-0.037-0.018-0.075-0.04-0.112-0.056v-0.197
				c0-0.392-0.343-0.731-0.731-0.731H25.894z M26.4,68.731c0.336,0,0.619,0.283,0.619,0.619c0,0.335-0.283,0.619-0.619,0.619
				c-0.335,0-0.619-0.283-0.619-0.619C25.781,69.014,26.064,68.731,26.4,68.731z"/>
			<path id="path4290" inkscape:connector-curvature="0" opacity="0.3" enable-background="new    " d="M30,68.853
				c0-0.142-0.118-0.257-0.262-0.257h-0.507c-0.068-0.253-0.169-0.495-0.298-0.717l0.36-0.361c0.051-0.051,0.078-0.112,0.079-0.178
				c0-0.066-0.024-0.133-0.074-0.183l-0.707-0.707c-0.1-0.1-0.258-0.097-0.36,0.005l-0.361,0.361
				c-0.222-0.129-0.463-0.23-0.716-0.298v-0.507c0-0.145-0.116-0.262-0.257-0.262h-0.995c-0.141,0-0.256,0.117-0.256,0.262v0.507
				c-0.253,0.068-0.495,0.169-0.716,0.298l-0.361-0.361c-0.102-0.102-0.26-0.105-0.36-0.005l-0.707,0.707
				c-0.1,0.1-0.097,0.259,0.005,0.361l0.36,0.361c-0.128,0.222-0.23,0.464-0.298,0.717h-0.507c-0.144,0-0.262,0.115-0.262,0.257
				v0.994c0,0.142,0.118,0.256,0.262,0.256h0.507c0.068,0.253,0.17,0.496,0.298,0.717l-0.36,0.361
				c-0.102,0.102-0.105,0.261-0.005,0.361l0.707,0.706c0.1,0.1,0.258,0.097,0.36-0.005l0.361-0.36
				c0.221,0.128,0.463,0.23,0.716,0.298v0.507c0,0.144,0.115,0.262,0.256,0.262h0.995c0.141,0,0.256-0.118,0.256-0.262v-0.507
				c0.254-0.068,0.496-0.17,0.717-0.298l0.361,0.36c0.102,0.102,0.26,0.105,0.36,0.005l0.707-0.706c0.1-0.1,0.097-0.259-0.005-0.361
				l-0.36-0.361c0.128-0.221,0.23-0.463,0.298-0.717h0.507c0.144,0,0.262-0.115,0.262-0.256V68.853L30,68.853z M27.488,69.35
				c0,0.601-0.487,1.088-1.088,1.088s-1.088-0.487-1.088-1.088s0.487-1.088,1.088-1.088S27.488,68.75,27.488,69.35z"/>
			<path id="path4292" inkscape:connector-curvature="0" fill="#FFFFFF" d="M30,68.403c0-0.142-0.118-0.256-0.262-0.256h-0.507
				c-0.068-0.253-0.169-0.496-0.298-0.717l0.36-0.361c0.051-0.05,0.078-0.112,0.079-0.178c0-0.066-0.024-0.133-0.074-0.183
				l-0.707-0.706c-0.1-0.1-0.258-0.097-0.36,0.005l-0.361,0.361c-0.222-0.129-0.463-0.231-0.716-0.299v-0.507
				c0-0.144-0.116-0.262-0.257-0.262h-0.995c-0.141,0-0.256,0.118-0.256,0.262v0.507c-0.253,0.068-0.495,0.17-0.716,0.299
				l-0.361-0.361c-0.102-0.102-0.26-0.105-0.36-0.005l-0.707,0.706c-0.1,0.1-0.097,0.259,0.005,0.361l0.36,0.361
				c-0.128,0.221-0.23,0.463-0.298,0.717h-0.507c-0.144,0-0.262,0.114-0.262,0.256v0.994c0,0.142,0.118,0.257,0.262,0.257h0.507
				c0.068,0.253,0.17,0.495,0.298,0.717l-0.36,0.361c-0.102,0.102-0.105,0.261-0.005,0.361l0.707,0.707
				c0.1,0.1,0.258,0.097,0.36-0.005l0.361-0.361c0.221,0.129,0.463,0.23,0.716,0.298v0.508c0,0.144,0.115,0.261,0.256,0.261h0.995
				c0.141,0,0.256-0.117,0.256-0.261v-0.508c0.254-0.068,0.496-0.169,0.717-0.298l0.361,0.361c0.102,0.102,0.26,0.105,0.36,0.005
				l0.707-0.707c0.1-0.1,0.097-0.259-0.005-0.361l-0.36-0.361c0.128-0.222,0.23-0.464,0.298-0.717h0.507
				c0.144,0,0.262-0.115,0.262-0.257V68.403L30,68.403z M27.488,68.9c0,0.601-0.487,1.089-1.088,1.089s-1.088-0.488-1.088-1.089
				c0-0.601,0.487-1.088,1.088-1.088S27.488,68.299,27.488,68.9z"/>
		</g>
		<g id="g4294" transform="translate(16,-32)">
			<path id="path4296" opacity="0.25" enable-background="new    " d="M18.472,73.4c0,1.5,1.229,2.728,2.729,2.728h7.2
				c1.499,0,2.728-1.228,2.728-2.728v-7.2c0-1.5-1.229-2.729-2.728-2.729h-7.2c-1.5,0-2.729,1.228-2.729,2.729V73.4z"/>
			<path id="rect4298" opacity="0.5" enable-background="new    " d="M19.4,73.4v-7.2c0-0.994,0.806-1.8,1.8-1.8h7.2
				c0.994,0,1.8,0.806,1.8,1.8v7.2c0,0.994-0.806,1.8-1.8,1.8h-7.2C20.206,75.2,19.4,74.394,19.4,73.4z"/>
			
				<linearGradient id="rect4300_1_" gradientUnits="userSpaceOnUse" x1="-594.2998" y1="49.2002" x2="-583.5" y2="49.2002" gradientTransform="matrix(0 -1 -1 0 74 -520)">
				<stop  offset="0" style="stop-color:#DEAA87"/>
				<stop  offset="1" style="stop-color:#784421"/>
			</linearGradient>
			<path id="rect4300" fill="url(#rect4300_1_)" d="M19.4,72.5v-7.2c0-0.994,0.806-1.8,1.8-1.8h7.2c0.994,0,1.8,0.806,1.8,1.8v7.2
				c0,0.994-0.806,1.8-1.8,1.8h-7.2C20.206,74.3,19.4,73.494,19.4,72.5z"/>
			
				<linearGradient id="path4302_1_" gradientUnits="userSpaceOnUse" x1="14.8003" y1="-27.8999" x2="14.8003" y2="-39.5997" gradientTransform="matrix(1 0 0 -1 10 32)">
				<stop  offset="0" style="stop-color:#FFFFFF"/>
				<stop  offset="1" style="stop-color:#FFFFFF;stop-opacity:0"/>
			</linearGradient>
			<path id="path4302" inkscape:connector-curvature="0" fill="url(#path4302_1_)" d="M21.2,63.5c-0.997,0-1.8,0.803-1.8,1.8v2.363
				c1.32,0.757,3.233,1.237,5.4,1.237s4.08-0.48,5.4-1.237V65.3c0-0.997-0.804-1.8-1.8-1.8H21.2z"/>
			<path id="path4304" opacity="0.15" enable-background="new    " d="M24.294,65.272c-0.389,0-0.731,0.339-0.731,0.731V66.2
				c-0.037,0.016-0.076,0.039-0.112,0.056l-0.141-0.141c-0.286-0.286-0.758-0.284-1.041,0l-0.703,0.703
				c-0.283,0.283-0.286,0.754,0,1.041L21.706,68c-0.018,0.037-0.04,0.075-0.056,0.112h-0.197c-0.392,0-0.731,0.343-0.731,0.731
				v1.013c0,0.388,0.339,0.731,0.731,0.731h0.197c0.016,0.038,0.039,0.076,0.056,0.113l-0.141,0.141
				c-0.286,0.286-0.283,0.757,0,1.041l0.703,0.703c0.283,0.283,0.755,0.286,1.041,0l0.141-0.141c0.036,0.018,0.075,0.04,0.112,0.056
				v0.197c0,0.392,0.343,0.731,0.731,0.731h1.013c0.389,0,0.73-0.339,0.73-0.731V72.5c0.038-0.016,0.076-0.039,0.113-0.056
				l0.141,0.141c0.286,0.287,0.758,0.283,1.04,0l0.703-0.703c0.283-0.284,0.286-0.754,0-1.041L27.894,70.7
				c0.018-0.037,0.04-0.075,0.057-0.113h0.196c0.393,0,0.731-0.343,0.731-0.731v-1.013c0-0.389-0.339-0.731-0.731-0.731H27.95
				c-0.017-0.038-0.039-0.076-0.057-0.112l0.141-0.141c0.093-0.093,0.224-0.283,0.226-0.506c0.002-0.239-0.07-0.38-0.226-0.534
				l-0.703-0.703c-0.282-0.284-0.754-0.286-1.04,0l-0.141,0.141c-0.037-0.018-0.075-0.04-0.113-0.056v-0.197
				c0-0.392-0.342-0.731-0.73-0.731H24.294z M24.8,68.731c0.336,0,0.619,0.283,0.619,0.619c0,0.335-0.283,0.619-0.619,0.619
				c-0.335,0-0.618-0.283-0.618-0.619C24.182,69.014,24.465,68.731,24.8,68.731z"/>
			<path id="path4306" inkscape:connector-curvature="0" opacity="0.3" enable-background="new    " d="M28.4,68.853
				c0-0.142-0.118-0.257-0.262-0.257h-0.508c-0.067-0.253-0.17-0.495-0.298-0.717l0.36-0.361c0.051-0.051,0.078-0.112,0.079-0.178
				c0-0.066-0.024-0.133-0.073-0.183l-0.707-0.707c-0.101-0.1-0.259-0.097-0.36,0.005l-0.361,0.361
				c-0.222-0.129-0.464-0.23-0.716-0.298v-0.507c0-0.145-0.117-0.262-0.258-0.262h-0.994c-0.142,0-0.257,0.117-0.257,0.262v0.507
				c-0.253,0.068-0.495,0.169-0.716,0.298l-0.361-0.361c-0.103-0.102-0.261-0.105-0.361-0.005l-0.706,0.707
				c-0.1,0.1-0.097,0.259,0.005,0.361l0.36,0.361c-0.128,0.222-0.23,0.464-0.298,0.717h-0.507c-0.144,0-0.262,0.115-0.262,0.257
				v0.994c0,0.142,0.118,0.256,0.262,0.256h0.507c0.067,0.253,0.169,0.496,0.298,0.717l-0.36,0.361
				c-0.102,0.102-0.105,0.261-0.005,0.361l0.706,0.706c0.101,0.1,0.259,0.097,0.361-0.005l0.361-0.36
				c0.221,0.128,0.463,0.23,0.716,0.298v0.507c0,0.144,0.115,0.262,0.257,0.262h0.994c0.141,0,0.256-0.118,0.256-0.262v-0.507
				c0.254-0.068,0.496-0.17,0.718-0.298l0.361,0.36c0.102,0.102,0.26,0.105,0.36,0.005l0.707-0.706c0.1-0.1,0.096-0.259-0.006-0.361
				l-0.36-0.361c0.128-0.221,0.23-0.463,0.298-0.717h0.508c0.144,0,0.262-0.115,0.262-0.256V68.853L28.4,68.853z M25.889,69.35
				c0,0.601-0.487,1.088-1.089,1.088c-0.601,0-1.088-0.487-1.088-1.088s0.487-1.088,1.088-1.088
				C25.401,68.262,25.889,68.75,25.889,69.35z"/>
			<path id="path4308" inkscape:connector-curvature="0" fill="#A0501C" d="M28.4,68.403c0-0.142-0.118-0.256-0.262-0.256h-0.508
				c-0.067-0.253-0.17-0.496-0.298-0.717l0.36-0.361c0.051-0.05,0.078-0.112,0.079-0.178c0-0.066-0.024-0.133-0.073-0.183
				l-0.707-0.706c-0.101-0.1-0.259-0.097-0.36,0.005l-0.361,0.361c-0.222-0.129-0.464-0.231-0.716-0.299v-0.507
				c0-0.144-0.117-0.262-0.258-0.262h-0.994c-0.142,0-0.257,0.118-0.257,0.262v0.507c-0.253,0.068-0.495,0.17-0.716,0.299
				l-0.361-0.361c-0.103-0.102-0.261-0.105-0.361-0.005l-0.706,0.706c-0.1,0.1-0.097,0.259,0.005,0.361l0.36,0.361
				c-0.128,0.221-0.23,0.463-0.298,0.717h-0.507c-0.144,0-0.262,0.114-0.262,0.256v0.994c0,0.142,0.118,0.257,0.262,0.257h0.507
				c0.067,0.253,0.169,0.495,0.298,0.717l-0.36,0.361c-0.102,0.102-0.105,0.261-0.005,0.361l0.706,0.707
				c0.101,0.1,0.259,0.097,0.361-0.005l0.361-0.361c0.221,0.129,0.463,0.23,0.716,0.298v0.508c0,0.144,0.115,0.261,0.257,0.261
				h0.994c0.141,0,0.256-0.117,0.256-0.261v-0.508c0.254-0.068,0.496-0.169,0.718-0.298l0.361,0.361
				c0.102,0.102,0.26,0.105,0.36,0.005l0.707-0.707c0.1-0.1,0.096-0.259-0.006-0.361l-0.36-0.361
				c0.128-0.222,0.23-0.464,0.298-0.717h0.508c0.144,0,0.262-0.115,0.262-0.257V68.403L28.4,68.403z M25.889,68.9
				c0,0.601-0.487,1.089-1.089,1.089c-0.601,0-1.088-0.488-1.088-1.089c0-0.601,0.487-1.088,1.088-1.088
				C25.401,67.812,25.889,68.299,25.889,68.9z"/>
		</g>
		<g id="g4310" transform="translate(32,-32)">
			<path id="path4312" opacity="0.25" enable-background="new    " d="M16.872,73.4c0,1.5,1.229,2.728,2.728,2.728h7.2
				c1.5,0,2.729-1.228,2.729-2.728v-7.2c0-1.5-1.229-2.729-2.729-2.729h-7.2c-1.499,0-2.728,1.228-2.728,2.729V73.4z"/>
			<path id="rect4314_1_" opacity="0.5" enable-background="new    " d="M17.8,73.4v-7.2c0-0.994,0.806-1.8,1.8-1.8h7.2
				c0.994,0,1.8,0.806,1.8,1.8v7.2c0,0.994-0.806,1.8-1.8,1.8h-7.2C18.605,75.2,17.8,74.394,17.8,73.4z"/>
			
				<linearGradient id="rect4316_1_" gradientUnits="userSpaceOnUse" x1="-610.2998" y1="50.8003" x2="-599.5" y2="50.8003" gradientTransform="matrix(0 -1 -1 0 74 -536)">
				<stop  offset="0" style="stop-color:#CCCCCC"/>
				<stop  offset="1" style="stop-color:#1A1A1A"/>
			</linearGradient>
			<path id="rect4316" fill="url(#rect4316_1_)" d="M17.8,72.5v-7.2c0-0.994,0.806-1.8,1.8-1.8h7.2c0.994,0,1.8,0.806,1.8,1.8v7.2
				c0,0.994-0.806,1.8-1.8,1.8h-7.2C18.605,74.3,17.8,73.494,17.8,72.5z"/>
			
				<linearGradient id="path4318_1_" gradientUnits="userSpaceOnUse" x1="-2.8003" y1="-27.8999" x2="-2.8003" y2="-39.5997" gradientTransform="matrix(1 0 0 -1 26 32)">
				<stop  offset="0" style="stop-color:#FFFFFF"/>
				<stop  offset="1" style="stop-color:#FFFFFF;stop-opacity:0"/>
			</linearGradient>
			<path id="path4318" inkscape:connector-curvature="0" fill="url(#path4318_1_)" d="M19.6,63.5c-0.996,0-1.8,0.803-1.8,1.8v2.363
				c1.32,0.757,3.233,1.237,5.4,1.237c2.166,0,4.08-0.48,5.399-1.237V65.3c0-0.997-0.803-1.8-1.8-1.8H19.6z"/>
			<path id="path4320" opacity="0.15" enable-background="new    " d="M22.693,65.272c-0.388,0-0.73,0.339-0.73,0.731V66.2
				c-0.038,0.016-0.076,0.039-0.113,0.056l-0.141-0.141c-0.286-0.286-0.757-0.284-1.04,0l-0.703,0.703
				c-0.283,0.283-0.287,0.754,0,1.041L20.106,68c-0.018,0.037-0.041,0.075-0.057,0.112h-0.196c-0.393,0-0.731,0.343-0.731,0.731
				v1.013c0,0.388,0.339,0.731,0.731,0.731h0.196c0.016,0.038,0.039,0.076,0.057,0.113l-0.141,0.141
				c-0.287,0.286-0.283,0.757,0,1.041l0.703,0.703c0.283,0.283,0.754,0.286,1.04,0l0.141-0.141c0.037,0.018,0.075,0.04,0.113,0.056
				v0.197c0,0.392,0.343,0.731,0.73,0.731h1.013c0.389,0,0.731-0.339,0.731-0.731V72.5c0.038-0.016,0.075-0.039,0.112-0.056
				l0.141,0.141c0.287,0.287,0.758,0.283,1.041,0l0.703-0.703c0.283-0.284,0.286-0.754,0-1.041L26.294,70.7
				c0.018-0.037,0.04-0.075,0.056-0.113h0.197c0.392,0,0.731-0.343,0.731-0.731v-1.013c0-0.389-0.34-0.731-0.731-0.731H26.35
				c-0.016-0.038-0.038-0.076-0.056-0.112l0.141-0.141c0.093-0.093,0.223-0.283,0.225-0.506c0.002-0.239-0.07-0.38-0.225-0.534
				l-0.703-0.703c-0.283-0.284-0.754-0.286-1.041,0l-0.141,0.141c-0.037-0.018-0.074-0.04-0.112-0.056v-0.197
				c0-0.392-0.343-0.731-0.731-0.731H22.693z M23.2,68.731c0.336,0,0.618,0.283,0.618,0.619c0,0.335-0.282,0.619-0.618,0.619
				s-0.619-0.283-0.619-0.619C22.581,69.014,22.864,68.731,23.2,68.731z"/>
			<path id="path4322" inkscape:connector-curvature="0" opacity="0.3" enable-background="new    " d="M26.8,68.853
				c0-0.142-0.117-0.257-0.262-0.257h-0.507c-0.068-0.253-0.17-0.495-0.298-0.717l0.36-0.361c0.051-0.051,0.078-0.112,0.079-0.178
				c0-0.066-0.024-0.133-0.074-0.183l-0.707-0.707c-0.1-0.1-0.258-0.097-0.36,0.005l-0.361,0.361
				c-0.221-0.129-0.463-0.23-0.716-0.298v-0.507c0-0.145-0.116-0.262-0.257-0.262h-0.995c-0.142,0-0.256,0.117-0.256,0.262v0.507
				c-0.254,0.068-0.495,0.169-0.717,0.298l-0.361-0.361c-0.102-0.102-0.26-0.105-0.36-0.005l-0.706,0.707
				c-0.101,0.1-0.097,0.259,0.005,0.361l0.36,0.361c-0.128,0.222-0.23,0.464-0.298,0.717h-0.507c-0.145,0-0.263,0.115-0.263,0.257
				v0.994c0,0.142,0.118,0.256,0.263,0.256h0.507c0.067,0.253,0.17,0.496,0.298,0.717l-0.36,0.361
				c-0.102,0.102-0.105,0.261-0.005,0.361l0.706,0.706c0.101,0.1,0.259,0.097,0.36-0.005l0.361-0.36
				c0.222,0.128,0.463,0.23,0.717,0.298v0.507c0,0.144,0.114,0.262,0.256,0.262h0.995c0.141,0,0.256-0.118,0.256-0.262v-0.507
				c0.254-0.068,0.496-0.17,0.717-0.298l0.361,0.36c0.103,0.102,0.261,0.105,0.36,0.005l0.707-0.706
				c0.101-0.1,0.097-0.259-0.005-0.361l-0.36-0.361c0.128-0.221,0.229-0.463,0.298-0.717h0.507c0.145,0,0.262-0.115,0.262-0.256
				V68.853L26.8,68.853z M24.288,69.35c0,0.601-0.487,1.088-1.088,1.088c-0.602,0-1.088-0.487-1.088-1.088s0.486-1.088,1.088-1.088
				C23.801,68.262,24.288,68.75,24.288,69.35z"/>
			<path id="path4324" inkscape:connector-curvature="0" fill="#FFFFFF" d="M26.8,68.403c0-0.142-0.117-0.256-0.262-0.256h-0.507
				c-0.068-0.253-0.17-0.496-0.298-0.717l0.36-0.361c0.051-0.05,0.078-0.112,0.079-0.178c0-0.066-0.024-0.133-0.074-0.183
				l-0.707-0.706c-0.1-0.1-0.258-0.097-0.36,0.005l-0.361,0.361c-0.221-0.129-0.463-0.231-0.716-0.299v-0.507
				c0-0.144-0.116-0.262-0.257-0.262h-0.995c-0.142,0-0.256,0.118-0.256,0.262v0.507c-0.254,0.068-0.495,0.17-0.717,0.299
				l-0.361-0.361c-0.102-0.102-0.26-0.105-0.36-0.005l-0.706,0.706c-0.101,0.1-0.097,0.259,0.005,0.361l0.36,0.361
				c-0.128,0.221-0.23,0.463-0.298,0.717h-0.507c-0.145,0-0.263,0.114-0.263,0.256v0.994c0,0.142,0.118,0.257,0.263,0.257h0.507
				c0.067,0.253,0.17,0.495,0.298,0.717l-0.36,0.361c-0.102,0.102-0.105,0.261-0.005,0.361l0.706,0.707
				c0.101,0.1,0.259,0.097,0.36-0.005l0.361-0.361c0.222,0.129,0.463,0.23,0.717,0.298v0.508c0,0.144,0.114,0.261,0.256,0.261h0.995
				c0.141,0,0.256-0.117,0.256-0.261v-0.508c0.254-0.068,0.496-0.169,0.717-0.298l0.361,0.361c0.103,0.102,0.261,0.105,0.36,0.005
				l0.707-0.707c0.101-0.1,0.097-0.259-0.005-0.361l-0.36-0.361c0.128-0.222,0.229-0.464,0.298-0.717h0.507
				c0.145,0,0.262-0.115,0.262-0.257V68.403L26.8,68.403z M24.288,68.9c0,0.601-0.487,1.089-1.088,1.089
				c-0.602,0-1.088-0.488-1.088-1.089c0-0.601,0.486-1.088,1.088-1.088C23.801,67.812,24.288,68.299,24.288,68.9z"/>
		</g>
	</g>
	<g>
		<linearGradient id="SVGID_16_" gradientUnits="userSpaceOnUse" x1="40.624" y1="1.6328" x2="34.9235" y2="85.7155">
			<stop  offset="0" style="stop-color:#FFFFFF"/>
			<stop  offset="1" style="stop-color:#FFFFFF;stop-opacity:0"/>
		</linearGradient>
		<path opacity="0.4" fill="url(#SVGID_16_)" d="M72.891,6.5H10.5c-1.654,0-3,1.346-3,3V80c0,1.654,1.346,3,3,3h31.008
			C36.262,28.019,72.891,6.5,72.891,6.5z"/>
	</g>
</g>
</svg>
