<?xml version="1.0" encoding="utf-8"?>
<!-- Generator: Adobe Illustrator 14.0.0, SVG Export Plug-In . SVG Version: 6.00 Build 43363)  -->
<!DOCTYPE svg PUBLIC "-//W3C//DTD SVG 1.1//EN" "http://www.w3.org/Graphics/SVG/1.1/DTD/svg11.dtd">
<svg version="1.1"
	 id="svg2408" xmlns:dc="http://purl.org/dc/elements/1.1/" xmlns:svg="http://www.w3.org/2000/svg" xmlns:cc="http://creativecommons.org/ns#" xmlns:inkscape="http://www.inkscape.org/namespaces/inkscape" xmlns:rdf="http://www.w3.org/1999/02/22-rdf-syntax-ns#"
	 xmlns="http://www.w3.org/2000/svg" xmlns:xlink="http://www.w3.org/1999/xlink" x="0px" y="0px" width="96px" height="96px"
	 viewBox="0 0 96 96" enable-background="new 0 0 96 96" xml:space="preserve">
<g>
	<g>
		<linearGradient id="SVGID_1_" gradientUnits="userSpaceOnUse" x1="2" y1="48" x2="94" y2="48">
			<stop  offset="0" style="stop-color:#000000"/>
			<stop  offset="1" style="stop-color:#000000;stop-opacity:0.5882"/>
		</linearGradient>
		<path opacity="0.08" fill="url(#SVGID_1_)" enable-background="new    " d="M10.5,93C5.813,93,2,89.187,2,84.5v-73
			C2,6.813,5.813,3,10.5,3h75c4.145,0,7.786,3.007,8.5,7v74.5c0,4.687-3.813,8.5-8.5,8.5H10.5z"/>
		<linearGradient id="SVGID_2_" gradientUnits="userSpaceOnUse" x1="3" y1="48" x2="93" y2="48">
			<stop  offset="0" style="stop-color:#000000"/>
			<stop  offset="1" style="stop-color:#000000;stop-opacity:0.5882"/>
		</linearGradient>
		<path opacity="0.1" fill="url(#SVGID_2_)" enable-background="new    " d="M10.5,92C6.364,92,3,88.636,3,84.5v-73
			C3,7.364,6.364,4,10.5,4h75c3.968,0,7.242,3.097,7.5,7v73.5c0,4.136-3.364,7.5-7.5,7.5H10.5z"/>
		<linearGradient id="SVGID_3_" gradientUnits="userSpaceOnUse" x1="4" y1="48" x2="92" y2="48">
			<stop  offset="0" style="stop-color:#000000"/>
			<stop  offset="1" style="stop-color:#000000;stop-opacity:0.5882"/>
		</linearGradient>
		<path opacity="0.2" fill="url(#SVGID_3_)" enable-background="new    " d="M10.5,91C6.916,91,4,88.084,4,84.5v-73
			C4,7.916,6.916,5,10.5,5h75c3.584,0,6.5,2.916,6.5,6.5v73c0,3.584-2.916,6.5-6.5,6.5H10.5z"/>
		<linearGradient id="SVGID_4_" gradientUnits="userSpaceOnUse" x1="47.9995" y1="8" x2="47.9995" y2="90.4195">
			<stop  offset="0" style="stop-color:#000000"/>
			<stop  offset="1" style="stop-color:#000000;stop-opacity:0.5882"/>
		</linearGradient>
		<path opacity="0.45" fill="url(#SVGID_4_)" enable-background="new    " d="M90,12.5c0-2.484-2.016-4.5-4.5-4.5h-75
			C8.015,8,6,10.016,6,12.5v18V63v22.5c0,2.487,2.015,4.5,4.5,4.5h75c2.484,0,4.5-2.013,4.5-4.5V12.5z"/>
	</g>
	<g>
		<path fill="#0E5A80" d="M90,84.5c0,2.487-2.016,4.5-4.5,4.5h-75C8.015,89,6,86.987,6,84.5v-57c0-2.484,2.015-4.5,4.5-4.5h75
			c2.484,0,4.5,2.016,4.5,4.5V84.5z"/>
	</g>
	<linearGradient id="SVGID_5_" gradientUnits="userSpaceOnUse" x1="48.0005" y1="84.5" x2="48.0005" y2="5.0005">
		<stop  offset="0" style="stop-color:#1793D1"/>
		<stop  offset="1" style="stop-color:#6DC4EF"/>
	</linearGradient>
	<path fill="url(#SVGID_5_)" d="M90,80c0,2.487-2.016,4.5-4.5,4.5h-75C8.015,84.5,6,82.487,6,80V9.5C6,7.016,8.015,5,10.5,5h75
		C87.984,5,90,7.016,90,9.5V80z"/>
	<path fill="#29ABE2" d="M10.5,83c-1.654,0-3-1.346-3-3V9.5c0-1.654,1.346-3,3-3h75c1.654,0,3,1.346,3,3V80c0,1.654-1.346,3-3,3
		H10.5z"/>
	<radialGradient id="SVGID_6_" cx="48" cy="44.75" r="39.3911" gradientUnits="userSpaceOnUse">
		<stop  offset="0" style="stop-color:#FFFFFF"/>
		<stop  offset="1" style="stop-color:#FFFFFF;stop-opacity:0"/>
	</radialGradient>
	<path opacity="0.3" fill="url(#SVGID_6_)" d="M10.5,83c-1.654,0-3-1.346-3-3V9.5c0-1.654,1.346-3,3-3h75c1.654,0,3,1.346,3,3V80
		c0,1.654-1.346,3-3,3H10.5z"/>
</g>
<g opacity="0.2">
	<radialGradient id="SVGID_7_" cx="45.6665" cy="47" r="255.6421" gradientUnits="userSpaceOnUse">
		<stop  offset="0" style="stop-color:#FFFFFF"/>
		<stop  offset="1" style="stop-color:#FFFFFF;stop-opacity:0"/>
	</radialGradient>
	<polygon fill="url(#SVGID_7_)" points="22.984,83 32.59,83 88.5,27.091 88.5,17.485 	"/>
	<radialGradient id="SVGID_8_" cx="45.6665" cy="47" r="255.6422" gradientUnits="userSpaceOnUse">
		<stop  offset="0" style="stop-color:#FFFFFF"/>
		<stop  offset="1" style="stop-color:#FFFFFF;stop-opacity:0"/>
	</radialGradient>
	<polygon fill="url(#SVGID_8_)" points="43.738,6.5 7.5,42.738 7.5,52.344 53.344,6.5 	"/>
	<radialGradient id="SVGID_9_" cx="45.6665" cy="47" r="255.6426" gradientUnits="userSpaceOnUse">
		<stop  offset="0" style="stop-color:#FFFFFF"/>
		<stop  offset="1" style="stop-color:#FFFFFF;stop-opacity:0"/>
	</radialGradient>
	<polygon fill="url(#SVGID_9_)" points="62.32,6.5 7.5,61.32 7.5,70.926 71.926,6.5 	"/>
	<radialGradient id="SVGID_10_" cx="45.6665" cy="47" r="255.6421" gradientUnits="userSpaceOnUse">
		<stop  offset="0" style="stop-color:#FFFFFF"/>
		<stop  offset="1" style="stop-color:#FFFFFF;stop-opacity:0"/>
	</radialGradient>
	<polygon fill="url(#SVGID_10_)" points="51.173,83 88.5,45.673 88.5,36.068 41.567,83 	"/>
	<radialGradient id="SVGID_11_" cx="45.6665" cy="47" r="255.6421" gradientUnits="userSpaceOnUse">
		<stop  offset="0" style="stop-color:#FFFFFF"/>
		<stop  offset="1" style="stop-color:#FFFFFF;stop-opacity:0"/>
	</radialGradient>
	<polygon fill="url(#SVGID_11_)" points="69.755,83 88.5,64.255 88.5,54.65 60.149,83 	"/>
	<radialGradient id="SVGID_12_" cx="45.6665" cy="47" r="255.6421" gradientUnits="userSpaceOnUse">
		<stop  offset="0" style="stop-color:#FFFFFF"/>
		<stop  offset="1" style="stop-color:#FFFFFF;stop-opacity:0"/>
	</radialGradient>
	<path fill="url(#SVGID_12_)" d="M85.5,83c1.655,0,3-1.347,3-3v-6.769L78.731,83H85.5z"/>
	<radialGradient id="SVGID_13_" cx="45.6665" cy="47" r="255.6419" gradientUnits="userSpaceOnUse">
		<stop  offset="0" style="stop-color:#FFFFFF"/>
		<stop  offset="1" style="stop-color:#FFFFFF;stop-opacity:0"/>
	</radialGradient>
	<path fill="url(#SVGID_13_)" d="M10.5,83h3.508L88.361,8.647C87.991,7.41,86.855,6.5,85.5,6.5h-4.598L7.5,79.902V80
		C7.5,81.653,8.845,83,10.5,83z"/>
	<radialGradient id="SVGID_14_" cx="45.6665" cy="47" r="255.6419" gradientUnits="userSpaceOnUse">
		<stop  offset="0" style="stop-color:#FFFFFF"/>
		<stop  offset="1" style="stop-color:#FFFFFF;stop-opacity:0"/>
	</radialGradient>
	<path fill="url(#SVGID_14_)" d="M10.5,6.5c-1.654,0-3,1.346-3,3v5.576L16.076,6.5H10.5z"/>
	<radialGradient id="SVGID_15_" cx="45.6665" cy="47" r="255.6414" gradientUnits="userSpaceOnUse">
		<stop  offset="0" style="stop-color:#FFFFFF"/>
		<stop  offset="1" style="stop-color:#FFFFFF;stop-opacity:0"/>
	</radialGradient>
	<polygon fill="url(#SVGID_15_)" points="25.053,6.5 7.5,24.053 7.5,33.658 34.658,6.5 	"/>
</g>
<g>
	<g id="layer4_11_">
		
			<linearGradient id="path3715_1_" gradientUnits="userSpaceOnUse" x1="18.7227" y1="32.6519" x2="18.7227" y2="-25.1987" gradientTransform="matrix(1.1563 0 0 -1.1563 26.2818 46.4683)">
			<stop  offset="0" style="stop-color:#D7EEF5"/>
			<stop  offset="1" style="stop-color:#FFFFFF;stop-opacity:0"/>
		</linearGradient>
		<path id="path3715" fill="url(#path3715_1_)" d="M82.306,45.875c0,18.983-15.391,34.375-34.375,34.375
			c-18.985,0-34.375-15.392-34.375-34.375c0-18.985,15.39-34.375,34.375-34.375C66.915,11.5,82.306,26.89,82.306,45.875z"/>
		
			<linearGradient id="path3717_1_" gradientUnits="userSpaceOnUse" x1="113.9307" y1="-31.0098" x2="113.9307" y2="-75.6047" gradientTransform="matrix(1 0 0 -1 -66 0)">
			<stop  offset="0" style="stop-color:#219DFF"/>
			<stop  offset="0.1278" style="stop-color:#29A1FE;stop-opacity:0.8722"/>
			<stop  offset="0.3255" style="stop-color:#3FAAFC;stop-opacity:0.6745"/>
			<stop  offset="0.5685" style="stop-color:#62BAF8;stop-opacity:0.4315"/>
			<stop  offset="0.8449" style="stop-color:#93D0F3;stop-opacity:0.1551"/>
			<stop  offset="1" style="stop-color:#B2DEF0;stop-opacity:0"/>
		</linearGradient>
		<path id="path3717" inkscape:connector-curvature="0" fill="url(#path3717_1_)" d="M47.931,11.5
			c-18.985,0-34.375,15.39-34.375,34.375c0,18.983,15.39,34.375,34.375,34.375c18.984,0,34.375-15.392,34.375-34.375
			C82.306,26.89,66.915,11.5,47.931,11.5z M47.931,14.287c17.959,0,32.517,14.558,32.517,32.517S65.89,79.321,47.931,79.321
			c-17.958,0-32.517-14.559-32.517-32.518S29.972,14.287,47.931,14.287z"/>
		
			<linearGradient id="path3696_1_" gradientUnits="userSpaceOnUse" x1="53.9307" y1="-35.4424" x2="53.9307" y2="-65.2304" gradientTransform="matrix(1 0 0 -1 -6 3)">
			<stop  offset="0" style="stop-color:#AEE2EE"/>
			<stop  offset="1" style="stop-color:#B7E3F0;stop-opacity:0"/>
		</linearGradient>
		<path id="path3696" fill="url(#path3696_1_)" d="M71.157,41.229c0,12.828-10.399,23.227-23.227,23.227
			S24.704,54.057,24.704,41.229c0-12.827,10.399-23.226,23.227-23.226S71.157,28.402,71.157,41.229z"/>
		
			<linearGradient id="path3690_1_" gradientUnits="userSpaceOnUse" x1="83.9307" y1="-31.0015" x2="83.9307" y2="-68.1838" gradientTransform="matrix(1 0 0 -1 -36 0)">
			<stop  offset="0" style="stop-color:#208EE6"/>
			<stop  offset="0.1271" style="stop-color:#2892E7;stop-opacity:0.8729"/>
			<stop  offset="0.3239" style="stop-color:#3E9EE8;stop-opacity:0.6761"/>
			<stop  offset="0.5658" style="stop-color:#61B2EA;stop-opacity:0.4342"/>
			<stop  offset="0.8408" style="stop-color:#92CDEE;stop-opacity:0.1592"/>
			<stop  offset="1" style="stop-color:#B2DEF0;stop-opacity:0"/>
		</linearGradient>
		<path id="path3690" inkscape:connector-curvature="0" fill="url(#path3690_1_)" d="M47.931,18.003
			c-12.827,0-23.227,10.399-23.227,23.226c0,12.828,10.399,23.227,23.227,23.227s23.227-10.399,23.227-23.227
			C71.157,28.402,60.758,18.003,47.931,18.003z M47.931,20.79c11.802,0,21.368,9.567,21.368,21.368
			c0,11.803-9.566,21.369-21.368,21.369s-21.368-9.566-21.368-21.369C26.563,30.357,36.129,20.79,47.931,20.79z"/>
		
			<linearGradient id="path3661_1_" gradientUnits="userSpaceOnUse" x1="53.9297" y1="-24.5063" x2="53.9297" y2="-53.3069" gradientTransform="matrix(1 0 0 -1 -6 0)">
			<stop  offset="0" style="stop-color:#78CAE3"/>
			<stop  offset="1" style="stop-color:#81CEE5;stop-opacity:0"/>
		</linearGradient>
		<path id="path3661" fill="url(#path3661_1_)" d="M61.866,38.442c0,7.697-6.239,13.936-13.936,13.936s-13.936-6.239-13.936-13.936
			c0-7.696,6.24-13.936,13.936-13.936S61.866,30.746,61.866,38.442z"/>
		
			<linearGradient id="path3663_1_" gradientUnits="userSpaceOnUse" x1="83.9297" y1="-24.5063" x2="83.9297" y2="-53.3069" gradientTransform="matrix(1 0 0 -1 -36 0)">
			<stop  offset="0" style="stop-color:#0072CC"/>
			<stop  offset="0.1106" style="stop-color:#0877CE;stop-opacity:0.8894"/>
			<stop  offset="0.2816" style="stop-color:#1E84D2;stop-opacity:0.7184"/>
			<stop  offset="0.4919" style="stop-color:#419AD9;stop-opacity:0.5081"/>
			<stop  offset="0.7333" style="stop-color:#73B8E3;stop-opacity:0.2667"/>
			<stop  offset="0.9978" style="stop-color:#B1DEF0;stop-opacity:0.0022"/>
			<stop  offset="1" style="stop-color:#B2DEF0;stop-opacity:0"/>
		</linearGradient>
		<path id="path3663" inkscape:connector-curvature="0" fill="url(#path3663_1_)" d="M47.931,24.506
			c-7.696,0-13.936,6.239-13.936,13.936c0,7.697,6.24,13.936,13.936,13.936s13.936-6.239,13.936-13.936
			C61.866,30.746,55.627,24.506,47.931,24.506z M47.931,27.293c6.67,0,12.078,5.407,12.078,12.078
			c0,6.67-5.408,12.078-12.078,12.078c-6.67,0-12.078-5.408-12.078-12.078C35.853,32.701,41.26,27.293,47.931,27.293z"/>
	</g>
	<path fill="#999999" d="M46.431,68.532c0,0.439,0.684,0.795,1.527,0.795l0,0c0.84,0,1.528-0.355,1.528-0.795V45.566
		c0-0.439-0.688-0.795-1.528-0.795l0,0c-0.844,0-1.527,0.355-1.527,0.795V68.532z"/>
	<linearGradient id="SVGID_16_" gradientUnits="userSpaceOnUse" x1="46.4312" y1="55.6797" x2="49.4863" y2="55.6797">
		<stop  offset="0" style="stop-color:#929496"/>
		<stop  offset="0.0157" style="stop-color:#989A9C"/>
		<stop  offset="0.1208" style="stop-color:#BDBEBF"/>
		<stop  offset="0.2261" style="stop-color:#DADBDB"/>
		<stop  offset="0.3305" style="stop-color:#EEEFEF"/>
		<stop  offset="0.4334" style="stop-color:#FBFBFB"/>
		<stop  offset="0.5333" style="stop-color:#FFFFFF"/>
		<stop  offset="0.593" style="stop-color:#EFEFF0"/>
		<stop  offset="0.7091" style="stop-color:#C6C7C7"/>
		<stop  offset="0.8685" style="stop-color:#858687"/>
		<stop  offset="0.9697" style="stop-color:#58595B"/>
	</linearGradient>
	<path fill="url(#SVGID_16_)" d="M46.431,67.163c0,0.439,0.684,0.795,1.527,0.795l0,0c0.84,0,1.528-0.355,1.528-0.795V44.196
		c0-0.439-0.688-0.794-1.528-0.794l0,0c-0.844,0-1.527,0.354-1.527,0.794V67.163z"/>
	<linearGradient id="SVGID_17_" gradientUnits="userSpaceOnUse" x1="47.4175" y1="44.1196" x2="49.4863" y2="44.1196">
		<stop  offset="0" style="stop-color:#FFFFFF"/>
		<stop  offset="1" style="stop-color:#000000"/>
	</linearGradient>
	<path fill="url(#SVGID_17_)" d="M48.449,42.775c-0.568,0-1.031,0.463-1.031,1.031v1.657c0-0.57,0.463-1.033,1.031-1.033
		c0.573,0,1.038,0.463,1.038,1.033v-1.657C49.486,43.238,49.021,42.775,48.449,42.775z"/>
	<path fill="#999999" d="M56.531,39.125c0,4.709-3.818,8.531-8.534,8.531c-4.709,0-8.531-3.822-8.531-8.531
		c0-4.715,3.822-8.536,8.531-8.536C52.713,30.589,56.531,34.41,56.531,39.125z"/>
	
		<radialGradient id="SVGID_18_" cx="48.3462" cy="46.6143" r="8.4127" gradientTransform="matrix(1 0 0 0.7796 0 10.2736)" gradientUnits="userSpaceOnUse">
		<stop  offset="0" style="stop-color:#FFFFFF"/>
		<stop  offset="1" style="stop-color:#B5B7B8"/>
	</radialGradient>
	<path fill="url(#SVGID_18_)" d="M47.998,46.656c-4.153,0-7.531-3.378-7.531-7.531c0-4.155,3.378-7.536,7.531-7.536
		c4.154,0,7.534,3.381,7.534,7.536C55.531,43.278,52.151,46.656,47.998,46.656L47.998,46.656z"/>
	
		<radialGradient id="path3751_1_" cx="136.5586" cy="537.2715" r="9.505" gradientTransform="matrix(0 1 1.125 0 -556.5 -104)" gradientUnits="userSpaceOnUse">
		<stop  offset="0" style="stop-color:#FFFFFF"/>
		<stop  offset="1" style="stop-color:#E6E6E6;stop-opacity:0"/>
	</radialGradient>
	<path id="path3751_2_" fill="url(#path3751_1_)" d="M47.931,40.875c-3.937,0-7.129-2.128-7.129-4.752s3.192-4.752,7.129-4.752
		c3.937,0,7.129,2.128,7.129,4.752S51.867,40.875,47.931,40.875z"/>
	<path fill="#999999" d="M47.998,30.589c-4.709,0-8.531,3.821-8.531,8.536c0,4.709,3.822,8.531,8.531,8.531
		c4.715,0,8.534-3.822,8.534-8.531C56.531,34.41,52.713,30.589,47.998,30.589z M47.998,46.656c-4.153,0-7.531-3.378-7.531-7.531
		c0-4.155,3.378-7.536,7.531-7.536c4.154,0,7.534,3.381,7.534,7.536C55.531,43.278,52.151,46.656,47.998,46.656z"/>
</g>
</svg>
