<?xml version="1.0" encoding="utf-8"?>
<!-- Generator: Adobe Illustrator 14.0.0, SVG Export Plug-In . SVG Version: 6.00 Build 43363)  -->
<!DOCTYPE svg PUBLIC "-//W3C//DTD SVG 1.1//EN" "http://www.w3.org/Graphics/SVG/1.1/DTD/svg11.dtd">
<svg version="1.1"
	 id="svg2408" xmlns:dc="http://purl.org/dc/elements/1.1/" xmlns:svg="http://www.w3.org/2000/svg" xmlns:cc="http://creativecommons.org/ns#" xmlns:inkscape="http://www.inkscape.org/namespaces/inkscape" xmlns:rdf="http://www.w3.org/1999/02/22-rdf-syntax-ns#"
	 xmlns="http://www.w3.org/2000/svg" xmlns:xlink="http://www.w3.org/1999/xlink" x="0px" y="0px" width="96px" height="96px"
	 viewBox="0 0 96 96" enable-background="new 0 0 96 96" xml:space="preserve">
<g>
	<g>
		<linearGradient id="SVGID_1_" gradientUnits="userSpaceOnUse" x1="2" y1="48" x2="94" y2="48">
			<stop  offset="0" style="stop-color:#000000"/>
			<stop  offset="1" style="stop-color:#000000;stop-opacity:0.5882"/>
		</linearGradient>
		<path opacity="0.08" fill="url(#SVGID_1_)" enable-background="new    " d="M10.5,93C5.813,93,2,89.187,2,84.5v-73
			C2,6.813,5.813,3,10.5,3h75c4.145,0,7.786,3.007,8.5,7v74.5c0,4.687-3.813,8.5-8.5,8.5H10.5z"/>
		<linearGradient id="SVGID_2_" gradientUnits="userSpaceOnUse" x1="3" y1="48" x2="93" y2="48">
			<stop  offset="0" style="stop-color:#000000"/>
			<stop  offset="1" style="stop-color:#000000;stop-opacity:0.5882"/>
		</linearGradient>
		<path opacity="0.1" fill="url(#SVGID_2_)" enable-background="new    " d="M10.5,92C6.364,92,3,88.636,3,84.5v-73
			C3,7.364,6.364,4,10.5,4h75c3.968,0,7.242,3.097,7.5,7v73.5c0,4.136-3.364,7.5-7.5,7.5H10.5z"/>
		<linearGradient id="SVGID_3_" gradientUnits="userSpaceOnUse" x1="4" y1="48" x2="92" y2="48">
			<stop  offset="0" style="stop-color:#000000"/>
			<stop  offset="1" style="stop-color:#000000;stop-opacity:0.5882"/>
		</linearGradient>
		<path opacity="0.2" fill="url(#SVGID_3_)" enable-background="new    " d="M10.5,91C6.916,91,4,88.084,4,84.5v-73
			C4,7.916,6.916,5,10.5,5h75c3.584,0,6.5,2.916,6.5,6.5v73c0,3.584-2.916,6.5-6.5,6.5H10.5z"/>
		<linearGradient id="SVGID_4_" gradientUnits="userSpaceOnUse" x1="47.9995" y1="8" x2="47.9995" y2="90.4195">
			<stop  offset="0" style="stop-color:#000000"/>
			<stop  offset="1" style="stop-color:#000000;stop-opacity:0.5882"/>
		</linearGradient>
		<path opacity="0.45" fill="url(#SVGID_4_)" enable-background="new    " d="M90,12.5c0-2.484-2.016-4.5-4.5-4.5h-75
			C8.015,8,6,10.016,6,12.5v18V63v22.5c0,2.487,2.015,4.5,4.5,4.5h75c2.484,0,4.5-2.013,4.5-4.5V12.5z"/>
	</g>
	<g>
		<path fill="#666666" d="M90,84.5c0,2.487-2.016,4.5-4.5,4.5h-75C8.015,89,6,86.987,6,84.5v-57c0-2.484,2.015-4.5,4.5-4.5h75
			c2.484,0,4.5,2.016,4.5,4.5V84.5z"/>
	</g>
	<linearGradient id="SVGID_5_" gradientUnits="userSpaceOnUse" x1="48.0005" y1="84.5" x2="48.0005" y2="5.0005">
		<stop  offset="0" style="stop-color:#C6C6C6"/>
		<stop  offset="1" style="stop-color:#E7E7E7"/>
	</linearGradient>
	<path fill="url(#SVGID_5_)" d="M90,80c0,2.487-2.016,4.5-4.5,4.5h-75C8.015,84.5,6,82.487,6,80V9.5C6,7.016,8.015,5,10.5,5h75
		C87.984,5,90,7.016,90,9.5V80z"/>
	<linearGradient id="SVGID_6_" gradientUnits="userSpaceOnUse" x1="48.0005" y1="83" x2="48.0005" y2="6.5005">
		<stop  offset="0" style="stop-color:#B3B3B3"/>
		<stop  offset="1" style="stop-color:#D9D9D9"/>
	</linearGradient>
	<path fill="url(#SVGID_6_)" d="M10.5,83c-1.654,0-3-1.346-3-3V9.5c0-1.654,1.346-3,3-3h75c1.654,0,3,1.346,3,3V80
		c0,1.654-1.346,3-3,3H10.5z"/>
	<g opacity="0.2">
		<radialGradient id="SVGID_7_" cx="45.6665" cy="47" r="255.6421" gradientUnits="userSpaceOnUse">
			<stop  offset="0" style="stop-color:#FFFFFF"/>
			<stop  offset="1" style="stop-color:#FFFFFF;stop-opacity:0"/>
		</radialGradient>
		<polygon fill="url(#SVGID_7_)" points="22.984,83 32.59,83 88.5,27.091 88.5,17.485 		"/>
		<radialGradient id="SVGID_8_" cx="45.6665" cy="47" r="255.6422" gradientUnits="userSpaceOnUse">
			<stop  offset="0" style="stop-color:#FFFFFF"/>
			<stop  offset="1" style="stop-color:#FFFFFF;stop-opacity:0"/>
		</radialGradient>
		<polygon fill="url(#SVGID_8_)" points="43.738,6.5 7.5,42.738 7.5,52.344 53.344,6.5 		"/>
		<radialGradient id="SVGID_9_" cx="45.6665" cy="47" r="255.6426" gradientUnits="userSpaceOnUse">
			<stop  offset="0" style="stop-color:#FFFFFF"/>
			<stop  offset="1" style="stop-color:#FFFFFF;stop-opacity:0"/>
		</radialGradient>
		<polygon fill="url(#SVGID_9_)" points="62.32,6.5 7.5,61.32 7.5,70.926 71.926,6.5 		"/>
		<radialGradient id="SVGID_10_" cx="45.6665" cy="47" r="255.6421" gradientUnits="userSpaceOnUse">
			<stop  offset="0" style="stop-color:#FFFFFF"/>
			<stop  offset="1" style="stop-color:#FFFFFF;stop-opacity:0"/>
		</radialGradient>
		<polygon fill="url(#SVGID_10_)" points="51.173,83 88.5,45.673 88.5,36.068 41.567,83 		"/>
		<radialGradient id="SVGID_11_" cx="45.6665" cy="47" r="255.6421" gradientUnits="userSpaceOnUse">
			<stop  offset="0" style="stop-color:#FFFFFF"/>
			<stop  offset="1" style="stop-color:#FFFFFF;stop-opacity:0"/>
		</radialGradient>
		<polygon fill="url(#SVGID_11_)" points="69.755,83 88.5,64.255 88.5,54.65 60.149,83 		"/>
		<radialGradient id="SVGID_12_" cx="45.6665" cy="47" r="255.6421" gradientUnits="userSpaceOnUse">
			<stop  offset="0" style="stop-color:#FFFFFF"/>
			<stop  offset="1" style="stop-color:#FFFFFF;stop-opacity:0"/>
		</radialGradient>
		<path fill="url(#SVGID_12_)" d="M85.5,83c1.655,0,3-1.347,3-3v-6.769L78.731,83H85.5z"/>
		<radialGradient id="SVGID_13_" cx="45.6665" cy="47" r="255.6419" gradientUnits="userSpaceOnUse">
			<stop  offset="0" style="stop-color:#FFFFFF"/>
			<stop  offset="1" style="stop-color:#FFFFFF;stop-opacity:0"/>
		</radialGradient>
		<path fill="url(#SVGID_13_)" d="M10.5,83h3.508L88.361,8.647C87.991,7.41,86.855,6.5,85.5,6.5h-4.598L7.5,79.902V80
			C7.5,81.653,8.845,83,10.5,83z"/>
		<radialGradient id="SVGID_14_" cx="45.6665" cy="47" r="255.6419" gradientUnits="userSpaceOnUse">
			<stop  offset="0" style="stop-color:#FFFFFF"/>
			<stop  offset="1" style="stop-color:#FFFFFF;stop-opacity:0"/>
		</radialGradient>
		<path fill="url(#SVGID_14_)" d="M10.5,6.5c-1.654,0-3,1.346-3,3v5.576L16.076,6.5H10.5z"/>
		<radialGradient id="SVGID_15_" cx="45.6665" cy="47" r="255.6414" gradientUnits="userSpaceOnUse">
			<stop  offset="0" style="stop-color:#FFFFFF"/>
			<stop  offset="1" style="stop-color:#FFFFFF;stop-opacity:0"/>
		</radialGradient>
		<polygon fill="url(#SVGID_15_)" points="25.053,6.5 7.5,24.053 7.5,33.658 34.658,6.5 		"/>
	</g>
</g>
<linearGradient id="path4188_1_" gradientUnits="userSpaceOnUse" x1="53.3594" y1="-69.0449" x2="53.3594" y2="-28.0324" gradientTransform="matrix(1 0 0 -1 -6 0)">
	<stop  offset="0" style="stop-color:#FFFFFF"/>
	<stop  offset="1" style="stop-color:#FFFFFF;stop-opacity:0"/>
</linearGradient>
<path id="path4188" opacity="0.8" fill="url(#path4188_1_)" enable-background="new    " d="M39.172,17.107
	c-1.01,0.104-1.779,0.954-1.781,1.969v2.031h-2.031c-1.084,0.008-1.961,0.885-1.969,1.969v2.031h-7.031
	c-2.727,0-4.969,2.242-4.969,4.969v34c0,2.727,2.242,4.969,4.969,4.969h42c2.727,0,4.969-2.242,4.969-4.969v-34
	c0-2.727-2.242-4.969-4.969-4.969h-7.031v-2.031c-0.008-1.084-0.885-1.96-1.969-1.969h-2.031v-2.031
	c-0.008-1.084-0.885-1.96-1.969-1.969h-16C39.297,17.104,39.234,17.104,39.172,17.107z"/>
<linearGradient id="rect4162_1_" gradientUnits="userSpaceOnUse" x1="53.3594" y1="-19.0762" x2="53.3594" y2="-67.0762" gradientTransform="matrix(1 0 0 -1 -6 0)">
	<stop  offset="0" style="stop-color:#000000"/>
	<stop  offset="1" style="stop-color:#393939"/>
</linearGradient>
<path id="rect4162" inkscape:connector-curvature="0" fill="url(#rect4162_1_)" d="M39.359,19.076v4h-4v4h-9c-1.662,0-3,1.338-3,3
	v34c0,1.662,1.338,3,3,3h42c1.662,0,3-1.338,3-3v-34c0-1.662-1.338-3-3-3h-9v-4h-4v-4H39.359z"/>
<path id="path4200_1_" inkscape:connector-curvature="0" opacity="0.15" enable-background="new    " d="M39.359,17.076v2h16v-2
	H39.359z M35.359,21.076v2h4v-2H35.359z M55.359,21.076v2h4v-2H55.359z M26.359,25.076c-1.662,0-3,1.338-3,3v2c0-1.662,1.338-3,3-3
	h9v-2H26.359z M59.359,25.076v2h9c1.662,0,3,1.338,3,3v-2c0-1.662-1.338-3-3-3H59.359z"/>
<linearGradient id="path4209_1_" gradientUnits="userSpaceOnUse" x1="53.3594" y1="-67.0762" x2="53.3594" y2="-19.0762" gradientTransform="matrix(1 0 0 -1 -6 0)">
	<stop  offset="0" style="stop-color:#FFFFFF"/>
	<stop  offset="1" style="stop-color:#FFFFFF;stop-opacity:0"/>
</linearGradient>
<path id="path4209" inkscape:connector-curvature="0" opacity="0.2" fill="url(#path4209_1_)" enable-background="new    " d="
	M39.359,19.076v4h-4v4h-9c-1.662,0-3,1.338-3,3v34c0,1.662,1.338,3,3,3h42c1.662,0,3-1.338,3-3v-34c0-1.662-1.338-3-3-3h-9v-4h-4v-4
	H39.359z M41.328,21.045h12.063v2.031c0.004,1.085,0.883,1.965,1.969,1.968h2.031v2.031c0.004,1.086,0.883,1.966,1.969,1.969h9
	c0.602,0,1.031,0.43,1.031,1.031v34c0,0.602-0.43,1.031-1.031,1.031h-42c-0.602,0-1.031-0.43-1.031-1.031v-34
	c0-0.602,0.43-1.031,1.031-1.031h9c1.086-0.003,1.965-0.883,1.969-1.969v-2.031h2.031c1.086-0.003,1.965-0.883,1.969-1.968V21.045z"
	/>
<path id="path4276" inkscape:connector-curvature="0" opacity="0.3" enable-background="new    " d="M39.359,18.076v1h16v-1H39.359z
	 M35.359,22.076v1h4v-1H35.359z M55.359,22.076v1h4v-1H55.359z M26.359,26.076c-1.662,0-3,1.338-3,3v1c0-1.662,1.338-3,3-3h9v-1
	H26.359z M59.359,26.076v1h9c1.662,0,3,1.338,3,3v-1c0-1.662-1.338-3-3-3H59.359z"/>
</svg>
