<?xml version="1.0" encoding="utf-8"?>
<!-- Generator: Adobe Illustrator 17.0.1, SVG Export Plug-In . SVG Version: 6.00 Build 0)  -->
<!DOCTYPE svg PUBLIC "-//W3C//DTD SVG 1.1//EN" "http://www.w3.org/Graphics/SVG/1.1/DTD/svg11.dtd" [
	<!ENTITY ns_flows "http://ns.adobe.com/Flows/1.0/">
	<!ENTITY ns_extend "http://ns.adobe.com/Extensibility/1.0/">
	<!ENTITY ns_ai "http://ns.adobe.com/AdobeIllustrator/10.0/">
	<!ENTITY ns_graphs "http://ns.adobe.com/Graphs/1.0/">
]>
<svg version="1.1" id="图层_1" xmlns:x="&ns_extend;" xmlns:i="&ns_ai;" xmlns:graph="&ns_graphs;"
	 xmlns="http://www.w3.org/2000/svg" xmlns:xlink="http://www.w3.org/1999/xlink" xmlns:a="http://ns.adobe.com/AdobeSVGViewerExtensions/3.0/"
	 x="0px" y="0px" width="21px" height="21px" viewBox="0 0 21 21" enable-background="new 0 0 21 21" xml:space="preserve">
<g>
	<path fill="#0D4E84" d="M16.5,20c0,0.55-0.45,1-1,1h-10c-0.55,0-1-0.45-1-1V1c0-0.55,0.45-1,1-1h10c0.55,0,1,0.45,1,1V20z
		 M15.429,2.188c0-0.55-0.45-1-1-1H6.571c-0.55,0-1,0.45-1,1v14.5c0,0.55,0.45,1,1,1h7.857c0.55,0,1-0.45,1-1V2.188z M10.5,18.417
		c-0.414,0-0.75,0.336-0.75,0.75c0,0.414,0.336,0.75,0.75,0.75s0.75-0.336,0.75-0.75C11.25,18.752,10.914,18.417,10.5,18.417z"/>
</g>
</svg>
