<?xml version="1.0" encoding="utf-8"?>
<!-- Generator: Adobe Illustrator 14.0.0, SVG Export Plug-In . SVG Version: 6.00 Build 43363)  -->
<!DOCTYPE svg PUBLIC "-//W3C//DTD SVG 1.1//EN" "http://www.w3.org/Graphics/SVG/1.1/DTD/svg11.dtd">
<svg version="1.1"
	 id="svg2408" xmlns:dc="http://purl.org/dc/elements/1.1/" xmlns:svg="http://www.w3.org/2000/svg" xmlns:cc="http://creativecommons.org/ns#" xmlns:inkscape="http://www.inkscape.org/namespaces/inkscape" xmlns:rdf="http://www.w3.org/1999/02/22-rdf-syntax-ns#"
	 xmlns="http://www.w3.org/2000/svg" xmlns:xlink="http://www.w3.org/1999/xlink" x="0px" y="0px" width="96px" height="96px"
	 viewBox="0 0 96 96" enable-background="new 0 0 96 96" xml:space="preserve">
<g>
	<g>
		<linearGradient id="SVGID_1_" gradientUnits="userSpaceOnUse" x1="2" y1="48" x2="94" y2="48">
			<stop  offset="0" style="stop-color:#000000"/>
			<stop  offset="1" style="stop-color:#000000;stop-opacity:0.5882"/>
		</linearGradient>
		<path opacity="0.08" fill="url(#SVGID_1_)" enable-background="new    " d="M10.5,93C5.813,93,2,89.187,2,84.5v-73
			C2,6.813,5.813,3,10.5,3h75c4.145,0,7.786,3.007,8.5,7v74.5c0,4.687-3.813,8.5-8.5,8.5H10.5z"/>
		<linearGradient id="SVGID_2_" gradientUnits="userSpaceOnUse" x1="3" y1="48" x2="93" y2="48">
			<stop  offset="0" style="stop-color:#000000"/>
			<stop  offset="1" style="stop-color:#000000;stop-opacity:0.5882"/>
		</linearGradient>
		<path opacity="0.1" fill="url(#SVGID_2_)" enable-background="new    " d="M10.5,92C6.364,92,3,88.636,3,84.5v-73
			C3,7.364,6.364,4,10.5,4h75c3.968,0,7.242,3.097,7.5,7v73.5c0,4.136-3.364,7.5-7.5,7.5H10.5z"/>
		<linearGradient id="SVGID_3_" gradientUnits="userSpaceOnUse" x1="4" y1="48" x2="92" y2="48">
			<stop  offset="0" style="stop-color:#000000"/>
			<stop  offset="1" style="stop-color:#000000;stop-opacity:0.5882"/>
		</linearGradient>
		<path opacity="0.2" fill="url(#SVGID_3_)" enable-background="new    " d="M10.5,91C6.916,91,4,88.084,4,84.5v-73
			C4,7.916,6.916,5,10.5,5h75c3.584,0,6.5,2.916,6.5,6.5v73c0,3.584-2.916,6.5-6.5,6.5H10.5z"/>
		<linearGradient id="SVGID_4_" gradientUnits="userSpaceOnUse" x1="47.9995" y1="8" x2="47.9995" y2="90.4195">
			<stop  offset="0" style="stop-color:#000000"/>
			<stop  offset="1" style="stop-color:#000000;stop-opacity:0.5882"/>
		</linearGradient>
		<path opacity="0.45" fill="url(#SVGID_4_)" enable-background="new    " d="M90,12.5c0-2.484-2.016-4.5-4.5-4.5h-75
			C8.015,8,6,10.016,6,12.5v18V63v22.5c0,2.487,2.015,4.5,4.5,4.5h75c2.484,0,4.5-2.013,4.5-4.5V12.5z"/>
	</g>
	<g>
		<path fill="#1A1A1A" d="M90,84.5c0,2.487-2.016,4.5-4.5,4.5h-75C8.015,89,6,86.987,6,84.5v-57c0-2.484,2.015-4.5,4.5-4.5h75
			c2.484,0,4.5,2.016,4.5,4.5V84.5z"/>
	</g>
	<linearGradient id="SVGID_5_" gradientUnits="userSpaceOnUse" x1="48.0005" y1="84.5" x2="48.0005" y2="5.0005">
		<stop  offset="0" style="stop-color:#333333"/>
		<stop  offset="1" style="stop-color:#595959"/>
	</linearGradient>
	<path fill="url(#SVGID_5_)" d="M90,80c0,2.487-2.016,4.5-4.5,4.5h-75C8.015,84.5,6,82.487,6,80V9.5C6,7.016,8.015,5,10.5,5h75
		C87.984,5,90,7.016,90,9.5V80z"/>
	<linearGradient id="SVGID_6_" gradientUnits="userSpaceOnUse" x1="48.0005" y1="83" x2="48.0005" y2="6.5005">
		<stop  offset="0" style="stop-color:#191919"/>
		<stop  offset="1" style="stop-color:#3C3C3C"/>
	</linearGradient>
	<path fill="url(#SVGID_6_)" d="M10.5,83c-1.654,0-3-1.346-3-3V9.5c0-1.654,1.346-3,3-3h75c1.654,0,3,1.346,3,3V80
		c0,1.654-1.346,3-3,3H10.5z"/>
	<path fill="#1A1A1A" d="M18,76.35c-1.875,0-3.4-1.525-3.4-3.399v-56.4c0-1.875,1.525-3.4,3.4-3.4h60c1.875,0,3.4,1.525,3.4,3.4
		v56.4c0,1.874-1.525,3.399-3.4,3.399H18z"/>
	<linearGradient id="SVGID_7_" gradientUnits="userSpaceOnUse" x1="49" y1="76.3496" x2="49" y2="15.1504">
		<stop  offset="0" style="stop-color:#333333"/>
		<stop  offset="1" style="stop-color:#595959"/>
	</linearGradient>
	<path fill="url(#SVGID_7_)" d="M19,76.35c-1.323,0-2.4-1.076-2.4-2.399v-56.4c0-1.323,1.077-2.4,2.4-2.4h60
		c1.323,0,2.4,1.077,2.4,2.4v56.4c0,1.323-1.077,2.399-2.4,2.399H19z"/>
	<linearGradient id="SVGID_8_" gradientUnits="userSpaceOnUse" x1="48.0005" y1="75.3496" x2="48.0005" y2="14.1504">
		<stop  offset="0" style="stop-color:#19A1E6"/>
		<stop  offset="1" style="stop-color:#74D1FF"/>
	</linearGradient>
	<path fill="url(#SVGID_8_)" d="M18,75.35c-1.323,0-2.4-1.076-2.4-2.399v-56.4c0-1.323,1.077-2.4,2.4-2.4h60
		c1.323,0,2.4,1.077,2.4,2.4v56.4c0,1.323-1.077,2.399-2.4,2.399H18z"/>
	<linearGradient id="SVGID_9_" gradientUnits="userSpaceOnUse" x1="48.0005" y1="74.3496" x2="48.0005" y2="15.1504">
		<stop  offset="0" style="stop-color:#1793D1"/>
		<stop  offset="1" style="stop-color:#6DC4EF"/>
	</linearGradient>
	<path fill="url(#SVGID_9_)" d="M18,74.35c-0.772,0-1.4-0.628-1.4-1.399v-56.4c0-0.772,0.628-1.4,1.4-1.4h60
		c0.772,0,1.4,0.628,1.4,1.4v56.4c0,0.771-0.628,1.399-1.4,1.399H18z"/>
	<g>
		<defs>
			<path id="SVGID_10_" d="M18,75.35c-1.323,0-2.4-1.076-2.4-2.399v-56.4c0-1.323,1.077-2.4,2.4-2.4h60c1.323,0,2.4,1.077,2.4,2.4
				v56.4c0,1.323-1.077,2.399-2.4,2.399H18z"/>
		</defs>
		<clipPath id="SVGID_11_">
			<use xlink:href="#SVGID_10_"  overflow="visible"/>
		</clipPath>
		<g id="path3698_3_" inkscape:connector-curvature="0" opacity="0.2" clip-path="url(#SVGID_11_)">
			
				<linearGradient id="SVGID_12_" gradientUnits="userSpaceOnUse" x1="11.3838" y1="3.1304" x2="53.1313" y2="57.1272" gradientTransform="matrix(0.9828 0.1849 -0.1849 0.9828 4.8086 -4.4126)">
				<stop  offset="0" style="stop-color:#FFFFFF"/>
				<stop  offset="1" style="stop-color:#FFFFFF;stop-opacity:0"/>
			</linearGradient>
			<path fill="url(#SVGID_12_)" d="M-18.726,66.332c-0.34-8.27-0.211-16.471,0.38-24.563c9.5,1.778,18.874,2.395,27.933,1.993
				c2.348,7.455,5.334,14.864,8.956,22.141C6.622,67.615-5.907,67.845-18.726,66.332L-18.726,66.332 M22.688,65.247
				c-3.953-7.093-7.26-14.345-9.913-21.669c8.004-0.568,15.741-1.932,23.103-3.982c4.665,6.02,10.039,11.764,16.09,17.106
				C42.808,60.544,32.993,63.45,22.688,65.247L22.688,65.247 M55.164,55.313c-6.249-5.103-11.825-10.637-16.69-16.473
				c6.52-1.984,12.727-4.512,18.559-7.51c6.115,4.292,12.909,8.085,20.31,11.227C70.529,47.441,63.107,51.732,55.164,55.313
				L55.164,55.313 M79.724,40.81c-7.498-2.896-14.402-6.47-20.635-10.564c5.177-2.802,10.043-5.979,14.561-9.475
				c6.901,2.533,14.388,4.377,22.351,5.365C91.091,31.427,85.651,36.346,79.724,40.81L79.724,40.81 M-18.167,39.502
				c0.49-5.854,1.223-11.647,2.193-17.365c7.094,1.742,14.142,2.703,21.026,2.966c0.95,5.515,2.245,11.041,3.888,16.548
				C0.139,41.957-8.957,41.287-18.167,39.502L-18.167,39.502 M12.042,41.499c-1.87-5.421-3.384-10.878-4.542-16.331
				c6.192,0.089,12.241-0.385,18.075-1.359c2.592,4.8,5.59,9.503,8.988,14.056C27.376,39.777,19.834,41.021,12.042,41.499
				L12.042,41.499 M37.099,37.161c-3.553-4.428-6.705-9.02-9.447-13.721c5.256-0.993,10.328-2.394,15.17-4.156
				c3.743,3.834,7.904,7.456,12.462,10.796C49.558,32.922,43.477,35.305,37.099,37.161L37.099,37.161 M57.308,29.049
				c-4.655-3.199-8.916-6.692-12.76-10.412c4.371-1.687,8.547-3.669,12.499-5.914c4.49,2.779,9.374,5.235,14.611,7.292
				C67.195,23.357,62.399,26.386,57.308,29.049L57.308,29.049 M-15.688,20.492c0.771-4.326,1.679-8.607,2.721-12.837
				C-7.486,9.251-2.019,10.3,3.36,10.851c0.273,4.198,0.748,8.421,1.428,12.654C-1.922,23.201-8.783,22.223-15.688,20.492
				L-15.688,20.492 M7.173,23.585c-0.838-4.194-1.467-8.386-1.887-12.558c4.904,0.396,9.729,0.38,14.426-0.008
				c1.459,3.834,3.166,7.638,5.121,11.386C19.126,23.304,13.218,23.717,7.173,23.585L7.173,23.585 M26.862,22.063
				c-2.074-3.678-3.897-7.419-5.469-11.198c4.286-0.438,8.461-1.186,12.49-2.213c2.352,3.273,4.972,6.451,7.852,9.5
				C36.981,19.822,32.009,21.141,26.862,22.063L26.862,22.063 M43.429,17.538c-2.963-2.965-5.667-6.066-8.102-9.27
				c3.681-1.009,7.235-2.253,10.643-3.708c2.992,2.618,6.251,5.076,9.761,7.334C51.835,14.042,47.726,15.935,43.429,17.538
				L43.429,17.538 M-12.659,6.415c0.838-3.311,1.759-6.588,2.762-9.831c4.351,1.429,8.703,2.458,13.006,3.122
				C3.042,2.987,3.102,6.292,3.286,9.613C-1.97,9.045-7.308,7.995-12.659,6.415L-12.659,6.415 M5.169,9.797
				C4.868,6.492,4.697,3.2,4.657-0.071c3.964,0.533,7.883,0.756,11.724,0.696c0.81,3.095,1.778,6.185,2.906,9.257
				C14.688,10.229,9.966,10.213,5.169,9.797L5.169,9.797 M20.934,9.742c-1.219-3.032-2.276-6.087-3.171-9.151
				c3.54-0.118,7.01-0.477,10.384-1.055c1.505,2.761,3.187,5.479,5.042,8.137C29.231,8.646,25.136,9.345,20.934,9.742L20.934,9.742
				 M34.607,7.311c-1.925-2.605-3.675-5.275-5.246-7.993c3.114-0.586,6.146-1.36,9.075-2.306c2.035,2.342,4.252,4.602,6.646,6.759
				C41.726,5.166,38.228,6.353,34.607,7.311L34.607,7.311"/>
		</g>
		<linearGradient id="SVGID_13_" gradientUnits="userSpaceOnUse" x1="47.2637" y1="52.6348" x2="93.0616" y2="6.8368">
			<stop  offset="0" style="stop-color:#00698C"/>
			<stop  offset="1" style="stop-color:#00698C;stop-opacity:0"/>
		</linearGradient>
		<path opacity="0.7" clip-path="url(#SVGID_11_)" fill="url(#SVGID_13_)" d="M53.75,41.25c-2.209,0-4-1.791-4-4V-20h-2.978
			c-2.209,0-4,1.791-4,4v61.5c0,2.209,1.791,4,4,4h76.75c2.209,0,4-1.791,4-4v-4.25H53.75z"/>
		<linearGradient id="SVGID_14_" gradientUnits="userSpaceOnUse" x1="30.5293" y1="69.3691" x2="76.3273" y2="23.5712">
			<stop  offset="0" style="stop-color:#00698C"/>
			<stop  offset="1" style="stop-color:#00698C;stop-opacity:0"/>
		</linearGradient>
		<path opacity="0.8" clip-path="url(#SVGID_11_)" fill="url(#SVGID_14_)" d="M37.016,57.984c-2.209,0-4-1.791-4-4v-57.25h-2.978
			c-2.209,0-4,1.791-4,4v61.5c0,2.209,1.791,4,4,4h76.75c2.209,0,4-1.791,4-4v-4.25H37.016z"/>
		<linearGradient id="SVGID_15_" gradientUnits="userSpaceOnUse" x1="65.7793" y1="34.1187" x2="111.5773" y2="-11.6793">
			<stop  offset="0" style="stop-color:#00698C"/>
			<stop  offset="1" style="stop-color:#00698C;stop-opacity:0"/>
		</linearGradient>
		<path opacity="0.4" clip-path="url(#SVGID_11_)" fill="url(#SVGID_15_)" d="M72.266,22.734c-2.209,0-4-1.791-4-4v-57.25h-2.978
			c-2.209,0-4,1.791-4,4v61.5c0,2.209,1.791,4,4,4h76.75c2.209,0,4-1.791,4-4v-4.25H72.266z"/>
	</g>
	<radialGradient id="SVGID_16_" cx="47.5" cy="75.584" r="31.5129" gradientUnits="userSpaceOnUse">
		<stop  offset="0" style="stop-color:#00FFFF"/>
		<stop  offset="1" style="stop-color:#00FFFF;stop-opacity:0"/>
	</radialGradient>
	<path opacity="0.65" fill="url(#SVGID_16_)" d="M18,75.35c-1.323,0-2.4-1.076-2.4-2.399v-56.4c0-1.323,1.077-2.4,2.4-2.4h60
		c1.323,0,2.4,1.077,2.4,2.4v56.4c0,1.323-1.077,2.399-2.4,2.399H18z"/>
	
		<radialGradient id="SVGID_17_" cx="32.667" cy="13.9175" r="31.5128" gradientTransform="matrix(1 0 0 0.9176 0 1.1462)" gradientUnits="userSpaceOnUse">
		<stop  offset="0" style="stop-color:#00FFFF"/>
		<stop  offset="1" style="stop-color:#00FFFF;stop-opacity:0"/>
	</radialGradient>
	<path opacity="0.65" fill="url(#SVGID_17_)" d="M18,75.35c-1.323,0-2.4-1.076-2.4-2.399v-56.4c0-1.323,1.077-2.4,2.4-2.4h60
		c1.323,0,2.4,1.077,2.4,2.4v56.4c0,1.323-1.077,2.399-2.4,2.399H18z"/>
	<g>
		<linearGradient id="SVGID_18_" gradientUnits="userSpaceOnUse" x1="40.624" y1="1.6328" x2="34.9235" y2="85.7155">
			<stop  offset="0" style="stop-color:#FFFFFF"/>
			<stop  offset="1" style="stop-color:#FFFFFF;stop-opacity:0"/>
		</linearGradient>
		<path opacity="0.4" fill="url(#SVGID_18_)" d="M72.891,6.5H10.5c-1.654,0-3,1.346-3,3V80c0,1.654,1.346,3,3,3h31.008
			C36.262,28.019,72.891,6.5,72.891,6.5z"/>
	</g>
	<g>
		<linearGradient id="SVGID_19_" gradientUnits="userSpaceOnUse" x1="83.8623" y1="74.9287" x2="83.8623" y2="82.1944">
			<stop  offset="0" style="stop-color:#000000"/>
			<stop  offset="1" style="stop-color:#808080"/>
		</linearGradient>
		<path fill="url(#SVGID_19_)" d="M83.862,81.961c-1.909,0-3.462-1.553-3.462-3.462s1.553-3.462,3.462-3.462
			s3.462,1.553,3.462,3.462S85.771,81.961,83.862,81.961L83.862,81.961z"/>
		
			<radialGradient id="SVGID_20_" cx="83.8984" cy="76.499" r="3.75" gradientTransform="matrix(1.833002e-004 1 -1.1286 2.068652e-004 170.2168 -7.4153)" gradientUnits="userSpaceOnUse">
			<stop  offset="0" style="stop-color:#B0FF04"/>
			<stop  offset="0.5636" style="stop-color:#5AC306"/>
			<stop  offset="0.7394" style="stop-color:#13A400"/>
		</radialGradient>
		<circle fill="url(#SVGID_20_)" cx="83.862" cy="78.499" r="2.285"/>
	</g>
	<g id="layer4_9_">
		
			<linearGradient id="path4260_1_" gradientUnits="userSpaceOnUse" x1="53.1797" y1="-80.4121" x2="53.1797" y2="-34.8825" gradientTransform="matrix(0.7071 0.7071 0.7071 -0.7071 43.2629 -26.6983)">
			<stop  offset="0" style="stop-color:#000000"/>
			<stop  offset="1" style="stop-color:#000000;stop-opacity:0"/>
		</linearGradient>
		<path id="path4260" opacity="0.05" fill="url(#path4260_1_)" enable-background="new    " d="M30.692,42.881
			c-2.173-2.151-4.308-4.381-6.554-6.494c-0.017-0.021-0.038-0.041-0.061-0.059c-0.729-0.52-1.65-0.391-2.254,0.059
			c-0.569,0.427-0.925,1.17-0.811,1.955h-0.03c0,10.214-0.041,20.429-0.016,30.647c0.003,0.032,0.006,0.069,0.016,0.102
			c0.146,0.771,0.749,1.296,1.338,1.491c0.565,0.187,1.122,0.182,1.607,0.137c0.019-0.008,0.042,0,0.061,0
			c9.958,0.006,19.943,0.061,29.893,0.045c0.012,0,0.021,0,0.03,0c1.78-0.068,2.435-2.486,1.084-3.55l0.015-0.014l-0.09-0.092
			l-6.044-6.042c3.115-3.129,21.818-40.635,21.818-40.635L30.692,42.881z"/>
		
			<linearGradient id="path4246_1_" gradientUnits="userSpaceOnUse" x1="53.1826" y1="-80.813" x2="53.1826" y2="-34.6902" gradientTransform="matrix(0.7071 0.7071 0.7071 -0.7071 43.2629 -26.6983)">
			<stop  offset="0" style="stop-color:#000000"/>
			<stop  offset="1" style="stop-color:#000000;stop-opacity:0"/>
		</linearGradient>
		<path id="path4246" inkscape:connector-curvature="0" opacity="0.08" fill="url(#path4246_1_)" enable-background="new    " d="
			M70.336,20.942c0,0-36.696,19.862-39.644,22.81c-2.334-2.293-4.596-4.677-6.975-6.914c-0.997-0.708-2.355,0.372-2.104,1.509
			c0,10.211-0.04,20.428-0.015,30.643c0.213,1.114,1.435,1.189,2.342,1.098c9.979,0.009,19.972,0.061,29.941,0.046
			c1.243-0.053,1.704-1.817,0.685-2.502c-2.187-2.192-4.372-4.377-6.561-6.564C51.266,57.786,70.336,20.942,70.336,20.942z"/>
		
			<linearGradient id="path4238_1_" gradientUnits="userSpaceOnUse" x1="53.1709" y1="-81.3452" x2="53.1709" y2="-34.4271" gradientTransform="matrix(0.7071 0.7071 0.7071 -0.7071 43.2629 -26.6983)">
			<stop  offset="0" style="stop-color:#000000"/>
			<stop  offset="1" style="stop-color:#000000;stop-opacity:0"/>
		</linearGradient>
		<path id="path4238" opacity="0.12" fill="url(#path4238_1_)" enable-background="new    " d="M30.692,44.804l-7.26-7.259
			c-0.244-0.244-0.64-0.244-0.885,0c-0.115,0.117-0.179,0.271-0.181,0.437l-0.044,30.736c-0.004,0.343,0.272,0.629,0.616,0.632
			c0.005-0.003,0.009-0.003,0.014-0.003l30.827,0.047c0.346-0.003,0.62-0.285,0.616-0.632c0-0.162-0.064-0.32-0.182-0.437
			l-7.258-7.259l22.894-39.561L30.692,44.804z"/>
		
			<linearGradient id="path4221_2_" gradientUnits="userSpaceOnUse" x1="53.1719" y1="-81.8311" x2="53.1719" y2="-34.2166" gradientTransform="matrix(0.7071 0.7071 0.7071 -0.7071 43.2629 -26.6983)">
			<stop  offset="0" style="stop-color:#000000"/>
			<stop  offset="1" style="stop-color:#000000;stop-opacity:0"/>
		</linearGradient>
		<path id="path4221_1_" inkscape:connector-curvature="0" opacity="0.3" fill="url(#path4221_2_)" enable-background="new    " d="
			M53.778,68.762l-30.819-0.039l0.038-30.741l7.695,7.694l38.754-23.701L46.083,61.066L53.778,68.762z"/>
		
			<linearGradient id="path3288-2_2_" gradientUnits="userSpaceOnUse" x1="-449.8872" y1="483.7148" x2="-419.3073" y2="483.7148" gradientTransform="matrix(1.2195 -1.2195 1.1415 1.1415 26.9495 -1039.5115)">
			<stop  offset="0" style="stop-color:#D7E866"/>
			<stop  offset="0.6921" style="stop-color:#A4C33A"/>
			<stop  offset="1" style="stop-color:#7A9525;stop-opacity:0"/>
		</linearGradient>
		<path id="path3288-2" inkscape:connector-curvature="0" fill="url(#path3288-2_2_)" d="M54.259,68.281l-30.819-0.039L23.477,37.5
			l7.696,7.696L69.894,21.46l-23.33,39.128L54.259,68.281z"/>
		
			<radialGradient id="path3288-2_3_" cx="-443.0688" cy="474.9551" r="22.6281" gradientTransform="matrix(1.2195 -1.2195 1.1415 1.1415 26.9495 -1039.5115)" gradientUnits="userSpaceOnUse">
			<stop  offset="0" style="stop-color:#B0FF04"/>
			<stop  offset="0.5636" style="stop-color:#5AC306"/>
			<stop  offset="0.7394" style="stop-color:#13A400"/>
		</radialGradient>
		<path id="path3288-2_1_" inkscape:connector-curvature="0" opacity="0.2" fill="url(#path3288-2_3_)" d="M54.259,68.281
			l-30.819-0.039L23.477,37.5l7.696,7.696L69.894,21.46l-23.33,39.128L54.259,68.281z"/>
		<path id="path4185" inkscape:connector-curvature="0" fill="#A5C044" d="M23.477,37.5l-0.044,30.735l30.826,0.046l-0.48-0.481
			l-29.865-0.044l0.045-29.774L23.477,37.5z"/>
		<linearGradient id="path4200_1_" gradientUnits="userSpaceOnUse" x1="23.6738" y1="68.085" x2="69.5902" y2="22.1686">
			<stop  offset="0" style="stop-color:#FFFFFF"/>
			<stop  offset="1" style="stop-color:#FFFFFF;stop-opacity:0"/>
		</linearGradient>
		<path id="path4200" inkscape:connector-curvature="0" opacity="0.6" fill="url(#path4200_1_)" d="M69.449,21.98L30.692,46.639
			l0.527,0.524l37.712-24.649L44.593,60.54l0.527,0.526L69.449,21.98z M24.168,39.152l-0.045,28.393l28.482,0.043l-7.485-7.484
			l-0.527,0.526l6.208,6.207l-25.926-0.044l0.045-25.836l6.206,6.206l0.525-0.524L24.168,39.152z"/>
	</g>
</g>
</svg>
