<svg id="图层_1" data-name="图层 1" xmlns="http://www.w3.org/2000/svg" viewBox="0 0 16 16"><defs><style>.cls-1{fill:#262626;}</style></defs><g id="w"><path class="cls-1" d="M7.5,15a.5.5,0,0,1-.5-.5v-1a.5.5,0,0,1,1,0v1A.5.5,0,0,1,7.5,15Z"/><path class="cls-1" d="M7.5,3A.5.5,0,0,1,7,2.5v-1a.5.5,0,0,1,1,0v1A.5.5,0,0,1,7.5,3Z"/><path class="cls-1" d="M11.39,4.61A.47.47,0,0,1,11,4.46a.48.48,0,0,1,0-.7l.71-.71a.49.49,0,0,1,.7.7l-.71.71A.47.47,0,0,1,11.39,4.61Z"/><path class="cls-1" d="M2.9,13.1A.47.47,0,0,1,2.55,13a.48.48,0,0,1,0-.7l.71-.71a.49.49,0,0,1,.7.7L3.25,13A.47.47,0,0,1,2.9,13.1Z"/><path class="cls-1" d="M3.61,4.61a.47.47,0,0,1-.35-.15l-.71-.71a.49.49,0,0,1,.7-.7L4,3.76a.48.48,0,0,1,0,.7A.47.47,0,0,1,3.61,4.61Z"/><path class="cls-1" d="M12.1,13.1a.47.47,0,0,1-.35-.15L11,12.24a.49.49,0,0,1,.7-.7l.71.71a.48.48,0,0,1,0,.7A.47.47,0,0,1,12.1,13.1Z"/><path class="cls-1" d="M14.5,9h-1a.5.5,0,0,1,0-1h1a.5.5,0,0,1,0,1Z"/><path class="cls-1" d="M2.5,9h-1a.5.5,0,0,1,0-1h1a.5.5,0,0,1,0,1Z"/><path class="cls-1" d="M8,4a4,4,0,1,0,4,4A4,4,0,0,0,8,4Z"/></g></svg>