<svg id="图层_1" data-name="图层 1" xmlns="http://www.w3.org/2000/svg" viewBox="0 0 16 16"><defs><style>.cls-1{fill:#262626;}</style></defs><g id="w"><g id="云"><path class="cls-1" d="M4.36,13C2.44,13,1,10.94,1,9.1A3.74,3.74,0,0,1,4.36,5.3a2.43,2.43,0,0,1,2.09.76.49.49,0,0,1,0,.7.48.48,0,0,1-.7,0,1.54,1.54,0,0,0-1.3-.45A2.77,2.77,0,0,0,2,9.1c0,1.31,1,2.9,2.36,2.9a.5.5,0,0,1,0,1Z"/><path class="cls-1" d="M11.9,13a.5.5,0,1,1,0-1C13,12,14,10.71,14,9.3A2.34,2.34,0,0,0,12.43,7,.5.5,0,0,1,12.75,6,3.31,3.31,0,0,1,15,9.32C15,11.27,13.55,13,11.9,13Z"/><path class="cls-1" d="M12.59,7a.5.5,0,0,1-.5-.45A2.81,2.81,0,0,0,9.3,4C8,4,7.17,4.81,6.56,6.56a.5.5,0,0,1-.94-.32C6.36,4.09,7.6,3,9.3,3a3.81,3.81,0,0,1,3.79,3.45.51.51,0,0,1-.45.55Z"/><path class="cls-1" d="M11.73,13H4.53a.5.5,0,0,1,0-1h7.2a.5.5,0,0,1,0,1Z"/></g></g></svg>