<svg id="图层_1" data-name="图层 1" xmlns="http://www.w3.org/2000/svg" viewBox="0 0 16 16"><defs><style>.cls-1{fill:#262626;}</style></defs><g id="_0" data-name=" 0"><path class="cls-1" d="M7.5,15h-2a.5.5,0,0,1,0-1h2a.5.5,0,0,1,0,1Z"/><path class="cls-1" d="M6.5,14.5A.5.5,0,0,1,6,14V7.5a.5.5,0,0,1,1,0V14A.5.5,0,0,1,6.5,14.5Z"/><path class="cls-1" d="M10.5,12.74a1.49,1.49,0,0,1-1.2-.6L4.91,6.3a1,1,0,0,1-.21-.73,1,1,0,0,1,.38-.68,1.08,1.08,0,0,1,.3-.16L10.62,3a1,1,0,0,1,.74,0,1,1,0,0,1,.52.55,1,1,0,0,1,.06.41L12,11.24A1.5,1.5,0,0,1,10.5,12.74Zm.44-8.82L5.7,5.67l4.4,5.87a.48.48,0,0,0,.4.2.5.5,0,0,0,.5-.5Z"/><path class="cls-1" d="M6.43,7.52a.5.5,0,0,1-.16-1L11,5a.5.5,0,0,1,.32.94L6.59,7.49A.45.45,0,0,1,6.43,7.52Z"/><path class="cls-1" d="M8.34,10a.5.5,0,0,1-.16-1l2.84-1a.5.5,0,1,1,.32.94L8.5,10A.45.45,0,0,1,8.34,10Z"/><path class="cls-1" d="M5.43,5.52l.89-3.33,5,1.33ZM6.68,2.81,6.15,4.74,9.59,3.58Z"/><rect class="cls-1" x="5" y="1" width="3" height="3" rx="1.48"/></g></svg>