<svg id="图层_1" data-name="图层 1" xmlns="http://www.w3.org/2000/svg" viewBox="0 0 16 16"><defs><style>.cls-1{fill:#262626;}</style></defs><g id="_0" data-name=" 0"><path class="cls-1" d="M3.5,15h-2a.5.5,0,0,1,0-1h2a.5.5,0,0,1,0,1Z"/><path class="cls-1" d="M2.5,14.5A.5.5,0,0,1,2,14V4.5a.5.5,0,0,1,1,0V14A.5.5,0,0,1,2.5,14.5Z"/><path class="cls-1" d="M13.29,10.07a1,1,0,0,1-.24,0L5.79,8.92a1,1,0,0,1-.86-1.09A.89.89,0,0,1,5,7.47L7.55,2.54a1,1,0,0,1,.59-.49,1,1,0,0,1,.76.06,1.14,1.14,0,0,1,.3.23l5.16,5.18a1.5,1.5,0,0,1,0,2.12A1.48,1.48,0,0,1,13.29,10.07ZM8.47,3,5.93,7.93l7.28,1.14a.53.53,0,0,0,.43-.14.5.5,0,0,0,0-.71Z"/><path class="cls-1" d="M7.38,8.87a.5.5,0,0,1-.44-.73L9.21,3.69a.51.51,0,0,1,.9.46L7.82,8.6A.49.49,0,0,1,7.38,8.87Z"/><path class="cls-1" d="M10.5,9.35a.46.46,0,0,1-.23-.06.5.5,0,0,1-.22-.67L11.42,6a.51.51,0,0,1,.9.46L11,9.08A.51.51,0,0,1,10.5,9.35Z"/><path class="cls-1" d="M5.67,7.87,2,4.37,8.32,2.71ZM3,4.63,5.53,7.05,7.36,3.47Z"/><rect class="cls-1" x="1" y="3" width="3" height="3" rx="1.48"/></g></svg>