<svg id="图层_1" data-name="图层 1" xmlns="http://www.w3.org/2000/svg" viewBox="0 0 16 16"><defs><style>.cls-1{fill:#262626;}</style></defs><g id="_0" data-name=" 0"><path class="cls-1" d="M3.5,15h-2a.5.5,0,0,1,0-1h2a.5.5,0,0,1,0,1Z"/><path class="cls-1" d="M2.5,14.5A.5.5,0,0,1,2,14V4.5a.5.5,0,0,1,1,0V14A.5.5,0,0,1,2.5,14.5Z"/><path class="cls-1" d="M6,8.78a1,1,0,0,1-.93-.65A.89.89,0,0,1,5,7.77V2.23a1,1,0,0,1,.29-.71A1,1,0,0,1,6,1.23a1.1,1.1,0,0,1,.37.06l6.92,2.29a1.5,1.5,0,0,1,0,2.84L6.34,8.71A.83.83,0,0,1,6,8.78ZM6,2.23,6,7.77l7-2.29a.51.51,0,0,0,.32-.32.53.53,0,0,0,0-.39A.55.55,0,0,0,13,4.52h0Z"/><path class="cls-1" d="M7.5,8A.5.5,0,0,1,7,7.5v-5a.5.5,0,0,1,1,0v5A.5.5,0,0,1,7.5,8Z"/><path class="cls-1" d="M10.5,7a.5.5,0,0,1-.5-.5v-3a.5.5,0,0,1,1,0v3A.5.5,0,0,1,10.5,7Z"/><path class="cls-1" d="M5.75,8,2.11,5,5.75,2ZM2.89,5,5.25,7V3Z"/><rect class="cls-1" x="1" y="3" width="3" height="3" rx="1.48"/></g></svg>