<svg id="图层_1" data-name="图层 1" xmlns="http://www.w3.org/2000/svg" viewBox="0 0 16 16"><defs><style>.cls-1{fill:#262626;}</style></defs><g id="_0" data-name=" 0"><path class="cls-1" d="M9.5,15h-2a.5.5,0,0,1,0-1h2a.5.5,0,0,1,0,1Z"/><path class="cls-1" d="M11.5,13h-4a.5.5,0,0,1,0-1h4a.5.5,0,0,1,0,1Z"/><path class="cls-1" d="M13.5,11h-6a.5.5,0,0,1,0-1h6a.5.5,0,0,1,0,1Z"/><path class="cls-1" d="M14.5,9h-9a.5.5,0,0,1,0-1h9a.5.5,0,0,1,0,1Z"/><path class="cls-1" d="M12.5,7h-9a.5.5,0,0,1,0-1h9a.5.5,0,0,1,0,1Z"/><path class="cls-1" d="M13.5,5h-9a.5.5,0,0,1,0-1h9a.5.5,0,0,1,0,1Z"/><path class="cls-1" d="M13.5,3H2.5a.5.5,0,0,1,0-1h11a.5.5,0,0,1,0,1Z"/></g></svg>