<svg id="图层_1" data-name="图层 1" xmlns="http://www.w3.org/2000/svg" viewBox="0 0 16 16"><defs><style>.cls-1{fill:#262626;}</style></defs><g id="_0" data-name=" 0"><g id="图层_38_复制_10" data-name="图层 38 复制 10"><path class="cls-1" d="M4.41,11.05H4.29A3.4,3.4,0,0,1,1,7.52,3.79,3.79,0,0,1,4.65,3.68a3.41,3.41,0,0,1,1.19.18A4.07,4.07,0,0,1,9.21,2a4.06,4.06,0,0,1,3.84,2.9A3.52,3.52,0,0,1,15,8.12C15,9.89,13.72,11,11.66,11a.5.5,0,0,1,0-1C12.53,10,14,9.75,14,8.11a2.53,2.53,0,0,0-1.56-2.39l-.24-.09-.06-.26A3,3,0,0,0,9.21,3,3.09,3.09,0,0,0,6.5,4.72l-.23.47-.46-.25a2.15,2.15,0,0,0-1.12-.26A2.79,2.79,0,0,0,2,7.53a2.45,2.45,0,0,0,.65,1.76,2.35,2.35,0,0,0,1.67.76,1.58,1.58,0,0,0,.31,0,.5.5,0,0,1,.54.46.51.51,0,0,1-.46.54Z"/><path class="cls-1" d="M12.1,13l-.4,1.5a.5.5,0,0,0,1,0L12.3,13Z"/><path class="cls-1" d="M12.1,13l-.4-1.5a.5.5,0,0,1,1,0L12.3,13Z"/><path class="cls-1" d="M12.15,13.09l1.1,1.09a.5.5,0,0,0,.66-.25.5.5,0,0,0-.16-.61l-1.5-.41Z"/><path class="cls-1" d="M12.15,13.09l-1.5-.41a.51.51,0,0,1-.11-.7.5.5,0,0,1,.61-.16l1.1,1.09Z"/><path class="cls-1" d="M12.25,13.09l1.5-.41a.51.51,0,0,0,.11-.7.5.5,0,0,0-.61-.16l-1.1,1.09Z"/><path class="cls-1" d="M12.25,13.09l-1.1,1.09a.5.5,0,0,1-.59-.81l.09,0,1.5-.41Z"/><path class="cls-1" d="M3.7,13l-.4,1.5a.5.5,0,0,0,1,0L3.9,13Z"/><path class="cls-1" d="M3.7,13l-.4-1.5a.5.5,0,1,1,1,0L3.9,13Z"/><path class="cls-1" d="M3.75,13.09l1.1,1.09a.5.5,0,0,0,.66-.25.5.5,0,0,0-.16-.61l-1.5-.41Z"/><path class="cls-1" d="M3.75,13.09l-1.5-.41a.5.5,0,0,1,.41-.91l.09.05,1.1,1.09Z"/><path class="cls-1" d="M3.85,13.09l1.5-.41a.5.5,0,0,0-.41-.91l-.09.05-1.1,1.09Z"/><path class="cls-1" d="M3.85,13.09l-1.1,1.09a.5.5,0,0,1-.59-.81l.09,0,1.5-.41Z"/><path class="cls-1" d="M8.4,9.5l-.4,2a.5.5,0,0,0,1,0l-.4-2Z"/><path class="cls-1" d="M8.4,9.5,8,7.5a.5.5,0,0,1,1,0l-.4,2Z"/><path class="cls-1" d="M8.55,9.59l1.93-.66A.5.5,0,0,0,10.07,8L10,8.07,8.45,9.41Z"/><path class="cls-1" d="M8.55,9.59,7,10.93a.5.5,0,0,1-.59-.81l.09,0,1.93-.66Z"/><path class="cls-1" d="M8.45,9.59,10,10.93a.5.5,0,0,0,.59-.81l-.09,0L8.55,9.41Z"/><path class="cls-1" d="M8.45,9.59,6.52,8.93a.51.51,0,0,1-.31-.64A.49.49,0,0,1,6.85,8,.37.37,0,0,1,7,8.07L8.55,9.41Z"/><circle class="cls-1" cx="7.5" cy="13.5" r="0.5"/><circle class="cls-1" cx="9.5" cy="15.5" r="0.5"/><circle class="cls-1" cx="6.5" cy="15.5" r="0.5"/></g></g></svg>