<svg id="图层_1" data-name="图层 1" xmlns="http://www.w3.org/2000/svg" viewBox="0 0 16 16"><defs><style>.cls-1{fill:#262626;}</style></defs><g id="_0" data-name=" 0"><g id="_499" data-name=" 499"><path class="cls-1" d="M7.5,15a.5.5,0,0,1-.5-.5V1.5a.5.5,0,0,1,1,0v13A.5.5,0,0,1,7.5,15Z"/><path class="cls-1" d="M9.5,14a.47.47,0,0,1-.35-.15L7.5,12.21,5.85,13.85a.49.49,0,0,1-.7-.7l2-2a.48.48,0,0,1,.7,0l2,2a.48.48,0,0,1,0,.7A.47.47,0,0,1,9.5,14Z"/><path class="cls-1" d="M7.5,5a.47.47,0,0,1-.35-.15l-2-2a.49.49,0,0,1,.7-.7L7.5,3.79,9.15,2.15a.49.49,0,0,1,.7.7l-2,2A.47.47,0,0,1,7.5,5Z"/><path class="cls-1" d="M13.13,11.75a.45.45,0,0,1-.25-.07L1.62,5.18a.5.5,0,1,1,.5-.86l11.26,6.5a.5.5,0,0,1-.25.93Z"/><path class="cls-1" d="M11.26,13a.5.5,0,0,1-.48-.37l-.73-2.73a.49.49,0,0,1,.35-.61l2.73-.73a.48.48,0,0,1,.61.35.49.49,0,0,1-.35.61l-2.25.6.6,2.25a.49.49,0,0,1-.35.61Z"/><path class="cls-1" d="M1.74,7.48a.5.5,0,0,1-.48-.37.49.49,0,0,1,.35-.61l2.25-.6-.6-2.25a.5.5,0,0,1,1-.26L5,6.12a.49.49,0,0,1-.35.61l-2.73.73Z"/><path class="cls-1" d="M1.87,11.75a.5.5,0,0,1-.25-.93l11.26-6.5a.5.5,0,0,1,.5.86L2.12,11.68A.45.45,0,0,1,1.87,11.75Z"/><path class="cls-1" d="M13.26,7.48l-.13,0L10.4,6.73a.49.49,0,0,1-.35-.61l.73-2.73a.5.5,0,1,1,1,.26l-.6,2.25,2.25.6a.49.49,0,0,1,.35.61A.5.5,0,0,1,13.26,7.48Z"/><path class="cls-1" d="M3.74,13l-.13,0a.49.49,0,0,1-.35-.61l.6-2.25L1.61,9.5a.5.5,0,0,1,.26-1l2.73.73A.49.49,0,0,1,5,9.88l-.73,2.73A.5.5,0,0,1,3.74,13Z"/></g></g></svg>