<svg id="图层_1" data-name="图层 1" xmlns="http://www.w3.org/2000/svg" viewBox="0 0 16 16"><defs><style>.cls-1{fill:#262626;}</style></defs><g id="_0" data-name=" 0"><g id="图层_53" data-name="图层 53"><path class="cls-1" d="M8,3A5,5,0,1,1,3,8,5,5,0,0,1,8,3M8,2a6,6,0,1,0,6,6A6,6,0,0,0,8,2Z"/><path class="cls-1" d="M14.5,11H.5a.5.5,0,0,1,0-1h14a.5.5,0,0,1,0,1Z"/><path class="cls-1" d="M15.5,8H1.5a.5.5,0,0,1,0-1h14a.5.5,0,0,1,0,1Z"/><path class="cls-1" d="M7.5,6H.5a.5.5,0,0,1,0-1h7a.5.5,0,0,1,0,1Z"/></g></g></svg>