<svg id="图层_1" data-name="图层 1" xmlns="http://www.w3.org/2000/svg" viewBox="0 0 16 16"><defs><style>.cls-1{fill:#262626;}</style></defs><g id="w"><g id="_16" data-name=" 16"><path class="cls-1" d="M4.51,13.5a6.24,6.24,0,0,1-3.29-1.09.5.5,0,0,1,.56-.82,5.27,5.27,0,0,0,2.74.91,6.49,6.49,0,0,0,3.22-.93,9.17,9.17,0,0,1,3.69-1.07h0a4.13,4.13,0,0,1,2.09.54c.29.14.64.31,1.12.49a.5.5,0,0,1-.36.94c-.51-.2-.88-.38-1.2-.53a3.13,3.13,0,0,0-1.62-.44,8.17,8.17,0,0,0-3.24.94A7.43,7.43,0,0,1,4.51,13.5Z"/><path class="cls-1" d="M4.51,9.5A6.24,6.24,0,0,1,1.22,8.41a.5.5,0,0,1,.56-.82,5.27,5.27,0,0,0,2.74.91,6.49,6.49,0,0,0,3.22-.93A7.64,7.64,0,0,1,11.46,6.5h0A4.14,4.14,0,0,1,13.53,7c.29.14.64.31,1.12.49a.5.5,0,1,1-.36.94c-.51-.2-.88-.38-1.19-.53a3.19,3.19,0,0,0-1.63-.44,6.53,6.53,0,0,0-3.21.93A7.54,7.54,0,0,1,4.51,9.5Z"/><path class="cls-1" d="M4.51,5.5A6.24,6.24,0,0,1,1.22,4.41a.5.5,0,0,1,.56-.82,5.27,5.27,0,0,0,2.74.91,6.49,6.49,0,0,0,3.22-.93A7.64,7.64,0,0,1,11.46,2.5a5.11,5.11,0,0,1,2.11.57c.28.13.62.28,1.08.46a.51.51,0,0,1,.29.65.52.52,0,0,1-.65.29c-.49-.19-.84-.36-1.13-.49a4,4,0,0,0-1.73-.48,6.51,6.51,0,0,0-3.17.93A7.54,7.54,0,0,1,4.51,5.5Z"/></g></g></svg>