<svg id="图层_1" data-name="图层 1" xmlns="http://www.w3.org/2000/svg" viewBox="0 0 16 16"><defs><style>.cls-1{fill:#262626;}</style></defs><g id="_0" data-name=" 0"><path class="cls-1" d="M15,5.45c0-1.72-2.09-3.18-5.09-3.81,1.45.72,2.36,1.81,2.36,2.91,0,2.27-3.63,4.09-8.18,4.09A16,16,0,0,1,1,8.36,13.44,13.44,0,0,0,6.82,9.55a14.27,14.27,0,0,0,5.09-.91c-.27,1.63-3,2.91-6.36,2.91a10,10,0,0,1-2.37-.28,10.8,10.8,0,0,0,4.55.91,15.18,15.18,0,0,0,3-.36,1.28,1.28,0,0,1,.18.54c0,1.19-1.91,2.09-4.27,2.09A11.27,11.27,0,0,1,5,14.27,5.83,5.83,0,0,0,8,15c2.36,0,4.27-.91,4.27-2.09a2,2,0,0,0-.91-1.36C13,11,14.09,10,14.09,9a1.78,1.78,0,0,0-.54-1.27A3,3,0,0,0,15,5.45Z"/><circle class="cls-1" cx="3.5" cy="2.5" r="0.5"/><circle class="cls-1" cx="8.5" cy="2.5" r="0.5"/><circle class="cls-1" cx="6.5" cy="4.5" r="0.5"/><circle class="cls-1" cx="1.5" cy="5.5" r="0.5"/><circle class="cls-1" cx="4.5" cy="6.5" r="0.5"/><circle class="cls-1" cx="9.5" cy="5.5" r="0.5"/><circle class="cls-1" cx="3.5" cy="10.5" r="0.5"/><circle class="cls-1" cx="6.5" cy="10.5" r="0.5"/><circle class="cls-1" cx="5.5" cy="13.5" r="0.5"/></g></svg>