<svg id="图层_1" data-name="图层 1" xmlns="http://www.w3.org/2000/svg" viewBox="0 0 16 16"><defs><style>.cls-1{fill:#262626;}</style></defs><g id="_0" data-name=" 0"><path class="cls-1" d="M13.14,8.47a1.27,1.27,0,0,0-.46-.84c.83-.38,1.39-.94,1.39-1.5a1.25,1.25,0,0,0-.28-.74A1.89,1.89,0,0,0,15,3.8C15,2.21,12.12,1,8.5,1S2,2.21,2,3.8A1.89,1.89,0,0,0,3.21,5.39a1.25,1.25,0,0,0-.28.74c0,.56.56,1.12,1.39,1.5a1.27,1.27,0,0,0-.46.84c0,.46.37.84,1,1.12a.35.35,0,0,0-.09.28c0,.46.55.84,1.48,1.12a.89.89,0,0,0-.56.74c0,.38.47.75,1.12,1a.73.73,0,0,0-.19.37c0,.47.75.84,1.86.94h0c0,.56.65.93,1.39.93s1.4-.37,1.4-.93a.84.84,0,0,0-.28-.56c.18-.19.28-.28.28-.47s-.1-.19-.1-.28c.65-.28,1-.65,1-1s-.37-.74-.92-.93c.55-.28.92-.56.92-.93a.35.35,0,0,0-.09-.28C12.77,9.31,13.14,8.93,13.14,8.47ZM2.46,3.8c0-1.12,2.51-2.33,6-2.33s6,1.21,6,2.33c0,.47-.38.93-1,1.31a8.71,8.71,0,0,0-5-1.31,8.71,8.71,0,0,0-5,1.31C2.84,4.73,2.46,4.27,2.46,3.8ZM13,5.29a11,11,0,0,1-4.46.84A11,11,0,0,1,4,5.29a8.75,8.75,0,0,1,4.46-1A8.74,8.74,0,0,1,13,5.29Zm-9.57.84c0-.18.1-.28.19-.46A12.21,12.21,0,0,0,8.5,6.6a12.2,12.2,0,0,0,4.92-.93c.09.18.19.28.19.46,0,.38-.56.84-1.4,1.22A7.8,7.8,0,0,0,8.5,6.6a7.8,7.8,0,0,0-3.71.75C4,7,3.39,6.51,3.39,6.13Zm8.17,1.4A9.34,9.34,0,0,1,8.5,8a9.63,9.63,0,0,1-3.06-.47A8.81,8.81,0,0,1,8.5,7.07a8.81,8.81,0,0,1,3.06.46Zm-.74,6.54c0,.18-.37.46-.93.46S9,14.25,9,14.07a3.72,3.72,0,0,0,1.58-.28c.15.09.24.21.24.28Zm-1.39-.38a3.73,3.73,0,0,1,.46-.09h0a4,4,0,0,1-.5.09Zm1.39-.56c0,.1,0,.1-.09.19a1.88,1.88,0,0,0-.84-.19,1.58,1.58,0,0,0-1.3.56c-1-.09-1.48-.37-1.48-.56s0-.13.14-.13A8.9,8.9,0,0,0,9,13.13,9,9,0,0,0,10.64,13c.09,0,.18,0,.18.13Zm-2.6-.46c.19,0,.47-.1.74-.1a1.75,1.75,0,0,1,.75.1H8.26Zm3.53-.94c0,.19-.37.47-1,.66A4.54,4.54,0,0,0,9,12.11a3.56,3.56,0,0,0-1.76.37c-.65-.19-1-.47-1-.75s.28-.46.74-.65a8.42,8.42,0,0,0,1.58.19A7.71,7.71,0,0,0,10.64,11c.74.17,1.11.55,1.11.73Zm0-1.86c0,.18-.37.46-1.11.65A8.65,8.65,0,0,0,9,10.33a4.72,4.72,0,0,0-2,.38c-1.11-.19-1.67-.56-1.67-.84v-.1a8,8,0,0,0,3.25.56,10.52,10.52,0,0,0,3.25-.46Zm-6-.38A6.33,6.33,0,0,1,8.5,8.93a6,6,0,0,1,2.79.56,8,8,0,0,1-2.79.38,11.44,11.44,0,0,1-2.79-.38Zm6.13-.28A7.12,7.12,0,0,0,8.5,8.47a7,7,0,0,0-3.34.74c-.56-.18-.84-.46-.84-.74s.19-.38.47-.56a11.4,11.4,0,0,0,3.71.56,11.4,11.4,0,0,0,3.71-.56c.28.18.47.37.47.56s-.28.53-.84.74Z"/><circle class="cls-1" cx="1.5" cy="5.5" r="0.5"/><circle class="cls-1" cx="2.5" cy="8.5" r="0.5"/><circle class="cls-1" cx="3.5" cy="11.5" r="0.5"/><circle class="cls-1" cx="5.5" cy="14.5" r="0.5"/><circle class="cls-1" cx="13.5" cy="11.5" r="0.5"/><circle class="cls-1" cx="14.5" cy="8.5" r="0.5"/><circle class="cls-1" cx="2.5" cy="1.51" r="0.5"/><circle class="cls-1" cx="8.5" cy="2.5" r="0.5"/><circle class="cls-1" cx="1.5" cy="13.5" r="0.5"/></g></svg>