<svg id="图层_1" data-name="图层 1" xmlns="http://www.w3.org/2000/svg" viewBox="0 0 16 16"><defs><style>.cls-1{fill:#262626;}</style></defs><g id="_0" data-name=" 0"><path class="cls-1" d="M12,5A3.94,3.94,0,0,0,8.1,7.8,4,4,0,0,0,4.1,5,3.84,3.84,0,0,0,0,8.5,3.84,3.84,0,0,0,4.1,12a4,4,0,0,0,4-2.8A3.94,3.94,0,0,0,12,12a3.81,3.81,0,0,0,4-3.5A3.81,3.81,0,0,0,12,5ZM4.1,11C2.4,11,1,9.9,1,8.5S2.4,6,4.1,6,7.2,7.1,7.2,8.5,5.8,11,4.1,11ZM12,11A2.74,2.74,0,0,1,9,8.54v0A2.74,2.74,0,0,1,12,6h0a2.74,2.74,0,0,1,3,2.46v0A2.74,2.74,0,0,1,12,11Z"/><circle class="cls-1" cx="3" cy="3" r="1"/><circle class="cls-1" cx="13" cy="3" r="1"/><circle class="cls-1" cx="3" cy="14" r="1"/><circle class="cls-1" cx="13" cy="14" r="1"/><circle class="cls-1" cx="8" cy="13" r="1"/><circle class="cls-1" cx="8" cy="4" r="1"/></g></svg>