<svg id="图层_1" data-name="图层 1" xmlns="http://www.w3.org/2000/svg" viewBox="0 0 16 16"><defs><style>.cls-1{fill:#262626;}</style></defs><g id="_0" data-name=" 0"><g id="_16" data-name=" 16"><path class="cls-1" d="M4.51,14a6.24,6.24,0,0,1-3.29-1.09.5.5,0,0,1,.56-.82A5.27,5.27,0,0,0,4.52,13a6.49,6.49,0,0,0,3.22-.93A9.17,9.17,0,0,1,11.43,11h0a4.13,4.13,0,0,1,2.09.54c.29.14.64.31,1.12.49a.5.5,0,0,1-.36.94c-.51-.2-.88-.38-1.2-.53A3.13,3.13,0,0,0,11.47,12a8.17,8.17,0,0,0-3.24.94A7.43,7.43,0,0,1,4.51,14Z"/><path class="cls-1" d="M4.51,11A6.24,6.24,0,0,1,1.22,9.91a.5.5,0,0,1,.56-.82A5.27,5.27,0,0,0,4.52,10a6.49,6.49,0,0,0,3.22-.93A9.17,9.17,0,0,1,11.43,8h0a4.13,4.13,0,0,1,2.09.54c.29.14.64.31,1.12.49a.5.5,0,0,1-.36.94c-.51-.2-.88-.38-1.19-.53A3.19,3.19,0,0,0,11.47,9a8.17,8.17,0,0,0-3.24.94A7.43,7.43,0,0,1,4.51,11Z"/><path class="cls-1" d="M4.51,8A6.24,6.24,0,0,1,1.22,6.91a.5.5,0,1,1,.56-.82A5.27,5.27,0,0,0,4.52,7a6.49,6.49,0,0,0,3.22-.93A7.64,7.64,0,0,1,11.46,5h0a4.14,4.14,0,0,1,2.07.54c.29.14.64.31,1.12.49a.5.5,0,1,1-.36.94c-.51-.2-.88-.38-1.19-.53A3.19,3.19,0,0,0,11.47,6a6.53,6.53,0,0,0-3.21.93A7.54,7.54,0,0,1,4.51,8Z"/><path class="cls-1" d="M4.51,5A6.24,6.24,0,0,1,1.22,3.91a.5.5,0,0,1,.56-.82A5.27,5.27,0,0,0,4.52,4a6.49,6.49,0,0,0,3.22-.93A7.64,7.64,0,0,1,11.46,2a5.11,5.11,0,0,1,2.11.57c.28.13.62.28,1.08.46a.5.5,0,0,1-.36.94c-.49-.19-.84-.36-1.13-.49A4,4,0,0,0,11.43,3a6.51,6.51,0,0,0-3.17.93A7.54,7.54,0,0,1,4.51,5Z"/></g></g></svg>