<svg id="图层_1" data-name="图层 1" xmlns="http://www.w3.org/2000/svg" viewBox="0 0 16 16"><defs><style>.cls-1{fill:#262626;}</style></defs><g id="_0" data-name=" 0"><path class="cls-1" d="M9,2a1,1,0,0,1,1,1V8l.45.29A3.3,3.3,0,0,1,12,11a3,3,0,0,1-3,3,1.85,1.85,0,0,1-.47,0A3,3,0,0,1,6,11.32a3,3,0,0,1,1.48-3L8,8.07V3A1,1,0,0,1,9,2M9,1A2,2,0,0,0,7,3V7.5A4,4,0,0,0,8.37,15H9a4,4,0,0,0,4-4,4.27,4.27,0,0,0-2-3.5V3A2,2,0,0,0,9,1Z"/><path class="cls-1" d="M4.5,5H3A.5.5,0,0,1,3,4H4.5a.5.5,0,0,1,0,1Z"/><path class="cls-1" d="M4.5,7h-1a.5.5,0,0,1,0-1h1a.5.5,0,0,1,0,1Z"/><path class="cls-1" d="M4.5,3h-2a.5.5,0,0,1,0-1h2a.5.5,0,0,1,0,1Z"/></g></svg>