<svg id="图层_1" data-name="图层 1" xmlns="http://www.w3.org/2000/svg" viewBox="0 0 16 16"><defs><style>.cls-1{fill:#262626;}</style></defs><g id="_0" data-name=" 0"><path class="cls-1" d="M5.5,13a.49.49,0,0,1-.42-.24L1,6.24V12.5a.5.5,0,0,1-.5.5.5.5,0,0,1-.5-.5v-8A.5.5,0,0,1,.36,4a.51.51,0,0,1,.56.21L5,10.76V4.5a.5.5,0,0,1,1,0v8a.5.5,0,0,1-.36.48Z"/><path class="cls-1" d="M14.5,10h-3a.5.5,0,0,1,0-1h3a.5.5,0,0,1,0,1Z"/><path class="cls-1" d="M15.5,13a.51.51,0,0,1-.48-.35L13,6.18l-2,6.47a.5.5,0,1,1-1-.3l2.5-8a.52.52,0,0,1,1,0l2.5,8a.51.51,0,0,1-.33.63Z"/><path class="cls-1" d="M7.5,12a.43.43,0,0,1-.19,0A.49.49,0,0,1,7,11.31l2.5-6a.5.5,0,1,1,.92.38l-2.5,6A.5.5,0,0,1,7.5,12Z"/></g></svg>