<svg id="图层_1" data-name="图层 1" xmlns="http://www.w3.org/2000/svg" viewBox="0 0 16 16"><defs><style>.cls-1{fill:#262626;}</style></defs><g id="_0" data-name=" 0"><path class="cls-1" d="M10.22,13.43c.19,0,.31-.21.35-.39l.22-4.87c2-1,3.66-2.1,3.2-2.92h0a.9.9,0,0,0-.77-.31,9.61,9.61,0,0,0-3.67,1.3L4.76,4H4.51a.31.31,0,0,0-.32.17c-.14.19-.07.37.14.57l2.79,3C5.91,8.5,4.91,9.25,4.41,9.63L2.5,9H2.38a.5.5,0,0,0-.45.27,7.19,7.19,0,0,1,1.12,1.28c.05.09.26.42.32.5a6.41,6.41,0,0,1,.68,1.51h.06a.46.46,0,0,0,.46-.32L5,10.51c.61-.2,1.84-.6,3.17-1.17L9.69,13c.07.25.21.39.44.39h.09m0,.93h-.09a1.38,1.38,0,0,1-1.32-1L7.67,10.56c-.73.29-1.39.52-1.87.68L5.48,12.5h0a1.42,1.42,0,0,1-1.36,1H3.94a.93.93,0,0,1-.79-.66,5.34,5.34,0,0,0-.56-1.27c-.09-.13-.25-.38-.32-.51a6.47,6.47,0,0,0-1-1.09.92.92,0,0,1-.22-1.09,1.43,1.43,0,0,1,1.29-.8h.34l1.47.4c.37-.27.87-.64,1.46-1l-2-2.17a1.31,1.31,0,0,1-.28-1.7A1.25,1.25,0,0,1,4.51,3,2,2,0,0,1,5,3.08h.12L9.53,5.2A9,9,0,0,1,13.19,4a1.8,1.8,0,0,1,1.5.67l.06.09h0l.06.09h0A1.53,1.53,0,0,1,14.93,6c-.26.86-1.21,1.67-3.24,2.74l-.19,4.33a.43.43,0,0,1,0,.16,1.31,1.31,0,0,1-1.28,1.13Z"/></g></svg>