<svg id="图层_1" data-name="图层 1" xmlns="http://www.w3.org/2000/svg" viewBox="0 0 16 16"><defs><style>.cls-1{fill:#262626;}</style></defs><g id="a"><path class="cls-1" d="M8,2A6,6,0,1,1,2,8,6,6,0,0,1,8,2M8,1a7,7,0,1,0,7,7A7,7,0,0,0,8,1Z"/><path class="cls-1" d="M2,5.5a2.5,2.5,0,0,1,3-4,2.37,2.37,0,0,1,.5.5"/><path class="cls-1" d="M14,5.5a2.5,2.5,0,1,0-3-4,2.37,2.37,0,0,0-.5.5"/><path class="cls-1" d="M10.5,11.5a.47.47,0,0,1-.35-.15l-3-3A.47.47,0,0,1,7,8V4.5a.5.5,0,0,1,1,0V7.79l2.85,2.86a.48.48,0,0,1,0,.7A.47.47,0,0,1,10.5,11.5Z"/></g></svg>