<svg id="图层_1" data-name="图层 1" xmlns="http://www.w3.org/2000/svg" viewBox="0 0 16 16"><defs><style>.cls-1{fill:#262626;}</style></defs><g id="a"><path class="cls-1" d="M13,6H3A.5.5,0,0,1,3,5H13a.5.5,0,0,1,0,1Z"/><path class="cls-1" d="M6.5,14h-2A2.5,2.5,0,0,1,2,11.5v-7A2.5,2.5,0,0,1,4.5,2h7A2.5,2.5,0,0,1,14,4.5v2a.5.5,0,0,1-1,0v-2A1.5,1.5,0,0,0,11.5,3h-7A1.5,1.5,0,0,0,3,4.5v7A1.5,1.5,0,0,0,4.5,13h2a.5.5,0,0,1,0,1Z"/><circle class="cls-1" cx="11.5" cy="12.5" r="0.5"/><path class="cls-1" d="M11.5,8l2.79,5H8.71L11.5,8h0m0-1a1,1,0,0,0-.87.51l-2.79,5a1,1,0,0,0,.38,1.36,1,1,0,0,0,.49.13h5.58a1,1,0,0,0,1-1,1.05,1.05,0,0,0-.13-.49l-2.79-5A1,1,0,0,0,11.5,7Z"/><path class="cls-1" d="M11.5,12a.5.5,0,0,1-.5-.5v-1a.5.5,0,0,1,1,0v1A.5.5,0,0,1,11.5,12Z"/><path class="cls-1" d="M10.5,4a.5.5,0,0,1-.5-.5v-2a.5.5,0,0,1,1,0v2A.5.5,0,0,1,10.5,4Z"/><path class="cls-1" d="M5.5,4A.5.5,0,0,1,5,3.5v-2a.5.5,0,0,1,1,0v2A.5.5,0,0,1,5.5,4Z"/></g></svg>