<svg id="图层_1" data-name="图层 1" xmlns="http://www.w3.org/2000/svg" viewBox="0 0 16 16"><defs><style>.cls-1{opacity:0.3;}.cls-2{fill:#262626;}</style></defs><g id="a"><g id="图层_25" data-name="图层 25"><g class="cls-1"><g id="_16" data-name=" 16"><path class="cls-2" d="M7.5,3A1.5,1.5,0,0,1,9,4.5v4a1.5,1.5,0,0,1-3,0v-4A1.5,1.5,0,0,1,7.5,3m0-1A2.5,2.5,0,0,0,5,4.5v4a2.5,2.5,0,0,0,5,0v-4A2.5,2.5,0,0,0,7.5,2Z"/><path class="cls-2" d="M7.5,13A4.51,4.51,0,0,1,3,8.5V7A.5.5,0,0,1,4,7V8.5a3.5,3.5,0,0,0,7,0V7a.5.5,0,0,1,1,0V8.5A4.51,4.51,0,0,1,7.5,13Z"/><path class="cls-2" d="M8.5,15h-2a.5.5,0,0,1,0-1h2a.5.5,0,0,1,0,1Z"/><circle class="cls-2" cx="7.5" cy="5.5" r="0.5"/><rect class="cls-2" x="7" y="12" width="1" height="2"/></g><path class="cls-2" d="M2.5,14a.47.47,0,0,1-.35-.15.48.48,0,0,1,0-.7l10-10a.49.49,0,0,1,.7.7l-10,10A.47.47,0,0,1,2.5,14Z"/></g></g></g></svg>