<svg id="图层_1" data-name="图层 1" xmlns="http://www.w3.org/2000/svg" viewBox="0 0 16 16"><defs><style>.cls-1{fill:#262626;}</style></defs><g id="a"><g id="图层_26_复制_3" data-name="图层 26 复制 3"><path class="cls-1" d="M14.5,11a.47.47,0,0,1-.35-.15l-5-5a.49.49,0,0,1,.7-.7l5,5a.48.48,0,0,1,0,.7A.47.47,0,0,1,14.5,11Z"/><path class="cls-1" d="M9.5,11a.47.47,0,0,1-.35-.15.48.48,0,0,1,0-.7l5-5a.49.49,0,0,1,.7.7l-5,5A.47.47,0,0,1,9.5,11Z"/><path class="cls-1" d="M7,2.85v10.3l-1.92-2.4A2,2,0,0,0,3.52,10H2V6H3.52a2,2,0,0,0,1.56-.75L7,2.85m0-1a1,1,0,0,0-.77.38L4.3,4.62A1,1,0,0,1,3.52,5H2A1,1,0,0,0,1,6v4a1,1,0,0,0,1,1H3.52a1,1,0,0,1,.78.38l1.92,2.39a1,1,0,0,0,.77.38,1,1,0,0,0,1-1V2.85a1,1,0,0,0-1-1Z"/></g></g></svg>