<?xml version="1.0" encoding="utf-8"?>
<!-- Generator: Adobe Illustrator 24.2.1, SVG Export Plug-In . SVG Version: 6.00 Build 0)  -->
<svg version="1.1" id="图层_1" xmlns="http://www.w3.org/2000/svg" xmlns:xlink="http://www.w3.org/1999/xlink" x="0px" y="0px"
	 viewBox="0 0 16 16" style="enable-background:new 0 0 16 16;" xml:space="preserve">
<style type="text/css">
	.st0{fill:#262626;}
	.st1{fill:#3EB34F;}
</style>
<g id="b">
	<g id="_70">
		<path class="st0" d="M2.3,13C1.1,13,0,12,0,10.7V5.3C0,4,1.1,3,2.4,3H6v1H2.4C1.6,4,1,4.6,1,5.3v5.4C1,11.4,1.6,12,2.3,12H5v1H2.3
			z M12.7,13H9v-1h3.6c0.7,0,1.3-0.6,1.4-1.3V5.3C14,4.6,13.4,4,12.7,4H10V3h2.6C13.9,3,15,4,15,5.3v5.4C15,12,13.9,13,12.7,13z"/>
		<path class="st0" d="M15,6h0.5C15.8,6,16,6.2,16,6.4c0,0,0,0,0,0v0.1l0,0v3c0,0.3-0.2,0.5-0.4,0.5c0,0,0,0,0,0H15V6z"/>
		<polygon class="st1" points="8.8,6 10,6 10,5 9.1,5 		"/>
		<polygon class="st1" points="6.2,10 2.1,10 5.6,5 2,5 2,11 5.9,11 		"/>
		<polygon class="st1" points="9.4,11 10,11 10,10.1 		"/>
		<polygon class="st0" points="11,7 7.5,7 9,2 4,9 7.5,9 6,14 		"/>
	</g>
</g>
</svg>
