<?xml version="1.0" encoding="utf-8"?>
<!-- Generator: Adobe Illustrator 24.2.1, SVG Export Plug-In . SVG Version: 6.00 Build 0)  -->
<svg version="1.1" id="图层_1" xmlns="http://www.w3.org/2000/svg" xmlns:xlink="http://www.w3.org/1999/xlink" x="0px" y="0px"
	 viewBox="0 0 16 16" style="enable-background:new 0 0 16 16;" xml:space="preserve">
<style type="text/css">
	.st0{fill:#262626;}
	.st1{fill:#3EB34F;}
</style>
<g id="b">
	<g id="_70">
		<path class="st0" d="M13,4c0.6,0,1,0.4,1,1v6c0,0.6-0.4,1-1,1H2c-0.6,0-1-0.4-1-1V5c0-0.6,0.4-1,1-1H13 M13,3H2C0.9,3,0,3.9,0,5v6
			c0,1.1,0.9,2,2,2h11c1.1,0,2-0.9,2-2V5C15,3.9,14.1,3,13,3z"/>
		<rect x="2" y="5" class="st1" width="8" height="6"/>
		<path class="st0" d="M15,6h0.5C15.8,6,16,6.2,16,6.4c0,0,0,0,0,0v0.1l0,0v3c0,0.3-0.2,0.5-0.4,0.5c0,0,0,0,0,0H15V6z"/>
	</g>
</g>
</svg>
