<svg id="图层_1" data-name="图层 1" xmlns="http://www.w3.org/2000/svg" viewBox="0 0 16 16"><defs><style>.cls-1{fill:#262626;}</style></defs><g id="b"><g id="图层_2" data-name="图层 2"><path class="cls-1" d="M2.33,13A2.34,2.34,0,0,1,0,10.71V5.3A2.35,2.35,0,0,1,2.38,3H6V4H2.37A1.35,1.35,0,0,0,1,5.31V10.7A1.34,1.34,0,0,0,2.34,12H5v1H2.33Zm10.33,0H9V12h3.63A1.36,1.36,0,0,0,14,10.69V5.3A1.34,1.34,0,0,0,12.66,4H10V3h2.63A2.36,2.36,0,0,1,15,5.29V10.7A2.35,2.35,0,0,1,12.66,13Z"/><path class="cls-1" d="M15,6h.5a.47.47,0,0,1,.5.44V6.5h0v3a.47.47,0,0,1-.44.5H15Z"/><polygon class="cls-1" points="11 7 7.5 7 9 2 4 9 7.5 9 6 14 11 7"/></g></g></svg>