<svg id="图层_1" data-name="图层 1" xmlns="http://www.w3.org/2000/svg" viewBox="0 0 16 16"><defs><style>.cls-1{opacity:0.3;}.cls-2{fill:#262626;}</style></defs><g id="b"><g id="图层_31" data-name="图层 31"><g class="cls-1"><path class="cls-2" d="M8,9l1.8,1.8L8,12.3V9M7,6.6v7.9l4.2-3.7Z"/><path class="cls-2" d="M8,3.7,9.8,5.2,8,7V3.7M7,1.5V9.4l4.2-4.2Z"/><path class="cls-2" d="M7.5,8.26a.46.46,0,0,1-.33-.13l-4-4a.47.47,0,1,1,.66-.66l4,4a.47.47,0,0,1,0,.66A.46.46,0,0,1,7.5,8.26Z"/><path class="cls-2" d="M3.5,12.46a.46.46,0,0,1-.33-.13.47.47,0,0,1,0-.66l4-4a.47.47,0,0,1,.66.66l-4,4A.46.46,0,0,1,3.5,12.46Z"/></g></g></g></svg>