<svg id="图层_1" data-name="图层 1" xmlns="http://www.w3.org/2000/svg" viewBox="0 0 16 16"><defs><style>.cls-1{fill:#262626;}</style></defs><g id="c"><path class="cls-1" d="M12,7a1,1,0,0,1,1,1v5a1,1,0,0,1-1,1H4a1,1,0,0,1-1-1V8A1,1,0,0,1,4,7h8m0-1H4A2,2,0,0,0,2,8v5a2,2,0,0,0,2,2h8a2,2,0,0,0,2-2V8A2,2,0,0,0,12,6Z"/><path class="cls-1" d="M8,12a1,1,0,0,1-1-1V10a1,1,0,0,1,2,0v1A1,1,0,0,1,8,12Z"/><path class="cls-1" d="M4.5,6.5A.5.5,0,0,1,4,6V5a4,4,0,0,1,7.83-1.14,3.51,3.51,0,0,1,.13.58.51.51,0,0,1-.44.56A.52.52,0,0,1,11,4.56a1.51,1.51,0,0,0-.09-.41A3,3,0,0,0,5,5V6A.5.5,0,0,1,4.5,6.5Z"/></g></svg>