<svg id="图层_1" data-name="图层 1" xmlns="http://www.w3.org/2000/svg" viewBox="0 0 16 16"><defs><style>.cls-1{fill:#262626;}</style></defs><g id="c"><g id="图层_33" data-name="图层 33"><g id="图层_2" data-name="图层 2"><path class="cls-1" d="M13,2a1,1,0,0,1,1,1V13a1,1,0,0,1-1,1H3a1,1,0,0,1-1-1V3A1,1,0,0,1,3,2H13m0-1H3A2,2,0,0,0,1,3V13a2,2,0,0,0,2,2H13a2,2,0,0,0,2-2V3A2,2,0,0,0,13,1Z"/><path class="cls-1" d="M11,6.3V6A3,3,0,0,0,5,6v.3A1.93,1.93,0,0,0,4,8v3a2,2,0,0,0,2,2h4a2,2,0,0,0,2-2V8A1.93,1.93,0,0,0,11,6.3ZM8,4a2,2,0,0,1,2,2H6A2,2,0,0,1,8,4Zm3,7a.94.94,0,0,1-.88,1H6a.94.94,0,0,1-1-.88V8a.94.94,0,0,1,.88-1H10a.94.94,0,0,1,1,.88V11Z"/></g></g></g></svg>