<svg id="图层_1" data-name="图层 1" xmlns="http://www.w3.org/2000/svg" viewBox="0 0 16 16"><defs><style>.cls-1{fill:#262626;}</style></defs><g id="c"><g id="图层_32" data-name="图层 32"><path class="cls-1" d="M5,15H3.5A2.5,2.5,0,0,1,1,12.5v-9A2.5,2.5,0,0,1,3.5,1h9A2.5,2.5,0,0,1,15,3.5V10a.5.5,0,0,1-1,0V3.5A1.5,1.5,0,0,0,12.5,2h-9A1.5,1.5,0,0,0,2,3.5v9A1.5,1.5,0,0,0,3.5,14H5a.5.5,0,0,1,0,1Z"/><path class="cls-1" d="M9.63,8.55l-2.79,5a1,1,0,0,0,.44,1.34,1,1,0,0,0,.43.11h5.58a1,1,0,0,0,1-1,1.05,1.05,0,0,0-.13-.49l-2.79-5A1,1,0,0,0,10,8.16,1.06,1.06,0,0,0,9.63,8.55ZM11,14H10V13h1Zm-1-2V9h1v3Z"/><path class="cls-1" d="M6,13H5.5A1.5,1.5,0,0,1,4,11.5v-4A1.5,1.5,0,0,1,5.5,6h5A1.5,1.5,0,0,1,12,7.5a.5.5,0,0,1-1,0,.5.5,0,0,0-.5-.5h-5a.5.5,0,0,0-.5.5v4a.5.5,0,0,0,.5.5H6a.5.5,0,0,1,0,1Z"/><path class="cls-1" d="M10.5,7a.5.5,0,0,1-.5-.5V6A2,2,0,0,0,6,6v.5a.5.5,0,0,1-1,0V6a3,3,0,0,1,6,0v.5A.5.5,0,0,1,10.5,7Z"/></g></g></svg>