<svg id="图层_1" data-name="图层 1" xmlns="http://www.w3.org/2000/svg" viewBox="0 0 16 16"><defs><style>.cls-1{fill:#262626;}</style></defs><g id="d"><g id="信息"><path class="cls-1" d="M3.5,15a.53.53,0,0,1-.27-.08A.5.5,0,0,1,3,14.5V11.3a.5.5,0,0,1,1,0v2.43l3.29-1.49a.51.51,0,0,1,.42.92l-4,1.8A.52.52,0,0,1,3.5,15Z"/><path class="cls-1" d="M8,13.14H7.59a.5.5,0,0,1,0-1H8c3.31,0,6-2.27,6-5.07S11.31,2,8,2,2,4.28,2,7.09A4.71,4.71,0,0,0,3.81,10.7a.49.49,0,0,1,.08.7.49.49,0,0,1-.7.08A5.66,5.66,0,0,1,1,7.1C1,3.73,4.14,1,8,1s7,2.72,7,6.07S11.86,13.14,8,13.14Z"/><path class="cls-1" d="M10.5,10a.47.47,0,0,1-.35-.15l-5-5a.49.49,0,0,1,.7-.7l5,5a.48.48,0,0,1,0,.7A.47.47,0,0,1,10.5,10Z"/><path class="cls-1" d="M5.5,10a.47.47,0,0,1-.35-.15.48.48,0,0,1,0-.7l5-5a.49.49,0,0,1,.7.7l-5,5A.47.47,0,0,1,5.5,10Z"/></g></g></svg>