<svg id="图层_1" data-name="图层 1" xmlns="http://www.w3.org/2000/svg" viewBox="0 0 16 16"><defs><style>.cls-1{fill:#262626;}</style></defs><g id="d"><g id="信息"><path class="cls-1" d="M3.5,15a.53.53,0,0,1-.27-.08A.5.5,0,0,1,3,14.5V11.3a.5.5,0,0,1,1,0v2.43l3.29-1.49a.51.51,0,0,1,.42.92l-4,1.8A.52.52,0,0,1,3.5,15Z"/><path class="cls-1" d="M8,13.14H7.59a.5.5,0,0,1,0-1H8c3.31,0,6-2.27,6-5.07S11.31,2,8,2,2,4.28,2,7.09A4.71,4.71,0,0,0,3.81,10.7a.49.49,0,0,1,.08.7.49.49,0,0,1-.7.08A5.66,5.66,0,0,1,1,7.1C1,3.73,4.14,1,8,1s7,2.72,7,6.07S11.86,13.14,8,13.14Z"/><circle class="cls-1" cx="8.5" cy="10.5" r="0.5"/><path class="cls-1" d="M8.5,9.5A.5.5,0,0,1,8,9V8.6c0-.35.28-.63,1-1.29a6.84,6.84,0,0,0,.91-1A1.62,1.62,0,0,0,9.85,5,1.82,1.82,0,0,0,8.12,4a2.29,2.29,0,0,0-1.55.46A2.09,2.09,0,0,0,6,6.09a.5.5,0,0,1-1,.08A3.12,3.12,0,0,1,5.92,3.7,3.27,3.27,0,0,1,8.12,3a2.79,2.79,0,0,1,2.63,1.59,2.61,2.61,0,0,1,0,2.22A6.22,6.22,0,0,1,9.66,8,8,8,0,0,0,9,8.7V9A.5.5,0,0,1,8.5,9.5Z"/></g></g></svg>