<svg id="图层_1" data-name="图层 1" xmlns="http://www.w3.org/2000/svg" viewBox="0 0 16 16"><defs><style>.cls-1{fill:#262626;}</style></defs><g id="f"><g id="d"><g id="_16-10" data-name=" 16-10"><path class="cls-1" d="M2,14H1L1,4.18a1.35,1.35,0,0,1,.44-.83,1.31,1.31,0,0,1,1-.35h6a2.78,2.78,0,0,1,1.4.63,3,3,0,0,0,.62.37H11.8a1.51,1.51,0,0,1,1.38,1.5V7h-1V5.5a.5.5,0,0,0-.44-.5h-1.3a2.31,2.31,0,0,1-1.17-.54A2.83,2.83,0,0,0,8.44,4h-6A.37.37,0,0,0,2,4.35Z"/><path class="cls-1" d="M13.14,14H1l2.3-7A1.35,1.35,0,0,1,4.56,6h9.15A1.67,1.67,0,0,1,15,6.6a1.17,1.17,0,0,1,.24,1h0c-.06.28-.39,1.3-1.93,6.05ZM2.39,13h10c.71-2.19,1.7-5.23,1.8-5.58v0s0-.08-.05-.17A.67.67,0,0,0,13.71,7H4.59a.34.34,0,0,0-.31.27Z"/></g></g></g></svg>