<svg id="打开文件夹" xmlns="http://www.w3.org/2000/svg" viewBox="0 0 96 96"><defs><style>.cls-1{fill:#eba02f;}.cls-2{fill:#fff;}.cls-3{fill:#fcce59;}</style></defs><title>96</title><g id="_96" data-name="96"><path class="cls-1" d="M72,24H40.11l-7.54-8.48A2,2,0,0,0,31.23,15H14a8,8,0,0,0-8,8V77.59A7.41,7.41,0,0,0,13.41,85H70.59A7.41,7.41,0,0,0,78,77.59V30A6,6,0,0,0,72,24Z"/><rect class="cls-2" x="12" y="32" width="60" height="40" rx="3"/><path class="cls-3" d="M73.49,85H12.93a7.2,7.2,0,0,1-6.68-9.18l8-30.66A8,8,0,0,1,21.91,39H85a5.18,5.18,0,0,1,4.8,6.6L81.18,78.84A8,8,0,0,1,73.49,85Z"/></g></svg>