<svg id="图层_1" data-name="图层 1" xmlns="http://www.w3.org/2000/svg" viewBox="0 0 16 16"><defs><style>.cls-1{fill:#262626;}</style></defs><g id="i"><circle class="cls-1" cx="12" cy="6" r="1"/><path class="cls-1" d="M7.5,14h-4A2.5,2.5,0,0,1,1,11.5v-6A2.5,2.5,0,0,1,3.5,3h9A2.5,2.5,0,0,1,15,5.5v1a.5.5,0,0,1-1,0v-1A1.5,1.5,0,0,0,12.5,4h-9A1.5,1.5,0,0,0,2,5.5v6A1.5,1.5,0,0,0,3.5,13h4a.5.5,0,0,1,0,1Z"/><path class="cls-1" d="M9,10.11A1.5,1.5,0,0,1,9,8H9a1.43,1.43,0,0,1,.44-.3A1,1,0,0,0,8.23,8L6.5,10,5.42,9.28a.49.49,0,0,0-.69.13h0L3,12h7.88Z"/><path class="cls-1" d="M15,14.45a.47.47,0,0,1-.35-.15L9.7,9.4a.49.49,0,0,1,.7-.7l4.9,4.9a.48.48,0,0,1,0,.7A.47.47,0,0,1,15,14.45Z"/><path class="cls-1" d="M10.05,14.45a.47.47,0,0,1-.35-.15.48.48,0,0,1,0-.7l4.9-4.9a.49.49,0,0,1,.7.7l-4.9,4.9A.47.47,0,0,1,10.05,14.45Z"/></g></svg>