<svg id="图层_6" data-name="图层 6" xmlns="http://www.w3.org/2000/svg" xmlns:xlink="http://www.w3.org/1999/xlink" viewBox="0 0 96 96"><defs><style>.cls-1,.cls-8{fill:none;}.cls-2{fill:#ebe9dc;}.cls-3{fill:#d6d3c9;}.cls-4{fill:#c1a105;}.cls-5{clip-path:url(#clip-path);}.cls-6{fill:#6e8d2a;}.cls-7{fill:#91b33a;}.cls-8{stroke:#ed3146;stroke-linecap:round;stroke-miterlimit:10;stroke-width:5px;}.cls-9{fill:#ed3146;}</style><clipPath id="clip-path"><rect class="cls-1" x="19" y="28" width="58" height="44" rx="6"/></clipPath></defs><title>96</title><g id="_96" data-name="96"><circle class="cls-2" cx="48" cy="48" r="41.5"/><path class="cls-3" d="M48,9A39,39,0,1,1,9,48,39.05,39.05,0,0,1,48,9m0-5A44,44,0,1,0,92,48,44,44,0,0,0,48,4Z"/><circle class="cls-4" cx="66" cy="34" r="6"/><g class="cls-5"><path class="cls-6" d="M40.18,100.74S59,52.55,67.42,52.55s25.14,48.19,25.14,48.19Z"/><path class="cls-7" d="M11,86.19S29.86,38,38.24,38,63.38,86.19,63.38,86.19Z"/></g><g id="禁止"><line class="cls-8" x1="72.28" y1="16.14" x2="20.69" y2="76.83"/><path class="cls-9" d="M48,9A39,39,0,1,1,9,48,39.05,39.05,0,0,1,48,9m0-5A44,44,0,1,0,92,48,44,44,0,0,0,48,4Z"/></g></g></svg>