<svg id="图层_1" data-name="图层 1" xmlns="http://www.w3.org/2000/svg" viewBox="0 0 16 16"><defs><style>.cls-1{fill:#262626;}</style></defs><g id="k"><path class="cls-1" d="M13,8a1,1,0,0,1,1,1v3a1,1,0,0,1-1,1H3a1,1,0,0,1-1-1V9A1,1,0,0,1,3,8H13m0-1H3A2,2,0,0,0,1,9v3a2,2,0,0,0,2,2H13a2,2,0,0,0,2-2V9A2,2,0,0,0,13,7Z"/><polygon class="cls-1" points="5 9 3 9 3 10 5 10 5 9 5 9"/><polygon class="cls-1" points="8 9 6 9 6 10 8 10 8 9 8 9"/><polygon class="cls-1" points="10 9 9 9 9 10 10 10 10 9 10 9"/><polygon class="cls-1" points="13 9 11 9 11 10 13 10 13 9 13 9"/><polygon class="cls-1" points="5 11 3 11 3 12 5 12 5 11 5 11"/><polygon class="cls-1" points="13 11 11 11 11 12 13 12 13 11 13 11"/><polygon class="cls-1" points="10 11 6 11 6 12 10 12 10 11 10 11"/><path class="cls-1" d="M8.5,5A.5.5,0,0,1,8,4.5v-2a.5.5,0,0,1,1,0v2A.5.5,0,0,1,8.5,5Z"/><path class="cls-1" d="M12.3,6A.47.47,0,0,1,12,5.85a.48.48,0,0,1,0-.7l1.4-1.4a.49.49,0,0,1,.7.7l-1.4,1.4A.47.47,0,0,1,12.3,6Z"/><path class="cls-1" d="M3.7,6a.47.47,0,0,1-.35-.15L2,4.45a.49.49,0,1,1,.7-.7l1.4,1.4a.48.48,0,0,1,0,.7A.47.47,0,0,1,3.7,6Z"/></g></svg>