<svg id="kylin" xmlns="http://www.w3.org/2000/svg" viewBox="0 0 16 16"><defs><style>.cls-1{fill:#262626;}</style></defs><g id="_11" data-name=" 11"><path class="cls-1" d="M8,15.05a7.08,7.08,0,0,1-2-.3.5.5,0,0,1,.3-1A6,6,0,0,0,12.11,3.64a.5.5,0,1,1,.68-.74A7,7,0,0,1,8,15.05Z"/><path class="cls-1" d="M3.52,13.21a.5.5,0,0,1-.34-.13A7,7,0,0,1,10,1.23a.5.5,0,1,1-.3,1A6,6,0,0,0,3.5,3.86a6,6,0,0,0,.36,8.48.5.5,0,0,1-.34.87Z"/><path class="cls-1" d="M3.55,13.21a.45.45,0,0,1-.25-.07.49.49,0,0,1-.18-.68l1.09-1.88a.5.5,0,0,1,.86.5L4,13A.5.5,0,0,1,3.55,13.21Z"/><path class="cls-1" d="M11.36,5.67a.45.45,0,0,1-.25-.07.49.49,0,0,1-.18-.68L12,3.05a.5.5,0,1,1,.86.5L11.79,5.42A.5.5,0,0,1,11.36,5.67Z"/></g></svg>