<svg id="kylin" xmlns="http://www.w3.org/2000/svg" viewBox="0 0 16 16"><defs><style>.cls-1{fill:#262626;}</style></defs><g id="_10" data-name=" 10"><path class="cls-1" d="M9.49,14.83A.5.5,0,0,1,9,14.45a.52.52,0,0,1,.37-.61,6,6,0,0,0,0-11.68.5.5,0,1,1,.24-1,7,7,0,0,1,0,13.64Z"/><path class="cls-1" d="M6.48,14.82H6.36a7,7,0,0,1,0-13.62.5.5,0,0,1,.24,1,6,6,0,0,0,0,11.66.51.51,0,0,1,.37.61A.5.5,0,0,1,6.48,14.82Z"/><path class="cls-1" d="M6.5,14.8a.5.5,0,0,1-.5-.5V12.13a.5.5,0,0,1,1,0V14.3A.5.5,0,0,1,6.5,14.8Z"/><path class="cls-1" d="M9.5,4.37a.5.5,0,0,1-.5-.5V1.7a.5.5,0,1,1,1,0V3.87A.5.5,0,0,1,9.5,4.37Z"/></g></svg>