<svg id="kylin" xmlns="http://www.w3.org/2000/svg" viewBox="0 0 16 16"><defs><style>.cls-1{fill:#262626;}</style></defs><g id="_2" data-name=" 2"><path class="cls-1" d="M8,15.05A6.94,6.94,0,0,1,3.22,13.2a7,7,0,0,1-2-7.2.5.5,0,0,1,1,.3,6,6,0,0,0,10.15,5.81.5.5,0,1,1,.74.68A7,7,0,0,1,8,15.05Z"/><path class="cls-1" d="M14.29,10.33l-.15,0a.51.51,0,0,1-.33-.63A6,6,0,0,0,3.66,3.86a.5.5,0,1,1-.74-.68,7,7,0,0,1,9.89-.42,7,7,0,0,1,2,7.22A.51.51,0,0,1,14.29,10.33Z"/><path class="cls-1" d="M5.17,5.14a.45.45,0,0,1-.25-.07L3,4a.5.5,0,0,1,.5-.86L5.42,4.21a.5.5,0,0,1-.25.93Z"/><path class="cls-1" d="M12.71,13a.47.47,0,0,1-.25-.07L10.58,11.8a.5.5,0,0,1,.5-.86L13,12a.5.5,0,0,1-.25.93Z"/></g></svg>