<svg id="kylin" xmlns="http://www.w3.org/2000/svg" viewBox="0 0 16 16"><defs><style>.cls-1{fill:#262626;}</style></defs><g id="_12" data-name=" 12"><path class="cls-1" d="M8,15.09a7,7,0,0,1-5.18-2.28.5.5,0,0,1,0-.71.51.51,0,0,1,.71,0,6,6,0,0,0,6.24,1.68,6,6,0,0,0,3.91-7.53.5.5,0,0,1,1-.3,7,7,0,0,1-4.57,8.78A6.87,6.87,0,0,1,8,15.09Z"/><path class="cls-1" d="M1.76,10.34A.49.49,0,0,1,1.28,10,7,7,0,0,1,13.06,3.17a.5.5,0,0,1-.72.7A6,6,0,0,0,2.24,9.7a.5.5,0,0,1-.34.62Z"/><path class="cls-1" d="M1.79,10.35a.5.5,0,0,1-.25-.93L3.42,8.34a.5.5,0,1,1,.5.86L2,10.28A.45.45,0,0,1,1.79,10.35Z"/><path class="cls-1" d="M12.33,7.74a.5.5,0,0,1-.25-.93L14,5.72a.5.5,0,1,1,.5.86L12.58,7.67A.45.45,0,0,1,12.33,7.74Z"/></g></svg>