<svg id="kylin" xmlns="http://www.w3.org/2000/svg" viewBox="0 0 16 16"><defs><style>.cls-1{fill:#262626;}</style></defs><g id="_7" data-name=" 7"><path class="cls-1" d="M14.33,7a.5.5,0,0,1-.49-.38,6,6,0,0,0-11.68,0A.52.52,0,0,1,1.55,7a.51.51,0,0,1-.37-.61,7,7,0,0,1,13.64,0,.52.52,0,0,1-.37.61Z"/><path class="cls-1" d="M8,15a7.12,7.12,0,0,1-1.64-.19A7,7,0,0,1,1.19,9.65.51.51,0,0,1,1.56,9a.52.52,0,0,1,.61.37,6,6,0,0,0,11.66,0,.5.5,0,1,1,1,.24A7,7,0,0,1,8,15Z"/><path class="cls-1" d="M14.3,10H12.13a.5.5,0,0,1,0-1H14.3a.5.5,0,0,1,0,1Z"/><path class="cls-1" d="M3.87,7H1.7a.5.5,0,1,1,0-1H3.87a.5.5,0,1,1,0,1Z"/></g></svg>