<svg id="kylin" xmlns="http://www.w3.org/2000/svg" viewBox="0 0 16 16"><defs><style>.cls-1{fill:#262626;}</style></defs><g id="_4" data-name=" 4"><path class="cls-1" d="M6.51,14.83H6.39a7,7,0,0,1,0-13.63A.52.52,0,0,1,7,1.56a.52.52,0,0,1-.37.61,6,6,0,0,0,0,11.67.52.52,0,0,1,.37.61A.51.51,0,0,1,6.51,14.83Z"/><path class="cls-1" d="M9.53,14.82A.5.5,0,0,1,9,14.44a.51.51,0,0,1,.37-.61,6,6,0,0,0,0-11.66.5.5,0,0,1,.24-1,7,7,0,0,1,0,13.62Z"/><path class="cls-1" d="M9.5,4.37a.5.5,0,0,1-.5-.5V1.7a.5.5,0,1,1,1,0V3.87A.5.5,0,0,1,9.5,4.37Z"/><path class="cls-1" d="M6.5,14.8a.5.5,0,0,1-.5-.5V12.13a.5.5,0,0,1,1,0V14.3A.5.5,0,0,1,6.5,14.8Z"/></g></svg>