<svg id="kylin" xmlns="http://www.w3.org/2000/svg" viewBox="0 0 16 16"><defs><style>.cls-1{fill:#262626;}</style></defs><g id="_8" data-name=" 8"><path class="cls-1" d="M14.26,10.36l-.15,0a.51.51,0,0,1-.33-.63A6,6,0,0,0,3.63,3.89a.51.51,0,0,1-.71,0,.5.5,0,0,1,0-.71A7,7,0,0,1,14.74,10,.51.51,0,0,1,14.26,10.36Z"/><path class="cls-1" d="M7.92,15.08A7,7,0,0,1,1.23,6a.5.5,0,0,1,1,.3,6,6,0,0,0,10.15,5.82.5.5,0,1,1,.74.68A7,7,0,0,1,7.92,15.08Z"/><path class="cls-1" d="M12.71,13a.47.47,0,0,1-.25-.07L10.58,11.8a.5.5,0,0,1,.5-.86L13,12a.5.5,0,0,1-.25.93Z"/><path class="cls-1" d="M5.17,5.14a.45.45,0,0,1-.25-.07L3.05,4a.5.5,0,0,1,.5-.86L5.42,4.21a.5.5,0,0,1-.25.93Z"/></g></svg>