<svg id="kylin" xmlns="http://www.w3.org/2000/svg" viewBox="0 0 16 16"><defs><style>.cls-1{fill:#262626;}</style></defs><g id="_6" data-name=" 6"><path class="cls-1" d="M1.78,10.38A.5.5,0,0,1,1.3,10,7,7,0,0,1,13.08,3.19a.5.5,0,1,1-.72.68A6,6,0,0,0,6.27,2.26,5.88,5.88,0,0,0,2.72,5.17a6,6,0,0,0-.46,4.57.5.5,0,0,1-.34.62Z"/><path class="cls-1" d="M8,15a6.93,6.93,0,0,1-5.06-2.18.5.5,0,0,1,.72-.68A6,6,0,0,0,13.76,6.3a.5.5,0,1,1,1-.28A7,7,0,0,1,10,14.72,6.91,6.91,0,0,1,8,15Z"/><path class="cls-1" d="M12.33,7.74a.5.5,0,0,1-.25-.93L14,5.72a.5.5,0,1,1,.5.86L12.58,7.67A.45.45,0,0,1,12.33,7.74Z"/><path class="cls-1" d="M1.8,10.35a.5.5,0,0,1-.25-.93L3.42,8.34a.5.5,0,1,1,.5.86L2.05,10.28A.45.45,0,0,1,1.8,10.35Z"/></g></svg>