<svg id="kylin" xmlns="http://www.w3.org/2000/svg" viewBox="0 0 16 16"><defs><style>.cls-1{fill:#262626;}</style></defs><g id="_5" data-name=" 5"><path class="cls-1" d="M3.55,13.24a.5.5,0,0,1-.34-.13A7,7,0,0,1,10,1.26a.5.5,0,1,1-.3,1A6,6,0,0,0,3.89,12.37a.51.51,0,0,1,0,.71A.5.5,0,0,1,3.55,13.24Z"/><path class="cls-1" d="M8.07,15.08A7.18,7.18,0,0,1,6,14.77a.5.5,0,0,1,.3-1A6,6,0,0,0,12.14,3.66a.5.5,0,1,1,.68-.74A7,7,0,0,1,8.07,15.08Z"/><path class="cls-1" d="M11.37,5.67a.47.47,0,0,1-.25-.07.49.49,0,0,1-.18-.68L12,3.05a.5.5,0,1,1,.86.5L11.8,5.42A.5.5,0,0,1,11.37,5.67Z"/><path class="cls-1" d="M3.55,13.21a.45.45,0,0,1-.25-.07.49.49,0,0,1-.18-.68l1.09-1.88a.5.5,0,0,1,.86.5L4,13A.5.5,0,0,1,3.55,13.21Z"/></g></svg>