<svg id="kylin" xmlns="http://www.w3.org/2000/svg" viewBox="0 0 16 16"><defs><style>.cls-1{fill:#262626;}</style></defs><g id="_9" data-name=" 9"><path class="cls-1" d="M12.47,13.22a.5.5,0,0,1-.34-.86A6,6,0,0,0,6.27,2.26.5.5,0,1,1,6,1.3a7,7,0,0,1,6.82,11.78A.49.49,0,0,1,12.47,13.22Z"/><path class="cls-1" d="M8,15A7,7,0,0,1,3.17,2.94a.5.5,0,1,1,.68.72A6,6,0,0,0,9.7,13.76a.5.5,0,0,1,.28,1A6.83,6.83,0,0,1,8,15Z"/><path class="cls-1" d="M9.85,14.71a.5.5,0,0,1-.43-.25L8.34,12.58a.5.5,0,1,1,.86-.5L10.28,14a.49.49,0,0,1-.18.68A.47.47,0,0,1,9.85,14.71Z"/><path class="cls-1" d="M7.23,4.18a.5.5,0,0,1-.43-.25L5.72,2.05a.5.5,0,1,1,.86-.5L7.66,3.43a.49.49,0,0,1-.18.68A.47.47,0,0,1,7.23,4.18Z"/></g></svg>