<svg id="图层_1" data-name="图层 1" xmlns="http://www.w3.org/2000/svg" viewBox="0 0 16 16"><defs><style>.cls-1{fill:#262626;}</style></defs><g id="m"><path class="cls-1" d="M7.5,15.05h-4A2.5,2.5,0,0,1,1,12.55v-6A2.52,2.52,0,0,1,2.07,4.49L6.58,1.38a2.5,2.5,0,0,1,2.84,0l4.5,3.06A2.5,2.5,0,0,1,15,6.5v1a.5.5,0,0,1-1,0v-1a1.49,1.49,0,0,0-.65-1.24L8.86,2.2a1.52,1.52,0,0,0-1.71,0L2.64,5.31A1.51,1.51,0,0,0,2,6.55v6a1.5,1.5,0,0,0,1.5,1.5h4a.5.5,0,0,1,0,1Z"/><path class="cls-1" d="M2.13,14.37a.54.54,0,0,1-.37-.16.51.51,0,0,1,0-.71L7,8.75a.5.5,0,1,1,.68.74L2.47,14.24A.5.5,0,0,1,2.13,14.37Z"/><rect class="cls-1" x="3.5" y="4.3" width="1" height="6.4" transform="translate(-4.36 5.94) rotate(-51.34)"/><path class="cls-1" d="M15.5,16a.5.5,0,0,1-.5-.5c0-1.7-.82-2.4-3-2.49V14.5a.5.5,0,0,1-.28.45.51.51,0,0,1-.53-.06l-4.5-3.5a.5.5,0,0,1,0-.78l4.5-3.5a.51.51,0,0,1,.53-.06A.5.5,0,0,1,12,7.5V9a4.34,4.34,0,0,1,4,4.58V15.5h0A.5.5,0,0,1,15.5,16ZM7.81,11,11,13.48v-1a.5.5,0,0,1,.5-.5,5.45,5.45,0,0,1,3.48.89A3.35,3.35,0,0,0,11.88,10h-.36a.52.52,0,0,1-.37-.14A.51.51,0,0,1,11,9.5v-1Z"/></g></svg>