<svg id="图层_1" data-name="图层 1" xmlns="http://www.w3.org/2000/svg" viewBox="0 0 16 16"><defs><style>.cls-1{fill:#262626;}</style></defs><g id="m"><path class="cls-1" d="M12.5,14h-9A2.5,2.5,0,0,1,1,11.5v-6A2.5,2.5,0,0,1,3.5,3h9A2.5,2.5,0,0,1,15,5.5v6A2.5,2.5,0,0,1,12.5,14ZM3.5,4A1.5,1.5,0,0,0,2,5.5v6A1.5,1.5,0,0,0,3.5,13h9A1.5,1.5,0,0,0,14,11.5v-6A1.5,1.5,0,0,0,12.5,4Z"/><path class="cls-1" d="M13.66,13.37,8.34,8.49a.5.5,0,0,0-.68,0L2.34,13.37l-.68-.74L7,7.75a1.51,1.51,0,0,1,2,0l5.32,4.88Z"/><rect class="cls-1" x="3.5" y="3.3" width="1" height="6.4" transform="translate(-3.57 5.56) rotate(-51.34)"/><rect class="cls-1" x="8.8" y="6" width="6.4" height="1" transform="matrix(0.78, -0.62, 0.62, 0.78, -1.43, 8.92)"/></g></svg>