<svg id="图层_1" data-name="图层 1" xmlns="http://www.w3.org/2000/svg" viewBox="0 0 16 16"><defs><style>.cls-1{fill:#262626;}</style></defs><g id="m"><path class="cls-1" d="M12.5,15.05h-9A2.5,2.5,0,0,1,1,12.55v-6A2.52,2.52,0,0,1,2.07,4.49l4.5-3.11a2.52,2.52,0,0,1,2.85,0l4.5,3.11A2.5,2.5,0,0,1,15,6.55v6A2.5,2.5,0,0,1,12.5,15.05ZM8,1.93a1.46,1.46,0,0,0-.85.27h0L2.64,5.31A1.51,1.51,0,0,0,2,6.55v6a1.5,1.5,0,0,0,1.5,1.5h9a1.5,1.5,0,0,0,1.5-1.5v-6a1.49,1.49,0,0,0-.65-1.24L8.86,2.2A1.51,1.51,0,0,0,8,1.93Z"/><path class="cls-1" d="M13.66,14.37,8.34,9.49a.5.5,0,0,0-.68,0L2.34,14.37l-.68-.74L7,8.75a1.51,1.51,0,0,1,2,0l5.32,4.88Z"/><rect class="cls-1" x="3.5" y="4.3" width="1" height="6.4" transform="translate(-4.36 5.94) rotate(-51.34)"/><rect class="cls-1" x="8.8" y="7" width="6.4" height="1" transform="matrix(0.78, -0.62, 0.62, 0.78, -2.06, 9.14)"/></g></svg>