<svg id="图层_1" data-name="图层 1" xmlns="http://www.w3.org/2000/svg" viewBox="0 0 16 16"><defs><style>.cls-1{fill:#262626;}</style></defs><g id="m"><path class="cls-1" d="M9.63,11A.45.45,0,0,1,9.38,11a.49.49,0,0,1-.18-.68l2.56-4.47A2.57,2.57,0,1,0,7.3,3.25L4.74,7.72a.5.5,0,1,1-.86-.5L6.44,2.75a3.57,3.57,0,0,1,6.19,3.56l-2.57,4.48A.5.5,0,0,1,9.63,11Z"/><path class="cls-1" d="M7.33,13a2.51,2.51,0,0,1-1.26-.34,2.56,2.56,0,0,1-.93-3.48L8.21,3.81a.5.5,0,1,1,.86.5L6,9.63a1.55,1.55,0,0,0,2.69,1.55l1.53-2.66a.5.5,0,0,1,.86.5L9.55,11.68A2.56,2.56,0,0,1,7.33,13Z"/><path class="cls-1" d="M7.35,15.06a4.53,4.53,0,0,1-2.21-.58l-.09-.05A4.57,4.57,0,0,1,3.33,8.18l2.6-4.51a.5.5,0,1,1,.86.5L4.23,8.61a3.62,3.62,0,1,0,6.27,3.6l2-3.56a.51.51,0,1,1,.88.5l-2,3.55A4.62,4.62,0,0,1,7.35,15.06Z"/></g></svg>