<svg id="图层_1" data-name="图层 1" xmlns="http://www.w3.org/2000/svg" viewBox="0 0 16 16"><defs><style>.cls-1{fill:#262626;}</style></defs><g id="m"><g id="left"><path class="cls-1" d="M6.5,14a.57.57,0,0,1-.28-.08l-3-2a.51.51,0,0,1,0-.84l3-2a.5.5,0,1,1,.56.84L4.4,11.5l2.38,1.58a.51.51,0,0,1,.14.7A.52.52,0,0,1,6.5,14Z"/><path class="cls-1" d="M12.5,12H3.8a.5.5,0,0,1,0-1h8.7a.5.5,0,0,1,0,1Z"/><path class="cls-1" d="M6.5,8a.57.57,0,0,1-.28-.08l-3-2a.51.51,0,0,1,0-.84l3-2a.5.5,0,0,1,.56.84L4.4,5.5,6.78,7.08a.51.51,0,0,1,.14.7A.52.52,0,0,1,6.5,8Z"/><path class="cls-1" d="M12.5,6H3.8a.5.5,0,0,1,0-1h8.7a.5.5,0,0,1,0,1Z"/></g></g></svg>