<svg id="图层_1" data-name="图层 1" xmlns="http://www.w3.org/2000/svg" viewBox="0 0 16 16"><defs><style>.cls-1{fill:#262626;}</style></defs><g id="m"><g id="left"><path class="cls-1" d="M9.5,14a.52.52,0,0,1-.42-.22.51.51,0,0,1,.14-.7L11.6,11.5,9.22,9.92a.5.5,0,0,1,.56-.84l3,2a.51.51,0,0,1,0,.84l-3,2A.57.57,0,0,1,9.5,14Z"/><path class="cls-1" d="M12.2,12H3.5a.5.5,0,0,1,0-1h8.7a.5.5,0,0,1,0,1Z"/><path class="cls-1" d="M9.5,8a.52.52,0,0,1-.42-.22.51.51,0,0,1,.14-.7L11.6,5.5,9.22,3.92a.5.5,0,1,1,.56-.84l3,2a.51.51,0,0,1,0,.84l-3,2A.57.57,0,0,1,9.5,8Z"/><path class="cls-1" d="M12.2,6H3.5a.5.5,0,0,1,0-1h8.7a.5.5,0,0,1,0,1Z"/></g></g></svg>