<svg id="图层_1" data-name="图层 1" xmlns="http://www.w3.org/2000/svg" viewBox="0 0 16 16"><defs><style>.cls-1{fill:#262626;}</style></defs><g id="m"><path class="cls-1" d="M4.5,14a.57.57,0,0,1-.28-.08l-3-2a.51.51,0,0,1,0-.84l3-2a.5.5,0,1,1,.56.84L2.4,11.5l2.38,1.58a.51.51,0,0,1,.14.7A.52.52,0,0,1,4.5,14Z"/><path class="cls-1" d="M4.5,7a.57.57,0,0,1-.28-.08l-3-2a.51.51,0,0,1,0-.84l3-2a.5.5,0,0,1,.56.84L2.4,4.5,4.78,6.08a.51.51,0,0,1,.14.7A.52.52,0,0,1,4.5,7Z"/><path class="cls-1" d="M11,5.61a.49.49,0,0,1-.41-.21.51.51,0,0,1,.12-.7A3.92,3.92,0,0,1,13,4H14.5a.5.5,0,0,1,0,1H13a2.75,2.75,0,0,0-1.71.52A.52.52,0,0,1,11,5.61Z"/><path class="cls-1" d="M14.5,12H13A4,4,0,0,1,9,8a.5.5,0,0,1,.5-.5h0A.5.5,0,0,1,10,8a3,3,0,0,0,3,3h1.5a.5.5,0,0,1,0,1Z"/><path class="cls-1" d="M9.5,8.5A.5.5,0,0,1,9,8,3,3,0,0,0,6,5H2A.5.5,0,0,1,2,4H6a4,4,0,0,1,4,4A.5.5,0,0,1,9.5,8.5Z"/><path class="cls-1" d="M6.05,12H2a.5.5,0,0,1,0-1H6a3.15,3.15,0,0,0,1.72-.51.5.5,0,1,1,.56.82A3.94,3.94,0,0,1,6.05,12Z"/></g></svg>