<svg id="图层_1" data-name="图层 1" xmlns="http://www.w3.org/2000/svg" viewBox="0 0 16 16"><defs><style>.cls-1{fill:#262626;}</style></defs><g id="m"><path class="cls-1" d="M8.8,6a.52.52,0,0,1-.21,0L5.31,4.42A.48.48,0,0,1,5,4a.51.51,0,0,1,.15-.45L7.82,1.13a.51.51,0,0,1,.71,0,.51.51,0,0,1,0,.71L6.41,3.81,9,5A.5.5,0,0,1,8.8,6Z"/><path class="cls-1" d="M9,13V7H7.6l-.1.3c-.1.3-.1.4-.2.5a2.36,2.36,0,0,1-1,.5l.2,1A6.41,6.41,0,0,0,8,8.6H8V13Z"/><path class="cls-1" d="M8,15A6,6,0,0,1,2,9a6.07,6.07,0,0,1,.23-1.64A.51.51,0,0,1,2.85,7a.5.5,0,0,1,.34.62A4.92,4.92,0,0,0,3,9a5,5,0,0,0,5,5H8A5,5,0,0,0,8,4H8a5,5,0,0,0-1.79.34.5.5,0,0,1-.64-.29.49.49,0,0,1,.28-.64A5.87,5.87,0,0,1,8,3H8A6,6,0,0,1,8,15Z"/></g></svg>