<svg id="图层_1" data-name="图层 1" xmlns="http://www.w3.org/2000/svg" viewBox="0 0 16 16"><defs><style>.cls-1{fill:#262626;}</style></defs><g id="m"><path class="cls-1" d="M7.2,6A.5.5,0,0,1,7,5l2.6-1.19L7.5,1.87a.51.51,0,0,1,0-.71.51.51,0,0,1,.71,0l2.64,2.46A.51.51,0,0,1,11,4a.48.48,0,0,1-.28.38L7.41,5.91A.52.52,0,0,1,7.2,6Z"/><path class="cls-1" d="M8,15H8A6,6,0,0,1,8,3H8a5.87,5.87,0,0,1,2.15.41.48.48,0,0,1,.28.64.5.5,0,0,1-.64.29A5,5,0,0,0,8,4H8a5,5,0,0,0-3.55,8.52A5,5,0,0,0,13,9a4.92,4.92,0,0,0-.19-1.37A.5.5,0,0,1,13.15,7a.51.51,0,0,1,.62.35A6.07,6.07,0,0,1,14,9,6,6,0,0,1,8,15Z"/><path class="cls-1" d="M9,13V7H7.6l-.1.3c-.1.3-.1.4-.2.5a2.36,2.36,0,0,1-1,.5l.2,1A6.41,6.41,0,0,0,8,8.6H8V13Z"/></g></svg>