<svg id="图层_1" data-name="图层 1" xmlns="http://www.w3.org/2000/svg" viewBox="0 0 16 16"><defs><style>.cls-1{fill:#262626;}.cls-2{opacity:0.3;isolation:isolate;}</style></defs><g id="a"><g id="_16" data-name=" 16"><path class="cls-1" d="M5.5,3A1.5,1.5,0,0,1,7,4.5v4a1.5,1.5,0,0,1-3,0v-4A1.5,1.5,0,0,1,5.5,3m0-1A2.5,2.5,0,0,0,3,4.5v4a2.5,2.5,0,0,0,5,0v-4A2.5,2.5,0,0,0,5.5,2Z"/><path class="cls-1" d="M5.5,13A4.51,4.51,0,0,1,1,8.5V7A.5.5,0,0,1,2,7V8.5a3.5,3.5,0,0,0,7,0V7a.5.5,0,0,1,1,0V8.5A4.51,4.51,0,0,1,5.5,13Z"/><path class="cls-1" d="M6.5,15h-2a.5.5,0,0,1,0-1h2a.5.5,0,0,1,0,1Z"/><rect class="cls-1" x="5" y="12" width="1" height="2"/></g><g class="cls-2"><path class="cls-1" d="M13.27,12.44a.46.46,0,0,1-.33-.13,5.76,5.76,0,0,1-.48-8.14L12.61,4a1.23,1.23,0,0,1,.44-.39.5.5,0,1,1,.44.9.69.69,0,0,0-.11.12,2,2,0,0,1-.2.22,4.79,4.79,0,0,0,.42,6.72.48.48,0,0,1,0,.7A.5.5,0,0,1,13.27,12.44Z"/></g><path class="cls-1" d="M14.44,10.86a.5.5,0,0,1-.37-.16,4.05,4.05,0,0,1,.1-5.59.5.5,0,0,1,.72.7A3,3,0,0,0,14.81,10a.5.5,0,0,1-.37.84Z"/></g><circle class="cls-1" cx="5.5" cy="5.5" r="0.5"/><circle class="cls-1" cx="5.5" cy="7.5" r="0.5"/></svg>