<?xml version="1.0" encoding="utf-8"?>
<!-- Generator: Adobe Illustrator 24.0.0, SVG Export Plug-In . SVG Version: 6.00 Build 0)  -->
<svg version="1.1" id="图层_1" xmlns="http://www.w3.org/2000/svg" xmlns:xlink="http://www.w3.org/1999/xlink" x="0px" y="0px"
	 viewBox="0 0 16 16" style="enable-background:new 0 0 16 16;" xml:space="preserve">
<style type="text/css">
	.st0{display:none;}
	.st1{display:inline;}
	.st2{opacity:0.3;}
	.st3{fill:#262626;}
	.st4{fill:none;stroke:#262626;stroke-miterlimit:10;}
	.st5{opacity:0.3;fill:#262626;}
</style>
<g id="n" class="st0">
	<g id="图层_2_1_" class="st1">
		<g class="st2">
			<path class="st3" d="M8,14v-2l0,0c-0.8,0-1.5,0.7-1.5,1.5S7.2,15,8,15h0.3C8.1,14.7,8,14.4,8,14z"/>
			<path class="st3" d="M14.5,6.4c-0.1,0-0.2,0-0.3-0.1C12.5,4.8,10.3,4,8,4C5.7,4,3.6,4.8,1.8,6.2C1.6,6.4,1.3,6.3,1.1,6.1
				C1,5.9,1,5.6,1.2,5.5C3.1,3.9,5.5,3,8,3c2.5,0,5,0.9,6.8,2.6c0.2,0.2,0.2,0.5,0,0.7c0,0,0,0,0,0C14.7,6.4,14.6,6.4,14.5,6.4z"/>
			<path class="st3" d="M9,10c0-0.3,0-0.5,0.1-0.8c-1.5-0.4-3.1,0-4.2,1c-0.2,0.2-0.2,0.5,0,0.7c0,0,0,0,0,0l0,0
				c0.2,0.2,0.5,0.2,0.7,0c0.9-0.8,2.2-1.1,3.4-0.7V10z"/>
			<path class="st3" d="M11.7,7C10.5,6.4,9.3,6,8,6C6.2,6,4.4,6.7,3.1,8c-0.2,0.2-0.2,0.5,0,0.7c0.2,0.2,0.5,0.2,0.7,0c0,0,0,0,0,0
				l0,0C4.9,7.6,6.4,7,8,7c0.8,0,1.6,0.2,2.4,0.5C10.8,7.2,11.2,7.1,11.7,7z"/>
		</g>
		<path class="st3" d="M14,11v-1c0-1.1-0.9-2-2-2s-2,0.9-2,2v1l0,0c-0.6,0-1,0.4-1,1v2c0,0.6,0.4,1,1,1h4c0.6,0,1-0.4,1-1v-2
			C15,11.4,14.6,11,14,11z M11,10c0-0.6,0.4-1,1-1s1,0.4,1,1v1h-2V10z"/>
	</g>
</g>
<g id="图层_3">
	<g>
		<path class="st3" d="M15,13v2h-3v-2H15 M15,12h-3c-0.6,0-1,0.4-1,1v2c0,0.6,0.4,1,1,1h3c0.6,0,1-0.4,1-1v-2C16,12.4,15.6,12,15,12
			L15,12z"/>
		<path class="st4" d="M12.5,12v-0.5c0-0.6,0.4-1,1-1l0,0c0.6,0,1,0.4,1,1V12"/>
	</g>
</g>
<g>
	<path class="st5" d="M8.1,14l1.4-1.4C9.1,12.2,8.6,12,8,12s-1.1,0.2-1.4,0.6L8.1,14z"/>
	<path class="st5" d="M8,9c-1.4,0-2.7,0.6-3.6,1.6l0.7,0.7C5.9,10.5,6.9,10,8,10s2.2,0.5,2.9,1.2l0.7-0.7C10.7,9.6,9.5,9,8,9z"/>
	<path class="st5" d="M8,6C5.8,6,3.7,7,2.2,8.5L3,9.2C4.2,7.8,6,7,8,7s3.8,0.8,5,2.1l0.7-0.7C12.3,6.9,10.3,6,8,6z"/>
	<path class="st5" d="M0.1,6.4l0.7,0.7C2.6,5.2,5.2,4,8,4s5.4,1.2,7.2,3.1l0.7-0.7C13.9,4.3,11.1,3,8,3S2.1,4.3,0.1,6.4z"/>
</g>
</svg>
