<svg id="图层_1" data-name="图层 1" xmlns="http://www.w3.org/2000/svg" viewBox="0 0 16 16"><defs><style>.cls-1{fill:#262626;}</style></defs><g id="n"><path class="cls-1" d="M3.27,11.88a.46.46,0,0,1-.33-.13,5.76,5.76,0,0,1-.48-8.14l.15-.17a1.23,1.23,0,0,1,.44-.39.5.5,0,0,1,.44.9.69.69,0,0,0-.11.12,2,2,0,0,1-.2.22A4.79,4.79,0,0,0,3.6,11a.48.48,0,0,1,0,.7A.5.5,0,0,1,3.27,11.88Z"/><path class="cls-1" d="M4.44,10.3a.5.5,0,0,1-.37-.16,4.05,4.05,0,0,1,.1-5.59.5.5,0,1,1,.72.7,3,3,0,0,0-.08,4.21.5.5,0,0,1-.37.84Z"/><circle class="cls-1" cx="7.5" cy="7.5" r="1.5"/><path class="cls-1" d="M7.5,14a.5.5,0,0,1-.5-.5v-6a.5.5,0,0,1,1,0v6A.5.5,0,0,1,7.5,14Z"/><path class="cls-1" d="M11,7.18A2.85,2.85,0,0,1,12,7a4.25,4.25,0,0,0-1.13-2.44.5.5,0,0,0-.72.68A3.27,3.27,0,0,1,11,7.18Z"/><path class="cls-1" d="M11.54,4l.11.12.17.2A4.81,4.81,0,0,1,13,7.18a3.2,3.2,0,0,1,1,.61h0a5.79,5.79,0,0,0-1.47-4.2l-.13-.14a1.27,1.27,0,0,0-.4-.4.48.48,0,0,0-.65.22A.52.52,0,0,0,11.5,4Z"/><path class="cls-1" d="M14,11V10a2,2,0,0,0-4,0v1h0a1,1,0,0,0-1,1v2a1,1,0,0,0,1,1h4a1,1,0,0,0,1-1V12A1,1,0,0,0,14,11Zm-3-1a1,1,0,0,1,2,0v1H11Z"/></g></svg>