<svg id="图层_1" data-name="图层 1" xmlns="http://www.w3.org/2000/svg" viewBox="0 0 16 16"><defs><style>.cls-1{fill:#262626;}</style></defs><g id="n"><path class="cls-1" d="M6.5,12a.5.5,0,0,1-.5-.5v-6a.5.5,0,0,1,1,0v6A.5.5,0,0,1,6.5,12Z"/><path class="cls-1" d="M8.5,10h-2a.5.5,0,0,1,0-1h2a1.5,1.5,0,0,0,0-3h-2a.5.5,0,0,1,0-1h2a2.5,2.5,0,0,1,0,5Z"/><path class="cls-1" d="M2.5,12A.49.49,0,0,1,2,11.66l-2-6A.49.49,0,0,1,.34,5,.49.49,0,0,1,1,5.34L2.5,9.92,4,5.34A.5.5,0,1,1,5,5.66l-2,6A.49.49,0,0,1,2.5,12Z"/><path class="cls-1" d="M15.5,12a.49.49,0,0,1-.45-.28L13,7.62V11.5a.5.5,0,0,1-1,0v-6A.5.5,0,0,1,13,5.28L15,9.38V5.5a.5.5,0,0,1,1,0v6a.51.51,0,0,1-.38.49Z"/></g></svg>