<svg id="图层_1" data-name="图层 1" xmlns="http://www.w3.org/2000/svg" viewBox="0 0 16 16"><defs><style>.cls-1,.cls-3{opacity:0.3;isolation:isolate;}.cls-2,.cls-3{fill:#262626;}</style></defs><g id="n"><g class="cls-1"><path class="cls-2" d="M3.27,11.9a.46.46,0,0,1-.33-.13,5.79,5.79,0,0,1-.49-8.1,2.07,2.07,0,0,0,.16-.17,1.23,1.23,0,0,1,.44-.39.5.5,0,1,1,.44.9.69.69,0,0,0-.11.12,2,2,0,0,1-.2.22A4.8,4.8,0,0,0,3.6,11a.48.48,0,0,1,0,.7A.5.5,0,0,1,3.27,11.9Z"/></g><g class="cls-1"><path class="cls-2" d="M4.44,10.32a.5.5,0,0,1-.37-.16,4.05,4.05,0,0,1,.1-5.59.5.5,0,1,1,.72.7,3,3,0,0,0-.08,4.21.5.5,0,0,1-.37.84Z"/></g><path class="cls-3" d="M9,7.52A1.5,1.5,0,1,0,7,8.93v4.59a.5.5,0,0,0,1,0V8.93A1.5,1.5,0,0,0,9,7.52Z"/><path class="cls-3" d="M11,7.2A3.12,3.12,0,0,1,12,7a4.25,4.25,0,0,0-1.13-2.44.5.5,0,0,0-.7-.12.51.51,0,0,0-.12.7.47.47,0,0,0,.1.1A3.21,3.21,0,0,1,11,7.2Z"/><path class="cls-3" d="M11.54,4l.11.12.17.2A4.8,4.8,0,0,1,13,7.2a3.05,3.05,0,0,1,1,.62h0a5.76,5.76,0,0,0-1.47-4.19l-.13-.15a1.42,1.42,0,0,0-.4-.41.48.48,0,0,0-.65.22.51.51,0,0,0,.17.7Z"/><path class="cls-2" d="M14,11V10a2,2,0,0,0-4,0v1h0a1,1,0,0,0-1,1v2a1,1,0,0,0,1,1h4a1,1,0,0,0,1-1V12A1,1,0,0,0,14,11Zm-3-1a1,1,0,0,1,2,0v1H11Z"/></g></svg>