<svg id="图层_1" data-name="图层 1" xmlns="http://www.w3.org/2000/svg" viewBox="0 0 16 16"><defs><style>.cls-1{opacity:0.3;}.cls-2{fill:#262626;}</style></defs><g id="n"><g id="图层_21" data-name="图层 21"><g class="cls-1"><path class="cls-2" d="M11,2.6h0L12.92,5H12V8H10V5H9.08L11,2.6h0m0-1a1,1,0,0,0-.78.38L7,6H9V8a1,1,0,0,0,1,1h2a1,1,0,0,0,1-1V6h2L11.78,2A1,1,0,0,0,11,1.6Z"/></g><g class="cls-1"><path class="cls-2" d="M6,8v3h.92L5,13.4,3.08,11H4V8H6M6,7H4A1,1,0,0,0,3,8v2H1l3.22,4a1,1,0,0,0,1.41.15L5.78,14,9,10H7V8A1,1,0,0,0,6,7Z"/></g></g></g></svg>