<svg id="图层_1" data-name="图层 1" xmlns="http://www.w3.org/2000/svg" viewBox="0 0 16 16"><defs><style>.cls-1{fill:#262626;}.cls-2{opacity:0.3;isolation:isolate;}</style></defs><g id="n"><path class="cls-1" d="M11.8,11.9a.52.52,0,0,1-.38-.17.51.51,0,0,1,.05-.71,4.66,4.66,0,0,0,1.61-3.31,4.55,4.55,0,0,0-1.24-3.37L11.45,4a.49.49,0,0,1,.7-.7l.4.4a5.53,5.53,0,0,1,1.53,4.11,5.74,5.74,0,0,1-1.95,4A.52.52,0,0,1,11.8,11.9Z"/><g class="cls-2"><path class="cls-1" d="M10.6,10.3a.5.5,0,0,1-.37-.84,3.06,3.06,0,0,0-.08-4.21.49.49,0,0,1,.7-.7A4.06,4.06,0,0,1,11,10.14.5.5,0,0,1,10.6,10.3Z"/></g><path class="cls-1" d="M3.3,11.9A.5.5,0,0,1,3,11.77a5.86,5.86,0,0,1-.54-8.2l.16-.12.12-.1a1.25,1.25,0,0,1,.38-.3.5.5,0,1,1,.44.9l-.12.1a1.68,1.68,0,0,1-.27.24A4.85,4.85,0,0,0,3.64,11a.5.5,0,0,1,0,.71A.49.49,0,0,1,3.3,11.9Z"/><g class="cls-2"><path class="cls-1" d="M4.4,10.3A.52.52,0,0,1,4,10.13a4.17,4.17,0,0,1,.13-5.58.49.49,0,0,1,.7.7,3.16,3.16,0,0,0-.07,4.22.51.51,0,0,1,0,.71A.52.52,0,0,1,4.4,10.3Z"/></g><circle class="cls-1" cx="7.5" cy="7.5" r="1.5"/><path class="cls-1" d="M7.5,14a.5.5,0,0,1-.5-.5v-6a.5.5,0,0,1,1,0v6A.5.5,0,0,1,7.5,14Z"/></g></svg>