<svg id="图层_1" data-name="图层 1" xmlns="http://www.w3.org/2000/svg" viewBox="0 0 16 16"><defs><style>.cls-1{opacity:0.3;}.cls-2{fill:#262626;}</style></defs><g id="n"><g class="cls-1"><path class="cls-2" d="M11.76,11.9a.5.5,0,0,1-.37-.17.48.48,0,0,1,0-.7,4.79,4.79,0,0,0,.39-6.7l-.17-.2A.81.81,0,0,0,11.53,4,.5.5,0,0,1,12,3.12a1.46,1.46,0,0,1,.43.37l.13.16a5.78,5.78,0,0,1-.46,8.12A.46.46,0,0,1,11.76,11.9Z"/><path class="cls-2" d="M10.59,10.32a.5.5,0,0,1-.34-.13.51.51,0,0,1,0-.71,3,3,0,0,0-.08-4.21.5.5,0,1,1,.72-.7,4.05,4.05,0,0,1,.1,5.59A.5.5,0,0,1,10.59,10.32Z"/><path class="cls-2" d="M3.27,11.9a.46.46,0,0,1-.33-.13,5.79,5.79,0,0,1-.49-8.1,2.07,2.07,0,0,0,.16-.17,1.23,1.23,0,0,1,.44-.39.5.5,0,1,1,.44.9.69.69,0,0,0-.11.12,2,2,0,0,1-.2.22A4.8,4.8,0,0,0,3.6,11a.48.48,0,0,1,0,.7A.5.5,0,0,1,3.27,11.9Z"/><path class="cls-2" d="M4.44,10.32a.5.5,0,0,1-.37-.16,4.05,4.05,0,0,1,.1-5.59.5.5,0,1,1,.72.7,3,3,0,0,0-.08,4.21.5.5,0,0,1-.37.84Z"/><path class="cls-2" d="M9,7.52A1.5,1.5,0,1,0,7,8.93v4.59a.5.5,0,0,0,1,0V8.93A1.5,1.5,0,0,0,9,7.52Z"/></g></g></svg>