<?xml version="1.0" encoding="utf-8"?>
<!-- Generator: Adobe Illustrator 25.0.0, SVG Export Plug-In . SVG Version: 6.00 Build 0)  -->
<svg version="1.1" id="图层_1" xmlns="http://www.w3.org/2000/svg" xmlns:xlink="http://www.w3.org/1999/xlink" x="0px" y="0px"
	 viewBox="0 0 16 16" style="enable-background:new 0 0 16 16;" xml:space="preserve">
<style type="text/css">
	.st0{fill:#262626;}
</style>
<g id="n">
	<polygon class="st0" points="5,10 5,7.3 3.4,10 	"/>
	<path class="st0" d="M13,3H3C1.9,3,1,3.9,1,5v7c0,1.1,0.9,2,2,2h10c1.1,0,2-0.9,2-2V5C15,3.9,14.1,3,13,3z M6.5,11H6v1
		c0,0.3-0.2,0.5-0.5,0.5S5,12.3,5,12v-1H2.5c-0.2,0-0.3-0.1-0.4-0.3c-0.1-0.2-0.1-0.4,0-0.5l3-5C5.2,5,5.5,4.9,5.7,5c0,0,0,0,0,0
		C5.9,5.1,6,5.3,6,5.5V10h0.5C6.8,10,7,10.2,7,10.5S6.8,11,6.5,11z M14,10.3c0,0.2,0,0.3-0.1,0.4c-0.6,0.9-1.6,1.3-2.7,1.3
		C9.8,11.9,8.1,11.3,8,8.5C8.1,5.7,9.7,5.1,11.1,5l0,0c1.2-0.1,2.3,0.7,2.8,1.8c0.1,0.3,0,0.5-0.3,0.7c-0.3,0.1-0.5,0-0.7-0.3l0,0
		l0,0c-0.3-0.8-1-1.3-1.8-1.2c-0.9,0-2,0.3-2.1,2.5c0.1,1.6,0.7,2.4,2.2,2.5c0.7,0.1,1.4-0.2,1.8-0.8V9h-2c-0.3,0-0.5-0.2-0.5-0.5
		S10.7,8,11,8h2.2C13.6,8,14,8.4,14,8.8l0,0l0,0V10.3z"/>
</g>
</svg>
