<svg id="图层_1" data-name="图层 1" xmlns="http://www.w3.org/2000/svg" viewBox="0 0 16 16"><defs><style>.cls-1{fill:#262626;}</style></defs><g id="n"><path class="cls-1" d="M13,3H3A2,2,0,0,0,1,5v7a2,2,0,0,0,2,2H13a2,2,0,0,0,2-2V5A2,2,0,0,0,13,3ZM12,9.5A2.5,2.5,0,0,1,9.5,12h-3A2.5,2.5,0,0,1,4,9.5v-2A2.5,2.5,0,0,1,6.5,5h3a2.54,2.54,0,0,1,1.71.67.5.5,0,1,1-.69.73,1.44,1.44,0,0,0-1-.4h-3A1.5,1.5,0,0,0,5,7.48v2A1.5,1.5,0,0,0,6.5,11h3A1.5,1.5,0,0,0,11,9.5V9H7.5a.5.5,0,0,1,0-1h4a.5.5,0,0,1,.5.5Z"/></g></svg>