<?xml version="1.0" encoding="utf-8"?>
<!-- Generator: Adobe Illustrator 23.0.1, SVG Export Plug-In . SVG Version: 6.00 Build 0)  -->
<svg version="1.1" id="图层_1" xmlns="http://www.w3.org/2000/svg" xmlns:xlink="http://www.w3.org/1999/xlink" x="0px" y="0px"
	 viewBox="0 0 16 16" style="enable-background:new 0 0 16 16;" xml:space="preserve">
<style type="text/css">
	.st0{fill:#262626;}
	.st1{fill:#E9572A;}
</style>
<g id="有线网络">
	<path class="st0" d="M7.5,15h-2C5.2,15,5,14.8,5,14.5S5.2,14,5.5,14H7v-1H3.5C2.1,13,1,11.9,1,10.5v-4C1,5.1,2.1,4,3.5,4h5
		C8.8,4,9,4.2,9,4.5S8.8,5,8.5,5h-5C2.7,5,2,5.7,2,6.5v4C2,11.3,2.7,12,3.5,12h4C7.8,12,8,12.2,8,12.5v2C8,14.8,7.8,15,7.5,15z"/>
	<path class="st0" d="M14.5,7h-4C10.2,7,10,6.8,10,6.5v-5C10,1.2,10.2,1,10.5,1h3.8c0.3,0,0.5,0.2,0.5,0.5S14.6,2,14.3,2H11v4h3V2
		h-0.3c-0.3,0-0.5-0.2-0.5-0.5S13.4,1,13.7,1h0.8C14.8,1,15,1.2,15,1.5v5C15,6.8,14.8,7,14.5,7z"/>
	<path class="st0" d="M12.5,5C12.2,5,12,4.8,12,4.5v-1C12,3.2,12.2,3,12.5,3S13,3.2,13,3.5v1C13,4.8,12.8,5,12.5,5z"/>
	<path class="st0" d="M10.5,3.5C10.5,3.2,10.7,3,11,3h3c0.3,0,0.5,0.2,0.5,0.5S14.3,4,14,4h-3C10.7,4,10.5,3.8,10.5,3.5z"/>
	<path class="st1" d="M12.5,9c1.4,0,2.5,1.1,2.5,2.5S13.9,14,12.5,14S10,12.9,10,11.5S11.1,9,12.5,9 M12.5,8C10.6,8,9,9.6,9,11.5
		s1.6,3.5,3.5,3.5s3.5-1.6,3.5-3.5S14.4,8,12.5,8z"/>
	<path class="st1" d="M12.5,12c-0.3,0-0.5-0.2-0.5-0.5v-1c0-0.3,0.2-0.5,0.5-0.5s0.5,0.2,0.5,0.5v1C13,11.8,12.8,12,12.5,12z"/>
	<path class="st1" d="M12.5,12L12.5,12c0.3,0,0.5,0.2,0.5,0.5l0,0c0,0.3-0.2,0.5-0.5,0.5l0,0c-0.3,0-0.5-0.2-0.5-0.5l0,0
		C12,12.2,12.2,12,12.5,12z"/>
</g>
</svg>
