<svg id="图层_1" data-name="图层 1" xmlns="http://www.w3.org/2000/svg" viewBox="0 0 16 16"><defs><style>.cls-1{fill:#262626;}</style></defs><g id="n"><path class="cls-1" d="M13,3H3A2,2,0,0,0,1,5v7a2,2,0,0,0,2,2H13a2,2,0,0,0,2-2V5A2,2,0,0,0,13,3ZM4.37,12.21H4.31A2.22,2.22,0,0,1,2,10.08v0a.5.5,0,0,1,1-.14c.13.93.57,1.3,1.34,1.3,1,0,1.43-.42,1.46-1.31a1,1,0,0,0-.62-1l-.27-.13-.06-.64.29-.19a.78.78,0,0,0,.44-.76C5.55,6.38,5.19,6,4.33,6s-1.1.36-1.25,1.17a.48.48,0,0,1-.56.4h0A.5.5,0,0,1,2.1,7,2.19,2.19,0,0,1,4.34,5,2.06,2.06,0,0,1,6.57,6.89a2.26,2.26,0,0,1,0,.26,1.83,1.83,0,0,1-.41,1.21A2,2,0,0,1,6.8,9.93a2.22,2.22,0,0,1-2.15,2.29ZM14,10.32a.7.7,0,0,1-.13.42A3,3,0,0,1,11.19,12C9.77,11.93,8.08,11.28,8,8.5,8.11,5.72,9.73,5.07,11.08,5h0a2.82,2.82,0,0,1,2.76,1.8.5.5,0,1,1-.92.4h0A1.81,1.81,0,0,0,11.1,6c-.85,0-2,.35-2.1,2.5.05,1.65.73,2.43,2.21,2.5A2.05,2.05,0,0,0,13,10.24V9H11a.5.5,0,0,1,0-1h2.2a.8.8,0,0,1,.8.8h0Z"/></g></svg>