<svg id="图层_1" data-name="图层 1" xmlns="http://www.w3.org/2000/svg" viewBox="0 0 16 16"><defs><style>.cls-1{fill:#262626;}</style></defs><g id="p"><path class="cls-1" d="M8.76,14H5.12A.12.12,0,0,1,5,13.88V11.12A.12.12,0,0,1,5.12,11H8.05a4.27,4.27,0,0,1,.23-1H5.12A1.12,1.12,0,0,0,4,11.12V11H3a1,1,0,0,1-1-1V6A1,1,0,0,1,3,5H13a1,1,0,0,1,1,1V7.28a4.6,4.6,0,0,1,1,.48V6a2,2,0,0,0-2-2H12V2a1,1,0,0,0-1-1H5A1,1,0,0,0,4,2V4H3A2,2,0,0,0,1,6v4a2,2,0,0,0,2,2H4v1.88A1.12,1.12,0,0,0,5.12,15H9.71A5,5,0,0,1,8.76,14ZM5,2h6V4H5Z"/><circle class="cls-1" cx="11" cy="7" r="1"/><path class="cls-1" d="M12.5,9A2.5,2.5,0,1,1,10,11.5,2.5,2.5,0,0,1,12.5,9m0-1A3.5,3.5,0,1,0,16,11.5,3.5,3.5,0,0,0,12.5,8Z"/><path class="cls-1" d="M11.5,13a.47.47,0,0,1-.35-.15.48.48,0,0,1,0-.7l2-2a.49.49,0,0,1,.7.7l-2,2A.47.47,0,0,1,11.5,13Z"/><path class="cls-1" d="M13.5,13a.47.47,0,0,1-.35-.15l-2-2a.49.49,0,0,1,.7-.7l2,2a.48.48,0,0,1,0,.7A.47.47,0,0,1,13.5,13Z"/></g></svg>