<svg id="图层_1" data-name="图层 1" xmlns="http://www.w3.org/2000/svg" viewBox="0 0 16 16"><defs><style>.cls-1{fill:#262626;}</style></defs><g id="p"><path class="cls-1" d="M8,15a7,7,0,0,1-6.66-4.86.5.5,0,0,1,1-.3,6,6,0,0,0,11.25.46.5.5,0,0,1,.92.38A7,7,0,0,1,8,15Z"/><path class="cls-1" d="M14.19,6.5a.5.5,0,0,1-.48-.35A6,6,0,0,0,2.46,5.69a.5.5,0,1,1-.92-.38,7,7,0,0,1,13.13.54.51.51,0,0,1-.33.63Z"/><path class="cls-1" d="M3.5,6H1V3.5a.5.5,0,0,1,1,0V5H3.5a.5.5,0,0,1,0,1Z"/><path class="cls-1" d="M14.5,13a.5.5,0,0,1-.5-.5V11H12.5a.5.5,0,0,1,0-1H15v2.5A.5.5,0,0,1,14.5,13Z"/><path class="cls-1" d="M10,8v3H6V8h4m0-1H6A1,1,0,0,0,5,8v3a1,1,0,0,0,1,1h4a1,1,0,0,0,1-1V8A1,1,0,0,0,10,7Z"/><path class="cls-1" d="M10,8H9V6A1,1,0,0,0,7,6V8H6V6a2,2,0,0,1,4,0Z"/></g></svg>