<svg id="图层_1" data-name="图层 1" xmlns="http://www.w3.org/2000/svg" viewBox="0 0 16 16"><defs><style>.cls-1{fill:#262626;}</style></defs><g id="s"><path class="cls-1" d="M7.9,2.23A18.87,18.87,0,0,0,10,3.6h0a10.56,10.56,0,0,0,2.85.92c0,1.21,0,2.45,0,3.6C12.54,11,9,14,7.9,14S3.25,11,3,8.21a30.44,30.44,0,0,1,0-3.7,22.07,22.07,0,0,0,2.77-.83A9.11,9.11,0,0,0,7.9,2.23M7.9,1C7.64,1,6.61,2.23,5.32,2.75A23.79,23.79,0,0,1,2,3.71,43.16,43.16,0,0,0,2,8.26C2.31,11.59,6.18,15,7.9,15s5.59-3.41,5.93-6.74a38.37,38.37,0,0,0,0-4.55,11.26,11.26,0,0,1-3.35-1A29.48,29.48,0,0,1,7.9,1Z"/></g></svg>