<svg id="图层_1" data-name="图层 1" xmlns="http://www.w3.org/2000/svg" viewBox="0 0 16 16"><defs><style>.cls-1{fill:#262626;}</style></defs><g id="s"><path class="cls-1" d="M8.15,2a11,11,0,0,1,4.61.81A3.83,3.83,0,0,0,12.5,5.1a14.21,14.21,0,0,0,.9,3c.42,1.11.79,2.06.47,2.55a3.75,3.75,0,0,1-2.68,1.53l-.95.24A5.91,5.91,0,0,0,8,13.54a5.8,5.8,0,0,0-2.31-1.26L5,12.11a4,4,0,0,1-2.83-1.54c-.37-.53.1-1.72.56-2.88a15.3,15.3,0,0,0,.83-2.56V5a4.49,4.49,0,0,0-.35-2.23A11.05,11.05,0,0,1,8,2h.18m0-1H8C7.1,1,3.6,1,1.85,2.49a3.52,3.52,0,0,1,.7,2.45C2.11,7.21.27,9.66,1.32,11.15c1.14,1.66,2.8,1.75,4.12,2.1C7.62,14,7.71,15,8,15a4.64,4.64,0,0,1,2.54-1.66c1.4-.44,3.06-.44,4.2-2.19,1-1.49-.79-3.59-1.22-6.21a3,3,0,0,1,.61-2.45C12.44,1.09,9.29,1,8.15,1Z"/></g></svg>