<svg id="图层_1" data-name="图层 1" xmlns="http://www.w3.org/2000/svg" viewBox="0 0 16 16"><defs><style>.cls-1{fill:#262626;}</style></defs><g id="s"><g id="图层_27_复制" data-name="图层 27 复制"><path class="cls-1" d="M8,1,5.76,5,1,6,4.5,9.8,4,15l4-2.5ZM4.58,14h0l.27-.18Z"/><path class="cls-1" d="M8,3,9.4,5.49l.23.4.44.09,3,.63-2.3,2.51-.31.32v.45l.31,3.19L8.53,11.65,8,11.32l-.53.33L5.19,13.08,5.5,9.9V9.45l-.3-.33L2.93,6.62,6,6l.45-.09.22-.4L8,3M8,1,5.76,5,1,6,4.5,9.8,4,15l4-2.5L12,15l-.5-5.21L15,6,10.27,5ZM4.58,14l.27-.18Z"/></g></g></svg>