<svg id="图层_8" data-name="图层 8" xmlns="http://www.w3.org/2000/svg" xmlns:xlink="http://www.w3.org/1999/xlink" viewBox="0 0 96 96"><defs><style>.cls-1{fill:url(#未命名的渐变_7);}.cls-2,.cls-3{fill:none;stroke:#fff;stroke-linecap:round;stroke-width:6px;}.cls-2{stroke-linejoin:round;}.cls-3{stroke-miterlimit:10;}</style><linearGradient id="未命名的渐变_7" x1="4" y1="48" x2="92" y2="48" gradientUnits="userSpaceOnUse"><stop offset="0" stop-color="#7cc38b"/><stop offset="1" stop-color="#64b778"/></linearGradient></defs><title>96</title><g id="_96" data-name="96"><circle class="cls-1" cx="48" cy="48" r="44"/><path class="cls-2" d="M20,37.2c0-.4.4-.4.4-.8A29.83,29.83,0,0,1,48,18c13.6,0,25.6,9.2,28.8,22"/><path class="cls-2" d="M76,58.8A30.09,30.09,0,0,1,48,78,29.3,29.3,0,0,1,19.2,56"/><path class="cls-3" d="M18,25V36.5A1.5,1.5,0,0,0,19.5,38H31"/><path class="cls-3" d="M65,58H76.5A1.5,1.5,0,0,1,78,59.5V71"/></g></svg>