<svg id="图层_1" data-name="图层 1" xmlns="http://www.w3.org/2000/svg" viewBox="0 0 16 16"><defs><style>.cls-1{fill:#262626;}</style></defs><g id="t"><g id="_16" data-name=" 16"><path class="cls-1" d="M11.5,15h-7A2.5,2.5,0,0,1,2,12.5v-8A2.5,2.5,0,0,1,4.5,2H5A.5.5,0,0,1,5,3H4.5A1.5,1.5,0,0,0,3,4.5v8A1.5,1.5,0,0,0,4.5,14h7A1.5,1.5,0,0,0,13,12.5v-8A1.5,1.5,0,0,0,11.5,3H11a.5.5,0,0,1,0-1h.5A2.5,2.5,0,0,1,14,4.5v8A2.5,2.5,0,0,1,11.5,15Z"/><path class="cls-1" d="M4,8.71V2.5a.5.5,0,0,1,1,0V6.29l1.5-1.5L8.34,6.63,9.08,5H11V2.5a.5.5,0,0,1,1,0V6H9.72L8.66,8.37,6.5,6.21Z"/><path class="cls-1" d="M10,2V3H6V2h4m0-1H6A1,1,0,0,0,5,2V3A1,1,0,0,0,6,4h4a1,1,0,0,0,1-1V2A1,1,0,0,0,10,1Z"/></g></g></svg>