<svg id="图层_1" data-name="图层 1" xmlns="http://www.w3.org/2000/svg" viewBox="0 0 16 16"><defs><style>.cls-1{fill:#262626;}</style></defs><g id="t"><g id="_16" data-name=" 16"><path class="cls-1" d="M11.5,15h-7A2.5,2.5,0,0,1,2,12.5v-8A2.5,2.5,0,0,1,4.5,2H5A.5.5,0,0,1,5,3H4.5A1.5,1.5,0,0,0,3,4.5v8A1.5,1.5,0,0,0,4.5,14h7A1.5,1.5,0,0,0,13,12.5v-8A1.5,1.5,0,0,0,11.5,3H11a.5.5,0,0,1,0-1h.5A2.5,2.5,0,0,1,14,4.5v8A2.5,2.5,0,0,1,11.5,15Z"/><path class="cls-1" d="M10.5,13h-5A1.5,1.5,0,0,1,4,11.5v-9a.5.5,0,0,1,1,0v9a.5.5,0,0,0,.5.5h5a.5.5,0,0,0,.5-.5v-9a.5.5,0,0,1,1,0v9A1.5,1.5,0,0,1,10.5,13Z"/><path class="cls-1" d="M10,2V3H6V2h4m0-1H6A1,1,0,0,0,5,2V3A1,1,0,0,0,6,4h4a1,1,0,0,0,1-1V2A1,1,0,0,0,10,1Z"/><path class="cls-1" d="M8.5,9h-1L7.12,6a.89.89,0,0,1,.77-1H8a.89.89,0,0,1,.89.89s0,.07,0,.11Z"/><circle class="cls-1" cx="8" cy="10.25" r="0.75"/></g></g></svg>