<svg id="图层_1" data-name="图层 1" xmlns="http://www.w3.org/2000/svg" viewBox="0 0 16 16"><defs><style>.cls-1,.cls-2{fill:#262626;}.cls-1{opacity:0.3;isolation:isolate;}</style></defs><g id="t"><g id="图层_8" data-name="图层 8"><path class="cls-1" d="M4,5.05V5H5V3H4V1H3V3H2V1H1V3H0V5H1V6H2V7.5A2.53,2.53,0,0,1,4,5.05Z"/><path class="cls-1" d="M6.49,9A2.19,2.19,0,0,1,6,9.47v3A1.54,1.54,0,0,1,4.5,14,1.54,1.54,0,0,1,3,12.5v-3a2.49,2.49,0,0,1-1-2v5A2.48,2.48,0,0,0,4.46,15h0A2.48,2.48,0,0,0,7,12.54v-3A3,3,0,0,1,6.49,9Z"/><path class="cls-1" d="M14,9.47v3a1.5,1.5,0,0,1-3,0v-3A2.85,2.85,0,0,1,10.49,9a2.37,2.37,0,0,1-.49.51v3a2.5,2.5,0,0,0,5,0v-5A2.49,2.49,0,0,1,14,9.47Z"/><path class="cls-1" d="M14,3.5v2a2.49,2.49,0,0,1,1,2v-4Z"/><path class="cls-1" d="M10,5.53a2.37,2.37,0,0,1,.49.51A3.08,3.08,0,0,1,11,5.53v-2a2.5,2.5,0,0,0-5,0v2A2.19,2.19,0,0,1,6.49,6,2.85,2.85,0,0,1,7,5.53v-2a1.5,1.5,0,1,1,3,0Z"/><path class="cls-2" d="M4.5,9h0A1.54,1.54,0,0,1,3,7.5H3A1.54,1.54,0,0,1,4.5,6h0A1.54,1.54,0,0,1,6,7.5H6A1.54,1.54,0,0,1,4.5,9Z"/><path class="cls-2" d="M8.5,9h0A1.54,1.54,0,0,1,7,7.5H7A1.54,1.54,0,0,1,8.5,6h0A1.54,1.54,0,0,1,10,7.5h0A1.54,1.54,0,0,1,8.5,9Z"/><path class="cls-2" d="M12.5,9h0A1.54,1.54,0,0,1,11,7.5h0A1.54,1.54,0,0,1,12.5,6h0A1.54,1.54,0,0,1,14,7.5h0A1.54,1.54,0,0,1,12.5,9Z"/></g></g></svg>