<svg id="图层_1" data-name="图层 1" xmlns="http://www.w3.org/2000/svg" viewBox="0 0 16 16"><defs><style>.cls-1{fill:#262626;}</style></defs><g id="t"><g id="图层_4" data-name="图层 4"><path class="cls-1" d="M12.5,1h-9A2.48,2.48,0,0,0,1,3.46v9A2.48,2.48,0,0,0,3.46,15H9a.5.5,0,0,0,0-1H8V11H9a.5.5,0,0,0,0-1H2V3.5A1.54,1.54,0,0,1,3.5,2h9A1.54,1.54,0,0,1,14,3.5V8a.5.5,0,0,0,1,0V3.5A2.48,2.48,0,0,0,12.54,1ZM7,11v3H3.5A1.54,1.54,0,0,1,2,12.5V11Z"/><path class="cls-1" d="M15.5,15a.47.47,0,0,1-.35-.15l-5-5a.49.49,0,0,1,.7-.7l5,5a.48.48,0,0,1,0,.7A.47.47,0,0,1,15.5,15Z"/><path class="cls-1" d="M10.5,15a.47.47,0,0,1-.35-.15.48.48,0,0,1,0-.7l5-5a.49.49,0,0,1,.7.7l-5,5A.47.47,0,0,1,10.5,15Z"/></g></g></svg>