<svg id="kylin" xmlns="http://www.w3.org/2000/svg" viewBox="0 0 16 16"><defs><style>.cls-1{opacity:0.25;}.cls-1,.cls-3,.cls-4,.cls-5,.cls-6,.cls-7,.cls-8{isolation:isolate;}.cls-2{fill:#262626;}.cls-3{opacity:0.7;}.cls-4{opacity:0.4;}.cls-5{opacity:0.85;}.cls-6{opacity:0.3;}.cls-7{opacity:0.1;}.cls-8{opacity:0.55;}</style></defs><g id="_4" data-name=" 4"><g class="cls-1"><path class="cls-2" d="M14,9H12a1,1,0,0,1,0-2h2a1,1,0,0,1,0,2Z"/></g><g class="cls-3"><path class="cls-2" d="M4,9H2A1,1,0,0,1,2,7H4A1,1,0,0,1,4,9Z"/></g><path class="cls-2" d="M8,15a1,1,0,0,1-1-1V12a1,1,0,0,1,2,0v2A1,1,0,0,1,8,15Z"/><g class="cls-4"><path class="cls-2" d="M8,5A1,1,0,0,1,7,4V2A1,1,0,0,1,9,2V4A1,1,0,0,1,8,5Z"/></g><g class="cls-5"><path class="cls-2" d="M3.76,13.24A1,1,0,0,1,3.05,13a1,1,0,0,1,0-1.42l1.41-1.41a1,1,0,1,1,1.42,1.42L4.47,13A1,1,0,0,1,3.76,13.24Z"/></g><g class="cls-6"><path class="cls-2" d="M10.83,6.17a1,1,0,0,1-.71-.29,1,1,0,0,1,0-1.42l1.41-1.41A1,1,0,0,1,13,4.47L11.54,5.88A1,1,0,0,1,10.83,6.17Z"/></g><g class="cls-7"><path class="cls-2" d="M12.24,13.24a1,1,0,0,1-.71-.29l-1.41-1.41a1,1,0,1,1,1.42-1.42L13,11.53A1,1,0,0,1,13,13,1,1,0,0,1,12.24,13.24Z"/></g><g class="cls-8"><path class="cls-2" d="M5.17,6.17a1,1,0,0,1-.71-.29L3.05,4.47A1,1,0,0,1,4.47,3.05L5.88,4.46a1,1,0,0,1,0,1.42A1,1,0,0,1,5.17,6.17Z"/></g></g></svg>