<svg id="图层_1" data-name="图层 1" xmlns="http://www.w3.org/2000/svg" viewBox="0 0 16 16"><defs><style>.cls-1{fill:#262626;}</style></defs><g id="u"><g id="图层_34" data-name="图层 34"><path class="cls-1" d="M13.78,9l-.6,3H9.91l-1.2-1.21L8,10.09l-.71.7L6.09,12H2.82l-.6-3H13.78m.61-1H1.61a.5.5,0,0,0-.5.5.34.34,0,0,0,0,.1L2,13H6.5L8,11.5,9.5,13H14l.88-4.4A.5.5,0,0,0,14.49,8Z"/><path class="cls-1" d="M1.63,9a.52.52,0,0,1-.29-.09.5.5,0,0,1-.12-.7L4.24,4H6.5a.5.5,0,0,1,0,1H4.76L2,8.79A.49.49,0,0,1,1.63,9Z"/><path class="cls-1" d="M14.37,9A.49.49,0,0,1,14,8.79L11.24,5H9.5a.5.5,0,0,1,0-1h2.26l3,4.21a.5.5,0,0,1-.12.7A.52.52,0,0,1,14.37,9Z"/></g></g></svg>