<svg id="回收站-满" xmlns="http://www.w3.org/2000/svg" viewBox="0 0 96 96"><defs><style>.cls-1{fill:#f0f0f0;}.cls-2{fill:#d1d1d1;}.cls-3,.cls-4{fill:#bfbfbf;isolation:isolate;}.cls-3{opacity:0.4;}.cls-4{opacity:0.3;}.cls-5{fill:#595959;}</style></defs><title>96</title><g id="_96" data-name="96"><g id="桶"><path class="cls-1" d="M90,14H6l9.24,54.36A26,26,0,0,0,40.88,90H55.12A26,26,0,0,0,80.76,68.36Z"/><ellipse id="桶口" class="cls-2" cx="48" cy="15" rx="42" ry="9"/></g><path class="cls-3" d="M19,42.29c1-1.92,4.51-5.67,6.93-6.14C31,35,41.53,38.83,46.84,39.22a67.86,67.86,0,0,0,14.56-.87c4.27-.86,13.4-5.08,17.09-3.07,1.39.77,1.27,5.47,1.27,5.47L75.14,74.14s-2.42,8.35-4.73,10.17C66.94,86.9,57.51,89.19,53,89c-8.55-.38-16.79.44-22-2-1.62-.19-5.53-2.78-6.57-3.74-4.16-3.46-5.31-19.19-5.31-19.19L18.31,49C18.19,49.1,18.08,43.82,19,42.29Z"/><path class="cls-4" d="M16.92,36c1.16-2,4.86-6,7.51-6.52,5.55-1.15,17,2.88,22.76,3.26A79.51,79.51,0,0,0,63,31.83c4.62-1,14.67-5.38,18.6-3.26,1.5.76,1.39,5.75,1.39,5.75L78,69.63s-2.54,8.83-5.2,10.75C69.25,83.16,63,87,56,88c-9,0-18,1-25-1-4-1-7.15-6.72-8.3-7.68-4.51-3.64-5.78-20.24-5.78-20.24L16,43.15C16.12,43.05,16.12,37.58,16.92,36Z"/><g id="logo"><path class="cls-5" d="M52,56.55l-3.34,5.07,3.09,4.66,0-2,2.64,0a3.93,3.93,0,0,0,2.64-1.13l4.67-6.22A3,3,0,0,0,62,53.72L59.4,48.8l-6.28,3.33,3.46,6c.12.3-.11.55-.51.54l-4.12,0,0-2.12Z"/><path class="cls-5" d="M43.5,55.75l-3.74-5.5-7,0,2.42,1.24L34,53.88a3.14,3.14,0,0,0,.15,2.8L38.79,63a3.86,3.86,0,0,0,2.91,1.34l5.5,0-.05-5.65-7.35,0a.4.4,0,0,1-.32-.65l1.88-3.31,2.14,1.08Z"/><path class="cls-5" d="M48.55,49.12l7.07,0,4-6.1-2.5,1.39-1.43-2.63a3.86,3.86,0,0,0-2.78-1.86l-9.31,0a4.15,4.15,0,0,0-3.32,2l-2.81,5.45,6.33,3.39L47.66,44c.25-.32.63-.26.85.12l2.23,3.8-2.19,1.23Z"/></g></g></svg>