<svg id="图层_1" data-name="图层 1" xmlns="http://www.w3.org/2000/svg" viewBox="0 0 16 16"><defs><style>.cls-1{fill:#262626;}</style></defs><g id="u"><path class="cls-1" d="M8,3A2,2,0,1,1,6,5,2,2,0,0,1,8,3M8,2a3,3,0,1,0,3,3A3,3,0,0,0,8,2Z"/><path class="cls-1" d="M7.28,13H4.5a1.5,1.5,0,0,1,0-3H7.28a4.6,4.6,0,0,1,.48-1H4.5a2.5,2.5,0,0,0,0,5H7.76A4.6,4.6,0,0,1,7.28,13Z"/><path class="cls-1" d="M12.5,12h-2a.5.5,0,0,1,0-1h2a.5.5,0,0,1,0,1Z"/><path class="cls-1" d="M11.5,9A2.5,2.5,0,1,1,9,11.5,2.5,2.5,0,0,1,11.5,9m0-1A3.5,3.5,0,1,0,15,11.5,3.5,3.5,0,0,0,11.5,8Z"/></g></svg>