<svg id="图层_1" data-name="图层 1" xmlns="http://www.w3.org/2000/svg" viewBox="0 0 16 16"><defs><style>.cls-1{fill:#262626;}</style></defs><g id="w"><path class="cls-1" d="M9.63,8a2.6,2.6,0,0,1,2.44,1.74l.17.47.47.14A1.87,1.87,0,0,1,12,14H5.21A2.22,2.22,0,0,1,3,11.89,2.09,2.09,0,0,1,5.07,9.78h.14A2,2,0,0,1,6,10l.87.36.41-.85A2.58,2.58,0,0,1,9.63,8m0-1A3.57,3.57,0,0,0,6.42,9a3,3,0,0,0-1.21-.26,3.09,3.09,0,0,0-3.21,3v.18A3.19,3.19,0,0,0,5.21,15H12a2.87,2.87,0,0,0,1-5.6A3.58,3.58,0,0,0,9.63,7Z"/><path class="cls-1" d="M6,2.32A3,3,0,0,1,7.35,3.75,2.88,2.88,0,0,1,7.43,6,3.37,3.37,0,0,1,5.88,7.59a4.2,4.2,0,0,1-1.21.29,3.25,3.25,0,0,1-1.11-.2,3.54,3.54,0,0,1-1.09-.79A4.3,4.3,0,0,0,5.76,4.4V4.29a4.38,4.38,0,0,0,.2-2M5.11,1a.51.51,0,0,0-.35.17.39.39,0,0,0,0,.44A3.19,3.19,0,0,1,4.85,4,3.25,3.25,0,0,1,1.91,5.92H1.52a.64.64,0,0,0-.43.18C1,6.16,1,6.34,1,6.51a4.56,4.56,0,0,0,2.19,2.1,4.13,4.13,0,0,0,1.48.27,4.78,4.78,0,0,0,1.58-.36,4.25,4.25,0,0,0,2.1-2.18A4,4,0,0,0,6.07,1.26a2,2,0,0,0-1-.26Z"/></g></svg>