<svg id="图层_1" data-name="图层 1" xmlns="http://www.w3.org/2000/svg" viewBox="0 0 16 16"><defs><style>.cls-1{fill:#262626;}</style></defs><g id="w"><g id="图层_38" data-name="图层 38"><path class="cls-1" d="M9.5,5S8,7.29,8,8.28a1.51,1.51,0,0,0,3,.35,2,2,0,0,0,0-.35C11,7.29,9.5,5,9.5,5Z"/><path class="cls-1" d="M6,6A6.06,6.06,0,0,0,5,8,1,1,0,0,0,7,8,6.06,6.06,0,0,0,6,6Z"/><path class="cls-1" d="M4.41,11.05H4.29A3.4,3.4,0,0,1,1,7.52,3.79,3.79,0,0,1,4.65,3.68a3.41,3.41,0,0,1,1.19.18A4.07,4.07,0,0,1,9.21,2a4.06,4.06,0,0,1,3.84,2.9A3.52,3.52,0,0,1,15,8.12C15,9.89,13.72,11,11.66,11a.5.5,0,0,1,0-1C12.53,10,14,9.75,14,8.11a2.53,2.53,0,0,0-1.56-2.39l-.24-.09-.06-.26A3,3,0,0,0,9.21,3,3.09,3.09,0,0,0,6.5,4.72l-.23.47-.46-.25a2.15,2.15,0,0,0-1.12-.26A2.79,2.79,0,0,0,2,7.53a2.45,2.45,0,0,0,.65,1.76,2.35,2.35,0,0,0,1.67.76,1.58,1.58,0,0,0,.31,0,.5.5,0,0,1,.54.46.51.51,0,0,1-.46.54Z"/><path class="cls-1" d="M6.5,10S5,12.29,5,13.28a1.51,1.51,0,0,0,3,.35,2,2,0,0,0,0-.35C8,12.29,6.5,10,6.5,10Z"/><path class="cls-1" d="M10,11a6.06,6.06,0,0,0-1,2,1,1,0,0,0,2,0A6.06,6.06,0,0,0,10,11Z"/></g></g></svg>