<svg id="图层_1" data-name="图层 1" xmlns="http://www.w3.org/2000/svg" viewBox="0 0 16 16"><defs><style>.cls-1{fill:#262626;}</style></defs><g id="w"><g id="图层_36" data-name="图层 36"><path class="cls-1" d="M9.63,7a2.6,2.6,0,0,1,2.44,1.74l.17.47.47.14A1.87,1.87,0,0,1,12,13H5.21A2.22,2.22,0,0,1,3,10.89,2.09,2.09,0,0,1,5.07,8.78h.14A2,2,0,0,1,6,9l.87.36.41-.85A2.58,2.58,0,0,1,9.63,7m0-1A3.57,3.57,0,0,0,6.42,8a3,3,0,0,0-1.21-.26,3.09,3.09,0,0,0-3.21,3v.18A3.19,3.19,0,0,0,5.21,14H12a2.87,2.87,0,0,0,1-5.6A3.58,3.58,0,0,0,9.63,6Z"/><path class="cls-1" d="M2,10.13a.41.41,0,0,1-.21-.05A3.08,3.08,0,0,1,0,7.11,3.06,3.06,0,0,1,1.79,4.33,3.55,3.55,0,0,1,5,2,3.52,3.52,0,0,1,8,3.74a3.08,3.08,0,0,1,.74-.11A3.38,3.38,0,0,1,12,7a.5.5,0,0,1-.5.5h0A.5.5,0,0,1,11,7,2.37,2.37,0,0,0,8.76,4.63,1.93,1.93,0,0,0,8,4.82l-.48.23-.2-.49A2.49,2.49,0,0,0,5,3,2.54,2.54,0,0,0,2.67,4.84l-.07.24-.24.09A2.08,2.08,0,0,0,1,7.14a2.09,2.09,0,0,0,1.21,2,.5.5,0,0,1-.21,1Z"/></g></g></svg>