<svg id="图层_1" data-name="图层 1" xmlns="http://www.w3.org/2000/svg" viewBox="0 0 16 16"><defs><style>.cls-1{fill:#262626;}</style></defs><g id="w"><path class="cls-1" d="M9.63,8a2.6,2.6,0,0,1,2.44,1.74l.17.47.47.14A1.87,1.87,0,0,1,12,14H5.21A2.22,2.22,0,0,1,3,11.89,2.09,2.09,0,0,1,5.07,9.78h.14A2,2,0,0,1,6,10l.87.36.41-.85A2.58,2.58,0,0,1,9.63,8m0-1A3.57,3.57,0,0,0,6.42,9a3,3,0,0,0-1.21-.26,3.09,3.09,0,0,0-3.21,3v.18A3.19,3.19,0,0,0,5.21,15H12a2.87,2.87,0,0,0,1-5.6A3.58,3.58,0,0,0,9.63,7Z"/><path class="cls-1" d="M6.5,3A.5.5,0,0,1,6,2.5v-1a.5.5,0,0,1,1,0v1A.5.5,0,0,1,6.5,3Z"/><path class="cls-1" d="M10.39,4.61A.47.47,0,0,1,10,4.46a.48.48,0,0,1,0-.7l.71-.71a.49.49,0,0,1,.7.7l-.71.71A.47.47,0,0,1,10.39,4.61Z"/><path class="cls-1" d="M2.61,4.61a.47.47,0,0,1-.35-.15l-.71-.71a.49.49,0,0,1,.7-.7L3,3.76a.48.48,0,0,1,0,.7A.47.47,0,0,1,2.61,4.61Z"/><path class="cls-1" d="M1.5,9H.5a.5.5,0,0,1,0-1h1a.5.5,0,0,1,0,1Z"/><path class="cls-1" d="M3.57,10.09A4.05,4.05,0,0,1,3,8a4,4,0,0,1,8,0H10A3,3,0,0,0,4,8a3.06,3.06,0,0,0,.43,1.57Z"/></g></svg>