<svg id="图层_1" data-name="图层 1" xmlns="http://www.w3.org/2000/svg" viewBox="0 0 16 16"><defs><style>.cls-1{fill:#262626;}</style></defs><g id="w"><path class="cls-1" d="M6.43,2.58A6.78,6.78,0,0,0,5.07,6.05a6.63,6.63,0,0,0,6,7.19,3,3,0,0,0,.6,0h.15a5.87,5.87,0,0,1-2.23.7L9,14A6,6,0,0,1,6.4,2.6M9.25,1H9c-.23,0-.47,0-.7,0A7,7,0,0,0,9,15h.69a7.19,7.19,0,0,0,5-3,.26.26,0,0,0-.08-.37h0a.27.27,0,0,0-.15,0h-.11a5.55,5.55,0,0,1-2.7.68h-.48A5.65,5.65,0,0,1,6.07,6.14,5.76,5.76,0,0,1,9.33,1.48a.27.27,0,0,0,.13-.35A.21.21,0,0,0,9.25,1Z"/></g></svg>