<svg id="图层_1" data-name="图层 1" xmlns="http://www.w3.org/2000/svg" viewBox="0 0 16 16"><defs><style>.cls-1{fill:#262626;}</style></defs><g id="w"><path class="cls-1" d="M8,4A4,4,0,1,1,4,8,4,4,0,0,1,8,4M8,3a5,5,0,1,0,5,5A5,5,0,0,0,8,3Z"/><path class="cls-1" d="M7.5,16a.5.5,0,0,1-.5-.5V14a.5.5,0,0,1,1,0v1.5A.5.5,0,0,1,7.5,16Z"/><path class="cls-1" d="M13.6,14.1a.47.47,0,0,1-.35-.15l-1.1-1.1a.49.49,0,0,1,.7-.7l1.1,1.1a.48.48,0,0,1,0,.7A.47.47,0,0,1,13.6,14.1Z"/><path class="cls-1" d="M2.4,14.1A.5.5,0,0,1,2,13.26l1-1.1a.51.51,0,0,1,.71,0,.5.5,0,0,1,0,.71l-1,1.1A.52.52,0,0,1,2.4,14.1Z"/><path class="cls-1" d="M12.7,3.9a.47.47,0,0,1-.35-.15.48.48,0,0,1,0-.7l1-1a.49.49,0,0,1,.7.7l-1,1A.47.47,0,0,1,12.7,3.9Z"/><path class="cls-1" d="M3.4,3.9a.5.5,0,0,1-.34-.13L2,2.77A.5.5,0,0,1,2.64,2l1.1,1a.5.5,0,0,1,0,.71A.52.52,0,0,1,3.4,3.9Z"/><path class="cls-1" d="M7.5,2.5A.5.5,0,0,1,7,2V.5a.5.5,0,0,1,1,0V2A.5.5,0,0,1,7.5,2.5Z"/><path class="cls-1" d="M15.5,9H14a.5.5,0,0,1,0-1h1.5a.5.5,0,0,1,0,1Z"/><path class="cls-1" d="M2,9H.5a.5.5,0,0,1,0-1H2A.5.5,0,0,1,2,9Z"/></g></svg>