<?xml version="1.0" encoding="utf-8"?>
<!-- Generator: Adobe Illustrator 17.0.1, SVG Export Plug-In . SVG Version: 6.00 Build 0)  -->
<!DOCTYPE svg PUBLIC "-//W3C//DTD SVG 1.1//EN" "http://www.w3.org/Graphics/SVG/1.1/DTD/svg11.dtd" [
	<!ENTITY ns_flows "http://ns.adobe.com/Flows/1.0/">
	<!ENTITY ns_extend "http://ns.adobe.com/Extensibility/1.0/">
	<!ENTITY ns_ai "http://ns.adobe.com/AdobeIllustrator/10.0/">
	<!ENTITY ns_graphs "http://ns.adobe.com/Graphs/1.0/">
]>
<svg version="1.1" id="图层_1" xmlns:x="&ns_extend;" xmlns:i="&ns_ai;" xmlns:graph="&ns_graphs;"
	 xmlns="http://www.w3.org/2000/svg" xmlns:xlink="http://www.w3.org/1999/xlink" xmlns:a="http://ns.adobe.com/AdobeSVGViewerExtensions/3.0/"
	 x="0px" y="0px" width="21px" height="21px" viewBox="0 0 21 21" enable-background="new 0 0 21 21" xml:space="preserve">
<g>
	<path fill-rule="evenodd" clip-rule="evenodd" fill="#0D4E84" d="M2,0.503h17c1.105,0,2,0.895,2,2v16c0,1.105-0.895,2-2,2H2
		c-1.104,0-2-0.895-2-2v-16C0,1.399,0.896,0.503,2,0.503z M2.5,0.503h1c0.276,0,0.5,0.224,0.5,0.5v1c0,0.276-0.224,0.5-0.5,0.5h-1
		c-0.276,0-0.5-0.224-0.5-0.5v-1C2,0.727,2.224,0.503,2.5,0.503z M2.5,3.503h1c0.276,0,0.5,0.224,0.5,0.5v1
		c0,0.276-0.224,0.5-0.5,0.5h-1c-0.276,0-0.5-0.224-0.5-0.5v-1C2,3.727,2.224,3.503,2.5,3.503z M2.5,6.503h1
		c0.276,0,0.5,0.224,0.5,0.5v1c0,0.276-0.224,0.5-0.5,0.5h-1c-0.276,0-0.5-0.224-0.5-0.5v-1C2,6.727,2.224,6.503,2.5,6.503z
		 M2.5,9.503h1c0.276,0,0.5,0.224,0.5,0.5v1c0,0.276-0.224,0.5-0.5,0.5h-1c-0.276,0-0.5-0.224-0.5-0.5v-1
		C2,9.727,2.224,9.503,2.5,9.503z M2.5,12.503h1c0.276,0,0.5,0.224,0.5,0.5v1c0,0.276-0.224,0.5-0.5,0.5h-1
		c-0.276,0-0.5-0.224-0.5-0.5v-1C2,12.727,2.224,12.503,2.5,12.503z M2.5,15.503h1c0.276,0,0.5,0.224,0.5,0.5v1
		c0,0.276-0.224,0.5-0.5,0.5h-1c-0.276,0-0.5-0.224-0.5-0.5v-1C2,15.727,2.224,15.503,2.5,15.503z M2.5,18.503h1
		c0.276,0,0.5,0.224,0.5,0.5v1c0,0.276-0.224,0.5-0.5,0.5h-1c-0.276,0-0.5-0.224-0.5-0.5v-1C2,18.727,2.224,18.503,2.5,18.503z
		 M17.5,0.503h1c0.276,0,0.5,0.224,0.5,0.5v1c0,0.276-0.224,0.5-0.5,0.5h-1c-0.276,0-0.5-0.224-0.5-0.5v-1
		C17,0.727,17.224,0.503,17.5,0.503z M17.5,3.503h1c0.276,0,0.5,0.224,0.5,0.5v1c0,0.276-0.224,0.5-0.5,0.5h-1
		c-0.276,0-0.5-0.224-0.5-0.5v-1C17,3.727,17.224,3.503,17.5,3.503z M17.5,6.503h1c0.276,0,0.5,0.224,0.5,0.5v1
		c0,0.276-0.224,0.5-0.5,0.5h-1c-0.276,0-0.5-0.224-0.5-0.5v-1C17,6.727,17.224,6.503,17.5,6.503z M17.5,9.503h1
		c0.276,0,0.5,0.224,0.5,0.5v1c0,0.276-0.224,0.5-0.5,0.5h-1c-0.276,0-0.5-0.224-0.5-0.5v-1C17,9.727,17.224,9.503,17.5,9.503z
		 M17.5,12.503h1c0.276,0,0.5,0.224,0.5,0.5v1c0,0.276-0.224,0.5-0.5,0.5h-1c-0.276,0-0.5-0.224-0.5-0.5v-1
		C17,12.727,17.224,12.503,17.5,12.503z M17.5,15.503h1c0.276,0,0.5,0.224,0.5,0.5v1c0,0.276-0.224,0.5-0.5,0.5h-1
		c-0.276,0-0.5-0.224-0.5-0.5v-1C17,15.727,17.224,15.503,17.5,15.503z M17.5,18.503h1c0.276,0,0.5,0.224,0.5,0.5v1
		c0,0.276-0.224,0.5-0.5,0.5h-1c-0.276,0-0.5-0.224-0.5-0.5v-1C17,18.727,17.224,18.503,17.5,18.503z M8,3.503h5
		c1.105,0,2,0.895,2,2v10c0,1.105-0.895,2-2,2H8c-1.105,0-2-0.895-2-2v-10C6,4.399,6.895,3.503,8,3.503z M6.003,9.503h8.994
		c0,0.181,0,2,0,2H6.003V9.503z"/>
</g>
</svg>
