<svg id="图层_3" data-name="图层 3" xmlns="http://www.w3.org/2000/svg" viewBox="0 0 16 16"><defs><style>.cls-1{fill:#262626;}</style></defs><path class="cls-1" d="M12,2a1,1,0,0,1,1,1V13a1,1,0,0,1-1,1H4a1,1,0,0,1-1-1V3A1,1,0,0,1,4,2h8m0-1H4A2,2,0,0,0,2,3V13a2,2,0,0,0,2,2h8a2,2,0,0,0,2-2V3A2,2,0,0,0,12,1Z"/><path class="cls-1" d="M11,4V6H5V4h6m0-1H5A1,1,0,0,0,4,4V6A1,1,0,0,0,5,7h6a1,1,0,0,0,1-1V4A1,1,0,0,0,11,3Z"/><path class="cls-1" d="M4.5,10h2a.5.5,0,0,1,.5.5H7a.5.5,0,0,1-.5.5h-2a.5.5,0,0,1-.5-.5H4A.5.5,0,0,1,4.5,10Z"/><path class="cls-1" d="M5.5,9h0a.5.5,0,0,1,.5.5v2a.5.5,0,0,1-.5.5h0a.5.5,0,0,1-.5-.5v-2A.5.5,0,0,1,5.5,9Z"/><circle class="cls-1" cx="9" cy="12" r="1"/><circle class="cls-1" cx="11" cy="10" r="1"/></svg>