<svg id="图层_1" data-name="图层 1" xmlns="http://www.w3.org/2000/svg" viewBox="0 0 16 16"><defs><style>.cls-1{fill:#262626;}</style></defs><g id="rect4911"><path class="cls-1" d="M5.5,1h5a.47.47,0,0,1,.5.44V1.5h0a.47.47,0,0,1-.44.5H5.5A.47.47,0,0,1,5,1.56V1.5H5A.47.47,0,0,1,5.44,1Z"/></g><path class="cls-1" d="M11.86,14.9H4.09A2.43,2.43,0,0,1,2.27,12a2.13,2.13,0,0,1,.18-.5l3.6-7.7a.5.5,0,1,1,.9.42l-3.6,7.7a1.76,1.76,0,0,0-.1.3,1.42,1.42,0,0,0,1,1.69h7.48l.24-.09a1.42,1.42,0,0,0,.73-.81,1.44,1.44,0,0,0-.06-1.08L9.05,4.21a.5.5,0,1,1,.9-.42l3.6,7.7a2.41,2.41,0,0,1-1.14,3.22,2.3,2.3,0,0,1-.5.18Z"/><path class="cls-1" d="M6.5,4.5A.5.5,0,0,1,6,4V1.5a.5.5,0,0,1,1,0V4A.5.5,0,0,1,6.5,4.5Z"/><path class="cls-1" d="M9.5,4.5A.5.5,0,0,1,9,4V1.5a.5.5,0,0,1,1,0V4A.5.5,0,0,1,9.5,4.5Z"/><path class="cls-1" d="M9.7,8H6.3L4.5,11.6A1.08,1.08,0,0,0,5.21,13,.93.93,0,0,0,5.5,13h5a1,1,0,0,0,.9-1.4Z"/></svg>