<svg id="图层_2" data-name="图层 2" xmlns="http://www.w3.org/2000/svg" viewBox="0 0 16 16"><defs><style>.cls-1{fill:#262626;}</style></defs><rect class="cls-1" x="2.34" y="7" width="11.31" height="2" transform="translate(-3.31 8) rotate(-45)"/><path class="cls-1" d="M4,9a3,3,0,0,0-3,3,3.33,3.33,0,0,0,.11.77l1.12-1.12a1,1,0,0,1,1.41,0h0l.7.7a1,1,0,0,1,0,1.41h0L3.23,14.89A3.33,3.33,0,0,0,4,15,3,3,0,0,0,4,9Z"/><path class="cls-1" d="M13.77,4.35a1,1,0,0,1-1.41,0h0l-.7-.7a1,1,0,0,1,0-1.41h0l1.12-1.12A3.33,3.33,0,0,0,12,1a3,3,0,1,0,3,3,3.33,3.33,0,0,0-.11-.77Z"/></svg>