<svg id="偏好-locale" xmlns="http://www.w3.org/2000/svg" viewBox="0 0 96 96"><rect x="7.79" y="7.11" width="82" height="82" rx="18" fill="#fff"/><path d="M71.79,8.11a17,17,0,0,1,17,17v46a17,17,0,0,1-17,17h-46a17,17,0,0,1-17-17v-46a17,17,0,0,1,17-17h46m0-2h-46a19.06,19.06,0,0,0-19,19v46a19.06,19.06,0,0,0,19,19h46a19.06,19.06,0,0,0,19-19v-46a19.06,19.06,0,0,0-19-19Z" fill="#939292"/><path d="M48.79,6.11h23a19,19,0,0,1,19,19v46a19,19,0,0,1-19,19h-23a0,0,0,0,1,0,0v-84A0,0,0,0,1,48.79,6.11Z" fill="#3584e4"/><g id="_96" data-name="96"><polyline points="16.18 62.04 27.5 36.38 38.82 62.04" fill="none" stroke="#77767b" stroke-linecap="round" stroke-linejoin="round" stroke-width="3"/><line x1="20.33" y1="54.49" x2="35.23" y2="54.49" fill="none" stroke="#77767b" stroke-linecap="round" stroke-linejoin="round" stroke-width="3"/><path d="M61.5,40v6.38c0,6.41,19.15,17,19.15,17" fill="none" stroke="#fff" stroke-linecap="round" stroke-linejoin="round" stroke-width="3"/><path d="M73.5,40v6.38c0,6.41-19.15,17-19.15,17" fill="none" stroke="#fff" stroke-linecap="round" stroke-linejoin="round" stroke-width="3"/><line x1="55.55" y1="39.5" x2="79.69" y2="39.5" fill="none" stroke="#fff" stroke-linecap="round" stroke-linejoin="round" stroke-width="3"/><line x1="67.5" y1="34.5" x2="67.5" y2="38.76" fill="none" stroke="#fff" stroke-linecap="round" stroke-linejoin="round" stroke-width="3"/></g></svg>