<svg id="图层_2" data-name="图层 2" xmlns="http://www.w3.org/2000/svg" viewBox="0 0 16 16"><defs><style>.cls-1{fill:#262626;}</style></defs><circle class="cls-1" cx="8" cy="3" r="2"/><path class="cls-1" d="M6,14.5v-8A.5.5,0,0,1,6.5,6h0a.5.5,0,0,1,.5.5v8a.5.5,0,0,1-.5.5h0A.5.5,0,0,1,6,14.5Z"/><path class="cls-1" d="M9,14.5v-8A.5.5,0,0,1,9.5,6h0a.5.5,0,0,1,.5.5v8a.5.5,0,0,1-.5.5h0A.5.5,0,0,1,9,14.5Z"/><path class="cls-1" d="M13.5,6H2.5a.5.5,0,0,0,0,1H5A1,1,0,0,1,6,8v4H7a1,1,0,0,1,2,0h1V8a1,1,0,0,1,1-1h2.5a.5.5,0,0,0,0-1Z"/></svg>