<?xml version="1.0" encoding="utf-8"?>
<!-- Generator: Adobe Illustrator 25.0.0, SVG Export Plug-In . SVG Version: 6.00 Build 0)  -->
<svg version="1.1" id="图层_3" xmlns="http://www.w3.org/2000/svg" xmlns:xlink="http://www.w3.org/1999/xlink" x="0px" y="0px"
	 viewBox="0 0 16 16" style="enable-background:new 0 0 16 16;" xml:space="preserve">
<style type="text/css">
	.st0{opacity:0.75;}
	.st1{fill:none;stroke:#1F2022;stroke-miterlimit:10;}
	.st2{fill:none;stroke:#1F2022;stroke-linecap:round;stroke-miterlimit:10;}
</style>
<g id="_16" class="st0">
	<path class="st1" d="M9.5,4V2.5c0-0.6-0.4-1-1-1h-6c-0.6,0-1,0.4-1,1v9c0,0.6,0.4,1,1,1h4"/>
	<path class="st2" d="M9.5,14.5h-2c-0.6,0-1-0.4-1-1v-9c0-0.6,0.4-1,1-1h4l3,3v3"/>
	<line class="st1" x1="11.5" y1="3.5" x2="11.5" y2="6.8"/>
	<line class="st1" x1="14.4" y1="6.5" x2="11" y2="6.5"/>
	<line class="st2" x1="11.5" y1="13.5" x2="15.5" y2="13.5"/>
	<line class="st2" x1="13.5" y1="11.5" x2="13.5" y2="15.5"/>
</g>
</svg>
