<?xml version="1.0" encoding="utf-8"?>
<!-- Generator: Adobe Illustrator 25.0.0, SVG Export Plug-In . SVG Version: 6.00 Build 0)  -->
<svg version="1.1" id="图层_4" xmlns="http://www.w3.org/2000/svg" xmlns:xlink="http://www.w3.org/1999/xlink" x="0px" y="0px"
	 viewBox="0 0 16 16" style="enable-background:new 0 0 16 16;" xml:space="preserve">
<style type="text/css">
	.st0{opacity:0.75;}
	.st1{fill:#1F2022;}
	.st2{fill:none;stroke:#1F2022;stroke-miterlimit:10;}
</style>
<g id="_16" class="st0">
	<path class="st1" d="M13,2c0.6,0,1,0.4,1,1v10c0,0.6-0.4,1-1,1H6c-0.6,0-1-0.4-1-1V3c0-0.6,0.4-1,1-1H13 M13,1H6C4.9,1,4,1.9,4,3
		v10c0,1.1,0.9,2,2,2h7c1.1,0,2-0.9,2-2V3C15,1.9,14.1,1,13,1z"/>
	<path class="st1" d="M4,3v1H3V3H4 M5,2H2v3h3V2z"/>
	<path class="st1" d="M4,7v1H3V7H4 M5,6H2v3h3V6z"/>
	<path class="st1" d="M4,11v1H3v-1H4 M5,10H2v3h3V10z"/>
	<circle class="st2" cx="9.5" cy="5.5" r="2"/>
	<path class="st2" d="M11.1,9.5H7.9c-0.8,0-1.4,0.7-1.4,1.5l0,0v0.6c0,0.5,0.3,0.9,0.8,0.9h4.4c0.5,0,0.8-0.4,0.8-0.9V11
		C12.5,10.2,11.9,9.5,11.1,9.5C11.2,9.5,11.1,9.5,11.1,9.5z"/>
</g>
</svg>
