<?xml version="1.0" encoding="utf-8"?>
<!-- Generator: Adobe Illustrator 25.0.0, SVG Export Plug-In . SVG Version: 6.00 Build 0)  -->
<svg version="1.1" id="图层_8" xmlns="http://www.w3.org/2000/svg" xmlns:xlink="http://www.w3.org/1999/xlink" x="0px" y="0px"
	 viewBox="0 0 16 16" style="enable-background:new 0 0 16 16;" xml:space="preserve">
<style type="text/css">
	.st0{opacity:0.75;}
	.st1{fill:#1F2022;}
	.st2{fill:none;stroke:#1F2022;stroke-linecap:round;stroke-miterlimit:10;}
	.st3{fill:none;stroke:#1F2022;stroke-miterlimit:10;}
</style>
<g id="_16" class="st0">
	<rect x="10" y="11" class="st1" width="1" height="3"/>
	<rect x="10" y="9" class="st1" width="1" height="1"/>
	<path class="st1" d="M10.6,8c1.9,0,3.4,1.5,3.4,3.4v0.1c0,1.9-1.6,3.5-3.6,3.4S7,13.4,7,11.4C7,9.5,8.6,8,10.6,8 M10.6,7
		C8.1,7,6,9,6,11.4S8,16,10.4,16c2.5,0,4.5-2,4.6-4.4S13.2,7.1,10.6,7C10.7,7,10.6,7,10.6,7z"/>
	<path class="st2" d="M5.5,14.5h-2c-0.6,0-1-0.4-1-1v-11c0-0.6,0.4-1,1-1h5.6c0.3,0,0.5,0.1,0.7,0.3l2.4,2.4
		c0.2,0.2,0.3,0.4,0.3,0.7v1.6"/>
	<line class="st3" x1="9.5" y1="2" x2="9.5" y2="5"/>
	<line class="st3" x1="12" y1="4.5" x2="9" y2="4.5"/>
</g>
</svg>
