<?xml version="1.0" encoding="utf-8"?>
<!-- Generator: Adobe Illustrator 25.0.0, SVG Export Plug-In . SVG Version: 6.00 Build 0)  -->
<svg version="1.1" id="图层_10" xmlns="http://www.w3.org/2000/svg" xmlns:xlink="http://www.w3.org/1999/xlink" x="0px" y="0px"
	 viewBox="0 0 16 16" style="enable-background:new 0 0 16 16;" xml:space="preserve">
<style type="text/css">
	.st0{opacity:0.75;}
	.st1{fill:#1F2022;}
	.st2{fill:none;stroke:#1F2022;stroke-linecap:round;stroke-miterlimit:10;}
</style>
<g id="_16" class="st0">
	<path class="st1" d="M12.1,7.8l-3.4,3.4c-0.4,0.4-1,0.4-1.4,0l0,0L3.8,7.8c-0.2-0.2-0.2-0.5,0-0.7C4,7.1,4.1,7,4.2,7H6V2
		c0-0.6,0.4-1,1-1h2c0.6,0,1,0.4,1,1v5h1.8c0.3,0,0.5,0.2,0.5,0.5C12.3,7.6,12.2,7.8,12.1,7.8z"/>
	<path class="st2" d="M1.5,9v3.5c0,0.6,0.4,1,1,1h11c0.6,0,1-0.4,1-1V9"/>
</g>
</svg>
