<?xml version="1.0" encoding="utf-8"?>
<!-- Generator: Adobe Illustrator 25.0.0, SVG Export Plug-In . SVG Version: 6.00 Build 0)  -->
<svg version="1.1" id="图层_12" xmlns="http://www.w3.org/2000/svg" xmlns:xlink="http://www.w3.org/1999/xlink" x="0px" y="0px"
	 viewBox="0 0 16 16" style="enable-background:new 0 0 16 16;" xml:space="preserve">
<style type="text/css">
	.st0{opacity:0.75;fill:none;stroke:#1F2022;stroke-linecap:round;stroke-linejoin:round;enable-background:new    ;}
	.st1{opacity:0.75;fill:#1F2022;enable-background:new    ;}
</style>
<g id="_16">
	<polyline class="st0" points="6,10 8,12 10,10 	"/>
	<path class="st1" d="M10.9,5c1.3,0.1,2.4,0.8,3.1,1.9V7h-2V6H4v1H2V6.8c0.1-0.3,0.3-0.5,0.5-0.7C3.2,5.4,4.1,5,5.1,5H10.9 M10.9,4
		H5.1C3.9,4,2.7,4.5,1.8,5.4C1.5,5.7,1.3,6,1.1,6.4C1,6.5,1,6.7,1,6.8V8h4V7h6v1h4V6.9c0-0.2,0-0.4-0.1-0.5C14,5,12.5,4.1,10.9,4
		L10.9,4z"/>
</g>
</svg>
