<?xml version="1.0" encoding="utf-8"?>
<!-- Generator: Adobe Illustrator 25.0.0, SVG Export Plug-In . SVG Version: 6.00 Build 0)  -->
<svg version="1.1" id="图层_12" xmlns="http://www.w3.org/2000/svg" xmlns:xlink="http://www.w3.org/1999/xlink" x="0px" y="0px"
	 viewBox="0 0 16 16" style="enable-background:new 0 0 16 16;" xml:space="preserve">
<style type="text/css">
	.st0{opacity:0.75;}
	.st1{fill:#1F2022;}
</style>
<g id="_16" class="st0">
	<path class="st1" d="M3.3,3.4L4.9,5v0.1L4.2,5.8l0.7,0.7l4.6,4.6l0.7,0.7l0.7-0.7L11,11l1.6,1.6l-0.2,0.2C12,13,11.7,13,11.4,13
		c-1.1,0-2.1-0.4-2.9-1.2L4.1,7.5c-1-1.1-1.3-2.5-1-4L3.3,3.4 M3.3,2L2.4,2.8C2.3,3,2.2,3.2,2.1,3.4C1.8,5.1,2.2,6.8,3.4,8.1
		l4.4,4.4c1,0.9,2.3,1.4,3.6,1.4c0.4,0,0.9-0.1,1.3-0.2c0.1-0.1,0.3-0.1,0.4-0.3l0.9-0.9l-3.1-3l-0.8,0.8L5.6,5.8L6.3,5L3.3,2z"/>
</g>
</svg>
