<?xml version="1.0" encoding="utf-8"?>
<!-- Generator: Adobe Illustrator 25.0.0, SVG Export Plug-In . SVG Version: 6.00 Build 0)  -->
<svg version="1.1" id="图层_16" xmlns="http://www.w3.org/2000/svg" xmlns:xlink="http://www.w3.org/1999/xlink" x="0px" y="0px"
	 viewBox="0 0 16 16" style="enable-background:new 0 0 16 16;" xml:space="preserve">
<style type="text/css">
	.st0{opacity:0.75;}
	.st1{fill:#1F2022;}
</style>
<g id="_16" class="st0">
	<path class="st1" d="M2.5,6L2.5,6C1.7,6,1,6.7,1,7.5l0,0C1,8.3,1.7,9,2.5,9l0,0C3.3,9,4,8.3,4,7.5l0,0C4,6.7,3.3,6,2.5,6z"/>
	<path class="st1" d="M7.5,6L7.5,6C6.7,6,6,6.7,6,7.5l0,0C6,8.3,6.7,9,7.5,9l0,0C8.3,9,9,8.3,9,7.5l0,0C9,6.7,8.3,6,7.5,6z"/>
	<path class="st1" d="M12.5,6L12.5,6C11.7,6,11,6.7,11,7.5l0,0C11,8.3,11.7,9,12.5,9l0,0C13.3,9,14,8.3,14,7.5l0,0
		C14,6.7,13.3,6,12.5,6z"/>
</g>
</svg>
