<?xml version="1.0" encoding="utf-8"?>
<!-- Generator: Adobe Illustrator 25.0.0, SVG Export Plug-In . SVG Version: 6.00 Build 0)  -->
<svg version="1.1" id="图层_19" xmlns="http://www.w3.org/2000/svg" xmlns:xlink="http://www.w3.org/1999/xlink" x="0px" y="0px"
	 viewBox="0 0 16 16" style="enable-background:new 0 0 16 16;" xml:space="preserve">
<style type="text/css">
	.st0{opacity:0.75;}
	.st1{fill:#1F2022;}
	.st2{fill:none;stroke:#1F2022;stroke-linecap:round;stroke-miterlimit:10;}
	.st3{fill:none;stroke:#1F2022;stroke-miterlimit:10;}
</style>
<g id="_16" class="st0">
	<path class="st1" d="M14.9,11.4c0.2-0.2,0.2-0.5,0-0.7l0,0L12,8v2H7.2c-0.6,0-1,0.4-1,1l0,0c0,0.6,0.4,1,1,1H12v2L14.9,11.4z"/>
	<path class="st2" d="M9.5,14.5h-6c-0.6,0-1-0.4-1-1v-11c0-0.6,0.4-1,1-1h5.6c0.3,0,0.5,0.1,0.7,0.3l2.4,2.4
		c0.2,0.2,0.3,0.4,0.3,0.7v1.6"/>
	<line class="st3" x1="9.5" y1="2" x2="9.5" y2="5"/>
	<line class="st3" x1="12" y1="4.5" x2="9" y2="4.5"/>
</g>
</svg>
