<?xml version="1.0" encoding="utf-8"?>
<!-- Generator: Adobe Illustrator 25.0.0, SVG Export Plug-In . SVG Version: 6.00 Build 0)  -->
<svg version="1.1" id="图层_22" xmlns="http://www.w3.org/2000/svg" xmlns:xlink="http://www.w3.org/1999/xlink" x="0px" y="0px"
	 viewBox="0 0 16 16" style="enable-background:new 0 0 16 16;" xml:space="preserve">
<style type="text/css">
	.st0{opacity:0.75;}
	.st1{fill:none;stroke:#1F2022;stroke-linecap:round;stroke-miterlimit:10;}
	.st2{fill:none;stroke:#1F2022;stroke-miterlimit:10;}
	.st3{fill:#1F2022;}
</style>
<g id="_16" class="st0">
	<path class="st1" d="M6.5,12.5h-3c-1.1,0-2-0.9-2-2v-3c0-1.1,0.9-2,2-2h9c1.1,0,2,0.9,2,2v3c0,0.7-0.4,1.4-1.1,1.8"/>
	<path class="st2" d="M3.5,5.8V3.5c0-1.1,0.9-2,2-2h5c1.1,0,2,0.9,2,2v2.3"/>
	<line class="st1" x1="5.5" y1="3.5" x2="10.5" y2="3.5"/>
	<line class="st1" x1="10.5" y1="7.5" x2="12.5" y2="7.5"/>
	<path class="st1" d="M7,14.5H5.5c-0.5,0-1-0.4-1-0.9v-0.1v-1"/>
	<path class="st3" d="M11,10c1.1,0,2,0.9,2,2s-0.9,2-2,2s-2-0.9-2-2S9.9,10,11,10 M11,9c-1.7,0-3,1.3-3,3s1.3,3,3,3s3-1.3,3-3
		S12.7,9,11,9z"/>
	<line class="st1" x1="13.5" y1="13.5" x2="15" y2="14.5"/>
</g>
</svg>
