<?xml version="1.0" encoding="utf-8"?>
<!-- Generator: Adobe Illustrator 25.0.0, SVG Export Plug-In . SVG Version: 6.00 Build 0)  -->
<svg version="1.1" id="d" xmlns="http://www.w3.org/2000/svg" xmlns:xlink="http://www.w3.org/1999/xlink" x="0px" y="0px"
	 viewBox="0 0 16 16" style="enable-background:new 0 0 16 16;" xml:space="preserve">
<style type="text/css">
	.st0{opacity:0.75;fill:#1F2022;enable-background:new    ;}
	.st1{opacity:0.75;fill:none;stroke:#1F2022;stroke-linecap:round;stroke-linejoin:round;enable-background:new    ;}
</style>
<g id="_16">
	<path class="st0" d="M7,4c1.6,0,3,1.2,3,2.9V7c0,1.6-1.2,3-2.9,3H7c-1.7,0-3-1.3-3-3S5.3,4,7,4 M7,3C4.8,3,3,4.8,3,7s1.8,4,4,4
		s4-1.7,4-3.8c0-0.1,0-0.1,0-0.2c0-2.2-1.7-4-3.8-4C7.1,3,7.1,3,7,3z"/>
	<circle class="st0" cx="7" cy="7" r="1"/>
	<path class="st1" d="M14.5,2.5v9c0,1.7-1.3,3-3,3h-9"/>
	<path class="st0" d="M11,2c0.6,0,1,0.4,1,1v8c0,0.6-0.4,1-1,1H3c-0.6,0-1-0.4-1-1V3c0-0.6,0.4-1,1-1H11 M11,1H3C1.9,1,1,1.9,1,3v8
		c0,1.1,0.9,2,2,2h8c1.1,0,2-0.9,2-2V3C13,1.9,12.1,1,11,1z"/>
</g>
</svg>
