<?xml version="1.0" encoding="utf-8"?>
<!-- Generator: Adobe Illustrator 25.0.0, SVG Export Plug-In . SVG Version: 6.00 Build 0)  -->
<svg version="1.1" id="e" xmlns="http://www.w3.org/2000/svg" xmlns:xlink="http://www.w3.org/1999/xlink" x="0px" y="0px"
	 viewBox="0 0 16 16" style="enable-background:new 0 0 16 16;" xml:space="preserve">
<style type="text/css">
	.st0{opacity:0.75;}
	.st1{fill:#1F2022;}
	.st2{fill:none;stroke:#1F2022;stroke-linecap:round;stroke-miterlimit:10;}
</style>
<g id="_16" class="st0">
	<path class="st1" d="M10.1,4c0.3,0,0.6,0.1,0.8,0.4l3,3.6l-3,3.6c-0.2,0.2-0.5,0.4-0.8,0.4H2.9c-0.6,0-1-0.4-1-1V5c0-0.6,0.4-1,1-1
		H10.1 M10.1,3H2.9c-1.1,0-2,0.9-2,2v6c0,1.1,0.9,2,2,2h7.2c0.6,0,1.2-0.3,1.6-0.8l3-3.6c0.3-0.4,0.3-0.9,0-1.2l-3-3.6
		C11.3,3.3,10.7,3,10.1,3z"/>
	<line class="st2" x1="4.5" y1="6" x2="8.5" y2="10"/>
	<line class="st2" x1="8.5" y1="6" x2="4.5" y2="10"/>
</g>
</svg>
