<?xml version="1.0" encoding="utf-8"?>
<!-- Generator: Adobe Illustrator 25.0.0, SVG Export Plug-In . SVG Version: 6.00 Build 0)  -->
<svg version="1.1" id="e" xmlns="http://www.w3.org/2000/svg" xmlns:xlink="http://www.w3.org/1999/xlink" x="0px" y="0px"
	 viewBox="0 0 16 16" style="enable-background:new 0 0 16 16;" xml:space="preserve">
<style type="text/css">
	.st0{opacity:0.75;}
	.st1{fill:#1F2022;}
	.st2{fill:none;stroke:#1F2022;stroke-linecap:round;stroke-miterlimit:10;}
	.st3{fill:none;stroke:#1F2022;stroke-width:0.5;stroke-linecap:round;stroke-miterlimit:10;}
</style>
<g id="_16" class="st0">
	<rect x="1" y="6" class="st1" width="14" height="1"/>
	<path class="st1" d="M13,4c0.6,0,1,0.4,1,1v8c0,0.6-0.4,1-1,1H3c-0.6,0-1-0.4-1-1V5c0-0.6,0.4-1,1-1H13 M13,3H3C1.9,3,1,3.9,1,5v8
		c0,1.1,0.9,2,2,2h10c1.1,0,2-0.9,2-2V5C15,3.9,14.1,3,13,3z"/>
	<line class="st2" x1="4.5" y1="2.5" x2="4.5" y2="4.5"/>
	<line class="st2" x1="11.5" y1="2.5" x2="11.5" y2="4.5"/>
	<path class="st1" d="M4,9.5c0.3,0,0.5,0.2,0.5,0.5S4.3,10.5,4,10.5S3.5,10.3,3.5,10S3.7,9.5,4,9.5 M4,9C3.5,9,3,9.4,3,9.9V10
		c0,0.5,0.4,1,0.9,1H4c0.5,0,1-0.4,1-0.9V10C5,9.5,4.6,9,4,9L4,9z"/>
	<path class="st1" d="M12,9.5c0.3,0,0.5,0.2,0.5,0.5s-0.2,0.5-0.5,0.5s-0.5-0.2-0.5-0.5c0-0.2,0.1-0.5,0.4-0.5H12 M12,9
		c-0.5,0-1,0.4-1,0.9V10c0,0.6,0.4,1,1,1s1-0.4,1-1c0-0.5-0.4-1-0.9-1H12z"/>
	<line class="st3" x1="7.3" y1="9.3" x2="8.8" y2="10.8"/>
	<line class="st3" x1="8.8" y1="9.3" x2="7.3" y2="10.8"/>
</g>
</svg>
