<?xml version="1.0" encoding="utf-8"?>
<!-- Generator: Adobe Illustrator 25.0.0, SVG Export Plug-In . SVG Version: 6.00 Build 0)  -->
<svg version="1.1" id="f" xmlns="http://www.w3.org/2000/svg" xmlns:xlink="http://www.w3.org/1999/xlink" x="0px" y="0px"
	 viewBox="0 0 16 16" style="enable-background:new 0 0 16 16;" xml:space="preserve">
<style type="text/css">
	.st0{opacity:0.75;fill:none;stroke:#1F2022;stroke-miterlimit:10;enable-background:new    ;}
</style>
<g id="_16">
	<path class="st0" d="M5.5,6.5h3l2,2h3c0.6,0,1,0.4,1,1v4c0,0.6-0.4,1-1,1h-8c-0.6,0-1-0.4-1-1v-6C4.5,6.9,4.9,6.5,5.5,6.5z"/>
	<path class="st0" d="M1.5,3V2.5c0-0.6,0.4-1,1-1H3"/>
	<polyline class="st0" points="6.5,3 7,3.5 8,3.5 	"/>
	<polyline class="st0" points="4,1.5 5,1.5 5.5,2 	"/>
	<line class="st0" x1="9.5" y1="3" x2="9.5" y2="4"/>
	<line class="st0" x1="11.5" y1="3" x2="11.5" y2="4"/>
	<line class="st0" x1="11.5" y1="5" x2="11.5" y2="6"/>
	<line class="st0" x1="1.5" y1="4" x2="1.5" y2="5"/>
	<line class="st0" x1="1.5" y1="6" x2="1.5" y2="7"/>
	<path class="st0" d="M3,9.5H2.5c-0.6,0-1-0.4-1-1V8"/>
</g>
</svg>
