<?xml version="1.0" encoding="utf-8"?>
<!-- Generator: Adobe Illustrator 25.0.0, SVG Export Plug-In . SVG Version: 6.00 Build 0)  -->
<svg version="1.1" id="f" xmlns="http://www.w3.org/2000/svg" xmlns:xlink="http://www.w3.org/1999/xlink" x="0px" y="0px"
	 viewBox="0 0 16 16" style="enable-background:new 0 0 16 16;" xml:space="preserve">
<style type="text/css">
	.st0{opacity:0.75;fill:none;stroke:#1F2022;stroke-miterlimit:10;enable-background:new    ;}
</style>
<g id="_16">
	<path class="st0" d="M3,9.5H2.5c-0.6,0-1-0.4-1-1v-6c0-0.6,0.4-1,1-1h2.7l1.8,2h3.5c0.6,0,1,0.4,1,1V7"/>
	<path class="st0" d="M4.5,7.5v6c0,0.6,0.4,1,1,1h8c0.6,0,1-0.4,1-1v-4c0-0.6-0.4-1-1-1H10l-2-2H5.5C4.9,6.5,4.5,6.9,4.5,7.5z"/>
</g>
</svg>
