<?xml version="1.0" encoding="utf-8"?>
<!-- Generator: Adobe Illustrator 23.0.1, SVG Export Plug-In . SVG Version: 6.00 Build 0)  -->
<svg version="1.1" id="图层_1" xmlns="http://www.w3.org/2000/svg" xmlns:xlink="http://www.w3.org/1999/xlink" x="0px" y="0px"
	 viewBox="0 0 16 16" style="enable-background:new 0 0 16 16;" xml:space="preserve">
<style type="text/css">
	.st0{opacity:0.75;fill:#1F2022;}
</style>
<title>删除线-new</title>
<path class="st0" d="M1.5,8h13C14.8,8,15,8.2,15,8.5l0,0C15,8.8,14.8,9,14.5,9h-13C1.2,9,1,8.8,1,8.5l0,0C1,8.2,1.2,8,1.5,8z"/>
<path class="st0" d="M5.9,7l1.9-5.3H8L10,7h1.1L8.9,1.1C8.8,0.9,8.6,0.8,8.4,0.8H7.5C7.3,0.7,7.1,0.9,7,1.1L4.9,7H5.9z"/>
<path class="st0" d="M3.8,10l-1.7,4.6c-0.1,0.3,0,0.5,0.3,0.6c0,0,0,0,0,0c0.3,0.1,0.5,0,0.6-0.3L4.8,10H3.8z"/>
<path class="st0" d="M12.2,10h-1.1l1.9,4.9c0.1,0.2,0.3,0.3,0.5,0.3h0.2c0.3-0.1,0.4-0.4,0.3-0.6L12.2,10z"/>
</svg>
