<?xml version="1.0" encoding="utf-8"?>
<!-- Generator: Adobe Illustrator 25.0.0, SVG Export Plug-In . SVG Version: 6.00 Build 0)  -->
<svg version="1.1" id="g" xmlns="http://www.w3.org/2000/svg" xmlns:xlink="http://www.w3.org/1999/xlink" x="0px" y="0px"
	 viewBox="0 0 16 16" style="enable-background:new 0 0 16 16;" xml:space="preserve">
<style type="text/css">
	.st0{fill:#FF0000;}
	.st1{opacity:0.75;}
	.st2{fill:#1F2022;}
	.st3{fill:none;stroke:#1F2022;stroke-linecap:round;stroke-miterlimit:10;}
</style>
<g id="_16">
	<rect x="10" y="8" class="st0" width="2" height="2"/>
	<g class="st1">
		<rect x="1" y="5" class="st2" width="14" height="1"/>
		<rect x="4" y="8" class="st2" width="1" height="1"/>
		<rect x="7" y="8" class="st2" width="1" height="1"/>
		<path class="st2" d="M13,3c0.6,0,1,0.4,1,1v9c0,0.6-0.4,1-1,1H3c-0.6,0-1-0.4-1-1V4c0-0.6,0.4-1,1-1H13 M13,2H3C1.9,2,1,2.9,1,4v9
			c0,1.1,0.9,2,2,2h10c1.1,0,2-0.9,2-2V4C15,2.9,14.1,2,13,2z"/>
		<rect x="4" y="11" class="st2" width="1" height="1"/>
		<rect x="7" y="11" class="st2" width="1" height="1"/>
		<rect x="10" y="11" class="st2" width="1" height="1"/>
		<line class="st3" x1="11.5" y1="1.5" x2="11.5" y2="3.5"/>
		<line class="st3" x1="4.5" y1="1.5" x2="4.5" y2="3.5"/>
	</g>
</g>
</svg>
