<?xml version="1.0" encoding="utf-8"?>
<!-- Generator: Adobe Illustrator 25.0.0, SVG Export Plug-In . SVG Version: 6.00 Build 0)  -->
<svg version="1.1" id="g" xmlns="http://www.w3.org/2000/svg" xmlns:xlink="http://www.w3.org/1999/xlink" x="0px" y="0px"
	 viewBox="0 0 16 16" style="enable-background:new 0 0 16 16;" xml:space="preserve">
<style type="text/css">
	.st0{opacity:0.75;}
	.st1{fill:#1F2022;}
</style>
<g id="_16" class="st0">
	<path class="st1" d="M5.4,6.8c0-0.9,0.1-1.6,0.7-2c0.4-0.3,1-0.5,1.5-0.5s1.1,0.2,1.5,0.5c0.5,0.4,0.7,0.9,0.7,1.5
		c0,0.7-0.4,1.4-0.9,1.8C8.6,8.4,8.3,8.7,8.1,9C8,9.3,7.9,9.7,7.9,10H7c0-0.4,0.1-0.8,0.2-1.2c0.2-0.4,0.5-0.7,0.8-1l0.1-0.1
		c0.6-0.5,0.8-0.9,0.7-1.3c0-0.7-0.5-1.2-1.2-1.3H7.5c-0.9,0-1.4,0.6-1.4,1.7H5.4z"/>
	<rect x="7" y="11" class="st1" width="1" height="1"/>
	<path class="st1" d="M8,2c3.3,0,6,2.6,6,5.9V8c0,3.3-2.6,6-5.9,6H8c-3.3,0-6-2.6-6-5.9V8C2,4.7,4.6,2,8,2L8,2 M8,1C4.1,1,1,4.1,1,8
		s3.1,7,7,7s7-3.1,7-7S11.9,1,8,1z"/>
</g>
</svg>
