<?xml version="1.0" encoding="utf-8"?>
<!-- Generator: Adobe Illustrator 25.0.0, SVG Export Plug-In . SVG Version: 6.00 Build 0)  -->
<svg version="1.1" id="i" xmlns="http://www.w3.org/2000/svg" xmlns:xlink="http://www.w3.org/1999/xlink" x="0px" y="0px"
	 viewBox="0 0 16 16" style="enable-background:new 0 0 16 16;" xml:space="preserve">
<style type="text/css">
	.st0{opacity:0.75;}
	.st1{fill:#1F2022;}
	.st2{fill:none;stroke:#1F2022;stroke-linecap:round;stroke-miterlimit:10;}
</style>
<g id="_16" class="st0">
	<path class="st1" d="M8.1,2C11.3,2,14,4.2,14,6.9s-2.7,4.9-6,4.9c-0.5,0-1-0.1-1.5-0.2l-0.4-0.1l-0.3,0.3L4,13v-2.6l-0.3-0.3
		c-1-0.8-1.6-2-1.7-3.2C2,4.2,4.7,2,8.1,2 M8.1,1C4.1,1,1,3.6,1,6.9c0.1,1.6,0.8,3,2,4V15l3.3-2.4c0.6,0.1,1.1,0.2,1.7,0.2
		c3.8,0,7.1-2.6,7.1-5.9S11.9,1,8.1,1z"/>
	<line class="st2" x1="4.5" y1="8.5" x2="7.5" y2="8.5"/>
	<line class="st2" x1="4.5" y1="5.5" x2="11.5" y2="5.5"/>
</g>
</svg>
