<?xml version="1.0" encoding="utf-8"?>
<!-- Generator: Adobe Illustrator 25.0.0, SVG Export Plug-In . SVG Version: 6.00 Build 0)  -->
<svg version="1.1" id="h" xmlns="http://www.w3.org/2000/svg" xmlns:xlink="http://www.w3.org/1999/xlink" x="0px" y="0px"
	 viewBox="0 0 16 16" style="enable-background:new 0 0 16 16;" xml:space="preserve">
<style type="text/css">
	.st0{opacity:0.75;}
	.st1{fill:#1F2022;}
</style>
<g id="_16" class="st0">
	<rect id="rect44755" x="1" y="1" class="st1" width="2" height="2"/>
	<rect id="rect44757" x="3" y="1" class="st1" width="2" height="2"/>
	<rect id="rect44759" x="5" y="1" class="st1" width="2" height="2"/>
	<rect id="rect44761" x="5" y="3" class="st1" width="2" height="2"/>
	<rect id="rect44763" x="3" y="5" class="st1" width="2" height="2"/>
	<rect id="rect44765" x="1" y="7" class="st1" width="2" height="2"/>
	<rect id="rect44767" x="3" y="9" class="st1" width="2" height="2"/>
	<rect id="rect44769" x="5" y="7" class="st1" width="2" height="2"/>
	<rect id="rect44771" x="7" y="5" class="st1" width="2" height="2"/>
	<rect id="rect44773" x="9" y="5" class="st1" width="2" height="2"/>
	<rect id="rect44775" x="9" y="1" class="st1" width="2" height="2"/>
	<rect id="rect44777" x="11" y="3" class="st1" width="2" height="2"/>
	<rect id="rect44779" x="11" y="9" class="st1" width="2" height="2"/>
	<rect id="rect44781" x="7" y="11" class="st1" width="2" height="2"/>
	<rect id="rect44783" x="9" y="13" class="st1" width="2" height="2"/>
	<rect id="rect44785" x="3" y="13" class="st1" width="2" height="2"/>
	<rect id="rect44787" x="13" y="11" class="st1" width="2" height="2"/>
	<rect id="rect44789" x="13" y="13" class="st1" width="2" height="2"/>
	<rect id="rect44791" x="13" y="13" class="st1" width="2" height="2"/>
</g>
</svg>
