<?xml version="1.0" encoding="utf-8"?>
<!-- Generator: Adobe Illustrator 25.0.0, SVG Export Plug-In . SVG Version: 6.00 Build 0)  -->
<svg version="1.1" id="h" xmlns="http://www.w3.org/2000/svg" xmlns:xlink="http://www.w3.org/1999/xlink" x="0px" y="0px"
	 viewBox="0 0 16 16" style="enable-background:new 0 0 16 16;" xml:space="preserve">
<style type="text/css">
	.st0{opacity:0.75;}
	.st1{fill:#1F2022;}
</style>
<g id="_16" class="st0">
	<path class="st1" d="M12,5.8c0-0.5-0.2-0.9-0.5-1.3c-0.7-0.7-1.9-0.7-2.6,0l-7.3,7.3c-0.7,0.7-0.7,1.9,0.1,2.6
		c0.7,0.7,1.8,0.7,2.5,0l3-3l0,0l4.3-4.3C11.8,6.8,12,6.3,12,5.8z M1.9,14.1c-0.4-0.4-0.5-1-0.1-1.5l0.1-0.1l0,0l4.2-4.2
		C6.6,7.9,7.3,8,7.7,8.4c0.4,0.4,0.4,1.1,0,1.5l-4.1,4.2C3.2,14.5,2.5,14.6,1.9,14.1C2,14.1,2,14.1,1.9,14.1z M11,6.6L8.8,8.9
		C8.7,8,8,7.3,7.2,7.2L9.3,5c0.4-0.5,1.2-0.5,1.6-0.1C10.9,4.9,11,5,11,5C11.5,5.4,11.5,6.1,11,6.6L11,6.6z"/>
	<polygon class="st1" points="7.7,2.9 7.2,3.1 7.1,3.8 6.6,3.3 6,3.4 6.3,2.9 6,2.3 6.6,2.4 7.1,1.9 7.2,2.6 	"/>
	<polygon class="st1" points="12.5,1.7 11.9,2.5 12.2,3.3 11.4,3 10.6,3.5 10.6,2.6 9.9,2.1 10.8,1.9 11.1,1 11.6,1.7 	"/>
	<polygon class="st1" points="15,7.4 14.6,7.6 14.5,8 14.2,7.7 13.8,7.8 14,7.4 13.8,7 14.2,7 14.5,6.7 14.6,7.2 	"/>
</g>
</svg>
