<?xml version="1.0" encoding="utf-8"?>
<!-- Generator: Adobe Illustrator 25.0.0, SVG Export Plug-In . SVG Version: 6.00 Build 0)  -->
<svg version="1.1" id="h" xmlns="http://www.w3.org/2000/svg" xmlns:xlink="http://www.w3.org/1999/xlink" x="0px" y="0px"
	 viewBox="0 0 16 16" style="enable-background:new 0 0 16 16;" xml:space="preserve">
<style type="text/css">
	.st0{opacity:0.75;}
	.st1{fill:#1F2022;}
	.st2{fill:none;stroke:#1F2022;stroke-linecap:round;stroke-miterlimit:10;}
</style>
<g id="_16" class="st0">
	<path class="st1" d="M13,2c0.6,0,1,0.4,1,1v10c0,0.6-0.4,1-1,1H3c-0.6,0-1-0.4-1-1V3c0-0.6,0.4-1,1-1H13 M13,1H3C1.9,1,1,1.9,1,3
		v10c0,1.1,0.9,2,2,2h10c1.1,0,2-0.9,2-2V3C15,1.9,14.1,1,13,1z"/>
	<path class="st1" d="M8.9,4c0.3,0,0.5,0.2,0.5,0.4c0,0,0,0,0,0.1C9.4,4.8,9.2,5,8.9,5S8.4,4.8,8.4,4.5S8.6,4,8.9,4L8.9,4 M8.9,3
		C8.1,3,7.4,3.6,7.4,4.4v0.1C7.4,5.3,8.1,6,8.9,6c0.8,0,1.5-0.7,1.5-1.5S9.8,3,8.9,3C9,3,8.9,3,8.9,3z"/>
	<line class="st2" x1="3.5" y1="11.5" x2="8.5" y2="11.5"/>
	<line class="st2" x1="11.2" y1="11.5" x2="12.5" y2="11.5"/>
	<path class="st1" d="M5.9,8c0.3,0,0.5,0.2,0.5,0.5S6.2,9,5.9,9S5.4,8.8,5.4,8.5S5.6,8,5.9,8L5.9,8 M5.9,7C5.1,7,4.4,7.7,4.4,8.5
		S5.1,10,5.9,10s1.5-0.7,1.5-1.5S6.7,7,5.9,7z"/>
	<line class="st2" x1="3.5" y1="8.5" x2="4.5" y2="8.5"/>
	<line class="st2" x1="7.2" y1="8.5" x2="12.5" y2="8.5"/>
	<line class="st2" x1="3.5" y1="4.5" x2="7.5" y2="4.5"/>
	<line class="st2" x1="10.2" y1="4.5" x2="12.5" y2="4.5"/>
	<path class="st1" d="M9.8,11c0.3,0,0.5,0.2,0.5,0.5S10.1,12,9.8,12s-0.5-0.2-0.5-0.5S9.5,11,9.8,11L9.8,11 M9.8,10
		c-0.8,0-1.5,0.7-1.5,1.5S9,13,9.8,13s1.5-0.7,1.5-1.5S10.7,10,9.8,10C9.9,10,9.8,10,9.8,10z"/>
</g>
</svg>
