<?xml version="1.0" encoding="utf-8"?>
<!-- Generator: Adobe Illustrator 25.0.0, SVG Export Plug-In . SVG Version: 6.00 Build 0)  -->
<svg version="1.1" id="h" xmlns="http://www.w3.org/2000/svg" xmlns:xlink="http://www.w3.org/1999/xlink" x="0px" y="0px"
	 viewBox="0 0 16 16" style="enable-background:new 0 0 16 16;" xml:space="preserve">
<style type="text/css">
	.st0{opacity:0.75;}
	.st1{fill:none;stroke:#1F2022;stroke-linecap:round;stroke-miterlimit:10;}
	.st2{fill:#1F2022;}
	.st3{opacity:0.2;fill:#1F2022;enable-background:new    ;}
</style>
<g id="_16">
	<g class="st0">
		<line class="st1" x1="1.5" y1="1.5" x2="1.5" y2="14.5"/>
		<line class="st1" x1="14.5" y1="14.5" x2="1.5" y2="14.5"/>
		<path class="st2" d="M14,2.5c-0.1,1-0.4,1.9-0.9,2.8c-0.6,0.8-1.6,1.6-3,2.1C9.7,7.6,9.3,7.7,8.9,7.8C8.6,7.9,8.4,7.9,8.1,8
			c-2.5,0.5-3.9,1.5-4.7,2.7c-0.6,1-1.1,2.1-1.3,3.3c0,0.2-0.1,0.3-0.1,0.5v0.1C2,14.8,1.8,15,1.6,15c0,0,0,0-0.1,0H1.4H1.3H1.2
			l-0.1-0.1L1,14.8v-0.1v-0.1l0,0v-0.1c0.2-1.5,0.8-3,1.6-4.3c1.3-1.7,3.2-2.8,5.3-3.1c2.5-0.5,3.8-1.3,4.4-2.3C12.8,4,13,3,13,2.1
			c0-0.2,0-0.3,0-0.5c0-0.3,0.2-0.5,0.5-0.5l0,0c0.3,0,0.5,0.2,0.5,0.5S14,2.2,14,2.5z"/>
	</g>
	<path class="st3" d="M14,2.5V14H2.1c0.2-1.2,0.7-2.3,1.3-3.3C4.2,9.5,5.5,8.5,8.1,8c0.3-0.1,0.5-0.1,0.8-0.2
		c0.4-0.1,0.8-0.2,1.2-0.4c1.4-0.5,2.4-1.3,3-2.1C13.6,4.5,13.9,3.5,14,2.5z"/>
</g>
</svg>
