<svg id="图层_1" data-name="图层 1" xmlns="http://www.w3.org/2000/svg" viewBox="0 0 16 16"><defs><style>.cls-1{opacity:0.75;}.cls-2{fill:#1f2022;}.cls-3{fill:none;stroke:#1f2022;stroke-linecap:round;stroke-linejoin:round;}</style></defs><g class="cls-1"><path class="cls-2" d="M11.78,11.94a5.17,5.17,0,0,1-1.1,1,5.49,5.49,0,0,1-6.4-8.93,5.15,5.15,0,0,1,1.35-.72,5.8,5.8,0,0,1,.82-1.24,6.43,6.43,0,0,0-1.53.44A6.5,6.5,0,0,0,7.5,15a6.45,6.45,0,0,0,4.78-2.12,5.94,5.94,0,0,0,.94-1.31A5.09,5.09,0,0,1,11.78,11.94Z"/><path class="cls-2" d="M11.78,11.94A5.12,5.12,0,0,1,11,12,6,6,0,0,1,5,6a5.84,5.84,0,0,1,.63-2.67,5.8,5.8,0,0,1,.82-1.24,6.43,6.43,0,0,0-1.53.44,6.61,6.61,0,0,0-.64,1.52A7,7,0,0,0,10.68,13,1.67,1.67,0,0,0,11,13a6.7,6.7,0,0,0,1.28-.12,5.94,5.94,0,0,0,.94-1.31A5.09,5.09,0,0,1,11.78,11.94Z"/><polyline class="cls-3" points="7.5 6.5 8.5 6.5 7.5 8.5 8.5 8.5"/><polyline class="cls-3" points="12.5 4.5 14.5 4.5 12.5 6.5 14.5 6.5"/><polyline class="cls-3" points="10.5 8.5 12.5 8.5 10.5 10.5 12.5 10.5"/></g></svg>