<?xml version="1.0" encoding="utf-8"?>
<!-- Generator: Adobe Illustrator 25.0.0, SVG Export Plug-In . SVG Version: 6.00 Build 0)  -->
<svg version="1.1" id="m" xmlns="http://www.w3.org/2000/svg" xmlns:xlink="http://www.w3.org/1999/xlink" x="0px" y="0px"
	 viewBox="0 0 16 16" style="enable-background:new 0 0 16 16;" xml:space="preserve">
<style type="text/css">
	.st0{opacity:0.75;}
	.st1{fill:none;stroke:#1F2022;stroke-miterlimit:10;}
	.st2{fill:#27BC08;}
</style>
<g id="_16">
	<g class="st0">
		<path class="st1" d="M6.8,2.3L2.3,5.7c-0.5,0.4-0.8,1-0.8,1.6v5.2c0,1.1,0.9,2,2,2h9.1c1.1,0,2-0.9,2-2V7.3c0-0.6-0.3-1.2-0.8-1.6
			L9.2,2.3C8.5,1.8,7.5,1.8,6.8,2.3z"/>
		<path class="st1" d="M14.5,14L8.6,9.7c-0.3-0.2-0.8-0.2-1.2,0l-5.9,4.2"/>
		<line class="st1" x1="7.2" y1="10.1" x2="1.5" y2="6"/>
		<line class="st1" x1="14.3" y1="6.1" x2="8.6" y2="10.1"/>
	</g>
	<polygon class="st2" points="12,12 16,12 16,14 12,14 12,15.5 9,13 12,10.5 	"/>
</g>
</svg>
