<?xml version="1.0" encoding="utf-8"?>
<!-- Generator: Adobe Illustrator 25.0.0, SVG Export Plug-In . SVG Version: 6.00 Build 0)  -->
<svg version="1.1" id="i" xmlns="http://www.w3.org/2000/svg" xmlns:xlink="http://www.w3.org/1999/xlink" x="0px" y="0px"
	 viewBox="0 0 16 16" style="enable-background:new 0 0 16 16;" xml:space="preserve">
<style type="text/css">
	.st0{fill:none;stroke:#EA572A;stroke-miterlimit:10;}
	.st1{fill:none;stroke:#EA572A;stroke-linecap:round;stroke-miterlimit:10;}
	.st2{fill:#EA572A;}
	.st3{opacity:0.75;}
	.st4{fill:none;stroke:#1F2022;stroke-miterlimit:10;}
	.st5{fill:none;stroke:#1F2022;stroke-linecap:round;stroke-miterlimit:10;}
</style>
<g id="_16">
	<line class="st0" x1="13.4" y1="13.4" x2="9.6" y2="9.6"/>
	<line class="st1" x1="9.8" y1="13.2" x2="13.2" y2="9.8"/>
	<path class="st2" d="M11.5,9c1.4,0,2.5,1.1,2.5,2.5S12.9,14,11.5,14S9,12.9,9,11.5S10.1,9,11.5,9 M11.5,8C9.6,8,8,9.6,8,11.5
		S9.6,15,11.5,15s3.5-1.6,3.5-3.5S13.4,8,11.5,8z"/>
	<g class="st3">
		<path class="st4" d="M1.7,3.6l5.7,4c0.3,0.2,0.8,0.2,1.1,0l5.9-4.1"/>
		<line class="st4" x1="6.8" y1="7.2" x2="2" y2="11.9"/>
		<path class="st5" d="M6.5,12.5h-3c-1.1,0-2-0.9-2-2v-6c0-1.1,0.9-2,2-2h9c1.1,0,2,0.9,2,2v3"/>
	</g>
</g>
</svg>
