<?xml version="1.0" encoding="utf-8"?>
<!-- Generator: Adobe Illustrator 25.0.0, SVG Export Plug-In . SVG Version: 6.00 Build 0)  -->
<svg version="1.1" id="m" xmlns="http://www.w3.org/2000/svg" xmlns:xlink="http://www.w3.org/1999/xlink" x="0px" y="0px"
	 viewBox="0 0 16 16" style="enable-background:new 0 0 16 16;" xml:space="preserve">
<style type="text/css">
	.st0{opacity:0.75;}
	.st1{fill:none;stroke:#1F2022;stroke-miterlimit:10;}
	.st2{fill:none;stroke:#1F2022;stroke-linecap:round;stroke-miterlimit:10;}
	.st3{fill:none;stroke:#1F2022;stroke-linecap:round;stroke-miterlimit:10;stroke-dasharray:1.86,1.86;}
</style>
<g id="_16" class="st0">
	<line class="st1" x1="8.4" y1="9.1" x2="3.8" y2="13.2"/>
	<line class="st1" x1="15.2" y1="13.2" x2="10.5" y2="9.3"/>
	<path class="st1" d="M15.2,5.8l-5.1,3.8c-0.4,0.3-0.8,0.3-1.2,0l-5-3.8"/>
	<path class="st1" d="M14.5,5.5h-10c-0.6,0-1,0.4-1,1v6c0,0.6,0.4,1,1,1h10c0.6,0,1-0.4,1-1v-6C15.5,5.9,15.1,5.5,14.5,5.5z"/>
	<line class="st2" x1="12.5" y1="3.5" x2="11.5" y2="3.5"/>
	<path class="st3" d="M9.6,3.5H4.5c-1.7,0-3,1.3-3,3v4.1"/>
	<line class="st2" x1="1.5" y1="11.5" x2="1.5" y2="12.5"/>
</g>
</svg>
