<?xml version="1.0" encoding="utf-8"?>
<!-- Generator: Adobe Illustrator 25.0.0, SVG Export Plug-In . SVG Version: 6.00 Build 0)  -->
<svg version="1.1" id="图层_1" xmlns="http://www.w3.org/2000/svg" xmlns:xlink="http://www.w3.org/1999/xlink" x="0px" y="0px"
	 viewBox="0 0 16 16" style="enable-background:new 0 0 16 16;" xml:space="preserve">
<style type="text/css">
	.st0{opacity:0.75;}
	.st1{fill:none;stroke:#1F2022;stroke-linecap:round;stroke-miterlimit:10;}
	.st2{fill:none;stroke:#1F2022;stroke-linecap:round;stroke-linejoin:round;}
	.st3{fill:#EA572A;}
	.st4{fill:none;stroke:#EA572A;stroke-miterlimit:10;}
</style>
<g id="m">
	<g id="_16">
		<g id="_16-2" class="st0">
			<path class="st1" d="M7.3,7L7.3,7c0-1.9,1.6-3.5,3.5-3.5h3.6"/>
			<path class="st1" d="M14.4,10.5H11c-0.7,0-1.4-0.2-2-0.6"/>
			<path class="st1" d="M7.3,7L7.3,7c0,2-1.6,3.5-3.6,3.5H1.5"/>
			<path class="st1" d="M1.5,3.5h2.2c0.7,0,1.4,0.2,2,0.6"/>
			<polyline class="st2" points="13,9 15,10.5 13,12 			"/>
			<polyline class="st2" points="13,2 15,3.5 13,5 			"/>
		</g>
		<path class="st3" d="M4.5,9C5.9,9,7,10.1,7,11.5S5.9,14,4.5,14S2,12.9,2,11.5S3.1,9,4.5,9 M4.5,8C2.6,8,1,9.6,1,11.5
			S2.6,15,4.5,15S8,13.4,8,11.5S6.4,8,4.5,8z"/>
		<line class="st4" x1="6.5" y1="9.5" x2="2.5" y2="13.5"/>
		<line class="st4" x1="2.5" y1="9.5" x2="6.5" y2="13.5"/>
	</g>
</g>
</svg>
