<?xml version="1.0" encoding="utf-8"?>
<!-- Generator: Adobe Illustrator 25.0.0, SVG Export Plug-In . SVG Version: 6.00 Build 0)  -->
<svg version="1.1" id="图层_1" xmlns="http://www.w3.org/2000/svg" xmlns:xlink="http://www.w3.org/1999/xlink" x="0px" y="0px"
	 viewBox="0 0 16 16" style="enable-background:new 0 0 16 16;" xml:space="preserve">
<style type="text/css">
	.st0{opacity:0.75;}
	.st1{fill:#1F2022;}
</style>
<g id="m" class="st0">
	<g id="_16">
		<rect x="4" y="3" class="st1" width="1" height="10"/>
		<rect x="11" y="3" class="st1" width="1" height="10"/>
		<rect x="7" y="3" class="st1" width="1" height="10"/>
		<rect x="3" y="5" class="st1" width="3" height="1"/>
		<rect x="6" y="10" class="st1" width="3" height="1"/>
		<rect x="10" y="7" class="st1" width="3" height="1"/>
		<path class="st1" d="M13,2c0.6,0,1,0.4,1,1v10c0,0.6-0.4,1-1,1H3c-0.6,0-1-0.4-1-1V3c0-0.6,0.4-1,1-1H13 M13,1H3C1.9,1,1,1.9,1,3
			v10c0,1.1,0.9,2,2,2h10c1.1,0,2-0.9,2-2V3C15,1.9,14.1,1,13,1z"/>
	</g>
</g>
</svg>
