<?xml version="1.0" encoding="utf-8"?>
<!-- Generator: Adobe Illustrator 25.0.0, SVG Export Plug-In . SVG Version: 6.00 Build 0)  -->
<svg version="1.1" id="图层_1" xmlns="http://www.w3.org/2000/svg" xmlns:xlink="http://www.w3.org/1999/xlink" x="0px" y="0px"
	 viewBox="0 0 16 16" style="enable-background:new 0 0 16 16;" xml:space="preserve">
<style type="text/css">
	.st0{opacity:0.75;}
	.st1{fill:#1F2022;}
	.st2{fill:none;stroke:#1F2022;stroke-linecap:round;stroke-linejoin:round;}
</style>
<g id="m" class="st0">
	<g id="_16">
		<g id="_16-2">
			<path class="st1" d="M9.6,4c0.7,0,1.3,0.5,1.4,1.2C11.1,5.7,11.5,6,12,6h1.1l-1.7,1.3C11.2,7.5,11,7.8,11,8.1v2.4
				c0,0.8-0.7,1.5-1.5,1.5h-7C1.7,12,1,11.3,1,10.5v-5C1,4.7,1.7,4,2.5,4H9.6 M9.6,3H2.5C1.1,3,0,4.1,0,5.5v5C0,11.9,1.1,13,2.5,13
				h7.1c1.4,0,2.5-1.1,2.5-2.5V8.1L16,5h-4C11.8,3.8,10.7,3,9.6,3z"/>
		</g>
		<line class="st2" x1="2.5" y1="10.5" x2="6.5" y2="10.5"/>
		<line class="st2" x1="2.5" y1="8.5" x2="9.5" y2="8.5"/>
	</g>
</g>
</svg>
