<?xml version="1.0" encoding="utf-8"?>
<!-- Generator: Adobe Illustrator 25.0.0, SVG Export Plug-In . SVG Version: 6.00 Build 0)  -->
<svg version="1.1" id="图层_1" xmlns="http://www.w3.org/2000/svg" xmlns:xlink="http://www.w3.org/1999/xlink" x="0px" y="0px"
	 viewBox="0 0 16 16" style="enable-background:new 0 0 16 16;" xml:space="preserve">
<style type="text/css">
	.st0{opacity:0.75;}
	.st1{fill:#1F2022;}
	.st2{fill:none;stroke:#1F2022;stroke-linecap:round;stroke-miterlimit:10;}
	.st3{fill:#61A232;}
	.st4{fill:none;stroke:#61A232;stroke-width:2;stroke-miterlimit:10;}
</style>
<g id="n">
	<g id="_16">
		<g class="st0">
			<path class="st1" d="M10,2v3H6V2H10 M10,1H6C5.4,1,5,1.4,5,2v3c0,0.6,0.4,1,1,1h4c0.6,0,1-0.4,1-1V2C11,1.4,10.6,1,10,1z"/>
			<path class="st1" d="M6,12v2H4v-2H6 M6,11H4c-0.6,0-1,0.4-1,1v2c0,0.6,0.4,1,1,1h2c0.6,0,1-0.4,1-1v-2C7,11.4,6.6,11,6,11z"/>
			<path class="st1" d="M12,12v2h-2v-2H12 M12,11h-2c-0.6,0-1,0.4-1,1v2c0,0.6,0.4,1,1,1h2c0.6,0,1-0.4,1-1v-2
				C13,11.4,12.6,11,12,11z"/>
			<line class="st2" x1="1.5" y1="12.5" x2="3.5" y2="12.5"/>
			<line class="st2" x1="12.5" y1="12.5" x2="14.5" y2="12.5"/>
			<line class="st2" x1="10.5" y1="3.5" x2="14.5" y2="3.5"/>
		</g>
		<path class="st3" d="M6.2,8.8l1.4,1.7c0.2,0.2,0.5,0.2,0.7,0.1c0,0,0.1,0,0.1-0.1l1.4-1.7c0.2-0.2,0.2-0.5,0-0.7
			C9.7,8,9.5,8,9.4,8H6.6C6.3,8,6.1,8.2,6.1,8.5C6.1,8.6,6.1,8.7,6.2,8.8z"/>
		<line class="st4" x1="8" y1="6" x2="8" y2="8"/>
	</g>
</g>
</svg>
