<?xml version="1.0" encoding="utf-8"?>
<!-- Generator: Adobe Illustrator 25.0.0, SVG Export Plug-In . SVG Version: 6.00 Build 0)  -->
<svg version="1.1" id="图层_1" xmlns="http://www.w3.org/2000/svg" xmlns:xlink="http://www.w3.org/1999/xlink" x="0px" y="0px"
	 viewBox="0 0 16 16" style="enable-background:new 0 0 16 16;" xml:space="preserve">
<style type="text/css">
	.st0{opacity:0.75;}
	.st1{fill:#1F2022;}
	.st2{fill:none;stroke:#1F2022;stroke-linecap:round;stroke-miterlimit:10;}
</style>
<g id="n" class="st0">
	<g id="_16">
		<path class="st1" d="M5.2,8.4c0.3,0,0.5,0.1,0.7,0.3l1.4,1.4c0.4,0.4,0.4,1,0,1.4l0,0l-1.4,1.4c-0.2,0.2-0.4,0.3-0.7,0.3
			c-0.3,0-0.5-0.1-0.7-0.3l-1.4-1.4c-0.4-0.4-0.4-1,0-1.4l1.4-1.4C4.7,8.5,4.9,8.3,5.2,8.4 M5.2,7.3C4.7,7.4,4.2,7.6,3.8,8L2.4,9.4
			c-0.8,0.8-0.8,2,0,2.8l1.4,1.4c0.4,0.4,0.9,0.6,1.4,0.6s1-0.2,1.4-0.6L8,12.2c0.8-0.8,0.8-2,0-2.8l0,0L6.6,7.9
			C6.3,7.6,5.7,7.3,5.2,7.3z"/>
		<line class="st2" x1="7" y1="9" x2="14.5" y2="1.5"/>
	</g>
</g>
</svg>
