<?xml version="1.0" encoding="utf-8"?>
<!-- Generator: Adobe Illustrator 25.0.0, SVG Export Plug-In . SVG Version: 6.00 Build 0)  -->
<svg version="1.1" id="图层_1" xmlns="http://www.w3.org/2000/svg" xmlns:xlink="http://www.w3.org/1999/xlink" x="0px" y="0px"
	 viewBox="0 0 16 16" style="enable-background:new 0 0 16 16;" xml:space="preserve">
<style type="text/css">
	.st0{opacity:0.75;}
	.st1{fill:#1F2022;}
	.st2{fill:none;stroke:#1F2022;stroke-linecap:round;stroke-miterlimit:10;}
</style>
<g id="n" class="st0">
	<g id="_16">
		<path class="st1" d="M8,7.3c0.3,0,0.5,0.1,0.7,0.3l1.2,1.2c0.4,0.4,0.4,1,0,1.4l-1.2,1.2c-0.4,0.4-1,0.4-1.4,0l0,0l-1.2-1.2
			c-0.4-0.4-0.4-1,0-1.4l1.2-1.2C7.5,7.4,7.7,7.3,8,7.3 M8,6.3c-0.5,0-1.1,0.2-1.4,0.6L5.4,8.1c-0.8,0.8-0.8,2,0,2.8l1.2,1.2
			c0.8,0.8,2,0.8,2.8,0l1.2-1.1c0.8-0.8,0.8-2,0-2.8L9.4,6.9C9.1,6.5,8.5,6.3,8,6.3z"/>
		<line class="st2" x1="9.8" y1="7.9" x2="14.5" y2="3.5"/>
		<line class="st2" x1="6.2" y1="7.9" x2="1.5" y2="3.5"/>
	</g>
</g>
</svg>
