<?xml version="1.0" encoding="utf-8"?>
<!-- Generator: Adobe Illustrator 25.0.0, SVG Export Plug-In . SVG Version: 6.00 Build 0)  -->
<svg version="1.1" id="n" xmlns="http://www.w3.org/2000/svg" xmlns:xlink="http://www.w3.org/1999/xlink" x="0px" y="0px"
	 viewBox="0 0 16 16" style="enable-background:new 0 0 16 16;" xml:space="preserve">
<style type="text/css">
	.st0{opacity:0.75;}
	.st1{fill:#1F2022;}
</style>
<g id="_16" class="st0">
	<rect x="3.8" y="7.5" transform="matrix(0.7071 -0.7071 0.7071 0.7071 -3.3794 7.8561)" class="st1" width="8" height="1"/>
	<path class="st1" d="M5,11v2H3v-2H5 M5,10H3c-0.6,0-1,0.4-1,1v2c0,0.6,0.4,1,1,1h2c0.6,0,1-0.4,1-1v-2C6,10.4,5.6,10,5,10z"/>
	<path class="st1" d="M13,3v2h-2V3H13 M13,2h-2c-0.6,0-1,0.4-1,1v2c0,0.6,0.4,1,1,1h2c0.6,0,1-0.4,1-1V3C14,2.4,13.6,2,13,2z"/>
</g>
</svg>
