<?xml version="1.0" encoding="utf-8"?>
<!-- Generator: Adobe Illustrator 25.0.0, SVG Export Plug-In . SVG Version: 6.00 Build 0)  -->
<svg version="1.1" id="n" xmlns="http://www.w3.org/2000/svg" xmlns:xlink="http://www.w3.org/1999/xlink" x="0px" y="0px"
	 viewBox="0 0 16 16" style="enable-background:new 0 0 16 16;" xml:space="preserve">
<style type="text/css">
	.st0{fill:#61A232;}
	.st1{opacity:0.75;}
	.st2{fill:none;stroke:#1F2022;stroke-linecap:round;stroke-miterlimit:10;}
	.st3{fill:#1F2022;}
</style>
<g id="_16">
	<polygon class="st0" points="5.5,8 8,11 10.5,8 	"/>
	<rect x="7" y="6" class="st0" width="2" height="2"/>
	<g class="st1">
		<line class="st2" x1="12.5" y1="12.5" x2="14.5" y2="12.5"/>
		<line class="st2" x1="1.5" y1="12.5" x2="3.5" y2="12.5"/>
		<path class="st3" d="M6,12v2H4v-2H6 M6,11H4c-0.6,0-1,0.4-1,1v2c0,0.6,0.4,1,1,1h2c0.6,0,1-0.4,1-1v-2C7,11.4,6.6,11,6,11z"/>
		<path class="st3" d="M12,12v2h-2v-2H12 M12,11h-2c-0.6,0-1,0.4-1,1v2c0,0.6,0.4,1,1,1h2c0.6,0,1-0.4,1-1v-2C13,11.4,12.6,11,12,11
			z"/>
		<path class="st3" d="M6,2v2H4V2H6 M6,1H4C3.4,1,3,1.4,3,2v2c0,0.6,0.4,1,1,1h2c0.6,0,1-0.4,1-1V2C7,1.4,6.6,1,6,1z"/>
		<path class="st3" d="M12,2v2h-2V2H12 M12,1h-2C9.4,1,9,1.4,9,2v2c0,0.6,0.4,1,1,1h2c0.6,0,1-0.4,1-1V2C13,1.4,12.6,1,12,1z"/>
		<line class="st2" x1="6.5" y1="2.5" x2="9.5" y2="2.5"/>
		<line class="st2" x1="1.5" y1="2.5" x2="3.5" y2="2.5"/>
		<line class="st2" x1="12.5" y1="2.5" x2="14.5" y2="2.5"/>
	</g>
</g>
</svg>
