<?xml version="1.0" encoding="utf-8"?>
<!-- Generator: Adobe Illustrator 25.0.0, SVG Export Plug-In . SVG Version: 6.00 Build 0)  -->
<svg version="1.1" id="n" xmlns="http://www.w3.org/2000/svg" xmlns:xlink="http://www.w3.org/1999/xlink" x="0px" y="0px"
	 viewBox="0 0 16 16" style="enable-background:new 0 0 16 16;" xml:space="preserve">
<style type="text/css">
	.st0{opacity:0.75;}
	.st1{fill:#1F2022;}
	.st2{fill:none;stroke:#1F2022;stroke-linecap:round;stroke-miterlimit:10;}
	.st3{fill:none;stroke:#EA572A;stroke-linecap:round;stroke-miterlimit:10;}
</style>
<g id="_16">
	<g class="st0">
		<path class="st1" d="M9,5c0.6,0,1,0.4,1,1v1c0,0.6-0.4,1-1,1H7C6.4,8,6,7.6,6,7V6c0-0.6,0.4-1,1-1H9 M9,4H7C5.9,4,5,4.9,5,6v1
			c0,1.1,0.9,2,2,2h2c1.1,0,2-0.9,2-2V6C11,4.9,10.1,4,9,4z"/>
		<line class="st2" x1="1.5" y1="6.5" x2="5.5" y2="6.5"/>
		<line class="st2" x1="10.5" y1="6.5" x2="14.5" y2="6.5"/>
	</g>
	<line class="st3" x1="9.1" y1="9.5" x2="14" y2="14.4"/>
	<line class="st3" x1="14" y1="9.5" x2="9.1" y2="14.4"/>
</g>
</svg>
