<?xml version="1.0" encoding="utf-8"?>
<!-- Generator: Adobe Illustrator 25.0.0, SVG Export Plug-In . SVG Version: 6.00 Build 0)  -->
<svg version="1.1" id="O" xmlns="http://www.w3.org/2000/svg" xmlns:xlink="http://www.w3.org/1999/xlink" x="0px" y="0px"
	 viewBox="0 0 16 16" style="enable-background:new 0 0 16 16;" xml:space="preserve">
<style type="text/css">
	.st0{opacity:0.75;}
	.st1{fill:#1F2022;}
	.st2{fill:none;stroke:#1F2022;stroke-linecap:round;stroke-miterlimit:10;}
</style>
<g id="_16" class="st0">
	<path class="st1" d="M7.1,1.6L4,6.2C3.8,6.4,3.9,6.8,4.1,6.9C4.2,7,4.3,7,4.4,7h6.1C10.8,7,11,6.8,11,6.5c0-0.1,0-0.2-0.1-0.3
		l-3-4.6C7.8,1.4,7.4,1.3,7.2,1.5L7.1,1.6z"/>
	<path class="st2" d="M1.5,10.5c0,1.7,1.3,3,3,3l0,0c1.7,0,3-1.3,3-3v-7"/>
	<path class="st2" d="M13.5,10.5c0,1.7-1.3,3-3,3l0,0c-1.7,0-3-1.3-3-3v-7"/>
</g>
</svg>
