<?xml version="1.0" encoding="utf-8"?>
<!-- Generator: Adobe Illustrator 25.0.0, SVG Export Plug-In . SVG Version: 6.00 Build 0)  -->
<svg version="1.1" id="O" xmlns="http://www.w3.org/2000/svg" xmlns:xlink="http://www.w3.org/1999/xlink" x="0px" y="0px"
	 viewBox="0 0 16 16" style="enable-background:new 0 0 16 16;" xml:space="preserve">
<style type="text/css">
	.st0{opacity:0.75;}
	.st1{fill:#1F2022;}
</style>
<g id="_16" class="st0">
	<path class="st1" d="M11.1,2.8l1.7,10.9l-1,0.2L10.1,3L11.1,2.8 M12,1.7L9,2.2L11,15l3-0.5L12,1.7z"/>
	<path class="st1" d="M10.1,9.1L11,15l3-0.5l-0.9-5.9L10.1,9.1z M12.1,12.3c-0.3,0-0.5-0.1-0.6-0.4s0.1-0.5,0.4-0.6s0.5,0.1,0.6,0.4
		S12.4,12.3,12.1,12.3z"/>
	<path class="st1" d="M8,3v11H7V3H8 M9,2H6v13h3V2z"/>
	<path class="st1" d="M6,9v6h3V9H6z M7.5,12.5C7.2,12.5,7,12.3,7,12s0.2-0.5,0.5-0.5S8,11.7,8,12S7.8,12.5,7.5,12.5L7.5,12.5z"/>
	<path class="st1" d="M4,3v11H3V3H4 M5,2H2v13h3V2z"/>
	<path class="st1" d="M2,9v6h3V9H2z M3.5,12.5C3.2,12.5,3,12.3,3,12s0.2-0.5,0.5-0.5S4,11.7,4,12S3.8,12.5,3.5,12.5z"/>
</g>
</svg>
