<?xml version="1.0" encoding="utf-8"?>
<!-- Generator: Adobe Illustrator 25.0.0, SVG Export Plug-In . SVG Version: 6.00 Build 0)  -->
<svg version="1.1" id="O" xmlns="http://www.w3.org/2000/svg" xmlns:xlink="http://www.w3.org/1999/xlink" x="0px" y="0px"
	 viewBox="0 0 16 16" style="enable-background:new 0 0 16 16;" xml:space="preserve">
<style type="text/css">
	.st0{opacity:0.75;}
	.st1{fill:none;stroke:#1F2022;stroke-linecap:round;stroke-miterlimit:10;}
	.st2{fill:none;stroke:#1F2022;stroke-miterlimit:10;}
	.st3{fill:#EA572A;}
</style>
<g id="_16">
	<g id="_16-2">
		<g class="st0">
			<path class="st1" d="M7.5,14.6l-6-2V4.3l6.9-2.8l6,1.9V8"/>
			<line class="st1" x1="7.5" y1="14.5" x2="7.5" y2="6.5"/>
			<polyline class="st2" points="1.5,4.5 7.5,6.5 14.5,3.5 			"/>
		</g>
		<rect x="12" y="11" class="st3" width="1" height="2"/>
		<rect x="12" y="13.5" class="st3" width="1" height="1"/>
		<path class="st3" d="M12.5,10c1.4,0,2.5,1.1,2.5,2.5S13.9,15,12.5,15S10,13.9,10,12.5S11.1,10,12.5,10 M12.5,9
			C10.6,9,9,10.6,9,12.5s1.6,3.5,3.5,3.5s3.5-1.6,3.5-3.5S14.4,9,12.5,9z"/>
	</g>
</g>
</svg>
