<?xml version="1.0" encoding="utf-8"?>
<!-- Generator: Adobe Illustrator 25.0.0, SVG Export Plug-In . SVG Version: 6.00 Build 0)  -->
<svg version="1.1" id="O" xmlns="http://www.w3.org/2000/svg" xmlns:xlink="http://www.w3.org/1999/xlink" x="0px" y="0px"
	 viewBox="0 0 16 16" style="enable-background:new 0 0 16 16;" xml:space="preserve">
<style type="text/css">
	.st0{opacity:0.75;}
	.st1{fill:none;stroke:#1F2022;stroke-linecap:round;stroke-miterlimit:10;}
	.st2{fill:none;stroke:#1F2022;stroke-miterlimit:10;}
	.st3{fill:#1F2022;}
</style>
<g id="_16" class="st0">
	<g id="_16-2">
		<path class="st1" d="M7.5,14.6l-6-2V4.3l6.9-2.8l6,1.9V8"/>
		<line class="st1" x1="7.5" y1="14.5" x2="7.5" y2="6.5"/>
		<polyline class="st2" points="1.5,4.5 7.5,6.5 14.5,3.5 		"/>
		<path class="st3" d="M14,12v2h-4v-2H14 M14,11h-4c-0.6,0-1,0.4-1,1v2c0,0.6,0.4,1,1,1h4c0.6,0,1-0.4,1-1v-2C15,11.4,14.6,11,14,11
			z"/>
		<path class="st2" d="M10.5,12v-2c0-0.8,0.7-1.5,1.5-1.5l0,0c0.8,0,1.5,0.7,1.5,1.5v2"/>
	</g>
</g>
</svg>
