<?xml version="1.0" encoding="utf-8"?>
<!-- Generator: Adobe Illustrator 25.0.0, SVG Export Plug-In . SVG Version: 6.00 Build 0)  -->
<svg version="1.1" id="O" xmlns="http://www.w3.org/2000/svg" xmlns:xlink="http://www.w3.org/1999/xlink" x="0px" y="0px"
	 viewBox="0 0 16 16" style="enable-background:new 0 0 16 16;" xml:space="preserve">
<style type="text/css">
	.st0{opacity:0.75;}
	.st1{fill:none;stroke:#1F2022;stroke-linecap:round;stroke-miterlimit:10;}
	.st2{fill:none;stroke:#1F2022;stroke-miterlimit:10;}
	.st3{fill:#2196F3;}
</style>
<g id="_16">
	<g id="_16-2">
		<g class="st0">
			<path class="st1" d="M7.5,14.6l-6-2V4.3l6.9-2.8l6,1.9V8"/>
			<line class="st1" x1="7.5" y1="14.5" x2="7.5" y2="6.5"/>
			<polyline class="st2" points="1.5,4.5 7.5,6.5 14.5,3.5 			"/>
		</g>
		<path class="st3" d="M12,8L12,8c0.6,0,1,0.4,1,1v4h-2V9C11,8.4,11.4,8,12,8z"/>
		<path class="st3" d="M10.2,12h3.6c0.3,0,0.5,0.2,0.5,0.5c0,0.1-0.1,0.3-0.1,0.4l-1.8,1.8c-0.2,0.2-0.5,0.2-0.7,0l-1.8-1.8
			c-0.2-0.2-0.2-0.5,0-0.7C10,12.1,10.1,12,10.2,12z"/>
	</g>
</g>
</svg>
