<?xml version="1.0" encoding="utf-8"?>
<!-- Generator: Adobe Illustrator 25.0.0, SVG Export Plug-In . SVG Version: 6.00 Build 0)  -->
<svg version="1.1" id="p" xmlns="http://www.w3.org/2000/svg" xmlns:xlink="http://www.w3.org/1999/xlink" x="0px" y="0px"
	 viewBox="0 0 16 16" style="enable-background:new 0 0 16 16;" xml:space="preserve">
<style type="text/css">
	.st0{opacity:0.75;fill:none;stroke:#1F2022;stroke-linecap:round;stroke-linejoin:round;enable-background:new    ;}
	.st1{fill:#61A232;}
</style>
<g id="_16">
	<polyline class="st0" points="11.5,1.5 1.5,1.5 1.5,14.5 11.5,14.5 	"/>
	<path class="st1" d="M11,10H5c-0.6,0-1-0.4-1-1V7c0-0.6,0.4-1,1-1h6V10z"/>
	<path class="st1" d="M10.9,12.1l3.8-3.8c0.2-0.2,0.2-0.5,0-0.7l-3.8-3.8c-0.2-0.2-0.5-0.2-0.7,0C10.1,4,10,4.1,10,4.2v7.6
		c0,0.3,0.2,0.5,0.5,0.5C10.6,12.3,10.8,12.2,10.9,12.1z"/>
</g>
</svg>
