<?xml version="1.0" encoding="utf-8"?>
<!-- Generator: Adobe Illustrator 25.0.0, SVG Export Plug-In . SVG Version: 6.00 Build 0)  -->
<svg version="1.1" id="p" xmlns="http://www.w3.org/2000/svg" xmlns:xlink="http://www.w3.org/1999/xlink" x="0px" y="0px"
	 viewBox="0 0 16 16" style="enable-background:new 0 0 16 16;" xml:space="preserve">
<style type="text/css">
	.st0{opacity:0.75;fill:none;stroke:#1F2022;stroke-linecap:round;stroke-linejoin:round;enable-background:new    ;}
	.st1{fill:#61A232;}
</style>
<g id="_16">
	<polyline class="st0" points="11.5,1.5 1.5,1.5 1.5,14.5 11.5,14.5 	"/>
	<path class="st1" d="M8,6h6c0.6,0,1,0.4,1,1v2c0,0.6-0.4,1-1,1H8V6z"/>
	<path class="st1" d="M8.1,3.8L4.3,7.6c-0.2,0.2-0.2,0.5,0,0.7l3.8,3.8c0.2,0.2,0.5,0.2,0.7,0C8.9,12,9,11.9,9,11.8V4.2
		c0-0.3-0.2-0.5-0.5-0.5C8.4,3.7,8.2,3.8,8.1,3.8z"/>
</g>
</svg>
