<?xml version="1.0" encoding="utf-8"?>
<!-- Generator: Adobe Illustrator 25.0.0, SVG Export Plug-In . SVG Version: 6.00 Build 0)  -->
<svg version="1.1" id="s" xmlns="http://www.w3.org/2000/svg" xmlns:xlink="http://www.w3.org/1999/xlink" x="0px" y="0px"
	 viewBox="0 0 16 16" style="enable-background:new 0 0 16 16;" xml:space="preserve">
<style type="text/css">
	.st0{opacity:0.75;}
	.st1{fill:none;stroke:#1F2022;stroke-miterlimit:10;}
	.st2{fill:none;stroke:#1F2022;stroke-linecap:round;stroke-miterlimit:10;}
</style>
<g id="_16" class="st0">
	<path class="st1" d="M4.5,1.5h7c1.1,0,2,0.9,2,2v7.6c0,0.3-0.1,0.5-0.3,0.7l-2.4,2.4c-0.2,0.2-0.4,0.3-0.7,0.3H4.5
		c-1.1,0-2-0.9-2-2v-9C2.5,2.4,3.4,1.5,4.5,1.5z"/>
	<polyline class="st1" points="13.5,11.5 10.5,11.5 10.5,14.5 	"/>
	<g id="_14-2">
		<path class="st2" d="M11.4,8c-0.5,1.9-2.5,2.9-4.3,2.4C5.9,10,5,9.1,4.6,8"/>
		<path class="st2" d="M4.7,6C5.2,4.2,7.2,3.1,9,3.7C10.1,4,11,4.9,11.4,6"/>
		<line class="st2" x1="4.7" y1="6" x2="3.7" y2="4.5"/>
		<line class="st2" x1="11.4" y1="8" x2="12.1" y2="9.9"/>
	</g>
</g>
</svg>
