<?xml version="1.0" encoding="utf-8"?>
<!-- Generator: Adobe Illustrator 25.0.0, SVG Export Plug-In . SVG Version: 6.00 Build 0)  -->
<svg version="1.1" id="图层_1" xmlns="http://www.w3.org/2000/svg" xmlns:xlink="http://www.w3.org/1999/xlink" x="0px" y="0px"
	 viewBox="0 0 16 16" style="enable-background:new 0 0 16 16;" xml:space="preserve">
<style type="text/css">
	.st0{opacity:0.75;}
	.st1{fill:#1F2022;}
</style>
<g id="s" class="st0">
	<g id="_16">
		<rect x="7" y="7" class="st1" width="2" height="5"/>
		<rect x="7" y="4" class="st1" width="2" height="2"/>
		<path class="st1" d="M8,2c3.3,0,6,2.6,6,5.9V8c0,3.3-2.6,6-5.9,6H8c-3.3,0-6-2.6-6-5.9V8C2,4.7,4.6,2,8,2L8,2 M8,1
			C4.1,1,1,4.1,1,8s3.1,7,7,7s7-3.1,7-7S11.9,1,8,1z"/>
	</g>
</g>
</svg>
