<?xml version="1.0" encoding="utf-8"?>
<!-- Generator: Adobe Illustrator 25.0.0, SVG Export Plug-In . SVG Version: 6.00 Build 0)  -->
<svg version="1.1" id="s" xmlns="http://www.w3.org/2000/svg" xmlns:xlink="http://www.w3.org/1999/xlink" x="0px" y="0px"
	 viewBox="0 0 16 16" style="enable-background:new 0 0 16 16;" xml:space="preserve">
<style type="text/css">
	.st0{fill:#61A232;}
	.st1{opacity:0.75;fill:#1F2022;enable-background:new    ;}
</style>
<g id="_16">
	<polygon class="st0" points="13,10.3 12.3,11 8.3,7 9.7,7 	"/>
	<polygon class="st0" points="7.7,7 3.7,11 3,10.3 6.3,7 	"/>
	<path class="st1" d="M10,1H6C4.9,1,4,1.9,4,3v2c0,1.1,0.9,2,2,2h4c1.1,0,2-0.9,2-2V3C12,1.9,11.1,1,10,1z M11,5c0,0.5-0.5,1-1,1H6
		C5.5,6,5,5.5,5,5V3c0-0.5,0.5-1,1-1h4c0.5,0,1,0.5,1,1V5z"/>
	<path class="st1" d="M6,12v2H2v-2H6 M6,11H2c-0.6,0-1,0.4-1,1v2c0,0.6,0.4,1,1,1h4c0.6,0,1-0.4,1-1v-2C7,11.4,6.6,11,6,11z"/>
	<path class="st1" d="M14,12v2h-4v-2H14 M14,11h-4c-0.6,0-1,0.4-1,1v2c0,0.6,0.4,1,1,1h4c0.6,0,1-0.4,1-1v-2C15,11.4,14.6,11,14,11z
		"/>
	<polygon class="st0" points="2,9 2,12 5,12 	"/>
	<polygon class="st0" points="14,9 14,12 11,12 	"/>
</g>
</svg>
