<?xml version="1.0" encoding="utf-8"?>
<!-- Generator: Adobe Illustrator 25.0.0, SVG Export Plug-In . SVG Version: 6.00 Build 0)  -->
<svg version="1.1" id="s" xmlns="http://www.w3.org/2000/svg" xmlns:xlink="http://www.w3.org/1999/xlink" x="0px" y="0px"
	 viewBox="0 0 16 16" style="enable-background:new 0 0 16 16;" xml:space="preserve">
<style type="text/css">
	.st0{opacity:0.75;}
	.st1{fill:#1F2022;}
	.st2{fill:none;stroke:#1F2022;stroke-linecap:round;stroke-linejoin:round;}
</style>
<g id="_16" class="st0">
	<path class="st1" d="M13.8,8l-0.5,3.2c-0.1,0.5-0.5,0.8-1,0.8H9.6l-0.7-1.3c-0.3-0.5-0.9-0.6-1.4-0.4c-0.2,0.1-0.3,0.2-0.4,0.4
		L6.4,12H3.7c-0.5,0-0.9-0.4-1-0.8L2.2,8H13.8 M14.4,7H1.6C1.3,7,1.1,7.2,1.1,7.5v0.1l0.6,3.7c0.2,1,1,1.7,2,1.7h2.7
		c0.4,0,0.7-0.2,0.9-0.5L8,11.2l0.7,1.3C8.9,12.8,9.2,13,9.6,13h2.7c1,0,1.8-0.7,2-1.7l0.6-3.8c0-0.3-0.1-0.5-0.4-0.6
		C14.5,7,14.4,7,14.4,7z"/>
	<polyline class="st2" points="6,3.5 5.1,3.5 1.5,7.5 	"/>
	<polyline class="st2" points="10,3.5 10.9,3.5 14.5,7.5 	"/>
</g>
</svg>
