<?xml version="1.0" encoding="utf-8"?>
<!-- Generator: Adobe Illustrator 25.0.0, SVG Export Plug-In . SVG Version: 6.00 Build 0)  -->
<svg version="1.1" id="s" xmlns="http://www.w3.org/2000/svg" xmlns:xlink="http://www.w3.org/1999/xlink" x="0px" y="0px"
	 viewBox="0 0 16 16" style="enable-background:new 0 0 16 16;" xml:space="preserve">
<style type="text/css">
	.st0{opacity:0.75;fill:#1F2022;enable-background:new    ;}
	.st1{opacity:0.5;fill:#1F2022;enable-background:new    ;}
</style>
<g id="_16">
	<path class="st0" d="M13,2c0.6,0,1,0.4,1,1v10c0,0.6-0.4,1-1,1H3c-0.6,0-1-0.4-1-1V3c0-0.6,0.4-1,1-1H13 M13,1H3C1.9,1,1,1.9,1,3
		v10c0,1.1,0.9,2,2,2h10c1.1,0,2-0.9,2-2V3C15,1.9,14.1,1,13,1z"/>
	<g id="цик">
		<rect x="10" y="2" class="st0" width="1" height="12"/>
		<rect x="5" y="2" class="st0" width="1" height="12"/>
		<rect x="2" y="6" class="st1" width="3" height="4"/>
		<rect x="6" y="6" class="st1" width="4" height="4"/>
		<rect x="11" y="6" class="st1" width="3" height="4"/>
	</g>
</g>
</svg>
