<?xml version="1.0" encoding="utf-8"?>
<!-- Generator: Adobe Illustrator 25.0.0, SVG Export Plug-In . SVG Version: 6.00 Build 0)  -->
<svg version="1.1" id="s" xmlns="http://www.w3.org/2000/svg" xmlns:xlink="http://www.w3.org/1999/xlink" x="0px" y="0px"
	 viewBox="0 0 16 16" style="enable-background:new 0 0 16 16;" xml:space="preserve">
<style type="text/css">
	.st0{opacity:0.75;}
	.st1{fill:#1F2022;}
	.st2{fill:none;stroke:#1F2022;stroke-linecap:round;stroke-miterlimit:10;}
</style>
<g id="_16" class="st0">
	<path class="st1" d="M11.6,3l-1.4,1.5c-0.5,0.6-0.5,1.5,0,2.1L11.6,8H3V3H11.6 M12.8,2H2v7h10.7c0.3,0,0.5-0.2,0.5-0.5
		c0-0.1,0-0.2-0.1-0.3L11,5.9c-0.2-0.2-0.2-0.5,0-0.7l2.3-2.3c0.2-0.2,0.2-0.5,0-0.7C13.1,2.1,13,2,12.8,2z"/>
	<line class="st2" x1="2.5" y1="14.5" x2="2.5" y2="2.5"/>
</g>
</svg>
