<?xml version="1.0" encoding="utf-8"?>
<!-- Generator: Adobe Illustrator 25.0.0, SVG Export Plug-In . SVG Version: 6.00 Build 0)  -->
<svg version="1.1" id="s" xmlns="http://www.w3.org/2000/svg" xmlns:xlink="http://www.w3.org/1999/xlink" x="0px" y="0px"
	 viewBox="0 0 16 16" style="enable-background:new 0 0 16 16;" xml:space="preserve">
<style type="text/css">
	.st0{opacity:0.75;}
	.st1{fill:none;stroke:#1F2022;stroke-linecap:round;stroke-miterlimit:10;}
	.st2{fill:none;stroke:#1F2022;stroke-miterlimit:10;}
	.st3{fill:#61A232;}
</style>
<g id="_16">
	<g class="st0">
		<path class="st1" d="M13.5,11.5l-0.3,0.3l-2.4,2.4c-0.2,0.2-0.4,0.3-0.7,0.3H4.5c-1.1,0-2-0.9-2-2v-9c0-1.1,0.9-2,2-2h7
			c1.1,0,2,0.9,2,2v1"/>
		<line class="st1" x1="7.5" y1="10.5" x2="5.5" y2="10.5"/>
		<line class="st1" x1="8.5" y1="7.5" x2="5.5" y2="7.5"/>
		<line class="st1" x1="10.5" y1="4.5" x2="5.5" y2="4.5"/>
		<polyline class="st2" points="13.5,11.5 10.5,11.5 10.5,14.5 		"/>
	</g>
	<path class="st3" d="M14,7h-3.5C10.2,7,10,7.2,10,7.5v1C10,8.8,10.2,9,10.5,9H14V7z"/>
	<path class="st3" d="M13.9,5.8l1.8,1.8c0.2,0.2,0.2,0.5,0,0.7l-1.8,1.8c-0.2,0.2-0.5,0.2-0.7,0C13.1,10,13,9.9,13,9.8V6.2
		c0-0.3,0.2-0.5,0.5-0.5C13.6,5.7,13.8,5.8,13.9,5.8z"/>
</g>
</svg>
