<?xml version="1.0" encoding="utf-8"?>
<!-- Generator: Adobe Illustrator 25.0.0, SVG Export Plug-In . SVG Version: 6.00 Build 0)  -->
<svg version="1.1" id="图层_1" xmlns="http://www.w3.org/2000/svg" xmlns:xlink="http://www.w3.org/1999/xlink" x="0px" y="0px"
	 viewBox="0 0 16 16" style="enable-background:new 0 0 16 16;" xml:space="preserve">
<style type="text/css">
	.st0{opacity:0.75;}
	.st1{fill:none;stroke:#1F2022;stroke-miterlimit:10;}
	.st2{fill:none;stroke:#1F2022;stroke-linecap:round;stroke-miterlimit:10;}
	.st3{fill:#1F2022;}
</style>
<g id="s" class="st0">
	<g id="_16">
		<line class="st1" x1="10.5" y1="14" x2="10.5" y2="11"/>
		<line class="st1" x1="13" y1="11.5" x2="10" y2="11.5"/>
		<path class="st2" d="M10.5,1.5h-7c-0.6,0-1,0.4-1,1v11c0,0.6,0.4,1,1,1h6.6c0.3,0,0.5-0.1,0.7-0.3l2.4-2.4
			c0.2-0.2,0.3-0.4,0.3-0.7V8.5"/>
		<path class="st3" d="M13,3.4L13.6,4l-5,5H8V8.4L13,3.4 M13,2.2c-0.1,0-0.3,0-0.4,0.1L7.1,7.9c0,0-0.1,0.2-0.1,0.3v1.3
			C7,9.8,7.2,10,7.5,10h1.3c0.1,0,0.3-0.1,0.4-0.1l5.5-5.5c0.2-0.2,0.2-0.5,0-0.7l-1.3-1.3C13.3,2.3,13.1,2.2,13,2.2z"/>
	</g>
</g>
</svg>
