<?xml version="1.0" encoding="utf-8"?>
<!-- Generator: Adobe Illustrator 25.0.0, SVG Export Plug-In . SVG Version: 6.00 Build 0)  -->
<svg version="1.1" id="s" xmlns="http://www.w3.org/2000/svg" xmlns:xlink="http://www.w3.org/1999/xlink" x="0px" y="0px"
	 viewBox="0 0 16 16" style="enable-background:new 0 0 16 16;" xml:space="preserve">
<style type="text/css">
	.st0{opacity:0.75;fill:#1F2022;enable-background:new    ;}
	.st1{fill:#61A232;}
	.st2{fill:none;stroke:#61A232;stroke-miterlimit:10;}
</style>
<g id="_16">
	<path class="st0" d="M10,2c0.6,0,1,0.4,1,1v2c0,0.6-0.4,1-1,1H6C5.4,6,5,5.6,5,5V3c0-0.6,0.4-1,1-1H10 M10,1H6C4.9,1,4,1.9,4,3v2
		c0,1.1,0.9,2,2,2h4c1.1,0,2-0.9,2-2V3C12,1.9,11.1,1,10,1z"/>
	<path class="st0" d="M6,12v2H2v-2H6 M6,11H2c-0.6,0-1,0.4-1,1v2c0,0.6,0.4,1,1,1h4c0.6,0,1-0.4,1-1v-2C7,11.4,6.6,11,6,11z"/>
	<path class="st0" d="M14,12v2h-4v-2H14 M14,11h-4c-0.6,0-1,0.4-1,1v2c0,0.6,0.4,1,1,1h4c0.6,0,1-0.4,1-1v-2C15,11.4,14.6,11,14,11z
		"/>
	<polygon class="st1" points="2.5,9 4.5,7 6.5,9 	"/>
	<line class="st2" x1="4.5" y1="9" x2="4.5" y2="11"/>
	<polygon class="st1" points="9.5,9 11.5,7 13.5,9 	"/>
	<line class="st2" x1="11.5" y1="9" x2="11.5" y2="11"/>
</g>
</svg>
