<?xml version="1.0" encoding="utf-8"?>
<!-- Generator: Adobe Illustrator 25.0.0, SVG Export Plug-In . SVG Version: 6.00 Build 0)  -->
<svg version="1.1" id="s" xmlns="http://www.w3.org/2000/svg" xmlns:xlink="http://www.w3.org/1999/xlink" x="0px" y="0px"
	 viewBox="0 0 16 16" style="enable-background:new 0 0 16 16;" xml:space="preserve">
<style type="text/css">
	.st0{opacity:0.75;}
	.st1{fill:#1F2022;}
	.st2{fill:none;stroke:#1F2022;stroke-miterlimit:10;}
</style>
<g id="_16" class="st0">
	<path class="st1" d="M8,2c1.4,0,2.5,1.1,2.5,2.5S9.4,7,8,7S5.5,5.9,5.5,4.5S6.6,2,8,2 M8,1C6.1,1,4.5,2.6,4.5,4.5S6.1,8,8,8
		s3.5-1.6,3.5-3.5S9.9,1,8,1z"/>
	<path class="st2" d="M11,9.5H5c-1.4,0-2.5,1.1-2.5,2.5l0,0v1c0,0.8,0.7,1.5,1.5,1.5h8c0.8,0,1.5-0.7,1.5-1.5v-1
		C13.5,10.6,12.4,9.5,11,9.5L11,9.5z"/>
</g>
</svg>
