<?xml version="1.0" encoding="utf-8"?>
<!-- Generator: Adobe Illustrator 25.0.0, SVG Export Plug-In . SVG Version: 6.00 Build 0)  -->
<svg version="1.1" id="图层_1" xmlns="http://www.w3.org/2000/svg" xmlns:xlink="http://www.w3.org/1999/xlink" x="0px" y="0px"
	 viewBox="0 0 16 16" style="enable-background:new 0 0 16 16;" xml:space="preserve">
<style type="text/css">
	.st0{opacity:0.75;}
	.st1{fill:#1F2022;}
</style>
<g id="s" class="st0">
	<g id="_16">
		<path class="st1" d="M13,3c0.6,0,1,0.4,1,1v8c0,0.6-0.4,1-1,1H3c-0.6,0-1-0.4-1-1V4c0-0.6,0.4-1,1-1H13 M13,2H3C1.9,2,1,2.9,1,4v8
			c0,1.1,0.9,2,2,2h10c1.1,0,2-0.9,2-2V4C15,2.9,14.1,2,13,2z"/>
		<rect x="1" y="6" class="st1" width="14" height="1"/>
		<rect x="1" y="9" class="st1" width="14" height="1"/>
		<rect x="5" y="3" class="st1" width="1" height="10"/>
		<rect x="10" y="3" class="st1" width="1" height="10"/>
	</g>
</g>
</svg>
