<?xml version="1.0" encoding="utf-8"?>
<!-- Generator: Adobe Illustrator 25.0.0, SVG Export Plug-In . SVG Version: 6.00 Build 0)  -->
<svg version="1.1" id="s" xmlns="http://www.w3.org/2000/svg" xmlns:xlink="http://www.w3.org/1999/xlink" x="0px" y="0px"
	 viewBox="0 0 16 16" style="enable-background:new 0 0 16 16;" xml:space="preserve">
<style type="text/css">
	.st0{opacity:0.75;}
	.st1{fill:none;stroke:#1F2022;stroke-miterlimit:10;}
	.st2{fill:#1F2022;}
	.st3{fill:none;stroke:#1F2022;stroke-linecap:round;stroke-linejoin:round;}
</style>
<g id="_16" class="st0">
	<line class="st1" x1="8" y1="9.4" x2="4" y2="13"/>
	<line class="st1" x1="14" y1="13" x2="10.1" y2="9.4"/>
	<path class="st1" d="M14,6L9.7,9.9c-0.4,0.3-1,0.3-1.3,0L4,6"/>
	<path class="st2" d="M13,6c0.6,0,1,0.4,1,1v5c0,0.6-0.4,1-1,1H5c-0.6,0-1-0.4-1-1V7c0-0.6,0.4-1,1-1H13 M13,5H5C3.9,5,3,5.9,3,7v5
		c0,1.1,0.9,2,2,2h8c1.1,0,2-0.9,2-2V7C15,5.9,14.1,5,13,5z"/>
	<path class="st3" d="M12.5,3.5h-8c-1.7,0-3,1.3-3,3v6"/>
</g>
</svg>
