<?xml version="1.0" encoding="utf-8"?>
<!-- Generator: Adobe Illustrator 25.0.0, SVG Export Plug-In . SVG Version: 6.00 Build 0)  -->
<svg version="1.1" id="s" xmlns="http://www.w3.org/2000/svg" xmlns:xlink="http://www.w3.org/1999/xlink" x="0px" y="0px"
	 viewBox="0 0 16 16" style="enable-background:new 0 0 16 16;" xml:space="preserve">
<style type="text/css">
	.st0{opacity:0.75;}
	.st1{fill:#1F2022;}
</style>
<g id="_16" class="st0">
	<path class="st1" d="M8,2c3.3,0,6,2.6,6,5.9V8c0,3.3-2.6,6-5.9,6H8c-3.3,0-6-2.6-6-5.9V8C2,4.7,4.6,2,8,2L8,2 M8,1C4.1,1,1,4.1,1,8
		s3.1,7,7,7s7-3.1,7-7S11.9,1,8,1z"/>
	<path class="st1" d="M5.3,7.3c0-0.4,0.1-0.8,0.4-1.1C6,5.9,6.4,5.8,6.8,5.8C7.5,5.8,8,6.3,8,7l0,0c0,0.6-0.4,1-1.2,1.4L6.4,8.7
		C6,8.8,5.8,9.1,5.7,9.5H8V10H5.2c0-0.7,0.4-1.3,1-1.7L6.7,8c0.2-0.1,0.4-0.3,0.6-0.4C7.4,7.4,7.5,7.2,7.5,7c0-0.5-0.3-0.7-0.8-0.8
		s-0.8,0.3-0.8,1L5.3,7.3z"/>
	<path class="st1" d="M10.5,9v1H10V9H8V8.4l1.9-2.7h0.6v2.8H11V9H10.5z M8.5,8.5H10V6.6H9.9L8.5,8.5z"/>
	<rect x="8" y="2" class="st1" width="1" height="2"/>
	<rect x="8" y="12" class="st1" width="1" height="2"/>
	<rect x="12" y="8" class="st1" width="2" height="1"/>
	<rect x="2" y="8" class="st1" width="2" height="1"/>
</g>
</svg>
