<?xml version="1.0" encoding="utf-8"?>
<!-- Generator: Adobe Illustrator 25.0.0, SVG Export Plug-In . SVG Version: 6.00 Build 0)  -->
<svg version="1.1" id="s" xmlns="http://www.w3.org/2000/svg" xmlns:xlink="http://www.w3.org/1999/xlink" x="0px" y="0px"
	 viewBox="0 0 16 16" style="enable-background:new 0 0 16 16;" xml:space="preserve">
<style type="text/css">
	.st0{opacity:0.75;}
	.st1{fill:none;stroke:#1F2022;stroke-miterlimit:10;}
	.st2{fill:none;stroke:#1F2022;stroke-linecap:round;stroke-miterlimit:10;}
	.st3{fill:#FF5722;}
</style>
<g id="_16">
	<g class="st0">
		<path class="st1" d="M1.7,3.6l5.7,4c0.3,0.2,0.8,0.2,1.1,0l5.9-4.1"/>
		<line class="st1" x1="6.6" y1="7.4" x2="2" y2="12"/>
		<line class="st2" x1="9.5" y1="7.4" x2="12" y2="10"/>
		<path class="st2" d="M9.5,12.5h-6c-1.1,0-2-0.9-2-2v-6c0-1.1,0.9-2,2-2h9c1.1,0,2,0.9,2,2v5"/>
	</g>
	<polygon class="st3" points="13,9.9 12.3,12 10,12 11.7,13.6 11.3,15.9 13,14.6 14.9,15.9 14.3,13.6 16,12 13.8,12 	"/>
</g>
</svg>
