<?xml version="1.0" encoding="utf-8"?>
<!-- Generator: Adobe Illustrator 25.0.0, SVG Export Plug-In . SVG Version: 6.00 Build 0)  -->
<svg version="1.1" id="s" xmlns="http://www.w3.org/2000/svg" xmlns:xlink="http://www.w3.org/1999/xlink" x="0px" y="0px"
	 viewBox="0 0 16 16" style="enable-background:new 0 0 16 16;" xml:space="preserve">
<style type="text/css">
	.st0{opacity:0.75;}
	.st1{fill:none;stroke:#1F2022;stroke-linecap:round;stroke-miterlimit:10;}
	.st2{fill:#1F2022;}
	.st3{fill:none;stroke:#1F2022;stroke-miterlimit:10;}
</style>
<g id="_16" class="st0">
	<path class="st1" d="M7.5,1.5L1.9,5.7C1.6,5.9,1.5,6.2,1.5,6.5v7"/>
	<path class="st2" d="M9,4.5c0.2,0,0.4,0.1,0.6,0.2l4,2.9C13.8,7.7,14,8,14,8.3V13c0,0.6-0.4,1-1,1H5c-0.6,0-1-0.4-1-1V8.3
		C4,8,4.2,7.7,4.4,7.5l4-2.9C8.6,4.5,8.8,4.5,9,4.5 M9,3.5c-0.4,0-0.8,0.1-1.2,0.4l-4,2.9C3.3,7.1,3,7.7,3,8.3V13c0,1.1,0.9,2,2,2h8
		c1.1,0,2-0.9,2-2V8.3c0-0.6-0.3-1.3-0.8-1.6l-4-2.9C9.8,3.6,9.4,3.5,9,3.5z"/>
	<polyline class="st3" points="14,14 9,10.3 4,14 	"/>
	<line class="st3" x1="8.1" y1="11.1" x2="3.4" y2="7.3"/>
	<line class="st3" x1="14.6" y1="7.3" x2="9.9" y2="11.1"/>
</g>
</svg>
