<?xml version="1.0" encoding="utf-8"?>
<!-- Generator: Adobe Illustrator 25.0.0, SVG Export Plug-In . SVG Version: 6.00 Build 0)  -->
<svg version="1.1" id="s" xmlns="http://www.w3.org/2000/svg" xmlns:xlink="http://www.w3.org/1999/xlink" x="0px" y="0px"
	 viewBox="0 0 16 16" style="enable-background:new 0 0 16 16;" xml:space="preserve">
<style type="text/css">
	.st0{opacity:0.75;}
	.st1{fill:none;stroke:#1F2022;stroke-linecap:round;stroke-linejoin:round;}
	.st2{fill:none;stroke:#1F2022;stroke-linecap:round;stroke-miterlimit:10;}
	.st3{fill:none;stroke:#1F2022;stroke-miterlimit:10;}
	.st4{fill:#2196F3;}
</style>
<g id="_16">
	<g class="st0">
		<path class="st1" d="M7.5,14.5l-6-1.9V4.3l6.9-2.8l6,1.9V8"/>
		<line class="st2" x1="7.5" y1="14.5" x2="7.5" y2="6.5"/>
		<polyline class="st3" points="1.5,4.5 7.5,6.5 14.5,3.5 		"/>
	</g>
	<path class="st4" d="M11,10.3h2v4.5c0,0.3-0.2,0.5-0.5,0.5h-1c-0.3,0-0.5-0.2-0.5-0.5V10.3z"/>
	<path class="st4" d="M11.6,8.4l-2.4,2.7c-0.2,0.2-0.2,0.5,0,0.7C9.4,12,9.5,12,9.6,12h4.8c0.3,0,0.5-0.2,0.5-0.5
		c0-0.1,0-0.2-0.1-0.3l-2.4-2.7C12.2,8.2,11.9,8.2,11.6,8.4C11.7,8.4,11.6,8.4,11.6,8.4z"/>
</g>
</svg>
