<?xml version="1.0" encoding="utf-8"?>
<!-- Generator: Adobe Illustrator 25.0.0, SVG Export Plug-In . SVG Version: 6.00 Build 0)  -->
<svg version="1.1" id="s" xmlns="http://www.w3.org/2000/svg" xmlns:xlink="http://www.w3.org/1999/xlink" x="0px" y="0px"
	 viewBox="0 0 16 16" style="enable-background:new 0 0 16 16;" xml:space="preserve">
<style type="text/css">
	.st0{opacity:0.75;}
	.st1{fill:#1F2022;}
</style>
<g id="_16" class="st0">
	<path class="st1" d="M7,2.1C4.8,5.9,6.2,10.8,10.1,13c0.2,0.1,0.5,0.2,0.7,0.4c-2.9,1.5-6.6,0.4-8.1-2.6S2.3,4.2,5.2,2.7
		C5.8,2.4,6.4,2.2,7,2.1 M8,1C4.1,1,1,4.2,1,8c0,3.9,3.2,7,7,7c1.9,0,3.6-0.8,5-2.1C9.2,12.4,6.5,8.8,7.1,5C7.3,3.5,8,2.1,9,1.1
		C8.7,1,8.3,1,8,1z"/>
</g>
</svg>
