<?xml version="1.0" encoding="utf-8"?>
<!-- Generator: Adobe Illustrator 25.0.0, SVG Export Plug-In . SVG Version: 6.00 Build 0)  -->
<svg version="1.1" id="t" xmlns="http://www.w3.org/2000/svg" xmlns:xlink="http://www.w3.org/1999/xlink" x="0px" y="0px"
	 viewBox="0 0 16 16" style="enable-background:new 0 0 16 16;" xml:space="preserve">
<style type="text/css">
	.st0{opacity:0.75;}
	.st1{fill:#1F2022;}
</style>
<g id="_16" class="st0">
	<path class="st1" d="M14.4,2L14.4,2v5.3L7.7,14L2.4,8.7L9.1,2H14.4 M14.4,1H9.1C8.9,1,8.6,1.1,8.4,1.3L1.7,8c-0.4,0.4-0.4,1,0,1.4
		l0,0L7,14.7c0.4,0.4,1,0.4,1.4,0l0,0L15.1,8c0.2-0.2,0.3-0.5,0.3-0.7V2C15.4,1.4,15,1,14.4,1L14.4,1z"/>
	<circle class="st1" cx="11.5" cy="4.5" r="1"/>
</g>
</svg>
