<?xml version="1.0" encoding="utf-8"?>
<!-- Generator: Adobe Illustrator 25.0.0, SVG Export Plug-In . SVG Version: 6.00 Build 0)  -->
<svg version="1.1" id="t" xmlns="http://www.w3.org/2000/svg" xmlns:xlink="http://www.w3.org/1999/xlink" x="0px" y="0px"
	 viewBox="0 0 16 16" style="enable-background:new 0 0 16 16;" xml:space="preserve">
<style type="text/css">
	.st0{opacity:0.75;}
	.st1{fill:none;stroke:#1F2022;stroke-linecap:round;stroke-linejoin:round;}
	.st2{fill:none;stroke:#61A232;stroke-linecap:round;stroke-linejoin:round;}
</style>
<g id="_16">
	<g class="st0">
		<polyline class="st1" points="1.5,9.5 3.5,3.5 5.5,9.5 		"/>
		<line class="st1" x1="2.5" y1="7.5" x2="4.7" y2="7.5"/>
		<path class="st1" d="M6.5,6.5H8c0.8,0,1.5,0.7,1.5,1.5l0,0c0,0.8-0.7,1.5-1.5,1.5H6.5"/>
		<path class="st1" d="M6.5,3.5H8c0.8,0,1.5,0.7,1.5,1.5l0,0c0,0.8-0.7,1.5-1.5,1.5H6.5"/>
		<line class="st1" x1="6.5" y1="3.5" x2="6.5" y2="9.5"/>
		<path class="st1" d="M14.5,8c-0.1,0.8-0.8,1.4-1.6,1.5h-0.7c-0.9,0-1.7-1.1-1.7-2.5V6c0-1.4,0.8-2.5,1.7-2.5h0.7
			c0.7,0,1.3,0.6,1.6,1.5"/>
	</g>
	<polyline class="st2" points="4,10 7,13.5 13.5,6.5 	"/>
</g>
</svg>
