<?xml version="1.0" encoding="utf-8"?>
<!-- Generator: Adobe Illustrator 23.0.1, SVG Export Plug-In . SVG Version: 6.00 Build 0)  -->
<svg version="1.1" id="图层_1" xmlns="http://www.w3.org/2000/svg" xmlns:xlink="http://www.w3.org/1999/xlink" x="0px" y="0px"
	 viewBox="0 0 16 16" style="enable-background:new 0 0 16 16;" xml:space="preserve">
<style type="text/css">
	.st0{opacity:0.75;}
	.st1{fill:#1F2022;}
</style>
<title>调整</title>
<g class="st0">
	<path class="st1" d="M3.5,10C2.1,10,1,11.1,1,12.5S2.1,15,3.5,15c1.2,0,2.2-0.9,2.4-2H15v-1H5.9C5.7,10.9,4.7,10,3.5,10z M3.5,14
		C2.7,14,2,13.3,2,12.5S2.7,11,3.5,11S5,11.7,5,12.5S4.3,14,3.5,14z"/>
	<path class="st1" d="M9.9,3C9.7,1.9,8.7,1,7.5,1S5.3,1.9,5.1,3H1v1h4.1c0.2,1.1,1.2,2,2.4,2s2.2-0.9,2.4-2H15V3H9.9z"/>
</g>
</svg>
