<?xml version="1.0" encoding="utf-8"?>
<!-- Generator: Adobe Illustrator 25.0.0, SVG Export Plug-In . SVG Version: 6.00 Build 0)  -->
<svg version="1.1" id="图层_1" xmlns="http://www.w3.org/2000/svg" xmlns:xlink="http://www.w3.org/1999/xlink" x="0px" y="0px"
	 viewBox="0 0 16 16" style="enable-background:new 0 0 16 16;" xml:space="preserve">
<style type="text/css">
	.st0{opacity:0.75;}
	.st1{fill-rule:evenodd;clip-rule:evenodd;fill:#1F2022;}
	.st2{fill:none;stroke:#1F2022;}
	.st3{fill:none;stroke:#1F2022;stroke-linecap:round;}
</style>
<desc>Created with Sketch.</desc>
<g id="蓝色" class="st0">
	<g id="设计规范" transform="translate(-1143.000000, -1368.000000)">
		<g id="ukui-play-list" transform="translate(1143.000000, 1368.000000)">
			<path id="Fill-1" class="st1" d="M11.5,2h-11C0.2,2,0,1.8,0,1.5S0.2,1,0.5,1h11C11.8,1,12,1.2,12,1.5S11.8,2,11.5,2"/>
			<path id="Fill-3" class="st1" d="M9.5,6h-9C0.2,6,0,5.8,0,5.5S0.2,5,0.5,5h9C9.8,5,10,5.2,10,5.5S9.8,6,9.5,6"/>
			<path id="Fill-5" class="st1" d="M4.5,10h-4C0.2,10,0,9.8,0,9.5S0.2,9,0.5,9h4C4.8,9,5,9.2,5,9.5S4.8,10,4.5,10"/>
			<path id="Fill-7" class="st1" d="M4.5,14h-4C0.2,14,0,13.8,0,13.5S0.2,13,0.5,13h4C4.8,13,5,13.2,5,13.5S4.8,14,4.5,14"/>
			<circle id="椭圆形" class="st2" cx="9.5" cy="11.5" r="3"/>
			<g id="编组" transform="translate(12.000000, 5.000000)">
				<path id="Stroke-1" class="st3" d="M3.5,3.5c-1.7,0-3-1.3-3-3"/>
				<path id="Fill-3_1_" class="st1" d="M0.5,7L0.5,7C0.2,7,0,6.8,0,6.5v-6C0,0.2,0.2,0,0.5,0S1,0.2,1,0.5v6C1,6.8,0.8,7,0.5,7"/>
			</g>
		</g>
	</g>
</g>
</svg>
