<svg id="v" xmlns="http://www.w3.org/2000/svg" viewBox="0 0 16 16"><defs><style>.cls-1{opacity:0.75;}.cls-2{fill:#1f2022;}</style></defs><g class="cls-1"><path class="cls-2" d="M13,2a1,1,0,0,1,1,1v9a1,1,0,0,1-1,1H2a1,1,0,0,1-1-1V3A1,1,0,0,1,2,2H13m0-1H2A2,2,0,0,0,0,3v9a2,2,0,0,0,2,2H13a2,2,0,0,0,2-2V3a2,2,0,0,0-2-2Z"/><rect class="cls-2" x="1" y="2" width="9" height="2"/><rect class="cls-2" x="10" y="3" width="4" height="1"/><rect class="cls-2" x="11" y="2" width="1" height="1"/><rect class="cls-2" x="3" y="4" width="1" height="9"/><rect class="cls-2" x="8" y="4" width="1" height="9"/><rect class="cls-2" x="10" y="6" width="3" height="1"/><rect class="cls-2" x="10" y="8" width="3" height="1"/><rect class="cls-2" x="10" y="10" width="3" height="1"/><rect class="cls-2" x="13" y="2" width="1" height="1"/></g></svg>