<?xml version="1.0" encoding="utf-8"?>
<!-- Generator: Adobe Illustrator 23.0.1, SVG Export Plug-In . SVG Version: 6.00 Build 0)  -->
<svg version="1.1" id="图层_1" opacity="0.8" xmlns="http://www.w3.org/2000/svg" xmlns:xlink="http://www.w3.org/1999/xlink"
	 x="0px" y="0px" viewBox="0 0 16 16" style="enable-background:new 0 0 16 16;" xml:space="preserve">
<style type="text/css">
	.st0{fill:#1F2022;}
</style>
<polygon class="st0" points="2,4 1,4 1,1 0,1 0,0 2,0 "/>
<polygon class="st0" points="3,10 0,10 0,7 2,7 2,6 0,6 0,5 3,5 3,8 1,8 1,9 3,9 "/>
<polygon class="st0" points="0,11 0,12 2,12 2,13 0,13 0,14 2,14 2,15 0,15 0,16 3,16 3,11 "/>
<rect x="5" y="1" class="st0" width="11" height="1"/>
<rect x="5" y="7" class="st0" width="11" height="1"/>
<rect x="5" y="13" class="st0" width="11" height="1"/>
</svg>
