<?xml version="1.0" encoding="utf-8"?>
<!-- Generator: Adobe Illustrator 25.0.0, SVG Export Plug-In . SVG Version: 6.00 Build 0)  -->
<svg version="1.1" id="图层_2_1_" xmlns="http://www.w3.org/2000/svg" xmlns:xlink="http://www.w3.org/1999/xlink" x="0px"
	 y="0px" viewBox="0 0 16 16" style="enable-background:new 0 0 16 16;" xml:space="preserve">
<style type="text/css">
	.st0{opacity:0.75;enable-background:new    ;}
	.st1{fill:#1F2022;}
	.st2{fill:#E9572A;}
	.st3{fill:none;stroke:#E9572A;stroke-linecap:round;stroke-miterlimit:10;}
</style>
<g class="st0">
	<circle class="st1" cx="8" cy="8" r="1"/>
</g>
<g class="st0">
	<circle class="st1" cx="12.5" cy="4.5" r="0.5"/>
</g>
<g class="st0">
	<path class="st1" d="M8,13H4c-1.1,0-2-0.9-2-2V5c0-1.1,0.9-2,2-2h8c1.1,0,2,0.9,2,2v3h1V5c0-1.6-1.4-3-3-3H6V1H4v1C2.3,2,1,3.3,1,5
		v6c0,1.7,1.3,3,3,3h4V13z"/>
</g>
<g class="st0">
	<path class="st1" d="M8,11c-1.7,0-3-1.3-3-3s1.3-3,3-3s3,1.3,3,3h1c0-2.2-1.8-4-4-4S4,5.8,4,8s1.8,4,4,4V11z"/>
</g>
<g>
	<path class="st2" d="M12,9c1.7,0,3,1.3,3,3s-1.3,3-3,3s-3-1.3-3-3S10.3,9,12,9 M12,8c-2.2,0-4,1.8-4,4s1.8,4,4,4s4-1.8,4-4
		S14.2,8,12,8L12,8z"/>
</g>
<g>
	<line class="st3" x1="10" y1="10" x2="14" y2="14"/>
</g>
<line class="st3" x1="14" y1="10" x2="10" y2="14"/>
</svg>
