<?xml version="1.0" encoding="utf-8"?>
<!-- Generator: Adobe Illustrator 25.0.0, SVG Export Plug-In . SVG Version: 6.00 Build 0)  -->
<svg version="1.1" id="v" xmlns="http://www.w3.org/2000/svg" xmlns:xlink="http://www.w3.org/1999/xlink" x="0px" y="0px"
	 viewBox="0 0 16 16" style="enable-background:new 0 0 16 16;" xml:space="preserve">
<style type="text/css">
	.st0{opacity:0.75;}
	.st1{fill:none;stroke:#1F2022;stroke-linecap:round;stroke-linejoin:round;}
	.st2{fill:none;stroke:#1F2022;stroke-linecap:round;stroke-miterlimit:10;}
</style>
<g id="_16" class="st0">
	<g id="_14">
		<polyline class="st1" points="14.5,4.5 14.5,1.5 11.5,1.5 		"/>
		<polyline class="st1" points="4.5,1.5 1.5,1.5 1.5,4.5 		"/>
		<polyline class="st1" points="11.5,14.5 14.5,14.5 14.5,11.5 		"/>
		<polyline class="st1" points="1.5,11.5 1.5,14.5 4.5,14.5 		"/>
	</g>
	<path class="st2" d="M6.5,4.5h3c1.1,0,2,0.9,2,2v3c0,1.1-0.9,2-2,2h-3c-1.1,0-2-0.9-2-2v-3C4.5,5.4,5.4,4.5,6.5,4.5z"/>
	<line class="st2" x1="5" y1="11" x2="1.5" y2="14.5"/>
	<line class="st2" x1="5" y1="5" x2="1.5" y2="1.5"/>
	<line class="st2" x1="11" y1="5" x2="14.5" y2="1.5"/>
	<line class="st2" x1="11" y1="11" x2="14.5" y2="14.5"/>
</g>
</svg>
