<?xml version="1.0" encoding="utf-8"?>
<!-- Generator: Adobe Illustrator 25.0.0, SVG Export Plug-In . SVG Version: 6.00 Build 0)  -->
<svg version="1.1" id="v" xmlns="http://www.w3.org/2000/svg" xmlns:xlink="http://www.w3.org/1999/xlink" x="0px" y="0px"
	 viewBox="0 0 16 16" style="enable-background:new 0 0 16 16;" xml:space="preserve">
<style type="text/css">
	.st0{opacity:0.75;}
	.st1{fill:none;stroke:#1F2022;stroke-linecap:round;stroke-miterlimit:10;}
	.st2{fill:#1F2022;}
</style>
<g id="_16" class="st0">
	<line class="st1" x1="7.5" y1="13.5" x2="7.5" y2="2.5"/>
	<path class="st2" d="M14,3v3h-3V3H14 M14,2h-3c-0.6,0-1,0.4-1,1v3c0,0.6,0.4,1,1,1h3c0.6,0,1-0.4,1-1V3C15,2.4,14.6,2,14,2z"/>
	<path class="st2" d="M14,10v3h-3v-3H14 M14,9h-3c-0.6,0-1,0.4-1,1v3c0,0.6,0.4,1,1,1h3c0.6,0,1-0.4,1-1v-3C15,9.4,14.6,9,14,9z"/>
	<line class="st1" x1="1.5" y1="12.5" x2="4.5" y2="12.5"/>
	<line class="st1" x1="1.5" y1="9.5" x2="4.5" y2="9.5"/>
	<line class="st1" x1="1.5" y1="6.5" x2="4.5" y2="6.5"/>
	<line class="st1" x1="1.5" y1="3.5" x2="4.5" y2="3.5"/>
</g>
</svg>
