<?xml version="1.0" encoding="utf-8"?>
<!-- Generator: Adobe Illustrator 25.0.0, SVG Export Plug-In . SVG Version: 6.00 Build 0)  -->
<svg version="1.1" id="v" xmlns="http://www.w3.org/2000/svg" xmlns:xlink="http://www.w3.org/1999/xlink" x="0px" y="0px"
	 viewBox="0 0 16 16" style="enable-background:new 0 0 16 16;" xml:space="preserve">
<style type="text/css">
	.st0{fill:none;stroke:#2196F3;stroke-linecap:round;stroke-linejoin:round;}
	.st1{fill:none;stroke:#2196F3;stroke-linecap:round;stroke-miterlimit:10;}
	.st2{opacity:0.75;}
	.st3{fill:none;stroke:#1F2022;stroke-linecap:round;stroke-linejoin:round;}
</style>
<g id="_16">
	<polyline class="st0" points="8.5,4.5 8.5,7.5 11.5,7.5 	"/>
	<line id="_16-2" class="st1" x1="8.5" y1="7.5" x2="12" y2="4"/>
	<g class="st2">
		<polyline class="st3" points="2.5,9.5 1.5,9.5 1.5,10.5 		"/>
		<polyline class="st3" points="6.5,10.5 6.5,9.5 5.5,9.5 		"/>
		<polyline class="st3" points="1.5,13.5 1.5,14.5 2.5,14.5 		"/>
		<polyline class="st3" points="5.5,14.5 6.5,14.5 6.5,13.5 		"/>
		<path class="st3" d="M1.5,5.5v-2c0-1.1,0.9-2,2-2h9c1.1,0,2,0.9,2,2v9c0,1.1-0.9,2-2,2h-2"/>
	</g>
</g>
</svg>
