<?xml version="1.0" encoding="utf-8"?>
<!-- Generator: Adobe Illustrator 25.0.0, SVG Export Plug-In . SVG Version: 6.00 Build 0)  -->
<svg version="1.1" id="v" xmlns="http://www.w3.org/2000/svg" xmlns:xlink="http://www.w3.org/1999/xlink" x="0px" y="0px"
	 viewBox="0 0 16 16" style="enable-background:new 0 0 16 16;" xml:space="preserve">
<style type="text/css">
	.st0{opacity:0.75;}
	.st1{fill:none;stroke:#1F2022;stroke-linecap:round;stroke-linejoin:round;}
	.st2{fill:#1F2022;}
	.st3{fill:none;stroke:#1F2022;stroke-linecap:round;stroke-miterlimit:10;}
</style>
<g id="_16" class="st0">
	<g id="_14">
		<polyline class="st1" points="3.5,10.5 3.5,12.5 5.5,12.5 		"/>
		<polyline class="st1" points="10.5,12.5 12.5,12.5 12.5,10.5 		"/>
		<polyline class="st1" points="5.5,3.5 3.5,3.5 3.5,5.5 		"/>
		<polyline class="st1" points="12.5,5.5 12.5,3.5 10.5,3.5 		"/>
	</g>
	<path class="st2" d="M13,2c0.6,0,1,0.4,1,1v10c0,0.6-0.4,1-1,1H3c-0.6,0-1-0.4-1-1V3c0-0.6,0.4-1,1-1H13 M13,1H3C1.9,1,1,1.9,1,3
		v10c0,1.1,0.9,2,2,2h10c1.1,0,2-0.9,2-2V3C15,1.9,14.1,1,13,1z"/>
	<line class="st3" x1="3.5" y1="12.5" x2="5.8" y2="10.2"/>
	<polyline class="st3" points="3.5,3.5 4,4 5.8,5.8 	"/>
	<line class="st3" x1="12.5" y1="3.5" x2="10.2" y2="5.8"/>
	<line class="st3" x1="12.5" y1="12.5" x2="10.2" y2="10.2"/>
</g>
</svg>
