<?xml version="1.0" encoding="utf-8"?>
<!-- Generator: Adobe Illustrator 25.0.0, SVG Export Plug-In . SVG Version: 6.00 Build 0)  -->
<svg version="1.1" id="v" xmlns="http://www.w3.org/2000/svg" xmlns:xlink="http://www.w3.org/1999/xlink" x="0px" y="0px"
	 viewBox="0 0 16 16" style="enable-background:new 0 0 16 16;" xml:space="preserve">
<style type="text/css">
	.st0{opacity:0.75;}
	.st1{fill:#1F2022;}
	.st2{fill:none;stroke:#1F2022;stroke-miterlimit:10;}
</style>
<g id="_16" class="st0">
	<path class="st1" d="M6,5.9v4c0,0.3,0.2,0.5,0.5,0.5c0.1,0,0.2,0,0.3-0.1l3.4-2c0.2-0.1,0.3-0.4,0.2-0.7c0-0.1-0.1-0.1-0.2-0.2
		l-3.4-2c-0.3-0.1-0.6,0-0.7,0.2C6,5.7,6,5.8,6,5.9z"/>
	<line class="st2" x1="1.5" y1="11.5" x2="14.5" y2="11.5"/>
	<line class="st2" x1="1.5" y1="4.5" x2="14.5" y2="4.5"/>
	<line class="st2" x1="10.5" y1="3" x2="10.5" y2="5"/>
	<line class="st2" x1="7.5" y1="3" x2="7.5" y2="5"/>
	<line class="st2" x1="4.5" y1="3" x2="4.5" y2="5"/>
	<line class="st2" x1="10.5" y1="11.5" x2="10.5" y2="13.5"/>
	<line class="st2" x1="7.5" y1="11.5" x2="7.5" y2="13.5"/>
	<line class="st2" x1="4.5" y1="11.5" x2="4.5" y2="13.5"/>
	<path class="st1" d="M13,3c0.6,0,1,0.4,1,1v8c0,0.6-0.4,1-1,1H3c-0.6,0-1-0.4-1-1V4c0-0.6,0.4-1,1-1H13 M13,2H3C1.9,2,1,2.9,1,4v8
		c0,1.1,0.9,2,2,2h10c1.1,0,2-0.9,2-2V4C15,2.9,14.1,2,13,2z"/>
</g>
</svg>
