<?xml version="1.0" encoding="utf-8"?>
<!-- Generator: Adobe Illustrator 25.0.0, SVG Export Plug-In . SVG Version: 6.00 Build 0)  -->
<svg version="1.1" id="v" xmlns="http://www.w3.org/2000/svg" xmlns:xlink="http://www.w3.org/1999/xlink" x="0px" y="0px"
	 viewBox="0 0 16 16" style="enable-background:new 0 0 16 16;" xml:space="preserve">
<style type="text/css">
	.st0{opacity:0.75;}
	.st1{fill:#1F2022;}
	.st2{fill:none;stroke:#1F2022;stroke-linecap:round;stroke-linejoin:round;}
	.st3{fill:none;stroke:#1F2022;stroke-linecap:round;stroke-linejoin:round;stroke-dasharray:3.33,3.33;}
	.st4{fill:none;stroke:#2196F3;stroke-linecap:round;stroke-miterlimit:10;}
	.st5{fill:none;stroke:#2196F3;stroke-linecap:round;stroke-linejoin:round;}
</style>
<g id="_16">
	<g class="st0">
		<path class="st1" d="M6,10v4H2v-4H6 M6,9H2c-0.6,0-1,0.4-1,1v4c0,0.6,0.4,1,1,1h4c0.6,0,1-0.4,1-1v-4C7,9.4,6.6,9,6,9z"/>
		<line class="st2" x1="1.5" y1="6.5" x2="1.5" y2="5"/>
		<polyline class="st2" points="1.5,3 1.5,1.5 3,1.5 		"/>
		<line class="st3" x1="6.3" y1="1.5" x2="11.3" y2="1.5"/>
		<polyline class="st2" points="13,1.5 14.5,1.5 14.5,3 		"/>
		<line class="st3" x1="14.5" y1="6.3" x2="14.5" y2="11.3"/>
		<polyline class="st2" points="14.5,13 14.5,14.5 13,14.5 		"/>
		<line class="st2" x1="11" y1="14.5" x2="9.5" y2="14.5"/>
	</g>
	<line class="st4" x1="12.5" y1="3.5" x2="8" y2="8"/>
	<polyline class="st5" points="12.5,7.5 12.5,3.5 8.5,3.5 	"/>
</g>
</svg>
