<?xml version="1.0" encoding="utf-8"?>
<!-- Generator: Adobe Illustrator 21.0.0, SVG Export Plug-In . SVG Version: 6.00 Build 0)  -->
<svg version="1.1" id="图层_10" xmlns="http://www.w3.org/2000/svg" xmlns:xlink="http://www.w3.org/1999/xlink" x="0px" y="0px"
	 viewBox="0 0 24 24" style="enable-background:new 0 0 24 24;" xml:space="preserve">
<style type="text/css">
	.st0{fill:#808080;}
</style>
<title>24</title>
<g id="_24">
	<path class="st0" d="M5,6H1v12h4l5,5V1L5,6z M9,20.5L5.5,17H2V7h3.5L9,3.5V20.5z"/>
	<path class="st0" d="M10,8v1c1.7,0,3,1.3,3,3s-1.3,3-3,3v1c2.2,0,4-1.8,4-4S12.2,8,10,8z"/>
	<path class="st0" d="M12,4.3v1c3.7,1.1,5.8,5,4.7,8.7c-0.7,2.3-2.4,4-4.7,4.7v1c4.3-1.2,6.7-5.6,5.6-9.9C16.8,7.1,14.7,5,12,4.3z"
		/>
	<path class="st0" d="M17,2.2v1.1c4.8,2.8,6.4,8.9,3.6,13.7c-0.9,1.5-2.1,2.8-3.6,3.6v1.1c5.4-2.8,7.5-9.4,4.8-14.8
		C20.7,4.9,19.1,3.3,17,2.2z"/>
</g>
</svg>
