<?xml version="1.0" encoding="utf-8"?>
<!-- Generator: Adobe Illustrator 24.0.0, SVG Export Plug-In . SVG Version: 6.00 Build 0)  -->
<svg version="1.1" xmlns="http://www.w3.org/2000/svg" xmlns:xlink="http://www.w3.org/1999/xlink" x="0px" y="0px"
	 viewBox="0 0 96 96" style="enable-background:new 0 0 96 96;" xml:space="preserve">
<style type="text/css">
	.st0{display:none;}
	.st1{display:inline;}
	.st2{fill:url(#SVGID_1_);}
	.st3{opacity:0.5;fill:url(#SVGID_2_);enable-background:new    ;}
	.st4{fill:#536055;}
	.st5{fill:url(#SVGID_3_);}
	.st6{fill:#E8F2F4;}
	.st7{fill:none;stroke:#000000;stroke-width:2;stroke-linecap:round;stroke-miterlimit:10;}
	.st8{fill:none;stroke:#000000;stroke-width:3;stroke-linecap:round;stroke-miterlimit:10;}
	.st9{fill:none;stroke:#F43A0F;stroke-width:2;stroke-linecap:round;stroke-miterlimit:10;}
	.st10{fill:#F43A0F;}
	.st11{fill:url(#SVGID_4_);}
	.st12{fill:#FFFFFF;}
</style>
<g id="图层_1" class="st0">
	<g id="_x39_6_1_" class="st1">
		
			<linearGradient id="SVGID_1_" gradientUnits="userSpaceOnUse" x1="48" y1="6" x2="48" y2="94" gradientTransform="matrix(1 0 0 -1 0 98)">
			<stop  offset="7.000000e-02" style="stop-color:#44EB9E"/>
			<stop  offset="0.28" style="stop-color:#55F0CA"/>
			<stop  offset="0.75" style="stop-color:#39B496"/>
			<stop  offset="1" style="stop-color:#24996B"/>
		</linearGradient>
		<circle class="st2" cx="48" cy="48" r="44"/>
		
			<linearGradient id="SVGID_2_" gradientUnits="userSpaceOnUse" x1="48" y1="94" x2="48" y2="6" gradientTransform="matrix(1 0 0 -1 0 98)">
			<stop  offset="0" style="stop-color:#80E3B1"/>
			<stop  offset="0.32" style="stop-color:#26C47B"/>
			<stop  offset="0.63" style="stop-color:#39B44A"/>
			<stop  offset="1" style="stop-color:#249962"/>
		</linearGradient>
		<path class="st3" d="M92,48c0,24.3-19.7,44-44,44S4,72.3,4,48S23.7,4,48,4S92,23.7,92,48z M48,6C24.8,6,6,24.8,6,48s18.8,42,42,42
			s42-18.8,42-42S71.2,6,48,6z"/>
		<path class="st4" d="M84,48c0,19.9-16.1,36-36,36S12,67.9,12,48s16.1-36,36-36S84,28.1,84,48z"/>
		
			<linearGradient id="SVGID_3_" gradientUnits="userSpaceOnUse" x1="48" y1="85" x2="48" y2="15" gradientTransform="matrix(1 0 0 -1 0 98)">
			<stop  offset="0" style="stop-color:#515D62"/>
			<stop  offset="0.85" style="stop-color:#A2C0C8"/>
			<stop  offset="1" style="stop-color:#B9C8CC"/>
		</linearGradient>
		<path class="st5" d="M83,48c0,19.3-15.7,35-35,35S13,67.3,13,48s15.7-35,35-35S83,28.7,83,48z"/>
		<circle class="st6" cx="48" cy="48" r="33"/>
		<g>
			<line class="st7" x1="48" y1="48" x2="55.5" y2="21.5"/>
			<line class="st8" x1="48" y1="48" x2="32" y2="56"/>
			<line class="st9" x1="43" y1="45" x2="75" y2="64"/>
			<circle class="st10" cx="48" cy="48" r="4"/>
		</g>
		<circle class="st4" cx="48" cy="77" r="1.5"/>
		<circle class="st4" cx="48" cy="19" r="1.5"/>
		<circle class="st4" cx="19" cy="48" r="1.5"/>
		<circle class="st4" cx="77" cy="48" r="1.5"/>
	</g>
</g>
<g id="图层_2">
	<g>
		<linearGradient id="SVGID_4_" gradientUnits="userSpaceOnUse" x1="8.636" y1="8.636" x2="87.364" y2="87.364">
			<stop  offset="0" style="stop-color:#0092FF"/>
			<stop  offset="1" style="stop-color:#0D6AFF"/>
		</linearGradient>
		<path class="st11" d="M81,90H15c-5,0-9-4-9-9V15c0-5,4-9,9-9h66c5,0,9,4,9,9v66C90,86,86,90,81,90z"/>
		<path class="st12" d="M49,18h-9v33h-9V18h-9v60h27c16.6,0,30-13.4,30-30v0C79,31.4,65.6,18,49,18z M40,69h-9v-9h9V69z"/>
	</g>
</g>
</svg>
