<svg id="图层_1" data-name="图层 1" xmlns="http://www.w3.org/2000/svg" xmlns:xlink="http://www.w3.org/1999/xlink" viewBox="0 0 128 128"><defs><style>.cls-1{fill:url(#未命名的渐变_9);}.cls-2{fill:url(#未命名的渐变_32);}.cls-3{fill:url(#未命名的渐变_28);}.cls-4{fill:url(#未命名的渐变_28-2);}</style><linearGradient id="未命名的渐变_9" x1="39" y1="123" x2="39" y2="5" gradientUnits="userSpaceOnUse"><stop offset="0" stop-color="#00b7ff"/><stop offset="1" stop-color="#0072ff"/></linearGradient><linearGradient id="未命名的渐变_32" x1="64" y1="64" x2="114" y2="64" gradientUnits="userSpaceOnUse"><stop offset="0" stop-color="#0086ff"/><stop offset="1" stop-color="#0072ff"/></linearGradient><linearGradient id="未命名的渐变_28" x1="45" y1="54.65" x2="45" y2="9.42" gradientTransform="matrix(1, 0, 0, -1, 0, 98)" gradientUnits="userSpaceOnUse"><stop offset="0" stop-color="#ffbe06"/><stop offset="1" stop-color="#ffff08"/></linearGradient><linearGradient id="未命名的渐变_28-2" x1="83" y1="9.42" x2="83" y2="54.65" xlink:href="#未命名的渐变_28"/></defs><title>128</title><g id="_128" data-name="128"><path class="cls-1" d="M59.48,6.87C52.37,14,37.65,24.06,20.63,24.06h-.07A6.48,6.48,0,0,0,14,30.49l2.56,35C19.28,100.18,53.92,123,64,123V5A6.32,6.32,0,0,0,59.48,6.87Z"/><path class="cls-2" d="M111.44,65.52l2.56-35a6.48,6.48,0,0,0-6.56-6.43h-.07c-17,0-31.74-10-38.85-17.19A6.32,6.32,0,0,0,64,5V123C73.93,123,109.34,99.58,111.44,65.52Z"/><polygon class="cls-3" points="26 43.35 64 88.58 64 65.23 37.35 43.35 26 43.35"/><polygon class="cls-4" points="102 43.35 90.65 43.35 64 65.23 64 88.58 102 43.35"/></g></svg>