<?xml version="1.0" encoding="utf-8"?>
<!-- Generator: Adobe Illustrator 24.0.0, SVG Export Plug-In . SVG Version: 6.00 Build 0)  -->
<svg version="1.1" id="recoll" xmlns="http://www.w3.org/2000/svg" xmlns:xlink="http://www.w3.org/1999/xlink" x="0px" y="0px"
	 viewBox="0 0 96 96" style="enable-background:new 0 0 96 96;" xml:space="preserve">
<title>96</title>
<g id="_96">
	
		<linearGradient id="SVGID_1_" gradientUnits="userSpaceOnUse" x1="48" y1="90" x2="48" y2="6" gradientTransform="matrix(1 0 0 -1 0 96)">
		<stop  offset="0" style="stop-color:#94D966"/>
		<stop  offset="1" style="stop-color:#76D950"/>
	</linearGradient>
	<path style="fill:url(#SVGID_1_);" d="M15,6h66c5,0,9,4,9,9v66c0,5-4,9-9,9H15c-5,0-9-4-9-9V15C6,10,10,6,15,6z"/>
	<rect x="6" y="23" style="fill:#E88233;" width="17" height="17"/>
	<rect x="74" y="23" style="fill:#E88233;" width="16" height="17"/>
	<rect x="40" y="23" style="fill:#E88233;" width="17" height="17"/>
	<rect x="23" y="6" style="fill:#E88233;" width="17" height="17"/>
	<rect x="57" y="6" style="fill:#E88233;" width="17" height="17"/>
	<rect x="23" y="74" style="fill:#E88233;" width="17" height="16"/>
	<rect x="57" y="74" style="fill:#E88233;" width="17" height="16"/>
	<rect x="6" y="57" style="fill:#E88233;" width="17" height="17"/>
	<rect x="74" y="57" style="fill:#E88233;" width="16" height="17"/>
	<rect x="40" y="57" style="fill:#E88233;" width="17" height="17"/>
	<rect x="23" y="40" style="fill:#7676DB;" width="17" height="17"/>
	<rect x="57" y="40" style="fill:#E88233;" width="17" height="17"/>
</g>
</svg>
