<?xml version="1.0" encoding="utf-8"?>
<!-- Generator: Adobe Illustrator 24.0.0, SVG Export Plug-In . SVG Version: 6.00 Build 0)  -->
<svg version="1.1" id="桌面" xmlns="http://www.w3.org/2000/svg" xmlns:xlink="http://www.w3.org/1999/xlink" x="0px" y="0px"
	 viewBox="0 0 128 128" style="enable-background:new 0 0 128 128;" xml:space="preserve">
<g id="_128">
	
		<linearGradient id="SVGID_1_" gradientUnits="userSpaceOnUse" x1="64" y1="113.95" x2="64" y2="214.86" gradientTransform="matrix(1 0 0 -1 0 232)">
		<stop  offset="0.19" style="stop-color:#1083C3"/>
		<stop  offset="0.41" style="stop-color:#2CA5EE"/>
	</linearGradient>
	<path style="fill:url(#SVGID_1_);" d="M20,8h88c6.6,0,12,5.4,12,12v88c0,6.6-5.4,12-12,12H20c-6.6,0-12-5.4-12-12V20
		C8,13.4,13.4,8,20,8z"/>
	<path style="opacity:0.5;enable-background:new    ;" d="M108,120H20c-6.6,0-12-5.4-12-12v-7h112v7C120,114.6,114.6,120,108,120z"
		/>
	<path style="fill:#016091;" d="M8,81h112v-9.5c-1.4-0.6-2.8-1.1-4.1-1.6c-3.1-1.1-12.4,3.2-12.4,3.2s-9.1-6.7-12.2-6.7
		c-5.3,0-8.7,8-8.7,8s-3.5-6.7-5.3-6.7c-3.4,0-12.2,6.7-12.2,6.7S52,67.7,47.6,67.7c-3,0-12.2,3.9-22.1,6c-4.7,1-12.9-6.9-17.1-6
		c-0.1,0-0.3,0.1-0.4,0.1V81z"/>
	
		<radialGradient id="SVGID_2_" cx="88" cy="166" r="28" gradientTransform="matrix(1 0 0 -1 0 232)" gradientUnits="userSpaceOnUse">
		<stop  offset="0" style="stop-color:#FFFFFF"/>
		<stop  offset="1" style="stop-color:#FFFFFF;stop-opacity:0"/>
	</radialGradient>
	<path style="opacity:0.9;fill:url(#SVGID_2_);enable-background:new    ;" d="M88,38c-15.5,0-28,12.5-28,28s12.5,28,28,28
		s28-12.5,28-28S103.5,38,88,38z M88,84.7c-10.3,0-18.7-8.4-18.7-18.7S77.7,47.3,88,47.3s18.7,8.4,18.7,18.7l0,0
		C106.7,76.3,98.3,84.7,88,84.7z"/>
	<rect x="20" y="48" style="opacity:0.6;fill:#FFFFFF;enable-background:new    ;" width="8" height="8"/>
	<rect x="20" y="34" style="opacity:0.6;fill:#FFFFFF;enable-background:new    ;" width="8" height="8"/>
	<rect x="20" y="20" style="opacity:0.6;fill:#FFFFFF;enable-background:new    ;" width="8" height="8"/>
</g>
</svg>
