<svg id="图层_1" data-name="图层 1" xmlns="http://www.w3.org/2000/svg" viewBox="0 0 16 16"><defs><style>.cls-1{fill:#040000;opacity:0.8;}</style></defs><title>b-命令行</title><path class="cls-1" d="M14.71,1H1.28A1.28,1.28,0,0,0,0,2.29V13.71A1.28,1.28,0,0,0,1.28,15H14.72A1.28,1.28,0,0,0,16,13.71V2.29A1.29,1.29,0,0,0,14.71,1Zm0,12.71H1.28V2.29H14.71ZM3.25,9.54a.65.65,0,0,0,.91,0h0L6.66,7a.66.66,0,0,0,0-.91L4.16,3.53a.64.64,0,0,0-.91.91l2.06,2.1L3.25,8.62a.66.66,0,0,0,0,.92Zm3.2-.47a.65.65,0,0,0,.64.65h3.55a.65.65,0,0,0,0-1.3H7.1a.65.65,0,0,0-.65.64Z"/></svg>