<svg id="麒麟APP" xmlns="http://www.w3.org/2000/svg" viewBox="0 0 128 128"><defs><style>.cls-1{fill:#e39539;}.cls-2{opacity:0.1;}.cls-2,.cls-4,.cls-7,.cls-8{isolation:isolate;}.cls-3{fill:#fde3aa;}.cls-4{opacity:0.05;}.cls-5{fill:#fff;}.cls-6{fill:#f8c945;}.cls-7{fill:#fdefba;opacity:0.25;}.cls-8{opacity:0.2;}.cls-9{fill:#9e9e9e;}.cls-10{fill:#2daf00;}.cls-11{fill:#42cb12;}</style></defs><title>128</title><g id="麒麟备份还原"><g id="_128" data-name="128"><rect class="cls-1" x="8" y="8" width="112" height="112" rx="12"/><g id="_128-3" data-name=" 128-3"><g id="图层_1-2" data-name="图层 1-2"><polygon class="cls-2" points="120 49 102 31 102 77 120 77 120 49"/><polygon class="cls-3" points="94 23 31 23 31 72 102 72 102 31 94 23"/><polygon class="cls-4" points="90.54 27 90.44 27 90.44 27 31 27 31 76.03 98.79 76.03 98.79 35.35 90.54 27"/><polygon class="cls-5" points="96 38 88 30 25 30 25 79 96 79 96 38"/><rect class="cls-4" x="8" y="62" width="112" height="40"/><path class="cls-6" d="M8,66H120v42a12,12,0,0,1-12,12H20A12,12,0,0,1,8,108Z"/><rect class="cls-7" x="8" y="66" width="112" height="7"/><path id="path3759" class="cls-8" d="M96,46V38H88Z"/><rect class="cls-9" x="31" y="36" width="18" height="18"/><rect class="cls-9" x="56" y="36" width="28" height="4"/><rect class="cls-9" x="56" y="46" width="28" height="4"/></g><g id="图层_3" data-name="图层 3"><path class="cls-8" d="M109.23,78h-6.31A32,32,0,1,0,71,110h0l0-13A19,19,0,1,1,90,78H83L96,94Z"/><path class="cls-10" d="M70.9,49a29,29,0,0,0,.1,58v-7A22.44,22.44,0,0,1,49,78,22.35,22.35,0,0,1,71,56,22.4,22.4,0,0,1,93,78h7A29.24,29.24,0,0,0,70.9,49Z"/><path class="cls-11" d="M42,78a29,29,0,0,1,58,0h7a36,36,0,1,0-36,36v-7c-15.86.1-29-13.24-29-29Z"/><polygon class="cls-11" points="115 78 100 78 100 96 115 78"/><polygon class="cls-10" points="85 78 100 96 100 78 85 78"/></g></g></g></g></svg>