/* XPM */
static char *steam[] = {
/* columns rows colors chars-per-pixel */
"48 48 152 2 ",
"   c #000000",
".  c #141414",
"X  c #1D1D1D",
"o  c #242424",
"O  c #272428",
"+  c #2A272B",
"@  c #2C2A2D",
"#  c #312E2F",
"$  c #2F2D31",
"%  c #312F31",
"&  c #353235",
"*  c #383537",
"=  c #363539",
"-  c #39363A",
";  c #3C3A3D",
":  c #473E2D",
">  c #483F2B",
",  c #403C3F",
"<  c #45402F",
"1  c #4B422D",
"2  c #52462B",
"3  c #52492E",
"4  c #4E4832",
"5  c #514731",
"6  c #534A34",
"7  c #584E34",
"8  c #534C38",
"9  c #5A5236",
"0  c #5F5739",
"q  c #796B3F",
"w  c #3E3C41",
"e  c #413E41",
"r  c #444245",
"t  c #494547",
"y  c #46454A",
"u  c #49464A",
"i  c #4C4A4D",
"p  c #514D4F",
"a  c #595146",
"s  c #5F574C",
"d  c #4E4C51",
"f  c #524E52",
"g  c #555155",
"h  c #585457",
"j  c #55545A",
"k  c #59565A",
"l  c #5C595D",
"z  c #60564C",
"x  c #5D5B62",
"c  c #615E62",
"v  c #615F68",
"b  c #5F6069",
"n  c #646265",
"m  c #64646B",
"M  c #69666B",
"N  c #6B6A6D",
"B  c #666772",
"V  c #676A71",
"C  c #6C6C72",
"Z  c #726E73",
"A  c #6F7177",
"S  c #6F7378",
"D  c #747275",
"F  c #787677",
"G  c #747379",
"H  c #7C7B7C",
"J  c #886F1F",
"K  c #816925",
"L  c #826D29",
"P  c #87712D",
"I  c #8D762C",
"U  c #8D7829",
"Y  c #937C26",
"T  c #937A2A",
"R  c #987F28",
"E  c #8B7433",
"W  c #8F7A38",
"Q  c #887641",
"!  c #977F46",
"~  c #8C7B56",
"^  c #8E7D5B",
"/  c #A18213",
"(  c #AD8D16",
")  c #A3841D",
"_  c #A7891F",
"`  c #AD8E1E",
"'  c #B18F1C",
"]  c #AF921C",
"[  c #B1911D",
"{  c #958025",
"}  c #9D8126",
"|  c #97802C",
" . c #9F822B",
".. c #9F8134",
"X. c #9D8138",
"o. c #A48625",
"O. c #A68923",
"+. c #AB8C24",
"@. c #A4852C",
"#. c #A6892D",
"$. c #AA8C2C",
"%. c #AD9122",
"&. c #AE902A",
"*. c #B39222",
"=. c #B59926",
"-. c #BB9B21",
";. c #B3942B",
":. c #B4992C",
">. c #A28532",
",. c #A68934",
"<. c #AB8D33",
"1. c #A68939",
"2. c #AA8C3A",
"3. c #AE9034",
"4. c #B19031",
"5. c #91815A",
"6. c #A48A48",
"7. c #938262",
"8. c #9D8761",
"9. c #A38D65",
"0. c #A58F6A",
"q. c #A59066",
"w. c #A79269",
"e. c #A9946D",
"r. c #7A7B83",
"t. c #807F80",
"y. c #7E818A",
"u. c #848384",
"i. c #888789",
"p. c #86888F",
"a. c #8C8B8D",
"s. c #918F91",
"d. c #969596",
"f. c #9A999A",
"g. c #A3A2A3",
"h. c #AAA9AA",
"j. c #B3B3B3",
"k. c #BBBABB",
"l. c #BFBFC0",
"z. c #C4C3C4",
"x. c #C7C7C8",
"c. c #CBCBCC",
"v. c #CFCFD0",
"b. c #D3D3D3",
"n. c #D7D7D8",
"m. c #DCDCDC",
"M. c #E4E4E4",
"N. c #E8E7E8",
"B. c #ECECEC",
"V. c #F2F2F2",
"C. c #F8F8F8",
"Z. c None",
/* pixels */
"Z.Z.Z.Z.Z.Z.Z.Z.Z.Z.Z.Z.Z.Z.Z.Z.Z.Z.Z.Z.Z.Z.Z.Z.Z.Z.Z.Z.Z.Z.Z.Z.Z.Z.Z.Z.Z.Z.Z.Z.Z.Z.Z.Z.Z.Z.Z.Z.",
"Z.Z.Z.Z.Z.Z.Z.Z.Z.Z.Z.Z.Z.Z.Z.Z.Z.Z.Z.Z.Z.Z.Z.Z.Z.Z.Z.Z.Z.Z.Z.Z.Z.Z.Z.Z.Z.Z.Z.Z.Z.Z.Z.Z.Z.Z.Z.Z.",
"Z.Z.Z.Z.Z.Z.Z.Z.Z.Z.Z.Z.Z.Z.Z.Z.Z.Z.Z.Z.Z.Z.Z.Z.Z.Z.Z.Z.Z.Z.Z.Z.Z.Z.Z.Z.Z.Z.Z.Z.Z.Z.Z.Z.Z.Z.Z.Z.",
"Z.Z.Z.Z.p.y.r.G Z c c N C C c N M M F M Z M Z M c M m Z m M k c Z l M v n c n c k n N F Z.Z.Z.Z.",
"Z.Z.Z.S C V m m g l l l k l g l g h l c c l c c v k l j l h h l f f c f f f f j p p p f M Z.Z.Z.",
"Z.Z.Z.C B B C j t l g g c i i l p h p c c M M c m k h h g h f j f f f h f j f f i g p f M Z.Z.Z.",
"Z.Z.Z.B b m B g h f l c l n i p p h k k M m N M x l h l k k j c k h l j f f f f f i f p n Z.Z.Z.",
"Z.Z.Z.B b x m g t l l k M n f i g k c M B n m l l h x h l x h l j f j k k h k f i i p f M Z.Z.Z.",
"Z.Z.Z.C b b B j j l j V N N g g g g V m N l c n l l c k k c h l k l h h k k f j j f f f B Z.Z.Z.",
"Z.Z.Z.B b x b x b l g S S S l s g c M n n n n l l c l c c k n k k h k k k k k f f f f d b Z.Z.Z.",
"Z.Z.Z.m x x b b V l l V N n n l N n n m N l c c M l l c c c c l l l k l l g k f j u d d b Z.Z.Z.",
"Z.Z.Z.m x x x b V c l V S n n c N N V N n n n n l v n c c c n c k l c l k k l f k d i d x Z.Z.Z.",
"Z.Z.Z.m x j j x m h l V V S n c n c N B N n c c c k l k c k k l x k l g f f f j d d d u x Z.Z.Z.",
"Z.Z.Z.B x j j x b g p m n n k l N N M m n l h h l l c c k c l l l g G b.N.N.m.t.d d d d x Z.Z.Z.",
"Z.Z.Z.v x b x x x.b.k.F g h n c n x n V n h n h k l l k l k k k g f.V.N.k.j.m.C.j.d d i x Z.Z.Z.",
"Z.Z.  b j j b M.d.N F v.s.g c k c l n n l l l h k l l l k k k k c N.c.d t.d.e h.V.a.i e j   Z.Z.",
"Z.Z.  x j d c.F n.C.V.n.m.p i l l f l l l g h h h h l p k l k g g.V.h v.V.V.N.r n.l.r y j   Z.Z.",
"Z.Z.  b g y n.y.C.V.C.V.V.m.f.i p p k c l g h p h h h g g l k i k.n.n V.V.V.V.s.g.N.w i j   Z.Z.",
"Z.Z.  x d r b.S V.V.V.V.V.V.V.B.k.l g g l i p g g p p g d g p H B.m.h B.V.B.V.D j.b.; r f   Z.Z.",
"Z.Z.  j d y g.f.f.B.V.V.V.V.V.V.V.V.b.H i t p g g g p g p d h M.B.V.F g.N.B.x.c M.j.= r g   Z.Z.",
"Z.Z.  l i y r c.x.u.x.B.B.V.V.V.B.V.V.V.m.f.t t i p p p t i z.B.B.B.M.N g n n n.N.j w w d   Z.Z.",
"Z.Z.  j i r w - y.k.d.k u.v.B.B.V.B.V.B.V.V.N.k.h i p p r f.V.B.B.B.B.V.m.m.B.N.H = w r d   Z.Z.",
"Z.Z.  j i d y w w * ; u r = n j.N.B.B.V.B.V.B.V.V.v.F N k.M.B.B.B.B.B.B.B.z.f.g & e r w d   Z.Z.",
"Z.Z.  j y y r i u , i g g i ; @ i f.m.B.B.B.B.B.B.B.V.V.j.t.l.B.B.B.B.m.Z % * * ; e r w d   Z.Z.",
"Z.Z.  f y y y r i r d g d i y r w w ; H x.B.B.B.B.B.B.B.B.M.N z.B.N.z.i - e r r e e e w y   Z.Z.",
"Z.Z.  f y d e e t r d d d d y 8 i r r < * n h.M.B.B.B.N.N.B.m.N N.f.& ; r r r e e e w w y   Z.Z.",
"Z.Z.  d y y w r d r d d d t t y i y t y t r * i d.m.B.B.N.N.m.N g.& e t t r t e e ; - ; y   Z.Z.",
"Z.Z.  u w y r e r r t d i r y y y i d i i r i ; & n l.l.m.m.t.j.Z ; r r r r e , ; ; ; * e   Z.Z.",
"Z.Z.  y w y w y y w y d t r r y r r y d t y t r w & j.f.8 l k.k.& , e r e e e e ; , ; - e   Z.Z.",
"Z.Z.  y w w w w r w y d d r r w r 8 y y r i r r y < * y.x.v.a.# - e r e e e , e - - ; - y   Z.Z.",
"Z.Z.  y = w - w r w y y y r w ; r w y y r r r e y e * # # @ # ; w e e e e e ; ; - - - & w   Z.Z.",
"Z.Z.  y w w w w w < r r y r < ; ; r y r , r , ; r , , ; * ; ; w e e e y e e w - & - - & w   Z.Z.",
"Z.Z.  y - w = w w ; r r e ; - ; ; ; ; r w r e e * , ; ; - , e - e , ; ; w - ; - & & & & w   Z.Z.",
"Z.Z.  w = & = - w - ; , ; ; ; ; e ; r r ; ; r w e ; , ; - e ; ; ; ; ; , ; ; ; & & & & & w   Z.Z.",
"Z.Z.  w = & & & = = - - , * * ; r ; ; ; ; ; ; w ; ; ; ; - , - , - - - ; ; - - & % # % & -   Z.Z.",
"Z.Z.  w & 3 ( ' ] ] ] #.; = # ; ; 7 [ ' ` ] -.R - ; - - - 7 [ ` _ ) ` T & - & % & 2 ( / O.  Z.Z.",
"Z.Z.  w & Y ] -.%.%.-.0 - # # - * I O.+.%.+.%.9 * - & * & T *.O.+.+.+.7 - & & % # J [ / o.  Z.Z.",
"Z.Z.  = 4 %.+.=.+.%.| - & & # = 3 ;.;.;.#.&.U & & * & & 3 &.$.o.o.+.I & & & % # 1 +.+.} }   Z.Z.",
"Z.Z.  % U &.+.:.&.o.4 & & % @ # L $.$.#.&.&.4 & # % & # I $.$.@.#.$.5 % # # @ + K O.+.o.@.  Z.Z.",
"Z.Z.  8 #.#. .4.$.P @ & & @ @ 1  .#.4.#.#.E $ # # @ + 1 $.,.$.4.@.I # % + @ @ : @.#.$.@.1.  Z.Z.",
"Z.Z.  q <.<.#.3.3.1 $ $ $ @ @ E >.,...,.,.3 @ @ $ @ @ E <.,.,.<.<.< @ @ @ @ + P #.<.2.>.Q   Z.Z.",
"Z.Z.  4 6.X.1.1.W + O $ + + : 1.1.<.2.2.E + @ @ @ @ 1 2.1.1.2.2.W + @ + + + : 1.>.1.2.! :   Z.Z.",
"Z.Z.  X 8 5.q.9.a = - = - = ^ e.e.q.e.e.s ; ; ; ; - 7.e.e.0.0.e.s = = = - & 7.9.8.9.~ 4 X   Z.Z.",
"Z.Z.  . X X X o o o o o o o o o o o o o + o o @ + + o + O O o o o o O o o O o o o X X X .   Z.Z.",
"Z.Z.Z.  . X X X X X X o X X X X X o X o X o X o X o X X o X X o X X X X X X X X X X X .   Z.Z.Z.",
"Z.Z.Z.Z.                                                                                Z.Z.Z.Z.",
"Z.Z.Z.Z.Z.Z.Z.Z.Z.Z.Z.Z.Z.Z.Z.Z.Z.Z.Z.Z.Z.Z.Z.Z.Z.Z.Z.Z.Z.Z.Z.Z.Z.Z.Z.Z.Z.Z.Z.Z.Z.Z.Z.Z.Z.Z.Z.Z.",
"Z.Z.Z.Z.Z.Z.Z.Z.Z.Z.Z.Z.Z.Z.Z.Z.Z.Z.Z.Z.Z.Z.Z.Z.Z.Z.Z.Z.Z.Z.Z.Z.Z.Z.Z.Z.Z.Z.Z.Z.Z.Z.Z.Z.Z.Z.Z.Z."
};
