<svg id="图层_1" data-name="图层 1" xmlns="http://www.w3.org/2000/svg" viewBox="0 0 16 16"><defs><style>.cls-1{opacity:0.88;}.cls-2{opacity:0.9;}</style></defs><title>b-图片</title><path class="cls-1" d="M13.81,1H2.19A2.09,2.09,0,0,0,0,3V13a2.09,2.09,0,0,0,2.19,2H13.81A2.09,2.09,0,0,0,16,13V3A2.09,2.09,0,0,0,13.81,1ZM2.19,2.08H13.81A1,1,0,0,1,14.93,3V9.61L13,8.15a.54.54,0,0,0-.65,0L9.39,10.54,4.48,5.17a.52.52,0,0,0-.75,0l-.06.06L1.07,8.49V3A1,1,0,0,1,2.19,2.08ZM13.81,13.92H2.19A1,1,0,0,1,1.07,13V10.2l0,0,3-3.81,4.82,5.28a.53.53,0,0,0,.73.06l3-2.44,2.28,1.68V13A1,1,0,0,1,13.81,13.92Z"/><path class="cls-2" d="M11,6.36A1.8,1.8,0,1,0,9.24,4.57,1.79,1.79,0,0,0,11,6.36Zm0-2.51a.72.72,0,0,1,0,1.44h0a.72.72,0,0,1,0-1.44Z"/></svg>