<svg id="图层_1" data-name="图层 1" xmlns="http://www.w3.org/2000/svg" viewBox="0 0 16 16"><defs><style>.cls-1{opacity:0.92;}</style></defs><title>b-音乐</title><path class="cls-1" d="M11.86,8.5a2.21,2.21,0,0,0-2.14,2.26A2.2,2.2,0,0,0,11.86,13,2.18,2.18,0,0,0,14,11.21a.65.65,0,0,0,0-.2V.48a.48.48,0,0,0-.17-.37.46.46,0,0,0-.39-.1L5.73,2.51A.47.47,0,0,0,5.36,3v8.9a2.1,2.1,0,0,0-1.22-.4,2.26,2.26,0,0,0,0,4.52,2.2,2.2,0,0,0,2.14-2.26c0-.06,0-.11,0-.16s0-.05,0-.08V6.26L13.08,4V8.91A2,2,0,0,0,11.86,8.5Zm0,3.56a1.3,1.3,0,1,1,1.22-1.3A1.26,1.26,0,0,1,11.86,12.06ZM4.14,15a1.3,1.3,0,0,1,0-2.59,1.3,1.3,0,0,1,0,2.59ZM6.28,5.27V3.37l6.8-2.29V3Z"/></svg>