<svg id="图层_1" data-name="图层 1" xmlns="http://www.w3.org/2000/svg" viewBox="0 0 16 16"><defs><style>.cls-1{opacity:0.88;}</style></defs><title>b-视频</title><g class="cls-1"><path d="M14.24,1H1.81A1.85,1.85,0,0,0,0,2.86V13.14A1.85,1.85,0,0,0,1.81,15H14.19A1.85,1.85,0,0,0,16,13.14V2.86A1.77,1.77,0,0,0,14.24,1ZM15,13.28a.69.69,0,0,1-.66.72H1.66A.69.69,0,0,1,1,13.28V2.72A.69.69,0,0,1,1.66,2H14.28a.7.7,0,0,1,.67.72V13.28Z"/><path d="M10.59,7.38,7,5.13c-.55-.32-1,0-1,.65v4.44c0,.7.45,1,1,.65l3.59-2.25C11.14,8.24,11.14,7.71,10.59,7.38Z"/></g></svg>