<svg xmlns="http://www.w3.org/2000/svg" viewBox="0 0 13.99 16"><defs><style>.cls-1{opacity:0.88;}</style></defs><title>b-回收站</title><g id="图层_2" data-name="图层 2"><g id="图层_1-2" data-name="图层 1"><g class="cls-1"><path d="M13.52,2,11,2V.47A.46.46,0,0,0,10.53,0h-7A.47.47,0,0,0,3,.47H3V2H.4a.49.49,0,0,0-.4.46C0,2.73.15,3,.4,3H1V15.54a.47.47,0,0,0,.46.46H12.53a.47.47,0,0,0,.47-.46V3h.53A.5.5,0,0,0,14,2.5.51.51,0,0,0,13.52,2ZM4,1h6V2H4Zm8,14H2V3H12Z"/><path d="M6.22,11.14H4L5.09,9.23A.43.43,0,0,0,5,8.64a.42.42,0,0,0-.58.14L3.11,10.91a.72.72,0,0,0,.21,1,.7.7,0,0,0,.37.11H6.22a.43.43,0,0,0,0-.86ZM8.46,8.07a.42.42,0,0,0,.42-.43.46.46,0,0,0-.06-.23L7.6,5.34a.69.69,0,0,0-1-.23.84.84,0,0,0-.23.23L5.19,7.41a.45.45,0,0,0,.14.6.42.42,0,0,0,.58-.15L7,6,8.1,7.86A.42.42,0,0,0,8.46,8.07Zm.59.57a.43.43,0,0,0-.14.59h0L10,11.14H7.79a.43.43,0,0,0,0,.86h2.52a.7.7,0,0,0,.69-.71.65.65,0,0,0-.1-.36L9.63,8.78a.4.4,0,0,0-.57-.14Z"/></g></g></g></svg>