<svg id="图层_1" data-name="图层 1" xmlns="http://www.w3.org/2000/svg" viewBox="0 0 16 16"><defs><style>.cls-1{opacity:0.9;}</style></defs><title>b-桌面</title><g class="cls-1"><g id="矩形_1092" data-name="矩形 1092"><path d="M14.5,15H1.5A1.53,1.53,0,0,1,0,13.44V2.56A1.53,1.53,0,0,1,1.5,1h13A1.53,1.53,0,0,1,16,2.56V13.44A1.53,1.53,0,0,1,14.5,15ZM1.5,2a.51.51,0,0,0-.5.52V13.44a.51.51,0,0,0,.5.52h13a.51.51,0,0,0,.5-.52V2.56A.51.51,0,0,0,14.5,2Z"/></g><g id="矩形_1093" data-name="矩形 1093"><path d="M.5,12.66h15v1a1,1,0,0,1-1,1H1.5a1,1,0,0,1-1-1v-1Z"/></g></g></svg>