<svg id="图层_1" data-name="图层 1" xmlns="http://www.w3.org/2000/svg" viewBox="0 0 16 16"><defs><style>.cls-1{opacity:0.85;}</style></defs><title>b-下载</title><path class="cls-1" d="M10.1,2.67h2.8a2.06,2.06,0,0,1,1.48.58A1.89,1.89,0,0,1,15,4.67V14a1.88,1.88,0,0,1-.62,1.41A2.07,2.07,0,0,1,12.9,16H3.1a2.07,2.07,0,0,1-1.48-.59A1.88,1.88,0,0,1,1,14V4.67a1.89,1.89,0,0,1,.62-1.42A2.06,2.06,0,0,1,3.1,2.67H5.9V4H3.1a.68.68,0,0,0-.49.2.61.61,0,0,0-.21.47V14a.62.62,0,0,0,.21.47.68.68,0,0,0,.49.2h9.8a.68.68,0,0,0,.49-.2A.62.62,0,0,0,13.6,14V4.67a.61.61,0,0,0-.21-.47A.68.68,0,0,0,12.9,4H10.1ZM8,0a.68.68,0,0,1,.49.2A.61.61,0,0,1,8.7.67V9.06l1.6-1.53a.7.7,0,0,1,.5-.2.72.72,0,0,1,.5.19.66.66,0,0,1,.2.48.62.62,0,0,1-.2.47L8.5,11.14a.75.75,0,0,1-1,0L4.7,8.47A.65.65,0,0,1,4.5,8a.62.62,0,0,1,.21-.47.68.68,0,0,1,.49-.2.7.7,0,0,1,.5.2L7.3,9.06V.67A.61.61,0,0,1,7.51.2.68.68,0,0,1,8,0Z"/></svg>