<svg id="图层_1" data-name="图层 1" xmlns="http://www.w3.org/2000/svg" viewBox="0 0 16 16"><defs><style>.cls-1{fill:#262626;}</style></defs><g id="a"><g id="_16-10" data-name=" 16-10"><rect class="cls-1" x="4" y="8" width="1" height="1"/><rect class="cls-1" x="7" y="8" width="1" height="1"/><rect class="cls-1" x="4" y="11" width="1" height="1"/><rect class="cls-1" x="7" y="11" width="1" height="1"/><rect class="cls-1" x="10" y="11" width="1" height="1"/><rect class="cls-1" x="10" y="8" width="1" height="1"/><rect class="cls-1" x="2" y="5" width="12" height="1"/><path class="cls-1" d="M4.5,4A.5.5,0,0,1,4,3.5v-2a.5.5,0,0,1,1,0v2A.5.5,0,0,1,4.5,4Z"/><path class="cls-1" d="M11.5,4a.5.5,0,0,1-.5-.5v-2a.5.5,0,0,1,1,0v2A.5.5,0,0,1,11.5,4Z"/><path class="cls-1" d="M12.5,16a.5.5,0,0,1-.5-.5v-4a.5.5,0,0,1,1,0v4A.5.5,0,0,1,12.5,16Z"/><path class="cls-1" d="M14.5,14h-4a.5.5,0,0,1,0-1h4a.5.5,0,0,1,0,1Z"/><path class="cls-1" d="M8.5,15h-5A2.5,2.5,0,0,1,1,12.5v-8A2.5,2.5,0,0,1,3.5,2h9A2.5,2.5,0,0,1,15,4.5v6a.5.5,0,0,1-1,0v-6A1.5,1.5,0,0,0,12.5,3h-9A1.5,1.5,0,0,0,2,4.5v8A1.5,1.5,0,0,0,3.5,14h5a.5.5,0,0,1,0,1Z"/></g></g></svg>