<svg id="图层_1" data-name="图层 1" xmlns="http://www.w3.org/2000/svg" viewBox="0 0 16 16"><defs><style>.cls-1{fill:#262626;}</style></defs><g id="b"><g id="_16-10" data-name=" 16-10"><polygon class="cls-1" points="10 2 10 7 11.5 8 13 7 13 2 10 2"/><path class="cls-1" d="M8.5,14h-5A2.5,2.5,0,0,1,1,11.5v-8A2.5,2.5,0,0,1,3.5,1h9A2.5,2.5,0,0,1,15,3.5v5a.5.5,0,0,1-1,0v-5A1.5,1.5,0,0,0,12.5,2h-9A1.5,1.5,0,0,0,2,3.5v8A1.5,1.5,0,0,0,3.5,13h5a.5.5,0,0,1,0,1Z"/><path class="cls-1" d="M14.5,13h-4a.5.5,0,0,1,0-1h4a.5.5,0,0,1,0,1Z"/><path class="cls-1" d="M12.5,15a.5.5,0,0,1-.5-.5v-4a.5.5,0,0,1,1,0v4A.5.5,0,0,1,12.5,15Z"/><path class="cls-1" d="M6.5,6h-3a.5.5,0,0,1,0-1h3a.5.5,0,0,1,0,1Z"/><path class="cls-1" d="M6.5,8h-3a.5.5,0,0,1,0-1h3a.5.5,0,0,1,0,1Z"/><path class="cls-1" d="M6.5,10h-3a.5.5,0,0,1,0-1h3a.5.5,0,0,1,0,1Z"/><path class="cls-1" d="M6.5,12h-3a.5.5,0,0,1,0-1h3a.5.5,0,0,1,0,1Z"/><path class="cls-1" d="M6.5,4h-3a.5.5,0,0,1,0-1h3a.5.5,0,0,1,0,1Z"/></g></g></svg>