<svg id="图层_1" data-name="图层 1" xmlns="http://www.w3.org/2000/svg" viewBox="0 0 16 16"><defs><style>.cls-1{fill:#262626;}</style></defs><g id="c"><path id="_16-10" data-name=" 16-10" class="cls-1" d="M13.17,2.23l-.44.42a.75.75,0,0,0-.6-.08,1.09,1.09,0,0,0-.85.42L9.87,4.35,9.1,3.58a.53.53,0,0,0-.31-.17.41.41,0,0,0-.43.39h0a.4.4,0,0,0,.17.35l.78.76L4,10.12a1,1,0,0,0-.34,1.1v.51l.6.6h.43A1.32,1.32,0,0,0,5.81,12l5.28-5.18.78.76a.41.41,0,0,0,.59,0h0a.44.44,0,0,0,0-.6h0l-.78-.77,1.38-1.35a1.15,1.15,0,0,0,.27-1.45L13.78,3C14.36,2.42,13.67,1.75,13.17,2.23ZM9.87,5.37l.62.59L7.54,8.85H6.24Z"/><path class="cls-1" d="M2.5,14a.47.47,0,0,1-.35-.15.48.48,0,0,1,0-.7l1.5-1.5a.49.49,0,1,1,.7.7l-1.5,1.5A.47.47,0,0,1,2.5,14Z"/></g></svg>