<svg id="图层_1" data-name="图层 1" xmlns="http://www.w3.org/2000/svg" viewBox="0 0 16 16"><defs><style>.cls-1{fill:#262626;}</style></defs><g id="c"><g id="_16-10" data-name=" 16-10"><path class="cls-1" d="M6.5,8A3.5,3.5,0,1,1,10,4.5,3.5,3.5,0,0,1,6.5,8Zm0-6A2.5,2.5,0,1,0,9,4.5,2.5,2.5,0,0,0,6.5,2Z"/><path class="cls-1" d="M9.83,15H3a2,2,0,0,1-2-2V11.89a3,3,0,0,1,.91-2.07A3,3,0,0,1,4,9H9.83a.5.5,0,0,1,0,1H4a2,2,0,0,0-1.4.54A1.93,1.93,0,0,0,2,11.91V13a1,1,0,0,0,1,1H9.83a.5.5,0,0,1,0,1Z"/><path class="cls-1" d="M12.5,15a.5.5,0,0,1-.5-.5v-4a.5.5,0,0,1,1,0v4A.5.5,0,0,1,12.5,15Z"/><path class="cls-1" d="M14.5,13h-4a.5.5,0,0,1,0-1h4a.5.5,0,0,1,0,1Z"/></g></g></svg>