<svg id="图层_1" data-name="图层 1" xmlns="http://www.w3.org/2000/svg" viewBox="0 0 16 16"><defs><style>.cls-1{fill:#262626;}</style></defs><g id="d"><g id="_16-10" data-name=" 16-10"><path class="cls-1" d="M13.5,14h-5a.5.5,0,0,1,0-1h5a.5.5,0,0,1,0,1Z"/><path class="cls-1" d="M13.5,12h-3a.5.5,0,0,1,0-1h3a.5.5,0,0,1,0,1Z"/><path class="cls-1" d="M13.5,10h-2a.5.5,0,0,1,0-1h2a.5.5,0,0,1,0,1Z"/><polygon class="cls-1" points="4.13 10.13 5.86 11.89 2.74 13.41 4.13 10.13"/><path class="cls-1" d="M12,2.94h0m-.14.14,1,1L5.34,11.54a5.86,5.86,0,0,1-.78.42l-.94.41c.13-.31.27-.62.42-.92H4v-.06a2.69,2.69,0,0,1,.34-.65l7.45-7.61m0-1.08a.83.83,0,0,0-.58.24L3.67,10a3.81,3.81,0,0,0-.52,1,14.58,14.58,0,0,0-.89,2.21L2,14l.79-.26A15.7,15.7,0,0,0,5,12.85a6.33,6.33,0,0,0,1-.52L13.76,4.7a.81.81,0,0,0,0-1.14L12.44,2.23A.79.79,0,0,0,11.88,2Z"/></g></g></svg>