<svg id="图层_1" data-name="图层 1" xmlns="http://www.w3.org/2000/svg" viewBox="0 0 16 16"><defs><style>.cls-1{fill:#262626;}</style></defs><g id="d"><path class="cls-1" d="M11,2V4H5V2h6m0-1H5A.94.94,0,0,0,4,2V4A.94.94,0,0,0,5,5h6a.94.94,0,0,0,1-1V2A.94.94,0,0,0,11,1Z"/><path class="cls-1" d="M13,4H3A2,2,0,0,0,1,6v4a2,2,0,0,0,2,2H4V11H3a.94.94,0,0,1-1-1V6A.94.94,0,0,1,3,5H13a.94.94,0,0,1,1,1v4a.94.94,0,0,1-1,1H12v1h1a2,2,0,0,0,2-2V6A2,2,0,0,0,13,4Z"/><path class="cls-1" d="M11,11v3H5V11h6m0-1H5a1,1,0,0,0-1,1v3a1,1,0,0,0,1,1h6a1,1,0,0,0,1-1V11a1,1,0,0,0-1-1Z"/><path class="cls-1" d="M11,6a.94.94,0,0,0-1,1,.94.94,0,0,0,1,1,.94.94,0,0,0,1-1A.94.94,0,0,0,11,6Z"/></g></svg>