<svg id="图层_1" data-name="图层 1" xmlns="http://www.w3.org/2000/svg" viewBox="0 0 16 16"><defs><style>.cls-1{fill:#262626;}</style></defs><g id="UKUI"><g id="图层_96" data-name="图层 96"><g id="_16" data-name=" 16"><path class="cls-1" d="M10.1,13.9c.2-.1.4-.1.6-.2a3,3,0,0,1,.2-1.6,2.54,2.54,0,0,1,1.4-1.3h0a2.2,2.2,0,0,1,.8-.1h.5a1.42,1.42,0,0,0,.2-.6A2.48,2.48,0,0,1,12.7,8a2.61,2.61,0,0,1,1.1-2.1c-.1-.2-.1-.4-.2-.6h-.5a2.5,2.5,0,0,1-1.8-.8,2.42,2.42,0,0,1-.7-2.3A1.42,1.42,0,0,0,10,2,2.31,2.31,0,0,1,8,3.1H7.9A2.31,2.31,0,0,1,5.9,2l-.6.3a2.49,2.49,0,0,1-.7,2.3,2.5,2.5,0,0,1-1.8.8H2.3a1.69,1.69,0,0,1-.2.5,2.55,2.55,0,0,1,0,4.2,1.42,1.42,0,0,1,.2.6h.5a2.5,2.5,0,0,1,1.8.8,2.42,2.42,0,0,1,.7,2.3,1.42,1.42,0,0,0,.6.2,2.31,2.31,0,0,1,2-1.1H8a2.81,2.81,0,0,1,2.1,1M6.2,15H6a10.41,10.41,0,0,1-1.6-.6.48.48,0,0,1-.2-.6,1.38,1.38,0,0,0-.4-1.6,1.61,1.61,0,0,0-1.1-.5.75.75,0,0,0-.5.1H2a.52.52,0,0,1-.4-.2C1.4,11,1.2,10.5,1,10c-.1-.2.1-.5.3-.6A1.42,1.42,0,0,0,2.2,8a1.42,1.42,0,0,0-.9-1.4A.49.49,0,0,1,1,6H1c.2-.6.4-1.1.6-1.6A.52.52,0,0,1,2,4.2h.2a1.09,1.09,0,0,0,.5.1,1.5,1.5,0,0,0,1.1-.4,1.56,1.56,0,0,0,.4-1.6.48.48,0,0,1,.2-.6A11.11,11.11,0,0,1,6,1h.1c.2,0,.4.1.4.3a1.42,1.42,0,0,0,1.3.9H8a1.29,1.29,0,0,0,1.3-.9c.2-.2.3-.3.5-.3H10c.5.2,1.1.4,1.6.6a.48.48,0,0,1,.2.6,1.53,1.53,0,0,0,.3,1.6,1.61,1.61,0,0,0,1.1.5.75.75,0,0,0,.5-.1h.2a.52.52,0,0,1,.4.2c.3.6.5,1.1.7,1.6.1.2-.1.5-.3.6A1.42,1.42,0,0,0,13.8,8a1.42,1.42,0,0,0,.9,1.4.45.45,0,0,1,.3.6c-.2.5-.4,1.1-.6,1.6a.52.52,0,0,1-.4.2h-.2a.9.9,0,0,0-.5-.1.9.9,0,0,0-.5.1,1.61,1.61,0,0,0-1,2h0a.48.48,0,0,1-.2.6,9.38,9.38,0,0,1-1.5.6H10c-.2,0-.4-.1-.4-.3a1.54,1.54,0,0,0-1.3-.9H7.9a1.29,1.29,0,0,0-1.3.9C6.5,14.9,6.4,15,6.2,15Z"/><circle id="椭圆_36" data-name="椭圆 36" class="cls-1" cx="8" cy="8" r="1"/><path class="cls-1" d="M8,11a3,3,0,1,1,3-3A3,3,0,0,1,8,11ZM8,6a2,2,0,1,0,2,2A2,2,0,0,0,8,6Z"/></g></g></g></svg>