<svg id="图层_1" data-name="图层 1" xmlns="http://www.w3.org/2000/svg" viewBox="0 0 16 16"><defs><style>.cls-1{fill:#262626;}</style></defs><g id="d"><g id="_16-10" data-name=" 16-10"><path class="cls-1" d="M9.5,15h-5A2.5,2.5,0,0,1,2,12.5v-8A2.5,2.5,0,0,1,4.5,2H8.67a2.46,2.46,0,0,1,1.77.74l1.82,1.82A2.5,2.5,0,0,1,13,6.33V8.5a.5.5,0,0,1-1,0V6.33a1.52,1.52,0,0,0-.44-1.07L9.74,3.44A1.69,1.69,0,0,0,8.67,3H4.5A1.5,1.5,0,0,0,3,4.5v8A1.5,1.5,0,0,0,4.5,14h5a.5.5,0,0,1,0,1Z"/><path class="cls-1" d="M14.5,13h-4a.5.5,0,0,1,0-1h4a.5.5,0,0,1,0,1Z"/><path class="cls-1" d="M12.5,15a.5.5,0,0,1-.5-.5v-4a.5.5,0,0,1,1,0v4A.5.5,0,0,1,12.5,15Z"/><rect class="cls-1" x="9" y="3" width="1" height="3"/><rect class="cls-1" x="9" y="5" width="3" height="1"/><path class="cls-1" d="M7.5,10h-3a.5.5,0,0,1,0-1h3a.5.5,0,0,1,0,1Z"/><path class="cls-1" d="M7.5,7h-3a.5.5,0,0,1,0-1h3a.5.5,0,0,1,0,1Z"/></g></g></svg>