<svg id="图层_1" data-name="图层 1" xmlns="http://www.w3.org/2000/svg" viewBox="0 0 16 16"><defs><style>.cls-1{fill:#262626;}</style></defs><g id="d"><path class="cls-1" d="M10,15.58,7.6,8.4.42,6,14.79,1.21ZM3.58,6,8.4,7.6,10,12.42l3.21-9.63Z"/><path class="cls-1" d="M6.5,14A.49.49,0,0,1,6,13.66L5.1,10.9,2.34,10A.5.5,0,0,1,2.66,9L5.9,10.1,7,13.34a.49.49,0,0,1-.31.63A.45.45,0,0,1,6.5,14Z"/><path class="cls-1" d="M8,8.5a.47.47,0,0,1-.35-.15.48.48,0,0,1,0-.7l1.5-1.5a.49.49,0,0,1,.7.7l-1.5,1.5A.47.47,0,0,1,8,8.5Z"/></g></svg>