<svg id="图层_1" data-name="图层 1" xmlns="http://www.w3.org/2000/svg" viewBox="0 0 16 16"><defs><style>.cls-1{fill:#262626;}</style></defs><g id="d"><g id="_16-10" data-name=" 16-10"><path class="cls-1" d="M7.5,14h-4A2.5,2.5,0,0,1,1,11.5v-8A2.5,2.5,0,0,1,3.5,1h7.43a2.39,2.39,0,0,1,1.7.63l1.58,1.54A2.53,2.53,0,0,1,15,5V6.5a.5.5,0,0,1-1,0V5a1.48,1.48,0,0,0-.48-1.1L11.94,2.36a1.45,1.45,0,0,0-1-.36H3.5A1.5,1.5,0,0,0,2,3.5v8A1.5,1.5,0,0,0,3.5,13h4a.5.5,0,0,1,0,1Z"/><path class="cls-1" d="M5.25,14A2.25,2.25,0,0,1,3,11.75V8.25A2.25,2.25,0,0,1,5.25,6h5.5A2.25,2.25,0,0,1,13,8.25a.5.5,0,0,1-1,0A1.25,1.25,0,0,0,10.75,7H5.25A1.25,1.25,0,0,0,4,8.25v3.5A1.25,1.25,0,0,0,5.25,13a.5.5,0,0,1,0,1Z"/><path class="cls-1" d="M11.5,4h-7a.5.5,0,0,1,0-1h7a.5.5,0,0,1,0,1Z"/><path class="cls-1" d="M14.29,9l.71.71-4,4-.82.12L10.3,13l4-4h0m0-1a1,1,0,0,0-.7.29L9.34,12.54,9,15l2.47-.35,4.25-4.25a1,1,0,0,0,0-1.41L15,8.29A1,1,0,0,0,14.29,8Z"/></g></g></svg>