<svg id="图层_1" data-name="图层 1" xmlns="http://www.w3.org/2000/svg" viewBox="0 0 16 16"><defs><style>.cls-1{fill:#262626;}</style></defs><g id="d"><g id="_16-10" data-name=" 16-10"><path class="cls-1" d="M11.2,2a.91.91,0,0,1,.7.3L13.7,4a.78.78,0,0,1,.3.7V12a.94.94,0,0,1-1,1H3a.94.94,0,0,1-1-1V3A.94.94,0,0,1,3,2h8.2m0-1H3A2,2,0,0,0,1,3v9a2,2,0,0,0,2,2H13a2,2,0,0,0,2-2V4.7a2,2,0,0,0-.6-1.5L12.6,1.5A2.39,2.39,0,0,0,11.2,1Z"/><path class="cls-1" d="M11,7a.94.94,0,0,1,1,1v5H4V8A.94.94,0,0,1,5,7h6m0-1H5A2,2,0,0,0,3,8v6H13V8A2,2,0,0,0,11,6Z"/><path class="cls-1" d="M11.5,4h-7a.5.5,0,0,1,0-1h7a.5.5,0,0,1,0,1Z"/></g></g></svg>