<svg id="图层_1" data-name="图层 1" xmlns="http://www.w3.org/2000/svg" viewBox="0 0 16 16"><defs><style>.cls-1{fill:#262626;}</style></defs><g id="e"><g id="_16-10" data-name=" 16-10"><path class="cls-1" d="M7,14H2.5A1.45,1.45,0,0,1,1,12.5v-9A1.44,1.44,0,0,1,2.5,2H4A.5.5,0,0,1,4,3H2.5a.45.45,0,0,0-.5.5v9a.45.45,0,0,0,.5.5H7a.5.5,0,0,1,0,1Z"/><path class="cls-1" d="M11.5,7.5A.5.5,0,0,1,11,7V3.5a.45.45,0,0,0-.5-.5H9A.5.5,0,0,1,9,2h1.5A1.45,1.45,0,0,1,12,3.5V7A.5.5,0,0,1,11.5,7.5Z"/><path class="cls-1" d="M12.5,15h-4A1.45,1.45,0,0,1,7,13.5v-5A1.44,1.44,0,0,1,8.5,7h4A1.45,1.45,0,0,1,14,8.5v5A1.45,1.45,0,0,1,12.5,15Zm-4-7a.45.45,0,0,0-.5.5v5a.45.45,0,0,0,.5.5h4a.45.45,0,0,0,.5-.5v-5a.45.45,0,0,0-.5-.5Z"/><path class="cls-1" d="M8,2V3H5V2H8M8,1H5A.94.94,0,0,0,4,2V3A.94.94,0,0,0,5,4H8A.94.94,0,0,0,9,3V2A.94.94,0,0,0,8,1Z"/></g></g></svg>