<svg id="图层_1" data-name="图层 1" xmlns="http://www.w3.org/2000/svg" viewBox="0 0 16 16"><defs><style>.cls-1{fill:#262626;}</style></defs><path class="cls-1" d="M8,10.5A1.5,1.5,0,1,1,9.5,9,1.5,1.5,0,0,1,8,10.5Zm0-2a.5.5,0,1,0,.5.5A.5.5,0,0,0,8,8.5Z"/><path class="cls-1" d="M4.25,10.5A1.25,1.25,0,1,1,3,11.75,1.25,1.25,0,0,1,4.25,10.5m0-1A2.25,2.25,0,1,0,6.5,11.75,2.25,2.25,0,0,0,4.25,9.5Z"/><path class="cls-1" d="M11.75,10.5a1.25,1.25,0,1,1-1.25,1.25,1.25,1.25,0,0,1,1.25-1.25m0-1A2.25,2.25,0,1,0,14,11.75,2.25,2.25,0,0,0,11.75,9.5Z"/><path class="cls-1" d="M3,2,8,8c-1.36.36-2.91,0-4-2A12.39,12.39,0,0,1,3,2Z"/><path class="cls-1" d="M13,2,8,8c1.36.36,2.91,0,4-2A12.39,12.39,0,0,0,13,2Z"/><rect class="cls-1" x="5.25" y="9.75" width="2.5" height="1" transform="translate(-4.85 5.94) rotate(-36.83)"/><rect class="cls-1" x="9" y="9" width="1" height="2.5" transform="translate(-4.4 11.7) rotate(-53.13)"/></svg>