<svg id="图层_1" data-name="图层 1" xmlns="http://www.w3.org/2000/svg" viewBox="0 0 16 16"><defs><style>.cls-1{fill:#262626;}</style></defs><g id="e"><path class="cls-1" d="M4,4h8a.94.94,0,0,1,1,1V7a.94.94,0,0,1-1,1H4A.94.94,0,0,1,3,7V5A.94.94,0,0,1,4,4Z"/><path class="cls-1" d="M4,9H6a.94.94,0,0,1,1,1v2a.94.94,0,0,1-1,1H4a.94.94,0,0,1-1-1V10A.94.94,0,0,1,4,9Z"/><path class="cls-1" d="M10,9h2a.94.94,0,0,1,1,1v2a.94.94,0,0,1-1,1H10a.94.94,0,0,1-1-1V10A.94.94,0,0,1,10,9Z"/></g><path class="cls-1" d="M12.52,15h-1a.5.5,0,0,1,0-1h1a.5.5,0,0,1,.51.5A.49.49,0,0,1,12.52,15Zm-3,0h-1a.5.5,0,0,1,0-1h1a.5.5,0,0,1,0,1Zm-3,0h-1a.5.5,0,0,1,0-1h1a.5.5,0,0,1,0,1Zm-3,0h0a2.42,2.42,0,0,1-1.19-.38A.49.49,0,0,1,2,13.93a.51.51,0,0,1,.69-.16,1.39,1.39,0,0,0,.71.23.5.5,0,0,1,.48.52A.51.51,0,0,1,3.4,15Zm10.81-1A.48.48,0,0,1,14,14a.5.5,0,0,1-.17-.69,1.48,1.48,0,0,0,.22-.71.5.5,0,0,1,1,0,2.52,2.52,0,0,1-.37,1.19A.47.47,0,0,1,14.21,14ZM1.5,13a.51.51,0,0,1-.5-.47v-1a.5.5,0,0,1,1,0v1A.5.5,0,0,1,1.5,13Zm13-1.95a.5.5,0,0,1-.5-.5v-1a.5.5,0,0,1,1,0v1A.5.5,0,0,1,14.5,11.06ZM1.5,10a.5.5,0,0,1-.5-.5v-1a.5.5,0,1,1,1,0v1A.5.5,0,0,1,1.5,10ZM14.5,8a.5.5,0,0,1-.5-.5v-1a.5.5,0,0,1,1,0v1A.5.5,0,0,1,14.5,8ZM1.5,6.94a.5.5,0,0,1-.5-.5v-1a.5.5,0,0,1,1,0v1A.5.5,0,0,1,1.5,6.94ZM14.5,5a.5.5,0,0,1-.5-.5v-1A.5.5,0,0,1,14.5,3a.49.49,0,0,1,.5.49v1A.5.5,0,0,1,14.5,5ZM1.5,3.9h0A.5.5,0,0,1,1,3.38a2.56,2.56,0,0,1,.37-1.2A.51.51,0,0,1,2.06,2a.49.49,0,0,1,.16.69A1.52,1.52,0,0,0,2,3.43.5.5,0,0,1,1.5,3.9ZM13.55,2.3a.5.5,0,0,1-.26-.08A1.55,1.55,0,0,0,12.57,2a.5.5,0,0,1-.48-.52A.47.47,0,0,1,12.61,1a2.52,2.52,0,0,1,1.2.37.5.5,0,0,1-.26.93Zm-3-.3h-1a.5.5,0,0,1,0-1h1a.5.5,0,0,1,0,1Zm-3,0h-1a.5.5,0,0,1,0-1h1a.5.5,0,0,1,0,1Zm-3,0h-1A.5.5,0,0,1,3,1.5a.5.5,0,0,1,.5-.5h1a.5.5,0,0,1,0,1Z"/></svg>