<svg id="图层_1" data-name="图层 1" xmlns="http://www.w3.org/2000/svg" viewBox="0 0 16 16"><defs><style>.cls-1{fill:#262626;}</style></defs><g id="e"><g id="_16-10" data-name=" 16-10"><path class="cls-1" d="M5.2,14H4.3A2.32,2.32,0,0,1,2,11.6V3.3A2.3,2.3,0,0,1,4.3,1H9.7A2.3,2.3,0,0,1,12,3.3H11A1.28,1.28,0,0,0,9.7,2H4.3A1.28,1.28,0,0,0,3,3.3v8.3A1.32,1.32,0,0,0,4.3,13h.9Z"/><rect class="cls-1" x="7" y="5" width="5" height="1"/><rect class="cls-1" x="7" y="7" width="5" height="1"/><rect class="cls-1" x="7" y="9" width="3" height="1"/><path class="cls-1" d="M13,4a.94.94,0,0,1,1,1v5.7a.91.91,0,0,1-.3.7l-2.3,2.3a.91.91,0,0,1-.7.3H7a.94.94,0,0,1-1-1V5A.94.94,0,0,1,7,4h6m0-1H7A2,2,0,0,0,5,5v8a2,2,0,0,0,2,2h3.7a2,2,0,0,0,1.4-.6l2.3-2.3a2,2,0,0,0,.6-1.4V5A2,2,0,0,0,13,3Z"/><polygon class="cls-1" points="12 14.5 11 14.5 11 11 14.5 11 14.5 12 12 12 12 14.5"/></g></g></svg>