<svg id="图层_1" data-name="图层 1" xmlns="http://www.w3.org/2000/svg" viewBox="0 0 16 16"><defs><style>.cls-1{fill:#262626;}</style></defs><g id="e"><g id="_16-10" data-name=" 16-10"><path class="cls-1" d="M14.5,9h-4a.5.5,0,0,1,0-1h4a.5.5,0,0,1,0,1Z"/><path class="cls-1" d="M14.5,15a.47.47,0,0,1-.35-.15l-2.5-2.5a.49.49,0,0,1,.7-.7l2.5,2.5a.48.48,0,0,1,0,.7A.47.47,0,0,1,14.5,15Z"/><path class="cls-1" d="M14.5,7h-4a.5.5,0,0,1,0-1h4a.5.5,0,0,1,0,1Z"/><path class="cls-1" d="M7.51,14a6.64,6.64,0,0,1-3.8-1.21A6.52,6.52,0,0,1,11.29,2.19a9.67,9.67,0,0,1,1.5,1.5.5.5,0,1,1-.78.62A9.15,9.15,0,0,0,10.69,3,5.52,5.52,0,1,0,12,10.71a.5.5,0,0,1,.82.58A6.46,6.46,0,0,1,7.51,14Z"/></g></g></svg>