<svg id="图层_1" data-name="图层 1" xmlns="http://www.w3.org/2000/svg" viewBox="0 0 16 16"><defs><style>.cls-1{fill:#262626;}</style></defs><g id="e"><g id="_16-10" data-name=" 16-10"><path class="cls-1" d="M8,2A6,6,0,1,1,2,8,6,6,0,0,1,8,2M8,1A7,7,0,0,0,1,8a7,7,0,0,0,7,7,7,7,0,0,0,7-7A7,7,0,0,0,8,1Z"/><path class="cls-1" d="M10.5,11a.47.47,0,0,1-.35-.15l-5-5a.49.49,0,0,1,.7-.7l5,5a.48.48,0,0,1,0,.7A.47.47,0,0,1,10.5,11Z"/><path class="cls-1" d="M5.5,11a.47.47,0,0,1-.35-.15.48.48,0,0,1,0-.7l5-5a.49.49,0,0,1,.7.7l-5,5A.47.47,0,0,1,5.5,11Z"/></g></g></svg>