<svg id="图层_1" data-name="图层 1" xmlns="http://www.w3.org/2000/svg" viewBox="0 0 16 16"><defs><style>.cls-1{fill:#262626;}</style></defs><g id="e"><g id="_16-10" data-name=" 16-10"><path class="cls-1" d="M3,6.7H2.89a.5.5,0,0,1-.38-.6A5.18,5.18,0,0,1,8,2h0a6.91,6.91,0,0,1,3.19.86.5.5,0,0,1-.48.88A5.88,5.88,0,0,0,8,3,4.18,4.18,0,0,0,3.49,6.31.5.5,0,0,1,3,6.7Z"/><path class="cls-1" d="M12.7,3h0m-.1.1L14,4.4,6.9,11.5a2.09,2.09,0,0,1-.6.4l-1.8.7.9-2v-.1c.1-.1.1-.2.2-.3l7-7.1M12.7,2a.71.71,0,0,0-.6.3L4.8,9.4a3,3,0,0,0-.5.7L3,13.4a.49.49,0,0,0,.3.6h.1c.1,0,3.2-1.2,3.2-1.2l.9-.6L14.7,5a.75.75,0,0,0,0-1.2h0L13.3,2.3a.86.86,0,0,0-.6-.3Z"/></g><path class="cls-1" d="M1.47,6H4.53a.5.5,0,0,1,.41.79L3.41,8.93a.51.51,0,0,1-.82,0L1.06,6.79A.5.5,0,0,1,1.47,6Z"/></g></svg>