<svg id="图层_1" data-name="图层 1" xmlns="http://www.w3.org/2000/svg" viewBox="0 0 16 16"><defs><style>.cls-1{fill:#262626;}</style></defs><g id="f"><circle class="cls-1" cx="7.5" cy="8.5" r="1.5"/><path class="cls-1" d="M7.5,3A5.55,5.55,0,0,1,13,8.5,5.55,5.55,0,0,1,7.5,14,5.55,5.55,0,0,1,2,8.5,5.55,5.55,0,0,1,7.5,3m0-1A6.5,6.5,0,1,0,14,8.5,6.49,6.49,0,0,0,7.5,2Z"/><path class="cls-1" d="M7.5,16a.5.5,0,0,1-.5-.5v-2a.5.5,0,0,1,1,0v2A.5.5,0,0,1,7.5,16Z"/><path class="cls-1" d="M7.5,4A.5.5,0,0,1,7,3.5v-2a.5.5,0,0,1,1,0v2A.5.5,0,0,1,7.5,4Z"/><path class="cls-1" d="M2.5,9H.5a.5.5,0,0,1,0-1h2a.5.5,0,0,1,0,1Z"/><path class="cls-1" d="M14.5,9h-2a.5.5,0,0,1,0-1h2a.5.5,0,0,1,0,1Z"/></g></svg>