<svg id="图层_1" data-name="图层 1" xmlns="http://www.w3.org/2000/svg" viewBox="0 0 16 16"><defs><style>.cls-1{fill:#262626;}</style></defs><g id="f"><g id="_16-10" data-name=" 16-10"><path class="cls-1" d="M9.5,14H3.1A2.15,2.15,0,0,1,1,11.8V4.1A2.34,2.34,0,0,1,3,2H6.1C7.51,2,8,3,8.45,3.88A.43.43,0,0,0,8.51,4h4A2.55,2.55,0,0,1,15,6.35V8.5a.5.5,0,0,1-1,0V6.4A1.55,1.55,0,0,0,12.5,5H8.91c-.5,0-1.08,0-1.37-.71S6.85,3,6.1,3h-3A1.3,1.3,0,0,0,2,4.16V11.8A1.17,1.17,0,0,0,3.1,13H9.5a.5.5,0,0,1,0,1Z"/><path class="cls-1" d="M14.5,12h-4a.5.5,0,0,1,0-1h4a.5.5,0,0,1,0,1Z"/><path class="cls-1" d="M12.5,14a.5.5,0,0,1-.5-.5v-4a.5.5,0,0,1,1,0v4A.5.5,0,0,1,12.5,14Z"/></g></g></svg>