<svg id="图层_1" data-name="图层 1" xmlns="http://www.w3.org/2000/svg" viewBox="0 0 16 16"><defs><style>.cls-1{fill:#262626;}</style></defs><g id="f"><g id="_16-10" data-name=" 16-10"><path class="cls-1" d="M12.5,13h-2a.5.5,0,0,1,0-1h2a.5.5,0,0,1,0,1Z"/><path class="cls-1" d="M5.5,13h-2a.5.5,0,0,1,0-1h2a.5.5,0,0,1,0,1Z"/><path class="cls-1" d="M11.5,13a.51.51,0,0,1-.47-.32L8,4.88l-3,7.8A.5.5,0,0,1,4,12.32L8,2.12l4,10.2a.5.5,0,0,1-.29.65Z"/><path class="cls-1" d="M10,10H6A.5.5,0,0,1,6,9h4a.5.5,0,0,1,0,1Z"/><path class="cls-1" d="M1.5,10.5a.47.47,0,0,1-.35-.15.48.48,0,0,1,0-.7L2.79,8,1.15,6.35a.48.48,0,0,1,0-.7.48.48,0,0,1,.7,0l2,2a.48.48,0,0,1,0,.7l-2,2A.47.47,0,0,1,1.5,10.5Z"/><path class="cls-1" d="M14.5,10.5a.47.47,0,0,1-.35-.15l-2-2a.48.48,0,0,1,0-.7l2-2a.49.49,0,0,1,.7.7L13.21,8l1.64,1.65a.48.48,0,0,1,0,.7A.47.47,0,0,1,14.5,10.5Z"/></g></g></svg>