<svg id="图层_1" data-name="图层 1" xmlns="http://www.w3.org/2000/svg" viewBox="0 0 16 16"><defs><style>.cls-1{fill:#262626;}</style></defs><g id="f"><g id="左"><path class="cls-1" d="M13.5,11.5a.52.52,0,0,1-.33-.12l-3-2.6A.52.52,0,0,1,10,8.39.47.47,0,0,1,10.19,8l3-2.4a.5.5,0,1,1,.62.78l-2.53,2,2.55,2.2a.51.51,0,0,1,.05.71A.52.52,0,0,1,13.5,11.5Z"/><path class="cls-1" d="M13.5,3H2.5a.5.5,0,0,1,0-1h11a.5.5,0,0,1,0,1Z"/><path class="cls-1" d="M14,15H2a.5.5,0,0,1,0-1H14a.5.5,0,0,1,0,1Z"/><path class="cls-1" d="M7.5,7h-5a.5.5,0,0,1,0-1h5a.5.5,0,0,1,0,1Z"/><path class="cls-1" d="M7.5,11h-5a.5.5,0,0,1,0-1h5a.5.5,0,0,1,0,1Z"/></g></g></svg>