<svg id="图层_1" data-name="图层 1" xmlns="http://www.w3.org/2000/svg" viewBox="0 0 16 16"><defs><style>.cls-1{fill:#262626;}</style></defs><g id="f"><g id="右"><path class="cls-1" d="M2.5,11.5a.52.52,0,0,1-.38-.17.51.51,0,0,1,0-.71l2.55-2.2-2.53-2a.5.5,0,1,1,.62-.78l3,2.4A.47.47,0,0,1,6,8.39a.52.52,0,0,1-.17.39l-3,2.6A.52.52,0,0,1,2.5,11.5Z"/><path class="cls-1" d="M13.5,3H2.5a.5.5,0,0,1,0-1h11a.5.5,0,0,1,0,1Z"/><path class="cls-1" d="M14,15H2a.5.5,0,0,1,0-1H14a.5.5,0,0,1,0,1Z"/><path class="cls-1" d="M13.5,7h-5a.5.5,0,0,1,0-1h5a.5.5,0,0,1,0,1Z"/><path class="cls-1" d="M13.5,11h-5a.5.5,0,0,1,0-1h5a.5.5,0,0,1,0,1Z"/></g></g></svg>