<svg id="图层_1" data-name="图层 1" xmlns="http://www.w3.org/2000/svg" viewBox="0 0 16 16"><defs><style>.cls-1{fill:#262626;}</style></defs><g id="f"><g id="填充"><path class="cls-1" d="M10.5,13h-8a.5.5,0,0,1,0-1h8a.5.5,0,0,1,0,1Z"/><path class="cls-1" d="M13.5,6H2.5a.5.5,0,0,1,0-1h11a.5.5,0,0,1,0,1Z"/><path class="cls-1" d="M13.5,9h-7a.5.5,0,0,1,0-1h7a.5.5,0,0,1,0,1Z"/><path class="cls-1" d="M13.5,3H2.5a.5.5,0,0,1,0-1h11a.5.5,0,0,1,0,1Z"/><path class="cls-1" d="M5,15a.51.51,0,0,1-.31-.11l-2.5-2a.5.5,0,0,1,0-.78l2.5-2a.5.5,0,1,1,.62.78l-2,1.61,2,1.61a.5.5,0,0,1,.08.7A.48.48,0,0,1,5,15Z"/></g></g></svg>