<?xml version="1.0" encoding="utf-8"?>
<!-- Generator: Adobe Illustrator 23.0.1, SVG Export Plug-In . SVG Version: 6.00 Build 0)  -->
<svg version="1.1" id="图层_1" xmlns="http://www.w3.org/2000/svg" xmlns:xlink="http://www.w3.org/1999/xlink" x="0px" y="0px"
	 viewBox="0 0 16 16" style="enable-background:new 0 0 16 16;" xml:space="preserve">
<style type="text/css">
	.st0{fill:#262626;enable-background:new    ;}
</style>
<path class="st0" d="M12,7.6C12.6,6.9,13,6,13,5c0-2.2-1.8-4-4-4H4C2.9,1,2,1.9,2,3v4v2v4c0,1.1,0.9,2,2,2h6c2.2,0,4-1.8,4-4
	C14,9.5,13.2,8.3,12,7.6z M4,3h5c1.1,0,2,0.9,2,2s-0.9,2-2,2H4V3z M10,13H4V9h5h1c1.1,0,2,0.9,2,2S11.1,13,10,13z"/>
</svg>
