<svg id="图层_1" data-name="图层 1" xmlns="http://www.w3.org/2000/svg" viewBox="0 0 16 16"><defs><style>.cls-1{fill:#262626;}</style></defs><g id="g"><g id="_16-5" data-name=" 16-5"><path class="cls-1" d="M11.5,15h-7A2.5,2.5,0,0,1,2,12.5v-6a.5.5,0,0,1,1,0v6A1.5,1.5,0,0,0,4.5,14h7A1.5,1.5,0,0,0,13,12.5v-6a.5.5,0,0,1,1,0v6A2.5,2.5,0,0,1,11.5,15Z"/><path class="cls-1" d="M10,14.5H9v-4a.45.45,0,0,0-.5-.5h-1a.45.45,0,0,0-.5.5v4H6v-4A1.45,1.45,0,0,1,7.5,9h1A1.45,1.45,0,0,1,10,10.5Z"/><path class="cls-1" d="M14.5,8a.5.5,0,0,1-.37-.16l-3.7-4L9.05,2.45a1.48,1.48,0,0,0-2.1,0l-1.4,1.4-3.68,4a.51.51,0,0,1-.71,0,.51.51,0,0,1,0-.71l3.7-4L6.25,1.75a2.47,2.47,0,0,1,3.5,0l1.4,1.4,3.72,4a.51.51,0,0,1,0,.71A.5.5,0,0,1,14.5,8Z"/><path class="cls-1" d="M12,5V3a1,1,0,0,1,2,0V7.5C14,7,12,5.5,12,5Z"/></g></g></svg>