<svg id="图层_1" data-name="图层 1" xmlns="http://www.w3.org/2000/svg" viewBox="0 0 16 16"><defs><style>.cls-1{fill:#262626;}</style></defs><g id="i"><g id="_16-3" data-name=" 16-3"><path class="cls-1" d="M8,8,3.5,5.7a1.15,1.15,0,0,0-1.4.5.6.6,0,0,0-.1.4v3.8a1.05,1.05,0,0,0,.5.9l5,2.5a1.39,1.39,0,0,0,.9,0l5-2.5a1.15,1.15,0,0,0,.6-.9V6.6a.94.94,0,0,0-1-1,.9.9,0,0,0-.5.1Z"/><path class="cls-1" d="M8,3.2c.2,0,.3,0,.4.1l4,2a1.07,1.07,0,0,1,.6.9V9.7a1,1,0,0,1-.6.9l-4,2a1.39,1.39,0,0,1-.9,0l-4-2A.89.89,0,0,1,3,9.8V6.2a1.05,1.05,0,0,1,.5-.9l4-2c.2,0,.3-.1.5-.1m0-1a2.92,2.92,0,0,0-.9.2l-4,2A2.11,2.11,0,0,0,2,6.2V9.7a1.89,1.89,0,0,0,1.1,1.8l4,2a1.91,1.91,0,0,0,1.8,0l4-2A1.89,1.89,0,0,0,14,9.7V6.2a1.89,1.89,0,0,0-1.1-1.8l-4-2A2.92,2.92,0,0,0,8,2.2Z"/></g></g></svg>