<svg id="图层_1" data-name="图层 1" xmlns="http://www.w3.org/2000/svg" viewBox="0 0 16 16"><defs><style>.cls-1{fill:#262626;}</style></defs><g id="i"><path class="cls-1" d="M5,9.3l-2-6a.52.52,0,0,0-.8-.2L2,3.3l-2,6a.52.52,0,0,0,.3.7A.52.52,0,0,0,1,9.7L1.5,8H3.4L4,9.7a.55.55,0,0,0,.5.3h.2A.52.52,0,0,0,5,9.3ZM1.9,7l.6-1.9L3.1,7Z"/><path class="cls-1" d="M9.3,6.5A2.13,2.13,0,0,0,10,5,2,2,0,0,0,8,3H5.5c-.2,0-.5.2-.5.4V9.5a.54.54,0,0,0,.5.5H8a2,2,0,0,0,2-2A2.13,2.13,0,0,0,9.3,6.5ZM9,5A1.08,1.08,0,0,1,8,6H6V4H8A1,1,0,0,1,9,5ZM8,9H6V7H8A1.08,1.08,0,0,1,9,8,1,1,0,0,1,8,9Z"/><path class="cls-1" d="M13,10a3.17,3.17,0,0,1-3-3.4V6.5A3.31,3.31,0,0,1,12.9,3H13a3.28,3.28,0,0,1,2.6,1.8.62.62,0,0,1-.2.7.62.62,0,0,1-.7-.2A2,2,0,0,0,13,4a2.33,2.33,0,0,0-2,2.5A2.33,2.33,0,0,0,13,9a1.74,1.74,0,0,0,1.7-1.2.67.67,0,0,1,.7-.4.67.67,0,0,1,.4.7v.1A3.08,3.08,0,0,1,13,10Z"/><path class="cls-1" d="M10,11h4a.47.47,0,0,1,.5.5.37.37,0,0,1-.1.3l-2,2.7a.49.49,0,0,1-.7.1l-.1-.1-2-2.7a.49.49,0,0,1,.1-.7A.37.37,0,0,1,10,11Z"/></g></svg>