<svg id="白色" xmlns="http://www.w3.org/2000/svg" viewBox="0 0 16 16"><defs><style>.cls-1{fill:#262626;}</style></defs><g id="图片_复制" data-name="图片 复制"><g id="编组_5备份" data-name="编组 5备份"><g id="路径_7" data-name="路径 7"><path class="cls-1" d="M10,12a.52.52,0,0,1-.38-.17l-3-3.5a1.44,1.44,0,0,0-1.7-.18L1.69,9.46A.49.49,0,0,1,1,9.19a.49.49,0,0,1,.27-.65l3.2-1.3a2.41,2.41,0,0,1,2.84.41l3,3.52a.51.51,0,0,1-.05.71A.52.52,0,0,1,10,12Z"/></g><path class="cls-1" d="M13,14H3a2,2,0,0,1-2-2V4A2,2,0,0,1,3,2H13a2,2,0,0,1,2,2v8A2,2,0,0,1,13,14ZM3,3A1,1,0,0,0,2,4v8a1,1,0,0,0,1,1H13a1,1,0,0,0,1-1V4a1,1,0,0,0-1-1Z"/><path class="cls-1" d="M14.21,12.31l-1.7-2.1a.58.58,0,0,0-.71-.11l-.15.15-1.26,1.57-.78-.64,1.54-1.83a1.58,1.58,0,0,1,2.15.25L15,11.69Z"/><path class="cls-1" d="M11.5,7A1.5,1.5,0,1,1,13,5.5,1.5,1.5,0,0,1,11.5,7Zm0-2a.5.5,0,1,0,.5.5A.5.5,0,0,0,11.5,5Z"/></g></g></svg>