<svg id="图层_1" data-name="图层 1" xmlns="http://www.w3.org/2000/svg" viewBox="0 0 16 16"><defs><style>.cls-1{fill:#262626;}</style></defs><g id="i"><g id="链接"><path class="cls-1" d="M9,9.5a.47.47,0,0,1-.35-.15.48.48,0,0,1,0-.7,1.86,1.86,0,0,0,0-2.6L6.05,3.56a1.76,1.76,0,1,0-2.5,2.49l1.6,1.6a.49.49,0,1,1-.7.7l-1.6-1.6a2.71,2.71,0,0,1,0-3.9,2.79,2.79,0,0,1,3.9,0l2.6,2.49a2.85,2.85,0,0,1,.83,2,2.81,2.81,0,0,1-.83,2A.47.47,0,0,1,9,9.5Z"/><path class="cls-1" d="M11.2,14a2.75,2.75,0,0,1-1.95-.83l-2.6-2.6a2.72,2.72,0,0,1,0-3.9.49.49,0,0,1,.7.7,1.73,1.73,0,0,0,0,2.5l2.6,2.6a1.77,1.77,0,1,0,2.5-2.5l-1.6-1.6a.49.49,0,1,1,.7-.7l1.6,1.6a2.78,2.78,0,0,1-2,4.73Z"/></g></g></svg>