<svg id="图层_1" data-name="图层 1" xmlns="http://www.w3.org/2000/svg" viewBox="0 0 16 16"><defs><style>.cls-1{fill:#262626;}</style></defs><g id="m"><g id="图层_78_复制" data-name="图层 78 复制"><path class="cls-1" d="M6,12.1A1.26,1.26,0,0,1,5.48,12l-.13-.09-3.7-3.6a1,1,0,0,1-.3-.71,1,1,0,0,1,.3-.7l3.6-3.6a1,1,0,0,1,1.4,0A1,1,0,0,1,7,4V5H6V4L2.35,7.55,6,11.08l.06,0L6,10H7v1.1A1,1,0,0,1,6,12.1Z"/><path class="cls-1" d="M8,4.4V6.1H9a5,5,0,0,1,4.9,4A9.38,9.38,0,0,0,9,8.9H8v1.7l-3.1-3L8,4.4m.5-1.7a.6.6,0,0,0-.4.1l-4,4a1,1,0,0,0,0,1.4h0l4,3.9c.1.1.2.1.4.1a.47.47,0,0,0,.5-.5V9.9c3.2,0,6,1.1,6,4.3V11A6,6,0,0,0,9,5.1V3.2A.47.47,0,0,0,8.5,2.7Z"/></g></g></svg>