<svg id="图层_1" data-name="图层 1" xmlns="http://www.w3.org/2000/svg" viewBox="0 0 16 16"><defs><style>.cls-1{fill:#262626;}</style></defs><g id="m"><path class="cls-1" d="M11,12V10a.94.94,0,0,1,1-1h0a.94.94,0,0,1,1,1v2h1.5l-2.1,2.5a.62.62,0,0,1-.7.1l-.1-.1L9.5,12Z"/></g><path class="cls-1" d="M9,13H3a1,1,0,0,1-1-1V5A1,1,0,0,1,3,4H13a1,1,0,0,1,1,1v6h1V5a2,2,0,0,0-2-2H3A2,2,0,0,0,1,5v7a2,2,0,0,0,2,2H9Z"/><path class="cls-1" d="M10,9,9.61,8.7l4.73-4.33-.68-.74L8.83,8.06l-.49.45a.5.5,0,0,1-.68,0l-.49-.45L2.34,3.63l-.68.74L6.39,8.7,1.68,12.62l.64.76,4.83-4A1.37,1.37,0,0,0,8,9.65a1.43,1.43,0,0,0,.85-.29l1.15,1Z"/></svg>