<svg id="图层_1" data-name="图层 1" xmlns="http://www.w3.org/2000/svg" viewBox="0 0 16 16"><defs><style>.cls-1{fill:#262626;}</style></defs><g id="m"><path class="cls-1" d="M3,12.5a1,1,0,0,1-1-1V4.4a.86.86,0,0,1,.2-.6,1,1,0,0,1,.64-.4.9.9,0,0,1,.81.25L5.79,5.2a.49.49,0,0,1-.58.8L3,4.4H3V11.5s0,0,0,.05L5.22,10a.5.5,0,0,1,.56.82l-2.2,1.5A.76.76,0,0,1,3,12.5Z"/><path class="cls-1" d="M6,12.5a1,1,0,0,1-1-1V4.4a.86.86,0,0,1,.2-.6,1,1,0,0,1,.64-.4.9.9,0,0,1,.81.25l4.94,3.47a.5.5,0,0,1,.33.33,1,1,0,0,1,.16.68.84.84,0,0,1-.46.62l-5,3.56A.79.79,0,0,1,6,12.5ZM6,4.41V11.5s0,0,0,.05L11,8,6,4.41Z"/><path class="cls-1" d="M13.5,12a.5.5,0,0,1-.5-.5v-7a.5.5,0,0,1,1,0v7A.5.5,0,0,1,13.5,12Z"/></g></svg>