<svg id="图层_1" data-name="图层 1" xmlns="http://www.w3.org/2000/svg" viewBox="0 0 16 16"><defs><style>.cls-1{fill:#262626;}</style></defs><g id="m"><path class="cls-1" d="M13,12.58a1,1,0,0,1-.56-.16l-2.23-1.59a.5.5,0,0,1,.58-.82L13,11.59V4.45L10.79,6a.5.5,0,0,1-.7-.12.51.51,0,0,1,.12-.7l2.22-1.58a.94.94,0,0,1,.65-.17A1,1,0,0,1,14,4.49v7.1a1,1,0,0,1-.17.56A1,1,0,0,1,13,12.58Z"/><path class="cls-1" d="M10,12.58a1,1,0,0,1-.56-.16L4.3,8.82h0a1,1,0,0,1-.21-.21,1,1,0,0,1,.21-1.41l5.14-3.6a.94.94,0,0,1,.65-.17A1,1,0,0,1,11,4.49v7.1a1,1,0,0,1-.17.56A1,1,0,0,1,10,12.58ZM4.88,8,10,11.59V4.45L4.88,8l-.29.41Z"/><path class="cls-1" d="M2.5,12a.5.5,0,0,1-.5-.5v-7a.5.5,0,0,1,1,0v7A.5.5,0,0,1,2.5,12Z"/></g></svg>