<svg id="图层_1" data-name="图层 1" xmlns="http://www.w3.org/2000/svg" viewBox="0 0 16 16"><defs><style>.cls-1{fill:#262626;}</style></defs><g id="m"><path class="cls-1" d="M3,12.51a1,1,0,0,1-1-1V4.41a1,1,0,0,1,.17-.56,1,1,0,0,1,1.39-.26L5.79,5.17a.5.5,0,0,1,.12.7.51.51,0,0,1-.7.12L3,4.41v7.1L5.22,10a.5.5,0,0,1,.56.82l-2.22,1.5a1.06,1.06,0,0,1-.55.18Z"/><path class="cls-1" d="M6,12.51a1,1,0,0,1-1-1V4.41a1,1,0,0,1,.17-.56,1,1,0,0,1,1.39-.26L11.7,7.18l0,0a1.36,1.36,0,0,1,.12.12,1,1,0,0,1-.12,1.42L6.56,12.33a1.06,1.06,0,0,1-.55.18Zm0-8.1v7.1L11.1,8Z"/><path class="cls-1" d="M13.5,12a.5.5,0,0,1-.5-.5v-7a.5.5,0,0,1,1,0v7A.5.5,0,0,1,13.5,12Z"/></g></svg>