<svg id="图层_1" data-name="图层 1" xmlns="http://www.w3.org/2000/svg" viewBox="0 0 16 16"><defs><style>.cls-1{fill:#262626;}</style></defs><g id="m"><path class="cls-1" d="M11,12.61a.83.83,0,0,1-.61-.26L8.21,10.8a.49.49,0,1,1,.58-.8L11,11.59h0V4.4s0,0,.05-.05L8.79,6a.49.49,0,0,1-.58-.8l2.2-1.6A.77.77,0,0,1,11,3.4a1,1,0,0,1,1,1v7.2a.86.86,0,0,1-.24.65A1.15,1.15,0,0,1,11,12.61Z"/><path class="cls-1" d="M8,12.61a.85.85,0,0,1-.61-.26l-5-3.48a.61.61,0,0,1-.34-.33A.9.9,0,0,1,1.89,8a1.12,1.12,0,0,1,.36-.79L7.41,3.59A.79.79,0,0,1,8,3.4a1,1,0,0,1,1,1v7.2a.84.84,0,0,1-.25.65A1.11,1.11,0,0,1,8,12.61ZM2.9,8,8,11.59H8V4.4s0,0,.05-.05Z"/></g></svg>