<svg id="kylin" xmlns="http://www.w3.org/2000/svg" viewBox="0 0 16 16"><defs><style>.cls-1{fill:#262626;}</style></defs><path class="cls-1" d="M12.8,7.83a1.52,1.52,0,0,1-1.06-.44l.7-.71a.55.55,0,0,0,.36.15h0a.49.49,0,0,0,.35-.15.5.5,0,0,0,0-.71L10.33,3.14A.55.55,0,0,0,10,3a.43.43,0,0,0-.35.15.48.48,0,0,0-.16.36.49.49,0,0,0,.15.35.5.5,0,0,1,0,.71.5.5,0,0,1-.71,0,1.49,1.49,0,0,1-.45-1A1.52,1.52,0,0,1,10,2,1.49,1.49,0,0,1,11,2.43l2.83,2.84a1.51,1.51,0,0,1-1,2.56Z"/><path class="cls-1" d="M8.2,12.13A.47.47,0,0,1,7.85,12L4.32,8.44a2,2,0,0,1,0-2.79,2,2,0,0,1,2.83,0L7.5,6a.5.5,0,1,1-.72.7l-.35-.36A1,1,0,0,0,5,6.36,1,1,0,0,0,5,7.74l3.52,3.54a.48.48,0,0,1,0,.7A.47.47,0,0,1,8.2,12.13Z"/><rect class="cls-1" x="6.7" y="4.77" width="3" height="1" transform="translate(-1.32 7.34) rotate(-45)"/><path class="cls-1" d="M12,10a2,2,0,1,1-2,2,2,2,0,0,1,2-2m0-1a3,3,0,1,0,3,3A3,3,0,0,0,12,9Z"/><path class="cls-1" d="M13.5,14a.47.47,0,0,1-.35-.15l-3-3a.49.49,0,0,1,.7-.7l3,3a.48.48,0,0,1,0,.7A.47.47,0,0,1,13.5,14Z"/><path class="cls-1" d="M2.9,13.9a.47.47,0,0,1-.35-.15.48.48,0,0,1,0-.7L6.09,9.51a.49.49,0,1,1,.7.7L3.25,13.75A.47.47,0,0,1,2.9,13.9Z"/></svg>