<?xml version="1.0" encoding="utf-8"?>
<!-- Generator: Adobe Illustrator 23.0.1, SVG Export Plug-In . SVG Version: 6.00 Build 0)  -->
<svg version="1.1" id="图层_2_1_" xmlns="http://www.w3.org/2000/svg" xmlns:xlink="http://www.w3.org/1999/xlink" x="0px"
	 y="0px" viewBox="0 0 16 16" style="enable-background:new 0 0 16 16;" xml:space="preserve">
<style type="text/css">
	.st0{enable-background:new    ;}
	.st1{fill:#262626;}
	.st2{fill:#E9572A;}
</style>
<g class="st0">
	<circle class="st1" cx="8" cy="8" r="1"/>
</g>
<g class="st0">
	<circle class="st1" cx="12.5" cy="4.5" r="0.5"/>
</g>
<g class="st0">
	<path class="st1" d="M4,2C2.3,2,1,3.3,1,5v6c0,1.7,1.3,3,3,3h3v-1H4c-1.1,0-2-0.9-2-2V5c0-1.1,0.9-2,2-2h8c1.1,0,2,0.9,2,2v2h1V5
		c0-1.6-1.4-3-3-3H6"/>
</g>
<path class="st2" d="M12,8c-2.2,0-4,1.8-4,4s1.8,4,4,4s4-1.8,4-4S14.2,8,12,8z M13.8,9.6c0,0-0.1,0-0.1,0.1L12,11.3l-1.6-1.6
	l-0.1-0.1C10.7,9.2,11.3,9,12,9S13.3,9.2,13.8,9.6z M9,12c0-0.7,0.2-1.3,0.6-1.8c0,0,0,0.1,0.1,0.1l1.6,1.6l-1.6,1.6l-0.1,0.1
	C9.2,13.3,9,12.7,9,12z M10.2,14.4c0,0,0.1,0,0.1-0.1l1.6-1.6l1.6,1.6l0.1,0.1C13.3,14.8,12.7,15,12,15S10.7,14.8,10.2,14.4z
	 M14.4,13.8c0,0,0-0.1-0.1-0.1L12.7,12l1.6-1.6l0.1-0.1c0.4,0.5,0.6,1.1,0.6,1.8S14.8,13.3,14.4,13.8z"/>
<path class="st1" d="M7,11.5c0-0.2,0-0.4,0.1-0.7C5.8,10.5,5,9.4,5,8c0-1.7,1.3-3,3-3c1.4,0,2.5,0.8,2.8,2.1C11.1,7,11.3,7,11.5,7
	c0.1,0,0.2,0,0.4,0c-0.4-1.7-2-3-3.9-3C5.8,4,4,5.8,4,8c0,1.9,1.3,3.4,3,3.9C7,11.7,7,11.6,7,11.5z"/>
<path class="st1" d="M6,3H4V2c0-0.6,0.4-1,1-1h0c0.6,0,1,0.4,1,1V3z"/>
</svg>
