<svg id="图层_1" data-name="图层 1" xmlns="http://www.w3.org/2000/svg" viewBox="0 0 16 16"><defs><style>.cls-1{fill:#262626;}</style></defs><g id="黑色_复制" data-name="黑色 复制"><g id="w_复制" data-name="w 复制"><path class="cls-1" d="M5.5,14h-1A2.5,2.5,0,0,1,2,11.5v-7A2.5,2.5,0,0,1,4.5,2h7A2.5,2.5,0,0,1,14,4.5v2a.5.5,0,0,1-1,0v-2A1.5,1.5,0,0,0,11.5,3h-7A1.5,1.5,0,0,0,3,4.5v7A1.5,1.5,0,0,0,4.5,13h1a.5.5,0,0,1,0,1Z"/><path class="cls-1" d="M12.5,14h-4A1.5,1.5,0,0,1,7,12.5v-3A1.5,1.5,0,0,1,8.5,8h4A1.5,1.5,0,0,1,14,9.5v3A1.5,1.5,0,0,1,12.5,14Zm-4-5a.5.5,0,0,0-.5.5v3a.5.5,0,0,0,.5.5h4a.5.5,0,0,0,.5-.5v-3a.5.5,0,0,0-.5-.5Z"/></g></g></svg>