<svg id="kylin" xmlns="http://www.w3.org/2000/svg" viewBox="0 0 16 16"><defs><style>.cls-1{fill:#262626;}</style></defs><path class="cls-1" d="M12.82,7.8a1.49,1.49,0,0,1-1.08-.45.5.5,0,1,1,.72-.7.5.5,0,0,0,.71,0,.51.51,0,0,0,0-.7L10.33,3.14a.5.5,0,0,0-.71,0,.51.51,0,0,0-.15.35.49.49,0,0,0,.15.35.5.5,0,0,1,0,.71.48.48,0,0,1-.7,0,1.49,1.49,0,0,1-.45-1,1.54,1.54,0,0,1,.44-1.07,1.51,1.51,0,0,1,2.12,0l2.83,2.83a1.48,1.48,0,0,1-1,2.53Z"/><path class="cls-1" d="M9.3,12.56A2,2,0,0,1,7.89,12L4.32,8.44a2,2,0,0,1,0-2.79,2,2,0,0,1,2.83,0L7.5,6a.49.49,0,0,1-.7.7l-.36-.36A1,1,0,0,0,5,6.36,1,1,0,0,0,5,7.74l3.56,3.53A1,1,0,1,0,10,9.86l-.35-.34a.5.5,0,0,1,0-.71.51.51,0,0,1,.71,0l.36.35A2,2,0,0,1,9.3,12.56Z"/><path class="cls-1" d="M7.15,6.83a.47.47,0,0,1-.35-.15.48.48,0,0,1,0-.7L8.92,3.86a.49.49,0,0,1,.7.7L7.5,6.68A.47.47,0,0,1,7.15,6.83Z"/><path class="cls-1" d="M10,9.66a.47.47,0,0,1-.35-.15.48.48,0,0,1,0-.7l2.13-2.13a.49.49,0,1,1,.7.7L10.32,9.51A.47.47,0,0,1,10,9.66Z"/><path class="cls-1" d="M2.9,13.9a.47.47,0,0,1-.35-.15.48.48,0,0,1,0-.7L6.09,9.51a.49.49,0,1,1,.7.7L3.25,13.75A.47.47,0,0,1,2.9,13.9Z"/></svg>