<svg id="图层_1" data-name="图层 1" xmlns="http://www.w3.org/2000/svg" viewBox="0 0 16 16"><defs><style>.cls-1{fill:#262626;}</style></defs><g id="黑色_复制" data-name="黑色 复制"><g id="w_复制" data-name="w 复制"><path class="cls-1" d="M8.5,14h-4A2.5,2.5,0,0,1,2,11.5v-4A2.5,2.5,0,0,1,4.5,5h4A2.5,2.5,0,0,1,11,7.5v4A2.5,2.5,0,0,1,8.5,14Zm-4-8A1.5,1.5,0,0,0,3,7.5v4A1.5,1.5,0,0,0,4.5,13h4A1.5,1.5,0,0,0,10,11.5v-4A1.5,1.5,0,0,0,8.5,6Z"/><path class="cls-1" d="M11.5,11H10V10h1.5A1.5,1.5,0,0,0,13,8.5v-4A1.5,1.5,0,0,0,11.5,3h-4A1.5,1.5,0,0,0,6,4.5V6H5V4.5A2.5,2.5,0,0,1,7.5,2h4A2.5,2.5,0,0,1,14,4.5v4A2.5,2.5,0,0,1,11.5,11Z"/></g></g></svg>