<svg id="图层_1" data-name="图层 1" xmlns="http://www.w3.org/2000/svg" viewBox="0 0 16 16"><defs><style>.cls-1{fill:#262626;}</style></defs><g id="f"><g id="_16-10" data-name=" 16-10"><path class="cls-1" d="M14.5,12h-4a.5.5,0,0,1,0-1h4a.5.5,0,0,1,0,1Z"/><path class="cls-1" d="M12.5,14a.5.5,0,0,1-.5-.5v-4a.5.5,0,0,1,1,0v4A.5.5,0,0,1,12.5,14Z"/></g></g><path class="cls-1" d="M9.5,14h-6A2.5,2.5,0,0,1,1,11.5v-7A2.5,2.5,0,0,1,3.5,2h9A2.5,2.5,0,0,1,15,4.5v4a.5.5,0,0,1-1,0v-4A1.5,1.5,0,0,0,12.5,3h-9A1.5,1.5,0,0,0,2,4.5v7A1.5,1.5,0,0,0,3.5,13h6a.5.5,0,0,1,0,1Z"/><rect class="cls-1" x="2" y="3" width="12" height="2"/></svg>