<svg id="图层_1" data-name="图层 1" xmlns="http://www.w3.org/2000/svg" viewBox="0 0 16 16"><defs><style>.cls-1{fill:#262626;}</style></defs><g id="emblem-documents-symbolic"><path class="cls-1" d="M10.5,12h-4A1.5,1.5,0,0,1,5,10.5v-5A1.5,1.5,0,0,1,6.5,4H8.79a1.13,1.13,0,0,1,.72.3L11.7,6.5a1,1,0,0,1,.3.72V10.5A1.5,1.5,0,0,1,10.5,12Zm-4-7a.5.5,0,0,0-.5.5v5a.5.5,0,0,0,.5.5h4a.5.5,0,0,0,.5-.5V7.21L8.8,5Z"/><path class="cls-1" d="M11,8H9.5A1.5,1.5,0,0,1,8,6.5v-2H9v2a.5.5,0,0,0,.5.5H11Z"/><path class="cls-1" d="M8,2A6,6,0,1,1,2,8,6,6,0,0,1,8,2M8,1a7,7,0,1,0,7,7A7,7,0,0,0,8,1Z"/></g></svg>