<svg id="图层_1" data-name="图层 1" xmlns="http://www.w3.org/2000/svg" viewBox="0 0 16 16"><defs><style>.cls-1{fill:#262626;}</style></defs><g id="emblem-favorite-symbolic"><path class="cls-1" d="M6.16,5h0A2,2,0,0,0,4,6.83a.28.28,0,0,0,0,.09,2.94,2.94,0,0,0,.32,1.2A13.58,13.58,0,0,0,8,12.2a13.58,13.58,0,0,0,3.68-4.08A2.94,2.94,0,0,0,12,6.92,2,2,0,0,0,9.93,5H9.76A2.21,2.21,0,0,0,8,6,2.36,2.36,0,0,0,6.16,5Z"/><path class="cls-1" d="M8,2A6,6,0,1,1,2,8,6,6,0,0,1,8,2M8,1a7,7,0,1,0,7,7A7,7,0,0,0,8,1Z"/></g></svg>