<svg id="图层_1" data-name="图层 1" xmlns="http://www.w3.org/2000/svg" viewBox="0 0 16 16"><defs><style>.cls-1{fill:#262626;}</style></defs><g id="emblem-photos-symbolic"><g id="图层_84" data-name="图层 84"><path class="cls-1" d="M10.5,11h-5A1.5,1.5,0,0,1,4,9.5v-3A1.5,1.5,0,0,1,5.5,5h5A1.5,1.5,0,0,1,12,6.5v3A1.5,1.5,0,0,1,10.5,11Zm-5-5a.5.5,0,0,0-.5.5v3a.5.5,0,0,0,.5.5h5a.5.5,0,0,0,.5-.5v-3a.5.5,0,0,0-.5-.5Z"/><path class="cls-1" d="M11.5,10.5,10,9,8.5,10l-2-2.5-2,3Z"/><circle class="cls-1" cx="9.5" cy="7.5" r="0.5"/></g><path class="cls-1" d="M8,2A6,6,0,1,1,2,8,6,6,0,0,1,8,2M8,1a7,7,0,1,0,7,7A7,7,0,0,0,8,1Z"/></g></svg>