<svg id="图层_1" data-name="图层 1" xmlns="http://www.w3.org/2000/svg" viewBox="0 0 16 16"><defs><style>.cls-1{fill:#262626;}</style></defs><g id="黑色_复制" data-name="黑色 复制"><g id="emblem-shared-symbolic_复制" data-name="emblem-shared-symbolic 复制"><g id="图层_81" data-name="图层 81"><circle class="cls-1" cx="4.5" cy="8" r="1.5"/><circle class="cls-1" cx="10.1" cy="10.5" r="1.5"/><circle class="cls-1" cx="10.1" cy="5.5" r="1.5"/><path class="cls-1" d="M9,10.5a.54.54,0,0,1-.22-.05l-4-2a.5.5,0,0,1,0-.9l4-2a.5.5,0,0,1,.44.9L6.12,8l3.1,1.55A.5.5,0,0,1,9,10.5Z"/></g><path class="cls-1" d="M8,2A6,6,0,1,1,2,8,6,6,0,0,1,8,2M8,1A7,7,0,0,0,1,8a7,7,0,0,0,7,7,7,7,0,0,0,7-7A7,7,0,0,0,8,1Z"/></g></g></svg>