<svg id="图层_1" data-name="图层 1" xmlns="http://www.w3.org/2000/svg" viewBox="0 0 16 16"><defs><style>.cls-1{fill:#262626;}</style></defs><g id="emblem-synchronizing-symbolic"><path class="cls-1" d="M8,2A6,6,0,1,1,2,8,6,6,0,0,1,8,2M8,1a7,7,0,1,0,7,7A7,7,0,0,0,8,1Z"/><path class="cls-1" d="M8,12H8A4.08,4.08,0,0,1,4.26,9.34.5.5,0,0,1,5.2,9,3.07,3.07,0,0,0,8,11H8a3,3,0,0,0,2.55-1.45.5.5,0,0,1,.69-.17.51.51,0,0,1,.17.69A4,4,0,0,1,8,12Zm3.33-4.59a.48.48,0,0,1-.47-.34A3,3,0,0,0,8,5H8A2.93,2.93,0,0,0,5.44,6.5.51.51,0,1,1,4.56,6,4,4,0,0,1,8,4H8a4,4,0,0,1,3.8,2.75.49.49,0,0,1-.31.63Z"/><path class="cls-1" d="M6.44,7H4.5A.5.5,0,0,1,4,6.5V4.56a.5.5,0,1,1,1,0V6H6.44a.5.5,0,1,1,0,1Z"/><path class="cls-1" d="M11.5,11.94a.5.5,0,0,1-.5-.5V10H9.56a.5.5,0,0,1,0-1H11.5a.5.5,0,0,1,.5.5v1.94A.5.5,0,0,1,11.5,11.94Z"/></g></svg>