<?xml version="1.0" encoding="utf-8"?>
<!-- Generator: Adobe Illustrator 25.0.0, SVG Export Plug-In . SVG Version: 6.00 Build 0)  -->
<svg version="1.1" id="dropbox" xmlns="http://www.w3.org/2000/svg" xmlns:xlink="http://www.w3.org/1999/xlink" x="0px" y="0px"
	 viewBox="0 0 96 96" style="enable-background:new 0 0 96 96;" xml:space="preserve">
<style type="text/css">
	.st0{fill:#FFFFFF;}
	.st1{opacity:0.75;fill:#1F2022;enable-background:new    ;}
	.st2{opacity:0.75;}
	.st3{fill:none;stroke:#1F2022;stroke-width:4;stroke-linecap:round;stroke-miterlimit:10;}
</style>
<g id="_96">
	<circle class="st0" cx="48" cy="48" r="43.5"/>
	<path class="st1" d="M48,5c23.7,0,43,19.3,43,43S71.7,91,48,91S5,71.7,5,48S24.3,5,48,5 M48,4L48,4C23.7,4,4,23.7,4,48l0,0
		c0,24.3,19.7,44,44,44l0,0c24.3,0,44-19.7,44-44l0,0C92,23.7,72.3,4,48,4z"/>
	<g class="st2">
		<path class="st3" d="M31.1,67C25,67,20,61.9,20,55.8C20,49.6,25.7,45,31.9,45"/>
		<path class="st3" d="M63.8,38.4C70.7,39.3,76,45.8,76,53c0,7.7-6.2,14-13.9,14"/>
		<line class="st3" x1="31.1" y1="67" x2="63.1" y2="67"/>
		<path class="st3" d="M31.9,44c0-9.3,6.7-18,16-18c7.3,0,13.9,5.8,16.2,12.3"/>
	</g>
</g>
</svg>
