<?xml version="1.0" encoding="utf-8"?>
<!-- Generator: Adobe Illustrator 25.0.0, SVG Export Plug-In . SVG Version: 6.00 Build 0)  -->
<svg version="1.1" id="图层_13" xmlns="http://www.w3.org/2000/svg" xmlns:xlink="http://www.w3.org/1999/xlink" x="0px" y="0px"
	 viewBox="0 0 96 96" style="enable-background:new 0 0 96 96;" xml:space="preserve">
<style type="text/css">
	.st0{fill:#FFFFFF;}
	.st1{opacity:0.75;fill:#1F2022;enable-background:new    ;}
</style>
<g id="_96">
	<circle class="st0" cx="48" cy="48" r="43.5"/>
	<path class="st1" d="M48,5.5c23.7,0,43,19.3,43,43s-19.3,43-43,43S5,72.2,5,48.5S24.3,5.5,48,5.5 M48,4.5c-24.3,0-44,19.7-44,44
		s19.7,44,44,44s44-19.7,44-44S72.3,4.5,48,4.5z"/>
	<path class="st1" d="M59.4,29.5c6.4,0,11.6,5.2,11.6,11.6c0,0.1,0,0.2,0,0.2s0,0.2,0,0.3v0.5c0,0.1,0,0.2,0,0.3
		c-0.1,4.6-3.8,11.4-9.8,18.2C55,67.6,49.6,71,48,71.3c-1.5-0.3-7-3.8-13.2-11c-5.9-6.8-9.6-13.6-9.8-18c0-0.1,0-0.2,0-0.3v-0.5
		c0-0.1,0-0.2,0-0.3s0-0.2,0-0.2c0-6.3,5.2-11.5,11.6-11.5c3.2,0,6.3,1.3,8.5,3.7l2.9,3.2l2.9-3.2C53.1,30.8,56.2,29.5,59.4,29.5
		 M59.4,25.5c-4.3,0-8.5,1.8-11.4,5c-5.8-6.3-15.7-6.7-22-0.9c-3.2,3-5,7.1-5,11.5c0,0.3,0,0.5,0,0.8c0,0.1,0,0.2,0,0.3
		c0,12.6,20.8,33.2,27,33.2s27-20.1,27-33.2c0-0.1,0-0.2,0-0.3c0-0.3,0-0.5,0-0.8C75,32.5,68,25.5,59.4,25.5L59.4,25.5z"/>
</g>
</svg>
