<?xml version="1.0" encoding="utf-8"?>
<!-- Generator: Adobe Illustrator 25.0.0, SVG Export Plug-In . SVG Version: 6.00 Build 0)  -->
<svg version="1.1" id="图层_33" xmlns="http://www.w3.org/2000/svg" xmlns:xlink="http://www.w3.org/1999/xlink" x="0px" y="0px"
	 viewBox="0 0 96 96" style="enable-background:new 0 0 96 96;" xml:space="preserve">
<style type="text/css">
	.st0{fill:#FFFFFF;}
	.st1{opacity:0.75;fill:#1F2022;enable-background:new    ;}
	.st2{opacity:0.75;}
	.st3{fill:none;stroke:#1F2022;stroke-width:4;stroke-linecap:round;stroke-miterlimit:10;}
	.st4{fill:none;stroke:#1F2022;stroke-width:4;stroke-linecap:round;stroke-linejoin:round;}
</style>
<g id="_96">
	<circle class="st0" cx="48" cy="48" r="43.5"/>
	<path class="st1" d="M48,5c23.7,0,43,19.3,43,43S71.7,91,48,91S5,71.7,5,48S24.3,5,48,5 M48,4C23.7,4,4,23.7,4,48s19.7,44,44,44
		s44-19.7,44-44S72.3,4,48,4z"/>
	<g id="图层_2_1_" class="st2">
		<polyline class="st3" points="23,31 23,40 32,40 		"/>
		<polyline class="st3" points="64,56 73,56 73,65 		"/>
		<path class="st4" d="M71.3,57c-3.7,9.6-13,16-23.3,16c-11.3,0.2-21.2-7.4-24-18.3"/>
		<path class="st4" d="M24.7,39c0-0.3,0.3-0.3,0.3-0.7c5.3-12.7,19.9-18.7,32.6-13.4c7.1,3,12.4,9,14.4,16.4"/>
	</g>
</g>
</svg>
