<?xml version="1.0" encoding="utf-8"?>
<!-- Generator: Adobe Illustrator 25.0.0, SVG Export Plug-In . SVG Version: 6.00 Build 0)  -->
<svg version="1.1" id="图层_14" xmlns="http://www.w3.org/2000/svg" xmlns:xlink="http://www.w3.org/1999/xlink" x="0px" y="0px"
	 viewBox="0 0 96 96" style="enable-background:new 0 0 96 96;" xml:space="preserve">
<style type="text/css">
	.st0{fill:#FFFFFF;}
	.st1{opacity:0.75;fill:#1F2022;enable-background:new    ;}
	.st2{opacity:0.75;fill:none;stroke:#1F2022;stroke-width:4;stroke-linecap:round;stroke-miterlimit:10;enable-background:new    ;}
	.st3{opacity:0.75;fill:none;stroke:#1F2022;stroke-width:4;stroke-miterlimit:10;enable-background:new    ;}
</style>
<g id="_96">
	<circle class="st0" cx="48" cy="48" r="43.5"/>
	<path class="st1" d="M48,5c23.7,0,43,19.3,43,43S71.7,91,48,91S5,71.7,5,48S24.3,5,48,5 M48,4C23.7,4,4,23.7,4,48s19.7,44,44,44
		s44-19.7,44-44S72.3,4,48,4z"/>
	<path class="st2" d="M28.3,51c-5.5-0.1-10.1,4.2-10.3,9.7c0,0.1,0,0.2,0,0.3v4c0.1,3.3,2.8,6,6.1,6h4.1"/>
	<path class="st2" d="M39,42c-6.5,0.1-11.9-5.1-12-11.6c0-0.1,0-0.3,0-0.4c-0.1-6.5,5.1-11.9,11.6-12c0.1,0,0.3,0,0.4,0"/>
	<circle class="st3" cx="56" cy="30" r="12"/>
	<path class="st3" d="M68,51H44c-5.5-0.1-9.9,4.3-10,9.8c0,0.1,0,0.1,0,0.2v4c0.1,3.3,2.7,5.9,6,6h32c3.3-0.1,5.9-2.7,6-6v-4
		c0.1-5.5-4.3-9.9-9.8-10C68.1,51,68.1,51,68,51z"/>
</g>
</svg>
