<svg id="文件夹" xmlns="http://www.w3.org/2000/svg" viewBox="0 0 96 96"><defs><style>.cls-1{fill:#fcce59;}.cls-2{fill:#3095d9;}.cls-3{fill:#63c3e8;}.cls-4{opacity:0.92;}.cls-5{fill:#fff;}</style></defs><title>96</title><g id="音乐"><g id="_96" data-name="96"><path class="cls-1" d="M48,39H6V23a8,8,0,0,1,8-8H37.23a2,2,0,0,1,1.34.52L48,25Z"/><path class="cls-1" d="M82,81H14a8,8,0,0,1-8-8V24H82a8,8,0,0,1,8,8V73A8,8,0,0,1,82,81Z"/><path class="cls-1" d="M56,38H40a6,6,0,0,0-6,6V62a6,6,0,0,0,6,6H56a6,6,0,0,0,6-6V44A6,6,0,0,0,56,38ZM50.5,58h-9a1.5,1.5,0,0,1,0-3h9a1.5,1.5,0,0,1,0,3Zm4-8h-13a1.5,1.5,0,0,1,0-3h13a1.5,1.5,0,0,1,0,3Z"/><path class="cls-1" d="M56,38H40a6,6,0,0,0-6,6V62a6,6,0,0,0,6,6H56a6,6,0,0,0,6-6V44A6,6,0,0,0,56,38ZM50.5,58h-9a1.5,1.5,0,0,1,0-3h9a1.5,1.5,0,0,1,0,3Zm4-8h-13a1.5,1.5,0,0,1,0-3h13a1.5,1.5,0,0,1,0,3Z"/><path class="cls-1" d="M56,38H40a6,6,0,0,0-6,6V62a6,6,0,0,0,6,6H56a6,6,0,0,0,6-6V44A6,6,0,0,0,56,38ZM50.5,58h-9a1.5,1.5,0,0,1,0-3h9a1.5,1.5,0,0,1,0,3Zm4-8h-13a1.5,1.5,0,0,1,0-3h13a1.5,1.5,0,0,1,0,3Z"/><path class="cls-2" d="M48,39H6V23a8,8,0,0,1,8-8H37.23a2,2,0,0,1,1.34.52L48,25Z"/><path class="cls-3" d="M82,81H14a8,8,0,0,1-8-8V24H82a8,8,0,0,1,8,8V73A8,8,0,0,1,82,81Z"/><g class="cls-4"><path class="cls-5" d="M56,38H40a6,6,0,0,0-6,6V62a6,6,0,0,0,6,6H56a6,6,0,0,0,6-6V44A6,6,0,0,0,56,38ZM50.5,58h-9a1.5,1.5,0,0,1,0-3h9a1.5,1.5,0,0,1,0,3Zm4-8h-13a1.5,1.5,0,0,1,0-3h13a1.5,1.5,0,0,1,0,3Z"/></g></g></g></svg>