<svg id="图层_1" data-name="图层 1" xmlns="http://www.w3.org/2000/svg" viewBox="0 0 16 16"><defs><style>.cls-1{fill:#262626;}</style></defs><g id="黑色"><g id="远程"><path class="cls-1" d="M12.5,13h-9A2.5,2.5,0,0,1,1,10.5v-5A2.5,2.5,0,0,1,3.5,3h9A2.5,2.5,0,0,1,15,5.5v5A2.5,2.5,0,0,1,12.5,13Zm-9-9A1.5,1.5,0,0,0,2,5.5v5A1.5,1.5,0,0,0,3.5,12h9A1.5,1.5,0,0,0,14,10.5v-5A1.5,1.5,0,0,0,12.5,4Z"/><path class="cls-1" d="M11.4,8.18l.83-.83a.2.2,0,0,0,0-.28A.2.2,0,0,0,12.09,7H9.31A.31.31,0,0,0,9,7.31H9v2.78a.21.21,0,0,0,.19.21.2.2,0,0,0,.16-.07l.83-.83a.16.16,0,0,1,.22,0l1.54,1.54a.21.21,0,0,0,.29,0l.71-.71a.21.21,0,0,0,0-.29L11.4,8.4A.16.16,0,0,1,11.4,8.18Z"/><path class="cls-1" d="M5.5,14h5a.5.5,0,0,1,.5.5h0a.5.5,0,0,1-.5.5h-5a.5.5,0,0,1-.5-.5H5A.5.5,0,0,1,5.5,14Z"/><rect class="cls-1" x="7" y="13" width="2" height="1"/></g></g></svg>