<svg id="user" xmlns="http://www.w3.org/2000/svg" xmlns:xlink="http://www.w3.org/1999/xlink" viewBox="0 0 96 96"><defs><style>.cls-1{fill:#4362e0;}.cls-2{fill:url(#未命名的渐变_570);}.cls-3{fill:url(#未命名的渐变_575);}</style><linearGradient id="未命名的渐变_570" x1="48" y1="77.39" x2="48" y2="27.9" gradientUnits="userSpaceOnUse"><stop offset="0.02" stop-color="#6986fa"/><stop offset="1" stop-color="#7893ff"/></linearGradient><linearGradient id="未命名的渐变_575" x1="49" y1="65" x2="49" y2="39" gradientUnits="userSpaceOnUse"><stop offset="0.1" stop-color="#fff" stop-opacity="0.84"/><stop offset="1" stop-color="#fff" stop-opacity="0.96"/></linearGradient></defs><title>96</title><g id="_96" data-name="96"><g id="_96-2" data-name="96"><path class="cls-1" d="M48,39H6V23a8,8,0,0,1,8-8H37.23a2,2,0,0,1,1.34.52L48,25Z"/><path class="cls-2" d="M6,24H82a8,8,0,0,1,8,8V73a8,8,0,0,1-8,8H14a8,8,0,0,1-8-8V24a0,0,0,0,1,0,0Z"/></g><path class="cls-3" d="M54.2,53h-1a9.45,9.45,0,0,1-8.46,0h-1A7.77,7.77,0,0,0,36,60.75v1.48A2.78,2.78,0,0,0,38.79,65H59.21A2.78,2.78,0,0,0,62,62.23V60.75A7.77,7.77,0,0,0,54.2,53ZM49,51a6,6,0,1,0-6-6A6,6,0,0,0,49,51Z"/></g></svg>