<svg id="文件夹" xmlns="http://www.w3.org/2000/svg" xmlns:xlink="http://www.w3.org/1999/xlink" viewBox="0 0 96 96"><defs><style>.cls-1{fill:#fcce59;}.cls-2{fill:#7f52d9;}.cls-3{fill:#a57bf9;}.cls-4{fill:url(#未命名的渐变_575);}</style><linearGradient id="未命名的渐变_575" x1="48" y1="67" x2="48" y2="41" gradientUnits="userSpaceOnUse"><stop offset="0.1" stop-color="#fff" stop-opacity="0.84"/><stop offset="1" stop-color="#fff" stop-opacity="0.96"/></linearGradient></defs><title>96</title><g id="远程"><g id="_96" data-name="96"><path class="cls-1" d="M48,39H6V23a8,8,0,0,1,8-8H37.23a2,2,0,0,1,1.34.52L48,25Z"/><path class="cls-1" d="M82,81H14a8,8,0,0,1-8-8V24H82a8,8,0,0,1,8,8V73A8,8,0,0,1,82,81Z"/><path class="cls-1" d="M53,65H50V63H46v2H43a1,1,0,0,0,0,2H53a1,1,0,0,0,0-2Zm7-24H36a4,4,0,0,0-4,4V57a4,4,0,0,0,4,4H60a4,4,0,0,0,4-4V45A4,4,0,0,0,60,41Zm1.91,17.29-1.62,1.62a.46.46,0,0,1-.65,0l-3.48-3.48a.34.34,0,0,0-.49,0l-1.88,1.88A.46.46,0,0,1,53,58v-6.3a.69.69,0,0,1,.69-.69H60a.46.46,0,0,1,.32.79l-1.88,1.88a.34.34,0,0,0,0,.49l3.48,3.48A.46.46,0,0,1,61.91,58.29Z"/><path class="cls-1" d="M53,65H50V63H46v2H43a1,1,0,0,0,0,2H53a1,1,0,0,0,0-2Zm7-24H36a4,4,0,0,0-4,4V57a4,4,0,0,0,4,4H60a4,4,0,0,0,4-4V45A4,4,0,0,0,60,41Zm1.91,17.29-1.62,1.62a.46.46,0,0,1-.65,0l-3.48-3.48a.34.34,0,0,0-.49,0l-1.88,1.88A.46.46,0,0,1,53,58v-6.3a.69.69,0,0,1,.69-.69H60a.46.46,0,0,1,.32.79l-1.88,1.88a.34.34,0,0,0,0,.49l3.48,3.48A.46.46,0,0,1,61.91,58.29Z"/><path class="cls-1" d="M53,65H50V63H46v2H43a1,1,0,0,0,0,2H53a1,1,0,0,0,0-2Zm7-24H36a4,4,0,0,0-4,4V57a4,4,0,0,0,4,4H60a4,4,0,0,0,4-4V45A4,4,0,0,0,60,41Zm1.91,17.29-1.62,1.62a.46.46,0,0,1-.65,0l-3.48-3.48a.34.34,0,0,0-.49,0l-1.88,1.88A.46.46,0,0,1,53,58v-6.3a.69.69,0,0,1,.69-.69H60a.46.46,0,0,1,.32.79l-1.88,1.88a.34.34,0,0,0,0,.49l3.48,3.48A.46.46,0,0,1,61.91,58.29Z"/><path class="cls-2" d="M48,39H6V23a8,8,0,0,1,8-8H37.23a2,2,0,0,1,1.34.52L48,25Z"/><path class="cls-3" d="M82,81H14a8,8,0,0,1-8-8V24H82a8,8,0,0,1,8,8V73A8,8,0,0,1,82,81Z"/><path class="cls-4" d="M53,65H50V63H46v2H43a1,1,0,0,0,0,2H53a1,1,0,0,0,0-2Zm7-24H36a4,4,0,0,0-4,4V57a4,4,0,0,0,4,4H60a4,4,0,0,0,4-4V45A4,4,0,0,0,60,41Zm1.91,17.29-1.62,1.62a.46.46,0,0,1-.65,0l-3.48-3.48a.34.34,0,0,0-.49,0l-1.88,1.88A.46.46,0,0,1,53,58v-6.3a.69.69,0,0,1,.69-.69H60a.46.46,0,0,1,.32.79l-1.88,1.88a.34.34,0,0,0,0,.49l3.48,3.48A.46.46,0,0,1,61.91,58.29Z"/></g></g></svg>