<svg id="music" xmlns="http://www.w3.org/2000/svg" xmlns:xlink="http://www.w3.org/1999/xlink" viewBox="0 0 96 96"><defs><style>.cls-1{fill:#eb5032;}.cls-2{fill:url(#未命名的渐变_109);}.cls-3{fill:url(#未命名的渐变_575);}</style><linearGradient id="未命名的渐变_109" x1="48" y1="77.39" x2="48" y2="27.9" gradientUnits="userSpaceOnUse"><stop offset="0.03" stop-color="#ff7357"/><stop offset="0.99" stop-color="#ff8a73"/></linearGradient><linearGradient id="未命名的渐变_575" x1="50" y1="67" x2="50" y2="38.5" gradientUnits="userSpaceOnUse"><stop offset="0.1" stop-color="#fff" stop-opacity="0.84"/><stop offset="1" stop-color="#fff" stop-opacity="0.96"/></linearGradient></defs><title>96</title><g id="_96" data-name="96"><g id="_96-2" data-name="96"><path class="cls-1" d="M48,39H6V23a8,8,0,0,1,8-8H37.23a2,2,0,0,1,1.34.52L48,25Z"/><path class="cls-2" d="M6,24H82a8,8,0,0,1,8,8V73a8,8,0,0,1-8,8H14a8,8,0,0,1-8-8V24a0,0,0,0,1,0,0Z"/></g><path class="cls-3" d="M61,41.5l-11-3V54.26A7,7,0,1,0,53,60a4.19,4.19,0,0,0,0-.5h0V44.32l8,2.18Z"/></g></svg>