<svg id="文件夹" xmlns="http://www.w3.org/2000/svg" xmlns:xlink="http://www.w3.org/1999/xlink" viewBox="0 0 96 96"><defs><style>.cls-1{fill:#fcce59;}.cls-2{fill:#297acc;}.cls-3{fill:#469bf0;}.cls-4{fill:url(#未命名的渐变_3);}</style><linearGradient id="未命名的渐变_3" x1="48" y1="67.01" x2="48" y2="39.73" gradientUnits="userSpaceOnUse"><stop offset="0.06" stop-color="#fff" stop-opacity="0.84"/><stop offset="1" stop-color="#fff" stop-opacity="0.96"/></linearGradient></defs><title>96</title><g id="box"><g id="_96" data-name="96"><path class="cls-1" d="M48,39H6V23a8,8,0,0,1,8-8H37.23a2,2,0,0,1,1.34.52L48,25Z"/><path class="cls-1" d="M82,81H14a8,8,0,0,1-8-8V24H82a8,8,0,0,1,8,8V73A8,8,0,0,1,82,81Z"/><path class="cls-1" d="M31.85,55.64l9.52,6.24L48,56.36l-9.58-5.92Zm32.3-10.46L54.66,39,48,44.53l9.56,5.91L48,56.36l6.64,5.52,9.49-6.18-6.57-5.26ZM48,57.54l-6.67,5.53-2.86-1.86V63.3L48,69l9.5-5.7V61.21L54.7,63.07ZM41.37,39l-9.52,6.13,6.59,5.31L48,44.53Z"/><path class="cls-2" d="M48,39H6V23a8,8,0,0,1,8-8H37.23a2,2,0,0,1,1.34.52L48,25Z"/><path class="cls-3" d="M82,81H14a8,8,0,0,1-8-8V24H82a8,8,0,0,1,8,8V73A8,8,0,0,1,82,81Z"/><path class="cls-4" d="M31.85,55.64l9.52,6.24L48,56.36l-9.58-5.92Zm32.3-10.46L54.66,39,48,44.53l9.56,5.91L48,56.36l6.64,5.52,9.49-6.18-6.57-5.26ZM48,57.54l-6.67,5.53-2.86-1.86V63.3L48,69l9.5-5.7V61.21L54.7,63.07ZM41.37,39l-9.52,6.13,6.59,5.31L48,44.53Z"/></g></g></svg>