<svg id="图层_1" data-name="图层 1" xmlns="http://www.w3.org/2000/svg" viewBox="0 0 16 16"><defs><style>.cls-1{fill:#262626;}</style></defs><g id="黑色"><g id="文件搜素"><path class="cls-1" d="M13,15.5a.47.47,0,0,1-.35-.15l-1.5-1.5a.49.49,0,0,1,.7-.7l1.5,1.5a.48.48,0,0,1,0,.7A.47.47,0,0,1,13,15.5Z"/><path class="cls-1" d="M8.5,7a3.5,3.5,0,0,1,0,7A3.54,3.54,0,0,1,5,10.5,3.48,3.48,0,0,1,8.5,7h0m0-1A4.5,4.5,0,1,0,13,10.5,4.48,4.48,0,0,0,8.5,6Z"/><path class="cls-1" d="M3.5,14H3.1A2.15,2.15,0,0,1,1,11.8V4.1A2.34,2.34,0,0,1,3,2H6.1C7.51,2,8,3,8.45,3.88A.43.43,0,0,0,8.51,4h4A2.55,2.55,0,0,1,15,6.35V12.5a.5.5,0,0,1-1,0V6.4A1.55,1.55,0,0,0,12.5,5H8.91c-.5,0-1.08,0-1.37-.71S6.85,3,6.1,3h-3A1.3,1.3,0,0,0,2,4.16V11.8A1.17,1.17,0,0,0,3.1,13h.4a.5.5,0,0,1,0,1Z"/></g></g></svg>