<svg id="图层_1" data-name="图层 1" xmlns="http://www.w3.org/2000/svg" viewBox="0 0 16 16"><defs><style>.cls-1{fill:#262626;}</style></defs><g id="黑色"><g id="模板"><path class="cls-1" d="M6,3A.94.94,0,0,1,7,4v9a.94.94,0,0,1-1,1H3a.94.94,0,0,1-1-1V4A.94.94,0,0,1,3,3H6M6,2H3A2,2,0,0,0,1,4v9a2,2,0,0,0,2,2H6a2,2,0,0,0,2-2V4A2,2,0,0,0,6,2Z"/><path class="cls-1" d="M13,3a.94.94,0,0,1,1,1V6a.94.94,0,0,1-1,1H11a.94.94,0,0,1-1-1V4a.94.94,0,0,1,1-1h2m0-1H11A2,2,0,0,0,9,4V6a2,2,0,0,0,2,2h2a2,2,0,0,0,2-2V4A2,2,0,0,0,13,2Z"/><path class="cls-1" d="M13,10a.94.94,0,0,1,1,1v2a.94.94,0,0,1-1,1H11a.94.94,0,0,1-1-1V11a.94.94,0,0,1,1-1h2m0-1H11a2,2,0,0,0-2,2v2a2,2,0,0,0,2,2h2a2,2,0,0,0,2-2V11A2,2,0,0,0,13,9Z"/></g></g></svg>