<svg id="文件夹" xmlns="http://www.w3.org/2000/svg" xmlns:xlink="http://www.w3.org/1999/xlink" viewBox="0 0 96 96"><defs><style>.cls-1{fill:#fcce59;}.cls-2{fill:#4362e0;}.cls-3{fill:#7691fe;}.cls-4{fill:url(#未命名的渐变_575);}</style><linearGradient id="未命名的渐变_575" x1="48" y1="68" x2="48" y2="37" gradientUnits="userSpaceOnUse"><stop offset="0.1" stop-color="#fff" stop-opacity="0.84"/><stop offset="1" stop-color="#fff" stop-opacity="0.96"/></linearGradient></defs><title>96</title><g id="用户"><g id="_96" data-name="96"><path class="cls-1" d="M48,39H6V23a8,8,0,0,1,8-8H37.23a2,2,0,0,1,1.34.52L48,25Z"/><path class="cls-1" d="M48,39H6V23a8,8,0,0,1,8-8H37.23a2,2,0,0,1,1.34.52L48,25Z"/><path class="cls-1" d="M82,81H14a8,8,0,0,1-8-8V24H82a8,8,0,0,1,8,8V73A8,8,0,0,1,82,81Z"/><path class="cls-1" d="M54,54.15H52.88a10.84,10.84,0,0,1-9.76,0H42a9,9,0,0,0-9,9v1.7A3.21,3.21,0,0,0,36.21,68H59.79A3.21,3.21,0,0,0,63,64.8V63.1A9,9,0,0,0,54,54.15ZM48,51a7,7,0,1,0-7-7A7,7,0,0,0,48,51Z"/><path class="cls-1" d="M54,54.15H52.88a10.84,10.84,0,0,1-9.76,0H42a9,9,0,0,0-9,9v1.7A3.21,3.21,0,0,0,36.21,68H59.79A3.21,3.21,0,0,0,63,64.8V63.1A9,9,0,0,0,54,54.15ZM48,51a7,7,0,1,0-7-7A7,7,0,0,0,48,51Z"/><path class="cls-1" d="M54,54.15H52.88a10.84,10.84,0,0,1-9.76,0H42a9,9,0,0,0-9,9v1.7A3.21,3.21,0,0,0,36.21,68H59.79A3.21,3.21,0,0,0,63,64.8V63.1A9,9,0,0,0,54,54.15ZM48,51a7,7,0,1,0-7-7A7,7,0,0,0,48,51Z"/><path class="cls-2" d="M48,39H6V23a8,8,0,0,1,8-8H37.23a2,2,0,0,1,1.34.52L48,25Z"/><path class="cls-3" d="M82,81H14a8,8,0,0,1-8-8V24H82a8,8,0,0,1,8,8V73A8,8,0,0,1,82,81Z"/><path class="cls-4" d="M54,54.15H52.88a10.84,10.84,0,0,1-9.76,0H42a9,9,0,0,0-9,9v1.7A3.21,3.21,0,0,0,36.21,68H59.79A3.21,3.21,0,0,0,63,64.8V63.1A9,9,0,0,0,54,54.15ZM48,51a7,7,0,1,0-7-7A7,7,0,0,0,48,51Z"/></g></g></svg>