<svg id="图层_1" data-name="图层 1" xmlns="http://www.w3.org/2000/svg" viewBox="0 0 16 16"><defs><style>.cls-1{fill:#262626;}</style></defs><g id="黑色"><g id="分享"><path class="cls-1" d="M3.5,11A2.5,2.5,0,1,1,6,8.5,2.5,2.5,0,0,1,3.5,11Zm0-4A1.5,1.5,0,1,0,5,8.5,1.5,1.5,0,0,0,3.5,7Z"/><path class="cls-1" d="M12.5,16A2.5,2.5,0,1,1,15,13.5,2.5,2.5,0,0,1,12.5,16Zm0-4A1.5,1.5,0,1,0,14,13.5,1.5,1.5,0,0,0,12.5,12Z"/><path class="cls-1" d="M12.5,6A2.5,2.5,0,1,1,15,3.5,2.5,2.5,0,0,1,12.5,6Zm0-4A1.5,1.5,0,1,0,14,3.5,1.5,1.5,0,0,0,12.5,2Z"/><rect class="cls-1" x="5.08" y="5.5" width="5.83" height="1" transform="translate(-1.95 4.97) rotate(-30.97)"/><rect class="cls-1" x="7.5" y="8.08" width="1" height="5.83" transform="translate(-5.55 12.2) rotate(-59.04)"/></g></g></svg>