<svg id="图层_1" data-name="图层 1" xmlns="http://www.w3.org/2000/svg" viewBox="0 0 16 16"><defs><style>.cls-1{fill:#262626;}</style></defs><g id="黑色"><g id="文档"><g id="编组_6备份" data-name="编组 6备份"><path class="cls-1" d="M4,2A1,1,0,0,0,3,3V13a1,1,0,0,0,1,1h8a1,1,0,0,0,1-1V5.41L9.59,2H4M4,1H9.59a1,1,0,0,1,.7.29l3.42,3.42a1,1,0,0,1,.29.7V13a2,2,0,0,1-2,2H4a2,2,0,0,1-2-2V3A2,2,0,0,1,4,1Z"/><g id="WG-深M-z"><path class="cls-1" d="M13.8,6H11.1A2.1,2.1,0,0,1,9,3.9V1.5h1V3.9A1.1,1.1,0,0,0,11.1,5h2.7Z"/></g><path id="矩形备份_2" data-name="矩形备份 2" class="cls-1" d="M5.5,8h5a.5.5,0,0,1,.5.5h0a.5.5,0,0,1-.5.5h-5A.5.5,0,0,1,5,8.5H5A.5.5,0,0,1,5.5,8Z"/><path id="矩形备份_3" data-name="矩形备份 3" class="cls-1" d="M5.5,10h5a.5.5,0,0,1,.5.5h0a.5.5,0,0,1-.5.5h-5a.5.5,0,0,1-.5-.5H5A.5.5,0,0,1,5.5,10Z"/></g></g></g></svg>