<svg id="文件夹" xmlns="http://www.w3.org/2000/svg" viewBox="0 0 96 96"><defs><style>.cls-1{fill:#fcce59;}.cls-2{fill:#e06e05;}.cls-3{fill:#f9a557;}.cls-4{fill:#fff;}</style></defs><title>96</title><g id="图片"><g id="_96" data-name="96"><path class="cls-1" d="M48,39H6V23a8,8,0,0,1,8-8H37.23a2,2,0,0,1,1.34.52L48,25Z"/><path class="cls-1" d="M48,39H6V23a8,8,0,0,1,8-8H37.23a2,2,0,0,1,1.34.52L48,25Z"/><path class="cls-1" d="M82,81H14a8,8,0,0,1-8-8V24H82a8,8,0,0,1,8,8V73A8,8,0,0,1,82,81Z"/><path class="cls-1" d="M62,40H36a6,6,0,0,0-6,6V62a6,6,0,0,0,6,6H62a6,6,0,0,0,6-6V46A6,6,0,0,0,62,40Zm-.76,24H35.3a1.27,1.27,0,0,1-1-2l7.59-9.81a2.3,2.3,0,0,1,3.63,0L50.81,59l2.72-3.12a1.54,1.54,0,0,1,2.3,0l6,6.85A.76.76,0,0,1,61.24,64ZM59,50a3,3,0,1,1,3-3A3,3,0,0,1,59,50Z"/><path class="cls-1" d="M62,40H36a6,6,0,0,0-6,6V62a6,6,0,0,0,6,6H62a6,6,0,0,0,6-6V46A6,6,0,0,0,62,40Zm-.76,24H35.3a1.27,1.27,0,0,1-1-2l7.59-9.81a2.3,2.3,0,0,1,3.63,0L50.81,59l2.72-3.12a1.54,1.54,0,0,1,2.3,0l6,6.85A.76.76,0,0,1,61.24,64ZM59,50a3,3,0,1,1,3-3A3,3,0,0,1,59,50Z"/><path class="cls-1" d="M62,40H36a6,6,0,0,0-6,6V62a6,6,0,0,0,6,6H62a6,6,0,0,0,6-6V46A6,6,0,0,0,62,40Zm-.76,24H35.3a1.27,1.27,0,0,1-1-2l7.59-9.81a2.3,2.3,0,0,1,3.63,0L50.81,59l2.72-3.12a1.54,1.54,0,0,1,2.3,0l6,6.85A.76.76,0,0,1,61.24,64ZM59,50a3,3,0,1,1,3-3A3,3,0,0,1,59,50Z"/><path class="cls-2" d="M48,39H6V23a8,8,0,0,1,8-8H37.23a2,2,0,0,1,1.34.52L48,25Z"/><path class="cls-3" d="M82,81H14a8,8,0,0,1-8-8V24H82a8,8,0,0,1,8,8V73A8,8,0,0,1,82,81Z"/><path class="cls-4" d="M62,40H36a6,6,0,0,0-6,6V62a6,6,0,0,0,6,6H62a6,6,0,0,0,6-6V46A6,6,0,0,0,62,40Zm-.76,24H35.3a1.27,1.27,0,0,1-1-2l7.59-9.81a2.3,2.3,0,0,1,3.63,0L50.81,59l2.72-3.12a1.54,1.54,0,0,1,2.3,0l6,6.85A.76.76,0,0,1,61.24,64ZM59,50a3,3,0,1,1,3-3A3,3,0,0,1,59,50Z"/></g></g></svg>