<svg id="图层_1" data-name="图层 1" xmlns="http://www.w3.org/2000/svg" viewBox="0 0 16 16"><defs><style>.cls-1{fill:#262626;}</style></defs><g id="黑色"><g id="下载"><path class="cls-1" d="M8,15a1.13,1.13,0,0,1-.8-.32L2.31,10A1.12,1.12,0,0,1,2,9.17a1.17,1.17,0,0,1,.32-.82A1.15,1.15,0,0,1,3.1,8H5V2.5A1.5,1.5,0,0,1,6.5,1h3A1.5,1.5,0,0,1,11,2.5V8h1.9a1.12,1.12,0,0,1,.8.34,1.15,1.15,0,0,1,0,1.62L8.8,14.68A1.13,1.13,0,0,1,8,15ZM3.11,9A.15.15,0,0,0,3,9.15a.21.21,0,0,0,0,.11L7.9,14a.14.14,0,0,0,.2,0L13,9.25A.15.15,0,0,0,13,9a.21.21,0,0,0-.11,0H10V2.5A.5.5,0,0,0,9.5,2h-3a.5.5,0,0,0-.5.5V9Z"/></g></g></svg>