<svg id="文件夹" xmlns="http://www.w3.org/2000/svg" xmlns:xlink="http://www.w3.org/1999/xlink" viewBox="0 0 96 96"><defs><style>.cls-1{fill:#fcce59;}.cls-2{fill:#d63db7;}.cls-3{fill:#e671cf;}.cls-4{fill:url(#未命名的渐变_575);}</style><linearGradient id="未命名的渐变_575" x1="47.5" y1="66.6" x2="47.5" y2="41.6" gradientUnits="userSpaceOnUse"><stop offset="0.1" stop-color="#fff" stop-opacity="0.84"/><stop offset="1" stop-color="#fff" stop-opacity="0.96"/></linearGradient></defs><title>96</title><g id="模板"><g id="_96" data-name="96"><path class="cls-1" d="M48,39H6V23a8,8,0,0,1,8-8H37.23a2,2,0,0,1,1.34.52L48,25Z"/><path class="cls-1" d="M48,39H6V23a8,8,0,0,1,8-8H37.23a2,2,0,0,1,1.34.52L48,25Z"/><path class="cls-1" d="M82,81H14a8,8,0,0,1-8-8V24H82a8,8,0,0,1,8,8V73A8,8,0,0,1,82,81Z"/><path class="cls-1" d="M45,42H37a2,2,0,0,0-2,2V63a2,2,0,0,0,2,2h8a2,2,0,0,0,2-2V44A2,2,0,0,0,45,42Zm13,0H52a2,2,0,0,0-2,2v6a2,2,0,0,0,2,2h6a2,2,0,0,0,2-2V44A2,2,0,0,0,58,42Zm0,13H52a2,2,0,0,0-2,2v6a2,2,0,0,0,2,2h6a2,2,0,0,0,2-2V57A2,2,0,0,0,58,55Z"/><path class="cls-1" d="M45,42H37a2,2,0,0,0-2,2V63a2,2,0,0,0,2,2h8a2,2,0,0,0,2-2V44A2,2,0,0,0,45,42Zm13,0H52a2,2,0,0,0-2,2v6a2,2,0,0,0,2,2h6a2,2,0,0,0,2-2V44A2,2,0,0,0,58,42Zm0,13H52a2,2,0,0,0-2,2v6a2,2,0,0,0,2,2h6a2,2,0,0,0,2-2V57A2,2,0,0,0,58,55Z"/><path class="cls-1" d="M45,42H37a2,2,0,0,0-2,2V63a2,2,0,0,0,2,2h8a2,2,0,0,0,2-2V44A2,2,0,0,0,45,42Zm13,0H52a2,2,0,0,0-2,2v6a2,2,0,0,0,2,2h6a2,2,0,0,0,2-2V44A2,2,0,0,0,58,42Zm0,13H52a2,2,0,0,0-2,2v6a2,2,0,0,0,2,2h6a2,2,0,0,0,2-2V57A2,2,0,0,0,58,55Z"/><path class="cls-2" d="M48,39H6V23a8,8,0,0,1,8-8H37.23a2,2,0,0,1,1.34.52L48,25Z"/><path class="cls-3" d="M82,81H14a8,8,0,0,1-8-8V24H82a8,8,0,0,1,8,8V73A8,8,0,0,1,82,81Z"/><path class="cls-4" d="M45,42H37a2,2,0,0,0-2,2V63a2,2,0,0,0,2,2h8a2,2,0,0,0,2-2V44A2,2,0,0,0,45,42Zm13,0H52a2,2,0,0,0-2,2v6a2,2,0,0,0,2,2h6a2,2,0,0,0,2-2V44A2,2,0,0,0,58,42Zm0,13H52a2,2,0,0,0-2,2v6a2,2,0,0,0,2,2h6a2,2,0,0,0,2-2V57A2,2,0,0,0,58,55Z"/></g></g></svg>