<svg id="文件夹" xmlns="http://www.w3.org/2000/svg" viewBox="0 0 96 96"><defs><style>.cls-1{fill:#fcce59;}.cls-2{fill:#7f52d9;}.cls-3{fill:#a57af9;}.cls-4{opacity:0.95;}.cls-5{fill:#fff;}</style></defs><title>96</title><g id="下载"><g id="_96" data-name="96"><path class="cls-1" d="M48,39H6V23a8,8,0,0,1,8-8H37.23a2,2,0,0,1,1.34.52L48,25Z"/><path class="cls-1" d="M82,81H14a8,8,0,0,1-8-8V24H82a8,8,0,0,1,8,8V73A8,8,0,0,1,82,81Z"/><path class="cls-1" d="M43.13,55h9.74a.12.12,0,0,0,.13-.12V43a2,2,0,0,0-2-2H45a2,2,0,0,0-2,2V54.87A.12.12,0,0,0,43.13,55Zm14,0H38.89a2,2,0,0,0-1.38,3.44l9.1,8.77a2,2,0,0,0,2.78,0l9.1-8.77A2,2,0,0,0,57.11,55Z"/><path class="cls-1" d="M43.13,55h9.74a.12.12,0,0,0,.13-.12V43a2,2,0,0,0-2-2H45a2,2,0,0,0-2,2V54.87A.12.12,0,0,0,43.13,55Zm14,0H38.89a2,2,0,0,0-1.38,3.44l9.1,8.77a2,2,0,0,0,2.78,0l9.1-8.77A2,2,0,0,0,57.11,55Z"/><path class="cls-1" d="M43.13,55h9.74a.12.12,0,0,0,.13-.12V43a2,2,0,0,0-2-2H45a2,2,0,0,0-2,2V54.87A.12.12,0,0,0,43.13,55Zm14,0H38.89a2,2,0,0,0-1.38,3.44l9.1,8.77a2,2,0,0,0,2.78,0l9.1-8.77A2,2,0,0,0,57.11,55Z"/><path class="cls-2" d="M48,39H6V23a8,8,0,0,1,8-8H37.23a2,2,0,0,1,1.34.52L48,25Z"/><path class="cls-3" d="M82,81H14a8,8,0,0,1-8-8V24H82a8,8,0,0,1,8,8V73A8,8,0,0,1,82,81Z"/><g class="cls-4"><path class="cls-5" d="M43.13,55h9.74a.12.12,0,0,0,.13-.12V43a2,2,0,0,0-2-2H45a2,2,0,0,0-2,2V54.87A.12.12,0,0,0,43.13,55Zm14,0H38.89a2,2,0,0,0-1.38,3.44l9.1,8.77a2,2,0,0,0,2.78,0l9.1-8.77A2,2,0,0,0,57.11,55Z"/></g></g></g></svg>