<svg xmlns="http://www.w3.org/2000/svg" xmlns:xlink="http://www.w3.org/1999/xlink" viewBox="0 0 96 96"><defs><style>.cls-1{fill:none;}.cls-2{isolation:isolate;}.cls-3{fill:#086ad9;}.cls-4{opacity:0.5;mix-blend-mode:overlay;}.cls-5{clip-path:url(#clip-path);}.cls-6{fill:#e0dcd5;}.cls-7{fill:#88beea;}.cls-8{fill:#dbdbdb;}</style><clipPath id="clip-path"><circle id="SVGID" class="cls-1" cx="48" cy="48" r="40"/></clipPath></defs><title>96</title><g class="cls-2"><g id="网络"><g id="_96" data-name="96"><circle class="cls-3" cx="48" cy="48" r="40"/><g class="cls-4"><g class="cls-5"><path class="cls-6" d="M9,38.5s6,.5,6,5,12.5,4,16,3.5,6,4,10.5,4,7-5,7.5-7,3-8.5,6-10.5,5-9.5,1.5-11,.5-5,.5-6.5-2.5-3.5-.5-6,1-6,1-6S8,5.5,9,38.5Z"/><path class="cls-6" d="M65.5,11c-1,2-.7,6.23,3,10.5,3.25,3.75-.75,7.25-.75,9.75,0,4,2,4,2.25,9.75.27,6.29-7.75,11.75-8,16.5-.15,2.85,5.27.76,4.5,3.5-1.75,6.25-17,24.5-53,19.5s47,26.5,47,26.5L87.75,67.75l1.5-27-2.5-2s3.5,23-13,28.5c0,0,3.5-7.5,1-9.5-2.82-2.25,3-8.5,3-8.5s3-5.5.5-7.5c-4-3.22.5-8.5,1-10s-1-7,3-8.5S65.5,11,65.5,11Z"/></g></g><path class="cls-7" d="M95.89,34.13c-.35-1-.74-2.21-15.74,1.38C71.07,37.68,59.15,41,46.6,45S22.36,52.88,13.69,56.26C-.64,61.83-.24,63,.11,64c.17.51.35,1,2.25,1s5.83-.59,13.49-2.42c9.09-2.17,21-5.53,33.55-9.44s24.24-7.94,32.91-11.32C96.63,36.34,96.24,35.17,95.89,34.13ZM48.76,51.32C24.63,58.85,8.34,62.63,3.27,63.06c4.36-2.53,19.85-8.68,44-16.21S87.66,35.54,92.73,35.12C88.37,37.64,72.88,43.79,48.76,51.32Z"/><path class="cls-3" d="M8.58,54.74a39.76,39.76,0,0,0,1.81,6.9c15.91-5,63-20.45,76-24.73a39.47,39.47,0,0,0-2.19-5.85C65.15,34.39,22.82,49.54,8.58,54.74Z"/><circle class="cls-8" cx="40" cy="55" r="6"/></g></g></g></svg>