<svg id="图层_1" data-name="图层 1" xmlns="http://www.w3.org/2000/svg" viewBox="0 0 16 16"><defs><style>.cls-1{fill:#262626;}</style></defs><g id="黑色"><g id="服务器"><path class="cls-1" d="M10,11h3v1H10Z"/><path class="cls-1" d="M14,10v3H2V10H14m0-1H2a.94.94,0,0,0-1,.88V13a.94.94,0,0,0,.88,1H14a.94.94,0,0,0,1-.88V10a.94.94,0,0,0-.88-1Z"/><path class="cls-1" d="M10,5h3V6H10Z"/><path class="cls-1" d="M14,4V7H2V4H14m0-1H2a.94.94,0,0,0-1,.88V7a.94.94,0,0,0,.88,1H14a.94.94,0,0,0,1-.88V4a.94.94,0,0,0-.88-1Z"/></g></g></svg>