<svg id="图层_6" data-name="图层 6" xmlns="http://www.w3.org/2000/svg" xmlns:xlink="http://www.w3.org/1999/xlink" viewBox="0 0 96 96"><defs><style>.cls-1{fill:url(#未命名的渐变_225);}.cls-2{fill:#4c7080;}.cls-3{fill:#76b3c4;opacity:0.45;}.cls-10,.cls-4,.cls-9{fill:#5cfff3;}.cls-5{fill:#fccc6b;}.cls-6{fill:#0b0244;opacity:0.5;}.cls-7{fill:#59ffff;opacity:0.3;}.cls-8{fill:#334c58;}.cls-9{opacity:0.2;}.cls-10{opacity:0.6;}</style><linearGradient id="未命名的渐变_225" x1="6" y1="73.16" x2="89.99" y2="73.16" gradientUnits="userSpaceOnUse"><stop offset="0" stop-color="#3c5663"/><stop offset="1" stop-color="#273e47"/></linearGradient></defs><title>96</title><g id="_96" data-name="96"><path class="cls-1" d="M87.44,60.61,53.61,80.43c-3.1,1.81-7.79,2-10.47.44L7.81,60.16A3.09,3.09,0,0,1,6,57.32H6v7.07H6a3.11,3.11,0,0,0,1.8,2.85l35.33,20.7c2.68,1.57,7.37,1.37,10.47-.44L87.44,67.68C89.22,66.63,90.09,65.27,90,64V57.32A4.54,4.54,0,0,1,87.44,60.61Z"/><path class="cls-2" d="M43.14,80.87,7.81,60.16c-2.68-1.57-2.35-4.32.75-6.13L42.39,34.21c3.1-1.82,7.79-2,10.47-.44l35.33,20.7c2.68,1.57,2.35,4.32-.75,6.14L53.61,80.43C50.51,82.24,45.82,82.44,43.14,80.87Z"/><path class="cls-3" d="M87.44,63.6,53.61,83.41c-3.1,1.82-7.79,2-10.47.45L7.81,63.15A3.09,3.09,0,0,1,6,60.31H6v1.46H6a3.1,3.1,0,0,0,1.8,2.85l35.33,20.7c2.68,1.57,7.37,1.38,10.47-.44L87.44,65.06c1.78-1,2.65-2.4,2.55-3.67V59.93C90.09,61.19,89.22,62.55,87.44,63.6Z"/><path class="cls-4" d="M44.08,76.35,15.62,59.67c-2.16-1.26-1.89-3.48.61-4.94l27.25-16c2.49-1.46,6.27-1.62,8.44-.35L80.38,55.08c2.16,1.27,1.89,3.49-.61,5L52.52,76C50,77.46,46.25,77.62,44.08,76.35Z"/><path class="cls-5" d="M81.3,61.71a.43.43,0,0,1,0,.81,1.49,1.49,0,0,1-1.39,0,.43.43,0,0,1,0-.81A1.49,1.49,0,0,1,81.3,61.71Z"/><path class="cls-5" d="M83.48,60.43a.44.44,0,0,1,0,.82,1.51,1.51,0,0,1-1.4,0,.43.43,0,0,1,0-.82A1.57,1.57,0,0,1,83.48,60.43Z"/><path class="cls-5" d="M85.65,59.16a.43.43,0,0,1,0,.82,1.57,1.57,0,0,1-1.4,0,.44.44,0,0,1,0-.82A1.51,1.51,0,0,1,85.65,59.16Z"/><path class="cls-6" d="M44.93,72.31,22.6,59.23c-1.7-1-1.48-2.73.48-3.88L44.45,42.82a7.27,7.27,0,0,1,6.62-.27L73.4,55.63c1.7,1,1.48,2.73-.48,3.88L51.55,72A7.24,7.24,0,0,1,44.93,72.31Z"/><path class="cls-7" d="M90,57.38A2.41,2.41,0,0,0,90,57V38.3l-29.27.14-7.86-4.61c-2.68-1.57-7.37-1.38-10.47.44l-7.31,4.28L6,38.68v18.7H6a3.11,3.11,0,0,0,1.8,2.85l35.33,20.7c2.68,1.57,7.37,1.37,10.47-.44L87.44,60.67A4.54,4.54,0,0,0,90,57.38Z"/><path class="cls-8" d="M87.44,34.9,53.61,54.72c-3.1,1.82-7.79,2-10.47.44L7.81,34.46A3.1,3.1,0,0,1,6,31.61H6v7.07H6a3.09,3.09,0,0,0,1.8,2.85l35.33,20.7c2.68,1.57,7.37,1.38,10.47-.44L87.44,42c1.78-1,2.65-2.4,2.55-3.67V31.61A4.52,4.52,0,0,1,87.44,34.9Z"/><path class="cls-2" d="M43.14,55.16,7.81,34.46c-2.68-1.57-2.35-4.32.75-6.14L42.39,8.5c3.1-1.81,7.79-2,10.47-.44l35.33,20.7c2.68,1.58,2.35,4.32-.75,6.14L53.61,54.72C50.51,56.54,45.82,56.73,43.14,55.16Z"/><path class="cls-3" d="M87.44,37.89,53.61,57.71c-3.1,1.81-7.79,2-10.47.44L7.81,37.45A3.11,3.11,0,0,1,6,34.6H6v1.47H6a3.09,3.09,0,0,0,1.8,2.84l35.33,20.7c2.68,1.58,7.37,1.38,10.47-.44L87.44,39.35c1.78-1,2.65-2.4,2.55-3.66V34.22C90.09,35.48,89.22,36.84,87.44,37.89Z"/><path class="cls-9" d="M45.19,33.11a.83.83,0,0,1,0,1.56,2.9,2.9,0,0,1-2.66,0,.83.83,0,0,1,0-1.56A2.9,2.9,0,0,1,45.19,33.11Z"/><path class="cls-10" d="M49.33,30.68a.83.83,0,0,1,0,1.56,2.9,2.9,0,0,1-2.66,0,.83.83,0,0,1,0-1.56A2.9,2.9,0,0,1,49.33,30.68Z"/><path class="cls-4" d="M53.47,28.26a.83.83,0,0,1,0,1.56,2.9,2.9,0,0,1-2.66,0,.83.83,0,0,1,0-1.56A2.9,2.9,0,0,1,53.47,28.26Z"/><path class="cls-6" d="M47.77,50.07a7.16,7.16,0,0,1-3.5-.81L18.15,34a2.61,2.61,0,0,1-1.47-2.2,3.51,3.51,0,0,1,2-2.81l25-14.65c2.36-1.38,6-1.53,8-.33L77.85,29.27a2.61,2.61,0,0,1,1.47,2.21,3.51,3.51,0,0,1-2,2.8l-25,14.65A9.08,9.08,0,0,1,47.77,50.07Zm-3.23-1.28c1.91,1.12,5.26,1,7.48-.33L77,33.81a3,3,0,0,0,1.76-2.33,2.1,2.1,0,0,0-1.21-1.74L51.46,14.43c-1.91-1.12-5.26-1-7.48.33L19,29.41a3,3,0,0,0-1.76,2.34,2.08,2.08,0,0,0,1.21,1.73Z"/></g></svg>