<svg id="文件夹" xmlns="http://www.w3.org/2000/svg" viewBox="0 0 96 96"><defs><style>.cls-1{fill:#fcce59;}.cls-2{fill:#40ad34;}.cls-3{fill:#6ace5b;}.cls-4{opacity:0.95;}.cls-5{fill:#fff;}</style></defs><title>96</title><g id="远程"><g id="_96" data-name="96"><path class="cls-1" d="M48,39H6V23a8,8,0,0,1,8-8H37.23a2,2,0,0,1,1.34.52L48,25Z"/><path class="cls-1" d="M48,39H6V23a8,8,0,0,1,8-8H37.23a2,2,0,0,1,1.34.52L48,25Z"/><path class="cls-1" d="M82,81H14a8,8,0,0,1-8-8V24H82a8,8,0,0,1,8,8V73A8,8,0,0,1,82,81Z"/><path class="cls-1" d="M60,41H36a4,4,0,0,0-4,4V57a4,4,0,0,0,4,4H60a4,4,0,0,0,4-4V45A4,4,0,0,0,60,41ZM53,65H50.17V63h-4v2H43a1,1,0,0,0,0,2H53a1,1,0,0,0,0-2Z"/><path class="cls-1" d="M60,41H36a4,4,0,0,0-4,4V57a4,4,0,0,0,4,4H60a4,4,0,0,0,4-4V45A4,4,0,0,0,60,41ZM53,65H50.17V63h-4v2H43a1,1,0,0,0,0,2H53a1,1,0,0,0,0-2Z"/><path class="cls-1" d="M60,41H36a4,4,0,0,0-4,4V57a4,4,0,0,0,4,4H60a4,4,0,0,0,4-4V45A4,4,0,0,0,60,41ZM53,65H50.17V63h-4v2H43a1,1,0,0,0,0,2H53a1,1,0,0,0,0-2Z"/><path class="cls-2" d="M48,39H6V23a8,8,0,0,1,8-8H37.23a2,2,0,0,1,1.34.52L48,25Z"/><path class="cls-3" d="M82,81H14a8,8,0,0,1-8-8V24H82a8,8,0,0,1,8,8V73A8,8,0,0,1,82,81Z"/><g class="cls-4"><path class="cls-5" d="M60,41H36a4,4,0,0,0-4,4V57a4,4,0,0,0,4,4H60a4,4,0,0,0,4-4V45A4,4,0,0,0,60,41ZM53,65H50.17V63h-4v2H43a1,1,0,0,0,0,2H53a1,1,0,0,0,0-2Z"/></g></g></g></svg>