<svg id="回收站" xmlns="http://www.w3.org/2000/svg" viewBox="0 0 96 96"><defs><style>.cls-1{fill:#f0f0f0;}.cls-2{fill:#d1d1d1;}.cls-3{fill:#00bb81;}</style></defs><title>96</title><g id="_96" data-name="96"><g id="桶"><path class="cls-1" d="M90,14H6l9.24,54.36A26,26,0,0,0,40.88,90H55.12A26,26,0,0,0,80.76,68.36Z"/><ellipse id="桶口" class="cls-2" cx="48" cy="15" rx="42" ry="9"/></g><g id="logo"><path class="cls-3" d="M52,56.55l-3.34,5.07,3.09,4.66,0-2,2.64,0a3.93,3.93,0,0,0,2.64-1.13l4.67-6.22A3,3,0,0,0,62,53.72L59.4,48.8l-6.28,3.33,3.46,6c.12.3-.11.55-.51.54l-4.12,0,0-2.12Z"/><path class="cls-3" d="M43.5,55.75l-3.74-5.5-7,0,2.42,1.24L34,53.88a3.14,3.14,0,0,0,.15,2.8L38.79,63a3.86,3.86,0,0,0,2.91,1.34l5.5,0-.05-5.65-7.35,0a.4.4,0,0,1-.32-.65l1.88-3.31,2.14,1.08Z"/><path class="cls-3" d="M48.55,49.12l7.07,0,4-6.1-2.5,1.39-1.43-2.63a3.86,3.86,0,0,0-2.78-1.86l-9.31,0a4.15,4.15,0,0,0-3.32,2l-2.81,5.45,6.33,3.39L47.66,44c.25-.32.63-.26.85.12l2.23,3.8-2.19,1.23Z"/></g></g></svg>