<svg id="文件夹" xmlns="http://www.w3.org/2000/svg" xmlns:xlink="http://www.w3.org/1999/xlink" viewBox="0 0 96 96"><defs><style>.cls-1{fill:#fcce59;}.cls-2{fill:#575f6e;}.cls-3{fill:#8289a2;}.cls-4{fill:url(#未命名的渐变_44);}.cls-5{fill:#757575;}</style><linearGradient id="未命名的渐变_44" x1="48" y1="69" x2="48" y2="39" gradientUnits="userSpaceOnUse"><stop offset="0" stop-color="#fff" stop-opacity="0.72"/><stop offset="0.97" stop-color="#fff" stop-opacity="0.95"/></linearGradient></defs><title>96</title><g id="最近"><g id="_96" data-name="96"><path class="cls-1" d="M48,39H6V23a8,8,0,0,1,8-8H37.23a2,2,0,0,1,1.34.52L48,25Z"/><path class="cls-1" d="M48,39H6V23a8,8,0,0,1,8-8H37.23a2,2,0,0,1,1.34.52L48,25Z"/><path class="cls-1" d="M82,81H14a8,8,0,0,1-8-8V24H82a8,8,0,0,1,8,8V73A8,8,0,0,1,82,81Z"/><circle class="cls-1" cx="48" cy="54" r="15"/><path class="cls-1" d="M49,55H47V45.92a.92.92,0,0,1,.92-.92h.16a.92.92,0,0,1,.92.92Z"/><path class="cls-1" d="M47,55V53h8.08a.92.92,0,0,1,.92.92v.16a.92.92,0,0,1-.92.92Z"/><path class="cls-2" d="M48,39H6V23a8,8,0,0,1,8-8H37.23a2,2,0,0,1,1.34.52L48,25Z"/><path class="cls-3" d="M82,81H14a8,8,0,0,1-8-8V24H82a8,8,0,0,1,8,8V73A8,8,0,0,1,82,81Z"/><circle class="cls-4" cx="48" cy="54" r="15"/><path class="cls-5" d="M49,55H47V45.92a.92.92,0,0,1,.92-.92h.16a.92.92,0,0,1,.92.92Z"/><path class="cls-5" d="M47,55V53h8.08a.92.92,0,0,1,.92.92v.16a.92.92,0,0,1-.92.92Z"/></g></g></svg>