<svg id="文件夹" xmlns="http://www.w3.org/2000/svg" viewBox="0 0 96 96"><defs><style>.cls-1{fill:#fcce59;}.cls-2{fill:#eba02f;}.cls-3{fill:#fff;opacity:0.92;}</style></defs><title>96</title><g id="文件"><g id="_96" data-name="96"><path class="cls-1" d="M48,39H6V23a8,8,0,0,1,8-8H37.23a2,2,0,0,1,1.34.52L48,25Z"/><path class="cls-1" d="M37.23,16a1,1,0,0,1,.65.25L47,25.41V38H7V23a7,7,0,0,1,7-7H37.23m0-1H14a8,8,0,0,0-8,8V39H48V25l-9.43-9.48A2,2,0,0,0,37.23,15Z"/><path class="cls-1" d="M82,81H14a8,8,0,0,1-8-8V24H82a8,8,0,0,1,8,8V73A8,8,0,0,1,82,81Z"/><path class="cls-2" d="M48,39H6V23a8,8,0,0,1,8-8H37.23a2,2,0,0,1,1.34.52L48,25Z"/><path class="cls-1" d="M82,81H14a8,8,0,0,1-8-8V24H82a8,8,0,0,1,8,8V73A8,8,0,0,1,82,81Z"/></g></g><g id="Home"><g id="_96-2" data-name="96"><path class="cls-3" d="M49.56,38.28,63.39,51a2.3,2.3,0,0,1-1.55,4H34.16a2.3,2.3,0,0,1-1.55-4L46.44,38.28A2.31,2.31,0,0,1,49.56,38.28Z"/><path class="cls-3" d="M35,55v9a4,4,0,0,0,4,4h4V61a2,2,0,0,1,2-2h6a2,2,0,0,1,2,2v7h4a4,4,0,0,0,4-4V55Z"/></g></g></svg>