<svg id="图层_1" data-name="图层 1" xmlns="http://www.w3.org/2000/svg" viewBox="0 0 16 16"><defs><style>.cls-1{fill:#262626;}</style></defs><g id="黑色"><g id="回收站"><g id="WG_回收站_a-2" data-name="WG 回收站 a-2"><path id="形状结合-2" class="cls-1" d="M12,15H4a2,2,0,0,1-2-2V4H1V3H4V2A1,1,0,0,1,5,1h6a1,1,0,0,1,1,1V3h3V4H14v9A2,2,0,0,1,12,15ZM3,4v9a1,1,0,0,0,1,1h8a1,1,0,0,0,1-1V4ZM5,2V3h6V2Z"/><path id="矩形-4" class="cls-1" d="M6.51,6h0a.5.5,0,0,1,.5.5v5a.5.5,0,0,1-.5.5h0a.5.5,0,0,1-.5-.5v-5A.5.5,0,0,1,6.51,6Z"/><path id="矩形备份-2" class="cls-1" d="M9.5,6h0a.5.5,0,0,1,.5.5v5a.5.5,0,0,1-.5.5h0a.5.5,0,0,1-.5-.5v-5A.5.5,0,0,1,9.5,6Z"/></g></g></g></svg>