<svg id="图层_1" data-name="图层 1" xmlns="http://www.w3.org/2000/svg" viewBox="0 0 16 16"><defs><style>.cls-1{fill:#262626;}</style></defs><g id="黑色"><g id="桌面备份_4" data-name="桌面备份 4"><g id="编组_2备份-2" data-name="编组 2备份-2"><path id="矩形-10" class="cls-1" d="M3.5,13h9a.5.5,0,0,1,.5.5h0a.5.5,0,0,1-.5.5h-9a.5.5,0,0,1-.5-.5H3A.5.5,0,0,1,3.5,13Z"/><path class="cls-1" d="M13,12H3a2,2,0,0,1-2-2V4A2,2,0,0,1,3,2H13a2,2,0,0,1,2,2v6A2,2,0,0,1,13,12ZM3,3A1,1,0,0,0,2,4v6a1,1,0,0,0,1,1H13a1,1,0,0,0,1-1V4a1,1,0,0,0-1-1Z"/></g></g></g></svg>