<svg id="图层_1" data-name="图层 1" xmlns="http://www.w3.org/2000/svg" viewBox="0 0 16 16"><defs><style>.cls-1{fill:#262626;}</style></defs><g id="黑色"><g id="视频"><g id="编组_5备份" data-name="编组 5备份"><path class="cls-1" d="M13,14H3a2,2,0,0,1-2-2V4A2,2,0,0,1,3,2H13a2,2,0,0,1,2,2v8A2,2,0,0,1,13,14ZM3,3A1,1,0,0,0,2,4v8a1,1,0,0,0,1,1H13a1,1,0,0,0,1-1V4a1,1,0,0,0-1-1Z"/><path class="cls-1" d="M6.2,11.5A1.19,1.19,0,0,1,5,10.3V5.7A1,1,0,0,1,5.25,5a1.21,1.21,0,0,1,1.57-.3l3.73,2.4a1.18,1.18,0,0,1,.3.43A1.15,1.15,0,0,1,10.48,9L6.9,11.3A1.08,1.08,0,0,1,6.2,11.5Zm0-6A.19.19,0,0,0,6,5.58s0,.09,0,.12v4.6c0,.15.19.23.33.19l3.6-2.31A.15.15,0,0,0,10,8l-.09-.19L6.33,5.52A.42.42,0,0,0,6.19,5.49Z"/></g></g></g></svg>