<?xml version="1.0" encoding="utf-8"?>
<!-- Generator: Adobe Illustrator 14.0.0, SVG Export Plug-In . SVG Version: 6.00 Build 43363)  -->
<!DOCTYPE svg PUBLIC "-//W3C//DTD SVG 1.1//EN" "http://www.w3.org/Graphics/SVG/1.1/DTD/svg11.dtd">
<svg version="1.1"
	 id="svg2408" xmlns:dc="http://purl.org/dc/elements/1.1/" xmlns:svg="http://www.w3.org/2000/svg" xmlns:cc="http://creativecommons.org/ns#" xmlns:rdf="http://www.w3.org/1999/02/22-rdf-syntax-ns#" xmlns:inkscape="http://www.inkscape.org/namespaces/inkscape"
	 xmlns="http://www.w3.org/2000/svg" xmlns:xlink="http://www.w3.org/1999/xlink" x="0px" y="0px" width="96px" height="96px"
	 viewBox="0 0 96 96" enable-background="new 0 0 96 96" xml:space="preserve">
<g>
	
		<linearGradient id="SVGID_1_" gradientUnits="userSpaceOnUse" x1="8" y1="-48" x2="100" y2="-48" gradientTransform="matrix(1 0 0 -1 -6 0)">
		<stop  offset="0" style="stop-color:#000000"/>
		<stop  offset="1" style="stop-color:#000000;stop-opacity:0.5882"/>
	</linearGradient>
	<path opacity="0.08" fill="url(#SVGID_1_)" enable-background="new    " d="M10.5,93C5.813,93,2,89.188,2,84.5v-73
		C2,6.813,5.813,3,10.5,3h75c4.145,0,7.786,3.007,8.5,7v74.5c0,4.688-3.813,8.5-8.5,8.5H10.5z"/>
	
		<linearGradient id="SVGID_2_" gradientUnits="userSpaceOnUse" x1="9" y1="-48" x2="99" y2="-48" gradientTransform="matrix(1 0 0 -1 -6 0)">
		<stop  offset="0" style="stop-color:#000000"/>
		<stop  offset="1" style="stop-color:#000000;stop-opacity:0.5882"/>
	</linearGradient>
	<path opacity="0.1" fill="url(#SVGID_2_)" enable-background="new    " d="M10.5,92C6.364,92,3,88.636,3,84.5v-73
		C3,7.364,6.364,4,10.5,4h75c3.968,0,7.242,3.097,7.5,7v73.5c0,4.136-3.363,7.5-7.5,7.5H10.5z"/>
	
		<linearGradient id="SVGID_3_" gradientUnits="userSpaceOnUse" x1="10" y1="-48" x2="98" y2="-48" gradientTransform="matrix(1 0 0 -1 -6 0)">
		<stop  offset="0" style="stop-color:#000000"/>
		<stop  offset="1" style="stop-color:#000000;stop-opacity:0.5882"/>
	</linearGradient>
	<path opacity="0.2" fill="url(#SVGID_3_)" enable-background="new    " d="M10.5,91C6.916,91,4,88.084,4,84.5v-73
		C4,7.916,6.916,5,10.5,5h75c3.584,0,6.5,2.916,6.5,6.5v73c0,3.584-2.916,6.5-6.5,6.5H10.5z"/>
	
		<linearGradient id="SVGID_4_" gradientUnits="userSpaceOnUse" x1="54" y1="-8" x2="54" y2="-90.4195" gradientTransform="matrix(1 0 0 -1 -6 0)">
		<stop  offset="0" style="stop-color:#000000"/>
		<stop  offset="1" style="stop-color:#000000;stop-opacity:0.5882"/>
	</linearGradient>
	<path opacity="0.45" fill="url(#SVGID_4_)" enable-background="new    " d="M90,12.5c0-2.484-2.016-4.5-4.5-4.5h-75
		C8.015,8,6,10.016,6,12.5v18V63v22.5c0,2.486,2.015,4.5,4.5,4.5h75c2.484,0,4.5-2.014,4.5-4.5V12.5z"/>
</g>
<g>
	<path fill="#800430" d="M90,84.5c0,2.486-2.016,4.5-4.5,4.5h-75C8.015,89,6,86.986,6,84.5v-57c0-2.484,2.015-4.5,4.5-4.5h75
		c2.484,0,4.5,2.016,4.5,4.5V84.5z"/>
</g>
<linearGradient id="SVGID_5_" gradientUnits="userSpaceOnUse" x1="54" y1="-84.5" x2="54" y2="-5" gradientTransform="matrix(1 0 0 -1 -6 0)">
	<stop  offset="0" style="stop-color:#D70751"/>
	<stop  offset="1" style="stop-color:#E7466B"/>
</linearGradient>
<path fill="url(#SVGID_5_)" d="M90,80c0,2.486-2.016,4.5-4.5,4.5h-75C8.015,84.5,6,82.486,6,80V9.5C6,7.016,8.015,5,10.5,5h75
	C87.984,5,90,7.016,90,9.5V80z"/>
<path fill="#DF275E" d="M10.5,83c-1.654,0-3-1.346-3-3V9.5c0-1.654,1.346-3,3-3h75c1.654,0,3,1.346,3,3V80c0,1.654-1.346,3-3,3H10.5
	z"/>
<radialGradient id="SVGID_6_" cx="54" cy="-44.75" r="39.3911" gradientTransform="matrix(1 0 0 -1 -6 0)" gradientUnits="userSpaceOnUse">
	<stop  offset="0" style="stop-color:#FFFFFF"/>
	<stop  offset="1" style="stop-color:#FFFFFF;stop-opacity:0"/>
</radialGradient>
<path opacity="0.3" fill="url(#SVGID_6_)" enable-background="new    " d="M10.5,83c-1.654,0-3-1.346-3-3V9.5c0-1.654,1.346-3,3-3
	h75c1.654,0,3,1.346,3,3V80c0,1.654-1.346,3-3,3H10.5z"/>
<g opacity="0.2">
	
		<radialGradient id="SVGID_7_" cx="51.666" cy="-47" r="255.6427" gradientTransform="matrix(1 0 0 -1 -6 0)" gradientUnits="userSpaceOnUse">
		<stop  offset="0" style="stop-color:#FFFFFF"/>
		<stop  offset="1" style="stop-color:#FFFFFF;stop-opacity:0"/>
	</radialGradient>
	<polygon fill="url(#SVGID_7_)" points="22.984,83 32.59,83 88.5,27.091 88.5,17.485 	"/>
	
		<radialGradient id="SVGID_8_" cx="51.666" cy="-47" r="255.6422" gradientTransform="matrix(1 0 0 -1 -6 0)" gradientUnits="userSpaceOnUse">
		<stop  offset="0" style="stop-color:#FFFFFF"/>
		<stop  offset="1" style="stop-color:#FFFFFF;stop-opacity:0"/>
	</radialGradient>
	<polygon fill="url(#SVGID_8_)" points="43.738,6.5 7.5,42.738 7.5,52.344 53.344,6.5 	"/>
	
		<radialGradient id="SVGID_9_" cx="51.666" cy="-47" r="255.644" gradientTransform="matrix(1 0 0 -1 -6 0)" gradientUnits="userSpaceOnUse">
		<stop  offset="0" style="stop-color:#FFFFFF"/>
		<stop  offset="1" style="stop-color:#FFFFFF;stop-opacity:0"/>
	</radialGradient>
	<polygon fill="url(#SVGID_9_)" points="62.32,6.5 7.5,61.32 7.5,70.926 71.926,6.5 	"/>
	
		<radialGradient id="SVGID_10_" cx="51.666" cy="-47" r="255.6455" gradientTransform="matrix(1 0 0 -1 -6 0)" gradientUnits="userSpaceOnUse">
		<stop  offset="0" style="stop-color:#FFFFFF"/>
		<stop  offset="1" style="stop-color:#FFFFFF;stop-opacity:0"/>
	</radialGradient>
	<polygon fill="url(#SVGID_10_)" points="51.173,83 88.5,45.673 88.5,36.068 41.567,83 	"/>
	
		<radialGradient id="SVGID_11_" cx="51.666" cy="-47" r="255.6449" gradientTransform="matrix(1 0 0 -1 -6 0)" gradientUnits="userSpaceOnUse">
		<stop  offset="0" style="stop-color:#FFFFFF"/>
		<stop  offset="1" style="stop-color:#FFFFFF;stop-opacity:0"/>
	</radialGradient>
	<polygon fill="url(#SVGID_11_)" points="69.755,83 88.5,64.255 88.5,54.65 60.148,83 	"/>
	
		<radialGradient id="SVGID_12_" cx="51.665" cy="-47" r="255.6484" gradientTransform="matrix(1 0 0 -1 -6 0)" gradientUnits="userSpaceOnUse">
		<stop  offset="0" style="stop-color:#FFFFFF"/>
		<stop  offset="1" style="stop-color:#FFFFFF;stop-opacity:0"/>
	</radialGradient>
	<path fill="url(#SVGID_12_)" d="M85.5,83c1.654,0,3-1.348,3-3v-6.77L78.73,83H85.5z"/>
	
		<radialGradient id="SVGID_13_" cx="51.666" cy="-47" r="255.645" gradientTransform="matrix(1 0 0 -1 -6 0)" gradientUnits="userSpaceOnUse">
		<stop  offset="0" style="stop-color:#FFFFFF"/>
		<stop  offset="1" style="stop-color:#FFFFFF;stop-opacity:0"/>
	</radialGradient>
	<path fill="url(#SVGID_13_)" d="M10.5,83h3.508L88.361,8.647C87.991,7.41,86.855,6.5,85.5,6.5h-4.598L7.5,79.902V80
		C7.5,81.652,8.845,83,10.5,83z"/>
	
		<radialGradient id="SVGID_14_" cx="51.667" cy="-47" r="255.6434" gradientTransform="matrix(1 0 0 -1 -6 0)" gradientUnits="userSpaceOnUse">
		<stop  offset="0" style="stop-color:#FFFFFF"/>
		<stop  offset="1" style="stop-color:#FFFFFF;stop-opacity:0"/>
	</radialGradient>
	<path fill="url(#SVGID_14_)" d="M10.5,6.5c-1.654,0-3,1.346-3,3v5.576L16.076,6.5H10.5z"/>
	
		<radialGradient id="SVGID_15_" cx="51.666" cy="-47" r="255.6406" gradientTransform="matrix(1 0 0 -1 -6 0)" gradientUnits="userSpaceOnUse">
		<stop  offset="0" style="stop-color:#FFFFFF"/>
		<stop  offset="1" style="stop-color:#FFFFFF;stop-opacity:0"/>
	</radialGradient>
	<polygon fill="url(#SVGID_15_)" points="25.053,6.5 7.5,24.053 7.5,33.658 34.658,6.5 	"/>
</g>
<path id="path2536" inkscape:connector-curvature="0" fill="#FFFFFF" d="M69.584,39.71c0.07,1.889-0.551,2.807-1.113,4.43
	l-1.011,0.502c-0.826,1.605,0.082,1.02-0.51,2.297c-1.292,1.146-3.913,3.588-4.753,3.811c-0.614-0.014,0.414-0.725,0.549-1.001
	c-1.727,1.185-1.387,1.778-4.027,2.501l-0.076-0.173c-6.514,3.063-15.561-3.009-15.44-11.292c-0.068,0.525-0.197,0.395-0.342,0.605
	c-0.336-4.262,1.969-8.542,5.855-10.292c3.803-1.881,8.26-1.11,10.98,1.43c-1.494-1.959-4.473-4.036-8-3.844
	c-3.455,0.057-6.689,2.252-7.77,4.638c-1.771,1.114-1.977,4.297-2.747,4.88c-1.039,7.63,1.952,10.925,7.013,14.804
	c0.794,0.536,0.224,0.619,0.33,1.026c-1.681-0.786-3.22-1.976-4.485-3.431c0.673,0.983,1.397,1.938,2.335,2.688
	c-1.587-0.535-3.705-3.841-4.321-3.976c2.732,4.894,11.085,8.58,15.46,6.75c-2.025,0.074-4.596,0.041-6.869-0.799
	c-0.957-0.492-2.256-1.51-2.022-1.699c5.971,2.229,12.136,1.688,17.301-2.452c1.313-1.023,2.75-2.766,3.165-2.789
	c-0.624,0.94,0.105,0.452-0.373,1.282c1.309-2.112-0.568-0.86,1.354-3.646l0.709,0.978c-0.266-1.755,2.178-3.883,1.93-6.655
	c0.561-0.847,0.625,0.913,0.031,2.863c0.824-2.163,0.217-2.511,0.429-4.297c0.228,0.6,0.53,1.237,0.685,1.872
	c-0.539-2.091,0.549-3.521,0.819-4.736c-0.267-0.117-0.829,0.924-0.959-1.545c0.021-1.073,0.3-0.562,0.405-0.826
	c-0.209-0.121-0.762-0.944-1.098-2.521c0.241-0.372,0.65,0.961,0.981,1.015c-0.213-1.253-0.58-2.209-0.597-3.172
	c-0.969-2.025-0.342,0.271-1.127-0.869c-1.032-3.216,0.854-0.747,0.982-2.207c1.563,2.263,2.453,5.773,2.863,7.227
	c-0.313-1.772-0.816-3.49-1.434-5.151c0.477,0.201-0.767-3.646,0.617-1.099c-1.477-5.43-6.314-10.503-10.768-12.883
	c0.544,0.498,1.23,1.124,0.984,1.222c-2.215-1.317-1.826-1.421-2.145-1.978c-1.802-0.734-1.922,0.06-3.113,0.001
	c-3.402-1.805-4.057-1.613-7.187-2.742l0.142,0.666c-2.252-0.75-2.624,0.283-5.058,0.001c-0.147-0.115,0.78-0.419,1.545-0.529
	c-2.179,0.288-2.077-0.43-4.208,0.079c0.525-0.368,1.082-0.613,1.641-0.926c-1.775,0.108-4.24,1.034-3.479,0.191
	c-2.896,1.293-8.042,3.107-10.929,5.815l-0.091-0.606c-1.323,1.588-5.769,4.742-6.123,6.801l-0.354,0.082
	c-0.688,1.166-1.133,2.486-1.679,3.685c-0.899,1.535-1.319,0.591-1.192,0.832c-1.77,3.59-2.651,6.606-3.41,9.082
	c0.541,0.809,0.014,4.872,0.217,8.124C19.21,59.814,31.37,75.408,44.662,79.008c1.949,0.698,4.846,0.674,7.311,0.742
	c-2.908-0.832-3.283-0.439-6.116-1.428c-2.043-0.963-2.49-2.063-3.938-3.318l0.573,1.014c-2.838-1.006-1.65-1.244-3.96-1.975
	l0.612-0.799c-0.92-0.07-2.437-1.549-2.851-2.371l-1.008,0.04c-1.209-1.49-1.854-2.565-1.806-3.401l-0.325,0.58
	c-0.368-0.632-4.449-5.596-2.332-4.439c-0.394-0.357-0.916-0.584-1.483-1.614l0.431-0.492c-1.018-1.312-1.875-2.991-1.809-3.551
	c0.543,0.731,0.92,0.871,1.293,0.996c-2.572-6.384-2.717-0.351-4.664-6.496l0.411-0.033c-0.315-0.478-0.509-0.992-0.762-1.5
	l0.18-1.787c-1.851-2.139-0.518-9.104-0.249-12.923c0.184-1.553,1.545-3.206,2.58-5.799l-0.631-0.108
	c1.206-2.102,6.882-8.443,9.512-8.118c1.273-1.6-0.253-0.006-0.502-0.408c2.797-2.895,3.678-2.045,5.564-2.566
	c2.035-1.208-1.746,0.472-0.781-0.46c3.52-0.898,2.493-2.044,7.085-2.5c0.484,0.275-1.124,0.425-1.526,0.782
	c2.932-1.435,9.279-1.107,13.403,0.796c4.782,2.237,10.159,8.846,10.372,15.063l0.24,0.065c-0.121,2.472,0.379,5.331-0.489,7.956
	L69.584,39.71"/>
</svg>
