<?xml version="1.0" encoding="utf-8"?>
<!-- Generator: Adobe Illustrator 14.0.0, SVG Export Plug-In . SVG Version: 6.00 Build 43363)  -->
<!DOCTYPE svg PUBLIC "-//W3C//DTD SVG 1.1//EN" "http://www.w3.org/Graphics/SVG/1.1/DTD/svg11.dtd">
<svg version="1.1"
	 id="svg2408" xmlns:dc="http://purl.org/dc/elements/1.1/" xmlns:svg="http://www.w3.org/2000/svg" xmlns:cc="http://creativecommons.org/ns#" xmlns:rdf="http://www.w3.org/1999/02/22-rdf-syntax-ns#" xmlns:inkscape="http://www.inkscape.org/namespaces/inkscape"
	 xmlns="http://www.w3.org/2000/svg" xmlns:xlink="http://www.w3.org/1999/xlink" x="0px" y="0px" width="96px" height="96px"
	 viewBox="0 0 96 96" enable-background="new 0 0 96 96" xml:space="preserve">
<g>
	<linearGradient id="SVGID_1_" gradientUnits="userSpaceOnUse" x1="2" y1="48" x2="94" y2="48">
		<stop  offset="0" style="stop-color:#000000"/>
		<stop  offset="1" style="stop-color:#000000;stop-opacity:0.5882"/>
	</linearGradient>
	<path opacity="0.08" fill="url(#SVGID_1_)" enable-background="new    " d="M10.5,93C5.813,93,2,89.187,2,84.5v-73
		C2,6.813,5.813,3,10.5,3h75c4.145,0,7.786,3.007,8.5,7v74.5c0,4.687-3.813,8.5-8.5,8.5H10.5z"/>
	<linearGradient id="SVGID_2_" gradientUnits="userSpaceOnUse" x1="3" y1="48" x2="93" y2="48">
		<stop  offset="0" style="stop-color:#000000"/>
		<stop  offset="1" style="stop-color:#000000;stop-opacity:0.5882"/>
	</linearGradient>
	<path opacity="0.1" fill="url(#SVGID_2_)" enable-background="new    " d="M10.5,92C6.364,92,3,88.636,3,84.5v-73
		C3,7.364,6.364,4,10.5,4h75c3.968,0,7.242,3.097,7.5,7v73.5c0,4.136-3.364,7.5-7.5,7.5H10.5z"/>
	<linearGradient id="SVGID_3_" gradientUnits="userSpaceOnUse" x1="4" y1="48" x2="92" y2="48">
		<stop  offset="0" style="stop-color:#000000"/>
		<stop  offset="1" style="stop-color:#000000;stop-opacity:0.5882"/>
	</linearGradient>
	<path opacity="0.2" fill="url(#SVGID_3_)" enable-background="new    " d="M10.5,91C6.916,91,4,88.084,4,84.5v-73
		C4,7.916,6.916,5,10.5,5h75c3.584,0,6.5,2.916,6.5,6.5v73c0,3.584-2.916,6.5-6.5,6.5H10.5z"/>
	<linearGradient id="SVGID_4_" gradientUnits="userSpaceOnUse" x1="47.9995" y1="8" x2="47.9995" y2="90.4195">
		<stop  offset="0" style="stop-color:#000000"/>
		<stop  offset="1" style="stop-color:#000000;stop-opacity:0.5882"/>
	</linearGradient>
	<path opacity="0.45" fill="url(#SVGID_4_)" enable-background="new    " d="M90,12.5c0-2.484-2.016-4.5-4.5-4.5h-75
		C8.015,8,6,10.016,6,12.5v18V63v22.5c0,2.487,2.015,4.5,4.5,4.5h75c2.484,0,4.5-2.013,4.5-4.5V12.5z"/>
</g>
<g>
	<path fill="#436623" d="M90,84.5c0,2.487-2.016,4.5-4.5,4.5h-75C8.015,89,6,86.987,6,84.5v-57c0-2.484,2.015-4.5,4.5-4.5h75
		c2.484,0,4.5,2.016,4.5,4.5V84.5z"/>
</g>
<linearGradient id="SVGID_5_" gradientUnits="userSpaceOnUse" x1="48.0005" y1="84.5" x2="48.0005" y2="5.0005">
	<stop  offset="0" style="stop-color:#6A9F37"/>
	<stop  offset="1" style="stop-color:#92D74E"/>
</linearGradient>
<path fill="url(#SVGID_5_)" d="M90,80c0,2.487-2.016,4.5-4.5,4.5h-75C8.015,84.5,6,82.487,6,80V9.5C6,7.016,8.015,5,10.5,5h75
	C87.984,5,90,7.016,90,9.5V80z"/>
<path fill="#7EBB43" d="M10.5,83c-1.654,0-3-1.346-3-3V9.5c0-1.654,1.346-3,3-3h75c1.654,0,3,1.346,3,3V80c0,1.654-1.346,3-3,3H10.5
	z"/>
<radialGradient id="SVGID_6_" cx="48" cy="44.75" r="39.3911" gradientUnits="userSpaceOnUse">
	<stop  offset="0" style="stop-color:#FFFFFF"/>
	<stop  offset="1" style="stop-color:#FFFFFF;stop-opacity:0"/>
</radialGradient>
<path opacity="0.3" fill="url(#SVGID_6_)" d="M10.5,83c-1.654,0-3-1.346-3-3V9.5c0-1.654,1.346-3,3-3h75c1.654,0,3,1.346,3,3V80
	c0,1.654-1.346,3-3,3H10.5z"/>
<g opacity="0.2">
	<radialGradient id="SVGID_7_" cx="45.6665" cy="47" r="255.6421" gradientUnits="userSpaceOnUse">
		<stop  offset="0" style="stop-color:#FFFFFF"/>
		<stop  offset="1" style="stop-color:#FFFFFF;stop-opacity:0"/>
	</radialGradient>
	<polygon fill="url(#SVGID_7_)" points="22.984,83 32.59,83 88.5,27.091 88.5,17.485 	"/>
	<radialGradient id="SVGID_8_" cx="45.6665" cy="47" r="255.6422" gradientUnits="userSpaceOnUse">
		<stop  offset="0" style="stop-color:#FFFFFF"/>
		<stop  offset="1" style="stop-color:#FFFFFF;stop-opacity:0"/>
	</radialGradient>
	<polygon fill="url(#SVGID_8_)" points="43.738,6.5 7.5,42.738 7.5,52.344 53.344,6.5 	"/>
	<radialGradient id="SVGID_9_" cx="45.6665" cy="47" r="255.6426" gradientUnits="userSpaceOnUse">
		<stop  offset="0" style="stop-color:#FFFFFF"/>
		<stop  offset="1" style="stop-color:#FFFFFF;stop-opacity:0"/>
	</radialGradient>
	<polygon fill="url(#SVGID_9_)" points="62.32,6.5 7.5,61.32 7.5,70.926 71.926,6.5 	"/>
	<radialGradient id="SVGID_10_" cx="45.6665" cy="47" r="255.6421" gradientUnits="userSpaceOnUse">
		<stop  offset="0" style="stop-color:#FFFFFF"/>
		<stop  offset="1" style="stop-color:#FFFFFF;stop-opacity:0"/>
	</radialGradient>
	<polygon fill="url(#SVGID_10_)" points="51.173,83 88.5,45.673 88.5,36.068 41.567,83 	"/>
	<radialGradient id="SVGID_11_" cx="45.6665" cy="47" r="255.6421" gradientUnits="userSpaceOnUse">
		<stop  offset="0" style="stop-color:#FFFFFF"/>
		<stop  offset="1" style="stop-color:#FFFFFF;stop-opacity:0"/>
	</radialGradient>
	<polygon fill="url(#SVGID_11_)" points="69.755,83 88.5,64.255 88.5,54.65 60.149,83 	"/>
	<radialGradient id="SVGID_12_" cx="45.6665" cy="47" r="255.6421" gradientUnits="userSpaceOnUse">
		<stop  offset="0" style="stop-color:#FFFFFF"/>
		<stop  offset="1" style="stop-color:#FFFFFF;stop-opacity:0"/>
	</radialGradient>
	<path fill="url(#SVGID_12_)" d="M85.5,83c1.655,0,3-1.347,3-3v-6.769L78.731,83H85.5z"/>
	<radialGradient id="SVGID_13_" cx="45.6665" cy="47" r="255.6419" gradientUnits="userSpaceOnUse">
		<stop  offset="0" style="stop-color:#FFFFFF"/>
		<stop  offset="1" style="stop-color:#FFFFFF;stop-opacity:0"/>
	</radialGradient>
	<path fill="url(#SVGID_13_)" d="M10.5,83h3.508L88.361,8.647C87.991,7.41,86.855,6.5,85.5,6.5h-4.598L7.5,79.902V80
		C7.5,81.653,8.845,83,10.5,83z"/>
	<radialGradient id="SVGID_14_" cx="45.6665" cy="47" r="255.6419" gradientUnits="userSpaceOnUse">
		<stop  offset="0" style="stop-color:#FFFFFF"/>
		<stop  offset="1" style="stop-color:#FFFFFF;stop-opacity:0"/>
	</radialGradient>
	<path fill="url(#SVGID_14_)" d="M10.5,6.5c-1.654,0-3,1.346-3,3v5.576L16.076,6.5H10.5z"/>
	<radialGradient id="SVGID_15_" cx="45.6665" cy="47" r="255.6414" gradientUnits="userSpaceOnUse">
		<stop  offset="0" style="stop-color:#FFFFFF"/>
		<stop  offset="1" style="stop-color:#FFFFFF;stop-opacity:0"/>
	</radialGradient>
	<polygon fill="url(#SVGID_15_)" points="25.053,6.5 7.5,24.053 7.5,33.658 34.658,6.5 	"/>
</g>
<g id="layer4_3_">
	<path id="path3905" opacity="0.05" enable-background="new    " d="M46.156,22.351c-1.915,0.001-3.607,0.023-4.813,0.156
		c-5.379,0.595-10.211,2.078-15.375,4.656c-8.283,4.136-13.954,9.091-17.125,15.531c-1.396,2.836-2.015,5.364-2.031,8.407
		c-0.01,1.885,0.205,3.32,0.719,4.938c1.965,6.187,7.551,10.58,14.031,11.063c6.027,0.448,11.391-2.27,13.594-7.469
		c0.271-0.639,0.429-1.298,0.563-1.938l4.438,2.125l0.031,0.031c0.031,0.012,0.063,0.021,0.094,0.031
		c0.041,0.02,0.094,0.031,0.094,0.031c0.041,0.013,0.083,0.023,0.125,0.031c0.055,0.021,0.094,0.063,0.094,0.063l0.219,0.063
		l0.25,0.031c0,0-0.008-0.008,0.031,0c0.02,0.004,0.048,0.028,0.063,0.031c0.002,0,0.029,0,0.031,0l0.375,0.031h0.188
		c0.02,0,0.048,0,0.063,0c0.008,0,0.026,0,0.031,0l0.406-0.063c0,0,0.023-0.023,0.063-0.031s0.188-0.031,0.188-0.031
		s0.186-0.062,0.188-0.063c0.004-0.002-0.006-0.028,0-0.031c0,0,0.156-0.047,0.188-0.063s0.031-0.031,0.031-0.031
		c0.02-0.008,0.048-0.025,0.063-0.031c0.008-0.003,0.027,0.002,0.031,0c0,0,0.146-0.084,0.219-0.125
		c0.003-0.002-0.006-0.028,0-0.031s0.023,0.004,0.031,0c0.021-0.013,0.041-0.019,0.063-0.031c0.006-0.003,0.027,0.002,0.031,0
		c0,0,0.263-0.244,0.344-0.313c0.012-0.01,0.063-0.031,0.063-0.031c0.002-0.002-0.002-0.029,0-0.031
		c0.003-0.004,0.027,0.006,0.031,0c0.009-0.012,0.02-0.016,0.031-0.031s0.022-0.051,0.031-0.063c-0.021,0.01-0.042,0.02-0.063,0.031
		c0.244-0.227,0.551-0.477,0.75-0.938c0.096-0.223,0.127-0.409,0.156-0.563c0.002-0.008-0.002-0.023,0-0.031
		c0.014-0.079,0.053,0.012,0.031-0.344c0.006-0.055,0.027-0.143,0.031-0.188c0.02-0.256,0.036-0.473,0.031-0.563
		c-0.018-0.327-0.082-0.517-0.125-0.688c-0.002-0.071-0.027-0.102-0.031-0.156c-0.002-0.018,0.002-0.043,0-0.063
		c-0.008-0.1,0.006-0.203,0-0.313c-0.02-0.355-0.059-0.688-0.063-1c-0.004-0.357-0.014-0.77,0-1.094
		c0.007-0.162,0.024-0.304,0.031-0.406s0.022-0.254,0-0.125c0.112-0.643,0.177-0.912,0.188-0.938S44.75,51.816,45,51.57
		c0.321-0.318,0.494-0.434,0.781-0.531s0.772-0.155,1.625-0.156c2.074-0.002,3.349,0.53,5.031,2.219
		c0.39,0.391,1.496,1.52,2.219,2.344c0.417,0.475,0.815,0.947,1.156,1.313c0.13,0.14,0.254,0.252,0.438,0.438
		c0.182,0.183,0.403,0.394,0.688,0.594c0.361,0.254,0.685,0.357,0.781,0.406c0.121,0.062,0.4,0.254,0.781,0.438
		c0.607,0.293,1.365,0.648,2.125,1c0.771,0.356,1.51,0.664,2.063,0.906c0.232,0.102,0.46,0.227,0.75,0.344
		c0.064,0.025,0.189,0.094,0.375,0.156c0.059,0.02,0.106,0.017,0.156,0.031c0.066,0.027,0.074,0.025,0.094,0.031
		c0.053,0.018,0.092,0.023,0.125,0.031c0.016,0.004,0.043-0.004,0.063,0c0.061,0.008,0.15,0.031,0.188,0.031
		c0.031,0.006,0.059,0.026,0.094,0.031c0.066,0.01,0.103,0.027,0.188,0.031c0.045,0.002,0.094,0,0.156,0
		c0.148,0,0.361-0.014,0.625-0.063c0.404-0.074,0.926-0.345,0.656-0.219c0.043-0.02,0.068-0.032,0.125-0.063
		c0.014-0.008,0.034-0.014,0.063-0.031c0.006-0.004,0.018-0.021,0.031-0.031c0.034-0.024,0.068-0.043,0.094-0.063
		c0.022-0.014,0.012-0.018,0.031-0.031c0.03-0.021,0.039-0.012,0.063-0.031c-0.119,0.071-0.115,0.082,0.125-0.063
		c0.021-0.013,0.012-0.019,0.031-0.031c0.096-0.058,0.047-0.024,0.094-0.063c0.021-0.02,0.043-0.041,0.063-0.063
		c0.02-0.023,0.096-0.057,0.094-0.063c0,0,0.006-0.014,0.031-0.031c0.011-0.01,0.021-0.021,0.031-0.031
		c0.004-0.003,0.025,0.004,0.031,0s0.015-0.02,0.031-0.031c0.008-0.006,0.041-0.014,0.063-0.031
		c0.012-0.009,0.031-0.031,0.031-0.031s0.014-0.043,0.031-0.063c-0.012,0.012-0.062,0.119,0.125-0.125
		c0.01-0.011,0.021-0.021,0.031-0.031c0.01-0.011,0.021-0.021,0.031-0.031c0.006-0.011-0.007-0.02,0-0.031
		c0,0,0.02-0.012,0.031-0.031c0.01-0.014-0.009-0.019,0-0.031c0.01-0.018,0.023-0.019,0.031-0.031v-0.031L67.5,59.82
		c0.04-0.068,0.1-0.146,0.125-0.188c-0.008,0.012,0.199-0.259,0.313-0.594c0.094-0.279,0.108-0.514,0.125-0.688
		c0.002-0.024-0.002-0.041,0-0.063c0.012-0.031,0.021-0.063,0.031-0.094c0-0.02,0-0.045,0-0.063c0-0.032-0.011,0.026-0.031-0.156
		c-0.002-0.018,0.005-0.066,0-0.094c-0.002-0.014,0.002-0.019,0-0.031C68.035,57.617,68,57.29,68,57.289
		c0.04,0.171-0.053-0.249-0.219-0.625c-0.147-0.333-0.393-0.69-0.281-0.5c-0.193-0.332-0.355-0.555-0.469-0.719
		c-0.836-1.212-1.689-3.207-1.906-4.188c0.014,0.063-0.054-0.645-0.031-1.063c0.004-0.072-0.006-0.119,0-0.188
		c0.123-0.006,0.236-0.001,0.375,0c0.615,0.004,1.481,0.045,2.469,0.156c2.664,0.301,4.38,0.362,6.281,0.219
		c4.112-0.311,7.232-1.042,10.406-2.594c0.787-0.385,1.5-0.769,2.188-1.375c0.806-0.711,1.236-1.568,1.5-2.281
		c0.212-0.573,0.373-1.159,0.469-1.719c0.043-0.256,0.111-0.594,0.094-1c0-0.013,0-0.019,0-0.031
		c-0.001-0.023-0.028-0.058-0.031-0.094c0-0.008,0.001-0.023,0-0.031c-0.01-0.032-0.02-0.063-0.031-0.094
		c-0.006-0.05,0.01-0.095,0-0.156c-0.013-0.081-0.071-0.215-0.094-0.313c0.066-0.102,0.121-0.191,0.188-0.344
		c0.187-0.427,0.281-0.875,0.281-1.313c0-0.286-0.059-0.512-0.094-0.688c-0.018-0.087-0.017-0.164-0.031-0.219
		c0.024,0.106-0.018-0.016-0.031-0.094c-0.004-0.011,0.008-0.01,0-0.031c-0.004-0.025-0.025-0.064-0.031-0.094
		c-0.018-0.094-0.027-0.185-0.063-0.313c-0.114-0.416-0.25-0.815-0.375-1.219c-0.279-0.906-0.604-1.875-0.875-2.594
		c-0.616-1.634-1.213-2.954-2.094-4.094c-0.901-1.166-2.05-2.022-3.313-2.625c-2.404-1.146-5-1.892-9.313-2.875
		c-2.005-0.426-4.15-0.906-6.406-1.188c0,0-0.153-0.031-0.156-0.031h-0.188c-0.01,0-0.021,0-0.031,0h-0.094c-0.01,0-0.021,0-0.031,0
		c-0.023,0-0.156,0.031-0.156,0.031s-0.023-0.001-0.031,0c-0.009,0-0.02,0-0.031,0s-0.053,0-0.063,0c0,0-0.057,0.025-0.094,0.031
		c-0.014,0.002-0.021-0.001-0.031,0c-0.027,0.004-0.032-0.005-0.063,0c-0.094,0.015-0.186,0.031-0.188,0.031
		c-0.009,0.003-0.02,0.027-0.031,0.031c-0.032,0.01-0.076,0.025-0.094,0.031c-0.023,0.008-0.031,0-0.031,0
		c-0.016,0.004-0.02-0.003-0.031,0c-0.006,0.001-0.027-0.001-0.031,0s0,0.031,0,0.031s-0.102,0.023-0.125,0.031
		s-0.156,0.031-0.156,0.031s-0.278,0.154-0.281,0.156c-0.009,0.006-0.02,0.023-0.031,0.031c-0.02,0.012-0.038,0.016-0.063,0.031
		c-0.016,0.01-0.025,0.027-0.031,0.031c-0.014,0.008-0.031,0-0.031,0c-0.057,0.036-0.25,0.156-0.25,0.156
		c-0.004,0.003-0.028,0.029-0.031,0.031c0,0-0.157,0.125-0.25,0.219l-0.063,0.063c0,0.01,0,0.021,0,0.031
		c0,0-0.008,0.008-0.031,0.031c-0.006,0.009,0.008,0.02,0,0.031c-0.019,0.019-0.072,0.008-0.094,0.031
		c0.006-0.006,0.007,0.023,0,0.031c-0.008,0.009-0.031,0.031-0.031,0.031c-0.02,0.025-0.074,0.121-0.125,0.188
		c-0.006,0.008,0.004,0.025,0,0.031c-0.011,0.014-0.063,0.031-0.063,0.031s-0.053,0.075-0.094,0.156
		c-0.016,0.021-0.027,0.057-0.031,0.063c-0.008,0.012-0.025,0.022-0.031,0.031c-0.002,0.004,0,0.031,0,0.031
		c-0.002,0.004,0.004,0.024,0,0.031c-0.01-0.003-0.021,0.003-0.031,0c-3.498-0.962-6.923-1.749-10.563-2.125
		C51.234,22.41,48.642,22.35,46.156,22.351z"/>
	<path id="path3901" opacity="0.1" enable-background="new    " d="M46.156,23.539c-1.914,0.001-3.614,0.006-4.688,0.125
		c-5.242,0.58-9.901,2.033-14.969,4.563c-8.141,4.064-13.563,8.841-16.594,15C8.568,45.945,8.016,48.205,8,51.102
		c-0.01,1.802,0.174,3.075,0.656,4.594c1.818,5.727,6.997,9.804,13,10.25c5.637,0.419,10.407-2.064,12.406-6.781
		c0.551-1.301,0.75-2.594,0.75-3.938c0.011,0.031,0.031,0.063,0.031,0.063l0.031,0.125l0.031,0.094l0.063,0.094l0.063,0.094
		l0.063,0.094l0.094,0.094l0.063,0.094l0.094,0.094l0.063,0.063l0.094,0.063l0.094,0.094l0.094,0.063l0.125,0.031
		c0,0.01,0,0.021,0,0.031l4.875,2.375v-0.031l0.125,0.063l0.156,0.063l0.125,0.031l0.156,0.031l0.156,0.031h0.156h0.125h0.156
		L42,58.945l0.156-0.031l0.125-0.063l0.125-0.063l0.156-0.063l0.125-0.094l0.125-0.063l0.094-0.125
		c0.227-0.207,0.429-0.418,0.531-0.656s0.124-0.499,0.094-0.375c0.043-0.177,0.06-0.339,0.063-0.375c0.013-0.17,0.005-0.313,0-0.406
		c-0.016-0.287-0.078-0.492-0.125-0.688c0.018,0.072-0.015-0.229-0.031-0.531s-0.059-0.676-0.063-1.063
		c-0.01-0.775,0.04-1.686,0.063-1.813c0.227-1.297,0.252-1.32,0.75-1.813c0.771-0.764,1.398-1.029,3.219-1.031
		c2.32-0.002,4.042,0.723,5.875,2.563c0.42,0.421,1.497,1.549,2.25,2.406c0.408,0.466,0.825,0.926,1.156,1.281
		c0.148,0.16,0.255,0.285,0.406,0.438c0.119,0.12,0.297,0.271,0.531,0.438c0.258,0.182,0.449,0.254,0.625,0.344
		c0.206,0.105,0.439,0.256,0.75,0.406c0.597,0.289,1.369,0.65,2.125,1s1.476,0.662,2.031,0.906c0.247,0.108,0.463,0.209,0.719,0.313
		c0.101,0.041,0.209,0.09,0.313,0.125c0.223,0.076,0.242,0.061,0.25,0.063c-0.076-0.018,0.145,0.053,0.344,0.063
		c-0.135-0.007,0.202,0.023,0.5-0.031c0.317-0.059,0.307-0.093,0.375-0.125s0.063-0.031,0.063-0.031s0.091-0.061,0.094-0.063
		s0.027,0.002,0.031,0c0.009-0.006,0.017-0.022,0.031-0.031c0.029-0.018,0.055-0.039,0.094-0.063s0.096-0.045,0.125-0.063
		c0.015-0.009,0.022-0.025,0.031-0.031l-0.5-0.844l0.688,0.688c0,0,0.092-0.061,0.094-0.063s-0.001-0.029,0-0.031
		c0.004-0.006,0.024-0.021,0.031-0.031c0.014-0.018,0.042-0.035,0.063-0.063c0.041-0.056,0.055-0.1,0.125-0.219
		c0.047-0.079,0.124-0.186,0.188-0.375c0.107-0.317,0.096-0.626,0.094-0.563c0.012-0.264-0.063-0.529-0.063-0.531
		c-0.021-0.088-0.01-0.178-0.125-0.438c-0.087-0.197-0.186-0.318-0.219-0.375c-0.156-0.268-0.305-0.463-0.438-0.656
		c-0.945-1.371-1.82-3.357-2.094-4.594c-0.053-0.238-0.09-0.852-0.063-1.375c0.014-0.262,0.037-0.506,0.063-0.688
		s0.106-0.361,0.031-0.188c0.01-0.023,0.114-0.154,0.219-0.25s0.234-0.18,0.156-0.156c-0.131,0.039,0.046,0.012,0.25,0
		s0.501-0.033,0.844-0.031c0.686,0.004,1.581,0.072,2.594,0.188c2.627,0.297,4.238,0.356,6.063,0.219
		c4.018-0.305,6.928-1.014,9.969-2.5c0.771-0.377,1.379-0.695,1.938-1.188c0.61-0.539,0.966-1.213,1.188-1.813
		c0.188-0.506,0.324-1.017,0.406-1.5c0.041-0.239,0.078-0.502,0.063-0.781c0,0.009-0.01-0.423-0.188-0.813
		c-0.031-0.068-0.061-0.07-0.094-0.125c0.068-0.072,0.138-0.168,0.219-0.281c-0.057,0.08,0.111-0.098,0.219-0.344
		S88,39.355,88,39.039c0-0.364-0.096-0.667-0.094-0.656c-0.013-0.054-0.028-0.23-0.094-0.469c-0.095-0.346-0.24-0.751-0.375-1.188
		c-0.275-0.893-0.591-1.86-0.844-2.531c-0.6-1.587-1.163-2.78-1.938-3.781c-0.782-1.012-1.751-1.745-2.875-2.281
		c-2.284-1.09-4.775-1.804-9.063-2.781c-2.02-0.429-4.135-0.916-6.313-1.188h-0.094h-0.125h-0.094H66l-0.125,0.031h-0.094
		l-0.094,0.031l-0.094,0.031l-0.125,0.031l-0.094,0.031l-0.094,0.031l-0.094,0.063l-0.094,0.063l-0.063,0.031l-0.094,0.063
		l-0.094,0.063l-0.063,0.094l-0.063,0.063l-0.094,0.094l-0.063,0.063L64.5,25.039l-0.031,0.094l-0.063,0.063l-0.063,0.094
		l-0.031,0.094l-0.031,0.125l-0.031,0.094l-0.031,0.094l-0.031,0.094v0.125l-0.031,0.094v0.094c-3.859-1.103-7.563-1.968-11.5-2.375
		C51.232,23.579,48.628,23.537,46.156,23.539z"/>
	<path id="path3897" opacity="0.15" enable-background="new    " d="M46.156,24.539c-1.908,0.001-3.639,0.02-4.594,0.125
		c-5.13,0.568-9.641,1.949-14.625,4.438c-8.02,4.004-13.209,8.638-16.125,14.563C9.519,46.292,9.016,48.322,9,51.102
		c-0.01,1.744,0.137,2.844,0.594,4.281c1.695,5.338,6.527,9.146,12.125,9.563c5.322,0.396,9.607-1.838,11.438-6.156
		c0.66-1.559,0.838-3.036,0.656-4.719c-0.451-4.188-3.26-7.504-7.281-8.563c-1.355-0.357-3.053-0.371-4.406,0
		c-3.426,0.938-6.055,4.225-5.125,8.094c0.833,3.465,4.758,5.553,8.156,4.188c0.628-0.252,1.238-0.566,1.688-1.156
		s0.561-1.423,0.344-2.219c-0.215-0.793-0.729-1.551-1.5-1.844s-1.588-0.185-2.469,0.063c-0.375,0.105-0.22,0.126-0.531-0.156
		c-0.196-0.178-0.252-0.31-0.25-0.469s0.051-0.372,0.281-0.594c0.543-0.523,1.863-0.672,3.188,0c0.543,0.275,1.121,0.876,1.5,1.625
		s0.559,1.627,0.469,2.281c-0.228,1.656-0.994,2.591-2.594,3.125c-0.593,0.198-0.594,0.191-2.063,0.188
		c-1.594-0.004-1.438,0.043-2.313-0.25c-2.974-0.999-4.92-3.689-4.938-6.813c-0.012-1.99,0.654-3.458,2.281-5.063
		c1.467-1.447,3.282-2.157,5.813-2.156c3.155,0.001,5.628,1.063,7.938,3.375c1.708,1.709,3.066,4.071,3.563,6.282v0.031l0.156,0.75
		c0.055,0.31,0.252,0.576,0.531,0.719l4.875,2.375c0.371,0.186,0.818,0.123,1.125-0.156c0.307-0.281,0.289-0.434,0.313-0.531
		s0.027-0.164,0.031-0.219c0.008-0.108,0.004-0.193,0-0.281c-0.01-0.175-0.047-0.334-0.094-0.531
		c-0.109-0.464-0.154-3.076-0.031-3.781c0.237-1.355,0.439-1.789,1.031-2.375c0.931-0.92,1.954-1.311,3.906-1.313
		c2.553-0.002,4.621,0.896,6.594,2.875c0.441,0.443,1.504,1.551,2.281,2.438c0.404,0.46,0.805,0.906,1.125,1.25
		c0.16,0.172,0.289,0.318,0.406,0.438s0.161,0.162,0.375,0.313c0.202,0.143,0.294,0.176,0.5,0.281s0.45,0.23,0.75,0.375
		c0.6,0.289,1.351,0.656,2.094,1s1.474,0.662,2.031,0.906c0.279,0.123,0.507,0.24,0.688,0.313c0.09,0.037,0.17,0.066,0.25,0.094
		c0.04,0.014,0.08,0.014,0.156,0.031c0.038,0.009,0.084,0.025,0.188,0.031c0.053,0.002,0.133,0.021,0.25,0
		c0.059-0.011,0.219-0.094,0.219-0.094l0.313-0.188c0,0,0.117-0.151,0.156-0.219s0.074-0.129,0.094-0.188
		c0.039-0.117,0.028-0.207,0.031-0.281c0.006-0.146-0.017-0.219-0.031-0.281c-0.029-0.124-0.038-0.195-0.063-0.25
		c-0.049-0.109-0.103-0.189-0.156-0.281c-0.107-0.184-0.254-0.373-0.406-0.594c-1.029-1.49-1.932-3.505-2.25-4.938
		c-0.19-0.859-0.038-2.572,0.094-2.875c0.182-0.418,0.669-0.839,1-0.938c0.313-0.094,1.994-0.145,4.094,0.094
		c2.6,0.294,4.115,0.352,5.875,0.219c3.939-0.298,6.66-0.973,9.594-2.406c0.761-0.372,1.278-0.643,1.719-1.031
		s0.721-0.904,0.906-1.406c0.173-0.467,0.309-0.925,0.375-1.313c0.033-0.194,0.043-0.336,0.031-0.563
		c-0.006-0.113,0.008-0.246-0.094-0.469c-0.086-0.188-0.451-0.437-0.813-0.531c0.224-0.157,0.426-0.301,0.594-0.438
		c0.094-0.077,0.193-0.129,0.281-0.219c0.045-0.045,0.094-0.101,0.156-0.188S87,39.485,87,39.039c0-0.285-0.034-0.313-0.063-0.438
		s-0.049-0.275-0.094-0.438c-0.089-0.324-0.21-0.723-0.344-1.156c-0.268-0.868-0.6-1.821-0.844-2.469
		c-0.586-1.552-1.104-2.655-1.781-3.531s-1.506-1.48-2.531-1.969c-2.187-1.043-4.58-1.747-8.844-2.719
		c-2.025-0.43-4.104-0.893-6.219-1.156c-0.551-0.067-1.051,0.324-1.118,0.875c-0.003,0.031-0.006,0.063-0.007,0.094l-0.031,1.25
		c-4.3-1.283-8.273-2.213-12.563-2.656C51.247,24.59,48.613,24.537,46.156,24.539z"/>
	<path id="path3889" inkscape:connector-curvature="0" opacity="0.3" enable-background="new    " d="M46.171,25.539
		c-1.896,0.001-3.654,0.044-4.481,0.136c-5.019,0.555-9.424,1.891-14.325,4.338c-7.899,3.944-12.86,8.408-15.661,14.097
		c-1.254,2.547-1.688,4.333-1.703,7.002c-0.008,1.688,0.115,2.583,0.551,3.957c1.571,4.946,6.049,8.477,11.236,8.862
		c5.02,0.373,8.75-1.613,10.416-5.546c0.604-1.425,0.785-2.663,0.617-4.224c-0.412-3.814-2.879-6.717-6.525-7.676
		c-1.117-0.295-2.836-0.304-3.932-0.004c-3.005,0.822-5.19,3.532-4.387,6.875c0.682,2.836,3.996,4.613,6.799,3.487
		c1.119-0.449,1.77-0.993,1.446-2.188c-0.331-1.218-1.147-1.505-2.713-1.065c-0.616,0.173-1.052,0.063-1.513-0.355
		c-0.773-0.699-0.761-1.77,0.031-2.533c0.965-0.93,2.729-1.008,4.34-0.19c1.594,0.81,2.758,3.1,2.506,4.931
		c-0.27,1.966-1.397,3.322-3.288,3.954c-0.631,0.211-0.892,0.235-2.38,0.231c-1.596-0.004-1.714-0.019-2.611-0.32
		c-3.367-1.131-5.591-4.198-5.611-7.74c-0.014-2.236,0.781-4.042,2.545-5.784c1.658-1.637,3.799-2.436,6.525-2.435
		c3.391,0.001,6.205,1.186,8.67,3.653c1.854,1.857,3.255,4.373,3.795,6.811l0.171,0.774l4.868,2.387
		c0.039-0.035,0.027-0.363-0.025-0.586c-0.199-0.844-0.23-3.192-0.058-4.186c0.253-1.445,0.595-2.197,1.323-2.918
		c1.123-1.111,2.51-1.59,4.615-1.592c2.799-0.002,5.174,1.024,7.298,3.157c0.477,0.478,1.516,1.611,2.311,2.518
		c0.795,0.905,1.567,1.733,1.716,1.838c0.418,0.295,6.092,2.893,6.162,2.822c0.034-0.034-0.167-0.396-0.449-0.805
		c-1.105-1.604-2.043-3.667-2.402-5.286c-0.246-1.108-0.178-2.743,0.146-3.488c0.304-0.698,0.95-1.287,1.634-1.49
		c0.731-0.219,2.33-0.205,4.475,0.037c2.572,0.291,3.994,0.348,5.691,0.219c3.862-0.292,6.391-0.928,9.223-2.311
		c1.479-0.724,1.794-1.003,2.114-1.868c0.306-0.825,0.45-1.614,0.294-1.614c-0.055,0-0.574,0.224-1.154,0.498
		c-2.18,1.029-4.05,1.487-5.711,1.398c-1.727-0.092-4.554-1.041-7.909-2.654l-1.528-0.735l-1.247-2.987l1.165,0.726
		c1.916,1.272,5.014,2.795,6.902,3.393c2.885,0.913,5.182,0.793,7.504-0.39C84.464,40.253,86,39.199,86,39.053
		c0-0.275-0.821-2.945-1.279-4.157c-1.143-3.031-1.922-4.041-3.807-4.94c-2.093-0.998-4.398-1.713-8.638-2.68
		c-2.026-0.43-4.064-0.847-6.122-1.103l-0.05,2.511c-4.793-1.491-8.985-2.476-13.629-2.956
		C51.275,25.605,48.609,25.538,46.171,25.539L46.171,25.539z M77.926,30.682c1.549-0.004,3.025,0.792,3.891,2.232
		c1.473,2.456,0.266,5.646-2.492,6.576c-1.818,0.614-3.984-0.12-5.086-1.722c-0.903-1.315-1.055-3.013-0.398-4.436
		c0.373-0.809,1.26-1.766,1.981-2.134C76.502,30.852,77.223,30.684,77.926,30.682z M77.875,31.995
		c-0.725,0.016-1.465,0.285-2.089,0.85c-0.952,0.862-1.259,2.422-0.709,3.611c0.452,0.977,1.307,1.651,2.304,1.814
		c1.416,0.231,2.756-0.429,3.343-1.649c0.401-0.835,0.474-1.408,0.272-2.194C80.597,32.865,79.26,31.965,77.875,31.995
		L77.875,31.995z M78.615,33.609c0.539,0,1.186,0.336,1.267,0.659c0.11,0.439-0.038,0.743-0.466,0.961
		c-0.658,0.336-1.504,0.241-2-0.225C76.805,34.429,77.511,33.609,78.615,33.609z"/>
	
		<linearGradient id="Geeko_1_" gradientUnits="userSpaceOnUse" x1="306" y1="-314.9761" x2="306" y2="-276.5391" gradientTransform="matrix(1 0 0 -1 -258 -252)">
		<stop  offset="0" style="stop-color:#E1E1E1"/>
		<stop  offset="1" style="stop-color:#FFFFFF"/>
	</linearGradient>
	<path id="Geeko" inkscape:connector-curvature="0" fill="url(#Geeko_1_)" d="M46.171,24.539c-1.896,0.001-3.654,0.044-4.481,0.136
		c-5.019,0.555-9.424,1.891-14.325,4.338c-7.899,3.944-12.86,8.408-15.661,14.097c-1.254,2.547-1.688,4.333-1.703,7.002
		c-0.008,1.688,0.115,2.583,0.551,3.957c1.571,4.946,6.049,8.477,11.236,8.862c5.02,0.373,8.75-1.613,10.416-5.546
		c0.604-1.425,0.785-2.663,0.617-4.224c-0.412-3.814-2.879-6.717-6.525-7.676c-1.117-0.295-2.836-0.304-3.932-0.004
		c-3.005,0.822-5.19,3.532-4.387,6.875c0.682,2.836,3.996,4.613,6.799,3.487c1.119-0.449,1.77-0.993,1.446-2.188
		c-0.331-1.218-1.147-1.505-2.713-1.065c-0.616,0.173-1.052,0.063-1.513-0.355c-0.773-0.699-0.761-1.77,0.031-2.533
		c0.965-0.93,2.729-1.008,4.34-0.19c1.594,0.81,2.758,3.1,2.506,4.931c-0.27,1.966-1.397,3.322-3.288,3.954
		c-0.631,0.211-0.892,0.235-2.38,0.231c-1.596-0.004-1.714-0.019-2.611-0.32c-3.367-1.131-5.591-4.198-5.611-7.74
		c-0.014-2.237,0.781-4.042,2.545-5.784c1.658-1.637,3.799-2.436,6.525-2.435c3.391,0.001,6.205,1.186,8.67,3.653
		c1.854,1.856,3.255,4.373,3.795,6.811l0.171,0.774l4.868,2.387c0.039-0.035,0.027-0.363-0.025-0.586
		c-0.199-0.844-0.23-3.192-0.058-4.186c0.253-1.445,0.595-2.197,1.323-2.918c1.123-1.11,2.51-1.59,4.615-1.592
		c2.799-0.002,5.174,1.023,7.298,3.157c0.477,0.478,1.516,1.611,2.311,2.518c0.795,0.905,1.567,1.733,1.716,1.838
		c0.418,0.295,6.092,2.893,6.162,2.822c0.034-0.034-0.167-0.396-0.449-0.805c-1.105-1.604-2.043-3.667-2.402-5.286
		c-0.246-1.108-0.178-2.744,0.146-3.488c0.304-0.698,0.95-1.287,1.634-1.49c0.731-0.219,2.33-0.205,4.475,0.037
		c2.572,0.291,3.994,0.348,5.691,0.219c3.862-0.292,6.391-0.928,9.223-2.311c1.479-0.724,1.794-1.003,2.114-1.868
		c0.306-0.825,0.45-1.614,0.294-1.614c-0.055,0-0.574,0.224-1.154,0.498c-2.18,1.029-4.05,1.487-5.711,1.398
		c-1.727-0.092-4.554-1.041-7.909-2.654l-1.528-0.735l-1.247-2.987l1.165,0.726c1.916,1.272,5.014,2.795,6.902,3.393
		c2.885,0.913,5.182,0.793,7.504-0.39C84.464,39.253,86,38.199,86,38.053c0-0.275-0.821-2.945-1.279-4.157
		c-1.143-3.031-1.922-4.041-3.807-4.94c-2.093-0.998-4.398-1.713-8.638-2.68c-2.026-0.43-4.064-0.847-6.122-1.103l-0.05,2.511
		c-4.793-1.491-8.985-2.476-13.629-2.956C51.275,24.605,48.609,24.538,46.171,24.539L46.171,24.539z M77.926,29.682
		c1.549-0.004,3.025,0.792,3.891,2.232c1.473,2.456,0.266,5.646-2.492,6.576c-1.818,0.614-3.984-0.12-5.086-1.722
		c-0.903-1.315-1.055-3.013-0.398-4.436c0.373-0.809,1.26-1.766,1.981-2.134C76.502,29.852,77.223,29.684,77.926,29.682z
		 M77.875,30.995c-0.725,0.016-1.465,0.285-2.089,0.85c-0.952,0.862-1.259,2.422-0.709,3.611c0.452,0.977,1.307,1.651,2.304,1.814
		c1.416,0.231,2.756-0.429,3.343-1.649c0.401-0.835,0.474-1.408,0.272-2.194C80.597,31.865,79.26,30.965,77.875,30.995
		L77.875,30.995z M78.615,32.609c0.539,0,1.186,0.336,1.267,0.659c0.11,0.439-0.038,0.743-0.466,0.961
		c-0.658,0.336-1.504,0.241-2-0.225C76.805,33.429,77.511,32.609,78.615,32.609z"/>
	<path id="path3915" inkscape:connector-curvature="0" fill="#FFFFFF" d="M46.156,24.539c-1.896,0.001-3.641,0.033-4.469,0.125
		c-5.018,0.555-9.411,1.897-14.313,4.344c-7.899,3.944-12.855,8.404-15.656,14.094c-1.254,2.548-1.704,4.332-1.719,7
		c-0.002,0.24,0.027,0.445,0.031,0.656c0.053-2.469,0.492-4.228,1.688-6.657c2.801-5.69,7.757-10.15,15.656-14.094
		c4.901-2.447,9.295-3.789,14.313-4.344c0.828-0.092,2.572-0.124,4.469-0.125c2.438-0.001,5.113,0.063,6.313,0.188
		c4.643,0.479,8.832,1.479,13.625,2.969l0.063-2.531c2.057,0.256,4.098,0.695,6.125,1.125c4.239,0.966,6.533,1.658,8.625,2.656
		c1.885,0.899,2.669,1.907,3.813,4.938c0.324,0.858,0.826,2.423,1.094,3.375C85.909,38.174,86,38.066,86,38.039
		c0-0.275-0.824-2.944-1.281-4.156c-1.144-3.031-1.928-4.039-3.813-4.938c-2.092-0.998-4.386-1.69-8.625-2.656
		c-2.027-0.43-4.068-0.869-6.125-1.125l-0.063,2.531c-4.793-1.49-8.982-2.489-13.625-2.969
		C51.27,24.602,48.595,24.537,46.156,24.539z M77.875,31.007c-0.726,0.015-1.47,0.279-2.094,0.844
		c-0.766,0.693-1.117,1.834-0.938,2.875c0.098-0.719,0.413-1.4,0.938-1.875c0.624-0.565,1.368-0.829,2.094-0.844
		c1.385-0.029,2.726,0.845,3.125,2.406c0.025,0.099,0.046,0.188,0.063,0.281c0.082-0.411,0.056-0.819-0.063-1.281
		C80.601,31.852,79.26,30.978,77.875,31.007z M77.438,34.039c-0.291,0.285-0.36,0.659-0.031,0.969c0.496,0.466,1.342,0.555,2,0.219
		c0.426-0.218,0.578-0.529,0.469-0.969c-0.021-0.086-0.098-0.137-0.188-0.219c-0.072,0.066-0.175,0.133-0.281,0.188
		C78.762,34.556,77.938,34.48,77.438,34.039z M73.469,34.664c-0.125,1.072,0.148,2.172,0.781,3.094
		c1.101,1.602,3.243,2.333,5.063,1.719c2.133-0.72,3.34-2.774,3.094-4.813c-0.184,1.679-1.314,3.212-3.094,3.813
		c-1.819,0.614-3.962-0.117-5.063-1.719C73.811,36.118,73.546,35.409,73.469,34.664z M68.063,36.945l1.25,2.969l1.531,0.75
		c3.355,1.614,6.18,2.564,7.906,2.656c1.66,0.089,3.54-0.377,5.719-1.406c0.516-0.244,0.895-0.396,1.031-0.438
		c0.162-0.57,0.242-1.063,0.125-1.063c-0.055,0-0.576,0.226-1.156,0.5c-2.179,1.029-4.059,1.495-5.719,1.406
		c-1.727-0.092-4.551-1.042-7.906-2.656l-1.531-0.75l-0.688-1.625L68.063,36.945z M24.313,45.257
		c-0.706-0.002-1.39,0.068-1.938,0.219c-2.709,0.742-4.743,3.017-4.531,5.907c0.263-2.41,2.143-4.252,4.531-4.907
		c1.096-0.3,2.789-0.294,3.906,0c3.646,0.96,6.119,3.874,6.531,7.688c0.022,0.206,0.021,0.398,0.031,0.594
		c0.035-0.507,0.029-1.026-0.031-1.594c-0.412-3.814-2.885-6.728-6.531-7.688C25.723,45.33,25.019,45.259,24.313,45.257z
		 M61.906,50.07c-0.026,0.641,0.002,1.321,0.125,1.875c0.324,1.461,1.13,3.262,2.094,4.781c0.402,0.172,0.767,0.327,0.781,0.313
		c0.034-0.034-0.186-0.403-0.469-0.813c-1.105-1.603-2.047-3.662-2.406-5.281C61.972,50.678,61.93,50.379,61.906,50.07z M15,51.008
		c-0.012,0.188-0.032,0.369-0.031,0.563c0.021,3.542,2.258,6.619,5.625,7.75c0.897,0.302,1.029,0.309,2.625,0.313
		c1.488,0.004,1.744-0.039,2.375-0.25c1.891-0.632,3.012-1.972,3.281-3.938c0.044-0.318,0.037-0.664,0-1
		c-0.27,1.966-1.391,3.306-3.281,3.938c-0.631,0.211-0.887,0.254-2.375,0.25c-1.596-0.004-1.728-0.011-2.625-0.313
		C17.367,57.236,15.194,54.361,15,51.008z M21.531,51.508c-0.202,0.607-0.059,1.241,0.469,1.719c0.461,0.417,0.884,0.548,1.5,0.375
		c1.564-0.439,2.389-0.154,2.719,1.063c0.094-0.276,0.109-0.598,0-1c-0.33-1.217-1.154-1.502-2.719-1.063
		c-0.616,0.173-1.039,0.042-1.5-0.375C21.764,52.013,21.621,51.771,21.531,51.508z M41.375,53.352
		c-0.034,0.9,0.002,1.906,0.094,2.594l0.094,0.031c0.039-0.035,0.021-0.371-0.031-0.594C41.432,54.961,41.387,54.168,41.375,53.352z
		"/>
	<path id="path3924" inkscape:connector-curvature="0" opacity="0.15" enable-background="new    " d="M77.938,28.695
		c-0.703,0.002-1.444,0.153-2.125,0.5c-0.721,0.368-1.596,1.316-1.969,2.125c-0.328,0.712-0.443,1.515-0.375,2.281
		c0.057-0.435,0.188-0.875,0.375-1.281c0.373-0.809,1.248-1.757,1.969-2.125c0.681-0.347,1.422-0.498,2.125-0.5
		c1.549-0.004,3.011,0.779,3.875,2.219c0.334,0.556,0.521,1.153,0.594,1.75c0.101-0.921-0.072-1.88-0.594-2.75
		C80.948,29.474,79.486,28.691,77.938,28.695z M78.625,31.601c-1.105,0-1.83,0.831-1.219,1.406c0.01,0.01,0.021,0.022,0.031,0.031
		c0.25-0.245,0.678-0.438,1.188-0.438c0.395,0,0.816,0.214,1.063,0.438c0.217-0.198,0.27-0.452,0.188-0.781
		C79.794,31.934,79.163,31.601,78.625,31.601z M81.063,33.695c-0.057,0.289-0.178,0.593-0.344,0.938
		c-0.588,1.22-1.93,1.856-3.344,1.625c-0.998-0.163-1.861-0.836-2.313-1.813c-0.107-0.233-0.176-0.465-0.219-0.719
		c-0.08,0.588-0.029,1.184,0.219,1.719c0.451,0.977,1.314,1.649,2.313,1.813c1.414,0.231,2.756-0.405,3.344-1.625
		C81.07,34.903,81.178,34.342,81.063,33.695z M68.063,34.945l0.563,1.344l0.625,0.375c1.916,1.272,5.018,2.809,6.906,3.406
		c2.885,0.913,5.177,0.777,7.5-0.406C84.475,39.247,86,38.184,86,38.039c0-0.08-0.077-0.389-0.188-0.781
		c-0.408,0.354-1.494,1.069-2.156,1.406c-2.323,1.184-4.615,1.319-7.5,0.406c-1.889-0.597-4.99-2.134-6.906-3.406L68.063,34.945z
		 M85.625,40.414c-0.006,0-0.107,0.057-0.125,0.063c-0.055,0.19-0.08,0.356-0.156,0.563c-0.32,0.865-0.646,1.151-2.125,1.875
		c-2.831,1.385-5.355,2.021-9.219,2.313c-1.696,0.129-3.115,0.072-5.688-0.219c-2.145-0.242-3.768-0.28-4.5-0.063
		c-0.684,0.203-1.322,0.803-1.625,1.5c-0.242,0.559-0.351,1.632-0.281,2.594c0.028-0.628,0.122-1.228,0.281-1.594
		c0.303-0.697,0.941-1.297,1.625-1.5c0.732-0.218,2.355-0.18,4.5,0.063c2.572,0.291,3.991,0.348,5.688,0.219
		c3.863-0.292,6.388-0.928,9.219-2.313c1.479-0.724,1.805-1.01,2.125-1.875C85.648,41.214,85.781,40.414,85.625,40.414z
		 M24.063,41.351c-2.727-0.001-4.873,0.801-6.531,2.438c-1.764,1.741-2.576,3.545-2.563,5.782c0.001,0.148,0.023,0.291,0.031,0.438
		c0.117-1.978,0.92-3.629,2.531-5.219c1.658-1.637,3.805-2.438,6.531-2.438c3.39,0.001,6.191,1.189,8.656,3.656
		c1.855,1.856,3.273,4.375,3.813,6.813l0.156,0.781l4.875,2.375c0.039-0.035,0.021-0.371-0.031-0.594
		c-0.025-0.105-0.043-0.291-0.063-0.438l-4.781-2.344l-0.156-0.781c-0.539-2.438-1.957-4.957-3.813-6.813
		C30.254,42.541,27.452,41.352,24.063,41.351z M47.406,45.695c-2.104,0.002-3.502,0.482-4.625,1.594
		c-0.729,0.721-1.06,1.461-1.313,2.907c-0.08,0.457-0.098,1.216-0.094,1.969c0.019-0.373,0.051-0.721,0.094-0.969
		c0.253-1.445,0.584-2.186,1.313-2.907c1.123-1.111,2.521-1.592,4.625-1.594c2.799-0.002,5.188,1.024,7.313,3.157
		c0.477,0.479,1.518,1.594,2.313,2.5s1.57,1.738,1.719,1.844c0.418,0.294,6.086,2.914,6.156,2.844
		c0.034-0.034-0.186-0.403-0.469-0.813c-0.108-0.157-0.207-0.334-0.313-0.5c-1.531-0.654-5.045-2.299-5.375-2.531
		c-0.148-0.105-0.924-0.938-1.719-1.844s-1.836-2.021-2.313-2.5C52.595,46.719,50.205,45.693,47.406,45.695z M23.969,47.945
		c-0.763,0.033-1.455,0.285-1.938,0.75c-0.551,0.53-0.703,1.213-0.5,1.813c0.094-0.283,0.248-0.57,0.5-0.813
		c0.965-0.93,2.732-1.006,4.344-0.188c1.316,0.668,2.326,2.342,2.5,3.938c0.252-1.831-0.906-4.129-2.5-4.938
		C25.57,48.099,24.731,47.912,23.969,47.945z M10.031,49.758C10.029,49.879,10,49.977,10,50.102
		c-0.009,1.688,0.127,2.596,0.563,3.969c1.57,4.947,6.031,8.489,11.219,8.875c5.02,0.373,8.771-1.631,10.438-5.563
		c0.524-1.237,0.689-2.337,0.625-3.625c-0.061,0.887-0.24,1.718-0.625,2.625c-1.666,3.932-5.418,5.936-10.438,5.563
		c-5.188-0.386-9.648-3.928-11.219-8.875C10.188,51.893,10.059,51.035,10.031,49.758z M17.844,50.383
		c-0.068,0.621-0.039,1.283,0.125,1.969c0.682,2.836,4.01,4.626,6.813,3.5c1.119-0.449,1.762-0.993,1.438-2.188
		c-0.184,0.543-0.695,0.89-1.438,1.188c-2.803,1.126-6.131-0.664-6.813-3.5C17.89,51.021,17.867,50.699,17.844,50.383z"/>
</g>
</svg>
