<?xml version="1.0" encoding="utf-8"?>
<!-- Generator: Adobe Illustrator 14.0.0, SVG Export Plug-In . SVG Version: 6.00 Build 43363)  -->
<!DOCTYPE svg PUBLIC "-//W3C//DTD SVG 1.1//EN" "http://www.w3.org/Graphics/SVG/1.1/DTD/svg11.dtd">
<svg version="1.1"
	 id="svg2408" xmlns:dc="http://purl.org/dc/elements/1.1/" xmlns:svg="http://www.w3.org/2000/svg" xmlns:cc="http://creativecommons.org/ns#" xmlns:rdf="http://www.w3.org/1999/02/22-rdf-syntax-ns#" xmlns:inkscape="http://www.inkscape.org/namespaces/inkscape"
	 xmlns="http://www.w3.org/2000/svg" xmlns:xlink="http://www.w3.org/1999/xlink" x="0px" y="0px" width="96px" height="96px"
	 viewBox="0 0 96 96" enable-background="new 0 0 96 96" xml:space="preserve">
<filter  height="1.3839999" width="1.3839999" x="-0.192" y="-0.192" id="filter3794" color-interpolation-filters="sRGB">
	<feGaussianBlur  id="feGaussianBlur3796" stdDeviation="5.28"></feGaussianBlur>
</filter>
<g>
	<linearGradient id="SVGID_1_" gradientUnits="userSpaceOnUse" x1="2" y1="48" x2="94" y2="48">
		<stop  offset="0" style="stop-color:#000000"/>
		<stop  offset="1" style="stop-color:#000000;stop-opacity:0.5882"/>
	</linearGradient>
	<path opacity="0.08" fill="url(#SVGID_1_)" enable-background="new    " d="M10.5,93C5.813,93,2,89.187,2,84.5v-73
		C2,6.813,5.813,3,10.5,3h75c4.145,0,7.786,3.007,8.5,7v74.5c0,4.687-3.813,8.5-8.5,8.5H10.5z"/>
	<linearGradient id="SVGID_2_" gradientUnits="userSpaceOnUse" x1="3" y1="48" x2="93" y2="48">
		<stop  offset="0" style="stop-color:#000000"/>
		<stop  offset="1" style="stop-color:#000000;stop-opacity:0.5882"/>
	</linearGradient>
	<path opacity="0.1" fill="url(#SVGID_2_)" enable-background="new    " d="M10.5,92C6.364,92,3,88.636,3,84.5v-73
		C3,7.364,6.364,4,10.5,4h75c3.968,0,7.242,3.097,7.5,7v73.5c0,4.136-3.364,7.5-7.5,7.5H10.5z"/>
	<linearGradient id="SVGID_3_" gradientUnits="userSpaceOnUse" x1="4" y1="48" x2="92" y2="48">
		<stop  offset="0" style="stop-color:#000000"/>
		<stop  offset="1" style="stop-color:#000000;stop-opacity:0.5882"/>
	</linearGradient>
	<path opacity="0.2" fill="url(#SVGID_3_)" enable-background="new    " d="M10.5,91C6.916,91,4,88.084,4,84.5v-73
		C4,7.916,6.916,5,10.5,5h75c3.584,0,6.5,2.916,6.5,6.5v73c0,3.584-2.916,6.5-6.5,6.5H10.5z"/>
	<linearGradient id="SVGID_4_" gradientUnits="userSpaceOnUse" x1="47.9995" y1="8" x2="47.9995" y2="90.4195">
		<stop  offset="0" style="stop-color:#000000"/>
		<stop  offset="1" style="stop-color:#000000;stop-opacity:0.5882"/>
	</linearGradient>
	<path opacity="0.45" fill="url(#SVGID_4_)" enable-background="new    " d="M90,12.5c0-2.484-2.016-4.5-4.5-4.5h-75
		C8.015,8,6,10.016,6,12.5v18V63v22.5c0,2.487,2.015,4.5,4.5,4.5h75c2.484,0,4.5-2.013,4.5-4.5V12.5z"/>
</g>
<g>
	<path fill="#415766" d="M90,84.5c0,2.487-2.016,4.5-4.5,4.5h-75C8.015,89,6,86.987,6,84.5v-57c0-2.484,2.015-4.5,4.5-4.5h75
		c2.484,0,4.5,2.016,4.5,4.5V84.5z"/>
</g>
<linearGradient id="SVGID_5_" gradientUnits="userSpaceOnUse" x1="48.0005" y1="84.5" x2="48.0005" y2="5.0005">
	<stop  offset="0" style="stop-color:#78A1BD"/>
	<stop  offset="0.503" style="stop-color:#94B5CB"/>
	<stop  offset="1" style="stop-color:#AFC8D8"/>
</linearGradient>
<path fill="url(#SVGID_5_)" d="M90,80c0,2.487-2.016,4.5-4.5,4.5h-75C8.015,84.5,6,82.487,6,80V9.5C6,7.016,8.015,5,10.5,5h75
	C87.984,5,90,7.016,90,9.5V80z"/>
<path fill="#94B5CB" d="M10.5,83c-1.654,0-3-1.346-3-3V9.5c0-1.654,1.346-3,3-3h75c1.654,0,3,1.346,3,3V80c0,1.654-1.346,3-3,3H10.5
	z"/>
<radialGradient id="SVGID_6_" cx="48" cy="44.75" r="39.3911" gradientUnits="userSpaceOnUse">
	<stop  offset="0" style="stop-color:#FFFFFF"/>
	<stop  offset="1" style="stop-color:#FFFFFF;stop-opacity:0"/>
</radialGradient>
<path opacity="0.3" fill="url(#SVGID_6_)" d="M10.5,83c-1.654,0-3-1.346-3-3V9.5c0-1.654,1.346-3,3-3h75c1.654,0,3,1.346,3,3V80
	c0,1.654-1.346,3-3,3H10.5z"/>
<g opacity="0.2">
	<radialGradient id="SVGID_7_" cx="45.6665" cy="47" r="255.6421" gradientUnits="userSpaceOnUse">
		<stop  offset="0" style="stop-color:#FFFFFF"/>
		<stop  offset="1" style="stop-color:#FFFFFF;stop-opacity:0"/>
	</radialGradient>
	<polygon fill="url(#SVGID_7_)" points="22.984,83 32.59,83 88.5,27.091 88.5,17.485 	"/>
	<radialGradient id="SVGID_8_" cx="45.6665" cy="47" r="255.6422" gradientUnits="userSpaceOnUse">
		<stop  offset="0" style="stop-color:#FFFFFF"/>
		<stop  offset="1" style="stop-color:#FFFFFF;stop-opacity:0"/>
	</radialGradient>
	<polygon fill="url(#SVGID_8_)" points="43.738,6.5 7.5,42.738 7.5,52.344 53.344,6.5 	"/>
	<radialGradient id="SVGID_9_" cx="45.6665" cy="47" r="255.6426" gradientUnits="userSpaceOnUse">
		<stop  offset="0" style="stop-color:#FFFFFF"/>
		<stop  offset="1" style="stop-color:#FFFFFF;stop-opacity:0"/>
	</radialGradient>
	<polygon fill="url(#SVGID_9_)" points="62.32,6.5 7.5,61.32 7.5,70.926 71.926,6.5 	"/>
	<radialGradient id="SVGID_10_" cx="45.6665" cy="47" r="255.6421" gradientUnits="userSpaceOnUse">
		<stop  offset="0" style="stop-color:#FFFFFF"/>
		<stop  offset="1" style="stop-color:#FFFFFF;stop-opacity:0"/>
	</radialGradient>
	<polygon fill="url(#SVGID_10_)" points="51.173,83 88.5,45.673 88.5,36.068 41.567,83 	"/>
	<radialGradient id="SVGID_11_" cx="45.6665" cy="47" r="255.6421" gradientUnits="userSpaceOnUse">
		<stop  offset="0" style="stop-color:#FFFFFF"/>
		<stop  offset="1" style="stop-color:#FFFFFF;stop-opacity:0"/>
	</radialGradient>
	<polygon fill="url(#SVGID_11_)" points="69.755,83 88.5,64.255 88.5,54.65 60.149,83 	"/>
	<radialGradient id="SVGID_12_" cx="45.6665" cy="47" r="255.6421" gradientUnits="userSpaceOnUse">
		<stop  offset="0" style="stop-color:#FFFFFF"/>
		<stop  offset="1" style="stop-color:#FFFFFF;stop-opacity:0"/>
	</radialGradient>
	<path fill="url(#SVGID_12_)" d="M85.5,83c1.655,0,3-1.347,3-3v-6.769L78.731,83H85.5z"/>
	<radialGradient id="SVGID_13_" cx="45.6665" cy="47" r="255.6419" gradientUnits="userSpaceOnUse">
		<stop  offset="0" style="stop-color:#FFFFFF"/>
		<stop  offset="1" style="stop-color:#FFFFFF;stop-opacity:0"/>
	</radialGradient>
	<path fill="url(#SVGID_13_)" d="M10.5,83h3.508L88.361,8.647C87.991,7.41,86.855,6.5,85.5,6.5h-4.598L7.5,79.902V80
		C7.5,81.653,8.845,83,10.5,83z"/>
	<radialGradient id="SVGID_14_" cx="45.6665" cy="47" r="255.6419" gradientUnits="userSpaceOnUse">
		<stop  offset="0" style="stop-color:#FFFFFF"/>
		<stop  offset="1" style="stop-color:#FFFFFF;stop-opacity:0"/>
	</radialGradient>
	<path fill="url(#SVGID_14_)" d="M10.5,6.5c-1.654,0-3,1.346-3,3v5.576L16.076,6.5H10.5z"/>
	<radialGradient id="SVGID_15_" cx="45.6665" cy="47" r="255.6414" gradientUnits="userSpaceOnUse">
		<stop  offset="0" style="stop-color:#FFFFFF"/>
		<stop  offset="1" style="stop-color:#FFFFFF;stop-opacity:0"/>
	</radialGradient>
	<polygon fill="url(#SVGID_15_)" points="25.053,6.5 7.5,24.053 7.5,33.658 34.658,6.5 	"/>
</g>
<g>
	<g>
		<path id="path3814_1_" opacity="0.05" enable-background="new    " d="M29.942,5.637c-3.102-0.832-6.345,1.042-7.177,4.144
			L8.426,63.297c-0.831,3.102,1.041,6.346,4.143,7.177l53.488,14.332c3.102,0.832,6.347-1.042,7.177-4.145l14.34-53.515
			c0.832-3.103-1.042-6.346-4.144-7.177L29.942,5.637z"/>
		<path id="path3810_1_" opacity="0.15" enable-background="new    " d="M29.713,6.494c-2.635-0.706-5.383,0.88-6.089,3.516
			L9.284,63.527c-0.707,2.634,0.881,5.383,3.516,6.089l53.488,14.332c2.635,0.706,5.384-0.88,6.089-3.517l14.341-53.516
			c0.705-2.636-0.881-5.384-3.517-6.09L29.713,6.494z"/>
		<path id="rect3804_1_" opacity="0.3" enable-background="new    " d="M29.438,7.476l53.511,14.338
			c2.111,0.565,3.364,2.735,2.798,4.846L71.409,80.17c-0.566,2.111-2.736,3.364-4.847,2.798L13.051,68.631
			c-2.11-0.566-3.364-2.736-2.797-4.847l14.337-53.511C25.157,8.163,27.327,6.91,29.438,7.476z"/>
		
			<linearGradient id="rect3729_2_" gradientUnits="userSpaceOnUse" x1="421.9941" y1="-245.9302" x2="406.1839" y2="-186.9255" gradientTransform="matrix(0.9199 0.2465 0.2465 -0.9199 -279.57 -257.1161)">
			<stop  offset="0" style="stop-color:#3972AC"/>
			<stop  offset="1" style="stop-color:#5B91C9"/>
		</linearGradient>
		<path id="rect3729_1_" fill="url(#rect3729_2_)" d="M29.438,6.528l53.511,14.338c2.111,0.565,3.364,2.735,2.798,4.847
			L71.409,79.224c-0.566,2.11-2.736,3.363-4.847,2.797L13.051,67.684c-2.11-0.566-3.364-2.736-2.797-4.847L24.591,9.326
			C25.157,7.215,27.327,5.963,29.438,6.528z"/>
		<path id="path3771_1_" opacity="0.1" enable-background="new    " d="M26.483,18.704c-2.745,0-5.001,2.256-5.001,5.001v43.033
			c0,2.745,2.256,5.002,5.001,5.002h43.033c2.745,0,5.002-2.257,5.002-5.002V23.705c0-2.745-2.257-5.001-5.002-5.001H26.483z"/>
		<path id="path3766_1_" opacity="0.15" enable-background="new    " d="M26.483,19.621c-2.244,0-4.084,1.84-4.084,4.084v43.033
			c0,2.244,1.84,4.084,4.084,4.084h43.033c2.243,0,4.084-1.84,4.084-4.084V23.705c0-2.244-1.841-4.084-4.084-4.084H26.483z"/>
		<path id="rect3760_1_" opacity="0.3" enable-background="new    " d="M26.469,20.615h43.063c1.698,0,3.075,1.376,3.075,3.076
			v43.062c0,1.698-1.377,3.075-3.075,3.075H26.469c-1.698,0-3.076-1.377-3.076-3.075V23.691
			C23.393,21.992,24.771,20.615,26.469,20.615z"/>
		
			<linearGradient id="rect3748_2_" gradientUnits="userSpaceOnUse" x1="306" y1="-319.3848" x2="306" y2="-272.3062" gradientTransform="matrix(1 0 0 -1 -258 -252)">
			<stop  offset="0" style="stop-color:#0E4688"/>
			<stop  offset="1" style="stop-color:#135EB7"/>
		</linearGradient>
		<path id="rect3748_1_" fill="url(#rect3748_2_)" d="M26.469,19.668h43.063c1.698,0,3.075,1.377,3.075,3.076v43.062
			c0,1.698-1.377,3.075-3.075,3.075H26.469c-1.698,0-3.076-1.377-3.076-3.075V22.744C23.393,21.045,24.771,19.668,26.469,19.668z"/>
		
			<linearGradient id="rect3773_2_" gradientUnits="userSpaceOnUse" x1="367.6797" y1="306" x2="445.3115" y2="306" gradientTransform="matrix(0 1 1 0 -258 -348)">
			<stop  offset="0" style="stop-color:#FFFFFF"/>
			<stop  offset="1" style="stop-color:#FFFFFF;stop-opacity:0"/>
		</linearGradient>
		<path id="rect3773_1_" inkscape:connector-curvature="0" opacity="0.4" fill="url(#rect3773_2_)" enable-background="new    " d="
			M72.595,22.758c0-1.704-1.375-3.078-3.078-3.078H26.483c-1.704,0-3.078,1.374-3.078,3.078v43.033c0,1.704,1.375,3.078,3.078,3.078
			h43.033c1.703,0,3.078-1.374,3.078-3.078V22.758z M71.677,22.758v43.033c0,1.212-0.948,2.16-2.16,2.16H26.483
			c-1.211,0-2.161-0.948-2.161-2.16V22.758c0-1.212,0.949-2.161,2.161-2.161h43.033C70.729,20.598,71.677,21.546,71.677,22.758z"/>
		
			<linearGradient id="rect3789_2_" gradientUnits="userSpaceOnUse" x1="306" y1="-258.3843" x2="306" y2="-372.6018" gradientTransform="matrix(1 0 0 -1 -258 -252)">
			<stop  offset="0" style="stop-color:#FFFFFF"/>
			<stop  offset="1" style="stop-color:#FFFFFF;stop-opacity:0"/>
		</linearGradient>
		<path id="rect3789_1_" inkscape:connector-curvature="0" opacity="0.6" fill="url(#rect3789_2_)" enable-background="new    " d="
			M28.644,6.392c-1.84-0.113-3.558,1.077-4.055,2.93l-14.325,53.51c-0.568,2.118,0.664,4.286,2.782,4.854l53.51,14.324
			c2.118,0.568,4.286-0.664,4.854-2.782l14.325-53.51c0.567-2.118-0.664-4.286-2.782-4.854L29.443,6.54
			C29.179,6.469,28.907,6.408,28.644,6.392z M28.555,7.368c0.199,0.013,0.419,0.064,0.622,0.118l53.51,14.325
			c1.62,0.434,2.563,2.029,2.131,3.64L70.464,78.962c-0.432,1.61-2.029,2.562-3.641,2.131l-53.54-14.354
			c-1.611-0.431-2.505-2.021-2.072-3.641l14.325-53.51C25.916,8.171,27.164,7.273,28.555,7.368z"/>
	</g>
	<g id="layer5_2_">
		<g>
			<defs>
				<path id="SVGID_16_" d="M10.656,4.98h74.766C87.891,4.98,90,6.721,90,9.859v70.453c0,2.219-2.297,4.186-4.188,4.186H10.625
					C7.953,84.498,6,82.609,6,79.797v-70C6,6.659,8.229,4.98,10.656,4.98z"/>
			</defs>
			<clipPath id="SVGID_17_">
				<use xlink:href="#SVGID_16_"  overflow="visible"/>
			</clipPath>
			<g id="rect3171_1_" opacity="0.1" clip-path="url(#SVGID_17_)" filter="url(#filter3794)" enable-background="new    ">
				
					<linearGradient id="SVGID_18_" gradientUnits="userSpaceOnUse" x1="306" y1="-269.9653" x2="306" y2="-382.1385" gradientTransform="matrix(1 0 0 -1 -258 -252)">
					<stop  offset="0" style="stop-color:#FFFFFF"/>
					<stop  offset="1" style="stop-color:#FFFFFF;stop-opacity:0"/>
				</linearGradient>
				<path fill="url(#SVGID_18_)" d="M28.111,13.021h39.777c6.276,0,11.365,5.088,11.365,11.365v39.777
					c0,6.276-5.089,11.365-11.365,11.365H28.111c-6.276,0-11.365-5.089-11.365-11.365V24.386
					C16.747,18.109,21.835,13.021,28.111,13.021z"/>
				<path fill="none" stroke="#FFFFFF" stroke-width="0.5" stroke-linecap="round" d="M28.111,13.021h39.777
					c6.276,0,11.365,5.088,11.365,11.365v39.777c0,6.276-5.089,11.365-11.365,11.365H28.111c-6.276,0-11.365-5.089-11.365-11.365
					V24.386C16.747,18.109,21.835,13.021,28.111,13.021z"/>
			</g>
		</g>
	</g>
	<g id="layer4_4_">
		<path id="path3914_1_" fill="#143B69" d="M36.635,28.204c-0.5-0.007-0.91,0.393-0.917,0.892c0,0.008,0,0.017,0,0.026v32.201
			c-0.008,0.499,0.392,0.91,0.892,0.917c0.008,0,0.017,0,0.026,0h9.471c0.5,0.008,0.91-0.392,0.917-0.892c0-0.008,0-0.017,0-0.025
			V50.875h10.447c0.5,0.007,0.91-0.393,0.918-0.892c0-0.009,0-0.017,0-0.026V42.38c0.007-0.5-0.393-0.91-0.892-0.917
			c-0.009,0-0.017,0-0.026,0H47.023v-3.848h14.235c0.5,0.008,0.91-0.392,0.918-0.892c0-0.008,0-0.017,0-0.026v-7.577
			c0.007-0.499-0.393-0.91-0.892-0.917c-0.009,0-0.017,0-0.026,0H36.635z"/>
		<path id="rect2922_1_" inkscape:connector-curvature="0" fill="#FFFFFF" d="M36.635,29.121v32.201h9.471V49.957h11.365V42.38
			H46.106v-5.683h15.153v-7.577H36.635z"/>
	</g>
</g>
</svg>
