<?xml version="1.0" encoding="utf-8"?>
<!-- Generator: Adobe Illustrator 14.0.0, SVG Export Plug-In . SVG Version: 6.00 Build 43363)  -->
<!DOCTYPE svg PUBLIC "-//W3C//DTD SVG 1.1//EN" "http://www.w3.org/Graphics/SVG/1.1/DTD/svg11.dtd">
<svg version="1.1"
	 id="svg2408" xmlns:dc="http://purl.org/dc/elements/1.1/" xmlns:svg="http://www.w3.org/2000/svg" xmlns:cc="http://creativecommons.org/ns#" xmlns:rdf="http://www.w3.org/1999/02/22-rdf-syntax-ns#" xmlns:inkscape="http://www.inkscape.org/namespaces/inkscape"
	 xmlns="http://www.w3.org/2000/svg" xmlns:xlink="http://www.w3.org/1999/xlink" x="0px" y="0px" width="96px" height="96px"
	 viewBox="0 0 96 96" enable-background="new 0 0 96 96" xml:space="preserve">
<g>
	<linearGradient id="SVGID_1_" gradientUnits="userSpaceOnUse" x1="2" y1="48" x2="94" y2="48">
		<stop  offset="0" style="stop-color:#000000"/>
		<stop  offset="1" style="stop-color:#000000;stop-opacity:0.5882"/>
	</linearGradient>
	<path opacity="0.08" fill="url(#SVGID_1_)" enable-background="new    " d="M10.5,93C5.813,93,2,89.187,2,84.5v-73
		C2,6.813,5.813,3,10.5,3h75c4.145,0,7.786,3.007,8.5,7v74.5c0,4.687-3.813,8.5-8.5,8.5H10.5z"/>
	<linearGradient id="SVGID_2_" gradientUnits="userSpaceOnUse" x1="3" y1="48" x2="93" y2="48">
		<stop  offset="0" style="stop-color:#000000"/>
		<stop  offset="1" style="stop-color:#000000;stop-opacity:0.5882"/>
	</linearGradient>
	<path opacity="0.1" fill="url(#SVGID_2_)" enable-background="new    " d="M10.5,92C6.364,92,3,88.636,3,84.5v-73
		C3,7.364,6.364,4,10.5,4h75c3.968,0,7.242,3.097,7.5,7v73.5c0,4.136-3.364,7.5-7.5,7.5H10.5z"/>
	<linearGradient id="SVGID_3_" gradientUnits="userSpaceOnUse" x1="4" y1="48" x2="92" y2="48">
		<stop  offset="0" style="stop-color:#000000"/>
		<stop  offset="1" style="stop-color:#000000;stop-opacity:0.5882"/>
	</linearGradient>
	<path opacity="0.2" fill="url(#SVGID_3_)" enable-background="new    " d="M10.5,91C6.916,91,4,88.084,4,84.5v-73
		C4,7.916,6.916,5,10.5,5h75c3.584,0,6.5,2.916,6.5,6.5v73c0,3.584-2.916,6.5-6.5,6.5H10.5z"/>
	<linearGradient id="SVGID_4_" gradientUnits="userSpaceOnUse" x1="47.9995" y1="8" x2="47.9995" y2="90.4195">
		<stop  offset="0" style="stop-color:#000000"/>
		<stop  offset="1" style="stop-color:#000000;stop-opacity:0.5882"/>
	</linearGradient>
	<path opacity="0.45" fill="url(#SVGID_4_)" enable-background="new    " d="M90,12.5c0-2.484-2.016-4.5-4.5-4.5h-75
		C8.015,8,6,10.016,6,12.5v18V63v22.5c0,2.487,2.015,4.5,4.5,4.5h75c2.484,0,4.5-2.013,4.5-4.5V12.5z"/>
</g>
<g>
	<path fill="#324173" d="M90,84.5c0,2.487-2.016,4.5-4.5,4.5h-75C8.015,89,6,86.987,6,84.5v-57c0-2.484,2.015-4.5,4.5-4.5h75
		c2.484,0,4.5,2.016,4.5,4.5V84.5z"/>
</g>
<linearGradient id="SVGID_5_" gradientUnits="userSpaceOnUse" x1="48.0005" y1="84.5" x2="48.0005" y2="5.0005">
	<stop  offset="0" style="stop-color:#4B61AC"/>
	<stop  offset="1" style="stop-color:#93A0D0"/>
</linearGradient>
<path fill="url(#SVGID_5_)" d="M90,80c0,2.487-2.016,4.5-4.5,4.5h-75C8.015,84.5,6,82.487,6,80V9.5C6,7.016,8.015,5,10.5,5h75
	C87.984,5,90,7.016,90,9.5V80z"/>
<path fill="#6F81BE" d="M10.5,83c-1.654,0-3-1.346-3-3V9.5c0-1.654,1.346-3,3-3h75c1.654,0,3,1.346,3,3V80c0,1.654-1.346,3-3,3H10.5
	z"/>
<radialGradient id="SVGID_6_" cx="48" cy="44.75" r="39.3911" gradientUnits="userSpaceOnUse">
	<stop  offset="0" style="stop-color:#FFFFFF"/>
	<stop  offset="1" style="stop-color:#FFFFFF;stop-opacity:0"/>
</radialGradient>
<path opacity="0.3" fill="url(#SVGID_6_)" d="M10.5,83c-1.654,0-3-1.346-3-3V9.5c0-1.654,1.346-3,3-3h75c1.654,0,3,1.346,3,3V80
	c0,1.654-1.346,3-3,3H10.5z"/>
<radialGradient id="SVGID_7_" cx="47" cy="7.75" r="40.8905" gradientUnits="userSpaceOnUse">
	<stop  offset="0" style="stop-color:#FFFFFF"/>
	<stop  offset="1" style="stop-color:#FFFFFF;stop-opacity:0"/>
</radialGradient>
<path display="none" opacity="0.2" fill="url(#SVGID_7_)" d="M90,80c0,2.487-2.016,4.5-4.5,4.5h-75C8.015,84.5,6,82.487,6,80V9.5
	C6,7.016,8.015,5,10.5,5h75C87.984,5,90,7.016,90,9.5V80z"/>
<g opacity="0.2">
	<radialGradient id="SVGID_8_" cx="45.6665" cy="47" r="255.6421" gradientUnits="userSpaceOnUse">
		<stop  offset="0" style="stop-color:#FFFFFF"/>
		<stop  offset="1" style="stop-color:#FFFFFF;stop-opacity:0"/>
	</radialGradient>
	<polygon fill="url(#SVGID_8_)" points="22.984,83 32.59,83 88.5,27.091 88.5,17.485 	"/>
	<radialGradient id="SVGID_9_" cx="45.6665" cy="47" r="255.6422" gradientUnits="userSpaceOnUse">
		<stop  offset="0" style="stop-color:#FFFFFF"/>
		<stop  offset="1" style="stop-color:#FFFFFF;stop-opacity:0"/>
	</radialGradient>
	<polygon fill="url(#SVGID_9_)" points="43.738,6.5 7.5,42.738 7.5,52.344 53.344,6.5 	"/>
	<radialGradient id="SVGID_10_" cx="45.6665" cy="47" r="255.6426" gradientUnits="userSpaceOnUse">
		<stop  offset="0" style="stop-color:#FFFFFF"/>
		<stop  offset="1" style="stop-color:#FFFFFF;stop-opacity:0"/>
	</radialGradient>
	<polygon fill="url(#SVGID_10_)" points="62.32,6.5 7.5,61.32 7.5,70.926 71.926,6.5 	"/>
	<radialGradient id="SVGID_11_" cx="45.6665" cy="47" r="255.6421" gradientUnits="userSpaceOnUse">
		<stop  offset="0" style="stop-color:#FFFFFF"/>
		<stop  offset="1" style="stop-color:#FFFFFF;stop-opacity:0"/>
	</radialGradient>
	<polygon fill="url(#SVGID_11_)" points="51.173,83 88.5,45.673 88.5,36.068 41.567,83 	"/>
	<radialGradient id="SVGID_12_" cx="45.6665" cy="47" r="255.6421" gradientUnits="userSpaceOnUse">
		<stop  offset="0" style="stop-color:#FFFFFF"/>
		<stop  offset="1" style="stop-color:#FFFFFF;stop-opacity:0"/>
	</radialGradient>
	<polygon fill="url(#SVGID_12_)" points="69.755,83 88.5,64.255 88.5,54.65 60.149,83 	"/>
	<radialGradient id="SVGID_13_" cx="45.6665" cy="47" r="255.6421" gradientUnits="userSpaceOnUse">
		<stop  offset="0" style="stop-color:#FFFFFF"/>
		<stop  offset="1" style="stop-color:#FFFFFF;stop-opacity:0"/>
	</radialGradient>
	<path fill="url(#SVGID_13_)" d="M85.5,83c1.655,0,3-1.347,3-3v-6.769L78.731,83H85.5z"/>
	<radialGradient id="SVGID_14_" cx="45.6665" cy="47" r="255.6419" gradientUnits="userSpaceOnUse">
		<stop  offset="0" style="stop-color:#FFFFFF"/>
		<stop  offset="1" style="stop-color:#FFFFFF;stop-opacity:0"/>
	</radialGradient>
	<path fill="url(#SVGID_14_)" d="M10.5,83h3.508L88.361,8.647C87.991,7.41,86.855,6.5,85.5,6.5h-4.598L7.5,79.902V80
		C7.5,81.653,8.845,83,10.5,83z"/>
	<radialGradient id="SVGID_15_" cx="45.6665" cy="47" r="255.6419" gradientUnits="userSpaceOnUse">
		<stop  offset="0" style="stop-color:#FFFFFF"/>
		<stop  offset="1" style="stop-color:#FFFFFF;stop-opacity:0"/>
	</radialGradient>
	<path fill="url(#SVGID_15_)" d="M10.5,6.5c-1.654,0-3,1.346-3,3v5.576L16.076,6.5H10.5z"/>
	<radialGradient id="SVGID_16_" cx="45.6665" cy="47" r="255.6414" gradientUnits="userSpaceOnUse">
		<stop  offset="0" style="stop-color:#FFFFFF"/>
		<stop  offset="1" style="stop-color:#FFFFFF;stop-opacity:0"/>
	</radialGradient>
	<polygon fill="url(#SVGID_16_)" points="25.053,6.5 7.5,24.053 7.5,33.658 34.658,6.5 	"/>
</g>
<g id="layer4_2_">
	<path id="path4020" opacity="0.05" fill="#FFFFFF" enable-background="new    " d="M48.203,13.343
		c-4.703,0-10.318,1.053-15.094,3.656c-4.81,2.622-8.875,7.189-8.875,13.5c0,6.103,3.945,10.457,8.563,12.844
		c4.576,2.365,9.897,3.188,14.188,3.188c3.795,0,7.417,0.537,9.657,1.531c1.15,0.51,1.916,1.075,2.375,1.657
		c0.471,0.598,0.688,1.166,0.688,2.188c0,1.005-0.222,1.728-0.688,2.375s-1.214,1.223-2.344,1.813
		c-2.176,1.137-5.705,1.875-9.532,1.875c-4.088,0-6.867-1.33-8.688-2.875c-0.882-0.748-1.526-1.604-1.938-2.344
		c-0.199-0.357-0.32-0.701-0.406-0.969s-0.125-0.509-0.125-0.438c0-1.949-1.291-3.307-2.469-4.063
		c-1.195-0.768-2.656-1.188-4.219-1.188c-1.515,0-2.982,0.378-4.156,1.281c-1.22,0.939-1.969,2.401-1.969,3.969v10.219
		c-0.002,0.14-0.002-0.108,0,0.031c0,0.02,0,0.063,0,0.063c0.053,1.533,0.381,3.282,1.469,4.813
		c0.557,0.783,1.304,1.406,2.188,1.875h-5.844V57.25c0.002,0.117,0-0.008,0-0.031c0-0.018,0-0.07,0-0.094c0-0.012,0-0.052,0-0.063
		s0-0.093,0-0.094c0,0-0.026-0.035-0.031-0.063c0-0.006,0-0.021,0-0.031c0-0.005,0-0.018,0-0.031c0-0.006,0.001-0.015,0-0.031
		c0-0.004,0.002-0.018,0-0.031c-0.004-0.013,0.002-0.026,0-0.031c-0.004-0.031,0-0.063,0-0.063s-0.029-0.118-0.031-0.125
		s-0.029,0.006-0.031,0c-0.004-0.011,0.004-0.02,0-0.031c0-0.002-0.023-0.07-0.031-0.094s0-0.029,0-0.031
		c-0.001-0.003-0.062-0.122-0.063-0.125c0,0-0.019-0.064-0.031-0.094c0.008,0.023,0-0.033,0-0.031s-0.039-0.047-0.031-0.031
		c0-0.001,0.012-0.035,0-0.063c-0.002-0.006,0.003-0.023,0-0.031c0-0.002-0.03,0.003-0.031,0s0.002-0.026,0-0.031
		c-0.004-0.01-0.031-0.125-0.031-0.125s-0.039-0.027-0.063-0.063c-0.004-0.01-0.031-0.031-0.031-0.031s-0.016-0.034-0.031-0.063
		c0,0-0.024-0.023-0.031-0.031c-0.004-0.008,0-0.031,0-0.031s-0.071-0.064-0.094-0.094c0,0,0.006-0.023,0-0.031
		c-0.005-0.008-0.02-0.014-0.031-0.031c-0.015-0.018-0.029-0.029-0.031-0.031c-0.006-0.007-0.029-0.029-0.031-0.031
		c0,0-0.055-0.086-0.063-0.094s-0.023-0.023-0.031-0.031c-0.002-0.002-0.092-0.092-0.094-0.094c-0.087-0.09-0.016-0.016-0.031-0.031
		s-0.062-0.062-0.063-0.063c-0.01-0.01-0.039-0.041-0.063-0.063c0.016,0.016-0.032-0.032-0.031-0.031
		c-0.006-0.006-0.094-0.094-0.094-0.094c-0.002-0.002-0.123-0.092-0.125-0.094c0,0-0.084-0.025-0.094-0.031
		s-0.027-0.029-0.031-0.031c-0.012-0.008-0.037-0.003-0.031,0c-0.033-0.021-0.093-0.063-0.094-0.063s-0.002-0.017-0.031-0.031
		c-0.012-0.008-0.02-0.023-0.031-0.031c-0.006-0.004-0.023,0.005-0.031,0c-0.004-0.002-0.02-0.024-0.031-0.031
		s-0.094-0.031-0.094-0.031c-0.001,0-0.085-0.048-0.125-0.063c-0.012-0.006-0.031,0-0.031,0c-0.032-0.014-0.094-0.063-0.094-0.063
		c-0.045-0.016-0.122-0.03-0.125-0.031l-0.156-0.031c0.002,0-0.028,0.001-0.031,0c-0.023-0.002-0.054,0-0.063,0
		c-0.006-0.002,0.01-0.028,0-0.031c-0.004-0.002-0.02,0.004-0.031,0c-0.006-0.002-0.017,0.004-0.031,0s-0.125-0.031-0.125-0.031
		s-0.085,0-0.094,0s-0.027,0-0.031,0c-0.002,0-0.133,0-0.156,0l-2.031-0.063h-0.063c-0.017,0-0.018,0-0.031,0s-0.029,0-0.031,0
		c-0.004,0-0.217,0-0.188,0c0.023,0-0.08,0-0.125,0c-0.004,0-0.021,0-0.031,0c-0.043,0.002-0.123,0-0.125,0
		c-0.052-0.004-0.104-0.004-0.156,0c0,0-0.085,0.028-0.094,0.031s-0.026-0.002-0.031,0c-0.01,0.003-0.021,0.027-0.031,0.031
		c-0.02,0.007-0.039-0.008-0.063,0c-0.047,0.016-0.028,0.03-0.031,0.031c-0.02,0.004-0.045-0.004-0.063,0
		c-0.009,0.002-0.021-0.002-0.031,0c-0.006,0.001-0.02,0.029-0.031,0.031s-0.125,0.031-0.125,0.031
		c-0.077,0.029-0.016-0.006-0.031,0s-0.043,0.023-0.063,0.031c-0.039,0.016-0.123,0.062-0.125,0.063c0,0-0.111,0.053-0.125,0.063
		s-0.025-0.004-0.031,0c-0.012,0.008-0.026,0.027-0.031,0.031c-0.01,0.008,0.008,0.025,0,0.031c-0.016,0.012-0.047,0.02-0.063,0.031
		c-0.012,0.007-0.012,0.02-0.031,0.031c-0.039,0.023-0.154,0.092-0.156,0.094c-0.07,0.051-0.02,0.022-0.031,0.031
		s-0.047,0.02-0.063,0.031c-0.031,0.023-0.092,0.061-0.094,0.063s-0.094,0.094-0.125,0.125s-0.013,0.012-0.063,0.063
		c0.171-0.174-0.184,0.184-0.188,0.188s-0.152,0.183-0.156,0.188c-0.002,0.002-0.039,0.086-0.063,0.125
		c-0.012,0.02-0.022,0.047-0.031,0.063s0.027-0.041-0.031,0.063c0,0-0.059,0.085-0.063,0.094c-0.004,0.01,0.004,0.022,0,0.031
		c0,0.001,0.004,0.025,0,0.031c-0.008,0.015-0.023,0.017-0.031,0.031c-0.016,0.039,0.001,0.029,0,0.031
		C13.29,55.98,13.271,55.989,13.265,56c-0.006,0.009-0.025,0.021-0.031,0.031c-0.003,0.006,0.006,0.02,0,0.031
		c-0.004,0.006-0.023,0.017-0.031,0.031s-0.031,0.125-0.031,0.125s-0.029,0.084-0.031,0.094s-0.03,0.026-0.031,0.031
		c-0.002,0.01,0.002,0.022,0,0.031c-0.004,0.018,0.004,0.043,0,0.063c0,0.003-0.023,0.086-0.031,0.125
		c-0.004,0.02,0.003,0.047,0,0.063s-0.011-0.058-0.031,0.063c-0.001,0.007-0.031,0.244-0.031,0.25c0,0.003,0,0.148,0,0.188
		s0,0.034,0,0.063l0.156,16.063c-0.002-0.123,0,0.008,0,0.031s0,0.123,0,0.125c0,0.006,0,0.025,0,0.031c0,0.011,0,0.093,0,0.094
		c0,0,0.026,0.035,0.031,0.063c0,0.006,0,0.021,0,0.031c0,0.006,0,0.018,0,0.031c0.002,0.01-0.001,0.027,0,0.031
		c0.004,0.018-0.002,0.025,0,0.031c0.004,0.014-0.002,0.026,0,0.031c0.001,0.004,0.03-0.004,0.031,0c0.004,0.029,0,0.063,0,0.063
		c0.001,0.003,0.001,0.034,0,0.031c0.008,0.029-0.002,0.089,0,0.094c0.002,0.007,0.029-0.006,0.031,0
		c0.004,0.011-0.004,0.02,0,0.031c0.001,0.003,0.03,0.122,0.031,0.125s0.062,0.153,0.063,0.156c0.008,0.023,0.031,0.123,0.031,0.125
		c0.002,0.006-0.002,0.024,0,0.031s0.063,0.094,0.063,0.094c0.047,0.097,0.023,0.047,0.031,0.063s0.03,0.061,0.031,0.063
		s0.047,0.102,0.063,0.125c0,0,0.038,0.029,0.063,0.063c0.007,0.01-0.006,0.022,0,0.031c0,0,0.023,0.02,0.031,0.031
		c0.014,0.016,0.025,0.025,0.031,0.031C13.724,74.941,13.734,75,13.734,75s0.014,0.01,0.031,0.031
		c0.005,0.008,0.023,0.02,0.031,0.031c0.014,0.018,0.031,0.031,0.031,0.031c0.002,0.004-0.005,0.023,0,0.031
		c0.004,0.004,0.027-0.004,0.031,0c0.02,0.025,0.063,0.094,0.063,0.094c0.002,0.002,0.113,0.113,0.094,0.094
		s0.092,0.092,0.094,0.094c0,0,0.086,0.089,0.094,0.094c0.004,0.004,0.027-0.004,0.031,0c0.003,0.003,0.023,0.024,0.031,0.031
		c0.012,0.008,0.023,0.026,0.031,0.031c0.021,0.018,0.031,0.031,0.031,0.031s0.059,0.01,0.094,0.031
		c0.006,0.006,0.016,0.018,0.031,0.031c0.012,0.008,0.031,0.031,0.031,0.031c0.009,0.006,0.021-0.007,0.031,0
		c0.033,0.024,0.063,0.063,0.063,0.063c0.023,0.016,0.123,0.062,0.125,0.063s0.047,0.023,0.063,0.031s-0.034-0.016,0.063,0.031
		c0,0,0.087,0.061,0.094,0.063s0.025-0.002,0.031,0c0.002,0,0.102,0.023,0.125,0.031c0.003,0.001,0.153,0.062,0.156,0.063
		s0.122,0.03,0.125,0.031c0.012,0.004,0.021-0.004,0.031,0c0.006,0.002-0.007,0.029,0,0.031s0.125,0,0.125,0
		c0.009,0.003,0.125,0.031,0.125,0.031s0.057-0.004,0.094,0c0.027,0.005,0.063,0.031,0.063,0.031c0.001,0,0.083,0,0.094,0
		s0.051,0,0.063,0c0.024,0,0.076,0,0.094,0c0.023,0,0.154,0.002,0.031,0h64c-0.123,0.002,0.008,0,0.031,0s0.123,0,0.125,0
		c0.006,0,0.025,0,0.031,0c0.011,0,0.093,0,0.094,0c0,0,0.035-0.026,0.063-0.031c0.037-0.004,0.094,0,0.094,0
		c0.008,0,0.033,0.004,0.063,0c0.01-0.004-0.006-0.029,0-0.031c0.029-0.004,0.063,0,0.063,0c0.009-0.003,0.029,0,0.031,0
		c0.029-0.008,0.089,0.002,0.094,0c0.007-0.002-0.006-0.029,0-0.031c0.011-0.004,0.02,0.004,0.031,0
		c0.003-0.001,0.122-0.03,0.125-0.031s0.153-0.062,0.156-0.063c0.023-0.008,0.123-0.031,0.125-0.031
		c0.006-0.002,0.024,0.002,0.031,0s0.094-0.063,0.094-0.063c0.097-0.047,0.047-0.023,0.063-0.031s0.061-0.03,0.063-0.031
		s0.102-0.047,0.125-0.063c0,0,0.029-0.038,0.063-0.063c0.013-0.008,0.024,0.004,0.031,0c0,0,0.02-0.023,0.031-0.031
		c0.007-0.005,0.019-0.021,0.031-0.031c0.035-0.021,0.094-0.031,0.094-0.031s0.055-0.056,0.063-0.063
		c0.018-0.014,0.031-0.031,0.031-0.031c-0.001,0.001,0.047-0.047,0.031-0.031c0.025-0.02,0.094-0.063,0.094-0.063
		c0.002-0.002,0.113-0.113,0.094-0.094s0.092-0.092,0.094-0.094c0,0,0.043-0.068,0.063-0.094c0.008-0.008,0.023-0.023,0.031-0.031
		c0.003-0.003,0.024-0.023,0.031-0.031c0.014-0.018,0.033-0.035,0.031-0.031C82.408,75.01,82.422,75,82.422,75
		s0.01-0.059,0.031-0.094c0.01-0.013,0.026-0.024,0.031-0.031c0.008-0.012,0.031-0.031,0.031-0.031s-0.006-0.02,0-0.031
		c0.024-0.033,0.063-0.063,0.063-0.063c0.016-0.023,0.062-0.123,0.063-0.125s0.023-0.047,0.031-0.063s-0.016,0.034,0.031-0.063
		c0,0,0.061-0.087,0.063-0.094s-0.002-0.025,0-0.031c0,0.002,0.008-0.055,0-0.031c0.01-0.027,0.025-0.076,0.031-0.094
		c0.001-0.003,0.062-0.153,0.063-0.156s0.03-0.122,0.031-0.125c0.004-0.012-0.004-0.021,0-0.031c0.002-0.006,0.029,0.007,0.031,0
		c0.002-0.005-0.008-0.064,0-0.094c0-0.002-0.003-0.022,0-0.031c0.004-0.012-0.004-0.05,0-0.063
		c0.008-0.034,0.031-0.063,0.031-0.063s-0.004-0.057,0-0.094c0.005-0.027,0.031-0.063,0.031-0.063c0-0.001,0-0.083,0-0.094
		s0-0.051,0-0.063c0-0.024,0-0.076,0-0.094c0-0.023,0.002-0.154,0-0.031v-2c0.002,0.123,0-0.008,0-0.031c0-0.018,0-0.069,0-0.094
		c0,0.023,0-0.033,0-0.031c0-0.006,0-0.025,0-0.031c0-0.011,0-0.093,0-0.094c0,0-0.026-0.035-0.031-0.063c0-0.006,0-0.021,0-0.031
		c0-0.006,0-0.018,0-0.031c0-0.007,0.001-0.014,0-0.031c0-0.004,0.002-0.02,0-0.031c-0.004-0.014,0.002-0.026,0-0.031
		c-0.001-0.004-0.03,0.004-0.031,0c-0.004-0.013,0.004-0.051,0-0.063c0,0,0.002-0.118,0-0.125s-0.029,0.006-0.031,0
		c-0.004-0.011,0.004-0.02,0-0.031c-0.001-0.003-0.03-0.122-0.031-0.125s-0.062-0.153-0.063-0.156
		c-0.006-0.018-0.021-0.066-0.031-0.094c0.008,0.023,0-0.033,0-0.031c-0.002-0.006,0.002-0.024,0-0.031S82.703,70,82.703,70
		c-0.047-0.097-0.023-0.047-0.031-0.063s-0.03-0.061-0.031-0.063s-0.047-0.102-0.063-0.125c0,0-0.038-0.029-0.063-0.063
		c-0.006-0.012,0-0.031,0-0.031c-0.005-0.006-0.027,0.005-0.031,0c0,0,0.003-0.027,0-0.031c-0.014-0.016-0.025-0.025-0.031-0.031
		c-0.021-0.035-0.031-0.094-0.031-0.094s-0.014-0.01-0.031-0.031c0.002,0.004-0.018-0.014-0.031-0.031
		c-0.008-0.012-0.023-0.021-0.031-0.031c-0.002-0.004,0.005-0.023,0-0.031c-0.011-0.013-0.039-0.008-0.031,0
		c-0.02-0.025-0.063-0.094-0.063-0.094c-0.002-0.002-0.113-0.113-0.094-0.094s-0.092-0.092-0.094-0.094c0,0-0.068-0.043-0.094-0.063
		c0.008,0.008,0.013-0.021,0-0.031c-0.004-0.004-0.027,0.004-0.031,0c-0.003-0.003-0.023-0.024-0.031-0.031
		s-0.063-0.063-0.063-0.063s-0.059-0.01-0.094-0.031c-0.006-0.006-0.016-0.018-0.031-0.031c-0.002-0.002-0.024,0.005-0.031,0
		c-0.012-0.009-0.014-0.02-0.031-0.031c-0.033-0.024-0.063-0.063-0.063-0.063c-0.023-0.016-0.123-0.062-0.125-0.063
		s-0.047-0.023-0.063-0.031s0.034,0.016-0.063-0.031c0,0-0.087-0.061-0.094-0.063s-0.025,0.002-0.031,0c0.002,0-0.055-0.008-0.031,0
		c-0.027-0.01-0.076-0.025-0.094-0.031c-0.003-0.001-0.153-0.062-0.156-0.063s-0.122-0.03-0.125-0.031
		c-0.012-0.004-0.021,0.004-0.031,0c-0.006-0.002,0.007-0.029,0-0.031c-0.005-0.002-0.064,0.008-0.094,0
		c-0.002,0-0.022,0.003-0.031,0c-0.004-0.002-0.032,0.007-0.063,0c-0.006-0.002,0.01-0.027,0-0.031c-0.03-0.007-0.063,0-0.063,0
		c-0.01-0.002-0.057,0.007-0.094,0c-0.027-0.005-0.063-0.031-0.063-0.031c-0.001,0-0.083,0-0.094,0c-0.006,0-0.025,0-0.031,0
		c-0.002,0-0.102,0-0.125,0s-0.154-0.002-0.031,0h-24c3.69-0.758,6.979-2.001,9.656-3.813c4.426-2.994,7.281-7.483,7.25-12.563
		c-0.048-7.649-5-12.475-10.5-14.75c-5.441-2.251-11.5-2.563-15.407-2.563c-3.379-0.036-5.79-0.878-7.25-1.844
		c-1.465-0.968-1.844-2.015-1.844-2.375c0-1.542,1.913-5.906,9.969-5.906c4.627,0,7.092,1.192,8.469,2.344
		c1.367,1.143,1.707,2.423,1.75,2.656c0.01,0.021,0.02,0.042,0.031,0.063c0-0.002,0.031,0.095,0.031,0.094
		c0-0.002,0.031,0.095,0.031,0.094c0.068,0.246,0.048,0.135,0.031,0.063c-0.007-0.031,0.026,0.12,0,0.031
		c0.854,2.896,3.738,4.25,6.406,4.25c1.396,0,2.846-0.308,4.031-1.188c1.25-0.927,2-2.417,2-4.031v-9.531
		c0-1.917-1.184-3.32-2.313-4.188c-1.179-0.906-2.727-1.531-4.469-1.531c-1.148,0-2.478,0.148-3.75,0.844
		c-0.432,0.236-0.608,0.508-0.844,0.781c-0.954-0.394-1.906-0.781-3.219-1.063C53.705,13.696,50.887,13.343,48.203,13.343z
		 M35.796,66.625c1.793,0.709,3.604,1.303,5.469,1.719h-7.219c0.3-0.15,0.621-0.178,0.906-0.406
		C35.428,67.555,35.559,67.082,35.796,66.625z"/>
	<path id="path4016" opacity="0.08" fill="#FFFFFF" enable-background="new    " d="M48.203,14.312
		c-4.557,0-10.037,1.03-14.625,3.531c-4.6,2.508-8.375,6.761-8.375,12.656c0,5.688,3.634,9.695,8.031,11.969
		c4.383,2.266,9.59,3.094,13.75,3.094c3.883,0,7.599,0.531,10.063,1.625c1.249,0.555,2.133,1.195,2.719,1.938
		c0.586,0.742,0.906,1.586,0.906,2.781c0,2.327-1.141,3.797-3.563,5.063c-2.398,1.254-6.025,1.969-9.969,1.969
		c-4.3,0-7.324-1.406-9.313-3.094c-0.985-0.836-1.693-1.793-2.156-2.625s-0.656-1.584-0.656-1.875c0-1.512-1.02-2.6-2.031-3.25
		c-1.027-0.66-2.299-1.031-3.688-1.031c-1.348,0-2.593,0.348-3.563,1.094c-0.99,0.762-1.594,1.93-1.594,3.188v10.219
		c0,0.002,0,0.029,0,0.031c0,0.01,0,0.021,0,0.031c0.049,1.424,0.345,2.965,1.281,4.281c0.963,1.354,2.627,2.281,4.594,2.281
		c1.56,0,3.063,0.005,4.313-1c0.574-0.461,0.869-1.082,1.094-1.719c4.16,1.743,8.479,2.719,13.031,2.719
		c6.75,0,12.54-1.621,16.75-4.469c4.215-2.852,6.842-7.035,6.813-11.75c-0.045-7.239-4.652-11.67-9.906-13.844
		c-5.232-2.166-11.182-2.5-15.032-2.5c-3.534-0.037-6.129-0.907-7.781-2c-1.655-1.094-2.281-2.345-2.281-3.188
		c0-2.266,2.526-6.875,10.938-6.875c4.797,0,7.524,1.25,9.094,2.563s2.008,2.761,2.094,3.219c0.009,0.032,0.02,0.063,0.031,0.094
		c0.001,0.003,0.016,0.047,0.031,0.094c0.007,0.024,0.024,0.039,0.031,0.063c0.709,2.403,3.122,3.563,5.469,3.563
		c1.252,0,2.467-0.28,3.438-1c1.001-0.743,1.625-1.946,1.625-3.25v-9.531c0-1.515-0.938-2.638-1.938-3.406
		c-1.028-0.79-2.371-1.344-3.875-1.344c-1.066,0-2.211,0.133-3.281,0.719c-0.436,0.238-0.74,0.656-1.063,1.031
		c-1.066-0.463-2.201-0.9-3.688-1.219C53.552,14.647,50.803,14.312,48.203,14.312z M15.578,55.25
		c-0.006,0.001-0.182,0.061-0.188,0.063s-0.15,0.029-0.156,0.031s-0.151,0.061-0.156,0.063s-0.12,0.091-0.125,0.094
		s-0.152,0.09-0.156,0.094s-0.121,0.09-0.125,0.094s-0.121,0.121-0.125,0.125s-0.121,0.121-0.125,0.125s-0.09,0.12-0.094,0.125
		s-0.091,0.151-0.094,0.156s-0.061,0.15-0.063,0.156s-0.092,0.15-0.094,0.156s-0.029,0.15-0.031,0.156s-0.03,0.15-0.031,0.156
		s-0.031,0.182-0.031,0.188s0,0.15,0,0.156L14.14,73.25c0,0.004,0,0.091,0,0.094c0,0.004,0,0.091,0,0.094s0.031,0.091,0.031,0.094
		s0,0.091,0,0.094s0.03,0.091,0.031,0.094s0.03,0.091,0.031,0.094s0.03,0.091,0.031,0.094s0.029,0.091,0.031,0.094
		c0.001,0.003,0.029,0.091,0.031,0.094s0.029,0.06,0.031,0.063s0.061,0.091,0.063,0.094s0.061,0.061,0.063,0.063
		s0.029,0.092,0.031,0.094s0.061,0.061,0.063,0.063s0.061,0.092,0.063,0.094s0.061,0.061,0.063,0.063s0.061,0.061,0.063,0.063
		s0.092,0.061,0.094,0.063s0.061,0.061,0.063,0.063s0.092,0.029,0.094,0.031s0.06,0.061,0.063,0.063s0.091,0.061,0.094,0.063
		s0.06,0.029,0.063,0.031s0.091,0.03,0.094,0.031s0.091,0.03,0.094,0.031s0.091,0.03,0.094,0.031s0.091,0.03,0.094,0.031
		s0.091,0.031,0.094,0.031s0.091,0,0.094,0s0.091,0.031,0.094,0.031s0.091,0,0.094,0c0.004,0,0.091,0,0.094,0h64
		c0.004,0,0.091,0,0.094,0c0.004,0,0.091,0,0.094,0s0.091-0.031,0.094-0.031s0.091,0,0.094,0s0.091-0.03,0.094-0.031
		s0.091-0.03,0.094-0.031s0.091-0.03,0.094-0.031s0.091-0.03,0.094-0.031s0.091-0.029,0.094-0.031s0.06-0.029,0.063-0.031
		s0.091-0.061,0.094-0.063s0.061-0.061,0.063-0.063s0.092-0.029,0.094-0.031s0.061-0.061,0.063-0.063s0.092-0.061,0.094-0.063
		s0.061-0.061,0.063-0.063s0.061-0.061,0.063-0.063s0.061-0.092,0.063-0.094s0.061-0.061,0.063-0.063s0.029-0.092,0.031-0.094
		s0.061-0.06,0.063-0.063s0.061-0.091,0.063-0.094s0.029-0.06,0.031-0.063s0.03-0.091,0.031-0.094s0.03-0.091,0.031-0.094
		s0.03-0.091,0.031-0.094s0.03-0.091,0.031-0.094s0.031-0.091,0.031-0.094s0-0.091,0-0.094s0.031-0.091,0.031-0.094s0-0.091,0-0.094
		c0-0.004,0-0.091,0-0.094v-2c0-0.004,0-0.091,0-0.094c0-0.004,0-0.091,0-0.094s-0.031-0.091-0.031-0.094s0-0.091,0-0.094
		s-0.03-0.091-0.031-0.094s-0.03-0.091-0.031-0.094s-0.03-0.091-0.031-0.094s-0.03-0.091-0.031-0.094s-0.029-0.091-0.031-0.094
		s-0.029-0.06-0.031-0.063s-0.061-0.091-0.063-0.094s-0.061-0.061-0.063-0.063s-0.029-0.092-0.031-0.094s-0.061-0.061-0.063-0.063
		s-0.061-0.092-0.063-0.094s-0.061-0.061-0.063-0.063s-0.061-0.061-0.063-0.063s-0.092-0.061-0.094-0.063s-0.061-0.061-0.063-0.063
		s-0.092-0.029-0.094-0.031s-0.06-0.061-0.063-0.063s-0.091-0.061-0.094-0.063s-0.06-0.029-0.063-0.031s-0.091-0.03-0.094-0.031
		s-0.091-0.03-0.094-0.031s-0.091-0.03-0.094-0.031s-0.091-0.03-0.094-0.031s-0.091-0.031-0.094-0.031s-0.091,0-0.094,0
		s-0.091-0.031-0.094-0.031s-0.091,0-0.094,0c-0.004,0-0.091,0-0.094,0H20.015V57.25c0-0.003,0-0.091,0-0.094s0-0.091,0-0.094
		s-0.031-0.091-0.031-0.094s0-0.091,0-0.094s-0.03-0.091-0.031-0.094s-0.03-0.091-0.031-0.094s-0.03-0.091-0.031-0.094
		s-0.03-0.06-0.031-0.063s-0.029-0.091-0.031-0.094s-0.029-0.091-0.031-0.094s-0.061-0.06-0.063-0.063s-0.029-0.092-0.031-0.094
		s-0.061-0.061-0.063-0.063s-0.061-0.092-0.063-0.094s-0.061-0.061-0.063-0.063s-0.061-0.061-0.063-0.063s-0.061-0.061-0.063-0.063
		s-0.061-0.061-0.063-0.063s-0.061-0.061-0.063-0.063s-0.092-0.061-0.094-0.063s-0.061-0.029-0.063-0.031s-0.091-0.061-0.094-0.063
		s-0.06-0.029-0.063-0.031s-0.091-0.061-0.094-0.063s-0.091-0.03-0.094-0.031s-0.06-0.03-0.063-0.031s-0.091-0.03-0.094-0.031
		s-0.091,0-0.094,0s-0.091-0.031-0.094-0.031s-0.091-0.031-0.094-0.031s-0.091,0-0.094,0s-0.091,0-0.094,0l-2.094-0.063
		c-0.002,0-0.033,0.002-0.063,0c-0.014-0.001-0.03,0-0.031,0c-0.004,0-0.121,0-0.125,0s-0.09,0-0.094,0s-0.09,0-0.094,0
		C15.619,55.249,15.599,55.249,15.578,55.25z"/>
	<path id="path4012" opacity="0.15" fill="#FFFFFF" enable-background="new    " d="M48.203,15.187
		c-4.42,0-9.802,1.029-14.219,3.438s-7.906,6.35-7.906,11.875c0,5.319,3.356,9.014,7.563,11.188s9.303,3,13.344,3
		c3.958,0,7.746,0.506,10.407,1.688s4.156,2.818,4.156,5.532c0,2.646-1.438,4.488-4.031,5.844s-6.33,2.063-10.375,2.063
		c-4.495,0-7.734-1.496-9.875-3.313s-3.125-4.053-3.125-5.156c0-1.123-0.745-1.936-1.625-2.5c-0.88-0.565-1.992-0.907-3.219-0.907
		c-1.199,0-2.25,0.305-3.031,0.907c-0.781,0.602-1.25,1.523-1.25,2.5v10.219c0,0.01,0,0.021,0,0.031
		c0.046,1.319,0.328,2.691,1.125,3.813s2.179,1.906,3.875,1.906c1.55,0,2.77-0.025,3.75-0.813c0.49-0.395,0.797-0.949,0.969-1.563
		c0.051-0.183,0.031-0.43,0.063-0.625c4.357,1.977,8.87,3,13.656,3c6.61,0,12.223-1.588,16.25-4.313s6.465-6.646,6.438-11.031
		c-0.043-6.875-4.332-10.945-9.375-13.032S50.874,36.5,47.078,36.5c-3.675-0.039-6.456-0.95-8.281-2.156s-2.656-2.67-2.656-3.906
		c0-2.889,3.076-7.75,11.813-7.75c9.901,0,11.817,5.184,12.063,6.5c0.009,0.032,0.02,0.063,0.031,0.094c0.555,1.996,2.568,3,4.656,3
		c1.113,0,2.125-0.264,2.906-0.844s1.281-1.516,1.281-2.531v-9.531c0-1.159-0.705-2.035-1.594-2.719S65.242,15.5,63.953,15.5
		c-0.984,0-1.986,0.139-2.875,0.625c-0.49,0.268-0.932,0.708-1.25,1.219c-1.111-0.529-2.427-0.986-4.094-1.344
		C53.426,15.504,50.729,15.187,48.203,15.187z M15.734,56.125c-0.51,0.097-0.878,0.543-0.875,1.063l0.156,16.063
		c0.007,0.584,0.479,1.056,1.063,1.063h64c0.584-0.007,1.056-0.479,1.063-1.063v-2c-0.007-0.584-0.479-1.056-1.063-1.063H19.14
		V57.25c-0.006-0.572-0.459-1.039-1.031-1.063l-2.156-0.063C15.88,56.117,15.806,56.117,15.734,56.125z"/>
	<path id="path4006" inkscape:connector-curvature="0" opacity="0.2" fill="#FFFFFF" enable-background="new    " d="M48.203,16.25
		c-8.496,0-21.063,4.085-21.063,14.25c0,9.75,12.072,13.125,19.844,13.125c8.093,0,15.625,1.994,15.625,8.282
		c0,6.125-7.133,8.969-15.469,8.969c-9.467,0-14.063-6.305-14.063-9.531c0-1.131-1.758-2.344-3.781-2.344
		c-2.024,0-3.219,1.055-3.219,2.344v10.219c0.081,2.336,1.149,4.688,3.938,4.688c3.002,0,3.875-0.408,3.875-3.406
		c4.623,2.363,9.416,3.406,14.563,3.406c12.868,0,21.675-6.305,21.625-14.281c-0.081-12.892-15.555-14.407-23-14.407
		c-7.687-0.08-12-3.74-12-7.125c0-3.626,3.731-8.813,12.875-8.813c10.286,0,12.779,5.523,13.125,7.375
		c0.404,1.456,1.844,2.219,3.625,2.219c1.863,0,3.125-0.943,3.125-2.313v-9.531c0-1.208-1.871-2.813-3.875-2.813
		c-1.699,0-3.45,0.639-3.531,2.25C58.723,17.523,53.068,16.25,48.203,16.25z M15.921,57.188l0.156,16.063h64v-2h-62v-14
		L15.921,57.188z"/>
	
		<linearGradient id="path3052_1_" gradientUnits="userSpaceOnUse" x1="938.9521" y1="-1077.1362" x2="939.4178" y2="-1188.9153" gradientTransform="matrix(0.4493 0 0 -0.4474 -374.0723 -466.6595)">
		<stop  offset="0" style="stop-color:#384880"/>
		<stop  offset="1" style="stop-color:#000000"/>
	</linearGradient>
	<path id="path3052" inkscape:connector-curvature="0" fill="url(#path3052_1_)" d="M48.203,15.25
		c-8.496,0-21.063,4.085-21.063,14.25c0,9.75,12.072,13.125,19.844,13.125c8.093,0,15.625,1.994,15.625,8.282
		c0,6.125-7.133,8.969-15.469,8.969c-9.467,0-14.063-6.305-14.063-9.531c0-1.131-1.758-2.344-3.781-2.344
		c-2.024,0-3.219,1.055-3.219,2.344v10.219c0.081,2.336,1.149,4.688,3.938,4.688c3.002,0,3.875-0.408,3.875-3.406
		c4.623,2.363,9.416,3.406,14.563,3.406c12.868,0,21.675-6.305,21.625-14.281c-0.081-12.892-15.555-14.407-23-14.407
		c-7.687-0.08-12-3.74-12-7.125c0-3.626,3.731-8.813,12.875-8.813c10.286,0,12.779,5.523,13.125,7.375
		c0.404,1.456,1.844,2.219,3.625,2.219c1.863,0,3.125-0.943,3.125-2.313v-9.531c0-1.208-1.871-2.813-3.875-2.813
		c-1.699,0-3.45,0.639-3.531,2.25C58.723,16.523,53.068,15.25,48.203,15.25z M15.921,56.188l0.156,16.063h64v-2h-62v-14
		L15.921,56.188z"/>
	<path id="path4022" inkscape:connector-curvature="0" opacity="0.5" enable-background="new    " d="M48.203,15.25
		c-8.496,0-21.063,4.085-21.063,14.25c0,0.168,0.023,0.335,0.031,0.5c0.408-9.796,12.678-13.75,21.031-13.75
		c4.866,0,10.52,1.273,12.219,2.563c0.081-1.611,1.832-2.25,3.531-2.25c2.004,0,3.875,1.604,3.875,2.813v-1
		c0-1.208-1.871-2.813-3.875-2.813c-1.699,0-3.45,0.639-3.531,2.25C58.723,16.523,53.068,15.25,48.203,15.25z M35.109,29.75
		c-0.029,0.237-0.031,0.461-0.031,0.688c0,3.385,4.313,7.045,12,7.125c7.361,0,22.542,1.483,22.969,13.969
		c0.008-0.186,0.032-0.375,0.031-0.563c-0.081-12.892-15.555-14.407-23-14.407C39.631,36.484,35.369,33.042,35.109,29.75z
		 M29.296,48c-2.024,0-3.219,1.055-3.219,2.344v1c0-1.289,1.194-2.344,3.219-2.344c2.023,0,3.781,1.213,3.781,2.344
		c0,3.227,4.596,9.531,14.063,9.531c8.336,0,15.469-2.844,15.469-8.969c0-0.174-0.02-0.332-0.031-0.5
		c-0.381,5.779-7.333,8.469-15.438,8.469c-9.467,0-14.063-6.305-14.063-9.531C33.078,49.213,31.32,48,29.296,48z M15.921,56.188v1
		l2.156,0.063v-1L15.921,56.188z M18.078,70.25v1h62v-1H18.078z"/>
</g>
</svg>
