<?xml version="1.0" encoding="utf-8"?>
<!-- Generator: Adobe Illustrator 14.0.0, SVG Export Plug-In . SVG Version: 6.00 Build 43363)  -->
<!DOCTYPE svg PUBLIC "-//W3C//DTD SVG 1.1//EN" "http://www.w3.org/Graphics/SVG/1.1/DTD/svg11.dtd">
<svg version="1.1"
	 id="svg2408" xmlns:dc="http://purl.org/dc/elements/1.1/" xmlns:svg="http://www.w3.org/2000/svg" xmlns:cc="http://creativecommons.org/ns#" xmlns:rdf="http://www.w3.org/1999/02/22-rdf-syntax-ns#" xmlns:inkscape="http://www.inkscape.org/namespaces/inkscape"
	 xmlns="http://www.w3.org/2000/svg" xmlns:xlink="http://www.w3.org/1999/xlink" x="0px" y="0px" width="96px" height="96px"
	 viewBox="0 0 96 96" enable-background="new 0 0 96 96" xml:space="preserve">
<g>
	
		<linearGradient id="SVGID_1_" gradientUnits="userSpaceOnUse" x1="44" y1="-2136" x2="136" y2="-2136" gradientTransform="matrix(1 0 0 -1 -42 -2088)">
		<stop  offset="0" style="stop-color:#000000"/>
		<stop  offset="1" style="stop-color:#000000;stop-opacity:0.5882"/>
	</linearGradient>
	<path opacity="0.08" fill="url(#SVGID_1_)" enable-background="new    " d="M10.5,93C5.813,93,2,89.188,2,84.5v-73
		C2,6.813,5.813,3,10.5,3h75c4.145,0,7.786,3.007,8.5,7v74.5c0,4.688-3.813,8.5-8.5,8.5H10.5z"/>
	
		<linearGradient id="SVGID_2_" gradientUnits="userSpaceOnUse" x1="45" y1="-2136" x2="135" y2="-2136" gradientTransform="matrix(1 0 0 -1 -42 -2088)">
		<stop  offset="0" style="stop-color:#000000"/>
		<stop  offset="1" style="stop-color:#000000;stop-opacity:0.5882"/>
	</linearGradient>
	<path opacity="0.1" fill="url(#SVGID_2_)" enable-background="new    " d="M10.5,92C6.364,92,3,88.636,3,84.5v-73
		C3,7.364,6.364,4,10.5,4h75c3.968,0,7.242,3.097,7.5,7v73.5c0,4.136-3.363,7.5-7.5,7.5H10.5z"/>
	
		<linearGradient id="SVGID_3_" gradientUnits="userSpaceOnUse" x1="46" y1="-2136" x2="134" y2="-2136" gradientTransform="matrix(1 0 0 -1 -42 -2088)">
		<stop  offset="0" style="stop-color:#000000"/>
		<stop  offset="1" style="stop-color:#000000;stop-opacity:0.5882"/>
	</linearGradient>
	<path opacity="0.2" fill="url(#SVGID_3_)" enable-background="new    " d="M10.5,91C6.916,91,4,88.084,4,84.5v-73
		C4,7.916,6.916,5,10.5,5h75c3.584,0,6.5,2.916,6.5,6.5v73c0,3.584-2.916,6.5-6.5,6.5H10.5z"/>
	
		<linearGradient id="SVGID_4_" gradientUnits="userSpaceOnUse" x1="90" y1="-2096" x2="90" y2="-2178.4194" gradientTransform="matrix(1 0 0 -1 -42 -2088)">
		<stop  offset="0" style="stop-color:#000000"/>
		<stop  offset="1" style="stop-color:#000000;stop-opacity:0.5882"/>
	</linearGradient>
	<path opacity="0.45" fill="url(#SVGID_4_)" enable-background="new    " d="M90,12.5c0-2.484-2.016-4.5-4.5-4.5h-75
		C8.015,8,6,10.016,6,12.5v18V63v22.5c0,2.486,2.015,4.5,4.5,4.5h75c2.484,0,4.5-2.014,4.5-4.5V12.5z"/>
</g>
<g>
	<path fill="#57536E" d="M90,84.5c0,2.486-2.016,4.5-4.5,4.5h-75C8.015,89,6,86.986,6,84.5v-57c0-2.484,2.015-4.5,4.5-4.5h75
		c2.484,0,4.5,2.016,4.5,4.5V84.5z"/>
</g>
<linearGradient id="SVGID_5_" gradientUnits="userSpaceOnUse" x1="90" y1="-2172.5" x2="90" y2="-2093" gradientTransform="matrix(1 0 0 -1 -42 -2088)">
	<stop  offset="0" style="stop-color:#8983AC"/>
	<stop  offset="1" style="stop-color:#CECCDD"/>
</linearGradient>
<path fill="url(#SVGID_5_)" d="M90,80c0,2.486-2.016,4.5-4.5,4.5h-75C8.015,84.5,6,82.486,6,80V9.5C6,7.016,8.015,5,10.5,5h75
	C87.984,5,90,7.016,90,9.5V80z"/>
<path fill="#ACA8C5" d="M10.5,83c-1.654,0-3-1.346-3-3V9.5c0-1.654,1.346-3,3-3h75c1.654,0,3,1.346,3,3V80c0,1.654-1.346,3-3,3H10.5
	z"/>
<radialGradient id="SVGID_6_" cx="90" cy="-2132.75" r="39.3911" gradientTransform="matrix(1 0 0 -1 -42 -2088)" gradientUnits="userSpaceOnUse">
	<stop  offset="0" style="stop-color:#FFFFFF"/>
	<stop  offset="1" style="stop-color:#FFFFFF;stop-opacity:0"/>
</radialGradient>
<path opacity="0.3" fill="url(#SVGID_6_)" enable-background="new    " d="M10.5,83c-1.654,0-3-1.346-3-3V9.5c0-1.654,1.346-3,3-3
	h75c1.654,0,3,1.346,3,3V80c0,1.654-1.346,3-3,3H10.5z"/>
<g opacity="0.2">
	
		<radialGradient id="SVGID_7_" cx="87.666" cy="-2135" r="255.6427" gradientTransform="matrix(1 0 0 -1 -42 -2088)" gradientUnits="userSpaceOnUse">
		<stop  offset="0" style="stop-color:#FFFFFF"/>
		<stop  offset="1" style="stop-color:#FFFFFF;stop-opacity:0"/>
	</radialGradient>
	<polygon fill="url(#SVGID_7_)" points="22.984,83 32.59,83 88.5,27.091 88.5,17.485 	"/>
	
		<radialGradient id="SVGID_8_" cx="87.666" cy="-2135" r="255.6075" gradientTransform="matrix(1 0 0 -1 -42 -2088)" gradientUnits="userSpaceOnUse">
		<stop  offset="0" style="stop-color:#FFFFFF"/>
		<stop  offset="1" style="stop-color:#FFFFFF;stop-opacity:0"/>
	</radialGradient>
	<polygon fill="url(#SVGID_8_)" points="43.738,6.5 7.5,42.738 7.5,52.344 53.344,6.5 	"/>
	
		<radialGradient id="SVGID_9_" cx="87.666" cy="-2135" r="255.644" gradientTransform="matrix(1 0 0 -1 -42 -2088)" gradientUnits="userSpaceOnUse">
		<stop  offset="0" style="stop-color:#FFFFFF"/>
		<stop  offset="1" style="stop-color:#FFFFFF;stop-opacity:0"/>
	</radialGradient>
	<polygon fill="url(#SVGID_9_)" points="62.32,6.5 7.5,61.32 7.5,70.926 71.926,6.5 	"/>
	
		<radialGradient id="SVGID_10_" cx="87.666" cy="-2135" r="255.6455" gradientTransform="matrix(1 0 0 -1 -42 -2088)" gradientUnits="userSpaceOnUse">
		<stop  offset="0" style="stop-color:#FFFFFF"/>
		<stop  offset="1" style="stop-color:#FFFFFF;stop-opacity:0"/>
	</radialGradient>
	<polygon fill="url(#SVGID_10_)" points="51.173,83 88.5,45.673 88.5,36.068 41.567,83 	"/>
	
		<radialGradient id="SVGID_11_" cx="87.6719" cy="-2135.0005" r="255.6177" gradientTransform="matrix(1 0 0 -1 -42 -2088)" gradientUnits="userSpaceOnUse">
		<stop  offset="0" style="stop-color:#FFFFFF"/>
		<stop  offset="1" style="stop-color:#FFFFFF;stop-opacity:0"/>
	</radialGradient>
	<polygon fill="url(#SVGID_11_)" points="69.755,83 88.5,64.255 88.5,54.65 60.148,83 	"/>
	
		<radialGradient id="SVGID_12_" cx="87.6768" cy="-2135.0054" r="255.5948" gradientTransform="matrix(1 0 0 -1 -42 -2088)" gradientUnits="userSpaceOnUse">
		<stop  offset="0" style="stop-color:#FFFFFF"/>
		<stop  offset="1" style="stop-color:#FFFFFF;stop-opacity:0"/>
	</radialGradient>
	<path fill="url(#SVGID_12_)" d="M85.5,83c1.654,0,3-1.348,3-3v-6.77L78.73,83H85.5z"/>
	
		<radialGradient id="SVGID_13_" cx="87.666" cy="-2135" r="255.6546" gradientTransform="matrix(1 0 0 -1 -42 -2088)" gradientUnits="userSpaceOnUse">
		<stop  offset="0" style="stop-color:#FFFFFF"/>
		<stop  offset="1" style="stop-color:#FFFFFF;stop-opacity:0"/>
	</radialGradient>
	<path fill="url(#SVGID_13_)" d="M10.5,83h3.508L88.361,8.647C87.991,7.41,86.855,6.5,85.5,6.5h-4.598L7.5,79.902V80
		C7.5,81.652,8.845,83,10.5,83z"/>
	
		<radialGradient id="SVGID_14_" cx="87.667" cy="-2135" r="255.6434" gradientTransform="matrix(1 0 0 -1 -42 -2088)" gradientUnits="userSpaceOnUse">
		<stop  offset="0" style="stop-color:#FFFFFF"/>
		<stop  offset="1" style="stop-color:#FFFFFF;stop-opacity:0"/>
	</radialGradient>
	<path fill="url(#SVGID_14_)" d="M10.5,6.5c-1.654,0-3,1.346-3,3v5.576L16.076,6.5H10.5z"/>
	
		<radialGradient id="SVGID_15_" cx="87.666" cy="-2135" r="255.6406" gradientTransform="matrix(1 0 0 -1 -42 -2088)" gradientUnits="userSpaceOnUse">
		<stop  offset="0" style="stop-color:#FFFFFF"/>
		<stop  offset="1" style="stop-color:#FFFFFF;stop-opacity:0"/>
	</radialGradient>
	<polygon fill="url(#SVGID_15_)" points="25.053,6.5 7.5,24.053 7.5,33.658 34.658,6.5 	"/>
</g>
<g id="layer4_1_">
	<path id="path3985" opacity="0.05" enable-background="new    " d="M42.01,9.919c-1.162,0.03-2.299,0.172-3.406,0.375
		c-6.454,1.18-11.884,4.547-15.813,8.5c-3.922,3.947-6.461,8.486-6.906,12.75c-0.457,4.377,1.865,7.511,3.094,8.875
		c2.33,2.589,5.518,4.264,8.344,5.688c-2.539,2.217-4.842,4.232-6.406,5.875c-3.485,3.66-6.333,7.66-6.344,11.813
		c0,0.209-0.032,1.377,0.094,2.688c0.126,1.313,0.447,2.916,1.25,4.472c0.127,0.245,0.676,1.417,1.688,2.719
		c1.006,1.295,2.494,2.825,4.688,4.063c3.049,1.722,6.893,2.191,10.656,1.656c11.229-1.604,24.756-10.399,34.594-18.531
		c6.281-5.19,10.784-9.896,12.563-13.217c1.604-2.994,1.617-6.804,0.813-9.719c-1.219-4.418-5.515-9.089-10.813-13.844
		c-5.317-4.773-11.789-9.375-17.903-12.125C49.039,10.531,45.474,9.831,42.01,9.919z"/>
	<path id="path3980" inkscape:connector-curvature="0" opacity="0.1" enable-background="new    " d="M42.041,10.794
		c-1.114,0.028-2.215,0.149-3.281,0.344c-6.254,1.144-11.522,4.404-15.344,8.25c-3.819,3.844-6.271,8.268-6.688,12.25
		c-0.422,4.034,1.725,6.94,2.875,8.219c2.466,2.739,6.135,4.525,9.188,6.063c-3.041,2.641-5.506,4.824-7.25,6.656
		c-3.426,3.598-6.084,7.471-6.094,11.219c-0.001,0.307-0.057,1.355,0.063,2.594c0.12,1.239,0.423,2.737,1.156,4.156
		c0.152,0.294,0.67,1.364,1.625,2.594c0.955,1.23,2.363,2.674,4.438,3.844c2.838,1.604,6.483,2.078,10.094,1.563
		C43.705,76.991,57.205,68.277,66.979,60.2c6.238-5.155,10.73-9.896,12.375-12.968c1.453-2.713,1.473-6.373,0.722-9.094
		c-1.12-4.055-5.275-8.721-10.532-13.438c-5.268-4.724-11.689-9.273-17.688-11.969C48.823,11.37,45.377,10.709,42.041,10.794z"/>
	<path id="path3976" opacity="0.15" enable-background="new    " d="M42.072,11.794c-1.068,0.027-2.115,0.128-3.125,0.313
		c-6.021,1.101-11.115,4.248-14.813,7.969c-3.698,3.721-6.025,8.011-6.406,11.656c-0.38,3.635,1.568,6.294,2.625,7.469
		c2.57,2.856,6.91,4.823,10.156,6.5c-3.791,3.263-6.293,5.507-8.25,7.563c-3.349,3.519-5.805,7.282-5.813,10.53
		c-0.002,0.779-0.205,3.767,1.094,6.281c0.366,0.708,1.799,3.838,5.688,6.03c2.587,1.461,6.039,1.929,9.469,1.438
		C43.168,76.05,56.66,67.432,66.354,59.419c6.187-5.11,10.648-9.897,12.125-12.656c1.265-2.357,1.312-5.899,0.625-8.375
		c-0.994-3.604-5.018-8.271-10.219-12.938s-11.583-9.18-17.438-11.812C48.566,12.343,45.26,11.713,42.072,11.794z"/>
	<path id="path3924_1_" inkscape:connector-curvature="0" opacity="0.3" enable-background="new    " d="M42.104,12.763
		c-1.014,0.026-2.005,0.136-2.969,0.313c-11.588,2.119-19.747,12.145-20.438,18.75c-0.339,3.241,1.411,5.647,2.375,6.719
		c2.604,2.894,7.787,5.106,11.125,6.938c-4.824,4.113-7.039,6.148-9.219,8.437c-3.262,3.424-5.556,7.176-5.563,9.875
		c-0.002,0.869-0.131,3.654,1,5.844c0.426,0.823,1.636,3.568,5.281,5.625c2.33,1.314,5.625,1.776,8.875,1.313
		c10.059-1.437,23.542-9.962,33.156-17.906c6.127-5.063,10.613-9.959,11.906-12.375c1.043-1.949,1.137-5.462,0.531-7.656
		c-1.721-6.233-15.693-18.986-27.125-24.125C48.309,13.285,45.146,12.686,42.104,12.763z M45.479,32.826
		c1.641-0.153,4.707,0.84,4.75,1.719c-0.938,0.464-3.881,0.122-5.688-1.219C44.648,33.036,44.979,32.872,45.479,32.826z"/>
	
		<linearGradient id="path2973_1_" gradientUnits="userSpaceOnUse" x1="47.96" y1="697.251" x2="64.21" y2="766.251" gradientTransform="matrix(1 0 0 1 -12 -696)">
		<stop  offset="0" style="stop-color:#BEBDF3"/>
		<stop  offset="0.7541" style="stop-color:#8F82F9"/>
		<stop  offset="0.8711" style="stop-color:#9F99C7"/>
		<stop  offset="1" style="stop-color:#524C76"/>
	</linearGradient>
	<path id="path2973" inkscape:connector-curvature="0" fill="url(#path2973_1_)" d="M17.416,62.797
		c0.008-2.699,2.303-6.47,5.564-9.895c2.179-2.288,4.393-4.297,9.217-8.41c-3.338-1.832-8.527-4.041-11.133-6.935
		c-0.963-1.071-2.71-3.497-2.371-6.737c0.69-6.605,8.843-16.629,20.432-18.749c3.855-0.705,8.283-0.196,11.926,1.442
		c11.432,5.139,25.41,17.906,27.129,24.14c0.605,2.194,0.49,5.691-0.553,7.641c-1.295,2.416-5.771,7.322-11.898,12.386
		c-9.611,7.944-23.083,16.478-33.142,17.911c-3.25,0.464-6.57-0.021-8.901-1.336c-3.645-2.058-4.855-4.804-5.281-5.627
		C17.273,66.439,17.414,63.667,17.416,62.797z M44.471,32.464c0.123-1.53,6.126-0.007,5.747,1.206
		C49.818,34.949,44.328,34.22,44.471,32.464z"/>
	<g>
		
			<linearGradient id="SVGID_16_" gradientUnits="userSpaceOnUse" x1="-252" y1="348.001" x2="-251" y2="348.001" gradientTransform="matrix(-38.1474 -37.9441 -37.9441 38.1474 3653.5002 -22772.7539)">
			<stop  offset="0" style="stop-color:#FFFFFF"/>
			<stop  offset="0.3421" style="stop-color:#FFFFFF"/>
			<stop  offset="0.6848" style="stop-color:#BEBDF3"/>
			<stop  offset="1" style="stop-color:#8F82F9"/>
		</linearGradient>
		<path fill="url(#SVGID_16_)" d="M35.446,41.963c-3.159,2.667-5.259,4.465-7.892,6.872c-6.342,5.795-10.65,10.208-8.429,16.237
			c2.563,6.957,8.179,6.604,14.767,5.311c16.977-3.348,44.887-24.804,43.463-32.729c-1.15-6.414-16.742-19.162-25.975-23.698
			c-2.885-1.417-6.208-2.15-9.542-1.994c-12.694,0.599-22.607,12.157-22.101,18.419C20.23,36.473,35.628,41.782,35.446,41.963z
			 M33.541,20.695c-3.82,4.25-1.378,12.472,4.957,16.954c7.412,5.244,19.415,6.193,21.804,2.149
			c4.455-7.544-0.409-15.52-7.671-19.078C45.455,17.205,35.922,18.046,33.541,20.695z"/>
		
			<radialGradient id="SVGID_17_" cx="-252" cy="348" r="1" gradientTransform="matrix(12.3612 0 0 12.3612 3156.1855 -4276.5254)" gradientUnits="userSpaceOnUse">
			<stop  offset="0" style="stop-color:#FFFFFF"/>
			<stop  offset="0.3421" style="stop-color:#FFFFFF"/>
			<stop  offset="0.52" style="stop-color:#BEBDF3"/>
			<stop  offset="0.7541" style="stop-color:#8F82F9"/>
			<stop  offset="0.8711" style="stop-color:#9F99C7"/>
			<stop  offset="1" style="stop-color:#524C76"/>
		</radialGradient>
		<path fill="url(#SVGID_17_)" d="M46.567,37.471c5.362,0.745,9.984-1.402,10.708-6.697c0.55-4.034-5.623-8.441-9.335-9.458
			c-3.099-0.849-9.828,0.243-10.282,6.104C37.188,33.514,43.44,37.036,46.567,37.471z M43.941,27.335
			c-3.524,5.46,5.117,7.139,6.439,6.143C56.084,29.186,45.494,24.93,43.941,27.335z"/>
		
			<radialGradient id="SVGID_18_" cx="-252" cy="348" r="1" gradientTransform="matrix(50.7745 0 0 -50.7745 12818.4043 17691.127)" gradientUnits="userSpaceOnUse">
			<stop  offset="0" style="stop-color:#FFFFFF"/>
			<stop  offset="0.3421" style="stop-color:#FFFFFF"/>
			<stop  offset="1" style="stop-color:#8F82F9"/>
		</radialGradient>
		<path fill="url(#SVGID_18_)" d="M40.816,13.413c-6.234,0.657-7.428,1.459-13.076,5.732c-1.893,1.432-5.376,4.917-6.269,9.05
			c-0.34,1.575,0.062,2.934,1.196,3.887c3.63,3.052,9.707,5.528,14.691,7.923c1.461,0.701,0.494,1.973-1.861,4.011
			C29.557,49.158,21.523,55.42,20.963,60.19c-0.264,2.248,0.506,5.304,3.234,6.867c3.188,1.827,9.805,0.635,14.225-1.012
			c6.457-2.404,14.939-7.711,21.672-12.927c7.003-5.424,13.514-12.314,13.836-13.437c0.396-1.381,0.355-2.654-0.406-4.12
			c-1.199-2.301-2.803-4.011-4.521-5.925c-4.617-4.867-9.502-9.144-15.346-12.42C49.436,14.85,45.723,12.896,40.816,13.413z
			 M49.973,24.324c4.504,2.178,9.129,7.897-0.04,11.188c-2.493,0.896-10.399-2.197-10.157-6.42
			C40.127,22.857,44.474,21.666,49.973,24.324z"/>
	</g>
</g>
</svg>
