<?xml version="1.0" encoding="utf-8"?>
<!-- Generator: Adobe Illustrator 14.0.0, SVG Export Plug-In . SVG Version: 6.00 Build 43363)  -->
<!DOCTYPE svg PUBLIC "-//W3C//DTD SVG 1.1//EN" "http://www.w3.org/Graphics/SVG/1.1/DTD/svg11.dtd">
<svg version="1.1"
	 id="svg2408" xmlns:dc="http://purl.org/dc/elements/1.1/" xmlns:svg="http://www.w3.org/2000/svg" xmlns:cc="http://creativecommons.org/ns#" xmlns:rdf="http://www.w3.org/1999/02/22-rdf-syntax-ns#" xmlns:inkscape="http://www.inkscape.org/namespaces/inkscape"
	 xmlns="http://www.w3.org/2000/svg" xmlns:xlink="http://www.w3.org/1999/xlink" x="0px" y="0px" width="96px" height="96px"
	 viewBox="0 0 96 96" enable-background="new 0 0 96 96" xml:space="preserve">
<g>
	<g>
		
			<linearGradient id="SVGID_1_" gradientUnits="userSpaceOnUse" x1="14" y1="744" x2="106" y2="744" gradientTransform="matrix(1 0 0 1 -12 -696)">
			<stop  offset="0" style="stop-color:#000000"/>
			<stop  offset="1" style="stop-color:#000000;stop-opacity:0.5882"/>
		</linearGradient>
		<path opacity="0.08" fill="url(#SVGID_1_)" enable-background="new    " d="M10.5,93C5.813,93,2,89.188,2,84.5v-73
			C2,6.813,5.813,3,10.5,3h75c4.145,0,7.786,3.007,8.5,7v74.5c0,4.688-3.813,8.5-8.5,8.5H10.5z"/>
		
			<linearGradient id="SVGID_2_" gradientUnits="userSpaceOnUse" x1="15" y1="744" x2="105" y2="744" gradientTransform="matrix(1 0 0 1 -12 -696)">
			<stop  offset="0" style="stop-color:#000000"/>
			<stop  offset="1" style="stop-color:#000000;stop-opacity:0.5882"/>
		</linearGradient>
		<path opacity="0.1" fill="url(#SVGID_2_)" enable-background="new    " d="M10.5,92C6.364,92,3,88.636,3,84.5v-73
			C3,7.364,6.364,4,10.5,4h75c3.968,0,7.242,3.097,7.5,7v73.5c0,4.136-3.363,7.5-7.5,7.5H10.5z"/>
		
			<linearGradient id="SVGID_3_" gradientUnits="userSpaceOnUse" x1="16" y1="744" x2="104" y2="744" gradientTransform="matrix(1 0 0 1 -12 -696)">
			<stop  offset="0" style="stop-color:#000000"/>
			<stop  offset="1" style="stop-color:#000000;stop-opacity:0.5882"/>
		</linearGradient>
		<path opacity="0.2" fill="url(#SVGID_3_)" enable-background="new    " d="M10.5,91C6.916,91,4,88.084,4,84.5v-73
			C4,7.916,6.916,5,10.5,5h75c3.584,0,6.5,2.916,6.5,6.5v73c0,3.584-2.916,6.5-6.5,6.5H10.5z"/>
		
			<linearGradient id="SVGID_4_" gradientUnits="userSpaceOnUse" x1="60" y1="704" x2="60" y2="786.4195" gradientTransform="matrix(1 0 0 1 -12 -696)">
			<stop  offset="0" style="stop-color:#000000"/>
			<stop  offset="1" style="stop-color:#000000;stop-opacity:0.5882"/>
		</linearGradient>
		<path opacity="0.45" fill="url(#SVGID_4_)" enable-background="new    " d="M90,12.5c0-2.484-2.016-4.5-4.5-4.5h-75
			C8.015,8,6,10.016,6,12.5v18V63v22.5c0,2.486,2.015,4.5,4.5,4.5h75c2.484,0,4.5-2.014,4.5-4.5V12.5z"/>
	</g>
	
		<linearGradient id="SVGID_5_" gradientUnits="userSpaceOnUse" x1="60" y1="701" x2="60" y2="785.4297" gradientTransform="matrix(1 0 0 1 -12 -696)">
		<stop  offset="0" style="stop-color:#86A0B9"/>
		<stop  offset="1" style="stop-color:#86A0B9"/>
	</linearGradient>
	<path fill="url(#SVGID_5_)" d="M90,9.5C90,7.016,87.984,5,85.5,5h-75C8.015,5,6,7.016,6,9.5v18V62v22.5c0,2.486,2.015,4.5,4.5,4.5
		h75c2.484,0,4.5-2.014,4.5-4.5V9.5z"/>
	<g>
		<path fill="#253E58" d="M90,84.5c0,2.486-2.016,4.5-4.5,4.5h-75C8.015,89,6,86.986,6,84.5v-57c0-2.484,2.015-4.5,4.5-4.5h75
			c2.484,0,4.5,2.016,4.5,4.5V84.5z"/>
	</g>
	
		<linearGradient id="SVGID_6_" gradientUnits="userSpaceOnUse" x1="60" y1="701" x2="60" y2="780.9067" gradientTransform="matrix(1 0 0 1 -12 -696)">
		<stop  offset="0" style="stop-color:#86A0B9"/>
		<stop  offset="1" style="stop-color:#86A0B9"/>
	</linearGradient>
	<path fill="url(#SVGID_6_)" d="M90,80c0,2.486-2.016,4.5-4.5,4.5h-75C8.015,84.5,6,82.486,6,80V9.5C6,7.016,8.015,5,10.5,5h75
		C87.984,5,90,7.016,90,9.5V80z"/>
	
		<linearGradient id="SVGID_7_" gradientUnits="userSpaceOnUse" x1="18" y1="740.75" x2="102.4292" y2="740.75" gradientTransform="matrix(1 0 0 1 -12 -696)">
		<stop  offset="0" style="stop-color:#86A0B9"/>
		<stop  offset="0.0229" style="stop-color:#93ACC4"/>
		<stop  offset="0.0651" style="stop-color:#B5CBE1"/>
		<stop  offset="0.08" style="stop-color:#C3D8EC"/>
		<stop  offset="0.1055" style="stop-color:#B1C7DD"/>
		<stop  offset="0.1515" style="stop-color:#86A0B9"/>
		<stop  offset="0.85" style="stop-color:#86A0B9"/>
		<stop  offset="0.8749" style="stop-color:#98B1C8"/>
		<stop  offset="0.92" style="stop-color:#C3D8EC"/>
		<stop  offset="0.9349" style="stop-color:#B5CBE1"/>
		<stop  offset="0.9771" style="stop-color:#93ACC4"/>
		<stop  offset="1" style="stop-color:#86A0B9"/>
	</linearGradient>
	<path fill="url(#SVGID_7_)" d="M90,80c0,2.486-2.016,4.5-4.5,4.5h-75C8.015,84.5,6,82.486,6,80V9.5C6,7.016,8.015,5,10.5,5h75
		C87.984,5,90,7.016,90,9.5V80z"/>
	<g opacity="0.2">
		
			<radialGradient id="SVGID_8_" cx="60.334" cy="749" r="260.4543" gradientTransform="matrix(1 0 0 1 -12 -696)" gradientUnits="userSpaceOnUse">
			<stop  offset="0" style="stop-color:#FFFFFF"/>
			<stop  offset="1" style="stop-color:#FFFFFF;stop-opacity:0"/>
		</radialGradient>
		<path fill="url(#SVGID_8_)" d="M88.463,27.129C88.277,25.65,87.027,24.5,85.5,24.5h-4.016L22.984,83h9.606L88.463,27.129z"/>
		
			<radialGradient id="SVGID_9_" cx="60.334" cy="749" r="260.4584" gradientTransform="matrix(1 0 0 1 -12 -696)" gradientUnits="userSpaceOnUse">
			<stop  offset="0" style="stop-color:#FFFFFF"/>
			<stop  offset="1" style="stop-color:#FFFFFF;stop-opacity:0"/>
		</radialGradient>
		<polygon fill="url(#SVGID_9_)" points="25.738,24.5 7.5,42.738 7.5,52.344 35.344,24.5 		"/>
		
			<radialGradient id="SVGID_10_" cx="60.334" cy="749" r="260.4552" gradientTransform="matrix(1 0 0 1 -12 -696)" gradientUnits="userSpaceOnUse">
			<stop  offset="0" style="stop-color:#FFFFFF"/>
			<stop  offset="1" style="stop-color:#FFFFFF;stop-opacity:0"/>
		</radialGradient>
		<polygon fill="url(#SVGID_10_)" points="44.321,24.5 7.5,61.32 7.5,70.926 53.926,24.5 		"/>
		
			<radialGradient id="SVGID_11_" cx="60.333" cy="749.002" r="260.4603" gradientTransform="matrix(1 0 0 1 -12 -696)" gradientUnits="userSpaceOnUse">
			<stop  offset="0" style="stop-color:#FFFFFF"/>
			<stop  offset="1" style="stop-color:#FFFFFF;stop-opacity:0"/>
		</radialGradient>
		<path fill="url(#SVGID_11_)" d="M10.5,24.5c-1.655,0-3,1.345-3,3v6.262l9.262-9.262H10.5z"/>
		
			<radialGradient id="SVGID_12_" cx="60.334" cy="749" r="260.4548" gradientTransform="matrix(1 0 0 1 -12 -696)" gradientUnits="userSpaceOnUse">
			<stop  offset="0" style="stop-color:#FFFFFF"/>
			<stop  offset="1" style="stop-color:#FFFFFF;stop-opacity:0"/>
		</radialGradient>
		<polygon fill="url(#SVGID_12_)" points="41.567,83 51.173,83 88.5,45.673 88.5,36.068 		"/>
		
			<radialGradient id="SVGID_13_" cx="60.333" cy="749" r="260.4596" gradientTransform="matrix(1 0 0 1 -12 -696)" gradientUnits="userSpaceOnUse">
			<stop  offset="0" style="stop-color:#FFFFFF"/>
			<stop  offset="1" style="stop-color:#FFFFFF;stop-opacity:0"/>
		</radialGradient>
		<polygon fill="url(#SVGID_13_)" points="69.755,83 88.5,64.255 88.5,54.65 60.148,83 		"/>
		
			<radialGradient id="SVGID_14_" cx="60.334" cy="749" r="260.4559" gradientTransform="matrix(1 0 0 1 -12 -696)" gradientUnits="userSpaceOnUse">
			<stop  offset="0" style="stop-color:#FFFFFF"/>
			<stop  offset="1" style="stop-color:#FFFFFF;stop-opacity:0"/>
		</radialGradient>
		<path fill="url(#SVGID_14_)" d="M85.5,83c1.654,0,3-1.348,3-3v-6.77L78.73,83H85.5z"/>
		
			<radialGradient id="SVGID_15_" cx="60.334" cy="749" r="260.4541" gradientTransform="matrix(1 0 0 1 -12 -696)" gradientUnits="userSpaceOnUse">
			<stop  offset="0" style="stop-color:#FFFFFF"/>
			<stop  offset="1" style="stop-color:#FFFFFF;stop-opacity:0"/>
		</radialGradient>
		<path fill="url(#SVGID_15_)" d="M72.509,24.5h-9.604L7.5,79.902V80c0,1.652,1.345,3,3,3h3.508L72.509,24.5z"/>
	</g>
	<path fill="#B3C6D9" d="M85.5,82.5h-75C8.015,82.5,6,80.486,6,78v2c0,2.486,2.015,4.5,4.5,4.5h75c2.484,0,4.5-2.014,4.5-4.5v-2
		C90,80.486,87.984,82.5,85.5,82.5z"/>
	<g>
		<g>
			<g>
				<defs>
					<path id="SVGID_16_" d="M85.5,5h-75C8.015,5,6,7.016,6,9.5V78c0,2.486,2.015,4.5,4.5,4.5h75c2.484,0,4.5-2.014,4.5-4.5V9.5
						C90,7.016,87.984,5,85.5,5z"/>
				</defs>
				<clipPath id="SVGID_17_">
					<use xlink:href="#SVGID_16_"  overflow="visible"/>
				</clipPath>
				
					<linearGradient id="SVGID_18_" gradientUnits="userSpaceOnUse" x1="60" y1="794" x2="60" y2="756.5195" gradientTransform="matrix(1 0 0 1 -12 -696)">
					<stop  offset="0" style="stop-color:#456B92"/>
					<stop  offset="1" style="stop-color:#456B92;stop-opacity:0"/>
				</linearGradient>
				<path opacity="0.7" clip-path="url(#SVGID_17_)" fill="url(#SVGID_18_)" enable-background="new    " d="M90,93.5
					c0,2.488-2.016,4.5-4.5,4.5h-75C8.015,98,6,95.988,6,93.5V65.02c0-2.482,2.015-4.5,4.5-4.5h75c2.484,0,4.5,2.018,4.5,4.5V93.5z"
					/>
			</g>
		</g>
	</g>
	
		<radialGradient id="SVGID_19_" cx="60" cy="2645.3564" r="41.2528" gradientTransform="matrix(1 0 0 0.2664 -12 -671.9822)" gradientUnits="userSpaceOnUse">
		<stop  offset="0" style="stop-color:#456B92"/>
		<stop  offset="1" style="stop-color:#456B92;stop-opacity:0"/>
	</radialGradient>
	<path fill="url(#SVGID_19_)" d="M90,42.982c0,2.487-2.016,4.5-4.5,4.5h-75c-2.485,0-4.5-2.014-4.5-4.5V22.5
		c0-2.484,2.015-4.5,4.5-4.5h75c2.484,0,4.5,2.016,4.5,4.5V42.982z"/>
	<path fill="#FFFFFF" d="M90,34.981c0,2.487-2.016,4.5-4.5,4.5h-75c-2.485,0-4.5-2.013-4.5-4.5V9.5C6,7.016,8.015,5,10.5,5h75
		C87.984,5,90,7.016,90,9.5V34.981z"/>
	
		<linearGradient id="SVGID_20_" gradientUnits="userSpaceOnUse" x1="60" y1="733.9814" x2="60" y2="701" gradientTransform="matrix(1 0 0 1 -12 -696)">
		<stop  offset="0" style="stop-color:#CBDAE7"/>
		<stop  offset="1" style="stop-color:#AEC3D9"/>
	</linearGradient>
	<path fill="url(#SVGID_20_)" d="M90,33.481c0,2.487-2.016,4.5-4.5,4.5h-75c-2.485,0-4.5-2.013-4.5-4.5V9.5C6,7.016,8.015,5,10.5,5
		h75C87.984,5,90,7.016,90,9.5V33.481z"/>
</g>
<radialGradient id="SVGID_21_" cx="60" cy="716.7402" r="38.7574" gradientTransform="matrix(1 0 0 1 -12 -696)" gradientUnits="userSpaceOnUse">
	<stop  offset="0" style="stop-color:#FFFFFF"/>
	<stop  offset="1" style="stop-color:#FFFFFF;stop-opacity:0"/>
</radialGradient>
<path opacity="0.6" fill="url(#SVGID_21_)" enable-background="new    " d="M13.5,34.481c-2.206,0-4-1.794-4-4V11
	c0-2.206,1.794-4,4-4h69c2.206,0,4,1.794,4,4v19.481c0,2.206-1.794,4-4,4H13.5z"/>
<radialGradient id="SVGID_22_" cx="60.333" cy="729.1084" r="34.0195" gradientTransform="matrix(1 0 0 1 -12 -696)" gradientUnits="userSpaceOnUse">
	<stop  offset="0" style="stop-color:#456B92"/>
	<stop  offset="1" style="stop-color:#24415E"/>
</radialGradient>
<path fill="url(#SVGID_22_)" d="M85.5,30.481c0,1.657-1.344,3-3,3h-69c-1.657,0-3-1.343-3-3V11c0-1.657,1.343-3,3-3h69
	c1.656,0,3,1.343,3,3V30.481z"/>
<linearGradient id="SVGID_23_" gradientUnits="userSpaceOnUse" x1="60" y1="735.665" x2="60" y2="721.3878" gradientTransform="matrix(1 0 0 1 -12 -696)">
	<stop  offset="0" style="stop-color:#000000"/>
	<stop  offset="1" style="stop-color:#000000;stop-opacity:0"/>
</linearGradient>
<path fill="url(#SVGID_23_)" d="M85.5,30.481c0,1.657-1.344,3-3,3h-69c-1.657,0-3-1.343-3-3V11c0-1.657,1.343-3,3-3h69
	c1.656,0,3,1.343,3,3V30.481z"/>
<g>
	<path fill="#CBDAE7" d="M37.051,77.213l-2.326-2.383l2.318-2.376l3.292-3.213v2.976l4.128-0.033l0.054,0.004
		c0.083,0.013,0.164,0.017,0.242,0.017c0.345,0,0.511-0.087,0.684-0.363c0.078-0.146,0.163-0.458-0.045-0.796L40.542,62.7
		l4.546-2.601l4.6,7.933c0.688,0.95,1.074,2.081,1.123,3.266l0.002,0.38c-0.054,1.031-0.318,1.965-0.793,2.822
		c-1.123,1.886-3.086,2.997-5.269,2.997l0,0c-0.18,0-0.361-0.008-0.541-0.022l-3.875,0.002v3.021L37.051,77.213z M24.865,77.497
		c-2.219,0-4.183-1.116-5.251-2.986c-0.479-0.862-0.747-1.798-0.799-2.784l-0.001-0.434c0.051-1.18,0.448-2.322,1.122-3.255
		l1.917-3.392l-2.613-1.494l4.501-1.204l3.211-0.878l0.874,3.262l1.21,4.438l-2.599-1.485l-2.023,3.522
		c-0.373,0.563-0.359,0.784-0.198,1.088c0.127,0.205,0.346,0.334,0.619,0.334l0.119-0.004h9.59v5.252h-9.207
		C25.231,77.489,25.048,77.497,24.865,77.497L24.865,77.497z M24.792,59.609l4.577-7.975c0.949-2.06,3.093-3.434,5.424-3.434
		c2.356,0,4.516,1.375,5.502,3.504l1.933,3.352l2.614-1.566l-2.087,7.79L39.5,60.408l-4.383-1.195l2.537-1.521l-2.089-3.576
		l-0.021-0.049c-0.204-0.465-0.421-0.582-0.742-0.607c-0.294,0.034-0.518,0.188-0.664,0.461l-4.81,8.348L24.792,59.609z"/>
	<path fill="#305173" d="M37.051,75.411l-2.326-2.384l2.318-2.375l3.292-3.215v2.979l4.128-0.035l0.054,0.005
		c0.083,0.011,0.164,0.015,0.242,0.015c0.345,0,0.511-0.088,0.684-0.362c0.078-0.147,0.163-0.458-0.045-0.795l-4.855-8.345
		l4.546-2.601l4.601,7.933c0.688,0.951,1.074,2.08,1.123,3.27l0.002,0.376c-0.055,1.032-0.319,1.966-0.795,2.823
		c-1.123,1.887-3.085,2.996-5.268,2.996l0,0c-0.18,0-0.361-0.008-0.541-0.022l-3.875,0.003v3.021L37.051,75.411z M24.865,75.695
		c-2.219,0-4.183-1.118-5.251-2.987c-0.479-0.863-0.747-1.796-0.799-2.786l-0.001-0.429c0.051-1.185,0.448-2.324,1.122-3.259
		l1.917-3.393l-2.613-1.49l4.501-1.205l3.211-0.877l0.874,3.258l1.21,4.438l-2.599-1.485l-2.023,3.522
		c-0.373,0.563-0.359,0.785-0.198,1.088c0.127,0.204,0.346,0.334,0.619,0.334l0.119-0.003h9.59v5.252h-9.207
		C25.231,75.688,25.048,75.695,24.865,75.695L24.865,75.695z M24.792,57.809l4.577-7.973c0.949-2.06,3.093-3.436,5.424-3.436
		c2.356,0,4.516,1.376,5.502,3.505l1.933,3.35l2.614-1.567l-2.087,7.791L39.5,58.605l-4.383-1.194l2.537-1.521l-2.089-3.58
		l-0.021-0.047c-0.204-0.466-0.421-0.582-0.742-0.607c-0.294,0.031-0.518,0.188-0.664,0.46l-4.81,8.349L24.792,57.809z"/>
	<path fill="#4A749E" d="M48.932,67.625l-4.173-7.198l-2.981,1.705l4.387,7.537c0.341,0.554,0.341,1.194,0.042,1.747
		c-0.426,0.68-1.021,0.852-1.79,0.768l-4.983,0.041v-1.746l-1.746,1.705l-1.704,1.746l1.704,1.746l1.746,1.744v-1.744h4.856
		c1.917,0.168,3.875-0.726,4.94-2.514c0.426-0.768,0.639-1.575,0.683-2.387v-0.34C49.869,69.414,49.529,68.434,48.932,67.625z
		 M38.881,57.104L37.391,58l2.342,0.639l2.385,0.641l1.278-4.771L41.905,55.4l-2.428-4.215c-0.809-1.746-2.599-2.981-4.685-2.981
		c-2.044,0-3.834,1.235-4.643,2.981l-4.132,7.197l2.981,1.744l4.345-7.537c0.298-0.554,0.81-0.896,1.449-0.938
		c0.809,0.043,1.277,0.47,1.576,1.149L38.881,57.104z M23.42,71.416c-0.382-0.725-0.213-1.322,0.213-1.959l2.471-4.303l1.49,0.853
		l-0.639-2.344l-0.639-2.386l-2.343,0.64l-2.385,0.64l1.492,0.854l-2.385,4.217c-0.597,0.811-0.937,1.789-0.981,2.77v0.383
		c0.044,0.812,0.256,1.619,0.683,2.387c1.021,1.788,2.981,2.682,4.94,2.514h8.306v-3.451h-8.688
		C24.314,72.268,23.761,71.969,23.42,71.416z"/>
	
		<radialGradient id="SVGID_24_" cx="46.8135" cy="758.8125" r="19.5262" gradientTransform="matrix(1 0 0 1 -12 -696)" gradientUnits="userSpaceOnUse">
		<stop  offset="0.2545" style="stop-color:#000000;stop-opacity:0"/>
		<stop  offset="1" style="stop-color:#000000"/>
	</radialGradient>
	<path opacity="0.1" fill="url(#SVGID_24_)" enable-background="new    " d="M48.932,67.625l-4.173-7.198l-2.981,1.705l4.387,7.537
		c0.341,0.554,0.341,1.194,0.042,1.747c-0.426,0.68-1.021,0.852-1.79,0.768l-4.983,0.041v-1.746l-1.746,1.705l-1.704,1.746
		l1.704,1.746l1.746,1.744v-1.744h4.856c1.917,0.168,3.875-0.726,4.94-2.514c0.426-0.768,0.639-1.575,0.683-2.387v-0.34
		C49.869,69.414,49.529,68.434,48.932,67.625z M38.881,57.104L37.391,58l2.342,0.639l2.385,0.641l1.278-4.771L41.905,55.4
		l-2.428-4.215c-0.809-1.746-2.599-2.981-4.685-2.981c-2.044,0-3.834,1.235-4.643,2.981l-4.132,7.197l2.981,1.744l4.345-7.537
		c0.298-0.554,0.81-0.896,1.449-0.938c0.809,0.043,1.277,0.47,1.576,1.149L38.881,57.104z M23.42,71.416
		c-0.382-0.725-0.213-1.322,0.213-1.959l2.471-4.303l1.49,0.853l-0.639-2.344l-0.639-2.386l-2.343,0.64l-2.385,0.64l1.492,0.854
		l-2.385,4.217c-0.597,0.811-0.937,1.789-0.981,2.77v0.383c0.044,0.812,0.256,1.619,0.683,2.387c1.021,1.788,2.981,2.682,4.94,2.514
		h8.306v-3.451h-8.688C24.314,72.268,23.761,71.969,23.42,71.416z"/>
</g>
<g>
	<g>
		<g>
			<defs>
				<path id="SVGID_25_" d="M85.5,30.481c0,1.657-1.344,3-3,3h-69c-1.657,0-3-1.343-3-3V4c0-1.657,1.343-3,3-3h69
					c1.656,0,3,1.343,3,3V30.481z"/>
			</defs>
			<clipPath id="SVGID_26_">
				<use xlink:href="#SVGID_25_"  overflow="visible"/>
			</clipPath>
			<g clip-path="url(#SVGID_26_)">
				
					<linearGradient id="SVGID_27_" gradientUnits="userSpaceOnUse" x1="35.0757" y1="726.3818" x2="96.7734" y2="726.3818" gradientTransform="matrix(1 0 0 1 -12 -696)">
					<stop  offset="0" style="stop-color:#000000"/>
					<stop  offset="1" style="stop-color:#000000;stop-opacity:0.5882"/>
				</linearGradient>
				<path opacity="0.08" fill="url(#SVGID_27_)" enable-background="new    " d="M74.695,51.834c-0.375,0-0.752-0.043-1.118-0.127
					L26.965,41.073c-1.302-0.297-2.41-1.084-3.121-2.214c-0.71-1.131-0.938-2.471-0.642-3.773l5.081-22.269
					c0.522-2.289,2.526-3.888,4.872-3.888c0.375,0,0.75,0.042,1.115,0.125l46.614,10.635c1.304,0.298,2.411,1.084,3.121,2.213
					c0.711,1.132,0.938,2.472,0.642,3.774l-5.08,22.268C79.045,50.234,77.041,51.834,74.695,51.834L74.695,51.834z"/>
				
					<linearGradient id="SVGID_28_" gradientUnits="userSpaceOnUse" x1="36.0767" y1="726.3818" x2="95.7734" y2="726.3818" gradientTransform="matrix(1 0 0 1 -12 -696)">
					<stop  offset="0" style="stop-color:#000000"/>
					<stop  offset="1" style="stop-color:#000000;stop-opacity:0.5882"/>
				</linearGradient>
				<path opacity="0.1" fill="url(#SVGID_28_)" enable-background="new    " d="M74.693,50.834c-0.299,0-0.601-0.034-0.894-0.102
					L27.188,40.098c-1.041-0.238-1.928-0.867-2.497-1.771c-0.568-0.905-0.75-1.977-0.513-3.019l5.081-22.269
					c0.418-1.832,2.02-3.11,3.897-3.11c0.299,0,0.6,0.034,0.893,0.101l46.613,10.635c1.041,0.238,1.929,0.866,2.497,1.771
					c0.567,0.905,0.751,1.977,0.513,3.02l-5.08,22.268C78.174,49.555,76.57,50.834,74.693,50.834
					C74.695,50.834,74.695,50.834,74.693,50.834z"/>
				<path fill="#D6D6D6" d="M82.697,25.231c0.369-1.617-0.643-3.224-2.258-3.592L33.826,11.004
					c-1.615-0.369-3.224,0.641-3.592,2.257l-5.081,22.271c-0.369,1.616,0.643,3.224,2.257,3.592l46.613,10.635
					c1.615,0.369,3.225-0.643,3.594-2.258L82.697,25.231z"/>
				<path fill="#F5F5F5" d="M82.475,26.206c0.369-1.617-0.643-3.224-2.257-3.592L33.604,11.979
					c-1.615-0.369-3.223,0.641-3.592,2.257L25.153,35.53c-0.369,1.616,0.643,3.224,2.257,3.592l46.613,10.635
					c1.615,0.369,3.225-0.643,3.594-2.258L82.475,26.206z"/>
				
					<linearGradient id="SVGID_29_" gradientUnits="userSpaceOnUse" x1="208.5098" y1="-530.8628" x2="208.5098" y2="-503.9092" gradientTransform="matrix(0.9749 0.2224 0.2224 -0.9749 -34.5189 -519.3637)">
					<stop  offset="0" style="stop-color:#E6E6E6"/>
					<stop  offset="1" style="stop-color:#F2F2F2"/>
				</linearGradient>
				<path fill="url(#SVGID_29_)" d="M82.252,27.181c0.369-1.617-0.643-3.224-2.257-3.592L33.381,12.954
					c-1.615-0.368-3.223,0.641-3.592,2.258L25.153,35.53c-0.369,1.616,0.643,3.224,2.257,3.592l46.613,10.635
					c1.615,0.369,3.225-0.643,3.594-2.258L82.252,27.181z"/>
				
					<linearGradient id="SVGID_30_" gradientUnits="userSpaceOnUse" x1="208.5117" y1="-529.855" x2="208.5117" y2="-504.9101" gradientTransform="matrix(0.9749 0.2224 0.2224 -0.9749 -34.5189 -519.3637)">
					<stop  offset="0" style="stop-color:#CCCCCC"/>
					<stop  offset="1" style="stop-color:#F2F2F2"/>
				</linearGradient>
				<path fill="url(#SVGID_30_)" d="M33.159,13.929c-1.076-0.246-2.149,0.429-2.395,1.505l-4.635,20.319
					c-0.246,1.076,0.429,2.149,1.505,2.395l46.614,10.635c1.076,0.244,2.148-0.429,2.395-1.505l4.637-20.319
					c0.244-1.076-0.43-2.149-1.506-2.395L33.159,13.929z"/>
				
					<radialGradient id="SVGID_31_" cx="208.6445" cy="-530.7217" r="18.6474" gradientTransform="matrix(0.9749 0.2224 0.2224 -0.9749 -34.5189 -519.3637)" gradientUnits="userSpaceOnUse">
					<stop  offset="0" style="stop-color:#FFFFFF"/>
					<stop  offset="1" style="stop-color:#FFFFFF;stop-opacity:0"/>
				</radialGradient>
				<path fill="url(#SVGID_31_)" d="M82.252,27.181c0.369-1.617-0.643-3.224-2.257-3.592L33.381,12.954
					c-1.615-0.368-3.223,0.641-3.592,2.258L25.153,35.53c-0.369,1.616,0.643,3.224,2.257,3.592l46.613,10.635
					c1.615,0.369,3.225-0.643,3.594-2.258L82.252,27.181z"/>
			</g>
		</g>
	</g>
	<g>
		<g>
			<defs>
				<path id="SVGID_32_" d="M85.5,30.481c0,1.657-1.344,3-3,3h-69c-1.657,0-3-1.343-3-3V4c0-1.657,1.343-3,3-3h69
					c1.656,0,3,1.343,3,3V30.481z"/>
			</defs>
			<clipPath id="SVGID_33_">
				<use xlink:href="#SVGID_32_"  overflow="visible"/>
			</clipPath>
			<g clip-path="url(#SVGID_33_)">
				
					<linearGradient id="SVGID_34_" gradientUnits="userSpaceOnUse" x1="23.4985" y1="733.9805" x2="74.334" y2="733.9805" gradientTransform="matrix(1 0 0 1 -12 -696)">
					<stop  offset="0" style="stop-color:#000000"/>
					<stop  offset="1" style="stop-color:#000000;stop-opacity:0.5882"/>
				</linearGradient>
				<path opacity="0.08" fill="url(#SVGID_34_)" enable-background="new    " d="M24.211,63.396c-2.356,0-4.373-1.604-4.905-3.9
					l-7.675-33.08c-0.305-1.31-0.08-2.661,0.632-3.804c0.711-1.142,1.826-1.938,3.138-2.242l33.083-7.675
					c0.375-0.087,0.757-0.131,1.138-0.131c2.354,0,4.369,1.602,4.905,3.895l7.677,33.087c0.625,2.706-1.063,5.416-3.769,6.043
					l-33.084,7.679C24.97,63.354,24.588,63.396,24.211,63.396L24.211,63.396z"/>
				
					<linearGradient id="SVGID_35_" gradientUnits="userSpaceOnUse" x1="24.5" y1="733.9805" x2="73.335" y2="733.9805" gradientTransform="matrix(1 0 0 1 -12 -696)">
					<stop  offset="0" style="stop-color:#000000"/>
					<stop  offset="1" style="stop-color:#000000;stop-opacity:0.5882"/>
				</linearGradient>
				<path opacity="0.1" fill="url(#SVGID_35_)" enable-background="new    " d="M24.211,62.396c-1.888,0-3.504-1.285-3.931-3.125
					L12.606,26.19c-0.244-1.05-0.064-2.133,0.507-3.048c0.57-0.916,1.463-1.554,2.515-1.797l33.083-7.675
					c0.301-0.07,0.607-0.105,0.912-0.105c1.887,0,3.502,1.284,3.932,3.123l7.676,33.085c0.502,2.168-0.854,4.341-3.02,4.845
					l-33.084,7.676C24.823,62.361,24.517,62.396,24.211,62.396L24.211,62.396z"/>
				
					<linearGradient id="SVGID_36_" gradientUnits="userSpaceOnUse" x1="25.5" y1="733.9805" x2="72.335" y2="733.9805" gradientTransform="matrix(1 0 0 1 -12 -696)">
					<stop  offset="0" style="stop-color:#000000"/>
					<stop  offset="1" style="stop-color:#000000;stop-opacity:0.5882"/>
				</linearGradient>
				<path opacity="0.2" fill="url(#SVGID_36_)" enable-background="new    " d="M24.211,61.396c-1.42,0-2.636-0.967-2.957-2.354
					l-7.674-33.08c-0.184-0.791-0.048-1.605,0.381-2.293c0.429-0.689,1.101-1.169,1.892-1.352l33.083-7.675
					c0.229-0.052,0.457-0.079,0.688-0.079c1.42,0,2.635,0.967,2.959,2.35l7.674,33.084c0.377,1.631-0.644,3.266-2.271,3.645
					L24.9,61.318C24.674,61.371,24.442,61.396,24.211,61.396L24.211,61.396z"/>
				<path fill="#590100" d="M59.281,50.225c0.254,1.101-0.428,2.19-1.523,2.445l-33.083,7.674c-1.096,0.254-2.191-0.426-2.445-1.523
					l-7.675-33.08c-0.254-1.096,0.428-2.191,1.524-2.445l33.083-7.675c1.096-0.254,2.189,0.429,2.445,1.524L59.281,50.225z"/>
				
					<linearGradient id="SVGID_37_" gradientUnits="userSpaceOnUse" x1="-141.8716" y1="831.7578" x2="-103.8345" y2="831.7578" gradientTransform="matrix(0.9741 -0.226 0.226 0.9741 -31.3871 -799.998)">
					<stop  offset="0" style="stop-color:#FFFFFF;stop-opacity:0"/>
					<stop  offset="0.5" style="stop-color:#FFFFFF"/>
					<stop  offset="1" style="stop-color:#FFFFFF;stop-opacity:0"/>
				</linearGradient>
				<path opacity="0.3" fill="url(#SVGID_37_)" enable-background="new    " d="M59.281,50.225c0.254,1.101-0.428,2.19-1.523,2.445
					l-33.083,7.674c-1.096,0.254-2.191-0.426-2.445-1.523l-7.675-33.08c-0.254-1.096,0.428-2.191,1.524-2.445l33.083-7.675
					c1.096-0.254,2.189,0.429,2.445,1.524L59.281,50.225z"/>
				
					<linearGradient id="SVGID_38_" gradientUnits="userSpaceOnUse" x1="-122.853" y1="812.7393" x2="-122.853" y2="848.9233" gradientTransform="matrix(0.9741 -0.226 0.226 0.9741 -31.3871 -799.998)">
					<stop  offset="0" style="stop-color:#FFA44D"/>
					<stop  offset="1" style="stop-color:#CD0100"/>
				</linearGradient>
				<path fill="url(#SVGID_38_)" d="M58.822,48.241c0.254,1.095-0.428,2.19-1.525,2.444l-33.083,7.674
					c-1.096,0.255-2.19-0.428-2.445-1.522l-7.214-31.098c-0.254-1.096,0.428-2.191,1.524-2.445l33.083-7.675
					c1.096-0.254,2.189,0.429,2.445,1.524L58.822,48.241z"/>
				
					<linearGradient id="SVGID_39_" gradientUnits="userSpaceOnUse" x1="-122.8521" y1="813.416" x2="-122.8521" y2="848.2341" gradientTransform="matrix(0.9741 -0.226 0.226 0.9741 -31.3871 -799.998)">
					<stop  offset="0" style="stop-color:#FF7D01"/>
					<stop  offset="1" style="stop-color:#990100"/>
				</linearGradient>
				<path fill="url(#SVGID_39_)" d="M24.061,57.697c-0.73,0.17-1.46-0.285-1.629-1.016l-7.215-31.099
					c-0.169-0.729,0.286-1.46,1.016-1.63l33.083-7.675c0.729-0.169,1.459,0.287,1.629,1.017l7.216,31.098
					c0.17,0.729-0.287,1.458-1.019,1.628L24.061,57.697z"/>
				<path fill="#B3B3B3" d="M56.375,46.716c0.254,1.096-0.428,2.19-1.523,2.444l-29.113,6.754c-1.095,0.254-2.191-0.43-2.445-1.523
					l-5.425-23.385c-0.254-1.097,0.429-2.191,1.524-2.445l29.114-6.754c1.095-0.254,2.191,0.428,2.445,1.524L56.375,46.716z"/>
				
					<radialGradient id="SVGID_40_" cx="-122.9663" cy="846.6416" r="15.5812" gradientTransform="matrix(0.9741 -0.226 0.226 0.9741 -31.3871 -799.998)" gradientUnits="userSpaceOnUse">
					<stop  offset="0" style="stop-color:#FFFFFF"/>
					<stop  offset="1" style="stop-color:#000000"/>
				</radialGradient>
				<path opacity="0.2" fill="url(#SVGID_40_)" enable-background="new    " d="M56.375,46.716c0.254,1.096-0.428,2.19-1.523,2.444
					l-29.113,6.754c-1.095,0.254-2.191-0.43-2.445-1.523l-5.425-23.385c-0.254-1.097,0.429-2.191,1.524-2.445l29.114-6.754
					c1.095-0.254,2.191,0.428,2.445,1.524L56.375,46.716z"/>
				<path fill="#D6D6D6" d="M56.068,45.393c0.256,1.096-0.43,2.191-1.523,2.446L25.431,54.59c-1.095,0.254-2.191-0.428-2.445-1.523
					l-5.118-22.061c-0.254-1.097,0.429-2.191,1.524-2.445l29.114-6.754c1.094-0.254,2.191,0.428,2.445,1.524L56.068,45.393z"/>
				<path fill="#F5F5F5" d="M55.916,44.73c0.254,1.097-0.43,2.192-1.525,2.446L25.278,53.93c-1.095,0.254-2.191-0.43-2.445-1.522
					l-4.964-21.399c-0.254-1.097,0.429-2.191,1.524-2.445l29.114-6.754c1.095-0.254,2.191,0.428,2.445,1.524L55.916,44.73z"/>
				
					<linearGradient id="SVGID_41_" gradientUnits="userSpaceOnUse" x1="-122.8516" y1="818.5146" x2="-122.8516" y2="843.9832" gradientTransform="matrix(0.9741 -0.226 0.226 0.9741 -31.3871 -799.998)">
					<stop  offset="0" style="stop-color:#E6E6E6"/>
					<stop  offset="1" style="stop-color:#F2F2F2"/>
				</linearGradient>
				<path fill="url(#SVGID_41_)" d="M55.762,44.069c0.254,1.096-0.428,2.191-1.523,2.445l-29.112,6.753
					c-1.095,0.254-2.191-0.43-2.445-1.524L17.87,31.006c-0.254-1.097,0.429-2.191,1.524-2.445l29.114-6.754
					c1.096-0.254,2.191,0.428,2.445,1.524L55.762,44.069z"/>
				
					<linearGradient id="SVGID_42_" gradientUnits="userSpaceOnUse" x1="-122.853" y1="819.2002" x2="-122.853" y2="843.3057" gradientTransform="matrix(0.9741 -0.226 0.226 0.9741 -31.3871 -799.998)">
					<stop  offset="0" style="stop-color:#CCCCCC"/>
					<stop  offset="1" style="stop-color:#F2F2F2"/>
				</linearGradient>
				<path fill="url(#SVGID_42_)" d="M24.971,52.605c-0.73,0.17-1.46-0.287-1.629-1.017L18.53,30.852
					c-0.169-0.73,0.286-1.46,1.016-1.63l29.112-6.754c0.732-0.169,1.463,0.287,1.631,1.017l4.813,20.738
					c0.168,0.729-0.287,1.46-1.018,1.63L24.971,52.605z"/>
				
					<radialGradient id="SVGID_43_" cx="-122.7681" cy="818.6484" r="14.987" gradientTransform="matrix(0.9741 -0.226 0.226 0.9741 -31.3871 -799.998)" gradientUnits="userSpaceOnUse">
					<stop  offset="0" style="stop-color:#FFFFFF"/>
					<stop  offset="1" style="stop-color:#FFFFFF;stop-opacity:0"/>
				</radialGradient>
				<path fill="url(#SVGID_43_)" d="M55.762,44.069c0.254,1.096-0.428,2.191-1.523,2.445l-29.112,6.753
					c-1.095,0.254-2.191-0.43-2.445-1.524L17.87,31.006c-0.254-1.097,0.429-2.191,1.524-2.445l29.114-6.754
					c1.096-0.254,2.191,0.428,2.445,1.524L55.762,44.069z"/>
				<g>
					
						<ellipse transform="matrix(-0.9742 0.2257 -0.2257 -0.9742 55.6435 54.3579)" fill="#FFFFFF" cx="24.714" cy="30.36" rx="2.736" ry="1.691"/>
					
						<linearGradient id="SVGID_44_" gradientUnits="userSpaceOnUse" x1="-133.0195" y1="819.5439" x2="-133.0195" y2="823.0135" gradientTransform="matrix(0.9741 -0.226 0.226 0.9741 -31.3871 -799.998)">
						<stop  offset="0" style="stop-color:#020202"/>
						<stop  offset="1" style="stop-color:#636363"/>
					</linearGradient>
					<path fill="url(#SVGID_44_)" d="M27.314,29.459c0.21,0.909-0.813,1.924-2.284,2.266c-1.472,0.341-2.836-0.12-3.047-1.029
						c-0.211-0.911,0.811-1.925,2.282-2.267C25.737,28.088,27.103,28.548,27.314,29.459z"/>
					
						<radialGradient id="SVGID_45_" cx="-133.002" cy="1124.3945" r="2.2759" gradientTransform="matrix(0.9741 -0.226 0.1629 0.7022 -29.9948 -793.9999)" gradientUnits="userSpaceOnUse">
						<stop  offset="0" style="stop-color:#000000"/>
						<stop  offset="1" style="stop-color:#000000;stop-opacity:0"/>
					</radialGradient>
					<path fill="url(#SVGID_45_)" d="M26.277,24.99c0.211,0.91-0.812,1.924-2.284,2.266c-1.472,0.342-2.836-0.12-3.047-1.029
						c-0.211-0.91,0.811-1.924,2.282-2.266C24.701,23.62,26.065,24.08,26.277,24.99z"/>
					<g>
						
							<radialGradient id="SVGID_46_" cx="-133.0249" cy="385.1406" r="1.7573" gradientTransform="matrix(0.9741 -0.226 0.4963 2.139 -37.6755 -827.1022)" gradientUnits="userSpaceOnUse">
							<stop  offset="0" style="stop-color:#000000"/>
							<stop  offset="1" style="stop-color:#000000;stop-opacity:0"/>
						</radialGradient>
						<polygon fill="url(#SVGID_46_)" points="25.564,26.29 26.237,30.256 23.3,30.938 22.187,27.139 21.529,23.304 24.465,22.623 
													"/>
						
							<linearGradient id="SVGID_47_" gradientUnits="userSpaceOnUse" x1="-133.0195" y1="814.7246" x2="-133.0195" y2="821.8281" gradientTransform="matrix(0.9741 -0.226 0.226 0.9741 -31.3871 -799.998)">
							<stop  offset="0" style="stop-color:#B8BABC"/>
							<stop  offset="0.0024" style="stop-color:#B2B4B6"/>
							<stop  offset="0.0167" style="stop-color:#939497"/>
							<stop  offset="0.0316" style="stop-color:#7B7B7F"/>
							<stop  offset="0.0472" style="stop-color:#6A6A6E"/>
							<stop  offset="0.0638" style="stop-color:#605F63"/>
							<stop  offset="0.0832" style="stop-color:#5D5C60"/>
							<stop  offset="0.1083" style="stop-color:#808083"/>
							<stop  offset="0.1508" style="stop-color:#B6B6B8"/>
							<stop  offset="0.1875" style="stop-color:#DEDEDF"/>
							<stop  offset="0.2166" style="stop-color:#F6F6F6"/>
							<stop  offset="0.2344" style="stop-color:#FFFFFF"/>
							<stop  offset="0.3824" style="stop-color:#F0F2F2"/>
							<stop  offset="0.5576" style="stop-color:#9D9EA1"/>
							<stop  offset="0.5874" style="stop-color:#939497"/>
							<stop  offset="0.6675" style="stop-color:#7F8083"/>
							<stop  offset="0.7473" style="stop-color:#737477"/>
							<stop  offset="0.826" style="stop-color:#6F7073"/>
							<stop  offset="0.8886" style="stop-color:#959799"/>
							<stop  offset="0.9575" style="stop-color:#BCBEC0"/>
						</linearGradient>
						<polygon fill="url(#SVGID_47_)" points="26.023,30.306 23.515,30.888 21.873,23.809 24.381,23.227 						"/>
					</g>
				</g>
				<g>
					
						<ellipse transform="matrix(-0.9741 0.2259 -0.2259 -0.9741 93.6507 40.8271)" fill="#FFFFFF" cx="44.489" cy="25.773" rx="2.737" ry="1.691"/>
					
						<linearGradient id="SVGID_48_" gradientUnits="userSpaceOnUse" x1="-112.7139" y1="819.5439" x2="-112.7139" y2="823.0135" gradientTransform="matrix(0.9741 -0.226 0.226 0.9741 -31.3871 -799.998)">
						<stop  offset="0" style="stop-color:#020202"/>
						<stop  offset="1" style="stop-color:#636363"/>
					</linearGradient>
					<path fill="url(#SVGID_48_)" d="M47.094,24.87c0.21,0.91-0.812,1.924-2.282,2.265c-1.473,0.341-2.838-0.119-3.05-1.028
						c-0.211-0.91,0.813-1.925,2.284-2.267C45.517,23.499,46.881,23.96,47.094,24.87z"/>
					
						<radialGradient id="SVGID_49_" cx="-112.6968" cy="1124.3945" r="2.2763" gradientTransform="matrix(0.9741 -0.226 0.1629 0.7022 -29.9948 -793.9999)" gradientUnits="userSpaceOnUse">
						<stop  offset="0" style="stop-color:#000000"/>
						<stop  offset="1" style="stop-color:#000000;stop-opacity:0"/>
					</radialGradient>
					<path fill="url(#SVGID_49_)" d="M46.056,20.401c0.212,0.91-0.812,1.925-2.281,2.266c-1.473,0.342-2.838-0.119-3.049-1.029
						c-0.211-0.91,0.812-1.924,2.285-2.266C44.481,19.03,45.846,19.491,46.056,20.401z"/>
					<g>
						
							<radialGradient id="SVGID_50_" cx="-112.7202" cy="385.1406" r="1.7566" gradientTransform="matrix(0.9741 -0.226 0.4963 2.139 -37.6755 -827.1022)" gradientUnits="userSpaceOnUse">
							<stop  offset="0" style="stop-color:#000000"/>
							<stop  offset="1" style="stop-color:#000000;stop-opacity:0"/>
						</radialGradient>
						<polygon fill="url(#SVGID_50_)" points="45.342,21.702 46.016,25.668 43.081,26.349 41.967,22.55 41.31,18.715 44.247,18.034 
													"/>
						
							<linearGradient id="SVGID_51_" gradientUnits="userSpaceOnUse" x1="-112.7134" y1="814.7256" x2="-112.7134" y2="821.8292" gradientTransform="matrix(0.9741 -0.226 0.226 0.9741 -31.3871 -799.998)">
							<stop  offset="0" style="stop-color:#B8BABC"/>
							<stop  offset="0.0024" style="stop-color:#B2B4B6"/>
							<stop  offset="0.0167" style="stop-color:#939497"/>
							<stop  offset="0.0316" style="stop-color:#7B7B7F"/>
							<stop  offset="0.0472" style="stop-color:#6A6A6E"/>
							<stop  offset="0.0638" style="stop-color:#605F63"/>
							<stop  offset="0.0832" style="stop-color:#5D5C60"/>
							<stop  offset="0.1083" style="stop-color:#808083"/>
							<stop  offset="0.1508" style="stop-color:#B6B6B8"/>
							<stop  offset="0.1875" style="stop-color:#DEDEDF"/>
							<stop  offset="0.2166" style="stop-color:#F6F6F6"/>
							<stop  offset="0.2344" style="stop-color:#FFFFFF"/>
							<stop  offset="0.3824" style="stop-color:#F0F2F2"/>
							<stop  offset="0.5576" style="stop-color:#9D9EA1"/>
							<stop  offset="0.5874" style="stop-color:#939497"/>
							<stop  offset="0.6675" style="stop-color:#7F8083"/>
							<stop  offset="0.7473" style="stop-color:#737477"/>
							<stop  offset="0.826" style="stop-color:#6F7073"/>
							<stop  offset="0.8886" style="stop-color:#959799"/>
							<stop  offset="0.9575" style="stop-color:#BCBEC0"/>
						</linearGradient>
						<polygon fill="url(#SVGID_51_)" points="45.804,25.717 43.294,26.299 41.652,19.22 44.161,18.638 						"/>
					</g>
				</g>
			</g>
		</g>
	</g>
	<g>
		<g>
			<defs>
				<path id="SVGID_52_" d="M85.5,30.481c0,1.657-1.344,3-3,3h-69c-1.657,0-3-1.343-3-3V4c0-1.657,1.343-3,3-3h69
					c1.656,0,3,1.343,3,3V30.481z"/>
			</defs>
			<clipPath id="SVGID_53_">
				<use xlink:href="#SVGID_52_"  overflow="visible"/>
			</clipPath>
			<g clip-path="url(#SVGID_53_)">
				
					<linearGradient id="SVGID_54_" gradientUnits="userSpaceOnUse" x1="57.8301" y1="719.4805" x2="97.501" y2="719.4805" gradientTransform="matrix(1 0 0 1 -12 -696)">
					<stop  offset="0" style="stop-color:#000000"/>
					<stop  offset="1" style="stop-color:#000000;stop-opacity:0.5882"/>
				</linearGradient>
				<path opacity="0.08" fill="url(#SVGID_54_)" enable-background="new    " d="M59.313,43.707c-0.611,0-1.23-0.033-1.84-0.099
					C50.525,42.864,45.32,38.042,45.87,32.86c0.507-4.724,5.456-8.152,11.767-8.152c0.611,0,1.231,0.033,1.844,0.099
					c1.742,0.186,3.438,0.637,4.971,1.318c1.556-7.731,4.229-17.517,8.42-22.871l4.941,1.827c-0.024,0.152-0.604,3.837,2.58,6.066
					c0.614,0.37,4.592,2.954,5.063,8.055c0.467,5.048-2.731,10.536-9.506,16.311l-0.681,0.581l-2.799-2.627l0.62-0.725H73.09
					c-0.002,0,0.506-0.683,1.161-1.725c1.519-2.987,2.751-6.916,1.703-9.042c-0.698-0.274-1.774-0.821-2.798-1.846
					c-0.846,4.002-1.575,8.452-2.18,13.259c0.146,0.735,0.181,1.462,0.104,2.164C70.579,40.278,65.628,43.707,59.313,43.707
					L59.313,43.707z"/>
				
					<linearGradient id="SVGID_55_" gradientUnits="userSpaceOnUse" x1="58.832" y1="719.29" x2="96.5039" y2="719.29" gradientTransform="matrix(1 0 0 1 -12 -696)">
					<stop  offset="0" style="stop-color:#000000"/>
					<stop  offset="1" style="stop-color:#000000;stop-opacity:0.5882"/>
				</linearGradient>
				<path opacity="0.1" fill="url(#SVGID_55_)" enable-background="new    " d="M59.313,42.707c-0.571,0-1.154-0.031-1.731-0.093
					c-6.399-0.688-11.207-5.014-10.714-9.648c0.452-4.206,4.98-7.257,10.771-7.257c0.573,0,1.158,0.031,1.736,0.093
					c2.092,0.224,4.104,0.854,5.805,1.805c1.336-6.986,4.037-18.063,8.479-23.734l3.17,1.04c-0.03,0.179-0.701,4.493,3.021,7.075
					c0.1,0.053,4.164,2.441,4.613,7.31c0.438,4.705-2.646,9.906-9.156,15.458l-1.449-1.361c0.006-0.007,0.545-0.729,1.246-1.84
					c0.838-1.645,3.486-7.361,1.543-10.392c-0.834-0.271-2.726-1.105-3.996-3.351c-1.062,4.606-1.959,9.842-2.68,15.62
					c0.149,0.687,0.191,1.365,0.122,2.018C69.641,39.655,65.107,42.707,59.313,42.707L59.313,42.707z"/>
				
					<radialGradient id="SVGID_56_" cx="69.4805" cy="711.3145" r="29.6881" gradientTransform="matrix(1 0 0 1 -12 -696)" gradientUnits="userSpaceOnUse">
					<stop  offset="0.0054" style="stop-color:#FFFFBD"/>
					<stop  offset="0.0616" style="stop-color:#F9FDBF"/>
					<stop  offset="0.1335" style="stop-color:#EAF7C5"/>
					<stop  offset="0.2139" style="stop-color:#CFECCE"/>
					<stop  offset="0.3006" style="stop-color:#ABDEDC"/>
					<stop  offset="0.3912" style="stop-color:#7CCCED"/>
					<stop  offset="0.4757" style="stop-color:#4AB8FF"/>
					<stop  offset="0.7514" style="stop-color:#264F8A"/>
					<stop  offset="0.9892" style="stop-color:#0033A9"/>
				</radialGradient>
				<path fill="url(#SVGID_56_)" d="M79.273,12.808c-4.315-2.997-3.435-8.067-3.435-8.067l-1.062-0.449
					c-0.1,0.156-0.196,0.323-0.297,0.487l-0.039-0.291c-4.637,5.921-7.353,18.075-8.555,24.761
					c-1.729-1.273-4.031-2.177-6.621-2.454c-5.865-0.627-10.97,2.183-11.409,6.276c-0.436,4.096,3.965,7.92,9.827,8.548
					c5.861,0.625,10.973-2.183,11.41-6.277c0.065-0.63,0.006-1.252-0.145-1.86c1.052-8.488,2.359-14.783,3.554-19.275
					c0.759,5.295,4.748,6.086,4.748,6.086c2.55,3.302,0.011,9.215-1.31,11.792c-0.734,1.163-1.291,1.906-1.291,1.906
					C91.359,19.75,79.273,12.808,79.273,12.808z"/>
				<g>
					<g>
						<g>
							<g>
								
									<radialGradient id="SVGID_57_" cx="1044.8379" cy="1063.3223" r="12.0747" gradientTransform="matrix(0.5105 0.86 -0.86 0.5105 452.0538 -1420.1719)" gradientUnits="userSpaceOnUse">
									<stop  offset="0" style="stop-color:#00BF00"/>
									<stop  offset="1" style="stop-color:#006B00"/>
								</radialGradient>
								<path fill="url(#SVGID_57_)" d="M77.949,13.066c-4.313-2.999-3.438-8.07-3.438-8.07l-0.068-0.507
									c-6.59,8.415-9.301,29.429-9.301,29.429l2.396,0.503c1.545-12.788,3.675-20.693,5.174-25.046
									C72.619,9.69,72.566,9.89,72.566,9.89c-1.313,9.222,4.688,10.405,4.688,10.405c3.321,4.302-2.003,13.061-2.003,13.061
									C90.148,19.226,77.949,13.066,77.949,13.066z"/>
							</g>
							<g>
								
									<radialGradient id="SVGID_58_" cx="274.4277" cy="499.8018" r="12.2054" gradientTransform="matrix(0.7932 0.6089 -0.6089 0.7932 159.6874 -541.85)" gradientUnits="userSpaceOnUse">
									<stop  offset="0.0054" style="stop-color:#0098F3"/>
									<stop  offset="1" style="stop-color:#09427D"/>
								</radialGradient>
								<path fill="url(#SVGID_58_)" d="M77.949,13.066c-4.313-2.999-3.438-8.07-3.438-8.07l-0.068-0.507
									c-6.59,8.415-9.301,29.429-9.301,29.429l2.396,0.503c1.545-12.788,3.675-20.693,5.174-25.046
									C72.619,9.69,72.566,9.89,72.566,9.89c-1.313,9.222,4.688,10.405,4.688,10.405c3.321,4.302-2.003,13.061-2.003,13.061
									C90.148,19.226,77.949,13.066,77.949,13.066z"/>
							</g>
						</g>
					</g>
					<g>
						<g>
							<g>
								
									<radialGradient id="SVGID_59_" cx="266.3486" cy="492.876" r="22.6307" gradientTransform="matrix(0.7932 0.6089 -0.6089 0.7932 159.6874 -539.85)" gradientUnits="userSpaceOnUse">
									<stop  offset="0.0054" style="stop-color:#FFFFBD"/>
									<stop  offset="0.0616" style="stop-color:#F9FDBF"/>
									<stop  offset="0.1335" style="stop-color:#EAF7C5"/>
									<stop  offset="0.2139" style="stop-color:#CFECCE"/>
									<stop  offset="0.3006" style="stop-color:#ABDEDC"/>
									<stop  offset="0.3912" style="stop-color:#7CCCED"/>
									<stop  offset="0.4757" style="stop-color:#4AB8FF"/>
									<stop  offset="0.7514" style="stop-color:#264F8A"/>
									<stop  offset="0.9892" style="stop-color:#0033A9"/>
								</radialGradient>
								<path fill="url(#SVGID_59_)" d="M79.273,12.808c-4.315-2.997-3.435-8.067-3.435-8.067l-1.062-0.449
									c-5.594,8.643-8.312,29.368-8.312,29.368l2.397,0.5c1.539-12.76,3.664-20.657,5.164-25.016
									c-0.086,0.298-0.137,0.487-0.137,0.487c-1.313,9.223,4.686,10.408,4.686,10.408c3.32,4.301-3.926,13.953-3.926,13.953
									C91.359,19.75,79.273,12.808,79.273,12.808z"/>
							</g>
						</g>
						
							<radialGradient id="SVGID_60_" cx="265.9521" cy="515.1221" r="15.0114" gradientTransform="matrix(0.7932 0.6089 -0.6089 0.7932 159.6874 -541.85)" gradientUnits="userSpaceOnUse">
							<stop  offset="0.0054" style="stop-color:#FFFFBD"/>
							<stop  offset="0.0616" style="stop-color:#F9FDBF"/>
							<stop  offset="0.1335" style="stop-color:#EAF7C5"/>
							<stop  offset="0.2139" style="stop-color:#CFECCE"/>
							<stop  offset="0.3006" style="stop-color:#ABDEDC"/>
							<stop  offset="0.3912" style="stop-color:#7CCCED"/>
							<stop  offset="0.4757" style="stop-color:#4AB8FF"/>
							<stop  offset="0.7514" style="stop-color:#264F8A"/>
							<stop  offset="0.9892" style="stop-color:#0033A9"/>
						</radialGradient>
						<path fill="url(#SVGID_60_)" d="M69.096,35.343c-0.438,4.095-5.548,6.903-11.41,6.277c-5.859-0.628-10.262-4.453-9.826-8.548
							c0.439-4.093,5.544-6.903,11.408-6.276C65.132,27.423,69.529,31.25,69.096,35.343z"/>
					</g>
				</g>
				
					<radialGradient id="SVGID_61_" cx="448.957" cy="1160.6172" r="2.2412" gradientTransform="matrix(0.7293 0.6844 -0.6844 0.7293 520.0152 -1122.3101)" gradientUnits="userSpaceOnUse">
					<stop  offset="0" style="stop-color:#FFFFFF"/>
					<stop  offset="1" style="stop-color:#FFFFFF;stop-opacity:0"/>
				</radialGradient>
				<circle fill="url(#SVGID_61_)" cx="53.113" cy="31.395" r="2.241"/>
				
					<linearGradient id="SVGID_62_" gradientUnits="userSpaceOnUse" x1="64.2822" y1="-36.1465" x2="64.2822" y2="-27.8129" gradientTransform="matrix(1 0 0 -1 -6 0)">
					<stop  offset="0" style="stop-color:#FFFFFF;stop-opacity:0"/>
					<stop  offset="1" style="stop-color:#FFFFFF"/>
				</linearGradient>
				<ellipse opacity="0.7" fill="url(#SVGID_62_)" enable-background="new    " cx="58.282" cy="31.984" rx="5.751" ry="4.234"/>
			</g>
		</g>
	</g>
</g>
<linearGradient id="SVGID_63_" gradientUnits="userSpaceOnUse" x1="60" y1="738.665" x2="60" y2="724.3878" gradientTransform="matrix(1 0 0 1 -12 -696)">
	<stop  offset="0" style="stop-color:#000000"/>
	<stop  offset="1" style="stop-color:#000000;stop-opacity:0"/>
</linearGradient>
<path fill="url(#SVGID_63_)" d="M85.5,30.481c0,1.657-1.344,3-3,3h-69c-1.657,0-3-1.343-3-3V11c0-1.657,1.343-3,3-3h69
	c1.656,0,3,1.343,3,3V30.481z"/>
</svg>
