<?xml version="1.0" encoding="utf-8"?>
<!-- Generator: Adobe Illustrator 21.0.0, SVG Export Plug-In . SVG Version: 6.00 Build 0)  -->
<svg version="1.1" id="信息" xmlns="http://www.w3.org/2000/svg" xmlns:xlink="http://www.w3.org/1999/xlink" x="0px" y="0px"
	 viewBox="0 0 32 32" style="enable-background:new 0 0 32 32;" xml:space="preserve">
<style type="text/css">
	.st0{fill:#808080;}
	.st1{fill:#E40000;}
</style>
<title>32</title>
<g id="_32">
	<path class="st0" d="M6,30v-8c-2.4-2.1-3.8-5.1-3.8-8.3c0-6.6,6.2-12,13.9-12S30,7.1,30,13.7s-6.2,12-13.9,12
		c-1.2,0-2.3-0.1-3.5-0.4L6,30z M16.1,2.7C9,2.7,3.2,7.7,3.2,13.7c0,3,1.4,5.8,3.7,7.7L7,21.5V28l5.4-3.8l0.2,0
		c1.1,0.3,2.3,0.4,3.5,0.4c7.1,0,12.9-4.9,12.9-11S23.2,2.7,16.1,2.7z"/>
	<rect x="7.6" y="13" transform="matrix(0.7071 -0.7071 0.7071 0.7071 -4.8186 15.3641)" class="st1" width="17" height="1"/>
	<rect x="15.6" y="5" transform="matrix(0.7071 -0.7071 0.7071 0.7071 -4.826 15.3626)" class="st1" width="1" height="17"/>
</g>
</svg>
