<?xml version="1.0" encoding="utf-8"?>
<!-- Generator: Adobe Illustrator 21.0.0, SVG Export Plug-In . SVG Version: 6.00 Build 0)  -->
<svg version="1.1" id="信息" xmlns="http://www.w3.org/2000/svg" xmlns:xlink="http://www.w3.org/1999/xlink" x="0px" y="0px"
	 viewBox="0 0 32 32" style="enable-background:new 0 0 32 32;" xml:space="preserve">
<style type="text/css">
	.st0{fill:#808080;}
	.st1{fill:#268BD2;}
</style>
<title>32</title>
<g id="_32">
	<path class="st0" d="M6,30v-8c-2.4-2.1-3.8-5.1-3.8-8.3c0-6.6,6.2-12,13.9-12S30,7.1,30,13.7s-6.2,12-13.9,12
		c-1.2,0-2.3-0.1-3.5-0.4L6,30z M16.1,2.7C9,2.7,3.2,7.7,3.2,13.7c0,3,1.4,5.8,3.7,7.7L7,21.5V28l5.4-3.8l0.2,0
		c1.1,0.3,2.3,0.4,3.5,0.4c7.1,0,12.9-4.9,12.9-11S23.2,2.7,16.1,2.7z"/>
	<path class="st1" d="M12.7,10.6h-1.9c0-0.7,0.1-1.5,0.3-2.1c0.3-0.8,0.8-1.5,1.5-2c0.4-0.3,0.9-0.6,1.5-0.8
		c0.6-0.2,1.1-0.3,1.7-0.3c1.2,0,2.3,0.3,3.3,1.1c0.9,0.8,1.5,2,1.4,3.2c0,0.6-0.1,1.3-0.5,1.8c-0.5,0.7-1,1.3-1.6,1.8
		c-0.5,0.4-0.9,0.8-1.3,1.3c-0.5,0.8-0.8,1.8-0.7,2.8h-1.9c0-0.9,0.1-1.9,0.5-2.7c0.5-0.7,1-1.4,1.6-2c0.7-0.7,1.1-1.1,1.2-1.3
		c0.4-0.5,0.6-1.1,0.6-1.8c0-0.6-0.2-1.1-0.5-1.6c-0.5-0.6-1.3-1-2.1-0.9c-1-0.1-2,0.5-2.5,1.4C12.8,9.2,12.6,9.9,12.7,10.6z
		 M16.5,19.3v2.3h-2.1v-2.2L16.5,19.3z"/>
</g>
</svg>
