<?xml version="1.0" encoding="utf-8"?>
<!-- Generator: Adobe Illustrator 21.0.0, SVG Export Plug-In . SVG Version: 6.00 Build 0)  -->
<svg version="1.1" id="图层_170" xmlns="http://www.w3.org/2000/svg" xmlns:xlink="http://www.w3.org/1999/xlink" x="0px" y="0px"
	 viewBox="0 0 32 32" style="enable-background:new 0 0 32 32;" xml:space="preserve">
<style type="text/css">
	.st0{fill:#808080;}
</style>
<title>32</title>
<g id="_32">
	<g id="_16">
		<path class="st0" d="M16,3.2l0.5,0.4c1.3,1.1,2.7,2,4.2,2.8c2,0.9,4.1,1.6,6.2,1.9c0.1,2.7,0.1,5.3-0.1,8C26.2,22.5,18.9,29,16,29
			S5.8,22.5,5.1,16.4C5,13.6,5,10.9,5.1,8.2c2.1-0.4,4.1-1.1,6.2-1.8c1.5-0.7,2.9-1.7,4.2-2.8L16,3.2 M16,2c-0.5,0-2.5,2.3-5.1,3.5
			C8.7,6.3,6.4,6.9,4.2,7.4c-0.2,3-0.2,6,0,9C4.8,23.2,12.5,30,16,30s11.2-6.8,11.9-13.5c0.2-3,0.2-6.1,0-9.1c0,0,0,0.1,0,0.1
			c-2.3-0.3-4.6-0.9-6.7-1.9C18.4,4.2,16.4,2,16,2z"/>
	</g>
</g>
</svg>
