<?xml version="1.0" encoding="utf-8"?>
<!-- Generator: Adobe Illustrator 21.0.0, SVG Export Plug-In . SVG Version: 6.00 Build 0)  -->
<svg version="1.1" id="图层_170" xmlns="http://www.w3.org/2000/svg" xmlns:xlink="http://www.w3.org/1999/xlink" x="0px" y="0px"
	 viewBox="0 0 32 32" style="enable-background:new 0 0 32 32;" xml:space="preserve">
<style type="text/css">
	.st0{fill:#808080;}
</style>
<title>32</title>
<g id="_32">
	<g id="_16">
		<path class="st0" d="M16.3,3c4.6,0,8.3,0.8,10.6,2.3C26,6.7,25.7,8.5,26,10.1c0.4,1.9,1,3.8,1.7,5.7c1,2.6,1.8,4.6,0.9,6
			c-1.6,2.4-3.8,3-6.1,3.5c-0.6,0.1-1.2,0.3-1.8,0.5c-1.8,0.4-3.5,1.4-4.7,2.8c-1.3-1.5-3-2.5-4.9-2.9c-0.4-0.1-0.9-0.2-1.4-0.4
			c-2.3-0.5-4.6-1.1-6.3-3.5c-1-1.5,0-4,1.1-6.6c0.7-1.6,1.3-3.3,1.6-5c0.3-1.7,0-3.5-1-4.9C6.8,4.2,10,3,15.9,3H16.3 M16.3,2H16
			C14.3,2,7.3,2,3.8,5c-0.2,0.1,2,1.9,1.4,4.9c-0.9,4.5-4.6,9.4-2.5,12.4c2.3,3.3,5.6,3.5,8.3,4.3c4.3,1.2,4.7,3.4,5.1,3.4l0,0
			c0.4,0,1-2.1,5-3.3c2.9-0.8,6.1-0.9,8.4-4.3c1.9-2.9-1.5-7.2-2.4-12.3c-0.3-1.8,0.1-3.6,1.3-5C24.9,2.2,18.6,2,16.3,2z"/>
	</g>
</g>
</svg>
