<?xml version="1.0" encoding="UTF-8" standalone="no"?>
<!-- Created with Inkscape (http://www.inkscape.org/) -->

<svg
   xmlns:dc="http://purl.org/dc/elements/1.1/"
   xmlns:cc="http://creativecommons.org/ns#"
   xmlns:rdf="http://www.w3.org/1999/02/22-rdf-syntax-ns#"
   xmlns:svg="http://www.w3.org/2000/svg"
   xmlns="http://www.w3.org/2000/svg"
   xmlns:xlink="http://www.w3.org/1999/xlink"
   xmlns:sodipodi="http://sodipodi.sourceforge.net/DTD/sodipodi-0.dtd"
   xmlns:inkscape="http://www.inkscape.org/namespaces/inkscape"
   width="48"
   height="48"
   id="svg2"
   version="1.1"
   inkscape:version="0.91 r13725"
   sodipodi:docname="caffeine.svg">
  <defs
     id="defs4">
    <linearGradient
       id="linearGradient3785">
      <stop
         style="stop-color:#dbdbdb;stop-opacity:1;"
         offset="0"
         id="stop3787" />
      <stop
         style="stop-color:#ffffff;stop-opacity:1;"
         offset="1"
         id="stop3789" />
    </linearGradient>
    <linearGradient
       id="linearGradient3763">
      <stop
         style="stop-color:#000000;stop-opacity:1;"
         offset="0"
         id="stop3765" />
      <stop
         style="stop-color:#ffffff;stop-opacity:1;"
         offset="1"
         id="stop3767" />
    </linearGradient>
    <linearGradient
       inkscape:collect="always"
       xlink:href="#linearGradient3763"
       id="linearGradient3800"
       gradientUnits="userSpaceOnUse"
       gradientTransform="translate(-60,0)"
       spreadMethod="repeat"
       x1="24"
       y1="1028.3622"
       x2="45"
       y2="1007.3622" />
    <linearGradient
       inkscape:collect="always"
       xlink:href="#linearGradient3763"
       id="linearGradient3802"
       gradientUnits="userSpaceOnUse"
       gradientTransform="translate(-60,0)"
       spreadMethod="repeat"
       x1="45"
       y1="1049.3622"
       x2="18"
       y2="1022.3622" />
    <linearGradient
       inkscape:collect="always"
       xlink:href="#linearGradient3785"
       id="linearGradient3791"
       x1="24"
       y1="1050.3622"
       x2="24"
       y2="1006.3622"
       gradientUnits="userSpaceOnUse" />
    <linearGradient
       inkscape:collect="always"
       xlink:href="#linearGradient3507"
       id="linearGradient2522"
       gradientUnits="userSpaceOnUse"
       gradientTransform="matrix(1.6227078,0,0,1.8576175,-67.517414,988.32949)"
       x1="56.57616"
       y1="13.280328"
       x2="56.57616"
       y2="18.039383" />
    <linearGradient
       id="linearGradient3507">
      <stop
         style="stop-color:#ad9177;stop-opacity:0.37254903;"
         offset="0"
         id="stop3509" />
      <stop
         id="stop3515"
         offset="0.25057968"
         style="stop-color:#947b62;stop-opacity:1;" />
      <stop
         style="stop-color:#947b62;stop-opacity:1;"
         offset="0.72115767"
         id="stop3517" />
      <stop
         style="stop-color:#947b62;stop-opacity:0.00892857;"
         offset="1"
         id="stop3511" />
    </linearGradient>
    <linearGradient
       inkscape:collect="always"
       xlink:href="#linearGradient3507"
       id="linearGradient2520"
       gradientUnits="userSpaceOnUse"
       gradientTransform="matrix(1.6227078,0,0,1.8576175,-71.963707,988.32949)"
       x1="56.576164"
       y1="13.717828"
       x2="56.57616"
       y2="18.039383" />
    <linearGradient
       inkscape:collect="always"
       xlink:href="#linearGradient3507"
       id="linearGradient2518"
       gradientUnits="userSpaceOnUse"
       gradientTransform="matrix(1.6227078,0,0,1.8576175,-76.481711,988.41158)"
       x1="56.57616"
       y1="13.280328"
       x2="56.57616"
       y2="18.039383" />
    <radialGradient
       inkscape:collect="always"
       xlink:href="#linearGradient3464"
       id="radialGradient2516"
       gradientUnits="userSpaceOnUse"
       gradientTransform="matrix(-1.6389556,-0.19992185,0.11957378,-0.6396286,164.85092,1051.4846)"
       cx="87.968941"
       cy="17.239222"
       fx="87.968941"
       fy="17.239222"
       r="6.6954174" />
    <linearGradient
       id="linearGradient3464">
      <stop
         style="stop-color:#957840;stop-opacity:1;"
         offset="0"
         id="stop3466" />
      <stop
         style="stop-color:#634a2e;stop-opacity:1;"
         offset="1"
         id="stop3468" />
    </linearGradient>
    <linearGradient
       gradientTransform="matrix(1.6586015,0,0,1.756652,-121.78119,992.30141)"
       inkscape:collect="always"
       xlink:href="#linearGradient3432"
       id="linearGradient2514"
       gradientUnits="userSpaceOnUse"
       x1="85.869286"
       y1="20.859163"
       x2="85.869286"
       y2="14.946561" />
    <linearGradient
       id="linearGradient3432">
      <stop
         style="stop-color:#74736f;stop-opacity:1;"
         offset="0"
         id="stop3434" />
      <stop
         style="stop-color:#f5f5f2;stop-opacity:1;"
         offset="1"
         id="stop3436" />
    </linearGradient>
    <radialGradient
       inkscape:collect="always"
       xlink:href="#linearGradient3410"
       id="radialGradient2512"
       gradientUnits="userSpaceOnUse"
       gradientTransform="matrix(1.6926294,0.07053007,-0.04939626,1.1678599,-123.68099,998.18851)"
       cx="84.353836"
       cy="21.894201"
       fx="84.353836"
       fy="21.894201"
       r="8.1564837" />
    <linearGradient
       id="linearGradient3410">
      <stop
         style="stop-color:#ffffff;stop-opacity:1;"
         offset="0"
         id="stop3412" />
      <stop
         id="stop3420"
         offset="0.5"
         style="stop-color:#e7e3e3;stop-opacity:1;" />
      <stop
         style="stop-color:#bbbbbb;stop-opacity:1;"
         offset="1"
         id="stop3414" />
    </linearGradient>
  </defs>
  <sodipodi:namedview
     id="base"
     pagecolor="#ffffff"
     bordercolor="#666666"
     borderopacity="1.0"
     inkscape:pageopacity="0.0"
     inkscape:pageshadow="2"
     inkscape:zoom="8.1906533"
     inkscape:cx="0.80137184"
     inkscape:cy="13.765983"
     inkscape:document-units="px"
     inkscape:current-layer="layer1"
     showgrid="true"
     inkscape:snap-bbox="true"
     inkscape:window-width="1366"
     inkscape:window-height="681"
     inkscape:window-x="0"
     inkscape:window-y="24"
     inkscape:window-maximized="1"
     inkscape:object-nodes="false"
     inkscape:snap-nodes="true">
    <inkscape:grid
       type="xygrid"
       id="grid3005"
       empspacing="6"
       visible="true"
       enabled="true"
       snapvisiblegridlinesonly="true" />
  </sodipodi:namedview>
  <metadata
     id="metadata7">
    <rdf:RDF>
      <cc:Work
         rdf:about="">
        <dc:format>image/svg+xml</dc:format>
        <dc:type
           rdf:resource="http://purl.org/dc/dcmitype/StillImage" />
        <dc:title></dc:title>
      </cc:Work>
    </rdf:RDF>
  </metadata>
  <g
     inkscape:label="Layer 1"
     inkscape:groupmode="layer"
     id="layer1"
     transform="translate(0,-1004.3622)">
    <path
       id="path3788"
       d="m 24,1051.1116 c -21.2715315,0 -23.66257505,-0.089 -23.9375,-15.4063 0.328125,14.4033 2.9375,14.4063 23.9375,14.4063 21,0 23.609375,0 23.9375,-14.4063 -0.274925,15.3174 -2.665968,15.4063 -23.9375,15.4063 z"
       style="opacity:0.20000000000000001;fill:#ffffff;fill-opacity:1;stroke:none"
       inkscape:connector-curvature="0" />
    <path
       style="fill:url(#linearGradient3791);fill-opacity:1;stroke:none"
       d="m 24,1006.3622 c -24,0 -24,0 -24,22 0,22 0,22 24,22 24,0 24,0 24,-22 0,-22 0,-22 -24,-22 z"
       id="path3757"
       inkscape:connector-curvature="0"
       sodipodi:nodetypes="zzzzz" />
    <g
       id="g3796"
       transform="translate(60,0)">
      <path
         style="opacity:0.03999999;fill:url(#linearGradient3800);fill-opacity:1;stroke:none"
         d="m -36,1006.3622 c -24,0 -24,0 -24,22 0,22 0,22 24,22 24,0 24,0 24,-22 0,-22 0,-22 -24,-22 z"
         id="path3783"
         inkscape:connector-curvature="0"
         sodipodi:nodetypes="zzzzz" />
      <path
         sodipodi:nodetypes="zzzzz"
         inkscape:connector-curvature="0"
         id="path3795"
         d="m -36,1006.3622 c -24,0 -24,0 -24,22 0,22 0,22 24,22 24,0 24,0 24,-22 0,-22 0,-22 -24,-22 z"
         style="opacity:0.03999999;fill:url(#linearGradient3802);fill-opacity:1;stroke:none" />
    </g>
    <path
       style="fill:#000000;fill-opacity:1;stroke:none;opacity:0.20000000000000001"
       d="M 24 2 C 2.7284685 2 0.33742495 2.0888436 0.0625 17.40625 C 0.390625 3.0029297 3 3 24 3 C 45 3 47.609375 3.0029297 47.9375 17.40625 C 47.662575 2.0888436 45.271532 2 24 2 z "
       transform="translate(0,1004.3622)"
       id="path3770" />
    <g
       id="g3037"
       transform="translate(-46.998,1004.3622)" />
    <g
       id="g3808"
       transform="translate(-52.998,1013.3622)" />
    <g
       id="g3795"
       style="stroke-width:2;stroke-miterlimit:4;stroke-dasharray:none" />
    <path
       inkscape:connector-curvature="0"
       style="fill:url(#radialGradient2512);fill-opacity:1;fill-rule:evenodd;stroke:none;stroke-width:1px;stroke-linecap:butt;stroke-linejoin:miter;stroke-opacity:1"
       d="m 8.4026334,1022.4746 c 0,0 12.6785846,8.9886 26.2265606,0 0,0 3.550014,21.8605 -13.403076,18.7684 0,0 -5.216331,0.5752 -8.476542,-1.2944 -3.2601948,-1.8697 -5.2163309,-9.5639 -4.3469426,-17.474 z"
       id="path3408" />
    <path
       inkscape:connector-curvature="0"
       style="fill:none;fill-rule:evenodd;stroke:#f8eeee;stroke-width:1.63322139px;stroke-linecap:butt;stroke-linejoin:miter;stroke-opacity:1"
       d="m 34.156887,1031.5272 c 0,0 4.862088,-0.9779 5.94259,-3.6102 0.56352,-1.373 -0.153688,-4.5763 -3.790962,-1.8814 0,0 -0.922128,1.017 -1.331961,5.9492"
       id="path3482"
       sodipodi:nodetypes="cscc" />
    <path
       inkscape:connector-curvature="0"
       style="fill:none;fill-rule:evenodd;stroke:#656565;stroke-width:1.63322139px;stroke-linecap:round;stroke-linejoin:miter;stroke-opacity:1"
       d="m 33.69066,1027.5126 c 0,0 0.512293,-1.7796 1.434417,-2.644 0.922127,-0.8645 3.278672,-1.9322 4.815547,-1.2712 1.536878,0.6611 2.356545,3.3559 1.793024,4.6271 -0.673618,1.5197 -3.94465,4.322 -9.93847,5.4915"
       id="path3480"
       sodipodi:nodetypes="csssc" />
    <path
       inkscape:connector-curvature="0"
       sodipodi:nodetypes="csc"
       id="path3442"
       d="m 8.812911,1021.4888 c 0,9.8669 -0.7335866,18.2435 11.940294,18.2435 12.573883,0 11.874673,-8.1833 11.874673,-17.8259"
       style="fill:none;fill-rule:evenodd;stroke:#faf3f3;stroke-width:1.46893334px;stroke-linecap:butt;stroke-linejoin:miter;stroke-opacity:1" />
    <ellipse
       ry="4.3474922"
       rx="13.230744"
       cy="1021.6757"
       cx="21.411392"
       style="opacity:1;fill:url(#linearGradient2514);fill-opacity:1;stroke:none;stroke-width:1;stroke-linecap:round;stroke-miterlimit:4;stroke-dasharray:none;stroke-opacity:1"
       id="path3422" />
    <ellipse
       ry="3.3008301"
       rx="10.96903"
       cy="1023.3677"
       cx="20.634703"
       style="opacity:1;fill:url(#radialGradient2516);fill-opacity:1;stroke:none;stroke-width:0.80000001;stroke-linecap:round;stroke-miterlimit:4;stroke-dasharray:none;stroke-opacity:1"
       id="path3462" />
    <ellipse
       ry="4.8886352"
       rx="13.121984"
       cy="1021.5488"
       cx="20.783039"
       style="opacity:1;fill:none;fill-opacity:1;stroke:#696262;stroke-width:1.61868393;stroke-linecap:round;stroke-miterlimit:4;stroke-dasharray:none;stroke-opacity:1"
       id="path3401" />
    <path
       inkscape:connector-curvature="0"
       style="fill:none;fill-rule:evenodd;stroke:#6a6767;stroke-width:1.60241067px;stroke-linecap:butt;stroke-linejoin:miter;stroke-opacity:1"
       d="m 7.5621806,1021.4536 c 0,10.8803 -0.8110776,19.6359 13.2012374,19.6359 13.901728,0 13.128698,-8.6212 13.128698,-19.1865"
       id="path3406"
       sodipodi:nodetypes="csc" />
    <path
       sodipodi:type="arc"
       style="opacity:1;fill:none;fill-opacity:1;stroke:#f8eeee;stroke-width:1.41159511;stroke-linecap:round;stroke-linejoin:miter;stroke-miterlimit:4;stroke-dasharray:none;stroke-opacity:1"
       id="path3485"
       sodipodi:cx="414.48871"
       sodipodi:cy="-943.37469"
       sodipodi:rx="1.9896848"
       sodipodi:ry="1.9804373"
       d="m 415.88303,-941.96188 a 1.9896848,1.9804373 0 0 1 -2.22699,0.38586 1.9896848,1.9804373 0 0 1 -1.15225,-1.93572 1.9896848,1.9804373 0 0 1 1.40973,-1.75883"
       transform="matrix(-0.90220307,0.43131151,-0.43657579,-0.89966748,0,0)"
       sodipodi:start="0.79431522"
       sodipodi:end="4.4191164"
       sodipodi:open="true" />
    <path
       inkscape:connector-curvature="0"
       style="opacity:1;fill:none;fill-rule:evenodd;stroke:url(#linearGradient2518);stroke-width:1.73619425px;stroke-linecap:butt;stroke-linejoin:miter;stroke-opacity:1"
       d="m 15.886227,1022.6761 c 0,0 -1.577807,-1.7397 -0.992512,-4.2402 0.585292,-2.5007 0.696937,-3.9011 0,-5.283"
       id="path3501" />
    <path
       inkscape:connector-curvature="0"
       id="path3519"
       d="m 20.404236,1022.5939 c 0,0 -1.577808,-1.7397 -0.992513,-4.2403 0.585294,-2.5005 0.696936,-3.9009 0,-5.2827"
       style="opacity:1;fill:none;fill-rule:evenodd;stroke:url(#linearGradient2520);stroke-width:1.73619425px;stroke-linecap:butt;stroke-linejoin:miter;stroke-opacity:1" />
    <path
       inkscape:connector-curvature="0"
       style="opacity:1;fill:none;fill-rule:evenodd;stroke:url(#linearGradient2522);stroke-width:1.73619425px;stroke-linecap:butt;stroke-linejoin:miter;stroke-opacity:1"
       d="m 24.850522,1022.5939 c 0,0 -1.577809,-1.7397 -0.992514,-4.2403 0.585293,-2.5005 0.696938,-3.9009 0,-5.2827"
       id="path3523" />
    <path
       inkscape:connector-curvature="0"
       style="fill:none;fill-rule:evenodd;stroke:#6a6767;stroke-width:0.3266443;stroke-linecap:butt;stroke-linejoin:miter;stroke-miterlimit:4;stroke-dasharray:none;stroke-opacity:1"
       d="m 35.996245,1030.1184 c 0,0 0.307909,-3.7303 1.566712,-3.8472 1.258801,-0.1169 1.412755,0.5482 1.602935,1.0427 0.190177,0.4945 -0.615818,1.9506 -3.169647,2.8045 z"
       id="path3527" />
  </g>
</svg>
