<?xml version="1.0" encoding="utf-8"?>
<!-- Generator: Adobe Illustrator 21.0.0, SVG Export Plug-In . SVG Version: 6.00 Build 0)  -->
<svg version="1.1" id="图层_39" xmlns="http://www.w3.org/2000/svg" xmlns:xlink="http://www.w3.org/1999/xlink" x="0px" y="0px"
	 viewBox="0 0 96 96" style="enable-background:new 0 0 96 96;" xml:space="preserve">
<symbol  id="新建符号_5" viewBox="-117.9 -98.2 235.8 196.4">
	<g style="opacity:0.39;">
		<path style="fill:#F57F17;" d="M29.3-5.8c28.7,0,52,23.3,52,52s-23.3,52-52,52s-52-23.3-52-52l0,0C-22.7,17.5,0.6-5.8,29.3-5.8z
			 M-5.1,46.4c0,19.2,15.5,34.7,34.7,34.7s34.7-15.5,34.7-34.7S48.8,11.7,29.6,11.7l0,0h-0.1C10.4,11.8-5.1,27.3-5.1,46.4z"/>
		<path style="fill:#F57F17;" d="M65-0.4l-1,0.6l-1-0.8c-20.1-14.5-47.2-14.5-67.3,0l-1,0.8l-1-0.6c-32.3-15.9-53-52-53-91.6v-6.2
			h15.5v6c0,30.9,14.5,59.1,37.9,74c10.8-5.9,23-9,35.3-9.1s24.4,3.1,35.1,9.1c23.4-14.9,37.9-43.2,37.9-74v-6h15.5v6.2
			C118.1-52.4,97.3-16.3,65-0.4z"/>
		<path style="fill:#F57F17;" d="M-37.8-12.9l0.6,0.6c3.8,4.2,8.1,8,12.7,11.3l8.1,5.8l-9.7-2.2c-3.8-0.9-7.8-1.3-11.7-1.4
			c-10.8,0-21.4,3.3-30.3,9.5l-1,0.6l-1-0.6c-29-14.1-47.8-46-47.8-81.3v-5.6h14.5v5.6c0,27.2,12.9,52,33.9,65.1
			c9.4-5.1,20-7.8,30.7-7.9L-37.8-12.9z"/>
		<path style="fill:#F57F17;" d="M-39.6,5.4h1.8c7.4-0.1,14.8,1.7,21.4,5l2.6,1.2l-2,2c-2.9,2.8-5.4,5.9-7.5,9.3l-0.8,1.4l-1.6-0.6
			c-4.2-1.8-8.7-2.6-13.3-2.4c-17,0.7-30.5,15-29.7,31.5c0.6,16.7,14.9,29.6,32.1,29c5-0.2,9.9-1.6,14.3-4l1.4-0.8l1,1.4
			c2.5,3.1,5.4,5.8,8.5,8.3l2.2,1.6l-2.4,1.6c-7.3,4.8-15.8,7.6-24.6,8.1C-62.4,99-84,79.1-85,53.6c-0.4-12.3,4.1-24.3,12.5-33.3
			C-63.8,11.3-52.1,6-39.6,5.4z"/>
	</g>
</symbol>
<title>画板 1</title>
<g id="_128">
	<polygon style="opacity:0.1;enable-background:new    ;" points="4.5,88.1 4.5,26.5 9.7,26.5 9.7,9.5 30.8,9.5 36.8,15.4 
		87.6,15.4 87.6,26.5 93.5,26.5 93.5,88.1 	"/>
	<polygon style="opacity:8.000000e-02;enable-background:new    ;" points="3,89.6 3,25.1 8.2,25.1 8.2,8 30.8,8 36.8,13.9 
		89.1,13.9 89.1,25.1 95,25.1 95,89.6 	"/>
	<polygon style="opacity:0.2;enable-background:new    ;" points="3,86 3,25 8,25 8,8 29.3,8 35.3,13.9 85,14 85,25 92,25 92,86 	
		"/>
	<polygon style="fill:#F57F17;" points="4,85 4,26 9,26 9,9 28.5,9 34.4,15 84,15 84,26 91,26 91,85 	"/>
	
		<linearGradient id="SVGID_1_" gradientUnits="userSpaceOnUse" x1="-889.725" y1="5895.4702" x2="-889.725" y2="5884.9702" gradientTransform="matrix(2 0 0 2 1826 -11759.9404)">
		<stop  offset="0" style="stop-color:#F57C00"/>
		<stop  offset="0.16" style="stop-color:#F58F09"/>
		<stop  offset="0.36" style="stop-color:#F59D11"/>
		<stop  offset="0.6" style="stop-color:#F5A515"/>
		<stop  offset="0.99" style="stop-color:#F5A816"/>
	</linearGradient>
	<path style="fill:url(#SVGID_1_);" d="M83,16H34l-5.9-6H10v18c0.2,1.6,1.5,2.9,3.2,3h67.3c1.5,0,2.6,0,2.6-1.5L83,16L83,16z"/>
	
		<linearGradient id="rect2990_1_" gradientUnits="userSpaceOnUse" x1="-889.25" y1="5893.4702" x2="-889.25" y2="5921.9702" gradientTransform="matrix(2 0 0 2 1826 -11759.9404)">
		<stop  offset="0" style="stop-color:#FADD60"/>
		<stop  offset="0.99" style="stop-color:#F5A816"/>
	</linearGradient>
	<rect id="rect2990" x="5" y="27" style="fill:url(#rect2990_1_);" width="85" height="57"/>
	<path id="rect3004" style="opacity:0.25;fill:#FDEFBA;enable-background:new    ;" d="M5.2,27.3v11.1c0-3.8,2.8-6.7,5.9-6.7h72.7
		c3.1,0,5.9,2.9,5.9,6.7V27.3H5.2z"/>
	<path id="path3801" style="opacity:0.1;fill:#E65100;enable-background:new    ;" d="M10.4,10.2v7.4c0-2.8,0.9-4.4,2.2-4.4h14.8
		c1.7-0.2,3.4,0.3,4.8,1.3c0.7,0.4,1.5,1.1,2.3,1.7l-5.9-5.9H10.4V10.2z"/>
	<polygon style="opacity:0.1;fill:#E65100;enable-background:new    ;" points="34.5,16.2 83.9,16.2 83.9,20.6 39,20.6 	"/>
	<rect x="10.4" y="24.3" style="opacity:5.000000e-02;fill:#E65100;enable-background:new    ;" width="73.4" height="3"/>
</g>
<use xlink:href="#新建符号_5"  width="235.8" height="196.4" id="新建符号_5-3" x="-117.9" y="-98.2" transform="matrix(0.19 0 0 -0.19 47.531 56.5516)" style="overflow:visible;"/>
</svg>
