<?xml version="1.0" encoding="utf-8"?>
<!-- Generator: Adobe Illustrator 21.0.0, SVG Export Plug-In . SVG Version: 6.00 Build 0)  -->
<svg version="1.1" id="图层_39" xmlns="http://www.w3.org/2000/svg" xmlns:xlink="http://www.w3.org/1999/xlink" x="0px" y="0px"
	 viewBox="0 0 96 96" style="enable-background:new 0 0 96 96;" xml:space="preserve">
<title>application-x-gnome-saved-search128</title>
<g id="_128">
	<polygon style="opacity:0.1;enable-background:new    ;" points="4.5,88.1 4.5,26.5 9.7,26.5 9.7,9.5 30.8,9.5 36.8,15.4 
		87.6,15.4 87.6,26.5 93.5,26.5 93.5,88.1 	"/>
	<polygon style="opacity:8.000000e-02;enable-background:new    ;" points="3,89.6 3,25.1 8.2,25.1 8.2,8 30.8,8 36.8,13.9 
		89.1,13.9 89.1,25.1 95,25.1 95,89.6 	"/>
	<polygon style="opacity:0.2;enable-background:new    ;" points="3,86.6 3,25.1 8.2,25.1 8.2,8 29.3,8 35.3,13.9 86.1,13.9 
		86.1,25.1 92,25.1 92,86.6 	"/>
	<polygon style="fill:#F57F17;" points="4,85 4,26.1 9.2,26.1 9,9 28.5,9 34.4,15 84,15 84,26 91,26 91,85 	"/>
	
		<linearGradient id="SVGID_1_" gradientUnits="userSpaceOnUse" x1="-889.75" y1="2237.5" x2="-889.75" y2="2226.5" gradientTransform="matrix(2 0 0 2 1826 -4443.0005)">
		<stop  offset="0" style="stop-color:#F57C00"/>
		<stop  offset="0.16" style="stop-color:#F58F09"/>
		<stop  offset="0.36" style="stop-color:#F59D11"/>
		<stop  offset="0.6" style="stop-color:#F5A515"/>
		<stop  offset="0.99" style="stop-color:#F5A816"/>
	</linearGradient>
	<path style="fill:url(#SVGID_1_);" d="M83,16H34l-5.9-6H10v18.9c0,1.6,1.7,3.1,3.2,3.1h67.2c1.5,0,2.6,0,2.6-1.6
		C83,30.4,83,16,83,16z"/>
	
		<linearGradient id="rect2990_1_" gradientUnits="userSpaceOnUse" x1="-889.25" y1="2235" x2="-889.25" y2="2263.5" gradientTransform="matrix(2 0 0 2 1826 -4443.0005)">
		<stop  offset="0" style="stop-color:#FADD60"/>
		<stop  offset="0.99" style="stop-color:#F5A816"/>
	</linearGradient>
	<rect id="rect2990" x="5" y="27" style="fill:url(#rect2990_1_);" width="85" height="57"/>
	<path id="rect3004" style="opacity:0.25;fill:#FDEFBA;enable-background:new    ;" d="M5,27v11.1c0-3.8,2.8-6.7,6-6.7h73
		c3.1,0,6,2.9,6,6.7V27H5z"/>
	<path id="path3801" style="opacity:0.1;fill:#E65100;enable-background:new    ;" d="M10,10v7.4c0-2.8,0.9-4.5,2.2-4.5H27
		c1.7-0.1,3.3,0.3,4.7,1.3c0.7,0.4,1.5,1.1,2.3,1.7L28.1,10H10z"/>
	<polygon style="opacity:0.1;fill:#E65100;enable-background:new    ;" points="34.5,16.2 83.9,16.2 83.9,20.6 39,20.6 	"/>
	<rect x="10.4" y="24.3" style="opacity:5.000000e-02;fill:#E65100;enable-background:new    ;" width="73.5" height="3"/>
</g>
<path style="fill:#F57F17;fill-opacity:0.39;" d="M44.2,39.4c-3.3,1.4-6,4.2-7.3,7.6c-2.1,5-1.5,10.8,1.7,15.1L29,71.9l0,0l3.2,3.2
	l0,0l9.7-9.7c4.3,3.1,9.8,3.9,14.8,1.9c3.7-1.4,6.7-4.2,8.1-7.9C70,46.1,57.4,33.8,44.2,39.4z M50.9,64.5c-6.2,0-11.2-5-11.2-11.2
	S44.7,42,50.8,42C57,42,62,47,62,53.2l0,0C62.1,59.4,57.1,64.5,50.9,64.5L50.9,64.5L50.9,64.5z"/>
</svg>
