<svg xmlns="http://www.w3.org/2000/svg" xmlns:xlink="http://www.w3.org/1999/xlink" viewBox="0 0 16 16"><defs><style>.cls-1{fill:url(#未命名的渐变_169);}.cls-2{fill:#5f6d77;}.cls-3{fill:#1a1a1a;}.cls-4{fill:lime;}.cls-5{fill:#333;}.cls-6{fill:#00a000;isolation:isolate;}</style><linearGradient id="未命名的渐变_169" x1="-9009.52" y1="9058.39" x2="-9004.6" y2="9058.39" gradientTransform="matrix(2.85, 0, 0, -2.85, 25677.39, 25824.3)" gradientUnits="userSpaceOnUse"><stop offset="0" stop-color="#ccc"/><stop offset="0.22" stop-color="#afafaf"/><stop offset="0.54" stop-color="#e8e8e8"/><stop offset="0.85" stop-color="#afafaf"/><stop offset="1" stop-color="#ccc"/></linearGradient></defs><title>16</title><g id="U盘"><g id="_16" data-name="16"><g id="_16-2" data-name="16"><path class="cls-1" d="M13.68,3A2,2,0,0,0,12.07,1a1.87,1.87,0,0,0-.34,0H4.3A1.84,1.84,0,0,0,4,1,2,2,0,0,0,2.35,2.94L1,13a1.67,1.67,0,0,0,1.62,1.73H13.39A1.67,1.67,0,0,0,15,13Z"/><path class="cls-2" d="M2.88,11.25H13.13A1.88,1.88,0,0,1,15,13.13h0A1.87,1.87,0,0,1,13.13,15H2.88A1.88,1.88,0,0,1,1,13.13H1A1.88,1.88,0,0,1,2.88,11.25Z"/><path class="cls-3" d="M2.88,11.63H13.13a1.5,1.5,0,0,1,1.5,1.5h0a1.51,1.51,0,0,1-1.5,1.5H2.88a1.5,1.5,0,0,1-1.5-1.5h0A1.5,1.5,0,0,1,2.88,11.63Z"/><circle class="cls-4" cx="12.81" cy="13.19" r="0.56"/><path class="cls-5" d="M3.06,12.88h7.88a.44.44,0,0,1,.44.43h0a.44.44,0,0,1-.44.44H3.06a.44.44,0,0,1-.43-.44h0A.43.43,0,0,1,3.06,12.88Z"/><path d="M2.94,12.88h8.12a.31.31,0,0,1,.32.31h0a.31.31,0,0,1-.32.31H2.94a.31.31,0,0,1-.31-.31h0A.3.3,0,0,1,2.94,12.88Z"/></g><path class="cls-6" d="M6,5.34a.51.51,0,0,0,.33.51v.57A.86.86,0,0,0,6.6,7h0l1.08.86a.32.32,0,0,1,.08.2v.5a.71.71,0,0,0-.55.65.76.76,0,0,0,.81.69.75.75,0,0,0,.81-.69.73.73,0,0,0-.57-.65V7.19A.34.34,0,0,1,8.4,7l.53-.43.38-.3.12-.1,0,0h0a.79.79,0,0,0,.28-.52V5H10V4H8.79V5h.5v.57c0,.07-.08.14-.13.2l-.87.69v-3h.5L8,2.11,7.29,3.5h.5V7.31L7,6.63c0-.06-.16-.14-.16-.2V5.86c.23-.09.46-.29.46-.52a.62.62,0,0,0-.65-.56A.61.61,0,0,0,6,5.34Z"/></g></g></svg>