<?xml version="1.0" encoding="UTF-8"?>
<svg width="23px" height="27px" viewBox="0 0 23 27" version="1.1" xmlns="http://www.w3.org/2000/svg" xmlns:xlink="http://www.w3.org/1999/xlink">
    <!-- Generator: Sketch 64 (93537) - https://sketch.com -->
    <title>通知</title>
    <desc>Created with Sketch.</desc>
    <g id="控件" stroke="none" stroke-width="1" fill="none" fill-rule="evenodd" opacity="0.847539993">
        <g id="icon通知/n" transform="translate(1.000000, 1.000000)" fill-rule="nonzero" stroke="#FFFFFF">
            <path d="M14.26975,21.76075 C14.06075,23.43825 12.617,24.74725 10.88175,24.74725 L10.88175,24.74725 L10.68925,24.74725 C8.954,24.74725 7.51025,23.43825 7.30125,21.76075 L7.30125,21.76075 Z M10.64525,0 C12.111,0 13.31275,1.199 13.31275,2.662 L13.31275,2.662 L13.31275,2.7885 C16.346,3.4265 18.64225,6.12425 18.64225,9.3335 L18.64225,9.3335 L18.64225,14.8885 C20.18225,16.05725 21.2025,17.875 21.2905,19.921 L21.2905,19.921 L18.64225,19.921 L18.64225,19.94025 L2.64825,19.94025 L2.64825,19.921 L9.59232693e-14,19.921 C0.088,17.875 1.111,16.06 2.64825,14.8885 L2.64825,14.8885 L2.64825,9.3335 C2.64825,6.12425 4.9445,3.4265 7.97775,2.7885 L7.97775,2.7885 L7.97775,2.662 C7.97775,1.199 9.17675,0 10.64525,0 Z" id="通知"></path>
        </g>
    </g>
</svg>