<?xml version="1.0" encoding="UTF-8"?>
<svg width="24px" height="17px" viewBox="0 0 24 17" version="1.1" xmlns="http://www.w3.org/2000/svg" xmlns:xlink="http://www.w3.org/1999/xlink">
    <!-- Generator: Sketch 64 (93537) - https://sketch.com -->
    <title>收纳盒/s</title>
    <desc>Created with Sketch.</desc>
    <g id="收纳盒/s" stroke="none" stroke-width="1" fill="none" fill-rule="evenodd" opacity="0.919712612">
        <g id="收纳盒2">
            <path d="M17.5684001,0.75 L6.43159992,0.75 C6.04625628,0.75 5.68245087,0.92772885 5.44559956,1.23168803 L0.75,7.25770746 L0.75,15 C0.75,15.345178 0.889911016,15.657678 1.11611652,15.8838835 C1.34232203,16.110089 1.65482203,16.25 2,16.25 L22,16.25 C22.345178,16.25 22.657678,16.110089 22.8838835,15.8838835 C23.110089,15.657678 23.25,15.345178 23.25,15 L23.25,7.25770746 L18.5544004,1.23168803 C18.3175491,0.92772885 17.9537437,0.75 17.5684001,0.75 Z" id="矩形" stroke="#FFFFFF" stroke-width="1.5"></path>
            <path d="M0,7.8 L8.72727273,7.8 C8.86981202,9.60747736 10.4506128,10.9571763 12.2580902,10.8146371 C13.8675285,10.6877153 15.1458055,9.40943829 15.2727273,7.8 L15.2727273,7.8 L15.2727273,7.8 L24,7.8" id="路径-2" stroke="#FFFFFF" stroke-width="1.5"></path>
            <path d="M1,8 L9,8 C9.66666667,10 10.6666667,11 12,11 C13.3333333,11 14.6666667,10 16,8 L23,8 L23,16 L1,16 L1,8 Z" id="路径" fill="#FFFFFF"></path>
        </g>
    </g>
</svg>