<?xml version="1.0" encoding="UTF-8"?>
<svg width="22px" height="25px" viewBox="0 0 22 25" version="1.1" xmlns="http://www.w3.org/2000/svg" xmlns:xlink="http://www.w3.org/1999/xlink">
    <!-- Generator: Sketch 64 (93537) - https://sketch.com -->
    <title>icon通知/s</title>
    <desc>Created with Sketch.</desc>
    <g id="页面-1" stroke="none" stroke-width="1" fill="none" fill-rule="evenodd">
        <g id="6.右栏-通知（触控板或鼠标）" transform="translate(-1227.000000, -44.000000)" fill-rule="nonzero">
            <g id="icon通知/s" transform="translate(1227.000000, 44.000000)">
                <path d="M21.2905,19.921 C21.2025,17.875 20.18225,16.05725 18.64225,14.8885 L18.64225,9.3335 C18.64225,6.12425 16.346,3.4265 13.31275,2.7885 L13.31275,2.662 C13.31275,1.199 12.111,0 10.64525,0 C9.17675,0 7.97775,1.199 7.97775,2.662 L7.97775,2.7885 C4.9445,3.4265 2.64825,6.12425 2.64825,9.3335 L2.64825,14.8885 C1.111,16.06 0.088,17.875 0,19.921 L2.64825,19.921 L2.64825,19.94025 L18.64225,19.94025 L18.64225,19.921 L21.2905,19.921 Z" id="路径" fill="#FBFBFB" opacity="0.953938802"></path>
                <path d="M10.219,24.74725 L10.88175,24.74725 C12.617,24.74725 14.06075,23.43825 14.26975,21.76075 L7.30125,21.76075 C7.51025,23.43825 8.954,24.74725 10.68925,24.74725 L10.219,24.74725 Z" id="路径" fill="#FFFFFF" opacity="0.551595052"></path>
            </g>
        </g>
    </g>
</svg>