<svg id="图层_1" data-name="图层 1" xmlns="http://www.w3.org/2000/svg" viewBox="0 0 16 16"><defs><style>.cls-1{opacity:0.84;}</style></defs><title>b-主磁盘</title><path class="cls-1" d="M15.92,9.88,12.8,1.71A1.15,1.15,0,0,0,11.75,1H4.28a1.12,1.12,0,0,0-1.05.72L.08,9.88a1.27,1.27,0,0,0-.08.44v3.54A1.13,1.13,0,0,0,1.13,15H14.88A1.13,1.13,0,0,0,16,13.86V10.32A1.08,1.08,0,0,0,15.92,9.88Zm-12-7.65A.39.39,0,0,1,4.29,2h7.42a.36.36,0,0,1,.35.23L15,10H1ZM15,13.69a.34.34,0,0,1-.36.31H1.36a.53.53,0,0,1-.26-.1.3.3,0,0,1-.1-.21V11H15Z"/><circle class="cls-1" cx="9.5" cy="12.5" r="0.5"/><circle class="cls-1" cx="11.5" cy="12.49" r="0.5"/><circle class="cls-1" cx="13.5" cy="12.49" r="0.5"/><path class="cls-1" d="M8,3C5.82,3,4,4.08,4,5.5S5.82,8,8,8s4-1.08,4-2.5S10.18,3,8,3ZM8,7C6.34,7,5,6.28,5,5.5,5,5,6,4,8,4s3,1,3,1.5C11,6.28,9.71,7,8,7Z"/></svg>