<?xml version="1.0" encoding="iso-8859-1"?>
<!-- Generator: Adobe Illustrator 21.0.0, SVG Export Plug-In . SVG Version: 6.00 Build 0)  -->
<svg version="1.1" id="&#x56FE;&#x5C42;_1" xmlns="http://www.w3.org/2000/svg" xmlns:xlink="http://www.w3.org/1999/xlink" x="0px"
	 y="0px" viewBox="0 0 24 24" style="enable-background:new 0 0 24 24;" xml:space="preserve">
<title>画板 24</title>
<g id="&#x5176;&#x4ED6;">
	<g id="&#x5783;&#x573E;&#x6876;-&#x6EE1;">
		<g id="_24">
			<path style="fill:#606061;" d="M3.85,23l-0.1-0.2c-1.317-2.388-2.005-5.073-2-7.8c0.101-2.907,0.675-5.778,1.7-8.5l0.1-0.3h3.2
				l-5-0.8l0.5-3.2L8,3l0.3-2l8.6,1.4l-0.3,2l5.6,0.9l-0.5,3.2l-1.5-0.2c0.692,2.133,1.063,4.358,1.1,6.6
				c0.019,2.742-0.707,5.438-2.1,7.8L19,23H3.85z M14.35,4V3.7L10.25,3v0.3L14.35,4z"/>
			
				<linearGradient id="SVGID_1_" gradientUnits="userSpaceOnUse" x1="2.13" y1="-844.55" x2="20.69" y2="-844.55" gradientTransform="matrix(1 0 0 -1 0 -830)">
				<stop  offset="0.05" style="stop-color:#CED7DB"/>
				<stop  offset="0.1" style="stop-color:#C4CDD2"/>
				<stop  offset="0.27" style="stop-color:#A7B5BC"/>
				<stop  offset="0.41" style="stop-color:#94A6B0"/>
				<stop  offset="0.51" style="stop-color:#8DA1AB"/>
				<stop  offset="1" style="stop-color:#CED7DB"/>
			</linearGradient>
			<path style="fill:url(#SVGID_1_);" d="M18.95,6.6h-15c-1.067,2.64-1.644,5.453-1.7,8.3c0.004,2.65,0.656,5.26,1.9,7.6h14.6
				c1.303-2.322,1.991-4.938,2-7.6C20.687,12.044,20.076,9.226,18.95,6.6z"/>
			<path style="fill:#5E7B88;" d="M16,4.8l0.3-2.1L8.75,1.5l-0.3,2l-5.7-0.9l-0.4,2.3L21.25,8l0.4-2.3L16,4.8z M9.65,3.7L9.65,3.7
				l0.2-1.2l5.1,0.8l-0.2,1.3C14.75,4.6,9.65,3.7,9.65,3.7z"/>
			<path style="fill:#5E7B88;" d="M6.65,21.3h-1.5c-0.833-2.172-1.273-4.474-1.3-6.8c-0.07-2.013,0.377-4.01,1.3-5.8h1.5
				c0,0-1.3,1.6-1.3,5.8C5.295,16.833,5.739,19.151,6.65,21.3z"/>
			<path style="fill:#5E7B88;" d="M10.25,21.3h-1.5c-0.648-2.209-0.985-4.498-1-6.8c-0.064-1.981,0.276-3.955,1-5.8h1.5
				c0,0-1,1.6-1,5.8C9.201,16.807,9.539,19.105,10.25,21.3z"/>
			<path style="fill:#5E7B88;" d="M16.35,21.3h1.5c0.833-2.172,1.273-4.474,1.3-6.8c0.07-2.013-0.377-4.01-1.3-5.8h-1.5
				c0,0,1.3,1.6,1.3,5.8C17.722,16.835,17.278,19.157,16.35,21.3z"/>
			<path style="fill:#5E7B88;" d="M12.65,21.3h1.5c0.648-2.209,0.985-4.498,1-6.8c0.064-1.981-0.276-3.955-1-5.8h-1.5
				c0,0,1,1.6,1,5.9C13.646,16.87,13.309,19.127,12.65,21.3z"/>
		</g>
	</g>
</g>
<g id="&#x89C4;&#x8303;">
	<rect x="-54.67" y="-32.3" style="fill:none;stroke:#FF0000;stroke-miterlimit:10;" width="90.61" height="84.25"/>
</g>
</svg>
