<?xml version="1.0" encoding="utf-8"?>
<!-- Generator: Adobe Illustrator 24.0.0, SVG Export Plug-In . SVG Version: 6.00 Build 0)  -->
<svg version="1.1" id="dropbox" xmlns="http://www.w3.org/2000/svg" xmlns:xlink="http://www.w3.org/1999/xlink" x="0px" y="0px"
	 viewBox="0 0 16 16" enable-background="new 0 0 16 16" xml:space="preserve">
<title>16</title>
<g id="_16">
	<circle fill="#FFFFFF" cx="8" cy="8" r="7.5"/>
	<path fill="#DDDDDD" d="M8,1c3.9,0,7,3.1,7,7s-3.1,7-7,7s-7-3.1-7-7S4.1,1,8,1 M8,0L8,0C3.6,0,0,3.6,0,8s3.6,8,8,8l0,0
		c4.4,0,8-3.6,8-8S12.4,0,8,0z"/>
	<path fill="none" stroke="#999999" stroke-linecap="round" stroke-miterlimit="10" d="M5.5,11.5c-1.1,0-2-0.9-2-2s0.9-2,2-2"/>
	<path fill="none" stroke="#999999" stroke-linecap="round" stroke-miterlimit="10" d="M11.5,6.5c1.2,0.2,2.1,1.3,2,2.5
		c0,1.4-1.1,2.5-2.5,2.5"/>
	<line fill="none" stroke="#999999" stroke-linecap="round" stroke-miterlimit="10" x1="5.5" y1="11.5" x2="10.8" y2="11.5"/>
	<path fill="none" stroke="#999999" stroke-linecap="round" stroke-miterlimit="10" d="M5.5,7.5c0-1.7,1.4-3,3-3
		c1.3,0,2.4,0.8,2.8,2"/>
</g>
</svg>
