<?xml version="1.0" encoding="utf-8"?>
<!-- Generator: Adobe Illustrator 24.0.0, SVG Export Plug-In . SVG Version: 6.00 Build 0)  -->
<svg version="1.1" id="图层_33" xmlns="http://www.w3.org/2000/svg" xmlns:xlink="http://www.w3.org/1999/xlink" x="0px" y="0px"
	 viewBox="0 0 16 16" enable-background="new 0 0 16 16" xml:space="preserve">
<title>16</title>
<g id="_16">
	<circle fill="#FFFFFF" cx="8" cy="8" r="7.5"/>
	<path fill="#DDDDDD" d="M8,1c3.9,0,7,3.1,7,7s-3.1,7-7,7s-7-3.1-7-7S4.1,1,8,1 M8,0C3.6,0,0,3.6,0,8s3.6,8,8,8s8-3.6,8-8
		S12.4,0,8,0z"/>
	<g id="图层_2_1_">
		<polyline fill="none" stroke="#999999" stroke-linecap="round" stroke-miterlimit="10" points="3.5,4.4 3.5,6.5 5.6,6.5 		"/>
		<polyline fill="none" stroke="#999999" stroke-linecap="round" stroke-miterlimit="10" points="10.4,9.5 12.5,9.5 12.5,11.6 		"/>
		<path fill="none" stroke="#999999" stroke-linecap="round" stroke-miterlimit="10" d="M12.2,9.6c-0.7,1.7-2.3,2.9-4.2,2.9
			c-2,0-3.8-1.3-4.3-3.3"/>
		<path fill="none" stroke="#999999" stroke-linecap="round" stroke-miterlimit="10" d="M3.9,6.3C4.8,4,7.4,2.9,9.7,3.8
			c1.3,0.5,2.2,1.6,2.6,3"/>
	</g>
</g>
</svg>
