<?xml version="1.0" encoding="utf-8"?>
<!-- Generator: Adobe Illustrator 24.0.0, SVG Export Plug-In . SVG Version: 6.00 Build 0)  -->
<svg version="1.1" id="图层_13" xmlns="http://www.w3.org/2000/svg" xmlns:xlink="http://www.w3.org/1999/xlink" x="0px" y="0px"
	 viewBox="0 0 16 16" enable-background="new 0 0 16 16" xml:space="preserve">
<title>16</title>
<g id="_16">
	<circle fill="#FFFFFF" cx="8" cy="8" r="7.5"/>
	<path fill="#DDDDDD" d="M8,1c3.9,0,7,3.1,7,7s-3.1,7-7,7s-7-3.1-7-7S4.1,1,8,1 M8,0C3.6,0,0,3.6,0,8s3.6,8,8,8s8-3.6,8-8
		S12.4,0,8,0z"/>
	<path fill="#999999" d="M10.1,5c1,0,1.9,0.9,1.9,1.9V7l0,0v0.2c-0.1,1.8-3.1,4.8-4,5.1c-0.9-0.3-3.9-3.4-4-5.1V6.9l0,0
		C4,5.9,4.8,5,5.9,5c0.5,0,1,0.2,1.4,0.6L8,6.4l0.7-0.8C9.1,5.2,9.6,5,10.1,5 M10.1,4C9.3,4,8.5,4.3,8,4.9C6.9,3.8,5.1,3.7,3.9,4.8
		C3.3,5.3,3,6.1,3,6.9C3,7,3,7,3,7l0,0c0,2.3,3.8,6.1,5,6.1s5-3.7,5-6.2l0,0c0,0,0-0.1,0-0.2C13,5.3,11.7,4,10.1,4z"/>
</g>
</svg>
