<?xml version="1.0" encoding="utf-8"?>
<!-- Generator: Adobe Illustrator 24.0.0, SVG Export Plug-In . SVG Version: 6.00 Build 0)  -->
<svg version="1.1" id="图层_14" xmlns="http://www.w3.org/2000/svg" xmlns:xlink="http://www.w3.org/1999/xlink" x="0px" y="0px"
	 viewBox="0 0 16 16" enable-background="new 0 0 16 16" xml:space="preserve">
<title>16</title>
<g id="_16">
	<circle fill="#FFFFFF" cx="8" cy="8" r="7.5"/>
	<path fill="#DDDDDD" d="M8,1c3.9,0,7,3.1,7,7s-3.1,7-7,7s-7-3.1-7-7S4.1,1,8,1 M8,0C3.6,0,0,3.6,0,8s3.6,8,8,8s8-3.6,8-8
		S12.4,0,8,0z"/>
	<path fill="none" stroke="#999999" stroke-linecap="round" stroke-miterlimit="10" d="M10.7,8.5H6.3c-1,0-1.9,0.9-1.8,2
		c0,0,0,0,0,0v0.8c0,0.6,0.5,1.2,1.1,1.2h5.8c0.6,0,1.1-0.6,1.1-1.2v-0.8C12.6,9.5,11.8,8.6,10.7,8.5C10.7,8.5,10.7,8.5,10.7,8.5z"
		/>
	<circle fill="none" stroke="#999999" stroke-linecap="round" stroke-miterlimit="10" cx="8.5" cy="4.5" r="2"/>
</g>
</svg>
