<svg id="图层_15" data-name="图层 15" xmlns="http://www.w3.org/2000/svg" viewBox="0 0 96 96"><defs><style>.cls-1{fill:#e95420;}.cls-2{fill:#fff;}.cls-3{fill:none;stroke:#fff;stroke-miterlimit:10;stroke-width:4px;}</style></defs><title>96</title><g id="_96" data-name="96"><circle class="cls-1" cx="48" cy="48" r="44"/><path class="cls-2" d="M64,42H32a4,4,0,0,0-4,4V68a4,4,0,0,0,4,4H64a4,4,0,0,0,4-4V46A4,4,0,0,0,64,42ZM52,59a4,4,0,0,1-8,0V53a4,4,0,0,1,8,0Z"/><path class="cls-3" d="M35,49V37A13,13,0,0,1,48,24h0A13,13,0,0,1,61,37V49"/></g></svg>