<svg id="图层_10" data-name="图层 10" xmlns="http://www.w3.org/2000/svg" viewBox="0 0 96 96"><defs><style>.cls-1{fill:#89846a;}.cls-2{fill:none;stroke:#fff;stroke-miterlimit:10;stroke-width:3px;}.cls-3{fill:#fff;}</style></defs><title>96</title><g id="_96" data-name="96"><path class="cls-1" d="M48,4h0A44,44,0,0,1,92,48h0A44,44,0,0,1,48,92h0A44,44,0,0,1,4,48H4A44,44,0,0,1,48,4Z"/><g id="_128-2" data-name=" 128-2"><polyline class="cls-2" points="31.5 54.27 31.5 65.36 48 72.16 64.5 65.36 64.5 54.3"/><path class="cls-3" d="M64.74,44.87l4.9,4.25-12,6-4.51-4.51,11.66-5.77m.46-3.57L48,49.8l9,9,18-9-9.8-8.5Z"/><path class="cls-3" d="M31.26,44.87l11.66,5.77-4.51,4.51-12-6,4.9-4.25M30.8,41.3,21,49.8l18,9,9-9L30.8,41.3Z"/><path class="cls-3" d="M57.59,26.64l12.25,6-5.13,4.92L53,31.2l4.62-4.56M57,23l-9,8.9,17.2,9.4L75,31.9,57,23Z"/><path class="cls-3" d="M38.41,26.64,43,31.2,31.29,37.61l-5.13-4.92,12.25-6M39,23,21,31.9l9.8,9.4L48,31.9,39,23Z"/></g></g></svg>