<svg id="图层_12" data-name="图层 12" xmlns="http://www.w3.org/2000/svg" viewBox="0 0 96 96"><defs><style>.cls-1{fill:#3eb34f;}.cls-2{fill:#fff;}.cls-3{fill:none;stroke:#fff;stroke-linecap:round;stroke-miterlimit:10;stroke-width:3px;}</style></defs><title>96</title><g id="_96" data-name="96"><circle class="cls-1" cx="48" cy="48" r="44"/><path class="cls-2" d="M27,42.5A5.5,5.5,0,1,1,21.5,48,5.51,5.51,0,0,1,27,42.5m0-3A8.5,8.5,0,1,0,35.5,48,8.51,8.51,0,0,0,27,39.5Z"/><path class="cls-2" d="M60,58.5A5.5,5.5,0,1,1,54.5,64,5.51,5.51,0,0,1,60,58.5m0-3A8.5,8.5,0,1,0,68.5,64,8.51,8.51,0,0,0,60,55.5Z"/><path class="cls-2" d="M60,26.5A5.5,5.5,0,1,1,54.5,32,5.51,5.51,0,0,1,60,26.5m0-3A8.5,8.5,0,1,0,68.5,32,8.51,8.51,0,0,0,60,23.5Z"/><line class="cls-3" x1="48.5" y1="37.5" x2="34.5" y2="44.5"/><line class="cls-3" x1="48.5" y1="57.5" x2="35.5" y2="50.5"/></g></svg>