<?xml version="1.0" encoding="utf-8"?>
<!-- Generator: Adobe Illustrator 24.0.0, SVG Export Plug-In . SVG Version: 6.00 Build 0)  -->
<svg version="1.1" id="图层_12" xmlns="http://www.w3.org/2000/svg" xmlns:xlink="http://www.w3.org/1999/xlink" x="0px" y="0px"
	 viewBox="0 0 16 16" enable-background="new 0 0 16 16" xml:space="preserve">
<title>16</title>
<g id="_16">
	<circle fill="#FFFFFF" cx="8" cy="8" r="7.5"/>
	<path fill="#DDDDDD" d="M8,1c3.9,0,7,3.1,7,7s-3.1,7-7,7s-7-3.1-7-7S4.1,1,8,1 M8,0C3.6,0,0,3.6,0,8s3.6,8,8,8s8-3.6,8-8
		S12.4,0,8,0z"/>
	<circle fill="none" stroke="#999999" stroke-linecap="round" stroke-miterlimit="10" cx="4" cy="8" r="1.5"/>
	<circle fill="none" stroke="#999999" stroke-linecap="round" stroke-miterlimit="10" cx="11" cy="11" r="1.5"/>
	<circle fill="none" stroke="#999999" stroke-linecap="round" stroke-miterlimit="10" cx="11" cy="5" r="1.5"/>
	<line fill="none" stroke="#999999" stroke-linecap="round" stroke-miterlimit="10" x1="8.5" y1="6" x2="5.5" y2="7.5"/>
	<line fill="none" stroke="#999999" stroke-linecap="round" stroke-miterlimit="10" x1="8.5" y1="10" x2="5.5" y2="8.5"/>
</g>
</svg>
