<?xml version="1.0" encoding="utf-8"?>
<!-- Generator: Adobe Illustrator 24.0.0, SVG Export Plug-In . SVG Version: 6.00 Build 0)  -->
<svg version="1.1" id="图层_15" xmlns="http://www.w3.org/2000/svg" xmlns:xlink="http://www.w3.org/1999/xlink" x="0px" y="0px"
	 viewBox="0 0 16 16" enable-background="new 0 0 16 16" xml:space="preserve">
<title>16</title>
<g id="_16">
	<circle fill="#FFFFFF" cx="8" cy="8" r="7.5"/>
	<path fill="#DDDDDD" d="M8,1c3.9,0,7,3.1,7,7s-3.1,7-7,7s-7-3.1-7-7S4.1,1,8,1 M8,0C3.6,0,0,3.6,0,8s3.6,8,8,8s8-3.6,8-8
		S12.4,0,8,0z"/>
	<path fill="none" stroke="#999999" stroke-linecap="round" stroke-miterlimit="10" d="M10.5,6.5h-5c-0.6,0-1,0.4-1,1v3
		c0,0.6,0.4,1,1,1h5c0.6,0,1-0.4,1-1v-3C11.5,6.9,11.1,6.5,10.5,6.5z"/>
	<path fill="none" stroke="#999999" stroke-linecap="round" stroke-miterlimit="10" d="M5.5,6.5V6c0-1.4,1.1-2.5,2.5-2.5l0,0
		c1.4,0,2.5,1.1,2.5,2.5v0.5"/>
	<path fill="#999999" d="M7.9,8h0.1C8.6,8,9,8.4,9,8.9v0.1C9,9.6,8.6,10,8.1,10H7.9C7.4,10,7,9.6,7,9.1V8.9C7,8.4,7.4,8,7.9,8z"/>
</g>
</svg>
