<svg id="图层_14" data-name="图层 14" xmlns="http://www.w3.org/2000/svg" viewBox="0 0 96 96"><defs><style>.cls-1{fill:#618bf5;}.cls-2,.cls-3{fill:none;stroke:#fff;stroke-miterlimit:10;stroke-width:4px;}.cls-2{stroke-linecap:round;}</style></defs><title>96</title><g id="_96" data-name="96"><circle class="cls-1" cx="48" cy="48" r="44"/><path class="cls-2" d="M28.26,51A10,10,0,0,0,18,61v4a6.23,6.23,0,0,0,6.15,6h4.11"/><path class="cls-2" d="M39,42A11.79,11.79,0,0,1,27,30,11.79,11.79,0,0,1,39,18"/><circle class="cls-3" cx="56" cy="30" r="12"/><path class="cls-3" d="M68,51H44A9.9,9.9,0,0,0,34,61v4a6.15,6.15,0,0,0,6,6H72a6.15,6.15,0,0,0,6-6V61A9.9,9.9,0,0,0,68,51Z"/></g></svg>