<?xml version="1.0" encoding="utf-8"?>
<!-- Generator: Adobe Illustrator 24.0.0, SVG Export Plug-In . SVG Version: 6.00 Build 0)  -->
<svg version="1.1" id="图层_14" xmlns="http://www.w3.org/2000/svg" xmlns:xlink="http://www.w3.org/1999/xlink" x="0px" y="0px"
	 viewBox="0 0 16 16" enable-background="new 0 0 16 16" xml:space="preserve">
<title>16</title>
<g id="_16">
	<circle fill="#FFFFFF" cx="8" cy="8" r="7.5"/>
	<path fill="#DDDDDD" d="M8,1c3.9,0,7,3.1,7,7s-3.1,7-7,7s-7-3.1-7-7S4.1,1,8,1 M8,0C3.6,0,0,3.6,0,8s3.6,8,8,8s8-3.6,8-8
		S12.4,0,8,0z"/>
	<path fill="none" stroke="#999999" stroke-linecap="round" stroke-miterlimit="10" d="M5.1,9.5c-0.8,0-1.5,0.6-1.6,1.5c0,0,0,0,0,0
		v0.6c0,0.5,0.4,0.9,0.9,0.9h0.6"/>
	<path fill="none" stroke="#999999" stroke-linecap="round" stroke-miterlimit="10" d="M6,7.5C5.2,7.5,4.5,6.8,4.5,6S5.2,4.5,6,4.5"
		/>
	<path fill="none" stroke="#999999" stroke-linecap="round" stroke-miterlimit="10" d="M11.1,9.5H7.9c-0.8,0-1.4,0.7-1.4,1.5
		c0,0,0,0,0,0v0.6c0,0.5,0.3,0.9,0.8,0.9h4.4c0.5,0,0.8-0.4,0.8-0.9V11C12.5,10.2,11.9,9.5,11.1,9.5C11.2,9.5,11.1,9.5,11.1,9.5z"/>
	<circle fill="none" stroke="#999999" stroke-linecap="round" stroke-miterlimit="10" cx="9.5" cy="6" r="1.5"/>
</g>
</svg>
