<?xml version="1.0" encoding="utf-8"?>
<!-- Generator: Adobe Illustrator 21.0.0, SVG Export Plug-In . SVG Version: 6.00 Build 0)  -->
<svg version="1.1" id="信息" xmlns="http://www.w3.org/2000/svg" xmlns:xlink="http://www.w3.org/1999/xlink" x="0px" y="0px"
	 viewBox="0 0 48 48" style="enable-background:new 0 0 48 48;" xml:space="preserve">
<style type="text/css">
	.st0{fill:#808080;}
	.st1{fill:#268BD2;}
</style>
<title>48</title>
<g id="_48">
	<path class="st0" d="M9,45V32.8c-3.6-3-5.7-7.5-5.8-12.1C3.2,10.9,12.4,3,23.7,3s20.5,7.9,20.5,17.7S35,38.4,23.7,38.4
		c-1.7,0-3.4-0.2-5-0.6L9,45z M23.7,4.9C13.5,4.9,5.2,12,5.2,20.7c0.1,4.3,2,8.3,5.2,11l0.6,0.5v9l7.2-5.4l0.4,0.1
		c1.6,0.4,3.3,0.6,5,0.6c10.2,0,18.5-7.1,18.5-15.8S33.9,4.9,23.7,4.9z"/>
	<path class="st1" d="M18.8,16.7h-2.6c0-1,0.1-2,0.4-2.9c0.4-1.1,1.1-2,2-2.7c0.6-0.5,1.3-0.8,2-1c0.8-0.2,1.5-0.4,2.3-0.4
		c1.6-0.1,3.2,0.5,4.4,1.5c1.3,1.1,2,2.7,1.9,4.4c0,0.9-0.2,1.7-0.6,2.5c-0.6,0.9-1.4,1.7-2.2,2.5c-0.6,0.5-1.1,1.1-1.6,1.7
		c-0.7,1.1-1.1,2.4-1,3.8h-2.6c-0.1-1.3,0.2-2.5,0.6-3.7c0.6-1,1.3-2,2.2-2.8c0.9-0.9,1.4-1.5,1.6-1.7c0.5-0.7,0.8-1.6,0.8-2.4
		c0-0.8-0.2-1.5-0.7-2.2c-0.7-0.8-1.8-1.3-2.9-1.2c-1.4-0.1-2.8,0.6-3.4,1.9C19,14.8,18.8,15.7,18.8,16.7z M24,28.4v3.1h-2.8v-3.1
		H24z"/>
</g>
</svg>
