<?xml version="1.0" encoding="utf-8"?>
<!-- Generator: Adobe Illustrator 21.0.0, SVG Export Plug-In . SVG Version: 6.00 Build 0)  -->
<svg version="1.1" id="图层_170" xmlns="http://www.w3.org/2000/svg" xmlns:xlink="http://www.w3.org/1999/xlink" x="0px" y="0px"
	 viewBox="0 0 48 48" style="enable-background:new 0 0 48 48;" xml:space="preserve">
<style type="text/css">
	.st0{fill:#808080;}
</style>
<title>48</title>
<g id="_48">
	<g id="_16">
		<path class="st0" d="M24.5,5c6.6,0,11.9,1.1,15.2,3c-1.2,2.2-1.6,4.8-1.1,7.2c0.6,2.9,1.5,5.8,2.6,8.6c1.6,4.1,2.5,6.8,1.3,8.5
			c-2.3,3.5-5.3,4.2-8.8,5c-0.9,0.2-1.8,0.4-2.7,0.7c-2.6,0.7-5,2-6.9,4c-1.1-1.3-3.2-2.9-7.2-4c-0.7-0.2-1.4-0.4-2.1-0.5
			c-3.5-0.8-6.8-1.6-9.2-5.1c-1.4-2,0.1-5.6,1.6-9.5c1.1-2.4,1.9-4.9,2.5-7.5c0.5-2.5,0-5.1-1.3-7.3C10.9,6.5,15.5,5,23.9,5H24.5
			 M24.5,3H24C21.5,3,10.9,3,5.6,7.5c-0.3,0.2,3,2.9,2.1,7.4c-1.3,6.7-6.9,14.1-3.8,18.5c3.4,4.9,8.4,5.3,12.4,6.4
			c6.5,1.8,7,5.1,7.7,5.1l0,0c0.6,0,1.5-3.2,7.5-5c4.3-1.3,9.2-1.3,12.6-6.5c2.8-4.3-2.3-10.7-3.6-18.5c-0.5-2.6,0.2-5.3,1.9-7.4
			C37.4,3.2,27.9,3,24.5,3L24.5,3z"/>
	</g>
</g>
</svg>
