<?xml version="1.0" encoding="utf-8"?>
<!-- Generator: Adobe Illustrator 21.0.0, SVG Export Plug-In . SVG Version: 6.00 Build 0)  -->
<svg version="1.1" id="图层_170" xmlns="http://www.w3.org/2000/svg" xmlns:xlink="http://www.w3.org/1999/xlink" x="0px" y="0px"
	 viewBox="0 0 48 48" style="enable-background:new 0 0 48 48;" xml:space="preserve">
<style type="text/css">
	.st0{fill:#808080;}
</style>
<title>48</title>
<g id="_48">
	<g id="_16">
		<path class="st0" d="M24.1,5.4l0.5,0.4c2,1.7,4.1,3.1,6.4,4.3c2.9,1.4,5.9,2.3,9.1,2.8c0.2,3.9,0.2,7.7-0.1,11.6
			C39,34,27.9,43,24.1,43S9.2,34,8.2,24.5c-0.3-3.9-0.3-7.8-0.1-11.7c3.1-0.7,6.1-1.6,9-2.7c2.3-1.1,4.5-2.6,6.4-4.3L24.1,5.4
			 M24.1,3c-0.7,0-3.8,3.5-7.7,5.2C13,9.4,9.7,10.4,6.2,11.1c-0.3,4.5-0.3,9,0,13.6C7.3,34.8,18.9,45,24.1,45S40.9,34.8,42,24.7
			c0.3-4.6,0.3-9.1,0-13.7c0,0,0,0.1,0,0.1c-3.5-0.4-6.9-1.4-10.1-2.9C27.7,6.3,24.8,3,24.1,3L24.1,3z"/>
	</g>
</g>
</svg>
