<?xml version="1.0" encoding="iso-8859-1"?>
<!-- Generator: Adobe Illustrator 21.0.0, SVG Export Plug-In . SVG Version: 6.00 Build 0)  -->
<svg version="1.1" id="&#x56FE;&#x5C42;_1" xmlns="http://www.w3.org/2000/svg" xmlns:xlink="http://www.w3.org/1999/xlink" x="0px"
	 y="0px" viewBox="0 0 48 48" style="enable-background:new 0 0 48 48;" xml:space="preserve">
<title>48</title>
<g id="&#x5E95;&#x677F;_&#x590D;&#x5236;">
	<g id="&#x6D45;&#x7070;&#x8272;">
		<g id="_48">
			<g style="opacity:0.2;">
				<path d="M24,45.5c-7.3,0-13.5-1.8-16.6-4.9c-6.7-6.7-6.7-26.5,0-33.1c3.1-3.1,9.3-4.9,16.6-4.9s13.5,1.8,16.6,4.9
					c6.7,6.7,6.7,26.5,0,33.1C37.5,43.7,31.3,45.5,24,45.5z"/>
			</g>
			<g style="opacity:8.000000e-02;">
				<path d="M25,47.5c-7.5,0-14-2-17.3-5.2c-7.1-7.1-7.1-27.4,0-34.5C11,4.5,17.5,2.5,25,2.5s14,2,17.3,5.2c7.1,7.1,7.1,27.4,0,34.5
					C39,45.5,32.5,47.5,25,47.5z"/>
			</g>
			<g style="opacity:0.1;">
				<path d="M25,46.5c-7.3,0-13.5-1.8-16.6-4.9c-6.7-6.7-6.7-26.5,0-33.1c3.1-3.1,9.3-4.9,16.6-4.9s13.5,1.8,16.6,4.9
					c6.7,6.7,6.7,26.5,0,33.1C38.5,44.7,32.3,46.5,25,46.5z"/>
			</g>
			<g id="_48-2">
				
					<linearGradient id="SVGID_1_" gradientUnits="userSpaceOnUse" x1="24" y1="-736.475" x2="24" y2="-695.4874" gradientTransform="matrix(1 0 0 -1 0 -692)">
					<stop  offset="0" style="stop-color:#DAE1E4"/>
					<stop  offset="1" style="stop-color:#F3F4FA"/>
				</linearGradient>
				<path style="fill:url(#SVGID_1_);" d="M39.9,39.9c-6.2,6.1-25.5,6.1-31.7,0S2,14.3,8.1,8.1s25.5-6.1,31.7,0S46,33.7,39.9,39.9z"
					/>
			</g>
			
				<linearGradient id="SVGID_2_" gradientUnits="userSpaceOnUse" x1="24" y1="-734.5" x2="24" y2="-697.5" gradientTransform="matrix(1 0 0 -1 0 -692)">
				<stop  offset="0" style="stop-color:#CFD8DC"/>
				<stop  offset="1" style="stop-color:#EBECF2"/>
			</linearGradient>
			<path style="fill:url(#SVGID_2_);" d="M24,42.5c-6.3,0-12-1.6-14.4-4.1C4.2,33,4.2,15,9.6,9.6C12,7.1,17.7,5.5,24,5.5
				s12,1.6,14.4,4.1c5.4,5.4,5.4,23.5,0,28.9C36,40.9,30.3,42.5,24,42.5z"/>
		</g>
	</g>
</g>
<g id="&#x5B9A;&#x65F6;&#x5173;&#x673A;">
	<g id="_48-3">
		
			<linearGradient id="SVGID_3_" gradientUnits="userSpaceOnUse" x1="10" y1="-716.6625" x2="38" y2="-716.6625" gradientTransform="matrix(1 0 0 -1 0 -692)">
			<stop  offset="0" style="stop-color:#FFFFFF"/>
			<stop  offset="1" style="stop-color:#ECEFF1"/>
		</linearGradient>
		<path style="fill:url(#SVGID_3_);" d="M36.7,12.4c-1.8-1.7-4.6-1.7-6.3,0c-0.3,0.3-0.3,0.8,0,1.2l1.8,1.8l-0.9,0.9
			c-4.4-3.3-10.5-3.2-14.8,0.2l-0.9-0.8l2.1-2.1c0.3-0.3,0.3-0.8,0-1.2c-1.8-1.7-4.7-1.5-6.3,0.4c-1.5,1.7-1.5,4.3,0,6
			c0.3,0.3,0.8,0.3,1.2,0l1.9-1.9l0.9,0.8C11.1,22.2,10.9,29.3,15,34l-2.7,2.7c-0.3,0.3-0.3,0.8,0,1.2c0.2,0.2,0.4,0.2,0.6,0.2
			c0.2,0,0.4-0.1,0.6-0.2l2.7-2.7c4.6,4,11.3,4,15.9,0l2.7,2.7c0.2,0.2,0.4,0.2,0.6,0.2c0.2,0,0.4-0.1,0.6-0.2
			c0.3-0.3,0.3-0.8,0-1.2L33.3,34c4.2-4.8,3.9-12-0.6-16.5l0,0l0.8-0.9l2.2,2.2c0.3,0.3,0.8,0.3,1.2,0
			C38.5,17.1,38.5,14.2,36.7,12.4C36.7,12.5,36.7,12.4,36.7,12.4z"/>
		<path style="fill:#0D47A1;" d="M34.4,12.1c0.5,0,0.8,0.4,0.8,0.8c0,0.2-0.1,0.4-0.2,0.5l-3,3.2c-0.3,0.3-0.8,0.4-1.2,0
			c-0.3-0.3-0.4-0.8,0-1.2l3-3.2C33.9,12.2,34.1,12.1,34.4,12.1L34.4,12.1z"/>
		<path style="fill:#0D47A1;" d="M13.1,12.6c0.2,0,0.4,0.1,0.6,0.2l3.2,3c0.3,0.4,0.2,0.9-0.1,1.2c-0.3,0.2-0.7,0.3-1,0l-3.2-3
			c-0.3-0.3-0.3-0.8,0-1.2C12.7,12.7,12.9,12.6,13.1,12.6L13.1,12.6z"/>
		<path style="fill:#0D47A1;" d="M12.7,37c-0.5,0-0.8-0.4-0.8-0.8c0-0.2,0.1-0.4,0.2-0.6l3.1-3.1c0.3-0.3,0.9-0.3,1.2,0.1
			c0.3,0.3,0.3,0.8,0,1.1l-3.1,3.1C13.2,36.9,12.9,37,12.7,37L12.7,37z"/>
		<path style="fill:#0D47A1;" d="M35.3,37c-0.2,0-0.4-0.1-0.6-0.2l-3.1-3.2c-0.3-0.3-0.3-0.9,0.1-1.2c0.3-0.3,0.8-0.3,1.1,0l3.1,3.1
			c0.3,0.3,0.3,0.8,0,1.2C35.7,36.9,35.5,37,35.3,37L35.3,37z"/>
		
			<linearGradient id="SVGID_4_" gradientUnits="userSpaceOnUse" x1="23.8993" y1="-704.77" x2="23.8993" y2="-728.9728" gradientTransform="matrix(1 0 0 -1 0 -692)">
			<stop  offset="0" style="stop-color:#64B5F6"/>
			<stop  offset="1" style="stop-color:#0D47A1"/>
		</linearGradient>
		<path style="fill:url(#SVGID_4_);" d="M24,37c-6.7,0.1-12.1-5.3-12.2-12c-0.1-6.7,5.3-12.1,12-12.2s12.1,5.3,12.2,12
			c0,4.8-2.8,9.2-7.3,11.2C27.2,36.6,25.6,37,24,37z"/>
		
			<linearGradient id="SVGID_5_" gradientUnits="userSpaceOnUse" x1="24" y1="-706.91" x2="24" y2="-726.82" gradientTransform="matrix(1 0 0 -1 0 -692)">
			<stop  offset="0" style="stop-color:#FFFFFF"/>
			<stop  offset="1" style="stop-color:#EBECF2"/>
		</linearGradient>
		<path style="fill:url(#SVGID_5_);" d="M24.1,34.8c-5.5,0-10-4.4-10-9.8s4.4-10,9.8-10s10,4.4,10,9.8c0,4-2.3,7.6-6,9.2
			C26.7,34.5,25.4,34.8,24.1,34.8L24.1,34.8z"/>
		
			<radialGradient id="SVGID_6_" cx="11.08" cy="-702.7" r="6.2" gradientTransform="matrix(1 0 0 -1 0 -692)" gradientUnits="userSpaceOnUse">
			<stop  offset="0" style="stop-color:#E4ECF5"/>
			<stop  offset="1" style="stop-color:#86A9CF"/>
		</radialGradient>
		<path style="fill:url(#SVGID_6_);" d="M11.9,17.9c-0.2,0-0.4-0.1-0.6-0.2c-1.7-1.8-1.5-4.7,0.4-6.3c1.7-1.5,4.3-1.5,6,0
			c0.3,0.3,0.3,0.8,0,1.2l-5.2,5.2C12.3,17.8,12.1,17.9,11.9,17.9L11.9,17.9z"/>
		
			<radialGradient id="SVGID_7_" cx="37.16" cy="-703.23" r="5.53" gradientTransform="matrix(1 0 0 -1 0 -692)" gradientUnits="userSpaceOnUse">
			<stop  offset="0" style="stop-color:#E4ECF5"/>
			<stop  offset="1" style="stop-color:#86A9CF"/>
		</radialGradient>
		<path style="fill:url(#SVGID_7_);" d="M36.1,17.9c-0.2,0-0.4-0.1-0.6-0.2l-5.2-5.2c-0.3-0.3-0.3-0.8,0-1.2
			c1.8-1.7,4.7-1.5,6.3,0.4c1.5,1.7,1.5,4.3,0,6C36.5,17.8,36.3,17.9,36.1,17.9L36.1,17.9z"/>
		<path style="fill:#A11F31;" d="M24.1,25.7h-5.6c-0.5,0-0.8-0.4-0.8-0.8S18,24,18.5,24l0,0h5.6c0.5,0,0.8,0.4,0.8,0.8
			C24.9,25.3,24.5,25.7,24.1,25.7z"/>
		<path style="fill:#D7404D;" d="M24.1,25.7c-0.5,0-0.8-0.4-0.8-0.8v-6.7c0-0.5,0.4-0.8,0.8-0.8c0.5,0,0.8,0.4,0.8,0.8v6.7
			C24.9,25.3,24.5,25.7,24.1,25.7z"/>
		<path style="fill:#536EB3;" d="M24.5,32.8c0.1,0.1,0.2,0.3,0.2,0.4v0.4c0,0.3-0.3,0.6-0.7,0.5c-0.3,0-0.5-0.2-0.5-0.5v-0.4
			c0-0.3,0.2-0.6,0.6-0.6C24.3,32.6,24.4,32.7,24.5,32.8L24.5,32.8z"/>
		<path style="fill:#536EB3;" d="M32.7,24c0.1,0.1,0.2,0.3,0.2,0.4v0.4c0,0.3-0.3,0.6-0.7,0.5c-0.3,0-0.5-0.2-0.5-0.5v-0.4
			c0-0.3,0.2-0.6,0.6-0.6C32.5,23.8,32.6,23.8,32.7,24L32.7,24z"/>
		<path style="fill:#536EB3;" d="M24.5,15.6c0.1,0.1,0.2,0.3,0.2,0.4v0.4c0,0.3-0.3,0.6-0.7,0.5c-0.3,0-0.5-0.2-0.5-0.5V16
			c0-0.3,0.2-0.6,0.6-0.6C24.3,15.4,24.4,15.5,24.5,15.6L24.5,15.6z"/>
		<path style="fill:#536EB3;" d="M15.7,24c0.1,0.1,0.2,0.3,0.2,0.4v0.4c0,0.3-0.2,0.6-0.5,0.7c-0.3,0-0.6-0.2-0.7-0.5
			c0-0.1,0-0.1,0-0.2v-0.4c0-0.3,0.2-0.6,0.6-0.6C15.5,23.8,15.6,23.8,15.7,24L15.7,24z"/>
	</g>
</g>
</svg>
