<?xml version="1.0" encoding="utf-8"?>
<!-- Generator: Adobe Illustrator 21.0.0, SVG Export Plug-In . SVG Version: 6.00 Build 0)  -->
<svg version="1.1" id="信息" xmlns="http://www.w3.org/2000/svg" xmlns:xlink="http://www.w3.org/1999/xlink" x="0px" y="0px"
	 viewBox="0 0 22 22" style="enable-background:new 0 0 22 22;" xml:space="preserve">
<style type="text/css">
	.st0{fill:#808080;}
	.st1{fill:#268BD2;}
</style>
<title>22</title>
<g id="_22">
	<path class="st0" d="M3,22v-6.1c-1.8-1.5-2.8-3.8-2.8-6.1c0-4.9,4.6-8.9,10.3-8.9s10.3,4,10.3,8.9s-4.6,8.9-10.3,8.9
		c-0.8,0-1.7-0.1-2.5-0.3L3,22z M10.5,1.9c-5.1,0-9.3,3.5-9.3,7.9c0,2.1,1,4.1,2.6,5.5L4,15.4V20l3.8-2.7L8,17.4
		c0.8,0.2,1.7,0.3,2.5,0.3c5.1,0,9.3-3.5,9.3-7.9S15.6,1.9,10.5,1.9z"/>
	<path class="st1" d="M8.7,8.6H7.3c0-0.5,0-1,0.2-1.5s0.5-1,1-1.3c0.3-0.2,0.6-0.4,1-0.5s0.8-0.2,1.2-0.2c0.8,0,1.6,0.2,2.2,0.8
		c0.7,0.5,1,1.3,1,2.2c0,0.4-0.1,0.9-0.3,1.2c-0.3,0.5-0.7,0.9-1.1,1.2c-0.3,0.3-0.6,0.6-0.8,0.9c-0.4,0.6-0.5,1.2-0.5,1.9H9.8
		c0-0.6,0.1-1.3,0.3-1.8c0.3-0.5,0.7-1,1.1-1.4c0.4-0.5,0.7-0.8,0.8-0.9c0.3-0.3,0.4-0.8,0.4-1.2c0-0.4-0.1-0.8-0.4-1.1
		c-0.4-0.4-0.9-0.7-1.5-0.6C9.9,6.1,9.3,6.5,8.9,7.1C8.7,7.6,8.6,8.1,8.7,8.6z M11.3,14.5V16H9.8v-1.5H11.3z"/>
</g>
</svg>
