<?xml version="1.0" encoding="utf-8"?>
<!-- Generator: Adobe Illustrator 21.0.0, SVG Export Plug-In . SVG Version: 6.00 Build 0)  -->
<svg version="1.1" id="信息" xmlns="http://www.w3.org/2000/svg" xmlns:xlink="http://www.w3.org/1999/xlink" x="0px" y="0px"
	 viewBox="0 0 22 22" style="enable-background:new 0 0 22 22;" xml:space="preserve">
<style type="text/css">
	.st0{fill:#808080;}
	.st1{fill:#FF7300;}
</style>
<title>22</title>
<g id="_22">
	<path class="st0" d="M3,22v-6.1c-1.8-1.5-2.8-3.8-2.8-6.1c0-4.9,4.6-8.9,10.3-8.9s10.3,4,10.3,8.9s-4.6,8.9-10.3,8.9
		c-0.8,0-1.7-0.1-2.5-0.3L3,22z M10.5,1.9c-5.1,0-9.3,3.5-9.3,7.9c0,2.1,1,4.1,2.6,5.5L4,15.4V20l3.8-2.7L8,17.4
		c0.8,0.2,1.7,0.3,2.5,0.3c5.1,0,9.3-3.5,9.3-7.9S15.6,1.9,10.5,1.9z"/>
	<rect x="10" y="4" class="st1" width="2" height="8"/>
	<rect x="10" y="14" class="st1" width="2" height="2"/>
</g>
</svg>
