<?xml version="1.0" encoding="utf-8"?>
<!-- Generator: Adobe Illustrator 21.0.0, SVG Export Plug-In . SVG Version: 6.00 Build 0)  -->
<svg version="1.1" id="图层_170" xmlns="http://www.w3.org/2000/svg" xmlns:xlink="http://www.w3.org/1999/xlink" x="0px" y="0px"
	 viewBox="0 0 22 22" style="enable-background:new 0 0 22 22;" xml:space="preserve">
<style type="text/css">
	.st0{fill:#808080;}
</style>
<title>22</title>
<g id="_22">
	<g id="_16">
		<path class="st0" d="M11.3,1c3.5,0,6.3,0.6,8,1.6c-0.6,1.2-0.8,2.5-0.6,3.8c0.3,1.5,0.8,3,1.4,4.5c0.8,2.2,1.3,3.6,0.7,4.5
			c-1.2,1.9-2.8,2.2-4.6,2.6c-0.5,0.1-0.9,0.2-1.4,0.4c-1.4,0.3-2.6,1.1-3.6,2.1c-1-1.1-2.3-1.8-3.8-2.1l-1.1-0.3
			c-1.8-0.4-3.6-0.9-4.8-2.7c-0.7-1.1,0-3,0.8-5c0.6-1.3,1-2.6,1.3-3.9c0.3-1.3,0-2.7-0.7-3.8C4.1,1.8,6.5,1,10.9,1H11.3 M11.3,0H11
			C9.7,0,4.1,0,1.4,2.4C1.3,2.5,2.9,3.9,2.5,6.3c-0.7,3.5-3.6,7.4-2,9.7c1.8,2.6,4.4,2.8,6.5,3.4c3.4,1,3.7,2.6,4,2.6l0,0
			c0.3,0,0.8-1.7,3.9-2.6c2.3-0.7,4.8-0.7,6.6-3.4c1.5-2.3-1.2-5.6-1.9-9.7c-0.2-1.4,0.1-2.8,1-3.9C18,0.1,13,0,11.3,0L11.3,0z"/>
	</g>
</g>
</svg>
