<?xml version="1.0" encoding="utf-8"?>
<!-- Generator: Adobe Illustrator 21.0.0, SVG Export Plug-In . SVG Version: 6.00 Build 0)  -->
<svg version="1.1" id="图层_170" xmlns="http://www.w3.org/2000/svg" xmlns:xlink="http://www.w3.org/1999/xlink" x="0px" y="0px"
	 viewBox="0 0 22 22" style="enable-background:new 0 0 22 22;" xml:space="preserve">
<style type="text/css">
	.st0{fill:#808080;}
</style>
<title>22</title>
<g id="_22">
	<g id="_16">
		<path class="st0" d="M11,1.2l0.2,0.2c1,0.9,2,1.6,3.2,2.2c1.4,0.7,3,1.2,4.5,1.5c0.1,2,0.1,4.1-0.1,6.1c-0.5,5-6,9.7-7.9,9.7
			s-7.4-4.7-7.9-9.7C3,9.2,3,7.1,3.1,5.1c1.5-0.4,3-0.8,4.5-1.4c1.2-0.6,2.2-1.4,3.2-2.3L11,1.2 M11,0c-0.4,0-1.9,1.9-3.8,2.8
			c-1.6,0.6-3.3,1.1-5,1.5C2,6.6,2,9,2.2,11.4C2.6,16.7,8.4,22,11,22s8.4-5.3,8.9-10.6c0.2-2.4,0.2-4.8,0-7.2c0,0,0,0,0,0.1
			c-1.7-0.2-3.4-0.7-5-1.5C12.8,1.7,11.3,0,11,0z"/>
	</g>
</g>
</svg>
