<?xml version="1.0" encoding="utf-8"?>
<!-- Generator: Adobe Illustrator 21.0.0, SVG Export Plug-In . SVG Version: 6.00 Build 0)  -->
<svg version="1.1" id="图层_1" xmlns="http://www.w3.org/2000/svg" xmlns:xlink="http://www.w3.org/1999/xlink" x="0px" y="0px"
	 viewBox="0 0 22 22" style="enable-background:new 0 0 22 22;" xml:space="preserve">
<style type="text/css">
	.st0{fill:url(#SVGID_1_);}
	.st1{fill:url(#SVGID_2_);}
	.st2{fill:#0D47A1;}
	.st3{fill:url(#SVGID_3_);}
	.st4{fill:url(#SVGID_4_);}
	.st5{fill:url(#SVGID_5_);}
	.st6{fill:url(#SVGID_6_);}
	.st7{fill:#A11F31;}
	.st8{fill:#D7404D;}
</style>
<title>22</title>
<g id="底板_复制">
	<g id="浅灰色">
		<g id="_22">
			
				<linearGradient id="SVGID_1_" gradientUnits="userSpaceOnUse" x1="11" y1="2.5025" x2="11" y2="23.4975" gradientTransform="matrix(1 0 0 -1 0 24)">
				<stop  offset="0" style="stop-color:#CFD8DC"/>
				<stop  offset="1" style="stop-color:#EBECF2"/>
			</linearGradient>
			<path class="st0" d="M19.1,19.1c-3.2,3.2-13.1,3.2-16.2,0s-3.2-13.1,0-16.2s13.1-3.2,16.2,0S22.3,15.9,19.1,19.1z"/>
		</g>
	</g>
</g>
<g id="定时关机">
	<g id="_22-2">
		
			<linearGradient id="SVGID_2_" gradientUnits="userSpaceOnUse" x1="4" y1="12.193" x2="18" y2="12.193" gradientTransform="matrix(1 0 0 -1 0 24)">
			<stop  offset="0" style="stop-color:#FFFFFF"/>
			<stop  offset="1" style="stop-color:#ECEFF1"/>
		</linearGradient>
		<path class="st1" d="M17.3,5.7c-0.9-0.9-2.3-0.9-3.2,0c0,0,0,0,0,0c-0.2,0.2-0.2,0.4,0,0.6c0,0,0,0,0,0l0.9,0.9l-0.4,0.5
			C12.4,6,9.4,6,7.3,7.8L6.8,7.3l1-1C8,6.2,8,5.9,7.8,5.8c0,0,0,0,0,0C6.8,5,5.4,5.2,4.7,6.2C4,7,4,8.1,4.7,8.9
			c0.2,0.2,0.4,0.2,0.6,0c0,0,0,0,0,0l1-1l0.4,0.4c-2.2,2.2-2.3,5.8-0.2,8.1l-1.4,1.4c-0.2,0.2-0.2,0.4,0,0.6
			c0.1,0.1,0.2,0.1,0.3,0.1c0.1,0,0.2,0,0.3-0.1L7,17c2.3,2,5.7,2,7.9,0l1.4,1.4c0.1,0.1,0.2,0.1,0.3,0.1c0.1,0,0.2,0,0.3-0.1
			c0.2-0.2,0.2-0.4,0-0.6c0,0,0,0,0,0l-1.4-1.4c2.1-2.4,2-6-0.3-8.3l0,0l0.4-0.4l1.1,1.1c0.2,0.2,0.4,0.2,0.6,0
			C18.2,8,18.2,6.6,17.3,5.7z"/>
		<path class="st2" d="M16.2,5.1c0.2,0,0.4,0.2,0.4,0.4c0,0.1,0,0.2-0.1,0.3L15,7.4c-0.2,0.1-0.4,0.1-0.6-0.1
			c-0.1-0.1-0.1-0.3,0-0.5l1.5-1.6C16,5.1,16.1,5.1,16.2,5.1L16.2,5.1z"/>
		<path class="st2" d="M5.5,5.3c0.1,0,0.2,0,0.3,0.1l1.6,1.5c0.1,0.2,0.1,0.4-0.1,0.6C7.2,7.6,7,7.6,6.9,7.5L5.3,6
			c-0.2-0.2-0.2-0.4,0-0.6c0,0,0,0,0,0C5.4,5.3,5.5,5.3,5.5,5.3L5.5,5.3z"/>
		<path class="st2" d="M5.4,17.5C5.1,17.5,5,17.3,5,17c0-0.1,0-0.2,0.1-0.3l1.6-1.6C6.8,15,7,15,7.2,15.1c0.2,0.1,0.2,0.4,0.1,0.6
			c0,0,0,0-0.1,0.1l-1.6,1.6C5.6,17.4,5.5,17.5,5.4,17.5z"/>
		<path class="st2" d="M16.6,17.5c-0.1,0-0.2,0-0.3-0.1l-1.6-1.6c-0.2-0.1-0.2-0.4-0.1-0.6c0.1-0.2,0.4-0.2,0.6-0.1c0,0,0,0,0.1,0.1
			l1.6,1.6c0.2,0.2,0.2,0.4,0,0.6c0,0,0,0,0,0C16.9,17.4,16.7,17.5,16.6,17.5L16.6,17.5z"/>
		
			<linearGradient id="SVGID_3_" gradientUnits="userSpaceOnUse" x1="10.9985" y1="18.62" x2="10.9985" y2="6.52" gradientTransform="matrix(1 0 0 -1 0 24)">
			<stop  offset="0" style="stop-color:#64B5F6"/>
			<stop  offset="1" style="stop-color:#0D47A1"/>
		</linearGradient>
		<path class="st3" d="M11,17.5c-3.3,0-6-2.7-6-6c0-3.3,2.7-6,6-6s6,2.7,6,6c0,2.4-1.4,4.6-3.6,5.5C12.6,17.3,11.8,17.5,11,17.5z"/>
		
			<linearGradient id="SVGID_4_" gradientUnits="userSpaceOnUse" x1="11.017" y1="17.55" x2="11.017" y2="7.59" gradientTransform="matrix(1 0 0 -1 0 24)">
			<stop  offset="0" style="stop-color:#FFFFFF"/>
			<stop  offset="1" style="stop-color:#EBECF2"/>
		</linearGradient>
		<path class="st4" d="M11,16.4c-2.8,0-5-2.3-5-5s2.3-5,5-5s5,2.3,5,5c0,2-1.2,3.8-3,4.6C12.4,16.3,11.7,16.4,11,16.4L11,16.4z"/>
		
			<radialGradient id="SVGID_5_" cx="4.54" cy="19.65" r="3.1" gradientTransform="matrix(1 0 0 -1 0 24)" gradientUnits="userSpaceOnUse">
			<stop  offset="0" style="stop-color:#E4ECF5"/>
			<stop  offset="1" style="stop-color:#86A9CF"/>
		</radialGradient>
		<path class="st5" d="M4.9,7.9c-0.1,0-0.2,0-0.3-0.1C3.8,7,3.8,5.5,4.7,4.7s2.3-0.9,3.2,0l0,0C8,4.8,8,5.1,7.8,5.2c0,0,0,0,0,0
			L5.2,7.8C5.2,7.9,5.1,7.9,4.9,7.9L4.9,7.9z"/>
		
			<radialGradient id="SVGID_6_" cx="17.58" cy="19.39" r="2.77" gradientTransform="matrix(1 0 0 -1 0 24)" gradientUnits="userSpaceOnUse">
			<stop  offset="0" style="stop-color:#E4ECF5"/>
			<stop  offset="1" style="stop-color:#86A9CF"/>
		</radialGradient>
		<path class="st6" d="M17,7.9c-0.1,0-0.2,0-0.3-0.1l-2.5-2.6c-0.2-0.2-0.2-0.4,0-0.6c0,0,0,0,0,0c0.9-0.9,2.3-0.9,3.2,0
			s0.9,2.3,0,3.2l0,0C17.3,7.9,17.2,7.9,17,7.9L17,7.9z"/>
		<path class="st7" d="M11,11.9H8.2c-0.2,0-0.4-0.2-0.4-0.4S8,11,8.2,11H11c0.2,0,0.4,0.2,0.4,0.4S11.2,11.9,11,11.9z"/>
		<path class="st8" d="M11,11.9c-0.2,0-0.4-0.2-0.4-0.4V8.1c0-0.2,0.2-0.4,0.4-0.4s0.4,0.2,0.4,0.4v3.4C11.4,11.7,11.2,11.8,11,11.9
			L11,11.9z"/>
	</g>
</g>
</svg>
