<?xml version="1.0" encoding="iso-8859-1"?>
<!-- Generator: Adobe Illustrator 21.0.0, SVG Export Plug-In . SVG Version: 6.00 Build 0)  -->
<svg version="1.1" id="&#x5176;&#x4ED6;" xmlns="http://www.w3.org/2000/svg" xmlns:xlink="http://www.w3.org/1999/xlink" x="0px"
	 y="0px" viewBox="0 0 48 48" style="enable-background:new 0 0 48 48;" xml:space="preserve">
<title>画板 22</title>
<g id="&#x5783;&#x573E;&#x6876;-&#x6EE1;">
	<g id="_48">
		<path style="opacity:0.2;enable-background:new    ;" d="M8.95,47.1l-0.3-0.5c-2.757-4.85-4.237-10.321-4.3-15.9
			c0.17-5.869,1.39-11.66,3.6-17.1l0.3-0.6h0.9l-4.6-0.7l1.2-7.4l11,1.8l0.6-3.8l17.9,2.9l-0.6,3.8l11,1.8l-1.3,7.4l-2.7-0.4
			c1.271,4.047,1.945,8.258,2,12.5c-0.063,5.579-1.543,11.05-4.3,15.9l-0.2,0.3H8.95z"/>
		<path style="fill:#606061;" d="M9.55,46.1c-2.614-4.681-4.023-9.939-4.1-15.3c0.166-5.763,1.351-11.451,3.5-16.8h1.3l0.2-0.1
			l0.4-1.6l-5.2-0.8l1-5.4l11,1.8l0.6-3.8l15.9,2.6l-0.6,3.8l11,1.8l-0.9,5.4l-3.3-0.5c1.513,4.413,2.323,9.036,2.4,13.7
			c-0.077,5.361-1.486,10.619-4.1,15.3C38.65,46.2,9.55,46.1,9.55,46.1z M30.15,9.9l0.2-1.3l-9.1-1.5L21,8.4L30.15,9.9z"/>
		<polygon style="fill:#9E9E9E;" points="30.55,14.9 17.55,8.8 12.25,11.6 12.55,15 14.25,16.7 22.35,15.8 		"/>
		<polygon style="fill:#E0E0E0;" points="19.25,12.3 18.35,12.8 17.65,14.7 16.35,13.7 15.95,12.5 16.05,11.8 17.65,12 		"/>
		<polygon style="fill:#E0E0E0;" points="22.65,12.9 22.55,12.9 22.45,13.6 22.65,14.6 22.65,14.6 22.75,14.6 24.15,13.1 		"/>
		<polygon style="fill:#E0E0E0;" points="25.75,14.6 25.75,14.6 25.95,14.3 26.45,13.9 26.45,13.9 26.55,13.9 26.85,14.4 		"/>
		<polygon style="fill:#E0E0E0;" points="18.75,14.5 18.65,14.5 19.35,13.6 21.05,12.3 21.05,12.3 21.25,12.3 22.05,14.7 		"/>
		<polygon style="fill:#E0E0E0;" points="9.95,14.9 10.95,14.2 11.45,12.5 13.25,13.1 13.85,14.1 13.85,14.7 11.85,14.8 		"/>
		<polygon style="fill:#9E9E9E;" points="11.85,14.8 12.05,14.8 11.95,13.8 11.55,12.5 11.55,12.5 11.45,12.5 10.95,14.2 9.95,14.9 
					"/>
		<polygon style="fill:#E0E0E0;" points="16.05,12.9 15.65,13.3 15.25,13.2 14.85,13.7 14.75,14.3 14.65,14.8 14.95,14.6 15.55,14 
			16.15,13.6 		"/>
		<path style="fill:#E0E0E0;" d="M12.55,11.3l0.4,0.8c0,0,0,0.3,0.4,0.3c0.764,0.075,1.532,0.109,2.3,0.1l0.4-0.8L12.55,11.3z"/>
		
			<linearGradient id="SVGID_1_" gradientUnits="userSpaceOnUse" x1="-2196.45" y1="2668.99" x2="-2160.2" y2="2668.99" gradientTransform="matrix(1 0 0 1 2202.3999 -2638.99)">
			<stop  offset="0.05" style="stop-color:#CED7DB"/>
			<stop  offset="0.1" style="stop-color:#C4CDD2"/>
			<stop  offset="0.27" style="stop-color:#A7B5BC"/>
			<stop  offset="0.41" style="stop-color:#94A6B0"/>
			<stop  offset="0.51" style="stop-color:#8DA1AB"/>
			<stop  offset="1" style="stop-color:#CED7DB"/>
		</linearGradient>
		<path style="fill:url(#SVGID_1_);" d="M38.75,14.5H9.35c-2.134,5.141-3.287,10.635-3.4,16.2c0.012,5.186,1.355,10.282,3.9,14.8
			h28.4c2.526-4.526,3.868-9.617,3.9-14.8C42.021,25.137,40.868,19.645,38.75,14.5z"/>
		<path style="opacity:0.3;fill:#5E7B88;enable-background:new    ;" d="M8.75,16.1h30.7c-0.168-0.512-0.368-1.013-0.6-1.5H9.35
			C9.068,15.063,8.865,15.57,8.75,16.1z"/>
		<path style="opacity:0.45;fill:#5E7B88;enable-background:new    ;" d="M25.15,14.5l14.7,2.9c-0.168-0.577-0.369-1.145-0.6-1.7
			l-11.2-1.2H25.15z"/>
		<polygon style="opacity:0.33;fill:#263137;enable-background:new    ;" points="12.25,12.1 25.05,14.5 28.05,14.5 12.25,12 		"/>
		
			<rect x="22.887" y="-6.854" transform="matrix(0.1599 -0.9871 0.9871 0.1599 9.4242 34.7661)" style="fill:#5E7B88;" width="4.5" height="37.4"/>
		
			<linearGradient id="SVGID_2_" gradientUnits="userSpaceOnUse" x1="-2092.4233" y1="2257.0422" x2="-2055.0334" y2="2257.0422" gradientTransform="matrix(0.99 0.16 -0.16 0.99 2434.03 -1891.88)">
			<stop  offset="0.05" style="stop-color:#5E7B88"/>
			<stop  offset="0.25" style="stop-color:#5E7B88"/>
			<stop  offset="0.51" style="stop-color:#445962"/>
			<stop  offset="0.74" style="stop-color:#5E7B88"/>
			<stop  offset="1" style="stop-color:#5E7B88"/>
		</linearGradient>
		<polygon style="opacity:0.65;fill:url(#SVGID_2_);enable-background:new    ;" points="43.35,16.7 6.45,10.7 7.05,6.6 43.95,12.6 
					"/>
		<polygon style="fill:#5E7B88;" points="18.65,4.6 18.05,8.4 20.45,8.8 20.85,6.2 30.95,7.8 30.55,10.4 32.95,10.8 33.55,7 		"/>
		
			<linearGradient id="SVGID_3_" gradientUnits="userSpaceOnUse" x1="-2081.2534" y1="2253.0645" x2="-2066.1536" y2="2253.0645" gradientTransform="matrix(0.99 0.16 -0.16 0.99 2434.03 -1891.88)">
			<stop  offset="0.05" style="stop-color:#445962"/>
			<stop  offset="0.13" style="stop-color:#4D646E"/>
			<stop  offset="0.29" style="stop-color:#5A7581"/>
			<stop  offset="0.4" style="stop-color:#5E7B88"/>
			<stop  offset="0.61" style="stop-color:#5E7B88"/>
			<stop  offset="1" style="stop-color:#445962"/>
		</linearGradient>
		<polygon style="fill:url(#SVGID_3_);" points="18.65,4.6 18.05,8.4 20.45,8.8 20.85,6.2 30.95,7.8 30.55,10.4 32.95,10.8 33.55,7 
					"/>
		
			<rect x="25.642" y="1.996" transform="matrix(0.1599 -0.9871 0.9871 0.1599 14.7053 31.4709)" style="fill:#445962;" width="0.4" height="10.2"/>
		
			<rect x="24.695" y="-4.846" transform="matrix(0.1599 -0.9871 0.9871 0.1599 7.1969 36.1643)" style="fill:#445962;" width="0.3" height="37.4"/>
		<path style="fill:#5E7B88;" d="M14.55,43.2h-2.9c-1.659-4.171-2.54-8.611-2.6-13.1c-0.103-3.958,0.791-7.878,2.6-11.4h2.9
			c0,0-2.6,3.1-2.6,11.4S14.55,43.2,14.55,43.2z"/>
		<path style="fill:#CED7DB;" d="M11.55,42.9c0.054,0.092,0.088,0.194,0.1,0.3h2.9c-0.069-0.084-0.105-0.191-0.1-0.3H11.55z"/>
		<path style="fill:#536B75;" d="M14.15,19.2c0.103-0.218,0.238-0.421,0.4-0.6h-2.9l-0.3,0.6H14.15z"/>
		<path style="fill:#5E7B88;" d="M21.75,43.2h-2.9c-1.229-4.259-1.868-8.667-1.9-13.1c-0.097-3.886,0.548-7.755,1.9-11.4h2.9
			c0,0-1.9,3.1-1.9,11.4S21.75,43.2,21.75,43.2z"/>
		<path style="fill:#CED7DB;" d="M18.75,42.9c0.054,0.092,0.088,0.194,0.1,0.3h2.9c-0.012-0.106-0.046-0.208-0.1-0.3H18.75z"/>
		<path style="fill:#536B75;" d="M21.45,19.2l0.3-0.6h-2.9c-0.086,0.193-0.153,0.394-0.2,0.6H21.45z"/>
		<path style="fill:#5E7B88;" d="M33.55,43.2h2.9c1.642-4.175,2.506-8.614,2.55-13.1c0.103-3.958-0.791-7.878-2.6-11.4h-2.9
			c0,0,2.6,3.1,2.6,11.4S33.55,43.2,33.55,43.2z"/>
		<path style="fill:#CED7DB;" d="M36.55,42.9c-0.054,0.092-0.088,0.194-0.1,0.3h-2.9c0.069-0.084,0.105-0.191,0.1-0.3H36.55z"/>
		<path style="fill:#536B75;" d="M33.95,19.2c-0.103-0.218-0.238-0.421-0.4-0.6h2.9l0.3,0.6H33.95z"/>
		<path style="fill:#5E7B88;" d="M26.45,43.2h2.9c1.229-4.259,1.868-8.667,1.9-13.1c0.097-3.886-0.548-7.755-1.9-11.4h-2.9
			c0,0,1.9,3.1,1.9,11.4S26.45,43.2,26.45,43.2z"/>
		<path style="fill:#CED7DB;" d="M29.35,42.9c-0.054,0.092-0.088,0.194-0.1,0.3h-2.9c0.012-0.106,0.046-0.208,0.1-0.3H29.35z"/>
		<path style="fill:#536B75;" d="M26.65,19.2l-0.3-0.6h2.9c0.086,0.193,0.153,0.394,0.2,0.6H26.65z"/>
	</g>
</g>
</svg>
