<svg xmlns="http://www.w3.org/2000/svg" xmlns:xlink="http://www.w3.org/1999/xlink" viewBox="0 0 96 96"><defs><style>.cls-1{fill:url(#未命名的渐变_496);}.cls-2{fill:url(#未命名的渐变_491);}.cls-3{fill:url(#未命名的渐变_108);}.cls-4{fill:url(#未命名的渐变_108-2);}.cls-5{fill:url(#未命名的渐变_108-3);}.cls-6{fill:url(#未命名的渐变_108-4);}.cls-7{fill:url(#未命名的渐变_108-5);}.cls-8{fill:url(#未命名的渐变_108-6);}.cls-9{fill:#d4f7e3;}.cls-10{fill:url(#未命名的渐变_546);}</style><linearGradient id="未命名的渐变_496" x1="48" y1="91" x2="48" y2="5" gradientUnits="userSpaceOnUse"><stop offset="0" stop-color="#004015"/><stop offset="1" stop-color="#00e6ac"/></linearGradient><linearGradient id="未命名的渐变_491" x1="48" y1="74" x2="48" y2="22" gradientUnits="userSpaceOnUse"><stop offset="0" stop-color="#00531c"/><stop offset="1" stop-color="#00943f"/></linearGradient><linearGradient id="未命名的渐变_108" x1="48" y1="39.57" x2="48" y2="5.85" gradientUnits="userSpaceOnUse"><stop offset="0.04" stop-color="#9ee9a9"/><stop offset="0.9" stop-color="#fdfdfd"/></linearGradient><linearGradient id="未命名的渐变_108-2" x1="2506.75" y1="-555.49" x2="2506.75" y2="-589.49" gradientTransform="translate(-731.89 2492.8) rotate(-60)" xlink:href="#未命名的渐变_108"/><linearGradient id="未命名的渐变_108-3" x1="4268.08" y1="2487.61" x2="4268.08" y2="2453.61" gradientTransform="matrix(-0.5, -0.87, -0.87, 0.5, 4343.95, 2496.61)" xlink:href="#未命名的渐变_108"/><linearGradient id="未命名的渐变_108-4" x1="48" y1="3580.7" x2="48" y2="3546.7" gradientTransform="matrix(1, 0, 0, -1, 0, 3637.13)" xlink:href="#未命名的渐变_108"/><linearGradient id="未命名的渐变_108-5" x1="4268.08" y1="1132.66" x2="4268.08" y2="1098.66" gradientTransform="translate(1193.86 4314.75) rotate(-120)" xlink:href="#未命名的渐变_108"/><linearGradient id="未命名的渐变_108-6" x1="2401.08" y1="4366.4" x2="2401.08" y2="4332.4" gradientTransform="matrix(0.5, -0.87, -0.87, -0.5, 2636.14, 4314.75)" xlink:href="#未命名的渐变_108"/><linearGradient id="未命名的渐变_546" x1="48" y1="59" x2="48" y2="37" gradientUnits="userSpaceOnUse"><stop offset="0" stop-color="#50c750"/><stop offset="1" stop-color="#b4edb4"/></linearGradient></defs><title>96</title><g id="麒麟生物识别"><g id="_96_复制" data-name="96_复制"><path class="cls-1" d="M10,28.51v39A4,4,0,0,0,12,71L46,90.47a4,4,0,0,0,4,0L84,71a4,4,0,0,0,2-3.47v-39A4,4,0,0,0,84,25L50,5.53a4,4,0,0,0-4,0L12,25A4,4,0,0,0,10,28.51Z"/><polygon class="cls-2" points="25 35 25 61 48 74 71 61 71 35 48 22 25 35"/><polygon class="cls-3" points="48 5.85 45 39.57 51 39.57 48 5.85"/><polygon class="cls-4" points="10.98 27.15 38.92 46.75 41.92 41.56 10.98 27.15"/><polygon class="cls-5" points="85.02 27.15 57.08 46.75 54.08 41.55 85.02 27.15"/><polygon class="cls-6" points="48 90.44 45 56.44 51 56.44 48 90.44"/><polygon class="cls-7" points="11.29 69.16 42.23 54.75 39.23 49.56 11.29 69.16"/><polygon class="cls-8" points="84.71 69.16 53.77 54.75 56.77 49.56 84.71 69.16"/><path class="cls-9" d="M44,87v0a4,4,0,0,0,2,3.45h0a4,4,0,0,0,4,0h0A4,4,0,0,0,52,87v0a4,4,0,0,0-2-3.45h0a4,4,0,0,0-4,0h0A4,4,0,0,0,44,87Z"/><path class="cls-9" d="M44,8.8v.4a3.4,3.4,0,0,0,1.76,3l.59.33a3.4,3.4,0,0,0,3.3,0l.59-.33A3.4,3.4,0,0,0,52,9.2V8.8a3.4,3.4,0,0,0-1.76-3l-.59-.33a3.4,3.4,0,0,0-3.3,0l-.59.33A3.4,3.4,0,0,0,44,8.8Z"/><path class="cls-9" d="M10,67.61v0a4,4,0,0,0,2,3.46h0a4,4,0,0,0,4,0h0a4,4,0,0,0,2-3.46v0a4,4,0,0,0-2-3.45h0a4,4,0,0,0-4,0h0A4,4,0,0,0,10,67.61Z"/><path class="cls-9" d="M78,67.61v0a4,4,0,0,0,2,3.46h0a4,4,0,0,0,4,0h0a4,4,0,0,0,2-3.46v0a4,4,0,0,0-2-3.45h0a4,4,0,0,0-4,0h0A4,4,0,0,0,78,67.61Z"/><path class="cls-9" d="M78,28.49v0A4,4,0,0,0,80,32h0a4,4,0,0,0,4,0h0a4,4,0,0,0,2-3.45v0A4,4,0,0,0,84,25h0a4,4,0,0,0-4,0h0A4,4,0,0,0,78,28.49Z"/><path class="cls-9" d="M10,28.49v0A4,4,0,0,0,12,32h0a4,4,0,0,0,4,0h0a4,4,0,0,0,2-3.45v0A4,4,0,0,0,16,25h0a4,4,0,0,0-4,0h0A4,4,0,0,0,10,28.49Z"/><circle class="cls-10" cx="48" cy="48" r="11"/></g></g></svg>