<?xml version="1.0" encoding="utf-8"?>
<!-- Generator: Adobe Illustrator 24.0.0, SVG Export Plug-In . SVG Version: 6.00 Build 0)  -->
<svg version="1.1" id="图层_177" xmlns="http://www.w3.org/2000/svg" xmlns:xlink="http://www.w3.org/1999/xlink" x="0px" y="0px"
	 viewBox="0 0 96 96" style="enable-background:new 0 0 96 96;" xml:space="preserve">
<style type="text/css">
	.st0{fill-rule:evenodd;clip-rule:evenodd;fill:url(#path-4-3_1_);}
	.st1{fill-rule:evenodd;clip-rule:evenodd;fill:url(#SVGID_1_);}
	.st2{fill-rule:evenodd;clip-rule:evenodd;fill:url(#SVGID_2_);}
</style>
<g id="_96">
	
		<linearGradient id="path-4-3_1_" gradientUnits="userSpaceOnUse" x1="-442.9426" y1="230.6751" x2="-443.0027" y2="230.9551" gradientTransform="matrix(238 0 0 238 105474 -54878.9688)">
		<stop  offset="0" style="stop-color:#5EED46"/>
		<stop  offset="1" style="stop-color:#00CA8E"/>
	</linearGradient>
	<path id="path-4-3" class="st0" d="M48,4C23.7,4,4,23.7,4,48l0,0c0,24.3,19.7,44,44,44l0,0c16.6,0,31.8-9.4,39.3-24.2H65.5
		c-4.8,4.3-11,6.6-17.5,6.6l0,0c-14.6,0-26.3-11.8-26.3-26.4l0,0c0-14.6,11.8-26.4,26.3-26.4l0,0c12-0.2,22.5,7.8,25.6,19.4H43.6
		c-8.5,0-15.4,7.5-15.4,16h62.9c0.6-3,0.9-6,0.9-9l0,0C92,23.7,72.3,4,48,4z"/>
	<linearGradient id="SVGID_1_" gradientUnits="userSpaceOnUse" x1="33.4154" y1="16.6457" x2="49.4113" y2="80.6238">
		<stop  offset="0" style="stop-color:#00BF9E"/>
		<stop  offset="1" style="stop-color:#00D9BB;stop-opacity:0"/>
	</linearGradient>
	<path class="st1" d="M38.8,12.3L38.8,12.3c-16.5,0-29.9,10.8-33.7,26C5,38.5,5,38.7,4.9,38.9c0,0.1,0,0.2-0.1,0.2
		C4.3,42,4,44.9,4,47.8c0,0.3,0,0.6,0,1c0,0.1,0,0.3,0,0.4c0.1,3.5,0.6,7,1.5,10.3c1.1,3.9,2.6,7.6,4.7,11c0.6,0.2,9.8,0.6,10,0.8
		l2.6,1.5c2.5,6.1,3.3,9.1,13.3,12.2l3.7-2.2c11.6,3.6,11,5.2,33.6-4.1l2.6-1.8l8.8-9.1H65.5c-4.8,4.3-11,6.6-17.5,6.6
		c-14.6,0-26.3-11.8-26.3-26.4c0-14.6,11.8-26.4,26.3-26.4c12-0.2,22.5,7.8,25.6,19.4h-30c-8.5,0-15.4,7.5-15.4,16h45
		c0.8-3,1.2-6,1.2-9.1C74.4,28.2,58.5,12.3,38.8,12.3z"/>
	<linearGradient id="SVGID_2_" gradientUnits="userSpaceOnUse" x1="9.335" y1="35.2377" x2="59.326" y2="82.956">
		<stop  offset="0" style="stop-color:#00985B"/>
		<stop  offset="1" style="stop-color:#1BB0D4;stop-opacity:0"/>
	</linearGradient>
	<path class="st2" d="M65.5,67.8c-4.8,4.3-11,6.6-17.5,6.6c-14.6,0-26.3-11.8-26.3-26.4c0-9,4.5-17,11.5-21.8
		c-13.9,7.6-22.6,22.2-22.6,38.1h0c0,23.9,38.1,15.9,41.8,16.7l2.6,0.4c22.6,0,22.9,4.6,25.1-13.5H65.5z"/>
</g>
</svg>
