<?xml version="1.0" encoding="utf-8"?>
<!-- Generator: Adobe Illustrator 24.0.0, SVG Export Plug-In . SVG Version: 6.00 Build 0)  -->
<svg version="1.1" id="图层_1" xmlns="http://www.w3.org/2000/svg" xmlns:xlink="http://www.w3.org/1999/xlink" x="0px" y="0px"
	 viewBox="0 0 96 96" style="enable-background:new 0 0 96 96;" xml:space="preserve">
<style type="text/css">
	.st0{opacity:0.16;}
	.st1{fill:url(#SVGID_1_);}
	.st2{fill:#FFFFFF;}
	.st3{fill:url(#SVGID_2_);}
	.st4{fill:url(#SVGID_3_);}
	.st5{fill:url(#SVGID_4_);}
	.st6{fill:url(#SVGID_5_);}
	.st7{opacity:0.8;}
	.st8{clip-path:url(#SVGID_6_);}
	.st9{opacity:8.000000e-02;}
	.st10{opacity:0.15;}
	.st11{fill:url(#SVGID_7_);}
	.st12{fill:url(#SVGID_8_);}
</style>
<g>
	<g>
		<g class="st0">
			<image style="overflow:visible;" width="156" height="156" xlink:href="75E2F30C.png"  transform="matrix(1 0 0 1 -31 -30)">
			</image>
		</g>
		<g>
			
				<image style="overflow:visible;opacity:0.24;" width="92" height="92" xlink:href="75E2F30D.png"  transform="matrix(1 0 0 1 0.7411 2.7411)">
			</image>
			<g>
				<g>
					<linearGradient id="SVGID_1_" gradientUnits="userSpaceOnUse" x1="42.8414" y1="82.701" x2="50.3969" y2="8.5335">
						<stop  offset="0" style="stop-color:#F0ECD8"/>
						<stop  offset="0.2004" style="stop-color:#F2F0E2"/>
						<stop  offset="0.5331" style="stop-color:#F4F4EB"/>
						<stop  offset="1" style="stop-color:#F5F5EE"/>
					</linearGradient>
					<path class="st1" d="M84.2,31.3C74.9,9.8,49.6,0.3,28.3,10.6C9.1,20,0.3,42.9,8.1,62.8c6.6,16.6,22.5,26.4,39.2,26.1
						c2,0,3.8-1.1,4.8-2.9l3-5.3c2.2-3.9,6.3-6.4,10.8-6.5l3.3-0.1c6.2-0.1,11.9-3.8,14.5-9.5C88.5,54.4,89,42.4,84.2,31.3z"/>
				</g>
			</g>
		</g>
		<g>
			<g>
				<path class="st2" d="M84.2,31.3C74.9,9.8,49.6,0.3,28.3,10.6C18.6,15.4,11.6,23.5,8,33c4-8.9,11.4-17.1,22-22.1
					c20.6-9.7,45.7,1.8,53.5,20.7c4.6,11.1,4.2,23-0.5,33.1c-2.5,5.3-7.8,8.8-13.7,8.9l-4.1,0.1c-4.2,0.1-8,2.4-10.1,6l-3.3,5.9
					c-0.8,1.4-2.5,2.6-4.1,2.7c-10.6,0.7-21.2-3.4-29.4-10.6c7.8,7.3,18.3,11.3,29,11.1c2,0,3.8-1.1,4.8-2.9l3-5.3
					c2.2-3.9,6.3-6.4,10.8-6.5l3.3-0.1c6.2-0.1,11.9-3.8,14.5-9.5C88.5,54.4,89,42.4,84.2,31.3z"/>
			</g>
		</g>
		<g>
			<g>
				<path class="st2" d="M21.6,55c-4.2,0-7.6-3.3-7.8-7.5c0,0.1,0,0.2,0,0.3c0,4.3,3.5,7.8,7.8,7.8c4.3,0,7.8-3.5,7.8-7.8
					c0-0.1,0-0.2,0-0.3C29.2,51.6,25.8,55,21.6,55z"/>
			</g>
		</g>
		<ellipse class="st2" cx="21.6" cy="47.1" rx="7.8" ry="7.8"/>
		<linearGradient id="SVGID_2_" gradientUnits="userSpaceOnUse" x1="21.6127" y1="54.9589" x2="21.6127" y2="39.3311">
			<stop  offset="0" style="stop-color:#2093BF;stop-opacity:0.7"/>
			<stop  offset="1" style="stop-color:#2093BF"/>
		</linearGradient>
		<ellipse class="st3" cx="21.6" cy="47.1" rx="7.8" ry="7.8"/>
		<g>
			<g>
				<path class="st2" d="M32.1,33.4c-3.8,0-7-3.1-7.1-6.9c0,0.1,0,0.1,0,0.2c0,3.9,3.2,7.1,7.1,7.1c3.9,0,7.1-3.2,7.1-7.1
					c0-0.1,0-0.2,0-0.2C39,30.3,35.9,33.4,32.1,33.4z"/>
			</g>
		</g>
		<ellipse class="st2" cx="32.1" cy="26.3" rx="7.1" ry="7.1"/>
		<linearGradient id="SVGID_3_" gradientUnits="userSpaceOnUse" x1="32.0707" y1="19.8095" x2="32.0707" y2="33.1278">
			<stop  offset="0" style="stop-color:#E5D319"/>
			<stop  offset="1" style="stop-color:#E5D319;stop-opacity:0.7"/>
		</linearGradient>
		<ellipse class="st4" cx="32.1" cy="26.3" rx="7.1" ry="7.1"/>
		<g>
			<g>
				<path class="st2" d="M55.6,27.2c-3.1,0-5.6-2.5-5.7-5.5c0,0.1,0,0.1,0,0.2c0,3.2,2.6,5.7,5.7,5.7s5.7-2.6,5.7-5.7
					c0-0.1,0-0.1,0-0.2C61.2,24.8,58.7,27.2,55.6,27.2z"/>
			</g>
		</g>
		<linearGradient id="SVGID_4_" gradientUnits="userSpaceOnUse" x1="55.5621" y1="27.2157" x2="55.5621" y2="15.7495">
			<stop  offset="0" style="stop-color:#E66438"/>
			<stop  offset="0.3782" style="stop-color:#E45C38"/>
			<stop  offset="1" style="stop-color:#E25337"/>
		</linearGradient>
		<ellipse class="st5" cx="55.6" cy="21.5" rx="5.7" ry="5.7"/>
	</g>
	<g>
		<g>
			
				<image style="overflow:visible;opacity:0.32;" width="71" height="61" xlink:href="75E2F30B.png"  transform="matrix(1 0 0 1 28.613 12.613)">
			</image>
			<g>
				
					<linearGradient id="SVGID_5_" gradientUnits="userSpaceOnUse" x1="77.881" y1="65.7418" x2="69.9794" y2="55.8864" gradientTransform="matrix(1.0558 -2.153850e-02 -7.050696e-02 1.0375 -11.5318 -20.3934)">
					<stop  offset="0" style="stop-color:#475259"/>
					<stop  offset="3.363706e-02" style="stop-color:#303C44"/>
					<stop  offset="7.767107e-02" style="stop-color:#18252E"/>
					<stop  offset="0.1048" style="stop-color:#0F1D26"/>
					<stop  offset="0.2642" style="stop-color:#2A3740"/>
					<stop  offset="0.6043" style="stop-color:#5F6A73"/>
					<stop  offset="0.8599" style="stop-color:#808A92"/>
					<stop  offset="1" style="stop-color:#8C969E"/>
				</linearGradient>
				<path class="st6" d="M34.4,64.4c1,1.2,2.3,1.8,3.2,1.4c6.5-2.8,17.5-9.9,29.1-19.2c11.6-9.3,20.9-18.4,25-24.2
					c0.6-0.8,0.3-2.3-0.7-3.5l0,0c-1-1.2-2.3-1.8-3.2-1.4c-6.5,2.8-17.5,9.9-29,19.2c-11.6,9.3-20.9,18.4-25,24.2
					C33.1,61.8,33.4,63.2,34.4,64.4L34.4,64.4z"/>
			</g>
		</g>
		<g class="st7">
			<defs>
				<path id="SVGID_33_" class="st7" d="M34.4,64.4c1,1.2,2.3,1.8,3.2,1.4c6.5-2.8,17.5-9.9,29.1-19.2c11.6-9.3,20.9-18.4,25-24.2
					c0.6-0.8,0.3-2.3-0.7-3.5l0,0c-1-1.2-2.3-1.8-3.2-1.4c-6.5,2.8-17.5,9.9-29,19.2c-11.6,9.3-20.9,18.4-25,24.2
					C33.1,61.8,33.4,63.2,34.4,64.4L34.4,64.4z"/>
			</defs>
			<clipPath id="SVGID_6_">
				<use xlink:href="#SVGID_33_"  style="overflow:visible;"/>
			</clipPath>
			<g class="st8">
				<g class="st9">
					<path class="st2" d="M32.7,57.9c4.2,0,7.6,3.4,7.6,7.6c0,4.2-3.4,7.6-7.6,7.6s-7.6-3.4-7.6-7.6C25.1,61.3,28.5,57.9,32.7,57.9
						 M32.7,56.6c-4.9,0-8.9,4-8.9,8.9s4,8.9,8.9,8.9c4.9,0,8.9-4,8.9-8.9S37.6,56.6,32.7,56.6L32.7,56.6z"/>
				</g>
				<g class="st10">
					<path class="st2" d="M32.7,57.9c4.2,0,7.6,3.4,7.6,7.6c0,4.2-3.4,7.6-7.6,7.6s-7.6-3.4-7.6-7.6C25.1,61.3,28.5,57.9,32.7,57.9
						 M32.7,56.6c-4.9,0-8.9,4-8.9,8.9s4,8.9,8.9,8.9c4.9,0,8.9-4,8.9-8.9S37.6,56.6,32.7,56.6L32.7,56.6z"/>
				</g>
			</g>
		</g>
		<g>
			
				<linearGradient id="SVGID_7_" gradientUnits="userSpaceOnUse" x1="92.6317" y1="-46.6002" x2="106.5671" y2="-43.4488" gradientTransform="matrix(0.9986 -5.256090e-02 5.256090e-02 0.9986 -81.1403 119.4076)">
				<stop  offset="0" style="stop-color:#1C55A6"/>
				<stop  offset="1" style="stop-color:#2299D9"/>
			</linearGradient>
			<path class="st11" d="M4,64.7c3.8,5.4,7.3,5.3,8.5,4.9c5.2-2,5-6,11.1-8.5c6.8-2.8,11.5,1.3,12.6,3.1c2,3,1,13.8-9.7,16.6
				C18.2,83.1,7.8,78.2,4,64.7z"/>
			
				<linearGradient id="SVGID_8_" gradientUnits="userSpaceOnUse" x1="96.5552" y1="-35.489" x2="120.7509" y2="-46.8574" gradientTransform="matrix(0.9986 -5.256090e-02 5.256090e-02 0.9986 -81.1403 119.4076)">
				<stop  offset="0" style="stop-color:#30D2F2"/>
				<stop  offset="0.4552" style="stop-color:#91C38F"/>
				<stop  offset="0.7933" style="stop-color:#D5B94A"/>
				<stop  offset="0.7952" style="stop-color:#D5B94A"/>
				<stop  offset="0.9984" style="stop-color:#FAA125"/>
			</linearGradient>
			<path class="st12" d="M11.4,77.1c13.4,2.8,7.8-11,15.3-14.9c3.5-1.8,7.3-0.8,9.5,2.1c2.7,3.5,0.3,13.5-8.6,16.4
				C20.2,83,13.9,79.3,11.4,77.1z"/>
		</g>
	</g>
</g>
</svg>
