<svg xmlns="http://www.w3.org/2000/svg" xmlns:xlink="http://www.w3.org/1999/xlink" viewBox="0 0 96 96"><defs><style>.cls-1{fill:url(#未命名的渐变_118);}.cls-2{fill:#161a26;}.cls-3{fill:#333233;}.cls-4{fill:url(#未命名的渐变_47);}.cls-5{opacity:0.3;fill:url(#未命名的渐变_46);}.cls-6{opacity:0.26;fill:url(#未命名的渐变_46-2);}.cls-7{opacity:0.35;fill:url(#未命名的渐变_463);}.cls-8{opacity:0.2;}.cls-9{fill:#fff;}.cls-10{fill:url(#未命名的渐变_405);}.cls-11{fill:url(#未命名的渐变_409);}.cls-12{fill:url(#未命名的渐变_150);}.cls-13{fill:url(#未命名的渐变_153);}.cls-14{fill:none;}.cls-15{fill:url(#未命名的渐变_404);}</style><linearGradient id="未命名的渐变_118" x1="6" y1="54" x2="84" y2="54" gradientUnits="userSpaceOnUse"><stop offset="0" stop-color="#ad8c63"/><stop offset="0.12" stop-color="#987f5f"/><stop offset="0.29" stop-color="#7e7059"/><stop offset="0.39" stop-color="#756a57"/><stop offset="0.4" stop-color="#7f735f"/><stop offset="0.43" stop-color="#a29379"/><stop offset="0.45" stop-color="#bdad8e"/><stop offset="0.48" stop-color="#d1bf9c"/><stop offset="0.51" stop-color="#dcc9a5"/><stop offset="0.53" stop-color="#e0cda8"/><stop offset="0.7" stop-color="#d9c9a3"/><stop offset="1" stop-color="#d6c7a1"/></linearGradient><linearGradient id="未命名的渐变_47" x1="13.41" y1="35.76" x2="78.58" y2="73.38" gradientUnits="userSpaceOnUse"><stop offset="0" stop-color="#6c7ba3" stop-opacity="0.3"/><stop offset="0.53" stop-color="#313030" stop-opacity="0"/><stop offset="0.88" stop-color="#5d6785" stop-opacity="0.22"/><stop offset="1" stop-color="#6c7ba3" stop-opacity="0.3"/></linearGradient><radialGradient id="未命名的渐变_46" cx="103.35" cy="-114.26" r="28.75" gradientTransform="translate(-71.72 163.77) scale(0.92 1.04)" gradientUnits="userSpaceOnUse"><stop offset="0" stop-color="#6c7ba3" stop-opacity="0.8"/><stop offset="0.73" stop-color="#6c7ba3" stop-opacity="0"/></radialGradient><radialGradient id="未命名的渐变_46-2" cx="-771.13" cy="247.07" r="28.75" gradientTransform="translate(-643.59 306.32) rotate(180) scale(0.92 0.98)" xlink:href="#未命名的渐变_46"/><linearGradient id="未命名的渐变_463" x1="-1666.18" y1="-304.21" x2="-1590.18" y2="-304.21" gradientTransform="matrix(-0.71, 0.71, -0.71, -0.71, -1321.49, 990.08)" gradientUnits="userSpaceOnUse"><stop offset="0.4" stop-color="#fff" stop-opacity="0"/><stop offset="0.48" stop-color="#fff" stop-opacity="0.35"/><stop offset="0.5" stop-color="#f2f7ff" stop-opacity="0.65"/><stop offset="0.53" stop-color="#fff" stop-opacity="0.35"/><stop offset="0.53" stop-color="#fff" stop-opacity="0.35"/><stop offset="0.56" stop-color="#fff" stop-opacity="0.22"/><stop offset="0.58" stop-color="#fff" stop-opacity="0.12"/><stop offset="0.61" stop-color="#fff" stop-opacity="0.05"/><stop offset="0.64" stop-color="#fff" stop-opacity="0.01"/><stop offset="0.68" stop-color="#fff" stop-opacity="0"/></linearGradient><linearGradient id="未命名的渐变_405" x1="69.08" y1="53.84" x2="75.7" y2="6.72" gradientUnits="userSpaceOnUse"><stop offset="0" stop-color="#eb3d3d"/><stop offset="1" stop-color="#ff9a8c"/></linearGradient><linearGradient id="未命名的渐变_409" x1="38.98" y1="43.58" x2="51.02" y2="64.42" gradientUnits="userSpaceOnUse"><stop offset="0" stop-color="#ff7272"/><stop offset="0.97" stop-color="#ec4342"/></linearGradient><radialGradient id="未命名的渐变_150" cx="126.74" cy="-104.17" fx="136.42223337786" fy="-95.32427512351224" r="13.11" gradientTransform="translate(-71.72 150.23) scale(0.92 0.92)" gradientUnits="userSpaceOnUse"><stop offset="0" stop-color="#ff7272" stop-opacity="0"/><stop offset="0.33" stop-color="#ff7a79" stop-opacity="0.01"/><stop offset="0.58" stop-color="#ff9490" stop-opacity="0.05"/><stop offset="0.8" stop-color="#ffc1b7" stop-opacity="0.11"/><stop offset="1" stop-color="#ffffed" stop-opacity="0.2"/><stop offset="1" stop-color="#ffffed" stop-opacity="0.2"/></radialGradient><radialGradient id="未命名的渐变_153" cx="125.37" cy="-107.95" r="9.81" gradientTransform="translate(-71.72 150.23) scale(0.92 0.92)" gradientUnits="userSpaceOnUse"><stop offset="0" stop-color="#fff" stop-opacity="0.3"/><stop offset="0.22" stop-color="#fff" stop-opacity="0.26"/><stop offset="0.59" stop-color="#fff" stop-opacity="0.15"/><stop offset="1" stop-color="#fff" stop-opacity="0"/></radialGradient><linearGradient id="未命名的渐变_404" x1="61.23" y1="22.26" x2="91.5" y2="22.26" gradientUnits="userSpaceOnUse"><stop offset="0" stop-color="#ff6f66"/><stop offset="1" stop-color="#f23f3f"/></linearGradient></defs><title>96</title><g id="麒麟音乐"><g id="_96" data-name="96"><path class="cls-1" d="M45,93A39,39,0,1,1,84,54h0A39,39,0,0,1,45,93Z"/><path class="cls-2" d="M45,92A38,38,0,1,1,83,54h0A38,38,0,0,1,45,92Z"/><path class="cls-3" d="M45,32.83A21.17,21.17,0,1,0,66.19,54h0A21.17,21.17,0,0,0,45,32.83ZM45,16A38,38,0,1,1,7,54,38,38,0,0,1,45,16Z"/><path class="cls-4" d="M45,32.83A21.17,21.17,0,1,0,66.19,54h0A21.17,21.17,0,0,0,45,32.83ZM45,16A38,38,0,1,1,7,54,38,38,0,0,1,45,16Z"/><path class="cls-5" d="M23.85,54A21.17,21.17,0,0,1,39.91,33.46l-2-16.79a38,38,0,0,0-26,56.07L25.26,61.59A21.06,21.06,0,0,1,23.85,54Z"/><path class="cls-6" d="M66.15,54A21.17,21.17,0,0,1,50.09,74.58l2,16.79a38,38,0,0,0,26-56.07L64.74,46.45A21.06,21.06,0,0,1,66.15,54Z"/><path id="反光" class="cls-7" d="M18.13,80.87a38,38,0,1,1,53.74,0A38,38,0,0,1,18.13,80.87Z"/><g class="cls-8"><path d="M45,16v0h0A38,38,0,1,0,83,54,38,38,0,0,0,45,16Zm0,75.6A37.62,37.62,0,1,1,45,16.4h0a37.62,37.62,0,1,1,0,75.24Z"/><path d="M45,17.37h0A36.65,36.65,0,1,0,81.67,54,36.66,36.66,0,0,0,45,17.37Zm0,72.94A36.29,36.29,0,1,1,81.32,54,36.3,36.3,0,0,1,45,90.31Z"/><path d="M45,18.71A35.31,35.31,0,1,0,80.32,54,35.33,35.33,0,0,0,45,18.71ZM45,89A35,35,0,1,1,80,54,35,35,0,0,1,45,89Z"/><path d="M45,20A34,34,0,1,0,79,54,34,34,0,0,0,45,20Zm0,67.6A33.62,33.62,0,1,1,45,20.4h0a33.62,33.62,0,1,1,0,67.24Z"/><path d="M45,21.37h0A32.65,32.65,0,1,0,77.63,54.06,32.65,32.65,0,0,0,45,21.37Zm0,64.94A32.29,32.29,0,1,1,77.31,54,32.3,32.3,0,0,1,45,86.31Z"/><path d="M45,22.71h0A31.31,31.31,0,1,0,76.33,54,31.32,31.32,0,0,0,45,22.71ZM45,85A31,31,0,1,1,76,54,31,31,0,0,1,45,85Z"/><path d="M45,24.05A30,30,0,1,0,75,54,30,30,0,0,0,45,24.05Zm0,59.59A29.62,29.62,0,1,1,45,24.4h0a29.62,29.62,0,1,1,0,59.24Z"/><path d="M45,25.38h0A28.64,28.64,0,1,0,73.66,54,28.65,28.65,0,0,0,45,25.38ZM45,82.3A28.28,28.28,0,1,1,73.31,54,28.29,28.29,0,0,1,45,82.3Z"/><path d="M45,26.71h0A27.31,27.31,0,1,0,72.32,54,27.32,27.32,0,0,0,45,26.71ZM45,81A27,27,0,1,1,72,54v0A27,27,0,0,1,45,81Z"/><path d="M45,28.05h0A26,26,0,1,0,71,54,26,26,0,0,0,45,28.05Zm0,51.59A25.62,25.62,0,1,1,70.64,54,25.62,25.62,0,0,1,45,79.64Z"/><path d="M45,29.38h0A24.64,24.64,0,1,0,69.65,54,24.65,24.65,0,0,0,45,29.38ZM45,78.3A24.28,24.28,0,1,1,69.3,54,24.28,24.28,0,0,1,45,78.3Z"/><path d="M45,30.71h0A23.31,23.31,0,1,0,68.32,54,23.32,23.32,0,0,0,45,30.71ZM45,77A23,23,0,1,1,68,54,23,23,0,0,1,45,77Z"/></g><path class="cls-9" d="M55,54A10,10,0,1,1,45,44h0A10,10,0,0,1,55,54"/><g id="音符"><path class="cls-10" d="M73.18,9.7A17.8,17.8,0,0,0,60,3a1.73,1.73,0,0,0-1.73,1.47L52.61,44.68a11.57,11.57,0,0,1,4.1,8.86c0,.28,0,.56,0,.84l4.47-33S65.93,20,69.7,22.57a14.18,14.18,0,0,0,6.73,2.6c4.21.36,12.76-1.3,15.07-4.3C86.36,21,78.92,17.39,73.18,9.7Z"/><ellipse class="cls-11" cx="45" cy="54" rx="12" ry="12.04"/><ellipse class="cls-12" cx="45" cy="54" rx="12" ry="12.04"/><ellipse class="cls-13" cx="43.73" cy="50.5" rx="9.1" ry="9.12"/><rect class="cls-14" x="33.44" y="41.82" width="23.31" height="23.37"/><path class="cls-15" d="M76.43,25.17h0c3.68.32,10.66-.91,13.91-3.23a9.08,9.08,0,0,0,1.16-1.07h0a15.57,15.57,0,0,1-6.32-1.34c-10.35,7.16-15.43-4.74-24,1.84,2.71-.57,5.92-.52,8.47,1.2A14.1,14.1,0,0,0,76.43,25.17Z"/></g></g></g></svg>