<?xml version="1.0" encoding="utf-8"?>
<!-- Generator: Adobe Illustrator 24.0.0, SVG Export Plug-In . SVG Version: 6.00 Build 0)  -->
<svg version="1.1" id="图层_1" xmlns="http://www.w3.org/2000/svg" xmlns:xlink="http://www.w3.org/1999/xlink" x="0px" y="0px"
	 viewBox="0 0 96 96" style="enable-background:new 0 0 96 96;" xml:space="preserve">
<style type="text/css">
	.st0{opacity:0.2;enable-background:new    ;}
	.st1{fill:url(#SVGID_1_);}
	.st2{opacity:0.85;}
	.st3{fill:#FFFFFF;}
	.st4{clip-path:url(#SVGID_3_);}
	.st5{fill:url(#SVGID_4_);}
	.st6{opacity:0.13;fill:#FFFFD9;enable-background:new    ;}
	.st7{opacity:0.14;fill:#FFFFD9;enable-background:new    ;}
	.st8{fill:#FFFFD9;}
	.st9{fill:url(#SVGID_5_);}
	.st10{fill:url(#SVGID_6_);}
	.st11{fill:url(#SVGID_7_);}
	.st12{fill:url(#SVGID_8_);}
	.st13{fill:#FFEF5F;}
	.st14{fill:url(#SVGID_9_);}
	.st15{fill:url(#SVGID_10_);}
	.st16{opacity:0.92;}
	.st17{fill:url(#SVGID_11_);}
	.st18{fill:url(#SVGID_12_);}
	.st19{opacity:0.8;}
	.st20{fill:#221606;}
</style>
<g id="_96">
	<path class="st0" d="M85.2,68.2L27.5,83.7c-5.4,1.4-11-1.8-12.4-7.2c0,0,0,0,0,0L5.3,40c-1.5-5.4,1.7-11,7.2-12.5L70.2,12
		c5.4-1.4,11,1.8,12.4,7.2c0,0,0,0,0,0l9.8,36.5C93.8,61.1,90.6,66.7,85.2,68.2z"/>
	
		<linearGradient id="SVGID_1_" gradientUnits="userSpaceOnUse" x1="3.9977" y1="50.175" x2="91.6798" y2="50.175" gradientTransform="matrix(1 0 0 -1 0 98)">
		<stop  offset="0" style="stop-color:#56BCF0"/>
		<stop  offset="0.51" style="stop-color:#3DA0DC"/>
		<stop  offset="1" style="stop-color:#2989CC"/>
	</linearGradient>
	<path class="st1" d="M84.2,68.2L26.5,83.7c-5.4,1.4-11-1.8-12.4-7.2c0,0,0,0,0,0L4.3,40c-1.5-5.4,1.7-11,7.2-12.5L69.2,12
		c5.4-1.4,11,1.8,12.4,7.2c0,0,0,0,0,0l9.8,36.5C92.8,61.1,89.6,66.7,84.2,68.2z"/>
	<path class="st0" d="M23.1,85C17,85,12,80,12,73.9V37.1C12,31,17,26,23.1,26h58.7C88,26,93,31,93,37.1v36.7C93,80,88,85,81.9,85
		H23.1z M23.1,31c-3.4,0-6.1,2.7-6.1,6.1v36.7c0,3.4,2.7,6.1,6.1,6.1h58.7c3.4,0,6.1-2.7,6.1-6.1V37.1c0-3.4-2.7-6.1-6.1-6.1H23.1z"
		/>
	<path class="st0" d="M81.8,30c3.9,0,7.1,3.2,7.1,7.1v36.7c0,3.9-3.2,7.1-7.1,7.1H23.1c-3.9,0-7.1-3.2-7.1-7.1V37.2
		c0-3.9,3.2-7.1,7.1-7.1l0,0L81.8,30 M81.8,27H23.1C17.5,27,13,31.5,13,37.2v36.7C13,79.5,17.5,84,23.1,84h58.7
		C87.5,84,92,79.5,92,73.8V37.2C92,31.5,87.5,27,81.8,27z"/>
	<g class="st2">
		<path class="st3" d="M71.8,14.7L71.8,14.7c3.2,0,6,2.2,6.8,5.3l9.8,36.5c1,3.8-1.2,7.7-5,8.7L25.7,80.7c-0.6,0.2-1.2,0.2-1.8,0.2
			c-3.2,0-6.1-2.2-6.9-5.3L7.3,39.2c-1-3.8,1.2-7.7,5-8.8L70,14.9C70.6,14.8,71.2,14.7,71.8,14.7 M71.8,11.7c-0.9,0-1.8,0.1-2.6,0.4
			L11.5,27.5C6.1,29,2.9,34.6,4.3,40c0,0,0,0,0,0l9.8,36.4c1.2,4.4,5.2,7.5,9.8,7.6c0.9,0,1.8-0.1,2.6-0.3l57.7-15.5
			c5.4-1.5,8.6-7.1,7.2-12.5l-9.8-36.5C80.4,14.7,76.4,11.7,71.8,11.7L71.8,11.7z"/>
	</g>
	<g>
		<defs>
			<path id="SVGID_2_" d="M22.5,30h60c3.6,0,6.4,2.9,6.4,6.5v38c0,3.6-2.9,6.4-6.4,6.4h-60c-3.6,0-6.5-2.9-6.5-6.4v-38
				C16,32.9,18.9,30,22.5,30z"/>
		</defs>
		<clipPath id="SVGID_3_">
			<use xlink:href="#SVGID_2_"  style="overflow:visible;"/>
		</clipPath>
		<g class="st4">
			
				<linearGradient id="SVGID_4_" gradientUnits="userSpaceOnUse" x1="52.6" y1="25.77" x2="52.6" y2="63.53" gradientTransform="matrix(1 0 0 -1 0 98)">
				<stop  offset="0" style="stop-color:#FFE24D"/>
				<stop  offset="0.18" style="stop-color:#FFD150"/>
				<stop  offset="0.55" style="stop-color:#FFA458"/>
				<stop  offset="1" style="stop-color:#FF6563"/>
			</linearGradient>
			<path class="st5" d="M90.1,74.4h-75V35.8c0-3.4,2.7-6.1,6.1-6.1c0,0,0,0,0,0H84c3.4,0,6.1,2.7,6.1,6.1L90.1,74.4z"/>
			<ellipse class="st6" cx="51" cy="58.7" rx="25.3" ry="25.4"/>
			<ellipse class="st7" cx="51" cy="58.7" rx="20.3" ry="20.4"/>
			<ellipse class="st8" cx="51" cy="58.7" rx="15.2" ry="15.3"/>
			
				<linearGradient id="SVGID_5_" gradientUnits="userSpaceOnUse" x1="80.3825" y1="33.9733" x2="75.1725" y2="37.8933" gradientTransform="matrix(1 0 0 -1 0 98)">
				<stop  offset="0.56" style="stop-color:#F7C161"/>
				<stop  offset="0.71" style="stop-color:#F9D177"/>
				<stop  offset="1" style="stop-color:#FEF5AA"/>
			</linearGradient>
			<polygon class="st9" points="78,56.9 72.5,63.5 84.1,63.5 			"/>
			
				<linearGradient id="SVGID_6_" gradientUnits="userSpaceOnUse" x1="83.44" y1="37.82" x2="78.28" y2="37.82" gradientTransform="matrix(1 0 0 -1 0 98)">
				<stop  offset="0.45" style="stop-color:#FCA402"/>
				<stop  offset="0.9" style="stop-color:#FA8E03"/>
				<stop  offset="1" style="stop-color:#FA8903"/>
			</linearGradient>
			<polygon class="st10" points="78,56.9 78,63.5 84.1,63.5 			"/>
			
				<linearGradient id="SVGID_7_" gradientUnits="userSpaceOnUse" x1="86.3121" y1="35.222" x2="82.9021" y2="38.742" gradientTransform="matrix(1 0 0 -1 0 98)">
				<stop  offset="0" style="stop-color:#F8A731"/>
				<stop  offset="0.37" style="stop-color:#F9B947"/>
				<stop  offset="1" style="stop-color:#FBDF74"/>
			</linearGradient>
			<polygon class="st11" points="86.2,54.9 79.2,63.3 93.9,63.3 			"/>
			
				<linearGradient id="SVGID_8_" gradientUnits="userSpaceOnUse" x1="92.03" y1="38.93" x2="86.67" y2="38.93" gradientTransform="matrix(1 0 0 -1 0 98)">
				<stop  offset="0" style="stop-color:#FFA904"/>
				<stop  offset="0.62" style="stop-color:#FA9302"/>
				<stop  offset="1" style="stop-color:#F68400"/>
			</linearGradient>
			<polygon class="st12" points="86.2,54.9 86.2,63.3 93.9,63.3 			"/>
			<path class="st13" d="M15.8,64c2.3,1.3,7.4,0.3,11.4-1.7c4.2-2.1,9.1,1,11.1,1c1.4,0,23.6,2.2,23.6,2.2c0.8-0.4,1.7-0.7,2.6-1
				c11.4-1,11.6-4.7,25-2l0.5,14c0,0-0.7,3.2-6.6,5.2c-4.2,1.4-10.6,1-21.7,1c-4.6,0-37.1,0.7-42.5-2C13,77.6,15.8,64,15.8,64z"/>
			
				<linearGradient id="SVGID_9_" gradientUnits="userSpaceOnUse" x1="54.1633" y1="16.7342" x2="50.4933" y2="37.0942" gradientTransform="matrix(1 0 0 -1 0 98)">
				<stop  offset="0.1" style="stop-color:#FEA008"/>
				<stop  offset="0.5" style="stop-color:#F98F12"/>
				<stop  offset="0.98" style="stop-color:#F27522"/>
			</linearGradient>
			<path class="st14" d="M15.1,68.3c-0.5-2,5.7-0.3,6.7,0.2s7,3.5,10.5-1.5s10.1-8.8,25.6-4.5s22.6,5,31.6,1.5c0,0,0,9.8-0.5,13.5
				c-1,7.1-25.2,5.2-34.4,5.1c-14.1-0.1-30.4,2-36.5-2C13.2,77.2,14.4,73.3,15.1,68.3z"/>
			
				<linearGradient id="SVGID_10_" gradientUnits="userSpaceOnUse" x1="19.5752" y1="19.0277" x2="69.7552" y2="27.7577" gradientTransform="matrix(1 0 0 -1 0 98)">
				<stop  offset="0" style="stop-color:#FFD438"/>
				<stop  offset="0.96" style="stop-color:#FFE049"/>
				<stop  offset="1" style="stop-color:#FFE14A"/>
			</linearGradient>
			<path class="st15" d="M16.1,75.5c1.5,0,19.2,1,21.3-3.9c1.3-3.1-2.7-7.9,1.7-9.8c8.4-3.6,24.6,4.6,49.9,16.8l-3,3l-16.2,1
				c0,0-14.3,0.6-19.3-0.2c0.1-1.9-1.1-3.5-2.9-3.9c-5.9-2-18.3-1.1-28.4,2l-3-2.9L16.1,75.5z"/>
		</g>
	</g>
	<g class="st16">
		<path class="st3" d="M81.8,30c3.9,0,7.1,3.2,7.1,7.1v36.7c0,3.9-3.2,7.1-7.1,7.1H23.1c-3.9,0-7.1-3.2-7.1-7.1V37.2
			c0-3.9,3.2-7.1,7.1-7.1l0,0L81.8,30 M81.8,27H23.1C17.5,27,13,31.5,13,37.2v36.7C13,79.5,17.5,84,23.1,84h58.7
			C87.5,84,92,79.5,92,73.8V37.2C92,31.5,87.5,27,81.8,27z"/>
	</g>
	
		<linearGradient id="SVGID_11_" gradientUnits="userSpaceOnUse" x1="-84.0524" y1="-1903.728" x2="-83.1024" y2="-1900.2681" gradientTransform="matrix(0.99 0.13 -0.13 0.99 -120.06 1965.4801)">
		<stop  offset="0.17" style="stop-color:#000000;stop-opacity:0.4"/>
		<stop  offset="0.86" style="stop-color:#000000;stop-opacity:3.000000e-02"/>
	</linearGradient>
	<path class="st17" d="M43.5,63.1L43.5,63.1c0.2-0.3,0.2-0.7,0.1-1c0-0.1,0-0.1,0.1-0.1h0.2c0.1,0,0.1,0.1,0.1,0.2
		c0,0.1,0,0.2-0.1,0.3c0,0.2,0,0.4,0,0.5c0,0.2-0.1,0.4-0.2,0.5l-0.1,0.1c-0.1,0.1-0.1,0.3,0,0.4c0,0.1,0.1,0.1,0.1,0.2h0.1
		c0.4-0.2,1-0.2,1.4,0.1c0,0,0,0,0.1,0c0.1-0.2,0.2-0.4,0.3-0.7c0.1-0.2,0.1-0.4,0-0.5c0-0.1-0.1-0.3-0.2-0.4
		c-0.1-0.2-0.2-0.3-0.3-0.5c0,0,0,0,0-0.1s0,0,0,0h0.3c0,0,0.1,0,0.1,0.1c0,0,0,0.1,0,0.1c0,0,0,0.1,0,0.1l0.2,0.3l0.2,0.5
		c0.1,0.1,0.1,0.2,0,0.3c0,0.1-0.1,0.2-0.1,0.3c0,0.1,0,0.2,0,0.4l0,0l0.3-0.5c0.1-0.2,0.2-0.3,0.2-0.5c0-0.2-0.1-0.5-0.2-0.7
		c0-0.1-0.1-0.2-0.2-0.2l0,0l0,0c0,0,0,0,0,0h0.2c0.1,0,0.1,0.1,0.1,0.1c0,0.2,0.1,0.3,0.1,0.5s0.1,0.2,0.1,0.4c0,0.2,0,0.3-0.1,0.5
		c-0.1,0.2-0.1,0.4-0.1,0.5c0,0.1,0,0.2,0.1,0.3c0,0,0,0.1,0,0.1c0-0.1,0.1-0.2,0.1-0.3l0.1-0.3c0-0.1,0.1-0.2,0.2-0.3l0,0
		c-0.2,0.3-0.3,0.7-0.3,1c0,0.2-0.1,0.4-0.2,0.6c-0.1,0.2-0.3,0.4-0.6,0.5c-0.2,0.1-0.4,0.3-0.5,0.5L45,66.7c0,0.1-0.1,0.1-0.2,0
		c0,0,0,0,0,0c0,0-0.1-0.1-0.1-0.2c-0.1-0.1-0.1-0.2-0.2-0.3c-0.1-0.1-0.3-0.2-0.5-0.2c-0.2,0-0.4,0.1-0.6,0.3
		c0,0.1-0.1,0.1-0.1,0.2c0,0.1-0.1,0.1-0.2,0c0,0,0,0,0,0c0,0-0.1-0.1-0.1-0.1c0-0.1-0.1-0.2-0.1-0.3c0-0.1-0.1-0.2-0.2-0.3
		l-0.2-0.1l-0.1-0.2c-0.1-0.1-0.2-0.1-0.3,0c0,0,0,0,0,0c-0.1,0.1-0.1,0.1-0.1,0.2c0,0.1,0,0.3,0,0.4c0,0.2-0.1,0.4-0.2,0.5
		c0,0,0,0,0,0.1c0,0.1,0,0.1-0.1,0.1c0,0-0.1,0-0.1,0c0,0-0.1,0-0.1,0c-0.1,0-0.2,0-0.3-0.1c-0.1-0.1-0.3-0.1-0.4-0.1h-0.2
		c-0.1,0-0.2-0.1-0.3-0.1c-0.1-0.1,0-0.2,0.1-0.2v-0.1c0,0,0,0,0-0.1h0.2l0.4-0.1c0.1,0,0.3,0,0.4,0l0,0v-0.4c0-0.2,0-0.4,0.1-0.6
		c0.1-0.2,0.2-0.4,0.4-0.5c0.3-0.2,0.6-0.1,0.8,0.1c0.1,0.1,0.1,0.1,0.2,0c0,0,0.1-0.1,0.1-0.1h0.1c0.1,0,0.2-0.1,0.1-0.3
		c0-0.1,0-0.1,0-0.2c0-0.1,0.1-0.2,0.1-0.3c0-0.1,0-0.2,0-0.3c0-0.2,0-0.3,0-0.5c0-0.2,0-0.5-0.1-0.7l0,0h0.1c0.1,0,0.2,0,0.2,0.1
		c0,0,0,0.1,0,0.1l0,0C43.4,62.7,43.4,62.9,43.5,63.1c-0.1,0.1-0.1,0.2,0,0.3S43.5,63.2,43.5,63.1z"/>
	
		<linearGradient id="SVGID_12_" gradientUnits="userSpaceOnUse" x1="45.2031" y1="36.9573" x2="43.0431" y2="40.8273" gradientTransform="matrix(1 0 0 -1 0 98)">
		<stop  offset="0.19" style="stop-color:#221606"/>
		<stop  offset="0.35" style="stop-color:#332406"/>
		<stop  offset="0.67" style="stop-color:#604707"/>
		<stop  offset="1" style="stop-color:#957008"/>
	</linearGradient>
	<path class="st18" d="M43.6,60.9c0,0.1-0.1,0.2-0.1,0.3c-0.1,0.2-0.1,0.4,0,0.6l0,0c0,0.2-0.1,0.2-0.2,0.2c0,0-0.1,0-0.1-0.1
		c0,0,0,0,0,0c0.1-0.2,0.2-0.4,0.2-0.7c0-0.2,0-0.3,0-0.5s0-0.2,0-0.3c0-0.1,0-0.2-0.1-0.3c0-0.1,0-0.2,0-0.2c0.1-0.2,0-0.2-0.1-0.3
		h-0.1c0,0-0.1-0.1-0.1-0.1c0-0.1-0.1-0.1-0.2,0c-0.2,0.2-0.6,0.2-0.8,0c-0.2-0.1-0.3-0.4-0.3-0.6c0-0.2,0-0.4,0-0.6
		c0-0.1,0-0.3,0.1-0.4s0,0,0,0c-0.1,0-0.3,0-0.4-0.1L41,57.5c0,0-0.1,0-0.1,0l0,0l0,0l0,0c-0.1,0-0.1-0.1,0-0.2
		c0.1-0.1,0.2-0.1,0.3-0.1h0.2c0.1,0,0.3,0,0.4,0c0.1,0,0.2,0,0.3,0c0,0,0.1,0,0.1,0c0,0,0.1-0.1,0.2,0c0,0,0.1,0.1,0,0.2
		c0,0,0,0,0,0.1c0.1,0.1,0.2,0.3,0.2,0.5c0,0.1,0,0.3,0,0.4c0,0.1,0,0.2,0.1,0.2c0.1,0.1,0.2,0.1,0.3,0c0,0,0,0,0,0l0.2-0.1
		c0,0,0.1-0.1,0.2-0.1c0.1-0.1,0.2-0.2,0.3-0.3c0-0.1,0-0.1,0.1-0.2c0,0,0.1-0.1,0.1-0.1c0-0.1,0.1-0.1,0.2,0c0,0,0,0,0,0l0.1,0.2
		c0.1,0.2,0.3,0.3,0.5,0.4c0.2,0,0.4,0,0.5-0.2c0.1-0.1,0.1-0.2,0.2-0.3c0,0,0.1-0.1,0.1-0.1c0-0.1,0.1-0.1,0.2,0c0,0,0,0,0,0
		c0,0.1,0.1,0.1,0.1,0.2c0.1,0.2,0.3,0.4,0.5,0.5c0.4,0.3,0.6,0.7,0.6,1.2c0,0.4,0.1,0.7,0.2,1.1l0,0c-0.1-0.1-0.1-0.2-0.2-0.3
		c0-0.1-0.1-0.2-0.1-0.3c0-0.1,0-0.2,0-0.3v0.1c0,0.1-0.1,0.2-0.1,0.3c-0.1,0.2-0.1,0.4,0,0.6c0.1,0.1,0.1,0.3,0,0.5
		c0,0.1-0.1,0.2-0.1,0.3s-0.1,0.3-0.2,0.5c0,0.1-0.1,0.1-0.1,0.1h-0.2l0,0l0,0l0,0c0-0.1,0.1-0.1,0.1-0.2c0.1-0.2,0.2-0.4,0.2-0.7
		c0-0.2,0-0.4-0.1-0.5L46,60.3v0c0,0.1,0,0.2,0,0.4c0,0.1,0,0.2,0.1,0.3c0.1,0.1,0.1,0.2,0,0.3l-0.3,0.5c0,0.1-0.1,0.2-0.2,0.2
		c0,0,0,0.1,0,0.1c0,0,0,0.1,0,0.1c0,0,0,0,0,0h-0.4l0,0v-0.1c0.2-0.1,0.3-0.3,0.4-0.4l0.2-0.3c0.1-0.2,0.1-0.4,0-0.5
		c-0.1-0.2-0.2-0.5-0.3-0.7c0,0,0,0-0.1,0c-0.4,0.2-1,0.2-1.4-0.1l-0.1-0.1c0,0.1-0.1,0.1-0.1,0.2c-0.1,0.1-0.1,0.2,0,0.4
		c0,0,0,0.1,0,0.1c0.1,0.2,0.2,0.4,0.2,0.5c0,0.2,0,0.3,0,0.5c0,0.1,0,0.2,0,0.3c0,0.1,0,0.2-0.1,0.2h-0.2c-0.1,0-0.1,0,0-0.1
		c0.1-0.2,0.1-0.4,0.1-0.6C43.8,61.2,43.7,61.1,43.6,60.9L43.6,60.9L43.6,60.9z"/>
	<g class="st19">
		<path class="st20" d="M53,50c0.2-0.1,0.4-0.2,0.5-0.3c-0.7,0.4-0.9,0.3-1,0.5c-0.2,0.2-0.4,0.4-0.7,0.6l0,0c0-0.1-0.1-0.1-0.2-0.1
			c0,0-0.1,0.1-0.1,0.1v0.6l0,0l0.3,0.1l0,0l0.2-0.2l0,0l-0.2-0.4V51c0.1-0.1,0.3-0.1,0.4-0.2c0.2-0.3,0.5-0.5,0.8-0.6l-0.3,0
			C52.9,50.2,53,50.2,53,50l-0.1,0.2c0.1,0,0.2-0.1,0.3-0.2C53.1,50,53.1,50,53,50z"/>
		<path class="st20" d="M53.3,49.9"/>
		<path class="st20" d="M53.3,49.9L53.3,49.9z"/>
		<path class="st20" d="M49.8,51.1L49.8,51.1z"/>
		<path class="st20" d="M49.8,51.1L49.8,51.1z"/>
		<path class="st20" d="M51.5,50.9c-0.3,0-0.6,0-0.9-0.1c-0.2-0.1-0.3,0.1-1.1,0.2c0.2,0.1,0.4,0.1,0.6,0C50,51,49.9,51,49.8,51.1
			c0.1,0,0.2,0,0.4,0l-0.2,0.1c0.1,0,0.2,0,0.4-0.1L50,51.2c0.3-0.1,0.7-0.1,1,0c0.1,0,0.3,0,0.4-0.1L51.5,50.9z"/>
	</g>
</g>
</svg>
