<?xml version="1.0" encoding="utf-8"?>
<!-- Generator: Adobe Illustrator 24.0.0, SVG Export Plug-In . SVG Version: 6.00 Build 0)  -->
<svg version="1.1" id="文本内容搜索工具" xmlns="http://www.w3.org/2000/svg" xmlns:xlink="http://www.w3.org/1999/xlink"
	 x="0px" y="0px" viewBox="0 0 96 96" style="enable-background:new 0 0 96 96;" xml:space="preserve">
<style type="text/css">
	.st0{fill:#F5F5F5;}
	.st1{fill:#DDDDDD;}
	.st2{fill:#95A0A3;}
	.st3{fill:#606060;}
	.st4{fill:url(#SVGID_1_);}
	.st5{fill:#E65C38;}
</style>
<g>
	<path class="st0" d="M22,88.5c-3,0-5.5-2.5-5.5-5.5V13c0-3,2.5-5.5,5.5-5.5h52c3,0,5.5,2.5,5.5,5.5v70c0,3-2.5,5.5-5.5,5.5H22z"/>
	<path class="st1" d="M74,9c2.2,0,4,1.8,4,4v70c0,2.2-1.8,4-4,4H22c-2.2,0-4-1.8-4-4V13c0-2.2,1.8-4,4-4H74 M74,6H22
		c-3.9,0-7,3.1-7,7v70c0,3.9,3.1,7,7,7h52c3.9,0,7-3.1,7-7V13C81,9.1,77.9,6,74,6L74,6z"/>
</g>
<rect x="23" y="77" class="st2" width="38.9" height="3"/>
<rect x="23" y="68" class="st2" width="50" height="3"/>
<rect x="23" y="59" class="st2" width="50" height="3"/>
<rect x="23" y="49" class="st2" width="50" height="3"/>
<rect x="23" y="40" class="st2" width="50" height="3"/>
<rect x="23" y="31" class="st2" width="50" height="3"/>
<rect x="23" y="18" class="st2" width="50" height="6"/>
<g id="放大镜">
	<rect x="47" y="73.8" transform="matrix(0.5 -0.866 0.866 0.5 -40.1843 82.2644)" class="st3" width="8.4" height="4.2"/>
	<path class="st1" d="M64.5,78C50.4,78,39,66.6,39,52.5C39,38.4,50.4,27,64.5,27C78.6,27,90,38.4,90,52.5c0,4.5-1.2,8.9-3.4,12.7
		C82,73.1,73.6,78,64.5,78z"/>
	
		<linearGradient id="SVGID_1_" gradientUnits="userSpaceOnUse" x1="73.8613" y1="30.4656" x2="55.193" y2="56.446" gradientTransform="matrix(1 0 0 -1 0 96)">
		<stop  offset="0" style="stop-color:#3E8BFD"/>
		<stop  offset="1" style="stop-color:#75A8FF"/>
	</linearGradient>
	<path class="st4" d="M64.5,75.5c-12.7,0-23-10.3-23-23s10.3-23,23-23c12.7,0,23,10.3,23,23c0,4-1.1,8-3.1,11.5
		C80.3,71.1,72.7,75.5,64.5,75.5z"/>
	<path class="st5" d="M50.1,75.7l2.1,1.2c1.4,0.8,1.9,2.7,1.1,4.1l-4.3,7.5c-0.8,1.4-2.7,1.9-4.1,1.1l-2.1-1.2
		c-1.4-0.8-1.9-2.7-1.1-4.1l4.3-7.5C46.8,75.3,48.7,74.8,50.1,75.7z"/>
</g>
</svg>
