<svg id="图层_122" data-name="图层 122" xmlns="http://www.w3.org/2000/svg" xmlns:xlink="http://www.w3.org/1999/xlink" viewBox="0 0 96 96"><defs><style>.cls-1{fill:url(#未命名的渐变_12);}.cls-2{fill:#fff;}.cls-3{fill:url(#未命名的渐变_12-2);}.cls-4{fill:url(#未命名的渐变_12-3);}</style><linearGradient id="未命名的渐变_12" x1="48" y1="90" x2="48" y2="6" gradientUnits="userSpaceOnUse"><stop offset="0" stop-color="#e8632e"/><stop offset="1" stop-color="#f4a338"/></linearGradient><linearGradient id="未命名的渐变_12-2" y1="50" x2="48" y2="30" xlink:href="#未命名的渐变_12"/><linearGradient id="未命名的渐变_12-3" y1="62" x2="48" y2="54" xlink:href="#未命名的渐变_12"/></defs><title>96</title><g id="_96" data-name="96"><rect class="cls-1" x="6" y="6" width="84" height="84" rx="9"/><path class="cls-2" d="M23,47.48v-20A5.53,5.53,0,0,1,28.56,22H67.44A5.53,5.53,0,0,1,73,27.49v20C73,60.17,57.73,71,51.06,75.09a6.07,6.07,0,0,1-6.2.11C38.14,71.37,23,61.2,23,47.48Z"/><rect class="cls-3" x="44" y="30" width="8" height="20" rx="4"/><circle class="cls-4" cx="48" cy="58" r="4"/></g></svg>